<?xml version="1.0" standalone="no"?>
<!DOCTYPE svg PUBLIC "-//W3C//DTD SVG 1.1//EN" "http://www.w3.org/Graphics/SVG/1.1/DTD/svg11.dtd" >
<svg xmlns="http://www.w3.org/2000/svg" xmlns:xlink="http://www.w3.org/1999/xlink" version="1.1">
<metadata></metadata>
<defs>
<font id="indivisa_display_serifthin" horiz-adv-x="702" >
<font-face units-per-em="1000" ascent="800" descent="-200" />
<missing-glyph horiz-adv-x="200" />
<glyph unicode="&#xfb00;" horiz-adv-x="616" d="M255 0h-218l-1 10l69 12q16 2 16 17v424h-78l-1 10l79 12q2 94 49 152t123 58q44 0 78.5 -25t47.5 -64q44 89 133 89q46 0 77 -28.5t31 -65.5q0 -24 -17 -24q-7 0 -13 3q-3 42 -26.5 66.5t-58.5 24.5q-58 0 -89.5 -47t-31.5 -139h172v-22h-172v-437l105 -16l-1 -10h-218 l-1 10l69 12q16 2 16 17v424h-243v-437l105 -16zM288 671q-66 0 -101.5 -47t-35.5 -139h243q0 30 7 65q-1 55 -34 88t-79 33z" />
<glyph unicode="&#xfb03;" horiz-adv-x="807" d="M255 0h-218l-1 10l69 12q16 2 16 17v424h-78l-1 10l79 12q2 94 49 152t123 58q45 0 80 -26t47 -66q47 92 145 92q51 0 86 -29.5t35 -66.5q0 -22 -17 -22q-7 0 -13 3q-4 42 -31 66.5t-67 24.5q-72 0 -107 -60q-27 -47 -27 -126h243q16 20 23 25l7 -7v-477l105 -16l-1 -10 h-218l-1 10l69 12q16 2 16 17v424h-243v-437l105 -16l-1 -10h-218l-1 10l69 12q16 2 16 17v424h-243v-437l105 -16zM288 671q-66 0 -101.5 -47t-35.5 -139h243q0 29 7 62q-1 56 -33.5 90t-79.5 34z" />
<glyph unicode="&#xfb04;" horiz-adv-x="807" d="M235 0h-198l-1 10l69 12q16 2 16 17v424h-78l-1 10l79 12q2 94 49 152t123 58q45 0 80 -26t48 -67q47 93 148 93q66 0 103 -42q12 8 18 10l7 -7v-630l85 -16l-1 -10h-198l-1 10l69 12q16 2 16 17l-1 424h-242v-437l85 -16l-1 -10h-198l-1 10l69 12q16 2 16 17v424h-243 v-437l85 -16zM288 671q-66 0 -101.5 -47t-35.5 -139h243q0 29 7 62q-1 56 -33.5 90t-79.5 34zM562 671q-66 0 -102 -47t-36 -139h242v108q-5 35 -34.5 56.5t-69.5 21.5z" />
<glyph unicode="fi" horiz-adv-x="534" d="M255 0h-218l-1 10l69 12q16 2 16 17v424h-78l-1 10l79 12q2 94 48.5 152t122.5 58q52 0 86.5 -29.5t34.5 -66.5q0 -22 -17 -22q-7 0 -13 3q-4 42 -31 66.5t-67 24.5q-73 0 -107 -60q-27 -47 -27 -126h242q16 11 24 15l7 -7v-467l85 -16l-1 -10h-198l-1 10l69 12 q16 2 16 17v424h-243v-437l105 -16z" />
<glyph unicode="fl" horiz-adv-x="534" d="M255 0h-218l-1 10l69 12q16 2 16 17v424h-78l-1 10l79 12q2 94 49.5 152t125.5 58q66 0 103 -42q12 8 18 10l7 -7v-630l85 -16l-1 -10h-198l-1 10l69 12q16 2 16 17v424h-243v-437l105 -16zM289 671q-66 0 -102 -47t-36 -139h243v95q0 41 -30.5 66t-74.5 25z" />
<glyph unicode="&#x2f;symbol&#x31;&#x2f;" horiz-adv-x="5534" d="M1865 412q-25 0 -40.5 14.5t-15.5 37.5q0 35 32.5 64t70.5 29q24 0 39 -13.5t15 -37.5q0 -36 -31 -65t-70 -29zM1284 412q-26 0 -41.5 14.5t-15.5 37.5q0 35 33 64t71 29q24 0 38.5 -13.5t14.5 -37.5q0 -36 -31 -65t-69 -29zM959 0q0 42 11 108q-16 -50 -51.5 -82.5 t-78.5 -32.5q-41 0 -63 29.5t-22 82.5q0 62 27 121t84 101t132 42q17 0 25 -1l16 73l6 102l136 7q0 -67 -46 -273t-46 -277h-130zM100 0l78 364q17 86 21 136l128 7l11 -15l-104 -492h-134zM3503 492l-57 -492h-131l20 175q5 50 33 215h-3q-31 -102 -81 -215l-76 -175h-149 l-2 175q-2 121 9 215h-2q-32 -130 -59 -215l-53 -175h-109l154 500l184 6l1 -137q2 -134 -15 -259h2q39 126 94 259l56 131l169 7zM5316 300q-37 -177 -37 -183q0 -34 36 -34q25 0 59 18l-9 -79q-52 -29 -114 -29q-105 0 -105 100q0 20 40 210l-47 1l9 44l54 14l53 95l81 6 l13 -15l-20 -86h99l6 -14l-17 -51zM3936 0q0 74 42 260l5 102l137 7q0 -31 -7 -89h2q53 89 134 89q34 0 53 -19.5t19 -51.5q0 -27 -26 -147q-18 -85 -18 -151h-131q0 55 19 150q15 71 15 87q0 24 -17 24q-34 0 -64 -82.5t-32 -178.5h-131zM3768 369q87 0 145 -32l-28 -128 q-31 -145 -31 -209h-130q0 45 12 112q-15 -52 -51 -85.5t-81 -33.5q-41 0 -63 29.5t-22 83.5q0 46 16 91.5t46 84t79 63t108 24.5zM4653 51q-67 -58 -159 -58q-65 0 -103.5 35t-38.5 102q0 94 68.5 166.5t167.5 72.5q54 0 86.5 -23.5t32.5 -64.5q0 -57 -60 -96.5t-161 -43.5 v-1q0 -64 63 -64q42 0 90 28zM2525 369q88 0 146 -32l-29 -128q-31 -145 -31 -209h-130q0 37 12 112q-15 -52 -51 -85.5t-81 -33.5q-41 0 -62.5 29.5t-21.5 83.5q0 62 26.5 120.5t85 100.5t136.5 42zM2245 256q-52 30 -97 30q-18 0 -30 -7t-12 -19q0 -14 20 -26.5t44 -22 t44 -33t20 -56.5q0 -57 -53 -93t-128 -36q-78 0 -118 28l27 93q57 -38 111 -38q19 0 29.5 7.5t10.5 18.5q0 13 -20 26t-44 23t-44 33t-20 55q0 56 54.5 93t128.5 37q58 0 104 -18zM4716 0q0 79 41 260l6 102l137 7q0 -12 -7 -89h2q52 89 134 89q34 0 53 -19.5t19 -51.5 q0 -27 -26 -147q-19 -90 -19 -151h-130q0 55 19 150q15 78 15 87q0 24 -17 24q-35 0 -65 -82t-32 -179h-130zM1752 0q0 69 26 193l15 67l6 102l137 7q0 -46 -27 -177t-27 -192h-130zM1399 362l140 7q13 -129 -5 -289h2q76 151 91 284q22 5 50 5q32 0 48.5 -8.5t16.5 -33.5 q0 -46 -51 -147.5t-116 -179.5h-149q-5 228 -27 362zM1170 0q0 72 27 193l14 67l6 102l137 7q0 -46 -27 -177t-27 -192h-130zM336 0q0 79 41 260l6 102l137 7q0 -31 -7 -89h2q52 89 134 89q34 0 53 -19.5t19 -51.5q0 -27 -26 -147q-18 -85 -18 -151h-131q0 55 19 150 q15 78 15 87q0 24 -17 24q-34 0 -64 -82.5t-32 -178.5h-131zM4490 177q47 10 73 34t26 59q0 31 -22 31q-28 0 -48.5 -38.5t-28.5 -85.5zM2435 101q23 0 47 43.5t37 100.5q3 14 9 44q-14 8 -27 8q-34 0 -62 -54.5t-28 -101.5q0 -40 24 -40zM913 101q22 0 44.5 39.5t37.5 94.5 q1 9 8 40l3 14q-14 8 -27 8q-33 0 -61.5 -54.5t-28.5 -101.5q0 -40 24 -40zM3677 101q23 0 47 43t38 101q1 8 4.5 24.5t4.5 19.5q-16 8 -27 8q-34 0 -62.5 -54.5t-28.5 -101.5q0 -40 24 -40z" />
<glyph unicode="&#x2f;symbol&#x32;&#x2f;" horiz-adv-x="932" d="M494 570l52 -90l-137 -240h-103l137 240l-52 90h103zM357 570l52 -90l-138 -240h-103l138 240l-52 90h103zM752 120h-103l-137 240l51 90l137 -240h103zM683 0h-103l-137 240l51 90l138 -240h103zM100 120l51 90h275l51 -90h-274l-52 -90zM168 0l52 90h274l52 -90h-275 l-51 -90zM789 88q18 0 30.5 -13t12.5 -31t-12.5 -31t-30.5 -13t-30.5 13t-12.5 31t12.5 31t30.5 13zM829 44q0 16 -11.5 28t-28.5 12t-28.5 -12t-11.5 -28t11.5 -28t28.5 -12t28.5 12t11.5 28zM771 69h18q7 0 11 -2q5 -4 5 -11q0 -5 -3 -8q-1 -2 -6 -4q7 -1 8 -9q0 -8 3 -16 h-8q-1 2 -1.5 6.5t-0.5 6.5q-1 10 -11 10h-8v-23h-7v50zM778 47h10q5 0 7 1q3 3 3 7q0 8 -10 8h-10v-16z" />
<glyph unicode="&#x2f;symbol&#x33;&#x2f;" horiz-adv-x="957" d="M505 638l68 -270h270l-203 -135l136 -270l-271 135l-270 -270l135 405l-270 203l338 -68zM814 87q18 0 30.5 -12.5t12.5 -31.5q0 -18 -12.5 -30.5t-30.5 -12.5t-30.5 12.5t-12.5 30.5q0 19 12.5 31.5t30.5 12.5zM854 43q0 17 -11.5 29t-28.5 12t-28.5 -12t-11.5 -29 t12 -28.5t28 -11.5t28 11.5t12 28.5zM796 68h18q8 0 11 -2q6 -3 6 -10q0 -5 -4 -9q-3 -3 -6 -3q7 -3 8 -10q2 -14 3 -16h-7q-1 2 -2 7.5t-1 6.5q0 9 -10 9h-9v-23h-7v50zM803 47h10q5 0 7 1q3 3 3 6q0 9 -10 9h-10v-16z" />
<glyph unicode="&#x2f;symbol&#x34;&#x2f;" horiz-adv-x="2607" d="M1684 406q0 65 -11 128l126 14l15 -15v-533h-130v406zM1889 406q0 62 -10 128l126 14l14 -15v-533h-130v406zM427 101v-101h-320v362q0 80 -7 135l126 7l14 -14v-396zM925 21l7 109q62 -36 144 -36q50 0 50 36q0 20 -31.5 41.5t-69 40.5t-69 57t-31.5 88q0 69 55 108 t138 39q80 0 127 -18l-14 -111q-56 29 -111 29q-27 0 -42.5 -11t-15.5 -29q0 -20 20.5 -38t50 -34t59.5 -35t50.5 -51t20.5 -72q0 -66 -53.5 -103.5t-139.5 -37.5q-41 0 -83.5 8t-61.5 20zM2405 213q0 -24 -1 -36l-11 -11h-191q14 -83 98 -83q44 0 84 21l7 -81 q-46 -30 -127 -30q-90 0 -144 47.5t-54 134.5q0 85 52 139t132 54q72 0 113.5 -43t41.5 -112zM795 0l-106 -7q-11 16 -21 49h-4q-34 -49 -104 -49q-43 0 -70 23t-27 66q0 113 191 118v20q0 54 -58 54q-55 0 -108 -29l-8 97q72 26 150 26q154 0 154 -135q0 -25 -2 -69t-2 -70 q0 -51 15 -94zM1626 0l-107 -7q-12 20 -21 49h-3q-34 -49 -105 -49q-43 0 -69.5 23t-26.5 66q0 113 191 118v20q0 54 -58 54q-54 0 -109 -29l-7 97q72 26 150 26q153 0 153 -135q0 -25 -1.5 -69.5t-1.5 -69.5q0 -51 15 -94zM2199 207l78 4q2 14 2 26q0 59 -34 59 q-44 0 -46 -89zM654 74v88q-29 -3 -47 -18t-18 -39q0 -18 10 -29t27 -11q16 0 28 9zM1485 74v88q-29 -3 -47 -18t-18 -39q0 -18 10 -29t27 -11q16 0 28 9zM2464 85q18 0 30.5 -13t12.5 -31t-12.5 -31t-30.5 -13t-31 13t-13 31t13 31t31 13zM2504 41q0 17 -12 28.5t-28 11.5 t-28 -11.5t-12 -28.5t12 -28.5t28 -11.5t28 11.5t12 28.5zM2446 66h18q7 0 11 -3q5 -3 5 -10q0 -5 -3 -9q-3 -3 -6 -3q7 -1 8 -10q0 -7 3 -15h-8q-1 2 -1.5 6.5t-0.5 6.5q-1 9 -11 9h-8v-22h-7v50zM2453 44h10q5 0 7 1q3 3 3 7q0 8 -10 8h-10v-16z" />
<glyph unicode="&#x2f;symbol&#x35;&#x2f;" horiz-adv-x="705" d="M232 -6l-132 136l124 234l129 -136zM474 -6l-121 234l128 136l124 -234z" />
<glyph unicode=" "  horiz-adv-x="200" />
<glyph unicode="&#x09;" horiz-adv-x="200" />
<glyph unicode="&#xa0;" horiz-adv-x="200" />
<glyph unicode="!" horiz-adv-x="268" d="M116 690l3 3q18 2 23 2q10 0 10 -10q0 -16 -2 -94l-7 -437h-18zM164 16q0 -16 -9 -28t-23 -12q-12 0 -20 9.5t-8 24.5q0 16 9.5 27t23.5 11q12 0 19.5 -8.5t7.5 -23.5z" />
<glyph unicode="&#x22;" horiz-adv-x="326" d="M64 690l3 3q18 2 27 2l6 -6l-11 -219h-14l-5 103zM226 690l3 3q18 2 27 2l6 -6l-11 -219h-14l-5 103z" />
<glyph unicode="#" horiz-adv-x="731" d="M621 193h-164l-50 -203l-22 1l-6 6l48 196h-180l-50 -203l-22 1l-6 6l48 196h-147l-6 5l2 20h157l53 215h-162l-6 5l2 20h172l50 202l22 -1l6 -6l-48 -195h180l50 202l22 -1l6 -6l-48 -195h139l6 -5l-2 -20h-149l-53 -215h154l6 -5zM253 218h180l53 215h-180z" />
<glyph unicode="$" horiz-adv-x="516" d="M271 -120l-25 -2l-5 5v107q-54 1 -97.5 15t-56.5 36q-7 11 -7 64q0 43 6 85h8l20 -140q40 -38 133 -38q70 0 113 35.5t43 97.5q0 51 -32.5 88.5t-79 62t-93 50t-79 67t-32.5 98.5q0 63 46.5 103t119.5 45v111l25 2l5 -5v-107q45 -1 81 -12t46 -25q8 -12 8 -65t-6 -85h-8 l-20 139q-45 26 -113 26q-69 0 -110 -34t-41 -92q0 -43 23.5 -77t58.5 -54.5t76 -44t76 -45.5t58.5 -59.5t23.5 -84.5q0 -66 -46 -108t-119 -48v-111z" />
<glyph unicode="%" horiz-adv-x="909" d="M636 660h36l-401 -670h-35zM358 474q0 -88 -38 -138.5t-102 -50.5q-65 0 -102.5 48.5t-37.5 136.5q0 87 39 137t104 50q61 0 99 -48t38 -135zM220 303q49 0 78.5 45.5t29.5 125.5q0 78 -29.5 121.5t-78.5 43.5q-51 0 -81.5 -45t-30.5 -124t30.5 -123t81.5 -44zM831 182 q0 -88 -38 -138.5t-102 -50.5q-65 0 -102.5 48.5t-37.5 136.5q0 87 39 137t104 50q61 0 99 -48t38 -135zM693 11q49 0 78.5 45.5t29.5 125.5q0 78 -29.5 121.5t-78.5 43.5q-51 0 -81.5 -45t-30.5 -124t30.5 -123t81.5 -44z" />
<glyph unicode="&#x26;" horiz-adv-x="681" d="M292 -10q-97 0 -152.5 44.5t-55.5 119.5q0 111 132 180q-75 94 -75 171q0 66 48.5 110.5t114.5 44.5q63 0 102 -40.5t39 -101.5q0 -38 -22 -38q-8 0 -13 4q3 18 3 30q0 53 -31 87t-81 34q-53 0 -90.5 -36.5t-37.5 -91.5q0 -46 20.5 -84t71.5 -99l195 -234q1 -1 2.5 -3 t2.5 -3q56 63 56 172q0 59 -32 97q5 6 17 6q23 0 35 -27.5t12 -69.5q0 -120 -72 -195q49 -52 89 -52q27 0 61 17l6 -8q-38 -34 -77 -34q-45 0 -101 56q-69 -56 -167 -56zM116 158q0 -67 47 -105t130 -38q94 0 151 48q-12 12 -24 27l-188 225q-57 -31 -86.5 -67.5 t-29.5 -89.5z" />
<glyph unicode="'" horiz-adv-x="164" d="M64 690l3 3q18 2 27 2l6 -6l-11 -219h-14l-5 103z" />
<glyph unicode="(" horiz-adv-x="333" d="M289 -83l-14 -14q-74 67 -122.5 168.5t-48.5 227.5t48.5 227.5t122.5 168.5l14 -14q-62 -64 -107 -164.5t-46 -217.5q1 -117 45.5 -217t107.5 -165z" />
<glyph unicode=")" horiz-adv-x="333" d="M44 681l14 14q74 -67 122.5 -168.5t48.5 -227.5t-48.5 -227.5t-122.5 -168.5l-14 14q62 64 107 164.5t46 217.5q-1 117 -45.5 217t-107.5 165z" />
<glyph unicode="*" horiz-adv-x="426" d="M229 473q0 -24 -16 -24t-16 24q0 11 4.5 41t6.5 49q-17 -11 -37 -27.5t-31.5 -24t-20.5 -7.5q-15 0 -15 14q0 10 14 19q11 6 40 17t45 18q-20 9 -47 20t-37 16q-15 8 -15 18q0 14 14 14q7 0 19 -7.5t34.5 -25t36.5 -26.5q-2 20 -6.5 49.5t-4.5 40.5q0 24 16 24t16 -24 q0 -11 -4.5 -41t-6.5 -49q15 10 36 27t33 25t21 8q7 0 10.5 -4.5t3.5 -8.5q0 -10 -16 -19q-9 -5 -36 -16.5t-46 -20.5q18 -8 45.5 -19.5t37.5 -16.5q21 -11 13 -25q-3 -7 -13 -7q-9 0 -21 8t-33 24.5t-35 26.5q2 -19 6.5 -48.5t4.5 -41.5z" />
<glyph unicode="+" horiz-adv-x="539" d="M459 312h-176v-182h-28v182h-180v23q84 2 180 2v183h28v-183q69 1 177 1l4 -5z" />
<glyph unicode="," horiz-adv-x="207" d="M143 16q0 -36 -19.5 -86t-53.5 -89l-6 5q43 70 48 144h-1q-29 3 -29 33q0 15 8.5 25t22.5 10q30 0 30 -42z" />
<glyph unicode="-" horiz-adv-x="369" d="M48 250v23h272v-23h-272z" />
<glyph unicode="." horiz-adv-x="188" d="M93 -10q-13 0 -21 9.5t-8 22.5q0 14 9 25t23 11q28 0 28 -31q0 -15 -8 -26t-23 -11z" />
<glyph unicode="/" horiz-adv-x="371" d="M113 -10l-27 7l-2 3l174 695l27 -7l2 -3z" />
<glyph unicode="0" horiz-adv-x="552" d="M496 328q0 -156 -60 -247t-160 -91q-103 0 -161.5 86.5t-58.5 245.5q0 156 61 247t164 91q96 0 155.5 -87.5t59.5 -244.5zM279 15q84 0 134 84t50 229t-50.5 226t-133.5 81q-86 0 -138 -84t-52 -229t52 -226t138 -81z" />
<glyph unicode="1" horiz-adv-x="343" d="M299 0h-257v10l98 12q16 2 16 17v587l-114 4l-1 10l138 20l7 -7v-627l114 -16z" />
<glyph unicode="2" horiz-adv-x="485" d="M58 0l-7 23q36 40 103 111t95 103t64.5 81.5t50 89t13.5 81.5q0 65 -36 105t-97 40q-64 0 -112 -40.5t-74 -109.5l-10 4q18 76 70.5 124t126.5 48q77 0 121 -47.5t44 -121.5q0 -50 -19 -98.5t-66 -108t-87 -102t-122 -124.5l-33 -33h282q21 0 30.5 20t26.5 100l7 -1 q-3 -80 -17 -144h-354z" />
<glyph unicode="3" horiz-adv-x="457" d="M401 165q0 -73 -59.5 -124t-149.5 -51q-80 0 -128 31t-48 82q0 45 36 70l6 -5q-11 -18 -11 -45q0 -53 39.5 -80.5t107.5 -27.5q75 0 124.5 42t49.5 109q0 71 -59 109t-142 38q-25 0 -51 -3l-2 16q238 39 238 189q0 53 -35 86.5t-93 33.5q-62 0 -112.5 -38.5t-73.5 -103.5 l-10 4q18 73 72 118t128 45q69 0 113 -39.5t44 -102.5q0 -68 -46.5 -116t-131.5 -71q86 -6 140 -50.5t54 -115.5z" />
<glyph unicode="4" horiz-adv-x="515" d="M24 172l329 488l22 -5v-480h100l-5 -25h-95v-150h-31v150h-308zM58 175h286v430z" />
<glyph unicode="5" horiz-adv-x="468" d="M420 170q0 -79 -58.5 -129.5t-145.5 -50.5q-77 0 -126.5 32.5t-49.5 84.5q0 48 36 76l6 -5q-11 -27 -11 -54q0 -52 40 -81t107 -29q77 0 123 41.5t46 113.5q0 182 -308 179l-7 7l2 295h321q2 -75 -11 -145h-8q-5 83 -10.5 100.5t-31.5 17.5h-231l-2 -255q11 1 32 1 q129 0 208 -51t79 -148z" />
<glyph unicode="6" horiz-adv-x="511" d="M463 190q0 -88 -58.5 -144t-140.5 -56q-97 0 -152.5 68t-55.5 172q0 178 102 290t260 140l4 -17q-134 -33 -222 -119t-107 -227q31 36 80 53.5t99 17.5q85 0 138 -48.5t53 -129.5zM89 228q0 -92 46.5 -153t128.5 -61q71 0 118.5 48t47.5 127q0 71 -43.5 113t-120.5 42 q-51 0 -100.5 -20.5t-75.5 -60.5q-1 -11 -1 -35z" />
<glyph unicode="7" horiz-adv-x="467" d="M218 0h-32q10 160 75 332t152 291h-300q-32 0 -41 -21t-13 -107h-8q-13 75 -11 155h398l5 -26q-87 -113 -151 -287.5t-74 -336.5z" />
<glyph unicode="8" horiz-adv-x="492" d="M444 145q0 -67 -60 -111t-145 -44t-138 43.5t-53 110.5q0 59 48 110t123 75q-65 35 -100.5 74.5t-35.5 101.5q0 65 50 110t124 45q75 0 119.5 -41t44.5 -106q0 -61 -40.5 -107.5t-105.5 -76.5q35 -18 51 -27t43.5 -28t40.5 -35.5t23.5 -41t10.5 -52.5zM115 506 q0 -57 37 -94t105 -73q134 77 134 173q0 53 -36.5 88t-96.5 35q-64 0 -103.5 -36.5t-39.5 -92.5zM78 146q0 -58 45 -94.5t119 -36.5q71 0 120.5 35t49.5 92q0 14 -3 26.5t-6.5 22.5t-12.5 21.5t-14 18t-19.5 17t-20 15t-23.5 15t-23.5 13.5t-26.5 14t-25 13 q-160 -74 -160 -172z" />
<glyph unicode="9" horiz-adv-x="511" d="M48 460q0 88 58.5 144t140.5 56q97 0 152.5 -68t55.5 -172q0 -178 -102 -290t-260 -140l-4 17q134 33 222 119t107 227q-31 -36 -80 -53.5t-99 -17.5q-85 0 -138 48.5t-53 129.5zM81 461q0 -71 43.5 -113t120.5 -42q51 0 100.5 20.5t75.5 60.5q1 11 1 35q0 92 -46.5 153 t-128.5 61q-71 0 -118.5 -48t-47.5 -127z" />
<glyph unicode=":" horiz-adv-x="188" d="M93 340q-13 0 -21 9.5t-8 22.5q0 14 9 25t23 11q28 0 28 -31q0 -15 -8 -26t-23 -11zM93 -10q-13 0 -21 9.5t-8 22.5q0 14 9 25t23 11q28 0 28 -31q0 -15 -8 -26t-23 -11z" />
<glyph unicode=";" horiz-adv-x="207" d="M112 340q-13 0 -21 9.5t-8 22.5q0 14 9 25t23 11q28 0 28 -31q0 -15 -8 -26t-23 -11zM143 16q0 -36 -19.5 -86t-53.5 -89l-6 5q43 70 48 144h-1q-29 3 -29 33q0 15 8.5 25t22.5 10q30 0 30 -42z" />
<glyph unicode="&#x3c;" horiz-adv-x="532" d="M442 518v-30l-335 -165l334 -160v-30q-174 79 -375 182l-1 16z" />
<glyph unicode="=" horiz-adv-x="539" d="M459 413h-384v23q132 3 385 3l4 -5zM459 211h-384v23q132 3 385 3l4 -5z" />
<glyph unicode="&#x3e;" horiz-adv-x="532" d="M90 133v30l335 165l-334 160v30q174 -79 375 -182l1 -16z" />
<glyph unicode="?" horiz-adv-x="406" d="M199 190l-13 -1q-15 68 -15 102q0 13 5.5 20.5t19.5 17.5q3 2 26 17t34.5 23t32.5 27t32 36t20 42t9 51q0 66 -39.5 105.5t-108.5 39.5q-61 0 -103.5 -40t-42.5 -95q0 -30 10 -51q-4 -4 -13 -4q-13 0 -21 14t-8 35q0 69 52.5 117.5t129.5 48.5t126.5 -46.5t49.5 -123.5 q0 -29 -10 -56.5t-20 -45.5t-35 -41t-35.5 -31t-41.5 -29t-34 -23zM221 30q0 -16 -9 -28t-23 -12q-12 0 -20 9.5t-8 24.5q0 16 9.5 27t23.5 11q12 0 19.5 -8.5t7.5 -23.5z" />
<glyph unicode="@" horiz-adv-x="1006" d="M707 15q77 0 139.5 88t62.5 217q0 138 -92 226.5t-242 88.5q-86 0 -171.5 -34.5t-153.5 -94.5t-110.5 -150t-42.5 -192q0 -146 94.5 -240t250.5 -94q142 0 271 84l9 -14q-122 -95 -283 -95q-166 0 -270.5 100t-104.5 251q0 111 44.5 207t117.5 160t165.5 100.5 t188.5 36.5q161 0 261.5 -97t100.5 -246q0 -138 -74 -232.5t-167 -94.5q-73 0 -101.5 53.5t-14.5 139.5l15 95q-23 -59 -54.5 -119.5t-78 -114.5t-85.5 -54q-33 0 -53 33t-20 93q0 100 39 191t106 147t143 56q42 0 86 -20l-10 -39l-46 -191q-59 -245 80 -245zM342 117 q0 -44 11.5 -72.5t33.5 -28.5q48 0 126 135t118 269l16 54q-29 11 -61 11q-95 0 -169.5 -111.5t-74.5 -256.5z" />
<glyph unicode="A" horiz-adv-x="635" d="M311 654h13l217 -590q10 -26 17.5 -33.5t29.5 -11.5l47 -9l-1 -10h-216l-1 10l104 15l-79 215h-255l-78 -216l95 -14l-1 -10h-202l-1 10l50 9q20 4 28.5 12.5t17.5 32.5zM195 263h239l-120 329z" />
<glyph unicode="B" horiz-adv-x="562" d="M298 0h-233l-1 10l74 12q16 2 16 17v585l-92 16l1 10h218q83 0 138 -43t55 -115q0 -61 -35 -101.5t-87 -55.5q75 -12 120.5 -56t45.5 -109q0 -81 -61 -125.5t-159 -44.5zM273 627h-87v-283h99q74 0 115.5 41t41.5 106q0 62 -47.5 99t-121.5 37zM283 322h-97v-299h112 q84 0 135.5 38.5t51.5 107.5q0 71 -56 112t-146 41z" />
<glyph unicode="C" horiz-adv-x="563" d="M494 22q-52 -32 -146 -32q-132 0 -212.5 89t-80.5 241q0 153 80.5 246.5t213.5 93.5q78 0 139 -32q3 -33 3 -61q0 -66 -6 -111h-8l-21 157q-47 23 -110 23q-116 0 -187 -87t-71 -229q0 -139 72.5 -222.5t184.5 -83.5q72 0 117 22l21 166h8q6 -47 6 -115q0 -31 -3 -65z " />
<glyph unicode="D" horiz-adv-x="643" d="M272 0h-207l-1 10l74 12q16 2 16 17v585l-92 16l1 10h215q145 0 227.5 -86t82.5 -236q0 -148 -85 -238t-231 -90zM274 628h-88v-606h90q129 0 204 83.5t75 222.5t-75.5 219.5t-205.5 80.5z" />
<glyph unicode="E" horiz-adv-x="541" d="M482 0h-417l-1 10l74 12q16 2 16 17v585l-92 16l1 10h411q4 -29 4 -69q0 -61 -6 -106h-8l-20 150q-46 2 -140 2h-118v-289l215 5l-1 -30l-214 4v-294h122q96 0 144 2l20 150h8q6 -45 6 -106q0 -40 -4 -69z" />
<glyph unicode="F" horiz-adv-x="498" d="M295 0h-230l-1 10l74 12q16 2 16 17v585l-92 16l1 10h409q4 -31 4 -73q0 -63 -6 -110h-8l-20 158q-46 2 -140 2h-116v-299l220 5l-1 -30l-219 4v-281l110 -16z" />
<glyph unicode="G" horiz-adv-x="596" d="M508 22q-58 -32 -150 -32q-136 0 -219.5 90t-83.5 244q0 151 83.5 243.5t221.5 92.5q83 0 139 -32q3 -33 3 -61q0 -66 -6 -111h-8l-21 157q-48 23 -110 23q-122 0 -195.5 -85.5t-73.5 -226.5t75 -225.5t192 -84.5q72 0 121 23v234l-97 16l1 8h202l1 -8l-59 -12 q-16 -4 -16 -17v-236z" />
<glyph unicode="H" horiz-adv-x="728" d="M277 0h-212l-1 10l74 12q16 2 16 17v585l-92 16l1 10h212l1 -10l-74 -12q-16 -2 -16 -17v-268h356v281l-92 16l1 10h212l1 -10l-74 -12q-16 -2 -16 -17v-585l92 -16l-1 -10h-212l-1 10l74 12q16 2 16 17v281h-356v-294l92 -16z" />
<glyph unicode="I" horiz-adv-x="340" d="M277 0h-212l-1 10l74 12q16 2 16 17v585l-92 16l1 10h212l1 -10l-74 -12q-16 -2 -16 -17v-585l92 -16z" />
<glyph unicode="J" horiz-adv-x="318" d="M186 110q0 -82 -25.5 -129.5t-92.5 -95.5l-7 8q51 50 72 96.5t21 129.5v505l-92 16l1 10h212l1 -10l-74 -12q-16 -2 -16 -17v-501z" />
<glyph unicode="K" horiz-adv-x="633" d="M277 0h-212l-1 10l74 12q16 2 16 17v585l-92 16l1 10h212l1 -10l-74 -12q-16 -2 -16 -17v-267h154l170 283l-99 13l1 10h203l2 -10q-9 -2 -27.5 -5.5t-28.5 -5.5q-24 -5 -37 -27l-159 -262l167 -280q19 -31 55 -39l46 -11l-1 -10h-39q-36 0 -55 10t-34 35l-164 276h-154 v-295l92 -16z" />
<glyph unicode="L" horiz-adv-x="522" d="M475 0h-410l-1 10l74 12q16 2 16 17v585l-92 16l1 10h212l1 -10l-74 -12q-16 -2 -16 -17v-588h107q101 0 151 2l20 151h8q6 -47 6 -113q0 -30 -3 -63z" />
<glyph unicode="M" horiz-adv-x="885" d="M94 650h132l211 -587l221 587h123l1 -10l-83 -15l52 -561q2 -27 9.5 -35t37.5 -12l47 -7l-1 -10h-218l-1 10l97 15l-53 584l-219 -581l-11 -32h-13l-10 32l-208 579l-50 -585l83 -12l-1 -10h-199l-1 10l50 8q29 4 36.5 11.5t9.5 34.5l49 561l-92 15z" />
<glyph unicode="N" d="M271 0h-206l-1 10l74 12q16 2 16 17v585l-92 16l1 10h127l354 -608v582l-92 16l1 10h206l1 -10l-74 -12q-16 -2 -16 -17v-611h-36l-354 608v-582l92 -16z" />
<glyph unicode="O" horiz-adv-x="610" d="M555 328q0 -144 -69 -241t-183 -97t-181 92.5t-67 239.5t70.5 242.5t183.5 95.5q109 0 177.5 -94.5t68.5 -237.5zM88 322q0 -134 60.5 -220.5t155.5 -86.5q97 0 157.5 90t60.5 223q0 132 -59.5 219.5t-154.5 87.5q-97 0 -158.5 -89t-61.5 -224z" />
<glyph unicode="P" horiz-adv-x="533" d="M295 0h-230l-1 10l74 12q16 2 16 17v585l-92 16l1 10h240q92 0 150 -50.5t58 -140.5q0 -92 -60.5 -143t-152.5 -51h-112v-239l110 -16zM293 627h-107v-339h102q90 0 140 43t50 128q0 79 -49 123.5t-136 44.5z" />
<glyph unicode="Q" horiz-adv-x="610" d="M555 328q0 -133 -60 -227.5t-161 -108.5q146 -109 298 -109q8 0 18 0.5t14 0.5l1 -1q2 -4 2 -9q0 -24 -44 -24q-72 0 -164.5 38.5t-164.5 101.5q-109 4 -174 96t-65 236q0 147 70.5 242.5t183.5 95.5q109 0 177.5 -94.5t68.5 -237.5zM88 322q0 -134 60.5 -220.5 t155.5 -86.5q97 0 157.5 90t60.5 223q0 132 -59.5 219.5t-154.5 87.5q-97 0 -158.5 -89t-61.5 -224z" />
<glyph unicode="R" horiz-adv-x="599" d="M277 0h-212l-1 10l74 12q16 2 16 17v585l-92 16l1 10h230q92 0 150 -47.5t58 -133.5q0 -65 -40 -111t-103 -64l142 -236q20 -32 51 -39l48 -10l-1 -9h-54q-28 0 -43.5 10t-29.5 33l-146 245q-18 -3 -37 -3h-102v-259l92 -16zM283 627h-97v-319h92q84 0 137 42.5t53 118.5 q0 75 -49 116.5t-136 41.5z" />
<glyph unicode="S" horiz-adv-x="444" d="M400 147q0 -72 -54 -114.5t-135 -42.5q-56 0 -101 14.5t-59 36.5q-7 11 -7 64q0 43 6 85h8l20 -140q40 -38 133 -38q70 0 113 35.5t43 97.5q0 51 -32.5 88.5t-79 62t-93 50t-79 67t-32.5 98.5q0 67 52 108t133 41q47 0 87 -11t51 -26q8 -12 8 -65t-6 -85h-8l-20 139 q-45 26 -113 26q-69 0 -110 -34t-41 -92q0 -43 23.5 -77t58.5 -54.5t76 -44t76 -45.5t58.5 -59.5t23.5 -84.5z" />
<glyph unicode="T" horiz-adv-x="524" d="M369 0h-212l-1 10l74 12q16 2 16 17v588h-90q-67 0 -100 -1l-20 -153h-8q-6 56 -6 99q0 45 4 78h472q4 -33 4 -78q0 -43 -6 -99h-8l-20 153q-33 1 -100 1h-90v-601l92 -16z" />
<glyph unicode="U" d="M569 220q0 -109 -61 -169.5t-153 -60.5q-90 0 -150.5 60t-60.5 170v404l-92 16l1 10h212l1 -10l-74 -12q-16 -2 -16 -17v-385q0 -100 53 -155.5t130 -55.5q80 0 132 55t52 157v397l-93 16l1 10h207l1 -10l-90 -16v-404z" />
<glyph unicode="V" horiz-adv-x="636" d="M325 -4h-13l-219 590q-9 23 -16.5 32t-24.5 12l-52 10l1 10h202l1 -10l-92 -15l211 -565l202 564l-93 16l1 10h202l1 -10l-56 -10q-19 -3 -26 -12t-16 -32z" />
<glyph unicode="W" horiz-adv-x="969" d="M320 -4h-13l-214 590q-9 23 -16.5 32t-24.5 12l-52 10l1 10h202l1 -10l-92 -15l206 -565l156 445l-28 81q-8 23 -16 32t-25 12l-62 10l1 10h212l1 -10l-92 -15l196 -564l197 563l-93 16l1 10h202l1 -10l-56 -10q-19 -3 -26 -12t-16 -32l-208 -590h-13l-163 472z" />
<glyph unicode="X" horiz-adv-x="627" d="M124 58l171 267l-175 265q-22 34 -50 40l-48 10l1 10h202l1 -10l-93 -15l183 -276l172 275l-92 16l1 10h202l1 -10q-28 -4 -59 -10q-14 -3 -22.5 -11t-20.5 -27l-168 -264l182 -275q19 -29 43 -33l50 -10l-1 -10h-202l-1 10l93 15l-185 279l-175 -278l92 -16l-1 -10h-202 l-1 10q44 8 59 11q22 3 43 37z" />
<glyph unicode="Y" horiz-adv-x="598" d="M406 0h-212l-1 10l74 12q16 2 16 17v183l-192 373q-9 18 -16.5 25t-22.5 10l-52 10l1 10h202l1 -10l-93 -15l191 -378l191 378l-91 15l1 10h194l1 -10q-27 -4 -49 -10q-29 -7 -44 -38l-190 -372v-194l92 -16z" />
<glyph unicode="Z" horiz-adv-x="545" d="M476 77q0 -44 -4 -77h-402l-4 17l373 611h-339l-20 -163h-8q-6 47 -6 111q0 42 4 74h405l4 -17l-373 -611h335l21 163h8q6 -43 6 -108z" />
<glyph unicode="[" horiz-adv-x="365" d="M301 -96h-157v791h157v-23h-127v-745h127v-23z" />
<glyph unicode="\" horiz-adv-x="371" d="M258 -10l-174 695l2 3l27 7l174 -695l-2 -3z" />
<glyph unicode="]" horiz-adv-x="365" d="M64 695h157v-791h-157v23h127v745h-127v23z" />
<glyph unicode="^" horiz-adv-x="525" d="M135 210h-35l142 335h36l147 -335h-34l-131 299z" />
<glyph unicode="_" horiz-adv-x="512" d="M48 -185v23h416v-23h-416z" />
<glyph unicode="`" horiz-adv-x="262" d="M202 584l-7 -7q-135 95 -135 128q0 18 20 18h3q34 -56 119 -139z" />
<glyph unicode="a" horiz-adv-x="473" d="M445 15q-18 -25 -50 -25q-62 0 -62 86v10q-21 -40 -63.5 -68t-94.5 -28q-55 0 -87.5 30t-32.5 80q0 77 77 119t201 48v92q0 66 -24 96.5t-76 30.5q-54 0 -93.5 -35t-39.5 -75q0 -14 4 -26q-4 -6 -14 -6q-22 0 -22 30q0 50 51.5 93t116.5 43q67 0 97 -35.5t30 -107.5v-286 q0 -70 45 -70q17 0 35 8zM87 100q0 -40 25.5 -63t64.5 -23q50 0 92 31.5t64 85.5v114q-246 -16 -246 -145z" />
<glyph unicode="b" horiz-adv-x="512" d="M129 12l-27 -22l-3 2v674l-84 4l-1 10q57 10 108 15l7 -7v-274q25 45 65.5 70.5t86.5 25.5q82 0 129 -72.5t47 -193.5q0 -118 -57 -186t-150 -68q-60 0 -121 23v-1zM281 486q-49 0 -90.5 -32t-61.5 -86v-327q65 -27 122 -27q83 0 129 62t45 166q-1 108 -38.5 176 t-105.5 68z" />
<glyph unicode="c" horiz-adv-x="420" d="M55 242q0 125 56.5 196.5t140.5 71.5q59 0 97.5 -39t38.5 -99q0 -30 -22 -30q-8 0 -13 4q3 10 3 23q0 53 -29 85t-77 32q-71 0 -117 -64t-46 -177q0 -108 44.5 -169.5t118.5 -61.5q77 0 141 64l7 -8q-55 -80 -151 -80q-90 0 -141 67t-51 185z" />
<glyph unicode="d" horiz-adv-x="526" d="M55 230q0 129 62 204.5t164 75.5q50 0 105 -22v178l-84 4l-1 10q57 10 108 15l7 -7v-607q0 -70 45 -70q17 0 35 8l2 -4q-18 -25 -50 -25q-62 0 -62 86v11q-24 -44 -64.5 -70.5t-88.5 -26.5q-79 0 -128.5 64t-49.5 176zM87 231q0 -100 41.5 -158.5t107.5 -58.5 q43 0 86.5 32.5t63.5 84.5v329q-47 26 -109 26q-87 0 -138.5 -69.5t-51.5 -185.5z" />
<glyph unicode="e" horiz-adv-x="431" d="M398 70q-56 -80 -153 -80q-90 0 -140 67t-50 185q0 125 56.5 196.5t137.5 71.5q70 0 107.5 -50t37.5 -135q0 -33 -4 -61l-7 -5h-296v-14q0 -108 44.5 -169.5t120.5 -61.5q42 0 73 15t66 49zM247 486q-64 0 -108 -54.5t-51 -152.5l271 5q3 21 3 41q0 161 -115 161z" />
<glyph unicode="f" horiz-adv-x="343" d="M255 0h-218l-1 10l69 12q16 2 16 17v424h-78l-1 10l79 12q2 94 45 152t113 58q46 0 77 -28.5t31 -65.5q0 -24 -17 -24q-7 0 -13 3q-3 42 -26.5 66.5t-58.5 24.5q-58 0 -89.5 -47t-31.5 -139h172v-22h-172v-437l105 -16z" />
<glyph unicode="g" horiz-adv-x="422" d="M417 -58q0 -56 -59 -96.5t-163 -40.5q-79 0 -131.5 32.5t-52.5 83.5q0 47 41 79t95 40l-4 2q-48 17 -48 58q0 39 47 68q-40 19 -64 59.5t-24 98.5q0 81 45 132.5t119 51.5q115 0 201 7q3 -6 3 -16q0 -19 -25 -19q-9 0 -27 1.5t-46 4.5t-47 4l-1 -3q37 -18 58.5 -57.5 t21.5 -89.5q0 -85 -43.5 -135.5t-109.5 -50.5q-19 0 -41 5q-37 -24 -37 -56q0 -40 61 -48l74 -9q79 -9 118 -34t39 -72zM85 331q0 -66 33 -108.5t86 -42.5q55 0 88.5 43.5t33.5 114.5q0 63 -30.5 105.5t-84.5 42.5q-56 0 -91 -44.5t-35 -110.5zM43 -77q0 -41 43.5 -67.5 t116.5 -26.5q79 0 130.5 32.5t51.5 80.5q0 66 -127 81l-73 8q-66 -12 -104 -40.5t-38 -67.5z" />
<glyph unicode="h" horiz-adv-x="551" d="M224 0h-198l-1 10l69 12q16 2 16 17v627l-84 4l-1 10q57 10 108 15l7 -7v-279q28 46 72 73.5t94 27.5q66 0 100.5 -39.5t34.5 -114.5v-330l85 -16l-1 -10h-198l-1 10l69 12q16 2 16 17v317q0 130 -111 130q-45 0 -89.5 -30t-70.5 -81v-349l85 -16z" />
<glyph unicode="i" horiz-adv-x="261" d="M162 653q0 -16 -9 -28t-23 -12q-12 0 -20 9.5t-8 24.5q0 16 9.5 27t23.5 11q12 0 19.5 -8.5t7.5 -23.5zM235 0h-198l-1 10l69 12q16 2 16 17v442l-84 4l-1 10q57 10 108 15l7 -7v-477l85 -16z" />
<glyph unicode="j" horiz-adv-x="239" d="M148 654q0 -16 -9 -28t-23 -12q-12 0 -20 9.5t-8 24.5q0 16 9.5 27t23.5 11q12 0 19.5 -8.5t7.5 -23.5zM17 -187q51 50 72 96.5t21 129.5v442l-84 4l-1 10q57 10 108 15l7 -7v-473q0 -82 -25 -129.5t-91 -95.5z" />
<glyph unicode="k" horiz-adv-x="505" d="M224 0h-198l-1 10l69 12q16 2 16 17v627l-84 4l-1 10q57 10 108 15l7 -7v-410h122l129 200l-86 12l1 10h186l1 -10l-54 -12q-22 -5 -35 -25l-119 -180l117 -198q28 -47 66 -56q6 -2 18.5 -4.5t18.5 -4.5l-1 -10h-42q-30 0 -48 13.5t-37 45.5l-116 197h-121v-230l85 -16z " />
<glyph unicode="l" horiz-adv-x="250" d="M224 0h-198l-1 10l69 12q16 2 16 17v627l-84 4l-1 10q57 10 108 15l7 -7v-662l85 -16z" />
<glyph unicode="m" horiz-adv-x="841" d="M235 0h-198l-1 10l69 12q16 2 16 17v442l-84 4l-1 10q57 10 108 15l7 -7v-97q27 49 69.5 76.5t91.5 27.5q105 0 125 -106q27 49 71 77.5t93 28.5q64 0 97 -39.5t33 -114.5v-330l85 -16l-1 -10h-198l-1 10l69 12q16 2 16 17v317q0 130 -104 130q-44 0 -88.5 -30t-68.5 -79 q1 -6 1 -21v-330l85 -16l-1 -10h-198l-1 10l69 12q16 2 16 17v317q0 130 -103 130q-44 0 -88 -30t-69 -81v-349l85 -16z" />
<glyph unicode="n" horiz-adv-x="562" d="M235 0h-198l-1 10l69 12q16 2 16 17v442l-84 4l-1 10q57 10 108 15l7 -7v-97q28 49 72 76.5t95 27.5q66 0 100 -39.5t34 -114.5v-330l85 -16l-1 -10h-198l-1 10l69 12q16 2 16 17v317q0 130 -108 130q-46 0 -91.5 -30.5t-71.5 -80.5v-349l85 -16z" />
<glyph unicode="o" horiz-adv-x="484" d="M429 257q0 -119 -48.5 -193t-138.5 -74q-88 0 -137.5 65.5t-49.5 185.5q0 126 52 197.5t140 71.5q85 0 133.5 -69t48.5 -184zM87 247q0 -113 40 -173t116 -60q74 0 114 67t40 176q0 106 -39.5 167.5t-111.5 61.5t-115.5 -64t-43.5 -175z" />
<glyph unicode="p" horiz-adv-x="525" d="M244 -185h-218l-1 10l69 12q16 2 16 17v627l-84 4l-1 10q57 10 108 15l7 -7v-92q25 47 65.5 73t88.5 26q83 0 129.5 -67.5t46.5 -187.5q0 -119 -57.5 -192t-149.5 -73q-62 0 -123 23v-172l105 -16zM140 41q65 -27 124 -27q82 0 128.5 66.5t45.5 172.5q-1 107 -38 170 t-106 63q-49 0 -91 -32.5t-63 -88.5v-324z" />
<glyph unicode="q" horiz-adv-x="515" d="M500 -185h-198l-1 10l69 12q16 2 16 17v233q-24 -44 -64.5 -70.5t-88.5 -26.5q-79 0 -128.5 64t-49.5 176q0 129 62 204.5t164 75.5q52 0 105 -22l27 22l3 -2v-667l85 -16zM87 231q0 -100 41.5 -158.5t107.5 -58.5q43 0 86.5 32.5t63.5 84.5v329q-47 26 -109 26 q-87 0 -138.5 -69.5t-51.5 -185.5z" />
<glyph unicode="r" horiz-adv-x="386" d="M255 0h-218l-1 10l69 12q16 2 16 17v442l-84 4l-1 10q57 10 108 15l7 -7v-90q24 46 58.5 71.5t73.5 25.5q35 0 58 -19.5t23 -45.5q0 -11 -6 -17.5t-14 -6.5q-14 62 -72 62q-35 0 -69 -30t-52 -71v-356l105 -16z" />
<glyph unicode="s" horiz-adv-x="395" d="M182 -10q-42 0 -75 7.5t-42 17.5q-10 10 -10 58q0 36 6 72h9q1 -8 2 -21.5t1.5 -20t2 -17t2.5 -16t2.5 -12.5t3.5 -12t5 -9q15 -23 98 -23q55 0 88 26.5t33 70.5q0 37 -25 65t-61 46.5t-72.5 38t-61.5 50.5t-25 73q0 59 42.5 92.5t108.5 33.5q38 0 67.5 -8t36.5 -17 q8 -9 8 -58q0 -35 -6 -72h-9q-4 74 -13 97q-14 34 -85 34q-55 0 -86.5 -26t-31.5 -75q0 -36 25 -63t61 -45.5t72.5 -38t61.5 -51t25 -74.5q0 -57 -44 -90t-114 -33z" />
<glyph unicode="t" horiz-adv-x="352" d="M309 482v-22h-180v-315q0 -68 21 -99.5t66 -31.5q59 0 118 56l7 -7q-24 -33 -59 -53t-72 -20q-54 0 -82.5 36t-28.5 104v330h-84l-1 10l85 12l20 158l10 -2v-156h180z" />
<glyph unicode="u" horiz-adv-x="562" d="M523 15q-18 -25 -50 -25q-62 0 -62 91v9q-64 -100 -163 -100q-138 0 -138 154v337l-84 4l-1 10q57 10 108 15l7 -7v-359q0 -63 29 -96.5t81 -33.5q47 0 90 31t71 85v351l-84 4l-1 10q57 10 108 15l7 -7v-422q0 -70 45 -70q17 0 35 8z" />
<glyph unicode="v" horiz-adv-x="519" d="M269 0h-19l-158 448q-5 16 -12 22.5t-24 9.5l-56 10l1 10h198l1 -10l-85 -16l148 -421l141 421l-85 16l1 10h198l1 -10l-63 -11q-28 -5 -38 -37z" />
<glyph unicode="w" horiz-adv-x="772" d="M381 500h10l140 -444l126 418l-85 16l1 10h198l1 -10l-63 -11q-29 -5 -38 -37l-134 -442h-19l-135 427l-129 -427h-19l-143 448q-5 16 -12 22.5t-24 9.5l-56 10l1 10h198l1 -10l-85 -16l133 -418z" />
<glyph unicode="x" horiz-adv-x="516" d="M110 440q-16 23 -26 29.5t-35 11.5l-49 9l1 10h208l1 -10l-89 -16l142 -206l141 206l-88 16l1 10h198l1 -10l-57 -10q-16 -3 -26 -11t-24 -27l-135 -191l136 -197q18 -27 42 -32l64 -12l-1 -10h-208l-1 10l88 16l-141 206l-141 -206l88 -16l-1 -10h-198l-1 10l62 13 q24 5 45 35l134 191z" />
<glyph unicode="y" horiz-adv-x="519" d="M87 -195q-44 0 -44 28q0 11 8 17q17 -13 41 -13q47 0 88.5 43t67.5 125l-156 443q-5 16 -12 22.5t-24 9.5l-56 10l1 10h198l1 -10l-85 -16l148 -421l141 421l-85 16l1 10h198l1 -10l-63 -11q-28 -5 -38 -37l-149 -442q-64 -195 -182 -195z" />
<glyph unicode="z" horiz-adv-x="422" d="M378 71q0 -40 -4 -71h-328l-2 10l290 468h-255l-20 -133h-9q-6 36 -6 87q0 39 4 68h328l2 -10l-292 -468h258l19 133h9q6 -34 6 -84z" />
<glyph unicode="{" horiz-adv-x="379" d="M104 308q86 0 86 93q0 30 -17 89t-17 91q0 55 41.5 84.5t116.5 29.5l1 -20q-127 -5 -127 -92q-1 -33 16.5 -92.5t17.5 -90.5q0 -83 -68 -102q68 -19 68 -102q-1 -31 -17.5 -90.5t-15.5 -93.5q0 -86 126 -91l-1 -20q-75 0 -116 29.5t-41 83.5q0 32 16.5 90.5t16.5 88.5 q0 95 -86 95v20z" />
<glyph unicode="|" horiz-adv-x="320" d="M176 -192l-28 -3l-4 5v882l28 3l4 -5v-882z" />
<glyph unicode="}" horiz-adv-x="379" d="M275 288q-86 0 -86 -93q0 -30 17 -89t17 -91q0 -55 -41.5 -84.5t-116.5 -29.5l-1 20q127 5 127 92q1 33 -16.5 92.5t-17.5 90.5q0 83 68 102q-68 19 -68 102q1 31 17.5 90.5t15.5 93.5q0 86 -126 91l1 20q75 0 116 -29.5t41 -83.5q0 -32 -16.5 -90.5t-16.5 -88.5 q0 -95 86 -95v-20z" />
<glyph unicode="~" horiz-adv-x="516" d="M130 279q-16 0 -67 -66l-14 8q14 26 23 40t26 30.5t33 16.5q21 0 125.5 -30.5t129.5 -30.5q16 0 67 66l14 -8q-46 -87 -82 -87q-22 0 -128.5 30.5t-126.5 30.5z" />
<glyph unicode="&#xa1;" horiz-adv-x="268" d="M104 481q0 16 9 28t23 12q12 0 20 -9.5t8 -24.5q0 -16 -9.5 -27t-23.5 -11q-12 0 -19.5 8.5t-7.5 23.5zM152 -193l-3 -3q-18 -2 -23 -2q-10 0 -10 10q0 16 2 94l7 437h18z" />
<glyph unicode="&#xa2;" horiz-adv-x="459" d="M80 242q0 118 50.5 188t127.5 79v111l25 2l5 -5v-107q54 -4 89.5 -42.5t35.5 -95.5q0 -30 -22 -30q-8 0 -13 4q3 10 3 23q0 53 -29 85t-77 32q-71 0 -117 -64t-46 -177q0 -108 44.5 -169.5t118.5 -61.5q77 0 141 64l7 -8q-50 -72 -135 -79v-111l-25 -2l-5 5v107 q-84 6 -131 72.5t-47 179.5z" />
<glyph unicode="&#xa3;" horiz-adv-x="538" d="M404 314h-174l-19 -134q-17 -119 -56 -160q28 -8 133 -54t156 -46q22 0 34 3q3 -4 3 -10q0 -29 -46 -29q-53 0 -160.5 56.5t-141.5 62.5q-21 -13 -49 -13t-28 18q0 21 42 21q11 0 39 -4q28 42 44 159l18 130h-122l4 23h121l18 135q15 107 62 162.5t113 55.5 q47 0 79 -29.5t32 -64.5q0 -21 -23 -23q-21 93 -93 93q-112 0 -138 -191l-19 -138h175z" />
<glyph unicode="&#xa4;" horiz-adv-x="539" d="M456 117l-81 82q-46 -46 -114 -46q-61 0 -104 35l-71 -72l-21 21l71 71q-39 47 -39 110q0 67 44 119l-77 77l21 21q14 -14 40 -40.5t37 -37.5q46 36 105 36q61 0 106 -39l80 81l21 -21l-82 -82q37 -46 37 -106q0 -58 -35 -106q18 -18 81 -78v-8zM265 463 q-62 0 -100 -41.5t-38 -100.5t36.5 -98.5t99.5 -39.5t99.5 42t36.5 99q0 56 -37 97.5t-97 41.5z" />
<glyph unicode="&#xa5;" horiz-adv-x="646" d="M430 0h-212l-1 10l74 12q16 2 16 17v97h-170v23h170v77h-170v23h170v1l-192 335q-10 18 -17.5 25t-21.5 10l-52 10l1 10h202l1 -10l-93 -15l191 -341l191 341l-91 15l1 10h194l1 -10q-27 -4 -49 -10q-17 -4 -25.5 -12t-18.5 -26l-189 -333h169v-23h-170v-77h170v-23h-170 v-110l92 -16z" />
<glyph unicode="&#xa6;" horiz-adv-x="320" d="M176 325l-28 -3l-4 5v365l28 3l4 -5v-365zM176 -192l-28 -3l-4 5v367l28 3l4 -5v-367z" />
<glyph unicode="&#xa7;" horiz-adv-x="521" d="M457 50q0 -93 -71.5 -151.5t-159.5 -58.5q-67 0 -114.5 23t-47.5 52q0 18 19 31h7q58 -83 166 -86q26 16 43 50.5t17 76.5q0 44 -26 91t-63 88.5t-74 85t-63 95t-26 102.5q0 93 71 152t159 59q67 0 115 -26t48 -59q0 -18 -19 -31h-7q-67 96 -169 96q-25 -16 -41 -50 t-16 -76q0 -45 26 -92t63 -88t74 -83.5t63 -95t26 -105.5zM309 -116l5 -4q51 26 82 70t31 95t-26 101.5t-63 92.5t-74 83.5t-63 90t-26 97.5q0 67 34 106l-5 4q-50 -26 -80 -70t-30 -95q0 -49 26 -99t63 -92.5t74 -85.5t63 -92t26 -96q0 -66 -37 -106z" />
<glyph unicode="&#xa8;" horiz-adv-x="360" d="M121 654q0 -16 -9 -28t-23 -12q-12 0 -20 9.5t-8 24.5q0 16 9.5 27t23.5 11q12 0 19.5 -8.5t7.5 -23.5zM299 654q0 -16 -9 -28t-23 -12q-12 0 -20 9.5t-8 24.5q0 16 9.5 27t23.5 11q12 0 19.5 -8.5t7.5 -23.5z" />
<glyph unicode="&#xa9;" horiz-adv-x="650" d="M325 -12q-110 0 -185.5 75.5t-75.5 186.5q0 107 76.5 183.5t184.5 76.5q110 0 185.5 -76t75.5 -184t-76.5 -185t-184.5 -77zM326 16q96 0 163 69t67 165t-67.5 164t-163.5 68q-95 0 -163 -68t-68 -164q0 -100 66.5 -167t165.5 -67zM436 156q-34 -62 -102 -62 q-57 0 -91 39t-34 112t36.5 117t89.5 44q41 0 68.5 -28.5t27.5 -71.5q0 -24 -19 -24q-6 0 -12 4q2 10 2 15q0 40 -18.5 63.5t-49.5 23.5q-41 0 -68 -37.5t-27 -99.5q0 -61 28 -97t70 -36q50 0 94 44z" />
<glyph unicode="&#xaa;" horiz-adv-x="387" d="M359 386q-15 -21 -41 -21q-50 0 -50 63v4q-17 -28 -49 -47.5t-71 -19.5q-43 0 -68 21.5t-25 57.5q0 55 59.5 85t153.5 34v69q0 45 -18 66t-56 21q-41 0 -70 -24t-29 -53q0 -10 3 -21q-5 -5 -13 -5q-19 0 -19 24q0 35 40 66t91 31q52 0 76 -26t24 -79v-199q0 -49 34 -49 q13 0 26 5zM85 446q0 -28 19.5 -44t48.5 -16q37 0 68 21t47 57v83q-183 -11 -183 -101z" />
<glyph unicode="&#xab;" horiz-adv-x="487" d="M403 70l-12 -8q-93 126 -150 174l-2 4v17q51 51 152 182l12 -8q-15 -25 -127 -183q65 -75 127 -178zM248 70l-12 -8q-93 126 -150 174l-2 4v17q51 51 152 182l12 -8q-15 -25 -127 -183q65 -75 127 -178z" />
<glyph unicode="&#xac;" horiz-adv-x="538" d="M453 325v-193h-29v171h-359v25q143 5 380 5z" />
<glyph unicode="&#xae;" horiz-adv-x="650" d="M325 -12q-110 0 -185.5 75.5t-75.5 186.5q0 107 76.5 183.5t184.5 76.5q110 0 185.5 -76t75.5 -184t-76.5 -185t-184.5 -77zM326 16q96 0 163 69t67 165t-67.5 164t-163.5 68q-95 0 -163 -68t-68 -164q0 -100 66.5 -167t165.5 -67zM285 123l49 -12l-1 -7h-124l-1 7l31 8 q8 2 10.5 3t5 4.5t2.5 9.5v226q0 13 -16 18l-33 9l1 7h114q49 0 78.5 -23t29.5 -62q0 -60 -65 -81l33 -50q25 -37 34 -47.5t24 -15.5l17 -6l-1 -7l-20 -1q-18 -1 -30.5 5t-19 14t-18.5 26l-48 78h-52v-103zM315 378h-30v-134h41q33 0 54 17.5t21 49.5q0 67 -86 67z" />
<glyph unicode="&#xaf;" horiz-adv-x="356" d="M61 638v24h234v-24h-234z" />
<glyph unicode="&#xb0;" horiz-adv-x="377" d="M187 435q-46 0 -77.5 30.5t-31.5 80.5q0 48 33.5 81t79.5 33q47 0 77.5 -30.5t30.5 -79.5q0 -47 -33.5 -81t-78.5 -34zM189 635q-37 0 -60 -26t-23 -63q0 -38 23 -62t59 -24q37 0 60 25.5t23 64.5q0 37 -22.5 61t-59.5 24z" />
<glyph unicode="&#xb1;" horiz-adv-x="529" d="M455 374h-176v-182h-28v182h-180v23q84 2 180 2v183h28v-183q69 1 177 1l4 -5zM454 115h-384v23q132 3 385 3l4 -5z" />
<glyph unicode="&#xb2;" horiz-adv-x="353" d="M63 372l-5 18q21 20 62.5 58.5t57.5 55t38.5 43t30.5 47t8 43.5q0 35 -22 56.5t-59 21.5q-77 0 -112 -79l-6 2q11 44 44.5 71.5t80.5 27.5q49 0 76.5 -26.5t27.5 -68.5q0 -50 -40.5 -97t-135.5 -128q-18 -15 -27 -23h168q15 0 22.5 11t17.5 53l7 -1q-2 -43 -11 -85h-223z " />
<glyph unicode="&#xb3;" horiz-adv-x="357" d="M301 463q0 -41 -38 -69.5t-95 -28.5q-50 0 -81 17.5t-31 45.5q0 25 28 40l3 -3q-6 -10 -6 -23q0 -59 88 -59q44 0 73 22t29 57q0 39 -35.5 59.5t-85.5 20.5q-11 0 -31 -2l-1 9q139 22 139 102q0 29 -21.5 46.5t-56.5 17.5q-37 0 -67.5 -20.5t-44.5 -54.5l-6 2 q11 43 45.5 69t81.5 26q44 0 71.5 -22.5t27.5 -57.5q0 -78 -110 -104q55 -3 89.5 -27t34.5 -63z" />
<glyph unicode="&#xb4;" horiz-adv-x="254" d="M193 705q0 -29 -125 -124l-7 7q78 80 112 132h3q17 0 17 -15z" />
<glyph unicode="&#xb6;" horiz-adv-x="581" d="M320 190q-111 0 -183.5 60.5t-72.5 168.5q0 109 70 170t181 61h201l1 -8l-54 -12q-16 -4 -16 -17v-549q0 -107 -48 -165.5t-129 -58.5q-71 0 -114.5 36.5t-43.5 96.5q0 66 58 100l7 -5q-32 -44 -32 -91q0 -53 34 -83t94 -30q68 0 105 54.5t37 150.5v558h-80v-437h-15z " />
<glyph unicode="&#xb7;" horiz-adv-x="268" d="M133 216q-13 0 -21 9.5t-8 22.5q0 14 9 25t23 11q28 0 28 -31q0 -15 -8 -26t-23 -11z" />
<glyph unicode="&#xb8;" horiz-adv-x="237" d="M82 -71l-3 5l11 66h24l-9 -55q71 -11 71 -52q0 -30 -34.5 -47.5t-79.5 -19.5l-1 15q83 11 83 47q0 32 -62 41z" />
<glyph unicode="&#xb9;" horiz-adv-x="277" d="M221 372h-165v7l59 7q10 1 10 10v319l-69 2v6l92 14l5 -4v-345l68 -9v-7z" />
<glyph unicode="&#xba;" horiz-adv-x="401" d="M346 556q0 -85 -38 -138t-107 -53q-68 0 -107 47t-39 132q0 90 40.5 141.5t109.5 51.5q65 0 103 -49.5t38 -131.5zM85 550q0 -82 30 -124.5t86 -42.5t85.5 47t29.5 125q0 77 -29 120.5t-83 43.5t-86.5 -45t-32.5 -124z" />
<glyph unicode="&#xbb;" horiz-adv-x="487" d="M248 251q-51 -51 -152 -182l-12 8q15 25 127 183q-65 75 -127 178l12 8q93 -126 150 -174l2 -4v-17zM403 251q-51 -51 -152 -182l-12 8q15 25 127 183q-65 75 -127 178l12 8q93 -126 150 -174l2 -4v-17z" />
<glyph unicode="&#xbc;" horiz-adv-x="876" d="M608 660h36l-401 -670h-35zM245 292h-165v7l59 7q10 1 10 10v319l-69 2v6l92 14l5 -4v-345l68 -9v-7zM541 98l205 267l18 -3v-262h62l-4 -18h-58v-82h-28v82h-187zM565 100h171v227z" />
<glyph unicode="&#xbd;" horiz-adv-x="876" d="M600 660h36l-401 -670h-35zM237 292h-165v7l59 7q10 1 10 10v319l-69 2v6l92 14l5 -4v-345l68 -9v-7zM569 0l-5 18q21 20 62.5 58.5t57.5 55t38.5 43t30.5 47t8 43.5q0 35 -22 56.5t-59 21.5q-77 0 -112 -79l-6 2q11 44 44.5 71.5t80.5 27.5q49 0 76.5 -26.5t27.5 -68.5 q0 -50 -40.5 -97t-135.5 -128q-18 -15 -27 -23h168q15 0 22.5 11t17.5 53l7 -1q-2 -43 -11 -85h-223z" />
<glyph unicode="&#xbe;" horiz-adv-x="876" d="M648 660h36l-401 -670h-35zM315 383q0 -41 -38 -69.5t-95 -28.5q-50 0 -81 17.5t-31 45.5q0 25 28 40l3 -3q-6 -10 -6 -23q0 -59 88 -59q44 0 73 22t29 57q0 39 -35.5 59.5t-85.5 20.5q-11 0 -31 -2l-1 9q139 22 139 102q0 29 -21.5 46.5t-56.5 17.5q-37 0 -67.5 -20.5 t-44.5 -54.5l-6 2q11 43 45.5 69t81.5 26q44 0 71.5 -22.5t27.5 -57.5q0 -78 -110 -104q55 -3 89.5 -27t34.5 -63zM541 98l205 267l18 -3v-262h62l-4 -18h-58v-82h-28v82h-187zM565 100h171v227z" />
<glyph unicode="&#xbf;" horiz-adv-x="406" d="M185 470q0 16 9 28t23 12q12 0 20 -9.5t8 -24.5q0 -16 -9.5 -27t-23.5 -11q-12 0 -19.5 8.5t-7.5 23.5zM207 310l13 1q15 -68 15 -102q0 -13 -5.5 -20.5t-19.5 -17.5q-3 -2 -26 -17t-34.5 -23t-32.5 -27t-32 -36t-20 -42t-9 -51q0 -66 39.5 -105.5t108.5 -39.5 q61 0 103.5 40t42.5 95q0 30 -10 51q4 4 13 4q13 0 21 -14t8 -35q0 -69 -52.5 -117.5t-129.5 -48.5t-126.5 46.5t-49.5 123.5q0 29 10 56.5t20 45.5t35 41t35.5 31t41.5 29t34 23z" />
<glyph unicode="&#xc0;" horiz-adv-x="635" d="M389 734l-7 -7q-135 95 -135 128q0 18 20 18h3q34 -56 119 -139zM311 654h13l217 -590q10 -26 17.5 -33.5t29.5 -11.5l47 -9l-1 -10h-216l-1 10l104 15l-79 215h-255l-78 -216l95 -14l-1 -10h-202l-1 10l50 9q20 4 28.5 12.5t17.5 32.5zM195 263h239l-120 329z" />
<glyph unicode="&#xc1;" horiz-adv-x="635" d="M384 855q0 -29 -125 -124l-7 7q78 80 112 132h3q17 0 17 -15zM311 654h13l217 -590q10 -26 17.5 -33.5t29.5 -11.5l47 -9l-1 -10h-216l-1 10l104 15l-79 215h-255l-78 -216l95 -14l-1 -10h-202l-1 10l50 9q20 4 28.5 12.5t17.5 32.5zM195 263h239l-120 329z" />
<glyph unicode="&#xc2;" horiz-adv-x="635" d="M429 736l-8 -6q-64 69 -106 107q-45 -54 -104 -106l-7 7q72 82 100 129l4 3h18q43 -53 103 -134zM311 654h13l217 -590q10 -26 17.5 -33.5t29.5 -11.5l47 -9l-1 -10h-216l-1 10l104 15l-79 215h-255l-78 -216l95 -14l-1 -10h-202l-1 10l50 9q20 4 28.5 12.5t17.5 32.5z M195 263h239l-120 329z" />
<glyph unicode="&#xc3;" horiz-adv-x="635" d="M403 787q20 24 39 59l10 -4q-7 -31 -21.5 -55t-33.5 -24q-22 0 -88 24.5t-77 24.5q-20 -24 -39 -59l-10 4q7 31 21.5 55t33.5 24q23 0 88 -24.5t77 -24.5zM311 654h13l217 -590q10 -26 17.5 -33.5t29.5 -11.5l47 -9l-1 -10h-216l-1 10l104 15l-79 215h-255l-78 -216 l95 -14l-1 -10h-202l-1 10l50 9q20 4 28.5 12.5t17.5 32.5zM195 263h239l-120 329z" />
<glyph unicode="&#xc4;" horiz-adv-x="635" d="M259 804q0 -16 -9 -28t-23 -12q-12 0 -20 9.5t-8 24.5q0 16 9.5 27t23.5 11q12 0 19.5 -8.5t7.5 -23.5zM437 804q0 -16 -9 -28t-23 -12q-12 0 -20 9.5t-8 24.5q0 16 9.5 27t23.5 11q12 0 19.5 -8.5t7.5 -23.5zM311 654h13l217 -590q10 -26 17.5 -33.5t29.5 -11.5l47 -9 l-1 -10h-216l-1 10l104 15l-79 215h-255l-78 -216l95 -14l-1 -10h-202l-1 10l50 9q20 4 28.5 12.5t17.5 32.5zM195 263h239l-120 329z" />
<glyph unicode="&#xc5;" horiz-adv-x="635" d="M314 732q-28 0 -47 18.5t-19 45.5q0 28 21 47.5t52 19.5q28 0 47 -18.5t19 -45.5q0 -28 -21 -47.5t-52 -19.5zM318 843q-18 0 -29.5 -13.5t-11.5 -33.5q0 -19 11.5 -31.5t28.5 -12.5q18 0 29.5 13.5t11.5 33.5q0 19 -11.5 31.5t-28.5 12.5zM311 654h13l217 -590 q10 -26 17.5 -33.5t29.5 -11.5l47 -9l-1 -10h-216l-1 10l104 15l-79 215h-255l-78 -216l95 -14l-1 -10h-202l-1 10l50 9q20 4 28.5 12.5t17.5 32.5zM195 263h239l-120 329z" />
<glyph unicode="&#xc6;" horiz-adv-x="817" d="M1 0l-1 10l54 12q17 4 25 11.5t15 25.5l208 568l-88 13l1 10h535q4 -29 4 -69q0 -61 -6 -106h-8l-20 150q-46 2 -140 2h-118v-289l215 5l-1 -30l-214 4v-294h122q96 0 144 2l20 150h8q6 -45 6 -106q0 -40 -4 -69h-417l-1 10l74 12q16 2 16 17v278l-215 -4l-104 -287 l87 -16l-1 -10h-196zM430 627h-103l-103 -289h206v289z" />
<glyph unicode="&#xc7;" horiz-adv-x="563" d="M328 -71l-3 5l9 56q-126 5 -202.5 93.5t-76.5 236.5q0 153 80.5 246.5t213.5 93.5q78 0 139 -32q3 -33 3 -61q0 -66 -6 -111h-8l-21 157q-47 23 -110 23q-116 0 -187 -87t-71 -229q0 -139 72.5 -222.5t184.5 -83.5q72 0 117 22l21 166h8q6 -47 6 -115q0 -31 -3 -65 q-49 -30 -136 -32l-7 -45q71 -11 71 -52q0 -30 -34.5 -47.5t-79.5 -19.5l-1 15q83 11 83 47q0 32 -62 41z" />
<glyph unicode="&#xc8;" horiz-adv-x="541" d="M384 734l-7 -7q-135 95 -135 128q0 18 20 18h3q34 -56 119 -139zM482 0h-417l-1 10l74 12q16 2 16 17v585l-92 16l1 10h411q4 -29 4 -69q0 -61 -6 -106h-8l-20 150q-46 2 -140 2h-118v-289l215 5l-1 -30l-214 4v-294h122q96 0 144 2l20 150h8q6 -45 6 -106q0 -40 -4 -69z " />
<glyph unicode="&#xc9;" horiz-adv-x="541" d="M389 855q0 -29 -125 -124l-7 7q78 80 112 132h3q17 0 17 -15zM482 0h-417l-1 10l74 12q16 2 16 17v586l-92 16l1 10h411q4 -29 4 -69q0 -60 -6 -107h-8l-20 151q-46 2 -140 2h-118v-290l215 5l-1 -30l-214 4v-294h122q96 0 144 2l20 150h8q6 -45 6 -106q0 -40 -4 -69z " />
<glyph unicode="&#xca;" horiz-adv-x="541" d="M424 736l-8 -6q-64 69 -106 107q-45 -54 -104 -106l-7 7q72 82 100 129l4 3h18q43 -53 103 -134zM482 0h-417l-1 10l74 12q16 2 16 17v585l-92 16l1 10h411q4 -29 4 -69q0 -61 -6 -106h-8l-20 150q-46 2 -140 2h-118v-289l215 5l-1 -30l-214 4v-294h122q96 0 144 2 l20 150h8q6 -45 6 -106q0 -40 -4 -69z" />
<glyph unicode="&#xcb;" horiz-adv-x="541" d="M254 804q0 -16 -9 -28t-23 -12q-12 0 -20 9.5t-8 24.5q0 16 9.5 27t23.5 11q12 0 19.5 -8.5t7.5 -23.5zM432 804q0 -16 -9 -28t-23 -12q-12 0 -20 9.5t-8 24.5q0 16 9.5 27t23.5 11q12 0 19.5 -8.5t7.5 -23.5zM482 0h-417l-1 10l74 12q16 2 16 17v585l-92 16l1 10h411 q4 -29 4 -69q0 -61 -6 -106h-8l-20 150q-46 2 -140 2h-118v-289l215 5l-1 -30l-214 4v-294h122q96 0 144 2l20 150h8q6 -45 6 -106q0 -40 -4 -69z" />
<glyph unicode="&#xcc;" horiz-adv-x="340" d="M241 734l-7 -7q-135 95 -135 128q0 18 20 18h3q34 -56 119 -139zM277 0h-212l-1 10l74 12q16 2 16 17v585l-92 16l1 10h212l1 -10l-74 -12q-16 -2 -16 -17v-585l92 -16z" />
<glyph unicode="&#xcd;" horiz-adv-x="340" d="M246 855q0 -29 -125 -124l-7 7q78 80 112 132h3q17 0 17 -15zM277 0h-212l-1 10l74 12q16 2 16 17v585l-92 16l1 10h212l1 -10l-74 -12q-16 -2 -16 -17v-585l92 -16z" />
<glyph unicode="&#xce;" horiz-adv-x="340" d="M281 736l-8 -6q-64 69 -106 107q-45 -54 -104 -106l-7 7q72 82 100 129l4 3h18q43 -53 103 -134zM277 0h-212l-1 10l74 12q16 2 16 17v585l-92 16l1 10h212l1 -10l-74 -12q-16 -2 -16 -17v-585l92 -16z" />
<glyph unicode="&#xcf;" horiz-adv-x="340" d="M111 804q0 -16 -9 -28t-23 -12q-12 0 -20 9.5t-8 24.5q0 16 9.5 27t23.5 11q12 0 19.5 -8.5t7.5 -23.5zM289 804q0 -16 -9 -28t-23 -12q-12 0 -20 9.5t-8 24.5q0 16 9.5 27t23.5 11q12 0 19.5 -8.5t7.5 -23.5zM277 0h-212l-1 10l74 12q16 2 16 17v585l-92 16l1 10h212 l1 -10l-74 -12q-16 -2 -16 -17v-585l92 -16z" />
<glyph unicode="&#xd0;" horiz-adv-x="643" d="M272 0h-207l-1 10l74 12q16 2 16 17v273h-92v22h92v290l-92 16l1 10h215q145 0 227.5 -86t82.5 -236q0 -148 -85 -238t-231 -90zM359 312h-173v-290h90q129 0 204 83.5t75 222.5t-75.5 219.5t-205.5 80.5h-88v-294h173v-22z" />
<glyph unicode="&#xd1;" d="M451 787q20 24 39 59l10 -4q-7 -31 -21.5 -55t-33.5 -24q-22 0 -88 24.5t-77 24.5q-20 -24 -39 -59l-10 4q7 31 21.5 55t33.5 24q23 0 88 -24.5t77 -24.5zM271 0h-206l-1 10l74 12q16 2 16 17v585l-92 16l1 10h127l354 -608v582l-92 16l1 10h206l1 -10l-74 -12 q-16 -2 -16 -17v-611h-36l-354 608v-582l92 -16z" />
<glyph unicode="&#xd2;" horiz-adv-x="610" d="M376 734l-7 -7q-135 95 -135 128q0 18 20 18h3q34 -56 119 -139zM555 328q0 -144 -69 -241t-183 -97t-181 92.5t-67 239.5t70.5 242.5t183.5 95.5q109 0 177.5 -94.5t68.5 -237.5zM88 322q0 -134 60.5 -220.5t155.5 -86.5q97 0 157.5 90t60.5 223q0 132 -59.5 219.5 t-154.5 87.5q-97 0 -158.5 -89t-61.5 -224z" />
<glyph unicode="&#xd3;" horiz-adv-x="610" d="M381 855q0 -29 -125 -124l-7 7q78 80 112 132h3q17 0 17 -15zM555 328q0 -144 -69 -241t-183 -97t-181 92.5t-67 239.5t70.5 242.5t183.5 95.5q109 0 177.5 -94.5t68.5 -237.5zM88 322q0 -134 60.5 -220.5t155.5 -86.5q97 0 157.5 90t60.5 223q0 132 -59.5 219.5 t-154.5 87.5q-97 0 -158.5 -89t-61.5 -224z" />
<glyph unicode="&#xd4;" horiz-adv-x="610" d="M416 736l-8 -6q-64 69 -106 107q-45 -54 -104 -106l-7 7q72 82 100 129l4 3h18q43 -53 103 -134zM555 328q0 -144 -69 -241t-183 -97t-181 92.5t-67 239.5t70.5 242.5t183.5 95.5q109 0 177.5 -94.5t68.5 -237.5zM88 322q0 -134 60.5 -220.5t155.5 -86.5q97 0 157.5 90 t60.5 223q0 132 -59.5 219.5t-154.5 87.5q-97 0 -158.5 -89t-61.5 -224z" />
<glyph unicode="&#xd5;" horiz-adv-x="610" d="M390 787q20 24 39 59l10 -4q-7 -31 -21.5 -55t-33.5 -24q-22 0 -88 24.5t-77 24.5q-20 -24 -39 -59l-10 4q7 31 21.5 55t33.5 24q23 0 88 -24.5t77 -24.5zM555 328q0 -144 -69 -241t-183 -97t-181 92.5t-67 239.5t70.5 242.5t183.5 95.5q109 0 177.5 -94.5t68.5 -237.5z M88 322q0 -134 60.5 -220.5t155.5 -86.5q97 0 157.5 90t60.5 223q0 132 -59.5 219.5t-154.5 87.5q-97 0 -158.5 -89t-61.5 -224z" />
<glyph unicode="&#xd6;" horiz-adv-x="610" d="M246 804q0 -16 -9 -28t-23 -12q-12 0 -20 9.5t-8 24.5q0 16 9.5 27t23.5 11q12 0 19.5 -8.5t7.5 -23.5zM424 804q0 -16 -9 -28t-23 -12q-12 0 -20 9.5t-8 24.5q0 16 9.5 27t23.5 11q12 0 19.5 -8.5t7.5 -23.5zM555 328q0 -144 -69 -241t-183 -97t-181 92.5t-67 239.5 t70.5 242.5t183.5 95.5q109 0 177.5 -94.5t68.5 -237.5zM88 322q0 -134 60.5 -220.5t155.5 -86.5q97 0 157.5 90t60.5 223q0 132 -59.5 219.5t-154.5 87.5q-97 0 -158.5 -89t-61.5 -224z" />
<glyph unicode="&#xd7;" horiz-adv-x="542" d="M435 140l-163 166l-159 -158l-19 19l159 159l-165 168l17 16q55 -52 167 -166l159 159l19 -19l-159 -159q124 -126 163 -165l-1 -6z" />
<glyph unicode="&#xd8;" horiz-adv-x="610" d="M555 328q0 -144 -69 -241t-183 -97q-107 0 -173 83l-58 -77l-19 15l62 82q-60 89 -60 229q0 147 70.5 242.5t183.5 95.5q101 0 170 -84l59 78l19 -15l-63 -84q61 -92 61 -227zM88 322q0 -119 48 -201l324 430q-60 84 -152 84q-97 0 -158.5 -89t-61.5 -224zM522 328 q0 119 -48 201l-324 -430q60 -84 154 -84q97 0 157.5 90t60.5 223z" />
<glyph unicode="&#xd9;" d="M430 734l-7 -7q-135 95 -135 128q0 18 20 18h3q34 -56 119 -139zM569 220q0 -109 -61 -169.5t-153 -60.5q-90 0 -150.5 60t-60.5 170v404l-92 16l1 10h212l1 -10l-74 -12q-16 -2 -16 -17v-385q0 -100 53 -155.5t130 -55.5q80 0 132 55t52 157v397l-93 16l1 10h207l1 -10 l-90 -16v-404z" />
<glyph unicode="&#xda;" d="M435 855q0 -29 -125 -124l-7 7q78 80 112 132h3q17 0 17 -15zM569 220q0 -109 -61 -169.5t-153 -60.5q-90 0 -150.5 60t-60.5 170v404l-92 16l1 10h212l1 -10l-74 -12q-16 -2 -16 -17v-385q0 -100 53 -155.5t130 -55.5q80 0 132 55t52 157v397l-93 16l1 10h207l1 -10 l-90 -16v-404z" />
<glyph unicode="&#xdb;" d="M470 736l-8 -6q-64 69 -106 107q-45 -54 -104 -106l-7 7q72 82 100 129l4 3h18q43 -53 103 -134zM569 220q0 -109 -61 -169.5t-153 -60.5q-90 0 -150.5 60t-60.5 170v404l-92 16l1 10h212l1 -10l-74 -12q-16 -2 -16 -17v-385q0 -100 53 -155.5t130 -55.5q80 0 132 55 t52 157v397l-93 16l1 10h207l1 -10l-90 -16v-404z" />
<glyph unicode="&#xdc;" d="M300 804q0 -16 -9 -28t-23 -12q-12 0 -20 9.5t-8 24.5q0 16 9.5 27t23.5 11q12 0 19.5 -8.5t7.5 -23.5zM478 804q0 -16 -9 -28t-23 -12q-12 0 -20 9.5t-8 24.5q0 16 9.5 27t23.5 11q12 0 19.5 -8.5t7.5 -23.5zM569 220q0 -109 -61 -169.5t-153 -60.5q-90 0 -150.5 60 t-60.5 170v404l-92 16l1 10h212l1 -10l-74 -12q-16 -2 -16 -17v-385q0 -100 53 -155.5t130 -55.5q80 0 132 55t52 157v397l-93 16l1 10h207l1 -10l-90 -16v-404z" />
<glyph unicode="&#xdd;" horiz-adv-x="598" d="M379 855q0 -29 -125 -124l-7 7q78 80 112 132h3q17 0 17 -15zM406 0h-212l-1 10l74 12q16 2 16 17v183l-192 373q-9 18 -16.5 25t-22.5 10l-52 10l1 10h202l1 -10l-93 -15l191 -378l191 378l-91 15l1 10h194l1 -10q-27 -4 -49 -10q-29 -7 -44 -38l-190 -372v-194l92 -16z " />
<glyph unicode="&#xde;" horiz-adv-x="533" d="M295 0h-230l-1 10l74 12q16 2 16 17v585l-92 16l1 10h212l1 -10l-74 -12q-16 -2 -16 -17v-83h117q92 0 150 -50.5t58 -140.5q0 -92 -60.5 -143t-152.5 -51h-112v-117l110 -16zM293 505h-107v-339h102q90 0 140 43t50 128q0 79 -49 123.5t-136 44.5z" />
<glyph unicode="&#xdf;" horiz-adv-x="537" d="M144 0h-107l-1 10l58 10q19 3 23 8t4 26v384h-78l-1 10l79 12q0 110 47 172.5t124 62.5q60 0 101 -40.5t41 -105.5q0 -56 -34.5 -96.5t-90.5 -59.5q72 -26 122.5 -87t50.5 -144q0 -74 -43 -123t-107 -49q-48 0 -81.5 26.5t-33.5 59.5q0 25 20 25q5 0 7 -1q5 -40 28.5 -63 t62.5 -23q52 0 84 41t32 106q0 84 -51 141t-138 81v13q73 20 107 61t34 92q0 54 -32 88t-81 34q-65 0 -102 -51.5t-37 -149.5v-463z" />
<glyph unicode="&#xe0;" horiz-adv-x="473" d="M288 584l-7 -7q-135 95 -135 128q0 18 20 18h3q34 -56 119 -139zM445 15q-18 -25 -50 -25q-62 0 -62 86v10q-21 -40 -63.5 -68t-94.5 -28q-55 0 -87.5 30t-32.5 80q0 77 77 119t201 48v92q0 66 -24 96.5t-76 30.5q-54 0 -93.5 -35t-39.5 -75q0 -14 4 -26q-4 -6 -14 -6 q-22 0 -22 30q0 50 51.5 93t116.5 43q67 0 97 -35.5t30 -107.5v-286q0 -70 45 -70q17 0 35 8zM87 100q0 -40 25.5 -63t64.5 -23q50 0 92 31.5t64 85.5v114q-246 -16 -246 -145z" />
<glyph unicode="&#xe1;" horiz-adv-x="473" d="M284 705q0 -29 -125 -124l-7 7q78 80 112 132h3q17 0 17 -15zM445 15q-18 -25 -50 -25q-62 0 -62 86v10q-21 -40 -63.5 -68t-94.5 -28q-55 0 -87.5 30t-32.5 80q0 77 77 119t201 48v92q0 66 -24 96.5t-76 30.5q-54 0 -93.5 -35t-39.5 -75q0 -14 4 -26q-4 -6 -14 -6 q-22 0 -22 30q0 50 51.5 93t116.5 43q67 0 97 -35.5t30 -107.5v-286q0 -70 45 -70q17 0 35 8zM87 100q0 -40 25.5 -63t64.5 -23q50 0 92 31.5t64 85.5v114q-246 -16 -246 -145z" />
<glyph unicode="&#xe2;" horiz-adv-x="473" d="M331 586l-8 -6q-64 69 -106 107q-45 -54 -104 -106l-7 7q72 82 100 129l4 3h18q43 -53 103 -134zM445 15q-18 -25 -50 -25q-62 0 -62 86v10q-21 -40 -63.5 -68t-94.5 -28q-55 0 -87.5 30t-32.5 80q0 77 77 119t201 48v92q0 66 -24 96.5t-76 30.5q-54 0 -93.5 -35 t-39.5 -75q0 -14 4 -26q-4 -6 -14 -6q-22 0 -22 30q0 50 51.5 93t116.5 43q67 0 97 -35.5t30 -107.5v-286q0 -70 45 -70q17 0 35 8zM87 100q0 -40 25.5 -63t64.5 -23q50 0 92 31.5t64 85.5v114q-246 -16 -246 -145z" />
<glyph unicode="&#xe3;" horiz-adv-x="473" d="M300 637q20 24 39 59l10 -4q-7 -31 -21.5 -55t-33.5 -24q-22 0 -88 24.5t-77 24.5q-20 -24 -39 -59l-10 4q7 31 21.5 55t33.5 24q23 0 88 -24.5t77 -24.5zM445 15q-18 -25 -50 -25q-62 0 -62 86v10q-21 -40 -63.5 -68t-94.5 -28q-55 0 -87.5 30t-32.5 80q0 77 77 119 t201 48v92q0 66 -24 96.5t-76 30.5q-54 0 -93.5 -35t-39.5 -75q0 -14 4 -26q-4 -6 -14 -6q-22 0 -22 30q0 50 51.5 93t116.5 43q67 0 97 -35.5t30 -107.5v-286q0 -70 45 -70q17 0 35 8zM87 100q0 -40 25.5 -63t64.5 -23q50 0 92 31.5t64 85.5v114q-246 -16 -246 -145z" />
<glyph unicode="&#xe4;" horiz-adv-x="473" d="M160 654q0 -16 -9 -28t-23 -12q-12 0 -20 9.5t-8 24.5q0 16 9.5 27t23.5 11q12 0 19.5 -8.5t7.5 -23.5zM338 654q0 -16 -9 -28t-23 -12q-12 0 -20 9.5t-8 24.5q0 16 9.5 27t23.5 11q12 0 19.5 -8.5t7.5 -23.5zM445 15q-18 -25 -50 -25q-62 0 -62 86v10q-21 -40 -63.5 -68 t-94.5 -28q-55 0 -87.5 30t-32.5 80q0 77 77 119t201 48v92q0 66 -24 96.5t-76 30.5q-54 0 -93.5 -35t-39.5 -75q0 -14 4 -26q-4 -6 -14 -6q-22 0 -22 30q0 50 51.5 93t116.5 43q67 0 97 -35.5t30 -107.5v-286q0 -70 45 -70q17 0 35 8zM87 100q0 -40 25.5 -63t64.5 -23 q50 0 92 31.5t64 85.5v114q-246 -16 -246 -145z" />
<glyph unicode="&#xe5;" horiz-adv-x="473" d="M214 585q-28 0 -47 18.5t-19 45.5q0 28 21 47.5t52 19.5q28 0 47 -18.5t19 -45.5q0 -28 -21 -47.5t-52 -19.5zM218 696q-18 0 -29.5 -13.5t-11.5 -33.5q0 -19 11.5 -31.5t28.5 -12.5q18 0 29.5 13.5t11.5 33.5q0 19 -11.5 31.5t-28.5 12.5zM445 15q-18 -25 -50 -25 q-62 0 -62 86v10q-21 -40 -63.5 -68t-94.5 -28q-55 0 -87.5 30t-32.5 80q0 77 77 119t201 48v92q0 66 -24 96.5t-76 30.5q-54 0 -93.5 -35t-39.5 -75q0 -14 4 -26q-4 -6 -14 -6q-22 0 -22 30q0 50 51.5 93t116.5 43q67 0 97 -35.5t30 -107.5v-286q0 -70 45 -70q17 0 35 8z M87 100q0 -40 25.5 -63t64.5 -23q50 0 92 31.5t64 85.5v114q-246 -16 -246 -145z" />
<glyph unicode="&#xe6;" horiz-adv-x="709" d="M676 70q-56 -80 -153 -80q-129 0 -173 132q-22 -54 -67 -93t-108 -39q-55 0 -87.5 29t-32.5 79q0 82 77.5 127.5t200.5 51.5v82q0 66 -24 96.5t-76 30.5q-54 0 -93.5 -35t-39.5 -75q0 -14 4 -26q-4 -6 -14 -6q-22 0 -22 30q0 50 51.5 93t116.5 43q117 0 126 -118 q26 57 69.5 87.5t95.5 30.5q70 0 107.5 -50t37.5 -135q0 -33 -4 -61l-7 -5h-296v-14q0 -108 44.5 -169.5t120.5 -61.5q42 0 73 15t66 49zM525 486q-64 0 -108 -54.5t-51 -152.5l271 5q3 21 3 41q0 161 -115 161zM87 98q0 -39 25 -61.5t65 -22.5q52 0 97.5 39.5t67.5 99.5 q-9 41 -9 89v13q-112 -7 -179 -45t-67 -112z" />
<glyph unicode="&#xe7;" horiz-adv-x="420" d="M229 -71l-3 5l9 56q-85 4 -132.5 71t-47.5 181q0 125 56.5 196.5t140.5 71.5q59 0 97.5 -39t38.5 -99q0 -30 -22 -30q-8 0 -13 4q3 10 3 23q0 53 -29 85t-77 32q-71 0 -117 -64t-46 -177q0 -108 44.5 -169.5t118.5 -61.5q77 0 141 64l7 -8q-50 -75 -139 -80l-7 -45 q71 -11 71 -52q0 -30 -34.5 -47.5t-79.5 -19.5l-1 15q83 11 83 47q0 32 -62 41z" />
<glyph unicode="&#xe8;" horiz-adv-x="431" d="M309 584l-7 -7q-135 95 -135 128q0 18 20 18h3q34 -56 119 -139zM398 70q-56 -80 -153 -80q-90 0 -140 67t-50 185q0 125 56.5 196.5t137.5 71.5q70 0 107.5 -50t37.5 -135q0 -33 -4 -61l-7 -5h-296v-14q0 -108 44.5 -169.5t120.5 -61.5q42 0 73 15t66 49zM247 486 q-64 0 -108 -54.5t-51 -152.5l271 5q3 21 3 41q0 161 -115 161z" />
<glyph unicode="&#xe9;" horiz-adv-x="431" d="M305 705q0 -29 -125 -124l-7 7q78 80 112 132h3q17 0 17 -15zM398 70q-56 -80 -153 -80q-90 0 -140 67t-50 185q0 125 56.5 196.5t137.5 71.5q70 0 107.5 -50t37.5 -135q0 -33 -4 -61l-7 -5h-296v-14q0 -108 44.5 -169.5t120.5 -61.5q42 0 73 15t66 49zM247 486 q-64 0 -108 -54.5t-51 -152.5l271 5q3 21 3 41q0 161 -115 161z" />
<glyph unicode="&#xea;" horiz-adv-x="431" d="M352 586l-8 -6q-64 69 -106 107q-45 -54 -104 -106l-7 7q72 82 100 129l4 3h18q43 -53 103 -134zM398 70q-56 -80 -153 -80q-90 0 -140 67t-50 185q0 125 56.5 196.5t137.5 71.5q70 0 107.5 -50t37.5 -135q0 -33 -4 -61l-7 -5h-296v-14q0 -108 44.5 -169.5t120.5 -61.5 q42 0 73 15t66 49zM247 486q-64 0 -108 -54.5t-51 -152.5l271 5q3 21 3 41q0 161 -115 161z" />
<glyph unicode="&#xeb;" horiz-adv-x="431" d="M181 654q0 -16 -9 -28t-23 -12q-12 0 -20 9.5t-8 24.5q0 16 9.5 27t23.5 11q12 0 19.5 -8.5t7.5 -23.5zM359 654q0 -16 -9 -28t-23 -12q-12 0 -20 9.5t-8 24.5q0 16 9.5 27t23.5 11q12 0 19.5 -8.5t7.5 -23.5zM398 70q-56 -80 -153 -80q-90 0 -140 67t-50 185 q0 125 56.5 196.5t137.5 71.5q70 0 107.5 -50t37.5 -135q0 -33 -4 -61l-7 -5h-296v-14q0 -108 44.5 -169.5t120.5 -61.5q42 0 73 15t66 49zM247 486q-64 0 -108 -54.5t-51 -152.5l271 5q3 21 3 41q0 161 -115 161z" />
<glyph unicode="&#xec;" horiz-adv-x="261" d="M186 584l-7 -7q-135 95 -135 128q0 18 20 18h3q34 -56 119 -139zM235 0h-198l-1 10l69 12q16 2 16 17v442l-84 4l-1 10q57 10 108 15l7 -7v-477l85 -16z" />
<glyph unicode="&#xed;" horiz-adv-x="261" d="M187 705q0 -29 -125 -124l-7 7q78 80 112 132h3q17 0 17 -15zM235 0h-198l-1 10l69 12q16 2 16 17v442l-84 4l-1 10q57 10 108 15l7 -7v-477l85 -16z" />
<glyph unicode="&#xee;" horiz-adv-x="261" d="M213 586l-8 -6q-41 55 -85 106q-49 -67 -85 -105l-7 7q58 82 80 129l4 3h18q30 -46 83 -134zM235 0h-198l-1 10l69 12q16 2 16 17v442l-84 4l-1 10q57 10 108 15l7 -7v-477l85 -16z" />
<glyph unicode="&#xef;" horiz-adv-x="261" d="M78 654q0 -16 -9 -28t-23 -12q-12 0 -20 9.5t-8 24.5q0 16 9.5 27t23.5 11q12 0 19.5 -8.5t7.5 -23.5zM222 654q0 -16 -9 -28t-23 -12q-12 0 -20 9.5t-8 24.5q0 16 9.5 27t23.5 11q12 0 19.5 -8.5t7.5 -23.5zM235 0h-198l-1 10l69 12q16 2 16 17v442l-84 4l-1 10 q57 10 108 15l7 -7v-477l85 -16z" />
<glyph unicode="&#xf0;" horiz-adv-x="484" d="M429 257q0 -119 -48.5 -193t-138.5 -74q-88 0 -137.5 65.5t-49.5 185.5q0 126 52 197.5t140 71.5q67 0 106 -41q-40 76 -103 129l-145 -73l-10 21l135 68q-58 44 -130 69l5 12q81 -22 147 -69l119 60l11 -21l-109 -55q156 -125 156 -353zM87 247q0 -113 40 -173t116 -60 q74 0 114 67t40 175q0 102 -38 166t-113 64q-72 0 -115.5 -64t-43.5 -175z" />
<glyph unicode="&#xf1;" horiz-adv-x="562" d="M371 637q20 24 39 59l10 -4q-7 -31 -21.5 -55t-33.5 -24q-22 0 -88 24.5t-77 24.5q-20 -24 -39 -59l-10 4q7 31 21.5 55t33.5 24q23 0 88 -24.5t77 -24.5zM235 0h-198l-1 10l69 12q16 2 16 17v442l-84 4l-1 10q57 10 108 15l7 -7v-97q28 49 72 76.5t95 27.5 q66 0 100 -39.5t34 -114.5v-330l85 -16l-1 -10h-198l-1 10l69 12q16 2 16 17v317q0 130 -108 130q-46 0 -91.5 -30.5t-71.5 -80.5v-349l85 -16z" />
<glyph unicode="&#xf2;" horiz-adv-x="484" d="M313 584l-7 -7q-135 95 -135 128q0 18 20 18h3q34 -56 119 -139zM429 257q0 -119 -48.5 -193t-138.5 -74q-88 0 -137.5 65.5t-49.5 185.5q0 126 52 197.5t140 71.5q85 0 133.5 -69t48.5 -184zM87 247q0 -113 40 -173t116 -60q74 0 114 67t40 176q0 106 -39.5 167.5 t-111.5 61.5t-115.5 -64t-43.5 -175z" />
<glyph unicode="&#xf3;" horiz-adv-x="484" d="M309 705q0 -29 -125 -124l-7 7q78 80 112 132h3q17 0 17 -15zM429 257q0 -119 -48.5 -193t-138.5 -74q-88 0 -137.5 65.5t-49.5 185.5q0 126 52 197.5t140 71.5q85 0 133.5 -69t48.5 -184zM87 247q0 -113 40 -173t116 -60q74 0 114 67t40 176q0 106 -39.5 167.5 t-111.5 61.5t-115.5 -64t-43.5 -175z" />
<glyph unicode="&#xf4;" horiz-adv-x="484" d="M356 586l-8 -6q-64 69 -106 107q-45 -54 -104 -106l-7 7q72 82 100 129l4 3h18q43 -53 103 -134zM429 257q0 -119 -48.5 -193t-138.5 -74q-88 0 -137.5 65.5t-49.5 185.5q0 126 52 197.5t140 71.5q85 0 133.5 -69t48.5 -184zM87 247q0 -113 40 -173t116 -60q74 0 114 67 t40 176q0 106 -39.5 167.5t-111.5 61.5t-115.5 -64t-43.5 -175z" />
<glyph unicode="&#xf5;" horiz-adv-x="484" d="M325 637q20 24 39 59l10 -4q-7 -31 -21.5 -55t-33.5 -24q-22 0 -88 24.5t-77 24.5q-20 -24 -39 -59l-10 4q7 31 21.5 55t33.5 24q23 0 88 -24.5t77 -24.5zM429 257q0 -119 -48.5 -193t-138.5 -74q-88 0 -137.5 65.5t-49.5 185.5q0 126 52 197.5t140 71.5q85 0 133.5 -69 t48.5 -184zM87 247q0 -113 40 -173t116 -60q74 0 114 67t40 176q0 106 -39.5 167.5t-111.5 61.5t-115.5 -64t-43.5 -175z" />
<glyph unicode="&#xf6;" horiz-adv-x="484" d="M185 654q0 -16 -9 -28t-23 -12q-12 0 -20 9.5t-8 24.5q0 16 9.5 27t23.5 11q12 0 19.5 -8.5t7.5 -23.5zM363 654q0 -16 -9 -28t-23 -12q-12 0 -20 9.5t-8 24.5q0 16 9.5 27t23.5 11q12 0 19.5 -8.5t7.5 -23.5zM429 257q0 -119 -48.5 -193t-138.5 -74q-88 0 -137.5 65.5 t-49.5 185.5q0 126 52 197.5t140 71.5q85 0 133.5 -69t48.5 -184zM87 247q0 -113 40 -173t116 -60q74 0 114 67t40 176q0 106 -39.5 167.5t-111.5 61.5t-115.5 -64t-43.5 -175z" />
<glyph unicode="&#xf7;" horiz-adv-x="539" d="M302 491q0 -18 -8.5 -30.5t-25.5 -12.5q-15 0 -23.5 11t-8.5 28t10 30t25 13q31 0 31 -39zM459 312h-384v23q132 3 385 3l4 -5zM302 164q0 -18 -8.5 -30.5t-25.5 -12.5q-15 0 -23.5 11t-8.5 28t10 30t25 13q31 0 31 -39z" />
<glyph unicode="&#xf8;" horiz-adv-x="484" d="M429 257q0 -119 -48.5 -193t-138.5 -74q-101 0 -150 84l-53 -56l-16 17l58 62q-26 58 -26 144q0 126 52 197.5t140 71.5q93 0 143 -83l51 55l19 -16l-58 -62q27 -64 27 -147zM87 247q0 -72 17 -125l265 283q-41 81 -123 81q-72 0 -115.5 -64t-43.5 -175zM397 257 q0 72 -18 123l-265 -282q40 -84 129 -84q74 0 114 67t40 176z" />
<glyph unicode="&#xf9;" horiz-adv-x="562" d="M338 584l-7 -7q-135 95 -135 128q0 18 20 18h3q34 -56 119 -139zM523 15q-18 -25 -50 -25q-62 0 -62 91v9q-64 -100 -163 -100q-138 0 -138 154v337l-84 4l-1 10q57 10 108 15l7 -7v-359q0 -63 29 -96.5t81 -33.5q47 0 90 31t71 85v351l-84 4l-1 10q57 10 108 15l7 -7 v-422q0 -70 45 -70q17 0 35 8z" />
<glyph unicode="&#xfa;" horiz-adv-x="562" d="M339 705q0 -29 -125 -124l-7 7q78 80 112 132h3q17 0 17 -15zM523 15q-18 -25 -50 -25q-62 0 -62 91v9q-64 -100 -163 -100q-138 0 -138 154v337l-84 4l-1 10q57 10 108 15l7 -7v-359q0 -63 29 -96.5t81 -33.5q47 0 90 31t71 85v351l-84 4l-1 10q57 10 108 15l7 -7v-422 q0 -70 45 -70q17 0 35 8z" />
<glyph unicode="&#xfb;" horiz-adv-x="562" d="M386 586l-8 -6q-64 69 -106 107q-45 -54 -104 -106l-7 7q72 82 100 129l4 3h18q43 -53 103 -134zM523 15q-18 -25 -50 -25q-62 0 -62 91v9q-64 -100 -163 -100q-138 0 -138 154v337l-84 4l-1 10q57 10 108 15l7 -7v-359q0 -63 29 -96.5t81 -33.5q47 0 90 31t71 85v351 l-84 4l-1 10q57 10 108 15l7 -7v-422q0 -70 45 -70q17 0 35 8z" />
<glyph unicode="&#xfc;" horiz-adv-x="562" d="M215 654q0 -16 -9 -28t-23 -12q-12 0 -20 9.5t-8 24.5q0 16 9.5 27t23.5 11q12 0 19.5 -8.5t7.5 -23.5zM393 654q0 -16 -9 -28t-23 -12q-12 0 -20 9.5t-8 24.5q0 16 9.5 27t23.5 11q12 0 19.5 -8.5t7.5 -23.5zM523 15q-18 -25 -50 -25q-62 0 -62 91v9q-64 -100 -163 -100 q-138 0 -138 154v337l-84 4l-1 10q57 10 108 15l7 -7v-359q0 -63 29 -96.5t81 -33.5q47 0 90 31t71 85v351l-84 4l-1 10q57 10 108 15l7 -7v-422q0 -70 45 -70q17 0 35 8z" />
<glyph unicode="&#xfd;" horiz-adv-x="519" d="M326 705q0 -29 -125 -124l-7 7q78 80 112 132h3q17 0 17 -15zM87 -195q-44 0 -44 28q0 11 8 17q17 -13 41 -13q47 0 88.5 43t67.5 125l-156 443q-5 16 -12 22.5t-24 9.5l-56 10l1 10h198l1 -10l-85 -16l148 -421l141 421l-85 16l1 10h198l1 -10l-63 -11q-28 -5 -38 -37 l-149 -442q-64 -195 -182 -195z" />
<glyph unicode="&#xfe;" horiz-adv-x="525" d="M244 -185h-218l-1 10l69 12q16 2 16 17v812l-84 4l-1 10q57 10 108 15l7 -7v-277q25 47 65.5 73t88.5 26q83 0 129.5 -67.5t46.5 -187.5q0 -119 -57.5 -192t-149.5 -73q-62 0 -123 23v-172l105 -16zM140 41q65 -27 124 -27q82 0 128.5 66.5t45.5 172.5q-1 107 -38 170 t-106 63q-49 0 -91 -32.5t-63 -88.5v-324z" />
<glyph unicode="&#xff;" horiz-adv-x="519" d="M202 654q0 -16 -9 -28t-23 -12q-12 0 -20 9.5t-8 24.5q0 16 9.5 27t23.5 11q12 0 19.5 -8.5t7.5 -23.5zM380 654q0 -16 -9 -28t-23 -12q-12 0 -20 9.5t-8 24.5q0 16 9.5 27t23.5 11q12 0 19.5 -8.5t7.5 -23.5zM87 -195q-44 0 -44 28q0 11 8 17q17 -13 41 -13 q47 0 88.5 43t67.5 125l-156 443q-5 16 -12 22.5t-24 9.5l-56 10l1 10h198l1 -10l-85 -16l148 -421l141 421l-85 16l1 10h198l1 -10l-63 -11q-28 -5 -38 -37l-149 -442q-64 -195 -182 -195z" />
<glyph unicode="&#x100;" horiz-adv-x="635" d="M201 788v24h234v-24h-234zM311 654h13l217 -590q10 -26 17.5 -33.5t29.5 -11.5l47 -9l-1 -10h-216l-1 10l104 15l-79 215h-255l-78 -216l95 -14l-1 -10h-202l-1 10l50 9q20 4 28.5 12.5t17.5 32.5zM195 263h239l-120 329z" />
<glyph unicode="&#x101;" horiz-adv-x="473" d="M92 638v24h234v-24h-234zM445 15q-18 -25 -50 -25q-62 0 -62 86v10q-21 -40 -63.5 -68t-94.5 -28q-55 0 -87.5 30t-32.5 80q0 77 77 119t201 48v92q0 66 -24 96.5t-76 30.5q-54 0 -93.5 -35t-39.5 -75q0 -14 4 -26q-4 -6 -14 -6q-22 0 -22 30q0 50 51.5 93t116.5 43 q67 0 97 -35.5t30 -107.5v-286q0 -70 45 -70q17 0 35 8zM87 100q0 -40 25.5 -63t64.5 -23q50 0 92 31.5t64 85.5v114q-246 -16 -246 -145z" />
<glyph unicode="&#x102;" horiz-adv-x="635" d="M402 850l4 2l11 -3q-10 -48 -36.5 -74.5t-64.5 -26.5q-39 0 -64.5 26.5t-32.5 74.5l14 3q9 -37 32 -58t54 -21q29 0 50.5 20.5t32.5 56.5zM311 654h13l217 -590q10 -26 17.5 -33.5t29.5 -11.5l47 -9l-1 -10h-216l-1 10l104 15l-79 215h-255l-78 -216l95 -14l-1 -10h-202 l-1 10l50 9q20 4 28.5 12.5t17.5 32.5zM195 263h239l-120 329z" />
<glyph unicode="&#x103;" horiz-adv-x="473" d="M302 700l4 2l11 -3q-10 -48 -36.5 -74.5t-64.5 -26.5q-39 0 -64.5 26.5t-32.5 74.5l14 3q9 -37 32 -58t54 -21q29 0 50.5 20.5t32.5 56.5zM445 15q-18 -25 -50 -25q-62 0 -62 86v10q-21 -40 -63.5 -68t-94.5 -28q-55 0 -87.5 30t-32.5 80q0 77 77 119t201 48v92 q0 66 -24 96.5t-76 30.5q-54 0 -93.5 -35t-39.5 -75q0 -14 4 -26q-4 -6 -14 -6q-22 0 -22 30q0 50 51.5 93t116.5 43q67 0 97 -35.5t30 -107.5v-286q0 -70 45 -70q17 0 35 8zM87 100q0 -40 25.5 -63t64.5 -23q50 0 92 31.5t64 85.5v114q-246 -16 -246 -145z" />
<glyph unicode="&#x104;" horiz-adv-x="635" d="M630 -146q-24 -28 -68 -28q-67 0 -67 58q0 31 29 63t75 53h-181l-1 10l104 15l-79 215h-255l-78 -216l95 -14l-1 -10h-202l-1 10l50 9q20 4 28.5 12.5t17.5 32.5l215 590h13l217 -590q10 -26 17.5 -33.5t29.5 -11.5l47 -9l-1 -10q-45 -17 -76 -49t-31 -62q0 -42 48 -42 q26 0 53 11zM195 263h239l-120 329z" />
<glyph unicode="&#x105;" horiz-adv-x="473" d="M444 -146q-26 -28 -63 -28q-24 0 -39.5 14t-15.5 40q0 48 80 111q-4 -1 -11 -1q-62 0 -62 86v10q-21 -40 -63.5 -68t-94.5 -28q-55 0 -87.5 30t-32.5 80q0 77 77 119t201 48v92q0 66 -24 96.5t-76 30.5q-54 0 -93.5 -35t-39.5 -75q0 -14 4 -26q-4 -6 -14 -6q-22 0 -22 30 q0 50 51.5 93t116.5 43q67 0 97 -35.5t30 -107.5v-286q0 -70 45 -70q17 0 35 8l2 -4q-8 -11 -33.5 -37.5t-39.5 -48.5t-14 -44q0 -38 36 -38q23 0 48 11zM87 100q0 -40 25.5 -63t64.5 -23q50 0 92 31.5t64 85.5v114q-246 -16 -246 -145z" />
<glyph unicode="&#x106;" horiz-adv-x="563" d="M395 855q0 -29 -125 -124l-7 7q78 80 112 132h3q17 0 17 -15zM494 22q-52 -32 -146 -32q-132 0 -212.5 89t-80.5 241q0 153 80.5 246.5t213.5 93.5q78 0 139 -32q3 -33 3 -61q0 -66 -6 -111h-8l-21 157q-47 23 -110 23q-116 0 -187 -87t-71 -229q0 -139 72.5 -222.5 t184.5 -83.5q72 0 117 22l21 166h8q6 -47 6 -115q0 -31 -3 -65z" />
<glyph unicode="&#x107;" horiz-adv-x="420" d="M306 705q0 -29 -125 -124l-7 7q78 80 112 132h3q17 0 17 -15zM55 242q0 125 56.5 196.5t140.5 71.5q59 0 97.5 -39t38.5 -99q0 -30 -22 -30q-8 0 -13 4q3 10 3 23q0 53 -29 85t-77 32q-71 0 -117 -64t-46 -177q0 -108 44.5 -169.5t118.5 -61.5q77 0 141 64l7 -8 q-55 -80 -151 -80q-90 0 -141 67t-51 185z" />
<glyph unicode="&#x108;" horiz-adv-x="563" d="M430 736l-8 -6q-64 69 -106 107q-45 -54 -104 -106l-7 7q72 82 100 129l4 3h18q43 -53 103 -134zM494 22q-52 -32 -146 -32q-132 0 -212.5 89t-80.5 241q0 153 80.5 246.5t213.5 93.5q78 0 139 -32q3 -33 3 -61q0 -66 -6 -111h-8l-21 157q-47 23 -110 23q-116 0 -187 -87 t-71 -229q0 -139 72.5 -222.5t184.5 -83.5q72 0 117 22l21 166h8q6 -47 6 -115q0 -31 -3 -65z" />
<glyph unicode="&#x109;" horiz-adv-x="420" d="M353 586l-8 -6q-64 69 -106 107q-45 -54 -104 -106l-7 7q72 82 100 129l4 3h18q43 -53 103 -134zM55 242q0 125 56.5 196.5t140.5 71.5q59 0 97.5 -39t38.5 -99q0 -30 -22 -30q-8 0 -13 4q3 10 3 23q0 53 -29 85t-77 32q-71 0 -117 -64t-46 -177q0 -108 44.5 -169.5 t118.5 -61.5q77 0 141 64l7 -8q-55 -80 -151 -80q-90 0 -141 67t-51 185z" />
<glyph unicode="&#x10a;" horiz-adv-x="563" d="M349 804q0 -16 -9 -28t-23 -12q-12 0 -20 9.5t-8 24.5q0 16 9.5 27t23.5 11q12 0 19.5 -8.5t7.5 -23.5zM494 22q-52 -32 -146 -32q-132 0 -212.5 89t-80.5 241q0 153 80.5 246.5t213.5 93.5q78 0 139 -32q3 -33 3 -61q0 -66 -6 -111h-8l-21 157q-47 23 -110 23 q-116 0 -187 -87t-71 -229q0 -139 72.5 -222.5t184.5 -83.5q72 0 117 22l21 166h8q6 -47 6 -115q0 -31 -3 -65z" />
<glyph unicode="&#x10b;" horiz-adv-x="420" d="M274 654q0 -16 -9 -28t-23 -12q-12 0 -20 9.5t-8 24.5q0 16 9.5 27t23.5 11q12 0 19.5 -8.5t7.5 -23.5zM55 242q0 125 56.5 196.5t140.5 71.5q59 0 97.5 -39t38.5 -99q0 -30 -22 -30q-8 0 -13 4q3 10 3 23q0 53 -29 85t-77 32q-71 0 -117 -64t-46 -177 q0 -108 44.5 -169.5t118.5 -61.5q77 0 141 64l7 -8q-55 -80 -151 -80q-90 0 -141 67t-51 185z" />
<glyph unicode="&#x10c;" horiz-adv-x="563" d="M332 733l-4 -3h-18q-43 53 -103 134l8 6q64 -69 106 -107q45 54 104 106l7 -7q-72 -82 -100 -129zM494 22q-52 -32 -146 -32q-132 0 -212.5 89t-80.5 241q0 153 80.5 246.5t213.5 93.5q78 0 139 -32q3 -33 3 -61q0 -66 -6 -111h-8l-21 157q-47 23 -110 23 q-116 0 -187 -87t-71 -229q0 -139 72.5 -222.5t184.5 -83.5q72 0 117 22l21 166h8q6 -47 6 -115q0 -31 -3 -65z" />
<glyph unicode="&#x10d;" horiz-adv-x="420" d="M252 583l-4 -3h-18q-43 53 -103 134l8 6q64 -69 106 -107q45 54 104 106l7 -7q-72 -82 -100 -129zM55 242q0 125 56.5 196.5t140.5 71.5q59 0 97.5 -39t38.5 -99q0 -30 -22 -30q-8 0 -13 4q3 10 3 23q0 53 -29 85t-77 32q-71 0 -117 -64t-46 -177q0 -108 44.5 -169.5 t118.5 -61.5q77 0 141 64l7 -8q-55 -80 -151 -80q-90 0 -141 67t-51 185z" />
<glyph unicode="&#x10e;" horiz-adv-x="643" d="M346 733l-4 -3h-18q-43 53 -103 134l8 6q64 -69 106 -107q45 54 104 106l7 -7q-72 -82 -100 -129zM272 0h-207l-1 10l74 12q16 2 16 17v585l-92 16l1 10h215q145 0 227.5 -86t82.5 -236q0 -148 -85 -238t-231 -90zM274 628h-88v-606h90q129 0 204 83.5t75 222.5 t-75.5 219.5t-205.5 80.5z" />
<glyph unicode="&#x10f;" horiz-adv-x="583" d="M55 230q0 129 62 204.5t164 75.5q50 0 105 -22v178l-84 4l-1 10q57 10 108 15l7 -7v-607q0 -70 45 -70q17 0 35 8l2 -4q-18 -25 -50 -25q-62 0 -62 86v11q-24 -44 -64.5 -70.5t-88.5 -26.5q-79 0 -128.5 64t-49.5 176zM558 655q0 -27 -13.5 -66t-37.5 -69l-6 5 q23 53 26 106h-1q-29 6 -29 32q0 14 8.5 23t22.5 9q30 0 30 -40zM87 231q0 -100 41.5 -158.5t107.5 -58.5q43 0 86.5 32.5t63.5 84.5v329q-47 26 -109 26q-87 0 -138.5 -69.5t-51.5 -185.5z" />
<glyph unicode="&#x110;" horiz-adv-x="643" d="M272 0h-207l-1 10l74 12q16 2 16 17v273h-92v22h92v290l-92 16l1 10h215q145 0 227.5 -86t82.5 -236q0 -148 -85 -238t-231 -90zM359 312h-173v-290h90q129 0 204 83.5t75 222.5t-75.5 219.5t-205.5 80.5h-88v-294h173v-22z" />
<glyph unicode="&#x111;" horiz-adv-x="526" d="M55 230q0 129 62 204.5t164 75.5q50 0 105 -22v86h-194v22h194v70l-84 4l-1 10q57 10 108 15l7 -7v-92h82v-22h-82v-493q0 -70 45 -70q17 0 35 8l2 -4q-18 -25 -50 -25q-62 0 -62 86v11q-24 -44 -64.5 -70.5t-88.5 -26.5q-79 0 -128.5 64t-49.5 176zM87 231 q0 -100 41.5 -158.5t107.5 -58.5q43 0 86.5 32.5t63.5 84.5v329q-47 26 -109 26q-87 0 -138.5 -69.5t-51.5 -185.5z" />
<glyph unicode="&#x112;" horiz-adv-x="541" d="M196 788v24h234v-24h-234zM482 0h-417l-1 10l74 12q16 2 16 17v585l-92 16l1 10h411q4 -29 4 -69q0 -61 -6 -106h-8l-20 150q-46 2 -140 2h-118v-289l215 5l-1 -30l-214 4v-294h122q96 0 144 2l20 150h8q6 -45 6 -106q0 -40 -4 -69z" />
<glyph unicode="&#x113;" horiz-adv-x="431" d="M113 638v24h234v-24h-234zM398 70q-56 -80 -153 -80q-90 0 -140 67t-50 185q0 125 56.5 196.5t137.5 71.5q70 0 107.5 -50t37.5 -135q0 -33 -4 -61l-7 -5h-296v-14q0 -108 44.5 -169.5t120.5 -61.5q42 0 73 15t66 49zM247 486q-64 0 -108 -54.5t-51 -152.5l271 5 q3 21 3 41q0 161 -115 161z" />
<glyph unicode="&#x114;" horiz-adv-x="541" d="M397 850l4 2l11 -3q-10 -48 -36.5 -74.5t-64.5 -26.5q-39 0 -64.5 26.5t-32.5 74.5l14 3q9 -37 32 -58t54 -21q29 0 50.5 20.5t32.5 56.5zM482 0h-417l-1 10l74 12q16 2 16 17v585l-92 16l1 10h411q4 -29 4 -69q0 -61 -6 -106h-8l-20 150q-46 2 -140 2h-118v-289l215 5 l-1 -30l-214 4v-294h122q96 0 144 2l20 150h8q6 -45 6 -106q0 -40 -4 -69z" />
<glyph unicode="&#x115;" horiz-adv-x="431" d="M323 700l4 2l11 -3q-10 -48 -36.5 -74.5t-64.5 -26.5q-39 0 -64.5 26.5t-32.5 74.5l14 3q9 -37 32 -58t54 -21q29 0 50.5 20.5t32.5 56.5zM398 70q-56 -80 -153 -80q-90 0 -140 67t-50 185q0 125 56.5 196.5t137.5 71.5q70 0 107.5 -50t37.5 -135q0 -33 -4 -61l-7 -5 h-296v-14q0 -108 44.5 -169.5t120.5 -61.5q42 0 73 15t66 49zM247 486q-64 0 -108 -54.5t-51 -152.5l271 5q3 21 3 41q0 161 -115 161z" />
<glyph unicode="&#x116;" horiz-adv-x="541" d="M343 804q0 -16 -9 -28t-23 -12q-12 0 -20 9.5t-8 24.5q0 16 9.5 27t23.5 11q12 0 19.5 -8.5t7.5 -23.5zM482 0h-417l-1 10l74 12q16 2 16 17v585l-92 16l1 10h411q4 -29 4 -69q0 -61 -6 -106h-8l-20 150q-46 2 -140 2h-118v-289l215 5l-1 -30l-214 4v-294h122q96 0 144 2 l20 150h8q6 -45 6 -106q0 -40 -4 -69z" />
<glyph unicode="&#x117;" horiz-adv-x="431" d="M273 654q0 -16 -9 -28t-23 -12q-12 0 -20 9.5t-8 24.5q0 16 9.5 27t23.5 11q12 0 19.5 -8.5t7.5 -23.5zM398 70q-56 -80 -153 -80q-90 0 -140 67t-50 185q0 125 56.5 196.5t137.5 71.5q70 0 107.5 -50t37.5 -135q0 -33 -4 -61l-7 -5h-296v-14q0 -108 44.5 -169.5 t120.5 -61.5q42 0 73 15t66 49zM247 486q-64 0 -108 -54.5t-51 -152.5l271 5q3 21 3 41q0 161 -115 161z" />
<glyph unicode="&#x118;" horiz-adv-x="541" d="M478 -146q-25 -28 -68 -28q-67 0 -67 58q0 31 29 63t75 53h-382l-1 10l74 12q16 2 16 17v585l-92 16l1 10h411q4 -29 4 -69q0 -61 -6 -106h-8l-20 150q-46 2 -140 2h-118v-289l215 5l-1 -30l-214 4v-294h122q96 0 144 2l20 150h8q6 -45 6 -106q0 -40 -4 -69 q-45 -17 -76 -49t-31 -62q0 -42 48 -42q26 0 53 11z" />
<glyph unicode="&#x119;" horiz-adv-x="431" d="M340 -146q-28 -28 -68 -28q-63 0 -63 59q0 16 7 31t25 31.5t27.5 23.5t36.5 27q-29 -8 -60 -8q-90 0 -140 67t-50 185q0 125 56.5 196.5t137.5 71.5q70 0 107.5 -50t37.5 -135q0 -33 -4 -61l-7 -5h-296v-14q0 -108 44.5 -169.5t120.5 -61.5q42 0 73 15t66 49l7 -8 q-15 -24 -43.5 -50t-52.5 -43.5t-42.5 -41.5t-18.5 -47q0 -41 44 -41q26 0 53 11zM247 486q-64 0 -108 -54.5t-51 -152.5l271 5q3 21 3 41q0 161 -115 161z" />
<glyph unicode="&#x11a;" horiz-adv-x="541" d="M326 733l-4 -3h-18q-43 53 -103 134l8 6q64 -69 106 -107q45 54 104 106l7 -7q-72 -82 -100 -129zM482 0h-417l-1 10l74 12q16 2 16 17v585l-92 16l1 10h411q4 -29 4 -69q0 -61 -6 -106h-8l-20 150q-46 2 -140 2h-118v-289l215 5l-1 -30l-214 4v-294h122q96 0 144 2 l20 150h8q6 -45 6 -106q0 -40 -4 -69z" />
<glyph unicode="&#x11b;" horiz-adv-x="431" d="M251 583l-4 -3h-18q-43 53 -103 134l8 6q64 -69 106 -107q45 54 104 106l7 -7q-72 -82 -100 -129zM398 70q-56 -80 -153 -80q-90 0 -140 67t-50 185q0 125 56.5 196.5t137.5 71.5q70 0 107.5 -50t37.5 -135q0 -33 -4 -61l-7 -5h-296v-14q0 -108 44.5 -169.5t120.5 -61.5 q42 0 73 15t66 49zM247 486q-64 0 -108 -54.5t-51 -152.5l271 5q3 21 3 41q0 161 -115 161z" />
<glyph unicode="&#x11c;" horiz-adv-x="596" d="M443 736l-8 -6q-64 69 -106 107q-45 -54 -104 -106l-7 7q72 82 100 129l4 3h18q43 -53 103 -134zM508 22q-58 -32 -150 -32q-136 0 -219.5 90t-83.5 244q0 151 83.5 243.5t221.5 92.5q83 0 139 -32q3 -33 3 -61q0 -66 -6 -111h-8l-21 157q-48 23 -110 23 q-122 0 -195.5 -85.5t-73.5 -226.5t75 -225.5t192 -84.5q72 0 121 23v234l-97 16l1 8h202l1 -8l-59 -12q-16 -4 -16 -17v-236z" />
<glyph unicode="&#x11d;" horiz-adv-x="422" d="M326 586l-8 -6q-64 69 -106 107q-45 -54 -104 -106l-7 7q72 82 100 129l4 3h18q43 -53 103 -134zM417 -58q0 -56 -59 -96.5t-163 -40.5q-79 0 -131.5 32.5t-52.5 83.5q0 47 41 79t95 40l-4 2q-48 17 -48 58q0 39 47 68q-40 19 -64 59.5t-24 98.5q0 81 45 132.5t119 51.5 q115 0 201 7q3 -6 3 -16q0 -19 -25 -19q-9 0 -27 1.5t-46 4.5t-47 4l-1 -3q37 -18 58.5 -57.5t21.5 -89.5q0 -85 -43.5 -135.5t-109.5 -50.5q-19 0 -41 5q-37 -24 -37 -56q0 -40 61 -48l74 -9q79 -9 118 -34t39 -72zM85 331q0 -66 33 -108.5t86 -42.5q55 0 88.5 43.5 t33.5 114.5q0 63 -30.5 105.5t-84.5 42.5q-56 0 -91 -44.5t-35 -110.5zM43 -77q0 -41 43.5 -67.5t116.5 -26.5q79 0 130.5 32.5t51.5 80.5q0 66 -127 81l-73 8q-66 -12 -104 -40.5t-38 -67.5z" />
<glyph unicode="&#x11e;" horiz-adv-x="596" d="M416 850l4 2l11 -3q-10 -48 -36.5 -74.5t-64.5 -26.5q-39 0 -64.5 26.5t-32.5 74.5l14 3q9 -37 32 -58t54 -21q29 0 50.5 20.5t32.5 56.5zM508 22q-58 -32 -150 -32q-136 0 -219.5 90t-83.5 244q0 151 83.5 243.5t221.5 92.5q83 0 139 -32q3 -33 3 -61q0 -66 -6 -111h-8 l-21 157q-48 23 -110 23q-122 0 -195.5 -85.5t-73.5 -226.5t75 -225.5t192 -84.5q72 0 121 23v234l-97 16l1 8h202l1 -8l-59 -12q-16 -4 -16 -17v-236z" />
<glyph unicode="&#x11f;" horiz-adv-x="422" d="M298 700l4 2l11 -3q-10 -48 -36.5 -74.5t-64.5 -26.5q-39 0 -64.5 26.5t-32.5 74.5l14 3q9 -37 32 -58t54 -21q29 0 50.5 20.5t32.5 56.5zM417 -58q0 -56 -59 -96.5t-163 -40.5q-79 0 -131.5 32.5t-52.5 83.5q0 47 41 79t95 40l-4 2q-48 17 -48 58q0 39 47 68 q-40 19 -64 59.5t-24 98.5q0 81 45 132.5t119 51.5q115 0 201 7q3 -6 3 -16q0 -19 -25 -19q-9 0 -27 1.5t-46 4.5t-47 4l-1 -3q37 -18 58.5 -57.5t21.5 -89.5q0 -85 -43.5 -135.5t-109.5 -50.5q-19 0 -41 5q-37 -24 -37 -56q0 -40 61 -48l74 -9q79 -9 118 -34t39 -72z M85 331q0 -66 33 -108.5t86 -42.5q55 0 88.5 43.5t33.5 114.5q0 63 -30.5 105.5t-84.5 42.5q-56 0 -91 -44.5t-35 -110.5zM43 -77q0 -41 43.5 -67.5t116.5 -26.5q79 0 130.5 32.5t51.5 80.5q0 66 -127 81l-73 8q-66 -12 -104 -40.5t-38 -67.5z" />
<glyph unicode="&#x120;" horiz-adv-x="596" d="M362 804q0 -16 -9 -28t-23 -12q-12 0 -20 9.5t-8 24.5q0 16 9.5 27t23.5 11q12 0 19.5 -8.5t7.5 -23.5zM508 22q-58 -32 -150 -32q-136 0 -219.5 90t-83.5 244q0 151 83.5 243.5t221.5 92.5q83 0 139 -32q3 -33 3 -61q0 -66 -6 -111h-8l-21 157q-48 23 -110 23 q-122 0 -195.5 -85.5t-73.5 -226.5t75 -225.5t192 -84.5q72 0 121 23v234l-97 16l1 8h202l1 -8l-59 -12q-16 -4 -16 -17v-236z" />
<glyph unicode="&#x121;" horiz-adv-x="422" d="M248 654q0 -16 -9 -28t-23 -12q-12 0 -20 9.5t-8 24.5q0 16 9.5 27t23.5 11q12 0 19.5 -8.5t7.5 -23.5zM417 -58q0 -56 -59 -96.5t-163 -40.5q-79 0 -131.5 32.5t-52.5 83.5q0 47 41 79t95 40l-4 2q-48 17 -48 58q0 39 47 68q-40 19 -64 59.5t-24 98.5q0 81 45 132.5 t119 51.5q115 0 201 7q3 -6 3 -16q0 -19 -25 -19q-9 0 -27 1.5t-46 4.5t-47 4l-1 -3q37 -18 58.5 -57.5t21.5 -89.5q0 -85 -43.5 -135.5t-109.5 -50.5q-19 0 -41 5q-37 -24 -37 -56q0 -40 61 -48l74 -9q79 -9 118 -34t39 -72zM85 331q0 -66 33 -108.5t86 -42.5 q55 0 88.5 43.5t33.5 114.5q0 63 -30.5 105.5t-84.5 42.5q-56 0 -91 -44.5t-35 -110.5zM43 -77q0 -41 43.5 -67.5t116.5 -26.5q79 0 130.5 32.5t51.5 80.5q0 66 -127 81l-73 8q-66 -12 -104 -40.5t-38 -67.5z" />
<glyph unicode="&#x122;" horiz-adv-x="596" d="M508 22q-58 -32 -150 -32q-136 0 -219.5 90t-83.5 244q0 151 83.5 243.5t221.5 92.5q83 0 139 -32q3 -33 3 -61q0 -66 -6 -111h-8l-21 157q-48 23 -110 23q-122 0 -195.5 -85.5t-73.5 -226.5t75 -225.5t192 -84.5q72 0 121 23v234l-97 16l1 8h202l1 -8l-59 -12 q-16 -4 -16 -17v-236zM357 -142q0 -27 -13.5 -66t-37.5 -69l-6 5q23 53 26 106h-1q-29 6 -29 32q0 14 8.5 23t22.5 9q30 0 30 -40z" />
<glyph unicode="&#x123;" horiz-adv-x="422" d="M186 654q0 27 13.5 66t37.5 69l6 -5q-23 -53 -26 -106h1q29 -6 29 -32q0 -14 -8.5 -23t-22.5 -9q-30 0 -30 40zM417 -58q0 -56 -59 -96.5t-163 -40.5q-79 0 -131.5 32.5t-52.5 83.5q0 47 41 79t95 40l-4 2q-48 17 -48 58q0 39 47 68q-40 19 -64 59.5t-24 98.5 q0 81 45 132.5t119 51.5q115 0 201 7q3 -6 3 -16q0 -19 -25 -19q-9 0 -27 1.5t-46 4.5t-47 4l-1 -3q37 -18 58.5 -57.5t21.5 -89.5q0 -85 -43.5 -135.5t-109.5 -50.5q-19 0 -41 5q-37 -24 -37 -56q0 -40 61 -48l74 -9q79 -9 118 -34t39 -72zM85 331q0 -66 33 -108.5 t86 -42.5q55 0 88.5 43.5t33.5 114.5q0 63 -30.5 105.5t-84.5 42.5q-56 0 -91 -44.5t-35 -110.5zM43 -77q0 -41 43.5 -67.5t116.5 -26.5q79 0 130.5 32.5t51.5 80.5q0 66 -127 81l-73 8q-66 -12 -104 -40.5t-38 -67.5z" />
<glyph unicode="&#x124;" horiz-adv-x="728" d="M475 736l-8 -6q-64 69 -106 107q-45 -54 -104 -106l-7 7q72 82 100 129l4 3h18q43 -53 103 -134zM277 0h-212l-1 10l74 12q16 2 16 17v585l-92 16l1 10h212l1 -10l-74 -12q-16 -2 -16 -17v-268h356v281l-92 16l1 10h212l1 -10l-74 -12q-16 -2 -16 -17v-585l92 -16l-1 -10 h-212l-1 10l74 12q16 2 16 17v281h-356v-294l92 -16z" />
<glyph unicode="&#x125;" horiz-adv-x="551" d="M213 736l-8 -6q-64 69 -106 107q-45 -54 -104 -106l-7 7q72 82 100 129l4 3h18q43 -53 103 -134zM224 0h-198l-1 10l69 12q16 2 16 17v627l-84 4l-1 10q57 10 108 15l7 -7v-279q28 46 72 73.5t94 27.5q66 0 100.5 -39.5t34.5 -114.5v-330l85 -16l-1 -10h-198l-1 10l69 12 q16 2 16 17v317q0 130 -111 130q-45 0 -89.5 -30t-70.5 -81v-349l85 -16z" />
<glyph unicode="&#x126;" horiz-adv-x="728" d="M277 0h-212l-1 10l74 12q16 2 16 17v417h-91v23h91v145l-92 16l1 10h212l1 -10l-74 -12q-16 -2 -16 -17v-132h356v145l-92 16l1 10h212l1 -10l-74 -12q-16 -2 -16 -17v-132h89v-23h-89v-430l92 -16l-1 -10h-212l-1 10l74 12q16 2 16 17v281h-356v-294l92 -16zM186 343 h356v113h-356v-113z" />
<glyph unicode="&#x127;" horiz-adv-x="551" d="M224 0h-198l-1 10l69 12q16 2 16 17v535h-87v22h87v70l-84 4l-1 10q57 10 108 15l7 -7v-92h189v-22h-189v-165q28 46 72 73.5t94 27.5q66 0 100.5 -39.5t34.5 -114.5v-330l85 -16l-1 -10h-198l-1 10l69 12q16 2 16 17v317q0 130 -111 130q-45 0 -89.5 -30t-70.5 -81v-349 l85 -16z" />
<glyph unicode="&#x128;" horiz-adv-x="340" d="M255 787q20 24 39 59l10 -4q-7 -31 -21.5 -55t-33.5 -24q-22 0 -88 24.5t-77 24.5q-20 -24 -39 -59l-10 4q7 31 21.5 55t33.5 24q23 0 88 -24.5t77 -24.5zM277 0h-212l-1 10l74 12q16 2 16 17v585l-92 16l1 10h212l1 -10l-74 -12q-16 -2 -16 -17v-585l92 -16z" />
<glyph unicode="&#x129;" horiz-adv-x="261" d="M177 637q18 20 34 49l10 -4q-6 -26 -19.5 -47.5t-30.5 -21.5q-15 0 -61 19.5t-54 19.5q-18 -20 -34 -49l-10 4q6 26 19.5 47.5t30.5 21.5q16 0 61.5 -19.5t53.5 -19.5zM235 0h-198l-1 10l69 12q16 2 16 17v442l-84 4l-1 10q57 10 108 15l7 -7v-477l85 -16z" />
<glyph unicode="&#x12a;" horiz-adv-x="340" d="M53 788v24h234v-24h-234zM277 0h-212l-1 10l74 12q16 2 16 17v585l-92 16l1 10h212l1 -10l-74 -12q-16 -2 -16 -17v-585l92 -16z" />
<glyph unicode="&#x12b;" horiz-adv-x="261" d="M29 638v24h174v-24h-174zM235 0h-198l-1 10l69 12q16 2 16 17v442l-84 4l-1 10q57 10 108 15l7 -7v-477l85 -16z" />
<glyph unicode="&#x12c;" horiz-adv-x="340" d="M254 850l4 2l11 -3q-10 -48 -36.5 -74.5t-64.5 -26.5q-39 0 -64.5 26.5t-32.5 74.5l14 3q9 -37 32 -58t54 -21q29 0 50.5 20.5t32.5 56.5zM277 0h-212l-1 10l74 12q16 2 16 17v585l-92 16l1 10h212l1 -10l-74 -12q-16 -2 -16 -17v-585l92 -16z" />
<glyph unicode="&#x12d;" horiz-adv-x="261" d="M174 700l4 2l11 -3q-7 -48 -28 -74.5t-53 -26.5t-52.5 26.5t-24.5 74.5l14 3q6 -37 23.5 -58t42.5 -21q23 0 39.5 20.5t23.5 56.5zM235 0h-198l-1 10l69 12q16 2 16 17v442l-84 4l-1 10q57 10 108 15l7 -7v-477l85 -16z" />
<glyph unicode="&#x12e;" horiz-adv-x="340" d="M273 -146q-25 -28 -68 -28q-67 0 -67 58q0 31 29 63t75 53h-177l-1 10l74 12q16 2 16 17v585l-92 16l1 10h212l1 -10l-74 -12q-16 -2 -16 -17v-585l92 -16l-1 -10q-45 -17 -76 -49t-31 -62q0 -42 48 -42q26 0 53 11z" />
<glyph unicode="&#x12f;" horiz-adv-x="261" d="M162 653q0 -16 -9 -28t-23 -12q-12 0 -20 9.5t-8 24.5q0 16 9.5 27t23.5 11q12 0 19.5 -8.5t7.5 -23.5zM231 -146q-25 -28 -68 -28q-67 0 -67 58q0 31 29 63t75 53h-163l-1 10l69 12q16 2 16 17v442l-84 4l-1 10q57 10 108 15l7 -7v-477l85 -16l-1 -10q-45 -17 -76 -49 t-31 -62q0 -42 48 -42q26 0 53 11z" />
<glyph unicode="&#x130;" horiz-adv-x="340" d="M200 804q0 -16 -9 -28t-23 -12q-12 0 -20 9.5t-8 24.5q0 16 9.5 27t23.5 11q12 0 19.5 -8.5t7.5 -23.5zM277 0h-212l-1 10l74 12q16 2 16 17v585l-92 16l1 10h212l1 -10l-74 -12q-16 -2 -16 -17v-585l92 -16z" />
<glyph unicode="&#x131;" horiz-adv-x="261" d="M235 0h-198l-1 10l69 12q16 2 16 17v442l-84 4l-1 10q57 10 108 15l7 -7v-477l85 -16z" />
<glyph unicode="&#x132;" horiz-adv-x="658" d="M277 0h-212l-1 10l74 12q16 2 16 17v585l-92 16l1 10h212l1 -10l-74 -12q-16 -2 -16 -17v-585l92 -16zM526 110q0 -82 -25.5 -129.5t-92.5 -95.5l-7 8q51 50 72 96.5t21 129.5v505l-92 16l1 10h212l1 -10l-74 -12q-16 -2 -16 -17v-501z" />
<glyph unicode="&#x133;" horiz-adv-x="500" d="M409 654q0 -16 -9 -28t-23 -12q-12 0 -20 9.5t-8 24.5q0 16 9.5 27t23.5 11q12 0 19.5 -8.5t7.5 -23.5zM162 653q0 -16 -9 -28t-23 -12q-12 0 -20 9.5t-8 24.5q0 16 9.5 27t23.5 11q12 0 19.5 -8.5t7.5 -23.5zM235 0h-198l-1 10l69 12q16 2 16 17v442l-84 4l-1 10 q57 10 108 15l7 -7v-477l85 -16zM278 -187q51 50 72 96.5t21 129.5v442l-84 4l-1 10q57 10 108 15l7 -7v-473q0 -82 -25 -129.5t-91 -95.5z" />
<glyph unicode="&#x134;" horiz-adv-x="318" d="M280 736l-8 -6q-64 69 -106 107q-45 -54 -104 -106l-7 7q72 82 100 129l4 3h18q43 -53 103 -134zM186 110q0 -82 -25.5 -129.5t-92.5 -95.5l-7 8q51 50 72 96.5t21 129.5v505l-92 16l1 10h212l1 -10l-74 -12q-16 -2 -16 -17v-501z" />
<glyph unicode="&#x135;" horiz-adv-x="239" d="M206 586l-8 -6q-41 55 -85 106q-49 -67 -85 -105l-7 7q58 82 80 129l4 3h18q30 -46 83 -134zM17 -187q51 50 72 96.5t21 129.5v442l-84 4l-1 10q57 10 108 15l7 -7v-473q0 -82 -25 -129.5t-91 -95.5z" />
<glyph unicode="&#x136;" horiz-adv-x="633" d="M277 0h-212l-1 10l74 12q16 2 16 17v585l-92 16l1 10h212l1 -10l-74 -12q-16 -2 -16 -17v-267h154l170 283l-99 13l1 10h203l2 -10q-9 -2 -27.5 -5.5t-28.5 -5.5q-24 -5 -37 -27l-159 -262l167 -280q19 -31 55 -39l46 -11l-1 -10h-39q-36 0 -55 10t-34 35l-164 276h-154 v-295l92 -16zM383 -142q0 -27 -13.5 -66t-37.5 -69l-6 5q23 53 26 106h-1q-29 6 -29 32q0 14 8.5 23t22.5 9q30 0 30 -40z" />
<glyph unicode="&#x137;" horiz-adv-x="505" d="M224 0h-198l-1 10l69 12q16 2 16 17v627l-84 4l-1 10q57 10 108 15l7 -7v-410h122l129 200l-86 12l1 10h186l1 -10l-54 -12q-22 -5 -35 -25l-119 -180l117 -198q28 -47 66 -56q6 -2 18.5 -4.5t18.5 -4.5l-1 -10h-42q-30 0 -48 13.5t-37 45.5l-116 197h-121v-230l85 -16z M300 -142q0 -27 -13.5 -66t-37.5 -69l-6 5q23 53 26 106h-1q-29 6 -29 32q0 14 8.5 23t22.5 9q30 0 30 -40z" />
<glyph unicode="&#x138;" horiz-adv-x="505" d="M224 0h-198l-1 10l69 12q16 2 16 17v442l-84 4l-1 10q57 10 108 15l7 -7v-225h122l129 200l-86 12l1 10h186l1 -10l-54 -12q-22 -5 -35 -25l-119 -180l117 -198q28 -47 66 -56l37 -9l-1 -10h-42q-30 0 -48 13.5t-37 45.5l-116 197h-121v-230l85 -16z" />
<glyph unicode="&#x139;" horiz-adv-x="522" d="M246 855q0 -29 -125 -124l-7 7q78 80 112 132h3q17 0 17 -15zM475 0h-410l-1 10l74 12q16 2 16 17v585l-92 16l1 10h212l1 -10l-74 -12q-16 -2 -16 -17v-588h107q101 0 151 2l20 151h8q6 -47 6 -113q0 -30 -3 -63z" />
<glyph unicode="&#x13a;" horiz-adv-x="250" d="M191 890q0 -29 -125 -124l-7 7q78 80 112 132h3q17 0 17 -15zM224 0h-198l-1 10l69 12q16 2 16 17v627l-84 4l-1 10q57 10 108 15l7 -7v-662l85 -16z" />
<glyph unicode="&#x13b;" horiz-adv-x="522" d="M475 0h-410l-1 10l74 12q16 2 16 17v585l-92 16l1 10h212l1 -10l-74 -12q-16 -2 -16 -17v-588h107q101 0 151 2l20 151h8q6 -47 6 -113q0 -30 -3 -63zM333 -142q0 -27 -13.5 -66t-37.5 -69l-6 5q23 53 26 106h-1q-29 6 -29 32q0 14 8.5 23t22.5 9q30 0 30 -40z" />
<glyph unicode="&#x13c;" horiz-adv-x="250" d="M224 0h-198l-1 10l69 12q16 2 16 17v627l-84 4l-1 10q57 10 108 15l7 -7v-662l85 -16zM155 -142q0 -27 -13.5 -66t-37.5 -69l-6 5q23 53 26 106h-1q-29 6 -29 32q0 14 8.5 23t22.5 9q30 0 30 -40z" />
<glyph unicode="&#x13d;" horiz-adv-x="522" d="M475 0h-410l-1 10l74 12q16 2 16 17v585l-92 16l1 10h212l1 -10l-74 -12q-16 -2 -16 -17v-588h107q101 0 151 2l20 151h8q6 -47 6 -113q0 -30 -3 -63zM440 594q0 -27 -13.5 -66t-37.5 -69l-6 5q23 53 26 106h-1q-29 6 -29 32q0 14 8.5 23t22.5 9q30 0 30 -40z" />
<glyph unicode="&#x13e;" horiz-adv-x="307" d="M282 700q0 -27 -13.5 -66t-37.5 -69l-6 5q23 53 26 106h-1q-29 6 -29 32q0 14 8.5 23t22.5 9q30 0 30 -40zM224 0h-198l-1 10l69 12q16 2 16 17v627l-84 4l-1 10q57 10 108 15l7 -7v-662l85 -16z" />
<glyph unicode="&#x13f;" horiz-adv-x="522" d="M475 0h-410l-1 10l74 12q16 2 16 17v585l-92 16l1 10h212l1 -10l-74 -12q-16 -2 -16 -17v-588h107q101 0 151 2l20 151h8q6 -47 6 -113q0 -30 -3 -63zM445 366q-13 0 -21 9.5t-8 22.5q0 14 9 25t23 11q28 0 28 -31q0 -15 -8 -26t-23 -11z" />
<glyph unicode="&#x140;" horiz-adv-x="288" d="M224 0h-198l-1 10l69 12q16 2 16 17v627l-84 4l-1 10q57 10 108 15l7 -7v-662l85 -16zM288 357q0 -16 -8 -28t-21 -12q-11 0 -18 9.5t-7 24.5q0 16 9 27t21 11q10 0 17 -8.5t7 -23.5z" />
<glyph unicode="&#x141;" horiz-adv-x="522" d="M475 0h-410l-1 10l74 12q16 2 16 17v261l-102 -61l-11 20l113 68v297l-92 16l1 10h212l1 -10l-74 -12q-16 -2 -16 -17v-265l120 72l13 -20l-133 -79v-296h107q101 0 151 2l20 151h8q6 -47 6 -113q0 -30 -3 -63z" />
<glyph unicode="&#x142;" horiz-adv-x="250" d="M224 0h-198l-1 10l69 12q16 2 16 17v290l-112 -67l-11 20l123 74v310l-84 4l-1 10q57 10 108 15l7 -7v-314l112 67l13 -20l-125 -74v-321l85 -16z" />
<glyph unicode="&#x143;" d="M442 855q0 -29 -125 -124l-7 7q78 80 112 132h3q17 0 17 -15zM271 0h-206l-1 10l74 12q16 2 16 17v585l-92 16l1 10h127l354 -608v582l-92 16l1 10h206l1 -10l-74 -12q-16 -2 -16 -17v-611h-36l-354 608v-582l92 -16z" />
<glyph unicode="&#x144;" horiz-adv-x="562" d="M355 705q0 -29 -125 -124l-7 7q78 80 112 132h3q17 0 17 -15zM235 0h-198l-1 10l69 12q16 2 16 17v442l-84 4l-1 10q57 10 108 15l7 -7v-97q28 49 72 76.5t95 27.5q66 0 100 -39.5t34 -114.5v-330l85 -16l-1 -10h-198l-1 10l69 12q16 2 16 17v317q0 130 -108 130 q-46 0 -91.5 -30.5t-71.5 -80.5v-349l85 -16z" />
<glyph unicode="&#x145;" d="M271 0h-206l-1 10l74 12q16 2 16 17v585l-92 16l1 10h127l354 -608v582l-92 16l1 10h206l1 -10l-74 -12q-16 -2 -16 -17v-611h-36l-354 608v-582l92 -16zM390 -142q0 -27 -13.5 -66t-37.5 -69l-6 5q23 53 26 106h-1q-29 6 -29 32q0 14 8.5 23t22.5 9q30 0 30 -40z" />
<glyph unicode="&#x146;" horiz-adv-x="562" d="M235 0h-198l-1 10l69 12q16 2 16 17v442l-84 4l-1 10q57 10 108 15l7 -7v-97q28 49 72 76.5t95 27.5q66 0 100 -39.5t34 -114.5v-330l85 -16l-1 -10h-198l-1 10l69 12q16 2 16 17v317q0 130 -108 130q-46 0 -91.5 -30.5t-71.5 -80.5v-349l85 -16zM316 -142 q0 -27 -13.5 -66t-37.5 -69l-6 5q23 53 26 106h-1q-29 6 -29 32q0 14 8.5 23t22.5 9q30 0 30 -40z" />
<glyph unicode="&#x147;" d="M379 733l-4 -3h-18q-43 53 -103 134l8 6q64 -69 106 -107q45 54 104 106l7 -7q-72 -82 -100 -129zM271 0h-206l-1 10l74 12q16 2 16 17v585l-92 16l1 10h127l354 -608v582l-92 16l1 10h206l1 -10l-74 -12q-16 -2 -16 -17v-611h-36l-354 608v-582l92 -16z" />
<glyph unicode="&#x148;" horiz-adv-x="562" d="M301 583l-4 -3h-18q-43 53 -103 134l8 6q64 -69 106 -107q45 54 104 106l7 -7q-72 -82 -100 -129zM235 0h-198l-1 10l69 12q16 2 16 17v442l-84 4l-1 10q57 10 108 15l7 -7v-97q28 49 72 76.5t95 27.5q66 0 100 -39.5t34 -114.5v-330l85 -16l-1 -10h-198l-1 10l69 12 q16 2 16 17v317q0 130 -108 130q-46 0 -91.5 -30.5t-71.5 -80.5v-349l85 -16z" />
<glyph unicode="&#x14a;" d="M291 0h-226l-1 10l74 12q16 2 16 17v585l-92 16l1 10h127l354 -608v582l-92 16l1 10h206l1 -10l-74 -12q-16 -2 -16 -17v-611q0 -70 -24.5 -109.5t-87.5 -85.5l-7 8q47 47 68 81t24 91l-363 623v-582l112 -16z" />
<glyph unicode="&#x14b;" horiz-adv-x="551" d="M235 0h-198l-1 10l69 12q16 2 16 17v442l-84 4l-1 10q57 10 108 15l7 -7v-97q28 49 72 76.5t95 27.5q66 0 100 -39.5t34 -114.5v-326q0 -82 -25 -129.5t-91 -95.5l-7 8q51 50 72 96.5t21 129.5v317q0 130 -108 130q-46 0 -91.5 -30.5t-71.5 -80.5v-349l85 -16z" />
<glyph unicode="&#x14c;" horiz-adv-x="610" d="M188 788v24h234v-24h-234zM555 328q0 -144 -69 -241t-183 -97t-181 92.5t-67 239.5t70.5 242.5t183.5 95.5q109 0 177.5 -94.5t68.5 -237.5zM88 322q0 -134 60.5 -220.5t155.5 -86.5q97 0 157.5 90t60.5 223q0 132 -59.5 219.5t-154.5 87.5q-97 0 -158.5 -89t-61.5 -224z " />
<glyph unicode="&#x14d;" horiz-adv-x="484" d="M126 638v24h234v-24h-234zM429 257q0 -119 -48.5 -193t-138.5 -74q-88 0 -137.5 65.5t-49.5 185.5q0 126 52 197.5t140 71.5q85 0 133.5 -69t48.5 -184zM87 247q0 -113 40 -173t116 -60q74 0 114 67t40 176q0 106 -39.5 167.5t-111.5 61.5t-115.5 -64t-43.5 -175z" />
<glyph unicode="&#x14e;" horiz-adv-x="610" d="M389 850l4 2l11 -3q-10 -48 -36.5 -74.5t-64.5 -26.5q-39 0 -64.5 26.5t-32.5 74.5l14 3q9 -37 32 -58t54 -21q29 0 50.5 20.5t32.5 56.5zM555 328q0 -144 -69 -241t-183 -97t-181 92.5t-67 239.5t70.5 242.5t183.5 95.5q109 0 177.5 -94.5t68.5 -237.5zM88 322 q0 -134 60.5 -220.5t155.5 -86.5q97 0 157.5 90t60.5 223q0 132 -59.5 219.5t-154.5 87.5q-97 0 -158.5 -89t-61.5 -224z" />
<glyph unicode="&#x14f;" horiz-adv-x="484" d="M327 700l4 2l11 -3q-10 -48 -36.5 -74.5t-64.5 -26.5q-39 0 -64.5 26.5t-32.5 74.5l14 3q9 -37 32 -58t54 -21q29 0 50.5 20.5t32.5 56.5zM429 257q0 -119 -48.5 -193t-138.5 -74q-88 0 -137.5 65.5t-49.5 185.5q0 126 52 197.5t140 71.5q85 0 133.5 -69t48.5 -184z M87 247q0 -113 40 -173t116 -60q74 0 114 67t40 176q0 106 -39.5 167.5t-111.5 61.5t-115.5 -64t-43.5 -175z" />
<glyph unicode="&#x150;" horiz-adv-x="610" d="M300 855q0 -30 -124 -124l-7 7q78 80 112 132h3q16 0 16 -15zM440 855q0 -30 -124 -124l-7 7q78 80 112 132h3q16 0 16 -15zM555 328q0 -144 -69 -241t-183 -97t-181 92.5t-67 239.5t70.5 242.5t183.5 95.5q109 0 177.5 -94.5t68.5 -237.5zM88 322q0 -134 60.5 -220.5 t155.5 -86.5q97 0 157.5 90t60.5 223q0 132 -59.5 219.5t-154.5 87.5q-97 0 -158.5 -89t-61.5 -224z" />
<glyph unicode="&#x151;" horiz-adv-x="484" d="M242 705q0 -30 -124 -124l-7 7q78 80 112 132h3q16 0 16 -15zM382 705q0 -30 -124 -124l-7 7q78 80 112 132h3q16 0 16 -15zM429 257q0 -119 -48.5 -193t-138.5 -74q-88 0 -137.5 65.5t-49.5 185.5q0 126 52 197.5t140 71.5q85 0 133.5 -69t48.5 -184zM87 247 q0 -113 40 -173t116 -60q74 0 114 67t40 176q0 106 -39.5 167.5t-111.5 61.5t-115.5 -64t-43.5 -175z" />
<glyph unicode="&#x152;" horiz-adv-x="804" d="M745 0h-327q-37 -10 -89 -10q-125 0 -199.5 90.5t-74.5 235.5q0 149 81.5 246.5t212.5 97.5q35 0 72 -10h316q4 -29 4 -69q0 -61 -6 -106h-8l-20 150q-46 2 -140 2h-118v-289l215 5l-1 -30l-214 4v-294h122q96 0 144 2l20 150h8q6 -45 6 -106q0 -40 -4 -69zM88 316 q0 -132 67.5 -216.5t174.5 -84.5q48 0 87 12v597q-29 11 -69 11q-115 0 -187.5 -91t-72.5 -228z" />
<glyph unicode="&#x153;" horiz-adv-x="773" d="M740 70q-56 -80 -153 -80q-137 0 -175 149q-41 -149 -170 -149q-88 0 -137.5 65.5t-49.5 185.5q0 126 52 197.5t140 71.5q64 0 107 -40.5t61 -112.5q21 73 68.5 113t107.5 40q70 0 107.5 -50t37.5 -135q0 -33 -4 -61l-7 -5h-296v-14q0 -108 44.5 -169.5t120.5 -61.5 q42 0 73 15t66 49zM87 247q0 -113 40 -173t116 -60q74 0 114 67t40 176q0 106 -39.5 167.5t-111.5 61.5t-115.5 -64t-43.5 -175zM589 486q-64 0 -108 -54.5t-51 -152.5l271 5q3 21 3 41q0 161 -115 161z" />
<glyph unicode="&#x154;" horiz-adv-x="599" d="M379 855q0 -29 -125 -124l-7 7q78 80 112 132h3q17 0 17 -15zM277 0h-212l-1 10l74 12q16 2 16 17v585l-92 16l1 10h230q92 0 150 -47.5t58 -133.5q0 -65 -40 -111t-103 -64l142 -236q20 -32 51 -39l48 -10l-1 -9h-54q-28 0 -43.5 10t-29.5 33l-146 245q-18 -3 -37 -3 h-102v-259l92 -16zM283 627h-97v-319h92q84 0 137 42.5t53 118.5q0 75 -49 116.5t-136 41.5z" />
<glyph unicode="&#x155;" horiz-adv-x="386" d="M283 705q0 -29 -125 -124l-7 7q78 80 112 132h3q17 0 17 -15zM255 0h-218l-1 10l69 12q16 2 16 17v442l-84 4l-1 10q57 10 108 15l7 -7v-90q24 46 58.5 71.5t73.5 25.5q35 0 58 -19.5t23 -45.5q0 -11 -6 -17.5t-14 -6.5q-14 62 -72 62q-35 0 -69 -30t-52 -71v-356 l105 -16z" />
<glyph unicode="&#x156;" horiz-adv-x="599" d="M277 0h-212l-1 10l74 12q16 2 16 17v585l-92 16l1 10h230q92 0 150 -47.5t58 -133.5q0 -65 -40 -111t-103 -64l142 -236q20 -32 51 -39l48 -10l-1 -9h-54q-28 0 -43.5 10t-29.5 33l-146 245q-18 -3 -37 -3h-102v-259l92 -16zM283 627h-97v-319h92q84 0 137 42.5t53 118.5 q0 75 -49 116.5t-136 41.5zM360 -142q0 -27 -13.5 -66t-37.5 -69l-6 5q23 53 26 106h-1q-29 6 -29 32q0 14 8.5 23t22.5 9q30 0 30 -40z" />
<glyph unicode="&#x157;" horiz-adv-x="386" d="M255 0h-218l-1 10l69 12q16 2 16 17v442l-84 4l-1 10q57 10 108 15l7 -7v-90q24 46 58.5 71.5t73.5 25.5q35 0 58 -19.5t23 -45.5q0 -11 -6 -17.5t-14 -6.5q-14 62 -72 62q-35 0 -69 -30t-52 -71v-356l105 -16zM166 -142q0 -27 -13.5 -66t-37.5 -69l-6 5q23 53 26 106h-1 q-29 6 -29 32q0 14 8.5 23t22.5 9q30 0 30 -40z" />
<glyph unicode="&#x158;" horiz-adv-x="599" d="M316 733l-4 -3h-18q-43 53 -103 134l8 6q64 -69 106 -107q45 54 104 106l7 -7q-72 -82 -100 -129zM277 0h-212l-1 10l74 12q16 2 16 17v585l-92 16l1 10h230q92 0 150 -47.5t58 -133.5q0 -65 -40 -111t-103 -64l142 -236q20 -32 51 -39l48 -10l-1 -9h-54q-28 0 -43.5 10 t-29.5 33l-146 245q-18 -3 -37 -3h-102v-259l92 -16zM283 627h-97v-319h92q84 0 137 42.5t53 118.5q0 75 -49 116.5t-136 41.5z" />
<glyph unicode="&#x159;" horiz-adv-x="386" d="M229 583l-4 -3h-18q-43 53 -103 134l8 6q64 -69 106 -107q45 54 104 106l7 -7q-72 -82 -100 -129zM255 0h-218l-1 10l69 12q16 2 16 17v442l-84 4l-1 10q57 10 108 15l7 -7v-90q24 46 58.5 71.5t73.5 25.5q35 0 58 -19.5t23 -45.5q0 -11 -6 -17.5t-14 -6.5q-14 62 -72 62 q-35 0 -69 -30t-52 -71v-356l105 -16z" />
<glyph unicode="&#x15a;" horiz-adv-x="444" d="M290 855q0 -29 -125 -124l-7 7q78 80 112 132h3q17 0 17 -15zM400 147q0 -72 -54 -114.5t-135 -42.5q-56 0 -101 14.5t-59 36.5q-7 11 -7 64q0 43 6 85h8l20 -140q40 -38 133 -38q70 0 113 35.5t43 97.5q0 51 -32.5 88.5t-79 62t-93 50t-79 67t-32.5 98.5q0 67 52 108 t133 41q47 0 87 -11t51 -26q8 -12 8 -65t-6 -85h-8l-20 139q-45 26 -113 26q-69 0 -110 -34t-41 -92q0 -43 23.5 -77t58.5 -54.5t76 -44t76 -45.5t58.5 -59.5t23.5 -84.5z" />
<glyph unicode="&#x15b;" horiz-adv-x="395" d="M272 705q0 -29 -125 -124l-7 7q78 80 112 132h3q17 0 17 -15zM182 -10q-42 0 -75 7.5t-42 17.5q-10 10 -10 58q0 36 6 72h9q1 -8 2 -21.5t1.5 -20t2 -17t2.5 -16t2.5 -12.5t3.5 -12t5 -9q15 -23 98 -23q55 0 88 26.5t33 70.5q0 37 -25 65t-61 46.5t-72.5 38t-61.5 50.5 t-25 73q0 59 42.5 92.5t108.5 33.5q38 0 67.5 -8t36.5 -17q8 -9 8 -58q0 -35 -6 -72h-9q-4 74 -13 97q-14 34 -85 34q-55 0 -86.5 -26t-31.5 -75q0 -36 25 -63t61 -45.5t72.5 -38t61.5 -51t25 -74.5q0 -57 -44 -90t-114 -33z" />
<glyph unicode="&#x15c;" horiz-adv-x="444" d="M335 736l-8 -6q-64 69 -106 107q-45 -54 -104 -106l-7 7q72 82 100 129l4 3h18q43 -53 103 -134zM400 147q0 -72 -54 -114.5t-135 -42.5q-56 0 -101 14.5t-59 36.5q-7 11 -7 64q0 43 6 85h8l20 -140q40 -38 133 -38q70 0 113 35.5t43 97.5q0 51 -32.5 88.5t-79 62t-93 50 t-79 67t-32.5 98.5q0 67 52 108t133 41q47 0 87 -11t51 -26q8 -12 8 -65t-6 -85h-8l-20 139q-45 26 -113 26q-69 0 -110 -34t-41 -92q0 -43 23.5 -77t58.5 -54.5t76 -44t76 -45.5t58.5 -59.5t23.5 -84.5z" />
<glyph unicode="&#x15d;" horiz-adv-x="395" d="M319 586l-8 -6q-64 69 -106 107q-45 -54 -104 -106l-7 7q72 82 100 129l4 3h18q43 -53 103 -134zM182 -10q-42 0 -75 7.5t-42 17.5q-10 10 -10 58q0 36 6 72h9q1 -8 2 -21.5t1.5 -20t2 -17t2.5 -16t2.5 -12.5t3.5 -12t5 -9q15 -23 98 -23q55 0 88 26.5t33 70.5 q0 37 -25 65t-61 46.5t-72.5 38t-61.5 50.5t-25 73q0 59 42.5 92.5t108.5 33.5q38 0 67.5 -8t36.5 -17q8 -9 8 -58q0 -35 -6 -72h-9q-4 74 -13 97q-14 34 -85 34q-55 0 -86.5 -26t-31.5 -75q0 -36 25 -63t61 -45.5t72.5 -38t61.5 -51t25 -74.5q0 -57 -44 -90t-114 -33z" />
<glyph unicode="&#x15e;" horiz-adv-x="444" d="M193 -71l-3 5l9 56q-52 1 -93 15.5t-55 35.5q-7 11 -7 64q0 43 6 85h8l20 -140q40 -38 133 -38q70 0 113 35.5t43 97.5q0 51 -32.5 88.5t-79 62t-93 50t-79 67t-32.5 98.5q0 67 52 108t133 41q47 0 87 -11t51 -26q8 -12 8 -65t-6 -85h-8l-20 139q-45 26 -113 26 q-69 0 -110 -34t-41 -92q0 -43 23.5 -77t58.5 -54.5t76 -44t76 -45.5t58.5 -59.5t23.5 -84.5q0 -69 -50 -111t-127 -46l-7 -45q71 -11 71 -52q0 -30 -34.5 -47.5t-79.5 -19.5l-1 15q83 11 83 47q0 32 -62 41z" />
<glyph unicode="&#x15f;" horiz-adv-x="395" d="M167 -71l-3 5l9 56q-89 2 -108 25q-10 10 -10 58q0 36 6 72h9q1 -8 2 -21.5t1.5 -20t2 -17t2.5 -16t2.5 -12.5t3.5 -12t5 -9q15 -23 98 -23q55 0 88 26.5t33 70.5q0 37 -25 65t-61 46.5t-72.5 38t-61.5 50.5t-25 73q0 59 42.5 92.5t108.5 33.5q38 0 67.5 -8t36.5 -17 q8 -9 8 -58q0 -35 -6 -72h-9q-4 74 -13 97q-14 34 -85 34q-55 0 -86.5 -26t-31.5 -75q0 -36 25 -63t61 -45.5t72.5 -38t61.5 -51t25 -74.5q0 -54 -39.5 -86.5t-103.5 -36.5l-7 -45q71 -11 71 -52q0 -30 -34.5 -47.5t-79.5 -19.5l-1 15q83 11 83 47q0 32 -62 41z" />
<glyph unicode="&#x160;" horiz-adv-x="444" d="M237 733l-4 -3h-18q-43 53 -103 134l8 6q64 -69 106 -107q45 54 104 106l7 -7q-72 -82 -100 -129zM400 147q0 -72 -54 -114.5t-135 -42.5q-56 0 -101 14.5t-59 36.5q-7 11 -7 64q0 43 6 85h8l20 -140q40 -38 133 -38q70 0 113 35.5t43 97.5q0 51 -32.5 88.5t-79 62 t-93 50t-79 67t-32.5 98.5q0 67 52 108t133 41q47 0 87 -11t51 -26q8 -12 8 -65t-6 -85h-8l-20 139q-45 26 -113 26q-69 0 -110 -34t-41 -92q0 -43 23.5 -77t58.5 -54.5t76 -44t76 -45.5t58.5 -59.5t23.5 -84.5z" />
<glyph unicode="&#x161;" horiz-adv-x="395" d="M218 583l-4 -3h-18q-43 53 -103 134l8 6q64 -69 106 -107q45 54 104 106l7 -7q-72 -82 -100 -129zM182 -10q-42 0 -75 7.5t-42 17.5q-10 10 -10 58q0 36 6 72h9q1 -8 2 -21.5t1.5 -20t2 -17t2.5 -16t2.5 -12.5t3.5 -12t5 -9q15 -23 98 -23q55 0 88 26.5t33 70.5 q0 37 -25 65t-61 46.5t-72.5 38t-61.5 50.5t-25 73q0 59 42.5 92.5t108.5 33.5q38 0 67.5 -8t36.5 -17q8 -9 8 -58q0 -35 -6 -72h-9q-4 74 -13 97q-14 34 -85 34q-55 0 -86.5 -26t-31.5 -75q0 -36 25 -63t61 -45.5t72.5 -38t61.5 -51t25 -74.5q0 -57 -44 -90t-114 -33z" />
<glyph unicode="&#x162;" horiz-adv-x="524" d="M242 -71l-3 5l11 66h-93l-1 10l74 12q16 2 16 17v588h-90q-67 0 -100 -1l-20 -153h-8q-6 56 -6 99q0 45 4 78h472q4 -33 4 -78q0 -43 -6 -99h-8l-20 153q-33 1 -100 1h-90v-601l92 -16l-1 -10h-95l-9 -55q71 -11 71 -52q0 -30 -34.5 -47.5t-79.5 -19.5l-1 15q83 11 83 47 q0 32 -62 41z" />
<glyph unicode="&#x163;" horiz-adv-x="352" d="M179 -71l-3 5l10 58q-87 15 -87 138v330h-84l-1 10l85 12l20 158l10 -2v-156h180v-22h-180v-315q0 -68 21 -99.5t66 -31.5q59 0 118 56l7 -7q-24 -33 -59 -53t-72 -20h-1l-7 -45q71 -11 71 -52q0 -30 -34.5 -47.5t-79.5 -19.5l-1 15q83 11 83 47q0 32 -62 41z" />
<glyph unicode="&#x164;" horiz-adv-x="524" d="M275 733l-4 -3h-18q-43 53 -103 134l8 6q64 -69 106 -107q45 54 104 106l7 -7q-72 -82 -100 -129zM369 0h-212l-1 10l74 12q16 2 16 17v588h-90q-67 0 -100 -1l-20 -153h-8q-6 56 -6 99q0 45 4 78h472q4 -33 4 -78q0 -43 -6 -99h-8l-20 153q-33 1 -100 1h-90v-601l92 -16 z" />
<glyph unicode="&#x165;" horiz-adv-x="352" d="M312 680q0 -27 -13.5 -66t-37.5 -69l-6 5q23 53 26 106h-1q-29 6 -29 32q0 14 8.5 23t22.5 9q30 0 30 -40zM309 482v-22h-180v-315q0 -68 21 -99.5t66 -31.5q59 0 118 56l7 -7q-24 -33 -59 -53t-72 -20q-54 0 -82.5 36t-28.5 104v330h-84l-1 10l85 12l20 158l10 -2v-156 h180z" />
<glyph unicode="&#x166;" horiz-adv-x="524" d="M369 0h-212l-1 10l74 12q16 2 16 17v277h-164v23h164v288h-90q-67 0 -100 -1l-20 -153h-8q-6 56 -6 99q0 45 4 78h472q4 -33 4 -78q0 -43 -6 -99h-8l-20 153q-33 1 -100 1h-90v-288h164v-23h-164v-290l92 -16z" />
<glyph unicode="&#x167;" horiz-adv-x="352" d="M313 316h-184v-171q0 -68 21 -99.5t66 -31.5q59 0 118 56l7 -7q-24 -33 -59 -53t-72 -20q-54 0 -82.5 36t-28.5 104v186h-83v22h83v122h-84l-1 10l85 12l20 158l10 -2v-156h180v-22h-180v-122h184v-22z" />
<glyph unicode="&#x168;" d="M444 787q20 24 39 59l10 -4q-7 -31 -21.5 -55t-33.5 -24q-22 0 -88 24.5t-77 24.5q-20 -24 -39 -59l-10 4q7 31 21.5 55t33.5 24q23 0 88 -24.5t77 -24.5zM569 220q0 -109 -61 -169.5t-153 -60.5q-90 0 -150.5 60t-60.5 170v404l-92 16l1 10h212l1 -10l-74 -12 q-16 -2 -16 -17v-385q0 -100 53 -155.5t130 -55.5q80 0 132 55t52 157v397l-93 16l1 10h207l1 -10l-90 -16v-404z" />
<glyph unicode="&#x169;" horiz-adv-x="562" d="M355 637q20 24 39 59l10 -4q-7 -31 -21.5 -55t-33.5 -24q-22 0 -88 24.5t-77 24.5q-20 -24 -39 -59l-10 4q7 31 21.5 55t33.5 24q23 0 88 -24.5t77 -24.5zM523 15q-18 -25 -50 -25q-62 0 -62 91v9q-64 -100 -163 -100q-138 0 -138 154v337l-84 4l-1 10q57 10 108 15l7 -7 v-359q0 -63 29 -96.5t81 -33.5q47 0 90 31t71 85v351l-84 4l-1 10q57 10 108 15l7 -7v-422q0 -70 45 -70q17 0 35 8z" />
<glyph unicode="&#x16a;" d="M242 788v24h234v-24h-234zM569 220q0 -109 -61 -169.5t-153 -60.5q-90 0 -150.5 60t-60.5 170v404l-92 16l1 10h212l1 -10l-74 -12q-16 -2 -16 -17v-385q0 -100 53 -155.5t130 -55.5q80 0 132 55t52 157v397l-93 16l1 10h207l1 -10l-90 -16v-404z" />
<glyph unicode="&#x16b;" horiz-adv-x="562" d="M147 638v24h234v-24h-234zM523 15q-18 -25 -50 -25q-62 0 -62 91v9q-64 -100 -163 -100q-138 0 -138 154v337l-84 4l-1 10q57 10 108 15l7 -7v-359q0 -63 29 -96.5t81 -33.5q47 0 90 31t71 85v351l-84 4l-1 10q57 10 108 15l7 -7v-422q0 -70 45 -70q17 0 35 8z" />
<glyph unicode="&#x16c;" d="M443 850l4 2l11 -3q-10 -48 -36.5 -74.5t-64.5 -26.5q-39 0 -64.5 26.5t-32.5 74.5l14 3q9 -37 32 -58t54 -21q29 0 50.5 20.5t32.5 56.5zM569 220q0 -109 -61 -169.5t-153 -60.5q-90 0 -150.5 60t-60.5 170v404l-92 16l1 10h212l1 -10l-74 -12q-16 -2 -16 -17v-385 q0 -100 53 -155.5t130 -55.5q80 0 132 55t52 157v397l-93 16l1 10h207l1 -10l-90 -16v-404z" />
<glyph unicode="&#x16d;" horiz-adv-x="562" d="M357 700l4 2l11 -3q-10 -48 -36.5 -74.5t-64.5 -26.5q-39 0 -64.5 26.5t-32.5 74.5l14 3q9 -37 32 -58t54 -21q29 0 50.5 20.5t32.5 56.5zM523 15q-18 -25 -50 -25q-62 0 -62 91v9q-64 -100 -163 -100q-138 0 -138 154v337l-84 4l-1 10q57 10 108 15l7 -7v-359 q0 -63 29 -96.5t81 -33.5q47 0 90 31t71 85v351l-84 4l-1 10q57 10 108 15l7 -7v-422q0 -70 45 -70q17 0 35 8z" />
<glyph unicode="&#x16e;" d="M355 732q-28 0 -47 18.5t-19 45.5q0 28 21 47.5t52 19.5q28 0 47 -18.5t19 -45.5q0 -28 -21 -47.5t-52 -19.5zM359 843q-18 0 -29.5 -13.5t-11.5 -33.5q0 -19 11.5 -31.5t28.5 -12.5q18 0 29.5 13.5t11.5 33.5q0 19 -11.5 31.5t-28.5 12.5zM569 220q0 -109 -61 -169.5 t-153 -60.5q-90 0 -150.5 60t-60.5 170v404l-92 16l1 10h212l1 -10l-74 -12q-16 -2 -16 -17v-385q0 -100 53 -155.5t130 -55.5q80 0 132 55t52 157v397l-93 16l1 10h207l1 -10l-90 -16v-404z" />
<glyph unicode="&#x16f;" horiz-adv-x="562" d="M269 585q-28 0 -47 18.5t-19 45.5q0 28 21 47.5t52 19.5q28 0 47 -18.5t19 -45.5q0 -28 -21 -47.5t-52 -19.5zM273 696q-18 0 -29.5 -13.5t-11.5 -33.5q0 -19 11.5 -31.5t28.5 -12.5q18 0 29.5 13.5t11.5 33.5q0 19 -11.5 31.5t-28.5 12.5zM523 15q-18 -25 -50 -25 q-62 0 -62 91v9q-64 -100 -163 -100q-138 0 -138 154v337l-84 4l-1 10q57 10 108 15l7 -7v-359q0 -63 29 -96.5t81 -33.5q47 0 90 31t71 85v351l-84 4l-1 10q57 10 108 15l7 -7v-422q0 -70 45 -70q17 0 35 8z" />
<glyph unicode="&#x170;" d="M354 855q0 -30 -124 -124l-7 7q78 80 112 132h3q16 0 16 -15zM494 855q0 -30 -124 -124l-7 7q78 80 112 132h3q16 0 16 -15zM569 220q0 -109 -61 -169.5t-153 -60.5q-90 0 -150.5 60t-60.5 170v404l-92 16l1 10h212l1 -10l-74 -12q-16 -2 -16 -17v-385q0 -100 53 -155.5 t130 -55.5q80 0 132 55t52 157v397l-93 16l1 10h207l1 -10l-90 -16v-404z" />
<glyph unicode="&#x171;" horiz-adv-x="562" d="M272 705q0 -30 -124 -124l-7 7q78 80 112 132h3q16 0 16 -15zM412 705q0 -30 -124 -124l-7 7q78 80 112 132h3q16 0 16 -15zM523 15q-18 -25 -50 -25q-62 0 -62 91v9q-64 -100 -163 -100q-138 0 -138 154v337l-84 4l-1 10q57 10 108 15l7 -7v-359q0 -63 29 -96.5 t81 -33.5q47 0 90 31t71 85v351l-84 4l-1 10q57 10 108 15l7 -7v-422q0 -70 45 -70q17 0 35 8z" />
<glyph unicode="&#x172;" d="M436 -146q-25 -28 -68 -28q-31 0 -49 15.5t-18 42.5q0 52 105 111q-27 -5 -51 -5q-90 0 -150.5 60t-60.5 170v404l-92 16l1 10h212l1 -10l-74 -12q-16 -2 -16 -17v-385q0 -100 53 -155.5t130 -55.5q80 0 132 55t52 157v397l-93 16l1 10h207l1 -10l-90 -16v-404 q0 -144 -104 -203q-79 -53 -105.5 -78t-26.5 -52q0 -40 45 -40q29 0 56 11z" />
<glyph unicode="&#x173;" horiz-adv-x="562" d="M522 -146q-26 -28 -63 -28q-24 0 -39.5 14t-15.5 40q0 48 80 111q-4 -1 -11 -1q-62 0 -62 91v9q-64 -100 -163 -100q-138 0 -138 154v337l-84 4l-1 10q57 10 108 15l7 -7v-359q0 -63 29 -96.5t81 -33.5q47 0 90 31t71 85v351l-84 4l-1 10q57 10 108 15l7 -7v-422 q0 -70 45 -70q17 0 35 8l2 -4q-8 -11 -33.5 -37.5t-39.5 -48.5t-14 -44q0 -38 36 -38q23 0 48 11z" />
<glyph unicode="&#x174;" horiz-adv-x="969" d="M602 736l-8 -6q-64 69 -106 107q-45 -54 -104 -106l-7 7q72 82 100 129l4 3h18q43 -53 103 -134zM320 -4h-13l-214 590q-9 23 -16.5 32t-24.5 12l-52 10l1 10h202l1 -10l-92 -15l206 -565l156 445l-28 81q-8 23 -16 32t-25 12l-62 10l1 10h212l1 -10l-92 -15l196 -564 l197 563l-93 16l1 10h202l1 -10l-56 -10q-19 -3 -26 -12t-16 -32l-208 -590h-13l-163 472z" />
<glyph unicode="&#x175;" horiz-adv-x="772" d="M502 586l-8 -6q-64 69 -106 107q-45 -54 -104 -106l-7 7q72 82 100 129l4 3h18q43 -53 103 -134zM381 500h10l140 -444l126 418l-85 16l1 10h198l1 -10l-63 -11q-29 -5 -38 -37l-134 -442h-19l-135 427l-129 -427h-19l-143 448q-5 16 -12 22.5t-24 9.5l-56 10l1 10h198 l1 -10l-85 -16l133 -418z" />
<glyph unicode="&#x176;" horiz-adv-x="598" d="M414 736l-8 -6q-64 69 -106 107q-45 -54 -104 -106l-7 7q72 82 100 129l4 3h18q43 -53 103 -134zM406 0h-212l-1 10l74 12q16 2 16 17v183l-192 373q-9 18 -16.5 25t-22.5 10l-52 10l1 10h202l1 -10l-93 -15l191 -378l191 378l-91 15l1 10h194l1 -10q-27 -4 -49 -10 q-29 -7 -44 -38l-190 -372v-194l92 -16z" />
<glyph unicode="&#x177;" horiz-adv-x="519" d="M373 586l-8 -6q-64 69 -106 107q-45 -54 -104 -106l-7 7q72 82 100 129l4 3h18q43 -53 103 -134zM87 -195q-44 0 -44 28q0 11 8 17q17 -13 41 -13q47 0 88.5 43t67.5 125l-156 443q-5 16 -12 22.5t-24 9.5l-56 10l1 10h198l1 -10l-85 -16l148 -421l141 421l-85 16l1 10 h198l1 -10l-63 -11q-28 -5 -38 -37l-149 -442q-64 -195 -182 -195z" />
<glyph unicode="&#x178;" horiz-adv-x="598" d="M244 804q0 -16 -9 -28t-23 -12q-12 0 -20 9.5t-8 24.5q0 16 9.5 27t23.5 11q12 0 19.5 -8.5t7.5 -23.5zM422 804q0 -16 -9 -28t-23 -12q-12 0 -20 9.5t-8 24.5q0 16 9.5 27t23.5 11q12 0 19.5 -8.5t7.5 -23.5zM406 0h-212l-1 10l74 12q16 2 16 17v183l-192 373 q-9 18 -16.5 25t-22.5 10l-52 10l1 10h202l1 -10l-93 -15l191 -378l191 378l-91 15l1 10h194l1 -10q-27 -4 -49 -10q-29 -7 -44 -38l-190 -372v-194l92 -16z" />
<glyph unicode="&#x179;" horiz-adv-x="545" d="M347 855q0 -29 -125 -124l-7 7q78 80 112 132h3q17 0 17 -15zM476 77q0 -44 -4 -77h-402l-4 17l373 611h-339l-20 -163h-8q-6 47 -6 111q0 42 4 74h405l4 -17l-373 -611h335l21 163h8q6 -43 6 -108z" />
<glyph unicode="&#x17a;" horiz-adv-x="422" d="M277 705q0 -29 -125 -124l-7 7q78 80 112 132h3q17 0 17 -15zM378 71q0 -40 -4 -71h-328l-2 10l290 468h-255l-20 -133h-9q-6 36 -6 87q0 39 4 68h328l2 -10l-292 -468h258l19 133h9q6 -34 6 -84z" />
<glyph unicode="&#x17b;" horiz-adv-x="545" d="M301 804q0 -16 -9 -28t-23 -12q-12 0 -20 9.5t-8 24.5q0 16 9.5 27t23.5 11q12 0 19.5 -8.5t7.5 -23.5zM476 77q0 -44 -4 -77h-402l-4 17l373 611h-339l-20 -163h-8q-6 47 -6 111q0 42 4 74h405l4 -17l-373 -611h335l21 163h8q6 -43 6 -108z" />
<glyph unicode="&#x17c;" horiz-adv-x="422" d="M245 654q0 -16 -9 -28t-23 -12q-12 0 -20 9.5t-8 24.5q0 16 9.5 27t23.5 11q12 0 19.5 -8.5t7.5 -23.5zM378 71q0 -40 -4 -71h-328l-2 10l290 468h-255l-20 -133h-9q-6 36 -6 87q0 39 4 68h328l2 -10l-292 -468h258l19 133h9q6 -34 6 -84z" />
<glyph unicode="&#x17d;" horiz-adv-x="545" d="M284 733l-4 -3h-18q-43 53 -103 134l8 6q64 -69 106 -107q45 54 104 106l7 -7q-72 -82 -100 -129zM476 77q0 -44 -4 -77h-402l-4 17l373 611h-339l-20 -163h-8q-6 47 -6 111q0 42 4 74h405l4 -17l-373 -611h335l21 163h8q6 -43 6 -108z" />
<glyph unicode="&#x17e;" horiz-adv-x="422" d="M223 583l-4 -3h-18q-43 53 -103 134l8 6q64 -69 106 -107q45 54 104 106l7 -7q-72 -82 -100 -129zM378 71q0 -40 -4 -71h-328l-2 10l290 468h-255l-20 -133h-9q-6 36 -6 87q0 39 4 68h328l2 -10l-292 -468h258l19 133h9q6 -34 6 -84z" />
<glyph unicode="&#x18f;" horiz-adv-x="559" d="M264 -10q-93 0 -148.5 71t-55.5 193q0 9 1.5 27t1.5 21l10 11h398v10q0 148 -51 230t-145 82q-74 0 -122 -47.5t-48 -114.5q0 -22 5 -40q-7 -4 -16 -4q-22 0 -22 43q0 75 60 131.5t145 56.5q104 0 165.5 -90t61.5 -239q0 -151 -66 -246t-174 -95zM92 258q0 -117 46 -180 t131 -63t139.5 76t61.5 199l-377 -4q-1 -12 -1 -28z" />
<glyph unicode="&#x192;" horiz-adv-x="494" d="M189 91q-14 -100 -52 -153.5t-96 -53.5q-34 0 -57.5 19.5t-23.5 42.5t23 23q11 -61 67 -61q45 0 70 43.5t37 136.5l30 226h-121l4 23h120l22 165q12 89 55.5 138.5t105.5 49.5q46 0 76.5 -29.5t30.5 -64.5q0 -21 -23 -23q-21 93 -89 93q-49 0 -81 -42t-43 -119l-22 -168 h175l-4 -23h-174z" />
<glyph unicode="&#x19d;" d="M63 650h127l354 -608v582l-92 16l1 10h206l1 -10l-74 -12q-16 -2 -16 -17v-611h-36l-354 608v-498q0 -83 -24 -131t-88 -94l-7 8q51 50 72 96.5t21 129.5v505l-92 16z" />
<glyph unicode="&#x1cd;" horiz-adv-x="635" d="M331 733l-4 -3h-18q-43 53 -103 134l8 6q64 -69 106 -107q45 54 104 106l7 -7q-72 -82 -100 -129zM311 654h13l217 -590q10 -26 17.5 -33.5t29.5 -11.5l47 -9l-1 -10h-216l-1 10l104 15l-79 215h-255l-78 -216l95 -14l-1 -10h-202l-1 10l50 9q20 4 28.5 12.5t17.5 32.5z M195 263h239l-120 329z" />
<glyph unicode="&#x1ce;" horiz-adv-x="473" d="M230 583l-4 -3h-18q-43 53 -103 134l8 6q64 -69 106 -107q45 54 104 106l7 -7q-72 -82 -100 -129zM445 15q-18 -25 -50 -25q-62 0 -62 86v10q-21 -40 -63.5 -68t-94.5 -28q-55 0 -87.5 30t-32.5 80q0 77 77 119t201 48v92q0 66 -24 96.5t-76 30.5q-54 0 -93.5 -35 t-39.5 -75q0 -14 4 -26q-4 -6 -14 -6q-22 0 -22 30q0 50 51.5 93t116.5 43q67 0 97 -35.5t30 -107.5v-286q0 -70 45 -70q17 0 35 8zM87 100q0 -40 25.5 -63t64.5 -23q50 0 92 31.5t64 85.5v114q-246 -16 -246 -145z" />
<glyph unicode="&#x1cf;" horiz-adv-x="340" d="M183 733l-4 -3h-18q-43 53 -103 134l8 6q64 -69 106 -107q45 54 104 106l7 -7q-72 -82 -100 -129zM277 0h-212l-1 10l74 12q16 2 16 17v585l-92 16l1 10h212l1 -10l-74 -12q-16 -2 -16 -17v-585l92 -16z" />
<glyph unicode="&#x1d0;" horiz-adv-x="261" d="M133 583l-4 -3h-18q-30 46 -83 134l8 6q41 -55 85 -106q49 67 85 105l7 -7q-58 -82 -80 -129zM235 0h-198l-1 10l69 12q16 2 16 17v442l-84 4l-1 10q57 10 108 15l7 -7v-477l85 -16z" />
<glyph unicode="&#x1d1;" horiz-adv-x="610" d="M318 733l-4 -3h-18q-43 53 -103 134l8 6q64 -69 106 -107q45 54 104 106l7 -7q-72 -82 -100 -129zM555 328q0 -144 -69 -241t-183 -97t-181 92.5t-67 239.5t70.5 242.5t183.5 95.5q109 0 177.5 -94.5t68.5 -237.5zM88 322q0 -134 60.5 -220.5t155.5 -86.5q97 0 157.5 90 t60.5 223q0 132 -59.5 219.5t-154.5 87.5q-97 0 -158.5 -89t-61.5 -224z" />
<glyph unicode="&#x1d2;" horiz-adv-x="484" d="M255 583l-4 -3h-18q-43 53 -103 134l8 6q64 -69 106 -107q45 54 104 106l7 -7q-72 -82 -100 -129zM429 257q0 -119 -48.5 -193t-138.5 -74q-88 0 -137.5 65.5t-49.5 185.5q0 126 52 197.5t140 71.5q85 0 133.5 -69t48.5 -184zM87 247q0 -113 40 -173t116 -60q74 0 114 67 t40 176q0 106 -39.5 167.5t-111.5 61.5t-115.5 -64t-43.5 -175z" />
<glyph unicode="&#x1d3;" d="M372 733l-4 -3h-18q-43 53 -103 134l8 6q64 -69 106 -107q45 54 104 106l7 -7q-72 -82 -100 -129zM569 220q0 -109 -61 -169.5t-153 -60.5q-90 0 -150.5 60t-60.5 170v404l-92 16l1 10h212l1 -10l-74 -12q-16 -2 -16 -17v-385q0 -100 53 -155.5t130 -55.5q80 0 132 55 t52 157v397l-93 16l1 10h207l1 -10l-90 -16v-404z" />
<glyph unicode="&#x1d4;" horiz-adv-x="562" d="M285 583l-4 -3h-18q-43 53 -103 134l8 6q64 -69 106 -107q45 54 104 106l7 -7q-72 -82 -100 -129zM523 15q-18 -25 -50 -25q-62 0 -62 91v9q-64 -100 -163 -100q-138 0 -138 154v337l-84 4l-1 10q57 10 108 15l7 -7v-359q0 -63 29 -96.5t81 -33.5q47 0 90 31t71 85v351 l-84 4l-1 10q57 10 108 15l7 -7v-422q0 -70 45 -70q17 0 35 8z" />
<glyph unicode="&#x1d5;" d="M242 989v24h234v-24h-234zM300 804q0 -16 -9 -28t-23 -12q-12 0 -20 9.5t-8 24.5q0 16 9.5 27t23.5 11q12 0 19.5 -8.5t7.5 -23.5zM478 804q0 -16 -9 -28t-23 -12q-12 0 -20 9.5t-8 24.5q0 16 9.5 27t23.5 11q12 0 19.5 -8.5t7.5 -23.5zM569 220q0 -109 -61 -169.5 t-153 -60.5q-90 0 -150.5 60t-60.5 170v404l-92 16l1 10h212l1 -10l-74 -12q-16 -2 -16 -17v-385q0 -100 53 -155.5t130 -55.5q80 0 132 55t52 157v397l-93 16l1 10h207l1 -10l-90 -16v-404z" />
<glyph unicode="&#x1d6;" horiz-adv-x="562" d="M156 823v24h234v-24h-234zM215 654q0 -16 -9 -28t-23 -12q-12 0 -20 9.5t-8 24.5q0 16 9.5 27t23.5 11q12 0 19.5 -8.5t7.5 -23.5zM393 654q0 -16 -9 -28t-23 -12q-12 0 -20 9.5t-8 24.5q0 16 9.5 27t23.5 11q12 0 19.5 -8.5t7.5 -23.5zM523 15q-18 -25 -50 -25 q-62 0 -62 91v9q-64 -100 -163 -100q-138 0 -138 154v337l-84 4l-1 10q57 10 108 15l7 -7v-359q0 -63 29 -96.5t81 -33.5q47 0 90 31t71 85v351l-84 4l-1 10q57 10 108 15l7 -7v-422q0 -70 45 -70q17 0 35 8z" />
<glyph unicode="&#x1d7;" d="M435 1056q0 -29 -125 -124l-7 7q78 80 112 132h3q17 0 17 -15zM300 804q0 -16 -9 -28t-23 -12q-12 0 -20 9.5t-8 24.5q0 16 9.5 27t23.5 11q12 0 19.5 -8.5t7.5 -23.5zM478 804q0 -16 -9 -28t-23 -12q-12 0 -20 9.5t-8 24.5q0 16 9.5 27t23.5 11q12 0 19.5 -8.5 t7.5 -23.5zM569 220q0 -109 -61 -169.5t-153 -60.5q-90 0 -150.5 60t-60.5 170v404l-92 16l1 10h212l1 -10l-74 -12q-16 -2 -16 -17v-385q0 -100 53 -155.5t130 -55.5q80 0 132 55t52 157v397l-93 16l1 10h207l1 -10l-90 -16v-404z" />
<glyph unicode="&#x1d8;" horiz-adv-x="562" d="M339 890q0 -29 -125 -124l-7 7q78 80 112 132h3q17 0 17 -15zM215 654q0 -16 -9 -28t-23 -12q-12 0 -20 9.5t-8 24.5q0 16 9.5 27t23.5 11q12 0 19.5 -8.5t7.5 -23.5zM393 654q0 -16 -9 -28t-23 -12q-12 0 -20 9.5t-8 24.5q0 16 9.5 27t23.5 11q12 0 19.5 -8.5t7.5 -23.5 zM523 15q-18 -25 -50 -25q-62 0 -62 91v9q-64 -100 -163 -100q-138 0 -138 154v337l-84 4l-1 10q57 10 108 15l7 -7v-359q0 -63 29 -96.5t81 -33.5q47 0 90 31t71 85v351l-84 4l-1 10q57 10 108 15l7 -7v-422q0 -70 45 -70q17 0 35 8z" />
<glyph unicode="&#x1d9;" d="M377 934l-4 -3h-18q-43 53 -103 134l8 6q64 -69 106 -107q45 54 104 106l7 -7q-72 -82 -100 -129zM300 804q0 -16 -9 -28t-23 -12q-12 0 -20 9.5t-8 24.5q0 16 9.5 27t23.5 11q12 0 19.5 -8.5t7.5 -23.5zM478 804q0 -16 -9 -28t-23 -12q-12 0 -20 9.5t-8 24.5 q0 16 9.5 27t23.5 11q12 0 19.5 -8.5t7.5 -23.5zM569 220q0 -109 -61 -169.5t-153 -60.5q-90 0 -150.5 60t-60.5 170v404l-92 16l1 10h212l1 -10l-74 -12q-16 -2 -16 -17v-385q0 -100 53 -155.5t130 -55.5q80 0 132 55t52 157v397l-93 16l1 10h207l1 -10l-90 -16v-404z" />
<glyph unicode="&#x1da;" horiz-adv-x="562" d="M287 768l-4 -3h-18q-43 53 -103 134l8 6q64 -69 106 -107q45 54 104 106l7 -7q-72 -82 -100 -129zM215 654q0 -16 -9 -28t-23 -12q-12 0 -20 9.5t-8 24.5q0 16 9.5 27t23.5 11q12 0 19.5 -8.5t7.5 -23.5zM393 654q0 -16 -9 -28t-23 -12q-12 0 -20 9.5t-8 24.5 q0 16 9.5 27t23.5 11q12 0 19.5 -8.5t7.5 -23.5zM523 15q-18 -25 -50 -25q-62 0 -62 91v9q-64 -100 -163 -100q-138 0 -138 154v337l-84 4l-1 10q57 10 108 15l7 -7v-359q0 -63 29 -96.5t81 -33.5q47 0 90 31t71 85v351l-84 4l-1 10q57 10 108 15l7 -7v-422q0 -70 45 -70 q17 0 35 8z" />
<glyph unicode="&#x1db;" d="M422 935l-7 -7q-135 95 -135 128q0 18 20 18h3q34 -56 119 -139zM300 804q0 -16 -9 -28t-23 -12q-12 0 -20 9.5t-8 24.5q0 16 9.5 27t23.5 11q12 0 19.5 -8.5t7.5 -23.5zM478 804q0 -16 -9 -28t-23 -12q-12 0 -20 9.5t-8 24.5q0 16 9.5 27t23.5 11q12 0 19.5 -8.5 t7.5 -23.5zM569 220q0 -109 -61 -169.5t-153 -60.5q-90 0 -150.5 60t-60.5 170v404l-92 16l1 10h212l1 -10l-74 -12q-16 -2 -16 -17v-385q0 -100 53 -155.5t130 -55.5q80 0 132 55t52 157v397l-93 16l1 10h207l1 -10l-90 -16v-404z" />
<glyph unicode="&#x1dc;" horiz-adv-x="562" d="M338 769l-7 -7q-135 95 -135 128q0 18 20 18h3q34 -56 119 -139zM215 654q0 -16 -9 -28t-23 -12q-12 0 -20 9.5t-8 24.5q0 16 9.5 27t23.5 11q12 0 19.5 -8.5t7.5 -23.5zM393 654q0 -16 -9 -28t-23 -12q-12 0 -20 9.5t-8 24.5q0 16 9.5 27t23.5 11q12 0 19.5 -8.5 t7.5 -23.5zM523 15q-18 -25 -50 -25q-62 0 -62 91v9q-64 -100 -163 -100q-138 0 -138 154v337l-84 4l-1 10q57 10 108 15l7 -7v-359q0 -63 29 -96.5t81 -33.5q47 0 90 31t71 85v351l-84 4l-1 10q57 10 108 15l7 -7v-422q0 -70 45 -70q17 0 35 8z" />
<glyph unicode="&#x1e6;" horiz-adv-x="596" d="M345 733l-4 -3h-18q-43 53 -103 134l8 6q64 -69 106 -107q45 54 104 106l7 -7q-72 -82 -100 -129zM508 22q-58 -32 -150 -32q-136 0 -219.5 90t-83.5 244q0 151 83.5 243.5t221.5 92.5q83 0 139 -32q3 -33 3 -61q0 -66 -6 -111h-8l-21 157q-48 23 -110 23 q-122 0 -195.5 -85.5t-73.5 -226.5t75 -225.5t192 -84.5q72 0 121 23v234l-97 16l1 8h202l1 -8l-59 -12q-16 -4 -16 -17v-236z" />
<glyph unicode="&#x1e7;" horiz-adv-x="422" d="M226 583l-4 -3h-18q-43 53 -103 134l8 6q64 -69 106 -107q45 54 104 106l7 -7q-72 -82 -100 -129zM417 -58q0 -56 -59 -96.5t-163 -40.5q-79 0 -131.5 32.5t-52.5 83.5q0 47 41 79t95 40l-4 2q-48 17 -48 58q0 39 47 68q-40 19 -64 59.5t-24 98.5q0 81 45 132.5t119 51.5 q115 0 201 7q3 -6 3 -16q0 -19 -25 -19q-9 0 -27 1.5t-46 4.5t-47 4l-1 -3q37 -18 58.5 -57.5t21.5 -89.5q0 -85 -43.5 -135.5t-109.5 -50.5q-19 0 -41 5q-37 -24 -37 -56q0 -40 61 -48l74 -9q79 -9 118 -34t39 -72zM85 331q0 -66 33 -108.5t86 -42.5q55 0 88.5 43.5 t33.5 114.5q0 63 -30.5 105.5t-84.5 42.5q-56 0 -91 -44.5t-35 -110.5zM43 -77q0 -41 43.5 -67.5t116.5 -26.5q79 0 130.5 32.5t51.5 80.5q0 66 -127 81l-73 8q-66 -12 -104 -40.5t-38 -67.5z" />
<glyph unicode="&#x1ea;" horiz-adv-x="610" d="M381 -146q-25 -28 -68 -28q-67 0 -67 58q0 51 104 111q-25 -5 -47 -5q-114 0 -181 92.5t-67 239.5t70.5 242.5t183.5 95.5q109 0 177.5 -94.5t68.5 -237.5q0 -103 -36.5 -185t-102.5 -122q-83 -55 -110.5 -80.5t-27.5 -53.5q0 -40 45 -40q29 0 56 11zM88 322 q0 -134 60.5 -220.5t155.5 -86.5q97 0 157.5 90t60.5 223q0 132 -59.5 219.5t-154.5 87.5q-97 0 -158.5 -89t-61.5 -224z" />
<glyph unicode="&#x1eb;" horiz-adv-x="484" d="M326 -146q-26 -28 -67 -28q-28 0 -46.5 16t-18.5 43q0 30 23 54.5t68 55.5q-23 -5 -43 -5q-88 0 -137.5 65.5t-49.5 185.5q0 126 52 197.5t140 71.5q85 0 133.5 -69t48.5 -184q0 -153 -75 -224q-15 -15 -53 -45t-56.5 -52.5t-18.5 -47.5q0 -19 12.5 -30t33.5 -11 q27 0 52 11zM87 247q0 -113 40 -173t116 -60q74 0 114 67t40 176q0 106 -39.5 167.5t-111.5 61.5t-115.5 -64t-43.5 -175z" />
<glyph unicode="&#x1f4;" horiz-adv-x="596" d="M408 855q0 -29 -125 -124l-7 7q78 80 112 132h3q17 0 17 -15zM508 22q-58 -32 -150 -32q-136 0 -219.5 90t-83.5 244q0 151 83.5 243.5t221.5 92.5q83 0 139 -32q3 -33 3 -61q0 -66 -6 -111h-8l-21 157q-48 23 -110 23q-122 0 -195.5 -85.5t-73.5 -226.5t75 -225.5 t192 -84.5q72 0 121 23v234l-97 16l1 8h202l1 -8l-59 -12q-16 -4 -16 -17v-236z" />
<glyph unicode="&#x1f5;" horiz-adv-x="422" d="M280 705q0 -29 -125 -124l-7 7q78 80 112 132h3q17 0 17 -15zM417 -58q0 -56 -59 -96.5t-163 -40.5q-79 0 -131.5 32.5t-52.5 83.5q0 47 41 79t95 40l-4 2q-48 17 -48 58q0 39 47 68q-40 19 -64 59.5t-24 98.5q0 81 45 132.5t119 51.5q115 0 201 7q3 -6 3 -16 q0 -19 -25 -19q-9 0 -27 1.5t-46 4.5t-47 4l-1 -3q37 -18 58.5 -57.5t21.5 -89.5q0 -85 -43.5 -135.5t-109.5 -50.5q-19 0 -41 5q-37 -24 -37 -56q0 -40 61 -48l74 -9q79 -9 118 -34t39 -72zM85 331q0 -66 33 -108.5t86 -42.5q55 0 88.5 43.5t33.5 114.5q0 63 -30.5 105.5 t-84.5 42.5q-56 0 -91 -44.5t-35 -110.5zM43 -77q0 -41 43.5 -67.5t116.5 -26.5q79 0 130.5 32.5t51.5 80.5q0 66 -127 81l-73 8q-66 -12 -104 -40.5t-38 -67.5z" />
<glyph unicode="&#x1fa;" horiz-adv-x="635" d="M384 1056q0 -29 -125 -124l-7 7q78 80 112 132h3q17 0 17 -15zM314 732q-28 0 -47 18.5t-19 45.5q0 28 21 47.5t52 19.5q28 0 47 -18.5t19 -45.5q0 -28 -21 -47.5t-52 -19.5zM318 843q-18 0 -29.5 -13.5t-11.5 -33.5q0 -19 11.5 -31.5t28.5 -12.5q18 0 29.5 13.5 t11.5 33.5q0 19 -11.5 31.5t-28.5 12.5zM311 654h13l217 -590q10 -26 17.5 -33.5t29.5 -11.5l47 -9l-1 -10h-216l-1 10l104 15l-79 215h-255l-78 -216l95 -14l-1 -10h-202l-1 10l50 9q20 4 28.5 12.5t17.5 32.5zM195 263h239l-120 329z" />
<glyph unicode="&#x1fb;" horiz-adv-x="473" d="M284 890q0 -29 -125 -124l-7 7q78 80 112 132h3q17 0 17 -15zM214 585q-28 0 -47 18.5t-19 45.5q0 28 21 47.5t52 19.5q28 0 47 -18.5t19 -45.5q0 -28 -21 -47.5t-52 -19.5zM218 696q-18 0 -29.5 -13.5t-11.5 -33.5q0 -19 11.5 -31.5t28.5 -12.5q18 0 29.5 13.5 t11.5 33.5q0 19 -11.5 31.5t-28.5 12.5zM445 15q-18 -25 -50 -25q-62 0 -62 86v10q-21 -40 -63.5 -68t-94.5 -28q-55 0 -87.5 30t-32.5 80q0 77 77 119t201 48v92q0 66 -24 96.5t-76 30.5q-54 0 -93.5 -35t-39.5 -75q0 -14 4 -26q-4 -6 -14 -6q-22 0 -22 30q0 50 51.5 93 t116.5 43q67 0 97 -35.5t30 -107.5v-286q0 -70 45 -70q17 0 35 8zM87 100q0 -40 25.5 -63t64.5 -23q50 0 92 31.5t64 85.5v114q-246 -16 -246 -145z" />
<glyph unicode="&#x1fc;" horiz-adv-x="817" d="M608 855q0 -29 -125 -124l-7 7q78 80 112 132h3q17 0 17 -15zM1 0l-1 10l54 12q17 4 25 11.5t15 25.5l208 568l-88 13l1 10h535q4 -29 4 -69q0 -61 -6 -106h-8l-20 150q-46 2 -140 2h-118v-289l215 5l-1 -30l-214 4v-294h122q96 0 144 2l20 150h8q6 -45 6 -106 q0 -40 -4 -69h-417l-1 10l74 12q16 2 16 17v278l-215 -4l-104 -287l87 -16l-1 -10h-196zM430 627h-103l-103 -289h206v289z" />
<glyph unicode="&#x1fd;" horiz-adv-x="709" d="M430 705q0 -29 -125 -124l-7 7q78 80 112 132h3q17 0 17 -15zM676 70q-56 -80 -153 -80q-129 0 -173 132q-22 -54 -67 -93t-108 -39q-55 0 -87.5 29t-32.5 79q0 82 77.5 127.5t200.5 51.5v82q0 66 -24 96.5t-76 30.5q-54 0 -93.5 -35t-39.5 -75q0 -14 4 -26q-4 -6 -14 -6 q-22 0 -22 30q0 50 51.5 93t116.5 43q117 0 126 -118q26 57 69.5 87.5t95.5 30.5q70 0 107.5 -50t37.5 -135q0 -33 -4 -61l-7 -5h-296v-14q0 -108 44.5 -169.5t120.5 -61.5q42 0 73 15t66 49zM525 486q-64 0 -108 -54.5t-51 -152.5l271 5q3 21 3 41q0 161 -115 161zM87 98 q0 -39 25 -61.5t65 -22.5q52 0 97.5 39.5t67.5 99.5q-9 41 -9 89v13q-112 -7 -179 -45t-67 -112z" />
<glyph unicode="&#x1fe;" horiz-adv-x="610" d="M371 855q0 -29 -125 -124l-7 7q78 80 112 132h3q17 0 17 -15zM555 328q0 -144 -69 -241t-183 -97q-107 0 -173 83l-58 -77l-19 15l62 82q-60 89 -60 229q0 147 70.5 242.5t183.5 95.5q101 0 170 -84l59 78l19 -15l-63 -84q61 -92 61 -227zM88 322q0 -119 48 -201l324 430 q-60 84 -152 84q-97 0 -158.5 -89t-61.5 -224zM522 328q0 119 -48 201l-324 -430q60 -84 154 -84q97 0 157.5 90t60.5 223z" />
<glyph unicode="&#x1ff;" horiz-adv-x="484" d="M309 705q0 -29 -125 -124l-7 7q78 80 112 132h3q17 0 17 -15zM429 257q0 -119 -48.5 -193t-138.5 -74q-101 0 -150 84l-53 -56l-16 17l58 62q-26 58 -26 144q0 126 52 197.5t140 71.5q93 0 143 -83l51 55l19 -16l-58 -62q27 -64 27 -147zM87 247q0 -72 17 -125l265 283 q-41 81 -123 81q-72 0 -115.5 -64t-43.5 -175zM397 257q0 72 -18 123l-265 -282q40 -84 129 -84q74 0 114 67t40 176z" />
<glyph unicode="&#x218;" horiz-adv-x="444" d="M400 147q0 -72 -54 -114.5t-135 -42.5q-56 0 -101 14.5t-59 36.5q-7 11 -7 64q0 43 6 85h8l20 -140q40 -38 133 -38q70 0 113 35.5t43 97.5q0 51 -32.5 88.5t-79 62t-93 50t-79 67t-32.5 98.5q0 67 52 108t133 41q47 0 87 -11t51 -26q8 -12 8 -65t-6 -85h-8l-20 139 q-45 26 -113 26q-69 0 -110 -34t-41 -92q0 -43 23.5 -77t58.5 -54.5t76 -44t76 -45.5t58.5 -59.5t23.5 -84.5zM252 -142q0 -27 -13.5 -66t-37.5 -69l-6 5q23 53 26 106h-1q-29 6 -29 32q0 14 8.5 23t22.5 9q30 0 30 -40z" />
<glyph unicode="&#x219;" horiz-adv-x="395" d="M182 -10q-42 0 -75 7.5t-42 17.5q-10 10 -10 58q0 36 6 72h9q1 -8 2 -21.5t1.5 -20t2 -17t2.5 -16t2.5 -12.5t3.5 -12t5 -9q15 -23 98 -23q55 0 88 26.5t33 70.5q0 37 -25 65t-61 46.5t-72.5 38t-61.5 50.5t-25 73q0 59 42.5 92.5t108.5 33.5q38 0 67.5 -8t36.5 -17 q8 -9 8 -58q0 -35 -6 -72h-9q-4 74 -13 97q-14 34 -85 34q-55 0 -86.5 -26t-31.5 -75q0 -36 25 -63t61 -45.5t72.5 -38t61.5 -51t25 -74.5q0 -57 -44 -90t-114 -33zM217 -142q0 -27 -13.5 -66t-37.5 -69l-6 5q23 53 26 106h-1q-29 6 -29 32q0 14 8.5 23t22.5 9q30 0 30 -40z " />
<glyph unicode="&#x21a;" horiz-adv-x="524" d="M369 0h-212l-1 10l74 12q16 2 16 17v588h-90q-67 0 -100 -1l-20 -153h-8q-6 56 -6 99q0 45 4 78h472q4 -33 4 -78q0 -43 -6 -99h-8l-20 153q-33 1 -100 1h-90v-601l92 -16zM292 -142q0 -27 -13.5 -66t-37.5 -69l-6 5q23 53 26 106h-1q-29 6 -29 32q0 14 8.5 23t22.5 9 q30 0 30 -40z" />
<glyph unicode="&#x21b;" horiz-adv-x="352" d="M309 482v-22h-180v-315q0 -68 21 -99.5t66 -31.5q59 0 118 56l7 -7q-24 -33 -59 -53t-72 -20q-54 0 -82.5 36t-28.5 104v330h-84l-1 10l85 12l20 158l10 -2v-156h180zM229 -142q0 -27 -13.5 -66t-37.5 -69l-6 5q23 53 26 106h-1q-29 6 -29 32q0 14 8.5 23t22.5 9 q30 0 30 -40z" />
<glyph unicode="&#x232;" horiz-adv-x="598" d="M186 788v24h234v-24h-234zM406 0h-212l-1 10l74 12q16 2 16 17v183l-192 373q-9 18 -16.5 25t-22.5 10l-52 10l1 10h202l1 -10l-93 -15l191 -378l191 378l-91 15l1 10h194l1 -10q-27 -4 -49 -10q-29 -7 -44 -38l-190 -372v-194l92 -16z" />
<glyph unicode="&#x233;" horiz-adv-x="519" d="M134 638v24h234v-24h-234zM87 -195q-44 0 -44 28q0 11 8 17q17 -13 41 -13q47 0 88.5 43t67.5 125l-156 443q-5 16 -12 22.5t-24 9.5l-56 10l1 10h198l1 -10l-85 -16l148 -421l141 421l-85 16l1 10h198l1 -10l-63 -11q-28 -5 -38 -37l-149 -442q-64 -195 -182 -195z" />
<glyph unicode="&#x237;" horiz-adv-x="239" d="M17 -187q51 50 72 96.5t21 129.5v442l-84 4l-1 10q57 10 108 15l7 -7v-473q0 -82 -25 -129.5t-91 -95.5z" />
<glyph unicode="&#x259;" horiz-adv-x="449" d="M66 237h296v22q0 108 -38 167.5t-109 59.5q-53 0 -87.5 -33.5t-34.5 -76.5q0 -14 4 -26q-5 -6 -14 -6q-22 0 -22 30q0 53 46 94.5t110 41.5q86 0 131.5 -66t45.5 -184q0 -126 -51 -198t-127 -72t-118.5 53.5t-42.5 134.5q0 30 4 54zM87 183q0 -73 32 -121t99 -48 q57 0 96 53.5t46 149.5l-271 -5q-2 -20 -2 -29z" />
<glyph unicode="&#x272;" horiz-adv-x="551" d="M525 0h-198l-1 10l69 12q16 2 16 17v317q0 130 -108 130q-46 0 -91.5 -30.5t-71.5 -80.5v-345q0 -82 -25 -129.5t-91 -95.5l-7 8q51 50 72 96.5t21 129.5v442l-84 4l-1 10q57 10 108 15l7 -7v-97q28 49 72 76.5t95 27.5q66 0 100 -39.5t34 -114.5v-330l85 -16z" />
<glyph unicode="&#x2c6;" horiz-adv-x="347" d="M286 586l-8 -6q-64 69 -106 107q-45 -54 -104 -106l-7 7q72 82 100 129l4 3h18q43 -53 103 -134z" />
<glyph unicode="&#x2c7;" horiz-adv-x="345" d="M185 583l-4 -3h-18q-43 53 -103 134l8 6q64 -69 106 -107q45 54 104 106l7 -7q-72 -82 -100 -129z" />
<glyph unicode="&#x2d8;" horiz-adv-x="318" d="M243 700l4 2l11 -3q-10 -48 -36.5 -74.5t-64.5 -26.5q-39 0 -64.5 26.5t-32.5 74.5l14 3q9 -37 32 -58t54 -21q29 0 50.5 20.5t32.5 56.5z" />
<glyph unicode="&#x2d9;" horiz-adv-x="178" d="M119 654q0 -16 -9 -28t-23 -12q-12 0 -20 9.5t-8 24.5q0 16 9.5 27t23.5 11q12 0 19.5 -8.5t7.5 -23.5z" />
<glyph unicode="&#x2da;" horiz-adv-x="273" d="M133 585q-28 0 -47 18.5t-19 45.5q0 28 21 47.5t52 19.5q28 0 47 -18.5t19 -45.5q0 -28 -21 -47.5t-52 -19.5zM137 696q-18 0 -29.5 -13.5t-11.5 -33.5q0 -19 11.5 -31.5t28.5 -12.5q18 0 29.5 13.5t11.5 33.5q0 19 -11.5 31.5t-28.5 12.5z" />
<glyph unicode="&#x2db;" horiz-adv-x="249" d="M190 -146q-25 -28 -68 -28q-67 0 -67 58q0 36 38.5 72.5t94.5 54.5l6 -11q-45 -17 -76 -49t-31 -62q0 -42 48 -42q26 0 53 11z" />
<glyph unicode="&#x2dc;" horiz-adv-x="391" d="M281 637q20 24 39 59l10 -4q-7 -31 -21.5 -55t-33.5 -24q-22 0 -88 24.5t-77 24.5q-20 -24 -39 -59l-10 4q7 31 21.5 55t33.5 24q23 0 88 -24.5t77 -24.5z" />
<glyph unicode="&#x2dd;" horiz-adv-x="393" d="M192 705q0 -30 -124 -124l-7 7q78 80 112 132h3q16 0 16 -15zM332 705q0 -30 -124 -124l-7 7q78 80 112 132h3q16 0 16 -15z" />
<glyph unicode="&#x1e0c;" horiz-adv-x="643" d="M272 0h-207l-1 10l74 12q16 2 16 17v585l-92 16l1 10h215q145 0 227.5 -86t82.5 -236q0 -148 -85 -238t-231 -90zM274 628h-88v-606h90q129 0 204 83.5t75 222.5t-75.5 219.5t-205.5 80.5zM376 -134q0 -16 -9 -28t-23 -12q-12 0 -20 9.5t-8 24.5q0 16 9.5 27t23.5 11 q12 0 19.5 -8.5t7.5 -23.5z" />
<glyph unicode="&#x1e0d;" horiz-adv-x="526" d="M55 230q0 129 62 204.5t164 75.5q50 0 105 -22v178l-84 4l-1 10q57 10 108 15l7 -7v-607q0 -70 45 -70q17 0 35 8l2 -4q-18 -25 -50 -25q-62 0 -62 86v11q-24 -44 -64.5 -70.5t-88.5 -26.5q-79 0 -128.5 64t-49.5 176zM87 231q0 -100 41.5 -158.5t107.5 -58.5 q43 0 86.5 32.5t63.5 84.5v329q-47 26 -109 26q-87 0 -138.5 -69.5t-51.5 -185.5zM272 -134q0 -16 -9 -28t-23 -12q-12 0 -20 9.5t-8 24.5q0 16 9.5 27t23.5 11q12 0 19.5 -8.5t7.5 -23.5z" />
<glyph unicode="&#x1e24;" horiz-adv-x="728" d="M277 0h-212l-1 10l74 12q16 2 16 17v585l-92 16l1 10h212l1 -10l-74 -12q-16 -2 -16 -17v-268h356v281l-92 16l1 10h212l1 -10l-74 -12q-16 -2 -16 -17v-585l92 -16l-1 -10h-212l-1 10l74 12q16 2 16 17v281h-356v-294l92 -16zM393 -134q0 -16 -9 -28t-23 -12 q-12 0 -20 9.5t-8 24.5q0 16 9.5 27t23.5 11q12 0 19.5 -8.5t7.5 -23.5z" />
<glyph unicode="&#x1e25;" horiz-adv-x="551" d="M224 0h-198l-1 10l69 12q16 2 16 17v627l-84 4l-1 10q57 10 108 15l7 -7v-279q28 46 72 73.5t94 27.5q66 0 100.5 -39.5t34.5 -114.5v-330l85 -16l-1 -10h-198l-1 10l69 12q16 2 16 17v317q0 130 -111 130q-45 0 -89.5 -30t-70.5 -81v-349l85 -16zM299 -134q0 -16 -9 -28 t-23 -12q-12 0 -20 9.5t-8 24.5q0 16 9.5 27t23.5 11q12 0 19.5 -8.5t7.5 -23.5z" />
<glyph unicode="&#x1e44;" d="M396 804q0 -16 -9 -28t-23 -12q-12 0 -20 9.5t-8 24.5q0 16 9.5 27t23.5 11q12 0 19.5 -8.5t7.5 -23.5zM271 0h-206l-1 10l74 12q16 2 16 17v585l-92 16l1 10h127l354 -608v582l-92 16l1 10h206l1 -10l-74 -12q-16 -2 -16 -17v-611h-36l-354 608v-582l92 -16z" />
<glyph unicode="&#x1e45;" horiz-adv-x="562" d="M323 654q0 -16 -9 -28t-23 -12q-12 0 -20 9.5t-8 24.5q0 16 9.5 27t23.5 11q12 0 19.5 -8.5t7.5 -23.5zM235 0h-198l-1 10l69 12q16 2 16 17v442l-84 4l-1 10q57 10 108 15l7 -7v-97q28 49 72 76.5t95 27.5q66 0 100 -39.5t34 -114.5v-330l85 -16l-1 -10h-198l-1 10 l69 12q16 2 16 17v317q0 130 -108 130q-46 0 -91.5 -30.5t-71.5 -80.5v-349l85 -16z" />
<glyph unicode="&#x1e5a;" horiz-adv-x="599" d="M277 0h-212l-1 10l74 12q16 2 16 17v585l-92 16l1 10h230q92 0 150 -47.5t58 -133.5q0 -65 -40 -111t-103 -64l142 -236q20 -32 51 -39l48 -10l-1 -9h-54q-28 0 -43.5 10t-29.5 33l-146 245q-18 -3 -37 -3h-102v-259l92 -16zM283 627h-97v-319h92q84 0 137 42.5t53 118.5 q0 75 -49 116.5t-136 41.5zM359 -134q0 -16 -9 -28t-23 -12q-12 0 -20 9.5t-8 24.5q0 16 9.5 27t23.5 11q12 0 19.5 -8.5t7.5 -23.5z" />
<glyph unicode="&#x1e5b;" horiz-adv-x="386" d="M255 0h-218l-1 10l69 12q16 2 16 17v442l-84 4l-1 10q57 10 108 15l7 -7v-90q24 46 58.5 71.5t73.5 25.5q35 0 58 -19.5t23 -45.5q0 -11 -6 -17.5t-14 -6.5q-14 62 -72 62q-35 0 -69 -30t-52 -71v-356l105 -16zM165 -134q0 -16 -9 -28t-23 -12q-12 0 -20 9.5t-8 24.5 q0 16 9.5 27t23.5 11q12 0 19.5 -8.5t7.5 -23.5z" />
<glyph unicode="&#x1e62;" horiz-adv-x="444" d="M400 147q0 -72 -54 -114.5t-135 -42.5q-56 0 -101 14.5t-59 36.5q-7 11 -7 64q0 43 6 85h8l20 -140q40 -38 133 -38q70 0 113 35.5t43 97.5q0 51 -32.5 88.5t-79 62t-93 50t-79 67t-32.5 98.5q0 67 52 108t133 41q47 0 87 -11t51 -26q8 -12 8 -65t-6 -85h-8l-20 139 q-45 26 -113 26q-69 0 -110 -34t-41 -92q0 -43 23.5 -77t58.5 -54.5t76 -44t76 -45.5t58.5 -59.5t23.5 -84.5zM251 -134q0 -16 -9 -28t-23 -12q-12 0 -20 9.5t-8 24.5q0 16 9.5 27t23.5 11q12 0 19.5 -8.5t7.5 -23.5z" />
<glyph unicode="&#x1e63;" horiz-adv-x="395" d="M182 -10q-42 0 -75 7.5t-42 17.5q-10 10 -10 58q0 36 6 72h9q1 -8 2 -21.5t1.5 -20t2 -17t2.5 -16t2.5 -12.5t3.5 -12t5 -9q15 -23 98 -23q55 0 88 26.5t33 70.5q0 37 -25 65t-61 46.5t-72.5 38t-61.5 50.5t-25 73q0 59 42.5 92.5t108.5 33.5q38 0 67.5 -8t36.5 -17 q8 -9 8 -58q0 -35 -6 -72h-9q-4 74 -13 97q-14 34 -85 34q-55 0 -86.5 -26t-31.5 -75q0 -36 25 -63t61 -45.5t72.5 -38t61.5 -51t25 -74.5q0 -57 -44 -90t-114 -33zM216 -134q0 -16 -9 -28t-23 -12q-12 0 -20 9.5t-8 24.5q0 16 9.5 27t23.5 11q12 0 19.5 -8.5t7.5 -23.5z " />
<glyph unicode="&#x1e6c;" horiz-adv-x="524" d="M369 0h-212l-1 10l74 12q16 2 16 17v588h-90q-67 0 -100 -1l-20 -153h-8q-6 56 -6 99q0 45 4 78h472q4 -33 4 -78q0 -43 -6 -99h-8l-20 153q-33 1 -100 1h-90v-601l92 -16zM291 -134q0 -16 -9 -28t-23 -12q-12 0 -20 9.5t-8 24.5q0 16 9.5 27t23.5 11q12 0 19.5 -8.5 t7.5 -23.5z" />
<glyph unicode="&#x1e6d;" horiz-adv-x="352" d="M309 482v-22h-180v-315q0 -68 21 -99.5t66 -31.5q59 0 118 56l7 -7q-24 -33 -59 -53t-72 -20q-54 0 -82.5 36t-28.5 104v330h-84l-1 10l85 12l20 158l10 -2v-156h180zM228 -134q0 -16 -9 -28t-23 -12q-12 0 -20 9.5t-8 24.5q0 16 9.5 27t23.5 11q12 0 19.5 -8.5 t7.5 -23.5z" />
<glyph unicode="&#x1e80;" horiz-adv-x="969" d="M562 734l-7 -7q-135 95 -135 128q0 18 20 18h3q34 -56 119 -139zM320 -4h-13l-214 590q-9 23 -16.5 32t-24.5 12l-52 10l1 10h202l1 -10l-92 -15l206 -565l156 445l-28 81q-8 23 -16 32t-25 12l-62 10l1 10h212l1 -10l-92 -15l196 -564l197 563l-93 16l1 10h202l1 -10 l-56 -10q-19 -3 -26 -12t-16 -32l-208 -590h-13l-163 472z" />
<glyph unicode="&#x1e81;" horiz-adv-x="772" d="M459 584l-7 -7q-135 95 -135 128q0 18 20 18h3q34 -56 119 -139zM381 500h10l140 -444l126 418l-85 16l1 10h198l1 -10l-63 -11q-29 -5 -38 -37l-134 -442h-19l-135 427l-129 -427h-19l-143 448q-5 16 -12 22.5t-24 9.5l-56 10l1 10h198l1 -10l-85 -16l133 -418z" />
<glyph unicode="&#x1e82;" horiz-adv-x="969" d="M557 855q0 -29 -125 -124l-7 7q78 80 112 132h3q17 0 17 -15zM320 -4h-13l-214 590q-9 23 -16.5 32t-24.5 12l-52 10l1 10h202l1 -10l-92 -15l206 -565l156 445l-28 81q-8 23 -16 32t-25 12l-62 10l1 10h212l1 -10l-92 -15l196 -564l197 563l-93 16l1 10h202l1 -10 l-56 -10q-19 -3 -26 -12t-16 -32l-208 -590h-13l-163 472z" />
<glyph unicode="&#x1e83;" horiz-adv-x="772" d="M455 705q0 -29 -125 -124l-7 7q78 80 112 132h3q17 0 17 -15zM381 500h10l140 -444l126 418l-85 16l1 10h198l1 -10l-63 -11q-29 -5 -38 -37l-134 -442h-19l-135 427l-129 -427h-19l-143 448q-5 16 -12 22.5t-24 9.5l-56 10l1 10h198l1 -10l-85 -16l133 -418z" />
<glyph unicode="&#x1e84;" horiz-adv-x="969" d="M432 804q0 -16 -9 -28t-23 -12q-12 0 -20 9.5t-8 24.5q0 16 9.5 27t23.5 11q12 0 19.5 -8.5t7.5 -23.5zM610 804q0 -16 -9 -28t-23 -12q-12 0 -20 9.5t-8 24.5q0 16 9.5 27t23.5 11q12 0 19.5 -8.5t7.5 -23.5zM320 -4h-13l-214 590q-9 23 -16.5 32t-24.5 12l-52 10l1 10 h202l1 -10l-92 -15l206 -565l156 445l-28 81q-8 23 -16 32t-25 12l-62 10l1 10h212l1 -10l-92 -15l196 -564l197 563l-93 16l1 10h202l1 -10l-56 -10q-19 -3 -26 -12t-16 -32l-208 -590h-13l-163 472z" />
<glyph unicode="&#x1e85;" horiz-adv-x="772" d="M331 654q0 -16 -9 -28t-23 -12q-12 0 -20 9.5t-8 24.5q0 16 9.5 27t23.5 11q12 0 19.5 -8.5t7.5 -23.5zM509 654q0 -16 -9 -28t-23 -12q-12 0 -20 9.5t-8 24.5q0 16 9.5 27t23.5 11q12 0 19.5 -8.5t7.5 -23.5zM381 500h10l140 -444l126 418l-85 16l1 10h198l1 -10 l-63 -11q-29 -5 -38 -37l-134 -442h-19l-135 427l-129 -427h-19l-143 448q-5 16 -12 22.5t-24 9.5l-56 10l1 10h198l1 -10l-85 -16l133 -418z" />
<glyph unicode="&#x1e92;" horiz-adv-x="545" d="M476 77q0 -44 -4 -77h-402l-4 17l373 611h-339l-20 -163h-8q-6 47 -6 111q0 42 4 74h405l4 -17l-373 -611h335l21 163h8q6 -43 6 -108zM303 -134q0 -16 -9 -28t-23 -12q-12 0 -20 9.5t-8 24.5q0 16 9.5 27t23.5 11q12 0 19.5 -8.5t7.5 -23.5z" />
<glyph unicode="&#x1e93;" horiz-adv-x="422" d="M378 71q0 -40 -4 -71h-328l-2 10l290 468h-255l-20 -133h-9q-6 36 -6 87q0 39 4 68h328l2 -10l-292 -468h258l19 133h9q6 -34 6 -84zM239 -134q0 -16 -9 -28t-23 -12q-12 0 -20 9.5t-8 24.5q0 16 9.5 27t23.5 11q12 0 19.5 -8.5t7.5 -23.5z" />
<glyph unicode="&#x1e9e;" horiz-adv-x="641" d="M357 660q103 0 172 -76v-12l-174 -186q50 -24 69.5 -34.5t61 -36.5t60 -46t35 -52t16.5 -67q0 -71 -49 -115.5t-133 -44.5q-44 0 -83 16t-51 32q-9 15 -9 56q0 55 6 96h8q1 -10 4 -29.5t4.5 -27.5t4 -22.5t4.5 -21.5t5.5 -16.5t8 -16t9.5 -11.5q33 -33 95 -33 q66 0 104.5 37t38.5 97q0 38 -17 69.5t-54.5 58t-67 42.5t-83.5 42q-10 5 -15 7l-3 22l175 185q-60 66 -146 66q-75 0 -126 -55.5t-51 -137.5v-438l-7 -7h-114l-1 10l63 10q20 3 23.5 7.5t3.5 24.5v381q0 97 60 162t153 65z" />
<glyph unicode="&#x1ea0;" horiz-adv-x="635" d="M311 654h13l217 -590q10 -26 17.5 -33.5t29.5 -11.5l47 -9l-1 -10h-216l-1 10l104 15l-79 215h-255l-78 -216l95 -14l-1 -10h-202l-1 10l50 9q20 4 28.5 12.5t17.5 32.5zM195 263h239l-120 329zM344 -134q0 -16 -9 -28t-23 -12q-12 0 -20 9.5t-8 24.5q0 16 9.5 27 t23.5 11q12 0 19.5 -8.5t7.5 -23.5z" />
<glyph unicode="&#x1ea1;" horiz-adv-x="473" d="M445 15q-18 -25 -50 -25q-62 0 -62 86v10q-21 -40 -63.5 -68t-94.5 -28q-55 0 -87.5 30t-32.5 80q0 77 77 119t201 48v92q0 66 -24 96.5t-76 30.5q-54 0 -93.5 -35t-39.5 -75q0 -14 4 -26q-4 -6 -14 -6q-22 0 -22 30q0 50 51.5 93t116.5 43q67 0 97 -35.5t30 -107.5v-286 q0 -70 45 -70q17 0 35 8zM87 100q0 -40 25.5 -63t64.5 -23q50 0 92 31.5t64 85.5v114q-246 -16 -246 -145zM246 -134q0 -16 -9 -28t-23 -12q-12 0 -20 9.5t-8 24.5q0 16 9.5 27t23.5 11q12 0 19.5 -8.5t7.5 -23.5z" />
<glyph unicode="&#x1eb8;" horiz-adv-x="541" d="M482 0h-417l-1 10l74 12q16 2 16 17v585l-92 16l1 10h411q4 -29 4 -69q0 -61 -6 -106h-8l-20 150q-46 2 -140 2h-118v-289l215 5l-1 -30l-214 4v-294h122q96 0 144 2l20 150h8q6 -45 6 -106q0 -40 -4 -69zM335 -134q0 -16 -9 -28t-23 -12q-12 0 -20 9.5t-8 24.5 q0 16 9.5 27t23.5 11q12 0 19.5 -8.5t7.5 -23.5z" />
<glyph unicode="&#x1eb9;" horiz-adv-x="431" d="M398 70q-56 -80 -153 -80q-90 0 -140 67t-50 185q0 125 56.5 196.5t137.5 71.5q70 0 107.5 -50t37.5 -135q0 -33 -4 -61l-7 -5h-296v-14q0 -108 44.5 -169.5t120.5 -61.5q42 0 73 15t66 49zM247 486q-64 0 -108 -54.5t-51 -152.5l271 5q3 21 3 41q0 161 -115 161z M280 -134q0 -16 -9 -28t-23 -12q-12 0 -20 9.5t-8 24.5q0 16 9.5 27t23.5 11q12 0 19.5 -8.5t7.5 -23.5z" />
<glyph unicode="&#x1ebc;" horiz-adv-x="541" d="M398 787q20 24 39 59l10 -4q-7 -31 -21.5 -55t-33.5 -24q-22 0 -88 24.5t-77 24.5q-20 -24 -39 -59l-10 4q7 31 21.5 55t33.5 24q23 0 88 -24.5t77 -24.5zM482 0h-417l-1 10l74 12q16 2 16 17v585l-92 16l1 10h411q4 -29 4 -69q0 -61 -6 -106h-8l-20 150q-46 2 -140 2 h-118v-289l215 5l-1 -30l-214 4v-294h122q96 0 144 2l20 150h8q6 -45 6 -106q0 -40 -4 -69z" />
<glyph unicode="&#x1ebd;" horiz-adv-x="431" d="M321 637q20 24 39 59l10 -4q-7 -31 -21.5 -55t-33.5 -24q-22 0 -88 24.5t-77 24.5q-20 -24 -39 -59l-10 4q7 31 21.5 55t33.5 24q23 0 88 -24.5t77 -24.5zM398 70q-56 -80 -153 -80q-90 0 -140 67t-50 185q0 125 56.5 196.5t137.5 71.5q70 0 107.5 -50t37.5 -135 q0 -33 -4 -61l-7 -5h-296v-14q0 -108 44.5 -169.5t120.5 -61.5q42 0 73 15t66 49zM247 486q-64 0 -108 -54.5t-51 -152.5l271 5q3 21 3 41q0 161 -115 161z" />
<glyph unicode="&#x1eca;" horiz-adv-x="340" d="M277 0h-212l-1 10l74 12q16 2 16 17v585l-92 16l1 10h212l1 -10l-74 -12q-16 -2 -16 -17v-585l92 -16zM202 -134q0 -16 -9 -28t-23 -12q-12 0 -20 9.5t-8 24.5q0 16 9.5 27t23.5 11q12 0 19.5 -8.5t7.5 -23.5z" />
<glyph unicode="&#x1ecb;" horiz-adv-x="261" d="M162 653q0 -16 -9 -28t-23 -12q-12 0 -20 9.5t-8 24.5q0 16 9.5 27t23.5 11q12 0 19.5 -8.5t7.5 -23.5zM235 0h-198l-1 10l69 12q16 2 16 17v442l-84 4l-1 10q57 10 108 15l7 -7v-477l85 -16zM165 -134q0 -16 -9 -28t-23 -12q-12 0 -20 9.5t-8 24.5q0 16 9.5 27t23.5 11 q12 0 19.5 -8.5t7.5 -23.5z" />
<glyph unicode="&#x1ecc;" horiz-adv-x="610" d="M555 328q0 -144 -69 -241t-183 -97t-181 92.5t-67 239.5t70.5 242.5t183.5 95.5q109 0 177.5 -94.5t68.5 -237.5zM88 322q0 -134 60.5 -220.5t155.5 -86.5q97 0 157.5 90t60.5 223q0 132 -59.5 219.5t-154.5 87.5q-97 0 -158.5 -89t-61.5 -224zM334 -134q0 -16 -9 -28 t-23 -12q-12 0 -20 9.5t-8 24.5q0 16 9.5 27t23.5 11q12 0 19.5 -8.5t7.5 -23.5z" />
<glyph unicode="&#x1ecd;" horiz-adv-x="484" d="M429 257q0 -119 -48.5 -193t-138.5 -74q-88 0 -137.5 65.5t-49.5 185.5q0 126 52 197.5t140 71.5q85 0 133.5 -69t48.5 -184zM87 247q0 -113 40 -173t116 -60q74 0 114 67t40 176q0 106 -39.5 167.5t-111.5 61.5t-115.5 -64t-43.5 -175zM271 -134q0 -16 -9 -28t-23 -12 q-12 0 -20 9.5t-8 24.5q0 16 9.5 27t23.5 11q12 0 19.5 -8.5t7.5 -23.5z" />
<glyph unicode="&#x1ee4;" d="M569 220q0 -109 -61 -169.5t-153 -60.5q-90 0 -150.5 60t-60.5 170v404l-92 16l1 10h212l1 -10l-74 -12q-16 -2 -16 -17v-385q0 -100 53 -155.5t130 -55.5q80 0 132 55t52 157v397l-93 16l1 10h207l1 -10l-90 -16v-404zM384 -134q0 -16 -9 -28t-23 -12q-12 0 -20 9.5 t-8 24.5q0 16 9.5 27t23.5 11q12 0 19.5 -8.5t7.5 -23.5z" />
<glyph unicode="&#x1ee5;" horiz-adv-x="562" d="M523 15q-18 -25 -50 -25q-62 0 -62 91v9q-64 -100 -163 -100q-138 0 -138 154v337l-84 4l-1 10q57 10 108 15l7 -7v-359q0 -63 29 -96.5t81 -33.5q47 0 90 31t71 85v351l-84 4l-1 10q57 10 108 15l7 -7v-422q0 -70 45 -70q17 0 35 8zM292 -134q0 -16 -9 -28t-23 -12 q-12 0 -20 9.5t-8 24.5q0 16 9.5 27t23.5 11q12 0 19.5 -8.5t7.5 -23.5z" />
<glyph unicode="&#x1ef2;" horiz-adv-x="598" d="M374 734l-7 -7q-135 95 -135 128q0 18 20 18h3q34 -56 119 -139zM406 0h-212l-1 10l74 12q16 2 16 17v183l-192 373q-9 18 -16.5 25t-22.5 10l-52 10l1 10h202l1 -10l-93 -15l191 -378l191 378l-91 15l1 10h194l1 -10q-27 -4 -49 -10q-29 -7 -44 -38l-190 -372v-194 l92 -16z" />
<glyph unicode="&#x1ef3;" horiz-adv-x="519" d="M330 584l-7 -7q-135 95 -135 128q0 18 20 18h3q34 -56 119 -139zM87 -195q-44 0 -44 28q0 11 8 17q17 -13 41 -13q47 0 88.5 43t67.5 125l-156 443q-5 16 -12 22.5t-24 9.5l-56 10l1 10h198l1 -10l-85 -16l148 -421l141 421l-85 16l1 10h198l1 -10l-63 -11 q-28 -5 -38 -37l-149 -442q-64 -195 -182 -195z" />
<glyph unicode="&#x1ef8;" horiz-adv-x="598" d="M388 787q20 24 39 59l10 -4q-7 -31 -21.5 -55t-33.5 -24q-22 0 -88 24.5t-77 24.5q-20 -24 -39 -59l-10 4q7 31 21.5 55t33.5 24q23 0 88 -24.5t77 -24.5zM406 0h-212l-1 10l74 12q16 2 16 17v183l-192 373q-9 18 -16.5 25t-22.5 10l-52 10l1 10h202l1 -10l-93 -15 l191 -378l191 378l-91 15l1 10h194l1 -10q-27 -4 -49 -10q-29 -7 -44 -38l-190 -372v-194l92 -16z" />
<glyph unicode="&#x1ef9;" horiz-adv-x="519" d="M342 637q20 24 39 59l10 -4q-7 -31 -21.5 -55t-33.5 -24q-22 0 -88 24.5t-77 24.5q-20 -24 -39 -59l-10 4q7 31 21.5 55t33.5 24q23 0 88 -24.5t77 -24.5zM87 -195q-44 0 -44 28q0 11 8 17q17 -13 41 -13q47 0 88.5 43t67.5 125l-156 443q-5 16 -12 22.5t-24 9.5l-56 10 l1 10h198l1 -10l-85 -16l148 -421l141 421l-85 16l1 10h198l1 -10l-63 -11q-28 -5 -38 -37l-149 -442q-64 -195 -182 -195z" />
<glyph unicode="&#x2013;" horiz-adv-x="507" d="M48 250v23h411v-23h-411z" />
<glyph unicode="&#x2014;" horiz-adv-x="760" d="M48 250v23h664v-23h-664z" />
<glyph unicode="&#x2018;" horiz-adv-x="207" d="M64 520q0 36 19.5 86t53.5 89l6 -5q-43 -70 -48 -144h1q29 -3 29 -33q0 -15 -8.5 -25t-22.5 -10q-30 0 -30 42z" />
<glyph unicode="&#x2019;" horiz-adv-x="207" d="M143 653q0 -36 -19.5 -86t-53.5 -89l-6 5q43 70 48 144h-1q-29 3 -29 33q0 15 8.5 25t22.5 10q30 0 30 -42z" />
<glyph unicode="&#x201a;" horiz-adv-x="207" d="M143 16q0 -36 -19.5 -86t-53.5 -89l-6 5q43 70 48 144h-1q-29 3 -29 33q0 15 8.5 25t22.5 10q30 0 30 -42z" />
<glyph unicode="&#x201c;" horiz-adv-x="314" d="M64 520q0 36 19.5 86t53.5 89l6 -5q-43 -70 -48 -144h1q29 -3 29 -33q0 -15 -8.5 -25t-22.5 -10q-30 0 -30 42zM171 520q0 36 19.5 86t53.5 89l6 -5q-43 -70 -48 -144h1q29 -3 29 -33q0 -15 -8.5 -25t-22.5 -10q-30 0 -30 42z" />
<glyph unicode="&#x201d;" horiz-adv-x="314" d="M250 653q0 -36 -19.5 -86t-53.5 -89l-6 5q43 70 48 144h-1q-29 3 -29 33q0 15 8.5 25t22.5 10q30 0 30 -42zM143 653q0 -36 -19.5 -86t-53.5 -89l-6 5q43 70 48 144h-1q-29 3 -29 33q0 15 8.5 25t22.5 10q30 0 30 -42z" />
<glyph unicode="&#x201e;" horiz-adv-x="314" d="M250 16q0 -36 -19.5 -86t-53.5 -89l-6 5q43 70 48 144h-1q-29 3 -29 33q0 15 8.5 25t22.5 10q30 0 30 -42zM143 16q0 -36 -19.5 -86t-53.5 -89l-6 5q43 70 48 144h-1q-29 3 -29 33q0 15 8.5 25t22.5 10q30 0 30 -42z" />
<glyph unicode="&#x2020;" horiz-adv-x="498" d="M254 -10h-10l-14 125l7 317l-166 -7l-2 1q-3 10 -5 27l5 5l168 -7l-7 199l1 2q10 3 32 5l5 -5l-7 -201l166 7l2 -1q3 -10 5 -27l-5 -5l-168 7l7 -317z" />
<glyph unicode="&#x2021;" horiz-adv-x="498" d="M64 210l5 5l170 -7q-7 112 -7 120q0 7 7 114l-168 -7l-2 1q-3 10 -5 27l5 5l170 -7l-9 189l1 2q10 3 32 5l5 -5l-9 -191l168 7l2 -1q3 -10 5 -27l-5 -5l-170 7q7 -107 7 -114q0 -8 -7 -120l168 7l2 -1q3 -10 5 -27l-5 -5l-170 7l9 -189l-1 -2q-10 -3 -32 -5l-5 5l9 191 l-168 -7l-2 1q-3 10 -5 27z" />
<glyph unicode="&#x2022;" horiz-adv-x="394" d="M194 147q-41 0 -65.5 27.5t-24.5 67.5q0 45 27.5 78t70.5 33q41 0 64.5 -26t23.5 -67q0 -46 -25 -79.5t-71 -33.5z" />
<glyph unicode="&#x2026;" horiz-adv-x="448" d="M353 -10q-13 0 -21 9.5t-8 22.5q0 14 9 25t23 11q28 0 28 -31q0 -15 -8 -26t-23 -11zM223 -10q-13 0 -21 9.5t-8 22.5q0 14 9 25t23 11q28 0 28 -31q0 -15 -8 -26t-23 -11zM93 -10q-13 0 -21 9.5t-8 22.5q0 14 9 25t23 11q28 0 28 -31q0 -15 -8 -26t-23 -11z" />
<glyph unicode="&#x2030;" horiz-adv-x="1254" d="M636 660h36l-401 -670h-35zM358 474q0 -88 -38 -138.5t-102 -50.5q-65 0 -102.5 48.5t-37.5 136.5q0 87 39 137t104 50q61 0 99 -48t38 -135zM220 303q49 0 78.5 45.5t29.5 125.5q0 78 -29.5 121.5t-78.5 43.5q-51 0 -81.5 -45t-30.5 -124t30.5 -123t81.5 -44zM831 182 q0 -88 -38 -138.5t-102 -50.5q-65 0 -102.5 48.5t-37.5 136.5q0 87 39 137t104 50q61 0 99 -48t38 -135zM1176 171q0 -88 -38 -138.5t-102 -50.5q-65 0 -102.5 48.5t-37.5 136.5q0 87 39 137t104 50q61 0 99 -48t38 -135zM693 11q49 0 78.5 45.5t29.5 125.5 q0 78 -29.5 121.5t-78.5 43.5q-51 0 -81.5 -45t-30.5 -124t30.5 -123t81.5 -44zM1038 0q49 0 78.5 45.5t29.5 125.5q0 78 -29.5 121.5t-78.5 43.5q-51 0 -81.5 -45t-30.5 -124t30.5 -123t81.5 -44z" />
<glyph unicode="&#x2039;" horiz-adv-x="332" d="M248 70l-12 -8q-93 126 -150 174l-2 4v17q51 51 152 182l12 -8q-15 -25 -127 -183q65 -75 127 -178z" />
<glyph unicode="&#x203a;" horiz-adv-x="332" d="M248 251q-51 -51 -152 -182l-12 8q15 25 127 183q-65 75 -127 178l12 8q93 -126 150 -174l2 -4v-17z" />
<glyph unicode="&#x2044;" horiz-adv-x="236" d="M300 660h36l-401 -670h-35z" />
<glyph unicode="&#x2070;" horiz-adv-x="392" d="M336 554q0 -88 -38 -138.5t-102 -50.5q-65 0 -102.5 48.5t-37.5 136.5q0 87 39 137t104 50q61 0 99 -48t38 -135zM198 383q49 0 78.5 45.5t29.5 125.5q0 78 -29.5 121.5t-78.5 43.5q-51 0 -81.5 -45t-30.5 -124t30.5 -123t81.5 -44z" />
<glyph unicode="&#x2071;" horiz-adv-x="217" d="M108 819q-24 0 -24 29q0 13 8.5 22.5t20.5 9.5q24 0 24 -28q0 -14 -8 -23.5t-21 -9.5zM191 372h-154l-1 7l51 9q13 3 13 14v312l-63 4l-1 7q48 9 87 12l5 -5v-341l64 -12z" />
<glyph unicode="&#x2074;" horiz-adv-x="397" d="M56 470l205 267l18 -3v-262h62l-4 -18h-58v-82h-28v82h-187zM80 472h171v227z" />
<glyph unicode="&#x2075;" horiz-adv-x="354" d="M298 465q0 -44 -37.5 -72t-93.5 -28q-49 0 -80 18t-31 47q0 28 28 43l3 -3q-6 -14 -6 -27q0 -28 23.5 -44t63.5 -16q45 0 72.5 21.5t27.5 58.5q0 96 -187 94l-5 4l2 169h204q0 -48 -8 -85h-5q-3 44 -6.5 53.5t-20.5 9.5h-142l-1 -139q6 1 19 1q80 0 130 -27t50 -78z" />
<glyph unicode="&#x2076;" horiz-adv-x="372" d="M316 478q0 -50 -37 -81.5t-90 -31.5q-63 0 -98 37.5t-35 98.5q0 95 65 158.5t166 77.5l2 -10q-79 -18 -132.5 -65.5t-66.5 -120.5q43 37 107 37q53 0 86 -27.5t33 -72.5zM86 498q0 -50 27.5 -82.5t74.5 -32.5q42 0 70 25.5t28 66.5q0 39 -25.5 62t-70.5 23 q-66 0 -103 -42q-1 -6 -1 -20z" />
<glyph unicode="&#x2077;" horiz-adv-x="358" d="M167 372h-28q6 88 46.5 179.5t96.5 156.5h-179q-20 0 -26 -11.5t-9 -56.5h-7q-7 40 -5 90h243l3 -21q-54 -60 -92 -153.5t-43 -183.5z" />
<glyph unicode="&#x2078;" horiz-adv-x="363" d="M307 453q0 -38 -37.5 -63t-92.5 -25q-54 0 -87.5 24t-33.5 61q0 34 27.5 61t71.5 41q-78 39 -78 95q0 37 33 63.5t80 26.5t75 -24t28 -61q0 -61 -82 -101q24 -12 36.5 -19t29 -19.5t23.5 -27t7 -32.5zM105 648q0 -30 22.5 -49.5t66.5 -40.5q74 41 74 94q0 29 -21 48 t-56 19q-38 0 -62 -20t-24 -51zM81 452q0 -31 27 -50t71 -19q43 0 71.5 18t28.5 48q0 17 -7 30.5t-28 27t-29.5 17.5t-40.5 19q-41 -13 -67 -38t-26 -53z" />
<glyph unicode="&#x2079;" horiz-adv-x="372" d="M56 624q0 50 37 81.5t90 31.5q63 0 98 -37.5t35 -98.5q0 -95 -65 -158.5t-166 -77.5l-2 10q79 18 132.5 65.5t66.5 120.5q-43 -37 -107 -37q-53 0 -86 27.5t-33 72.5zM86 627q0 -39 25.5 -62t70.5 -23q66 0 103 42q1 6 1 20q0 50 -27.5 82.5t-74.5 32.5q-42 0 -70 -25.5 t-28 -66.5z" />
<glyph unicode="&#x207f;" horiz-adv-x="448" d="M191 372h-154l-1 7l51 9q13 3 13 14v312l-63 4l-1 7q48 9 87 12l5 -5v-69q47 74 128 74q103 0 103 -110v-236l64 -12l-1 -7h-155l-1 7l52 9q12 2 12 14v223q0 89 -81 89q-34 0 -68 -20t-53 -54v-249l64 -12z" />
<glyph unicode="&#x2080;" horiz-adv-x="392" d="M336 82q0 -88 -38 -138.5t-102 -50.5q-65 0 -102.5 48.5t-37.5 136.5q0 87 39 137t104 50q61 0 99 -48t38 -135zM198 -89q49 0 78.5 45.5t29.5 125.5q0 78 -29.5 121.5t-78.5 43.5q-51 0 -81.5 -45t-30.5 -124t30.5 -123t81.5 -44z" />
<glyph unicode="&#x2081;" horiz-adv-x="277" d="M221 -100h-165v7l59 7q10 1 10 10v319l-69 2v6l92 14l5 -4v-345l68 -9v-7z" />
<glyph unicode="&#x2082;" horiz-adv-x="353" d="M63 -100l-5 18q21 20 62.5 58.5t57.5 55t38.5 43t30.5 47t8 43.5q0 35 -22 56.5t-59 21.5q-77 0 -112 -79l-6 2q11 44 44.5 71.5t80.5 27.5q49 0 76.5 -26.5t27.5 -68.5q0 -50 -40.5 -97t-135.5 -128q-18 -15 -27 -23h168q15 0 22.5 11t17.5 53l7 -1q-2 -43 -11 -85h-223 z" />
<glyph unicode="&#x2083;" horiz-adv-x="357" d="M301 -9q0 -41 -38 -69.5t-95 -28.5q-50 0 -81 17.5t-31 45.5q0 25 28 40l3 -3q-6 -10 -6 -23q0 -59 88 -59q44 0 73 22t29 57q0 39 -35.5 59.5t-85.5 20.5q-11 0 -31 -2l-1 9q139 22 139 102q0 29 -21.5 46.5t-56.5 17.5q-37 0 -67.5 -20.5t-44.5 -54.5l-6 2 q11 43 45.5 69t81.5 26q44 0 71.5 -22.5t27.5 -57.5q0 -78 -110 -104q55 -3 89.5 -27t34.5 -63z" />
<glyph unicode="&#x2084;" horiz-adv-x="397" d="M56 -2l205 267l18 -3v-262h62l-4 -18h-58v-82h-28v82h-187zM80 0h171v227z" />
<glyph unicode="&#x2085;" horiz-adv-x="354" d="M298 -7q0 -44 -37.5 -72t-93.5 -28q-49 0 -80 18t-31 47q0 28 28 43l3 -3q-6 -13 -6 -27q0 -28 23.5 -44t63.5 -16q45 0 72.5 21.5t27.5 58.5q0 96 -187 94l-5 4l2 169h204q0 -48 -8 -85h-5q-3 44 -6.5 53.5t-20.5 9.5h-142l-1 -139q6 1 19 1q80 0 130 -27t50 -78z" />
<glyph unicode="&#x2086;" horiz-adv-x="372" d="M316 6q0 -50 -37 -81.5t-90 -31.5q-63 0 -98 37.5t-35 98.5q0 95 65 158.5t166 77.5l2 -10q-79 -18 -132.5 -65.5t-66.5 -120.5q43 37 107 37q53 0 86 -27.5t33 -72.5zM86 26q0 -50 27.5 -82.5t74.5 -32.5q42 0 70 25.5t28 66.5q0 39 -25.5 62t-70.5 23q-66 0 -103 -42 q-1 -6 -1 -20z" />
<glyph unicode="&#x2087;" horiz-adv-x="358" d="M167 -100h-28q6 88 46.5 179.5t96.5 156.5h-179q-20 0 -26 -11.5t-9 -56.5h-7q-7 40 -5 90h243l3 -21q-54 -60 -92 -153.5t-43 -183.5z" />
<glyph unicode="&#x2088;" horiz-adv-x="363" d="M307 -19q0 -38 -37.5 -63t-92.5 -25q-54 0 -87.5 24t-33.5 61q0 34 27.5 61t71.5 41q-78 39 -78 95q0 37 33 63.5t80 26.5t75 -24t28 -61q0 -61 -82 -101q24 -12 36.5 -19t29 -19.5t23.5 -27t7 -32.5zM105 176q0 -30 22.5 -49.5t66.5 -40.5q74 41 74 94q0 29 -21 48 t-56 19q-38 0 -62 -20t-24 -51zM81 -20q0 -31 27 -50t71 -19q43 0 71.5 18t28.5 48q0 17 -7 30.5t-28 27t-29.5 17.5t-40.5 19q-41 -13 -67 -38t-26 -53z" />
<glyph unicode="&#x2089;" horiz-adv-x="372" d="M56 152q0 50 37 81.5t90 31.5q63 0 98 -37.5t35 -98.5q0 -95 -65 -158.5t-166 -77.5l-2 10q79 18 132.5 65.5t66.5 120.5q-43 -37 -107 -37q-53 0 -86 27.5t-33 72.5zM86 155q0 -39 25.5 -62t70.5 -23q66 0 103 42q1 6 1 20q0 50 -27.5 82.5t-74.5 32.5q-42 0 -70 -25.5 t-28 -66.5z" />
<glyph unicode="&#x2090;" horiz-adv-x="387" d="M359 -86q-15 -21 -41 -21q-50 0 -50 63v4q-17 -28 -49 -47.5t-71 -19.5q-43 0 -68 21.5t-25 57.5q0 55 59.5 85t153.5 34v69q0 45 -18 66t-56 21q-41 0 -70 -24t-29 -53q0 -10 3 -21q-5 -5 -13 -5q-19 0 -19 24q0 35 40 66t91 31q52 0 76 -26t24 -79v-199q0 -49 34 -49 q13 0 26 5zM85 -26q0 -28 19.5 -44t48.5 -16q37 0 68 21t47 57v83q-183 -11 -183 -101z" />
<glyph unicode="&#x2091;" horiz-adv-x="355" d="M311 85h-226v-5q0 -77 34 -120t92 -43q56 0 106 44l5 -6q-43 -62 -120 -62q-69 0 -108 48t-39 132q0 89 44 140.5t107 51.5q54 0 84 -36.5t30 -97.5q0 -21 -3 -42zM204 247q-49 0 -81.5 -38.5t-36.5 -108.5l201 4q3 15 3 29q0 114 -86 114z" />
<glyph unicode="&#x2092;" horiz-adv-x="401" d="M346 84q0 -85 -38 -138t-107 -53q-68 0 -107 47t-39 132q0 90 40.5 141.5t109.5 51.5q65 0 103 -49.5t38 -131.5zM85 78q0 -82 30 -124.5t86 -42.5t85.5 47t29.5 125q0 77 -29 120.5t-83 43.5t-86.5 -45t-32.5 -124z" />
<glyph unicode="&#x2093;" horiz-adv-x="397" d="M83 214q-13 17 -21 22t-26 9l-36 6l1 7h162l1 -7l-67 -12l107 -146l105 146l-66 12l1 7h152l1 -7q0 -1 -21 -4.5t-22 -3.5q-19 -4 -38 -28q0 -1 -21 -27.5t-46.5 -60t-35.5 -46.5l104 -141q15 -20 33 -25l47 -8l-1 -7h-162l-1 7l66 12l-106 146l-105 -146l66 -12l-1 -7 h-152l-1 7l46 10q18 4 35 26q0 1 20.5 27t47.5 61.5t35 45.5z" />
<glyph unicode="&#x2095;" horiz-adv-x="436" d="M181 -93l-1 -7h-155v7l51 9q12 2 12 14v445l-63 3v7q40 9 87 13l5 -5v-201q48 73 127 73q103 0 103 -110v-236l64 -12v-7h-155l-1 7l51 9q13 2 13 14v223q0 89 -83 89q-34 0 -67 -20t-52 -54v-249z" />
<glyph unicode="&#x2096;" horiz-adv-x="397" d="M180 -100h-155v7l51 9q12 2 12 14v445l-63 3v7q40 9 87 13l5 -5v-294h91l97 143l-64 9l1 7h144l1 -7l-41 -10q-17 -4 -30 -21l-86 -119l89 -147q21 -33 50 -41l28 -6l-1 -7h-37q-23 0 -36.5 9.5t-28.5 33.5l-87 139h-90v-163l64 -12z" />
<glyph unicode="&#x2097;" horiz-adv-x="206" d="M180 -100h-155v7l51 9q12 2 12 14v445l-63 3v7q40 9 87 13l5 -5v-474l64 -12z" />
<glyph unicode="&#x2098;" horiz-adv-x="662" d="M191 -100h-154l-1 7l51 9q13 3 13 14v312l-63 4l-1 7q48 9 87 12l5 -5v-69q45 74 124 74t95 -76q20 35 54 55.5t72 20.5q49 0 74.5 -28.5t25.5 -81.5v-236l64 -12l-1 -7h-155l-1 7l52 9q12 2 12 14v223q0 89 -78 89q-33 0 -65.5 -20t-50.5 -53v-250l64 -12v-7h-155l-1 7 l51 9q13 2 13 14v223q0 89 -77 89q-33 0 -66 -20t-51 -54v-249l64 -12z" />
<glyph unicode="&#x2099;" horiz-adv-x="448" d="M191 -100h-154l-1 7l51 9q13 3 13 14v312l-63 4l-1 7q48 9 87 12l5 -5v-69q47 74 128 74q103 0 103 -110v-236l64 -12l-1 -7h-155l-1 7l52 9q12 2 12 14v223q0 89 -81 89q-34 0 -68 -20t-53 -54v-249l64 -12z" />
<glyph unicode="&#x209a;" horiz-adv-x="424" d="M195 -236h-170v8l51 8q12 2 12 14v448l-63 4v7q40 9 87 13l5 -5v-65q43 69 118 69q63 0 98.5 -48t35.5 -134q0 -87 -44 -138.5t-115 -51.5q-48 0 -93 16v-125l79 -12zM117 162v-231q49 -19 92 -19q61 0 96 47t34 121q-1 76 -28.5 119.5t-79.5 43.5q-36 0 -67 -22t-47 -59 z" />
<glyph unicode="&#x209b;" horiz-adv-x="333" d="M154 -107q-75 0 -91 18q-8 8 -8 41q0 24 7 54h7q7 -66 15 -78q12 -17 74 -17q41 0 65.5 18.5t24.5 48.5q0 26 -19.5 45.5t-47 33t-54.5 27.5t-46.5 36.5t-19.5 52.5q0 43 33 67.5t86 24.5q65 0 82 -19q6 -8 6 -40q0 -22 -7 -54l-7 1q-4 53 -11 70q-10 24 -64 24 q-41 0 -64.5 -17.5t-23.5 -51.5q0 -25 19.5 -44.5t46.5 -32.5t54.5 -27.5t47 -37t19.5 -53.5q0 -42 -34.5 -66t-89.5 -24z" />
<glyph unicode="&#x209c;" horiz-adv-x="278" d="M242 244v-16h-135v-220q0 -47 16 -69t50 -22q44 0 88 38l6 -5q-41 -57 -103 -57q-86 0 -86 102v233h-63l-1 7l64 10l21 112l8 -1v-112h135z" />
<glyph unicode="&#x20ac;" horiz-adv-x="601" d="M441 263h-272q11 -115 70.5 -182t148.5 -67t150 52l7 -8q-58 -68 -160 -68q-105 0 -171.5 72t-76.5 201h-73l3 23h68v21q0 29 3 56h-66l3 23h66q19 125 89.5 199.5t165.5 74.5q59 0 101 -27.5t42 -62.5q0 -10 -7 -15.5t-16 -5.5q-9 39 -41.5 63t-80.5 24q-84 0 -145 -68 t-77 -182h280l-3 -23h-279q-3 -25 -3 -53q0 -16 1 -24h276z" />
<glyph unicode="&#x2122;" horiz-adv-x="663" d="M314 650h64l64 -197l65 197h63v-7l-32 -9l32 -194l29 -8v-7h-86l-2 7l33 8l-31 174l-61 -189h-28l-63 189l-29 -174l31 -8v-7h-79l-1 7l31 8l31 194l-33 9zM178 440l32 -8l-1 -7h-90l-1 7l32 8v192h-63l-13 -50h-7v68h194v-68h-7l-11 50h-65v-192z" />
<glyph unicode="&#x2212;" horiz-adv-x="539" d="M459 312h-384v23q132 3 385 3l4 -5z" />
<glyph unicode="&#x221e;" horiz-adv-x="862" d="M762 267q0 -73 -43 -121t-112 -48q-56 0 -96 36t-77 98q-79 -134 -184 -134q-67 0 -108.5 47t-41.5 120t43.5 121t113.5 48q32 0 58.5 -11t48.5 -34t36.5 -43t32.5 -51q83 139 184 139q69 0 107 -46.5t38 -120.5zM130 268q0 -66 34.5 -105t90.5 -39q83 0 165 134 q0 1 -1 2.5t-2 2.5q-39 72 -77 108.5t-86 36.5q-54 0 -89 -37.5t-35 -102.5zM616 408q-88 0 -168 -139q41 -73 78 -109t84 -36q53 0 87.5 37.5t34.5 104.5q0 65 -32.5 103.5t-83.5 38.5z" />
<glyph unicode="&#x2248;" horiz-adv-x="552" d="M148 453q-16 0 -67 -66l-14 8q14 26 23 40t26 30.5t33 16.5q21 0 126 -30.5t129 -30.5q16 0 67 66l14 -8q-46 -87 -82 -87q-22 0 -128.5 30.5t-126.5 30.5zM148 229q-16 0 -67 -66l-14 8q14 26 23 40t26 30.5t33 16.5q21 0 126 -30.5t129 -30.5q16 0 67 66l14 -8 q-46 -87 -82 -87q-22 0 -128.5 30.5t-126.5 30.5z" />
<glyph unicode="&#x2260;" horiz-adv-x="539" d="M164 116l-18 13l45 82h-116v23q17 1 62.5 1.5t67.5 0.5l98 177h-228v23q39 1 242 3l52 93l5 3l18 -13l-46 -83h114l4 -5l-5 -21h-127l-98 -177q84 1 226 1l4 -5l-5 -21h-239l-51 -92z" />
<glyph unicode="&#x2264;" horiz-adv-x="529" d="M448 536v-29l-334 -121l335 -126v-29l-380 147l1 16q206 82 378 142zM444 115h-384v23q132 3 385 3l4 -5z" />
<glyph unicode="&#x2265;" horiz-adv-x="529" d="M80 231v29l335 126l-334 121v29q171 -60 378 -142l1 -16zM464 115h-384v23q132 3 385 3l4 -5z" />
<glyph unicode="&#x25fc;" horiz-adv-x="500" d="M0 500h500v-500h-500v500z" />
<glyph unicode="&#x2c7c;" horiz-adv-x="213" d="M94 348q-25 0 -25 28q0 13 8.5 22.5t20.5 9.5q24 0 24 -27q0 -14 -7.5 -23.5t-20.5 -9.5zM87 242h1l-63 4l-1 7q48 9 87 12l5 -5v-335q0 -62 -20.5 -97t-72.5 -68l-6 6q38 36 54 70.5t16 95.5v310z" />
<glyph unicode="&#xfb01;" horiz-adv-x="534" d="M255 0h-218l-1 10l69 12q16 2 16 17v424h-78l-1 10l79 12q2 94 48.5 152t122.5 58q52 0 86.5 -29.5t34.5 -66.5q0 -22 -17 -22q-7 0 -13 3q-4 42 -31 66.5t-67 24.5q-73 0 -107 -60q-27 -47 -27 -126h242q16 11 24 15l7 -7v-467l85 -16l-1 -10h-198l-1 10l69 12 q16 2 16 17v424h-243v-437l105 -16z" />
<glyph unicode="&#xfb02;" horiz-adv-x="534" d="M255 0h-218l-1 10l69 12q16 2 16 17v424h-78l-1 10l79 12q2 94 49.5 152t125.5 58q66 0 103 -42q12 8 18 10l7 -7v-630l85 -16l-1 -10h-198l-1 10l69 12q16 2 16 17v424h-243v-437l105 -16zM289 671q-66 0 -102 -47t-36 -139h243v95q0 41 -30.5 66t-74.5 25z" />
<glyph unicode="&#xfb06;" horiz-adv-x="721" d="M536 588q0 -39 -21.5 -67t-49.5 -39h213v-22h-180v-315q0 -68 21 -99.5t66 -31.5q59 0 118 56l7 -7q-24 -33 -59 -53t-72 -20q-54 0 -82.5 36t-28.5 104v330h-64l-1 10q48 11 76 42.5t28 75.5q0 39 -24 62.5t-64 23.5q-55 0 -95.5 -47.5t-37.5 -133.5q45 -23 45 -62 q0 -21 -19 -21q-15 0 -26.5 18.5t-15.5 47.5q-26 14 -60 14q-50 0 -82.5 -26.5t-32.5 -73.5q0 -38 25 -66t61 -47t72.5 -38.5t61.5 -51.5t25 -74q0 -57 -44 -90t-114 -33q-41 0 -74 7.5t-43 17.5t-10 58q0 36 6 72h9q1 -8 2 -21.5t1.5 -20t2 -17t2.5 -16t2.5 -12.5t3.5 -12 t5 -9q15 -23 98 -23q55 0 88 26.5t33 70.5q0 37 -25 65t-61 47t-72.5 38.5t-61.5 51t-25 74.5q0 56 42.5 89.5t102.5 33.5q33 0 60 -9q-4 89 41.5 141.5t111.5 52.5q49 0 82 -30t33 -77z" />
<glyph horiz-adv-x="971" d="M644 0h-198l-1 10l69 12q16 2 16 17v630q-77 -4 -129.5 -53.5t-60.5 -123.5q43 -25 43 -61q0 -21 -19 -21q-17 0 -29.5 19.5t-12.5 47.5q-23 13 -64 13q-75 0 -123 -65t-48 -180q0 -108 44.5 -169.5t118.5 -61.5q77 0 141 64l7 -8q-55 -80 -151 -80q-90 0 -141 67 t-51 185q0 126 58 197t145 71q35 0 65 -11q8 81 72 138.5t158 57.5l7 -7v-279q28 46 72 73.5t94 27.5q66 0 100.5 -39.5t34.5 -114.5v-330l85 -16l-1 -10h-198l-1 10l69 12q16 2 16 17v317q0 130 -111 130q-45 0 -89.5 -30t-70.5 -81v-349l85 -16z" />
<glyph horiz-adv-x="773" d="M473 674q-56 0 -97.5 -50t-38.5 -131q46 -22 46 -62q0 -21 -19 -21q-15 0 -26.5 18.5t-15.5 47.5q-25 14 -63 14q-75 0 -123.5 -65t-48.5 -180q0 -108 44.5 -169.5t118.5 -61.5q77 0 141 64l7 -8q-55 -80 -151 -80q-90 0 -141 67t-51 185q0 125 58 196.5t144 71.5 q33 0 63 -10q-4 88 43 141.5t113 53.5q51 0 81.5 -30.5t30.5 -76.5q0 -68 -66 -106h208v-22h-180v-315q0 -68 21 -99.5t66 -31.5q59 0 118 56l7 -7q-24 -33 -59 -53t-72 -20q-54 0 -82.5 36t-28.5 104v330h-64l-1 10q48 10 76 41.5t28 73.5q0 40 -22.5 64.5t-63.5 24.5z" />
<glyph horiz-adv-x="923" d="M312 410q-16 0 -29 19t-13 47v1q-22 13 -62 13q-49 0 -81 -27t-32 -76q0 -36 25 -64t61 -47t72.5 -39t61.5 -51t25 -73q0 -57 -44 -90t-114 -33q-41 0 -74 7.5t-43 17.5t-10 58q0 36 6 72h9q1 -8 2 -21.5t1.5 -20t2 -17t2.5 -16t2.5 -12.5t3.5 -12t5 -9q15 -23 98 -23 q55 0 88 26.5t33 70.5q0 37 -25 65t-61 47t-72.5 38.5t-61.5 51.5t-25 75q0 55 43 88.5t104 33.5q31 0 61 -10q9 84 75 139.5t159 55.5l7 -7v-279q28 46 72 73.5t94 27.5q66 0 100.5 -39.5t34.5 -114.5v-330l85 -16l-1 -10h-198l-1 10l69 12q16 2 16 17v317q0 130 -111 130 q-45 0 -89.5 -30t-70.5 -81v-349l85 -16l-1 -10h-198l-1 10l69 12q16 2 16 17v630q-77 -4 -131.5 -53.5t-63.5 -122.5q44 -23 44 -62q0 -21 -19 -21z" />
<glyph horiz-adv-x="387" d="M359 386q-15 -21 -41 -21q-50 0 -50 63v4q-17 -28 -49 -47.5t-71 -19.5q-43 0 -68 21.5t-25 57.5q0 55 59.5 85t153.5 34v69q0 45 -18 66t-56 21q-41 0 -70 -24t-29 -53q0 -10 3 -21q-5 -5 -13 -5q-19 0 -19 24q0 35 40 66t91 31q52 0 76 -26t24 -79v-199q0 -49 34 -49 q13 0 26 5zM85 446q0 -28 19.5 -44t48.5 -16q37 0 68 21t47 57v83q-183 -11 -183 -101z" />
<glyph horiz-adv-x="412" d="M357 548q0 -86 -44 -134.5t-115 -48.5q-47 0 -92 16l-25 -16l-3 2v480l-63 3l-1 7q42 9 87 13l6 -5v-195q42 67 116 67q62 0 98 -51.5t36 -137.5zM219 715q-36 0 -66.5 -21.5t-45.5 -57.5v-234q49 -18 90 -18q62 0 96.5 43.5t33.5 117.5q-1 76 -28.5 123t-79.5 47z" />
<glyph horiz-adv-x="344" d="M55 545q0 90 44 141t109 51q47 0 77 -28.5t30 -71.5q0 -24 -19 -24q-6 0 -12 4q2 10 2 15q0 40 -21 63.5t-58 23.5q-53 0 -87.5 -44.5t-34.5 -123.5q0 -76 34 -119t91 -43q60 0 107 44l5 -6q-41 -62 -118 -62q-70 0 -109.5 48t-39.5 132z" />
<glyph horiz-adv-x="427" d="M55 537q0 93 48 146.5t126 53.5q41 0 79 -14v124l-63 3l-1 7q42 9 87 13l5 -5v-432q0 -49 35 -49q13 0 26 5l2 -3q-16 -21 -42 -21q-49 0 -49 63v6q-18 -31 -49 -50t-68 -19q-61 0 -98.5 45.5t-37.5 126.5zM85 540q0 -71 31 -112.5t81 -41.5q32 0 64 22t47 56v235 q-37 19 -81 19q-65 0 -103.5 -48.5t-38.5 -129.5z" />
<glyph horiz-adv-x="355" d="M322 427q-43 -62 -120 -62q-69 0 -108 48t-39 132q0 89 44 140.5t107 51.5q54 0 84 -36.5t30 -97.5q0 -21 -3 -42l-6 -4h-226v-5q0 -77 34 -120t92 -43q56 0 106 44zM204 719q-49 0 -81.5 -38.5t-36.5 -108.5l201 4q3 15 3 29q0 114 -86 114z" />
<glyph horiz-adv-x="264" d="M207 372h-170l-1 7l51 9q13 3 13 14v283h-60v8l60 9v5q0 73 33.5 118t89.5 45q36 0 60.5 -20.5t24.5 -47.5q0 -19 -16 -19q-7 0 -11 2q-1 30 -19 48.5t-44 18.5q-90 0 -90 -136v-14h130v-17h-130v-294l79 -12v-7z" />
<glyph horiz-adv-x="330" d="M326 333q0 -42 -45.5 -71.5t-126.5 -29.5q-61 0 -102 23t-41 59q0 33 31.5 55t73.5 28l-4 1q-37 12 -37 43q0 32 38 52q-70 27 -70 113q0 58 35.5 94.5t93.5 36.5q88 0 155 6q3 -6 3 -14q0 -15 -20 -15q-7 0 -21 1.5t-34.5 3.5t-35.5 3l-1 -2q29 -13 45.5 -41t16.5 -63 q0 -60 -34 -96t-86 -36q-18 0 -31 4q-28 -17 -28 -38q0 -28 47 -33l57 -6q121 -12 121 -78zM72 609q0 -47 25 -77t64 -30q41 0 66 30.5t25 81.5q0 45 -23 74.5t-63 29.5q-41 0 -67.5 -31.5t-26.5 -77.5zM40 317q0 -30 33 -48.5t88 -18.5q59 0 98 22.5t39 55.5q0 46 -95 56 l-61 6q-47 -9 -74.5 -28t-27.5 -45z" />
<glyph horiz-adv-x="436" d="M181 379l-1 -7h-155v7l51 9q12 2 12 14v445l-63 3v7q40 9 87 13l5 -5v-201q48 73 127 73q103 0 103 -110v-236l64 -12v-7h-155l-1 7l51 9q13 2 13 14v223q0 89 -83 89q-34 0 -67 -20t-52 -54v-249z" />
<glyph horiz-adv-x="213" d="M94 820q-25 0 -25 28q0 13 8.5 22.5t20.5 9.5q24 0 24 -27q0 -14 -7.5 -23.5t-20.5 -9.5zM87 714h1l-63 4l-1 7q48 9 87 12l5 -5v-335q0 -62 -20.5 -97t-72.5 -68l-6 6q38 36 54 70.5t16 95.5v310z" />
<glyph horiz-adv-x="397" d="M180 372h-155v7l51 9q12 2 12 14v445l-63 3v7q40 9 87 13l5 -5v-294h91l97 143l-64 9l1 7h144l1 -7l-41 -10q-17 -4 -30 -21l-86 -119l89 -147q21 -33 50 -41l28 -6l-1 -7h-37q-23 0 -36.5 9.5t-28.5 33.5l-87 139h-90v-163l64 -12z" />
<glyph horiz-adv-x="206" d="M180 372h-155v7l51 9q12 2 12 14v445l-63 3v7q40 9 87 13l5 -5v-474l64 -12z" />
<glyph horiz-adv-x="662" d="M191 372h-154l-1 7l51 9q13 3 13 14v312l-63 4l-1 7q48 9 87 12l5 -5v-69q45 74 124 74t95 -76q20 35 54 55.5t72 20.5q49 0 74.5 -28.5t25.5 -81.5v-236l64 -12l-1 -7h-155l-1 7l52 9q12 2 12 14v223q0 89 -78 89q-33 0 -65.5 -20t-50.5 -53v-250l64 -12v-7h-155l-1 7 l51 9q13 2 13 14v223q0 89 -77 89q-33 0 -66 -20t-51 -54v-249l64 -12z" />
<glyph horiz-adv-x="401" d="M346 556q0 -85 -38 -138t-107 -53q-68 0 -107 47t-39 132q0 90 40.5 141.5t109.5 51.5q65 0 103 -49.5t38 -131.5zM85 550q0 -82 30 -124.5t86 -42.5t85.5 47t29.5 125q0 77 -29 120.5t-83 43.5t-86.5 -45t-32.5 -124z" />
<glyph horiz-adv-x="424" d="M195 236h-170v8l51 8q12 2 12 14v448l-63 4v7q40 9 87 13l5 -5v-65q43 69 118 69q63 0 98.5 -48t35.5 -134q0 -87 -44 -138.5t-115 -51.5q-48 0 -93 16v-125l79 -12zM117 634v-231q49 -19 92 -19q61 0 96 47t34 121q-1 76 -28.5 119.5t-79.5 43.5q-36 0 -67 -22t-47 -59z " />
<glyph horiz-adv-x="414" d="M400 240h-155l-1 7l51 8q13 2 13 14v165q-18 -31 -49 -50t-68 -19q-61 0 -98.5 45.5t-37.5 126.5q0 93 48 146.5t126 53.5q43 0 81 -15l24 15l2 -2v-476l64 -12v-7zM85 540q0 -71 31 -112.5t81 -41.5q32 0 64 22t47 56v235q-37 19 -81 19q-65 0 -103.5 -48.5 t-38.5 -129.5z" />
<glyph horiz-adv-x="313" d="M207 372h-170l-1 7l51 9q13 3 13 14v312l-63 4l-1 7q48 9 87 12l5 -5v-68q40 73 101 73q27 0 44.5 -14t17.5 -34t-16 -22q-12 41 -55 42q-28 0 -54 -21t-38 -47v-250l79 -12v-7z" />
<glyph horiz-adv-x="333" d="M154 365q-75 0 -91 18q-8 8 -8 41q0 24 7 54h7q7 -66 15 -78q12 -17 74 -17q41 0 65.5 18.5t24.5 48.5q0 26 -19.5 45.5t-47 33t-54.5 27.5t-46.5 36.5t-19.5 52.5q0 43 33 67.5t86 24.5q65 0 82 -19q6 -8 6 -40q0 -22 -7 -54l-7 1q-4 53 -11 70q-10 24 -64 24 q-41 0 -64.5 -17.5t-23.5 -51.5q0 -25 19.5 -44.5t46.5 -32.5t54.5 -27.5t47 -37t19.5 -53.5q0 -42 -34.5 -66t-89.5 -24z" />
<glyph horiz-adv-x="278" d="M242 716v-16h-135v-220q0 -47 16 -69t50 -22q44 0 88 38l6 -5q-41 -57 -103 -57q-86 0 -86 102v233h-63l-1 7l64 10l21 112l8 -1v-112h135z" />
<glyph horiz-adv-x="449" d="M410 386q-14 -21 -42 -21q-49 0 -49 66v6q-49 -72 -125 -72q-52 0 -79 28.5t-27 81.5v239l-63 4v7q45 9 87 12l5 -5v-255q0 -43 21.5 -66t60.5 -23q36 0 68 21t52 57v248l-63 4l-1 7q48 9 87 12l5 -5v-299q0 -49 35 -49q13 0 26 5z" />
<glyph horiz-adv-x="398" d="M208 372h-18l-121 318q-4 13 -9.5 18t-18.5 8l-41 7l1 7h155l1 -7l-64 -12l111 -297l107 297l-64 12l1 7h149l1 -7l-47 -9q-20 -3 -29 -28z" />
<glyph horiz-adv-x="593" d="M293 730h11l106 -314l95 295l-63 12v7h150l1 -7l-47 -9q-23 -5 -29 -28l-103 -314h-18l-101 295l-98 -295h-18l-110 318q-4 13 -9.5 18t-18.5 8l-41 7l1 7h155l1 -7l-65 -12l101 -295z" />
<glyph horiz-adv-x="397" d="M83 686q-13 17 -21 22t-26 9l-36 6l1 7h162l1 -7l-67 -12l107 -146l105 146l-66 12l1 7h152l1 -7q0 -1 -21 -4.5t-22 -3.5q-19 -4 -38 -28q0 -1 -21 -27.5t-46.5 -60t-35.5 -46.5l104 -141q15 -20 33 -25l47 -8l-1 -7h-162l-1 7l66 12l-106 146l-105 -146l66 -12l-1 -7 h-152l-1 7l46 10q18 4 35 26q0 1 20.5 27t47.5 61.5t35 45.5z" />
<glyph horiz-adv-x="398" d="M69 232q-36 0 -36 24q0 9 6 15q14 -10 33 -10q36 0 67 28t51 81l-121 320q-4 13 -9.5 18t-18.5 8l-41 7l1 7h155l1 -7l-64 -13l111 -296l107 297l-64 12l1 7h149l1 -7l-46 -8q-21 -4 -30 -29l-113 -311q-51 -143 -140 -143z" />
<glyph horiz-adv-x="348" d="M304 423q0 -28 -4 -51h-254l-2 11l221 331h-191l-18 -98h-7q-5 30 -5 65q0 25 3 49h255l2 -11l-223 -331h193l18 98h6q6 -25 6 -63z" />
<glyph horiz-adv-x="412" d="M357 76q0 -86 -44 -134.5t-115 -48.5q-47 0 -92 16l-25 -16l-3 2v480l-63 3l-1 7q42 9 87 13l6 -5v-195q42 67 116 67q62 0 98 -51.5t36 -137.5zM219 243q-36 0 -66.5 -21.5t-45.5 -57.5v-234q49 -18 90 -18q62 0 96.5 43.5t33.5 117.5q-1 76 -28.5 123t-79.5 47z" />
<glyph horiz-adv-x="344" d="M55 73q0 90 44 141t109 51q47 0 77 -28.5t30 -71.5q0 -24 -19 -24q-6 0 -12 4q2 10 2 15q0 40 -21 63.5t-58 23.5q-53 0 -87.5 -44.5t-34.5 -123.5q0 -76 34 -119t91 -43q60 0 107 44l5 -6q-41 -62 -118 -62q-70 0 -109.5 48t-39.5 132z" />
<glyph horiz-adv-x="427" d="M55 65q0 93 48 146.5t126 53.5q41 0 79 -14v124l-63 3l-1 7q42 9 87 13l5 -5v-432q0 -49 35 -49q13 0 26 5l2 -3q-16 -21 -42 -21q-49 0 -49 63v6q-18 -31 -49 -50t-68 -19q-61 0 -98.5 45.5t-37.5 126.5zM85 68q0 -71 31 -112.5t81 -41.5q32 0 64 22t47 56v235 q-37 19 -81 19q-65 0 -103.5 -48.5t-38.5 -129.5z" />
<glyph horiz-adv-x="264" d="M207 -100h-170l-1 7l51 9q13 3 13 14v283h-60v8l60 9v5q0 73 33.5 118t89.5 45q36 0 60.5 -20.5t24.5 -47.5q0 -19 -16 -19q-7 0 -11 2q-1 30 -19 48.5t-44 18.5q-90 0 -90 -136v-14h130v-17h-130v-294l79 -12v-7z" />
<glyph horiz-adv-x="330" d="M280 144q0 -60 -34 -96t-86 -36q-18 0 -31 4q-28 -17 -28 -38q0 -28 47 -33l57 -6q121 -12 121 -78q0 -42 -45.5 -71.5t-126.5 -29.5q-61 0 -102 23t-41 59q0 33 31.5 55t73.5 28l-4 1q-37 12 -37 43q0 32 38 52q-70 27 -70 113q0 58 35.5 94.5t93.5 36.5q88 0 155 6 q3 -6 3 -14q0 -15 -20 -15q-7 0 -21 1.5t-34.5 3.5t-35.5 3l-1 -2q29 -13 45.5 -41t16.5 -63zM72 137q0 -47 25 -77t64 -30q41 0 66 30.5t25 81.5q0 45 -23 74.5t-63 29.5q-41 0 -67.5 -31.5t-26.5 -77.5zM40 -155q0 -30 33 -48.5t88 -18.5q59 0 98 22.5t39 55.5 q0 46 -95 56l-61 6q-47 -9 -74.5 -28t-27.5 -45z" />
<glyph horiz-adv-x="217" d="M108 347q-24 0 -24 29q0 13 8.5 22.5t20.5 9.5q24 0 24 -28q0 -14 -8 -23.5t-21 -9.5zM191 -100h-154l-1 7l51 9q13 3 13 14v312l-63 4l-1 7q48 9 87 12l5 -5v-341l64 -12z" />
<glyph horiz-adv-x="414" d="M55 65q0 93 48 146.5t126 53.5q43 0 81 -15l24 15l2 -2v-476l64 -12v-7h-155l-1 7l51 8q13 2 13 14v165q-18 -31 -49 -50t-68 -19q-61 0 -98.5 45.5t-37.5 126.5zM85 68q0 -71 31 -112.5t81 -41.5q32 0 64 22t47 56v235q-37 19 -81 19q-65 0 -103.5 -48.5t-38.5 -129.5z " />
<glyph horiz-adv-x="313" d="M207 -100h-170l-1 7l51 9q13 3 13 14v312l-63 4l-1 7q48 9 87 12l5 -5v-68q40 73 101 73q27 0 44.5 -14t17.5 -34t-16 -22q-12 41 -55 42q-28 0 -54 -21t-38 -47v-250l79 -12v-7z" />
<glyph horiz-adv-x="449" d="M410 -86q-14 -21 -42 -21q-49 0 -49 66v6q-49 -72 -125 -72q-52 0 -79 28.5t-27 81.5v239l-63 4v7q45 9 87 12l5 -5v-255q0 -43 21.5 -66t60.5 -23q36 0 68 21t52 57v248l-63 4l-1 7q48 9 87 12l5 -5v-299q0 -49 35 -49q13 0 26 5z" />
<glyph horiz-adv-x="398" d="M208 -100h-18l-121 318q-4 13 -9.5 18t-18.5 8l-41 7l1 7h155l1 -7l-64 -12l111 -297l107 297l-64 12l1 7h149l1 -7l-47 -9q-20 -3 -29 -28z" />
<glyph horiz-adv-x="593" d="M293 258h11l106 -314l95 295l-63 12v7h150l1 -7l-47 -9q-23 -5 -29 -28l-103 -314h-18l-101 295l-98 -295h-18l-110 318q-4 13 -9.5 18t-18.5 8l-41 7l1 7h155l1 -7l-65 -12l101 -295z" />
<glyph horiz-adv-x="398" d="M69 -240q-36 0 -36 24q0 9 6 15q14 -10 33 -10q36 0 67 28t51 81l-121 320q-4 13 -9.5 18t-18.5 8l-41 7l1 7h155l1 -7l-64 -13l111 -296l107 297l-64 12l1 7h149l1 -7l-46 -8q-21 -4 -30 -29l-113 -311q-51 -143 -140 -143z" />
<glyph horiz-adv-x="348" d="M304 -49q0 -28 -4 -51h-254l-2 11l221 331h-191l-18 -98h-7q-5 30 -5 65q0 25 3 49h255l2 -11l-223 -331h193l18 98h6q6 -25 6 -63z" />
<glyph horiz-adv-x="552" d="M496 328q0 -156 -60 -247t-160 -91q-103 0 -161.5 86.5t-58.5 245.5q0 156 61 247t164 91q96 0 155.5 -87.5t59.5 -244.5zM279 15q84 0 134 84t50 229t-50.5 226t-133.5 81q-86 0 -138 -84t-52 -229t52 -226t138 -81z" />
<glyph horiz-adv-x="343" d="M299 0h-257v10l98 12q16 2 16 17v587l-114 4l-1 10l138 20l7 -7v-627l114 -16z" />
<glyph horiz-adv-x="485" d="M58 0l-7 23q36 40 103 111t95 103t64.5 81.5t50 89t13.5 81.5q0 65 -36 105t-97 40q-64 0 -112 -40.5t-74 -109.5l-10 4q18 76 70.5 124t126.5 48q77 0 121 -47.5t44 -121.5q0 -50 -19 -98.5t-66 -108t-87 -102t-122 -124.5l-33 -33h282q21 0 30.5 20t26.5 100l7 -1 q-3 -80 -17 -144h-354z" />
<glyph horiz-adv-x="457" d="M401 165q0 -73 -59.5 -124t-149.5 -51q-80 0 -128 31t-48 82q0 45 36 70l6 -5q-11 -18 -11 -45q0 -53 39.5 -80.5t107.5 -27.5q75 0 124.5 42t49.5 109q0 71 -59 109t-142 38q-25 0 -51 -3l-2 16q238 39 238 189q0 53 -35 86.5t-93 33.5q-62 0 -112.5 -38.5t-73.5 -103.5 l-10 4q18 73 72 118t128 45q69 0 113 -39.5t44 -102.5q0 -68 -46.5 -116t-131.5 -71q86 -6 140 -50.5t54 -115.5z" />
<glyph horiz-adv-x="515" d="M24 172l329 488l22 -5v-480h100l-5 -25h-95v-150h-31v150h-308zM58 175h286v430z" />
<glyph horiz-adv-x="468" d="M420 170q0 -79 -58.5 -129.5t-145.5 -50.5q-77 0 -126.5 32.5t-49.5 84.5q0 48 36 76l6 -5q-11 -27 -11 -54q0 -52 40 -81t107 -29q77 0 123 41.5t46 113.5q0 182 -308 179l-7 7l2 295h321q2 -75 -11 -145h-8q-5 83 -10.5 100.5t-31.5 17.5h-231l-2 -255q11 1 32 1 q129 0 208 -51t79 -148z" />
<glyph horiz-adv-x="511" d="M463 190q0 -88 -58.5 -144t-140.5 -56q-97 0 -152.5 68t-55.5 172q0 178 102 290t260 140l4 -17q-134 -33 -222 -119t-107 -227q31 36 80 53.5t99 17.5q85 0 138 -48.5t53 -129.5zM89 228q0 -92 46.5 -153t128.5 -61q71 0 118.5 48t47.5 127q0 71 -43.5 113t-120.5 42 q-51 0 -100.5 -20.5t-75.5 -60.5q-1 -11 -1 -35z" />
<glyph horiz-adv-x="467" d="M218 0h-32q10 160 75 332t152 291h-300q-32 0 -41 -21t-13 -107h-8q-13 75 -11 155h398l5 -26q-87 -113 -151 -287.5t-74 -336.5z" />
<glyph horiz-adv-x="492" d="M444 145q0 -67 -60 -111t-145 -44t-138 43.5t-53 110.5q0 59 48 110t123 75q-65 35 -100.5 74.5t-35.5 101.5q0 65 50 110t124 45q75 0 119.5 -41t44.5 -106q0 -61 -40.5 -107.5t-105.5 -76.5q35 -18 51 -27t43.5 -28t40.5 -35.5t23.5 -41t10.5 -52.5zM115 506 q0 -57 37 -94t105 -73q134 77 134 173q0 53 -36.5 88t-96.5 35q-64 0 -103.5 -36.5t-39.5 -92.5zM78 146q0 -58 45 -94.5t119 -36.5q71 0 120.5 35t49.5 92q0 14 -3 26.5t-6.5 22.5t-12.5 21.5t-14 18t-19.5 17t-20 15t-23.5 15t-23.5 13.5t-26.5 14t-25 13 q-160 -74 -160 -172z" />
<glyph horiz-adv-x="511" d="M48 460q0 88 58.5 144t140.5 56q97 0 152.5 -68t55.5 -172q0 -178 -102 -290t-260 -140l-4 17q134 33 222 119t107 227q-31 -36 -80 -53.5t-99 -17.5q-85 0 -138 48.5t-53 129.5zM81 461q0 -71 43.5 -113t120.5 -42q51 0 100.5 20.5t75.5 60.5q1 11 1 35q0 92 -46.5 153 t-128.5 61q-71 0 -118.5 -48t-47.5 -127z" />
<glyph horiz-adv-x="496" d="M440 257q0 -116 -52 -191.5t-140 -75.5q-90 0 -141 65.5t-51 185.5q0 124 55 196.5t142 72.5q85 0 136 -69.5t51 -183.5zM88 247q0 -111 43 -172t118 -61q72 0 115.5 68t43.5 175q0 104 -43 166.5t-113 62.5q-71 0 -117.5 -64.5t-46.5 -174.5z" />
<glyph horiz-adv-x="367" d="M324 10l-1 -10h-282v10l111 12q16 1 16 17v437l-114 4l-1 10l138 20l7 -7v-477z" />
<glyph horiz-adv-x="459" d="M56 0l-7 23q21 17 73.5 59t73.5 60t57.5 52.5t51.5 57t28 52.5t13 59q0 55 -32 88t-88 33q-111 0 -168 -131l-10 4q21 71 69.5 112t110.5 41q70 0 110 -40.5t40 -103.5q0 -34 -16 -69t-39 -64.5t-66.5 -68.5t-79 -66.5t-96.5 -72.5h257q21 0 30.5 20t26.5 100l8 -1 q-3 -80 -17 -144h-330z" />
<glyph horiz-adv-x="457" d="M401 15q0 -73 -59.5 -124t-149.5 -51q-80 0 -128 31t-48 82q0 45 36 70l6 -5q-11 -18 -11 -45q0 -53 39.5 -80.5t107.5 -27.5q75 0 124.5 42t49.5 109q0 71 -59 109t-142 38q-25 0 -51 -3l-2 16q238 39 238 189q0 53 -35 86.5t-93 33.5q-62 0 -112.5 -38.5t-73.5 -103.5 l-10 4q18 73 72 118t128 45q69 0 113 -39.5t44 -102.5q0 -68 -46.5 -116t-131.5 -71q86 -6 140 -50.5t54 -115.5z" />
<glyph horiz-adv-x="515" d="M24 22l329 488l22 -5v-480h100l-5 -25h-95v-150h-31v150h-308zM58 25h286v430z" />
<glyph horiz-adv-x="468" d="M420 20q0 -79 -58.5 -129.5t-145.5 -50.5q-77 0 -126.5 32.5t-49.5 84.5q0 48 36 76l6 -5q-11 -27 -11 -54q0 -52 40 -81t107 -29q77 0 123 41.5t46 113.5q0 182 -308 179l-7 7l2 295h321q2 -75 -11 -145h-8q-5 83 -10.5 100.5t-31.5 17.5h-231l-2 -255q11 1 32 1 q129 0 208 -51t79 -148z" />
<glyph horiz-adv-x="511" d="M463 190q0 -88 -58.5 -144t-140.5 -56q-97 0 -152.5 68t-55.5 172q0 178 102 290t260 140l4 -17q-134 -33 -222 -119t-107 -227q31 36 80 53.5t99 17.5q85 0 138 -48.5t53 -129.5zM89 228q0 -92 46.5 -153t128.5 -61q71 0 118.5 48t47.5 127q0 71 -43.5 113t-120.5 42 q-51 0 -100.5 -20.5t-75.5 -60.5q-1 -11 -1 -35z" />
<glyph horiz-adv-x="467" d="M218 -150h-32q10 160 75 332t152 291h-300q-32 0 -41 -21t-13 -107h-8q-13 75 -11 155h398l5 -26q-87 -113 -151 -287.5t-74 -336.5z" />
<glyph horiz-adv-x="492" d="M444 145q0 -67 -60 -111t-145 -44t-138 43.5t-53 110.5q0 59 48 110t123 75q-65 35 -100.5 74.5t-35.5 101.5q0 65 50 110t124 45q75 0 119.5 -41t44.5 -106q0 -61 -40.5 -107.5t-105.5 -76.5q35 -18 51 -27t43.5 -28t40.5 -35.5t23.5 -41t10.5 -52.5zM115 506 q0 -57 37 -94t105 -73q134 77 134 173q0 53 -36.5 88t-96.5 35q-64 0 -103.5 -36.5t-39.5 -92.5zM78 146q0 -58 45 -94.5t119 -36.5q71 0 120.5 35t49.5 92q0 14 -3 26.5t-6.5 22.5t-12.5 21.5t-14 18t-19.5 17t-20 15t-23.5 15t-23.5 13.5t-26.5 14t-25 13 q-160 -74 -160 -172z" />
<glyph horiz-adv-x="511" d="M48 310q0 88 58.5 144t140.5 56q97 0 152.5 -68t55.5 -172q0 -178 -102 -290t-260 -140l-4 17q134 33 222 119t107 227q-31 -36 -80 -53.5t-99 -17.5q-85 0 -138 48.5t-53 129.5zM81 311q0 -71 43.5 -113t120.5 -42q51 0 100.5 20.5t75.5 60.5q1 11 1 35q0 92 -46.5 153 t-128.5 61q-71 0 -118.5 -48t-47.5 -127z" />
<glyph horiz-adv-x="392" d="M336 474q0 -88 -38 -138.5t-102 -50.5q-65 0 -102.5 48.5t-37.5 136.5q0 87 39 137t104 50q61 0 99 -48t38 -135zM198 303q49 0 78.5 45.5t29.5 125.5q0 78 -29.5 121.5t-78.5 43.5q-51 0 -81.5 -45t-30.5 -124t30.5 -123t81.5 -44z" />
<glyph horiz-adv-x="277" d="M221 292h-165v7l59 7q10 1 10 10v319l-69 2v6l92 14l5 -4v-345l68 -9v-7z" />
<glyph horiz-adv-x="353" d="M63 292l-5 18q21 20 62.5 58.5t57.5 55t38.5 43t30.5 47t8 43.5q0 35 -22 56.5t-59 21.5q-77 0 -112 -79l-6 2q11 44 44.5 71.5t80.5 27.5q49 0 76.5 -26.5t27.5 -68.5q0 -50 -40.5 -97t-135.5 -128q-18 -15 -27 -23h168q15 0 22.5 11t17.5 53l7 -1q-2 -43 -11 -85h-223z " />
<glyph horiz-adv-x="357" d="M301 383q0 -41 -38 -69.5t-95 -28.5q-50 0 -81 17.5t-31 45.5q0 25 28 40l3 -3q-6 -10 -6 -23q0 -59 88 -59q44 0 73 22t29 57q0 39 -35.5 59.5t-85.5 20.5q-11 0 -31 -2l-1 9q139 22 139 102q0 29 -21.5 46.5t-56.5 17.5q-37 0 -67.5 -20.5t-44.5 -54.5l-6 2 q11 43 45.5 69t81.5 26q44 0 71.5 -22.5t27.5 -57.5q0 -78 -110 -104q55 -3 89.5 -27t34.5 -63z" />
<glyph horiz-adv-x="397" d="M56 390l205 267l18 -3v-262h62l-4 -18h-58v-82h-28v82h-187zM80 392h171v227z" />
<glyph horiz-adv-x="354" d="M298 385q0 -44 -37.5 -72t-93.5 -28q-49 0 -80 18t-31 47q0 28 28 43l3 -3q-6 -14 -6 -27q0 -28 23.5 -44t63.5 -16q45 0 72.5 21.5t27.5 58.5q0 96 -187 94l-5 4l2 169h204q0 -48 -8 -85h-5q-3 44 -6.5 53.5t-20.5 9.5h-142l-1 -139q6 1 19 1q80 0 130 -27t50 -78z" />
<glyph horiz-adv-x="372" d="M316 398q0 -50 -37 -81.5t-90 -31.5q-63 0 -98 37.5t-35 98.5q0 95 65 158.5t166 77.5l2 -10q-79 -18 -132.5 -65.5t-66.5 -120.5q43 37 107 37q53 0 86 -27.5t33 -72.5zM86 418q0 -50 27.5 -82.5t74.5 -32.5q42 0 70 25.5t28 66.5q0 39 -25.5 62t-70.5 23 q-66 0 -103 -42q-1 -6 -1 -20z" />
<glyph horiz-adv-x="358" d="M167 292h-28q6 88 46.5 179.5t96.5 156.5h-179q-20 0 -26 -11.5t-9 -56.5h-7q-7 40 -5 90h243l3 -21q-54 -60 -92 -153.5t-43 -183.5z" />
<glyph horiz-adv-x="363" d="M307 373q0 -38 -37.5 -63t-92.5 -25q-54 0 -87.5 24t-33.5 61q0 34 27.5 61t71.5 41q-78 39 -78 95q0 37 33 63.5t80 26.5t75 -24t28 -61q0 -61 -82 -101q24 -12 36.5 -19t29 -19.5t23.5 -27t7 -32.5zM105 568q0 -30 22.5 -49.5t66.5 -40.5q74 41 74 94q0 29 -21 48 t-56 19q-38 0 -62 -20t-24 -51zM81 372q0 -31 27 -50t71 -19q43 0 71.5 18t28.5 48q0 17 -7 30.5t-28 27t-29.5 17.5t-40.5 19q-41 -13 -67 -38t-26 -53z" />
<glyph horiz-adv-x="372" d="M56 544q0 50 37 81.5t90 31.5q63 0 98 -37.5t35 -98.5q0 -95 -65 -158.5t-166 -77.5l-2 10q79 18 132.5 65.5t66.5 120.5q-43 -37 -107 -37q-53 0 -86 27.5t-33 72.5zM86 547q0 -39 25.5 -62t70.5 -23q66 0 103 42q1 6 1 20q0 50 -27.5 82.5t-74.5 32.5q-42 0 -70 -25.5 t-28 -66.5z" />
<glyph horiz-adv-x="392" d="M336 182q0 -88 -38 -138.5t-102 -50.5q-65 0 -102.5 48.5t-37.5 136.5q0 87 39 137t104 50q61 0 99 -48t38 -135zM198 11q49 0 78.5 45.5t29.5 125.5q0 78 -29.5 121.5t-78.5 43.5q-51 0 -81.5 -45t-30.5 -124t30.5 -123t81.5 -44z" />
<glyph horiz-adv-x="277" d="M221 0h-165v7l59 7q10 1 10 10v319l-69 2v6l92 14l5 -4v-345l68 -9v-7z" />
<glyph horiz-adv-x="353" d="M63 0l-5 18q21 20 62.5 58.5t57.5 55t38.5 43t30.5 47t8 43.5q0 35 -22 56.5t-59 21.5q-77 0 -112 -79l-6 2q11 44 44.5 71.5t80.5 27.5q49 0 76.5 -26.5t27.5 -68.5q0 -50 -40.5 -97t-135.5 -128q-18 -15 -27 -23h168q15 0 22.5 11t17.5 53l7 -1q-2 -43 -11 -85h-223z " />
<glyph horiz-adv-x="357" d="M301 91q0 -41 -38 -69.5t-95 -28.5q-50 0 -81 17.5t-31 45.5q0 25 28 40l3 -3q-6 -10 -6 -23q0 -59 88 -59q44 0 73 22t29 57q0 39 -35.5 59.5t-85.5 20.5q-11 0 -31 -2l-1 9q139 22 139 102q0 29 -21.5 46.5t-56.5 17.5q-37 0 -67.5 -20.5t-44.5 -54.5l-6 2 q11 43 45.5 69t81.5 26q44 0 71.5 -22.5t27.5 -57.5q0 -78 -110 -104q55 -3 89.5 -27t34.5 -63z" />
<glyph horiz-adv-x="397" d="M56 98l205 267l18 -3v-262h62l-4 -18h-58v-82h-28v82h-187zM80 100h171v227z" />
<glyph horiz-adv-x="354" d="M298 93q0 -44 -37.5 -72t-93.5 -28q-49 0 -80 18t-31 47q0 28 28 43l3 -3q-6 -14 -6 -27q0 -28 23.5 -44t63.5 -16q45 0 72.5 21.5t27.5 58.5q0 96 -187 94l-5 4l2 169h204q0 -48 -8 -85h-5q-3 44 -6.5 53.5t-20.5 9.5h-142l-1 -139q6 1 19 1q80 0 130 -27t50 -78z" />
<glyph horiz-adv-x="372" d="M316 106q0 -50 -37 -81.5t-90 -31.5q-63 0 -98 37.5t-35 98.5q0 95 65 158.5t166 77.5l2 -10q-79 -18 -132.5 -65.5t-66.5 -120.5q43 37 107 37q53 0 86 -27.5t33 -72.5zM86 126q0 -50 27.5 -82.5t74.5 -32.5q42 0 70 25.5t28 66.5q0 39 -25.5 62t-70.5 23 q-66 0 -103 -42q-1 -6 -1 -20z" />
<glyph horiz-adv-x="358" d="M167 0h-28q6 88 46.5 179.5t96.5 156.5h-179q-20 0 -26 -11.5t-9 -56.5h-7q-7 40 -5 90h243l3 -21q-54 -60 -92 -153.5t-43 -183.5z" />
<glyph horiz-adv-x="363" d="M307 81q0 -38 -37.5 -63t-92.5 -25q-54 0 -87.5 24t-33.5 61q0 34 27.5 61t71.5 41q-78 39 -78 95q0 37 33 63.5t80 26.5t75 -24t28 -61q0 -61 -82 -101q24 -12 36.5 -19t29 -19.5t23.5 -27t7 -32.5zM105 276q0 -30 22.5 -49.5t66.5 -40.5q74 41 74 94q0 29 -21 48 t-56 19q-38 0 -62 -20t-24 -51zM81 80q0 -31 27 -50t71 -19q43 0 71.5 18t28.5 48q0 17 -7 30.5t-28 27t-29.5 17.5t-40.5 19q-41 -13 -67 -38t-26 -53z" />
<glyph horiz-adv-x="372" d="M56 252q0 50 37 81.5t90 31.5q63 0 98 -37.5t35 -98.5q0 -95 -65 -158.5t-166 -77.5l-2 10q79 18 132.5 65.5t66.5 120.5q-43 -37 -107 -37q-53 0 -86 27.5t-33 72.5zM86 255q0 -39 25.5 -62t70.5 -23q66 0 103 42q1 6 1 20q0 50 -27.5 82.5t-74.5 32.5q-42 0 -70 -25.5 t-28 -66.5z" />
<glyph horiz-adv-x="459" d="M80 242q0 118 50.5 188t127.5 79v111l25 2l5 -5v-107q54 -4 89.5 -42.5t35.5 -95.5q0 -30 -22 -30q-8 0 -13 4q3 10 3 23q0 53 -29 85t-77 32q-71 0 -117 -64t-46 -177q0 -108 44.5 -169.5t118.5 -61.5q77 0 141 64l7 -8q-50 -72 -135 -79v-111l-25 -2l-5 5v107 q-84 6 -131 72.5t-47 179.5z" />
<glyph horiz-adv-x="539" d="M456 117l-81 82q-46 -46 -114 -46q-61 0 -104 35l-71 -72l-21 21l71 71q-39 47 -39 110q0 67 44 119l-77 77l21 21q14 -14 40 -40.5t37 -37.5q46 36 105 36q61 0 106 -39l80 81l21 -21l-82 -82q37 -46 37 -106q0 -58 -35 -106q18 -18 81 -78v-8zM265 463 q-62 0 -100 -41.5t-38 -100.5t36.5 -98.5t99.5 -39.5t99.5 42t36.5 99q0 56 -37 97.5t-97 41.5z" />
<glyph horiz-adv-x="516" d="M271 -120l-25 -2l-5 5v107q-54 1 -97.5 15t-56.5 36q-7 11 -7 64q0 43 6 85h8l20 -140q40 -38 133 -38q70 0 113 35.5t43 97.5q0 51 -32.5 88.5t-79 62t-93 50t-79 67t-32.5 98.5q0 63 46.5 103t119.5 45v111l25 2l5 -5v-107q45 -1 81 -12t46 -25q8 -12 8 -65t-6 -85h-8 l-20 139q-45 26 -113 26q-69 0 -110 -34t-41 -92q0 -43 23.5 -77t58.5 -54.5t76 -44t76 -45.5t58.5 -59.5t23.5 -84.5q0 -66 -46 -108t-119 -48v-111z" />
<glyph horiz-adv-x="601" d="M441 263h-272q11 -115 70.5 -182t148.5 -67t150 52l7 -8q-58 -68 -160 -68q-105 0 -171.5 72t-76.5 201h-73l3 23h68v21q0 29 3 56h-66l3 23h66q19 125 89.5 199.5t165.5 74.5q59 0 101 -27.5t42 -62.5q0 -10 -7 -15.5t-16 -5.5q-9 39 -41.5 63t-80.5 24q-84 0 -145 -68 t-77 -182h280l-3 -23h-279q-3 -25 -3 -53q0 -16 1 -24h276z" />
<glyph horiz-adv-x="494" d="M189 91q-14 -100 -52 -153.5t-96 -53.5q-34 0 -57.5 19.5t-23.5 42.5t23 23q11 -61 67 -61q45 0 70 43.5t37 136.5l30 226h-121l4 23h120l22 165q12 89 55.5 138.5t105.5 49.5q46 0 76.5 -29.5t30.5 -64.5q0 -21 -23 -23q-21 93 -89 93q-49 0 -81 -42t-43 -119l-22 -168 h175l-4 -23h-174z" />
<glyph horiz-adv-x="538" d="M404 314h-174l-19 -134q-17 -119 -56 -160q28 -8 133 -54t156 -46q22 0 34 3q3 -4 3 -10q0 -29 -46 -29q-53 0 -160.5 56.5t-141.5 62.5q-21 -13 -49 -13t-28 18q0 21 42 21q11 0 39 -4q28 42 44 159l18 130h-122l4 23h121l18 135q15 107 62 162.5t113 55.5 q47 0 79 -29.5t32 -64.5q0 -21 -23 -23q-21 93 -93 93q-112 0 -138 -191l-19 -138h175z" />
<glyph horiz-adv-x="646" d="M430 0h-212l-1 10l74 12q16 2 16 17v97h-170v23h170v77h-170v23h170v1l-192 335q-10 18 -17.5 25t-21.5 10l-52 10l1 10h202l1 -10l-93 -15l191 -341l191 341l-91 15l1 10h194l1 -10q-27 -4 -49 -10q-17 -4 -25.5 -12t-18.5 -26l-189 -333h169v-23h-170v-77h170v-23h-170 v-110l92 -16z" />
<glyph horiz-adv-x="459" d="M80 242q0 118 50.5 188t127.5 79v111l25 2l5 -5v-107q54 -4 89.5 -42.5t35.5 -95.5q0 -30 -22 -30q-8 0 -13 4q3 10 3 23q0 53 -29 85t-77 32q-71 0 -117 -64t-46 -177q0 -108 44.5 -169.5t118.5 -61.5q77 0 141 64l7 -8q-50 -72 -135 -79v-111l-25 -2l-5 5v107 q-84 6 -131 72.5t-47 179.5z" />
<glyph horiz-adv-x="539" d="M456 42l-81 82q-46 -46 -114 -46q-61 0 -104 35l-71 -72l-21 21l71 71q-39 47 -39 110q0 67 44 119l-77 77l21 21q14 -14 40 -40.5t37 -37.5q46 36 105 36q61 0 106 -39l80 81l21 -21l-82 -82q37 -46 37 -106q0 -58 -35 -106q18 -18 81 -78v-8zM265 388q-62 0 -100 -41.5 t-38 -100.5t36.5 -98.5t99.5 -39.5t99.5 42t36.5 99q0 56 -37 97.5t-97 41.5z" />
<glyph horiz-adv-x="445" d="M234 -120l-25 -2l-5 5v107q-41 0 -73 7.5t-41 17.5q-10 10 -10 58q0 36 6 72h9q1 -8 2 -21.5t1.5 -20t2 -17t2.5 -16t2.5 -12.5t3.5 -12t5 -9q15 -23 98 -23q55 0 88 26.5t33 70.5q0 37 -25 65t-61 46.5t-72.5 38t-61.5 50.5t-25 73q0 53 35 86t91 39v111l25 2l5 -5v-107 q36 -1 64 -9t35 -16q8 -9 8 -58q0 -35 -6 -72h-9q-4 74 -13 97q-14 34 -85 34q-55 0 -86.5 -26t-31.5 -75q0 -36 25 -63t61 -45.5t72.5 -38t61.5 -51t25 -74.5q0 -51 -36 -83t-95 -39v-111z" />
<glyph horiz-adv-x="522" d="M431 182h-260q12 -80 52.5 -124t104.5 -44q71 0 131 52l7 -8q-24 -28 -62.5 -48t-82.5 -20q-75 0 -122.5 50.5t-59.5 141.5h-75l3 23h69q-1 12 -1 37q0 14 2 40h-65l3 23h64q15 98 69.5 151.5t130.5 53.5q50 0 87.5 -29t37.5 -63q0 -19 -23 -19q-9 39 -38 63t-70 24 q-61 0 -105.5 -47.5t-56.5 -133.5h271l-3 -23h-271q0 -6 -0.5 -18t-0.5 -19q0 -14 2 -40h265z" />
<glyph horiz-adv-x="465" d="M189 98q-13 -97 -52.5 -152t-95.5 -55q-34 0 -57.5 19.5t-23.5 42.5q0 21 23 23q16 -61 66 -61q83 0 108 180l20 144h-121l4 23h120l10 75q11 82 53 127.5t101 45.5q46 0 76.5 -29.5t30.5 -64.5q0 -21 -23 -23q-21 93 -89 93q-47 0 -77 -38t-40 -108l-11 -78h176l-4 -23 h-175z" />
<glyph horiz-adv-x="513" d="M407 230h-189l-7 -50q-17 -119 -56 -160q28 -8 133 -54t156 -46q22 0 34 3q3 -4 3 -10q0 -29 -46 -29q-53 0 -160.5 56.5t-141.5 62.5q-21 -13 -49 -13t-28 18q0 21 42 21q11 0 39 -4q29 44 44 159l6 46h-107l4 23h106l5 39q14 107 61 162.5t114 55.5q47 0 79 -29.5 t32 -64.5q0 -21 -23 -23q-21 93 -93 93q-112 0 -138 -191l-6 -42h190z" />
<glyph horiz-adv-x="557" d="M95 97v23h168v77h-168v23h168l-147 228q-18 28 -39 32l-53 10l1 10h188l1 -10l-80 -15l149 -233l142 233l-81 15l1 10h187l1 -10l-61 -10q-13 -2 -20.5 -10t-19.5 -28l-138 -222h161v-23h-162v-77h162v-23h-162v-71l85 -16l-1 -10h-198l-1 10l69 12q16 2 16 17v58h-168z " />
<glyph horiz-adv-x="731" d="M621 193h-164l-50 -203l-22 1l-6 6l48 196h-180l-50 -203l-22 1l-6 6l48 196h-147l-6 5l2 20h157l53 215h-162l-6 5l2 20h172l50 202l22 -1l6 -6l-48 -195h180l50 202l22 -1l6 -6l-48 -195h139l6 -5l-2 -20h-149l-53 -215h154l6 -5zM253 218h180l53 215h-180z" />
<glyph horiz-adv-x="377" d="M187 435q-46 0 -77.5 30.5t-31.5 80.5q0 48 33.5 81t79.5 33q47 0 77.5 -30.5t30.5 -79.5q0 -47 -33.5 -81t-78.5 -34zM189 635q-37 0 -60 -26t-23 -63q0 -38 23 -62t59 -24q37 0 60 25.5t23 64.5q0 37 -22.5 61t-59.5 24z" />
<glyph horiz-adv-x="909" d="M636 660h36l-401 -670h-35zM358 474q0 -88 -38 -138.5t-102 -50.5q-65 0 -102.5 48.5t-37.5 136.5q0 87 39 137t104 50q61 0 99 -48t38 -135zM220 303q49 0 78.5 45.5t29.5 125.5q0 78 -29.5 121.5t-78.5 43.5q-51 0 -81.5 -45t-30.5 -124t30.5 -123t81.5 -44zM831 182 q0 -88 -38 -138.5t-102 -50.5q-65 0 -102.5 48.5t-37.5 136.5q0 87 39 137t104 50q61 0 99 -48t38 -135zM693 11q49 0 78.5 45.5t29.5 125.5q0 78 -29.5 121.5t-78.5 43.5q-51 0 -81.5 -45t-30.5 -124t30.5 -123t81.5 -44z" />
<glyph horiz-adv-x="1254" d="M636 660h36l-401 -670h-35zM358 474q0 -88 -38 -138.5t-102 -50.5q-65 0 -102.5 48.5t-37.5 136.5q0 87 39 137t104 50q61 0 99 -48t38 -135zM220 303q49 0 78.5 45.5t29.5 125.5q0 78 -29.5 121.5t-78.5 43.5q-51 0 -81.5 -45t-30.5 -124t30.5 -123t81.5 -44zM831 182 q0 -88 -38 -138.5t-102 -50.5q-65 0 -102.5 48.5t-37.5 136.5q0 87 39 137t104 50q61 0 99 -48t38 -135zM1176 171q0 -88 -38 -138.5t-102 -50.5q-65 0 -102.5 48.5t-37.5 136.5q0 87 39 137t104 50q61 0 99 -48t38 -135zM693 11q49 0 78.5 45.5t29.5 125.5 q0 78 -29.5 121.5t-78.5 43.5q-51 0 -81.5 -45t-30.5 -124t30.5 -123t81.5 -44zM1038 0q49 0 78.5 45.5t29.5 125.5q0 78 -29.5 121.5t-78.5 43.5q-51 0 -81.5 -45t-30.5 -124t30.5 -123t81.5 -44z" />
<glyph horiz-adv-x="539" d="M459 312h-176v-182h-28v182h-180v23q84 2 180 2v183h28v-183q69 1 177 1l4 -5z" />
<glyph horiz-adv-x="539" d="M459 312h-384v23q132 3 385 3l4 -5z" />
<glyph horiz-adv-x="542" d="M435 140l-163 166l-159 -158l-19 19l159 159l-165 168l17 16q55 -52 167 -166l159 159l19 -19l-159 -159q124 -126 163 -165l-1 -6z" />
<glyph horiz-adv-x="539" d="M302 491q0 -18 -8.5 -30.5t-25.5 -12.5q-15 0 -23.5 11t-8.5 28t10 30t25 13q31 0 31 -39zM459 312h-384v23q132 3 385 3l4 -5zM302 164q0 -18 -8.5 -30.5t-25.5 -12.5q-15 0 -23.5 11t-8.5 28t10 30t25 13q31 0 31 -39z" />
<glyph horiz-adv-x="539" d="M459 413h-384v23q132 3 385 3l4 -5zM459 211h-384v23q132 3 385 3l4 -5z" />
<glyph horiz-adv-x="539" d="M164 116l-18 13l45 82h-116v23q17 1 62.5 1.5t67.5 0.5l98 177h-228v23q39 1 242 3l52 93l5 3l18 -13l-46 -83h114l4 -5l-5 -21h-127l-98 -177q84 1 226 1l4 -5l-5 -21h-239l-51 -92z" />
<glyph horiz-adv-x="532" d="M90 133v30l335 165l-334 160v30q174 -79 375 -182l1 -16z" />
<glyph horiz-adv-x="532" d="M442 518v-30l-335 -165l334 -160v-30q-174 79 -375 182l-1 16z" />
<glyph horiz-adv-x="529" d="M80 231v29l335 126l-334 121v29q171 -60 378 -142l1 -16zM464 115h-384v23q132 3 385 3l4 -5z" />
<glyph horiz-adv-x="529" d="M448 536v-29l-334 -121l335 -126v-29l-380 147l1 16q206 82 378 142zM444 115h-384v23q132 3 385 3l4 -5z" />
<glyph horiz-adv-x="529" d="M455 374h-176v-182h-28v182h-180v23q84 2 180 2v183h28v-183q69 1 177 1l4 -5zM454 115h-384v23q132 3 385 3l4 -5z" />
<glyph horiz-adv-x="552" d="M148 453q-16 0 -67 -66l-14 8q14 26 23 40t26 30.5t33 16.5q21 0 126 -30.5t129 -30.5q16 0 67 66l14 -8q-46 -87 -82 -87q-22 0 -128.5 30.5t-126.5 30.5zM148 229q-16 0 -67 -66l-14 8q14 26 23 40t26 30.5t33 16.5q21 0 126 -30.5t129 -30.5q16 0 67 66l14 -8 q-46 -87 -82 -87q-22 0 -128.5 30.5t-126.5 30.5z" />
<glyph horiz-adv-x="539" d="M453 325v-193h-29v171h-359v25q143 5 380 5z" />
<glyph horiz-adv-x="862" d="M762 267q0 -73 -43 -121t-112 -48q-56 0 -96 36t-77 98q-79 -134 -184 -134q-67 0 -108.5 47t-41.5 120t43.5 121t113.5 48q32 0 58.5 -11t48.5 -34t36.5 -43t32.5 -51q83 139 184 139q69 0 107 -46.5t38 -120.5zM130 268q0 -66 34.5 -105t90.5 -39q83 0 165 134 q0 1 -1 2.5t-2 2.5q-39 72 -77 108.5t-86 36.5q-54 0 -89 -37.5t-35 -102.5zM616 408q-88 0 -168 -139q41 -73 78 -109t84 -36q53 0 87.5 37.5t34.5 104.5q0 65 -32.5 103.5t-83.5 38.5z" />
<glyph horiz-adv-x="631" d="M521 144h-126l-38 -154l-22 1l-6 6l36 147h-150l-38 -154l-22 1l-6 6l36 147h-115l-6 5l2 20h125l41 165h-118l-6 5l2 20h128l37 151l22 -1l6 -6l-35 -144h150l37 151l22 -1l6 -6l-35 -144h113l6 -5l-2 -20h-124l-40 -165h116l6 -5zM221 169h150l41 165h-151z" />
<glyph horiz-adv-x="349" d="M173 285q-46 0 -77.5 30.5t-31.5 80.5q0 48 33.5 81t79.5 33q47 0 77.5 -30.5t30.5 -79.5q0 -47 -33.5 -81t-78.5 -34zM175 485q-37 0 -60 -26t-23 -63q0 -38 23 -62t59 -24q37 0 60 25.5t23 64.5q0 37 -22.5 61t-59.5 24z" />
<glyph horiz-adv-x="770" d="M522 510h36l-311 -520h-35zM304 377q0 -61 -33.5 -100t-86.5 -39t-86.5 37.5t-33.5 97.5t35 98.5t88 38.5t85 -36t32 -97zM186 256q39 0 63.5 34.5t24.5 86.5t-24 83.5t-64 31.5t-66 -33.5t-26 -85.5q0 -51 26 -84t66 -33zM706 129q0 -61 -33.5 -100t-86.5 -39 t-86.5 37.5t-33.5 97.5t35 98.5t88 38.5t85 -36t32 -97zM588 8q39 0 63.5 34.5t24.5 86.5t-24 83.5t-64 31.5t-66 -33.5t-26 -85.5q0 -51 26 -84t66 -33z" />
<glyph horiz-adv-x="1075" d="M522 510h36l-311 -520h-35zM304 377q0 -61 -33.5 -100t-86.5 -39t-86.5 37.5t-33.5 97.5t35 98.5t88 38.5t85 -36t32 -97zM186 256q39 0 63.5 34.5t24.5 86.5t-24 83.5t-64 31.5t-66 -33.5t-26 -85.5q0 -51 26 -84t66 -33zM706 129q0 -61 -33.5 -100t-86.5 -39 t-86.5 37.5t-33.5 97.5t35 98.5t88 38.5t85 -36t32 -97zM1011 129q0 -61 -33.5 -100t-86.5 -39t-86.5 37.5t-33.5 97.5t35 98.5t88 38.5t85 -36t32 -97zM588 8q39 0 63.5 34.5t24.5 86.5t-24 83.5t-64 31.5t-66 -33.5t-26 -85.5q0 -51 26 -84t66 -33zM893 8q39 0 63.5 34.5 t24.5 86.5t-24 83.5t-64 31.5t-66 -33.5t-26 -85.5q0 -51 26 -84t66 -33z" />
<glyph horiz-adv-x="539" d="M459 237h-176v-182h-28v182h-180v23q84 2 180 2v183h28v-183q69 1 177 1l4 -5z" />
<glyph horiz-adv-x="539" d="M459 237h-384v23q132 3 385 3l4 -5z" />
<glyph horiz-adv-x="542" d="M435 65l-163 166l-159 -158l-19 19l159 159l-165 168l17 16q55 -52 167 -166l159 159l19 -19l-159 -159q124 -126 163 -165l-1 -6z" />
<glyph horiz-adv-x="539" d="M302 416q0 -18 -8.5 -30.5t-25.5 -12.5q-15 0 -23.5 11t-8.5 28t10 30t25 13q31 0 31 -39zM459 237h-384v23q132 3 385 3l4 -5zM302 89q0 -18 -8.5 -30.5t-25.5 -12.5q-15 0 -23.5 11t-8.5 28t10 30t25 13q31 0 31 -39z" />
<glyph horiz-adv-x="539" d="M459 338h-384v23q132 3 385 3l4 -5zM459 136h-384v23q132 3 385 3l4 -5z" />
<glyph horiz-adv-x="539" d="M164 41l-18 13l45 82h-116v23q17 1 62.5 1.5t67.5 0.5l98 177h-228v23q39 1 242 3l52 93l5 3l18 -13l-46 -83h114l4 -5l-5 -21h-127l-98 -177q84 1 226 1l4 -5l-5 -21h-239l-51 -92z" />
<glyph horiz-adv-x="532" d="M90 58v30l335 165l-334 160v30q174 -79 375 -182l1 -16z" />
<glyph horiz-adv-x="532" d="M442 58l-377 187l1 16q201 103 375 182v-30l-334 -160l335 -165v-30z" />
<glyph horiz-adv-x="529" d="M80 156v29l335 126l-334 121v29q171 -60 378 -142l1 -16zM464 40h-384v23q132 3 385 3l4 -5z" />
<glyph horiz-adv-x="529" d="M449 156l-380 147l1 16q206 82 378 142v-29l-334 -121l335 -126v-29zM444 40h-384v23q132 3 385 3l4 -5z" />
<glyph horiz-adv-x="529" d="M455 294h-176v-182h-28v182h-180v23q84 2 180 2v183h28v-183q69 1 177 1l4 -5zM454 35h-384v23q132 3 385 3l4 -5z" />
<glyph horiz-adv-x="552" d="M148 378q-16 0 -67 -66l-14 8q14 26 23 40t26 30.5t33 16.5q21 0 126 -30.5t129 -30.5q16 0 67 66l14 -8q-46 -87 -82 -87q-22 0 -128.5 30.5t-126.5 30.5zM148 154q-16 0 -67 -66l-14 8q14 26 23 40t26 30.5t33 16.5q21 0 126 -30.5t129 -30.5q16 0 67 66l14 -8 q-46 -87 -82 -87q-22 0 -128.5 30.5t-126.5 30.5z" />
<glyph horiz-adv-x="538" d="M453 324v-193h-29v171h-359v25q143 5 380 5z" />
<glyph horiz-adv-x="862" d="M762 251q0 -73 -43 -121t-112 -48q-56 0 -96 36t-77 98q-79 -134 -184 -134q-67 0 -108.5 47t-41.5 120t43.5 121t113.5 48q32 0 58.5 -11t48.5 -34t36.5 -43t32.5 -51q83 139 184 139q69 0 107 -46.5t38 -120.5zM130 252q0 -66 34.5 -105t90.5 -39q83 0 165 134 q0 1 -1 2.5t-2 2.5q-39 72 -77 108.5t-86 36.5q-54 0 -89 -37.5t-35 -102.5zM616 392q-88 0 -168 -139q41 -73 78 -109t84 -36q53 0 87.5 37.5t34.5 104.5q0 65 -32.5 103.5t-83.5 38.5z" />
<glyph horiz-adv-x="368" d="M48 313v23h272v-23h-272z" />
<glyph horiz-adv-x="507" d="M48 313v23h411v-23h-411z" />
<glyph horiz-adv-x="760" d="M48 314v23h664v-23h-664z" />
<glyph horiz-adv-x="362" d="M113 -10l-27 7l-2 3l165 660l27 -7l2 -3z" />
<glyph horiz-adv-x="362" d="M249 -10l-165 660l2 3l27 7l165 -660l-2 -3z" />
<glyph horiz-adv-x="426" d="M229 438q0 -24 -16 -24t-16 24q0 11 4.5 41t6.5 49q-17 -11 -37 -27.5t-31.5 -24t-20.5 -7.5q-15 0 -15 14q0 10 14 19q11 6 40 17t45 18q-20 9 -47 20t-37 16q-15 7 -15 18q0 14 14 14q7 0 19 -7.5t34.5 -25t36.5 -26.5q-2 20 -6.5 49.5t-4.5 40.5q0 24 16 24t16 -24 q0 -11 -4.5 -41t-6.5 -49q15 10 36 27t33 25t21 8q7 0 10.5 -4.5t3.5 -8.5q0 -10 -16 -19q-9 -5 -36 -16.5t-46 -20.5q18 -8 45.5 -19.5t37.5 -16.5q21 -11 13 -25q-3 -7 -13 -7q-9 0 -21 8t-33 24.5t-35 26.5q2 -19 6.5 -48.5t4.5 -41.5z" />
<glyph horiz-adv-x="268" d="M133 291q-13 0 -21 9.5t-8 22.5q0 14 9 25t23 11q28 0 28 -31q0 -15 -8 -26t-23 -11z" />
<glyph horiz-adv-x="394" d="M194 222q-41 0 -65.5 27.5t-24.5 67.5q0 45 27.5 78t70.5 33q41 0 64.5 -26t23.5 -67q0 -46 -25 -79.5t-71 -33.5z" />
<glyph horiz-adv-x="268" d="M104 620q0 16 9 28t23 12q12 0 20 -9.5t8 -24.5q0 -16 -9.5 -27t-23.5 -11q-12 0 -19.5 8.5t-7.5 23.5zM152 -5l-3 -3q-18 -2 -23 -2q-10 0 -10 10q0 16 2 94l7 402h18z" />
<glyph horiz-adv-x="268" d="M116 655l3 3q18 2 23 2q10 0 10 -10q0 -16 -2 -94l-7 -402h-18zM164 30q0 -16 -9 -28t-23 -12q-12 0 -20 9.5t-8 24.5q0 16 9.5 27t23.5 11q12 0 19.5 -8.5t7.5 -23.5z" />
<glyph horiz-adv-x="406" d="M185 620q0 16 9 28t23 12q12 0 20 -9.5t8 -24.5q0 -16 -9.5 -27t-23.5 -11q-12 0 -19.5 8.5t-7.5 23.5zM207 495l13 1q15 -68 15 -102q0 -13 -5.5 -20.5t-19.5 -17.5q-3 -2 -26 -17t-34.5 -23t-32.5 -27t-32 -36t-20 -42t-9 -51q0 -66 39.5 -105.5t108.5 -39.5 q61 0 103.5 40t42.5 95q0 30 -10 51q4 4 13 4q13 0 21 -14t8 -35q0 -69 -52.5 -117.5t-129.5 -48.5t-126.5 46.5t-49.5 123.5q0 29 10 56.5t20 45.5t35 41t35.5 31t41.5 29t34 23z" />
<glyph horiz-adv-x="406" d="M199 155l-13 -1q-15 68 -15 102q0 13 5.5 20.5t19.5 17.5q3 2 26 17t34.5 23t32.5 27t32 36t20 42t9 51q0 66 -39.5 105.5t-108.5 39.5q-61 0 -103.5 -40t-42.5 -95q0 -30 10 -51q-4 -4 -13 -4q-13 0 -21 14t-8 35q0 69 52.5 117.5t129.5 48.5t126.5 -46.5t49.5 -123.5 q0 -29 -10 -56.5t-20 -45.5t-35 -41t-35.5 -31t-41.5 -29t-34 -23zM221 30q0 -16 -9 -28t-23 -12q-12 0 -20 9.5t-8 24.5q0 16 9.5 27t23.5 11q12 0 19.5 -8.5t7.5 -23.5z" />
<glyph horiz-adv-x="326" d="M64 655l3 3q18 2 27 2l6 -6l-11 -219h-14l-5 103zM226 655l3 3q18 2 27 2l6 -6l-11 -219h-14l-5 103z" />
<glyph horiz-adv-x="164" d="M64 690l3 3q18 2 27 2l6 -6l-11 -219h-14l-5 103z" />
<glyph horiz-adv-x="332" d="M248 145l-12 -8q-93 126 -150 174l-2 4v17q51 51 152 182l12 -8q-15 -25 -127 -183q65 -75 127 -178z" />
<glyph horiz-adv-x="332" d="M246 311q-57 -48 -150 -174l-12 8q62 103 127 178q-112 158 -127 183l12 8q101 -131 152 -182v-17z" />
<glyph horiz-adv-x="487" d="M403 145l-12 -8q-93 126 -150 174l-2 4v17q51 51 152 182l12 -8q-15 -25 -127 -183q65 -75 127 -178zM248 145l-12 -8q-93 126 -150 174l-2 4v17q51 51 152 182l12 -8q-15 -25 -127 -183q65 -75 127 -178z" />
<glyph horiz-adv-x="487" d="M246 311q-57 -48 -150 -174l-12 8q62 103 127 178q-112 158 -127 183l12 8q101 -131 152 -182v-17zM401 311q-57 -48 -150 -174l-12 8q62 103 127 178q-112 158 -127 183l12 8q101 -131 152 -182v-17z" />
<glyph horiz-adv-x="207" d="M64 485q0 36 19.5 86t53.5 89l6 -5q-43 -70 -48 -144h1q29 -3 29 -33q0 -15 -8.5 -25t-22.5 -10q-30 0 -30 42z" />
<glyph horiz-adv-x="207" d="M143 618q0 -36 -19.5 -86t-53.5 -89l-6 5q43 70 48 144h-1q-29 3 -29 33q0 15 8.5 25t22.5 10q30 0 30 -42z" />
<glyph horiz-adv-x="314" d="M64 485q0 36 19.5 86t53.5 89l6 -5q-43 -70 -48 -144h1q29 -3 29 -33q0 -15 -8.5 -25t-22.5 -10q-30 0 -30 42zM171 485q0 36 19.5 86t53.5 89l6 -5q-43 -70 -48 -144h1q29 -3 29 -33q0 -15 -8.5 -25t-22.5 -10q-30 0 -30 42z" />
<glyph horiz-adv-x="314" d="M250 618q0 -36 -19.5 -86t-53.5 -89l-6 5q43 70 48 144h-1q-29 3 -29 33q0 15 8.5 25t22.5 10q30 0 30 -42zM143 618q0 -36 -19.5 -86t-53.5 -89l-6 5q43 70 48 144h-1q-29 3 -29 33q0 15 8.5 25t22.5 10q30 0 30 -42z" />
<glyph horiz-adv-x="207" d="M143 16q0 -36 -19.5 -86t-53.5 -89l-6 5q43 70 48 144h-1q-29 3 -29 33q0 15 8.5 25t22.5 10q30 0 30 -42z" />
<glyph horiz-adv-x="314" d="M250 16q0 -36 -19.5 -86t-53.5 -89l-6 5q43 70 48 144h-1q-29 3 -29 33q0 15 8.5 25t22.5 10q30 0 30 -42zM143 16q0 -36 -19.5 -86t-53.5 -89l-6 5q43 70 48 144h-1q-29 3 -29 33q0 15 8.5 25t22.5 10q30 0 30 -42z" />
<glyph horiz-adv-x="333" d="M289 -35l-14 -14q-171 153 -171 374t171 374l14 -14q-62 -64 -107 -157.5t-46 -202.5q1 -109 45.5 -202t107.5 -158z" />
<glyph horiz-adv-x="333" d="M44 -35q63 65 107.5 158t45.5 202q-1 109 -46 202.5t-107 157.5l14 14q171 -153 171 -374t-171 -374z" />
<glyph horiz-adv-x="365" d="M301 -46h-157v743h157v-23h-127v-697h127v-23z" />
<glyph horiz-adv-x="365" d="M64 -46v23h127v697h-127v23h157v-743h-157z" />
<glyph horiz-adv-x="379" d="M104 335q86 0 86 93q0 27 -17 80.5t-17 82.5q0 55 41.5 84.5t116.5 29.5l1 -20q-127 -5 -127 -92q-1 -30 16.5 -84t17.5 -82q0 -83 -68 -102q68 -19 68 -102q-1 -28 -17.5 -82.5t-15.5 -84.5q0 -86 126 -91l-1 -20q-75 0 -116 29.5t-41 83.5q0 29 16.5 82t16.5 80 q0 95 -86 95v20z" />
<glyph horiz-adv-x="379" d="M275 335v-20q-86 0 -86 -95q0 -27 16.5 -80t16.5 -82q0 -54 -41 -83.5t-116 -29.5l-1 20q126 5 126 91q1 30 -15.5 84.5t-17.5 82.5q0 83 68 102q-68 19 -68 102q0 28 17.5 82t16.5 84q0 87 -127 92l1 20q75 0 116.5 -29.5t41.5 -84.5q0 -29 -17 -82.5t-17 -80.5 q0 -93 86 -93z" />
<glyph horiz-adv-x="681" d="M292 -10q-97 0 -152.5 44.5t-55.5 119.5q0 111 132 180q-75 94 -75 171q0 66 48.5 110.5t114.5 44.5q63 0 102 -40.5t39 -101.5q0 -38 -22 -38q-8 0 -13 4q3 18 3 30q0 53 -31 87t-81 34q-53 0 -90.5 -36.5t-37.5 -91.5q0 -46 20.5 -84t71.5 -99l195 -234q1 -1 2.5 -3 t2.5 -3q56 63 56 172q0 59 -32 97q5 6 17 6q23 0 35 -27.5t12 -69.5q0 -120 -72 -195q49 -52 89 -52q27 0 61 17l6 -8q-38 -34 -77 -34q-45 0 -101 56q-69 -56 -167 -56zM116 158q0 -67 47 -105t130 -38q94 0 151 48q-12 12 -24 27l-188 225q-57 -31 -86.5 -67.5 t-29.5 -89.5z" />
<glyph horiz-adv-x="183" d="M122 -142q0 -27 -13.5 -66t-37.5 -69l-6 5q23 53 26 106h-1q-29 6 -29 32q0 14 8.5 23t22.5 9q30 0 30 -40z" />
</font>
</defs>
</svg>
