<?xml version="1.0" standalone="no"?>
<!DOCTYPE svg PUBLIC "-//W3C//DTD SVG 1.1//EN" "http://www.w3.org/Graphics/SVG/1.1/DTD/svg11.dtd" >
<svg xmlns="http://www.w3.org/2000/svg" xmlns:xlink="http://www.w3.org/1999/xlink" version="1.1">
<metadata></metadata>
<defs>
<font id="indivisa_text_serifblack" horiz-adv-x="620" >
<font-face units-per-em="1000" ascent="750" descent="-250" />
<missing-glyph horiz-adv-x="250" />
<glyph unicode="&#xfb00;" horiz-adv-x="740" d="M268 55l55 -35l-2 -20h-296l-2 20l30 16q35 19 35 61v333h-63l-2 20l65 35v25q0 93 81.5 161.5t199.5 68.5q99 0 161 -43q76 63 172 63q73 0 121.5 -37t48.5 -87q0 -35 -24 -55t-60 -20q-29 0 -62 14q0 73 -10 104t-37 31q-30 0 -47 -34t-17 -96v-100h117v-50h-117v-375 l85 -35l-2 -20h-326l-2 20l30 16q35 19 35 61v333h-167v-375zM435 510q0 40 15 78q-32 102 -97 102q-41 0 -63 -29.5t-22 -82.5v-98h158l9 5v25z" />
<glyph unicode="&#xfb03;" horiz-adv-x="1053" d="M268 55l55 -35l-2 -20h-296l-2 20l30 16q35 19 35 61v333h-63l-2 20l65 35v25q0 93 81.5 161.5t199.5 68.5q98 0 161 -43q79 63 187 63q95 0 160.5 -37t65.5 -90q0 -33 -21.5 -52.5t-55.5 -19.5q-46 0 -78 16q-7 32 -12 50t-15.5 40t-26 32.5t-37.5 10.5q-81 0 -81 -120 v-110h193q78 23 156 30l8 -8v-447l65 -35l-2 -20h-306l-2 20l30 16q35 19 35 61v333h-177v-375l65 -35l-2 -20h-306l-2 20l30 16q35 19 35 61v333h-168v-375zM436 510q0 40 14 77q-31 103 -97 103q-41 0 -63 -29.5t-22 -82.5v-98h168v30z" />
<glyph unicode="&#xfb04;" horiz-adv-x="1052" d="M268 55l65 -35l-2 -20h-306l-2 20l30 16q35 19 35 61v333h-63l-2 20l65 35v25q0 93 81.5 161.5t199.5 68.5q99 0 161 -43q79 63 186 63q68 0 125 -21q61 16 123 21l8 -8v-697l65 -35l-2 -20h-306l-2 20l30 16q35 19 35 61v333h-177v-375l65 -35l-2 -20h-306l-2 20l30 16 q35 19 35 61v333h-167v-375zM615 598v-118h177v147q-29 83 -96 83q-81 0 -81 -112zM435 510q0 40 14 79q-31 101 -96 101q-41 0 -63 -29.5t-22 -82.5v-98h167v30z" />
<glyph unicode="fi" horiz-adv-x="705" d="M268 55l65 -35l-2 -20h-306l-2 20l30 16q35 19 35 61v333h-63l-2 20l65 35v25q0 102 81.5 176t199.5 74q95 0 160.5 -37t65.5 -90q0 -33 -21.5 -52.5t-55.5 -19.5q-46 0 -78 16q-7 32 -12 50t-15.5 40t-26 32.5t-37.5 10.5q-81 0 -81 -120v-110h193q78 23 156 30l8 -8 v-447l65 -35l-2 -20h-306l-2 20l30 16q35 19 35 61v333h-177v-375z" />
<glyph unicode="fl" horiz-adv-x="705" d="M268 55l65 -35l-2 -20h-306l-2 20l30 16q35 19 35 61v333h-63l-2 20l65 35v25q0 102 81.5 176t199.5 74q68 0 125 -21q61 16 123 21l8 -8v-697l65 -35l-2 -20h-306l-2 20l30 16q35 19 35 61v333h-177v-375zM268 598v-118h177v147q-29 83 -96 83q-81 0 -81 -112z" />
<glyph unicode="&#x2f;symbol&#x32;&#x2f;" horiz-adv-x="932" d="M494 570l52 -90l-137 -240h-103l137 240l-52 90h103zM357 570l52 -90l-138 -240h-103l138 240l-52 90h103zM752 120h-103l-137 240l51 90l137 -240h103zM683 0h-103l-137 240l51 90l138 -240h103zM100 120l51 90h275l51 -90h-274l-52 -90zM168 0l52 90h274l52 -90h-275 l-51 -90zM789 88q18 0 30.5 -13t12.5 -31t-12.5 -31t-30.5 -13t-30.5 13t-12.5 31t12.5 31t30.5 13zM829 44q0 16 -11.5 28t-28.5 12t-28.5 -12t-11.5 -28t11.5 -28t28.5 -12t28.5 12t11.5 28zM771 69h18q7 0 11 -2q5 -4 5 -11q0 -5 -3 -8q-1 -2 -6 -4q7 -1 8 -9q0 -8 3 -16 h-8q-1 2 -1.5 6.5t-0.5 6.5q-1 10 -11 10h-8v-23h-7v50zM778 47h10q5 0 7 1q3 3 3 7q0 8 -10 8h-10v-16z" />
<glyph unicode="&#x2f;symbol&#x33;&#x2f;" horiz-adv-x="957" d="M505 638l68 -270h270l-203 -135l136 -270l-271 135l-270 -270l135 405l-270 203l338 -68zM814 87q18 0 30.5 -12.5t12.5 -31.5q0 -18 -12.5 -30.5t-30.5 -12.5t-30.5 12.5t-12.5 30.5q0 19 12.5 31.5t30.5 12.5zM854 43q0 17 -11.5 29t-28.5 12t-28.5 -12t-11.5 -29 t12 -28.5t28 -11.5t28 11.5t12 28.5zM796 68h18q8 0 11 -2q6 -3 6 -10q0 -5 -4 -9q-3 -3 -6 -3q7 -3 8 -10q2 -14 3 -16h-7q-1 2 -2 7.5t-1 6.5q0 9 -10 9h-9v-23h-7v50zM803 47h10q5 0 7 1q3 3 3 6q0 9 -10 9h-10v-16z" />
<glyph unicode="&#x2f;symbol&#x35;&#x2f;" horiz-adv-x="705" d="M232 -6l-132 136l124 234l129 -136zM474 -6l-121 234l128 136l124 -234z" />
<glyph unicode="&#x2f;symbol&#x31;&#x2f;" horiz-adv-x="5534" d="M1865 412q-25 0 -40.5 14.5t-15.5 37.5q0 35 32.5 64t70.5 29q24 0 39 -13.5t15 -37.5q0 -36 -31 -65t-70 -29zM1284 412q-26 0 -41.5 14.5t-15.5 37.5q0 35 33 64t71 29q24 0 38.5 -13.5t14.5 -37.5q0 -36 -31 -65t-69 -29zM959 0q0 42 11 108q-16 -50 -51.5 -82.5 t-78.5 -32.5q-41 0 -63 29.5t-22 82.5q0 62 27 121t84 101t132 42q17 0 25 -1l16 73l6 102l136 7q0 -67 -46 -273t-46 -277h-130zM100 0l78 364q17 86 21 136l128 7l11 -15l-104 -492h-134zM3503 492l-57 -492h-131l20 175q5 50 33 215h-3q-31 -102 -81 -215l-76 -175h-149 l-2 175q-2 121 9 215h-2q-32 -130 -59 -215l-53 -175h-109l154 500l184 6l1 -137q2 -134 -15 -259h2q39 126 94 259l56 131l169 7zM5316 300q-37 -177 -37 -183q0 -34 36 -34q25 0 59 18l-9 -79q-52 -29 -114 -29q-105 0 -105 100q0 20 40 210l-47 1l9 44l54 14l53 95l81 6 l13 -15l-20 -86h99l6 -14l-17 -51zM3936 0q0 74 42 260l5 102l137 7q0 -31 -7 -89h2q53 89 134 89q34 0 53 -19.5t19 -51.5q0 -27 -26 -147q-18 -85 -18 -151h-131q0 55 19 150q15 71 15 87q0 24 -17 24q-34 0 -64 -82.5t-32 -178.5h-131zM3768 369q87 0 145 -32l-28 -128 q-31 -145 -31 -209h-130q0 45 12 112q-15 -52 -51 -85.5t-81 -33.5q-41 0 -63 29.5t-22 83.5q0 46 16 91.5t46 84t79 63t108 24.5zM4653 51q-67 -58 -159 -58q-65 0 -103.5 35t-38.5 102q0 94 68.5 166.5t167.5 72.5q54 0 86.5 -23.5t32.5 -64.5q0 -57 -60 -96.5t-161 -43.5 v-1q0 -64 63 -64q42 0 90 28zM2525 369q88 0 146 -32l-29 -128q-31 -145 -31 -209h-130q0 37 12 112q-15 -52 -51 -85.5t-81 -33.5q-41 0 -62.5 29.5t-21.5 83.5q0 62 26.5 120.5t85 100.5t136.5 42zM2245 256q-52 30 -97 30q-18 0 -30 -7t-12 -19q0 -14 20 -26.5t44 -22 t44 -33t20 -56.5q0 -57 -53 -93t-128 -36q-78 0 -118 28l27 93q57 -38 111 -38q19 0 29.5 7.5t10.5 18.5q0 13 -20 26t-44 23t-44 33t-20 55q0 56 54.5 93t128.5 37q58 0 104 -18zM4716 0q0 79 41 260l6 102l137 7q0 -12 -7 -89h2q52 89 134 89q34 0 53 -19.5t19 -51.5 q0 -27 -26 -147q-19 -90 -19 -151h-130q0 55 19 150q15 78 15 87q0 24 -17 24q-35 0 -65 -82t-32 -179h-130zM1752 0q0 69 26 193l15 67l6 102l137 7q0 -46 -27 -177t-27 -192h-130zM1399 362l140 7q13 -129 -5 -289h2q76 151 91 284q22 5 50 5q32 0 48.5 -8.5t16.5 -33.5 q0 -46 -51 -147.5t-116 -179.5h-149q-5 228 -27 362zM1170 0q0 72 27 193l14 67l6 102l137 7q0 -46 -27 -177t-27 -192h-130zM336 0q0 79 41 260l6 102l137 7q0 -31 -7 -89h2q52 89 134 89q34 0 53 -19.5t19 -51.5q0 -27 -26 -147q-18 -85 -18 -151h-131q0 55 19 150 q15 78 15 87q0 24 -17 24q-34 0 -64 -82.5t-32 -178.5h-131zM4490 177q47 10 73 34t26 59q0 31 -22 31q-28 0 -48.5 -38.5t-28.5 -85.5zM2435 101q23 0 47 43.5t37 100.5q3 14 9 44q-14 8 -27 8q-34 0 -62 -54.5t-28 -101.5q0 -40 24 -40zM913 101q22 0 44.5 39.5t37.5 94.5 q1 9 8 40l3 14q-14 8 -27 8q-33 0 -61.5 -54.5t-28.5 -101.5q0 -40 24 -40zM3677 101q23 0 47 43t38 101q1 8 4.5 24.5t4.5 19.5q-16 8 -27 8q-34 0 -62.5 -54.5t-28.5 -101.5q0 -40 24 -40z" />
<glyph unicode="&#x2f;symbol&#x34;&#x2f;" horiz-adv-x="2607" d="M1684 406q0 65 -11 128l126 14l15 -15v-533h-130v406zM1889 406q0 62 -10 128l126 14l14 -15v-533h-130v406zM427 101v-101h-320v362q0 80 -7 135l126 7l14 -14v-396zM925 21l7 109q62 -36 144 -36q50 0 50 36q0 20 -31.5 41.5t-69 40.5t-69 57t-31.5 88q0 69 55 108 t138 39q80 0 127 -18l-14 -111q-56 29 -111 29q-27 0 -42.5 -11t-15.5 -29q0 -20 20.5 -38t50 -34t59.5 -35t50.5 -51t20.5 -72q0 -66 -53.5 -103.5t-139.5 -37.5q-41 0 -83.5 8t-61.5 20zM2405 213q0 -24 -1 -36l-11 -11h-191q14 -83 98 -83q44 0 84 21l7 -81 q-46 -30 -127 -30q-90 0 -144 47.5t-54 134.5q0 85 52 139t132 54q72 0 113.5 -43t41.5 -112zM795 0l-106 -7q-11 16 -21 49h-4q-34 -49 -104 -49q-43 0 -70 23t-27 66q0 113 191 118v20q0 54 -58 54q-55 0 -108 -29l-8 97q72 26 150 26q154 0 154 -135q0 -25 -2 -69t-2 -70 q0 -51 15 -94zM1626 0l-107 -7q-12 20 -21 49h-3q-34 -49 -105 -49q-43 0 -69.5 23t-26.5 66q0 113 191 118v20q0 54 -58 54q-54 0 -109 -29l-7 97q72 26 150 26q153 0 153 -135q0 -25 -1.5 -69.5t-1.5 -69.5q0 -51 15 -94zM2199 207l78 4q2 14 2 26q0 59 -34 59 q-44 0 -46 -89zM654 74v88q-29 -3 -47 -18t-18 -39q0 -18 10 -29t27 -11q16 0 28 9zM1485 74v88q-29 -3 -47 -18t-18 -39q0 -18 10 -29t27 -11q16 0 28 9zM2464 85q18 0 30.5 -13t12.5 -31t-12.5 -31t-30.5 -13t-31 13t-13 31t13 31t31 13zM2504 41q0 17 -12 28.5t-28 11.5 t-28 -11.5t-12 -28.5t12 -28.5t28 -11.5t28 11.5t12 28.5zM2446 66h18q7 0 11 -3q5 -3 5 -10q0 -5 -3 -9q-3 -3 -6 -3q7 -1 8 -10q0 -7 3 -15h-8q-1 2 -1.5 6.5t-0.5 6.5q-1 9 -11 9h-8v-22h-7v50zM2453 44h10q5 0 7 1q3 3 3 7q0 8 -10 8h-10v-16z" />
<glyph unicode=" "  horiz-adv-x="250" />
<glyph unicode="&#x09;" horiz-adv-x="250" />
<glyph unicode="&#xa0;" horiz-adv-x="250" />
<glyph unicode="!" horiz-adv-x="346" d="M80 682l8 8l28 3q65 7 94 7q30 0 43 -12.5t13 -44.5q0 -7 -2 -29l-55 -395h-64zM261 87q0 -42 -28 -69.5t-70 -27.5q-34 0 -57.5 22.5t-23.5 54.5q0 39 30.5 67t71.5 28q32 0 54.5 -21t22.5 -54z" />
<glyph unicode="&#x22;" horiz-adv-x="504" d="M45 763l4 6q71 7 157 7l13 -17l-69 -339h-46l-22 155zM295 763l4 6q71 7 157 7l13 -17l-69 -339h-46l-22 155z" />
<glyph unicode="#" horiz-adv-x="760" d="M220 -10l-82 15l-8 8l39 157h-121l-8 8l12 82h140l42 170h-119l-8 8l12 82h138l45 180l82 -15l8 -8l-39 -157h145l45 180l82 -15l8 -8l-39 -157h118l8 -8l-12 -82h-137l-42 -170h121l8 -8l-12 -82h-140l-45 -180l-82 15l-8 8l39 157h-145zM288 260h145l42 170h-145z" />
<glyph unicode="$" horiz-adv-x="557" d="M304 -137l-62 -3l-8 8v122q-60 1 -109 10t-64 24q-19 19 -19 70q0 84 40 141l30 -3q21 -108 57 -149q37 -43 91 -43q36 0 55.5 21.5t19.5 55.5q0 35 -16 65t-41.5 51.5t-56 42t-61 42t-56 46t-41.5 59t-16 76.5q0 83 58.5 134t148.5 64v130l62 3l8 -8v-122q55 -2 102 -13 t61 -24t14 -51q0 -35 -10.5 -81.5t-29.5 -75.5l-30 2q-16 89 -46 140q-31 53 -82 53q-35 0 -55.5 -24.5t-20.5 -62.5q0 -36 16 -66t41.5 -52t56 -42t61 -41.5t56 -45.5t41.5 -58.5t16 -75.5q0 -82 -57.5 -129.5t-153.5 -59.5v-130z" />
<glyph unicode="%" horiz-adv-x="1031" d="M40 483q0 96 55 156.5t142 60.5q85 0 137.5 -60.5t52.5 -158.5q0 -88 -55 -146.5t-142 -58.5q-85 0 -137.5 57.5t-52.5 149.5zM762 700l-425 -710h-65l424 710h66zM178 482q0 -106 10 -136t45 -30t46 32t11 134q0 106 -11.5 142t-43.5 36t-44.5 -38t-12.5 -140zM604 197 q0 96 55 156.5t142 60.5q85 0 137.5 -60.5t52.5 -158.5q0 -88 -55 -146.5t-142 -58.5q-85 0 -137.5 57.5t-52.5 149.5zM742 196q0 -106 10 -136t45 -30t46 32t11 134q0 106 -11.5 142t-43.5 36t-44.5 -38t-12.5 -140z" />
<glyph unicode="&#x26;" horiz-adv-x="810" d="M343 -10q-129 0 -206 49t-77 135q0 63 45 106.5t119 59.5l-32 39q-57 69 -57 138q0 77 67.5 130t171.5 53q85 0 138 -36.5t53 -90.5q0 -34 -24 -53.5t-65 -19.5q-28 0 -46 7q5 32 5 52q-1 45 -17.5 68t-45.5 23q-28 0 -45 -18.5t-17 -50.5q0 -62 73 -152l187 -227 q4 23 4 53q0 112 -35 161q31 31 75 31q42 0 66 -29t24 -83q0 -110 -70 -203q57 -48 152 -48l4 -14q-59 -81 -159 -81q-64 0 -123 38q-76 -37 -165 -37zM240 199q0 -73 37.5 -116t105.5 -43q49 0 85 18q-27 23 -69 73l-142 170q-17 -45 -17 -102z" />
<glyph unicode="'" horiz-adv-x="254" d="M40 763l4 6q71 7 157 7l13 -17l-69 -339h-46l-22 155z" />
<glyph unicode="(" horiz-adv-x="419" d="M399 -178l-14 -20q-305 142 -305 479t305 479l14 -20q-132 -161 -133 -459q1 -298 133 -459z" />
<glyph unicode=")" horiz-adv-x="419" d="M20 740l14 20q305 -142 305 -479t-305 -479l-14 20q132 161 133 459q-1 298 -133 459z" />
<glyph unicode="*" horiz-adv-x="416" d="M240 506q0 -30 -32 -30t-32 30q0 12 7.5 42.5t9.5 43.5q-8 -7 -31.5 -29.5t-34.5 -28.5q-25 -14 -42 13q-15 27 10 43q11 6 41.5 15t41.5 13q-11 4 -41.5 13t-41.5 15q-25 16 -10 43q17 27 42 13q11 -6 34.5 -28.5t31.5 -29.5q-2 13 -9.5 43.5t-7.5 42.5q0 30 32 30 t32 -30q0 -12 -7.5 -42.5t-9.5 -43.5q8 7 31.5 29.5t34.5 28.5q25 14 42 -13q15 -27 -10 -43q-11 -6 -41.5 -15t-41.5 -13q11 -4 41.5 -13t41.5 -15q25 -16 10 -43q-17 -27 -42 -13q-11 6 -34.5 28.5t-31.5 29.5q2 -13 9.5 -43.5t7.5 -42.5z" />
<glyph unicode="+" d="M530 303h-175v-178h-88l-1 178h-186v85q47 1 186 3l-1 174h90v-173q69 1 177 1l8 -8z" />
<glyph unicode="," horiz-adv-x="296" d="M50 -164q60 69 77 155q-38 4 -62.5 29.5t-24.5 60.5q0 45 35 78.5t82 33.5q45 0 72 -27.5t27 -72.5q0 -84 -59.5 -162.5t-131.5 -107.5z" />
<glyph unicode="-" horiz-adv-x="402" d="M24 251v50h354v-50h-354z" />
<glyph unicode="." horiz-adv-x="290" d="M141 -10q-43 0 -71 26.5t-30 64.5q-1 45 33 78.5t81 33.5q40 0 67.5 -25t28.5 -66q2 -47 -30 -79.5t-79 -32.5z" />
<glyph unicode="/" horiz-adv-x="397" d="M150 -10l-82 20l-8 8l187 742l82 -20l8 -8z" />
<glyph unicode="0" horiz-adv-x="634" d="M32 340q0 160 80.5 260t209.5 100q127 0 203.5 -98.5t76.5 -261.5q0 -155 -80.5 -252.5t-209.5 -97.5q-127 0 -203.5 96t-76.5 254zM217 340q0 -172 20 -233.5t78 -61.5q57 0 79.5 65t22.5 230q0 170 -21.5 237.5t-76.5 67.5q-54 0 -78 -70.5t-24 -234.5z" />
<glyph unicode="1" horiz-adv-x="396" d="M292 55l85 -35l-2 -20h-356l-2 20l30 11q35 13 50 27t15 39v488l-93 20l-2 20l267 75l8 -8v-637z" />
<glyph unicode="2" horiz-adv-x="526" d="M43 0l-13 95q123 75 194.5 166t71.5 179q0 57 -30.5 88.5t-86.5 31.5q-70 0 -135 -67l-20 14q28 90 97.5 141.5t151.5 51.5q93 0 150.5 -54t57.5 -141q0 -35 -12.5 -70.5t-29 -63.5t-47.5 -60t-54.5 -52.5t-64 -49t-61 -41.5t-59.5 -38h239q33 0 50.5 13.5t31.5 46.5 l20 -2q-2 -102 -28 -188h-423z" />
<glyph unicode="3" horiz-adv-x="514" d="M93 294l-7 48q93 10 144.5 44t51.5 90q0 38 -25 61t-71 23q-71 0 -134 -67l-20 14q26 87 96.5 140t151.5 53q84 0 135.5 -43.5t51.5 -108.5q0 -76 -58 -121t-141 -63q94 -10 154 -56.5t60 -127.5q0 -90 -84.5 -140t-195.5 -50q-90 0 -150 26.5t-60 74.5q0 32 36 53t83 21 l8 -8q15 -117 98 -117q40 0 65 28t25 77q0 70 -48 110.5t-114 40.5q-35 0 -52 -2z" />
<glyph unicode="4" horiz-adv-x="575" d="M0 220l346 470l118 -10v-440h95l-8 -90h-87v-150h-180v150h-274zM94 240h190v284z" />
<glyph unicode="5" horiz-adv-x="521" d="M60 337l9 353h410q0 -86 -28 -205l-23 2q-2 38 -13 50.5t-47 12.5h-213l-5 -163q13 1 51 1q137 0 216.5 -52t79.5 -146q0 -93 -74.5 -146.5t-201.5 -53.5q-93 0 -149 27.5t-56 73.5q0 31 34.5 52.5t84.5 21.5l8 -8q15 -117 94 -117q40 0 62.5 29t22.5 81q0 75 -68 122 t-182 52z" />
<glyph unicode="6" horiz-adv-x="589" d="M565 207q0 -95 -73.5 -156t-194.5 -61q-120 0 -192.5 76.5t-72.5 203.5q0 184 136.5 303.5t359.5 126.5l7 -30q-244 -94 -302 -300q64 25 121 25q97 0 154 -51t57 -137zM217 245q0 -86 23.5 -145.5t69.5 -59.5q34 0 54.5 34.5t20.5 91.5q0 69 -35.5 113t-90.5 44 q-23 0 -36 -4q-6 -35 -6 -74z" />
<glyph unicode="7" horiz-adv-x="496" d="M483 690l13 -95q-104 -121 -151.5 -265.5t-61.5 -329.5h-185q13 142 98 286t194 264h-274q-32 0 -49 -12.5t-31 -47.5l-20 2q2 114 28 198h439z" />
<glyph unicode="8" horiz-adv-x="583" d="M559 188q0 -81 -73.5 -139.5t-196.5 -58.5q-116 0 -190.5 45t-74.5 120q0 63 46 104t118 61q-59 38 -92.5 82t-33.5 106q0 83 69 137.5t181 54.5q94 0 154.5 -44t60.5 -113q0 -99 -126 -157q76 -44 117 -87.5t41 -110.5zM227 565q0 -49 34.5 -83.5t100.5 -72.5 q25 57 25 135q0 49 -20.5 77.5t-60.5 28.5q-34 0 -56.5 -23.5t-22.5 -61.5zM194 161q0 -56 27.5 -88.5t72.5 -32.5q40 0 65 26.5t25 68.5q0 24 -11.5 45.5t-32 39t-45 33.5t-52.5 33q-11 6 -16 9q-33 -59 -33 -134z" />
<glyph unicode="9" horiz-adv-x="589" d="M557 410q0 -180 -136.5 -296.5t-359.5 -123.5l-7 30q240 91 299 289q-63 -24 -118 -24q-97 0 -154 52.5t-57 141.5q0 97 73.5 159t194.5 62q120 0 192.5 -79.5t72.5 -210.5zM204 510q0 -67 35 -110t91 -43q20 0 35 3q7 36 7 82q0 91 -21 149.5t-62 58.5q-39 0 -62 -38.5 t-23 -101.5z" />
<glyph unicode=":" horiz-adv-x="290" d="M141 307q-43 0 -71 26.5t-30 64.5q-1 45 33 78.5t81 33.5q40 0 67.5 -25t28.5 -66q2 -47 -30 -79.5t-79 -32.5zM141 -10q-43 0 -71 26.5t-30 64.5q-1 45 33 78.5t81 33.5q40 0 67.5 -25t28.5 -66q2 -47 -30 -79.5t-79 -32.5z" />
<glyph unicode=";" horiz-adv-x="297" d="M148 307q-43 0 -71 26.5t-30 64.5q-1 45 33 78.5t81 33.5q40 0 67.5 -25t28.5 -66q2 -47 -30 -79.5t-79 -32.5zM50 -164q60 69 77 155q-38 4 -62.5 29.5t-24.5 60.5q0 45 35 78.5t82 33.5q45 0 72 -27.5t27 -72.5q0 -84 -59.5 -162.5t-131.5 -107.5z" />
<glyph unicode="&#x3c;" d="M530 93l-455 222v55l4 11q81 42 229.5 112t220.5 98v-95l-311 -148l312 -160v-95z" />
<glyph unicode="=" d="M530 403h-450v85q170 5 452 5l8 -8zM530 203h-450v85q170 5 452 5l8 -8z" />
<glyph unicode="&#x3e;" d="M90 93v95l312 160l-311 148v95q72 -28 220.5 -98t229.5 -112l4 -11v-55z" />
<glyph unicode="?" horiz-adv-x="469" d="M251 227l-8 -8q-41 -4 -66.5 17t-25.5 55q0 26 14.5 49t35 42t40.5 40.5t34.5 54.5t14.5 73q0 43 -17 71.5t-50 28.5q-34 0 -52.5 -28t-18.5 -77q0 -35 8 -64q-29 -16 -71 -16q-40 0 -64.5 23t-24.5 62q0 64 71 107t165 43q101 0 167 -45t66 -125q0 -38 -19 -73.5 t-49.5 -61.5t-57.5 -44.5t-54.5 -33.5t-29.5 -16q-8 -6 -8 -21v-53zM302 87q0 -42 -28 -69.5t-70 -27.5q-34 0 -57.5 22.5t-23.5 54.5q0 39 30.5 67t71.5 28q32 0 54.5 -21t22.5 -54z" />
<glyph unicode="@" horiz-adv-x="1098" d="M823 69q60 0 120 81.5t60 204.5q0 155 -106 255t-271 100q-93 0 -187 -39t-170.5 -106.5t-125 -169t-48.5 -216.5q0 -167 109.5 -278t277.5 -111q63 0 119 13.5t87 28t76 40.5l19 -32q-126 -100 -311 -100q-186 0 -309 123.5t-123 307.5q0 128 52.5 240.5t137 187.5 t190 118t212.5 43q189 0 307.5 -115.5t118.5 -292.5q0 -148 -92.5 -255t-227.5 -107q-88 0 -128 51.5t-29 132.5q1 3 2 8.5t1 8.5h-6q-35 -89 -85.5 -145t-107.5 -56q-54 0 -87.5 44t-33.5 116q0 92 39 173t118 134t181 53q133 0 229 -48l-27 -80l-38 -182q-27 -131 57 -131 zM449 182q0 -60 27 -60q34 0 74 79.5t65 165.5l19 74q-20 19 -50 19q-33 0 -65.5 -48t-51 -112.5t-18.5 -117.5z" />
<glyph unicode="A" horiz-adv-x="716" d="M299 690h118l211 -596q7 -22 17.5 -31.5t32.5 -21.5l30 -16l-2 -25h-337l-2 25l75 28l-47 145l-215 -3l-48 -141l75 -29l-2 -25h-195l-2 25q37 17 49 25q22 17 31 43zM196 245l184 -2l-91 278z" />
<glyph unicode="B" horiz-adv-x="719" d="M37 665l2 25h333q128 0 199 -45t71 -125q0 -58 -35.5 -98t-104.5 -56q185 -41 185 -171q0 -92 -78.5 -143.5t-211.5 -51.5h-358l-2 25l30 15q25 12 35 24t10 33v531zM347 635h-50v-257h50q54 0 84.5 34.5t30.5 97.5q0 60 -30.5 92.5t-84.5 32.5zM352 328h-55v-273h55 q66 0 105.5 38t39.5 101q0 60 -39.5 97t-105.5 37z" />
<glyph unicode="C" horiz-adv-x="698" d="M420 -10q-165 0 -272.5 90.5t-107.5 254.5q0 165 108 265t269 100q123 0 210 -32q10 -34 10 -91q0 -70 -17 -135l-30 -2q-70 135 -115 196q-22 3 -35 3q-90 0 -150.5 -86.5t-59.5 -217.5q1 -126 61 -205.5t149 -79.5q20 0 41 3q54 60 130 187h30q9 -33 9 -93 q0 -73 -12 -135q-108 -22 -218 -22z" />
<glyph unicode="D" horiz-adv-x="762" d="M722 345q0 -166 -99 -255.5t-261 -89.5h-323l-2 25l30 15q25 12 35 24t10 33v531l-75 37l2 25h323q164 0 262 -89.5t98 -255.5zM357 635h-60v-580h60q84 0 129 72.5t46 217.5q1 144 -44.5 217t-130.5 73z" />
<glyph unicode="E" horiz-adv-x="627" d="M297 365l180 10l-3 -70l-177 10v-260h89q36 0 63 4q24 31 52 91l41 90h30q15 -60 15 -134q0 -47 -9 -106h-539l-2 25l30 15q25 12 35 24t10 33v531l-75 37l2 25h529q9 -59 9 -106q0 -74 -15 -134h-30l-41 90q-28 60 -52 91q-27 4 -63 4h-79v-270z" />
<glyph unicode="F" horiz-adv-x="583" d="M297 62l95 -37l-2 -25h-351l-2 25l30 15q25 12 35 24t10 33v531l-75 37l2 25h519q9 -59 9 -106q0 -74 -15 -134h-30l-41 90q-28 60 -52 91q-27 4 -63 4h-69v-290l180 10l-3 -70l-177 10v-233z" />
<glyph unicode="G" horiz-adv-x="745" d="M415 -10q-103 0 -186 36t-136 116t-53 193q0 170 113.5 267.5t281.5 97.5q123 0 212 -32q10 -34 10 -91q0 -70 -17 -135l-30 -2q-70 134 -115 196q-15 4 -49 4q-87 0 -151.5 -83.5t-64.5 -216.5t64 -211.5t151 -78.5q22 0 45 5v203l-75 37l2 25h301l2 -25l-30 -15 q-25 -12 -25 -57v-201q-68 -18 -118.5 -25t-131.5 -7z" />
<glyph unicode="H" horiz-adv-x="834" d="M297 62l75 -37l-2 -25h-331l-2 25l30 15q25 12 35 24t10 33v531l-75 37l2 25h331l2 -25l-30 -15q-25 -12 -35 -24t-10 -33v-216h240v251l-75 37l2 25h331l2 -25l-30 -15q-25 -12 -35 -24t-10 -33v-531l75 -37l-2 -25h-331l-2 25l30 15q25 12 35 24t10 33v223h-240v-258z " />
<glyph unicode="I" horiz-adv-x="409" d="M297 62l75 -37l-2 -25h-331l-2 25l30 15q25 12 35 24t10 33v531l-75 37l2 25h331l2 -25l-30 -15q-25 -12 -35 -24t-10 -33v-531z" />
<glyph unicode="J" horiz-adv-x="393" d="M112 628l-75 37l2 25h331l2 -25l-30 -15q-25 -12 -35 -24t-10 -33v-513q0 -96 -77.5 -169t-167.5 -81l-15 20q75 96 75 270v508z" />
<glyph unicode="K" horiz-adv-x="759" d="M297 62l75 -37l-2 -25h-331l-2 25l30 15q25 12 35 24t10 33v531l-75 37l2 25h331l2 -25l-30 -15q-25 -12 -35 -24t-10 -33v-233h45l206 275l-85 30l2 25h251l2 -25q-39 -13 -66 -30q-25 -16 -56 -50l-128 -141l113 -194q14 -24 35 -63.5t33 -61t31.5 -46t41.5 -39.5 l29 -20l-2 -20l-185 -5q-35 -1 -54.5 13.5t-37.5 48.5l-130 248h-45v-243z" />
<glyph unicode="L" horiz-adv-x="619" d="M112 628l-75 37l2 25h331l2 -25l-30 -15q-25 -12 -35 -24t-10 -33v-538h89q36 0 63 4q28 36 52 91l41 90h30q15 -60 15 -134q0 -47 -9 -106h-539l-2 25l30 15q25 12 35 24t10 33v531z" />
<glyph unicode="M" horiz-adv-x="1005" d="M164 62l78 -37l-2 -25h-206l-2 25l30 15q24 12 33.5 23.5t11.5 33.5l50 531l-75 37l2 25h263l160 -441l162 441h251l2 -25l-75 -37l54 -566l38 -18l37 -19l-2 -25h-335l-2 25l30 15q26 13 36.5 24.5t8.5 32.5l-41 430l-154 -422l-35 -105h-85l-30 105l-158 426z" />
<glyph unicode="N" horiz-adv-x="748" d="M172 62l95 -37l-2 -25h-226l-2 25l30 15q25 12 35 24t10 33v531l-37 19l-38 18l2 25h233l320 -471v409l-75 37l2 25h206l2 -25l-30 -15q-25 -12 -35 -24t-10 -33v-593h-120l-360 513v-451z" />
<glyph unicode="O" horiz-adv-x="760" d="M40 345q0 165 98.5 260t242.5 95q150 0 244.5 -91.5t94.5 -258.5q0 -168 -96 -264t-245 -96q-151 0 -245 95t-94 260zM230 345q-1 -139 39 -219.5t113 -80.5q71 0 109 82.5t39 222.5q1 138 -37 216.5t-112 78.5q-71 0 -110.5 -80.5t-40.5 -219.5z" />
<glyph unicode="P" horiz-adv-x="673" d="M297 62l95 -37l-2 -25h-351l-2 25l30 15q25 12 35 24t10 33v531l-75 37l2 25h328q127 0 208.5 -57t81.5 -158t-81.5 -158t-208.5 -57h-70v-198zM352 635h-55v-320h55q54 0 84.5 43t30.5 117t-30.5 117t-84.5 43z" />
<glyph unicode="Q" horiz-adv-x="760" d="M40 345q0 165 98.5 260t242.5 95q150 0 244.5 -91.5t94.5 -258.5q0 -151 -78.5 -244.5t-205.5 -111.5q152 -42 277 -42q23 0 53 5l10 -5q17 -24 17 -53q0 -45 -28.5 -69.5t-74.5 -24.5q-70 0 -172.5 56.5t-182.5 130.5q-134 14 -214.5 107t-80.5 246zM230 345 q-1 -139 39 -219.5t113 -80.5q71 0 109 82.5t39 222.5q1 138 -37 216.5t-112 78.5q-71 0 -110.5 -80.5t-40.5 -219.5z" />
<glyph unicode="R" horiz-adv-x="759" d="M297 62l75 -37l-2 -25h-331l-2 25l30 15q25 12 35 24t10 33v531l-75 37l2 25h338q130 0 205 -53t75 -140q0 -115 -123 -178l42 -69q14 -23 36.5 -63.5t34.5 -61t32.5 -45t42.5 -40.5l29 -20l-2 -20l-185 -5q-35 -1 -54.5 13.5t-37.5 48.5l-114 223h-61v-218zM352 635h-55 v-300h55q54 0 84.5 41t30.5 110q0 68 -30.5 108.5t-84.5 40.5z" />
<glyph unicode="S" horiz-adv-x="562" d="M239 -10q-154 0 -188 34q-19 19 -19 70q0 84 40 141l30 -3q21 -108 57 -149q38 -43 101 -43q44 0 67 24t23 63q0 44 -31.5 80t-77 63.5t-91 56.5t-77 73t-31.5 99q0 96 80.5 148.5t200.5 52.5q59 0 114 -11.5t70 -25.5q14 -13 14 -51q0 -35 -10.5 -81.5t-29.5 -75.5 l-30 2q-16 89 -46 140q-30 53 -87 53q-44 0 -70 -27.5t-26 -69.5q0 -37 23 -68.5t57 -52.5t74 -47.5t74 -52t57 -66.5t23 -91q0 -185 -291 -185z" />
<glyph unicode="T" horiz-adv-x="668" d="M427 62l75 -37l-2 -25h-331l-2 25l30 15q25 12 35 24t10 33v538h-17q-36 0 -63 -4q-24 -31 -52 -91l-41 -90h-30q-15 60 -15 134q0 47 9 106h602q9 -59 9 -106q0 -74 -15 -134h-30l-41 90q-28 60 -52 91q-27 4 -63 4h-16v-573z" />
<glyph unicode="U" horiz-adv-x="682" d="M75 245v383l-75 37l2 25h331l2 -25l-30 -15q-25 -12 -35 -24t-10 -33v-352q0 -93 37.5 -142t103.5 -49q69 0 106.5 48t37.5 144v386l-75 37l2 25h206l2 -25l-75 -37v-383q0 -255 -255 -255q-130 0 -202.5 65t-72.5 190z" />
<glyph unicode="V" horiz-adv-x="716" d="M417 0h-118l-211 596q-8 22 -18 32t-32 21l-30 16l2 25h337l2 -25l-75 -28l153 -468l157 467l-75 29l2 25h195l2 -25q-9 -5 -25 -12t-23 -11q-20 -14 -32 -45z" />
<glyph unicode="W" horiz-adv-x="1067" d="M397 0h-118l-191 596q-7 22 -17.5 31.5t-32.5 21.5l-30 16l2 25h337l2 -25l-75 -28l133 -463l100 334l-28 88q-8 25 -15 34t-25 19l-30 16l2 25h327l2 -25l-75 -28l133 -463l138 462l-76 29l2 25h195l2 -25q-9 -5 -25.5 -12t-23.5 -11q-21 -14 -31 -45l-191 -597h-118 l-137 426z" />
<glyph unicode="X" horiz-adv-x="731" d="M138 105l146 206l-183 285q-18 30 -33 43t-47 26l2 25h341l2 -25l-75 -28l131 -206l123 204l-75 30l2 25h241l2 -25q-43 -14 -69 -30q-30 -19 -53 -50l-142 -200l184 -291q22 -32 38 -45q9 -7 42 -24l-2 -25h-336l-2 25l75 28l-137 213l-127 -211l75 -30l-2 -25h-241 l-2 25q50 18 69 30q31 19 53 50z" />
<glyph unicode="Y" horiz-adv-x="701" d="M443 62l75 -37l-2 -25h-331l-2 25l30 15q25 12 35 24t10 33v203l-167 296q-14 26 -26.5 36.5t-36.5 22.5l-20 10l2 25h342l2 -25l-76 -28l142 -286l146 287l-75 27l2 25h198l2 -25q-36 -17 -48 -27q-18 -13 -34 -41l-168 -298v-237z" />
<glyph unicode="Z" horiz-adv-x="661" d="M594 0h-536l-10 50l357 585h-136q-36 0 -63 -4l-103 -181h-30q-15 60 -15 134q0 47 9 106h536l10 -50l-356 -585h135q36 0 63 4l103 181h30q15 -57 15 -130q0 -49 -9 -110z" />
<glyph unicode="[" horiz-adv-x="434" d="M394 -198h-274v958h274v-33h-104v-892h104v-33z" />
<glyph unicode="\" horiz-adv-x="397" d="M247 -10l-187 742l8 8l82 20l187 -742l-8 -8z" />
<glyph unicode="]" horiz-adv-x="434" d="M40 760h274v-958h-274v33h104v892h-104v33z" />
<glyph unicode="^" horiz-adv-x="526" d="M175 210h-95l150 340h66l150 -340h-95l-90 208z" />
<glyph unicode="_" horiz-adv-x="584" d="M24 -150v70h536v-70h-536z" />
<glyph unicode="`" horiz-adv-x="381" d="M315 578l-11 -16q-105 26 -171.5 67.5t-66.5 81.5q0 57 95 57q23 0 34 -1l11 -8q42 -86 109 -181z" />
<glyph unicode="a" horiz-adv-x="575" d="M314 510q89 0 137.5 -45t48.5 -132q0 -16 -2.5 -93.5t-2.5 -91.5q0 -68 46 -68q15 0 35 4l4 -14q-23 -39 -61 -59.5t-81 -20.5q-42 0 -72 18.5t-41 48.5q-23 -30 -64 -48.5t-86 -18.5q-59 0 -97 31.5t-38 85.5q0 75 75 117.5t205 44.5v125q0 66 -47 66q-55 0 -55 -75 q0 -26 4 -50q-40 -20 -81 -20q-35 0 -56.5 14t-21.5 39q0 51 77.5 96.5t173.5 45.5zM220 142q0 -62 55 -62q29 0 45 14v141q-100 -13 -100 -93z" />
<glyph unicode="b" horiz-adv-x="609" d="M80 -10l-8 8v656l-58 34l-2 14q44 21 110.5 37.5t121.5 20.5l8 -8v-308q56 66 140 66q83 0 134 -68t51 -179q0 -127 -69 -200t-185 -73q-68 0 -121 25zM289 40q103 0 103 193q0 177 -89 177q-25 0 -51 -17v-344q15 -9 37 -9z" />
<glyph unicode="c" horiz-adv-x="501" d="M493 125q-63 -135 -218 -135q-111 0 -177 67t-66 179q0 121 74.5 197.5t192.5 76.5q83 0 134.5 -37.5t51.5 -90.5q0 -36 -24 -56.5t-65 -20.5q-31 0 -66 17v3q0 72 -9.5 103.5t-34.5 31.5q-31 0 -50 -44.5t-19 -117.5q0 -193 151 -193q58 0 110 32z" />
<glyph unicode="d" horiz-adv-x="617" d="M622 70q-48 -80 -143 -80q-85 0 -114 70q-48 -70 -139 -70q-87 0 -140.5 68t-53.5 177q0 128 75 201.5t201 73.5q28 0 49 -4v148l-78 34l-2 14q110 49 252 58l8 -8v-607q0 -65 47 -65q18 0 34 4zM217 269q0 -88 25 -138.5t72 -50.5q28 0 43 13v360q-18 7 -35 7 q-51 0 -78 -50t-27 -141z" />
<glyph unicode="e" horiz-adv-x="526" d="M498 125q-63 -135 -217 -135q-113 0 -181 68t-68 182q0 120 73 195t182 75q92 0 153.5 -54.5t61.5 -144.5q0 -34 -1 -45l-15 -15h-266q7 -75 42 -110.5t100 -35.5q66 0 121 32zM280 460q-31 0 -47 -44t-16 -114v-10l104 6q1 11 1 41q0 67 -10 94t-32 27z" />
<glyph unicode="f" horiz-adv-x="393" d="M268 55l85 -35l-2 -20h-326l-2 20l30 16q35 19 35 61v333h-63l-2 20l65 35v25q0 100 80.5 175t186.5 75q73 0 121.5 -37t48.5 -87q0 -35 -24 -55t-60 -20q-29 0 -62 14q0 73 -10 104t-37 31q-30 0 -47 -34t-17 -96v-100h117v-50h-117v-375z" />
<glyph unicode="g" horiz-adv-x="539" d="M32 318q0 81 67.5 136.5t168.5 55.5q82 0 138 -37q35 102 91 102q42 0 42 -57q0 -29 -6 -51q-4 -14 -25 -15q-3 0 -30 -0.5t-42 -2.5q46 -48 46 -116q0 -82 -64 -136t-166 -54q-28 0 -49 4q-3 -11 -3 -21q0 -19 12.5 -25.5t46.5 -8.5l95 -6q85 -5 131.5 -41t46.5 -102 q0 -89 -81.5 -146t-217.5 -57q-95 0 -155.5 28t-60.5 75q0 38 37.5 63.5t86.5 25.5l8 -8q3 -61 48 -97.5t110 -36.5q50 0 81 21t31 53q0 50 -77 60l-131 16q-130 16 -130 102q0 77 78 115q-59 20 -93 62.5t-34 98.5zM302 325q0 78 -10 109t-34 31q-25 0 -35.5 -31 t-10.5 -105q0 -75 11 -108t36 -33q24 0 33.5 31t9.5 106z" />
<glyph unicode="h" horiz-adv-x="645" d="M260 55l65 -35l-2 -20h-306l-2 20l30 16q35 19 35 61v557l-58 34l-2 14q44 21 110.5 37.5t121.5 20.5l8 -8v-309q80 67 165 67q66 0 103 -39t37 -111v-305l65 -35l-2 -20h-231l-12 12v325q0 73 -60 73q-30 0 -65 -17v-338z" />
<glyph unicode="i" horiz-adv-x="348" d="M269 678q0 -46 -31 -77t-77 -31q-39 0 -64.5 25t-25.5 61q0 43 33.5 74t79.5 31q36 0 60.5 -23t24.5 -60zM268 55l65 -35l-2 -20h-306l-2 20l30 16q35 19 35 61v307l-58 34l-2 14q44 21 110.5 37.5t121.5 20.5l8 -8v-447z" />
<glyph unicode="j" horiz-adv-x="332" d="M259 673q0 -46 -31 -77t-77 -31q-39 0 -64.5 25t-25.5 61q0 43 33.5 74t79.5 31q36 0 60.5 -23t24.5 -60zM5 -240q75 96 75 270v374l-58 34l-2 14q44 21 110.5 37.5t121.5 20.5l8 -8v-512q0 -96 -76 -169t-164 -81z" />
<glyph unicode="k" horiz-adv-x="635" d="M260 55l65 -35l-2 -20h-306l-2 20l30 16q35 19 35 61v557l-58 34l-2 14q44 21 110.5 37.5t121.5 20.5l8 -8v-472h42l130 165l-85 35l2 20h251l2 -20q-37 -15 -68 -34q-29 -18 -64 -50l-45 -43l136 -259q21 -41 45 -56l29 -18l-2 -20h-160q-37 0 -56.5 14t-35.5 48 l-79 168h-42v-175z" />
<glyph unicode="l" horiz-adv-x="340" d="M260 55l65 -35l-2 -20h-306l-2 20l30 16q35 19 35 61v557l-58 34l-2 14q44 21 110.5 37.5t121.5 20.5l8 -8v-697z" />
<glyph unicode="m" horiz-adv-x="958" d="M268 55l65 -35l-2 -20h-306l-2 20l30 16q35 19 35 61v307l-58 34l-2 14q44 21 110.5 37.5t121.5 20.5l8 -8v-60q80 68 165 68q97 0 128 -78q85 78 177 78q66 0 103 -39t37 -111v-305l65 -35l-2 -20h-231l-12 12v325q0 38 -14 55.5t-45 17.5q-30 0 -68 -18q2 -20 2 -32 v-305l65 -35l-2 -20h-231l-12 12v325q0 38 -14 55.5t-45 17.5q-32 0 -66 -17v-338z" />
<glyph unicode="n" horiz-adv-x="653" d="M268 55l65 -35l-2 -20h-306l-2 20l30 16q35 19 35 61v307l-58 34l-2 14q44 21 110.5 37.5t121.5 20.5l8 -8v-60q80 68 165 68q66 0 103 -39t37 -111v-305l65 -35l-2 -20h-231l-12 12v325q0 38 -14 55.5t-45 17.5q-32 0 -66 -17v-338z" />
<glyph unicode="o" horiz-adv-x="564" d="M532 250q0 -115 -71 -187.5t-184 -72.5q-111 0 -178 71t-67 189q0 115 71 187.5t184 72.5q111 0 178 -71t67 -189zM217 250q0 -122 13 -166t50 -44q38 0 52.5 46t14.5 164q0 117 -14 163.5t-49 46.5q-36 0 -51.5 -48.5t-15.5 -161.5z" />
<glyph unicode="p" horiz-adv-x="617" d="M260 -195l85 -35l-2 -20h-326l-2 20l30 16q35 19 35 61v557l-58 34l-2 14q44 21 110.5 37.5t121.5 20.5l8 -8v-58q56 66 140 66q82 0 133.5 -68t51.5 -177q0 -130 -74.5 -202.5t-205.5 -72.5q-15 0 -45 2v-187zM305 40q44 0 69.5 50.5t25.5 137.5q0 182 -88 182 q-26 0 -52 -17v-343q17 -10 45 -10z" />
<glyph unicode="q" horiz-adv-x="609" d="M537 -195l65 -35l-2 -20h-306l-2 20l30 16q35 19 35 61v202q-52 -60 -130 -59q-88 1 -141.5 65t-53.5 175q0 133 73 206.5t186 73.5q65 0 117 -25l121 25l8 -8v-697zM323 460q-51 0 -78.5 -51.5t-27.5 -143.5q0 -87 24.5 -136t68.5 -49q32 0 47 13v359q-18 8 -34 8z" />
<glyph unicode="r" horiz-adv-x="458" d="M268 55l85 -35l-2 -20h-326l-2 20l30 16q35 19 35 61v307l-58 34l-2 14q44 21 110.5 37.5t121.5 20.5l8 -8v-77q63 85 122 85q30 0 49 -19t19 -53q0 -53 -47 -105h-20q-52 33 -113 45l-10 -4v-319z" />
<glyph unicode="s" horiz-adv-x="483" d="M205 -10q-123 0 -154 29q-19 19 -19 63q0 61 40 101l15 -3q14 -59 50 -100q35 -40 77 -40q28 0 42.5 14t14.5 37q0 29 -23.5 53.5t-57 43.5t-67 40.5t-57 54t-23.5 73.5q0 73 67 113.5t170 40.5q48 0 89.5 -8.5t53.5 -18.5q14 -12 14 -48q0 -65 -40 -108l-15 2 q-16 58 -41 93q-27 38 -64 38q-25 0 -39.5 -14t-14.5 -37q0 -29 23.5 -53t57 -43t67 -40.5t57 -55t23.5 -76.5q0 -74 -66 -112.5t-180 -38.5z" />
<glyph unicode="t" horiz-adv-x="415" d="M407 125q-25 -57 -72 -96t-118 -39q-145 0 -145 170v270h-63l-2 20l66 55l159 135l20 -2v-158h125v-50h-125v-245q0 -80 64 -80q41 0 76 32z" />
<glyph unicode="u" horiz-adv-x="653" d="M80 145v259l-58 34l-2 14q44 21 110.5 37.5t121.5 20.5l8 -8v-336q0 -42 15.5 -61.5t49.5 -19.5q29 0 60 14v305l-58 34l-2 14q44 21 110.5 37.5t121.5 20.5l8 -8v-357q0 -65 43 -65q19 0 38 4l4 -14q-48 -80 -144 -80q-81 0 -111 66q-71 -66 -160 -66q-72 0 -113.5 40.5 t-41.5 114.5z" />
<glyph unicode="v" horiz-adv-x="548" d="M470 407l-147 -407h-108l-146 406q-9 25 -28 46q-16 17 -41 28l2 20h313l2 -20l-67 -33l88 -291l95 293l-66 31l2 20h177l2 -20q-26 -9 -46 -25q-21 -20 -32 -48z" />
<glyph unicode="w" horiz-adv-x="786" d="M501 500l103 -309l66 258l-70 31l2 20h182l2 -20q-28 -10 -47 -26q-23 -18 -31 -47l-117 -407h-108l-91 268l-99 -268h-108l-116 406q-7 25 -28 46q-19 19 -41 28l2 20h308l2 -20l-62 -33l62 -257l111 310h78z" />
<glyph unicode="x" horiz-adv-x="571" d="M262 447l90 -139l80 137l-65 35l2 20h195l2 -20q-28 -11 -53 -34q-20 -20 -42 -50l-94 -127l114 -175q20 -32 38 -48q14 -12 42 -26l-2 -20h-306l-2 20l55 33l-91 138l-79 -136l65 -35l-2 -20h-207l-2 20q34 13 60 34q23 19 46 50l93 126l-117 176q-18 27 -36 45t-41 29 l2 20h308l2 -20z" />
<glyph unicode="y" horiz-adv-x="548" d="M281 0h-66l-146 406q-9 25 -28 46q-16 18 -41 28l2 20h308l2 -20l-62 -33l86 -284l97 285l-71 32l2 20h182l2 -20q-28 -9 -49 -27q-15 -14 -28 -46l-166 -457q-41 -114 -84 -162t-93 -48q-36 0 -58 25.5t-22 66.5q0 32 14 63l10 4q30 -10 59 -10q45 0 89 30t61 81z" />
<glyph unicode="z" horiz-adv-x="512" d="M477 78q0 -39 -9 -78h-426l-10 50l256 400h-120l-92 -134h-20q-17 54 -17 106q0 39 9 78h422l10 -50l-257 -400h125l92 134h20q17 -54 17 -106z" />
<glyph unicode="{" horiz-adv-x="459" d="M80 294q55 7 78.5 34t23.5 80q0 35 -15.5 105.5t-15.5 105.5q0 76 62 108.5t203 32.5l3 -32q-43 0 -66.5 -24.5t-23.5 -67.5q0 -37 12.5 -109t12.5 -108q0 -54 -40.5 -90t-108.5 -49q68 -13 108.5 -49t40.5 -90q0 -31 -12.5 -105t-12.5 -112q0 -43 23.5 -67.5t66.5 -24.5 l-3 -32q-141 0 -203 32.5t-62 108.5q0 37 15.5 110.5t15.5 100.5q0 52 -23.5 79.5t-78.5 34.5v28z" />
<glyph unicode="|" horiz-adv-x="325" d="M128 -260l-8 8v1009l77 3l8 -8v-1009z" />
<glyph unicode="}" horiz-adv-x="459" d="M379 294v-28q-55 -7 -78.5 -34.5t-23.5 -79.5q0 -27 15.5 -100.5t15.5 -110.5q0 -76 -62 -108.5t-203 -32.5l-3 32q43 0 66.5 24.5t23.5 67.5q0 38 -12.5 112t-12.5 105q0 54 40.5 90t108.5 49q-68 13 -108.5 49t-40.5 90q0 36 12.5 108t12.5 109q0 43 -23.5 67.5 t-66.5 24.5l3 32q141 0 203 -32.5t62 -108.5q0 -35 -15.5 -105.5t-15.5 -105.5q0 -53 23.5 -80t78.5 -34z" />
<glyph unicode="~" d="M441 212q-25 0 -139 25t-129 25q-10 0 -49 -47q-5 -7 -8 -10l-51 34q18 34 31.5 54.5t37 42.5t45.5 22q25 0 139.5 -25t128.5 -25q10 0 49 47q5 7 8 10l51 -34q-18 -34 -31.5 -54.5t-37 -42.5t-45.5 -22z" />
<glyph unicode="&#xa1;" horiz-adv-x="346" d="M85 413q0 42 28 69.5t70 27.5q34 0 57.5 -22.5t23.5 -54.5q0 -39 -30.5 -67t-71.5 -28q-32 0 -54.5 21t-22.5 54zM266 -182l-8 -8l-28 -3q-65 -7 -94 -7q-30 0 -43 12.5t-13 44.5q0 7 2 29l55 395h64z" />
<glyph unicode="&#xa2;" horiz-adv-x="517" d="M322 -137l-62 -3l-8 8v123q-101 7 -160.5 79t-59.5 186q0 116 60.5 194.5t159.5 95.5v131l62 3l8 -8v-123q73 -5 118 -41.5t45 -85.5q0 -36 -24 -56.5t-65 -20.5q-31 0 -66 17v3q0 72 -9.5 103.5t-34.5 31.5q-31 0 -50 -50t-19 -132q0 -213 151 -213q58 0 110 32l15 -12 q-53 -113 -171 -131v-131z" />
<glyph unicode="&#xa3;" horiz-adv-x="664" d="M79 292l8 70h114q4 61 7 88q13 127 92 188.5t190 61.5q66 0 104 -25.5t38 -64.5q0 -38 -24 -62t-56 -33q-12 34 -18.5 49.5t-17.5 38t-22 32t-23 9.5q-32 0 -47.5 -43.5t-34.5 -143.5q-1 -5 -1 -7l-16 -88h145l-8 -70h-151l-8 -45q-21 -110 -107 -184q164 -56 309 -56 q5 0 60 5q12 -21 12 -48q0 -51 -28 -77.5t-78 -26.5q-78 0 -175.5 47t-163.5 109q-63 -36 -108 -36q-27 0 -41 14.5t-14 37.5q0 27 21.5 49t55.5 22q28 0 85 -19q12 51 20 208h-119z" />
<glyph unicode="&#xa4;" horiz-adv-x="560" d="M454 105l-69 72q-48 -32 -113 -32q-58 0 -103 25l-65 -65l-64 64l63 63q-29 47 -29 106q0 67 35 120l-65 67l60 60q38 -36 68 -67q46 27 106 27q62 0 108 -30l70 70l64 -64l-71 -71q25 -47 25 -101q0 -57 -28 -107q28 -29 74 -75v-11zM274 455q-49 0 -77 -32.5t-28 -78.5 q0 -43 28.5 -76t77.5 -33q52 0 78 32t26 79q0 44 -28 76.5t-77 32.5z" />
<glyph unicode="&#xa5;" horiz-adv-x="701" d="M118 125v60h140v70h-140v60h140v3l-167 278q-11 19 -22 30.5t-18 16t-23 12.5l-20 10l2 25h342l2 -25l-75 -28l139 -264l147 265l-74 27l2 25h198l2 -25q-36 -17 -48 -27q-16 -11 -34 -41l-168 -281v-1h140v-60h-140v-70h140v-60h-140v-63l75 -37l-2 -25h-331l-2 25 l30 15q25 12 35 24t10 33v28h-140z" />
<glyph unicode="&#xa6;" horiz-adv-x="325" d="M205 348l-77 -3l-8 8v404l77 3l8 -8v-404zM205 -257l-77 -3l-8 8v400l77 3l8 -8v-400z" />
<glyph unicode="&#xa7;" horiz-adv-x="584" d="M544 91q0 -111 -85.5 -186.5t-205.5 -75.5q-95 0 -154 28.5t-59 78.5t51 89l25 -2q69 -86 159 -144q12 5 20.5 21.5t8.5 36.5q0 43 -27 92t-66 96t-78 96.5t-66 107.5t-27 114q0 108 87 182.5t204 74.5q95 0 154 -27.5t59 -76.5q0 -53 -51 -92l-25 2q-77 96 -159 144 q-29 -29 -29 -77q0 -39 27 -84.5t66 -89t78 -90t66 -104t27 -114.5zM130 468q0 -56 25.5 -110t62 -98t73 -87t62 -93t25.5 -101q0 -32 -9 -66l10 -5q74 50 74 153q0 60 -25.5 115.5t-61.5 97.5t-72.5 82.5t-62 88t-25.5 97.5q0 28 8 72l-10 5q-33 -22 -53.5 -61.5 t-20.5 -89.5z" />
<glyph unicode="&#xa8;" horiz-adv-x="548" d="M482 677q0 -41 -28 -69t-69 -28q-34 0 -56 22.5t-22 54.5q0 40 29 68.5t70 28.5q32 0 54 -21.5t22 -55.5zM241 677q0 -41 -28 -69t-69 -28q-34 0 -56 22.5t-22 54.5q0 40 29 68.5t70 28.5q32 0 54 -21.5t22 -55.5z" />
<glyph unicode="&#xa9;" horiz-adv-x="680" d="M340 -50q-128 0 -214 86t-86 214q0 124 88 212t212 88q127 0 213.5 -87.5t86.5 -212.5q0 -124 -88 -212t-212 -88zM340 0q103 0 176.5 73.5t73.5 176.5q0 104 -73 177t-177 73q-103 0 -176.5 -73.5t-73.5 -176.5q0 -106 72 -178t178 -72zM489 169q-50 -89 -142 -89 q-64 0 -111.5 47t-47.5 122q0 74 47 122.5t120 48.5q52 0 87.5 -25.5t35.5 -61.5q0 -21 -14.5 -34t-33.5 -13q-31 0 -52 11v2q0 38 -6 54.5t-23 16.5q-19 0 -30 -25t-11 -68q0 -107 88 -107q35 0 73 19z" />
<glyph unicode="&#xaa;" horiz-adv-x="499" d="M266 700q73 0 113 -35.5t40 -104.5q0 -12 -2 -71t-2 -69q0 -53 38 -53q10 0 28 3l4 -11q-40 -65 -118 -65q-35 0 -60 14t-34 38q-19 -23 -52.5 -37.5t-70.5 -14.5q-48 0 -79 24.5t-31 67.5q0 59 61.5 91.5t167.5 34.5v98q0 50 -37 50q-44 0 -44 -57q0 -26 3 -40 q-33 -16 -68 -16q-29 0 -46.5 11t-17.5 31q0 40 64 75.5t143 35.5zM190 415q0 -48 44 -48q22 0 35 9v109q-79 -9 -79 -70z" />
<glyph unicode="&#xab;" horiz-adv-x="555" d="M270 31l-18 -11q-91 100 -186 180l-6 9v90q141 132 195 189l16 -11q-47 -124 -87 -224q47 -111 86 -222zM494 31l-18 -11q-91 100 -186 180l-6 9v90q141 132 195 189l16 -11q-48 -124 -87 -224q47 -111 86 -222z" />
<glyph unicode="&#xac;" d="M530 414v-253h-90v171h-370v85q170 5 452 5z" />
<glyph unicode="&#xae;" horiz-adv-x="680" d="M340 -50q-128 0 -214 86t-86 214q0 124 88 212t212 88q127 0 213.5 -87.5t86.5 -212.5q0 -124 -88 -212t-212 -88zM340 0q115 0 191 89l-78 -3q-28 -1 -45 26l-60 95h-22v-78l30 -15l-2 -24h-176l-2 24l16 8q10 5 12 11.5t2 25.5v191q0 22 -15 29l-15 7l2 24h191 q70 0 109 -25.5t39 -69.5q0 -55 -59 -83q5 -9 15.5 -27.5t16.5 -29t14.5 -23.5t16.5 -21t16 -11l13 -5q40 62 40 135q0 104 -73 177t-177 73q-103 0 -176.5 -73.5t-73.5 -176.5q0 -106 72 -178t178 -72zM351 365h-25v-113h25q53 0 53 58q0 55 -53 55z" />
<glyph unicode="&#xaf;" horiz-adv-x="484" d="M66 612v82h352v-82h-352z" />
<glyph unicode="&#xb0;" horiz-adv-x="335" d="M164 446q-56 0 -90 34t-34 89q0 59 37 95.5t95 36.5q54 0 88.5 -34t34.5 -88q0 -58 -36.5 -95.5t-94.5 -37.5zM168 651q-33 0 -53 -22.5t-20 -57.5q0 -32 20.5 -53.5t51.5 -21.5q33 0 53 23t20 58q0 32 -20 53t-52 21z" />
<glyph unicode="&#xb1;" d="M510 398h-155v-143h-88l-1 143h-166v85q46 1 166 3l-1 139h90v-138q61 1 157 1l8 -8zM530 75h-450v85q170 5 452 5l8 -8z" />
<glyph unicode="&#xb2;" horiz-adv-x="381" d="M46 342l-9 76q73 18 120.5 66.5t47.5 96.5q0 30 -19.5 46.5t-55.5 16.5q-37 0 -84 -28l-14 11q18 63 65 98t104 35q63 0 102 -33.5t39 -86.5q0 -34 -18 -66t-47 -56t-58 -41t-59 -29h122q35 0 54 21l13 -1q0 -67 -19 -126h-284z" />
<glyph unicode="&#xb3;" horiz-adv-x="396" d="M98 508l-5 35q124 2 124 58q0 19 -15.5 31t-44.5 12q-35 0 -82 -26l-14 11q17 59 64.5 95t102.5 36q57 0 92 -27.5t35 -66.5q0 -90 -131 -103q62 -6 101 -35t39 -78q0 -40 -30 -67t-71 -37t-89 -10q-62 0 -102 14.5t-40 42.5q0 22 26.5 35.5t60.5 9.5l8 -6q13 -60 58 -60 q22 0 35.5 12.5t13.5 33.5q0 41 -31 66t-72 25q-27 0 -33 -1z" />
<glyph unicode="&#xb4;" horiz-adv-x="381" d="M315 711q0 -40 -66.5 -81.5t-171.5 -67.5l-11 16q67 95 109 181l11 8q11 1 34 1q95 0 95 -57z" />
<glyph unicode="&#xb6;" horiz-adv-x="628" d="M314 -121q51 0 80 41t29 106v609h-90v-425q-129 0 -211 64t-82 176t82 176t208 64h256l2 -25l-30 -15q-25 -12 -35 -24t-10 -33v-518q0 -119 -60.5 -182.5t-158.5 -63.5q-83 0 -141 28t-58 86q0 32 22 60t65 43l18 -10q14 -157 114 -157z" />
<glyph unicode="&#xb7;" horiz-adv-x="370" d="M181 167q-43 0 -71 26.5t-30 64.5q-1 45 33 78.5t81 33.5q40 0 67.5 -25t28.5 -66q2 -47 -30 -79.5t-79 -32.5z" />
<glyph unicode="&#xb8;" horiz-adv-x="366" d="M104 -123l-6 10l20 113h61l-11 -57q63 -6 97.5 -29.5t34.5 -59.5q0 -54 -58 -84.5t-171 -30.5l-5 15q81 39 81 82q0 15 -12 26t-31 15z" />
<glyph unicode="&#xb9;" horiz-adv-x="316" d="M229 381l55 -26l-1 -13h-249l-2 13l17 6q24 11 35 21.5t11 28.5v260l-61 16l-2 14l192 59l5 -4v-375z" />
<glyph unicode="&#xba;" horiz-adv-x="476" d="M444 497q0 -89 -58.5 -146t-152.5 -57q-91 0 -146 55.5t-55 147.5q0 90 58.5 146.5t151.5 56.5q91 0 146.5 -55.5t55.5 -147.5zM186 497q0 -96 10.5 -129.5t39.5 -33.5q30 0 41.5 35.5t11.5 127.5t-11 127.5t-39 35.5q-29 0 -41 -37.5t-12 -125.5z" />
<glyph unicode="&#xbb;" horiz-adv-x="555" d="M495 209q-141 -132 -195 -189l-16 11q47 124 87 224q-47 111 -86 222l18 11q91 -100 186 -180l6 -9v-90zM271 209q-141 -132 -195 -189l-16 11q47 124 87 224q-47 111 -86 222l18 11q91 -100 186 -180l6 -9v-90z" />
<glyph unicode="&#xbc;" horiz-adv-x="1000" d="M715 700l-425 -710h-65l424 710h66zM287 321l55 -26l-1 -13h-249l-2 13l17 6q24 11 35 21.5t11 28.5v260l-61 16l-2 14l192 59l5 -4v-375zM524 132l229 276l88 -8v-253h59l-5 -70h-54v-77h-134v77h-177zM593 147h114v135z" />
<glyph unicode="&#xbd;" horiz-adv-x="1000" d="M715 700l-425 -710h-65l424 710h66zM287 321l55 -26l-1 -13h-249l-2 13l17 6q24 11 35 21.5t11 28.5v260l-61 16l-2 14l192 59l5 -4v-375zM597 0l-9 76q73 18 120.5 66.5t47.5 96.5q0 30 -19.5 46.5t-55.5 16.5q-37 0 -84 -28l-14 11q18 63 65 98t104 35q63 0 102 -33.5 t39 -86.5q0 -34 -18 -66t-47 -56t-58 -41t-59 -29h122q35 0 54 21l13 -1q0 -67 -19 -126h-284z" />
<glyph unicode="&#xbe;" horiz-adv-x="1000" d="M136 448l-5 35q124 2 124 58q0 19 -15.5 31t-44.5 12q-35 0 -82 -26l-14 11q17 59 64.5 95t102.5 36q57 0 92 -27.5t35 -66.5q0 -90 -131 -103q62 -6 101 -35t39 -78q0 -40 -30 -67t-71 -37t-89 -10q-62 0 -102 14.5t-40 42.5q0 22 26.5 35.5t60.5 9.5l8 -6 q13 -60 58 -60q22 0 35.5 12.5t13.5 33.5q0 41 -31 66t-72 25q-27 0 -33 -1zM745 700l-425 -710h-65l424 710h66zM524 132l229 276l88 -8v-253h59l-5 -70h-54v-77h-134v77h-177zM593 147h114v135z" />
<glyph unicode="&#xbf;" horiz-adv-x="469" d="M167 413q0 42 28 69.5t70 27.5q34 0 57.5 -22.5t23.5 -54.5q0 -39 -30.5 -67t-71.5 -28q-32 0 -54.5 21t-22.5 54zM218 273l8 8q41 4 66.5 -17t25.5 -55q0 -26 -14.5 -49t-34.5 -42t-40.5 -40.5t-35 -54.5t-14.5 -73q0 -43 17 -71.5t50 -28.5q34 0 52.5 28t18.5 77 q0 35 -8 64q29 16 71 16q40 0 64.5 -23t24.5 -62q0 -64 -71 -107t-165 -43q-101 0 -167 45t-66 125q0 38 19 73.5t49.5 61.5t57.5 44.5t54.5 33.5t29.5 16q8 6 8 21v53z" />
<glyph unicode="&#xc0;" horiz-adv-x="716" d="M500 789l-5 -19q-65 0 -114 3.5t-95 13.5t-71 30t-25 49q0 22 23.5 44t54.5 32l13 -2q85 -78 219 -151zM299 690h118l211 -596q7 -22 17.5 -31.5t32.5 -21.5l30 -16l-2 -25h-337l-2 25l75 28l-47 145l-215 -3l-48 -141l75 -29l-2 -25h-195l-2 25q37 17 49 25q22 17 31 43 zM196 245l184 -2l-91 278z" />
<glyph unicode="&#xc1;" horiz-adv-x="716" d="M435 940l13 2q31 -10 54.5 -32t23.5 -44q0 -29 -25 -49t-71 -30t-95 -13.5t-114 -3.5l-5 19q134 73 219 151zM299 690h118l211 -596q7 -22 17.5 -31.5t32.5 -21.5l30 -16l-2 -25h-337l-2 25l75 28l-47 145l-215 -3l-48 -141l75 -29l-2 -25h-195l-2 25q37 17 49 25 q22 17 31 43zM196 245l184 -2l-91 278z" />
<glyph unicode="&#xc2;" horiz-adv-x="716" d="M536 783l-16 -11q-81 37 -156 66q-67 -29 -162 -66l-14 14q80 90 123 149l11 8h95q77 -89 119 -160zM299 690h118l211 -596q7 -22 17.5 -31.5t32.5 -21.5l30 -16l-2 -25h-337l-2 25l75 28l-47 145l-215 -3l-48 -141l75 -29l-2 -25h-195l-2 25q37 17 49 25q22 17 31 43z M196 245l184 -2l-91 278z" />
<glyph unicode="&#xc3;" horiz-adv-x="716" d="M179 768l-20 6q-2 20 -2 31q0 57 28 96.5t81 39.5q35 0 72.5 -9t85 -26t64.5 -22l49 63l20 -6q2 -24 2 -39q0 -53 -28 -90.5t-81 -37.5q-35 0 -72.5 9t-85 26t-64.5 22zM299 690h118l211 -596q7 -22 17.5 -31.5t32.5 -21.5l30 -16l-2 -25h-337l-2 25l75 28l-47 145 l-215 -3l-48 -141l75 -29l-2 -25h-195l-2 25q37 17 49 25q22 17 31 43zM196 245l184 -2l-91 278z" />
<glyph unicode="&#xc4;" horiz-adv-x="716" d="M578 869q0 -39 -28.5 -65t-71.5 -26q-35 0 -58 20.5t-23 50.5q0 37 30 64t72 27q33 0 56 -20t23 -51zM337 869q0 -39 -28.5 -65t-71.5 -26q-35 0 -58 20.5t-23 50.5q0 37 30 64t72 27q33 0 56 -20t23 -51zM299 690h118l211 -596q7 -22 17.5 -31.5t32.5 -21.5l30 -16 l-2 -25h-337l-2 25l75 28l-47 145l-215 -3l-48 -141l75 -29l-2 -25h-195l-2 25q37 17 49 25q22 17 31 43zM196 245l184 -2l-91 278z" />
<glyph unicode="&#xc5;" horiz-adv-x="716" d="M355 766q-51 0 -82.5 25.5t-31.5 67.5q0 45 34 73.5t88 28.5q50 0 81.5 -26t31.5 -66q0 -45 -34 -74t-87 -29zM359 922q-23 0 -37.5 -17.5t-14.5 -43.5q0 -24 14.5 -40t36.5 -16q23 0 37.5 17.5t14.5 44.5q0 23 -14.5 39t-36.5 16zM299 690h118l211 -596 q7 -22 17.5 -31.5t32.5 -21.5l30 -16l-2 -25h-337l-2 25l75 28l-47 145l-215 -3l-48 -141l75 -29l-2 -25h-195l-2 25q37 17 49 25q22 17 31 43zM196 245l184 -2l-91 278z" />
<glyph unicode="&#xc6;" horiz-adv-x="927" d="M10 0l-2 25q37 17 49 25q22 17 31 43l189 535l-75 37l2 25h664q9 -59 9 -106q0 -74 -15 -134h-30l-41 90q-28 60 -52 91q-27 4 -63 4h-79v-270l180 10l-3 -70l-177 10v-260h89q36 0 63 4q24 31 52 91l41 90h30q15 -60 15 -134q0 -47 -9 -106h-539l-2 25l30 15 q25 12 35 24t10 33v220l-193 -2l-87 -261l75 -29l-2 -25h-195zM412 635h-86l-90 -270l176 -2v272z" />
<glyph unicode="&#xc7;" horiz-adv-x="698" d="M354 -123l-6 10l19 106q-145 14 -236 103t-91 239q0 165 108 265t269 100q123 0 210 -32q10 -34 10 -91q0 -70 -17 -135l-30 -2q-70 135 -115 196q-22 3 -35 3q-90 0 -150.5 -86.5t-59.5 -217.5q1 -126 61 -205.5t149 -79.5q20 0 41 3q54 60 130 187h30q9 -33 9 -93 q0 -73 -12 -135q-105 -22 -211 -22l-9 -47q63 -6 97.5 -29.5t34.5 -59.5q0 -54 -58 -84.5t-171 -30.5l-5 15q81 39 81 82q0 15 -12 26t-31 15z" />
<glyph unicode="&#xc8;" horiz-adv-x="627" d="M474 789l-5 -19q-65 0 -114 3.5t-95 13.5t-71 30t-25 49q0 22 23.5 44t54.5 32l13 -2q85 -78 219 -151zM297 365l180 10l-3 -70l-177 10v-260h89q36 0 63 4q24 31 52 91l41 90h30q15 -60 15 -134q0 -47 -9 -106h-539l-2 25l30 15q25 12 35 24t10 33v531l-75 37l2 25h529 q9 -59 9 -106q0 -74 -15 -134h-30l-41 90q-28 60 -52 91q-27 4 -63 4h-79v-270z" />
<glyph unicode="&#xc9;" horiz-adv-x="627" d="M409 940l13 2q31 -10 54.5 -32t23.5 -44q0 -29 -25 -49t-71 -30t-95 -13.5t-114 -3.5l-5 19q134 73 219 151zM297 365l180 10l-3 -70l-177 10v-260h89q36 0 63 4q24 31 52 91l41 90h30q15 -60 15 -134q0 -47 -9 -106h-539l-2 25l30 15q25 12 35 24t10 33v531l-75 37l2 25 h529q9 -59 9 -106q0 -74 -15 -134h-30l-41 90q-28 60 -52 91q-27 4 -63 4h-79v-270z" />
<glyph unicode="&#xca;" horiz-adv-x="627" d="M507 783l-16 -11q-81 37 -156 66q-67 -29 -162 -66l-14 14q80 90 123 149l11 8h95q77 -89 119 -160zM297 365l180 10l-3 -70l-177 10v-260h89q36 0 63 4q24 31 52 91l41 90h30q15 -60 15 -134q0 -47 -9 -106h-539l-2 25l30 15q25 12 35 24t10 33v531l-75 37l2 25h529 q9 -59 9 -106q0 -74 -15 -134h-30l-41 90q-28 60 -52 91q-27 4 -63 4h-79v-270z" />
<glyph unicode="&#xcb;" horiz-adv-x="627" d="M545 869q0 -39 -28.5 -65t-71.5 -26q-35 0 -58 20.5t-23 50.5q0 37 30 64t72 27q33 0 56 -20t23 -51zM304 869q0 -39 -28.5 -65t-71.5 -26q-35 0 -58 20.5t-23 50.5q0 37 30 64t72 27q33 0 56 -20t23 -51zM297 365l180 10l-3 -70l-177 10v-260h89q36 0 63 4q24 31 52 91 l41 90h30q15 -60 15 -134q0 -47 -9 -106h-539l-2 25l30 15q25 12 35 24t10 33v531l-75 37l2 25h529q9 -59 9 -106q0 -74 -15 -134h-30l-41 90q-28 60 -52 91q-27 4 -63 4h-79v-270z" />
<glyph unicode="&#xcc;" horiz-adv-x="409" d="M347 789l-5 -19q-65 0 -114 3.5t-95 13.5t-71 30t-25 49q0 22 23.5 44t54.5 32l13 -2q85 -78 219 -151zM297 62l75 -37l-2 -25h-331l-2 25l30 15q25 12 35 24t10 33v531l-75 37l2 25h331l2 -25l-30 -15q-25 -12 -35 -24t-10 -33v-531z" />
<glyph unicode="&#xcd;" horiz-adv-x="409" d="M282 940l13 2q31 -10 54.5 -32t23.5 -44q0 -29 -25 -49t-71 -30t-95 -13.5t-114 -3.5l-5 19q134 73 219 151zM297 62l75 -37l-2 -25h-331l-2 25l30 15q25 12 35 24t10 33v531l-75 37l2 25h331l2 -25l-30 -15q-25 -12 -35 -24t-10 -33v-531z" />
<glyph unicode="&#xce;" horiz-adv-x="409" d="M380 783l-16 -11q-81 37 -156 66q-67 -29 -162 -66l-14 14q80 90 123 149l11 8h95q77 -89 119 -160zM297 62l75 -37l-2 -25h-331l-2 25l30 15q25 12 35 24t10 33v531l-75 37l2 25h331l2 -25l-30 -15q-25 -12 -35 -24t-10 -33v-531z" />
<glyph unicode="&#xcf;" horiz-adv-x="409" d="M416 869q0 -39 -28.5 -65t-71.5 -26q-35 0 -58 20.5t-23 50.5q0 37 30 64t72 27q33 0 56 -20t23 -51zM175 869q0 -39 -28.5 -65t-71.5 -26q-35 0 -58 20.5t-23 50.5q0 37 30 64t72 27q33 0 56 -20t23 -51zM297 62l75 -37l-2 -25h-331l-2 25l30 15q25 12 35 24t10 33v531 l-75 37l2 25h331l2 -25l-30 -15q-25 -12 -35 -24t-10 -33v-531z" />
<glyph unicode="&#xd0;" horiz-adv-x="762" d="M722 345q0 -166 -99 -255.5t-261 -89.5h-323l-2 25l30 15q25 12 35 24t10 33v226h-71v50h71v255l-75 37l2 25h323q164 0 262 -89.5t98 -255.5zM461 323h-164v-268h60q84 0 129 72.5t46 217.5q1 144 -44.5 217t-130.5 73h-60v-262h164v-50z" />
<glyph unicode="&#xd1;" horiz-adv-x="748" d="M231 763l-20 6q-2 20 -2 31q0 57 28 96.5t81 39.5q35 0 72.5 -9t85 -26t64.5 -22l49 63l20 -6q2 -24 2 -39q0 -53 -28 -90.5t-81 -37.5q-35 0 -72.5 9t-85 26t-64.5 22zM172 62l95 -37l-2 -25h-226l-2 25l30 15q25 12 35 24t10 33v531l-37 19l-38 18l2 25h233l320 -471 v409l-75 37l2 25h206l2 -25l-30 -15q-25 -12 -35 -24t-10 -33v-593h-120l-360 513v-451z" />
<glyph unicode="&#xd2;" horiz-adv-x="760" d="M532 789l-5 -19q-65 0 -114 3.5t-95 13.5t-71 30t-25 49q0 22 23.5 44t54.5 32l13 -2q85 -78 219 -151zM40 345q0 165 98.5 260t242.5 95q150 0 244.5 -91.5t94.5 -258.5q0 -168 -96 -264t-245 -96q-151 0 -245 95t-94 260zM230 345q-1 -139 39 -219.5t113 -80.5 q71 0 109 82.5t39 222.5q1 138 -37 216.5t-112 78.5q-71 0 -110.5 -80.5t-40.5 -219.5z" />
<glyph unicode="&#xd3;" horiz-adv-x="760" d="M457 940l13 2q31 -10 54.5 -32t23.5 -44q0 -29 -25 -49t-71 -30t-95 -13.5t-114 -3.5l-5 19q134 73 219 151zM40 345q0 165 98.5 260t242.5 95q150 0 244.5 -91.5t94.5 -258.5q0 -168 -96 -264t-245 -96q-151 0 -245 95t-94 260zM230 345q-1 -139 39 -219.5t113 -80.5 q71 0 109 82.5t39 222.5q1 138 -37 216.5t-112 78.5q-71 0 -110.5 -80.5t-40.5 -219.5z" />
<glyph unicode="&#xd4;" horiz-adv-x="760" d="M555 783l-16 -11q-81 37 -156 66q-67 -29 -162 -66l-14 14q80 90 123 149l11 8h95q77 -89 119 -160zM40 345q0 165 98.5 260t242.5 95q150 0 244.5 -91.5t94.5 -258.5q0 -168 -96 -264t-245 -96q-151 0 -245 95t-94 260zM230 345q-1 -139 39 -219.5t113 -80.5 q71 0 109 82.5t39 222.5q1 138 -37 216.5t-112 78.5q-71 0 -110.5 -80.5t-40.5 -219.5z" />
<glyph unicode="&#xd5;" horiz-adv-x="760" d="M201 768l-20 6q-2 20 -2 31q0 57 28 96.5t81 39.5q35 0 72.5 -9t85 -26t64.5 -22l49 63l20 -6q2 -24 2 -39q0 -53 -28 -90.5t-81 -37.5q-35 0 -72.5 9t-85 26t-64.5 22zM40 345q0 165 98.5 260t242.5 95q150 0 244.5 -91.5t94.5 -258.5q0 -168 -96 -264t-245 -96 q-151 0 -245 95t-94 260zM230 345q-1 -139 39 -219.5t113 -80.5q71 0 109 82.5t39 222.5q1 138 -37 216.5t-112 78.5q-71 0 -110.5 -80.5t-40.5 -219.5z" />
<glyph unicode="&#xd6;" horiz-adv-x="760" d="M596 869q0 -39 -28.5 -65t-71.5 -26q-35 0 -58 20.5t-23 50.5q0 37 30 64t72 27q33 0 56 -20t23 -51zM355 869q0 -39 -28.5 -65t-71.5 -26q-35 0 -58 20.5t-23 50.5q0 37 30 64t72 27q33 0 56 -20t23 -51zM40 345q0 165 98.5 260t242.5 95q150 0 244.5 -91.5t94.5 -258.5 q0 -168 -96 -264t-245 -96q-151 0 -245 95t-94 260zM230 345q-1 -139 39 -219.5t113 -80.5q71 0 109 82.5t39 222.5q1 138 -37 216.5t-112 78.5q-71 0 -110.5 -80.5t-40.5 -219.5z" />
<glyph unicode="&#xd7;" d="M459 130l-148 152l-152 -152l-64 64l153 153l-149 153l60 60q57 -54 151 -151l151 151l64 -64l-151 -151q118 -120 151 -153v-11z" />
<glyph unicode="&#xd8;" horiz-adv-x="760" d="M40 345q0 165 98.5 260t242.5 95q126 0 214 -65l52 60l43 -35l-54 -62q84 -94 84 -248q0 -168 -96 -264t-245 -96q-126 0 -213 67l-54 -62l-42 36l55 63q-85 94 -85 251zM230 345q0 -66 9 -120l267 308q-38 112 -125 112q-71 0 -110.5 -80.5t-40.5 -219.5zM530 350 q0 70 -8 117l-267 -307q39 -115 127 -115q71 0 109 82.5t39 222.5z" />
<glyph unicode="&#xd9;" horiz-adv-x="682" d="M532 789l-5 -19q-65 0 -114 3.5t-95 13.5t-71 30t-25 49q0 22 23.5 44t54.5 32l13 -2q85 -78 219 -151zM75 245v383l-75 37l2 25h331l2 -25l-30 -15q-25 -12 -35 -24t-10 -33v-352q0 -93 37.5 -142t103.5 -49q69 0 106.5 48t37.5 144v386l-75 37l2 25h206l2 -25l-75 -37 v-383q0 -255 -255 -255q-130 0 -202.5 65t-72.5 190z" />
<glyph unicode="&#xda;" horiz-adv-x="682" d="M467 940l13 2q31 -10 54.5 -32t23.5 -44q0 -29 -25 -49t-71 -30t-95 -13.5t-114 -3.5l-5 19q134 73 219 151zM75 245v383l-75 37l2 25h331l2 -25l-30 -15q-25 -12 -35 -24t-10 -33v-352q0 -93 37.5 -142t103.5 -49q69 0 106.5 48t37.5 144v386l-75 37l2 25h206l2 -25 l-75 -37v-383q0 -255 -255 -255q-130 0 -202.5 65t-72.5 190z" />
<glyph unicode="&#xdb;" horiz-adv-x="682" d="M575 783l-16 -11q-81 37 -156 66q-67 -29 -162 -66l-14 14q80 90 123 149l11 8h95q77 -89 119 -160zM75 245v383l-75 37l2 25h331l2 -25l-30 -15q-25 -12 -35 -24t-10 -33v-352q0 -93 37.5 -142t103.5 -49q69 0 106.5 48t37.5 144v386l-75 37l2 25h206l2 -25l-75 -37 v-383q0 -255 -255 -255q-130 0 -202.5 65t-72.5 190z" />
<glyph unicode="&#xdc;" horiz-adv-x="682" d="M611 869q0 -39 -28.5 -65t-71.5 -26q-35 0 -58 20.5t-23 50.5q0 37 30 64t72 27q33 0 56 -20t23 -51zM370 869q0 -39 -28.5 -65t-71.5 -26q-35 0 -58 20.5t-23 50.5q0 37 30 64t72 27q33 0 56 -20t23 -51zM75 245v383l-75 37l2 25h331l2 -25l-30 -15q-25 -12 -35 -24 t-10 -33v-352q0 -93 37.5 -142t103.5 -49q69 0 106.5 48t37.5 144v386l-75 37l2 25h206l2 -25l-75 -37v-383q0 -255 -255 -255q-130 0 -202.5 65t-72.5 190z" />
<glyph unicode="&#xdd;" horiz-adv-x="701" d="M475 940l13 2q31 -10 54.5 -32t23.5 -44q0 -29 -25 -49t-71 -30t-95 -13.5t-114 -3.5l-5 19q134 73 219 151zM443 62l75 -37l-2 -25h-331l-2 25l30 15q25 12 35 24t10 33v203l-167 296q-14 26 -26.5 36.5t-36.5 22.5l-20 10l2 25h342l2 -25l-76 -28l142 -286l146 287 l-75 27l2 25h198l2 -25q-36 -17 -48 -27q-18 -13 -34 -41l-168 -298v-237z" />
<glyph unicode="&#xde;" horiz-adv-x="673" d="M297 62l95 -37l-2 -25h-351l-2 25l30 15q25 12 35 24t10 33v531l-75 37l2 25h331l2 -25l-30 -15q-25 -12 -35 -24t-10 -33v-30h70q127 0 208.5 -57t81.5 -158t-81.5 -158t-208.5 -57h-70v-71zM352 508h-55v-320h55q54 0 84.5 43t30.5 117t-30.5 117t-84.5 43z" />
<glyph unicode="&#xdf;" horiz-adv-x="682" d="M238 0h-221l-2 20l30 16q35 19 35 61v333h-63l-2 20l65 35v5q0 113 73.5 191.5t197.5 78.5q107 0 165.5 -44.5t58.5 -125.5q0 -56 -33 -97.5t-94 -60.5q94 -21 148 -85t54 -156q0 -94 -63.5 -147.5t-171.5 -53.5q-54 0 -91 30.5t-37 71.5q0 34 20 53.5t50 19.5 q21 0 46 -14q0 -60 5.5 -85.5t22.5 -25.5q34 0 34 134q0 197 -147 228v40q44 7 72.5 47.5t28.5 90.5q0 62 -21 96t-60 34q-78 0 -78 -170v-502z" />
<glyph unicode="&#xe0;" horiz-adv-x="575" d="M415 578l-11 -16q-105 26 -171.5 67.5t-66.5 81.5q0 57 95 57q23 0 34 -1l11 -8q42 -86 109 -181zM314 510q89 0 137.5 -45t48.5 -132q0 -16 -2.5 -93.5t-2.5 -91.5q0 -68 46 -68q15 0 35 4l4 -14q-23 -39 -61 -59.5t-81 -20.5q-42 0 -72 18.5t-41 48.5 q-23 -30 -64 -48.5t-86 -18.5q-59 0 -97 31.5t-38 85.5q0 75 75 117.5t205 44.5v125q0 66 -47 66q-55 0 -55 -75q0 -26 4 -50q-40 -20 -81 -20q-35 0 -56.5 14t-21.5 39q0 51 77.5 96.5t173.5 45.5zM220 142q0 -62 55 -62q29 0 45 14v141q-100 -13 -100 -93z" />
<glyph unicode="&#xe1;" horiz-adv-x="575" d="M441 711q0 -40 -66.5 -81.5t-171.5 -67.5l-11 16q67 95 109 181l11 8q11 1 34 1q95 0 95 -57zM314 510q89 0 137.5 -45t48.5 -132q0 -16 -2.5 -93.5t-2.5 -91.5q0 -68 46 -68q15 0 35 4l4 -14q-23 -39 -61 -59.5t-81 -20.5q-42 0 -72 18.5t-41 48.5q-23 -30 -64 -48.5 t-86 -18.5q-59 0 -97 31.5t-38 85.5q0 75 75 117.5t205 44.5v125q0 66 -47 66q-55 0 -55 -75q0 -26 4 -50q-40 -20 -81 -20q-35 0 -56.5 14t-21.5 39q0 51 77.5 96.5t173.5 45.5zM220 142q0 -62 55 -62q29 0 45 14v141q-100 -13 -100 -93z" />
<glyph unicode="&#xe2;" horiz-adv-x="575" d="M463 577l-16 -11q-70 47 -146 87q-72 -44 -152 -87l-14 14q69 99 113 175l11 8h95q68 -100 109 -186zM314 510q89 0 137.5 -45t48.5 -132q0 -16 -2.5 -93.5t-2.5 -91.5q0 -68 46 -68q15 0 35 4l4 -14q-23 -39 -61 -59.5t-81 -20.5q-42 0 -72 18.5t-41 48.5 q-23 -30 -64 -48.5t-86 -18.5q-59 0 -97 31.5t-38 85.5q0 75 75 117.5t205 44.5v125q0 66 -47 66q-55 0 -55 -75q0 -26 4 -50q-40 -20 -81 -20q-35 0 -56.5 14t-21.5 39q0 51 77.5 96.5t173.5 45.5zM220 142q0 -62 55 -62q29 0 45 14v141q-100 -13 -100 -93z" />
<glyph unicode="&#xe3;" horiz-adv-x="575" d="M131 594l-20 6q-2 18 -2 27q0 55 28 93.5t81 38.5q32 0 66 -9t77.5 -26t58.5 -22l49 55l20 -6q2 -22 2 -35q0 -52 -28 -88t-81 -36q-32 0 -66 9t-77.5 26t-58.5 22zM314 510q89 0 137.5 -45t48.5 -132q0 -16 -2.5 -93.5t-2.5 -91.5q0 -68 46 -68q15 0 35 4l4 -14 q-23 -39 -61 -59.5t-81 -20.5q-42 0 -72 18.5t-41 48.5q-23 -30 -64 -48.5t-86 -18.5q-59 0 -97 31.5t-38 85.5q0 75 75 117.5t205 44.5v125q0 66 -47 66q-55 0 -55 -75q0 -26 4 -50q-40 -20 -81 -20q-35 0 -56.5 14t-21.5 39q0 51 77.5 96.5t173.5 45.5zM220 142 q0 -62 55 -62q29 0 45 14v141q-100 -13 -100 -93z" />
<glyph unicode="&#xe4;" horiz-adv-x="575" d="M510 677q0 -41 -28 -69t-69 -28q-34 0 -56 22.5t-22 54.5q0 40 29 68.5t70 28.5q32 0 54 -21.5t22 -55.5zM269 677q0 -41 -28 -69t-69 -28q-34 0 -56 22.5t-22 54.5q0 40 29 68.5t70 28.5q32 0 54 -21.5t22 -55.5zM314 510q89 0 137.5 -45t48.5 -132q0 -16 -2.5 -93.5 t-2.5 -91.5q0 -68 46 -68q15 0 35 4l4 -14q-23 -39 -61 -59.5t-81 -20.5q-42 0 -72 18.5t-41 48.5q-23 -30 -64 -48.5t-86 -18.5q-59 0 -97 31.5t-38 85.5q0 75 75 117.5t205 44.5v125q0 66 -47 66q-55 0 -55 -75q0 -26 4 -50q-40 -20 -81 -20q-35 0 -56.5 14t-21.5 39 q0 51 77.5 96.5t173.5 45.5zM220 142q0 -62 55 -62q29 0 45 14v141q-100 -13 -100 -93z" />
<glyph unicode="&#xe5;" horiz-adv-x="575" d="M294 568q-51 0 -82.5 25.5t-31.5 67.5q0 45 34 73.5t88 28.5q50 0 81.5 -26t31.5 -66q0 -45 -34 -74t-87 -29zM298 724q-23 0 -37.5 -17.5t-14.5 -43.5q0 -24 14.5 -40t36.5 -16q23 0 37.5 17.5t14.5 44.5q0 23 -14.5 39t-36.5 16zM314 510q89 0 137.5 -45t48.5 -132 q0 -16 -2.5 -93.5t-2.5 -91.5q0 -68 46 -68q15 0 35 4l4 -14q-23 -39 -61 -59.5t-81 -20.5q-42 0 -72 18.5t-41 48.5q-23 -30 -64 -48.5t-86 -18.5q-59 0 -97 31.5t-38 85.5q0 75 75 117.5t205 44.5v125q0 66 -47 66q-55 0 -55 -75q0 -26 4 -50q-40 -20 -81 -20 q-35 0 -56.5 14t-21.5 39q0 51 77.5 96.5t173.5 45.5zM220 142q0 -62 55 -62q29 0 45 14v141q-100 -13 -100 -93z" />
<glyph unicode="&#xe6;" horiz-adv-x="799" d="M320 394q0 66 -47 66q-55 0 -55 -75q0 -26 4 -50q-40 -20 -81 -20q-35 0 -56.5 14t-21.5 39q0 51 73 96.5t163 45.5q83 0 126 -45q64 45 145 45q88 0 146.5 -54.5t58.5 -144.5q0 -34 -1 -45l-15 -15h-266q7 -75 42 -110.5t100 -35.5q66 0 121 32l15 -12 q-59 -135 -207 -135q-129 0 -196 89q-31 -41 -80.5 -65t-106.5 -24q-64 0 -102.5 30.5t-38.5 86.5q0 75 75 117.5t205 44.5v125zM553 460q-31 0 -47 -44t-16 -114v-10l104 6q1 11 1 41q0 67 -10 94t-32 27zM220 142q0 -62 59 -62q38 0 66 36q-26 55 -26 119q-99 -13 -99 -93 z" />
<glyph unicode="&#xe7;" horiz-adv-x="501" d="M228 -123l-6 10l19 105q-97 11 -153 76t-56 168q0 121 74.5 197.5t192.5 76.5q83 0 134.5 -37.5t51.5 -90.5q0 -36 -24 -56.5t-65 -20.5q-31 0 -66 17v3q0 72 -9.5 103.5t-34.5 31.5q-31 0 -50 -44.5t-19 -117.5q0 -193 151 -193q58 0 110 32l15 -12q-57 -122 -192 -134 l-9 -48q63 -6 97.5 -29.5t34.5 -59.5q0 -54 -58 -84.5t-171 -30.5l-5 15q81 39 81 82q0 15 -12 26t-31 15z" />
<glyph unicode="&#xe8;" horiz-adv-x="526" d="M394 578l-11 -16q-105 26 -171.5 67.5t-66.5 81.5q0 57 95 57q23 0 34 -1l11 -8q42 -86 109 -181zM498 125q-63 -135 -217 -135q-113 0 -181 68t-68 182q0 120 73 195t182 75q92 0 153.5 -54.5t61.5 -144.5q0 -34 -1 -45l-15 -15h-266q7 -75 42 -110.5t100 -35.5 q66 0 121 32zM280 460q-31 0 -47 -44t-16 -114v-10l104 6q1 11 1 41q0 67 -10 94t-32 27z" />
<glyph unicode="&#xe9;" horiz-adv-x="526" d="M410 711q0 -40 -66.5 -81.5t-171.5 -67.5l-11 16q67 95 109 181l11 8q11 1 34 1q95 0 95 -57zM498 125q-63 -135 -217 -135q-113 0 -181 68t-68 182q0 120 73 195t182 75q92 0 153.5 -54.5t61.5 -144.5q0 -34 -1 -45l-15 -15h-266q7 -75 42 -110.5t100 -35.5q66 0 121 32 zM280 460q-31 0 -47 -44t-16 -114v-10l104 6q1 11 1 41q0 67 -10 94t-32 27z" />
<glyph unicode="&#xea;" horiz-adv-x="526" d="M442 577l-16 -11q-70 47 -146 87q-72 -44 -152 -87l-14 14q69 99 113 175l11 8h95q68 -100 109 -186zM498 125q-63 -135 -217 -135q-113 0 -181 68t-68 182q0 120 73 195t182 75q92 0 153.5 -54.5t61.5 -144.5q0 -34 -1 -45l-15 -15h-266q7 -75 42 -110.5t100 -35.5 q66 0 121 32zM280 460q-31 0 -47 -44t-16 -114v-10l104 6q1 11 1 41q0 67 -10 94t-32 27z" />
<glyph unicode="&#xeb;" horiz-adv-x="526" d="M489 677q0 -41 -28 -69t-69 -28q-34 0 -56 22.5t-22 54.5q0 40 29 68.5t70 28.5q32 0 54 -21.5t22 -55.5zM248 677q0 -41 -28 -69t-69 -28q-34 0 -56 22.5t-22 54.5q0 40 29 68.5t70 28.5q32 0 54 -21.5t22 -55.5zM498 125q-63 -135 -217 -135q-113 0 -181 68t-68 182 q0 120 73 195t182 75q92 0 153.5 -54.5t61.5 -144.5q0 -34 -1 -45l-15 -15h-266q7 -75 42 -110.5t100 -35.5q66 0 121 32zM280 460q-31 0 -47 -44t-16 -114v-10l104 6q1 11 1 41q0 67 -10 94t-32 27z" />
<glyph unicode="&#xec;" horiz-adv-x="348" d="M286 578l-11 -16q-105 26 -171.5 67.5t-66.5 81.5q0 57 95 57q23 0 34 -1l11 -8q42 -86 109 -181zM268 55l65 -35l-2 -20h-306l-2 20l30 16q35 19 35 61v307l-58 34l-2 14q44 21 110.5 37.5t121.5 20.5l8 -8v-447z" />
<glyph unicode="&#xed;" horiz-adv-x="348" d="M312 711q0 -40 -66.5 -81.5t-171.5 -67.5l-11 16q67 95 109 181l11 8q11 1 34 1q95 0 95 -57zM268 55l65 -35l-2 -20h-306l-2 20l30 16q35 19 35 61v307l-58 34l-2 14q44 21 110.5 37.5t121.5 20.5l8 -8v-447z" />
<glyph unicode="&#xee;" horiz-adv-x="348" d="M291 565l-16 -11q-62 50 -106 80q-17 -12 -112 -80l-14 14q44 101 73 181l11 8h95q42 -100 69 -192zM268 55l65 -35l-2 -20h-306l-2 20l30 16q35 19 35 61v307l-58 34l-2 14q44 21 110.5 37.5t121.5 20.5l8 -8v-447z" />
<glyph unicode="&#xef;" horiz-adv-x="348" d="M343 669q0 -42 -23.5 -69.5t-60.5 -27.5q-29 0 -47 22.5t-18 54.5q0 40 25 68.5t61 28.5q27 0 45 -21.5t18 -55.5zM144 669q0 -42 -23.5 -69.5t-60.5 -27.5q-29 0 -47 22.5t-18 54.5q0 40 25 68.5t61 28.5q27 0 45 -21.5t18 -55.5zM268 55l65 -35l-2 -20h-306l-2 20 l30 16q35 19 35 61v307l-58 34l-2 14q44 21 110.5 37.5t121.5 20.5l8 -8v-447z" />
<glyph unicode="&#xf0;" horiz-adv-x="564" d="M276 -10q-110 0 -177 71t-67 189q0 115 62.5 187.5t162.5 72.5q34 0 64 -12q-18 40 -52 84l-141 -66l-23 50l126 58q-63 63 -149 106l7 30q144 -6 253 -84l156 73l24 -50l-134 -62q68 -65 106 -156.5t38 -198.5q0 -138 -67.5 -215t-188.5 -77zM284 460q-36 0 -51.5 -48.5 t-15.5 -161.5q0 -122 12.5 -166t46.5 -44q39 0 55 46t16 169q0 205 -63 205z" />
<glyph unicode="&#xf1;" horiz-adv-x="653" d="M161 594l-20 6q-2 18 -2 27q0 55 28 93.5t81 38.5q32 0 66 -9t77.5 -26t58.5 -22l49 55l20 -6q2 -22 2 -35q0 -52 -28 -88t-81 -36q-32 0 -66 9t-77.5 26t-58.5 22zM268 55l65 -35l-2 -20h-306l-2 20l30 16q35 19 35 61v307l-58 34l-2 14q44 21 110.5 37.5t121.5 20.5 l8 -8v-60q80 68 165 68q66 0 103 -39t37 -111v-305l65 -35l-2 -20h-231l-12 12v325q0 38 -14 55.5t-45 17.5q-32 0 -66 -17v-338z" />
<glyph unicode="&#xf2;" horiz-adv-x="564" d="M399 578l-11 -16q-105 26 -171.5 67.5t-66.5 81.5q0 57 95 57q23 0 34 -1l11 -8q42 -86 109 -181zM532 250q0 -115 -71 -187.5t-184 -72.5q-111 0 -178 71t-67 189q0 115 71 187.5t184 72.5q111 0 178 -71t67 -189zM217 250q0 -122 13 -166t50 -44q38 0 52.5 46t14.5 164 q0 117 -14 163.5t-49 46.5q-36 0 -51.5 -48.5t-15.5 -161.5z" />
<glyph unicode="&#xf3;" horiz-adv-x="564" d="M430 711q0 -40 -66.5 -81.5t-171.5 -67.5l-11 16q67 95 109 181l11 8q11 1 34 1q95 0 95 -57zM532 250q0 -115 -71 -187.5t-184 -72.5q-111 0 -178 71t-67 189q0 115 71 187.5t184 72.5q111 0 178 -71t67 -189zM217 250q0 -122 13 -166t50 -44q38 0 52.5 46t14.5 164 q0 117 -14 163.5t-49 46.5q-36 0 -51.5 -48.5t-15.5 -161.5z" />
<glyph unicode="&#xf4;" horiz-adv-x="564" d="M452 577l-16 -11q-70 47 -146 87q-72 -44 -152 -87l-14 14q69 99 113 175l11 8h95q68 -100 109 -186zM532 250q0 -115 -71 -187.5t-184 -72.5q-111 0 -178 71t-67 189q0 115 71 187.5t184 72.5q111 0 178 -71t67 -189zM217 250q0 -122 13 -166t50 -44q38 0 52.5 46 t14.5 164q0 117 -14 163.5t-49 46.5q-36 0 -51.5 -48.5t-15.5 -161.5z" />
<glyph unicode="&#xf5;" horiz-adv-x="564" d="M115 594l-20 6q-2 18 -2 27q0 55 28 93.5t81 38.5q32 0 66 -9t77.5 -26t58.5 -22l49 55l20 -6q2 -22 2 -35q0 -52 -28 -88t-81 -36q-32 0 -66 9t-77.5 26t-58.5 22zM532 250q0 -115 -71 -187.5t-184 -72.5q-111 0 -178 71t-67 189q0 115 71 187.5t184 72.5q111 0 178 -71 t67 -189zM217 250q0 -122 13 -166t50 -44q38 0 52.5 46t14.5 164q0 117 -14 163.5t-49 46.5q-36 0 -51.5 -48.5t-15.5 -161.5z" />
<glyph unicode="&#xf6;" horiz-adv-x="564" d="M499 677q0 -41 -28 -69t-69 -28q-34 0 -56 22.5t-22 54.5q0 40 29 68.5t70 28.5q32 0 54 -21.5t22 -55.5zM258 677q0 -41 -28 -69t-69 -28q-34 0 -56 22.5t-22 54.5q0 40 29 68.5t70 28.5q32 0 54 -21.5t22 -55.5zM532 250q0 -115 -71 -187.5t-184 -72.5q-111 0 -178 71 t-67 189q0 115 71 187.5t184 72.5q111 0 178 -71t67 -189zM217 250q0 -122 13 -166t50 -44q38 0 52.5 46t14.5 164q0 117 -14 163.5t-49 46.5q-36 0 -51.5 -48.5t-15.5 -161.5z" />
<glyph unicode="&#xf7;" d="M388 543q0 -37 -25 -62t-62 -25q-30 0 -50 20t-20 49q0 36 26 61.5t63 25.5q29 0 48.5 -19.5t19.5 -49.5zM530 303h-450v85q170 5 452 5l8 -8zM389 171q0 -37 -25 -62t-62 -25q-30 0 -50 20t-20 49q0 36 26 61.5t63 25.5q29 0 48.5 -19.5t19.5 -49.5z" />
<glyph unicode="&#xf8;" horiz-adv-x="564" d="M532 250q0 -115 -71 -187.5t-184 -72.5q-91 0 -154 50l-41 -44l-40 38l42 45q-52 69 -52 171q0 115 71 187.5t184 72.5q91 0 154 -49l40 43l41 -37l-42 -45q52 -69 52 -172zM217 250v-28l126 134q-5 56 -19 80t-40 24q-36 0 -51.5 -48.5t-15.5 -161.5zM347 250v29 l-127 -135q5 -58 18.5 -81t41.5 -23q38 0 52.5 46t14.5 164z" />
<glyph unicode="&#xf9;" horiz-adv-x="653" d="M447 578l-11 -16q-105 26 -171.5 67.5t-66.5 81.5q0 57 95 57q23 0 34 -1l11 -8q42 -86 109 -181zM80 145v259l-58 34l-2 14q44 21 110.5 37.5t121.5 20.5l8 -8v-336q0 -42 15.5 -61.5t49.5 -19.5q29 0 60 14v305l-58 34l-2 14q44 21 110.5 37.5t121.5 20.5l8 -8v-357 q0 -65 43 -65q19 0 38 4l4 -14q-48 -80 -144 -80q-81 0 -111 66q-71 -66 -160 -66q-72 0 -113.5 40.5t-41.5 114.5z" />
<glyph unicode="&#xfa;" horiz-adv-x="653" d="M493 711q0 -40 -66.5 -81.5t-171.5 -67.5l-11 16q67 95 109 181l11 8q11 1 34 1q95 0 95 -57zM80 145v259l-58 34l-2 14q44 21 110.5 37.5t121.5 20.5l8 -8v-336q0 -42 15.5 -61.5t49.5 -19.5q29 0 60 14v305l-58 34l-2 14q44 21 110.5 37.5t121.5 20.5l8 -8v-357 q0 -65 43 -65q19 0 38 4l4 -14q-48 -80 -144 -80q-81 0 -111 66q-71 -66 -160 -66q-72 0 -113.5 40.5t-41.5 114.5z" />
<glyph unicode="&#xfb;" horiz-adv-x="653" d="M505 577l-16 -11q-70 47 -146 87q-73 -44 -152 -87l-14 14q69 99 113 175l11 8h95q68 -100 109 -186zM80 145v259l-58 34l-2 14q44 21 110.5 37.5t121.5 20.5l8 -8v-336q0 -42 15.5 -61.5t49.5 -19.5q29 0 60 14v305l-58 34l-2 14q44 21 110.5 37.5t121.5 20.5l8 -8v-357 q0 -65 43 -65q19 0 38 4l4 -14q-48 -80 -144 -80q-81 0 -111 66q-71 -66 -160 -66q-72 0 -113.5 40.5t-41.5 114.5z" />
<glyph unicode="&#xfc;" horiz-adv-x="653" d="M542 677q0 -41 -28 -69t-69 -28q-34 0 -56 22.5t-22 54.5q0 40 29 68.5t70 28.5q32 0 54 -21.5t22 -55.5zM301 677q0 -41 -28 -69t-69 -28q-34 0 -56 22.5t-22 54.5q0 40 29 68.5t70 28.5q32 0 54 -21.5t22 -55.5zM80 145v259l-58 34l-2 14q44 21 110.5 37.5t121.5 20.5 l8 -8v-336q0 -42 15.5 -61.5t49.5 -19.5q29 0 60 14v305l-58 34l-2 14q44 21 110.5 37.5t121.5 20.5l8 -8v-357q0 -65 43 -65q19 0 38 4l4 -14q-48 -80 -144 -80q-81 0 -111 66q-71 -66 -160 -66q-72 0 -113.5 40.5t-41.5 114.5z" />
<glyph unicode="&#xfd;" horiz-adv-x="548" d="M437 711q0 -40 -66.5 -81.5t-171.5 -67.5l-11 16q67 95 109 181l11 8q11 1 34 1q95 0 95 -57zM281 0h-66l-146 406q-9 25 -28 46q-16 18 -41 28l2 20h308l2 -20l-62 -33l86 -284l97 285l-71 32l2 20h182l2 -20q-28 -9 -49 -27q-15 -14 -28 -46l-166 -457 q-41 -114 -84 -162t-93 -48q-36 0 -58 25.5t-22 66.5q0 32 14 63l10 4q30 -10 59 -10q45 0 89 30t61 81z" />
<glyph unicode="&#xfe;" horiz-adv-x="617" d="M260 -195l85 -35l-2 -20h-326l-2 20l30 16q35 19 35 61v807l-58 34l-2 14q44 21 110.5 37.5t121.5 20.5l8 -8v-308q56 66 140 66q82 0 133.5 -68t51.5 -177q0 -130 -74.5 -202.5t-205.5 -72.5q-15 0 -45 2v-187zM305 40q44 0 69.5 50.5t25.5 137.5q0 182 -88 182 q-26 0 -52 -17v-343q17 -10 45 -10z" />
<glyph unicode="&#xff;" horiz-adv-x="548" d="M506 677q0 -41 -28 -69t-69 -28q-34 0 -56 22.5t-22 54.5q0 40 29 68.5t70 28.5q32 0 54 -21.5t22 -55.5zM265 677q0 -41 -28 -69t-69 -28q-34 0 -56 22.5t-22 54.5q0 40 29 68.5t70 28.5q32 0 54 -21.5t22 -55.5zM281 0h-66l-146 406q-9 25 -28 46q-16 18 -41 28l2 20 h308l2 -20l-62 -33l86 -284l97 285l-71 32l2 20h182l2 -20q-28 -9 -49 -27q-15 -14 -28 -46l-166 -457q-41 -114 -84 -162t-93 -48q-36 0 -58 25.5t-22 66.5q0 32 14 63l10 4q30 -10 59 -10q45 0 89 30t61 81z" />
<glyph unicode="&#x100;" horiz-adv-x="716" d="M182 815v86h352v-86h-352zM299 690h118l211 -596q7 -22 17.5 -31.5t32.5 -21.5l30 -16l-2 -25h-337l-2 25l75 28l-47 145l-215 -3l-48 -141l75 -29l-2 -25h-195l-2 25q37 17 49 25q22 17 31 43zM196 245l184 -2l-91 278z" />
<glyph unicode="&#x101;" horiz-adv-x="575" d="M122 612v82h352v-82h-352zM314 510q89 0 137.5 -45t48.5 -132q0 -16 -2.5 -93.5t-2.5 -91.5q0 -68 46 -68q15 0 35 4l4 -14q-23 -39 -61 -59.5t-81 -20.5q-42 0 -72 18.5t-41 48.5q-23 -30 -64 -48.5t-86 -18.5q-59 0 -97 31.5t-38 85.5q0 75 75 117.5t205 44.5v125 q0 66 -47 66q-55 0 -55 -75q0 -26 4 -50q-40 -20 -81 -20q-35 0 -56.5 14t-21.5 39q0 51 77.5 96.5t173.5 45.5zM220 142q0 -62 55 -62q29 0 45 14v141q-100 -13 -100 -93z" />
<glyph unicode="&#x102;" horiz-adv-x="716" d="M489 938l5 2l19 -6q-9 -73 -49.5 -114t-103.5 -41q-60 0 -96.5 42t-40.5 115l23 5q8 -27 40 -43t80 -16q47 0 80 15t43 41zM299 690h118l211 -596q7 -22 17.5 -31.5t32.5 -21.5l30 -16l-2 -25h-337l-2 25l75 28l-47 145l-215 -3l-48 -141l75 -29l-2 -25h-195l-2 25 q37 17 49 25q22 17 31 43zM196 245l184 -2l-91 278z" />
<glyph unicode="&#x103;" horiz-adv-x="575" d="M425 754l5 2l19 -4q-5 -79 -47 -127t-106 -48t-103 48.5t-40 127.5l23 4q8 -33 41.5 -52.5t84.5 -19.5q47 0 80 18.5t43 50.5zM314 510q89 0 137.5 -45t48.5 -132q0 -16 -2.5 -93.5t-2.5 -91.5q0 -68 46 -68q15 0 35 4l4 -14q-23 -39 -61 -59.5t-81 -20.5q-42 0 -72 18.5 t-41 48.5q-23 -30 -64 -48.5t-86 -18.5q-59 0 -97 31.5t-38 85.5q0 75 75 117.5t205 44.5v125q0 66 -47 66q-55 0 -55 -75q0 -26 4 -50q-40 -20 -81 -20q-35 0 -56.5 14t-21.5 39q0 51 77.5 96.5t173.5 45.5zM220 142q0 -62 55 -62q29 0 45 14v141q-100 -13 -100 -93z" />
<glyph unicode="&#x104;" horiz-adv-x="716" d="M682 -182q-41 -78 -129 -78q-47 0 -76.5 28t-29.5 73q0 58 48.5 98.5t139.5 60.5h-266l-2 25l75 28l-47 145l-215 -3l-48 -141l75 -29l-2 -25h-195l-2 25q37 17 49 25q22 17 31 43l211 597h118l211 -596q7 -22 17.5 -31.5t32.5 -21.5l30 -16l-2 -25q-55 -18 -87 -52.5 t-32 -72.5q0 -22 12.5 -34.5t34.5 -12.5q23 0 44 4zM196 245l184 -2l-91 278z" />
<glyph unicode="&#x105;" horiz-adv-x="575" d="M541 -182q-40 -78 -125 -78q-48 0 -79 26.5t-31 69.5q0 51 44 87.5t122 69.5q-16 -3 -34 -3q-42 0 -72 18.5t-41 48.5q-23 -30 -64 -48.5t-86 -18.5q-59 0 -97 31.5t-38 85.5q0 75 75 117.5t205 44.5v125q0 66 -47 66q-55 0 -55 -75q0 -26 4 -50q-40 -20 -81 -20 q-35 0 -56.5 14t-21.5 39q0 51 77.5 96.5t173.5 45.5q89 0 137.5 -45t48.5 -132q0 -16 -2.5 -93.5t-2.5 -91.5q0 -68 46 -68q15 0 35 4l4 -14q-2 -4 -8 -12q-17 -25 -52 -61.5t-54.5 -64.5t-19.5 -57q0 -47 54 -47q22 0 37 4zM220 142q0 -62 55 -62q29 0 45 14v141 q-100 -13 -100 -93z" />
<glyph unicode="&#x106;" horiz-adv-x="698" d="M484 940l13 2q31 -10 54.5 -32t23.5 -44q0 -29 -25 -49t-71 -30t-95 -13.5t-114 -3.5l-5 19q134 73 219 151zM420 -10q-165 0 -272.5 90.5t-107.5 254.5q0 165 108 265t269 100q123 0 210 -32q10 -34 10 -91q0 -70 -17 -135l-30 -2q-70 135 -115 196q-22 3 -35 3 q-90 0 -150.5 -86.5t-59.5 -217.5q1 -126 61 -205.5t149 -79.5q20 0 41 3q54 60 130 187h30q9 -33 9 -93q0 -73 -12 -135q-108 -22 -218 -22z" />
<glyph unicode="&#x107;" horiz-adv-x="501" d="M418 711q0 -40 -66.5 -81.5t-171.5 -67.5l-11 16q67 95 109 181l11 8q11 1 34 1q95 0 95 -57zM493 125q-63 -135 -218 -135q-111 0 -177 67t-66 179q0 121 74.5 197.5t192.5 76.5q83 0 134.5 -37.5t51.5 -90.5q0 -36 -24 -56.5t-65 -20.5q-31 0 -66 17v3q0 72 -9.5 103.5 t-34.5 31.5q-31 0 -50 -44.5t-19 -117.5q0 -193 151 -193q58 0 110 32z" />
<glyph unicode="&#x108;" horiz-adv-x="698" d="M582 783l-16 -11q-81 37 -156 66q-67 -29 -162 -66l-14 14q80 90 123 149l11 8h95q77 -89 119 -160zM420 -10q-165 0 -272.5 90.5t-107.5 254.5q0 165 108 265t269 100q123 0 210 -32q10 -34 10 -91q0 -70 -17 -135l-30 -2q-70 135 -115 196q-22 3 -35 3 q-90 0 -150.5 -86.5t-59.5 -217.5q1 -126 61 -205.5t149 -79.5q20 0 41 3q54 60 130 187h30q9 -33 9 -93q0 -73 -12 -135q-108 -22 -218 -22z" />
<glyph unicode="&#x109;" horiz-adv-x="501" d="M450 577l-16 -11q-70 47 -146 87q-73 -44 -152 -87l-14 14q69 99 113 175l11 8h95q68 -100 109 -186zM493 125q-63 -135 -218 -135q-111 0 -177 67t-66 179q0 121 74.5 197.5t192.5 76.5q83 0 134.5 -37.5t51.5 -90.5q0 -36 -24 -56.5t-65 -20.5q-31 0 -66 17v3 q0 72 -9.5 103.5t-34.5 31.5q-31 0 -50 -44.5t-19 -117.5q0 -193 151 -193q58 0 110 32z" />
<glyph unicode="&#x10a;" horiz-adv-x="698" d="M511 870q0 -45 -32 -74.5t-80 -29.5q-40 0 -67 23.5t-27 58.5q0 41 35 71t82 30q38 0 63.5 -22t25.5 -57zM420 -10q-165 0 -272.5 90.5t-107.5 254.5q0 165 108 265t269 100q123 0 210 -32q10 -34 10 -91q0 -70 -17 -135l-30 -2q-70 135 -115 196q-22 3 -35 3 q-90 0 -150.5 -86.5t-59.5 -217.5q1 -126 61 -205.5t149 -79.5q20 0 41 3q54 60 130 187h30q9 -33 9 -93q0 -73 -12 -135q-108 -22 -218 -22z" />
<glyph unicode="&#x10b;" horiz-adv-x="501" d="M385 678q0 -46 -31 -77t-77 -31q-39 0 -64.5 25t-25.5 61q0 43 33.5 74t79.5 31q36 0 60.5 -23t24.5 -60zM493 125q-63 -135 -218 -135q-111 0 -177 67t-66 179q0 121 74.5 197.5t192.5 76.5q83 0 134.5 -37.5t51.5 -90.5q0 -36 -24 -56.5t-65 -20.5q-31 0 -66 17v3 q0 72 -9.5 103.5t-34.5 31.5q-31 0 -50 -44.5t-19 -117.5q0 -193 151 -193q58 0 110 32z" />
<glyph unicode="&#x10c;" horiz-adv-x="698" d="M458 780l-11 -8h-95q-77 89 -119 160l16 11q81 -37 156 -66q67 29 162 66l14 -14q-80 -90 -123 -149zM420 -10q-165 0 -272.5 90.5t-107.5 254.5q0 165 108 265t269 100q123 0 210 -32q10 -34 10 -91q0 -70 -17 -135l-30 -2q-70 135 -115 196q-22 3 -35 3 q-90 0 -150.5 -86.5t-59.5 -217.5q1 -126 61 -205.5t149 -79.5q20 0 41 3q54 60 130 187h30q9 -33 9 -93q0 -73 -12 -135q-108 -22 -218 -22z" />
<glyph unicode="&#x10d;" horiz-adv-x="501" d="M338 575l-11 -8h-95q-68 100 -109 186l16 11q70 -47 146 -87q73 43 152 87l14 -14q-69 -99 -113 -175zM493 125q-63 -135 -218 -135q-111 0 -177 67t-66 179q0 121 74.5 197.5t192.5 76.5q83 0 134.5 -37.5t51.5 -90.5q0 -36 -24 -56.5t-65 -20.5q-31 0 -66 17v3 q0 72 -9.5 103.5t-34.5 31.5q-31 0 -50 -44.5t-19 -117.5q0 -193 151 -193q58 0 110 32z" />
<glyph unicode="&#x10e;" horiz-adv-x="762" d="M442 780l-11 -8h-95q-77 89 -119 160l16 11q81 -37 156 -66q67 29 162 66l14 -14q-80 -90 -123 -149zM722 345q0 -166 -99 -255.5t-261 -89.5h-323l-2 25l30 15q25 12 35 24t10 33v531l-75 37l2 25h323q164 0 262 -89.5t98 -255.5zM357 635h-60v-580h60q84 0 129 72.5 t46 217.5q1 144 -44.5 217t-130.5 73z" />
<glyph unicode="&#x10f;" horiz-adv-x="791" d="M622 70q-48 -80 -143 -80q-85 0 -114 70q-48 -70 -139 -70q-87 0 -140.5 68t-53.5 177q0 128 75 201.5t201 73.5q28 0 49 -4v148l-78 34l-2 14q110 49 252 58l8 -8v-607q0 -65 47 -65q18 0 34 4zM759 688q0 -49 -37 -94.5t-82 -62.5l-10 9q29 40 39 89q-24 4 -38 20.5 t-14 38.5q0 32 20 52t50 20q33 0 52.5 -19.5t19.5 -52.5zM217 269q0 -88 25 -138.5t72 -50.5q28 0 43 13v360q-18 7 -35 7q-51 0 -78 -50t-27 -141z" />
<glyph unicode="&#x110;" horiz-adv-x="762" d="M722 345q0 -166 -99 -255.5t-261 -89.5h-323l-2 25l30 15q25 12 35 24t10 33v226h-71v50h71v255l-75 37l2 25h323q164 0 262 -89.5t98 -255.5zM461 323h-164v-268h60q84 0 129 72.5t46 217.5q1 144 -44.5 217t-130.5 73h-60v-262h164v-50z" />
<glyph unicode="&#x111;" horiz-adv-x="617" d="M622 70q-48 -80 -143 -80q-85 0 -114 70q-48 -70 -139 -70q-87 0 -140.5 68t-53.5 177q0 128 75 201.5t201 73.5q28 0 49 -4v48h-155v50h155v50l-78 34l-2 14q110 49 252 58l8 -8v-148h85v-50h-85v-409q0 -65 47 -65q18 0 34 4zM217 269q0 -88 25 -138.5t72 -50.5 q28 0 43 13v360q-18 7 -35 7q-51 0 -78 -50t-27 -141z" />
<glyph unicode="&#x112;" horiz-adv-x="627" d="M156 815v86h352v-86h-352zM297 365l180 10l-3 -70l-177 10v-260h89q36 0 63 4q24 31 52 91l41 90h30q15 -60 15 -134q0 -47 -9 -106h-539l-2 25l30 15q25 12 35 24t10 33v531l-75 37l2 25h529q9 -59 9 -106q0 -74 -15 -134h-30l-41 90q-28 60 -52 91q-27 4 -63 4h-79 v-270z" />
<glyph unicode="&#x113;" horiz-adv-x="526" d="M101 612v82h352v-82h-352zM498 125q-63 -135 -217 -135q-113 0 -181 68t-68 182q0 120 73 195t182 75q92 0 153.5 -54.5t61.5 -144.5q0 -34 -1 -45l-15 -15h-266q7 -75 42 -110.5t100 -35.5q66 0 121 32zM280 460q-31 0 -47 -44t-16 -114v-10l104 6q1 11 1 41 q0 67 -10 94t-32 27z" />
<glyph unicode="&#x114;" horiz-adv-x="627" d="M453 938l5 2l19 -6q-9 -73 -49.5 -114t-103.5 -41q-60 0 -96.5 42t-40.5 115l23 5q8 -27 40 -43t80 -16q47 0 80 15t43 41zM297 365l180 10l-3 -70l-177 10v-260h89q36 0 63 4q24 31 52 91l41 90h30q15 -60 15 -134q0 -47 -9 -106h-539l-2 25l30 15q25 12 35 24t10 33 v531l-75 37l2 25h529q9 -59 9 -106q0 -74 -15 -134h-30l-41 90q-28 60 -52 91q-27 4 -63 4h-79v-270z" />
<glyph unicode="&#x115;" horiz-adv-x="526" d="M404 754l5 2l19 -4q-5 -79 -47 -127t-106 -48t-103 48.5t-40 127.5l23 4q8 -33 41.5 -52.5t84.5 -19.5q47 0 80 18.5t43 50.5zM498 125q-63 -135 -217 -135q-113 0 -181 68t-68 182q0 120 73 195t182 75q92 0 153.5 -54.5t61.5 -144.5q0 -34 -1 -45l-15 -15h-266 q7 -75 42 -110.5t100 -35.5q66 0 121 32zM280 460q-31 0 -47 -44t-16 -114v-10l104 6q1 11 1 41q0 67 -10 94t-32 27z" />
<glyph unicode="&#x116;" horiz-adv-x="627" d="M436 870q0 -45 -32 -74.5t-80 -29.5q-40 0 -67 23.5t-27 58.5q0 41 35 71t82 30q38 0 63.5 -22t25.5 -57zM297 365l180 10l-3 -70l-177 10v-260h89q36 0 63 4q24 31 52 91l41 90h30q15 -60 15 -134q0 -47 -9 -106h-539l-2 25l30 15q25 12 35 24t10 33v531l-75 37l2 25 h529q9 -59 9 -106q0 -74 -15 -134h-30l-41 90q-28 60 -52 91q-27 4 -63 4h-79v-270z" />
<glyph unicode="&#x117;" horiz-adv-x="526" d="M382 678q0 -46 -31 -77t-77 -31q-39 0 -64.5 25t-25.5 61q0 43 33.5 74t79.5 31q36 0 60.5 -23t24.5 -60zM498 125q-63 -135 -217 -135q-113 0 -181 68t-68 182q0 120 73 195t182 75q92 0 153.5 -54.5t61.5 -144.5q0 -34 -1 -45l-15 -15h-266q7 -75 42 -110.5t100 -35.5 q66 0 121 32zM280 460q-31 0 -47 -44t-16 -114v-10l104 6q1 11 1 41q0 67 -10 94t-32 27z" />
<glyph unicode="&#x118;" horiz-adv-x="627" d="M297 365l180 10l-3 -70l-177 10v-260h89q36 0 63 4q24 31 52 91l41 90h30q15 -60 15 -134q0 -47 -9 -106q-55 -18 -87 -52.5t-32 -72.5q0 -22 12.5 -34.5t34.5 -12.5q23 0 44 4l4 -14q-41 -78 -129 -78q-47 0 -76.5 28t-29.5 73q0 58 48.5 98.5t139.5 60.5h-468l-2 25 l30 15q25 12 35 24t10 33v531l-75 37l2 25h529q9 -59 9 -106q0 -74 -15 -134h-30l-41 90q-28 60 -52 91q-27 4 -63 4h-79v-270z" />
<glyph unicode="&#x119;" horiz-adv-x="526" d="M405 -182q-46 -78 -125 -78q-48 0 -79 26.5t-31 69.5q0 94 163 158q-32 -4 -52 -4q-113 0 -181 68t-68 182q0 120 73 195t182 75q92 0 153.5 -54.5t61.5 -144.5q0 -34 -1 -45l-15 -15h-266q7 -75 42 -110.5t100 -35.5q66 0 121 32l15 -12q-20 -43 -50 -72 q-17 -19 -47.5 -47t-47 -44t-30 -39.5t-13.5 -45.5q0 -49 54 -49q22 0 37 4zM280 460q-31 0 -47 -44t-16 -114v-10l104 6q1 11 1 41q0 67 -10 94t-32 27z" />
<glyph unicode="&#x11a;" horiz-adv-x="627" d="M383 780l-11 -8h-95q-77 89 -119 160l16 11q81 -37 156 -66q67 29 162 66l14 -14q-80 -90 -123 -149zM297 365l180 10l-3 -70l-177 10v-260h89q36 0 63 4q24 31 52 91l41 90h30q15 -60 15 -134q0 -47 -9 -106h-539l-2 25l30 15q25 12 35 24t10 33v531l-75 37l2 25h529 q9 -59 9 -106q0 -74 -15 -134h-30l-41 90q-28 60 -52 91q-27 4 -63 4h-79v-270z" />
<glyph unicode="&#x11b;" horiz-adv-x="526" d="M335 575l-11 -8h-95q-68 100 -109 186l16 11q70 -47 146 -87q73 43 152 87l14 -14q-69 -99 -113 -175zM498 125q-63 -135 -217 -135q-113 0 -181 68t-68 182q0 120 73 195t182 75q92 0 153.5 -54.5t61.5 -144.5q0 -34 -1 -45l-15 -15h-266q7 -75 42 -110.5t100 -35.5 q66 0 121 32zM280 460q-31 0 -47 -44t-16 -114v-10l104 6q1 11 1 41q0 67 -10 94t-32 27z" />
<glyph unicode="&#x11c;" horiz-adv-x="745" d="M600 783l-16 -11q-81 37 -156 66q-67 -29 -162 -66l-14 14q80 90 123 149l11 8h95q77 -89 119 -160zM415 -10q-103 0 -186 36t-136 116t-53 193q0 170 113.5 267.5t281.5 97.5q123 0 212 -32q10 -34 10 -91q0 -70 -17 -135l-30 -2q-70 134 -115 196q-15 4 -49 4 q-87 0 -151.5 -83.5t-64.5 -216.5t64 -211.5t151 -78.5q22 0 45 5v203l-75 37l2 25h301l2 -25l-30 -15q-25 -12 -25 -57v-201q-68 -18 -118.5 -25t-131.5 -7z" />
<glyph unicode="&#x11d;" horiz-adv-x="539" d="M429 577l-16 -11q-70 47 -146 87q-73 -44 -152 -87l-14 14q69 99 113 175l11 8h95q68 -100 109 -186zM32 318q0 81 67.5 136.5t168.5 55.5q82 0 138 -37q35 102 91 102q42 0 42 -57q0 -29 -6 -51q-4 -14 -25 -15q-3 0 -30 -0.5t-42 -2.5q46 -48 46 -116q0 -82 -64 -136 t-166 -54q-28 0 -49 4q-3 -11 -3 -21q0 -19 12.5 -25.5t46.5 -8.5l95 -6q85 -5 131.5 -41t46.5 -102q0 -89 -81.5 -146t-217.5 -57q-95 0 -155.5 28t-60.5 75q0 38 37.5 63.5t86.5 25.5l8 -8q3 -61 48 -97.5t110 -36.5q50 0 81 21t31 53q0 50 -77 60l-131 16 q-130 16 -130 102q0 77 78 115q-59 20 -93 62.5t-34 98.5zM302 325q0 78 -10 109t-34 31q-25 0 -35.5 -31t-10.5 -105q0 -75 11 -108t36 -33q24 0 33.5 31t9.5 106z" />
<glyph unicode="&#x11e;" horiz-adv-x="745" d="M546 938l5 2l19 -6q-9 -73 -49.5 -114t-103.5 -41q-60 0 -96.5 42t-40.5 115l23 5q8 -27 40 -43t80 -16q47 0 80 15t43 41zM415 -10q-103 0 -186 36t-136 116t-53 193q0 170 113.5 267.5t281.5 97.5q123 0 212 -32q10 -34 10 -91q0 -70 -17 -135l-30 -2q-70 134 -115 196 q-15 4 -49 4q-87 0 -151.5 -83.5t-64.5 -216.5t64 -211.5t151 -78.5q22 0 45 5v203l-75 37l2 25h301l2 -25l-30 -15q-25 -12 -25 -57v-201q-68 -18 -118.5 -25t-131.5 -7z" />
<glyph unicode="&#x11f;" horiz-adv-x="539" d="M391 754l5 2l19 -4q-5 -79 -47 -127t-106 -48t-103 48.5t-40 127.5l23 4q8 -33 41.5 -52.5t84.5 -19.5q47 0 80 18.5t43 50.5zM32 318q0 81 67.5 136.5t168.5 55.5q82 0 138 -37q35 102 91 102q42 0 42 -57q0 -29 -6 -51q-4 -14 -25 -15q-3 0 -30 -0.5t-42 -2.5 q46 -48 46 -116q0 -82 -64 -136t-166 -54q-28 0 -49 4q-3 -11 -3 -21q0 -19 12.5 -25.5t46.5 -8.5l95 -6q85 -5 131.5 -41t46.5 -102q0 -89 -81.5 -146t-217.5 -57q-95 0 -155.5 28t-60.5 75q0 38 37.5 63.5t86.5 25.5l8 -8q3 -61 48 -97.5t110 -36.5q50 0 81 21t31 53 q0 50 -77 60l-131 16q-130 16 -130 102q0 77 78 115q-59 20 -93 62.5t-34 98.5zM302 325q0 78 -10 109t-34 31q-25 0 -35.5 -31t-10.5 -105q0 -75 11 -108t36 -33q24 0 33.5 31t9.5 106z" />
<glyph unicode="&#x120;" horiz-adv-x="745" d="M529 870q0 -45 -32 -74.5t-80 -29.5q-40 0 -67 23.5t-27 58.5q0 41 35 71t82 30q38 0 63.5 -22t25.5 -57zM415 -10q-103 0 -186 36t-136 116t-53 193q0 170 113.5 267.5t281.5 97.5q123 0 212 -32q10 -34 10 -91q0 -70 -17 -135l-30 -2q-70 134 -115 196q-15 4 -49 4 q-87 0 -151.5 -83.5t-64.5 -216.5t64 -211.5t151 -78.5q22 0 45 5v203l-75 37l2 25h301l2 -25l-30 -15q-25 -12 -25 -57v-201q-68 -18 -118.5 -25t-131.5 -7z" />
<glyph unicode="&#x121;" horiz-adv-x="539" d="M364 678q0 -46 -31 -77t-77 -31q-39 0 -64.5 25t-25.5 61q0 43 33.5 74t79.5 31q36 0 60.5 -23t24.5 -60zM32 318q0 81 67.5 136.5t168.5 55.5q82 0 138 -37q35 102 91 102q42 0 42 -57q0 -29 -6 -51q-4 -14 -25 -15q-3 0 -30 -0.5t-42 -2.5q46 -48 46 -116 q0 -82 -64 -136t-166 -54q-28 0 -49 4q-3 -11 -3 -21q0 -19 12.5 -25.5t46.5 -8.5l95 -6q85 -5 131.5 -41t46.5 -102q0 -89 -81.5 -146t-217.5 -57q-95 0 -155.5 28t-60.5 75q0 38 37.5 63.5t86.5 25.5l8 -8q3 -61 48 -97.5t110 -36.5q50 0 81 21t31 53q0 50 -77 60l-131 16 q-130 16 -130 102q0 77 78 115q-59 20 -93 62.5t-34 98.5zM302 325q0 78 -10 109t-34 31q-25 0 -35.5 -31t-10.5 -105q0 -75 11 -108t36 -33q24 0 33.5 31t9.5 106z" />
<glyph unicode="&#x122;" horiz-adv-x="745" d="M415 -10q-103 0 -186 36t-136 116t-53 193q0 170 113.5 267.5t281.5 97.5q123 0 212 -32q10 -34 10 -91q0 -70 -17 -135l-30 -2q-70 134 -115 196q-15 4 -49 4q-87 0 -151.5 -83.5t-64.5 -216.5t64 -211.5t151 -78.5q22 0 45 5v203l-75 37l2 25h301l2 -25l-30 -15 q-25 -12 -25 -57v-201q-68 -18 -118.5 -25t-131.5 -7zM502 -160q0 -61 -45 -118.5t-99 -78.5l-12 11q36 50 48 112q-29 6 -46.5 26.5t-17.5 48.5q0 39 24.5 64.5t60.5 25.5q40 0 63.5 -24.5t23.5 -66.5z" />
<glyph unicode="&#x123;" horiz-adv-x="539" d="M179 662q0 61 45 118.5t99 78.5l12 -11q-36 -50 -48 -112q29 -6 46.5 -26.5t17.5 -48.5q0 -39 -24.5 -64.5t-60.5 -25.5q-40 0 -63.5 24.5t-23.5 66.5zM32 318q0 81 67.5 136.5t168.5 55.5q82 0 138 -37q35 102 91 102q42 0 42 -57q0 -29 -6 -51q-4 -14 -25 -15 q-3 0 -30 -0.5t-42 -2.5q46 -48 46 -116q0 -82 -64 -136t-166 -54q-28 0 -49 4q-3 -11 -3 -21q0 -19 12.5 -25.5t46.5 -8.5l95 -6q85 -5 131.5 -41t46.5 -102q0 -89 -81.5 -146t-217.5 -57q-95 0 -155.5 28t-60.5 75q0 38 37.5 63.5t86.5 25.5l8 -8q3 -61 48 -97.5 t110 -36.5q50 0 81 21t31 53q0 50 -77 60l-131 16q-130 16 -130 102q0 77 78 115q-59 20 -93 62.5t-34 98.5zM302 325q0 78 -10 109t-34 31q-25 0 -35.5 -31t-10.5 -105q0 -75 11 -108t36 -33q24 0 33.5 31t9.5 106z" />
<glyph unicode="&#x124;" horiz-adv-x="834" d="M592 783l-16 -11q-81 37 -156 66q-67 -29 -162 -66l-14 14q80 90 123 149l11 8h95q77 -89 119 -160zM297 62l75 -37l-2 -25h-331l-2 25l30 15q25 12 35 24t10 33v531l-75 37l2 25h331l2 -25l-30 -15q-25 -12 -35 -24t-10 -33v-216h240v251l-75 37l2 25h331l2 -25l-30 -15 q-25 -12 -35 -24t-10 -33v-531l75 -37l-2 -25h-331l-2 25l30 15q25 12 35 24t10 33v223h-240v-258z" />
<glyph unicode="&#x125;" horiz-adv-x="645" d="M344 804l-16 -11q-81 37 -156 66q-67 -29 -162 -66l-14 14q80 90 123 149l11 8h95q77 -89 119 -160zM260 55l65 -35l-2 -20h-306l-2 20l30 16q35 19 35 61v557l-58 34l-2 14q44 21 110.5 37.5t121.5 20.5l8 -8v-309q80 67 165 67q66 0 103 -39t37 -111v-305l65 -35 l-2 -20h-231l-12 12v325q0 73 -60 73q-30 0 -65 -17v-338z" />
<glyph unicode="&#x126;" horiz-adv-x="834" d="M297 62l75 -37l-2 -25h-331l-2 25l30 15q25 12 35 24t10 33v386h-70v50h70v95l-75 37l2 25h331l2 -25l-30 -15q-25 -12 -35 -24t-10 -33v-60h240v95l-75 37l2 25h331l2 -25l-30 -15q-25 -12 -35 -24t-10 -33v-60h70v-50h-70v-421l75 -37l-2 -25h-331l-2 25l30 15 q25 12 35 24t10 33v223h-240v-258zM297 377h240v106h-240v-106z" />
<glyph unicode="&#x127;" horiz-adv-x="645" d="M260 55l65 -35l-2 -20h-306l-2 20l30 16q35 19 35 61v457h-83v50h83v50l-58 34l-2 14q44 21 110.5 37.5t121.5 20.5l8 -8v-148h157v-50h-157v-111q80 67 165 67q66 0 103 -39t37 -111v-305l65 -35l-2 -20h-231l-12 12v325q0 73 -60 73q-30 0 -65 -17v-338z" />
<glyph unicode="&#x128;" horiz-adv-x="409" d="M26 768l-20 6q-2 20 -2 31q0 57 28 96.5t81 39.5q35 0 72.5 -9t85 -26t64.5 -22l49 63l20 -6q2 -24 2 -39q0 -53 -28 -90.5t-81 -37.5q-35 0 -72.5 9t-85 26t-64.5 22zM297 62l75 -37l-2 -25h-331l-2 25l30 15q25 12 35 24t10 33v531l-75 37l2 25h331l2 -25l-30 -15 q-25 -12 -35 -24t-10 -33v-531z" />
<glyph unicode="&#x129;" horiz-adv-x="348" d="M89 641l-49 -45l-20 6q-2 14 -2 22q0 49 28 83t81 34q19 0 39.5 -7.5t47.5 -21.5t35 -18l49 45l20 -6q2 -18 2 -30q0 -45 -28 -77t-81 -32q-19 0 -39.5 7.5t-47.5 21.5t-35 18zM268 55l65 -35l-2 -20h-306l-2 20l30 16q35 19 35 61v307l-58 34l-2 14q44 21 110.5 37.5 t121.5 20.5l8 -8v-447z" />
<glyph unicode="&#x12a;" horiz-adv-x="409" d="M29 815v86h352v-86h-352zM297 62l75 -37l-2 -25h-331l-2 25l30 15q25 12 35 24t10 33v531l-75 37l2 25h331l2 -25l-30 -15q-25 -12 -35 -24t-10 -33v-531z" />
<glyph unicode="&#x12b;" horiz-adv-x="348" d="M27 604v82h284v-82h-284zM268 55l65 -35l-2 -20h-306l-2 20l30 16q35 19 35 61v307l-58 34l-2 14q44 21 110.5 37.5t121.5 20.5l8 -8v-447z" />
<glyph unicode="&#x12c;" horiz-adv-x="409" d="M326 938l5 2l19 -6q-9 -73 -49.5 -114t-103.5 -41q-60 0 -96.5 42t-40.5 115l23 5q8 -27 40 -43t80 -16q47 0 80 15t43 41zM297 62l75 -37l-2 -25h-331l-2 25l30 15q25 12 35 24t10 33v531l-75 37l2 25h331l2 -25l-30 -15q-25 -12 -35 -24t-10 -33v-531z" />
<glyph unicode="&#x12d;" horiz-adv-x="348" d="M303 743q-8 -80 -46 -124.5t-96 -44.5q-55 0 -88.5 45.5t-37.5 125.5l23 5q7 -30 36 -48t73 -18q43 0 73 17t39 46l5 2zM268 55l65 -35l-2 -20h-306l-2 20l30 16q35 19 35 61v307l-58 34l-2 14q44 21 110.5 37.5t121.5 20.5l8 -8v-447z" />
<glyph unicode="&#x12e;" horiz-adv-x="409" d="M297 62l75 -37l-2 -25q-55 -18 -87 -52.5t-32 -72.5q0 -22 12.5 -34.5t34.5 -12.5q23 0 44 4l4 -14q-41 -78 -129 -78q-47 0 -76.5 28t-29.5 73q0 58 48.5 98.5t139.5 60.5h-260l-2 25l30 15q25 12 35 24t10 33v531l-75 37l2 25h331l2 -25l-30 -15q-25 -12 -35 -24 t-10 -33v-531z" />
<glyph unicode="&#x12f;" horiz-adv-x="348" d="M269 678q0 -46 -31 -77t-77 -31q-39 0 -64.5 25t-25.5 61q0 43 33.5 74t79.5 31q36 0 60.5 -23t24.5 -60zM268 55l65 -35l-2 -20q-55 -18 -87 -52.5t-32 -72.5q0 -22 12.5 -34.5t34.5 -12.5q23 0 44 4l4 -14q-41 -78 -129 -78q-47 0 -76.5 28t-29.5 73q0 58 48.5 98.5 t139.5 60.5h-235l-2 20l30 16q35 19 35 61v307l-58 34l-2 14q44 21 110.5 37.5t121.5 20.5l8 -8v-447z" />
<glyph unicode="&#x130;" horiz-adv-x="409" d="M319 870q0 -45 -32 -74.5t-80 -29.5q-40 0 -67 23.5t-27 58.5q0 41 35 71t82 30q38 0 63.5 -22t25.5 -57zM297 62l75 -37l-2 -25h-331l-2 25l30 15q25 12 35 24t10 33v531l-75 37l2 25h331l2 -25l-30 -15q-25 -12 -35 -24t-10 -33v-531z" />
<glyph unicode="&#x131;" horiz-adv-x="348" d="M268 55l65 -35l-2 -20h-306l-2 20l30 16q35 19 35 61v307l-58 34l-2 14q44 21 110.5 37.5t121.5 20.5l8 -8v-447z" />
<glyph unicode="&#x132;" horiz-adv-x="802" d="M297 62l75 -37l-2 -25h-331l-2 25l30 15q25 12 35 24t10 33v531l-75 37l2 25h331l2 -25l-30 -15q-25 -12 -35 -24t-10 -33v-531zM521 628l-75 37l2 25h331l2 -25l-30 -15q-25 -12 -35 -24t-10 -33v-513q0 -96 -77.5 -169t-167.5 -81l-15 20q75 96 75 270v508z" />
<glyph unicode="&#x133;" horiz-adv-x="680" d="M269 678q0 -46 -31 -77t-77 -31q-39 0 -64.5 25t-25.5 61q0 43 33.5 74t79.5 31q36 0 60.5 -23t24.5 -60zM607 673q0 -46 -31 -77t-77 -31q-39 0 -64.5 25t-25.5 61q0 43 33.5 74t79.5 31q36 0 60.5 -23t24.5 -60zM268 55l65 -35l-2 -20h-306l-2 20l30 16q35 19 35 61 v307l-58 34l-2 14q44 21 110.5 37.5t121.5 20.5l8 -8v-447zM353 -240q75 96 75 270v374l-58 34l-2 14q44 21 110.5 37.5t121.5 20.5l8 -8v-512q0 -96 -76 -169t-164 -81z" />
<glyph unicode="&#x134;" horiz-adv-x="393" d="M376 778l-16 -11q-81 37 -156 66q-67 -29 -162 -66l-14 14q80 90 123 149l11 8h95q77 -89 119 -160zM112 628l-75 37l2 25h331l2 -25l-30 -15q-25 -12 -35 -24t-10 -33v-513q0 -96 -77.5 -169t-167.5 -81l-15 20q75 96 75 270v508z" />
<glyph unicode="&#x135;" horiz-adv-x="332" d="M282 560l-16 -11q-62 50 -106 80q-17 -13 -112 -80l-14 14q44 101 73 181l11 8h95q42 -100 69 -192zM5 -240q75 96 75 270v374l-58 34l-2 14q44 21 110.5 37.5t121.5 20.5l8 -8v-512q0 -96 -76 -169t-164 -81z" />
<glyph unicode="&#x136;" horiz-adv-x="759" d="M297 62l75 -37l-2 -25h-331l-2 25l30 15q25 12 35 24t10 33v531l-75 37l2 25h331l2 -25l-30 -15q-25 -12 -35 -24t-10 -33v-233h45l206 275l-85 30l2 25h251l2 -25q-39 -13 -66 -30q-25 -16 -56 -50l-128 -141l113 -194q14 -24 35 -63.5t33 -61t31.5 -46t41.5 -39.5 l29 -20l-2 -20l-185 -5q-35 -1 -54.5 13.5t-37.5 48.5l-130 248h-45v-243zM480 -160q0 -61 -45 -118.5t-99 -78.5l-12 11q36 50 48 112q-29 6 -46.5 26.5t-17.5 48.5q0 39 24.5 64.5t60.5 25.5q40 0 63.5 -24.5t23.5 -66.5z" />
<glyph unicode="&#x137;" horiz-adv-x="635" d="M260 55l65 -35l-2 -20h-306l-2 20l30 16q35 19 35 61v557l-58 34l-2 14q44 21 110.5 37.5t121.5 20.5l8 -8v-472h42l130 165l-85 35l2 20h251l2 -20q-37 -15 -68 -34q-29 -18 -64 -50l-45 -43l136 -259q21 -41 45 -56l29 -18l-2 -20h-160q-37 0 -56.5 14t-35.5 48 l-79 168h-42v-175zM436 -160q0 -61 -45 -118.5t-99 -78.5l-12 11q36 50 48 112q-29 6 -46.5 26.5t-17.5 48.5q0 39 24.5 64.5t60.5 25.5q40 0 63.5 -24.5t23.5 -66.5z" />
<glyph unicode="&#x138;" horiz-adv-x="631" d="M268 55l65 -35l-2 -20h-306l-2 20l30 16q35 19 35 61v307l-58 34l-2 14q44 21 110.5 37.5t121.5 20.5l8 -8v-237h22l159 187l-73 26l2 22h216l2 -22q-34 -10 -60 -31q-19 -14 -47 -41l-72 -69l96 -157q5 -8 17.5 -29.5t17.5 -29.5t16 -24t18 -24.5t17.5 -18t20.5 -16.5 l25 -16l-1 -22l-180 -6q-30 -1 -46 9.5t-30 36.5l-98 175h-22v-160z" />
<glyph unicode="&#x139;" horiz-adv-x="619" d="M293 940l13 2q31 -10 54.5 -32t23.5 -44q0 -29 -25 -49t-71 -30t-95 -13.5t-114 -3.5l-5 19q134 73 219 151zM112 628l-75 37l2 25h331l2 -25l-30 -15q-25 -12 -35 -24t-10 -33v-538h89q36 0 63 4q28 36 52 91l41 90h30q15 -60 15 -134q0 -47 -9 -106h-539l-2 25l30 15 q25 12 35 24t10 33v531z" />
<glyph unicode="&#x13a;" horiz-adv-x="340" d="M243 991l13 2q31 -10 54.5 -32t23.5 -44q0 -29 -25 -49t-71 -30t-95 -13.5t-114 -3.5l-5 19q134 73 219 151zM260 55l65 -35l-2 -20h-306l-2 20l30 16q35 19 35 61v557l-58 34l-2 14q44 21 110.5 37.5t121.5 20.5l8 -8v-697z" />
<glyph unicode="&#x13b;" horiz-adv-x="619" d="M112 628l-75 37l2 25h331l2 -25l-30 -15q-25 -12 -35 -24t-10 -33v-538h89q36 0 63 4q28 36 52 91l41 90h30q15 -60 15 -134q0 -47 -9 -106h-539l-2 25l30 15q25 12 35 24t10 33v531zM416 -160q0 -61 -45 -118.5t-99 -78.5l-12 11q36 50 48 112q-29 6 -46.5 26.5 t-17.5 48.5q0 39 24.5 64.5t60.5 25.5q40 0 63.5 -24.5t23.5 -66.5z" />
<glyph unicode="&#x13c;" horiz-adv-x="340" d="M260 55l65 -35l-2 -20h-306l-2 20l30 16q35 19 35 61v557l-58 34l-2 14q44 21 110.5 37.5t121.5 20.5l8 -8v-697zM254 -160q0 -61 -45 -118.5t-99 -78.5l-12 11q36 50 48 112q-29 6 -46.5 26.5t-17.5 48.5q0 39 24.5 64.5t60.5 25.5q40 0 63.5 -24.5t23.5 -66.5z" />
<glyph unicode="&#x13d;" horiz-adv-x="619" d="M586 688q0 -49 -37 -94.5t-82 -62.5l-10 9q29 40 39 89q-24 4 -38 20.5t-14 38.5q0 32 20 52t50 20q33 0 52.5 -19.5t19.5 -52.5zM112 628l-75 37l2 25h331l2 -25l-30 -15q-25 -12 -35 -24t-10 -33v-538h89q36 0 63 4q28 36 52 91l41 90h30q15 -60 15 -134q0 -47 -9 -106 h-539l-2 25l30 15q25 12 35 24t10 33v531z" />
<glyph unicode="&#x13e;" horiz-adv-x="511" d="M260 55l65 -35l-2 -20h-306l-2 20l30 16q35 19 35 61v557l-58 34l-2 14q44 21 110.5 37.5t121.5 20.5l8 -8v-697zM479 688q0 -49 -37 -94.5t-82 -62.5l-10 9q29 40 39 89q-24 4 -38 20.5t-14 38.5q0 32 20 52t50 20q33 0 52.5 -19.5t19.5 -52.5z" />
<glyph unicode="&#x13f;" horiz-adv-x="619" d="M112 628l-75 37l2 25h331l2 -25l-30 -15q-25 -12 -35 -24t-10 -33v-538h89q36 0 63 4q28 36 52 91l41 90h30q15 -60 15 -134q0 -47 -9 -106h-539l-2 25l30 15q25 12 35 24t10 33v531zM604 431q0 -46 -31 -77t-77 -31q-39 0 -64.5 25t-25.5 61q0 43 33.5 74t79.5 31 q36 0 60.5 -23t24.5 -60z" />
<glyph unicode="&#x140;" horiz-adv-x="490" d="M260 55l65 -35l-2 -20h-306l-2 20l30 16q35 19 35 61v557l-58 34l-2 14q44 21 110.5 37.5t121.5 20.5l8 -8v-697zM514 398q0 -46 -31 -77t-77 -31q-39 0 -64.5 25t-25.5 61q0 43 33.5 74t79.5 31q36 0 60.5 -23t24.5 -60z" />
<glyph unicode="&#x141;" horiz-adv-x="619" d="M408 426l-111 -61v-310h89q36 0 63 4q28 36 52 91l41 90h30q15 -60 15 -134q0 -47 -9 -106h-539l-2 25l30 15q25 12 35 24t10 33v165l-84 -46l-26 48l110 61v303l-75 37l2 25h331l2 -25l-30 -15q-25 -12 -35 -24t-10 -33v-166l84 47z" />
<glyph unicode="&#x142;" horiz-adv-x="340" d="M260 55l65 -35l-2 -20h-306l-2 20l30 16q35 19 35 61v202l-88 -49l-26 48l114 63v293l-58 34l-2 14q44 21 110.5 37.5t121.5 20.5l8 -8v-291l85 47l27 -48l-112 -62v-343z" />
<glyph unicode="&#x143;" horiz-adv-x="748" d="M487 935l13 2q31 -10 54.5 -32t23.5 -44q0 -29 -25 -49t-71 -30t-95 -13.5t-114 -3.5l-5 19q134 73 219 151zM172 62l95 -37l-2 -25h-226l-2 25l30 15q25 12 35 24t10 33v531l-37 19l-38 18l2 25h233l320 -471v409l-75 37l2 25h206l2 -25l-30 -15q-25 -12 -35 -24 t-10 -33v-593h-120l-360 513v-451z" />
<glyph unicode="&#x144;" horiz-adv-x="653" d="M471 711q0 -40 -66.5 -81.5t-171.5 -67.5l-11 16q67 95 109 181l11 8q11 1 34 1q95 0 95 -57zM268 55l65 -35l-2 -20h-306l-2 20l30 16q35 19 35 61v307l-58 34l-2 14q44 21 110.5 37.5t121.5 20.5l8 -8v-60q80 68 165 68q66 0 103 -39t37 -111v-305l65 -35l-2 -20h-231 l-12 12v325q0 38 -14 55.5t-45 17.5q-32 0 -66 -17v-338z" />
<glyph unicode="&#x145;" horiz-adv-x="748" d="M172 62l95 -37l-2 -25h-226l-2 25l30 15q25 12 35 24t10 33v531l-37 19l-38 18l2 25h233l320 -471v409l-75 37l2 25h206l2 -25l-30 -15q-25 -12 -35 -24t-10 -33v-593h-120l-360 513v-451zM462 -160q0 -61 -45 -118.5t-99 -78.5l-12 11q36 50 48 112q-29 6 -46.5 26.5 t-17.5 48.5q0 39 24.5 64.5t60.5 25.5q40 0 63.5 -24.5t23.5 -66.5z" />
<glyph unicode="&#x146;" horiz-adv-x="653" d="M268 55l65 -35l-2 -20h-306l-2 20l30 16q35 19 35 61v307l-58 34l-2 14q44 21 110.5 37.5t121.5 20.5l8 -8v-60q80 68 165 68q66 0 103 -39t37 -111v-305l65 -35l-2 -20h-231l-12 12v325q0 38 -14 55.5t-45 17.5q-32 0 -66 -17v-338zM414 -160q0 -61 -45 -118.5 t-99 -78.5l-12 11q36 50 48 112q-29 6 -46.5 26.5t-17.5 48.5q0 39 24.5 64.5t60.5 25.5q40 0 63.5 -24.5t23.5 -66.5z" />
<glyph unicode="&#x147;" horiz-adv-x="748" d="M461 775l-11 -8h-95q-77 89 -119 160l16 11q81 -37 156 -66q67 29 162 66l14 -14q-80 -90 -123 -149zM172 62l95 -37l-2 -25h-226l-2 25l30 15q25 12 35 24t10 33v531l-37 19l-38 18l2 25h233l320 -471v409l-75 37l2 25h206l2 -25l-30 -15q-25 -12 -35 -24t-10 -33v-593 h-120l-360 513v-451z" />
<glyph unicode="&#x148;" horiz-adv-x="653" d="M381 575l-11 -8h-95q-68 100 -109 186l16 11q70 -47 146 -87q72 43 152 87l14 -14q-69 -99 -113 -175zM268 55l65 -35l-2 -20h-306l-2 20l30 16q35 19 35 61v307l-58 34l-2 14q44 21 110.5 37.5t121.5 20.5l8 -8v-60q80 68 165 68q66 0 103 -39t37 -111v-305l65 -35 l-2 -20h-231l-12 12v325q0 38 -14 55.5t-45 17.5q-32 0 -66 -17v-338z" />
<glyph unicode="&#x14a;" horiz-adv-x="748" d="M172 62l95 -37l-2 -25h-226l-2 25l30 15q25 12 35 24t10 33v531l-37 19l-38 18l2 25h233l320 -471v409l-75 37l2 25h206l2 -25l-30 -15q-25 -12 -35 -24t-10 -33v-518q0 -47 -8.5 -81t-29.5 -62.5t-45.5 -50t-67.5 -51.5l-17 17q30 34 44 50.5t29.5 44.5t23.5 58h-49 l-360 513v-451z" />
<glyph unicode="&#x14b;" horiz-adv-x="645" d="M268 55l65 -35l-2 -20h-306l-2 20l30 16q35 19 35 61v307l-58 34l-2 14q44 21 110.5 37.5t121.5 20.5l8 -8v-60q80 68 165 68q66 0 103 -39t37 -111v-370q0 -96 -76 -169t-164 -81l-15 20q75 96 75 270v307q0 38 -14 55.5t-45 17.5q-32 0 -66 -17v-338z" />
<glyph unicode="&#x14c;" horiz-adv-x="760" d="M204 815v86h352v-86h-352zM40 345q0 165 98.5 260t242.5 95q150 0 244.5 -91.5t94.5 -258.5q0 -168 -96 -264t-245 -96q-151 0 -245 95t-94 260zM230 345q-1 -139 39 -219.5t113 -80.5q71 0 109 82.5t39 222.5q1 138 -37 216.5t-112 78.5q-71 0 -110.5 -80.5 t-40.5 -219.5z" />
<glyph unicode="&#x14d;" horiz-adv-x="564" d="M111 612v82h352v-82h-352zM532 250q0 -115 -71 -187.5t-184 -72.5q-111 0 -178 71t-67 189q0 115 71 187.5t184 72.5q111 0 178 -71t67 -189zM217 250q0 -122 13 -166t50 -44q38 0 52.5 46t14.5 164q0 117 -14 163.5t-49 46.5q-36 0 -51.5 -48.5t-15.5 -161.5z" />
<glyph unicode="&#x14e;" horiz-adv-x="760" d="M506 938l5 2l19 -6q-9 -73 -49.5 -114t-103.5 -41q-60 0 -96.5 42t-40.5 115l23 5q8 -27 40 -43t80 -16q47 0 80 15t43 41zM40 345q0 165 98.5 260t242.5 95q150 0 244.5 -91.5t94.5 -258.5q0 -168 -96 -264t-245 -96q-151 0 -245 95t-94 260zM230 345q-1 -139 39 -219.5 t113 -80.5q71 0 109 82.5t39 222.5q1 138 -37 216.5t-112 78.5q-71 0 -110.5 -80.5t-40.5 -219.5z" />
<glyph unicode="&#x14f;" horiz-adv-x="564" d="M414 754l5 2l19 -4q-5 -79 -47 -127t-106 -48t-103 48.5t-40 127.5l23 4q8 -33 41.5 -52.5t84.5 -19.5q47 0 80 18.5t43 50.5zM532 250q0 -115 -71 -187.5t-184 -72.5q-111 0 -178 71t-67 189q0 115 71 187.5t184 72.5q111 0 178 -71t67 -189zM217 250q0 -122 13 -166 t50 -44q38 0 52.5 46t14.5 164q0 117 -14 163.5t-49 46.5q-36 0 -51.5 -48.5t-15.5 -161.5z" />
<glyph unicode="&#x150;" horiz-adv-x="760" d="M314 944l13 2q27 -10 47.5 -32t20.5 -44q0 -29 -20 -49t-57 -30t-76.5 -13.5t-91.5 -3.5l-5 19q101 72 169 151zM554 944l13 2q27 -10 47.5 -32t20.5 -44q0 -29 -20 -49t-57 -30t-76.5 -13.5t-91.5 -3.5l-5 19q101 72 169 151zM40 345q0 165 98.5 260t242.5 95 q150 0 244.5 -91.5t94.5 -258.5q0 -168 -96 -264t-245 -96q-151 0 -245 95t-94 260zM230 345q-1 -139 39 -219.5t113 -80.5q71 0 109 82.5t39 222.5q1 138 -37 216.5t-112 78.5q-71 0 -110.5 -80.5t-40.5 -219.5z" />
<glyph unicode="&#x151;" horiz-adv-x="564" d="M321 711q0 -40 -57 -81.5t-148 -67.5l-11 16q67 97 106 181l11 8q11 1 34 1q65 0 65 -57zM511 711q0 -40 -57.5 -81t-147.5 -68l-11 16q67 97 106 181l11 8q11 1 34 1q65 0 65 -57zM532 250q0 -115 -71 -187.5t-184 -72.5q-111 0 -178 71t-67 189q0 115 71 187.5 t184 72.5q111 0 178 -71t67 -189zM217 250q0 -122 13 -166t50 -44q38 0 52.5 46t14.5 164q0 117 -14 163.5t-49 46.5q-36 0 -51.5 -48.5t-15.5 -161.5z" />
<glyph unicode="&#x152;" horiz-adv-x="991" d="M661 365l180 10l-3 -70l-177 10v-260h89q36 0 63 4q24 31 52 91l41 90h30q15 -60 15 -134q0 -47 -9 -106h-466v1q-36 -11 -72 -11q-162 0 -263 95t-101 260q0 110 51 192t133 122.5t182 40.5q40 0 71 -10h455q9 -59 9 -106q0 -74 -15 -134h-30l-41 90q-28 60 -52 91 q-27 4 -63 4h-79v-270zM230 345q-1 -139 49.5 -219.5t142.5 -80.5q30 0 54 15v571q-25 14 -55 14q-90 0 -140 -80.5t-51 -219.5z" />
<glyph unicode="&#x153;" horiz-adv-x="846" d="M812 125q-59 -135 -207 -135q-113 0 -181 71q-65 -71 -168 -71q-102 0 -163.5 71t-61.5 189q0 115 65.5 187.5t169.5 72.5q105 0 166 -75q72 75 179 75q88 0 146.5 -54.5t58.5 -144.5q0 -34 -1 -45l-15 -15h-266q7 -75 42 -110.5t100 -35.5q66 0 121 32zM216 250 q0 -122 13 -166t50 -44q38 0 52.5 46t14.5 164q0 117 -14 163.5t-49 46.5q-36 0 -51.5 -48.5t-15.5 -161.5zM594 460q-31 0 -47 -44t-16 -114v-10l104 6q1 11 1 41q0 67 -10 94t-32 27z" />
<glyph unicode="&#x154;" horiz-adv-x="759" d="M444 940l13 2q31 -10 54.5 -32t23.5 -44q0 -29 -25 -49t-71 -30t-95 -13.5t-114 -3.5l-5 19q134 73 219 151zM297 62l75 -37l-2 -25h-331l-2 25l30 15q25 12 35 24t10 33v531l-75 37l2 25h338q130 0 205 -53t75 -140q0 -115 -123 -178l42 -69q14 -23 36.5 -63.5t34.5 -61 t32.5 -45t42.5 -40.5l29 -20l-2 -20l-185 -5q-35 -1 -54.5 13.5t-37.5 48.5l-114 223h-61v-218zM352 635h-55v-300h55q54 0 84.5 41t30.5 110q0 68 -30.5 108.5t-84.5 40.5z" />
<glyph unicode="&#x155;" horiz-adv-x="458" d="M389 711q0 -40 -66.5 -81.5t-171.5 -67.5l-11 16q67 95 109 181l11 8q11 1 34 1q95 0 95 -57zM268 55l85 -35l-2 -20h-326l-2 20l30 16q35 19 35 61v307l-58 34l-2 14q44 21 110.5 37.5t121.5 20.5l8 -8v-77q63 85 122 85q30 0 49 -19t19 -53q0 -53 -47 -105h-20 q-52 33 -113 45l-10 -4v-319z" />
<glyph unicode="&#x156;" horiz-adv-x="759" d="M297 62l75 -37l-2 -25h-331l-2 25l30 15q25 12 35 24t10 33v531l-75 37l2 25h338q130 0 205 -53t75 -140q0 -115 -123 -178l42 -69q14 -23 36.5 -63.5t34.5 -61t32.5 -45t42.5 -40.5l29 -20l-2 -20l-185 -5q-35 -1 -54.5 13.5t-37.5 48.5l-114 223h-61v-218zM352 635h-55 v-300h55q54 0 84.5 41t30.5 110q0 68 -30.5 108.5t-84.5 40.5zM483 -160q0 -61 -45 -118.5t-99 -78.5l-12 11q36 50 48 112q-29 6 -46.5 26.5t-17.5 48.5q0 39 24.5 64.5t60.5 25.5q40 0 63.5 -24.5t23.5 -66.5z" />
<glyph unicode="&#x157;" horiz-adv-x="458" d="M268 55l85 -35l-2 -20h-326l-2 20l30 16q35 19 35 61v307l-58 34l-2 14q44 21 110.5 37.5t121.5 20.5l8 -8v-77q63 85 122 85q30 0 49 -19t19 -53q0 -53 -47 -105h-20q-52 33 -113 45l-10 -4v-319zM263 -160q0 -61 -45 -118.5t-99 -78.5l-12 11q36 50 48 112 q-29 6 -46.5 26.5t-17.5 48.5q0 39 24.5 64.5t60.5 25.5q40 0 63.5 -24.5t23.5 -66.5z" />
<glyph unicode="&#x158;" horiz-adv-x="759" d="M428 780l-11 -8h-95q-77 89 -119 160l16 11q81 -37 156 -66q67 29 162 66l14 -14q-80 -90 -123 -149zM297 62l75 -37l-2 -25h-331l-2 25l30 15q25 12 35 24t10 33v531l-75 37l2 25h338q130 0 205 -53t75 -140q0 -115 -123 -178l42 -69q14 -23 36.5 -63.5t34.5 -61 t32.5 -45t42.5 -40.5l29 -20l-2 -20l-185 -5q-35 -1 -54.5 13.5t-37.5 48.5l-114 223h-61v-218zM352 635h-55v-300h55q54 0 84.5 41t30.5 110q0 68 -30.5 108.5t-84.5 40.5z" />
<glyph unicode="&#x159;" horiz-adv-x="458" d="M299 575l-11 -8h-95q-68 100 -109 186l16 11q70 -47 146 -87q73 43 152 87l14 -14q-69 -99 -113 -175zM268 55l85 -35l-2 -20h-326l-2 20l30 16q35 19 35 61v307l-58 34l-2 14q44 21 110.5 37.5t121.5 20.5l8 -8v-77q63 85 122 85q30 0 49 -19t19 -53q0 -53 -47 -105h-20 q-52 33 -113 45l-10 -4v-319z" />
<glyph unicode="&#x15a;" horiz-adv-x="562" d="M378 940l13 2q31 -10 54.5 -32t23.5 -44q0 -29 -25 -49t-71 -30t-95 -13.5t-114 -3.5l-5 19q134 73 219 151zM239 -10q-154 0 -188 34q-19 19 -19 70q0 84 40 141l30 -3q21 -108 57 -149q38 -43 101 -43q44 0 67 24t23 63q0 44 -31.5 80t-77 63.5t-91 56.5t-77 73 t-31.5 99q0 96 80.5 148.5t200.5 52.5q59 0 114 -11.5t70 -25.5q14 -13 14 -51q0 -35 -10.5 -81.5t-29.5 -75.5l-30 2q-16 89 -46 140q-30 53 -87 53q-44 0 -70 -27.5t-26 -69.5q0 -37 23 -68.5t57 -52.5t74 -47.5t74 -52t57 -66.5t23 -91q0 -185 -291 -185z" />
<glyph unicode="&#x15b;" horiz-adv-x="483" d="M397 711q0 -40 -66.5 -81.5t-171.5 -67.5l-11 16q67 95 109 181l11 8q11 1 34 1q95 0 95 -57zM205 -10q-123 0 -154 29q-19 19 -19 63q0 61 40 101l15 -3q14 -59 50 -100q35 -40 77 -40q28 0 42.5 14t14.5 37q0 29 -23.5 53.5t-57 43.5t-67 40.5t-57 54t-23.5 73.5 q0 73 67 113.5t170 40.5q48 0 89.5 -8.5t53.5 -18.5q14 -12 14 -48q0 -65 -40 -108l-15 2q-16 58 -41 93q-27 38 -64 38q-25 0 -39.5 -14t-14.5 -37q0 -29 23.5 -53t57 -43t67 -40.5t57 -55t23.5 -76.5q0 -74 -66 -112.5t-180 -38.5z" />
<glyph unicode="&#x15c;" horiz-adv-x="562" d="M486 783l-16 -11q-81 37 -156 66q-67 -29 -162 -66l-14 14q80 90 123 149l11 8h95q77 -89 119 -160zM239 -10q-154 0 -188 34q-19 19 -19 70q0 84 40 141l30 -3q21 -108 57 -149q38 -43 101 -43q44 0 67 24t23 63q0 44 -31.5 80t-77 63.5t-91 56.5t-77 73t-31.5 99 q0 96 80.5 148.5t200.5 52.5q59 0 114 -11.5t70 -25.5q14 -13 14 -51q0 -35 -10.5 -81.5t-29.5 -75.5l-30 2q-16 89 -46 140q-30 53 -87 53q-44 0 -70 -27.5t-26 -69.5q0 -37 23 -68.5t57 -52.5t74 -47.5t74 -52t57 -66.5t23 -91q0 -185 -291 -185z" />
<glyph unicode="&#x15d;" horiz-adv-x="483" d="M419 577l-16 -11q-70 47 -146 87q-73 -44 -152 -87l-14 14q69 99 113 175l11 8h95q68 -100 109 -186zM205 -10q-123 0 -154 29q-19 19 -19 63q0 61 40 101l15 -3q14 -59 50 -100q35 -40 77 -40q28 0 42.5 14t14.5 37q0 29 -23.5 53.5t-57 43.5t-67 40.5t-57 54 t-23.5 73.5q0 73 67 113.5t170 40.5q48 0 89.5 -8.5t53.5 -18.5q14 -12 14 -48q0 -65 -40 -108l-15 2q-16 58 -41 93q-27 38 -64 38q-25 0 -39.5 -14t-14.5 -37q0 -29 23.5 -53t57 -43t67 -40.5t57 -55t23.5 -76.5q0 -74 -66 -112.5t-180 -38.5z" />
<glyph unicode="&#x15e;" horiz-adv-x="562" d="M239 -10q-154 0 -188 34q-19 19 -19 70q0 84 40 141l30 -3q21 -108 57 -149q38 -43 101 -43q44 0 67 24t23 63q0 44 -31.5 80t-77 63.5t-91 56.5t-77 73t-31.5 99q0 96 80.5 148.5t200.5 52.5q59 0 114 -11.5t70 -25.5q14 -13 14 -51q0 -35 -10.5 -81.5t-29.5 -75.5 l-30 2q-16 89 -46 140q-30 53 -87 53q-44 0 -70 -27.5t-26 -69.5q0 -37 23 -68.5t57 -52.5t74 -47.5t74 -52t57 -66.5t23 -91q0 -161 -221 -182l-10 -50q63 -6 97.5 -29.5t34.5 -59.5q0 -54 -58 -84.5t-171 -30.5l-5 15q81 39 81 82q0 15 -12 26t-31 15l-6 10l18 103h-8z " />
<glyph unicode="&#x15f;" horiz-adv-x="483" d="M177 -123l-6 10l18 103q-111 4 -138 29q-19 19 -19 63q0 61 40 101l15 -3q14 -59 50 -100q35 -40 77 -40q28 0 42.5 14t14.5 37q0 29 -23.5 53.5t-57 43.5t-67 40.5t-57 54t-23.5 73.5q0 73 67 113.5t170 40.5q48 0 89.5 -8.5t53.5 -18.5q14 -12 14 -48q0 -65 -40 -108 l-15 2q-16 58 -41 93q-27 38 -64 38q-25 0 -39.5 -14t-14.5 -37q0 -29 23.5 -53t57 -43t67 -40.5t57 -55t23.5 -76.5q0 -66 -53.5 -104t-147.5 -45l-9 -49q63 -6 97.5 -29.5t34.5 -59.5q0 -54 -58 -84.5t-171 -30.5l-5 15q81 39 81 82q0 15 -12 26t-31 15z" />
<glyph unicode="&#x160;" horiz-adv-x="562" d="M362 780l-11 -8h-95q-77 89 -119 160l16 11q81 -37 156 -66q67 29 162 66l14 -14q-80 -90 -123 -149zM239 -10q-154 0 -188 34q-19 19 -19 70q0 84 40 141l30 -3q21 -108 57 -149q38 -43 101 -43q44 0 67 24t23 63q0 44 -31.5 80t-77 63.5t-91 56.5t-77 73t-31.5 99 q0 96 80.5 148.5t200.5 52.5q59 0 114 -11.5t70 -25.5q14 -13 14 -51q0 -35 -10.5 -81.5t-29.5 -75.5l-30 2q-16 89 -46 140q-30 53 -87 53q-44 0 -70 -27.5t-26 -69.5q0 -37 23 -68.5t57 -52.5t74 -47.5t74 -52t57 -66.5t23 -91q0 -185 -291 -185z" />
<glyph unicode="&#x161;" horiz-adv-x="483" d="M317 575l-11 -8h-95q-68 100 -109 186l16 11q70 -47 146 -87q72 43 152 87l14 -14q-69 -99 -113 -175zM205 -10q-123 0 -154 29q-19 19 -19 63q0 61 40 101l15 -3q14 -59 50 -100q35 -40 77 -40q28 0 42.5 14t14.5 37q0 29 -23.5 53.5t-57 43.5t-67 40.5t-57 54 t-23.5 73.5q0 73 67 113.5t170 40.5q48 0 89.5 -8.5t53.5 -18.5q14 -12 14 -48q0 -65 -40 -108l-15 2q-16 58 -41 93q-27 38 -64 38q-25 0 -39.5 -14t-14.5 -37q0 -29 23.5 -53t57 -43t67 -40.5t57 -55t23.5 -76.5q0 -74 -66 -112.5t-180 -38.5z" />
<glyph unicode="&#x162;" horiz-adv-x="668" d="M272 -123l-6 10l20 113h-117l-2 25l30 15q25 12 35 24t10 33v538h-17q-36 0 -63 -4q-24 -31 -52 -91l-41 -90h-30q-15 60 -15 134q0 47 9 106h602q9 -59 9 -106q0 -74 -15 -134h-30l-41 90q-28 60 -52 91q-27 4 -63 4h-16v-573l75 -37l-2 -25h-153l-11 -57 q63 -6 97.5 -29.5t34.5 -59.5q0 -54 -58 -84.5t-171 -30.5l-5 15q81 39 81 82q0 15 -12 26t-31 15z" />
<glyph unicode="&#x163;" horiz-adv-x="415" d="M178 -123l-6 10l19 105q-119 15 -119 168v270h-63l-2 20l66 55l159 135l20 -2v-158h125v-50h-125v-245q0 -80 64 -80q41 0 76 32l15 -12q-51 -115 -155 -132l-10 -50q63 -6 97.5 -29.5t34.5 -59.5q0 -54 -58 -84.5t-171 -30.5l-5 15q81 39 81 82q0 15 -12 26t-31 15z" />
<glyph unicode="&#x164;" horiz-adv-x="668" d="M389 780l-11 -8h-95q-77 89 -119 160l16 11q81 -37 156 -66q67 29 162 66l14 -14q-80 -90 -123 -149zM427 62l75 -37l-2 -25h-331l-2 25l30 15q25 12 35 24t10 33v538h-17q-36 0 -63 -4q-24 -31 -52 -91l-41 -90h-30q-15 60 -15 134q0 47 9 106h602q9 -59 9 -106 q0 -74 -15 -134h-30l-41 90q-28 60 -52 91q-27 4 -63 4h-16v-573z" />
<glyph unicode="&#x165;" horiz-adv-x="415" d="M450 688q0 -49 -37 -94.5t-82 -62.5l-10 9q29 40 39 89q-24 4 -38 20.5t-14 38.5q0 32 20 52t50 20q33 0 52.5 -19.5t19.5 -52.5zM407 125q-25 -57 -72 -96t-118 -39q-145 0 -145 170v270h-63l-2 20l66 55l159 135l20 -2v-158h125v-50h-125v-245q0 -80 64 -80q41 0 76 32 z" />
<glyph unicode="&#x166;" horiz-adv-x="668" d="M427 62l75 -37l-2 -25h-331l-2 25l30 15q25 12 35 24t10 33v223h-145v50h145v265h-17q-36 0 -63 -4q-24 -31 -52 -91l-41 -90h-30q-15 60 -15 134q0 47 9 106h602q9 -59 9 -106q0 -74 -15 -134h-30l-41 90q-28 60 -52 91q-27 4 -63 4h-16v-265h120v-50h-120v-258z" />
<glyph unicode="&#x167;" horiz-adv-x="415" d="M377 306h-125v-121q0 -80 64 -80q41 0 76 32l15 -12q-25 -57 -72 -96t-118 -39q-145 0 -145 170v146h-65v50h65v74h-63l-2 20l66 55l159 135l20 -2v-158h125v-50h-125v-74h125v-50z" />
<glyph unicode="&#x168;" horiz-adv-x="682" d="M221 768l-20 6q-2 20 -2 31q0 57 28 96.5t81 39.5q35 0 72.5 -9t85 -26t64.5 -22l49 63l20 -6q2 -24 2 -39q0 -53 -28 -90.5t-81 -37.5q-35 0 -72.5 9t-85 26t-64.5 22zM75 245v383l-75 37l2 25h331l2 -25l-30 -15q-25 -12 -35 -24t-10 -33v-352q0 -93 37.5 -142 t103.5 -49q69 0 106.5 48t37.5 144v386l-75 37l2 25h206l2 -25l-75 -37v-383q0 -255 -255 -255q-130 0 -202.5 65t-72.5 190z" />
<glyph unicode="&#x169;" horiz-adv-x="653" d="M163 594l-20 6q-2 18 -2 27q0 55 28 93.5t81 38.5q32 0 66 -9t77.5 -26t58.5 -22l49 55l20 -6q2 -22 2 -35q0 -52 -28 -88t-81 -36q-32 0 -66 9t-77.5 26t-58.5 22zM80 145v259l-58 34l-2 14q44 21 110.5 37.5t121.5 20.5l8 -8v-336q0 -42 15.5 -61.5t49.5 -19.5 q29 0 60 14v305l-58 34l-2 14q44 21 110.5 37.5t121.5 20.5l8 -8v-357q0 -65 43 -65q19 0 38 4l4 -14q-48 -80 -144 -80q-81 0 -111 66q-71 -66 -160 -66q-72 0 -113.5 40.5t-41.5 114.5z" />
<glyph unicode="&#x16a;" horiz-adv-x="682" d="M214 815v86h352v-86h-352zM75 245v383l-75 37l2 25h331l2 -25l-30 -15q-25 -12 -35 -24t-10 -33v-352q0 -93 37.5 -142t103.5 -49q69 0 106.5 48t37.5 144v386l-75 37l2 25h206l2 -25l-75 -37v-383q0 -255 -255 -255q-130 0 -202.5 65t-72.5 190z" />
<glyph unicode="&#x16b;" horiz-adv-x="653" d="M154 612v82h352v-82h-352zM80 145v259l-58 34l-2 14q44 21 110.5 37.5t121.5 20.5l8 -8v-336q0 -42 15.5 -61.5t49.5 -19.5q29 0 60 14v305l-58 34l-2 14q44 21 110.5 37.5t121.5 20.5l8 -8v-357q0 -65 43 -65q19 0 38 4l4 -14q-48 -80 -144 -80q-81 0 -111 66 q-71 -66 -160 -66q-72 0 -113.5 40.5t-41.5 114.5z" />
<glyph unicode="&#x16c;" horiz-adv-x="682" d="M531 938l5 2l19 -6q-9 -73 -49.5 -114t-103.5 -41q-60 0 -96.5 42t-40.5 115l23 5q8 -27 40 -43t80 -16q47 0 80 15t43 41zM75 245v383l-75 37l2 25h331l2 -25l-30 -15q-25 -12 -35 -24t-10 -33v-352q0 -93 37.5 -142t103.5 -49q69 0 106.5 48t37.5 144v386l-75 37l2 25 h206l2 -25l-75 -37v-383q0 -255 -255 -255q-130 0 -202.5 65t-72.5 190z" />
<glyph unicode="&#x16d;" horiz-adv-x="653" d="M467 754l5 2l19 -4q-5 -79 -47 -127t-106 -48t-103 48.5t-40 127.5l23 4q8 -33 41.5 -52.5t84.5 -19.5q47 0 80 18.5t43 50.5zM80 145v259l-58 34l-2 14q44 21 110.5 37.5t121.5 20.5l8 -8v-336q0 -42 15.5 -61.5t49.5 -19.5q29 0 60 14v305l-58 34l-2 14 q44 21 110.5 37.5t121.5 20.5l8 -8v-357q0 -65 43 -65q19 0 38 4l4 -14q-48 -80 -144 -80q-81 0 -111 66q-71 -66 -160 -66q-72 0 -113.5 40.5t-41.5 114.5z" />
<glyph unicode="&#x16e;" horiz-adv-x="682" d="M397 766q-51 0 -82.5 25.5t-31.5 67.5q0 45 34 73.5t88 28.5q50 0 81.5 -26t31.5 -66q0 -45 -34 -74t-87 -29zM401 922q-23 0 -37.5 -17.5t-14.5 -43.5q0 -24 14.5 -40t36.5 -16q23 0 37.5 17.5t14.5 44.5q0 23 -14.5 39t-36.5 16zM75 245v383l-75 37l2 25h331l2 -25 l-30 -15q-25 -12 -35 -24t-10 -33v-352q0 -93 37.5 -142t103.5 -49q69 0 106.5 48t37.5 144v386l-75 37l2 25h206l2 -25l-75 -37v-383q0 -255 -255 -255q-130 0 -202.5 65t-72.5 190z" />
<glyph unicode="&#x16f;" horiz-adv-x="653" d="M336 568q-51 0 -82.5 25.5t-31.5 67.5q0 45 34 73.5t88 28.5q50 0 81.5 -26t31.5 -66q0 -45 -34 -74t-87 -29zM340 724q-23 0 -37.5 -17.5t-14.5 -43.5q0 -24 14.5 -40t36.5 -16q23 0 37.5 17.5t14.5 44.5q0 23 -14.5 39t-36.5 16zM80 145v259l-58 34l-2 14 q44 21 110.5 37.5t121.5 20.5l8 -8v-336q0 -42 15.5 -61.5t49.5 -19.5q29 0 60 14v305l-58 34l-2 14q44 21 110.5 37.5t121.5 20.5l8 -8v-357q0 -65 43 -65q19 0 38 4l4 -14q-48 -80 -144 -80q-81 0 -111 66q-71 -66 -160 -66q-72 0 -113.5 40.5t-41.5 114.5z" />
<glyph unicode="&#x170;" horiz-adv-x="682" d="M314 944l13 2q27 -10 47.5 -32t20.5 -44q0 -29 -20 -49t-57 -30t-76.5 -13.5t-91.5 -3.5l-5 19q101 72 169 151zM554 944l13 2q27 -10 47.5 -32t20.5 -44q0 -29 -20 -49t-57 -30t-76.5 -13.5t-91.5 -3.5l-5 19q101 72 169 151zM75 245v383l-75 37l2 25h331l2 -25l-30 -15 q-25 -12 -35 -24t-10 -33v-352q0 -93 37.5 -142t103.5 -49q69 0 106.5 48t37.5 144v386l-75 37l2 25h206l2 -25l-75 -37v-383q0 -255 -255 -255q-130 0 -202.5 65t-72.5 190z" />
<glyph unicode="&#x171;" horiz-adv-x="653" d="M359 711q0 -40 -57 -81.5t-148 -67.5l-11 16q67 97 106 181l11 8q11 1 34 1q65 0 65 -57zM549 711q0 -40 -57.5 -81t-147.5 -68l-11 16q67 97 106 181l11 8q11 1 34 1q65 0 65 -57zM80 145v259l-58 34l-2 14q44 21 110.5 37.5t121.5 20.5l8 -8v-336q0 -42 15.5 -61.5 t49.5 -19.5q29 0 60 14v305l-58 34l-2 14q44 21 110.5 37.5t121.5 20.5l8 -8v-357q0 -65 43 -65q19 0 38 4l4 -14q-48 -80 -144 -80q-81 0 -111 66q-71 -66 -160 -66q-72 0 -113.5 40.5t-41.5 114.5z" />
<glyph unicode="&#x172;" horiz-adv-x="682" d="M75 245v383l-75 37l2 25h331l2 -25l-30 -15q-25 -12 -35 -24t-10 -33v-352q0 -93 37.5 -142t103.5 -49q69 0 106.5 48t37.5 144v386l-75 37l2 25h206l2 -25l-75 -37v-383q0 -134 -70 -198q-12 -13 -42 -43.5t-44 -46t-27 -39t-13 -43.5q0 -23 15.5 -35t39.5 -12 q15 0 36 4l4 -14q-41 -78 -129 -78q-44 0 -75 25t-31 68q0 50 40.5 89t121.5 76q-40 -8 -81 -8q-130 0 -202.5 65t-72.5 190z" />
<glyph unicode="&#x173;" horiz-adv-x="653" d="M80 145v259l-58 34l-2 14q44 21 110.5 37.5t121.5 20.5l8 -8v-336q0 -42 15.5 -61.5t49.5 -19.5q29 0 60 14v305l-58 34l-2 14q44 21 110.5 37.5t121.5 20.5l8 -8v-357q0 -65 43 -65q19 0 38 4l4 -14l-6 -9q-17 -26 -52.5 -62.5t-55.5 -65.5t-20 -58q0 -47 54 -47 q22 0 37 4l4 -14q-40 -78 -125 -78q-48 0 -79 26.5t-31 69.5q0 51 44 87.5t122 70.5q-15 -4 -36 -4q-81 0 -111 66q-71 -66 -160 -66q-72 0 -113.5 40.5t-41.5 114.5z" />
<glyph unicode="&#x174;" horiz-adv-x="1067" d="M748 783l-16 -11q-81 37 -156 66q-67 -29 -162 -66l-14 14q80 90 123 149l11 8h95q77 -89 119 -160zM397 0h-118l-191 596q-7 22 -17.5 31.5t-32.5 21.5l-30 16l2 25h337l2 -25l-75 -28l133 -463l100 334l-28 88q-8 25 -15 34t-25 19l-30 16l2 25h327l2 -25l-75 -28 l133 -463l138 462l-76 29l2 25h195l2 -25q-9 -5 -25.5 -12t-23.5 -11q-21 -14 -31 -45l-191 -597h-118l-137 426z" />
<glyph unicode="&#x175;" horiz-adv-x="786" d="M608 577l-16 -11q-70 47 -146 87q-73 -44 -152 -87l-14 14q69 99 113 175l11 8h95q68 -100 109 -186zM501 500l103 -309l66 258l-70 31l2 20h182l2 -20q-28 -10 -47 -26q-23 -18 -31 -47l-117 -407h-108l-91 268l-99 -268h-108l-116 406q-7 25 -28 46q-19 19 -41 28l2 20 h308l2 -20l-62 -33l62 -257l111 310h78z" />
<glyph unicode="&#x176;" horiz-adv-x="701" d="M573 783l-16 -11q-81 37 -156 66q-67 -29 -162 -66l-14 14q80 90 123 149l11 8h95q77 -89 119 -160zM443 62l75 -37l-2 -25h-331l-2 25l30 15q25 12 35 24t10 33v203l-167 296q-14 26 -26.5 36.5t-36.5 22.5l-20 10l2 25h342l2 -25l-76 -28l142 -286l146 287l-75 27l2 25 h198l2 -25q-36 -17 -48 -27q-18 -13 -34 -41l-168 -298v-237z" />
<glyph unicode="&#x177;" horiz-adv-x="548" d="M459 577l-16 -11q-70 47 -146 87q-73 -44 -152 -87l-14 14q69 99 113 175l11 8h95q68 -100 109 -186zM281 0h-66l-146 406q-9 25 -28 46q-16 18 -41 28l2 20h308l2 -20l-62 -33l86 -284l97 285l-71 32l2 20h182l2 -20q-28 -9 -49 -27q-15 -14 -28 -46l-166 -457 q-41 -114 -84 -162t-93 -48q-36 0 -58 25.5t-22 66.5q0 32 14 63l10 4q30 -10 59 -10q45 0 89 30t61 81z" />
<glyph unicode="&#x178;" horiz-adv-x="701" d="M619 869q0 -39 -28.5 -65t-71.5 -26q-35 0 -58 20.5t-23 50.5q0 37 30 64t72 27q33 0 56 -20t23 -51zM378 869q0 -39 -28.5 -65t-71.5 -26q-35 0 -58 20.5t-23 50.5q0 37 30 64t72 27q33 0 56 -20t23 -51zM443 62l75 -37l-2 -25h-331l-2 25l30 15q25 12 35 24t10 33v203 l-167 296q-14 26 -26.5 36.5t-36.5 22.5l-20 10l2 25h342l2 -25l-76 -28l142 -286l146 287l-75 27l2 25h198l2 -25q-36 -17 -48 -27q-18 -13 -34 -41l-168 -298v-237z" />
<glyph unicode="&#x179;" horiz-adv-x="661" d="M418 940l13 2q31 -10 54.5 -32t23.5 -44q0 -29 -25 -49t-71 -30t-95 -13.5t-114 -3.5l-5 19q134 73 219 151zM594 0h-536l-10 50l357 585h-136q-36 0 -63 -4l-103 -181h-30q-15 60 -15 134q0 47 9 106h536l10 -50l-356 -585h135q36 0 63 4l103 181h30q15 -57 15 -130 q0 -49 -9 -110z" />
<glyph unicode="&#x17a;" horiz-adv-x="512" d="M409 711q0 -40 -66.5 -81.5t-171.5 -67.5l-11 16q67 95 109 181l11 8q11 1 34 1q95 0 95 -57zM477 78q0 -39 -9 -78h-426l-10 50l256 400h-120l-92 -134h-20q-17 54 -17 106q0 39 9 78h422l10 -50l-257 -400h125l92 134h20q17 -54 17 -106z" />
<glyph unicode="&#x17b;" horiz-adv-x="661" d="M445 870q0 -45 -32 -74.5t-80 -29.5q-40 0 -67 23.5t-27 58.5q0 41 35 71t82 30q38 0 63.5 -22t25.5 -57zM594 0h-536l-10 50l357 585h-136q-36 0 -63 -4l-103 -181h-30q-15 60 -15 134q0 47 9 106h536l10 -50l-356 -585h135q36 0 63 4l103 181h30q15 -57 15 -130 q0 -49 -9 -110z" />
<glyph unicode="&#x17c;" horiz-adv-x="512" d="M366 678q0 -46 -31 -77t-77 -31q-39 0 -64.5 25t-25.5 61q0 43 33.5 74t79.5 31q36 0 60.5 -23t24.5 -60zM477 78q0 -39 -9 -78h-426l-10 50l256 400h-120l-92 -134h-20q-17 54 -17 106q0 39 9 78h422l10 -50l-257 -400h125l92 134h20q17 -54 17 -106z" />
<glyph unicode="&#x17d;" horiz-adv-x="661" d="M392 780l-11 -8h-95q-77 89 -119 160l16 11q81 -37 156 -66q67 29 162 66l14 -14q-80 -90 -123 -149zM594 0h-536l-10 50l357 585h-136q-36 0 -63 -4l-103 -181h-30q-15 60 -15 134q0 47 9 106h536l10 -50l-356 -585h135q36 0 63 4l103 181h30q15 -57 15 -130 q0 -49 -9 -110z" />
<glyph unicode="&#x17e;" horiz-adv-x="512" d="M319 575l-11 -8h-95q-68 100 -109 186l16 11q70 -47 146 -87q73 43 152 87l14 -14q-69 -99 -113 -175zM477 78q0 -39 -9 -78h-426l-10 50l256 400h-120l-92 -134h-20q-17 54 -17 106q0 39 9 78h422l10 -50l-257 -400h125l92 134h20q17 -54 17 -106z" />
<glyph unicode="&#x18f;" horiz-adv-x="734" d="M360 -10q-131 0 -218 78.5t-87 207.5q0 42 1 55l18 18h436q-2 151 -38 222.5t-110 71.5q-61 0 -95.5 -34t-34.5 -104q0 -28 5 -53q-44 -24 -90 -24q-38 0 -62 16t-24 46q0 79 95 144.5t209 65.5q153 0 245 -93.5t92 -249.5q0 -164 -98 -265.5t-244 -101.5zM509 304 l-262 -12q-1 -11 -1 -39q0 -98 32 -152t90 -54q69 0 104.5 74t37.5 193z" />
<glyph unicode="&#x192;" horiz-adv-x="633" d="M79 292l8 70h115l6 88q4 64 29.5 113t65.5 78.5t87.5 44t99.5 14.5q66 0 104.5 -25.5t38.5 -64.5q0 -38 -24.5 -62t-55.5 -33q-12 32 -19 49t-18 38.5t-22 31.5t-23 10q-32 0 -47.5 -43.5t-34.5 -143.5q-1 -5 -1 -7l-16 -88h165l-8 -70h-170l-34 -182 q-19 -103 -103.5 -176.5t-181.5 -73.5q-41 0 -65.5 20.5t-24.5 54.5q0 51 60 89q50 -98 98 -98q36 0 54 54.5t23 129.5l12 182h-118z" />
<glyph unicode="&#x19d;" horiz-adv-x="748" d="M21 -170l-17 17q33 37 46.5 54t31.5 49t24 67.5t6 86.5v524l-37 19l-38 18l2 25h233l320 -471v409l-75 37l2 25h206l2 -25l-30 -15q-25 -12 -35 -24t-10 -33v-593h-120l-360 513v-438q0 -47 -8.5 -81t-29.5 -62.5t-45.5 -50t-67.5 -51.5z" />
<glyph unicode="&#x1cd;" horiz-adv-x="716" d="M419 780l-11 -8h-95q-77 89 -119 160l16 11q81 -37 156 -66q67 29 162 66l14 -14q-80 -90 -123 -149zM299 690h118l211 -596q7 -22 17.5 -31.5t32.5 -21.5l30 -16l-2 -25h-337l-2 25l75 28l-47 145l-215 -3l-48 -141l75 -29l-2 -25h-195l-2 25q37 17 49 25q22 17 31 43z M196 245l184 -2l-91 278z" />
<glyph unicode="&#x1ce;" horiz-adv-x="575" d="M351 575l-11 -8h-95q-68 100 -109 186l16 11q70 -47 146 -87q72 43 152 87l14 -14q-69 -99 -113 -175zM314 510q89 0 137.5 -45t48.5 -132q0 -16 -2.5 -93.5t-2.5 -91.5q0 -68 46 -68q15 0 35 4l4 -14q-23 -39 -61 -59.5t-81 -20.5q-42 0 -72 18.5t-41 48.5 q-23 -30 -64 -48.5t-86 -18.5q-59 0 -97 31.5t-38 85.5q0 75 75 117.5t205 44.5v125q0 66 -47 66q-55 0 -55 -75q0 -26 4 -50q-40 -20 -81 -20q-35 0 -56.5 14t-21.5 39q0 51 77.5 96.5t173.5 45.5zM220 142q0 -62 55 -62q29 0 45 14v141q-100 -13 -100 -93z" />
<glyph unicode="&#x1cf;" horiz-adv-x="409" d="M256 780l-11 -8h-95q-77 89 -119 160l16 11q81 -37 156 -66q67 29 162 66l14 -14q-80 -90 -123 -149zM297 62l75 -37l-2 -25h-331l-2 25l30 15q25 12 35 24t10 33v531l-75 37l2 25h331l2 -25l-30 -15q-25 -12 -35 -24t-10 -33v-531z" />
<glyph unicode="&#x1d0;" horiz-adv-x="348" d="M221 563l-11 -8h-95q-42 100 -69 192l16 11q62 -50 106 -80q17 13 112 80l14 -14q-44 -101 -73 -181zM268 55l65 -35l-2 -20h-306l-2 20l30 16q35 19 35 61v307l-58 34l-2 14q44 21 110.5 37.5t121.5 20.5l8 -8v-447z" />
<glyph unicode="&#x1d1;" horiz-adv-x="760" d="M436 780l-11 -8h-95q-77 89 -119 160l16 11q81 -37 156 -66q67 29 162 66l14 -14q-80 -90 -123 -149zM40 345q0 165 98.5 260t242.5 95q150 0 244.5 -91.5t94.5 -258.5q0 -168 -96 -264t-245 -96q-151 0 -245 95t-94 260zM230 345q-1 -139 39 -219.5t113 -80.5 q71 0 109 82.5t39 222.5q1 138 -37 216.5t-112 78.5q-71 0 -110.5 -80.5t-40.5 -219.5z" />
<glyph unicode="&#x1d2;" horiz-adv-x="564" d="M340 575l-11 -8h-95q-68 100 -109 186l16 11q70 -47 146 -87q73 43 152 87l14 -14q-69 -99 -113 -175zM532 250q0 -115 -71 -187.5t-184 -72.5q-111 0 -178 71t-67 189q0 115 71 187.5t184 72.5q111 0 178 -71t67 -189zM217 250q0 -122 13 -166t50 -44q38 0 52.5 46 t14.5 164q0 117 -14 163.5t-49 46.5q-36 0 -51.5 -48.5t-15.5 -161.5z" />
<glyph unicode="&#x1d3;" horiz-adv-x="682" d="M461 780l-11 -8h-95q-77 89 -119 160l16 11q81 -37 156 -66q67 29 162 66l14 -14q-80 -90 -123 -149zM75 245v383l-75 37l2 25h331l2 -25l-30 -15q-25 -12 -35 -24t-10 -33v-352q0 -93 37.5 -142t103.5 -49q69 0 106.5 48t37.5 144v386l-75 37l2 25h206l2 -25l-75 -37 v-383q0 -255 -255 -255q-130 0 -202.5 65t-72.5 190z" />
<glyph unicode="&#x1d4;" horiz-adv-x="653" d="M393 575l-11 -8h-95q-68 100 -109 186l16 11q70 -47 146 -87q72 43 152 87l14 -14q-69 -99 -113 -175zM80 145v259l-58 34l-2 14q44 21 110.5 37.5t121.5 20.5l8 -8v-336q0 -42 15.5 -61.5t49.5 -19.5q29 0 60 14v305l-58 34l-2 14q44 21 110.5 37.5t121.5 20.5l8 -8 v-357q0 -65 43 -65q19 0 38 4l4 -14q-48 -80 -144 -80q-81 0 -111 66q-71 -66 -160 -66q-72 0 -113.5 40.5t-41.5 114.5z" />
<glyph unicode="&#x1d5;" horiz-adv-x="682" d="M220 1045v86h352v-86h-352zM611 869q0 -39 -28.5 -65t-71.5 -26q-35 0 -58 20.5t-23 50.5q0 37 30 64t72 27q33 0 56 -20t23 -51zM370 869q0 -39 -28.5 -65t-71.5 -26q-35 0 -58 20.5t-23 50.5q0 37 30 64t72 27q33 0 56 -20t23 -51zM75 245v383l-75 37l2 25h331l2 -25 l-30 -15q-25 -12 -35 -24t-10 -33v-352q0 -93 37.5 -142t103.5 -49q69 0 106.5 48t37.5 144v386l-75 37l2 25h206l2 -25l-75 -37v-383q0 -255 -255 -255q-130 0 -202.5 65t-72.5 190z" />
<glyph unicode="&#x1d6;" horiz-adv-x="653" d="M157 852v82h352v-82h-352zM542 677q0 -41 -28 -69t-69 -28q-34 0 -56 22.5t-22 54.5q0 40 29 68.5t70 28.5q32 0 54 -21.5t22 -55.5zM301 677q0 -41 -28 -69t-69 -28q-34 0 -56 22.5t-22 54.5q0 40 29 68.5t70 28.5q32 0 54 -21.5t22 -55.5zM80 145v259l-58 34l-2 14 q44 21 110.5 37.5t121.5 20.5l8 -8v-336q0 -42 15.5 -61.5t49.5 -19.5q29 0 60 14v305l-58 34l-2 14q44 21 110.5 37.5t121.5 20.5l8 -8v-357q0 -65 43 -65q19 0 38 4l4 -14q-48 -80 -144 -80q-81 0 -111 66q-71 -66 -160 -66q-72 0 -113.5 40.5t-41.5 114.5z" />
<glyph unicode="&#x1d7;" horiz-adv-x="682" d="M463 1180l13 2q31 -10 54.5 -32t23.5 -44q0 -29 -25 -49t-71 -30t-95 -13.5t-114 -3.5l-5 19q134 73 219 151zM611 869q0 -39 -28.5 -65t-71.5 -26q-35 0 -58 20.5t-23 50.5q0 37 30 64t72 27q33 0 56 -20t23 -51zM370 869q0 -39 -28.5 -65t-71.5 -26q-35 0 -58 20.5 t-23 50.5q0 37 30 64t72 27q33 0 56 -20t23 -51zM75 245v383l-75 37l2 25h331l2 -25l-30 -15q-25 -12 -35 -24t-10 -33v-352q0 -93 37.5 -142t103.5 -49q69 0 106.5 48t37.5 144v386l-75 37l2 25h206l2 -25l-75 -37v-383q0 -255 -255 -255q-130 0 -202.5 65t-72.5 190z" />
<glyph unicode="&#x1d8;" horiz-adv-x="653" d="M476 951q0 -40 -66.5 -81.5t-171.5 -67.5l-11 16q67 95 109 181l11 8q11 1 34 1q95 0 95 -57zM542 677q0 -41 -28 -69t-69 -28q-34 0 -56 22.5t-22 54.5q0 40 29 68.5t70 28.5q32 0 54 -21.5t22 -55.5zM301 677q0 -41 -28 -69t-69 -28q-34 0 -56 22.5t-22 54.5 q0 40 29 68.5t70 28.5q32 0 54 -21.5t22 -55.5zM80 145v259l-58 34l-2 14q44 21 110.5 37.5t121.5 20.5l8 -8v-336q0 -42 15.5 -61.5t49.5 -19.5q29 0 60 14v305l-58 34l-2 14q44 21 110.5 37.5t121.5 20.5l8 -8v-357q0 -65 43 -65q19 0 38 4l4 -14q-48 -80 -144 -80 q-81 0 -111 66q-71 -66 -160 -66q-72 0 -113.5 40.5t-41.5 114.5z" />
<glyph unicode="&#x1d9;" horiz-adv-x="682" d="M456 1020l-11 -8h-95q-77 89 -119 160l16 11q81 -37 156 -66q67 29 162 66l14 -14q-80 -90 -123 -149zM611 869q0 -39 -28.5 -65t-71.5 -26q-35 0 -58 20.5t-23 50.5q0 37 30 64t72 27q33 0 56 -20t23 -51zM370 869q0 -39 -28.5 -65t-71.5 -26q-35 0 -58 20.5t-23 50.5 q0 37 30 64t72 27q33 0 56 -20t23 -51zM75 245v383l-75 37l2 25h331l2 -25l-30 -15q-25 -12 -35 -24t-10 -33v-352q0 -93 37.5 -142t103.5 -49q69 0 106.5 48t37.5 144v386l-75 37l2 25h206l2 -25l-75 -37v-383q0 -255 -255 -255q-130 0 -202.5 65t-72.5 190z" />
<glyph unicode="&#x1da;" horiz-adv-x="653" d="M386 815l-11 -8h-95q-68 100 -109 186l16 11q70 -47 146 -87q72 44 152 87l14 -14q-69 -99 -113 -175zM542 677q0 -41 -28 -69t-69 -28q-34 0 -56 22.5t-22 54.5q0 40 29 68.5t70 28.5q32 0 54 -21.5t22 -55.5zM301 677q0 -41 -28 -69t-69 -28q-34 0 -56 22.5t-22 54.5 q0 40 29 68.5t70 28.5q32 0 54 -21.5t22 -55.5zM80 145v259l-58 34l-2 14q44 21 110.5 37.5t121.5 20.5l8 -8v-336q0 -42 15.5 -61.5t49.5 -19.5q29 0 60 14v305l-58 34l-2 14q44 21 110.5 37.5t121.5 20.5l8 -8v-357q0 -65 43 -65q19 0 38 4l4 -14q-48 -80 -144 -80 q-81 0 -111 66q-71 -66 -160 -66q-72 0 -113.5 40.5t-41.5 114.5z" />
<glyph unicode="&#x1db;" horiz-adv-x="682" d="M548 1029l-5 -19q-65 0 -114 3.5t-95 13.5t-71 30t-25 49q0 22 23.5 44t54.5 32l13 -2q85 -78 219 -151zM611 869q0 -39 -28.5 -65t-71.5 -26q-35 0 -58 20.5t-23 50.5q0 37 30 64t72 27q33 0 56 -20t23 -51zM370 869q0 -39 -28.5 -65t-71.5 -26q-35 0 -58 20.5t-23 50.5 q0 37 30 64t72 27q33 0 56 -20t23 -51zM75 245v383l-75 37l2 25h331l2 -25l-30 -15q-25 -12 -35 -24t-10 -33v-352q0 -93 37.5 -142t103.5 -49q69 0 106.5 48t37.5 144v386l-75 37l2 25h206l2 -25l-75 -37v-383q0 -255 -255 -255q-130 0 -202.5 65t-72.5 190z" />
<glyph unicode="&#x1dc;" horiz-adv-x="653" d="M450 818l-11 -16q-105 26 -171.5 67.5t-66.5 81.5q0 57 95 57q23 0 34 -1l11 -8q42 -86 109 -181zM542 677q0 -41 -28 -69t-69 -28q-34 0 -56 22.5t-22 54.5q0 40 29 68.5t70 28.5q32 0 54 -21.5t22 -55.5zM301 677q0 -41 -28 -69t-69 -28q-34 0 -56 22.5t-22 54.5 q0 40 29 68.5t70 28.5q32 0 54 -21.5t22 -55.5zM80 145v259l-58 34l-2 14q44 21 110.5 37.5t121.5 20.5l8 -8v-336q0 -42 15.5 -61.5t49.5 -19.5q29 0 60 14v305l-58 34l-2 14q44 21 110.5 37.5t121.5 20.5l8 -8v-357q0 -65 43 -65q19 0 38 4l4 -14q-48 -80 -144 -80 q-81 0 -111 66q-71 -66 -160 -66q-72 0 -113.5 40.5t-41.5 114.5z" />
<glyph unicode="&#x1e6;" horiz-adv-x="745" d="M476 780l-11 -8h-95q-77 89 -119 160l16 11q81 -37 156 -66q67 29 162 66l14 -14q-80 -90 -123 -149zM415 -10q-103 0 -186 36t-136 116t-53 193q0 170 113.5 267.5t281.5 97.5q123 0 212 -32q10 -34 10 -91q0 -70 -17 -135l-30 -2q-70 134 -115 196q-15 4 -49 4 q-87 0 -151.5 -83.5t-64.5 -216.5t64 -211.5t151 -78.5q22 0 45 5v203l-75 37l2 25h301l2 -25l-30 -15q-25 -12 -25 -57v-201q-68 -18 -118.5 -25t-131.5 -7z" />
<glyph unicode="&#x1e7;" horiz-adv-x="539" d="M317 575l-11 -8h-95q-68 100 -109 186l16 11q70 -47 146 -87q72 43 152 87l14 -14q-69 -99 -113 -175zM32 318q0 81 67.5 136.5t168.5 55.5q82 0 138 -37q35 102 91 102q42 0 42 -57q0 -29 -6 -51q-4 -14 -25 -15q-3 0 -30 -0.5t-42 -2.5q46 -48 46 -116q0 -82 -64 -136 t-166 -54q-28 0 -49 4q-3 -11 -3 -21q0 -19 12.5 -25.5t46.5 -8.5l95 -6q85 -5 131.5 -41t46.5 -102q0 -89 -81.5 -146t-217.5 -57q-95 0 -155.5 28t-60.5 75q0 38 37.5 63.5t86.5 25.5l8 -8q3 -61 48 -97.5t110 -36.5q50 0 81 21t31 53q0 50 -77 60l-131 16 q-130 16 -130 102q0 77 78 115q-59 20 -93 62.5t-34 98.5zM302 325q0 78 -10 109t-34 31q-25 0 -35.5 -31t-10.5 -105q0 -75 11 -108t36 -33q24 0 33.5 31t9.5 106z" />
<glyph unicode="&#x1ea;" horiz-adv-x="760" d="M40 345q0 165 98.5 260t242.5 95q150 0 244.5 -91.5t94.5 -258.5q0 -117 -48 -200t-132 -125q-54 -31 -92.5 -74t-38.5 -76q0 -47 55 -47q15 0 36 4l4 -14q-41 -78 -129 -78q-44 0 -75 25t-31 68q0 49 39.5 85.5t119.5 74.5q-24 -3 -49 -3q-151 0 -245 95t-94 260z M230 345q-1 -139 39 -219.5t113 -80.5q71 0 109 82.5t39 222.5q1 138 -37 216.5t-112 78.5q-71 0 -110.5 -80.5t-40.5 -219.5z" />
<glyph unicode="&#x1eb;" horiz-adv-x="564" d="M409 -182q-40 -78 -125 -78q-48 0 -79 26.5t-31 69.5q0 96 173 162q-35 -8 -70 -8q-111 0 -178 71t-67 189q0 115 71 187.5t184 72.5q111 0 178 -71t67 -189q0 -117 -72 -189q-18 -18 -51.5 -49t-49.5 -47t-30.5 -40.5t-14.5 -47.5q0 -49 54 -49q22 0 37 4zM217 250 q0 -122 13 -166t50 -44q38 0 52.5 46t14.5 164q0 117 -14 163.5t-49 46.5q-36 0 -51.5 -48.5t-15.5 -161.5z" />
<glyph unicode="&#x1f4;" horiz-adv-x="745" d="M492 940l13 2q31 -10 54.5 -32t23.5 -44q0 -29 -25 -49t-71 -30t-95 -13.5t-114 -3.5l-5 19q134 73 219 151zM415 -10q-103 0 -186 36t-136 116t-53 193q0 170 113.5 267.5t281.5 97.5q123 0 212 -32q10 -34 10 -91q0 -70 -17 -135l-30 -2q-70 134 -115 196q-15 4 -49 4 q-87 0 -151.5 -83.5t-64.5 -216.5t64 -211.5t151 -78.5q22 0 45 5v203l-75 37l2 25h301l2 -25l-30 -15q-25 -12 -25 -57v-201q-68 -18 -118.5 -25t-131.5 -7z" />
<glyph unicode="&#x1f5;" horiz-adv-x="539" d="M407 711q0 -40 -66.5 -81.5t-171.5 -67.5l-11 16q67 95 109 181l11 8q11 1 34 1q95 0 95 -57zM32 318q0 81 67.5 136.5t168.5 55.5q82 0 138 -37q35 102 91 102q42 0 42 -57q0 -29 -6 -51q-4 -14 -25 -15q-3 0 -30 -0.5t-42 -2.5q46 -48 46 -116q0 -82 -64 -136t-166 -54 q-28 0 -49 4q-3 -11 -3 -21q0 -19 12.5 -25.5t46.5 -8.5l95 -6q85 -5 131.5 -41t46.5 -102q0 -89 -81.5 -146t-217.5 -57q-95 0 -155.5 28t-60.5 75q0 38 37.5 63.5t86.5 25.5l8 -8q3 -61 48 -97.5t110 -36.5q50 0 81 21t31 53q0 50 -77 60l-131 16q-130 16 -130 102 q0 77 78 115q-59 20 -93 62.5t-34 98.5zM302 325q0 78 -10 109t-34 31q-25 0 -35.5 -31t-10.5 -105q0 -75 11 -108t36 -33q24 0 33.5 31t9.5 106z" />
<glyph unicode="&#x1fa;" horiz-adv-x="716" d="M440 1190l13 2q31 -10 54.5 -32t23.5 -44q0 -29 -25 -49t-71 -30t-95 -13.5t-114 -3.5l-5 19q134 73 219 151zM355 766q-51 0 -82.5 25.5t-31.5 67.5q0 45 34 73.5t88 28.5q50 0 81.5 -26t31.5 -66q0 -45 -34 -74t-87 -29zM359 922q-23 0 -37.5 -17.5t-14.5 -43.5 q0 -24 14.5 -40t36.5 -16q23 0 37.5 17.5t14.5 44.5q0 23 -14.5 39t-36.5 16zM299 690h118l211 -596q7 -22 17.5 -31.5t32.5 -21.5l30 -16l-2 -25h-337l-2 25l75 28l-47 145l-215 -3l-48 -141l75 -29l-2 -25h-195l-2 25q37 17 49 25q22 17 31 43zM196 245l184 -2l-91 278z " />
<glyph unicode="&#x1fb;" horiz-adv-x="575" d="M430 951q0 -40 -66.5 -81.5t-171.5 -67.5l-11 16q67 95 109 181l11 8q11 1 34 1q95 0 95 -57zM294 568q-51 0 -82.5 25.5t-31.5 67.5q0 45 34 73.5t88 28.5q50 0 81.5 -26t31.5 -66q0 -45 -34 -74t-87 -29zM298 724q-23 0 -37.5 -17.5t-14.5 -43.5q0 -24 14.5 -40 t36.5 -16q23 0 37.5 17.5t14.5 44.5q0 23 -14.5 39t-36.5 16zM314 510q89 0 137.5 -45t48.5 -132q0 -16 -2.5 -93.5t-2.5 -91.5q0 -68 46 -68q15 0 35 4l4 -14q-23 -39 -61 -59.5t-81 -20.5q-42 0 -72 18.5t-41 48.5q-23 -30 -64 -48.5t-86 -18.5q-59 0 -97 31.5t-38 85.5 q0 75 75 117.5t205 44.5v125q0 66 -47 66q-55 0 -55 -75q0 -26 4 -50q-40 -20 -81 -20q-35 0 -56.5 14t-21.5 39q0 51 77.5 96.5t173.5 45.5zM220 142q0 -62 55 -62q29 0 45 14v141q-100 -13 -100 -93z" />
<glyph unicode="&#x1fc;" horiz-adv-x="927" d="M607 940l13 2q31 -10 54.5 -32t23.5 -44q0 -29 -25 -49t-71 -30t-95 -13.5t-114 -3.5l-5 19q134 73 219 151zM10 0l-2 25q37 17 49 25q22 17 31 43l189 535l-75 37l2 25h664q9 -59 9 -106q0 -74 -15 -134h-30l-41 90q-28 60 -52 91q-27 4 -63 4h-79v-270l180 10l-3 -70 l-177 10v-260h89q36 0 63 4q24 31 52 91l41 90h30q15 -60 15 -134q0 -47 -9 -106h-539l-2 25l30 15q25 12 35 24t10 33v220l-193 -2l-87 -261l75 -29l-2 -25h-195zM412 635h-86l-90 -270l176 -2v272z" />
<glyph unicode="&#x1fd;" horiz-adv-x="799" d="M584 711q0 -40 -66.5 -81.5t-171.5 -67.5l-11 16q67 95 109 181l11 8q11 1 34 1q95 0 95 -57zM320 394q0 66 -47 66q-55 0 -55 -75q0 -26 4 -50q-40 -20 -81 -20q-35 0 -56.5 14t-21.5 39q0 51 73 96.5t163 45.5q83 0 126 -45q64 45 145 45q88 0 146.5 -54.5t58.5 -144.5 q0 -34 -1 -45l-15 -15h-266q7 -75 42 -110.5t100 -35.5q66 0 121 32l15 -12q-59 -135 -207 -135q-129 0 -196 89q-31 -41 -80.5 -65t-106.5 -24q-64 0 -102.5 30.5t-38.5 86.5q0 75 75 117.5t205 44.5v125zM553 460q-31 0 -47 -44t-16 -114v-10l104 6q1 11 1 41q0 67 -10 94 t-32 27zM220 142q0 -62 59 -62q38 0 66 36q-26 55 -26 119q-99 -13 -99 -93z" />
<glyph unicode="&#x1fe;" horiz-adv-x="760" d="M457 940l13 2q31 -10 54.5 -32t23.5 -44q0 -29 -25 -49t-71 -30t-95 -13.5t-114 -3.5l-5 19q134 73 219 151zM40 345q0 165 98.5 260t242.5 95q126 0 214 -65l52 60l43 -35l-54 -62q84 -94 84 -248q0 -168 -96 -264t-245 -96q-126 0 -213 67l-54 -62l-42 36l55 63 q-85 94 -85 251zM230 345q0 -66 9 -120l267 308q-38 112 -125 112q-71 0 -110.5 -80.5t-40.5 -219.5zM530 350q0 70 -8 117l-267 -307q39 -115 127 -115q71 0 109 82.5t39 222.5z" />
<glyph unicode="&#x1ff;" horiz-adv-x="564" d="M425 711q0 -40 -66.5 -81.5t-171.5 -67.5l-11 16q67 95 109 181l11 8q11 1 34 1q95 0 95 -57zM532 250q0 -115 -71 -187.5t-184 -72.5q-91 0 -154 50l-41 -44l-40 38l42 45q-52 69 -52 171q0 115 71 187.5t184 72.5q91 0 154 -49l40 43l41 -37l-42 -45q52 -69 52 -172z M217 250v-28l126 134q-5 56 -19 80t-40 24q-36 0 -51.5 -48.5t-15.5 -161.5zM347 250v29l-127 -135q5 -58 18.5 -81t41.5 -23q38 0 52.5 46t14.5 164z" />
<glyph unicode="&#x218;" horiz-adv-x="562" d="M239 -10q-154 0 -188 34q-19 19 -19 70q0 84 40 141l30 -3q21 -108 57 -149q38 -43 101 -43q44 0 67 24t23 63q0 44 -31.5 80t-77 63.5t-91 56.5t-77 73t-31.5 99q0 96 80.5 148.5t200.5 52.5q59 0 114 -11.5t70 -25.5q14 -13 14 -51q0 -35 -10.5 -81.5t-29.5 -75.5 l-30 2q-16 89 -46 140q-30 53 -87 53q-44 0 -70 -27.5t-26 -69.5q0 -37 23 -68.5t57 -52.5t74 -47.5t74 -52t57 -66.5t23 -91q0 -185 -291 -185zM368 -160q0 -61 -45 -118.5t-99 -78.5l-12 11q36 50 48 112q-29 6 -46.5 26.5t-17.5 48.5q0 39 24.5 64.5t60.5 25.5 q40 0 63.5 -24.5t23.5 -66.5z" />
<glyph unicode="&#x219;" horiz-adv-x="483" d="M205 -10q-123 0 -154 29q-19 19 -19 63q0 61 40 101l15 -3q14 -59 50 -100q35 -40 77 -40q28 0 42.5 14t14.5 37q0 29 -23.5 53.5t-57 43.5t-67 40.5t-57 54t-23.5 73.5q0 73 67 113.5t170 40.5q48 0 89.5 -8.5t53.5 -18.5q14 -12 14 -48q0 -65 -40 -108l-15 2 q-16 58 -41 93q-27 38 -64 38q-25 0 -39.5 -14t-14.5 -37q0 -29 23.5 -53t57 -43t67 -40.5t57 -55t23.5 -76.5q0 -74 -66 -112.5t-180 -38.5zM330 -160q0 -61 -45 -118.5t-99 -78.5l-12 11q36 50 48 112q-29 6 -46.5 26.5t-17.5 48.5q0 39 24.5 64.5t60.5 25.5 q40 0 63.5 -24.5t23.5 -66.5z" />
<glyph unicode="&#x21a;" horiz-adv-x="668" d="M427 62l75 -37l-2 -25h-331l-2 25l30 15q25 12 35 24t10 33v538h-17q-36 0 -63 -4q-24 -31 -52 -91l-41 -90h-30q-15 60 -15 134q0 47 9 106h602q9 -59 9 -106q0 -74 -15 -134h-30l-41 90q-28 60 -52 91q-27 4 -63 4h-16v-573zM405 -160q0 -61 -45 -118.5t-99 -78.5 l-12 11q36 50 48 112q-29 6 -46.5 26.5t-17.5 48.5q0 39 24.5 64.5t60.5 25.5q40 0 63.5 -24.5t23.5 -66.5z" />
<glyph unicode="&#x21b;" horiz-adv-x="415" d="M407 125q-25 -57 -72 -96t-118 -39q-145 0 -145 170v270h-63l-2 20l66 55l159 135l20 -2v-158h125v-50h-125v-245q0 -80 64 -80q41 0 76 32zM311 -160q0 -61 -45 -118.5t-99 -78.5l-12 11q36 50 48 112q-29 6 -46.5 26.5t-17.5 48.5q0 39 24.5 64.5t60.5 25.5 q40 0 63.5 -24.5t23.5 -66.5z" />
<glyph unicode="&#x232;" horiz-adv-x="701" d="M222 815v86h352v-86h-352zM443 62l75 -37l-2 -25h-331l-2 25l30 15q25 12 35 24t10 33v203l-167 296q-14 26 -26.5 36.5t-36.5 22.5l-20 10l2 25h342l2 -25l-76 -28l142 -286l146 287l-75 27l2 25h198l2 -25q-36 -17 -48 -27q-18 -13 -34 -41l-168 -298v-237z" />
<glyph unicode="&#x233;" horiz-adv-x="548" d="M118 612v82h352v-82h-352zM281 0h-66l-146 406q-9 25 -28 46q-16 18 -41 28l2 20h308l2 -20l-62 -33l86 -284l97 285l-71 32l2 20h182l2 -20q-28 -9 -49 -27q-15 -14 -28 -46l-166 -457q-41 -114 -84 -162t-93 -48q-36 0 -58 25.5t-22 66.5q0 32 14 63l10 4 q30 -10 59 -10q45 0 89 30t61 81z" />
<glyph unicode="&#x237;" horiz-adv-x="332" d="M5 -240q75 96 75 270v374l-58 34l-2 14q44 21 110.5 37.5t121.5 20.5l8 -8v-512q0 -96 -76 -169t-164 -81z" />
<glyph unicode="&#x259;" horiz-adv-x="530" d="M247 -10q-92 0 -153.5 55.5t-61.5 145.5q0 36 1 47l15 15h268q-4 207 -69 207q-55 0 -55 -73q0 -23 4 -46q-40 -20 -81 -20q-35 0 -56.5 14t-21.5 39q0 49 66.5 92.5t148.5 43.5q113 0 181.5 -68t68.5 -182q0 -120 -73 -195t-182 -75zM212 163q0 -68 10 -95.5t32 -27.5 q31 0 47 47t16 123v2l-104 -6q-1 -11 -1 -43z" />
<glyph unicode="&#x272;" horiz-adv-x="645" d="M565 55l65 -35l-2 -20h-306l-2 20l30 16q35 19 35 61v240q0 38 -14 55.5t-45 17.5q-32 0 -66 -17v-403q0 -96 -76 -169t-164 -81l-15 20q75 96 75 270v374l-58 34l-2 14q44 21 110.5 37.5t121.5 20.5l8 -8v-60q80 68 165 68q66 0 103 -39t37 -111v-305z" />
<glyph unicode="&#x2c6;" horiz-adv-x="460" d="M394 577l-16 -11q-70 47 -146 87q-72 -44 -152 -87l-14 14q69 99 113 175l11 8h95q68 -100 109 -186z" />
<glyph unicode="&#x2c7;" horiz-adv-x="460" d="M281 575l-11 -8h-95q-68 100 -109 186l16 11q70 -47 146 -87q72 43 152 87l14 -14q-69 -99 -113 -175z" />
<glyph unicode="&#x2d8;" horiz-adv-x="428" d="M338 754l5 2l19 -4q-5 -79 -47 -127t-106 -48t-103 48.5t-40 127.5l23 4q8 -33 41.5 -52.5t84.5 -19.5q47 0 80 18.5t43 50.5z" />
<glyph unicode="&#x2d9;" horiz-adv-x="330" d="M264 677q0 -46 -31 -77t-77 -31q-39 0 -64.5 25t-25.5 61q0 43 33.5 74t79.5 31q36 0 60.5 -23t24.5 -60z" />
<glyph unicode="&#x2da;" horiz-adv-x="367" d="M180 568q-51 0 -82.5 25.5t-31.5 67.5q0 45 34 73.5t88 28.5q50 0 81.5 -26t31.5 -66q0 -45 -34 -74t-87 -29zM184 724q-23 0 -37.5 -17.5t-14.5 -43.5q0 -24 14.5 -40t36.5 -16q23 0 37.5 17.5t14.5 44.5q0 23 -14.5 39t-36.5 16z" />
<glyph unicode="&#x2db;" horiz-adv-x="391" d="M301 -182q-41 -78 -129 -78q-47 0 -76.5 28t-29.5 73q0 68 66.5 112t188.5 58l4 -11q-55 -18 -87 -52.5t-32 -72.5q0 -22 12.5 -34.5t34.5 -12.5q23 0 44 4z" />
<glyph unicode="&#x2dc;" horiz-adv-x="514" d="M88 594l-20 6q-2 18 -2 27q0 55 28 93.5t81 38.5q32 0 66 -9t77.5 -26t58.5 -22l49 55l20 -6q2 -22 2 -35q0 -52 -28 -88t-81 -36q-32 0 -66 9t-77.5 26t-58.5 22z" />
<glyph unicode="&#x2dd;" horiz-adv-x="538" d="M282 711q0 -40 -57 -81.5t-148 -67.5l-11 16q67 97 106 181l11 8q11 1 34 1q65 0 65 -57zM472 711q0 -40 -57.5 -81t-147.5 -68l-11 16q67 97 106 181l11 8q11 1 34 1q65 0 65 -57z" />
<glyph unicode="&#x326;" horiz-adv-x="304" d="M238 -160q0 -61 -45 -118.5t-99 -78.5l-12 11q36 50 48 112q-29 6 -46.5 26.5t-17.5 48.5q0 39 24.5 64.5t60.5 25.5q40 0 63.5 -24.5t23.5 -66.5z" />
<glyph unicode="&#x394;" horiz-adv-x="608" d="M245 690h118l237 -670l-2 -20h-588l-2 20zM389 50l-154 471l-159 -471h313z" />
<glyph unicode="&#x3bc;" horiz-adv-x="656" d="M259 -215q0 -6 -1.5 -11t-6 -8.5t-9.5 -6t-14 -4.5t-17.5 -3.5t-23.5 -3t-27.5 -2.5t-32.5 -2.5t-37 -3.5l-8 8q-5 422 6 717q1 27 22 31q29 5 153 14l8 -8q-8 -63 -8 -286q0 -54 15.5 -73t53.5 -19q27 0 55 14q0 15 0.5 46t0.5 46q0 62 2 147t2 88q0 26 22 31 q17 4 154 14l8 -8q-8 -71 -8 -272q0 -88 8 -119t39 -31q18 0 34 4l4 -14q-21 -36 -59 -58t-84 -22q-47 0 -76.5 24.5t-39.5 61.5q-1 4 -3 14q-11 -47 -34 -73.5t-56 -26.5q-28 0 -51.5 23.5t-32.5 68.5l-5 -1l14 -79q33 -186 33 -217z" />
<glyph unicode="&#x3c0;" horiz-adv-x="604" d="M222 47q-7 -33 -25.5 -45t-57.5 -12q-32 0 -59 10l-8 8q73 250 85 352h-56q-27 0 -43.5 -14.5t-29.5 -45.5l-20 2q3 117 28 203q44 5 113 5q41 0 182.5 -5.5t176.5 -4.5q35 0 47.5 7t20.5 28l20 -2q-3 -92 -31 -188q-27 2 -93 7q-5 -43 -5 -91q0 -101 18.5 -141t64.5 -40 q11 0 31 4l4 -14q-21 -33 -53.5 -56.5t-71.5 -23.5q-59 0 -82.5 43.5t-23.5 142.5q0 71 11 181q-16 1 -34.5 1.5t-39.5 1t-33 0.5q-13 -210 -36 -313z" />
<glyph unicode="&#x1e0c;" horiz-adv-x="762" d="M722 345q0 -166 -99 -255.5t-261 -89.5h-323l-2 25l30 15q25 12 35 24t10 33v531l-75 37l2 25h323q164 0 262 -89.5t98 -255.5zM357 635h-60v-580h60q84 0 129 72.5t46 217.5q1 144 -44.5 217t-130.5 73zM479 -152q0 -46 -31 -77t-77 -31q-39 0 -64.5 25t-25.5 61 q0 43 33.5 74t79.5 31q36 0 60.5 -23t24.5 -60z" />
<glyph unicode="&#x1e0d;" horiz-adv-x="617" d="M622 70q-48 -80 -143 -80q-85 0 -114 70q-48 -70 -139 -70q-87 0 -140.5 68t-53.5 177q0 128 75 201.5t201 73.5q28 0 49 -4v148l-78 34l-2 14q110 49 252 58l8 -8v-607q0 -65 47 -65q18 0 34 4zM217 269q0 -88 25 -138.5t72 -50.5q28 0 43 13v360q-18 7 -35 7 q-51 0 -78 -50t-27 -141zM422 -152q0 -46 -31 -77t-77 -31q-39 0 -64.5 25t-25.5 61q0 43 33.5 74t79.5 31q36 0 60.5 -23t24.5 -60z" />
<glyph unicode="&#x1e24;" horiz-adv-x="834" d="M297 62l75 -37l-2 -25h-331l-2 25l30 15q25 12 35 24t10 33v531l-75 37l2 25h331l2 -25l-30 -15q-25 -12 -35 -24t-10 -33v-216h240v251l-75 37l2 25h331l2 -25l-30 -15q-25 -12 -35 -24t-10 -33v-531l75 -37l-2 -25h-331l-2 25l30 15q25 12 35 24t10 33v223h-240v-258z M505 -152q0 -46 -31 -77t-77 -31q-39 0 -64.5 25t-25.5 61q0 43 33.5 74t79.5 31q36 0 60.5 -23t24.5 -60z" />
<glyph unicode="&#x1e25;" horiz-adv-x="645" d="M260 55l65 -35l-2 -20h-306l-2 20l30 16q35 19 35 61v557l-58 34l-2 14q44 21 110.5 37.5t121.5 20.5l8 -8v-309q80 67 165 67q66 0 103 -39t37 -111v-305l65 -35l-2 -20h-231l-12 12v325q0 73 -60 73q-30 0 -65 -17v-338zM408 -152q0 -46 -31 -77t-77 -31 q-39 0 -64.5 25t-25.5 61q0 43 33.5 74t79.5 31q36 0 60.5 -23t24.5 -60z" />
<glyph unicode="&#x1e44;" horiz-adv-x="748" d="M514 865q0 -45 -32 -74.5t-80 -29.5q-40 0 -67 23.5t-27 58.5q0 41 35 71t82 30q38 0 63.5 -22t25.5 -57zM172 62l95 -37l-2 -25h-226l-2 25l30 15q25 12 35 24t10 33v531l-37 19l-38 18l2 25h233l320 -471v409l-75 37l2 25h206l2 -25l-30 -15q-25 -12 -35 -24t-10 -33 v-593h-120l-360 513v-451z" />
<glyph unicode="&#x1e45;" horiz-adv-x="653" d="M428 678q0 -46 -31 -77t-77 -31q-39 0 -64.5 25t-25.5 61q0 43 33.5 74t79.5 31q36 0 60.5 -23t24.5 -60zM268 55l65 -35l-2 -20h-306l-2 20l30 16q35 19 35 61v307l-58 34l-2 14q44 21 110.5 37.5t121.5 20.5l8 -8v-60q80 68 165 68q66 0 103 -39t37 -111v-305l65 -35 l-2 -20h-231l-12 12v325q0 38 -14 55.5t-45 17.5q-32 0 -66 -17v-338z" />
<glyph unicode="&#x1e5a;" horiz-adv-x="759" d="M297 62l75 -37l-2 -25h-331l-2 25l30 15q25 12 35 24t10 33v531l-75 37l2 25h338q130 0 205 -53t75 -140q0 -115 -123 -178l42 -69q14 -23 36.5 -63.5t34.5 -61t32.5 -45t42.5 -40.5l29 -20l-2 -20l-185 -5q-35 -1 -54.5 13.5t-37.5 48.5l-114 223h-61v-218zM352 635h-55 v-300h55q54 0 84.5 41t30.5 110q0 68 -30.5 108.5t-84.5 40.5zM495 -152q0 -46 -31 -77t-77 -31q-39 0 -64.5 25t-25.5 61q0 43 33.5 74t79.5 31q36 0 60.5 -23t24.5 -60z" />
<glyph unicode="&#x1e5b;" horiz-adv-x="458" d="M268 55l85 -35l-2 -20h-326l-2 20l30 16q35 19 35 61v307l-58 34l-2 14q44 21 110.5 37.5t121.5 20.5l8 -8v-77q63 85 122 85q30 0 49 -19t19 -53q0 -53 -47 -105h-20q-52 33 -113 45l-10 -4v-319zM275 -152q0 -46 -31 -77t-77 -31q-39 0 -64.5 25t-25.5 61q0 43 33.5 74 t79.5 31q36 0 60.5 -23t24.5 -60z" />
<glyph unicode="&#x1e62;" horiz-adv-x="562" d="M239 -10q-154 0 -188 34q-19 19 -19 70q0 84 40 141l30 -3q21 -108 57 -149q38 -43 101 -43q44 0 67 24t23 63q0 44 -31.5 80t-77 63.5t-91 56.5t-77 73t-31.5 99q0 96 80.5 148.5t200.5 52.5q59 0 114 -11.5t70 -25.5q14 -13 14 -51q0 -35 -10.5 -81.5t-29.5 -75.5 l-30 2q-16 89 -46 140q-30 53 -87 53q-44 0 -70 -27.5t-26 -69.5q0 -37 23 -68.5t57 -52.5t74 -47.5t74 -52t57 -66.5t23 -91q0 -185 -291 -185zM380 -152q0 -46 -31 -77t-77 -31q-39 0 -64.5 25t-25.5 61q0 43 33.5 74t79.5 31q36 0 60.5 -23t24.5 -60z" />
<glyph unicode="&#x1e63;" horiz-adv-x="483" d="M205 -10q-123 0 -154 29q-19 19 -19 63q0 61 40 101l15 -3q14 -59 50 -100q35 -40 77 -40q28 0 42.5 14t14.5 37q0 29 -23.5 53.5t-57 43.5t-67 40.5t-57 54t-23.5 73.5q0 73 67 113.5t170 40.5q48 0 89.5 -8.5t53.5 -18.5q14 -12 14 -48q0 -65 -40 -108l-15 2 q-16 58 -41 93q-27 38 -64 38q-25 0 -39.5 -14t-14.5 -37q0 -29 23.5 -53t57 -43t67 -40.5t57 -55t23.5 -76.5q0 -74 -66 -112.5t-180 -38.5zM342 -152q0 -46 -31 -77t-77 -31q-39 0 -64.5 25t-25.5 61q0 43 33.5 74t79.5 31q36 0 60.5 -23t24.5 -60z" />
<glyph unicode="&#x1e6c;" horiz-adv-x="668" d="M427 62l75 -37l-2 -25h-331l-2 25l30 15q25 12 35 24t10 33v538h-17q-36 0 -63 -4q-24 -31 -52 -91l-41 -90h-30q-15 60 -15 134q0 47 9 106h602q9 -59 9 -106q0 -74 -15 -134h-30l-41 90q-28 60 -52 91q-27 4 -63 4h-16v-573zM417 -152q0 -46 -31 -77t-77 -31 q-39 0 -64.5 25t-25.5 61q0 43 33.5 74t79.5 31q36 0 60.5 -23t24.5 -60z" />
<glyph unicode="&#x1e6d;" horiz-adv-x="415" d="M407 125q-25 -57 -72 -96t-118 -39q-145 0 -145 170v270h-63l-2 20l66 55l159 135l20 -2v-158h125v-50h-125v-245q0 -80 64 -80q41 0 76 32zM323 -152q0 -46 -31 -77t-77 -31q-39 0 -64.5 25t-25.5 61q0 43 33.5 74t79.5 31q36 0 60.5 -23t24.5 -60z" />
<glyph unicode="&#x1e80;" horiz-adv-x="1067" d="M725 789l-5 -19q-65 0 -114 3.5t-95 13.5t-71 30t-25 49q0 22 23.5 44t54.5 32l13 -2q85 -78 219 -151zM397 0h-118l-191 596q-7 22 -17.5 31.5t-32.5 21.5l-30 16l2 25h337l2 -25l-75 -28l133 -463l100 334l-28 88q-8 25 -15 34t-25 19l-30 16l2 25h327l2 -25l-75 -28 l133 -463l138 462l-76 29l2 25h195l2 -25q-9 -5 -25.5 -12t-23.5 -11q-21 -14 -31 -45l-191 -597h-118l-137 426z" />
<glyph unicode="&#x1e81;" horiz-adv-x="786" d="M550 578l-11 -16q-105 26 -171.5 67.5t-66.5 81.5q0 57 95 57q23 0 34 -1l11 -8q42 -86 109 -181zM501 500l103 -309l66 258l-70 31l2 20h182l2 -20q-28 -10 -47 -26q-23 -18 -31 -47l-117 -407h-108l-91 268l-99 -268h-108l-116 406q-7 25 -28 46q-19 19 -41 28l2 20 h308l2 -20l-62 -33l62 -257l111 310h78z" />
<glyph unicode="&#x1e82;" horiz-adv-x="1067" d="M650 940l13 2q31 -10 54.5 -32t23.5 -44q0 -29 -25 -49t-71 -30t-95 -13.5t-114 -3.5l-5 19q134 73 219 151zM397 0h-118l-191 596q-7 22 -17.5 31.5t-32.5 21.5l-30 16l2 25h337l2 -25l-75 -28l133 -463l100 334l-28 88q-8 25 -15 34t-25 19l-30 16l2 25h327l2 -25 l-75 -28l133 -463l138 462l-76 29l2 25h195l2 -25q-9 -5 -25.5 -12t-23.5 -11q-21 -14 -31 -45l-191 -597h-118l-137 426z" />
<glyph unicode="&#x1e83;" horiz-adv-x="786" d="M586 711q0 -40 -66.5 -81.5t-171.5 -67.5l-11 16q67 95 109 181l11 8q11 1 34 1q95 0 95 -57zM501 500l103 -309l66 258l-70 31l2 20h182l2 -20q-28 -10 -47 -26q-23 -18 -31 -47l-117 -407h-108l-91 268l-99 -268h-108l-116 406q-7 25 -28 46q-19 19 -41 28l2 20h308 l2 -20l-62 -33l62 -257l111 310h78z" />
<glyph unicode="&#x1e84;" horiz-adv-x="1067" d="M784 869q0 -39 -28.5 -65t-71.5 -26q-35 0 -58 20.5t-23 50.5q0 37 30 64t72 27q33 0 56 -20t23 -51zM543 869q0 -39 -28.5 -65t-71.5 -26q-35 0 -58 20.5t-23 50.5q0 37 30 64t72 27q33 0 56 -20t23 -51zM397 0h-118l-191 596q-7 22 -17.5 31.5t-32.5 21.5l-30 16l2 25 h337l2 -25l-75 -28l133 -463l100 334l-28 88q-8 25 -15 34t-25 19l-30 16l2 25h327l2 -25l-75 -28l133 -463l138 462l-76 29l2 25h195l2 -25q-9 -5 -25.5 -12t-23.5 -11q-21 -14 -31 -45l-191 -597h-118l-137 426z" />
<glyph unicode="&#x1e85;" horiz-adv-x="786" d="M655 677q0 -41 -28 -69t-69 -28q-34 0 -56 22.5t-22 54.5q0 40 29 68.5t70 28.5q32 0 54 -21.5t22 -55.5zM414 677q0 -41 -28 -69t-69 -28q-34 0 -56 22.5t-22 54.5q0 40 29 68.5t70 28.5q32 0 54 -21.5t22 -55.5zM501 500l103 -309l66 258l-70 31l2 20h182l2 -20 q-28 -10 -47 -26q-23 -18 -31 -47l-117 -407h-108l-91 268l-99 -268h-108l-116 406q-7 25 -28 46q-19 19 -41 28l2 20h308l2 -20l-62 -33l62 -257l111 310h78z" />
<glyph unicode="&#x1e92;" horiz-adv-x="661" d="M594 0h-536l-10 50l357 585h-136q-36 0 -63 -4l-103 -181h-30q-15 60 -15 134q0 47 9 106h536l10 -50l-356 -585h135q36 0 63 4l103 181h30q15 -57 15 -130q0 -49 -9 -110zM430 -152q0 -46 -31 -77t-77 -31q-39 0 -64.5 25t-25.5 61q0 43 33.5 74t79.5 31q36 0 60.5 -23 t24.5 -60z" />
<glyph unicode="&#x1e93;" horiz-adv-x="512" d="M477 78q0 -39 -9 -78h-426l-10 50l256 400h-120l-92 -134h-20q-17 54 -17 106q0 39 9 78h422l10 -50l-257 -400h125l92 134h20q17 -54 17 -106zM355 -152q0 -46 -31 -77t-77 -31q-39 0 -64.5 25t-25.5 61q0 43 33.5 74t79.5 31q36 0 60.5 -23t24.5 -60z" />
<glyph unicode="&#x1e9e;" horiz-adv-x="812" d="M780 170q0 -86 -67.5 -133t-191.5 -47q-53 0 -95.5 9t-54.5 25q-19 19 -19 70q0 72 40 121l30 -3q11 -80 37 -125q28 -47 73 -47q33 0 50.5 20t17.5 52q0 79 -50.5 136.5t-166.5 91.5l-2 39l143 184q-16 38 -45 62.5t-67 24.5q-51 0 -83 -51t-32 -129v-434l-33 -36h-225 l-2 25l30 15q25 12 35 24t10 33v343q0 111 89.5 185.5t223.5 74.5q164 0 236 -74l4 -33l-123 -152q238 -100 238 -271z" />
<glyph unicode="&#x1ea0;" horiz-adv-x="716" d="M299 690h118l211 -596q7 -22 17.5 -31.5t32.5 -21.5l30 -16l-2 -25h-337l-2 25l75 28l-47 145l-215 -3l-48 -141l75 -29l-2 -25h-195l-2 25q37 17 49 25q22 17 31 43zM196 245l184 -2l-91 278zM381 -152q0 -46 -31 -77t-77 -31q-39 0 -64.5 25t-25.5 61q0 43 33.5 74 t79.5 31q36 0 60.5 -23t24.5 -60z" />
<glyph unicode="&#x1ea1;" horiz-adv-x="575" d="M314 510q89 0 137.5 -45t48.5 -132q0 -16 -2.5 -93.5t-2.5 -91.5q0 -68 46 -68q15 0 35 4l4 -14q-23 -39 -61 -59.5t-81 -20.5q-42 0 -72 18.5t-41 48.5q-23 -30 -64 -48.5t-86 -18.5q-59 0 -97 31.5t-38 85.5q0 75 75 117.5t205 44.5v125q0 66 -47 66q-55 0 -55 -75 q0 -26 4 -50q-40 -20 -81 -20q-35 0 -56.5 14t-21.5 39q0 51 77.5 96.5t173.5 45.5zM220 142q0 -62 55 -62q29 0 45 14v141q-100 -13 -100 -93zM397 -152q0 -46 -31 -77t-77 -31q-39 0 -64.5 25t-25.5 61q0 43 33.5 74t79.5 31q36 0 60.5 -23t24.5 -60z" />
<glyph unicode="&#x1eb8;" horiz-adv-x="627" d="M297 365l180 10l-3 -70l-177 10v-260h89q36 0 63 4q24 31 52 91l41 90h30q15 -60 15 -134q0 -47 -9 -106h-539l-2 25l30 15q25 12 35 24t10 33v531l-75 37l2 25h529q9 -59 9 -106q0 -74 -15 -134h-30l-41 90q-28 60 -52 91q-27 4 -63 4h-79v-270zM411 -152q0 -46 -31 -77 t-77 -31q-39 0 -64.5 25t-25.5 61q0 43 33.5 74t79.5 31q36 0 60.5 -23t24.5 -60z" />
<glyph unicode="&#x1eb9;" horiz-adv-x="526" d="M498 125q-63 -135 -217 -135q-113 0 -181 68t-68 182q0 120 73 195t182 75q92 0 153.5 -54.5t61.5 -144.5q0 -34 -1 -45l-15 -15h-266q7 -75 42 -110.5t100 -35.5q66 0 121 32zM280 460q-31 0 -47 -44t-16 -114v-10l104 6q1 11 1 41q0 67 -10 94t-32 27zM366 -152 q0 -46 -31 -77t-77 -31q-39 0 -64.5 25t-25.5 61q0 43 33.5 74t79.5 31q36 0 60.5 -23t24.5 -60z" />
<glyph unicode="&#x1ebc;" horiz-adv-x="627" d="M153 768l-20 6q-2 20 -2 31q0 57 28 96.5t81 39.5q35 0 72.5 -9t85 -26t64.5 -22l49 63l20 -6q2 -24 2 -39q0 -53 -28 -90.5t-81 -37.5q-35 0 -72.5 9t-85 26t-64.5 22zM297 365l180 10l-3 -70l-177 10v-260h89q36 0 63 4q24 31 52 91l41 90h30q15 -60 15 -134 q0 -47 -9 -106h-539l-2 25l30 15q25 12 35 24t10 33v531l-75 37l2 25h529q9 -59 9 -106q0 -74 -15 -134h-30l-41 90q-28 60 -52 91q-27 4 -63 4h-79v-270z" />
<glyph unicode="&#x1ebd;" horiz-adv-x="526" d="M110 594l-20 6q-2 18 -2 27q0 55 28 93.5t81 38.5q32 0 66 -9t77.5 -26t58.5 -22l49 55l20 -6q2 -22 2 -35q0 -52 -28 -88t-81 -36q-32 0 -66 9t-77.5 26t-58.5 22zM498 125q-63 -135 -217 -135q-113 0 -181 68t-68 182q0 120 73 195t182 75q92 0 153.5 -54.5 t61.5 -144.5q0 -34 -1 -45l-15 -15h-266q7 -75 42 -110.5t100 -35.5q66 0 121 32zM280 460q-31 0 -47 -44t-16 -114v-10l104 6q1 11 1 41q0 67 -10 94t-32 27z" />
<glyph unicode="&#x1eca;" horiz-adv-x="409" d="M297 62l75 -37l-2 -25h-331l-2 25l30 15q25 12 35 24t10 33v531l-75 37l2 25h331l2 -25l-30 -15q-25 -12 -35 -24t-10 -33v-531zM294 -152q0 -46 -31 -77t-77 -31q-39 0 -64.5 25t-25.5 61q0 43 33.5 74t79.5 31q36 0 60.5 -23t24.5 -60z" />
<glyph unicode="&#x1ecb;" horiz-adv-x="348" d="M269 678q0 -46 -31 -77t-77 -31q-39 0 -64.5 25t-25.5 61q0 43 33.5 74t79.5 31q36 0 60.5 -23t24.5 -60zM268 55l65 -35l-2 -20h-306l-2 20l30 16q35 19 35 61v307l-58 34l-2 14q44 21 110.5 37.5t121.5 20.5l8 -8v-447zM264 -152q0 -46 -31 -77t-77 -31q-39 0 -64.5 25 t-25.5 61q0 43 33.5 74t79.5 31q36 0 60.5 -23t24.5 -60z" />
<glyph unicode="&#x1ecc;" horiz-adv-x="760" d="M40 345q0 165 98.5 260t242.5 95q150 0 244.5 -91.5t94.5 -258.5q0 -168 -96 -264t-245 -96q-151 0 -245 95t-94 260zM230 345q-1 -139 39 -219.5t113 -80.5q71 0 109 82.5t39 222.5q1 138 -37 216.5t-112 78.5q-71 0 -110.5 -80.5t-40.5 -219.5zM474 -152q0 -46 -31 -77 t-77 -31q-39 0 -64.5 25t-25.5 61q0 43 33.5 74t79.5 31q36 0 60.5 -23t24.5 -60z" />
<glyph unicode="&#x1ecd;" horiz-adv-x="564" d="M532 250q0 -115 -71 -187.5t-184 -72.5q-111 0 -178 71t-67 189q0 115 71 187.5t184 72.5q111 0 178 -71t67 -189zM217 250q0 -122 13 -166t50 -44q38 0 52.5 46t14.5 164q0 117 -14 163.5t-49 46.5q-36 0 -51.5 -48.5t-15.5 -161.5zM376 -152q0 -46 -31 -77t-77 -31 q-39 0 -64.5 25t-25.5 61q0 43 33.5 74t79.5 31q36 0 60.5 -23t24.5 -60z" />
<glyph unicode="&#x1ee4;" horiz-adv-x="682" d="M75 245v383l-75 37l2 25h331l2 -25l-30 -15q-25 -12 -35 -24t-10 -33v-352q0 -93 37.5 -142t103.5 -49q69 0 106.5 48t37.5 144v386l-75 37l2 25h206l2 -25l-75 -37v-383q0 -255 -255 -255q-130 0 -202.5 65t-72.5 190zM455 -152q0 -46 -31 -77t-77 -31q-39 0 -64.5 25 t-25.5 61q0 43 33.5 74t79.5 31q36 0 60.5 -23t24.5 -60z" />
<glyph unicode="&#x1ee5;" horiz-adv-x="653" d="M80 145v259l-58 34l-2 14q44 21 110.5 37.5t121.5 20.5l8 -8v-336q0 -42 15.5 -61.5t49.5 -19.5q29 0 60 14v305l-58 34l-2 14q44 21 110.5 37.5t121.5 20.5l8 -8v-357q0 -65 43 -65q19 0 38 4l4 -14q-48 -80 -144 -80q-81 0 -111 66q-71 -66 -160 -66q-72 0 -113.5 40.5 t-41.5 114.5zM442 -152q0 -46 -31 -77t-77 -31q-39 0 -64.5 25t-25.5 61q0 43 33.5 74t79.5 31q36 0 60.5 -23t24.5 -60z" />
<glyph unicode="&#x1ef2;" horiz-adv-x="701" d="M540 789l-5 -19q-65 0 -114 3.5t-95 13.5t-71 30t-25 49q0 22 23.5 44t54.5 32l13 -2q85 -78 219 -151zM443 62l75 -37l-2 -25h-331l-2 25l30 15q25 12 35 24t10 33v203l-167 296q-14 26 -26.5 36.5t-36.5 22.5l-20 10l2 25h342l2 -25l-76 -28l142 -286l146 287l-75 27 l2 25h198l2 -25q-36 -17 -48 -27q-18 -13 -34 -41l-168 -298v-237z" />
<glyph unicode="&#x1ef3;" horiz-adv-x="548" d="M411 578l-11 -16q-105 26 -171.5 67.5t-66.5 81.5q0 57 95 57q23 0 34 -1l11 -8q42 -86 109 -181zM281 0h-66l-146 406q-9 25 -28 46q-16 18 -41 28l2 20h308l2 -20l-62 -33l86 -284l97 285l-71 32l2 20h182l2 -20q-28 -9 -49 -27q-15 -14 -28 -46l-166 -457 q-41 -114 -84 -162t-93 -48q-36 0 -58 25.5t-22 66.5q0 32 14 63l10 4q30 -10 59 -10q45 0 89 30t61 81z" />
<glyph unicode="&#x1ef8;" horiz-adv-x="701" d="M219 768l-20 6q-2 20 -2 31q0 57 28 96.5t81 39.5q35 0 72.5 -9t85 -26t64.5 -22l49 63l20 -6q2 -24 2 -39q0 -53 -28 -90.5t-81 -37.5q-35 0 -72.5 9t-85 26t-64.5 22zM443 62l75 -37l-2 -25h-331l-2 25l30 15q25 12 35 24t10 33v203l-167 296q-14 26 -26.5 36.5 t-36.5 22.5l-20 10l2 25h342l2 -25l-76 -28l142 -286l146 287l-75 27l2 25h198l2 -25q-36 -17 -48 -27q-18 -13 -34 -41l-168 -298v-237z" />
<glyph unicode="&#x1ef9;" horiz-adv-x="548" d="M117 594l-20 6q-2 18 -2 27q0 55 28 93.5t81 38.5q32 0 66 -9t77.5 -26t58.5 -22l49 55l20 -6q2 -22 2 -35q0 -52 -28 -88t-81 -36q-32 0 -66 9t-77.5 26t-58.5 22zM281 0h-66l-146 406q-9 25 -28 46q-16 18 -41 28l2 20h308l2 -20l-62 -33l86 -284l97 285l-71 32l2 20 h182l2 -20q-28 -9 -49 -27q-15 -14 -28 -46l-166 -457q-41 -114 -84 -162t-93 -48q-36 0 -58 25.5t-22 66.5q0 32 14 63l10 4q30 -10 59 -10q45 0 89 30t61 81z" />
<glyph unicode="&#x2007;" />
<glyph unicode="&#x2013;" horiz-adv-x="584" d="M24 251v50h536v-50h-536z" />
<glyph unicode="&#x2014;" horiz-adv-x="912" d="M24 251v50h864v-50h-864z" />
<glyph unicode="&#x2018;" horiz-adv-x="296" d="M246 747q-60 -69 -77 -155q38 -4 62.5 -29.5t24.5 -60.5q0 -45 -35 -78.5t-82 -33.5q-45 0 -72 27.5t-27 72.5q0 84 59.5 162.5t131.5 107.5z" />
<glyph unicode="&#x2019;" horiz-adv-x="296" d="M50 403q60 69 77 155q-38 4 -62.5 29.5t-24.5 60.5q0 45 35 78.5t82 33.5q45 0 72 -27.5t27 -72.5q0 -84 -59.5 -162.5t-131.5 -107.5z" />
<glyph unicode="&#x201a;" horiz-adv-x="296" d="M50 -164q60 69 77 155q-38 4 -62.5 29.5t-24.5 60.5q0 45 35 78.5t82 33.5q45 0 72 -27.5t27 -72.5q0 -84 -59.5 -162.5t-131.5 -107.5z" />
<glyph unicode="&#x201c;" horiz-adv-x="566" d="M246 747q-60 -69 -77 -155q38 -4 62.5 -29.5t24.5 -60.5q0 -45 -35 -78.5t-82 -33.5q-45 0 -72 27.5t-27 72.5q0 84 59.5 162.5t131.5 107.5zM516 747q-60 -69 -77 -155q38 -4 62.5 -29.5t24.5 -60.5q0 -45 -35 -78.5t-82 -33.5q-45 0 -72 27.5t-27 72.5q0 84 59.5 162.5 t131.5 107.5z" />
<glyph unicode="&#x201d;" horiz-adv-x="566" d="M320 403q60 69 77 155q-38 4 -62.5 29.5t-24.5 60.5q0 45 35 78.5t82 33.5q45 0 72 -27.5t27 -72.5q0 -84 -59.5 -162.5t-131.5 -107.5zM50 403q60 69 77 155q-38 4 -62.5 29.5t-24.5 60.5q0 45 35 78.5t82 33.5q45 0 72 -27.5t27 -72.5q0 -84 -59.5 -162.5 t-131.5 -107.5z" />
<glyph unicode="&#x201e;" horiz-adv-x="566" d="M320 -164q60 69 77 155q-38 4 -62.5 29.5t-24.5 60.5q0 45 35 78.5t82 33.5q45 0 72 -27.5t27 -72.5q0 -84 -59.5 -162.5t-131.5 -107.5zM50 -164q60 69 77 155q-38 4 -62.5 29.5t-24.5 60.5q0 45 35 78.5t82 33.5q45 0 72 -27.5t27 -72.5q0 -84 -59.5 -162.5 t-131.5 -107.5z" />
<glyph unicode="&#x2020;" horiz-adv-x="506" d="M358 124l-80 -124h-50l-80 124l72 324l-169 -48l-4 3q-7 73 -7 157l14 8l160 -47l-66 168l3 4q93 7 199 7l8 -8l-66 -171l163 47l4 -3q7 -98 7 -157l-14 -8l-166 48z" />
<glyph unicode="&#x2021;" horiz-adv-x="506" d="M151 693q93 7 199 7l8 -8l-66 -171l163 47l4 -3q7 -98 7 -157l-14 -8l-161 47q22 -72 22 -106q0 -37 -22 -98l164 47l4 -3q7 -74 7 -157l-14 -8l-160 47l66 -168l-3 -4q-93 -7 -199 -7l-8 8l66 171l-163 -47l-4 3q-7 98 -7 157l14 8l160 -47q-21 63 -21 98q0 34 22 106 l-164 -47l-4 3q-7 73 -7 157l14 8l160 -47l-66 168z" />
<glyph unicode="&#x2022;" horiz-adv-x="484" d="M236 88q-66 0 -110 40.5t-46 99.5q-2 70 51 121.5t125 51.5q61 0 103.5 -38.5t44.5 -101.5q3 -72 -46 -122.5t-122 -50.5z" />
<glyph unicode="&#x2026;" horiz-adv-x="830" d="M141 -10q-43 0 -71 26.5t-30 64.5q-1 45 33 78.5t81 33.5q40 0 67.5 -25t28.5 -66q2 -47 -30 -79.5t-79 -32.5zM411 -10q-43 0 -71 26.5t-30 64.5q-1 45 33 78.5t81 33.5q40 0 67.5 -25t28.5 -66q2 -47 -30 -79.5t-79 -32.5zM681 -10q-43 0 -71 26.5t-30 64.5 q-1 45 33 78.5t81 33.5q40 0 67.5 -25t28.5 -66q2 -47 -30 -79.5t-79 -32.5z" />
<glyph unicode="&#x2030;" horiz-adv-x="1498" d="M40 483q0 96 55 156.5t142 60.5q85 0 137.5 -60.5t52.5 -158.5q0 -88 -55 -146.5t-142 -58.5q-85 0 -137.5 57.5t-52.5 149.5zM762 700l-425 -710h-65l424 710h66zM178 482q0 -106 10 -136t45 -30t46 32t11 134q0 106 -11.5 142t-43.5 36t-44.5 -38t-12.5 -140zM604 197 q0 96 55 156.5t142 60.5q85 0 137.5 -60.5t52.5 -158.5q0 -88 -55 -146.5t-142 -58.5q-85 0 -137.5 57.5t-52.5 149.5zM1071 197q0 96 55 156.5t142 60.5q85 0 137.5 -60.5t52.5 -158.5q0 -88 -55 -146.5t-142 -58.5q-85 0 -137.5 57.5t-52.5 149.5zM742 196q0 -106 10 -136 t45 -30t46 32t11 134q0 106 -11.5 142t-43.5 36t-44.5 -38t-12.5 -140zM1209 196q0 -106 10 -136t45 -30t46 32t11 134q0 106 -11.5 142t-43.5 36t-44.5 -38t-12.5 -140z" />
<glyph unicode="&#x2039;" horiz-adv-x="331" d="M270 31l-18 -11q-91 100 -186 180l-6 9v90q141 132 195 189l16 -11q-47 -124 -87 -224q47 -111 86 -222z" />
<glyph unicode="&#x203a;" horiz-adv-x="331" d="M271 209q-141 -132 -195 -189l-16 11q47 124 87 224q-47 111 -86 222l18 11q91 -100 186 -180l6 -9v-90z" />
<glyph unicode="&#x2044;" horiz-adv-x="250" d="M370 700l-425 -710h-65l424 710h66z" />
<glyph unicode="&#x2070;" horiz-adv-x="451" d="M32 543q0 96 55 156.5t142 60.5q85 0 137.5 -60.5t52.5 -158.5q0 -88 -55 -146.5t-142 -58.5q-85 0 -137.5 57.5t-52.5 149.5zM170 542q0 -106 10 -136t45 -30t46 32t11 134q0 106 -11.5 142t-43.5 36t-44.5 -38t-12.5 -140z" />
<glyph unicode="&#x2071;" horiz-adv-x="318" d="M156 806q-35 0 -57.5 21.5t-22.5 52.5q0 37 30 64t70 27q31 0 53 -20.5t22 -51.5q0 -40 -27.5 -66.5t-67.5 -26.5zM238 414l54 -28l-2 -16h-253l-2 16l25 12q28 16 28 50v234l-47 28l-2 11q83 40 193 47l6 -6v-348z" />
<glyph unicode="&#x2074;" horiz-adv-x="440" d="M32 484l229 276l88 -8v-253h59l-5 -70h-54v-77h-134v77h-177zM101 499h114v135z" />
<glyph unicode="&#x2075;" horiz-adv-x="389" d="M68 750h278q0 -53 -20 -141l-16 2q-1 13 -9 18t-31 5h-141l-3 -65h35q91 0 143.5 -30.5t52.5 -83.5q0 -56 -50.5 -87.5t-137.5 -31.5q-62 0 -99.5 15.5t-37.5 40.5q0 22 25.5 36t61.5 10l8 -6q13 -60 54 -60q46 0 46 47q0 38 -44 67t-114 34l-8 9z" />
<glyph unicode="&#x2076;" horiz-adv-x="428" d="M396 467q0 -56 -50.5 -93.5t-133.5 -37.5q-81 0 -130.5 47t-49.5 120q0 113 94 185.5t246 71.5l5 -19q-140 -61 -187 -164h65q65 0 103 -29.5t38 -80.5zM170 483q0 -26 4.5 -50t17 -43t30.5 -19t29 16.5t11 43.5q0 40 -22.5 65.5t-56.5 25.5q-5 0 -9 3q-4 -19 -4 -42z " />
<glyph unicode="&#x2077;" horiz-adv-x="388" d="M347 750l9 -76q-70 -76 -98.5 -151t-38.5 -181h-137q13 131 198 292h-179q-36 0 -56 -20l-13 2q2 82 22 134h293z" />
<glyph unicode="&#x2078;" horiz-adv-x="430" d="M398 463q0 -51 -50.5 -89t-133.5 -38q-80 0 -131 26.5t-51 72.5q0 71 105 87q-80 52 -80 114q0 54 47 89t125 35q64 0 105.5 -26t41.5 -68q0 -52 -81 -83q49 -27 76 -54t27 -66zM179 688q0 -26 22 -46t64 -43q8 27 8 68q0 58 -48 58q-20 0 -33 -10t-13 -27zM158 438 q0 -31 16 -49t43 -18q23 0 37 12.5t14 30.5q0 6 -1.5 12t-5.5 11.5t-7.5 10t-10.5 10t-12 9.5t-14.5 9.5t-15 8.5t-17 9.5t-16.5 9.5q-10 -29 -10 -66z" />
<glyph unicode="&#x2079;" horiz-adv-x="428" d="M396 577q-1 -107 -95.5 -176t-246.5 -65l-4 19q139 55 186 154q-9 1 -19.5 1t-23.5 -0.5t-20 -0.5q-66 0 -103.5 31.5t-37.5 85.5q1 58 51 96t133 38q81 0 130.5 -50.5t49.5 -132.5zM246 564q2 0 8 -2q4 28 4 44q1 48 -10.5 83.5t-33.5 35.5q-46 0 -48 -71 q0 -40 22.5 -65t57.5 -25z" />
<glyph unicode="&#x207f;" horiz-adv-x="569" d="M238 414l54 -28l-2 -16h-253l-2 16l25 12q28 16 28 50v234l-47 28l-2 11q83 40 193 47l6 -6v-47q67 53 136 53q54 0 84.5 -30t30.5 -87v-237l53 -28l-2 -16h-191l-10 10v252q0 55 -48 55q-24 0 -53 -13v-260z" />
<glyph unicode="&#x2080;" horiz-adv-x="451" d="M32 121q0 96 55 156.5t142 60.5q85 0 137.5 -60.5t52.5 -158.5q0 -88 -55 -146.5t-142 -58.5q-85 0 -137.5 57.5t-52.5 149.5zM170 120q0 -106 10 -136t45 -30t46 32t11 134q0 106 -11.5 142t-43.5 36t-44.5 -38t-12.5 -140z" />
<glyph unicode="&#x2081;" horiz-adv-x="316" d="M229 -41l55 -26l-1 -13h-249l-2 13l17 6q24 11 35 21.5t11 28.5v260l-61 16l-2 14l192 59l5 -4v-375z" />
<glyph unicode="&#x2082;" horiz-adv-x="381" d="M46 -80l-9 76q73 18 120.5 66.5t47.5 96.5q0 30 -19.5 46.5t-55.5 16.5q-37 0 -84 -28l-14 11q18 63 65 98t104 35q63 0 102 -33.5t39 -86.5q0 -34 -18 -66t-47 -56t-58 -41t-59 -29h122q35 0 54 21l13 -1q0 -67 -19 -126h-284z" />
<glyph unicode="&#x2083;" horiz-adv-x="396" d="M98 86l-5 35q124 2 124 58q0 19 -15.5 31t-44.5 12q-35 0 -82 -26l-14 11q17 59 64.5 95t102.5 36q57 0 92 -27.5t35 -66.5q0 -90 -131 -103q62 -6 101 -35t39 -78q0 -40 -30 -67t-71 -37t-89 -10q-62 0 -102 14.5t-40 42.5q0 22 26.5 35.5t60.5 9.5l8 -6q13 -60 58 -60 q22 0 35.5 12.5t13.5 33.5q0 41 -31 66t-72 25q-27 0 -33 -1z" />
<glyph unicode="&#x2084;" horiz-adv-x="440" d="M32 62l229 276l88 -8v-253h59l-5 -70h-54v-77h-134v77h-177zM101 77h114v135z" />
<glyph unicode="&#x2085;" horiz-adv-x="389" d="M68 328h278q0 -53 -20 -141l-16 2q-1 13 -9 18t-31 5h-141l-3 -65h35q91 0 143.5 -30.5t52.5 -83.5q0 -56 -50.5 -87.5t-137.5 -31.5q-62 0 -99.5 15.5t-37.5 40.5q0 22 25.5 36t61.5 10l8 -6q13 -60 54 -60q46 0 46 47q0 38 -44 67t-114 34l-8 9z" />
<glyph unicode="&#x2086;" horiz-adv-x="428" d="M396 45q0 -56 -50.5 -93.5t-133.5 -37.5q-81 0 -130.5 47t-49.5 120q0 113 94 185.5t246 71.5l5 -19q-140 -61 -187 -164h65q65 0 103 -29.5t38 -80.5zM170 61q0 -26 4.5 -50t17 -43t30.5 -19t29 16.5t11 43.5q0 40 -22.5 65.5t-56.5 25.5q-5 0 -9 3q-4 -19 -4 -42z" />
<glyph unicode="&#x2087;" horiz-adv-x="388" d="M347 328l9 -76q-70 -76 -98.5 -151t-38.5 -181h-137q13 131 198 292h-179q-36 0 -56 -20l-13 2q2 82 22 134h293z" />
<glyph unicode="&#x2088;" horiz-adv-x="430" d="M398 41q0 -51 -50.5 -89t-133.5 -38q-80 0 -131 26.5t-51 72.5q0 71 105 87q-80 52 -80 114q0 54 47 89t125 35q64 0 105.5 -26t41.5 -68q0 -52 -81 -83q49 -27 76 -54t27 -66zM179 266q0 -26 22 -46t64 -43q8 27 8 68q0 58 -48 58q-20 0 -33 -10t-13 -27zM158 16 q0 -31 16 -49t43 -18q23 0 37 12.5t14 30.5q0 6 -1.5 12t-5.5 11.5t-7.5 10t-10.5 10t-12 9.5t-14.5 9.5t-15 8.5t-17 9.5t-16.5 9.5q-10 -29 -10 -66z" />
<glyph unicode="&#x2089;" horiz-adv-x="428" d="M396 155q-1 -107 -95.5 -176t-246.5 -65l-4 19q139 55 186 154h-63q-66 0 -103.5 31.5t-37.5 85.5q1 58 51 96t133 38q81 0 130.5 -50.5t49.5 -132.5zM246 142q2 0 8 -2q4 28 4 44q1 48 -10.5 83.5t-33.5 35.5q-46 0 -48 -71q0 -40 22.5 -65t57.5 -25z" />
<glyph unicode="&#x2090;" horiz-adv-x="497" d="M266 328q73 0 113 -35.5t40 -104.5q0 -12 -2 -71t-2 -69q0 -53 38 -53q10 0 28 3l4 -11q-40 -65 -118 -65q-35 0 -60 14t-34 38q-19 -23 -52.5 -37.5t-70.5 -14.5q-48 0 -79 24.5t-31 67.5q0 59 61.5 91.5t167.5 34.5v98q0 50 -37 50q-44 0 -44 -57q0 -26 3 -40 q-33 -16 -68 -16q-29 0 -46.5 11t-17.5 31q0 40 64 75.5t143 35.5zM190 43q0 -48 44 -48q22 0 35 9v109q-79 -9 -79 -70z" />
<glyph unicode="&#x2091;" horiz-adv-x="443" d="M416 30q-52 -108 -179 -108q-93 0 -149 53.5t-56 141.5q0 94 60 152.5t150 58.5q76 0 126.5 -43t50.5 -113q0 -26 -1 -35l-12 -12h-218q14 -109 116 -109q53 0 99 24zM236 288q-50 0 -50 -120v-9l82 4q1 8 1 32q0 52 -7.5 72.5t-25.5 20.5z" />
<glyph unicode="&#x2092;" horiz-adv-x="476" d="M444 125q0 -89 -58.5 -146t-152.5 -57q-91 0 -146 55.5t-55 147.5q0 90 58.5 146.5t151.5 56.5q91 0 146.5 -55.5t55.5 -147.5zM186 125q0 -96 10.5 -129.5t39.5 -33.5q30 0 41.5 35.5t11.5 127.5t-11 127.5t-39 35.5q-29 0 -41 -37.5t-12 -125.5z" />
<glyph unicode="&#x2093;" horiz-adv-x="469" d="M217 278l73 -107l65 105l-53 28l1 16h161l1 -16q-26 -10 -43 -28q-13 -11 -35 -39l-76 -97l93 -135q16 -24 31 -38q15 -12 34 -21l-1 -16h-253l-2 16l45 26l-75 107l-63 -105l53 -28l-1 -16h-171l-1 16q28 10 49 27q19 16 38 40l75 96l-95 136q-15 21 -30 36 q-16 16 -33 23l1 16h255l2 -16z" />
<glyph unicode="&#x2095;" horiz-adv-x="561" d="M230 -26l54 -28l-2 -16h-253l-2 16l25 12q28 16 28 50v429l-47 28l-2 11q83 40 193 47l6 -6v-242q64 53 136 53q54 0 84.5 -30t30.5 -87v-237l53 -28l-2 -16h-191l-10 10v252q0 55 -49 55q-26 0 -52 -13v-260z" />
<glyph unicode="&#x2096;" horiz-adv-x="538" d="M230 -26l54 -28l-2 -16h-253l-2 16l25 12q28 16 28 50v429l-47 28l-2 11q83 40 193 47l6 -6v-369h33l108 128l-70 28l1 16h207l2 -16q-35 -13 -56 -27q-19 -11 -53 -40l-34 -31l110 -203q18 -31 37 -43l23 -14l-1 -16h-134q-30 0 -46 11t-29 37l-64 130h-34v-134z" />
<glyph unicode="&#x2097;" horiz-adv-x="310" d="M230 -26l54 -28l-2 -16h-253l-2 16l25 12q28 16 28 50v429l-47 28l-2 11q83 40 193 47l6 -6v-543z" />
<glyph unicode="&#x2098;" horiz-adv-x="819" d="M238 -26l54 -28l-2 -16h-253l-2 16l25 12q28 16 28 50v234l-47 28l-2 11q83 40 193 47l6 -6v-47q67 53 136 53q81 0 105 -62q68 62 145 62q55 0 85 -30t30 -87v-237l53 -28l-2 -16h-191l-10 10v252q0 29 -11 42t-36 13t-54 -13q1 -7 1 -23v-237l53 -28l-2 -16h-191 l-10 10v252q0 55 -48 55q-24 0 -53 -13v-260z" />
<glyph unicode="&#x2099;" horiz-adv-x="569" d="M238 -26l54 -28l-2 -16h-253l-2 16l25 12q28 16 28 50v234l-47 28l-2 11q83 40 193 47l6 -6v-47q67 53 136 53q54 0 84.5 -30t30.5 -87v-237l53 -28l-2 -16h-191l-10 10v252q0 55 -48 55q-24 0 -53 -13v-260z" />
<glyph unicode="&#x209a;" horiz-adv-x="529" d="M230 -221l70 -28l-2 -16h-269l-2 16l24 12q29 16 29 49v430l-47 28l-2 11q83 40 193 47l6 -6v-46q45 52 115 52q67 0 109.5 -53t42.5 -138q0 -102 -61.5 -158.5t-169.5 -56.5q-24 0 -36 1v-144zM266 -38q35 0 55.5 39t20.5 106q0 140 -71 140q-20 0 -41 -11v-267 q14 -7 36 -7z" />
<glyph unicode="&#x209b;" horiz-adv-x="409" d="M174 -78q-101 0 -127 23q-15 15 -15 50q0 48 33 80l12 -3q12 -44 42 -78q29 -32 63 -32q45 0 45 38q0 22 -19 41t-46.5 34t-55 32t-46.5 42.5t-19 57.5q0 58 55 89.5t140 31.5q40 0 74 -6.5t44 -14.5q12 -10 12 -38q0 -52 -34 -85l-12 2q-15 47 -34 72q-21 30 -52 30 q-19 0 -31 -10t-12 -27q0 -22 19 -41t46.5 -34t55 -31.5t46.5 -43.5t19 -60q0 -58 -54.5 -88.5t-148.5 -30.5z" />
<glyph unicode="&#x209c;" horiz-adv-x="354" d="M346 30q-49 -108 -157 -108q-119 0 -119 134v208h-51l-2 16l53 45l134 104l16 -1v-124h101v-40h-101v-188q0 -60 52 -60q33 0 62 24z" />
<glyph unicode="&#x20ac;" horiz-adv-x="660" d="M32 230l7 60h69q-1 12 -1 36q0 23 1 34h-62l7 60h63q26 126 111 203t195 77q88 0 143 -37.5t55 -90.5q0 -33 -21.5 -52.5t-57.5 -19.5q-30 0 -45 4q-8 32 -14 52.5t-16.5 45t-25 36.5t-33.5 12q-49 0 -79.5 -62.5t-34.5 -167.5h177l-7 -60h-171q2 -42 7 -70h157l-7 -60 h-136q41 -125 162 -125q71 0 138 42l15 -12q-29 -60 -83.5 -102.5t-137.5 -42.5q-113 0 -190 64t-100 176h-85z" />
<glyph unicode="&#x2122;" horiz-adv-x="665" d="M195 485l25 -13l-2 -12h-118l-2 12l12 6q13 6 13 24v167h-30q-4 -5 -17 -31l-18 -36h-12q-6 22 -6 52q0 18 3 36h231q3 -18 3 -36q0 -20 -6 -52h-12l-18 37q-10 21 -17 30h-29v-184zM308 690h87l60 -137l59 137h92l2 -12l-25 -14l17 -179l25 -13l-2 -12h-119l-2 12l9 5 q17 9 16 26l-12 124l-71 -167h-25l-68 161l-13 -136l24 -13l-2 -12h-69l-2 12l8 4q16 8 17 23l17 165l-25 14z" />
<glyph unicode="&#x2202;" horiz-adv-x="673" d="M327 760q152 0 229 -105.5t77 -271.5q0 -54 -9 -105.5t-32.5 -105t-59.5 -93t-95 -64.5t-133 -25q-121 0 -192.5 62.5t-71.5 166.5q0 110 81 184t223 74q52 0 100 -15q-12 91 -54.5 142t-115.5 51q-88 0 -161 -63l-37 38q39 52 103.5 91t147.5 39zM220 218 q0 -79 28.5 -123.5t77.5 -44.5q56 0 89 76.5t33 220.5v56q-32 14 -80 14q-70 0 -109 -55t-39 -144z" />
<glyph unicode="&#x220f;" horiz-adv-x="769" d="M295 -132l-8 -8h-245l-2 25l30 15q25 12 35 24t10 33v671l-75 37l2 25h685l2 -25l-30 -15q-25 -12 -35 -24t-10 -33v-671l75 -37l-2 -25h-244l-8 8v767h-180v-767z" />
<glyph unicode="&#x2211;" horiz-adv-x="611" d="M26 -140l-10 50l258 310l-258 420l10 50h536q9 -59 9 -106q0 -74 -15 -134h-30l-103 181q-27 4 -63 4h-136l203 -335l-321 -385h254q36 0 63 4l103 181h30q15 -60 15 -134q0 -47 -9 -106h-536z" />
<glyph unicode="&#x2212;" d="M530 303h-450v85q170 5 452 5l8 -8z" />
<glyph unicode="&#x221a;" horiz-adv-x="637" d="M0 500h260l132 -366l175 626l70 -20l-216 -740h-165l-174 445h-82v55z" />
<glyph unicode="&#x221e;" horiz-adv-x="840" d="M780 346q0 -85 -51 -140.5t-133 -55.5q-57 0 -97.5 27t-75.5 75q-75 -102 -186 -102q-78 0 -127.5 54.5t-49.5 139.5t51 140.5t133 55.5q101 0 174 -100q75 100 185 100q78 0 127.5 -54.5t49.5 -139.5zM587 450q-36 0 -69 -24t-54 -61l2 -4q31 -59 62 -90t71 -31 q38 0 62 29t24 78q0 46 -27.5 74.5t-70.5 28.5zM155 347q0 -49 27 -77.5t71 -28.5q35 0 69.5 25.5t53.5 58.5l-2 4q-26 44 -41.5 65t-39.5 38.5t-52 17.5q-38 0 -62 -27.5t-24 -75.5z" />
<glyph unicode="&#x222b;" horiz-adv-x="469" d="M288 712q-29 -25 -29 -76q0 -20 4.5 -56t10.5 -72.5t18.5 -110t21.5 -133.5q5 -33 15.5 -96.5t14 -88t7 -58t3.5 -55.5q0 -54 -16 -95.5t-41 -66t-60 -39.5t-67.5 -20t-68.5 -5q-54 0 -87.5 20t-33.5 51q0 52 86 78l9 -7q19 -40 43.5 -67t42.5 -27q29 25 29 76 q0 20 -4.5 56.5t-10 71.5t-18 112t-21.5 134q-6 35 -16 96t-14 86.5t-7.5 58.5t-3.5 55q0 54 16 95.5t41 66t60 39.5t67.5 20t68.5 5q54 0 87.5 -20t33.5 -51q0 -52 -86 -78l-9 7q-19 40 -43.5 67t-42.5 27z" />
<glyph unicode="&#x2248;" d="M441 387q-25 0 -139 25t-129 25q-10 0 -49 -47q-5 -7 -8 -10l-51 34q18 34 31.5 54.5t37 42.5t45.5 22q25 0 139.5 -25t128.5 -25q10 0 49 47q3 3 4.5 5.5t3.5 4.5l51 -34q-18 -34 -31.5 -54.5t-37 -42.5t-45.5 -22zM441 163q-25 0 -139 25t-129 25q-10 0 -49 -47 q-5 -7 -8 -10l-51 34q18 34 31.5 54.5t37 42.5t45.5 22q25 0 139.5 -25t128.5 -25q10 0 49 47q5 7 8 10l51 -34q-18 -34 -31.5 -54.5t-37 -42.5t-45.5 -22z" />
<glyph unicode="&#x2260;" d="M147 125l37 78h-104v85q43 1 146 3l54 112h-200v85q53 2 242 4l53 110l11 3l73 -40l-35 -72h108l8 -8l-10 -82h-149l-53 -111q79 1 204 1l8 -8l-10 -82h-245l-55 -115l-10 -3z" />
<glyph unicode="&#x2264;" d="M539 634v-90l-311 -113l312 -118v-90l-465 177v55l6 11q239 92 458 168zM530 74h-450v85q170 5 452 5l8 -8z" />
<glyph unicode="&#x2265;" d="M80 223v90l312 118l-311 113v90q219 -76 458 -168l6 -11v-55zM535 74h-450v85q170 5 452 5l8 -8z" />
<glyph unicode="&#x25ca;" horiz-adv-x="603" d="M40 319v46l209 325l97 10l217 -336v-45l-213 -319l-96 -10zM128 342l172 -280l175 280l-175 287z" />
<glyph unicode="&#x25fc;" horiz-adv-x="500" d="M0 500h500v-500h-500v500z" />
<glyph unicode="&#x2c7c;" horiz-adv-x="302" d="M148 366q-35 0 -57.5 21.5t-22.5 52.5q0 37 29.5 63.5t70.5 26.5q31 0 53 -20t22 -52q0 -39 -27.5 -65.5t-67.5 -26.5zM19 -257q61 73 61 211v288l-47 28l-2 11q83 40 193 47l6 -6v-400q0 -75 -63.5 -133t-135.5 -62z" />
<glyph unicode="&#xa7b6;" horiz-adv-x="886" d="M368 0h-343q-9 58 -9 102q0 66 15 108h30l47 -80q30 -51 46 -71q24 -4 63 -4h91q-204 122 -201 325q-2 140 91 230t246 90q151 0 243 -90t92 -230q0 -203 -201 -325h91q36 0 63 4q17 23 46 71l47 80h30q15 -47 15 -108q0 -46 -9 -102h-343l-27 58q98 119 98 304 q0 134 -35.5 208.5t-107.5 74.5q-75 0 -113 -75t-36 -208q-3 -186 98 -304z" />
<glyph unicode="&#xfb01;" horiz-adv-x="705" d="M268 55l65 -35l-2 -20h-306l-2 20l30 16q35 19 35 61v333h-63l-2 20l65 35v25q0 102 81.5 176t199.5 74q95 0 160.5 -37t65.5 -90q0 -33 -21.5 -52.5t-55.5 -19.5q-46 0 -78 16q-7 32 -12 50t-15.5 40t-26 32.5t-37.5 10.5q-81 0 -81 -120v-110h193q78 23 156 30l8 -8 v-447l65 -35l-2 -20h-306l-2 20l30 16q35 19 35 61v333h-177v-375z" />
<glyph unicode="&#xfb02;" horiz-adv-x="705" d="M268 55l65 -35l-2 -20h-306l-2 20l30 16q35 19 35 61v333h-63l-2 20l65 35v25q0 102 81.5 176t199.5 74q68 0 125 -21q61 16 123 21l8 -8v-697l65 -35l-2 -20h-306l-2 20l30 16q35 19 35 61v333h-177v-375zM268 598v-118h177v147q-29 83 -96 83q-81 0 -81 -112z" />
<glyph unicode="&#xfb06;" horiz-adv-x="891" d="M730 570q0 -41 -17 -90h140v-50h-125v-245q0 -80 64 -80q41 0 76 32l15 -12q-25 -57 -72 -96t-118 -39q-145 0 -145 170v270h-63l-2 20q83 47 83 116q0 36 -24.5 60t-64.5 24q-51 0 -86 -42.5t-43 -105.5q45 -13 71 -38.5t26 -55.5q0 -26 -17.5 -42t-44.5 -16 q-33 0 -58 28.5t-27 79.5q-10 2 -16 2q-27 0 -43 -14.5t-16 -36.5q0 -29 23.5 -53t57 -43t67 -40.5t57 -55t23.5 -76.5q0 -74 -66 -112.5t-180 -38.5q-123 0 -154 29q-19 19 -19 63q0 61 40 101l15 -3q14 -59 50 -100q35 -40 77 -40q28 0 42.5 14t14.5 37q0 29 -23.5 54 t-57 44.5t-67 41t-57 55t-23.5 74.5q0 69 69 109.5t169 40.5q14 0 20 -1q14 94 81 157.5t164 63.5q84 0 134 -44.5t50 -115.5z" />
<glyph horiz-adv-x="520" d="M78 -78l-6 7v508l-47 28l-2 11q83 40 192 47l7 -6v-240q44 51 115 51q68 0 109.5 -53t41.5 -139q0 -100 -56.5 -157t-152.5 -57q-54 0 -98 20zM251 -38q83 0 83 149q0 136 -72 136q-19 0 -40 -11v-268q14 -6 29 -6z" />
<glyph horiz-adv-x="419" d="M405 228q0 -28 -20 -45t-54 -17q-24 0 -44 9l-11 4q0 58 -7.5 83.5t-27.5 25.5q-25 0 -40 -33.5t-15 -89.5q0 -149 123 -149q46 0 90 24l12 -10q-52 -108 -179 -108q-91 0 -145.5 52.5t-54.5 139.5q0 95 61.5 154.5t158.5 59.5q68 0 110.5 -29t42.5 -71z" />
<glyph horiz-adv-x="530" d="M259 328q19 0 39 -3v112l-64 28l-1 11q92 40 209 47l6 -6v-472q0 -50 39 -50q11 0 27 3l4 -11q-40 -65 -119 -65q-70 0 -94 55q-40 -55 -114 -55q-71 0 -115 53.5t-44 137.5q0 100 61.5 157.5t165.5 57.5zM271 288q-42 0 -63.5 -38t-21.5 -108q0 -69 20 -108t58 -39 q22 0 34 8v280q-13 5 -27 5z" />
<glyph horiz-adv-x="329" d="M238 -26l70 -28l-2 -16h-269l-2 16l25 12q28 16 28 50v256h-51l-2 16l53 28v20q0 78 67 136.5t154 58.5q60 0 100 -29.5t40 -69.5q0 -28 -20 -44.5t-50 -16.5q-22 0 -51 12q0 59 -8 83.5t-30 24.5q-24 0 -38 -25.5t-14 -72.5v-81h96v-40h-96v-290z" />
<glyph horiz-adv-x="462" d="M44 178q0 63 55.5 106.5t139.5 43.5q68 0 115 -29q27 82 73 82q35 0 35 -46q0 -26 -5 -41q-2 -11 -20 -12q-5 0 -26 -0.5t-32 -1.5q37 -37 37 -90q0 -64 -53 -106.5t-137 -42.5q-22 0 -41 3q-2 -10 -2 -14q0 -14 10.5 -19t38.5 -7l78 -5q70 -4 108 -32t38 -80 q0 -70 -67 -115t-179 -45q-79 0 -128.5 21.5t-49.5 57.5q0 30 31.5 50t71.5 18l7 -6v4q2 -48 39 -76.5t91 -28.5q41 0 66 15.5t25 39.5q0 37 -63 45l-108 13q-108 12 -108 81q0 62 65 91q-49 16 -77 49t-28 77zM266 184q0 60 -8 84t-27 24q-20 0 -28.5 -23.5t-8.5 -81.5 q0 -60 8.5 -85t29.5 -25q19 0 26.5 24t7.5 83z" />
<glyph horiz-adv-x="318" d="M156 366q-35 0 -57.5 21.5t-22.5 52.5q0 37 30 64t70 27q31 0 53 -20.5t22 -51.5q0 -40 -27.5 -66.5t-67.5 -26.5zM238 -26l54 -28l-2 -16h-253l-2 16l25 12q28 16 28 50v234l-47 28l-2 11q83 40 193 47l6 -6v-348z" />
<glyph horiz-adv-x="520" d="M448 -221l53 -28l-1 -16h-253l-2 16l24 12q29 16 29 49v156q-41 -48 -106 -46q-72 1 -116 51t-44 136q0 104 60 161.5t153 57.5q53 0 95 -20l102 20l6 -6v-543zM271 288q-41 0 -63 -39.5t-22 -110.5q0 -67 20 -105t55 -38q28 0 37 8v279q-12 6 -27 6z" />
<glyph horiz-adv-x="394" d="M238 -26l70 -28l-2 -16h-269l-2 16l25 12q28 16 28 50v234l-47 28l-2 11q83 40 193 47l6 -6v-62q51 68 100 68q24 0 40 -15t16 -42q0 -42 -39 -86h-17q-40 25 -93 35l-7 -2v-244z" />
<glyph horiz-adv-x="569" d="M79 42v200l-47 28l-2 11q83 40 193 47l6 -6v-262q0 -32 12 -46.5t40 -14.5q25 0 48 10v233l-47 28l-2 11q83 40 193 47l6 -6v-277q0 -50 35 -50q14 0 31 3l4 -11q-41 -65 -120 -65q-66 0 -91 52q-59 -52 -132 -52q-59 0 -93 31.5t-34 88.5z" />
<glyph horiz-adv-x="450" d="M386 246l-121 -316h-89l-120 315q-6 18 -23 37q-13 14 -33 22l1 16h259l2 -16l-55 -26l72 -223l76 224l-53 25l1 16h145l2 -16q-26 -9 -38 -20q-16 -15 -26 -38z" />
<glyph horiz-adv-x="644" d="M412 320l83 -237l54 196l-57 25l1 16h149l2 -16q-24 -8 -39 -20q-18 -17 -25 -38l-96 -316h-89l-74 203l-80 -203h-90l-95 315q-6 20 -23 37q-14 14 -33 22l1 16h255l2 -16l-51 -26l50 -194l90 236h65z" />
<glyph horiz-adv-x="451" d="M109 -151q37 0 73 21.5t50 59.5l-56 1l-119 314q-8 20 -23 37q-15 15 -34 22l2 16h255l1 -16l-50 -26l70 -218l78 218l-58 26l2 16h149l2 -16q-26 -9 -40 -21q-15 -15 -23 -37l-137 -358q-34 -88 -68.5 -124.5t-75.5 -36.5q-30 0 -48 20.5t-18 53.5q0 24 11 51l9 3 q20 -6 48 -6z" />
<glyph horiz-adv-x="433" d="M398 -9q0 -32 -7 -61h-351l-8 40l209 310h-97l-76 -105h-16q-15 42 -15 84q0 29 8 61h347l9 -40l-211 -310h102l76 105h16q14 -42 14 -84z" />
<glyph horiz-adv-x="498" d="M266 768q73 0 113 -35.5t40 -104.5q0 -12 -2 -71t-2 -69q0 -53 38 -53q10 0 28 3l4 -11q-40 -65 -118 -65q-35 0 -60 14t-34 38q-19 -23 -52.5 -37.5t-70.5 -14.5q-48 0 -79 24.5t-31 67.5q0 59 61.5 91.5t167.5 34.5v98q0 50 -37 50q-44 0 -44 -57q0 -26 3 -40 q-33 -16 -68 -16q-29 0 -46.5 11t-17.5 31q0 40 64 75.5t143 35.5zM190 483q0 -48 44 -48q22 0 35 9v109q-79 -9 -79 -70z" />
<glyph horiz-adv-x="520" d="M78 362l-6 7v508l-47 28l-2 11q83 40 192 47l7 -6v-240q44 51 115 51q68 0 109.5 -53t41.5 -139q0 -100 -56.5 -157t-152.5 -57q-54 0 -98 20zM251 402q83 0 83 149q0 136 -72 136q-19 0 -40 -11v-268q13 -6 29 -6z" />
<glyph horiz-adv-x="419" d="M405 668q0 -28 -20 -45t-54 -17q-24 0 -44 9l-11 4q0 58 -7.5 83.5t-27.5 25.5q-25 0 -40 -33.5t-15 -89.5q0 -149 123 -149q46 0 90 24l12 -10q-52 -108 -179 -108q-91 0 -145.5 52.5t-54.5 139.5q0 95 61.5 154.5t158.5 59.5q68 0 110.5 -29t42.5 -71z" />
<glyph horiz-adv-x="528" d="M259 768q19 0 39 -3v112l-64 28l-1 11q92 40 209 47l6 -6v-472q0 -50 39 -50q11 0 27 3l4 -11q-40 -65 -119 -65q-70 0 -94 55q-40 -55 -114 -55q-71 0 -115 53.5t-44 137.5q0 100 61.5 157.5t165.5 57.5zM271 728q-42 0 -63.5 -38t-21.5 -108q0 -69 20 -108t58 -39 q22 0 34 8v280q-13 5 -27 5z" />
<glyph horiz-adv-x="443" d="M416 470q-52 -108 -179 -108q-93 0 -149 53.5t-56 141.5q0 94 60 152.5t150 58.5q76 0 126.5 -43t50.5 -113q0 -26 -1 -35l-12 -12h-218q14 -109 116 -109q53 0 99 24zM236 728q-50 0 -50 -120v-9l82 4q1 8 1 32q0 52 -7.5 72.5t-25.5 20.5z" />
<glyph horiz-adv-x="329" d="M238 414l70 -28l-2 -16h-269l-2 16l25 12q28 16 28 50v256h-51l-2 16l53 28v20q0 78 67 136.5t154 58.5q60 0 100 -29.5t40 -69.5q0 -28 -20 -44.5t-50 -16.5q-22 0 -51 12q0 59 -8 83.5t-30 24.5q-24 0 -38 -25.5t-14 -72.5v-81h96v-40h-96v-290z" />
<glyph horiz-adv-x="462" d="M44 618q0 63 55.5 106.5t139.5 43.5q68 0 115 -29q27 82 73 82q35 0 35 -46q0 -26 -5 -41q-2 -11 -20 -12q-5 0 -26 -0.5t-32 -1.5q37 -37 37 -90q0 -64 -53 -106.5t-137 -42.5q-22 0 -41 3q-2 -10 -2 -14q0 -14 10.5 -19t38.5 -7l78 -5q70 -4 108 -32t38 -80 q0 -70 -67 -115t-179 -45q-79 0 -128.5 21.5t-49.5 57.5q0 30 31.5 50t71.5 18l7 -6v4q2 -48 39 -76.5t91 -28.5q41 0 66 15.5t25 39.5q0 37 -63 45l-108 13q-108 12 -108 81q0 62 65 91q-49 16 -77 49t-28 77zM266 624q0 60 -8 84t-27 24q-20 0 -28.5 -23.5t-8.5 -81.5 q0 -60 8.5 -85t29.5 -25q19 0 26.5 24t7.5 83z" />
<glyph horiz-adv-x="561" d="M230 414l54 -28l-2 -16h-253l-2 16l25 12q28 16 28 50v429l-47 28l-2 11q83 40 193 47l6 -6v-242q64 53 136 53q54 0 84.5 -30t30.5 -87v-237l53 -28l-2 -16h-191l-10 10v252q0 55 -49 55q-26 0 -52 -13v-260z" />
<glyph horiz-adv-x="302" d="M148 806q-35 0 -57.5 21.5t-22.5 52.5q0 37 29.5 63.5t70.5 26.5q31 0 53 -20t22 -52q0 -39 -27.5 -65.5t-67.5 -26.5zM19 183q61 73 61 211v288l-47 28l-2 11q83 40 193 47l6 -6v-400q0 -75 -63.5 -133t-135.5 -62z" />
<glyph horiz-adv-x="538" d="M230 414l54 -28l-2 -16h-253l-2 16l25 12q28 16 28 50v429l-47 28l-2 11q83 40 193 47l6 -6v-369h33l108 128l-70 28l1 16h207l2 -16q-35 -13 -56 -27q-19 -11 -53 -40l-34 -31l110 -203q18 -31 37 -43l23 -14l-1 -16h-134q-30 0 -46 11t-29 37l-64 130h-34v-134z" />
<glyph horiz-adv-x="310" d="M230 414l54 -28l-2 -16h-253l-2 16l25 12q28 16 28 50v429l-47 28l-2 11q83 40 193 47l6 -6v-543z" />
<glyph horiz-adv-x="819" d="M238 414l54 -28l-2 -16h-253l-2 16l25 12q28 16 28 50v234l-47 28l-2 11q83 40 193 47l6 -6v-47q67 53 136 53q81 0 105 -62q68 62 145 62q55 0 85 -30t30 -87v-237l53 -28l-2 -16h-191l-10 10v252q0 29 -11 42t-36 13t-54 -13q1 -7 1 -23v-237l53 -28l-2 -16h-191 l-10 10v252q0 55 -48 55q-24 0 -53 -13v-260z" />
<glyph horiz-adv-x="476" d="M444 565q0 -89 -58.5 -146t-152.5 -57q-91 0 -146 55.5t-55 147.5q0 90 58.5 146.5t151.5 56.5q91 0 146.5 -55.5t55.5 -147.5zM186 565q0 -96 10.5 -129.5t39.5 -33.5q30 0 41.5 35.5t11.5 127.5t-11 127.5t-39 35.5q-29 0 -41 -37.5t-12 -125.5z" />
<glyph horiz-adv-x="529" d="M230 219l70 -28l-2 -16h-269l-2 16l24 12q29 16 29 49v430l-47 28l-2 11q83 40 193 47l6 -6v-46q45 52 115 52q67 0 109.5 -53t42.5 -138q0 -102 -61.5 -158.5t-169.5 -56.5q-24 0 -36 1v-144zM266 402q35 0 55.5 39t20.5 106q0 140 -71 140q-20 0 -41 -11v-267 q14 -7 36 -7z" />
<glyph horiz-adv-x="520" d="M448 219l53 -28l-1 -16h-253l-2 16l24 12q29 16 29 49v156q-41 -48 -106 -46q-72 1 -116 51t-44 136q0 104 60 161.5t153 57.5q53 0 95 -20l102 20l6 -6v-543zM271 728q-41 0 -63 -39.5t-22 -110.5q0 -67 20 -105t55 -38q28 0 37 8v279q-12 6 -27 6z" />
<glyph horiz-adv-x="394" d="M238 414l70 -28l-2 -16h-269l-2 16l25 12q28 16 28 50v234l-47 28l-2 11q83 40 193 47l6 -6v-62q51 68 100 68q24 0 40 -15t16 -42q0 -42 -39 -86h-17q-40 25 -93 35l-7 -2v-244z" />
<glyph horiz-adv-x="409" d="M174 362q-101 0 -127 23q-15 15 -15 50q0 48 33 80l12 -3q12 -44 42 -78q29 -32 63 -32q45 0 45 38q0 22 -19 41t-46.5 34t-55 32t-46.5 42.5t-19 57.5q0 58 55 89.5t140 31.5q40 0 74 -6.5t44 -14.5q12 -10 12 -38q0 -52 -34 -85l-12 2q-15 47 -34 72q-21 30 -52 30 q-19 0 -31 -10t-12 -27q0 -22 19 -41t46.5 -34t55 -31.5t46.5 -43.5t19 -60q0 -58 -54.5 -88.5t-148.5 -30.5z" />
<glyph horiz-adv-x="356" d="M348 470q-49 -108 -157 -108q-119 0 -119 134v208h-51l-2 16l53 45l134 104l16 -1v-124h101v-40h-101v-188q0 -60 52 -60q33 0 62 24z" />
<glyph horiz-adv-x="568" d="M80 482v200l-47 28l-2 11q83 40 193 47l6 -6v-262q0 -32 12 -46.5t40 -14.5q25 0 48 10v233l-47 28l-2 11q83 40 193 47l6 -6v-277q0 -50 35 -50q15 0 31 3l4 -11q-41 -65 -120 -65q-66 0 -91 52q-59 -52 -132 -52q-59 0 -93 31.5t-34 88.5z" />
<glyph horiz-adv-x="450" d="M386 686l-121 -316h-89l-120 315q-6 18 -23 37q-13 14 -33 22l1 16h259l2 -16l-55 -26l72 -223l76 224l-53 25l1 16h145l2 -16q-26 -9 -38 -20q-16 -15 -26 -38z" />
<glyph horiz-adv-x="644" d="M412 760l83 -237l54 196l-57 25l1 16h149l2 -16q-24 -8 -39 -20q-18 -17 -25 -38l-96 -316h-89l-74 203l-80 -203h-90l-95 315q-6 20 -23 37q-14 14 -33 22l1 16h255l2 -16l-51 -26l50 -194l90 236h65z" />
<glyph horiz-adv-x="469" d="M217 718l73 -107l65 105l-53 28l1 16h161l1 -16q-26 -10 -43 -28q-13 -11 -35 -39l-76 -97l93 -135q16 -24 31 -38q15 -12 34 -21l-1 -16h-253l-2 16l45 26l-75 107l-63 -105l53 -28l-1 -16h-171l-1 16q28 10 49 27q19 16 38 40l75 96l-95 136q-15 21 -30 36 q-16 16 -33 23l1 16h255l2 -16z" />
<glyph horiz-adv-x="451" d="M109 289q37 0 73 21.5t50 59.5l-56 1l-119 314q-8 20 -23 37q-15 15 -34 22l2 16h255l1 -16l-50 -26l70 -218l78 218l-58 26l2 16h149l2 -16q-26 -9 -40 -21q-15 -15 -23 -37l-137 -358q-34 -88 -68.5 -124.5t-75.5 -36.5q-30 0 -48 20.5t-18 53.5q0 24 11 51l9 3 q20 -6 48 -6z" />
<glyph horiz-adv-x="433" d="M398 431q0 -32 -7 -61h-351l-8 40l209 310h-97l-76 -105h-16q-15 42 -15 84q0 29 8 61h347l9 -40l-211 -310h102l76 105h16q14 -42 14 -84z" />
<glyph horiz-adv-x="1138" d="M753 55l65 -35l-2 -20h-306l-2 20l30 16q35 19 35 61v569q-75 -12 -136 -57t-82 -104q60 -13 95 -47t35 -78q0 -37 -25 -60t-62 -23q-44 0 -72 37.5t-28 100.5q0 16 1 24q-37 -6 -59.5 -55t-22.5 -114q0 -90 39.5 -137.5t111.5 -47.5q58 0 110 32l15 -12 q-63 -135 -218 -135q-111 0 -177 67.5t-66 182.5q0 119 75.5 194.5t191.5 75.5h9q32 112 151.5 181t285.5 69l8 -8v-309q80 67 165 67q66 0 103 -39t37 -111v-305l65 -35l-2 -20h-231l-12 12v325q0 73 -60 73q-30 0 -65 -17v-338z" />
<glyph horiz-adv-x="916" d="M508 450q83 42 83 115q0 37 -24.5 61t-63.5 24q-55 0 -95 -43t-55 -102q61 -12 96.5 -46.5t35.5 -78.5q0 -37 -25 -60t-62 -23q-44 0 -72 37.5t-28 105.5q0 13 1 19q-37 -6 -59.5 -55t-22.5 -114q0 -90 39.5 -137.5t111.5 -47.5q58 0 110 32l15 -12q-63 -135 -218 -135 q-111 0 -177 67.5t-66 182.5q0 119 75.5 194.5t191.5 75.5h7q22 95 92.5 157.5t168.5 62.5q85 0 136.5 -44.5t51.5 -115.5q0 -41 -17 -90h140v-50h-125v-245q0 -80 64 -80q41 0 76 32l15 -12q-25 -57 -72 -96t-118 -39q-145 0 -145 170v270h-63z" />
<glyph horiz-adv-x="1106" d="M282 460q-27 0 -43 -14.5t-16 -36.5q0 -29 23.5 -53t57 -43t67 -40.5t57 -55t23.5 -76.5q0 -74 -66 -112.5t-180 -38.5q-123 0 -154 29q-19 19 -19 63q0 61 40 101l15 -3q14 -59 50 -100q35 -40 77 -40q28 0 42.5 14t14.5 37q0 29 -23.5 54t-57 44.5t-67 41t-57 55 t-23.5 74.5q0 69 69 109.5t169 40.5q17 0 25 -1q28 110 140 180.5t267 70.5l8 -8v-309q80 67 165 67q66 0 103 -39t37 -111v-305l65 -35l-2 -20h-231l-12 12v325q0 73 -60 73q-30 0 -65 -17v-338l65 -35l-2 -20h-306l-2 20l30 16q35 19 35 61v568q-64 -13 -116.5 -58.5 t-71.5 -106.5q42 -13 67 -38t25 -54q0 -26 -16.5 -42t-41.5 -16q-37 0 -63 27t-26 68v13q-10 2 -16 2z" />
<glyph horiz-adv-x="615" d="M252 540h111l178 -456q5 -14 11.5 -22.5t12 -12.5t21.5 -14l21 -13l-2 -22h-301l-2 22l62 25l-31 83l-186 -2l-31 -81l60 -25l-2 -22h-164l-2 22q35 19 41 24q18 18 25 37zM164 174l153 -2l-76 202z" />
<glyph horiz-adv-x="615" d="M451 751q0 -40 -66.5 -81.5t-171.5 -67.5l-11 16q67 95 109 181l11 8q11 1 34 1q95 0 95 -57zM252 540h111l178 -456q5 -14 11.5 -22.5t12 -12.5t21.5 -14l21 -13l-2 -22h-301l-2 22l62 25l-31 83l-186 -2l-31 -81l60 -25l-2 -22h-164l-2 22q35 19 41 24q18 18 25 37z M164 174l153 -2l-76 202z" />
<glyph horiz-adv-x="615" d="M435 794l5 2l19 -4q-5 -79 -47 -127t-106 -48t-103 48.5t-40 127.5l23 4q8 -33 41.5 -52.5t84.5 -19.5q47 0 80 18.5t43 50.5zM252 540h111l178 -456q5 -14 11.5 -22.5t12 -12.5t21.5 -14l21 -13l-2 -22h-301l-2 22l62 25l-31 83l-186 -2l-31 -81l60 -25l-2 -22h-164 l-2 22q35 19 41 24q18 18 25 37zM164 174l153 -2l-76 202z" />
<glyph horiz-adv-x="615" d="M361 615l-11 -8h-95q-68 100 -109 186l16 11q70 -47 146 -87q72 44 152 87l14 -14q-69 -99 -113 -175zM252 540h111l178 -456q5 -14 11.5 -22.5t12 -12.5t21.5 -14l21 -13l-2 -22h-301l-2 22l62 25l-31 83l-186 -2l-31 -81l60 -25l-2 -22h-164l-2 22q35 19 41 24 q18 18 25 37zM164 174l153 -2l-76 202z" />
<glyph horiz-adv-x="615" d="M473 617l-16 -11q-70 47 -146 87q-72 -43 -152 -87l-14 14q69 99 113 175l11 8h95q68 -100 109 -186zM252 540h111l178 -456q5 -14 11.5 -22.5t12 -12.5t21.5 -14l21 -13l-2 -22h-301l-2 22l62 25l-31 83l-186 -2l-31 -81l60 -25l-2 -22h-164l-2 22q35 19 41 24 q18 18 25 37zM164 174l153 -2l-76 202z" />
<glyph horiz-adv-x="615" d="M520 717q0 -41 -28 -69t-69 -28q-34 0 -56 22.5t-22 54.5q0 40 29 68.5t70 28.5q32 0 54 -21.5t22 -55.5zM279 717q0 -41 -28 -69t-69 -28q-34 0 -56 22.5t-22 54.5q0 40 29 68.5t70 28.5q32 0 54 -21.5t22 -55.5zM252 540h111l178 -456q5 -14 11.5 -22.5t12 -12.5 t21.5 -14l21 -13l-2 -22h-301l-2 22l62 25l-31 83l-186 -2l-31 -81l60 -25l-2 -22h-164l-2 22q35 19 41 24q18 18 25 37zM164 174l153 -2l-76 202z" />
<glyph horiz-adv-x="615" d="M252 540h111l178 -456q5 -14 11.5 -22.5t12 -12.5t21.5 -14l21 -13l-2 -22h-301l-2 22l62 25l-31 83l-186 -2l-31 -81l60 -25l-2 -22h-164l-2 22q35 19 41 24q18 18 25 37zM164 174l153 -2l-76 202zM350 -152q0 -46 -31 -77t-77 -31q-39 0 -64.5 25t-25.5 61 q0 43 33.5 74t79.5 31q36 0 60.5 -23t24.5 -60z" />
<glyph horiz-adv-x="615" d="M425 618l-11 -16q-105 26 -171.5 67.5t-66.5 81.5q0 57 95 57q23 0 34 -1l11 -8q42 -86 109 -181zM252 540h111l178 -456q5 -14 11.5 -22.5t12 -12.5t21.5 -14l21 -13l-2 -22h-301l-2 22l62 25l-31 83l-186 -2l-31 -81l60 -25l-2 -22h-164l-2 22q35 19 41 24q18 18 25 37 zM164 174l153 -2l-76 202z" />
<glyph horiz-adv-x="615" d="M132 652v82h352v-82h-352zM252 540h111l178 -456q5 -14 11.5 -22.5t12 -12.5t21.5 -14l21 -13l-2 -22h-301l-2 22l62 25l-31 83l-186 -2l-31 -81l60 -25l-2 -22h-164l-2 22q35 19 41 24q18 18 25 37zM164 174l153 -2l-76 202z" />
<glyph horiz-adv-x="615" d="M252 540h111l178 -456q5 -14 11.5 -22.5t12 -12.5t21.5 -14l21 -13l-2 -22q-55 -18 -87 -52.5t-32 -72.5q0 -22 12.5 -34.5t34.5 -12.5q23 0 44 4l4 -14q-41 -78 -129 -78q-47 0 -76.5 28t-29.5 73q0 58 48.5 98.5t139.5 60.5h-230l-2 22l62 25l-31 83l-186 -2l-31 -81 l60 -25l-2 -22h-164l-2 22q35 19 41 24q18 18 25 37zM164 174l153 -2l-76 202z" />
<glyph horiz-adv-x="615" d="M304 608q-51 0 -82.5 25.5t-31.5 67.5q0 45 34 73.5t88 28.5q50 0 81.5 -26t31.5 -66q0 -45 -34 -74t-87 -29zM308 764q-23 0 -37.5 -17.5t-14.5 -43.5q0 -24 14.5 -40t36.5 -16q23 0 37.5 17.5t14.5 44.5q0 23 -14.5 39t-36.5 16zM252 540h111l178 -456 q5 -14 11.5 -22.5t12 -12.5t21.5 -14l21 -13l-2 -22h-301l-2 22l62 25l-31 83l-186 -2l-31 -81l60 -25l-2 -22h-164l-2 22q35 19 41 24q18 18 25 37zM164 174l153 -2l-76 202z" />
<glyph horiz-adv-x="615" d="M450 991q0 -40 -66.5 -81.5t-171.5 -67.5l-11 16q67 95 109 181l11 8q11 1 34 1q95 0 95 -57zM304 608q-51 0 -82.5 25.5t-31.5 67.5q0 45 34 73.5t88 28.5q50 0 81.5 -26t31.5 -66q0 -45 -34 -74t-87 -29zM308 764q-23 0 -37.5 -17.5t-14.5 -43.5q0 -24 14.5 -40 t36.5 -16q23 0 37.5 17.5t14.5 44.5q0 23 -14.5 39t-36.5 16zM252 540h111l178 -456q5 -14 11.5 -22.5t12 -12.5t21.5 -14l21 -13l-2 -22h-301l-2 22l62 25l-31 83l-186 -2l-31 -81l60 -25l-2 -22h-164l-2 22q35 19 41 24q18 18 25 37zM164 174l153 -2l-76 202z" />
<glyph horiz-adv-x="615" d="M141 634l-20 6q-2 18 -2 27q0 55 28 93.5t81 38.5q32 0 66 -9t77.5 -26t58.5 -22l49 55l20 -6q2 -22 2 -35q0 -52 -28 -88t-81 -36q-32 0 -66 9t-77.5 26t-58.5 22zM252 540h111l178 -456q5 -14 11.5 -22.5t12 -12.5t21.5 -14l21 -13l-2 -22h-301l-2 22l62 25l-31 83 l-186 -2l-31 -81l60 -25l-2 -22h-164l-2 22q35 19 41 24q18 18 25 37zM164 174l153 -2l-76 202z" />
<glyph horiz-adv-x="834" d="M10 0l-2 22q35 19 41 24q18 18 25 37l157 402l-66 33l2 22h610q8 -36 8 -88q0 -68 -14 -124h-28l-39 78q-28 56 -46 82q-34 2 -49 2h-65v-203l153 9l-2 -65l-151 8v-189h73q15 0 49 2q27 40 47 82l38 79h28q15 -56 15 -118q0 -33 -8 -95h-485l-2 22l30 16q35 18 35 59 v145l-174 -2l-74 -193l60 -25l-2 -22h-164zM364 490h-79l-78 -204l157 -2v206z" />
<glyph horiz-adv-x="834" d="M630 751q0 -40 -66.5 -81.5t-171.5 -67.5l-11 16q67 95 109 181l11 8q11 1 34 1q95 0 95 -57zM10 0l-2 22q35 19 41 24q18 18 25 37l157 402l-66 33l2 22h610q8 -36 8 -88q0 -68 -14 -124h-28l-39 78q-28 56 -46 82q-34 2 -49 2h-65v-203l153 9l-2 -65l-151 8v-189h73 q15 0 49 2q27 40 47 82l38 79h28q15 -56 15 -118q0 -33 -8 -95h-485l-2 22l30 16q35 18 35 59v145l-174 -2l-74 -193l60 -25l-2 -22h-164zM364 490h-79l-78 -204l157 -2v206z" />
<glyph horiz-adv-x="659" d="M47 518l2 22h298q241 0 241 -132q0 -46 -35.5 -78t-87.5 -40q162 -33 162 -135q0 -73 -66.5 -114t-178.5 -41h-333l-2 22l30 16q35 18 35 59v346q0 41 -35 59zM323 490h-31v-190h30q43 0 67 24.5t24 72.5q0 93 -90 93zM328 254h-36v-204h32q118 0 118 105q0 46 -31 72.5 t-83 26.5z" />
<glyph horiz-adv-x="605" d="M550 6q-94 -16 -186 -16q-145 0 -234.5 68t-89.5 200q0 134 91 213t227 79q98 0 183 -27q5 -40 5 -68q0 -72 -16 -133l-28 -2q-72 125 -110 173q-10 2 -24 2q-62 0 -103 -67.5t-41 -167.5q0 -95 43 -154t119 -59q16 0 25 1q55 75 110 162h28q8 -30 8 -93q0 -48 -7 -111z " />
<glyph horiz-adv-x="605" d="M486 751q0 -40 -66.5 -81.5t-171.5 -67.5l-11 16q67 95 109 181l11 8q11 1 34 1q95 0 95 -57zM550 6q-94 -16 -186 -16q-145 0 -234.5 68t-89.5 200q0 134 91 213t227 79q98 0 183 -27q5 -40 5 -68q0 -72 -16 -133l-28 -2q-72 125 -110 173q-10 2 -24 2q-62 0 -103 -67.5 t-41 -167.5q0 -95 43 -154t119 -59q16 0 25 1q55 75 110 162h28q8 -30 8 -93q0 -48 -7 -111z" />
<glyph horiz-adv-x="605" d="M406 615l-11 -8h-95q-68 100 -109 186l16 11q70 -47 146 -87q72 44 152 87l14 -14q-69 -99 -113 -175zM550 6q-94 -16 -186 -16q-145 0 -234.5 68t-89.5 200q0 134 91 213t227 79q98 0 183 -27q5 -40 5 -68q0 -72 -16 -133l-28 -2q-72 125 -110 173q-10 2 -24 2 q-62 0 -103 -67.5t-41 -167.5q0 -95 43 -154t119 -59q16 0 25 1q55 75 110 162h28q8 -30 8 -93q0 -48 -7 -111z" />
<glyph horiz-adv-x="605" d="M312 -123l-6 10l18 104q-129 9 -206.5 76.5t-77.5 190.5q0 134 91 213t227 79q98 0 183 -27q5 -40 5 -68q0 -72 -16 -133l-28 -2q-72 125 -110 173q-10 2 -24 2q-62 0 -103 -67.5t-41 -167.5q0 -95 43 -154t119 -59q16 0 25 1q55 75 110 162h28q8 -30 8 -93 q0 -48 -7 -111q-78 -13 -165 -16l-9 -47q63 -6 97.5 -29.5t34.5 -59.5q0 -54 -58 -84.5t-171 -30.5l-5 15q81 39 81 82q0 15 -12 26t-31 15z" />
<glyph horiz-adv-x="605" d="M518 617l-16 -11q-70 47 -146 87q-72 -43 -152 -87l-14 14q69 99 113 175l11 8h95q68 -100 109 -186zM550 6q-94 -16 -186 -16q-145 0 -234.5 68t-89.5 200q0 134 91 213t227 79q98 0 183 -27q5 -40 5 -68q0 -72 -16 -133l-28 -2q-72 125 -110 173q-10 2 -24 2 q-62 0 -103 -67.5t-41 -167.5q0 -95 43 -154t119 -59q16 0 25 1q55 75 110 162h28q8 -30 8 -93q0 -48 -7 -111z" />
<glyph horiz-adv-x="605" d="M453 718q0 -46 -31 -77t-77 -31q-39 0 -64.5 25t-25.5 61q0 43 33.5 74t79.5 31q36 0 60.5 -23t24.5 -60zM550 6q-94 -16 -186 -16q-145 0 -234.5 68t-89.5 200q0 134 91 213t227 79q98 0 183 -27q5 -40 5 -68q0 -72 -16 -133l-28 -2q-72 125 -110 173q-10 2 -24 2 q-62 0 -103 -67.5t-41 -167.5q0 -95 43 -154t119 -59q16 0 25 1q55 75 110 162h28q8 -30 8 -93q0 -48 -7 -111z" />
<glyph horiz-adv-x="697" d="M657 270q0 -132 -86 -201t-225 -69h-297l-2 22l30 16q35 18 35 59v346q0 41 -35 59l-30 16l2 22h297q143 0 227 -68t84 -202zM341 490h-49v-440h49q130 0 131 220t-131 220z" />
<glyph horiz-adv-x="697" d="M657 270q0 -132 -86 -201t-225 -69h-297l-2 22l30 16q35 18 35 59v156h-80v50h80v140q0 41 -35 59l-30 16l2 22h297q143 0 227 -68t84 -202zM393 253h-101v-203h49q130 0 131 220t-131 220h-49v-187h101v-50z" />
<glyph horiz-adv-x="697" d="M394 615l-11 -8h-95q-68 100 -109 186l16 11q70 -47 146 -87q73 44 152 87l14 -14q-69 -99 -113 -175zM657 270q0 -132 -86 -201t-225 -69h-297l-2 22l30 16q35 18 35 59v346q0 41 -35 59l-30 16l2 22h297q143 0 227 -68t84 -202zM341 490h-49v-440h49q130 0 131 220 t-131 220z" />
<glyph horiz-adv-x="697" d="M657 270q0 -132 -86 -201t-225 -69h-297l-2 22l30 16q35 18 35 59v156h-80v50h80v140q0 41 -35 59l-30 16l2 22h297q143 0 227 -68t84 -202zM393 253h-101v-203h49q130 0 131 220t-131 220h-49v-187h101v-50z" />
<glyph horiz-adv-x="697" d="M657 270q0 -132 -86 -201t-225 -69h-297l-2 22l30 16q35 18 35 59v346q0 41 -35 59l-30 16l2 22h297q143 0 227 -68t84 -202zM341 490h-49v-440h49q130 0 131 220t-131 220zM435 -152q0 -46 -31 -77t-77 -31q-39 0 -64.5 25t-25.5 61q0 43 33.5 74t79.5 31q36 0 60.5 -23 t24.5 -60z" />
<glyph horiz-adv-x="582" d="M292 287l153 9l-2 -65l-151 8v-189h73q15 0 49 2q27 40 47 82l38 79h28q15 -56 15 -118q0 -33 -8 -95h-485l-2 22l30 16q35 18 35 59v346q0 41 -35 59l-30 16l2 22h476q8 -36 8 -88q0 -68 -14 -124h-28l-39 78q-28 56 -46 82q-34 2 -49 2h-65v-203z" />
<glyph horiz-adv-x="582" d="M455 751q0 -40 -66.5 -81.5t-171.5 -67.5l-11 16q67 95 109 181l11 8q11 1 34 1q95 0 95 -57zM292 287l153 9l-2 -65l-151 8v-189h73q15 0 49 2q27 40 47 82l38 79h28q15 -56 15 -118q0 -33 -8 -95h-485l-2 22l30 16q35 18 35 59v346q0 41 -35 59l-30 16l2 22h476 q8 -36 8 -88q0 -68 -14 -124h-28l-39 78q-28 56 -46 82q-34 2 -49 2h-65v-203z" />
<glyph horiz-adv-x="582" d="M439 794l5 2l19 -4q-5 -79 -47 -127t-106 -48t-103 48.5t-40 127.5l23 4q8 -33 41.5 -52.5t84.5 -19.5q47 0 80 18.5t43 50.5zM292 287l153 9l-2 -65l-151 8v-189h73q15 0 49 2q27 40 47 82l38 79h28q15 -56 15 -118q0 -33 -8 -95h-485l-2 22l30 16q35 18 35 59v346 q0 41 -35 59l-30 16l2 22h476q8 -36 8 -88q0 -68 -14 -124h-28l-39 78q-28 56 -46 82q-34 2 -49 2h-65v-203z" />
<glyph horiz-adv-x="582" d="M365 615l-11 -8h-95q-68 100 -109 186l16 11q70 -47 146 -87q73 44 152 87l14 -14q-69 -99 -113 -175zM292 287l153 9l-2 -65l-151 8v-189h73q15 0 49 2q27 40 47 82l38 79h28q15 -56 15 -118q0 -33 -8 -95h-485l-2 22l30 16q35 18 35 59v346q0 41 -35 59l-30 16l2 22 h476q8 -36 8 -88q0 -68 -14 -124h-28l-39 78q-28 56 -46 82q-34 2 -49 2h-65v-203z" />
<glyph horiz-adv-x="582" d="M477 617l-16 -11q-70 47 -146 87q-72 -43 -152 -87l-14 14q69 99 113 175l11 8h95q68 -100 109 -186zM292 287l153 9l-2 -65l-151 8v-189h73q15 0 49 2q27 40 47 82l38 79h28q15 -56 15 -118q0 -33 -8 -95h-485l-2 22l30 16q35 18 35 59v346q0 41 -35 59l-30 16l2 22h476 q8 -36 8 -88q0 -68 -14 -124h-28l-39 78q-28 56 -46 82q-34 2 -49 2h-65v-203z" />
<glyph horiz-adv-x="582" d="M524 717q0 -41 -28 -69t-69 -28q-34 0 -56 22.5t-22 54.5q0 40 29 68.5t70 28.5q32 0 54 -21.5t22 -55.5zM283 717q0 -41 -28 -69t-69 -28q-34 0 -56 22.5t-22 54.5q0 40 29 68.5t70 28.5q32 0 54 -21.5t22 -55.5zM292 287l153 9l-2 -65l-151 8v-189h73q15 0 49 2 q27 40 47 82l38 79h28q15 -56 15 -118q0 -33 -8 -95h-485l-2 22l30 16q35 18 35 59v346q0 41 -35 59l-30 16l2 22h476q8 -36 8 -88q0 -68 -14 -124h-28l-39 78q-28 56 -46 82q-34 2 -49 2h-65v-203z" />
<glyph horiz-adv-x="582" d="M412 718q0 -46 -31 -77t-77 -31q-39 0 -64.5 25t-25.5 61q0 43 33.5 74t79.5 31q36 0 60.5 -23t24.5 -60zM292 287l153 9l-2 -65l-151 8v-189h73q15 0 49 2q27 40 47 82l38 79h28q15 -56 15 -118q0 -33 -8 -95h-485l-2 22l30 16q35 18 35 59v346q0 41 -35 59l-30 16l2 22 h476q8 -36 8 -88q0 -68 -14 -124h-28l-39 78q-28 56 -46 82q-34 2 -49 2h-65v-203z" />
<glyph horiz-adv-x="582" d="M292 287l153 9l-2 -65l-151 8v-189h73q15 0 49 2q27 40 47 82l38 79h28q15 -56 15 -118q0 -33 -8 -95h-485l-2 22l30 16q35 18 35 59v346q0 41 -35 59l-30 16l2 22h476q8 -36 8 -88q0 -68 -14 -124h-28l-39 78q-28 56 -46 82q-34 2 -49 2h-65v-203zM417 -152 q0 -46 -31 -77t-77 -31q-39 0 -64.5 25t-25.5 61q0 43 33.5 74t79.5 31q36 0 60.5 -23t24.5 -60z" />
<glyph horiz-adv-x="582" d="M429 618l-11 -16q-105 26 -171.5 67.5t-66.5 81.5q0 57 95 57q23 0 34 -1l11 -8q42 -86 109 -181zM292 287l153 9l-2 -65l-151 8v-189h73q15 0 49 2q27 40 47 82l38 79h28q15 -56 15 -118q0 -33 -8 -95h-485l-2 22l30 16q35 18 35 59v346q0 41 -35 59l-30 16l2 22h476 q8 -36 8 -88q0 -68 -14 -124h-28l-39 78q-28 56 -46 82q-34 2 -49 2h-65v-203z" />
<glyph horiz-adv-x="582" d="M136 652v82h352v-82h-352zM292 287l153 9l-2 -65l-151 8v-189h73q15 0 49 2q27 40 47 82l38 79h28q15 -56 15 -118q0 -33 -8 -95h-485l-2 22l30 16q35 18 35 59v346q0 41 -35 59l-30 16l2 22h476q8 -36 8 -88q0 -68 -14 -124h-28l-39 78q-28 56 -46 82q-34 2 -49 2h-65 v-203z" />
<glyph horiz-adv-x="582" d="M292 287l153 9l-2 -65l-151 8v-189h73q15 0 49 2q27 40 47 82l38 79h28q15 -56 15 -118q0 -33 -8 -95q-55 -18 -87 -52.5t-32 -72.5q0 -22 12.5 -34.5t34.5 -12.5q23 0 44 4l4 -14q-41 -78 -129 -78q-47 0 -76.5 28t-29.5 73q0 58 48.5 98.5t139.5 60.5h-414l-2 22l30 16 q35 18 35 59v346q0 41 -35 59l-30 16l2 22h476q8 -36 8 -88q0 -68 -14 -124h-28l-39 78q-28 56 -46 82q-34 2 -49 2h-65v-203z" />
<glyph horiz-adv-x="582" d="M145 634l-20 6q-2 18 -2 27q0 55 28 93.5t81 38.5q32 0 66 -9t77.5 -26t58.5 -22l49 55l20 -6q2 -22 2 -35q0 -52 -28 -88t-81 -36q-32 0 -66 9t-77.5 26t-58.5 22zM292 287l153 9l-2 -65l-151 8v-189h73q15 0 49 2q27 40 47 82l38 79h28q15 -56 15 -118q0 -33 -8 -95 h-485l-2 22l30 16q35 18 35 59v346q0 41 -35 59l-30 16l2 22h476q8 -36 8 -88q0 -68 -14 -124h-28l-39 78q-28 56 -46 82q-34 2 -49 2h-65v-203z" />
<glyph horiz-adv-x="639" d="M306 -10q-111 0 -186 61t-75 160q0 36 1 47l15 15h360q-7 227 -115 227q-46 0 -73.5 -27t-27.5 -71q0 -16 4 -31q-40 -20 -81 -20q-35 0 -56.5 14t-21.5 39q0 52 80.5 99t180.5 47q134 0 215 -73.5t81 -196.5q0 -129 -86.5 -209.5t-214.5 -80.5zM225 183q0 -79 20.5 -111 t67.5 -32q54 0 81.5 52.5t27.5 137.5v3l-196 -8q-1 -11 -1 -42z" />
<glyph horiz-adv-x="544" d="M292 55l85 -33l-2 -22h-326l-2 22l30 16q35 19 35 59v346q0 41 -35 59l-30 16l2 22h471q8 -36 8 -88q0 -68 -14 -124h-28l-39 78q-28 56 -46 82q-34 2 -49 2h-60v-203l148 9l-2 -65l-146 8v-184z" />
<glyph horiz-adv-x="660" d="M379 -10q-99 0 -173 26t-120 88t-46 156q0 136 100 213t244 77q106 0 190 -27q5 -43 5 -67q0 -60 -16 -134l-28 -2q-62 109 -110 173q-18 2 -27 2q-74 0 -124 -63.5t-50 -169.5q0 -103 47.5 -160t120.5 -57q10 0 26 2v145l-62 36l2 22h270l2 -22l-21 -12q-21 -12 -21 -57 v-141q-88 -28 -209 -28z" />
<glyph horiz-adv-x="660" d="M518 751q0 -40 -66.5 -81.5t-171.5 -67.5l-11 16q67 95 109 181l11 8q11 1 34 1q95 0 95 -57zM379 -10q-99 0 -173 26t-120 88t-46 156q0 136 100 213t244 77q106 0 190 -27q5 -43 5 -67q0 -60 -16 -134l-28 -2q-62 109 -110 173q-18 2 -27 2q-74 0 -124 -63.5 t-50 -169.5q0 -103 47.5 -160t120.5 -57q10 0 26 2v145l-62 36l2 22h270l2 -22l-21 -12q-21 -12 -21 -57v-141q-88 -28 -209 -28z" />
<glyph horiz-adv-x="660" d="M502 794l5 2l19 -4q-5 -79 -47 -127t-106 -48t-103 48.5t-40 127.5l23 4q8 -33 41.5 -52.5t84.5 -19.5q47 0 80 18.5t43 50.5zM379 -10q-99 0 -173 26t-120 88t-46 156q0 136 100 213t244 77q106 0 190 -27q5 -43 5 -67q0 -60 -16 -134l-28 -2q-62 109 -110 173 q-18 2 -27 2q-74 0 -124 -63.5t-50 -169.5q0 -103 47.5 -160t120.5 -57q10 0 26 2v145l-62 36l2 22h270l2 -22l-21 -12q-21 -12 -21 -57v-141q-88 -28 -209 -28z" />
<glyph horiz-adv-x="660" d="M428 615l-11 -8h-95q-68 100 -109 186l16 11q70 -47 146 -87q72 44 152 87l14 -14q-69 -99 -113 -175zM379 -10q-99 0 -173 26t-120 88t-46 156q0 136 100 213t244 77q106 0 190 -27q5 -43 5 -67q0 -60 -16 -134l-28 -2q-62 109 -110 173q-18 2 -27 2q-74 0 -124 -63.5 t-50 -169.5q0 -103 47.5 -160t120.5 -57q10 0 26 2v145l-62 36l2 22h270l2 -22l-21 -12q-21 -12 -21 -57v-141q-88 -28 -209 -28z" />
<glyph horiz-adv-x="660" d="M535 617l-16 -11q-70 47 -146 87q-73 -43 -152 -87l-14 14q69 99 113 175l11 8h95q68 -100 109 -186zM379 -10q-99 0 -173 26t-120 88t-46 156q0 136 100 213t244 77q106 0 190 -27q5 -43 5 -67q0 -60 -16 -134l-28 -2q-62 109 -110 173q-18 2 -27 2q-74 0 -124 -63.5 t-50 -169.5q0 -103 47.5 -160t120.5 -57q10 0 26 2v145l-62 36l2 22h270l2 -22l-21 -12q-21 -12 -21 -57v-141q-88 -28 -209 -28z" />
<glyph horiz-adv-x="660" d="M379 -10q-99 0 -173 26t-120 88t-46 156q0 136 100 213t244 77q106 0 190 -27q5 -43 5 -67q0 -60 -16 -134l-28 -2q-62 109 -110 173q-18 2 -27 2q-74 0 -124 -63.5t-50 -169.5q0 -103 47.5 -160t120.5 -57q10 0 26 2v145l-62 36l2 22h270l2 -22l-21 -12q-21 -12 -21 -57 v-141q-88 -28 -209 -28zM437 -160q0 -61 -45 -118.5t-99 -78.5l-12 11q36 50 48 112q-29 6 -46.5 26.5t-17.5 48.5q0 39 24.5 64.5t60.5 25.5q40 0 63.5 -24.5t23.5 -66.5z" />
<glyph horiz-adv-x="660" d="M475 718q0 -46 -31 -77t-77 -31q-39 0 -64.5 25t-25.5 61q0 43 33.5 74t79.5 31q36 0 60.5 -23t24.5 -60zM379 -10q-99 0 -173 26t-120 88t-46 156q0 136 100 213t244 77q106 0 190 -27q5 -43 5 -67q0 -60 -16 -134l-28 -2q-62 109 -110 173q-18 2 -27 2 q-74 0 -124 -63.5t-50 -169.5q0 -103 47.5 -160t120.5 -57q10 0 26 2v145l-62 36l2 22h270l2 -22l-21 -12q-21 -12 -21 -57v-141q-88 -28 -209 -28z" />
<glyph horiz-adv-x="768" d="M292 55l65 -33l-2 -22h-306l-2 22l30 16q35 19 35 59v388l-65 33l2 22h306l2 -22l-30 -16q-35 -19 -35 -59v-148h184v190l-65 33l2 22h306l2 -22l-30 -16q-35 -19 -35 -59v-388l65 -33l-2 -22h-306l-2 22l30 16q35 19 35 59v144h-184v-186z" />
<glyph horiz-adv-x="768" d="M292 55l65 -33l-2 -22h-306l-2 22l30 16q35 19 35 59v277h-66v50h66v61l-65 33l2 22h306l2 -22l-30 -16q-35 -19 -35 -59v-19h184v61l-65 33l2 22h306l2 -22l-30 -16q-35 -19 -35 -59v-19h65v-50h-65v-319l65 -33l-2 -22h-306l-2 22l30 16q35 19 35 59v144h-184v-186z M292 295h184v79h-184v-79z" />
<glyph horiz-adv-x="768" d="M549 617l-16 -11q-70 47 -146 87q-73 -43 -152 -87l-14 14q69 99 113 175l11 8h95q68 -100 109 -186zM292 55l65 -33l-2 -22h-306l-2 22l30 16q35 19 35 59v388l-65 33l2 22h306l2 -22l-30 -16q-35 -19 -35 -59v-148h184v190l-65 33l2 22h306l2 -22l-30 -16 q-35 -19 -35 -59v-388l65 -33l-2 -22h-306l-2 22l30 16q35 19 35 59v144h-184v-186z" />
<glyph horiz-adv-x="768" d="M292 55l65 -33l-2 -22h-306l-2 22l30 16q35 19 35 59v388l-65 33l2 22h306l2 -22l-30 -16q-35 -19 -35 -59v-148h184v190l-65 33l2 22h306l2 -22l-30 -16q-35 -19 -35 -59v-388l65 -33l-2 -22h-306l-2 22l30 16q35 19 35 59v144h-184v-186zM478 -152q0 -46 -31 -77 t-77 -31q-39 0 -64.5 25t-25.5 61q0 43 33.5 74t79.5 31q36 0 60.5 -23t24.5 -60z" />
<glyph horiz-adv-x="404" d="M292 55l65 -33l-2 -22h-306l-2 22l30 16q35 19 35 59v388l-65 33l2 22h306l2 -22l-30 -16q-35 -19 -35 -59v-388z" />
<glyph horiz-adv-x="404" d="M292 55l65 -33l-2 -22h-306l-2 22l30 16q35 19 35 59v388l-65 33l2 22h306l2 -22l-30 -16q-35 -19 -35 -59v-388z" />
<glyph horiz-adv-x="404" d="M345 746q0 -40 -66.5 -81.5t-171.5 -67.5l-11 16q67 95 109 181l11 8q11 1 34 1q95 0 95 -57zM292 55l65 -33l-2 -22h-306l-2 22l30 16q35 19 35 59v388l-65 33l2 22h306l2 -22l-30 -16q-35 -19 -35 -59v-388z" />
<glyph horiz-adv-x="404" d="M341 778q-8 -80 -46 -124.5t-96 -44.5q-55 0 -88.5 45.5t-37.5 125.5l23 5q7 -30 36 -48t73 -18q43 0 73 17t39 46l5 2zM292 55l65 -33l-2 -22h-306l-2 22l30 16q35 19 35 59v388l-65 33l2 22h306l2 -22l-30 -16q-35 -19 -35 -59v-388z" />
<glyph horiz-adv-x="404" d="M259 598l-11 -8h-95q-42 100 -69 192l16 11q62 -50 106 -80q17 13 112 80l14 -14q-44 -101 -73 -181zM292 55l65 -33l-2 -22h-306l-2 22l30 16q35 19 35 59v388l-65 33l2 22h306l2 -22l-30 -16q-35 -19 -35 -59v-388z" />
<glyph horiz-adv-x="404" d="M329 600l-16 -11q-62 50 -106 80q-17 -13 -112 -80l-14 14q44 101 73 181l11 8h95q42 -100 69 -192zM292 55l65 -33l-2 -22h-306l-2 22l30 16q35 19 35 59v388l-65 33l2 22h306l2 -22l-30 -16q-35 -19 -35 -59v-388z" />
<glyph horiz-adv-x="404" d="M376 704q0 -42 -23.5 -69.5t-60.5 -27.5q-29 0 -47 22.5t-18 54.5q0 40 25 68.5t61 28.5q27 0 45 -21.5t18 -55.5zM177 704q0 -42 -23.5 -69.5t-60.5 -27.5q-29 0 -47 22.5t-18 54.5q0 40 25 68.5t61 28.5q27 0 45 -21.5t18 -55.5zM292 55l65 -33l-2 -22h-306l-2 22 l30 16q35 19 35 59v388l-65 33l2 22h306l2 -22l-30 -16q-35 -19 -35 -59v-388z" />
<glyph horiz-adv-x="404" d="M307 713q0 -46 -31 -77t-77 -31q-39 0 -64.5 25t-25.5 61q0 43 33.5 74t79.5 31q36 0 60.5 -23t24.5 -60zM292 55l65 -33l-2 -22h-306l-2 22l30 16q35 19 35 59v388l-65 33l2 22h306l2 -22l-30 -16q-35 -19 -35 -59v-388z" />
<glyph horiz-adv-x="404" d="M292 55l65 -33l-2 -22h-306l-2 22l30 16q35 19 35 59v388l-65 33l2 22h306l2 -22l-30 -16q-35 -19 -35 -59v-388zM291 -152q0 -46 -31 -77t-77 -31q-39 0 -64.5 25t-25.5 61q0 43 33.5 74t79.5 31q36 0 60.5 -23t24.5 -60z" />
</font>
</defs>
</svg>
