<?xml version="1.0" standalone="no"?>
<!DOCTYPE svg PUBLIC "-//W3C//DTD SVG 1.1//EN" "http://www.w3.org/Graphics/SVG/1.1/DTD/svg11.dtd" >
<svg xmlns="http://www.w3.org/2000/svg" xmlns:xlink="http://www.w3.org/1999/xlink" version="1.1">
<metadata></metadata>
<defs>
<font id="indivisa_display_sansitalic" horiz-adv-x="495" >
<font-face units-per-em="1000" ascent="815" descent="-185" />
<missing-glyph horiz-adv-x="191" />
<glyph unicode="&#x2f;symbol&#x33;&#x2f;" horiz-adv-x="957" d="M505 638l68 -270h270l-203 -135l136 -270l-271 135l-270 -270l135 405l-270 203l338 -68zM814 87q18 0 30.5 -12.5t12.5 -31.5q0 -18 -12.5 -30.5t-30.5 -12.5t-30.5 12.5t-12.5 30.5q0 19 12.5 31.5t30.5 12.5zM854 43q0 17 -11.5 29t-28.5 12t-28.5 -12t-11.5 -29 t12 -28.5t28 -11.5t28 11.5t12 28.5zM796 68h18q8 0 11 -2q6 -3 6 -10q0 -5 -4 -9q-3 -3 -6 -3q7 -3 8 -10q2 -14 3 -16h-7q-1 2 -2 7.5t-1 6.5q0 9 -10 9h-9v-23h-7v50zM803 47h10q5 0 7 1q3 3 3 6q0 9 -10 9h-10v-16z" />
<glyph unicode="&#x2f;symbol&#x32;&#x2f;" horiz-adv-x="932" d="M494 570l52 -90l-137 -240h-103l137 240l-52 90h103zM357 570l52 -90l-138 -240h-103l138 240l-52 90h103zM752 120h-103l-137 240l51 90l137 -240h103zM683 0h-103l-137 240l51 90l138 -240h103zM100 120l51 90h275l51 -90h-274l-52 -90zM168 0l52 90h274l52 -90h-275 l-51 -90zM789 88q18 0 30.5 -13t12.5 -31t-12.5 -31t-30.5 -13t-30.5 13t-12.5 31t12.5 31t30.5 13zM829 44q0 16 -11.5 28t-28.5 12t-28.5 -12t-11.5 -28t11.5 -28t28.5 -12t28.5 12t11.5 28zM771 69h18q7 0 11 -2q5 -4 5 -11q0 -5 -3 -8q-1 -2 -6 -4q7 -1 8 -9q0 -8 3 -16 h-8q-1 2 -1.5 6.5t-0.5 6.5q-1 10 -11 10h-8v-23h-7v50zM778 47h10q5 0 7 1q3 3 3 7q0 8 -10 8h-10v-16z" />
<glyph unicode="&#x2f;symbol&#x31;&#x2f;" horiz-adv-x="5534" d="M1865 412q-25 0 -40.5 14.5t-15.5 37.5q0 35 32.5 64t70.5 29q24 0 39 -13.5t15 -37.5q0 -36 -31 -65t-70 -29zM1284 412q-26 0 -41.5 14.5t-15.5 37.5q0 35 33 64t71 29q24 0 38.5 -13.5t14.5 -37.5q0 -36 -31 -65t-69 -29zM959 0q0 42 11 108q-16 -50 -51.5 -82.5 t-78.5 -32.5q-41 0 -63 29.5t-22 82.5q0 62 27 121t84 101t132 42q17 0 25 -1l16 73l6 102l136 7q0 -67 -46 -273t-46 -277h-130zM100 0l78 364q17 86 21 136l128 7l11 -15l-104 -492h-134zM3503 492l-57 -492h-131l20 175q5 50 33 215h-3q-31 -102 -81 -215l-76 -175h-149 l-2 175q-2 121 9 215h-2q-32 -130 -59 -215l-53 -175h-109l154 500l184 6l1 -137q2 -134 -15 -259h2q39 126 94 259l56 131l169 7zM5316 300q-37 -177 -37 -183q0 -34 36 -34q25 0 59 18l-9 -79q-52 -29 -114 -29q-105 0 -105 100q0 20 40 210l-47 1l9 44l54 14l53 95l81 6 l13 -15l-20 -86h99l6 -14l-17 -51zM336 0q0 79 41 260l6 102l137 7q0 -31 -7 -89h2q52 89 134 89q34 0 53 -19.5t19 -51.5q0 -27 -26 -147q-18 -85 -18 -151h-131q0 55 19 150q15 78 15 87q0 24 -17 24q-34 0 -64 -82.5t-32 -178.5h-131zM1170 0q0 72 27 193l14 67l6 102 l137 7q0 -46 -27 -177t-27 -192h-130zM1399 362l140 7q13 -129 -5 -289h2q76 151 91 284q22 5 50 5q32 0 48.5 -8.5t16.5 -33.5q0 -46 -51 -147.5t-116 -179.5h-149q-5 228 -27 362zM1752 0q0 69 26 193l15 67l6 102l137 7q0 -46 -27 -177t-27 -192h-130zM4716 0 q0 79 41 260l6 102l137 7q0 -12 -7 -89h2q52 89 134 89q34 0 53 -19.5t19 -51.5q0 -27 -26 -147q-19 -90 -19 -151h-130q0 55 19 150q15 78 15 87q0 24 -17 24q-35 0 -65 -82t-32 -179h-130zM2245 256q-52 30 -97 30q-18 0 -30 -7t-12 -19q0 -14 20 -26.5t44 -22t44 -33 t20 -56.5q0 -57 -53 -93t-128 -36q-78 0 -118 28l27 93q57 -38 111 -38q19 0 29.5 7.5t10.5 18.5q0 13 -20 26t-44 23t-44 33t-20 55q0 56 54.5 93t128.5 37q58 0 104 -18zM2525 369q88 0 146 -32l-29 -128q-31 -145 -31 -209h-130q0 37 12 112q-15 -52 -51 -85.5t-81 -33.5 q-41 0 -62.5 29.5t-21.5 83.5q0 62 26.5 120.5t85 100.5t136.5 42zM4653 51q-67 -58 -159 -58q-65 0 -103.5 35t-38.5 102q0 94 68.5 166.5t167.5 72.5q54 0 86.5 -23.5t32.5 -64.5q0 -57 -60 -96.5t-161 -43.5v-1q0 -64 63 -64q42 0 90 28zM3936 0q0 74 42 260l5 102l137 7 q0 -31 -7 -89h2q53 89 134 89q34 0 53 -19.5t19 -51.5q0 -27 -26 -147q-18 -85 -18 -151h-131q0 55 19 150q15 71 15 87q0 24 -17 24q-34 0 -64 -82.5t-32 -178.5h-131zM3768 369q87 0 145 -32l-28 -128q-31 -145 -31 -209h-130q0 45 12 112q-15 -52 -51 -85.5t-81 -33.5 q-41 0 -63 29.5t-22 83.5q0 46 16 91.5t46 84t79 63t108 24.5zM4490 177q47 10 73 34t26 59q0 31 -22 31q-28 0 -48.5 -38.5t-28.5 -85.5zM3677 101q23 0 47 43t38 101q1 8 4.5 24.5t4.5 19.5q-16 8 -27 8q-34 0 -62.5 -54.5t-28.5 -101.5q0 -40 24 -40zM913 101 q22 0 44.5 39.5t37.5 94.5q1 9 8 40l3 14q-14 8 -27 8q-33 0 -61.5 -54.5t-28.5 -101.5q0 -40 24 -40zM2435 101q23 0 47 43.5t37 100.5q3 14 9 44q-14 8 -27 8q-34 0 -62 -54.5t-28 -101.5q0 -40 24 -40z" />
<glyph unicode="&#x2f;symbol&#x35;&#x2f;" horiz-adv-x="705" d="M232 -6l-132 136l124 234l129 -136zM474 -6l-121 234l128 136l124 -234z" />
<glyph unicode="&#x2f;symbol&#x34;&#x2f;" horiz-adv-x="2607" d="M1684 406q0 65 -11 128l126 14l15 -15v-533h-130v406zM1889 406q0 62 -10 128l126 14l14 -15v-533h-130v406zM427 101v-101h-320v362q0 80 -7 135l126 7l14 -14v-396zM925 21l7 109q62 -36 144 -36q50 0 50 36q0 20 -31.5 41.5t-69 40.5t-69 57t-31.5 88q0 69 55 108 t138 39q80 0 127 -18l-14 -111q-56 29 -111 29q-27 0 -42.5 -11t-15.5 -29q0 -20 20.5 -38t50 -34t59.5 -35t50.5 -51t20.5 -72q0 -66 -53.5 -103.5t-139.5 -37.5q-41 0 -83.5 8t-61.5 20zM795 0l-106 -7q-11 16 -21 49h-4q-34 -49 -104 -49q-43 0 -70 23t-27 66 q0 113 191 118v20q0 54 -58 54q-55 0 -108 -29l-8 97q72 26 150 26q154 0 154 -135q0 -25 -2 -69t-2 -70q0 -51 15 -94zM1626 0l-107 -7q-12 20 -21 49h-3q-34 -49 -105 -49q-43 0 -69.5 23t-26.5 66q0 113 191 118v20q0 54 -58 54q-54 0 -109 -29l-7 97q72 26 150 26 q153 0 153 -135q0 -25 -1.5 -69.5t-1.5 -69.5q0 -51 15 -94zM2405 213q0 -24 -1 -36l-11 -11h-191q14 -83 98 -83q44 0 84 21l7 -81q-46 -30 -127 -30q-90 0 -144 47.5t-54 134.5q0 85 52 139t132 54q72 0 113.5 -43t41.5 -112zM2199 207l78 4q2 14 2 26q0 59 -34 59 q-44 0 -46 -89zM654 74v88q-29 -3 -47 -18t-18 -39q0 -18 10 -29t27 -11q16 0 28 9zM1485 74v88q-29 -3 -47 -18t-18 -39q0 -18 10 -29t27 -11q16 0 28 9zM2464 85q18 0 30.5 -13t12.5 -31t-12.5 -31t-30.5 -13t-31 13t-13 31t13 31t31 13zM2504 41q0 17 -12 28.5t-28 11.5 t-28 -11.5t-12 -28.5t12 -28.5t28 -11.5t28 11.5t12 28.5zM2446 66h18q7 0 11 -3q5 -3 5 -10q0 -5 -3 -9q-3 -3 -6 -3q7 -1 8 -10q0 -7 3 -15h-8q-1 2 -1.5 6.5t-0.5 6.5q-1 9 -11 9h-8v-22h-7v50zM2453 44h10q5 0 7 1q3 3 3 7q0 8 -10 8h-10v-16z" />
<glyph unicode=" "  horiz-adv-x="191" />
<glyph unicode="&#x09;" horiz-adv-x="191" />
<glyph unicode="&#xa0;" horiz-adv-x="191" />
<glyph unicode="!" horiz-adv-x="283" d="M165 164h-81q66 355 84 504l126 10q-9 -54 -26 -134q-40 -188 -103 -380zM161 58q0 -30 -26.5 -55.5t-60.5 -25.5q-48 0 -48 42q0 31 26.5 56.5t61.5 25.5q21 0 34 -11t13 -32z" />
<glyph unicode="&#x22;" horiz-adv-x="374" d="M239 695l-85 -275h-38l32 275h91zM417 695l-86 -275h-38l32 275h92z" />
<glyph unicode="#" horiz-adv-x="685" d="M535 179h-127l-83 -189l-54 8l-4 7l76 174h-133l-83 -189l-53 8l-4 7l76 174h-115l-5 5l19 52h127l79 179h-125l-4 5l18 52h136l83 188l53 -8l4 -6l-76 -174h133l83 188l54 -8l4 -6l-77 -174h107l5 -5l-19 -52h-118l-79 -179h116l4 -5zM235 236h134l79 179h-134z" />
<glyph unicode="$" horiz-adv-x="472" d="M124 -123l23 113q-91 4 -149 28l41 111q63 -57 136 -57q47 0 77 27.5t30 67.5q0 27 -19 52t-46 46.5t-53.5 46t-45.5 60t-19 78.5q0 77 56.5 133.5t147.5 71.5l25 115l48 3l-24 -113h9q74 0 131 -22l-42 -106q-54 46 -117 46q-46 0 -76.5 -28.5t-30.5 -68.5q0 -28 19 -54 t46 -48t53.5 -46.5t45.5 -60t19 -77.5q0 -81 -61 -136t-152 -67l-24 -112z" />
<glyph unicode="%" horiz-adv-x="933" d="M255 -10h-70l514 670h71zM426 524q0 -90 -59 -163.5t-152 -73.5q-59 0 -90 33t-31 96q0 90 59.5 164.5t151.5 74.5q58 0 89.5 -34t31.5 -97zM184 400q0 -67 45 -67q46 0 76.5 71t30.5 139q0 66 -45 66q-46 0 -76.5 -71.5t-30.5 -137.5zM871 232q0 -90 -59 -163.5 t-152 -73.5q-59 0 -90 33t-31 96q0 90 59.5 164.5t151.5 74.5q58 0 89.5 -34t31.5 -97zM629 108q0 -67 45 -67q46 0 76.5 71t30.5 139q0 66 -45 66q-46 0 -76.5 -71.5t-30.5 -137.5z" />
<glyph unicode="&#x26;" horiz-adv-x="738" d="M653 77q0 -36 -22.5 -59t-60.5 -28l-7 7q11 17 11 40q0 45 -86 100q-125 -147 -291 -147q-86 0 -132 40t-47 102q0 66 50 124t128 85q-40 54 -40 120q0 91 71.5 145t172.5 54q68 0 109.5 -26.5t41.5 -71.5q0 -36 -29.5 -64.5t-73.5 -41.5q155 0 272 9q0 -37 -14 -91 q-59 4 -102 11q-12 -83 -57 -163q106 -74 106 -145zM279 486q0 -16 4 -31t8.5 -27.5t16 -27t18.5 -23.5t24.5 -23.5t26 -21t30 -21t29.5 -19.5t32.5 -20t30.5 -19q23 64 28 146q-65 15 -109 33l-2 16q29 47 29 83q0 27 -16 44.5t-48 17.5q-42 0 -72 -28.5t-30 -78.5z M142 166q0 -52 34 -83t92 -31q109 0 184 106q-12 7 -46.5 26t-53 30t-46 28.5t-49 35t-38.5 36.5q-35 -29 -56 -68.5t-21 -79.5z" />
<glyph unicode="'" horiz-adv-x="197" d="M239 695l-85 -275h-38l32 275h91z" />
<glyph unicode="(" horiz-adv-x="345" d="M54 176q0 155 91.5 297.5t235.5 221.5l23 -48q-105 -91 -165.5 -222.5t-60.5 -265.5q0 -140 72 -239l-44 -48q-74 52 -113 131t-39 173z" />
<glyph unicode=")" horiz-adv-x="344" d="M305 392q0 -156 -91.5 -298.5t-236.5 -221.5l-22 48q105 91 165.5 223t60.5 266q0 139 -72 238l44 48q74 -52 113 -131t39 -172z" />
<glyph unicode="*" horiz-adv-x="402" d="M213 430l38 112l-97 -69l-16 47l108 42l-90 44l36 46l68 -69l10 112h52l-40 -113l99 70l16 -46l-108 -44l90 -42l-36 -47l-69 70l-9 -113h-52z" />
<glyph unicode="+" horiz-adv-x="561" d="M477 284h-146l-35 -163h-85l33 163h-147l16 78q72 2 148 2l35 166h87l-35 -165q57 1 148 1z" />
<glyph unicode="," horiz-adv-x="243" d="M131 64q0 -49 -50 -117t-112 -106l-16 23q63 62 93 127q-34 9 -34 44q0 30 22.5 53t52.5 23q44 0 44 -47z" />
<glyph unicode="-" horiz-adv-x="332" d="M31 259l4 43h276l-4 -43h-276z" />
<glyph unicode="." horiz-adv-x="256" d="M70 -10q-20 0 -32 12.5t-12 32.5q0 29 23.5 52.5t53.5 23.5q20 0 32 -10.5t12 -29.5q0 -30 -23 -55.5t-54 -25.5z" />
<glyph unicode="/" horiz-adv-x="379" d="M313 699l65 -17l-310 -699l-66 18z" />
<glyph unicode="0" horiz-adv-x="600" d="M576 442q0 -77 -24.5 -156.5t-67 -145.5t-108 -108t-140.5 -42q-85 0 -133 54t-48 162q0 77 25 157t68 146.5t108.5 108.5t139.5 42q86 0 133 -55.5t47 -162.5zM181 189q0 -132 78 -132q55 0 100.5 71.5t68 164t22.5 171.5q0 129 -76 129q-56 0 -102 -72t-68.5 -163.5 t-22.5 -168.5z" />
<glyph unicode="1" horiz-adv-x="371" d="M196 0h-118l122 574l-111 -49l-3 59l242 76l7 -6z" />
<glyph unicode="2" horiz-adv-x="513" d="M384 0h-385l5 67q360 287 360 431q0 39 -23.5 61t-66.5 22q-74 0 -158 -62l6 86q100 55 207 55q77 0 120.5 -35.5t43.5 -99.5q0 -187 -407 -431h130q99 0 200 14z" />
<glyph unicode="3" horiz-adv-x="476" d="M407 203q0 -93 -83 -153t-200 -60q-80 0 -142 24l26 70q50 -26 109 -26q70 0 117 43t47 100q0 48 -34 69.5t-84 21.5q-33 0 -59 -6l10 45q92 26 155.5 75t63.5 107q0 32 -22.5 50t-62.5 18q-61 0 -138 -42l10 74q86 47 186 47q73 0 113 -30.5t40 -85.5q0 -71 -64 -124 t-161 -81q173 -10 173 -136z" />
<glyph unicode="4" horiz-adv-x="562" d="M359 0h-118l28 131h-260l4 50l402 479l82 -10l-91 -426q50 3 90 10l-31 -103h-78zM356 540l-269 -321h188h13z" />
<glyph unicode="5" horiz-adv-x="506" d="M445 234q0 -105 -85 -174.5t-214 -69.5q-78 0 -141 24l25 67q55 -24 117 -24q76 0 124 50t48 117q0 49 -28 73t-74 24q-53 0 -110 -21l-9 9l73 341h192q89 0 162 10l-30 -103h-281l-42 -199q64 20 119 20q74 0 114 -37t40 -107z" />
<glyph unicode="6" horiz-adv-x="535" d="M500 249q0 -102 -78 -180.5t-191 -78.5q-84 0 -132.5 49.5t-48.5 150.5q0 111 53.5 219t150 179.5t208.5 71.5q61 0 85 -12l-26 -68q-26 13 -67 13q-75 0 -145 -71t-109 -215q33 39 78.5 60t90.5 21q61 0 96 -37t35 -102zM176 158q0 -101 70 -101q56 0 93 57.5t37 127.5 q0 90 -67 90q-28 0 -60.5 -17t-57.5 -48q-15 -59 -15 -109z" />
<glyph unicode="7" horiz-adv-x="490" d="M177 0h-132q40 150 150.5 306.5t240.5 250.5h-136q-102 0 -200 -15l32 108h389l7 -7l-9 -56q-118 -120 -210.5 -275t-131.5 -312z" />
<glyph unicode="8" horiz-adv-x="559" d="M28 119q0 63 56 116t140 78q-102 70 -102 158q0 79 74.5 134t176.5 55q76 0 122 -34t46 -91q0 -62 -50.5 -113t-128.5 -77q60 -33 93 -76t33 -91q0 -78 -79.5 -133t-191.5 -55q-87 0 -138 35.5t-51 93.5zM240 492q0 -65 76 -120q48 29 78 69.5t30 82.5q0 34 -20.5 54 t-53.5 20q-43 0 -76.5 -30.5t-33.5 -75.5zM148 134q0 -36 25.5 -59t69.5 -23q51 0 88.5 30.5t37.5 77.5q0 36 -25 65t-75 61q-53 -29 -87 -69.5t-34 -82.5z" />
<glyph unicode="9" horiz-adv-x="536" d="M518 460q0 -112 -53 -219.5t-151 -179t-213 -71.5q-54 0 -76 12l25 68q30 -13 67 -13q73 0 142 66t106 198q-34 -38 -78 -58.5t-87 -20.5q-59 0 -95.5 39t-36.5 110q0 107 79.5 188t191.5 81q82 0 130.5 -50t48.5 -150zM191 394q0 -95 70 -95q65 0 115 66q16 62 16 120 q0 108 -69 108q-56 0 -94 -64t-38 -135z" />
<glyph unicode=":" horiz-adv-x="257" d="M149 360q-20 0 -32 12.5t-12 32.5q0 29 23.5 52.5t53.5 23.5q20 0 32 -10.5t12 -29.5q0 -30 -23 -55.5t-54 -25.5zM71 -10q-20 0 -32.5 12.5t-12.5 32.5q0 29 24 52.5t54 23.5q43 0 43 -40q0 -30 -23 -55.5t-53 -25.5z" />
<glyph unicode=";" horiz-adv-x="264" d="M155 360q-20 0 -32.5 12.5t-12.5 32.5q0 29 24 52.5t54 23.5q43 0 43 -40q0 -30 -23 -55.5t-53 -25.5zM146 64q0 -49 -50 -117t-112 -106l-16 23q63 62 93 127q-34 9 -34 44q0 30 22.5 53t52.5 23q44 0 44 -47z" />
<glyph unicode="&#x3c;" horiz-adv-x="560" d="M532 541l-20 -95l-302 -123l250 -119l-21 -95q-181 87 -340 180l14 70z" />
<glyph unicode="=" horiz-adv-x="563" d="M500 388h-380l17 78q116 4 382 4zM456 180h-380l16 78q116 4 383 4z" />
<glyph unicode="&#x3e;" horiz-adv-x="560" d="M61 109l20 95l301 123l-249 119l21 95q169 -81 340 -180l-15 -70z" />
<glyph unicode="?" horiz-adv-x="490" d="M243 168h-81q-6 32 3 67q7 32 28.5 63t47.5 56t52 49t46.5 51t25.5 53q8 38 -12.5 60t-55.5 22q-74 0 -151 -66l-32 67q110 88 222 88q81 0 123.5 -47.5t26.5 -123.5q-9 -43 -35 -79t-56.5 -61.5t-61 -48.5t-54 -50.5t-28.5 -57.5q0 -1 -3 -18t-5 -24zM237 57 q0 -30 -26.5 -55.5t-60.5 -25.5q-22 0 -35 11t-13 31q0 30 27 56t61 26q21 0 34 -11t13 -32z" />
<glyph unicode="@" horiz-adv-x="1100" d="M751 -124q-117 -71 -267 -71q-177 0 -286.5 104.5t-109.5 270.5q0 103 45.5 199t120.5 165t175.5 110t206.5 41q169 0 275.5 -97.5t106.5 -251.5q0 -86 -32.5 -167t-93.5 -135t-134 -54q-79 0 -115 58t-19 135h-3q-29 -74 -85 -133.5t-124 -59.5q-57 0 -90.5 42.5 t-33.5 113.5q0 62 26.5 127t71 117.5t110.5 86t139 33.5q90 0 158 -29l-51 -226q-48 -217 50 -217q47 0 91 44t70.5 115t26.5 146q0 142 -96.5 230.5t-248.5 88.5q-94 0 -186 -36.5t-163 -98.5t-115 -151.5t-44 -188.5q0 -155 100 -252t264 -97q119 0 245 64zM462 77 q38 0 78 50t66.5 113t40.5 122l16 71q-30 10 -51 10q-51 0 -98.5 -44t-75 -109t-27.5 -128q0 -85 51 -85z" />
<glyph unicode="A" horiz-adv-x="574" d="M84 0h-112l266 526l60 125l155 9l43 -660h-117l-7 154h-216zM352 566l-165 -347h182l-16 347h-1z" />
<glyph unicode="B" horiz-adv-x="578" d="M246 0h-200l112 528l17 122h203q84 0 127.5 -35t43.5 -97q0 -59 -36 -109t-94 -74q93 -27 93 -121q0 -90 -75 -152t-191 -62zM331 582h-43l-47 -219h53q62 0 100.5 40t38.5 95q0 84 -102 84zM291 295h-64l-48 -227h55q75 0 117.5 41.5t42.5 100.5q0 85 -103 85z" />
<glyph unicode="C" horiz-adv-x="521" d="M443 113l-5 -87q-75 -36 -161 -36q-107 0 -163 59.5t-56 173.5q0 109 47 209t133 164t189 64q83 0 141 -27l-36 -100q-51 45 -119 45q-67 0 -119 -54t-77 -129.5t-25 -153.5q0 -165 127 -165q68 0 124 37z" />
<glyph unicode="D" horiz-adv-x="630" d="M158 528l17 122h182q244 0 244 -239q0 -105 -42.5 -197t-131 -153t-206.5 -61h-175zM309 575h-23l-105 -499h45q61 0 109.5 32t77 83t43.5 108t15 112q0 46 -12 79t-27 49t-41 24.5t-41.5 10t-40.5 1.5z" />
<glyph unicode="E" d="M394 0h-348l111 523l18 127h352l-25 -80l-215 7l-47 -219l172 4l-23 -76l-163 3l-46 -216l233 8z" />
<glyph unicode="F" horiz-adv-x="472" d="M165 0h-119l111 523l18 127h352l-25 -80l-215 7l-53 -248l3 12l171 4l-23 -75l-163 3z" />
<glyph unicode="G" horiz-adv-x="572" d="M467 26q-88 -36 -180 -36q-112 0 -171 60t-59 175q0 109 48.5 208t139 163t200.5 64q77 0 140 -27l-36 -101q-48 46 -118 46q-73 0 -129.5 -52.5t-84 -128.5t-27.5 -157q0 -176 143 -176q15 -1 39 2l21 98l18 123l114 10z" />
<glyph unicode="H" horiz-adv-x="655" d="M165 0h-119l112 528l17 122l130 10l-68 -318h229l39 186l18 122l129 11l-140 -661h-118l58 275h-229z" />
<glyph unicode="I" horiz-adv-x="308" d="M165 0h-119l112 528l17 122l130 10z" />
<glyph unicode="J" horiz-adv-x="307" d="M-73 -140q97 35 121 154l110 514l17 122l129 10l-124 -582q-12 -56 -26.5 -95.5t-42 -79t-74.5 -64.5t-113 -34z" />
<glyph unicode="K" horiz-adv-x="562" d="M158 528l17 122l130 10l-66 -310h65l208 310l110 -10l-231 -332l98 -318l-126 -10l-74 293h-64l-60 -283h-119z" />
<glyph unicode="L" horiz-adv-x="465" d="M392 0h-346l112 528l17 122l130 10l-125 -587l232 13z" />
<glyph unicode="M" horiz-adv-x="823" d="M264 546h-1l-171 -546h-98l219 650l161 10l4 -570h2l242 560l162 10l-59 -660h-123l63 546h-1l-248 -546h-137z" />
<glyph unicode="N" horiz-adv-x="646" d="M158 528l17 122l103 10l169 -502h2l95 492l99 10l-140 -660h-106l-160 483h-2l-93 -483h-96z" />
<glyph unicode="O" horiz-adv-x="631" d="M607 435q0 -107 -43.5 -208t-127 -169t-185.5 -68q-93 0 -144 58t-51 167q0 106 44 207.5t128 169.5t185 68q94 0 144 -58t50 -167zM187 203q0 -69 23.5 -107.5t68.5 -38.5q56 0 103 68.5t70.5 158t23.5 167.5q0 68 -22.5 105t-66.5 37q-57 0 -104.5 -67.5t-71.5 -156 t-24 -166.5z" />
<glyph unicode="P" horiz-adv-x="549" d="M165 0h-119l112 528l17 122h169q210 0 210 -170q0 -117 -83.5 -195.5t-224.5 -78.5h-38zM321 580h-33l-65 -304h39q80 0 124.5 62t44.5 138q0 57 -28 80.5t-82 23.5z" />
<glyph unicode="Q" horiz-adv-x="621" d="M678 -91q0 -36 -38.5 -57.5t-99.5 -20.5q-94 -1 -188.5 44.5t-157.5 120.5q-65 15 -101 71t-36 149q0 78 26 156.5t70 142.5t110.5 104.5t141.5 40.5q91 0 141 -59t49 -169q1 -100 -38 -196.5t-113.5 -165t-166.5 -78.5q118 -70 261 -70q70 0 127 19q13 -11 13 -32z M272 57q56 0 103.5 69t71 159t23.5 169q0 139 -87 139q-57 0 -105 -69.5t-71.5 -159t-23.5 -166.5q0 -68 22.5 -104.5t66.5 -36.5z" />
<glyph unicode="R" horiz-adv-x="560" d="M165 0h-119l112 528l17 122h183q198 0 198 -159q0 -77 -44.5 -137t-121.5 -91l85 -263l-128 -10l-59 248q-30 -2 -45 -2h-28zM319 580h-31l-59 -274h34q81 0 125.5 53t44.5 122q0 28 -9 48t-20 29.5t-30 15t-29 6t-26 0.5z" />
<glyph unicode="S" horiz-adv-x="484" d="M421 195q0 -89 -76.5 -147t-182.5 -58q-96 0 -164 28l41 111q27 -24 66 -40.5t75 -16.5q49 0 79.5 27.5t30.5 67.5q0 27 -19.5 52t-47 46.5t-55 46t-47 60t-19.5 78.5q0 90 77 150t193 60q76 0 134 -22l-42 -106q-56 46 -121 46q-48 0 -79 -28.5t-31 -68.5 q0 -28 19.5 -54t47 -48t55 -46.5t47 -60t19.5 -77.5z" />
<glyph unicode="T" horiz-adv-x="480" d="M247 0h-119l120 570l-164 -8l25 88h431l-12 -88l-161 7z" />
<glyph unicode="U" horiz-adv-x="637" d="M285 62q52 0 87 41t50 115l65 310l17 122l130 10l-93 -433q-24 -113 -100 -175t-179 -62q-84 0 -131 41.5t-47 118.5q0 25 7.5 66.5t40.5 194.5q16 72 25 117l18 122l130 10q-13 -60 -25.5 -120t-21 -99t-17 -77.5t-13 -62t-9.5 -46t-7.5 -35t-4.5 -24t-2.5 -19t-1 -13.5 t-0.5 -13q0 -40 21.5 -64.5t60.5 -24.5z" />
<glyph unicode="V" horiz-adv-x="562" d="M517 660l107 -10l-315 -650h-168l-31 650l118 10l22 -571h1z" />
<glyph unicode="W" horiz-adv-x="863" d="M107 0l3 650l118 10l-10 -571h1l233 561h146l-10 -561h2l234 571l102 -10l-287 -650h-164l16 534h-2l-218 -534h-164z" />
<glyph unicode="X" horiz-adv-x="555" d="M-28 0l251 320l-105 328l130 12l66 -263l195 263l100 -12l-243 -312l113 -336h-130l-77 255l-193 -255h-107z" />
<glyph unicode="Y" horiz-adv-x="542" d="M278 0h-118l43 207l-93 443l118 10l58 -351h2l208 351l108 -10l-281 -443h-1z" />
<glyph unicode="Z" horiz-adv-x="487" d="M392 0h-395l-2 63l383 502q-193 -3 -269 -8l27 93h379l1 -62l-383 -503q183 4 288 18z" />
<glyph unicode="[" horiz-adv-x="398" d="M19 -57l144 678l15 69h226l-16 -69h-113l-144 -678h113l-14 -70h-226z" />
<glyph unicode="\" horiz-adv-x="384" d="M161 -17l-14 699l73 17l14 -698z" />
<glyph unicode="]" horiz-adv-x="399" d="M234 -127h-226l16 70h112l145 678h-113l14 69h226l-15 -69l-144 -678z" />
<glyph unicode="^" horiz-adv-x="551" d="M168 195h-115l233 338h97l91 -338h-114l-51 224z" />
<glyph unicode="_" horiz-adv-x="382" d="M-88 -164l16 78h382l-16 -78h-382z" />
<glyph unicode="`" horiz-adv-x="292" d="M316 599l-22 -33q-87 46 -150 126l61 63q48 -82 111 -156z" />
<glyph unicode="a" horiz-adv-x="557" d="M26 126q0 64 25 131t68.5 123.5t110.5 93t144 36.5q81 0 150 -32l-40 -175q-35 -153 -35 -247q0 -31 5 -56h-120q-5 27 -5 54q0 64 18 157q-42 -98 -104 -159.5t-122 -61.5q-44 0 -69.5 35.5t-25.5 100.5zM150 152q0 -36 11 -58t30 -22q46 0 103 95.5t93 234.5q6 24 9 38 q-31 11 -49 11q-51 0 -98 -50.5t-73 -119.5t-26 -129z" />
<glyph unicode="b" horiz-adv-x="546" d="M520 374q0 -63 -25 -130t-68.5 -124t-111 -93.5t-145.5 -36.5q-77 0 -149 29l114 537l12 129l135 10q-28 -149 -86 -412q41 100 104.5 163.5t124.5 63.5q44 0 69.5 -35.5t25.5 -100.5zM354 429q-49 0 -110 -108.5t-94 -260.5q27 -10 49 -10q51 0 98 50t73 119t26 130 q0 80 -42 80z" />
<glyph unicode="c" horiz-adv-x="452" d="M379 137l3 -61q-36 -39 -86.5 -62.5t-100.5 -23.5q-75 0 -117.5 43.5t-42.5 129.5q0 135 90 241t214 106q60 0 112 -31l-33 -99q-43 63 -95 63q-63 0 -114 -85.5t-51 -178.5q0 -117 81 -117q65 0 140 75z" />
<glyph unicode="d" horiz-adv-x="555" d="M26 126q0 64 25 131t68.5 123.5t110.5 93t144 36.5q13 0 37 -2q2 11 11 49l12 128l135 10q-19 -98 -52.5 -252.5t-49 -241t-15.5 -145.5q0 -31 5 -56h-120q-5 23 -5 53q0 68 19 170q-40 -102 -104 -167.5t-126 -65.5q-44 0 -69.5 35.5t-25.5 100.5zM150 152q0 -79 41 -81 q49 0 110 108.5t95 259.5q-27 12 -49 12q-51 0 -98 -50.5t-73 -119.5t-26 -129z" />
<glyph unicode="e" horiz-adv-x="472" d="M397 137l3 -61q-33 -36 -92 -61t-114 -25q-73 0 -116 44.5t-43 130.5q0 83 38.5 162.5t106.5 131t145 51.5q59 0 94.5 -27.5t35.5 -76.5q0 -73 -73.5 -129t-177.5 -62q-14 -1 -44 1q-2 -26 -2 -36q0 -57 23 -87.5t65 -30.5q72 0 151 75zM303 451q-45 -1 -85 -66t-54 -145 q88 13 136.5 62t48.5 99q0 22 -12.5 36t-33.5 14z" />
<glyph unicode="f" horiz-adv-x="336" d="M349 415l-109 3l-85 -404q-17 -80 -68 -133.5t-151 -75.5l-19 44q54 27 80 67.5t39 103.5l84 401l-52 2l7 34l56 12v2q-2 36 2 80q6 67 52.5 105.5t116.5 38.5q67 0 115 -27l-29 -77q-35 32 -78 32q-31 0 -51.5 -20t-25.5 -58q-6 -45 3 -76h129z" />
<glyph unicode="g" d="M403 -51q0 -65 -74.5 -104.5t-188.5 -39.5q-89 0 -140 26t-51 76q0 38 25.5 66.5t61.5 40.5l10 -11q-22 -58 -9 -99q21 -63 111 -63q51 0 90.5 22t39.5 53q0 20 -20.5 35.5t-49.5 26.5t-58.5 22t-50 29t-20.5 41q0 33 35 60t92 37v3q-150 0 -150 121q0 85 67 152t180 67 q131 0 210 8q16 -15 16 -35q0 -17 -13 -30.5t-34 -13.5q-13 0 -29 5.5t-43 17.5t-45 19l-2 -3q88 -39 88 -115q0 -60 -42 -110t-117 -84q-5 -2 -19.5 -8t-25 -11t-22 -11.5t-18 -14t-6.5 -14.5q0 -15 31.5 -28.5t69.5 -25t69.5 -39.5t31.5 -68zM173 277q0 -68 47 -68 q45 0 79 61t34 120q0 66 -49 66q-47 0 -79 -60t-32 -119z" />
<glyph unicode="h" horiz-adv-x="550" d="M454 0h-120q-4 29 -4 60q0 56 25 177t25 140q0 21 -11 33.5t-27 12.5q-46 0 -100 -89.5t-71 -202.5q-6 -46 -6 -83q0 -18 5 -48h-120q-5 32 -5 53q0 85 45 296l45 208l12 128l135 10q-17 -86 -45.5 -219.5t-35.5 -169.5q39 92 97 148t119 56q40 0 64.5 -23.5t24.5 -73.5 q0 -30 -28 -159.5t-28 -204.5q0 -28 4 -49z" />
<glyph unicode="i" horiz-adv-x="274" d="M286 680q0 -32 -29 -59.5t-66 -27.5q-24 0 -38 12t-14 33q0 33 29 60.5t67 27.5q23 0 37 -12t14 -34zM243 510q-12 -65 -35.5 -179t-32.5 -172.5t-9 -105.5q0 -28 5 -53h-120q-5 26 -5 53q0 85 25 203l25 114l12 130z" />
<glyph unicode="j" horiz-adv-x="270" d="M294 680q0 -32 -29 -59.5t-66 -27.5q-24 0 -38 12t-14 33q0 33 29 60.5t67 27.5q23 0 37 -12t14 -34zM247 510q-22 -112 -103 -496q-36 -174 -219 -209l-18 44q53 27 79 68t39 102l75 353l13 128z" />
<glyph unicode="k" horiz-adv-x="520" d="M170 0h-120q-5 28 -5 49q0 89 45 300l45 208l12 128l135 10q-3 -15 -82 -390q40 93 103 149t127 56q40 0 63 -22t23 -60q0 -104 -176 -205q47 -120 122 -223l-132 -10q-72 109 -105 214q166 104 166 184q0 20 -10.5 31.5t-28.5 11.5q-59 0 -119 -111t-67 -240v-3 q-1 -6 -1 -19v-4v-1q0 -29 5 -53z" />
<glyph unicode="l" horiz-adv-x="273" d="M282 695q-19 -100 -52.5 -253t-49 -240t-15.5 -148q0 -29 5 -54h-120q-5 28 -5 49q0 89 45 300l45 208l12 128z" />
<glyph unicode="m" horiz-adv-x="815" d="M170 0h-120q-4 28 -4 49q0 92 50 323l12 128l135 10q-19 -97 -42 -203q37 91 94 147t115 56q43 0 67.5 -29t16.5 -90q-4 -35 -12 -69q38 85 92.5 136.5t110.5 51.5q43 0 67 -29t17 -90q-4 -32 -29 -152.5t-25 -185.5q0 -30 4 -53h-120q-4 28 -4 51q0 40 8 90.5t21 118 t19 106.5q2 23 -7 40t-25 17q-30 0 -67.5 -48t-67.5 -130t-35 -165v-5q-1 -3 -1 -11v-2v-4v-4v-1q0 -25 5 -53h-120q-5 23 -5 51q0 40 7.5 90t21.5 119t20 106q1 24 -8 40.5t-25 16.5q-31 0 -70 -51.5t-69 -138t-31 -172.5v-3v-4v-2q0 -27 4 -52z" />
<glyph unicode="n" horiz-adv-x="550" d="M170 0h-120q-4 28 -4 49q0 92 50 323l12 128l135 10q-7 -35 -14.5 -71.5t-15.5 -76t-12 -58.5q38 92 96.5 149t120.5 57q44 0 69 -29t17 -90q-4 -30 -29 -152t-25 -190q0 -22 5 -49h-120q-5 28 -5 60q0 37 7.5 82.5t21 111t20.5 111.5q2 26 -8 42t-28 16q-33 0 -72.5 -48 t-69.5 -128.5t-35 -163.5v-31q0 -27 4 -52z" />
<glyph unicode="o" horiz-adv-x="539" d="M505 335q0 -128 -89.5 -235.5t-213.5 -107.5q-77 0 -122.5 43t-45.5 125q0 83 39.5 163t111 132.5t153.5 52.5q79 0 123 -45.5t44 -127.5zM158 152q0 -101 65 -101q43 0 80.5 50t57.5 118t20 129q0 102 -64 102q-43 0 -80.5 -49.5t-58 -118t-20.5 -130.5z" />
<glyph unicode="p" horiz-adv-x="546" d="M243 510q-21 -108 -47 -229q41 101 104.5 165t124.5 64q44 0 69.5 -35.5t25.5 -100.5q0 -63 -25 -130t-68.5 -124t-110.5 -93.5t-144 -36.5q-19 0 -34 4q-12 -71 -12 -124q0 -31 5 -55h-120q-5 23 -5 52q0 82 45 297l45 208l12 128zM355 429q-49 0 -109 -103.5 t-94 -250.5q-2 -10 -3 -14q27 -11 50 -11q51 0 98 50t73 119t26 130q0 37 -11 58.5t-30 21.5z" />
<glyph unicode="q" horiz-adv-x="547" d="M26 126q0 64 25 131t68.5 123.5t110.5 93t144 36.5q81 0 150 -32q-95 -449 -104 -518q-7 -49 -7 -90q0 -30 4 -55h-120q-4 28 -4 50q-1 57 10 124t45 226q-41 -99 -103.5 -162t-123.5 -63q-44 0 -69.5 35.5t-25.5 100.5zM150 152q0 -80 42 -80q48 -1 109 107t95 260 q-27 12 -49 12q-51 0 -98 -50.5t-73 -119.5t-26 -129z" />
<glyph unicode="r" horiz-adv-x="400" d="M170 0h-120q-4 28 -4 49q0 92 50 323l12 128l135 10q-9 -47 -24 -119t-19 -92q29 95 73 153t96 58q41 0 68 -25l-49 -99q-26 16 -60 16q-40 0 -78 -53.5t-61 -136.5t-23 -165q0 -24 4 -47z" />
<glyph unicode="s" horiz-adv-x="426" d="M364 151q0 -70 -65 -115.5t-165 -45.5q-84 0 -145 23l29 96q62 -40 140 -40q40 0 64.5 17.5t24.5 46.5q0 8 -2 15.5t-7.5 14.5t-10 12t-14.5 12.5t-16 11.5t-19 12.5t-20 12.5q-40 26 -61.5 52.5t-21.5 67.5q0 70 66 118t168 48q69 0 118 -18l-28 -96q-61 36 -118 36 q-39 0 -63.5 -20t-24.5 -49q0 -6 1 -11t4 -10.5t5.5 -9.5t8 -9.5t8.5 -8t11 -8.5t11 -8t12.5 -8.5t12.5 -8.5q30 -18 47.5 -32t33.5 -40.5t16 -57.5z" />
<glyph unicode="t" horiz-adv-x="398" d="M341 76q-76 -86 -176 -86q-114 0 -114 104q0 33 46 248q13 58 20 93l-52 2l7 34l67 12l58 137l81 6q-19 -90 -31 -143h155l-17 -54l-148 3q-64 -293 -64 -319q0 -45 46 -45q48 0 119 69z" />
<glyph unicode="u" horiz-adv-x="552" d="M96 372l12 128l135 10q-15 -83 -35 -176.5t-30.5 -144.5t-10.5 -68q0 -20 9.5 -32t25.5 -12q44 0 96.5 88t75.5 205q9 45 10 81q0 2 1.5 23t0.5 26l135 10q-12 -65 -35.5 -179t-32.5 -172.5t-9 -105.5q0 -28 5 -53h-120q-5 28 -5 56q0 54 14 127q-38 -88 -96 -140.5 t-116 -52.5q-84 0 -84 102q0 7 0.5 12.5t1.5 14t2 16t3.5 21.5t5 25.5t7.5 34t9 41t11.5 52t13.5 63.5z" />
<glyph unicode="v" horiz-adv-x="469" d="M85 250q-3 148 -23 250l122 10q14 -78 19 -182q4 -131 -11 -277h2q69 115 112.5 237.5t44.5 212.5q28 9 56 9q57 0 57 -48q0 -77 -78 -222t-201 -250l-101 10q6 110 1 250z" />
<glyph unicode="w" horiz-adv-x="743" d="M85 246q-5 160 -23 254l122 10q13 -67 18 -187q4 -125 -12 -272h2q68 114 111 236.5t44 212.5l114 10q14 -73 19 -183q3 -129 -13 -276h2q68 114 111 236.5t44 213.5q30 9 57 9q56 0 56 -48q0 -34 -18.5 -89.5t-52 -120.5t-88 -136.5t-118.5 -125.5l-93 10q13 160 8 376 h-1q-23 -91 -77 -202t-114 -184l-101 10q6 111 3 246z" />
<glyph unicode="x" horiz-adv-x="466" d="M-9 32q0 40 56 104.5t131 100.5q-48 180 -103 263l121 10q44 -71 83 -221q73 99 86 207q22 14 55 14q24 0 38 -11.5t14 -30.5q0 -40 -55.5 -103.5t-131.5 -99.5q17 -63 27 -95t31 -82t46 -88l-121 -10q-41 67 -84 221q-75 -99 -86 -207q-22 -14 -55 -14q-25 0 -39 11.5 t-13 30.5z" />
<glyph unicode="y" horiz-adv-x="477" d="M252 2q-71 -90 -152.5 -143.5t-152.5 -53.5q-78 0 -78 51q0 36 26 54q38 -12 80 -12q51 0 110.5 34t92.5 82l-86 5q4 99 1 233q-5 150 -24 248l122 10q15 -75 20 -182q4 -116 -12 -260h2q69 110 112.5 228t44.5 205q30 9 57 9q56 0 56 -47q0 -67 -66 -209t-153 -252z" />
<glyph unicode="z" horiz-adv-x="459" d="M3 -10l-20 31q193 184 318 355q-64 35 -133 35q-58 0 -83 -48l-25 8q11 77 40.5 108t75.5 31q76 0 166 -74q20 29 46 74q53 0 53 -39q0 -51 -99 -160t-214 -201q30 -1 74 -11t67 -10q84 0 114 64l25 -8q-21 -88 -59 -121.5t-96 -33.5q-33 0 -83.5 15t-75.5 15 q-45 0 -91 -30z" />
<glyph unicode="{" horiz-adv-x="362" d="M130 185q0 55 -70 63l14 65q108 14 108 127q0 14 -2.5 40t-2.5 41q0 174 241 174l-11 -62q-114 0 -114 -119q0 -12 1.5 -36.5t1.5 -34.5q0 -65 -40 -107.5t-104 -55.5q42 -9 67 -32t25 -59q0 -34 -33.5 -104t-33.5 -100q0 -58 80 -58l-15 -62q-97 0 -141.5 23.5 t-44.5 74.5q0 42 37 116.5t37 105.5z" />
<glyph unicode="|" horiz-adv-x="291" d="M85 -202l-72 -3l191 897l71 3z" />
<glyph unicode="}" horiz-adv-x="361" d="M244 375q0 -54 70 -62l-14 -65q-108 -14 -108 -127q0 -14 2.5 -40t2.5 -41q0 -175 -242 -175l12 62q114 0 114 120q0 11 -1.5 35.5t-1.5 34.5q0 65 40 107.5t103 55.5q-42 9 -66.5 32.5t-24.5 59.5q0 34 33.5 103.5t33.5 99.5q0 58 -80 58l15 62q97 0 141.5 -23.5 t44.5 -74.5q0 -42 -37 -116.5t-37 -105.5z" />
<glyph unicode="~" horiz-adv-x="602" d="M187 248q-12 0 -67 -57l-38 21q82 121 127 121q24 0 109.5 -26.5t102.5 -26.5q12 0 68 58l37 -21q-82 -121 -126 -121q-25 0 -111.5 26t-101.5 26z" />
<glyph unicode="&#xa1;" horiz-adv-x="283" d="M123 443q0 30 26.5 55.5t60.5 25.5q22 0 35 -11t13 -30q0 -30 -27 -56t-61 -26q-21 0 -34 11t-13 31zM118 338h81q-69 -387 -83 -505l-127 -10q9 54 26 134q41 186 103 381z" />
<glyph unicode="&#xa2;" horiz-adv-x="452" d="M166 -123l23 113q-72 2 -113 45.5t-42 127.5q0 128 83.5 232t200.5 114l24 111l38 3l-24 -114q53 -4 95 -30l-33 -99q-43 63 -95 63q-63 0 -114 -85.5t-51 -178.5q0 -117 81 -117q65 0 140 75l3 -61q-64 -70 -154 -83l-24 -113z" />
<glyph unicode="&#xa3;" horiz-adv-x="519" d="M443 286l-143 3l-5 -17q-52 -166 -154 -240q38 -25 61.5 -38.5t66.5 -27.5t86 -14q42 0 83 13l-53 -93q-19 -8 -54 -8q-38 0 -73 11t-72 37.5t-52 39.5t-53 48q-33 -10 -62 -10q-37 0 -49.5 12t-8.5 33q5 23 23.5 35.5t43.5 12.5q30 -1 68 -23q41 54 68 153l19 79l-93 2 l12 35l93 12q42 164 111 250.5t184 86.5q63 0 107 -24l-46 -85q-37 41 -81 41q-52 0 -83.5 -60.5t-71.5 -208.5h149z" />
<glyph unicode="&#xa4;" horiz-adv-x="473" d="M359 67l-51 72q-53 -40 -114 -40q-54 0 -87 30l-72 -63l-22 31l72 63q-15 29 -15 68q0 88 68 156l-48 68l33 28q30 -39 49 -68q50 34 105 34q56 -1 89 -36l80 71l23 -31l-82 -72q13 -31 13 -63q0 -79 -58 -145q25 -35 53 -71zM129 241q0 -38 20.5 -63t59.5 -25 q55 0 93.5 46.5t38.5 102.5q0 38 -20.5 62t-59.5 24q-55 0 -93.5 -45t-38.5 -102z" />
<glyph unicode="&#xa5;" horiz-adv-x="542" d="M52 107l9 41h130l12 59h-129l9 42h112l-85 401l118 10l58 -351h2l208 351l108 -10l-255 -401h111l-9 -42h-129l-12 -59h128l-8 -41h-129l-23 -107h-118l22 107h-130z" />
<glyph unicode="&#xa6;" horiz-adv-x="291" d="M201 348l-71 -4l74 348l71 3zM85 -202l-72 -3l75 352l71 4z" />
<glyph unicode="&#xa7;" horiz-adv-x="528" d="M442 100q0 -115 -84 -192.5t-209 -77.5q-99 0 -159 35l33 108q19 -16 52.5 -30t62.5 -14q42 0 68.5 31.5t26.5 73.5q0 29 -15.5 60t-37.5 60t-44.5 61t-38 75.5t-15.5 90.5q0 116 85 197.5t215 81.5q87 0 139 -29l-40 -105q-47 35 -94 35q-43 0 -69 -33t-26 -76 q0 -37 23.5 -78.5t51.5 -75.5t51.5 -87.5t23.5 -110.5zM206 -104v-4q78 19 123 71.5t45 123.5q0 50 -24.5 99t-53.5 81.5t-53.5 78.5t-24.5 90q0 49 29 90.5t72 64.5v3q-74 -19 -119 -74t-45 -127q0 -50 23 -98.5t50.5 -81t50.5 -76.5t23 -86q0 -50 -29.5 -90.5t-66.5 -64.5 z" />
<glyph unicode="&#xa8;" horiz-adv-x="441" d="M271 672q-2 -31 -28 -55t-60 -23q-23 0 -36.5 13t-12.5 35q2 30 29 54t61 25q23 1 35.5 -12.5t11.5 -36.5zM478 672q-2 -31 -28 -55t-60 -23q-23 0 -36.5 13t-12.5 35q2 31 28.5 54.5t61.5 24.5q23 1 35.5 -12.5t11.5 -36.5z" />
<glyph unicode="&#xa9;" horiz-adv-x="638" d="M43 184q0 88 47.5 169.5t126 132t163.5 50.5q95 0 155 -61.5t60 -159.5q0 -134 -104 -242.5t-236 -108.5q-95 0 -153.5 61.5t-58.5 158.5zM264 0q115 0 204.5 96t89.5 211q0 83 -52 138t-134 55q-114 0 -203 -96t-89 -213q0 -84 50.5 -137.5t133.5 -53.5zM389 156l-2 -54 q-43 -17 -92 -17q-126 0 -126 122q0 86 57.5 153t141.5 67q49 0 84 -19l-23 -57q-27 19 -65 19q-51 0 -81.5 -46.5t-30.5 -102.5q0 -78 71 -78q47 0 66 13z" />
<glyph unicode="&#xaa;" horiz-adv-x="476" d="M107 466q0 45 18.5 92.5t51.5 88t84 66.5t110 26q63 0 121 -24l-29 -127q-24 -112 -24 -168q0 -27 4 -48h-99q-4 21 -4 46q0 39 10 96q-31 -66 -77.5 -107.5t-91.5 -41.5q-34 0 -54 26.5t-20 74.5zM208 486q0 -53 30 -55q33 1 73 63t67 154q2 12 8 36q-19 8 -35 8 q-55 0 -99 -70t-44 -136z" />
<glyph unicode="&#xab;" horiz-adv-x="513" d="M262 271l6 31q123 95 226 201l21 -15q-48 -77 -154 -202q52 -117 68 -202l-27 -14q-64 112 -140 201zM54 271l6 31q123 95 226 201l21 -15q-48 -77 -154 -202q52 -117 68 -202l-27 -14q-64 112 -140 201z" />
<glyph unicode="&#xac;" horiz-adv-x="587" d="M505 383l-50 -236h-85l32 152h-301l17 79q142 5 387 5z" />
<glyph unicode="&#xae;" horiz-adv-x="638" d="M43 184q0 88 47.5 169.5t126 132t163.5 50.5q95 0 155 -61.5t60 -159.5q0 -134 -104 -242.5t-236 -108.5q-95 0 -153.5 61.5t-58.5 158.5zM264 0q115 0 204.5 96t89.5 211q0 83 -52 138t-134 55q-114 0 -203 -96t-89 -213q0 -84 50.5 -137.5t133.5 -53.5zM250 89h-74 l57 268l8 64h110q54 0 83 -22.5t29 -63.5q0 -39 -23.5 -70t-63.5 -47l47 -129l-80 -5l-32 120h-12h-25zM328 378h-17l-28 -131h18q39 0 62.5 25.5t23.5 58.5q0 47 -59 47z" />
<glyph unicode="&#xaf;" horiz-adv-x="346" d="M130 624l16 73h245l-16 -73h-245z" />
<glyph unicode="&#xb0;" horiz-adv-x="348" d="M338 473q0 -63 -46.5 -113t-110.5 -50q-44 0 -69 26t-25 71q0 63 46 112.5t109 49.5q45 0 70.5 -26t25.5 -70zM140 419q0 -27 15 -44t40 -17q37 0 63 32t26 71q0 27 -14.5 43.5t-39.5 16.5q-37 0 -63.5 -31.5t-26.5 -70.5z" />
<glyph unicode="&#xb1;" horiz-adv-x="563" d="M490 340h-146l-29 -138h-86l29 138h-148l17 78q70 2 147 2l30 141h87l-30 -140q57 1 148 1zM426 43h-380l17 78q116 4 382 4z" />
<glyph unicode="&#xb2;" horiz-adv-x="385" d="M333 372h-246l2 48q79 49 146.5 111t67.5 107q0 20 -15 31t-41 11q-47 0 -96 -34l2 59q62 30 132 30q50 0 79 -20.5t29 -57.5q0 -58 -71.5 -115t-173.5 -104h80q64 0 124 9z" />
<glyph unicode="&#xb3;" horiz-adv-x="362" d="M346 481q0 -50 -52 -82t-125 -32q-52 0 -91 13l16 48q30 -15 67 -15q41 0 68.5 21t27.5 48q0 24 -21 35.5t-51 11.5q-19 0 -37 -4l5 30q56 14 94 38.5t38 52.5q0 34 -52 34q-39 0 -85 -22l6 51q52 26 118 26q47 0 74 -18t27 -50q0 -38 -38.5 -65.5t-98.5 -42.5 q110 -5 110 -78z" />
<glyph unicode="&#xb4;" horiz-adv-x="286" d="M329 691q-81 -78 -182 -126l-22 34q80 75 142 156z" />
<glyph unicode="&#xb6;" horiz-adv-x="603" d="M173 -109q39 0 70.5 16t48.5 35t30.5 50.5t18 47.5t9.5 41l98 461l11 50h-56l-88 -409h-29q-32 0 -62 8t-60.5 27t-48.5 56.5t-18 89.5q0 118 87.5 202t212.5 84h167l-23 -108l-94 -446q-28 -131 -98 -199t-178 -68q-71 0 -146 25l20 66q71 -29 128 -29z" />
<glyph unicode="&#xb7;" horiz-adv-x="251" d="M111 193q-20 0 -32.5 12t-12.5 32q0 29 24 53t54 24q20 0 31.5 -11t11.5 -30q0 -30 -23 -55t-53 -25z" />
<glyph unicode="&#xb8;" horiz-adv-x="269" d="M52 -117q3 13 -9.5 23t-40.5 15l45 79h41l-26 -45q45 -6 67 -24t16 -45q-8 -39 -58.5 -61t-129.5 -23l3 36q84 9 92 45z" />
<glyph unicode="&#xb9;" horiz-adv-x="300" d="M221 372h-84l66 305l-67 -25l-4 39l160 44l5 -4z" />
<glyph unicode="&#xba;" horiz-adv-x="464" d="M479 608q0 -91 -68 -166.5t-164 -75.5q-61 0 -97.5 32.5t-36.5 94.5q0 92 68.5 169t164.5 77q63 0 98 -35t35 -96zM215 486q0 -72 48 -72q47 0 80.5 69t33.5 137q0 71 -47 71q-31 0 -58.5 -34t-42 -81t-14.5 -90z" />
<glyph unicode="&#xbb;" horiz-adv-x="513" d="M267 302l-6 -31q-117 -91 -226 -201l-22 14q52 82 154 202q-53 125 -67 202l27 15q62 -109 140 -201zM475 302l-6 -31q-117 -91 -226 -201l-21 14q50 81 153 202q-53 125 -67 202l27 15q62 -109 140 -201z" />
<glyph unicode="&#xbc;" horiz-adv-x="844" d="M166 -10h-70l514 670h71zM204 292h-84l66 305l-67 -25l-4 39l160 44l5 -4zM633 0h-84l14 65h-161l2 35l246 263l59 -5l-48 -228q18 1 54 5l-19 -70h-49zM612 284l-157 -157h120h2z" />
<glyph unicode="&#xbd;" horiz-adv-x="847" d="M166 -10h-70l514 670h71zM204 292h-84l66 305l-67 -25l-4 39l160 44l5 -4zM716 0h-246l1 48q79 49 146.5 111t67.5 107q0 19 -14.5 30.5t-40.5 11.5q-48 0 -97 -34l3 59q62 30 131 30q50 0 79 -20.5t29 -57.5q0 -58 -71.5 -115t-173.5 -104h80q65 0 125 9z" />
<glyph unicode="&#xbe;" horiz-adv-x="882" d="M230 -10h-70l514 670h71zM329 401q0 -50 -52 -82t-125 -32q-52 0 -91 13l16 48q30 -15 67 -15q41 0 68.5 21t27.5 48q0 24 -21 35.5t-51 11.5q-19 0 -37 -4l5 30q56 14 94 38.5t38 52.5q0 34 -52 34q-39 0 -85 -22l6 51q52 26 118 26q47 0 74 -18t27 -50 q0 -38 -38.5 -65.5t-98.5 -42.5q110 -5 110 -78zM706 0h-84l14 65h-161l2 35l246 263l59 -5l-48 -228q18 1 54 5l-19 -70h-49zM685 284l-157 -157h120h2z" />
<glyph unicode="&#xbf;" horiz-adv-x="490" d="M253 443q0 30 26.5 55.5t60.5 25.5q48 0 48 -41q0 -31 -26.5 -56.5t-61.5 -25.5q-21 0 -34 11t-13 31zM247 333h81q6 -27 -2 -67q-9 -39 -40 -78t-63 -66t-61.5 -62t-36.5 -67q-8 -38 12.5 -60t55.5 -22q34 0 75 18t76 48l32 -67q-108 -88 -221 -88q-82 0 -124.5 47.5 t-26.5 123.5q9 43 35 79t57 61.5t61.5 48.5t53.5 50.5t29 57.5q1 6 3.5 23t3.5 20z" />
<glyph unicode="&#xc0;" horiz-adv-x="574" d="M513 750l-19 -36q-106 26 -189 89l61 77q62 -69 147 -130zM84 0h-112l266 526l60 125l155 9l43 -660h-117l-7 154h-216zM352 566l-165 -347h182l-16 347h-1z" />
<glyph unicode="&#xc1;" horiz-adv-x="574" d="M518 804q-95 -63 -205 -89l-15 36q91 60 163 130zM84 0h-112l266 526l60 125l155 9l43 -660h-117l-7 154h-216zM352 566l-165 -347h182l-16 347h-1z" />
<glyph unicode="&#xc2;" horiz-adv-x="574" d="M280 720l-27 19q63 54 119 123l96 8q28 -75 70 -131l-35 -19q-52 30 -96 79q-63 -48 -127 -79zM84 0h-112l266 526l60 125l155 9l43 -660h-117l-7 154h-216zM352 566l-165 -347h182l-16 347h-1z" />
<glyph unicode="&#xc3;" horiz-adv-x="574" d="M366 859q26 0 56.5 -21.5t48.5 -21.5q29 0 64 47l28 -7q-15 -48 -45 -82.5t-69 -34.5q-24 0 -57 21t-49 21q-31 0 -64 -47l-28 7q15 48 44.5 83t70.5 35zM84 0h-112l266 526l60 125l155 9l43 -660h-117l-7 154h-216zM352 566l-165 -347h182l-16 347h-1z" />
<glyph unicode="&#xc4;" horiz-adv-x="574" d="M372 819q0 -33 -27 -59t-62 -25q-22 0 -35.5 11.5t-13.5 31.5q0 31 27.5 57t63.5 27q21 1 34 -10.5t13 -32.5zM580 819q0 -32 -26.5 -58.5t-61.5 -25.5q-23 0 -36 11.5t-13 31.5q0 31 27 57t63 27q22 1 34.5 -10.5t12.5 -32.5zM84 0h-112l266 526l60 125l155 9l43 -660 h-117l-7 154h-216zM352 566l-165 -347h182l-16 347h-1z" />
<glyph unicode="&#xc5;" horiz-adv-x="574" d="M507 824q0 -45 -38.5 -79t-87.5 -34q-35 0 -54 17.5t-19 46.5q0 44 38.5 78.5t89.5 34.5q34 0 52.5 -17t18.5 -47zM363 789q0 -13 9 -21.5t23 -8.5q22 0 39.5 16t17.5 36q0 13 -9 21t-23 8q-21 0 -39 -15.5t-18 -35.5zM84 0h-112l266 526l60 125l155 9l43 -660h-117 l-7 154h-216zM352 566l-165 -347h182l-16 347h-1z" />
<glyph unicode="&#xc6;" horiz-adv-x="816" d="M84 0h-112l348 526l67 124h423l-25 -80l-239 6l-20 -218l206 4l-24 -76l-188 3l-19 -215l234 7l-19 -81h-338l20 154h-215zM451 566l-226 -347h181l46 347h-1z" />
<glyph unicode="&#xc7;" horiz-adv-x="521" d="M241 -117q3 13 -9.5 23t-40.5 15l41 72q-86 12 -130 70.5t-44 159.5q0 109 47 209t133 164t189 64q83 0 141 -27l-36 -100q-51 45 -119 45q-67 0 -119 -54t-77 -129.5t-25 -153.5q0 -165 127 -165q68 0 124 37l-5 -87q-75 -36 -161 -36h-6l-20 -35q45 -6 67 -24t16 -45 q-8 -39 -58.5 -61t-129.5 -23l4 36q83 9 91 45z" />
<glyph unicode="&#xc8;" d="M486 750l-19 -36q-105 26 -189 89l61 77q62 -69 147 -130zM394 0h-348l111 523l18 127h352l-25 -80l-215 7l-47 -219l172 4l-23 -76l-163 3l-46 -216l233 8z" />
<glyph unicode="&#xc9;" d="M491 804q-95 -63 -205 -89l-15 36q91 60 163 130zM394 0h-348l111 523l18 127h352l-25 -80l-215 7l-47 -219l172 4l-23 -76l-163 3l-46 -216l233 8z" />
<glyph unicode="&#xca;" d="M253 720l-27 19q63 54 119 123l96 8q28 -75 70 -131l-35 -19q-52 30 -96 79q-63 -48 -127 -79zM394 0h-348l111 523l18 127h352l-25 -80l-215 7l-47 -219l172 4l-23 -76l-163 3l-46 -216l233 8z" />
<glyph unicode="&#xcb;" d="M345 819q0 -33 -27 -59t-62 -25q-22 0 -35.5 11.5t-13.5 31.5q0 31 27.5 57t63.5 27q21 1 34 -10.5t13 -32.5zM553 819q0 -32 -26.5 -58.5t-61.5 -25.5q-23 0 -36 11.5t-13 31.5q0 31 27 57t63 27q22 1 34.5 -10.5t12.5 -32.5zM394 0h-348l111 523l18 127h352l-25 -80 l-215 7l-47 -219l172 4l-23 -76l-163 3l-46 -216l233 8z" />
<glyph unicode="&#xcc;" horiz-adv-x="308" d="M375 750l-19 -36q-106 27 -189 89l62 77q60 -68 146 -130zM165 0h-119l112 528l17 122l130 10z" />
<glyph unicode="&#xcd;" horiz-adv-x="308" d="M381 804q-94 -62 -205 -89l-16 36q94 62 164 130zM165 0h-119l112 528l17 122l130 10z" />
<glyph unicode="&#xce;" horiz-adv-x="308" d="M143 720l-27 19q67 59 119 123l96 8q25 -70 69 -131l-35 -19q-55 33 -95 79q-65 -49 -127 -79zM165 0h-119l112 528l17 122l130 10z" />
<glyph unicode="&#xcf;" horiz-adv-x="370" d="M276 803q0 -32 -24.5 -58.5t-57.5 -25.5q-45 2 -45 44q0 31 25 57t59 27q20 0 31.5 -11.5t11.5 -32.5zM432 803q0 -32 -25 -58.5t-57 -25.5q-45 2 -45 43q0 32 25 58t58 27q20 0 32 -11.5t12 -32.5zM193 0h-119l112 528l17 122l130 10z" />
<glyph unicode="&#xd0;" horiz-adv-x="630" d="M158 528l17 122h182q244 0 244 -239q0 -105 -42.5 -197t-131 -153t-206.5 -61h-175l63 300h-58l9 51h60zM379 300h-151l-47 -224h45q61 0 109.5 32t77 83t43.5 108t15 112q0 46 -12 79t-27 49t-41 24.5t-41.5 10t-40.5 1.5h-23l-47 -224h150z" />
<glyph unicode="&#xd1;" horiz-adv-x="646" d="M399 859q27 0 58 -21.5t48 -21.5q27 0 64 47l27 -7q-14 -48 -44 -82.5t-69 -34.5q-24 0 -57.5 21t-49.5 21q-30 0 -64 -47l-28 7q16 49 45.5 83.5t69.5 34.5zM158 528l17 122l103 10l169 -502h2l95 492l99 10l-140 -660h-106l-160 483h-2l-93 -483h-96z" />
<glyph unicode="&#xd2;" horiz-adv-x="631" d="M538 750l-19 -36q-106 27 -189 89l62 77q60 -68 146 -130zM607 435q0 -107 -43.5 -208t-127 -169t-185.5 -68q-93 0 -144 58t-51 167q0 106 44 207.5t128 169.5t185 68q94 0 144 -58t50 -167zM187 203q0 -69 23.5 -107.5t68.5 -38.5q56 0 103 68.5t70.5 158t23.5 167.5 q0 68 -22.5 105t-66.5 37q-57 0 -104.5 -67.5t-71.5 -156t-24 -166.5z" />
<glyph unicode="&#xd3;" horiz-adv-x="631" d="M544 804q-94 -62 -205 -89l-16 36q94 62 164 130zM607 435q0 -107 -43.5 -208t-127 -169t-185.5 -68q-93 0 -144 58t-51 167q0 106 44 207.5t128 169.5t185 68q94 0 144 -58t50 -167zM187 203q0 -69 23.5 -107.5t68.5 -38.5q56 0 103 68.5t70.5 158t23.5 167.5 q0 68 -22.5 105t-66.5 37q-57 0 -104.5 -67.5t-71.5 -156t-24 -166.5z" />
<glyph unicode="&#xd4;" horiz-adv-x="631" d="M306 720l-27 19q67 59 119 123l96 8q25 -70 69 -131l-35 -19q-55 33 -95 79q-65 -49 -127 -79zM607 435q0 -107 -43.5 -208t-127 -169t-185.5 -68q-93 0 -144 58t-51 167q0 106 44 207.5t128 169.5t185 68q94 0 144 -58t50 -167zM187 203q0 -69 23.5 -107.5t68.5 -38.5 q56 0 103 68.5t70.5 158t23.5 167.5q0 68 -22.5 105t-66.5 37q-57 0 -104.5 -67.5t-71.5 -156t-24 -166.5z" />
<glyph unicode="&#xd5;" horiz-adv-x="631" d="M391 859q27 0 58 -21.5t48 -21.5q27 0 64 47l27 -7q-14 -48 -44 -82.5t-69 -34.5q-24 0 -57.5 21t-49.5 21q-30 0 -64 -47l-28 7q16 49 45.5 83.5t69.5 34.5zM607 435q0 -107 -43.5 -208t-127 -169t-185.5 -68q-93 0 -144 58t-51 167q0 106 44 207.5t128 169.5t185 68 q94 0 144 -58t50 -167zM187 203q0 -69 23.5 -107.5t68.5 -38.5q56 0 103 68.5t70.5 158t23.5 167.5q0 68 -22.5 105t-66.5 37q-57 0 -104.5 -67.5t-71.5 -156t-24 -166.5z" />
<glyph unicode="&#xd6;" horiz-adv-x="631" d="M397 819q0 -33 -26.5 -59t-61.5 -25q-23 0 -36 11.5t-13 31.5q0 31 27.5 57t62.5 27q22 1 34.5 -10.5t12.5 -32.5zM606 819q0 -32 -27 -58.5t-62 -25.5q-22 0 -35.5 11.5t-13.5 31.5q0 31 27.5 57t63.5 27q21 1 34 -10.5t13 -32.5zM607 435q0 -107 -43.5 -208t-127 -169 t-185.5 -68q-93 0 -144 58t-51 167q0 106 44 207.5t128 169.5t185 68q94 0 144 -58t50 -167zM187 203q0 -69 23.5 -107.5t68.5 -38.5q56 0 103 68.5t70.5 158t23.5 167.5q0 68 -22.5 105t-66.5 37q-57 0 -104.5 -67.5t-71.5 -156t-24 -166.5z" />
<glyph unicode="&#xd7;" horiz-adv-x="551" d="M376 127l-97 138l-154 -134l-45 58l156 137l-99 142l66 56q40 -52 102 -137l152 134l46 -60l-155 -135q83 -115 100 -139l-3 -9z" />
<glyph unicode="&#xd8;" horiz-adv-x="631" d="M607 435q0 -107 -43.5 -208t-127 -169t-185.5 -68q-103 0 -153 69l-88 -87l-34 38l97 95q-17 48 -17 110q0 106 44 207.5t127.5 169.5t184.5 68q104 0 155 -72l87 86l35 -36l-99 -97q17 -46 17 -106zM387 593q-55 0 -102 -64t-71 -148.5t-27 -163.5l285 279 q-14 97 -85 97zM279 57q54 0 99 63t69 146t28 162l-284 -278q17 -93 88 -93z" />
<glyph unicode="&#xd9;" horiz-adv-x="637" d="M545 750l-19 -36q-106 27 -189 89l62 77q60 -68 146 -130zM285 62q52 0 87 41t50 115l65 310l17 122l130 10l-93 -433q-24 -113 -100 -175t-179 -62q-84 0 -131 41.5t-47 118.5q0 25 7.5 66.5t40.5 194.5q16 72 25 117l18 122l130 10q-13 -60 -25.5 -120t-21 -99 t-17 -77.5t-13 -62t-9.5 -46t-7.5 -35t-4.5 -24t-2.5 -19t-1 -13.5t-0.5 -13q0 -40 21.5 -64.5t60.5 -24.5z" />
<glyph unicode="&#xda;" horiz-adv-x="637" d="M551 804q-94 -62 -205 -89l-16 36q94 62 164 130zM285 62q52 0 87 41t50 115l65 310l17 122l130 10l-93 -433q-24 -113 -100 -175t-179 -62q-84 0 -131 41.5t-47 118.5q0 25 7.5 66.5t40.5 194.5q16 72 25 117l18 122l130 10q-13 -60 -25.5 -120t-21 -99t-17 -77.5 t-13 -62t-9.5 -46t-7.5 -35t-4.5 -24t-2.5 -19t-1 -13.5t-0.5 -13q0 -40 21.5 -64.5t60.5 -24.5z" />
<glyph unicode="&#xdb;" horiz-adv-x="637" d="M313 720l-27 19q67 59 119 123l96 8q25 -70 69 -131l-35 -19q-55 33 -95 79q-65 -49 -127 -79zM285 62q52 0 87 41t50 115l65 310l17 122l130 10l-93 -433q-24 -113 -100 -175t-179 -62q-84 0 -131 41.5t-47 118.5q0 25 7.5 66.5t40.5 194.5q16 72 25 117l18 122l130 10 q-13 -60 -25.5 -120t-21 -99t-17 -77.5t-13 -62t-9.5 -46t-7.5 -35t-4.5 -24t-2.5 -19t-1 -13.5t-0.5 -13q0 -40 21.5 -64.5t60.5 -24.5z" />
<glyph unicode="&#xdc;" horiz-adv-x="637" d="M404 819q0 -33 -26.5 -59t-61.5 -25q-23 0 -36 11.5t-13 31.5q0 31 27.5 57t62.5 27q22 1 34.5 -10.5t12.5 -32.5zM613 819q0 -32 -27 -58.5t-62 -25.5q-22 0 -35.5 11.5t-13.5 31.5q0 31 27.5 57t63.5 27q21 1 34 -10.5t13 -32.5zM285 62q52 0 87 41t50 115l65 310 l17 122l130 10l-93 -433q-24 -113 -100 -175t-179 -62q-84 0 -131 41.5t-47 118.5q0 25 7.5 66.5t40.5 194.5q16 72 25 117l18 122l130 10q-13 -60 -25.5 -120t-21 -99t-17 -77.5t-13 -62t-9.5 -46t-7.5 -35t-4.5 -24t-2.5 -19t-1 -13.5t-0.5 -13q0 -40 21.5 -64.5 t60.5 -24.5z" />
<glyph unicode="&#xdd;" horiz-adv-x="542" d="M501 804q-94 -62 -205 -89l-16 36q94 62 164 130zM278 0h-118l43 207l-93 443l118 10l58 -351h2l208 351l108 -10l-281 -443h-1z" />
<glyph unicode="&#xde;" horiz-adv-x="549" d="M165 0h-119l112 528l17 122h128l-20 -94h41q210 0 210 -170q0 -117 -83.5 -195.5t-224.5 -78.5h-38zM301 486h-33l-65 -304h39q80 0 124.5 62t44.5 138q0 57 -28 80.5t-82 23.5z" />
<glyph unicode="&#xdf;" horiz-adv-x="564" d="M-75 -195l-18 44q57 31 81 70t37 100l87 409l-59 1l7 34l62 12l1 7q23 108 90.5 160.5t156.5 52.5q70 0 113.5 -31t42.5 -90q1 -59 -43 -107t-114 -74q60 -33 95.5 -86t35.5 -119q0 -90 -62 -144t-143 -54q-70 0 -103 20l14 67q28 -20 72 -20q40 0 69.5 35.5t29.5 90.5 q0 53 -27 104.5t-65 80.5l8 41q54 25 87.5 65.5t33.5 89.5q0 30 -15 47t-42 17q-41 0 -69.5 -35.5t-40.5 -95.5l-103 -483q-17 -80 -66.5 -132.5t-152.5 -76.5z" />
<glyph unicode="&#xe0;" horiz-adv-x="557" d="M464 599l-22 -33q-89 47 -151 126l61 63q50 -84 112 -156zM26 126q0 64 25 131t68.5 123.5t110.5 93t144 36.5q81 0 150 -32l-40 -175q-35 -153 -35 -247q0 -31 5 -56h-120q-5 27 -5 54q0 64 18 157q-42 -98 -104 -159.5t-122 -61.5q-44 0 -69.5 35.5t-25.5 100.5z M150 152q0 -36 11 -58t30 -22q46 0 103 95.5t93 234.5q6 24 9 38q-31 11 -49 11q-51 0 -98 -50.5t-73 -119.5t-26 -129z" />
<glyph unicode="&#xe1;" horiz-adv-x="557" d="M480 691q-83 -78 -183 -126l-22 34q83 78 143 156zM26 126q0 64 25 131t68.5 123.5t110.5 93t144 36.5q81 0 150 -32l-40 -175q-35 -153 -35 -247q0 -31 5 -56h-120q-5 27 -5 54q0 64 18 157q-42 -98 -104 -159.5t-122 -61.5q-44 0 -69.5 35.5t-25.5 100.5zM150 152 q0 -36 11 -58t30 -22q46 0 103 95.5t93 234.5q6 24 9 38q-31 11 -49 11q-51 0 -98 -50.5t-73 -119.5t-26 -129z" />
<glyph unicode="&#xe2;" horiz-adv-x="557" d="M284 561l-33 22q64 74 113 150l94 8q14 -80 47 -158l-42 -22q-36 36 -67 103q-62 -67 -112 -103zM26 126q0 64 25 131t68.5 123.5t110.5 93t144 36.5q81 0 150 -32l-40 -175q-35 -153 -35 -247q0 -31 5 -56h-120q-5 27 -5 54q0 64 18 157q-42 -98 -104 -159.5t-122 -61.5 q-44 0 -69.5 35.5t-25.5 100.5zM150 152q0 -36 11 -58t30 -22q46 0 103 95.5t93 234.5q6 24 9 38q-31 11 -49 11q-51 0 -98 -50.5t-73 -119.5t-26 -129z" />
<glyph unicode="&#xe3;" horiz-adv-x="557" d="M336 728q28 0 61.5 -25t51.5 -25q26 0 60 52l27 -7q-12 -49 -42 -85.5t-67 -36.5q-25 0 -61 25t-52 25q-30 0 -60 -51l-27 6q13 49 41.5 85.5t67.5 36.5zM26 126q0 64 25 131t68.5 123.5t110.5 93t144 36.5q81 0 150 -32l-40 -175q-35 -153 -35 -247q0 -31 5 -56h-120 q-5 27 -5 54q0 64 18 157q-42 -98 -104 -159.5t-122 -61.5q-44 0 -69.5 35.5t-25.5 100.5zM150 152q0 -36 11 -58t30 -22q46 0 103 95.5t93 234.5q6 24 9 38q-31 11 -49 11q-51 0 -98 -50.5t-73 -119.5t-26 -129z" />
<glyph unicode="&#xe4;" horiz-adv-x="557" d="M342 672q-2 -31 -28 -55t-60 -23q-23 0 -36.5 13t-12.5 35q2 30 29 54t61 25q23 1 35.5 -12.5t11.5 -36.5zM549 672q-2 -31 -28 -55t-60 -23q-23 0 -36.5 13t-12.5 35q2 31 28.5 54.5t61.5 24.5q23 1 35.5 -12.5t11.5 -36.5zM26 126q0 64 25 131t68.5 123.5t110.5 93 t144 36.5q81 0 150 -32l-40 -175q-35 -153 -35 -247q0 -31 5 -56h-120q-5 27 -5 54q0 64 18 157q-42 -98 -104 -159.5t-122 -61.5q-44 0 -69.5 35.5t-25.5 100.5zM150 152q0 -36 11 -58t30 -22q46 0 103 95.5t93 234.5q6 24 9 38q-31 11 -49 11q-51 0 -98 -50.5t-73 -119.5 t-26 -129z" />
<glyph unicode="&#xe5;" horiz-adv-x="557" d="M475 689q0 -50 -37.5 -86.5t-86.5 -36.5q-36 0 -55.5 21.5t-14.5 57.5q5 47 41 80.5t83 33.5q32 0 51 -18.5t19 -51.5zM332 646q0 -35 32 -35q24 0 41.5 20t17.5 47q0 36 -32 36q-23 0 -41 -20t-18 -48zM26 126q0 64 25 131t68.5 123.5t110.5 93t144 36.5q81 0 150 -32 l-40 -175q-35 -153 -35 -247q0 -31 5 -56h-120q-5 27 -5 54q0 64 18 157q-42 -98 -104 -159.5t-122 -61.5q-44 0 -69.5 35.5t-25.5 100.5zM150 152q0 -36 11 -58t30 -22q46 0 103 95.5t93 234.5q6 24 9 38q-31 11 -49 11q-51 0 -98 -50.5t-73 -119.5t-26 -129z" />
<glyph unicode="&#xe6;" horiz-adv-x="767" d="M26 126q0 64 25 131t68.5 123.5t111 93t144.5 36.5q69 0 139 -26q54 26 106 26q59 0 94 -27.5t35 -76.5q0 -73 -73 -128.5t-177 -62.5q-16 -1 -44 1q-2 -13 -2 -36q0 -57 22.5 -87.5t65.5 -30.5q73 0 150 75l3 -61q-32 -36 -91.5 -61t-113.5 -25q-73 0 -116.5 44.5 t-43.5 129.5v9q-42 -83 -98 -133t-110 -50q-44 0 -69.5 35.5t-25.5 100.5zM150 152q0 -80 42 -80q36 0 80.5 60.5t77.5 150.5q28 81 84 140q-47 28 -86 28q-76 0 -137 -101.5t-61 -197.5zM597 451q-44 -1 -84.5 -66t-54.5 -145q88 13 136.5 62t48.5 99q0 22 -12 36t-34 14z " />
<glyph unicode="&#xe7;" horiz-adv-x="452" d="M190 -117q3 13 -9.5 23t-40.5 15l40 69q-69 5 -107 48.5t-38 124.5q0 135 90 241t214 106q60 0 112 -31l-33 -99q-43 63 -95 63q-63 0 -114 -85.5t-51 -178.5q0 -117 81 -117q65 0 140 75l3 -61q-66 -73 -161 -84l-21 -37q45 -6 67 -24t16 -45q-8 -39 -58.5 -61 t-129.5 -23l4 36q83 9 91 45z" />
<glyph unicode="&#xe8;" horiz-adv-x="472" d="M405 599l-22 -33q-87 46 -150 126l61 63q48 -82 111 -156zM397 137l3 -61q-33 -36 -92 -61t-114 -25q-73 0 -116 44.5t-43 130.5q0 83 38.5 162.5t106.5 131t145 51.5q59 0 94.5 -27.5t35.5 -76.5q0 -73 -73.5 -129t-177.5 -62q-14 -1 -44 1q-2 -26 -2 -36 q0 -57 23 -87.5t65 -30.5q72 0 151 75zM303 451q-45 -1 -85 -66t-54 -145q88 13 136.5 62t48.5 99q0 22 -12.5 36t-33.5 14z" />
<glyph unicode="&#xe9;" horiz-adv-x="472" d="M421 691q-81 -78 -182 -126l-22 34q80 75 142 156zM397 137l3 -61q-33 -36 -92 -61t-114 -25q-73 0 -116 44.5t-43 130.5q0 83 38.5 162.5t106.5 131t145 51.5q59 0 94.5 -27.5t35.5 -76.5q0 -73 -73.5 -129t-177.5 -62q-14 -1 -44 1q-2 -26 -2 -36q0 -57 23 -87.5 t65 -30.5q72 0 151 75zM303 451q-45 -1 -85 -66t-54 -145q88 13 136.5 62t48.5 99q0 22 -12.5 36t-33.5 14z" />
<glyph unicode="&#xea;" horiz-adv-x="472" d="M226 561l-33 22q70 83 112 150l95 8q15 -84 46 -158l-41 -22q-38 38 -68 103q-59 -66 -111 -103zM397 137l3 -61q-33 -36 -92 -61t-114 -25q-73 0 -116 44.5t-43 130.5q0 83 38.5 162.5t106.5 131t145 51.5q59 0 94.5 -27.5t35.5 -76.5q0 -73 -73.5 -129t-177.5 -62 q-14 -1 -44 1q-2 -26 -2 -36q0 -57 23 -87.5t65 -30.5q72 0 151 75zM303 451q-45 -1 -85 -66t-54 -145q88 13 136.5 62t48.5 99q0 22 -12.5 36t-33.5 14z" />
<glyph unicode="&#xeb;" horiz-adv-x="472" d="M284 672q-2 -31 -28 -55t-61 -23q-23 0 -36 13t-12 35q2 30 28.5 54t61.5 25q23 1 35.5 -12.5t11.5 -36.5zM490 672q-2 -31 -27.5 -55t-60.5 -23q-23 0 -36.5 13t-11.5 35q2 30 28.5 54t61.5 25q23 1 35.5 -12.5t10.5 -36.5zM397 137l3 -61q-33 -36 -92 -61t-114 -25 q-73 0 -116 44.5t-43 130.5q0 83 38.5 162.5t106.5 131t145 51.5q59 0 94.5 -27.5t35.5 -76.5q0 -73 -73.5 -129t-177.5 -62q-14 -1 -44 1q-2 -26 -2 -36q0 -57 23 -87.5t65 -30.5q72 0 151 75zM303 451q-45 -1 -85 -66t-54 -145q88 13 136.5 62t48.5 99q0 22 -12.5 36 t-33.5 14z" />
<glyph unicode="&#xec;" horiz-adv-x="274" d="M298 599l-22 -33q-87 46 -150 126l61 63q48 -82 111 -156zM243 510q-12 -65 -35.5 -179t-32.5 -172.5t-9 -105.5q0 -28 5 -53h-120q-5 26 -5 53q0 85 25 203l25 114l12 130z" />
<glyph unicode="&#xed;" horiz-adv-x="274" d="M314 691q-81 -78 -182 -126l-22 34q80 75 142 156zM243 510q-12 -65 -35.5 -179t-32.5 -172.5t-9 -105.5q0 -28 5 -53h-120q-5 26 -5 53q0 85 25 203l25 114l12 130z" />
<glyph unicode="&#xee;" horiz-adv-x="274" d="M122 568l-30 18q39 64 90 163l96 8q7 -98 22 -171l-36 -18q-27 43 -49 109q-45 -59 -93 -109zM243 510q-12 -65 -35.5 -179t-32.5 -172.5t-9 -105.5q0 -28 5 -53h-120q-5 26 -5 53q0 85 25 203l25 114l12 130z" />
<glyph unicode="&#xef;" horiz-adv-x="274" d="M197 676q-2 -33 -25 -55.5t-57 -22.5q-48 0 -45 48q2 33 26 56t57 23q47 0 44 -49zM355 676q-2 -33 -25 -55.5t-58 -22.5q-47 0 -44 48q2 32 26 55.5t57 23.5q47 0 44 -49zM243 510q-12 -65 -35.5 -179t-32.5 -172.5t-9 -105.5q0 -28 5 -53h-120q-5 26 -5 53q0 85 25 203 l25 114l12 130z" />
<glyph unicode="&#xf0;" horiz-adv-x="522" d="M482 366q0 -97 -33 -182t-99.5 -139.5t-153.5 -54.5q-76 0 -119.5 43t-43.5 126q0 120 77 216.5t187 96.5q36 0 61 -17q-15 60 -49 111l-128 -58l-14 43l113 52q-39 42 -89 68l45 56q82 -26 137 -81l130 60l17 -44l-114 -52q76 -99 76 -244zM152 151q0 -94 64 -94 q41 0 74 45.5t49 103.5t16 109q0 90 -62 90q-42 0 -75.5 -44.5t-49.5 -101.5t-16 -108z" />
<glyph unicode="&#xf1;" horiz-adv-x="550" d="M306 728q27 0 60.5 -25t51.5 -25q26 0 60 52l28 -7q-12 -49 -42 -85.5t-68 -36.5q-25 0 -60.5 25t-52.5 25q-28 0 -60 -51l-27 6q13 49 42 85.5t68 36.5zM170 0h-120q-4 28 -4 49q0 92 50 323l12 128l135 10q-7 -35 -14.5 -71.5t-15.5 -76t-12 -58.5q38 92 96.5 149 t120.5 57q44 0 69 -29t17 -90q-4 -30 -29 -152t-25 -190q0 -22 5 -49h-120q-5 28 -5 60q0 37 7.5 82.5t21 111t20.5 111.5q2 26 -8 42t-28 16q-33 0 -72.5 -48t-69.5 -128.5t-35 -163.5v-31q0 -27 4 -52z" />
<glyph unicode="&#xf2;" horiz-adv-x="539" d="M443 599l-22 -33q-87 46 -150 126l61 63q48 -82 111 -156zM505 335q0 -128 -89.5 -235.5t-213.5 -107.5q-77 0 -122.5 43t-45.5 125q0 83 39.5 163t111 132.5t153.5 52.5q79 0 123 -45.5t44 -127.5zM158 152q0 -101 65 -101q43 0 80.5 50t57.5 118t20 129q0 102 -64 102 q-43 0 -80.5 -49.5t-58 -118t-20.5 -130.5z" />
<glyph unicode="&#xf3;" horiz-adv-x="539" d="M459 691q-81 -78 -182 -126l-22 34q80 75 142 156zM505 335q0 -128 -89.5 -235.5t-213.5 -107.5q-77 0 -122.5 43t-45.5 125q0 83 39.5 163t111 132.5t153.5 52.5q79 0 123 -45.5t44 -127.5zM158 152q0 -101 65 -101q43 0 80.5 50t57.5 118t20 129q0 102 -64 102 q-43 0 -80.5 -49.5t-58 -118t-20.5 -130.5z" />
<glyph unicode="&#xf4;" horiz-adv-x="539" d="M264 561l-33 22q70 83 112 150l95 8q15 -84 46 -158l-41 -22q-38 38 -68 103q-59 -66 -111 -103zM505 335q0 -128 -89.5 -235.5t-213.5 -107.5q-77 0 -122.5 43t-45.5 125q0 83 39.5 163t111 132.5t153.5 52.5q79 0 123 -45.5t44 -127.5zM158 152q0 -101 65 -101 q43 0 80.5 50t57.5 118t20 129q0 102 -64 102q-43 0 -80.5 -49.5t-58 -118t-20.5 -130.5z" />
<glyph unicode="&#xf5;" horiz-adv-x="539" d="M316 728q28 0 61 -25t51 -25q26 0 60 52l28 -7q-12 -49 -42 -85.5t-68 -36.5q-25 0 -60.5 25t-52.5 25q-28 0 -60 -51l-27 6q13 49 42 85.5t68 36.5zM505 335q0 -128 -89.5 -235.5t-213.5 -107.5q-77 0 -122.5 43t-45.5 125q0 83 39.5 163t111 132.5t153.5 52.5 q79 0 123 -45.5t44 -127.5zM158 152q0 -101 65 -101q43 0 80.5 50t57.5 118t20 129q0 102 -64 102q-43 0 -80.5 -49.5t-58 -118t-20.5 -130.5z" />
<glyph unicode="&#xf6;" horiz-adv-x="539" d="M322 672q-2 -31 -28 -55t-61 -23q-23 0 -36 13t-12 35q2 30 28.5 54t61.5 25q23 1 35.5 -12.5t11.5 -36.5zM528 672q-2 -31 -27.5 -55t-60.5 -23q-23 0 -36.5 13t-11.5 35q2 30 28.5 54t61.5 25q23 1 35.5 -12.5t10.5 -36.5zM505 335q0 -128 -89.5 -235.5t-213.5 -107.5 q-77 0 -122.5 43t-45.5 125q0 83 39.5 163t111 132.5t153.5 52.5q79 0 123 -45.5t44 -127.5zM158 152q0 -101 65 -101q43 0 80.5 50t57.5 118t20 129q0 102 -64 102q-43 0 -80.5 -49.5t-58 -118t-20.5 -130.5z" />
<glyph unicode="&#xf7;" horiz-adv-x="561" d="M392 520q-4 -31 -26 -54t-52 -23q-21 0 -32.5 15t-8.5 36q5 30 28.5 53t51.5 23q21 0 32 -14t7 -36zM477 284h-380l17 78q116 4 382 4zM316 157q-5 -30 -27 -52.5t-51 -22.5q-22 0 -33.5 14.5t-8.5 36.5q5 30 28.5 52.5t51.5 22.5q21 0 32.5 -14t7.5 -37z" />
<glyph unicode="&#xf8;" horiz-adv-x="539" d="M505 335q0 -82 -39 -160.5t-110.5 -130.5t-154.5 -52q-80 0 -125 46l-53 -49l-30 36l57 52q-16 33 -16 83q0 83 39.5 163t111 132.5t153.5 52.5t126 -49l56 52l30 -35l-61 -57q16 -38 16 -84zM317 450q-59 0 -105 -87t-53 -185l219 203q-9 69 -61 69zM223 51q40 0 75 43 t55.5 103t25.5 121l-218 -202q10 -65 62 -65z" />
<glyph unicode="&#xf9;" horiz-adv-x="552" d="M437 599l-22 -33q-87 46 -150 126l61 63q48 -82 111 -156zM96 372l12 128l135 10q-15 -83 -35 -176.5t-30.5 -144.5t-10.5 -68q0 -20 9.5 -32t25.5 -12q44 0 96.5 88t75.5 205q9 45 10 81q0 2 1.5 23t0.5 26l135 10q-12 -65 -35.5 -179t-32.5 -172.5t-9 -105.5 q0 -28 5 -53h-120q-5 28 -5 56q0 54 14 127q-38 -88 -96 -140.5t-116 -52.5q-84 0 -84 102q0 7 0.5 12.5t1.5 14t2 16t3.5 21.5t5 25.5t7.5 34t9 41t11.5 52t13.5 63.5z" />
<glyph unicode="&#xfa;" horiz-adv-x="552" d="M453 691q-81 -78 -182 -126l-22 34q80 75 142 156zM96 372l12 128l135 10q-15 -83 -35 -176.5t-30.5 -144.5t-10.5 -68q0 -20 9.5 -32t25.5 -12q44 0 96.5 88t75.5 205q9 45 10 81q0 2 1.5 23t0.5 26l135 10q-12 -65 -35.5 -179t-32.5 -172.5t-9 -105.5q0 -28 5 -53h-120 q-5 28 -5 56q0 54 14 127q-38 -88 -96 -140.5t-116 -52.5q-84 0 -84 102q0 7 0.5 12.5t1.5 14t2 16t3.5 21.5t5 25.5t7.5 34t9 41t11.5 52t13.5 63.5z" />
<glyph unicode="&#xfb;" horiz-adv-x="552" d="M258 561l-33 22q70 83 112 150l95 8q15 -84 46 -158l-41 -22q-38 38 -68 103q-59 -66 -111 -103zM96 372l12 128l135 10q-15 -83 -35 -176.5t-30.5 -144.5t-10.5 -68q0 -20 9.5 -32t25.5 -12q44 0 96.5 88t75.5 205q9 45 10 81q0 2 1.5 23t0.5 26l135 10 q-12 -65 -35.5 -179t-32.5 -172.5t-9 -105.5q0 -28 5 -53h-120q-5 28 -5 56q0 54 14 127q-38 -88 -96 -140.5t-116 -52.5q-84 0 -84 102q0 7 0.5 12.5t1.5 14t2 16t3.5 21.5t5 25.5t7.5 34t9 41t11.5 52t13.5 63.5z" />
<glyph unicode="&#xfc;" horiz-adv-x="552" d="M316 672q-2 -31 -28 -55t-61 -23q-23 0 -36 13t-12 35q2 30 28.5 54t61.5 25q23 1 35.5 -12.5t11.5 -36.5zM522 672q-2 -31 -27.5 -55t-60.5 -23q-23 0 -36.5 13t-11.5 35q2 30 28.5 54t61.5 25q23 1 35.5 -12.5t10.5 -36.5zM96 372l12 128l135 10q-15 -83 -35 -176.5 t-30.5 -144.5t-10.5 -68q0 -20 9.5 -32t25.5 -12q44 0 96.5 88t75.5 205q9 45 10 81q0 2 1.5 23t0.5 26l135 10q-12 -65 -35.5 -179t-32.5 -172.5t-9 -105.5q0 -28 5 -53h-120q-5 28 -5 56q0 54 14 127q-38 -88 -96 -140.5t-116 -52.5q-84 0 -84 102q0 7 0.5 12.5t1.5 14 t2 16t3.5 21.5t5 25.5t7.5 34t9 41t11.5 52t13.5 63.5z" />
<glyph unicode="&#xfd;" horiz-adv-x="477" d="M404 691q-83 -78 -183 -126l-22 34q83 78 143 156zM252 2q-71 -90 -152.5 -143.5t-152.5 -53.5q-78 0 -78 51q0 36 26 54q38 -12 80 -12q51 0 110.5 34t92.5 82l-86 5q4 99 1 233q-5 150 -24 248l122 10q15 -75 20 -182q4 -116 -12 -260h2q69 110 112.5 228t44.5 205 q30 9 57 9q56 0 56 -47q0 -67 -66 -209t-153 -252z" />
<glyph unicode="&#xfe;" horiz-adv-x="546" d="M520 374q0 -63 -25 -130t-68.5 -124t-110.5 -93.5t-144 -36.5q-19 0 -34 4q-11 -74 -11 -124q0 -30 4 -55h-120q-4 28 -4 52q0 88 45 297l83 392l12 129l135 10q-31 -165 -86 -415q40 101 104 165.5t126 64.5q43 0 68.5 -35.5t25.5 -100.5zM355 429q-49 0 -110 -106.5 t-94 -256.5q-1 -2 -1 -5q25 -11 50 -11q50 0 97 50t73.5 119.5t26.5 129.5q0 37 -11 58.5t-31 21.5z" />
<glyph unicode="&#xff;" horiz-adv-x="477" d="M266 672q-2 -31 -28 -55t-60 -23q-23 0 -36.5 13t-12.5 35q2 30 29 54t61 25q23 1 35.5 -12.5t11.5 -36.5zM473 672q-2 -31 -28 -55t-60 -23q-23 0 -36.5 13t-12.5 35q2 31 28.5 54.5t61.5 24.5q23 1 35.5 -12.5t11.5 -36.5zM252 2q-71 -90 -152.5 -143.5t-152.5 -53.5 q-78 0 -78 51q0 36 26 54q38 -12 80 -12q51 0 110.5 34t92.5 82l-86 5q4 99 1 233q-5 150 -24 248l122 10q15 -75 20 -182q4 -116 -12 -260h2q69 110 112.5 228t44.5 205q30 9 57 9q56 0 56 -47q0 -67 -66 -209t-153 -252z" />
<glyph unicode="&#x100;" horiz-adv-x="574" d="M269 762l15 72h260l-15 -72h-260zM84 0h-112l266 526l60 125l155 9l43 -660h-117l-7 154h-216zM352 566l-165 -347h182l-16 347h-1z" />
<glyph unicode="&#x101;" horiz-adv-x="557" d="M247 624l16 73h245l-16 -73h-245zM26 126q0 64 25 131t68.5 123.5t110.5 93t144 36.5q81 0 150 -32l-40 -175q-35 -153 -35 -247q0 -31 5 -56h-120q-5 27 -5 54q0 64 18 157q-42 -98 -104 -159.5t-122 -61.5q-44 0 -69.5 35.5t-25.5 100.5zM150 152q0 -36 11 -58t30 -22 q46 0 103 95.5t93 234.5q6 24 9 38q-31 11 -49 11q-51 0 -98 -50.5t-73 -119.5t-26 -129z" />
<glyph unicode="&#x102;" horiz-adv-x="574" d="M376 725q-51 0 -78.5 39t-18.5 97l43 7q6 -72 72 -72q62 0 102 73l42 6q-18 -64 -63 -107t-99 -43zM84 0h-112l266 526l60 125l155 9l43 -660h-117l-7 154h-216zM352 566l-165 -347h182l-16 347h-1z" />
<glyph unicode="&#x103;" horiz-adv-x="557" d="M339 573q-50 0 -73.5 44t-9.5 117l44 7q-4 -47 12 -72t46 -25q61 0 102 98l43 6q-21 -77 -65.5 -126t-98.5 -49zM26 126q0 64 25 131t68.5 123.5t110.5 93t144 36.5q81 0 150 -32l-40 -175q-35 -153 -35 -247q0 -31 5 -56h-120q-5 27 -5 54q0 64 18 157 q-42 -98 -104 -159.5t-122 -61.5q-44 0 -69.5 35.5t-25.5 100.5zM150 152q0 -36 11 -58t30 -22q46 0 103 95.5t93 234.5q6 24 9 38q-31 11 -49 11q-51 0 -98 -50.5t-73 -119.5t-26 -129z" />
<glyph unicode="&#x104;" horiz-adv-x="574" d="M84 0h-112l266 526l60 125l155 9l43 -660q-52 -20 -87.5 -52.5t-35.5 -61.5q0 -28 38 -28q18 0 51 12l6 -34q-47 -35 -111 -35q-77 0 -77 53q0 41 40.5 80.5t103.5 65.5h-45l-7 154h-216zM352 566l-165 -347h182l-16 347h-1z" />
<glyph unicode="&#x105;" horiz-adv-x="557" d="M26 126q0 64 25 131t68.5 123.5t110.5 93t144 36.5q81 0 150 -32l-40 -175q-35 -153 -35 -247q0 -31 5 -56q-52 -20 -87.5 -52.5t-35.5 -61.5q0 -28 37 -28q19 0 52 12l5 -34q-45 -35 -111 -35q-76 0 -77 53q0 41 40.5 80.5t103.5 65.5h-47q-5 27 -5 54q0 64 18 157 q-42 -98 -104 -159.5t-122 -61.5q-44 0 -69.5 35.5t-25.5 100.5zM150 152q0 -36 11 -58t30 -22q46 0 103 95.5t93 234.5q6 24 9 38q-31 11 -49 11q-51 0 -98 -50.5t-73 -119.5t-26 -129z" />
<glyph unicode="&#x106;" horiz-adv-x="521" d="M533 804q-94 -62 -205 -89l-16 36q94 62 164 130zM443 113l-5 -87q-75 -36 -161 -36q-107 0 -163 59.5t-56 173.5q0 109 47 209t133 164t189 64q83 0 141 -27l-36 -100q-51 45 -119 45q-67 0 -119 -54t-77 -129.5t-25 -153.5q0 -165 127 -165q68 0 124 37z" />
<glyph unicode="&#x107;" horiz-adv-x="452" d="M425 691q-81 -78 -182 -126l-22 34q80 75 142 156zM379 137l3 -61q-36 -39 -86.5 -62.5t-100.5 -23.5q-75 0 -117.5 43.5t-42.5 129.5q0 135 90 241t214 106q60 0 112 -31l-33 -99q-43 63 -95 63q-63 0 -114 -85.5t-51 -178.5q0 -117 81 -117q65 0 140 75z" />
<glyph unicode="&#x108;" horiz-adv-x="521" d="M295 720l-27 19q67 59 119 123l96 8q25 -70 69 -131l-35 -19q-55 33 -95 79q-65 -49 -127 -79zM443 113l-5 -87q-75 -36 -161 -36q-107 0 -163 59.5t-56 173.5q0 109 47 209t133 164t189 64q83 0 141 -27l-36 -100q-51 45 -119 45q-67 0 -119 -54t-77 -129.5t-25 -153.5 q0 -165 127 -165q68 0 124 37z" />
<glyph unicode="&#x109;" horiz-adv-x="452" d="M230 561l-33 22q70 83 112 150l95 8q15 -84 46 -158l-41 -22q-38 38 -68 103q-59 -66 -111 -103zM379 137l3 -61q-36 -39 -86.5 -62.5t-100.5 -23.5q-75 0 -117.5 43.5t-42.5 129.5q0 135 90 241t214 106q60 0 112 -31l-33 -99q-43 63 -95 63q-63 0 -114 -85.5 t-51 -178.5q0 -117 81 -117q65 0 140 75z" />
<glyph unicode="&#x10a;" horiz-adv-x="521" d="M494 819q0 -33 -28.5 -60t-65.5 -27q-24 0 -38.5 11.5t-14.5 32.5q0 33 29.5 60.5t66.5 27.5q24 0 37.5 -12t13.5 -33zM443 113l-5 -87q-75 -36 -161 -36q-107 0 -163 59.5t-56 173.5q0 109 47 209t133 164t189 64q83 0 141 -27l-36 -100q-51 45 -119 45q-67 0 -119 -54 t-77 -129.5t-25 -153.5q0 -165 127 -165q68 0 124 37z" />
<glyph unicode="&#x10b;" horiz-adv-x="452" d="M397 680q0 -32 -29 -59.5t-66 -27.5q-24 0 -38 12t-14 33q0 33 29 60.5t67 27.5q23 0 37 -12t14 -34zM379 137l3 -61q-36 -39 -86.5 -62.5t-100.5 -23.5q-75 0 -117.5 43.5t-42.5 129.5q0 135 90 241t214 106q60 0 112 -31l-33 -99q-43 63 -95 63q-63 0 -114 -85.5 t-51 -178.5q0 -117 81 -117q65 0 140 75z" />
<glyph unicode="&#x10c;" horiz-adv-x="521" d="M538 873l27 -18q-69 -61 -119 -124l-96 -8q-27 73 -70 132l35 18q55 -33 95 -79q65 49 128 79zM443 113l-5 -87q-75 -36 -161 -36q-107 0 -163 59.5t-56 173.5q0 109 47 209t133 164t189 64q83 0 141 -27l-36 -100q-51 45 -119 45q-67 0 -119 -54t-77 -129.5t-25 -153.5 q0 -165 127 -165q68 0 124 37z" />
<glyph unicode="&#x10d;" horiz-adv-x="452" d="M417 753l33 -23q-70 -83 -112 -150l-95 -8q-16 86 -46 158l41 23q36 -38 67 -104q61 66 112 104zM379 137l3 -61q-36 -39 -86.5 -62.5t-100.5 -23.5q-75 0 -117.5 43.5t-42.5 129.5q0 135 90 241t214 106q60 0 112 -31l-33 -99q-43 63 -95 63q-63 0 -114 -85.5 t-51 -178.5q0 -117 81 -117q65 0 140 75z" />
<glyph unicode="&#x10e;" horiz-adv-x="630" d="M534 873l27 -18q-73 -66 -119 -124l-96 -8q-23 67 -69 132l35 18q51 -31 95 -79q63 48 127 79zM158 528l17 122h182q244 0 244 -239q0 -105 -42.5 -197t-131 -153t-206.5 -61h-175zM309 575h-23l-105 -499h45q61 0 109.5 32t77 83t43.5 108t15 112q0 46 -12 79t-27 49 t-41 24.5t-41.5 10t-40.5 1.5z" />
<glyph unicode="&#x10f;" horiz-adv-x="555" d="M775 705q-49 -109 -130 -201l-40 11q39 90 70 196zM26 126q0 64 25 131t68.5 123.5t110.5 93t144 36.5q13 0 37 -2q2 11 11 49l12 128l135 10q-19 -98 -52.5 -252.5t-49 -241t-15.5 -145.5q0 -31 5 -56h-120q-5 23 -5 53q0 68 19 170q-40 -102 -104 -167.5t-126 -65.5 q-44 0 -69.5 35.5t-25.5 100.5zM150 152q0 -79 41 -81q49 0 110 108.5t95 259.5q-27 12 -49 12q-51 0 -98 -50.5t-73 -119.5t-26 -129z" />
<glyph unicode="&#x110;" horiz-adv-x="630" d="M158 528l17 122h182q244 0 244 -239q0 -105 -42.5 -197t-131 -153t-206.5 -61h-175l63 300h-58l9 51h60zM379 300h-151l-47 -224h45q61 0 109.5 32t77 83t43.5 108t15 112q0 46 -12 79t-27 49t-41 24.5t-41.5 10t-40.5 1.5h-23l-47 -224h150z" />
<glyph unicode="&#x111;" horiz-adv-x="555" d="M26 126q0 64 25 131t68.5 123.5t110.5 93t144 36.5q13 0 37 -2q1 7 4.5 23.5t5.5 25.5h-156l11 51h150l8 77l135 10q-14 -68 -17 -87h72l-11 -51h-72q-9 -42 -26.5 -124t-25.5 -120.5t-18.5 -93.5t-14.5 -93t-4 -70q0 -31 5 -56h-120q-5 23 -5 53q0 68 19 170 q-40 -102 -104 -167.5t-126 -65.5q-44 0 -69.5 35.5t-25.5 100.5zM150 152q0 -79 41 -81q49 0 110 108.5t95 259.5q-27 12 -49 12q-51 0 -98 -50.5t-73 -119.5t-26 -129z" />
<glyph unicode="&#x112;" d="M242 762l15 72h260l-15 -72h-260zM394 0h-348l111 523l18 127h352l-25 -80l-215 7l-47 -219l172 4l-23 -76l-163 3l-46 -216l233 8z" />
<glyph unicode="&#x113;" horiz-adv-x="472" d="M189 624l16 73h245l-16 -73h-245zM397 137l3 -61q-33 -36 -92 -61t-114 -25q-73 0 -116 44.5t-43 130.5q0 83 38.5 162.5t106.5 131t145 51.5q59 0 94.5 -27.5t35.5 -76.5q0 -73 -73.5 -129t-177.5 -62q-14 -1 -44 1q-2 -26 -2 -36q0 -57 23 -87.5t65 -30.5q72 0 151 75z M303 451q-45 -1 -85 -66t-54 -145q88 13 136.5 62t48.5 99q0 22 -12.5 36t-33.5 14z" />
<glyph unicode="&#x114;" d="M349 725q-51 0 -78.5 39t-18.5 97l43 7q6 -72 72 -72q62 0 102 73l42 6q-18 -64 -63 -107t-99 -43zM394 0h-348l111 523l18 127h352l-25 -80l-215 7l-47 -219l172 4l-23 -76l-163 3l-46 -216l233 8z" />
<glyph unicode="&#x115;" horiz-adv-x="472" d="M280 573q-50 0 -73.5 44.5t-9.5 116.5l45 7q-4 -47 11.5 -72t45.5 -25q62 0 103 98l42 6q-21 -77 -65.5 -126t-98.5 -49zM397 137l3 -61q-33 -36 -92 -61t-114 -25q-73 0 -116 44.5t-43 130.5q0 83 38.5 162.5t106.5 131t145 51.5q59 0 94.5 -27.5t35.5 -76.5 q0 -73 -73.5 -129t-177.5 -62q-14 -1 -44 1q-2 -26 -2 -36q0 -57 23 -87.5t65 -30.5q72 0 151 75zM303 451q-45 -1 -85 -66t-54 -145q88 13 136.5 62t48.5 99q0 22 -12.5 36t-33.5 14z" />
<glyph unicode="&#x116;" d="M453 819q0 -33 -28.5 -60t-66.5 -27q-24 0 -38 11.5t-14 32.5q0 33 29 60.5t67 27.5q23 0 37 -12t14 -33zM394 0h-348l111 523l18 127h352l-25 -80l-215 7l-47 -219l172 4l-23 -76l-163 3l-46 -216l233 8z" />
<glyph unicode="&#x117;" horiz-adv-x="472" d="M393 680q0 -32 -29 -59.5t-66 -27.5q-24 0 -38 12t-14 33q0 33 29 60.5t67 27.5q23 0 37 -12t14 -34zM397 137l3 -61q-33 -36 -92 -61t-114 -25q-73 0 -116 44.5t-43 130.5q0 83 38.5 162.5t106.5 131t145 51.5q59 0 94.5 -27.5t35.5 -76.5q0 -73 -73.5 -129t-177.5 -62 q-14 -1 -44 1q-2 -26 -2 -36q0 -57 23 -87.5t65 -30.5q72 0 151 75zM303 451q-45 -1 -85 -66t-54 -145q88 13 136.5 62t48.5 99q0 22 -12.5 36t-33.5 14z" />
<glyph unicode="&#x118;" d="M386 0q-52 -20 -87.5 -52.5t-35.5 -61.5q0 -28 37 -28q19 0 52 12l5 -34q-45 -35 -111 -35q-76 0 -77 53q0 41 40.5 80.5t103.5 65.5h-267l111 523l18 127h352l-25 -80l-215 7l-47 -219l172 4l-23 -76l-163 3l-46 -216l233 8l-19 -81h-8z" />
<glyph unicode="&#x119;" horiz-adv-x="486" d="M366 41q-124 -86 -124 -149q0 -34 37 -34q19 0 52 12l5 -34q-46 -35 -111 -35q-75 0 -77 56q1 67 90 136q-18 -3 -36 -3q-73 0 -116.5 45t-43.5 130q0 129 87 237t204 108q59 0 94 -27.5t35 -76.5q0 -73 -73 -129t-177 -62q-16 -1 -44 1q-2 -13 -2 -36q0 -57 22.5 -87.5 t65.5 -30.5q73 0 150 75l3 -61q-16 -19 -42 -35h1zM310 451q-44 -1 -84.5 -66t-54.5 -145q88 13 136.5 62t48.5 99q0 22 -12 36t-34 14z" />
<glyph unicode="&#x11a;" d="M496 873l27 -18q-73 -66 -119 -124l-96 -8q-23 67 -69 132l35 18q51 -31 95 -79q63 48 127 79zM394 0h-348l111 523l18 127h352l-25 -80l-215 7l-47 -219l172 4l-23 -76l-163 3l-46 -216l233 8z" />
<glyph unicode="&#x11b;" horiz-adv-x="472" d="M413 753l33 -23q-70 -83 -112 -150l-95 -8q-16 86 -46 158l41 23q36 -38 67 -104q61 66 112 104zM397 137l3 -61q-33 -36 -92 -61t-114 -25q-73 0 -116 44.5t-43 130.5q0 83 38.5 162.5t106.5 131t145 51.5q59 0 94.5 -27.5t35.5 -76.5q0 -73 -73.5 -129t-177.5 -62 q-14 -1 -44 1q-2 -26 -2 -36q0 -57 23 -87.5t65 -30.5q72 0 151 75zM303 451q-45 -1 -85 -66t-54 -145q88 13 136.5 62t48.5 99q0 22 -12.5 36t-33.5 14z" />
<glyph unicode="&#x11c;" horiz-adv-x="572" d="M317 720l-27 19q67 59 119 123l96 8q25 -70 69 -131l-35 -19q-55 33 -95 79q-65 -49 -127 -79zM467 26q-88 -36 -180 -36q-112 0 -171 60t-59 175q0 109 48.5 208t139 163t200.5 64q77 0 140 -27l-36 -101q-48 46 -118 46q-73 0 -129.5 -52.5t-84 -128.5t-27.5 -157 q0 -176 143 -176q15 -1 39 2l21 98l18 123l114 10z" />
<glyph unicode="&#x11d;" d="M207 561l-33 22q64 74 113 150l94 8q14 -80 47 -158l-42 -22q-36 36 -67 103q-62 -67 -112 -103zM403 -51q0 -65 -74.5 -104.5t-188.5 -39.5q-89 0 -140 26t-51 76q0 38 25.5 66.5t61.5 40.5l10 -11q-22 -58 -9 -99q21 -63 111 -63q51 0 90.5 22t39.5 53q0 20 -20.5 35.5 t-49.5 26.5t-58.5 22t-50 29t-20.5 41q0 33 35 60t92 37v3q-150 0 -150 121q0 85 67 152t180 67q131 0 210 8q16 -15 16 -35q0 -17 -13 -30.5t-34 -13.5q-13 0 -29 5.5t-43 17.5t-45 19l-2 -3q88 -39 88 -115q0 -60 -42 -110t-117 -84q-5 -2 -19.5 -8t-25 -11t-22 -11.5 t-18 -14t-6.5 -14.5q0 -15 31.5 -28.5t69.5 -25t69.5 -39.5t31.5 -68zM173 277q0 -68 47 -68q45 0 79 61t34 120q0 66 -49 66q-47 0 -79 -60t-32 -119z" />
<glyph unicode="&#x11e;" horiz-adv-x="572" d="M412 725q-51 0 -78.5 39t-18.5 97l43 7q3 -34 21.5 -53t50.5 -19q64 0 102 73l43 6q-18 -64 -63 -107t-100 -43zM467 26q-88 -36 -180 -36q-112 0 -171 60t-59 175q0 109 48.5 208t139 163t200.5 64q77 0 140 -27l-36 -101q-48 46 -118 46q-73 0 -129.5 -52.5t-84 -128.5 t-27.5 -157q0 -176 143 -176q15 -1 39 2l21 98l18 123l114 10z" />
<glyph unicode="&#x11f;" d="M294 573q-50 0 -73.5 44.5t-9.5 116.5l45 7q-4 -47 11.5 -72t45.5 -25q62 0 103 98l42 6q-21 -77 -65.5 -126t-98.5 -49zM403 -51q0 -65 -74.5 -104.5t-188.5 -39.5q-89 0 -140 26t-51 76q0 38 25.5 66.5t61.5 40.5l10 -11q-22 -58 -9 -99q21 -63 111 -63q51 0 90.5 22 t39.5 53q0 20 -20.5 35.5t-49.5 26.5t-58.5 22t-50 29t-20.5 41q0 33 35 60t92 37v3q-150 0 -150 121q0 85 67 152t180 67q131 0 210 8q16 -15 16 -35q0 -17 -13 -30.5t-34 -13.5q-13 0 -29 5.5t-43 17.5t-45 19l-2 -3q88 -39 88 -115q0 -60 -42 -110t-117 -84 q-5 -2 -19.5 -8t-25 -11t-22 -11.5t-18 -14t-6.5 -14.5q0 -15 31.5 -28.5t69.5 -25t69.5 -39.5t31.5 -68zM173 277q0 -68 47 -68q45 0 79 61t34 120q0 66 -49 66q-47 0 -79 -60t-32 -119z" />
<glyph unicode="&#x120;" horiz-adv-x="572" d="M516 819q0 -33 -28.5 -60t-65.5 -27q-24 0 -38.5 11.5t-14.5 32.5q0 33 29.5 60.5t66.5 27.5q24 0 37.5 -12t13.5 -33zM467 26q-88 -36 -180 -36q-112 0 -171 60t-59 175q0 109 48.5 208t139 163t200.5 64q77 0 140 -27l-36 -101q-48 46 -118 46q-73 0 -129.5 -52.5 t-84 -128.5t-27.5 -157q0 -176 143 -176q15 -1 39 2l21 98l18 123l114 10z" />
<glyph unicode="&#x121;" d="M388 680q0 -32 -29 -59.5t-66 -27.5q-24 0 -38 12t-14 33q0 33 29 60.5t67 27.5q23 0 37 -12t14 -34zM403 -51q0 -65 -74.5 -104.5t-188.5 -39.5q-89 0 -140 26t-51 76q0 38 25.5 66.5t61.5 40.5l10 -11q-22 -58 -9 -99q21 -63 111 -63q51 0 90.5 22t39.5 53 q0 20 -20.5 35.5t-49.5 26.5t-58.5 22t-50 29t-20.5 41q0 33 35 60t92 37v3q-150 0 -150 121q0 85 67 152t180 67q131 0 210 8q16 -15 16 -35q0 -17 -13 -30.5t-34 -13.5q-13 0 -29 5.5t-43 17.5t-45 19l-2 -3q88 -39 88 -115q0 -60 -42 -110t-117 -84q-5 -2 -19.5 -8 t-25 -11t-22 -11.5t-18 -14t-6.5 -14.5q0 -15 31.5 -28.5t69.5 -25t69.5 -39.5t31.5 -68zM173 277q0 -68 47 -68q45 0 79 61t34 120q0 66 -49 66q-47 0 -79 -60t-32 -119z" />
<glyph unicode="&#x122;" horiz-adv-x="572" d="M467 26q-88 -36 -180 -36q-112 0 -171 60t-59 175q0 109 48.5 208t139 163t200.5 64q77 0 140 -27l-36 -101q-48 46 -118 46q-73 0 -129.5 -52.5t-84 -128.5t-27.5 -157q0 -176 143 -176q15 -1 39 2l21 98l18 123l114 10zM339 -125q-2 -38 -34 -84.5t-71 -78.5l-25 20 q33 49 46 80q-37 9 -34 47q1 30 23.5 51t50.5 21q22 0 34 -15t10 -41z" />
<glyph unicode="&#x123;" d="M254 630q2 39 34 85t71 78l24 -19q-33 -49 -46 -81q37 -7 34 -46q-1 -30 -23 -51.5t-51 -21.5q-22 0 -33.5 15t-9.5 41zM403 -51q0 -65 -74.5 -104.5t-188.5 -39.5q-89 0 -140 26t-51 76q0 38 25.5 66.5t61.5 40.5l10 -11q-22 -58 -9 -99q21 -63 111 -63q51 0 90.5 22 t39.5 53q0 20 -20.5 35.5t-49.5 26.5t-58.5 22t-50 29t-20.5 41q0 33 35 60t92 37v3q-150 0 -150 121q0 85 67 152t180 67q131 0 210 8q16 -15 16 -35q0 -17 -13 -30.5t-34 -13.5q-13 0 -29 5.5t-43 17.5t-45 19l-2 -3q88 -39 88 -115q0 -60 -42 -110t-117 -84 q-5 -2 -19.5 -8t-25 -11t-22 -11.5t-18 -14t-6.5 -14.5q0 -15 31.5 -28.5t69.5 -25t69.5 -39.5t31.5 -68zM173 277q0 -68 47 -68q45 0 79 61t34 120q0 66 -49 66q-47 0 -79 -60t-32 -119z" />
<glyph unicode="&#x124;" horiz-adv-x="655" d="M313 720l-27 19q67 59 119 123l96 8q25 -70 69 -131l-35 -19q-55 33 -95 79q-65 -49 -127 -79zM165 0h-119l112 528l17 122l130 10l-68 -318h229l39 186l18 122l129 11l-140 -661h-118l58 275h-229z" />
<glyph unicode="&#x125;" horiz-adv-x="550" d="M98 721l-27 19q63 54 119 123l96 8q28 -75 70 -131l-35 -19q-52 30 -96 79q-63 -48 -127 -79zM454 0h-120q-4 29 -4 60q0 56 25 177t25 140q0 21 -11 33.5t-27 12.5q-46 0 -100 -89.5t-71 -202.5q-6 -46 -6 -83q0 -18 5 -48h-120q-5 32 -5 53q0 85 45 296l45 208l12 128 l135 10q-17 -86 -45.5 -219.5t-35.5 -169.5q39 92 97 148t119 56q40 0 64.5 -23.5t24.5 -73.5q0 -30 -28 -159.5t-28 -204.5q0 -28 4 -49z" />
<glyph unicode="&#x126;" horiz-adv-x="655" d="M165 0h-119l98 464h-69l12 60h70l1 4l17 122l130 10l-29 -136h228l1 4l18 122l129 11l-29 -137h66l-12 -60h-67l-98 -464h-118l58 275h-229zM237 342h229l25 122h-228z" />
<glyph unicode="&#x127;" horiz-adv-x="550" d="M454 0h-120q-4 29 -4 60q0 56 25 177t25 140q0 21 -11 33.5t-27 12.5q-46 0 -100 -89.5t-71 -202.5q-6 -46 -6 -83q0 -18 5 -48h-120q-5 32 -5 53q0 85 45 296l45 208v7h-75l11 51h69l7 70l135 10q-3 -15 -8.5 -42t-7.5 -38h153l-11 -51h-152q-11 -54 -30 -141t-25 -117 q39 92 97 148t119 56q40 0 64.5 -23.5t24.5 -73.5q0 -30 -28 -159.5t-28 -204.5q0 -28 4 -49z" />
<glyph unicode="&#x128;" horiz-adv-x="308" d="M228 859q26 0 57 -21.5t49 -21.5q27 0 64 47l27 -7q-14 -48 -44 -82.5t-69 -34.5q-24 0 -57.5 21t-49.5 21q-30 0 -64 -47l-28 7q16 49 45.5 83.5t69.5 34.5zM165 0h-119l112 528l17 122l130 10z" />
<glyph unicode="&#x129;" horiz-adv-x="274" d="M186 730q22 0 42 -24t31 -24q25 0 48 50l33 -7q-14 -54 -40 -90t-59 -36q-22 0 -42.5 23.5t-31.5 23.5q-25 0 -49 -49l-32 6q14 54 40.5 90.5t59.5 36.5zM243 510q-12 -65 -35.5 -179t-32.5 -172.5t-9 -105.5q0 -28 5 -53h-120q-5 26 -5 53q0 85 25 203l25 114l12 130z " />
<glyph unicode="&#x12a;" horiz-adv-x="308" d="M139 762l14 72h243l-14 -72h-243zM165 0h-119l112 528l17 122l130 10z" />
<glyph unicode="&#x12b;" horiz-adv-x="274" d="M118 624l13 73h194l-13 -73h-194zM243 510q-12 -65 -35.5 -179t-32.5 -172.5t-9 -105.5q0 -28 5 -53h-120q-5 26 -5 53q0 85 25 203l25 114l12 130z" />
<glyph unicode="&#x12c;" horiz-adv-x="308" d="M238 725q-51 0 -78.5 39t-18.5 97l43 7q3 -34 21.5 -53t50.5 -19q64 0 102 73l43 6q-18 -64 -63 -107t-100 -43zM165 0h-119l112 528l17 122l130 10z" />
<glyph unicode="&#x12d;" horiz-adv-x="274" d="M175 569q-47 0 -66.5 46t-2.5 125l46 7q-10 -101 43 -101q54 0 87 102l45 6q-19 -83 -60 -134t-92 -51zM243 510q-12 -65 -35.5 -179t-32.5 -172.5t-9 -105.5q0 -28 5 -53h-120q-5 26 -5 53q0 85 25 203l25 114l12 130z" />
<glyph unicode="&#x12e;" horiz-adv-x="297" d="M172 0q-39 -19 -70.5 -50t-33.5 -58q-2 -16 7.5 -25t29.5 -9q18 0 51 12l6 -34q-47 -35 -111 -35q-39 0 -59.5 16.5t-16.5 47.5q4 38 41.5 74t90.5 61h-54l112 528l18 122l129 10z" />
<glyph unicode="&#x12f;" horiz-adv-x="274" d="M293 680q0 -32 -28.5 -59.5t-65.5 -27.5q-24 0 -38.5 12t-14.5 33q0 33 29.5 60.5t66.5 27.5q51 0 51 -46zM178 0q-41 -24 -68.5 -55.5t-27.5 -56.5q0 -30 38 -30q18 0 51 12l6 -34q-47 -35 -111 -35q-35 0 -56 14.5t-21 41.5q0 38 35.5 77t91.5 66h-58q-4 21 -4 53 q0 85 25 203l24 114l13 130l135 10q-11 -59 -28 -143.5t-26 -129t-16 -96.5t-7 -88q0 -26 4 -53z" />
<glyph unicode="&#x130;" horiz-adv-x="308" d="M342 819q0 -33 -28.5 -60t-65.5 -27q-24 0 -38.5 11.5t-14.5 32.5q0 33 29.5 60.5t66.5 27.5q24 0 37.5 -12t13.5 -33zM165 0h-119l112 528l17 122l130 10z" />
<glyph unicode="&#x131;" horiz-adv-x="274" d="M243 510q-12 -65 -35.5 -179t-32.5 -172.5t-9 -105.5q0 -28 5 -53h-120q-5 26 -5 53q0 85 25 203l25 114l12 130z" />
<glyph unicode="&#x132;" horiz-adv-x="614" d="M165 0h-119l112 528l17 122l130 10zM235 -140q95 34 121 154l109 514l18 122l128 10l-123 -582q-10 -45 -20 -77t-29.5 -67.5t-45.5 -59.5t-67 -42.5t-94 -26.5z" />
<glyph unicode="&#x133;" horiz-adv-x="543" d="M286 680q0 -32 -29 -59.5t-66 -27.5q-24 0 -38 12t-14 33q0 33 29 60.5t67 27.5q23 0 37 -12t14 -34zM567 680q0 -32 -28.5 -59.5t-65.5 -27.5q-24 0 -38.5 12t-14.5 33q0 33 29.5 60.5t66.5 27.5q51 0 51 -46zM243 510q-12 -65 -35.5 -179t-32.5 -172.5t-9 -105.5 q0 -28 5 -53h-120q-5 26 -5 53q0 85 25 203l25 114l12 130zM521 510q-52 -253 -103 -496q-19 -86 -71.5 -138.5t-147.5 -70.5l-18 44q53 27 79 68t39 102l75 353l12 128z" />
<glyph unicode="&#x134;" horiz-adv-x="307" d="M133 720l-27 19q63 54 119 123l96 8q28 -75 70 -131l-35 -19q-52 30 -96 79q-63 -48 -127 -79zM-73 -140q97 35 121 154l110 514l17 122l129 10l-124 -582q-12 -56 -26.5 -95.5t-42 -79t-74.5 -64.5t-113 -34z" />
<glyph unicode="&#x135;" horiz-adv-x="270" d="M130 568l-30 18q39 64 90 163l96 8q7 -98 22 -171l-36 -18q-27 43 -49 109q-45 -59 -93 -109zM247 510q-22 -112 -103 -496q-36 -174 -219 -209l-18 44q53 27 79 68t39 102l75 353l13 128z" />
<glyph unicode="&#x136;" horiz-adv-x="562" d="M158 528l17 122l130 10l-66 -310h65l208 310l110 -10l-231 -332l98 -318l-126 -10l-74 293h-64l-60 -283h-119zM283 -125q-2 -38 -34 -84.5t-71 -78.5l-25 20q33 49 46 80q-37 9 -34 47q1 30 23.5 51t50.5 21q22 0 34 -15t10 -41z" />
<glyph unicode="&#x137;" horiz-adv-x="520" d="M170 0h-120q-5 28 -5 49q0 89 45 300l45 208l12 128l135 10q-3 -15 -82 -390q40 93 103 149t127 56q40 0 63 -22t23 -60q0 -104 -176 -205q47 -120 122 -223l-132 -10q-72 109 -105 214q166 104 166 184q0 20 -10.5 31.5t-28.5 11.5q-59 0 -119 -111t-67 -240v-3 q-1 -6 -1 -19v-4v-1q0 -29 5 -53zM291 -125q-2 -38 -34 -84.5t-71 -78.5l-25 20q33 49 46 80q-37 9 -34 47q1 30 23.5 51t50.5 21q22 0 34 -15t10 -41z" />
<glyph unicode="&#x138;" horiz-adv-x="513" d="M170 0h-120q-4 28 -4 49q0 92 50 323l12 128l135 10q-12 -64 -33 -162.5t-28 -137.5h1q55 140 124.5 220t134.5 80q45 0 72 -22l-55 -103q-35 19 -64 19q-41 0 -87 -39q4 -79 46 -178t106 -187l-128 -10q-39 56 -70 128t-42 131q-54 -106 -54 -197q0 -27 4 -52zM262 321 l6 7q-1 -1 -3 -3.5t-3 -3.5z" />
<glyph unicode="&#x139;" horiz-adv-x="465" d="M386 804q-95 -63 -205 -89l-15 36q91 60 163 130zM392 0h-346l112 528l17 122l130 10l-125 -587l232 13z" />
<glyph unicode="&#x13a;" horiz-adv-x="273" d="M359 826q-97 -64 -205 -90l-15 36q92 62 163 130zM282 695q-19 -100 -52.5 -253t-49 -240t-15.5 -148q0 -29 5 -54h-120q-5 28 -5 49q0 89 45 300l45 208l12 128z" />
<glyph unicode="&#x13b;" horiz-adv-x="465" d="M392 0h-346l112 528l17 122l130 10l-125 -587l232 13zM250 -125q-2 -38 -34 -84.5t-71 -78.5l-25 20q33 49 46 80q-37 9 -34 47q1 30 23.5 51t50.5 21q22 0 34 -15t10 -41z" />
<glyph unicode="&#x13c;" horiz-adv-x="273" d="M282 695q-19 -100 -52.5 -253t-49 -240t-15.5 -148q0 -29 5 -54h-120q-5 28 -5 49q0 89 45 300l45 208l12 128zM125 -125q-2 -39 -34 -85t-71 -78l-25 20q30 42 46 80q-36 9 -33 47q1 30 23 51t51 21q22 0 33.5 -15t9.5 -41z" />
<glyph unicode="&#x13d;" horiz-adv-x="465" d="M529 696q-46 -106 -130 -201l-39 10q41 96 70 197zM392 0h-346l112 528l17 122l130 10l-125 -587l232 13z" />
<glyph unicode="&#x13e;" horiz-adv-x="273" d="M469 712q-46 -106 -130 -201l-39 11q39 90 70 196zM282 695q-19 -100 -52.5 -253t-49 -240t-15.5 -148q0 -29 5 -54h-120q-5 28 -5 49q0 89 45 300l45 208l12 128z" />
<glyph unicode="&#x13f;" horiz-adv-x="566" d="M392 0h-346l112 528l17 122l130 10l-125 -587l232 13zM435 265q-20 0 -32 12t-12 32q0 29 23.5 53t53.5 24q20 0 32 -11t12 -30q0 -30 -23 -55t-54 -25z" />
<glyph unicode="&#x140;" horiz-adv-x="499" d="M282 695q-19 -100 -52.5 -253t-49 -240t-15.5 -148q0 -29 5 -54h-120q-5 28 -5 49q0 89 45 300l45 208l12 128zM366 227q-20 0 -32 12.5t-12 32.5q0 29 23.5 52.5t53.5 23.5q20 0 32 -10.5t12 -29.5q0 -30 -23 -55.5t-54 -25.5z" />
<glyph unicode="&#x141;" horiz-adv-x="465" d="M392 0h-346l51 244l-77 -40l-15 48l106 55l47 221l17 122l130 10l-61 -283l131 69l16 -48l-160 -84l-51 -241l232 13z" />
<glyph unicode="&#x142;" horiz-adv-x="273" d="M354 469l-134 -70q-55 -259 -55 -345q0 -29 5 -54h-120q-5 28 -5 49q0 87 41 280l-104 -54l-15 48l132 69l36 165l12 128l135 10q-11 -59 -48 -233l104 55z" />
<glyph unicode="&#x143;" horiz-adv-x="646" d="M552 804q-94 -62 -205 -89l-16 36q94 62 164 130zM158 528l17 122l103 10l169 -502h2l95 492l99 10l-140 -660h-106l-160 483h-2l-93 -483h-96z" />
<glyph unicode="&#x144;" horiz-adv-x="550" d="M449 691q-81 -78 -182 -126l-22 34q80 75 142 156zM170 0h-120q-4 28 -4 49q0 92 50 323l12 128l135 10q-7 -35 -14.5 -71.5t-15.5 -76t-12 -58.5q38 92 96.5 149t120.5 57q44 0 69 -29t17 -90q-4 -30 -29 -152t-25 -190q0 -22 5 -49h-120q-5 28 -5 60q0 37 7.5 82.5 t21 111t20.5 111.5q2 26 -8 42t-28 16q-33 0 -72.5 -48t-69.5 -128.5t-35 -163.5v-31q0 -27 4 -52z" />
<glyph unicode="&#x145;" horiz-adv-x="646" d="M158 528l17 122l103 10l169 -502h2l95 492l99 10l-140 -660h-106l-160 483h-2l-93 -483h-96zM318 -125q-2 -39 -34 -85t-71 -78l-24 20q30 45 45 80q-36 9 -33 47q1 30 23 51t51 21q22 0 33.5 -15t9.5 -41z" />
<glyph unicode="&#x146;" horiz-adv-x="550" d="M170 0h-120q-4 28 -4 49q0 92 50 323l12 128l135 10q-7 -35 -14.5 -71.5t-15.5 -76t-12 -58.5q38 92 96.5 149t120.5 57q44 0 69 -29t17 -90q-4 -30 -29 -152t-25 -190q0 -22 5 -49h-120q-5 28 -5 60q0 37 7.5 82.5t21 111t20.5 111.5q2 26 -8 42t-28 16q-33 0 -72.5 -48 t-69.5 -128.5t-35 -163.5v-31q0 -27 4 -52zM273 -125q-2 -38 -34 -84.5t-71 -78.5l-25 20q33 49 46 80q-37 9 -34 47q1 30 23.5 51t50.5 21q22 0 34 -15t10 -41z" />
<glyph unicode="&#x147;" horiz-adv-x="646" d="M557 873l27 -18q-69 -61 -119 -124l-96 -8q-27 73 -70 132l35 18q55 -33 95 -79q65 49 128 79zM158 528l17 122l103 10l169 -502h2l95 492l99 10l-140 -660h-106l-160 483h-2l-93 -483h-96z" />
<glyph unicode="&#x148;" horiz-adv-x="550" d="M441 753l33 -23q-70 -83 -112 -150l-95 -8q-16 86 -46 158l41 23q36 -38 67 -104q61 66 112 104zM170 0h-120q-4 28 -4 49q0 92 50 323l12 128l135 10q-7 -35 -14.5 -71.5t-15.5 -76t-12 -58.5q38 92 96.5 149t120.5 57q44 0 69 -29t17 -90q-4 -30 -29 -152t-25 -190 q0 -22 5 -49h-120q-5 28 -5 60q0 37 7.5 82.5t21 111t20.5 111.5q2 26 -8 42t-28 16q-33 0 -72.5 -48t-69.5 -128.5t-35 -163.5v-31q0 -27 4 -52z" />
<glyph unicode="&#x149;" horiz-adv-x="736" d="M290 649q0 -49 -50 -116.5t-111 -106.5l-17 23q64 63 93 127q-34 7 -34 43q0 30 22.5 53.5t52.5 23.5q44 0 44 -47zM356 0h-120q-4 28 -4 49q0 92 50 323l12 128l135 10q-7 -35 -14.5 -71.5t-15.5 -76t-12 -58.5q38 92 96.5 149t120.5 57q44 0 69 -29t17 -90 q-4 -30 -29 -152t-25 -190q0 -22 5 -49h-120q-5 28 -5 60q0 37 7.5 82.5t21 111t20.5 111.5q2 26 -8 42t-28 16q-33 0 -72.5 -48t-69.5 -128.5t-35 -163.5v-31q0 -27 4 -52z" />
<glyph unicode="&#x14a;" horiz-adv-x="646" d="M267 -140q96 36 121 154l1 7l-152 462h-2l-93 -483h-96l112 528l17 122l103 10l169 -502h2l95 492l99 10l-116 -550h-1l-6 -32q-10 -44 -20 -76.5t-29.5 -68t-45.5 -59.5t-67 -42.5t-94 -26.5z" />
<glyph unicode="&#x14b;" horiz-adv-x="521" d="M170 0h-120q-4 28 -4 49q0 92 50 323l12 128l135 10q-7 -35 -14.5 -71.5t-15.5 -76t-12 -58.5q38 92 96 149t120 57q41 0 65.5 -24t24.5 -71q0 -39 -80 -402q-36 -173 -218 -208l-19 44q53 27 79.5 68t38.5 102q13 62 27 127t21.5 97.5t13.5 63t8.5 45.5t2.5 24 q0 47 -39 47q-51 0 -110 -107.5t-66 -232.5v-31q0 -27 4 -52z" />
<glyph unicode="&#x14c;" horiz-adv-x="631" d="M295 762l15 72h260l-15 -72h-260zM607 435q0 -107 -43.5 -208t-127 -169t-185.5 -68q-93 0 -144 58t-51 167q0 106 44 207.5t128 169.5t185 68q94 0 144 -58t50 -167zM187 203q0 -69 23.5 -107.5t68.5 -38.5q56 0 103 68.5t70.5 158t23.5 167.5q0 68 -22.5 105t-66.5 37 q-57 0 -104.5 -67.5t-71.5 -156t-24 -166.5z" />
<glyph unicode="&#x14d;" horiz-adv-x="539" d="M227 624l16 73h245l-16 -73h-245zM505 335q0 -128 -89.5 -235.5t-213.5 -107.5q-77 0 -122.5 43t-45.5 125q0 83 39.5 163t111 132.5t153.5 52.5q79 0 123 -45.5t44 -127.5zM158 152q0 -101 65 -101q43 0 80.5 50t57.5 118t20 129q0 102 -64 102q-43 0 -80.5 -49.5 t-58 -118t-20.5 -130.5z" />
<glyph unicode="&#x14e;" horiz-adv-x="631" d="M401 725q-51 0 -78.5 39t-18.5 97l43 7q3 -34 21.5 -53t50.5 -19q64 0 102 73l43 6q-18 -64 -63 -107t-100 -43zM607 435q0 -107 -43.5 -208t-127 -169t-185.5 -68q-93 0 -144 58t-51 167q0 106 44 207.5t128 169.5t185 68q94 0 144 -58t50 -167zM187 203 q0 -69 23.5 -107.5t68.5 -38.5q56 0 103 68.5t70.5 158t23.5 167.5q0 68 -22.5 105t-66.5 37q-57 0 -104.5 -67.5t-71.5 -156t-24 -166.5z" />
<glyph unicode="&#x14f;" horiz-adv-x="539" d="M318 573q-50 0 -73.5 44.5t-9.5 116.5l45 7q-4 -47 11.5 -72t45.5 -25q62 0 103 98l42 6q-21 -77 -65.5 -126t-98.5 -49zM505 335q0 -128 -89.5 -235.5t-213.5 -107.5q-77 0 -122.5 43t-45.5 125q0 83 39.5 163t111 132.5t153.5 52.5q79 0 123 -45.5t44 -127.5zM158 152 q0 -101 65 -101q43 0 80.5 50t57.5 118t20 129q0 102 -64 102q-43 0 -80.5 -49.5t-58 -118t-20.5 -130.5z" />
<glyph unicode="&#x150;" horiz-adv-x="631" d="M436 813q-101 -68 -212 -96l-16 35q99 60 174 130zM657 813q-101 -69 -213 -96l-15 35q102 63 174 130zM607 435q0 -107 -43.5 -208t-127 -169t-185.5 -68q-93 0 -144 58t-51 167q0 106 44 207.5t128 169.5t185 68q94 0 144 -58t50 -167zM187 203q0 -69 23.5 -107.5 t68.5 -38.5q56 0 103 68.5t70.5 158t23.5 167.5q0 68 -22.5 105t-66.5 37q-57 0 -104.5 -67.5t-71.5 -156t-24 -166.5z" />
<glyph unicode="&#x151;" horiz-adv-x="539" d="M374 740q-58 -99 -144 -173l-33 12q66 99 102 176zM517 740q-58 -99 -144 -173l-33 12q66 99 102 176zM505 335q0 -128 -89.5 -235.5t-213.5 -107.5q-77 0 -122.5 43t-45.5 125q0 83 39.5 163t111 132.5t153.5 52.5q79 0 123 -45.5t44 -127.5zM158 152q0 -101 65 -101 q43 0 80.5 50t57.5 118t20 129q0 102 -64 102q-43 0 -80.5 -49.5t-58 -118t-20.5 -130.5z" />
<glyph unicode="&#x152;" horiz-adv-x="806" d="M706 0h-381q-33 -10 -73 -10q-93 0 -144 59t-51 169q0 106 43.5 206.5t126 168t181.5 67.5q40 0 70 -10h360l-24 -80l-244 5q33 -56 33 -143q-2 -49 -6 -74l127 4l-24 -76l-118 3q-38 -131 -127 -214l270 6zM187 206q0 -68 23 -106t67 -38q43 0 81 39.5t62.5 99t39 125.5 t14.5 122q0 67 -22.5 103.5t-66.5 36.5q-56 0 -103.5 -66t-71 -152.5t-23.5 -163.5z" />
<glyph unicode="&#x153;" horiz-adv-x="801" d="M725 137l3 -61q-31 -36 -90.5 -61t-113.5 -25q-102 0 -135 89q-84 -87 -189 -87q-76 0 -121 43t-45 126q0 129 91 238t210 109q105 0 141 -85q80 87 180 87q57 0 92 -27.5t35 -76.5q0 -73 -73 -128.5t-177 -62.5q-16 -1 -44 1q-2 -13 -2 -36q0 -57 22.5 -87.5t65.5 -30.5 q73 0 150 75zM631 451q-44 -1 -84.5 -66t-54.5 -145q88 13 136.5 62t48.5 99q0 22 -12 36t-34 14zM158 152q0 -101 65 -101q43 0 80.5 50t57.5 118t20 129q0 102 -64 102q-43 0 -80.5 -49.5t-58 -118t-20.5 -130.5z" />
<glyph unicode="&#x154;" horiz-adv-x="560" d="M514 804q-94 -62 -205 -89l-16 36q94 62 164 130zM165 0h-119l112 528l17 122h183q198 0 198 -159q0 -77 -44.5 -137t-121.5 -91l85 -263l-128 -10l-59 248q-30 -2 -45 -2h-28zM319 580h-31l-59 -274h34q81 0 125.5 53t44.5 122q0 28 -9 48t-20 29.5t-30 15t-29 6 t-26 0.5z" />
<glyph unicode="&#x155;" horiz-adv-x="400" d="M397 691q-81 -78 -182 -126l-22 34q80 75 142 156zM170 0h-120q-4 28 -4 49q0 92 50 323l12 128l135 10q-9 -47 -24 -119t-19 -92q29 95 73 153t96 58q41 0 68 -25l-49 -99q-26 16 -60 16q-40 0 -78 -53.5t-61 -136.5t-23 -165q0 -24 4 -47z" />
<glyph unicode="&#x156;" horiz-adv-x="560" d="M165 0h-119l112 528l17 122h183q198 0 198 -159q0 -77 -44.5 -137t-121.5 -91l85 -263l-128 -10l-59 248q-30 -2 -45 -2h-28zM319 580h-31l-59 -274h34q81 0 125.5 53t44.5 122q0 28 -9 48t-20 29.5t-30 15t-29 6t-26 0.5zM288 -125q-2 -38 -34 -84.5t-71 -78.5l-25 20 q33 49 46 80q-37 9 -34 47q1 30 23.5 51t50.5 21q22 0 34 -15t10 -41z" />
<glyph unicode="&#x157;" horiz-adv-x="400" d="M170 0h-120q-4 28 -4 49q0 92 50 323l12 128l135 10q-9 -47 -24 -119t-19 -92q29 95 73 153t96 58q41 0 68 -25l-49 -99q-26 16 -60 16q-40 0 -78 -53.5t-61 -136.5t-23 -165q0 -24 4 -47zM144 -125q-2 -39 -34 -85t-71 -78l-25 20q30 42 46 80q-36 9 -33 47q1 30 23 51 t51 21q22 0 33.5 -15t9.5 -41z" />
<glyph unicode="&#x158;" horiz-adv-x="560" d="M519 873l27 -18q-69 -61 -119 -124l-96 -8q-27 73 -70 132l35 18q55 -33 95 -79q65 49 128 79zM165 0h-119l112 528l17 122h183q198 0 198 -159q0 -77 -44.5 -137t-121.5 -91l85 -263l-128 -10l-59 248q-30 -2 -45 -2h-28zM319 580h-31l-59 -274h34q81 0 125.5 53 t44.5 122q0 28 -9 48t-20 29.5t-30 15t-29 6t-26 0.5z" />
<glyph unicode="&#x159;" horiz-adv-x="400" d="M389 753l33 -23q-70 -83 -112 -150l-95 -8q-16 86 -46 158l41 23q36 -38 67 -104q61 66 112 104zM170 0h-120q-4 28 -4 49q0 92 50 323l12 128l135 10q-9 -47 -24 -119t-19 -92q29 95 73 153t96 58q41 0 68 -25l-49 -99q-26 16 -60 16q-40 0 -78 -53.5t-61 -136.5 t-23 -165q0 -24 4 -47z" />
<glyph unicode="&#x15a;" horiz-adv-x="484" d="M488 804q-95 -63 -205 -89l-15 36q91 60 163 130zM421 195q0 -89 -76.5 -147t-182.5 -58q-96 0 -164 28l41 111q27 -24 66 -40.5t75 -16.5q49 0 79.5 27.5t30.5 67.5q0 27 -19.5 52t-47 46.5t-55 46t-47 60t-19.5 78.5q0 90 77 150t193 60q76 0 134 -22l-42 -106 q-56 46 -121 46q-48 0 -79 -28.5t-31 -68.5q0 -28 19.5 -54t47 -48t55 -46.5t47 -60t19.5 -77.5z" />
<glyph unicode="&#x15b;" horiz-adv-x="426" d="M404 684q-81 -78 -182 -126l-22 34q80 75 142 156zM364 151q0 -70 -65 -115.5t-165 -45.5q-84 0 -145 23l29 96q62 -40 140 -40q40 0 64.5 17.5t24.5 46.5q0 8 -2 15.5t-7.5 14.5t-10 12t-14.5 12.5t-16 11.5t-19 12.5t-20 12.5q-40 26 -61.5 52.5t-21.5 67.5 q0 70 66 118t168 48q69 0 118 -18l-28 -96q-61 36 -118 36q-39 0 -63.5 -20t-24.5 -49q0 -6 1 -11t4 -10.5t5.5 -9.5t8 -9.5t8.5 -8t11 -8.5t11 -8t12.5 -8.5t12.5 -8.5q30 -18 47.5 -32t33.5 -40.5t16 -57.5z" />
<glyph unicode="&#x15c;" horiz-adv-x="484" d="M250 720l-27 19q63 54 119 123l96 8q28 -75 70 -131l-35 -19q-52 30 -96 79q-63 -48 -127 -79zM421 195q0 -89 -76.5 -147t-182.5 -58q-96 0 -164 28l41 111q27 -24 66 -40.5t75 -16.5q49 0 79.5 27.5t30.5 67.5q0 27 -19.5 52t-47 46.5t-55 46t-47 60t-19.5 78.5 q0 90 77 150t193 60q76 0 134 -22l-42 -106q-56 46 -121 46q-48 0 -79 -28.5t-31 -68.5q0 -28 19.5 -54t47 -48t55 -46.5t47 -60t19.5 -77.5z" />
<glyph unicode="&#x15d;" horiz-adv-x="426" d="M209 554l-33 22q70 83 112 150l95 8q15 -84 46 -158l-41 -22q-38 38 -68 103q-59 -66 -111 -103zM364 151q0 -70 -65 -115.5t-165 -45.5q-84 0 -145 23l29 96q62 -40 140 -40q40 0 64.5 17.5t24.5 46.5q0 8 -2 15.5t-7.5 14.5t-10 12t-14.5 12.5t-16 11.5t-19 12.5 t-20 12.5q-40 26 -61.5 52.5t-21.5 67.5q0 70 66 118t168 48q69 0 118 -18l-28 -96q-61 36 -118 36q-39 0 -63.5 -20t-24.5 -49q0 -6 1 -11t4 -10.5t5.5 -9.5t8 -9.5t8.5 -8t11 -8.5t11 -8t12.5 -8.5t12.5 -8.5q30 -18 47.5 -32t33.5 -40.5t16 -57.5z" />
<glyph unicode="&#x15e;" horiz-adv-x="484" d="M174 -117q3 13 -9.5 23t-40.5 15l39 69h-1q-96 0 -164 28l41 111q27 -24 66 -40.5t75 -16.5q49 0 79.5 27.5t30.5 67.5q0 27 -19.5 52t-47 46.5t-55 46t-47 60t-19.5 78.5q0 90 77 150t193 60q76 0 134 -22l-42 -106q-56 46 -121 46q-48 0 -79 -28.5t-31 -68.5 q0 -28 19.5 -54t47 -48t55 -46.5t46.5 -60t19 -77.5q0 -80 -61.5 -135t-153.5 -67l-21 -38q45 -6 67 -24t16 -45q-8 -39 -58.5 -61t-129.5 -23l4 36q83 9 91 45z" />
<glyph unicode="&#x15f;" horiz-adv-x="426" d="M152 -117q3 13 -9.5 23t-40.5 15l39 69h-7q-84 0 -145 23l29 96q62 -40 140 -40q40 0 64.5 17.5t24.5 46.5q0 8 -2 15.5t-7.5 14.5t-10 12t-14.5 12.5t-16 11.5t-19 12.5t-20 12.5q-40 26 -61.5 52.5t-21.5 67.5q0 70 66 118t168 48q69 0 118 -18l-28 -96q-61 36 -118 36 q-39 0 -63.5 -20t-24.5 -49q0 -6 1 -11t4 -10.5t5.5 -9.5t8 -9.5t8.5 -8t11 -8.5t11 -8t12.5 -8.5t12.5 -8.5q30 -18 47.5 -32t33.5 -40.5t16 -58.5q0 -60 -50 -103t-130 -54l-22 -38q45 -6 67 -24t16 -45q-8 -39 -58.5 -61t-129.5 -23l4 36q83 9 91 45z" />
<glyph unicode="&#x160;" horiz-adv-x="484" d="M493 873l27 -18q-73 -66 -119 -124l-96 -8q-23 67 -69 132l35 18q51 -31 95 -79q63 48 127 79zM421 195q0 -89 -76.5 -147t-182.5 -58q-96 0 -164 28l41 111q27 -24 66 -40.5t75 -16.5q49 0 79.5 27.5t30.5 67.5q0 27 -19.5 52t-47 46.5t-55 46t-47 60t-19.5 78.5 q0 90 77 150t193 60q76 0 134 -22l-42 -106q-56 46 -121 46q-48 0 -79 -28.5t-31 -68.5q0 -28 19.5 -54t47 -48t55 -46.5t47 -60t19.5 -77.5z" />
<glyph unicode="&#x161;" horiz-adv-x="426" d="M396 746l33 -23q-70 -83 -112 -150l-95 -8q-16 86 -46 158l41 23q36 -38 67 -104q61 66 112 104zM364 151q0 -70 -65 -115.5t-165 -45.5q-84 0 -145 23l29 96q62 -40 140 -40q40 0 64.5 17.5t24.5 46.5q0 8 -2 15.5t-7.5 14.5t-10 12t-14.5 12.5t-16 11.5t-19 12.5 t-20 12.5q-40 26 -61.5 52.5t-21.5 67.5q0 70 66 118t168 48q69 0 118 -18l-28 -96q-61 36 -118 36q-39 0 -63.5 -20t-24.5 -49q0 -6 1 -11t4 -10.5t5.5 -9.5t8 -9.5t8.5 -8t11 -8.5t11 -8t12.5 -8.5t12.5 -8.5q30 -18 47.5 -32t33.5 -40.5t16 -57.5z" />
<glyph unicode="&#x162;" horiz-adv-x="480" d="M173 -117q3 13 -9.5 23t-40.5 15l45 79h-40l120 570l-164 -8l25 88h431l-12 -88l-161 7l-120 -569h-38l-26 -45q45 -6 67 -24t16 -45q-8 -39 -58.5 -61t-129.5 -23l4 36q83 9 91 45z" />
<glyph unicode="&#x163;" horiz-adv-x="398" d="M147 -117q3 13 -9 23t-40 15l40 71q-87 11 -87 102q0 33 46 248q13 58 20 93l-52 2l7 34l67 12l58 137l81 6q-19 -90 -31 -143h155l-17 -54l-148 3q-64 -293 -64 -319q0 -45 46 -45q48 0 119 69l3 -61q-72 -80 -164 -86l-20 -35q46 -6 67.5 -24t16.5 -45 q-9 -39 -59.5 -61t-128.5 -23l3 36q83 9 91 45z" />
<glyph unicode="&#x164;" horiz-adv-x="480" d="M473 873l27 -18q-69 -61 -119 -124l-96 -8q-27 73 -70 132l35 18q55 -33 95 -79q65 49 128 79zM247 0h-119l120 570l-164 -8l25 88h431l-12 -88l-161 7z" />
<glyph unicode="&#x165;" horiz-adv-x="398" d="M477 724q-49 -109 -130 -201l-40 10q41 96 70 197zM341 76q-76 -86 -176 -86q-114 0 -114 104q0 33 46 248q13 58 20 93l-52 2l7 34l67 12l58 137l81 6q-19 -90 -31 -143h155l-17 -54l-148 3q-64 -293 -64 -319q0 -45 46 -45q48 0 119 69z" />
<glyph unicode="&#x166;" horiz-adv-x="480" d="M247 0h-119l63 300h-115l11 51h115l46 219l-164 -8l25 88h431l-12 -88l-161 7l-46 -218h114l-11 -51h-114z" />
<glyph unicode="&#x167;" horiz-adv-x="398" d="M341 76q-76 -86 -176 -86q-114 0 -114 104q0 33 25 149h-51l10 51h51q8 35 31 141l-52 2l7 34l67 12l58 137l81 6q-19 -90 -31 -143h155l-17 -54l-148 3q-27 -124 -30 -138h142l-11 -51h-142q-23 -107 -23 -130q0 -45 46 -45q48 0 119 69z" />
<glyph unicode="&#x168;" horiz-adv-x="637" d="M398 859q26 0 57 -21.5t49 -21.5q27 0 64 47l27 -7q-14 -48 -44 -82.5t-69 -34.5q-24 0 -57.5 21t-49.5 21q-30 0 -64 -47l-28 7q16 49 45.5 83.5t69.5 34.5zM285 62q52 0 87 41t50 115l65 310l17 122l130 10l-93 -433q-24 -113 -100 -175t-179 -62q-84 0 -131 41.5 t-47 118.5q0 25 7.5 66.5t40.5 194.5q16 72 25 117l18 122l130 10q-13 -60 -25.5 -120t-21 -99t-17 -77.5t-13 -62t-9.5 -46t-7.5 -35t-4.5 -24t-2.5 -19t-1 -13.5t-0.5 -13q0 -40 21.5 -64.5t60.5 -24.5z" />
<glyph unicode="&#x169;" horiz-adv-x="552" d="M310 728q28 0 61 -25t51 -25q26 0 60 52l28 -7q-12 -49 -42 -85.5t-68 -36.5q-25 0 -60.5 25t-52.5 25q-28 0 -60 -51l-27 6q13 49 42 85.5t68 36.5zM96 372l12 128l135 10q-15 -83 -35 -176.5t-30.5 -144.5t-10.5 -68q0 -20 9.5 -32t25.5 -12q44 0 96.5 88t75.5 205 q9 45 10 81q0 2 1.5 23t0.5 26l135 10q-12 -65 -35.5 -179t-32.5 -172.5t-9 -105.5q0 -28 5 -53h-120q-5 28 -5 56q0 54 14 127q-38 -88 -96 -140.5t-116 -52.5q-84 0 -84 102q0 7 0.5 12.5t1.5 14t2 16t3.5 21.5t5 25.5t7.5 34t9 41t11.5 52t13.5 63.5z" />
<glyph unicode="&#x16a;" horiz-adv-x="637" d="M302 762l15 72h260l-15 -72h-260zM285 62q52 0 87 41t50 115l65 310l17 122l130 10l-93 -433q-24 -113 -100 -175t-179 -62q-84 0 -131 41.5t-47 118.5q0 25 7.5 66.5t40.5 194.5q16 72 25 117l18 122l130 10q-13 -60 -25.5 -120t-21 -99t-17 -77.5t-13 -62t-9.5 -46 t-7.5 -35t-4.5 -24t-2.5 -19t-1 -13.5t-0.5 -13q0 -40 21.5 -64.5t60.5 -24.5z" />
<glyph unicode="&#x16b;" horiz-adv-x="552" d="M221 624l16 73h245l-16 -73h-245zM96 372l12 128l135 10q-15 -83 -35 -176.5t-30.5 -144.5t-10.5 -68q0 -20 9.5 -32t25.5 -12q44 0 96.5 88t75.5 205q9 45 10 81q0 2 1.5 23t0.5 26l135 10q-12 -65 -35.5 -179t-32.5 -172.5t-9 -105.5q0 -28 5 -53h-120q-5 28 -5 56 q0 54 14 127q-38 -88 -96 -140.5t-116 -52.5q-84 0 -84 102q0 7 0.5 12.5t1.5 14t2 16t3.5 21.5t5 25.5t7.5 34t9 41t11.5 52t13.5 63.5z" />
<glyph unicode="&#x16c;" horiz-adv-x="637" d="M408 725q-51 0 -78.5 39t-18.5 97l43 7q3 -34 21.5 -53t50.5 -19q64 0 102 73l43 6q-18 -64 -63 -107t-100 -43zM285 62q52 0 87 41t50 115l65 310l17 122l130 10l-93 -433q-24 -113 -100 -175t-179 -62q-84 0 -131 41.5t-47 118.5q0 25 7.5 66.5t40.5 194.5 q16 72 25 117l18 122l130 10q-13 -60 -25.5 -120t-21 -99t-17 -77.5t-13 -62t-9.5 -46t-7.5 -35t-4.5 -24t-2.5 -19t-1 -13.5t-0.5 -13q0 -40 21.5 -64.5t60.5 -24.5z" />
<glyph unicode="&#x16d;" horiz-adv-x="552" d="M312 573q-50 0 -73.5 44.5t-9.5 116.5l45 7q-4 -47 11.5 -72t45.5 -25q62 0 103 98l42 6q-21 -77 -65.5 -126t-98.5 -49zM96 372l12 128l135 10q-15 -83 -35 -176.5t-30.5 -144.5t-10.5 -68q0 -20 9.5 -32t25.5 -12q44 0 96.5 88t75.5 205q9 45 10 81q0 2 1.5 23t0.5 26 l135 10q-12 -65 -35.5 -179t-32.5 -172.5t-9 -105.5q0 -28 5 -53h-120q-5 28 -5 56q0 54 14 127q-38 -88 -96 -140.5t-116 -52.5q-84 0 -84 102q0 7 0.5 12.5t1.5 14t2 16t3.5 21.5t5 25.5t7.5 34t9 41t11.5 52t13.5 63.5z" />
<glyph unicode="&#x16e;" horiz-adv-x="637" d="M540 824q0 -45 -38.5 -79t-87.5 -34q-35 0 -54.5 17.5t-19.5 46.5q0 44 39 78.5t90 34.5q33 0 52 -17t19 -47zM396 789q0 -30 32 -30q22 0 39 16t17 36q0 29 -32 29q-21 0 -38.5 -15.5t-17.5 -35.5zM285 62q52 0 87 41t50 115l65 310l17 122l130 10l-93 -433 q-24 -113 -100 -175t-179 -62q-84 0 -131 41.5t-47 118.5q0 25 7.5 66.5t40.5 194.5q16 72 25 117l18 122l130 10q-13 -60 -25.5 -120t-21 -99t-17 -77.5t-13 -62t-9.5 -46t-7.5 -35t-4.5 -24t-2.5 -19t-1 -13.5t-0.5 -13q0 -40 21.5 -64.5t60.5 -24.5z" />
<glyph unicode="&#x16f;" horiz-adv-x="552" d="M449 689q0 -50 -37.5 -86.5t-86.5 -36.5q-37 0 -56 21.5t-15 57.5q5 47 41.5 80.5t82.5 33.5q33 0 52 -18.5t19 -51.5zM306 646q0 -35 32 -35q23 0 41 20t18 47q0 16 -9 26t-24 10q-23 0 -40.5 -20t-17.5 -48zM96 372l12 128l135 10q-15 -83 -35 -176.5t-30.5 -144.5 t-10.5 -68q0 -20 9.5 -32t25.5 -12q44 0 96.5 88t75.5 205q9 45 10 81q0 2 1.5 23t0.5 26l135 10q-12 -65 -35.5 -179t-32.5 -172.5t-9 -105.5q0 -28 5 -53h-120q-5 28 -5 56q0 54 14 127q-38 -88 -96 -140.5t-116 -52.5q-84 0 -84 102q0 7 0.5 12.5t1.5 14t2 16t3.5 21.5 t5 25.5t7.5 34t9 41t11.5 52t13.5 63.5z" />
<glyph unicode="&#x170;" horiz-adv-x="637" d="M443 813q-101 -68 -212 -96l-16 35q99 60 174 130zM664 813q-101 -69 -213 -96l-15 35q102 63 174 130zM285 62q52 0 87 41t50 115l65 310l17 122l130 10l-93 -433q-24 -113 -100 -175t-179 -62q-84 0 -131 41.5t-47 118.5q0 25 7.5 66.5t40.5 194.5q16 72 25 117l18 122 l130 10q-13 -60 -25.5 -120t-21 -99t-17 -77.5t-13 -62t-9.5 -46t-7.5 -35t-4.5 -24t-2.5 -19t-1 -13.5t-0.5 -13q0 -40 21.5 -64.5t60.5 -24.5z" />
<glyph unicode="&#x171;" horiz-adv-x="552" d="M368 740q-58 -99 -144 -173l-33 12q66 99 102 176zM511 740q-58 -99 -144 -173l-33 12q66 99 102 176zM96 372l12 128l135 10q-15 -83 -35 -176.5t-30.5 -144.5t-10.5 -68q0 -20 9.5 -32t25.5 -12q44 0 96.5 88t75.5 205q9 45 10 81q0 2 1.5 23t0.5 26l135 10 q-12 -65 -35.5 -179t-32.5 -172.5t-9 -105.5q0 -28 5 -53h-120q-5 28 -5 56q0 54 14 127q-38 -88 -96 -140.5t-116 -52.5q-84 0 -84 102q0 7 0.5 12.5t1.5 14t2 16t3.5 21.5t5 25.5t7.5 34t9 41t11.5 52t13.5 63.5z" />
<glyph unicode="&#x172;" horiz-adv-x="617" d="M293 62q51 0 86 41t50 115l65 310l18 122l129 10l-93 -433q-25 -120 -112 -185h1q-65 -47 -99.5 -83.5t-34.5 -68.5t37 -32q19 0 52 12l5 -34q-45 -35 -110 -35q-77 0 -77 59q0 68 99 132q-26 -2 -39 -2q-85 0 -132 41.5t-47 118.5q0 7 0.5 13t1.5 15.5t2.5 18t5 26 t6.5 33t9.5 45.5t12.5 58t16 76t20 93l18 122l129 10q-96 -452 -99 -481q-2 -14 -2 -28q0 -40 21 -64.5t61 -24.5z" />
<glyph unicode="&#x173;" horiz-adv-x="552" d="M96 372l12 128l135 10q-15 -83 -35 -176.5t-30.5 -144.5t-10.5 -68q0 -20 9.5 -32t25.5 -12q44 0 96.5 88t75.5 205q9 45 10 81q0 2 1.5 23t0.5 26l135 10q-12 -65 -35.5 -179t-32.5 -172.5t-9 -105.5q0 -28 5 -53q-52 -20 -87.5 -52.5t-35.5 -61.5q0 -28 37 -28 q19 0 52 12l5 -34q-46 -35 -111 -35q-76 0 -77 53q0 41 40.5 80.5t103.5 65.5h-47q-5 28 -5 56q0 54 14 127q-38 -88 -96 -140.5t-116 -52.5q-84 0 -84 102q0 7 0.5 12.5t1.5 14t2 16t3.5 21.5t5 25.5t7.5 34t9 41t11.5 52t13.5 63.5z" />
<glyph unicode="&#x174;" horiz-adv-x="863" d="M426 720l-27 19q67 59 119 123l96 8q25 -70 69 -131l-35 -19q-55 33 -95 79q-65 -49 -127 -79zM107 0l3 650l118 10l-10 -571h1l233 561h146l-10 -561h2l234 571l102 -10l-287 -650h-164l16 534h-2l-218 -534h-164z" />
<glyph unicode="&#x175;" horiz-adv-x="743" d="M334 561l-33 22q64 74 113 150l94 8q14 -80 47 -158l-42 -22q-36 36 -67 103q-62 -67 -112 -103zM85 246q-5 160 -23 254l122 10q13 -67 18 -187q4 -125 -12 -272h2q68 114 111 236.5t44 212.5l114 10q14 -73 19 -183q3 -129 -13 -276h2q68 114 111 236.5t44 213.5 q30 9 57 9q56 0 56 -48q0 -34 -18.5 -89.5t-52 -120.5t-88 -136.5t-118.5 -125.5l-93 10q13 160 8 376h-1q-23 -91 -77 -202t-114 -184l-101 10q6 111 3 246z" />
<glyph unicode="&#x176;" horiz-adv-x="542" d="M263 720l-27 19q67 59 119 123l96 8q25 -70 69 -131l-35 -19q-55 33 -95 79q-65 -49 -127 -79zM278 0h-118l43 207l-93 443l118 10l58 -351h2l208 351l108 -10l-281 -443h-1z" />
<glyph unicode="&#x177;" horiz-adv-x="477" d="M208 561l-33 22q64 74 113 150l94 8q14 -80 47 -158l-42 -22q-36 36 -67 103q-62 -67 -112 -103zM252 2q-71 -90 -152.5 -143.5t-152.5 -53.5q-78 0 -78 51q0 36 26 54q38 -12 80 -12q51 0 110.5 34t92.5 82l-86 5q4 99 1 233q-5 150 -24 248l122 10q15 -75 20 -182 q4 -116 -12 -260h2q69 110 112.5 228t44.5 205q30 9 57 9q56 0 56 -47q0 -67 -66 -209t-153 -252z" />
<glyph unicode="&#x178;" horiz-adv-x="542" d="M354 819q0 -33 -26.5 -59t-61.5 -25q-23 0 -36 11.5t-13 31.5q0 31 27.5 57t62.5 27q22 1 34.5 -10.5t12.5 -32.5zM563 819q0 -32 -27 -58.5t-62 -25.5q-22 0 -35.5 11.5t-13.5 31.5q0 31 27.5 57t63.5 27q21 1 34 -10.5t13 -32.5zM278 0h-118l43 207l-93 443l118 10 l58 -351h2l208 351l108 -10l-281 -443h-1z" />
<glyph unicode="&#x179;" horiz-adv-x="487" d="M472 804q-95 -63 -205 -89l-15 36q91 60 163 130zM392 0h-395l-2 63l383 502q-193 -3 -269 -8l27 93h379l1 -62l-383 -503q183 4 288 18z" />
<glyph unicode="&#x17a;" horiz-adv-x="459" d="M409 691q-81 -78 -182 -126l-22 34q80 75 142 156zM3 -10l-20 31q193 184 318 355q-64 35 -133 35q-58 0 -83 -48l-25 8q11 77 40.5 108t75.5 31q76 0 166 -74q20 29 46 74q53 0 53 -39q0 -51 -99 -160t-214 -201q30 -1 74 -11t67 -10q84 0 114 64l25 -8 q-21 -88 -59 -121.5t-96 -33.5q-33 0 -83.5 15t-75.5 15q-45 0 -91 -30z" />
<glyph unicode="&#x17b;" horiz-adv-x="487" d="M434 819q0 -33 -28.5 -60t-66.5 -27q-24 0 -38 11.5t-14 32.5q0 33 29 60.5t67 27.5q23 0 37 -12t14 -33zM392 0h-395l-2 63l383 502q-193 -3 -269 -8l27 93h379l1 -62l-383 -503q183 4 288 18z" />
<glyph unicode="&#x17c;" horiz-adv-x="459" d="M381 680q0 -32 -29 -59.5t-66 -27.5q-24 0 -38 12t-14 33q0 33 29 60.5t67 27.5q23 0 37 -12t14 -34zM3 -10l-20 31q193 184 318 355q-64 35 -133 35q-58 0 -83 -48l-25 8q11 77 40.5 108t75.5 31q76 0 166 -74q20 29 46 74q53 0 53 -39q0 -51 -99 -160t-214 -201 q30 -1 74 -11t67 -10q84 0 114 64l25 -8q-21 -88 -59 -121.5t-96 -33.5q-33 0 -83.5 15t-75.5 15q-45 0 -91 -30z" />
<glyph unicode="&#x17d;" horiz-adv-x="487" d="M477 873l27 -18q-73 -66 -119 -124l-96 -8q-23 67 -69 132l34 18q52 -30 96 -79q63 48 127 79zM392 0h-395l-2 63l383 502q-193 -3 -269 -8l27 93h379l1 -62l-383 -503q183 4 288 18z" />
<glyph unicode="&#x17e;" horiz-adv-x="459" d="M401 753l33 -23q-70 -83 -112 -150l-95 -8q-16 86 -46 158l41 23q36 -38 67 -104q61 66 112 104zM3 -10l-20 31q193 184 318 355q-64 35 -133 35q-58 0 -83 -48l-25 8q11 77 40.5 108t75.5 31q76 0 166 -74q20 29 46 74q53 0 53 -39q0 -51 -99 -160t-214 -201 q30 -1 74 -11t67 -10q84 0 114 64l25 -8q-21 -88 -59 -121.5t-96 -33.5q-33 0 -83.5 15t-75.5 15q-45 0 -91 -30z" />
<glyph unicode="&#x18f;" horiz-adv-x="573" d="M110 473l-4 77q42 47 107.5 78.5t134.5 31.5q95 0 148 -57.5t53 -167.5q0 -109 -48 -212t-130 -168t-172 -65q-66 0 -105 34.5t-39 96.5q0 66 45 121.5t114 87.5t147 38q38 2 57 1q2 30 2 44q0 78 -32.5 118.5t-92.5 40.5q-95 0 -185 -99zM175 116q0 -27 14 -43t39 -16 q62 0 115 87t71 196q-114 -16 -176.5 -85t-62.5 -139z" />
<glyph unicode="&#x192;" horiz-adv-x="513" d="M432 277l-150 3l-68 -215q-9 -29 -17.5 -51t-29 -56.5t-44.5 -57t-64 -39.5t-88 -17q-54 0 -98 20l41 69q42 -22 71 -22q79 0 117 137l62 235l-83 2l13 34l83 12q37 128 43 143q69 186 250 186q70 0 111 -27l-49 -85q-31 45 -81 45q-71 0 -112 -123q-28 -83 -43 -139h157 z" />
<glyph unicode="&#x19d;" horiz-adv-x="646" d="M-76 -195l3 55q97 37 121 154l110 514l17 122l103 10l169 -502h2l95 492l99 10l-140 -660h-106l-160 483h-2q-42 -220 -85 -432q-22 -106 -74.5 -167.5t-151.5 -78.5z" />
<glyph unicode="&#x1cd;" horiz-adv-x="574" d="M523 873l27 -18q-73 -66 -119 -124l-96 -8q-23 67 -69 132l35 18q51 -31 95 -79q63 48 127 79zM84 0h-112l266 526l60 125l155 9l43 -660h-117l-7 154h-216zM352 566l-165 -347h182l-16 347h-1z" />
<glyph unicode="&#x1ce;" horiz-adv-x="557" d="M472 753l33 -23q-64 -74 -113 -150l-94 -8q-15 82 -47 158l42 23q38 -40 67 -104q59 65 112 104zM26 126q0 64 25 131t68.5 123.5t110.5 93t144 36.5q81 0 150 -32l-40 -175q-35 -153 -35 -247q0 -31 5 -56h-120q-5 27 -5 54q0 64 18 157q-42 -98 -104 -159.5t-122 -61.5 q-44 0 -69.5 35.5t-25.5 100.5zM150 152q0 -36 11 -58t30 -22q46 0 103 95.5t93 234.5q6 24 9 38q-31 11 -49 11q-51 0 -98 -50.5t-73 -119.5t-26 -129z" />
<glyph unicode="&#x1cf;" horiz-adv-x="308" d="M386 873l27 -18q-69 -61 -119 -124l-96 -8q-27 73 -70 132l35 18q55 -33 95 -79q65 49 128 79zM165 0h-119l112 528l17 122l130 10z" />
<glyph unicode="&#x1d0;" horiz-adv-x="274" d="M292 757l29 -17q-48 -79 -89 -164l-97 -8q-7 104 -21 172l35 17q27 -43 49 -109q47 61 94 109zM243 510q-12 -65 -35.5 -179t-32.5 -172.5t-9 -105.5q0 -28 5 -53h-120q-5 26 -5 53q0 85 25 203l25 114l12 130z" />
<glyph unicode="&#x1d1;" horiz-adv-x="631" d="M549 873l27 -18q-69 -61 -119 -124l-96 -8q-27 73 -70 132l35 18q55 -33 95 -79q65 49 128 79zM607 435q0 -107 -43.5 -208t-127 -169t-185.5 -68q-93 0 -144 58t-51 167q0 106 44 207.5t128 169.5t185 68q94 0 144 -58t50 -167zM187 203q0 -69 23.5 -107.5t68.5 -38.5 q56 0 103 68.5t70.5 158t23.5 167.5q0 68 -22.5 105t-66.5 37q-57 0 -104.5 -67.5t-71.5 -156t-24 -166.5z" />
<glyph unicode="&#x1d2;" horiz-adv-x="539" d="M451 753l33 -23q-70 -83 -112 -150l-95 -8q-16 86 -46 158l41 23q36 -38 67 -104q61 66 112 104zM505 335q0 -128 -89.5 -235.5t-213.5 -107.5q-77 0 -122.5 43t-45.5 125q0 83 39.5 163t111 132.5t153.5 52.5q79 0 123 -45.5t44 -127.5zM158 152q0 -101 65 -101 q43 0 80.5 50t57.5 118t20 129q0 102 -64 102q-43 0 -80.5 -49.5t-58 -118t-20.5 -130.5z" />
<glyph unicode="&#x1d3;" horiz-adv-x="637" d="M556 873l27 -18q-69 -61 -119 -124l-96 -8q-27 73 -70 132l35 18q55 -33 95 -79q65 49 128 79zM285 62q52 0 87 41t50 115l65 310l17 122l130 10l-93 -433q-24 -113 -100 -175t-179 -62q-84 0 -131 41.5t-47 118.5q0 25 7.5 66.5t40.5 194.5q16 72 25 117l18 122l130 10 q-13 -60 -25.5 -120t-21 -99t-17 -77.5t-13 -62t-9.5 -46t-7.5 -35t-4.5 -24t-2.5 -19t-1 -13.5t-0.5 -13q0 -40 21.5 -64.5t60.5 -24.5z" />
<glyph unicode="&#x1d4;" horiz-adv-x="552" d="M445 753l33 -23q-70 -83 -112 -150l-95 -8q-16 86 -46 158l41 23q36 -38 67 -104q61 66 112 104zM96 372l12 128l135 10q-15 -83 -35 -176.5t-30.5 -144.5t-10.5 -68q0 -20 9.5 -32t25.5 -12q44 0 96.5 88t75.5 205q9 45 10 81q0 2 1.5 23t0.5 26l135 10 q-12 -65 -35.5 -179t-32.5 -172.5t-9 -105.5q0 -28 5 -53h-120q-5 28 -5 56q0 54 14 127q-38 -88 -96 -140.5t-116 -52.5q-84 0 -84 102q0 7 0.5 12.5t1.5 14t2 16t3.5 21.5t5 25.5t7.5 34t9 41t11.5 52t13.5 63.5z" />
<glyph unicode="&#x1d5;" horiz-adv-x="637" d="M347 974l15 72h260l-15 -72h-260zM404 819q0 -33 -26.5 -59t-61.5 -25q-23 0 -36 11.5t-13 31.5q0 31 27.5 57t62.5 27q22 1 34.5 -10.5t12.5 -32.5zM613 819q0 -32 -27 -58.5t-62 -25.5q-22 0 -35.5 11.5t-13.5 31.5q0 31 27.5 57t63.5 27q21 1 34 -10.5t13 -32.5z M285 62q52 0 87 41t50 115l65 310l17 122l130 10l-93 -433q-24 -113 -100 -175t-179 -62q-84 0 -131 41.5t-47 118.5q0 25 7.5 66.5t40.5 194.5q16 72 25 117l18 122l130 10q-13 -60 -25.5 -120t-21 -99t-17 -77.5t-13 -62t-9.5 -46t-7.5 -35t-4.5 -24t-2.5 -19t-1 -13.5 t-0.5 -13q0 -40 21.5 -64.5t60.5 -24.5z" />
<glyph unicode="&#x1d6;" horiz-adv-x="552" d="M268 845l16 73h245l-16 -73h-245zM316 672q-2 -31 -28 -55t-61 -23q-23 0 -36 13t-12 35q2 30 28.5 54t61.5 25q23 1 35.5 -12.5t11.5 -36.5zM522 672q-2 -31 -27.5 -55t-60.5 -23q-23 0 -36.5 13t-11.5 35q2 30 28.5 54t61.5 25q23 1 35.5 -12.5t10.5 -36.5zM96 372 l12 128l135 10q-15 -83 -35 -176.5t-30.5 -144.5t-10.5 -68q0 -20 9.5 -32t25.5 -12q44 0 96.5 88t75.5 205q9 45 10 81q0 2 1.5 23t0.5 26l135 10q-12 -65 -35.5 -179t-32.5 -172.5t-9 -105.5q0 -28 5 -53h-120q-5 28 -5 56q0 54 14 127q-38 -88 -96 -140.5t-116 -52.5 q-84 0 -84 102q0 7 0.5 12.5t1.5 14t2 16t3.5 21.5t5 25.5t7.5 34t9 41t11.5 52t13.5 63.5z" />
<glyph unicode="&#x1d7;" horiz-adv-x="637" d="M596 1016q-95 -63 -205 -89l-15 36q91 60 163 130zM404 819q0 -33 -26.5 -59t-61.5 -25q-23 0 -36 11.5t-13 31.5q0 31 27.5 57t62.5 27q22 1 34.5 -10.5t12.5 -32.5zM613 819q0 -32 -27 -58.5t-62 -25.5q-22 0 -35.5 11.5t-13.5 31.5q0 31 27.5 57t63.5 27 q21 1 34 -10.5t13 -32.5zM285 62q52 0 87 41t50 115l65 310l17 122l130 10l-93 -433q-24 -113 -100 -175t-179 -62q-84 0 -131 41.5t-47 118.5q0 25 7.5 66.5t40.5 194.5q16 72 25 117l18 122l130 10q-13 -60 -25.5 -120t-21 -99t-17 -77.5t-13 -62t-9.5 -46t-7.5 -35 t-4.5 -24t-2.5 -19t-1 -13.5t-0.5 -13q0 -40 21.5 -64.5t60.5 -24.5z" />
<glyph unicode="&#x1d8;" horiz-adv-x="552" d="M500 912q-81 -78 -182 -126l-22 34q80 75 142 156zM316 672q-2 -31 -28 -55t-61 -23q-23 0 -36 13t-12 35q2 30 28.5 54t61.5 25q23 1 35.5 -12.5t11.5 -36.5zM522 672q-2 -31 -27.5 -55t-60.5 -23q-23 0 -36.5 13t-11.5 35q2 30 28.5 54t61.5 25q23 1 35.5 -12.5 t10.5 -36.5zM96 372l12 128l135 10q-15 -83 -35 -176.5t-30.5 -144.5t-10.5 -68q0 -20 9.5 -32t25.5 -12q44 0 96.5 88t75.5 205q9 45 10 81q0 2 1.5 23t0.5 26l135 10q-12 -65 -35.5 -179t-32.5 -172.5t-9 -105.5q0 -28 5 -53h-120q-5 28 -5 56q0 54 14 127 q-38 -88 -96 -140.5t-116 -52.5q-84 0 -84 102q0 7 0.5 12.5t1.5 14t2 16t3.5 21.5t5 25.5t7.5 34t9 41t11.5 52t13.5 63.5z" />
<glyph unicode="&#x1d9;" horiz-adv-x="637" d="M601 1085l27 -18q-73 -66 -119 -124l-96 -8q-23 67 -69 132l35 18q51 -31 95 -79q63 48 127 79zM404 819q0 -33 -26.5 -59t-61.5 -25q-23 0 -36 11.5t-13 31.5q0 31 27.5 57t62.5 27q22 1 34.5 -10.5t12.5 -32.5zM613 819q0 -32 -27 -58.5t-62 -25.5q-22 0 -35.5 11.5 t-13.5 31.5q0 31 27.5 57t63.5 27q21 1 34 -10.5t13 -32.5zM285 62q52 0 87 41t50 115l65 310l17 122l130 10l-93 -433q-24 -113 -100 -175t-179 -62q-84 0 -131 41.5t-47 118.5q0 25 7.5 66.5t40.5 194.5q16 72 25 117l18 122l130 10q-13 -60 -25.5 -120t-21 -99t-17 -77.5 t-13 -62t-9.5 -46t-7.5 -35t-4.5 -24t-2.5 -19t-1 -13.5t-0.5 -13q0 -40 21.5 -64.5t60.5 -24.5z" />
<glyph unicode="&#x1da;" horiz-adv-x="552" d="M492 974l33 -23q-70 -83 -112 -150l-95 -8q-16 86 -46 158l41 23q36 -38 67 -104q61 66 112 104zM316 672q-2 -31 -28 -55t-61 -23q-23 0 -36 13t-12 35q2 30 28.5 54t61.5 25q23 1 35.5 -12.5t11.5 -36.5zM522 672q-2 -31 -27.5 -55t-60.5 -23q-23 0 -36.5 13t-11.5 35 q2 30 28.5 54t61.5 25q23 1 35.5 -12.5t10.5 -36.5zM96 372l12 128l135 10q-15 -83 -35 -176.5t-30.5 -144.5t-10.5 -68q0 -20 9.5 -32t25.5 -12q44 0 96.5 88t75.5 205q9 45 10 81q0 2 1.5 23t0.5 26l135 10q-12 -65 -35.5 -179t-32.5 -172.5t-9 -105.5q0 -28 5 -53h-120 q-5 28 -5 56q0 54 14 127q-38 -88 -96 -140.5t-116 -52.5q-84 0 -84 102q0 7 0.5 12.5t1.5 14t2 16t3.5 21.5t5 25.5t7.5 34t9 41t11.5 52t13.5 63.5z" />
<glyph unicode="&#x1db;" horiz-adv-x="637" d="M591 962l-19 -36q-106 26 -189 89l61 77q62 -69 147 -130zM404 819q0 -33 -26.5 -59t-61.5 -25q-23 0 -36 11.5t-13 31.5q0 31 27.5 57t62.5 27q22 1 34.5 -10.5t12.5 -32.5zM613 819q0 -32 -27 -58.5t-62 -25.5q-22 0 -35.5 11.5t-13.5 31.5q0 31 27.5 57t63.5 27 q21 1 34 -10.5t13 -32.5zM285 62q52 0 87 41t50 115l65 310l17 122l130 10l-93 -433q-24 -113 -100 -175t-179 -62q-84 0 -131 41.5t-47 118.5q0 25 7.5 66.5t40.5 194.5q16 72 25 117l18 122l130 10q-13 -60 -25.5 -120t-21 -99t-17 -77.5t-13 -62t-9.5 -46t-7.5 -35 t-4.5 -24t-2.5 -19t-1 -13.5t-0.5 -13q0 -40 21.5 -64.5t60.5 -24.5z" />
<glyph unicode="&#x1dc;" horiz-adv-x="552" d="M484 820l-22 -33q-87 46 -150 126l61 63q48 -82 111 -156zM316 672q-2 -31 -28 -55t-61 -23q-23 0 -36 13t-12 35q2 30 28.5 54t61.5 25q23 1 35.5 -12.5t11.5 -36.5zM522 672q-2 -31 -27.5 -55t-60.5 -23q-23 0 -36.5 13t-11.5 35q2 30 28.5 54t61.5 25q23 1 35.5 -12.5 t10.5 -36.5zM96 372l12 128l135 10q-15 -83 -35 -176.5t-30.5 -144.5t-10.5 -68q0 -20 9.5 -32t25.5 -12q44 0 96.5 88t75.5 205q9 45 10 81q0 2 1.5 23t0.5 26l135 10q-12 -65 -35.5 -179t-32.5 -172.5t-9 -105.5q0 -28 5 -53h-120q-5 28 -5 56q0 54 14 127 q-38 -88 -96 -140.5t-116 -52.5q-84 0 -84 102q0 7 0.5 12.5t1.5 14t2 16t3.5 21.5t5 25.5t7.5 34t9 41t11.5 52t13.5 63.5z" />
<glyph unicode="&#x1e6;" horiz-adv-x="572" d="M560 873l27 -18q-69 -61 -119 -124l-96 -8q-27 73 -70 132l35 18q55 -33 95 -79q65 49 128 79zM467 26q-88 -36 -180 -36q-112 0 -171 60t-59 175q0 109 48.5 208t139 163t200.5 64q77 0 140 -27l-36 -101q-48 46 -118 46q-73 0 -129.5 -52.5t-84 -128.5t-27.5 -157 q0 -176 143 -176q15 -1 39 2l21 98l18 123l114 10z" />
<glyph unicode="&#x1e7;" d="M431 753l33 -23q-70 -83 -112 -150l-95 -8q-16 86 -46 158l41 23q36 -38 67 -104q61 66 112 104zM403 -51q0 -65 -74.5 -104.5t-188.5 -39.5q-89 0 -140 26t-51 76q0 38 25.5 66.5t61.5 40.5l10 -11q-22 -58 -9 -99q21 -63 111 -63q51 0 90.5 22t39.5 53q0 20 -20.5 35.5 t-49.5 26.5t-58.5 22t-50 29t-20.5 41q0 33 35 60t92 37v3q-150 0 -150 121q0 85 67 152t180 67q131 0 210 8q16 -15 16 -35q0 -17 -13 -30.5t-34 -13.5q-13 0 -29 5.5t-43 17.5t-45 19l-2 -3q88 -39 88 -115q0 -60 -42 -110t-117 -84q-5 -2 -19.5 -8t-25 -11t-22 -11.5 t-18 -14t-6.5 -14.5q0 -15 31.5 -28.5t69.5 -25t69.5 -39.5t31.5 -68zM173 277q0 -68 47 -68q45 0 79 61t34 120q0 66 -49 66q-47 0 -79 -60t-32 -119z" />
<glyph unicode="&#x1ea;" horiz-adv-x="627" d="M402 28q-55 -31 -90 -68.5t-35 -69.5t37 -32q19 0 52 12l5 -34q-45 -35 -109 -35q-78 0 -79 61q0 66 98 129q-7 -1 -22 -1q-94 0 -144.5 57.5t-50.5 167.5q0 79 26.5 158t71.5 143t113 104t145 40q94 0 144 -58t50 -167q0 -122 -58.5 -237t-155.5 -170h2zM195 203 q0 -69 23.5 -107.5t67.5 -38.5q56 0 103 68.5t70.5 158t23.5 167.5q0 68 -22.5 105t-66.5 37q-57 0 -104.5 -67.5t-71 -156t-23.5 -166.5z" />
<glyph unicode="&#x1eb;" horiz-adv-x="539" d="M347 36q-116 -77 -116 -148q0 -30 37 -30q19 0 52 12l6 -34q-47 -35 -112 -35q-76 0 -76 55q0 74 93 138q-20 -2 -29 -2q-77 0 -122.5 43t-45.5 125q0 83 39.5 163t111 132.5t153.5 52.5q79 0 123 -45.5t44 -127.5q0 -85 -44 -168t-116 -131h2zM158 152q0 -101 65 -101 q43 0 80.5 50t57.5 118t20 129q0 102 -64 102q-43 0 -80.5 -49.5t-58 -118t-20.5 -130.5z" />
<glyph unicode="&#x1f4;" horiz-adv-x="572" d="M555 804q-94 -62 -205 -89l-16 36q94 62 164 130zM467 26q-88 -36 -180 -36q-112 0 -171 60t-59 175q0 109 48.5 208t139 163t200.5 64q77 0 140 -27l-36 -101q-48 46 -118 46q-73 0 -129.5 -52.5t-84 -128.5t-27.5 -157q0 -176 143 -176q15 -1 39 2l21 98l18 123l114 10 z" />
<glyph unicode="&#x1f5;" d="M433 691q-83 -78 -183 -126l-22 34q83 78 143 156zM403 -51q0 -65 -74.5 -104.5t-188.5 -39.5q-89 0 -140 26t-51 76q0 38 25.5 66.5t61.5 40.5l10 -11q-22 -58 -9 -99q21 -63 111 -63q51 0 90.5 22t39.5 53q0 20 -20.5 35.5t-49.5 26.5t-58.5 22t-50 29t-20.5 41 q0 33 35 60t92 37v3q-150 0 -150 121q0 85 67 152t180 67q131 0 210 8q16 -15 16 -35q0 -17 -13 -30.5t-34 -13.5q-13 0 -29 5.5t-43 17.5t-45 19l-2 -3q88 -39 88 -115q0 -60 -42 -110t-117 -84q-5 -2 -19.5 -8t-25 -11t-22 -11.5t-18 -14t-6.5 -14.5q0 -15 31.5 -28.5 t69.5 -25t69.5 -39.5t31.5 -68zM173 277q0 -68 47 -68q45 0 79 61t34 120q0 66 -49 66q-47 0 -79 -60t-32 -119z" />
<glyph unicode="&#x1fa;" horiz-adv-x="574" d="M567 1033q-95 -63 -205 -89l-15 36q91 60 163 130zM507 824q0 -45 -38.5 -79t-87.5 -34q-35 0 -54 17.5t-19 46.5q0 44 38.5 78.5t89.5 34.5q34 0 52.5 -17t18.5 -47zM363 789q0 -13 9 -21.5t23 -8.5q22 0 39.5 16t17.5 36q0 13 -9 21t-23 8q-21 0 -39 -15.5t-18 -35.5z M84 0h-112l266 526l60 125l155 9l43 -660h-117l-7 154h-216zM352 566l-165 -347h182l-16 347h-1z" />
<glyph unicode="&#x1fb;" horiz-adv-x="557" d="M533 941q-83 -78 -183 -126l-22 34q83 78 143 156zM475 689q0 -50 -37.5 -86.5t-86.5 -36.5q-36 0 -55.5 21.5t-14.5 57.5q5 47 41 80.5t83 33.5q32 0 51 -18.5t19 -51.5zM332 646q0 -35 32 -35q24 0 41.5 20t17.5 47q0 36 -32 36q-23 0 -41 -20t-18 -48zM26 126 q0 64 25 131t68.5 123.5t110.5 93t144 36.5q81 0 150 -32l-40 -175q-35 -153 -35 -247q0 -31 5 -56h-120q-5 27 -5 54q0 64 18 157q-42 -98 -104 -159.5t-122 -61.5q-44 0 -69.5 35.5t-25.5 100.5zM150 152q0 -36 11 -58t30 -22q46 0 103 95.5t93 234.5q6 24 9 38 q-31 11 -49 11q-51 0 -98 -50.5t-73 -119.5t-26 -129z" />
<glyph unicode="&#x1fc;" horiz-adv-x="816" d="M670 804q-94 -62 -205 -89l-16 36q94 62 164 130zM84 0h-112l348 526l67 124h423l-25 -80l-239 6l-20 -218l206 4l-24 -76l-188 3l-19 -215l234 7l-19 -81h-338l20 154h-215zM451 566l-226 -347h181l46 347h-1z" />
<glyph unicode="&#x1fd;" horiz-adv-x="767" d="M583 691q-83 -78 -183 -126l-22 34q83 78 143 156zM26 126q0 64 25 131t68.5 123.5t111 93t144.5 36.5q69 0 139 -26q54 26 106 26q59 0 94 -27.5t35 -76.5q0 -73 -73 -128.5t-177 -62.5q-16 -1 -44 1q-2 -13 -2 -36q0 -57 22.5 -87.5t65.5 -30.5q73 0 150 75l3 -61 q-32 -36 -91.5 -61t-113.5 -25q-73 0 -116.5 44.5t-43.5 129.5v9q-42 -83 -98 -133t-110 -50q-44 0 -69.5 35.5t-25.5 100.5zM150 152q0 -80 42 -80q36 0 80.5 60.5t77.5 150.5q28 81 84 140q-47 28 -86 28q-76 0 -137 -101.5t-61 -197.5zM597 451q-44 -1 -84.5 -66 t-54.5 -145q88 13 136.5 62t48.5 99q0 22 -12 36t-34 14z" />
<glyph unicode="&#x1fe;" horiz-adv-x="631" d="M544 804q-94 -62 -205 -89l-16 36q94 62 164 130zM607 435q0 -107 -43.5 -208t-127 -169t-185.5 -68q-103 0 -153 69l-88 -87l-34 38l97 95q-17 48 -17 110q0 106 44 207.5t127.5 169.5t184.5 68q104 0 155 -72l87 86l35 -36l-99 -97q17 -46 17 -106zM387 593 q-55 0 -102 -64t-71 -148.5t-27 -163.5l285 279q-14 97 -85 97zM279 57q54 0 99 63t69 146t28 162l-284 -278q17 -93 88 -93z" />
<glyph unicode="&#x1ff;" horiz-adv-x="539" d="M459 691q-81 -78 -182 -126l-22 34q80 75 142 156zM505 335q0 -82 -39 -160.5t-110.5 -130.5t-154.5 -52q-80 0 -125 46l-53 -49l-30 36l57 52q-16 33 -16 83q0 83 39.5 163t111 132.5t153.5 52.5t126 -49l56 52l30 -35l-61 -57q16 -38 16 -84zM317 450q-59 0 -105 -87 t-53 -185l219 203q-9 69 -61 69zM223 51q40 0 75 43t55.5 103t25.5 121l-218 -202q10 -65 62 -65z" />
<glyph unicode="&#x218;" horiz-adv-x="484" d="M421 195q0 -89 -76.5 -147t-182.5 -58q-96 0 -164 28l41 111q27 -24 66 -40.5t75 -16.5q49 0 79.5 27.5t30.5 67.5q0 27 -19.5 52t-47 46.5t-55 46t-47 60t-19.5 78.5q0 90 77 150t193 60q76 0 134 -22l-42 -106q-56 46 -121 46q-48 0 -79 -28.5t-31 -68.5 q0 -28 19.5 -54t47 -48t55 -46.5t47 -60t19.5 -77.5zM219 -125q-2 -39 -34 -85t-71 -78l-24 20q30 45 45 80q-36 9 -33 47q1 30 23 51t51 21q22 0 33.5 -15t9.5 -41z" />
<glyph unicode="&#x219;" horiz-adv-x="426" d="M364 151q0 -70 -65 -115.5t-165 -45.5q-84 0 -145 23l29 96q62 -40 140 -40q40 0 64.5 17.5t24.5 46.5q0 8 -2 15.5t-7.5 14.5t-10 12t-14.5 12.5t-16 11.5t-19 12.5t-20 12.5q-40 26 -61.5 52.5t-21.5 67.5q0 70 66 118t168 48q69 0 118 -18l-28 -96q-61 36 -118 36 q-39 0 -63.5 -20t-24.5 -49q0 -6 1 -11t4 -10.5t5.5 -9.5t8 -9.5t8.5 -8t11 -8.5t11 -8t12.5 -8.5t12.5 -8.5q30 -18 47.5 -32t33.5 -40.5t16 -57.5zM197 -125q-2 -39 -34 -85t-71 -78l-24 20q30 45 45 80q-36 9 -33 47q1 30 23 51t51 21q22 0 33.5 -15t9.5 -41z" />
<glyph unicode="&#x21a;" horiz-adv-x="480" d="M247 0h-119l120 570l-164 -8l25 88h431l-12 -88l-161 7zM216 -125q-2 -39 -34 -85t-71 -78l-24 20q30 45 45 80q-36 9 -33 47q1 30 23 51t51 21q22 0 33.5 -15t9.5 -41z" />
<glyph unicode="&#x21b;" horiz-adv-x="398" d="M341 76q-76 -86 -176 -86q-114 0 -114 104q0 33 46 248q13 58 20 93l-52 2l7 34l67 12l58 137l81 6q-19 -90 -31 -143h155l-17 -54l-148 3q-64 -293 -64 -319q0 -45 46 -45q48 0 119 69zM193 -125q-2 -38 -34 -84.5t-71 -78.5l-25 20q33 49 46 80q-37 9 -34 47 q1 30 23.5 51t50.5 21q22 0 34 -15t10 -41z" />
<glyph unicode="&#x232;" horiz-adv-x="542" d="M252 762l15 72h260l-15 -72h-260zM278 0h-118l43 207l-93 443l118 10l58 -351h2l208 351l108 -10l-281 -443h-1z" />
<glyph unicode="&#x233;" horiz-adv-x="477" d="M171 624l16 73h245l-16 -73h-245zM252 2q-71 -90 -152.5 -143.5t-152.5 -53.5q-78 0 -78 51q0 36 26 54q38 -12 80 -12q51 0 110.5 34t92.5 82l-86 5q4 99 1 233q-5 150 -24 248l122 10q15 -75 20 -182q4 -116 -12 -260h2q69 110 112.5 228t44.5 205q30 9 57 9 q56 0 56 -47q0 -67 -66 -209t-153 -252z" />
<glyph unicode="&#x237;" horiz-adv-x="270" d="M247 510q-22 -112 -103 -496q-36 -174 -219 -209l-18 44q53 27 79 68t39 102l75 353l13 128z" />
<glyph unicode="&#x259;" horiz-adv-x="472" d="M76 363l-3 62q32 36 91 60.5t114 24.5q73 0 116.5 -44.5t43.5 -129.5q0 -129 -87 -237.5t-204 -108.5q-59 0 -94 27.5t-35 76.5q0 73 73 129t177 62q14 1 44 -1q2 26 2 37q0 56 -22.5 86.5t-65.5 30.5q-75 0 -150 -75zM124 99q0 -22 12 -35.5t33 -13.5q45 0 84.5 64.5 t54.5 145.5q-88 -13 -136 -62t-48 -99z" />
<glyph unicode="&#x272;" horiz-adv-x="556" d="M460 0h-120q-4 29 -4 60q0 38 7 82.5t20.5 112.5t20.5 110q2 26 -7.5 42t-28.5 16q-48 0 -100.5 -90.5t-88.5 -246.5q-2 -11 -7.5 -35.5t-7.5 -36.5q-36 -174 -219 -209l-18 44q53 27 79 68t39 102l75 353l13 128l134 10q-30 -148 -43 -211q39 94 98 152.5t121 58.5 q44 0 69 -29t18 -90q-4 -30 -29 -152t-25 -190q0 -28 4 -49z" />
<glyph unicode="&#x2c6;" horiz-adv-x="354" d="M156 561l-33 22q70 83 112 150l95 8q15 -84 46 -158l-41 -22q-38 38 -68 103q-59 -66 -111 -103z" />
<glyph unicode="&#x2c7;" horiz-adv-x="354" d="M373 753l33 -23q-64 -74 -113 -150l-94 -8q-15 82 -47 158l42 23q38 -40 67 -104q59 65 112 104z" />
<glyph unicode="&#x2d8;" horiz-adv-x="344" d="M238 573q-50 0 -73.5 44t-9.5 117l44 7q-4 -47 12 -72t46 -25q61 0 102 98l43 6q-21 -77 -65.5 -126t-98.5 -49z" />
<glyph unicode="&#x2d9;" horiz-adv-x="245" d="M281 680q0 -32 -28.5 -59.5t-65.5 -27.5q-24 0 -38.5 12t-14.5 33q0 33 29.5 60.5t66.5 27.5q51 0 51 -46z" />
<glyph unicode="&#x2da;" horiz-adv-x="289" d="M330 689q0 -50 -37.5 -86.5t-86.5 -36.5q-37 0 -56 21.5t-15 57.5q5 47 41.5 80.5t82.5 33.5q33 0 52 -18.5t19 -51.5zM187 646q0 -35 32 -35q23 0 41 20t18 47q0 16 -9 26t-24 10q-23 0 -40.5 -20t-17.5 -48z" />
<glyph unicode="&#x2db;" horiz-adv-x="313" d="M194 0q-52 -20 -87.5 -52.5t-35.5 -61.5q0 -28 37 -28q19 0 52 12l5 -34q-46 -35 -111 -35q-77 0 -77 53q0 49 56.5 95t135.5 67z" />
<glyph unicode="&#x2dc;" horiz-adv-x="385" d="M235 728q28 0 61.5 -25t51.5 -25q26 0 60 52l27 -7q-12 -49 -42 -85.5t-67 -36.5q-26 0 -61 25t-52 25q-30 0 -60 -51l-27 6q13 49 41.5 85.5t67.5 36.5z" />
<glyph unicode="&#x2dd;" horiz-adv-x="386" d="M285 740q-58 -99 -144 -173l-33 12q66 99 102 176zM428 740q-58 -99 -144 -173l-33 12q66 99 102 176z" />
<glyph unicode="&#x1e0c;" horiz-adv-x="630" d="M158 528l17 122h182q244 0 244 -239q0 -105 -42.5 -197t-131 -153t-206.5 -61h-175zM309 575h-23l-105 -499h45q61 0 109.5 32t77 83t43.5 108t15 112q0 46 -12 79t-27 49t-41 24.5t-41.5 10t-40.5 1.5zM305 -118q0 -33 -28.5 -60t-66.5 -27q-24 0 -38 11.5t-14 32.5 q0 33 29 60.5t67 27.5q23 0 37 -12t14 -33z" />
<glyph unicode="&#x1e0d;" horiz-adv-x="555" d="M26 126q0 64 25 131t68.5 123.5t110.5 93t144 36.5q13 0 37 -2q2 11 11 49l12 128l135 10q-19 -98 -52.5 -252.5t-49 -241t-15.5 -145.5q0 -31 5 -56h-120q-5 23 -5 53q0 68 19 170q-40 -102 -104 -167.5t-126 -65.5q-44 0 -69.5 35.5t-25.5 100.5zM150 152q0 -79 41 -81 q49 0 110 108.5t95 259.5q-27 12 -49 12q-51 0 -98 -50.5t-73 -119.5t-26 -129zM275 -118q0 -33 -28.5 -60t-65.5 -27q-24 0 -38.5 11.5t-14.5 32.5q0 33 29.5 60.5t66.5 27.5q24 0 37.5 -12t13.5 -33z" />
<glyph unicode="&#x1e24;" horiz-adv-x="655" d="M165 0h-119l112 528l17 122l130 10l-68 -318h229l39 186l18 122l129 11l-140 -661h-118l58 275h-229zM323 -118q0 -33 -28.5 -60t-66.5 -27q-24 0 -38 11.5t-14 32.5q0 33 29 60.5t67 27.5q23 0 37 -12t14 -33z" />
<glyph unicode="&#x1e25;" horiz-adv-x="550" d="M454 0h-120q-4 29 -4 60q0 56 25 177t25 140q0 21 -11 33.5t-27 12.5q-46 0 -100 -89.5t-71 -202.5q-6 -46 -6 -83q0 -18 5 -48h-120q-5 32 -5 53q0 85 45 296l45 208l12 128l135 10q-17 -86 -45.5 -219.5t-35.5 -169.5q39 92 97 148t119 56q40 0 64.5 -23.5t24.5 -73.5 q0 -30 -28 -159.5t-28 -204.5q0 -28 4 -49zM290 -118q0 -33 -28.5 -60t-66.5 -27q-24 0 -38 11.5t-14 32.5q0 33 29 60.5t67 27.5q23 0 37 -12t14 -33z" />
<glyph unicode="&#x1e44;" horiz-adv-x="646" d="M513 819q0 -33 -28.5 -60t-65.5 -27q-24 0 -38.5 11.5t-14.5 32.5q0 33 29.5 60.5t66.5 27.5q24 0 37.5 -12t13.5 -33zM158 528l17 122l103 10l169 -502h2l95 492l99 10l-140 -660h-106l-160 483h-2l-93 -483h-96z" />
<glyph unicode="&#x1e45;" horiz-adv-x="550" d="M421 680q0 -32 -29 -59.5t-66 -27.5q-24 0 -38 12t-14 33q0 33 29 60.5t67 27.5q23 0 37 -12t14 -34zM170 0h-120q-4 28 -4 49q0 92 50 323l12 128l135 10q-7 -35 -14.5 -71.5t-15.5 -76t-12 -58.5q38 92 96.5 149t120.5 57q44 0 69 -29t17 -90q-4 -30 -29 -152t-25 -190 q0 -22 5 -49h-120q-5 28 -5 60q0 37 7.5 82.5t21 111t20.5 111.5q2 26 -8 42t-28 16q-33 0 -72.5 -48t-69.5 -128.5t-35 -163.5v-31q0 -27 4 -52z" />
<glyph unicode="&#x1e5a;" horiz-adv-x="560" d="M165 0h-119l112 528l17 122h183q198 0 198 -159q0 -77 -44.5 -137t-121.5 -91l85 -263l-128 -10l-59 248q-30 -2 -45 -2h-28zM319 580h-31l-59 -274h34q81 0 125.5 53t44.5 122q0 28 -9 48t-20 29.5t-30 15t-29 6t-26 0.5zM301 -118q0 -33 -28.5 -60t-65.5 -27 q-24 0 -38.5 11.5t-14.5 32.5q0 33 29.5 60.5t66.5 27.5q24 0 37.5 -12t13.5 -33z" />
<glyph unicode="&#x1e5b;" horiz-adv-x="400" d="M170 0h-120q-4 28 -4 49q0 92 50 323l12 128l135 10q-9 -47 -24 -119t-19 -92q29 95 73 153t96 58q41 0 68 -25l-49 -99q-26 16 -60 16q-40 0 -78 -53.5t-61 -136.5t-23 -165q0 -24 4 -47zM158 -118q0 -33 -28.5 -60t-66.5 -27q-24 0 -38 11.5t-14 32.5q0 33 29 60.5 t67 27.5q23 0 37 -12t14 -33z" />
<glyph unicode="&#x1e62;" horiz-adv-x="484" d="M421 195q0 -89 -76.5 -147t-182.5 -58q-96 0 -164 28l41 111q27 -24 66 -40.5t75 -16.5q49 0 79.5 27.5t30.5 67.5q0 27 -19.5 52t-47 46.5t-55 46t-47 60t-19.5 78.5q0 90 77 150t193 60q76 0 134 -22l-42 -106q-56 46 -121 46q-48 0 -79 -28.5t-31 -68.5 q0 -28 19.5 -54t47 -48t55 -46.5t47 -60t19.5 -77.5zM233 -118q0 -33 -28.5 -60t-66.5 -27q-24 0 -38 11.5t-14 32.5q0 33 29 60.5t67 27.5q23 0 37 -12t14 -33z" />
<glyph unicode="&#x1e63;" horiz-adv-x="426" d="M364 151q0 -70 -65 -115.5t-165 -45.5q-84 0 -145 23l29 96q62 -40 140 -40q40 0 64.5 17.5t24.5 46.5q0 8 -2 15.5t-7.5 14.5t-10 12t-14.5 12.5t-16 11.5t-19 12.5t-20 12.5q-40 26 -61.5 52.5t-21.5 67.5q0 70 66 118t168 48q69 0 118 -18l-28 -96q-61 36 -118 36 q-39 0 -63.5 -20t-24.5 -49q0 -6 1 -11t4 -10.5t5.5 -9.5t8 -9.5t8.5 -8t11 -8.5t11 -8t12.5 -8.5t12.5 -8.5q30 -18 47.5 -32t33.5 -40.5t16 -57.5zM211 -118q0 -33 -28.5 -60t-66.5 -27q-24 0 -38 11.5t-14 32.5q0 33 29 60.5t67 27.5q23 0 37 -12t14 -33z" />
<glyph unicode="&#x1e6c;" horiz-adv-x="480" d="M247 0h-119l120 570l-164 -8l25 88h431l-12 -88l-161 7zM230 -118q0 -33 -28.5 -60t-66.5 -27q-24 0 -38 11.5t-14 32.5q0 33 29 60.5t67 27.5q23 0 37 -12t14 -33z" />
<glyph unicode="&#x1e6d;" horiz-adv-x="398" d="M341 76q-76 -86 -176 -86q-114 0 -114 104q0 33 46 248q13 58 20 93l-52 2l7 34l67 12l58 137l81 6q-19 -90 -31 -143h155l-17 -54l-148 3q-64 -293 -64 -319q0 -45 46 -45q48 0 119 69zM206 -118q0 -33 -28.5 -60t-65.5 -27q-24 0 -38.5 11.5t-14.5 32.5q0 33 29.5 60.5 t66.5 27.5q24 0 37.5 -12t13.5 -33z" />
<glyph unicode="&#x1e80;" horiz-adv-x="863" d="M658 750l-19 -36q-106 27 -189 89l62 77q60 -68 146 -130zM107 0l3 650l118 10l-10 -571h1l233 561h146l-10 -561h2l234 571l102 -10l-287 -650h-164l16 534h-2l-218 -534h-164z" />
<glyph unicode="&#x1e81;" horiz-adv-x="743" d="M514 599l-22 -33q-89 47 -151 126l61 63q50 -84 112 -156zM85 246q-5 160 -23 254l122 10q13 -67 18 -187q4 -125 -12 -272h2q68 114 111 236.5t44 212.5l114 10q14 -73 19 -183q3 -129 -13 -276h2q68 114 111 236.5t44 213.5q30 9 57 9q56 0 56 -48q0 -34 -18.5 -89.5 t-52 -120.5t-88 -136.5t-118.5 -125.5l-93 10q13 160 8 376h-1q-23 -91 -77 -202t-114 -184l-101 10q6 111 3 246z" />
<glyph unicode="&#x1e82;" horiz-adv-x="863" d="M664 804q-94 -62 -205 -89l-16 36q94 62 164 130zM107 0l3 650l118 10l-10 -571h1l233 561h146l-10 -561h2l234 571l102 -10l-287 -650h-164l16 534h-2l-218 -534h-164z" />
<glyph unicode="&#x1e83;" horiz-adv-x="743" d="M530 691q-83 -78 -183 -126l-22 34q83 78 143 156zM85 246q-5 160 -23 254l122 10q13 -67 18 -187q4 -125 -12 -272h2q68 114 111 236.5t44 212.5l114 10q14 -73 19 -183q3 -129 -13 -276h2q68 114 111 236.5t44 213.5q30 9 57 9q56 0 56 -48q0 -34 -18.5 -89.5 t-52 -120.5t-88 -136.5t-118.5 -125.5l-93 10q13 160 8 376h-1q-23 -91 -77 -202t-114 -184l-101 10q6 111 3 246z" />
<glyph unicode="&#x1e84;" horiz-adv-x="863" d="M517 819q0 -33 -26.5 -59t-61.5 -25q-23 0 -36 11.5t-13 31.5q0 31 27.5 57t62.5 27q22 1 34.5 -10.5t12.5 -32.5zM726 819q0 -32 -27 -58.5t-62 -25.5q-22 0 -35.5 11.5t-13.5 31.5q0 31 27.5 57t63.5 27q21 1 34 -10.5t13 -32.5zM107 0l3 650l118 10l-10 -571h1 l233 561h146l-10 -561h2l234 571l102 -10l-287 -650h-164l16 534h-2l-218 -534h-164z" />
<glyph unicode="&#x1e85;" horiz-adv-x="743" d="M392 672q-2 -31 -28 -55t-60 -23q-23 0 -36.5 13t-12.5 35q2 30 29 54t61 25q23 1 35.5 -12.5t11.5 -36.5zM599 672q-2 -31 -28 -55t-60 -23q-23 0 -36.5 13t-12.5 35q2 31 28.5 54.5t61.5 24.5q23 1 35.5 -12.5t11.5 -36.5zM85 246q-5 160 -23 254l122 10 q13 -67 18 -187q4 -125 -12 -272h2q68 114 111 236.5t44 212.5l114 10q14 -73 19 -183q3 -129 -13 -276h2q68 114 111 236.5t44 213.5q30 9 57 9q56 0 56 -48q0 -34 -18.5 -89.5t-52 -120.5t-88 -136.5t-118.5 -125.5l-93 10q13 160 8 376h-1q-23 -91 -77 -202t-114 -184 l-101 10q6 111 3 246z" />
<glyph unicode="&#x1e92;" horiz-adv-x="487" d="M392 0h-395l-2 63l383 502q-193 -3 -269 -8l27 93h379l1 -62l-383 -503q183 4 288 18zM232 -118q0 -33 -28.5 -60t-65.5 -27q-24 0 -38.5 11.5t-14.5 32.5q0 33 29.5 60.5t66.5 27.5q24 0 37.5 -12t13.5 -33z" />
<glyph unicode="&#x1e93;" horiz-adv-x="459" d="M3 -10l-20 31q193 184 318 355q-64 35 -133 35q-58 0 -83 -48l-25 8q11 77 40.5 108t75.5 31q76 0 166 -74q20 29 46 74q53 0 53 -39q0 -51 -99 -160t-214 -201q30 -1 74 -11t67 -10q84 0 114 64l25 -8q-21 -88 -59 -121.5t-96 -33.5q-33 0 -83.5 15t-75.5 15 q-45 0 -91 -30zM219 -118q0 -33 -28.5 -60t-66.5 -27q-24 0 -38 11.5t-14 32.5q0 33 29 60.5t67 27.5q23 0 37 -12t14 -33z" />
<glyph unicode="&#x1e9e;" horiz-adv-x="643" d="M82 132l61 290q25 113 106 175.5t183 62.5q80 0 129 -37.5t51 -105.5l-169 -142q66 -43 100.5 -84t34.5 -105q0 -82 -65.5 -139t-158.5 -57q-71 0 -117 25l17 82q37 -27 83 -27t79.5 34t33.5 81q0 43 -30.5 76.5t-92.5 69.5l6 29l164 146q-4 35 -27 55t-56 20 q-53 0 -95 -44.5t-57 -115.5l-69 -323q-17 -77 -48 -108l-108 10q28 54 45 132z" />
<glyph unicode="&#x1ea0;" horiz-adv-x="574" d="M84 0h-112l266 526l60 125l155 9l43 -660h-117l-7 154h-216zM352 566l-165 -347h182l-16 347h-1zM278 -118q0 -33 -28.5 -60t-65.5 -27q-24 0 -38.5 11.5t-14.5 32.5q0 33 29.5 60.5t66.5 27.5q24 0 37.5 -12t13.5 -33z" />
<glyph unicode="&#x1ea1;" horiz-adv-x="557" d="M26 126q0 64 25 131t68.5 123.5t110.5 93t144 36.5q81 0 150 -32l-40 -175q-35 -153 -35 -247q0 -31 5 -56h-120q-5 27 -5 54q0 64 18 157q-42 -98 -104 -159.5t-122 -61.5q-44 0 -69.5 35.5t-25.5 100.5zM150 152q0 -36 11 -58t30 -22q46 0 103 95.5t93 234.5q6 24 9 38 q-31 11 -49 11q-51 0 -98 -50.5t-73 -119.5t-26 -129zM262 -118q0 -33 -28.5 -60t-65.5 -27q-24 0 -38.5 11.5t-14.5 32.5q0 33 29.5 60.5t66.5 27.5q24 0 37.5 -12t13.5 -33z" />
<glyph unicode="&#x1eb8;" d="M394 0h-348l111 523l18 127h352l-25 -80l-215 7l-47 -219l172 4l-23 -76l-163 3l-46 -216l233 8zM276 -118q0 -33 -28.5 -60t-66.5 -27q-24 0 -38 11.5t-14 32.5q0 33 29 60.5t67 27.5q23 0 37 -12t14 -33z" />
<glyph unicode="&#x1eb9;" horiz-adv-x="472" d="M397 137l3 -61q-33 -36 -92 -61t-114 -25q-73 0 -116 44.5t-43 130.5q0 83 38.5 162.5t106.5 131t145 51.5q59 0 94.5 -27.5t35.5 -76.5q0 -73 -73.5 -129t-177.5 -62q-14 -1 -44 1q-2 -26 -2 -36q0 -57 23 -87.5t65 -30.5q72 0 151 75zM303 451q-45 -1 -85 -66t-54 -145 q88 13 136.5 62t48.5 99q0 22 -12.5 36t-33.5 14zM260 -118q0 -33 -28.5 -60t-65.5 -27q-24 0 -38.5 11.5t-14.5 32.5q0 33 29.5 60.5t66.5 27.5q24 0 37.5 -12t13.5 -33z" />
<glyph unicode="&#x1ebc;" d="M339 859q26 0 56.5 -21.5t48.5 -21.5q29 0 64 47l28 -7q-15 -48 -45 -82.5t-69 -34.5q-24 0 -57 21t-49 21q-31 0 -64 -47l-28 7q15 48 44.5 83t70.5 35zM394 0h-348l111 523l18 127h352l-25 -80l-215 7l-47 -219l172 4l-23 -76l-163 3l-46 -216l233 8z" />
<glyph unicode="&#x1ebd;" horiz-adv-x="472" d="M278 728q28 0 61 -25t51 -25q26 0 60 52l28 -7q-12 -49 -42 -85.5t-68 -36.5q-25 0 -60.5 25t-52.5 25q-28 0 -60 -51l-27 6q13 49 42 85.5t68 36.5zM397 137l3 -61q-33 -36 -92 -61t-114 -25q-73 0 -116 44.5t-43 130.5q0 83 38.5 162.5t106.5 131t145 51.5 q59 0 94.5 -27.5t35.5 -76.5q0 -73 -73.5 -129t-177.5 -62q-14 -1 -44 1q-2 -26 -2 -36q0 -57 23 -87.5t65 -30.5q72 0 151 75zM303 451q-45 -1 -85 -66t-54 -145q88 13 136.5 62t48.5 99q0 22 -12.5 36t-33.5 14z" />
<glyph unicode="&#x1eca;" horiz-adv-x="308" d="M165 0h-119l112 528l17 122l130 10zM142 -118q0 -33 -28.5 -60t-65.5 -27q-24 0 -38.5 11.5t-14.5 32.5q0 33 29.5 60.5t66.5 27.5q24 0 37.5 -12t13.5 -33z" />
<glyph unicode="&#x1ecb;" horiz-adv-x="274" d="M286 680q0 -32 -29 -59.5t-66 -27.5q-24 0 -38 12t-14 33q0 33 29 60.5t67 27.5q23 0 37 -12t14 -34zM243 510q-12 -65 -35.5 -179t-32.5 -172.5t-9 -105.5q0 -28 5 -53h-120q-5 26 -5 53q0 85 25 203l25 114l12 130zM134 -118q0 -33 -28.5 -60t-65.5 -27 q-24 0 -38.5 11.5t-14.5 32.5q0 33 29.5 60.5t66.5 27.5q24 0 37.5 -12t13.5 -33z" />
<glyph unicode="&#x1ecc;" horiz-adv-x="631" d="M607 435q0 -107 -43.5 -208t-127 -169t-185.5 -68q-93 0 -144 58t-51 167q0 106 44 207.5t128 169.5t185 68q94 0 144 -58t50 -167zM187 203q0 -69 23.5 -107.5t68.5 -38.5q56 0 103 68.5t70.5 158t23.5 167.5q0 68 -22.5 105t-66.5 37q-57 0 -104.5 -67.5t-71.5 -156 t-24 -166.5zM304 -118q0 -33 -28.5 -60t-66.5 -27q-24 0 -38 11.5t-14 32.5q0 33 29 60.5t67 27.5q23 0 37 -12t14 -33z" />
<glyph unicode="&#x1ecd;" horiz-adv-x="539" d="M505 335q0 -128 -89.5 -235.5t-213.5 -107.5q-77 0 -122.5 43t-45.5 125q0 83 39.5 163t111 132.5t153.5 52.5q79 0 123 -45.5t44 -127.5zM158 152q0 -101 65 -101q43 0 80.5 50t57.5 118t20 129q0 102 -64 102q-43 0 -80.5 -49.5t-58 -118t-20.5 -130.5zM261 -118 q0 -33 -28.5 -60t-66.5 -27q-24 0 -38 11.5t-14 32.5q0 33 29 60.5t67 27.5q23 0 37 -12t14 -33z" />
<glyph unicode="&#x1ee4;" horiz-adv-x="637" d="M285 62q52 0 87 41t50 115l65 310l17 122l130 10l-93 -433q-24 -113 -100 -175t-179 -62q-84 0 -131 41.5t-47 118.5q0 25 7.5 66.5t40.5 194.5q16 72 25 117l18 122l130 10q-13 -60 -25.5 -120t-21 -99t-17 -77.5t-13 -62t-9.5 -46t-7.5 -35t-4.5 -24t-2.5 -19t-1 -13.5 t-0.5 -13q0 -40 21.5 -64.5t60.5 -24.5zM311 -118q0 -33 -28.5 -60t-66.5 -27q-24 0 -38 11.5t-14 32.5q0 33 29 60.5t67 27.5q23 0 37 -12t14 -33z" />
<glyph unicode="&#x1ee5;" horiz-adv-x="552" d="M96 372l12 128l135 10q-15 -83 -35 -176.5t-30.5 -144.5t-10.5 -68q0 -20 9.5 -32t25.5 -12q44 0 96.5 88t75.5 205q9 45 10 81q0 2 1.5 23t0.5 26l135 10q-12 -65 -35.5 -179t-32.5 -172.5t-9 -105.5q0 -28 5 -53h-120q-5 28 -5 56q0 54 14 127q-38 -88 -96 -140.5 t-116 -52.5q-84 0 -84 102q0 7 0.5 12.5t1.5 14t2 16t3.5 21.5t5 25.5t7.5 34t9 41t11.5 52t13.5 63.5zM276 -118q0 -33 -28.5 -60t-66.5 -27q-24 0 -38 11.5t-14 32.5q0 33 29 60.5t67 27.5q23 0 37 -12t14 -33z" />
<glyph unicode="&#x1ef2;" horiz-adv-x="542" d="M495 750l-19 -36q-106 27 -189 89l62 77q60 -68 146 -130zM278 0h-118l43 207l-93 443l118 10l58 -351h2l208 351l108 -10l-281 -443h-1z" />
<glyph unicode="&#x1ef3;" horiz-adv-x="477" d="M388 599l-22 -33q-89 47 -151 126l61 63q50 -84 112 -156zM252 2q-71 -90 -152.5 -143.5t-152.5 -53.5q-78 0 -78 51q0 36 26 54q38 -12 80 -12q51 0 110.5 34t92.5 82l-86 5q4 99 1 233q-5 150 -24 248l122 10q15 -75 20 -182q4 -116 -12 -260h2q69 110 112.5 228 t44.5 205q30 9 57 9q56 0 56 -47q0 -67 -66 -209t-153 -252z" />
<glyph unicode="&#x1ef8;" horiz-adv-x="542" d="M348 859q26 0 57 -21.5t49 -21.5q27 0 64 47l27 -7q-14 -48 -44 -82.5t-69 -34.5q-24 0 -57.5 21t-49.5 21q-30 0 -64 -47l-28 7q16 49 45.5 83.5t69.5 34.5zM278 0h-118l43 207l-93 443l118 10l58 -351h2l208 351l108 -10l-281 -443h-1z" />
<glyph unicode="&#x1ef9;" horiz-adv-x="477" d="M260 728q28 0 61.5 -25t51.5 -25q26 0 60 52l27 -7q-12 -49 -42 -85.5t-67 -36.5q-25 0 -61 25t-52 25q-30 0 -60 -51l-27 6q13 49 41.5 85.5t67.5 36.5zM252 2q-71 -90 -152.5 -143.5t-152.5 -53.5q-78 0 -78 51q0 36 26 54q38 -12 80 -12q51 0 110.5 34t92.5 82l-86 5 q4 99 1 233q-5 150 -24 248l122 10q15 -75 20 -182q4 -116 -12 -260h2q69 110 112.5 228t44.5 205q30 9 57 9q56 0 56 -47q0 -67 -66 -209t-153 -252z" />
<glyph unicode="&#x2013;" horiz-adv-x="473" d="M31 259l5 43h418l-6 -43h-417z" />
<glyph unicode="&#x2014;" horiz-adv-x="776" d="M32 259l9 43h673l-9 -43h-673z" />
<glyph unicode="&#x2018;" horiz-adv-x="277" d="M119 472q0 49 50 117t112 106l16 -23q-63 -62 -93 -127q34 -9 34 -43q0 -30 -22 -53.5t-52 -23.5q-21 0 -33 13t-12 34z" />
<glyph unicode="&#x2019;" horiz-adv-x="278" d="M290 649q0 -49 -50 -116.5t-111 -106.5l-17 23q64 63 93 127q-34 7 -34 43q0 30 22.5 53.5t52.5 23.5q44 0 44 -47z" />
<glyph unicode="&#x201a;" horiz-adv-x="243" d="M131 64q0 -49 -50 -117t-112 -106l-16 23q63 62 93 127q-34 9 -34 44q0 30 22.5 53t52.5 23q44 0 44 -47z" />
<glyph unicode="&#x201c;" horiz-adv-x="476" d="M119 472q0 48 50 116t112 107l16 -24q-64 -63 -93 -127q34 -7 34 -43q0 -30 -22 -53t-52 -23q-45 0 -45 47zM318 472q0 48 50 116t111 107l16 -24q-66 -66 -92 -127q34 -7 34 -43q0 -30 -22.5 -53t-52.5 -23q-44 0 -44 47z" />
<glyph unicode="&#x201d;" horiz-adv-x="476" d="M489 648q0 -48 -50 -116t-112 -107l-16 23q65 65 92 127q-33 8 -33 44q0 30 22 53t52 23q45 0 45 -47zM290 648q0 -48 -50 -116t-111 -107l-17 23q63 62 93 127q-34 9 -34 44q0 30 22.5 53t52.5 23q44 0 44 -47z" />
<glyph unicode="&#x201e;" horiz-adv-x="435" d="M131 64q0 -49 -50 -117t-112 -106l-16 23q63 62 93 127q-34 9 -34 44q0 30 22.5 53t52.5 23q44 0 44 -47zM323 64q0 -49 -50 -116.5t-111 -106.5l-17 23q63 62 93 127q-34 9 -34 44q0 30 22.5 53t52.5 23q44 0 44 -47z" />
<glyph unicode="&#x2020;" horiz-adv-x="487" d="M246 -5l-114 -5l97 407l-141 -6l21 91l136 -6l28 179l114 5l-49 -184l140 6l-21 -91l-137 6z" />
<glyph unicode="&#x2021;" horiz-adv-x="487" d="M246 -5l-114 -5l50 171l-145 -9l22 91l139 -9l13 94l24 83l-145 -8l22 91l139 -9l22 170l114 5l-51 -175l145 9l-21 -91l-140 8l-11 -82l-27 -94l146 8l-22 -91l-139 8z" />
<glyph unicode="&#x2022;" horiz-adv-x="439" d="M349 300q0 -62 -49.5 -112.5t-114.5 -50.5q-41 0 -65.5 22t-24.5 64q0 62 50 112t115 50q41 0 65 -22t24 -63z" />
<glyph unicode="&#x2026;" horiz-adv-x="749" d="M563 -10q-20 0 -32 12.5t-12 32.5q0 29 23.5 52.5t53.5 23.5q20 0 32 -10.5t12 -29.5q0 -30 -23 -55.5t-54 -25.5zM317 -10q-20 0 -32.5 12.5t-12.5 32.5q0 29 24 52.5t54 23.5q43 0 43 -40q0 -30 -23 -55.5t-53 -25.5zM70 -10q-20 0 -32 12.5t-12 32.5q0 29 23.5 52.5 t53.5 23.5q20 0 32 -10.5t12 -29.5q0 -30 -23 -55.5t-54 -25.5z" />
<glyph unicode="&#x2030;" horiz-adv-x="1341" d="M255 -10h-70l514 670h71zM426 524q0 -90 -59 -163.5t-152 -73.5q-59 0 -90 33t-31 96q0 90 59.5 164.5t151.5 74.5q58 0 89.5 -34t31.5 -97zM184 400q0 -67 45 -67q46 0 76.5 71t30.5 139q0 66 -45 66q-46 0 -76.5 -71.5t-30.5 -137.5zM871 232q0 -90 -59 -163.5 t-152 -73.5q-59 0 -90 33t-31 96q0 90 59.5 164.5t151.5 74.5q58 0 89.5 -34t31.5 -97zM1279 232q0 -90 -59 -163.5t-151 -73.5q-59 0 -90.5 33t-31.5 96q0 90 60 164.5t152 74.5q58 0 89 -34t31 -97zM629 108q0 -67 45 -67q46 0 76.5 71t30.5 139q0 66 -45 66 q-46 0 -76.5 -71.5t-30.5 -137.5zM1037 108q0 -67 46 -67t76.5 71t30.5 139q0 66 -45 66q-47 0 -77.5 -71.5t-30.5 -137.5z" />
<glyph unicode="&#x2039;" horiz-adv-x="305" d="M54 271l6 31q123 95 226 201l21 -15q-48 -77 -154 -202q52 -117 68 -202l-27 -14q-64 112 -140 201z" />
<glyph unicode="&#x203a;" horiz-adv-x="305" d="M267 302l-6 -31q-117 -91 -226 -201l-22 14q52 82 154 202q-53 125 -67 202l27 15q62 -109 140 -201z" />
<glyph unicode="&#x2044;" horiz-adv-x="556" d="M-13 -10h-71l515 670h71z" />
<glyph unicode="&#x2070;" horiz-adv-x="426" d="M443 604q0 -90 -59 -163.5t-152 -73.5q-59 0 -90 33t-31 96q0 90 59.5 164.5t151.5 74.5q58 0 89.5 -34t31.5 -97zM201 480q0 -67 45 -67q46 0 76.5 71t30.5 139q0 66 -45 66q-46 0 -76.5 -71.5t-30.5 -137.5z" />
<glyph unicode="&#x2074;" horiz-adv-x="419" d="M322 372h-84l14 65h-161l2 35l246 263l59 -5l-48 -228q18 1 54 5l-19 -70h-49zM301 656l-157 -157h120h2z" />
<glyph unicode="&#x2075;" horiz-adv-x="383" d="M370 497q0 -58 -53 -94t-134 -36q-50 0 -91 13l15 45q34 -12 74 -12q44 0 72.5 23.5t28.5 56.5q0 49 -63 49q-26 0 -68 -11l-7 4l41 195h125q62 0 104 5l-19 -72h-178l-23 -95q38 12 76 12q100 0 100 -83z" />
<glyph unicode="&#x2076;" horiz-adv-x="394" d="M399 509q0 -57 -49 -99.5t-121 -42.5q-58 0 -89.5 30.5t-31.5 88.5q0 96 75.5 172.5t182.5 76.5q39 0 53 -6l-16 -47q-17 7 -41 7q-45 0 -86 -34.5t-63 -102.5q43 37 101 37q39 0 62 -21.5t23 -58.5zM198 474q0 -61 43 -61q29 0 49.5 26.5t20.5 60.5q0 52 -49 52 q-28 0 -56 -24q-8 -26 -8 -54z" />
<glyph unicode="&#x2077;" horiz-adv-x="373" d="M210 372h-94q23 79 88 160t148 131h-86q-61 0 -124 -7l19 74h250l5 -5l-5 -40q-159 -146 -201 -313z" />
<glyph unicode="&#x2078;" horiz-adv-x="399" d="M94 440q0 33 33.5 61t85.5 41q-66 39 -66 88q0 44 47.5 74.5t112.5 30.5q51 0 81.5 -19.5t30.5 -52.5t-30 -59t-76 -39q80 -40 80 -92q0 -44 -50.5 -75t-122.5 -31q-57 0 -91.5 20t-34.5 53zM231 644q0 -34 48 -62q58 33 58 74q0 17 -12.5 27t-31.5 10q-25 0 -43.5 -14 t-18.5 -35zM179 450q0 -18 15.5 -29.5t41.5 -11.5q29 0 51 14.5t22 37.5q0 19 -15.5 33.5t-48.5 30.5q-66 -34 -66 -75z" />
<glyph unicode="&#x2079;" horiz-adv-x="394" d="M124 589q0 60 49 103t121 43q58 0 89.5 -30t31.5 -88q0 -96 -75.5 -173t-182.5 -77q-38 0 -54 6l17 47q16 -7 41 -7q44 0 85 31.5t64 93.5q-42 -36 -98 -36q-41 0 -64.5 23.5t-23.5 63.5zM325 629q0 61 -42 61q-30 0 -50.5 -29.5t-20.5 -66.5q0 -55 49 -55q29 0 56 23 q8 42 8 67z" />
<glyph unicode="&#x207f;" horiz-adv-x="472" d="M226 372h-99q-4 26 -4 43q0 71 35 223l8 94l110 7q-6 -29 -16.5 -77.5t-14.5 -68.5q29 65 73 105.5t92 40.5q34 0 54 -21.5t15 -66.5q-3 -28 -21 -110.5t-18 -127.5q0 -16 5 -41h-99q-5 28 -5 49q0 29 14.5 96.5t19.5 108.5q3 42 -26 42q-40 0 -83 -77.5t-44 -167.5v-2 v-4q0 -28 4 -45z" />
<glyph unicode="&#x2080;" horiz-adv-x="426" d="M329 67q0 -90 -59 -163.5t-152 -73.5q-59 0 -90.5 33t-31.5 95q0 91 60 165.5t152 74.5q58 0 89.5 -34t31.5 -97zM87 -57q0 -68 45 -68q46 0 76.5 71.5t30.5 139.5q0 66 -45 66q-46 0 -76.5 -71.5t-30.5 -137.5z" />
<glyph unicode="&#x2081;" horiz-adv-x="294" d="M82 -168h-84l67 305l-68 -25l-4 39l161 44l5 -4z" />
<glyph unicode="&#x2082;" horiz-adv-x="368" d="M209 -168h-247l2 47q80 51 147 112.5t67 106.5q0 19 -14.5 30.5t-40.5 11.5q-48 0 -97 -34l3 59q62 30 131 30q50 0 79 -20.5t29 -57.5q0 -58 -71.5 -115t-173.5 -104h80q61 0 125 8z" />
<glyph unicode="&#x2083;" horiz-adv-x="336" d="M214 -57q0 -50 -52 -81.5t-125 -31.5q-55 0 -92 12l16 48q33 -14 68 -14q41 0 68.5 20.5t27.5 48.5q0 46 -72 46q-10 0 -37 -3l5 30q56 14 94 38.5t38 52.5q0 34 -52 34q-39 0 -85 -22l6 51q52 26 118 26q47 0 74 -18t27 -50q0 -38 -38.5 -65.5t-98.5 -42.5 q110 -5 110 -79z" />
<glyph unicode="&#x2084;" horiz-adv-x="393" d="M189 -168h-84l14 64h-161l2 36l246 263l59 -5l-48 -228q18 1 54 5l-19 -71h-49zM168 116l-157 -157h120h2z" />
<glyph unicode="&#x2085;" horiz-adv-x="364" d="M247 -40q0 -58 -53.5 -94t-134.5 -36q-54 0 -91 12l15 46q39 -13 75 -13q44 0 72 24t28 56q0 25 -17.5 37.5t-44.5 12.5q-29 0 -69 -12l-6 5l41 195h125q61 0 103 5l-18 -72h-178l-23 -95q38 12 76 12q100 0 100 -83z" />
<glyph unicode="&#x2086;" horiz-adv-x="376" d="M285 -29q0 -56 -49 -98.5t-121 -42.5q-58 0 -90 30t-32 88q0 96 76 173t183 77q39 0 53 -6l-16 -47q-17 7 -41 7q-45 0 -86 -34.5t-63 -102.5q43 37 101 37q39 0 62 -21.5t23 -59.5zM84 -64q0 -61 43 -61q29 0 49.5 27t20.5 60q0 53 -49 53q-28 0 -56 -24q-8 -26 -8 -55z " />
<glyph unicode="&#x2087;" horiz-adv-x="343" d="M77 -168h-94q23 79 88.5 160t147.5 131h-85q-60 0 -125 -7l20 74h250l4 -5l-4 -40q-159 -144 -202 -313z" />
<glyph unicode="&#x2088;" horiz-adv-x="400" d="M-20 -97q0 32 34 60.5t85 41.5q-66 39 -66 88q0 44 47.5 74.5t112.5 30.5q51 0 81.5 -19.5t30.5 -52.5t-30 -59t-76 -39q80 -40 80 -93q0 -44 -50.5 -74.5t-122.5 -30.5q-57 0 -91.5 19.5t-34.5 53.5zM117 107q0 -34 48 -62q58 33 58 74q0 17 -12.5 27t-31.5 10 q-25 0 -43.5 -14t-18.5 -35zM65 -87q0 -18 15.5 -30t41.5 -12q29 0 51 14.5t22 37.5q0 34 -64 64q-29 -14 -47.5 -34t-18.5 -40z" />
<glyph unicode="&#x2089;" horiz-adv-x="377" d="M-8 52q0 59 49.5 102.5t121.5 43.5q58 0 89.5 -30t31.5 -88q0 -96 -75.5 -173t-182.5 -77q-40 0 -54 6l16 47q18 -7 42 -7q44 0 85 31.5t64 93.5q-43 -37 -98 -37q-41 0 -65 24t-24 64zM194 92q0 61 -42 61q-30 0 -50.5 -29.5t-20.5 -66.5q0 -55 49 -55q29 0 56 23 q8 42 8 67z" />
<glyph unicode="&#x20ac;" horiz-adv-x="537" d="M32 245l13 41h48q6 40 18 81h-42l12 41h44q44 111 129 181.5t190 70.5q82 0 140 -27l-36 -100q-20 18 -53 31.5t-64 13.5q-61 0 -107 -47t-72 -123h194l-12 -41h-195q-9 -34 -14 -81h185l-13 -41h-174v-6q0 -163 114 -163q66 0 122 37l-5 -87q-75 -36 -161 -36 q-100 0 -152 59.5t-52 172.5q0 15 1 23h-58z" />
<glyph unicode="&#x2122;" horiz-adv-x="567" d="M361 598h-1l-54 -173h-46l76 225l80 3l-6 -183l71 180l80 3l-20 -228h-60l21 175l-75 -175h-67zM183 425h-59l39 185l-57 -3l13 43h166l-7 -43l-56 3l1 3z" />
<glyph unicode="&#x2212;" horiz-adv-x="561" d="M477 284h-380l17 78q116 4 382 4z" />
<glyph unicode="&#x221e;" horiz-adv-x="828" d="M753 347q0 -89 -59.5 -161t-143.5 -72q-54 0 -86 30t-55 82q-89 -112 -192 -112q-58 0 -90 36t-32 97q0 89 60 159.5t143 70.5q53 0 85.5 -30.5t56.5 -83.5q90 114 194 114q57 0 88 -35t31 -95zM604 405q-68 0 -141 -99q23 -61 44 -89.5t55 -28.5q44 0 75 44t31 96 q0 36 -17.5 56.5t-46.5 20.5zM180 265q0 -37 17.5 -57.5t47.5 -20.5q68 0 141 97q-23 61 -44.5 90t-55.5 29q-45 0 -75.5 -43t-30.5 -95z" />
<glyph unicode="&#x2248;" horiz-adv-x="602" d="M224 421q-13 0 -67 -58l-38 21q82 121 127 121q24 0 109.5 -26t102.5 -26q13 0 68 57l37 -21q-82 -121 -126 -121q-25 0 -111.5 26.5t-101.5 26.5zM176 197q-13 0 -67 -58l-38 21q82 121 127 121q24 0 109.5 -26t102.5 -26q13 0 68 57l37 -21q-82 -121 -126 -121 q-25 0 -111.5 26.5t-101.5 26.5z" />
<glyph unicode="&#x2260;" horiz-adv-x="563" d="M138 70l-37 26l60 84h-85l16 78q17 1 61 1.5t66 0.5l93 128h-192l17 78q156 3 233 3l79 110l8 3l37 -26l-62 -86h87l-19 -82h-127l-92 -127q73 1 194 1l-19 -82h-233l-77 -107z" />
<glyph unicode="&#x2264;" horiz-adv-x="568" d="M545 576l-19 -87l-293 -88l255 -86l-19 -90q-204 72 -350 138l16 75zM437 76h-380l16 77q145 5 383 5z" />
<glyph unicode="&#x2265;" horiz-adv-x="569" d="M87 225l19 87l293 87l-255 87l19 90q208 -73 349 -138l-15 -75zM436 76h-380l17 77q145 5 382 5z" />
<glyph unicode="&#x25fc;" horiz-adv-x="510" d="M0 510h510v-510h-510v510z" />
<glyph unicode="&#xfb00;" horiz-adv-x="623" d="M636 415l-109 3l-85 -404q-17 -78 -67 -131.5t-152 -77.5l-18 44q54 27 79.5 67.5t38.5 103.5l83 395l-166 4l-85 -405q-17 -77 -67 -131t-152 -78l-19 44q54 27 80 67.5t39 103.5l84 401l-52 2l7 34l56 12v2q-3 38 1 68q6 62 59 100.5t133 38.5q80 -2 139 -30 q47 47 126 47q67 0 115 -27l-29 -77q-35 32 -78 32q-31 0 -51.5 -20t-25.5 -58q-6 -45 3 -76h129zM232 532q-6 -34 4 -63h182v2q-2 36 2 80q0 14 5 31q-43 24 -92 24q-40 0 -67.5 -18.5t-33.5 -55.5z" />
<glyph unicode="&#xfb01;" horiz-adv-x="559" d="M527 500q-11 -56 -27.5 -138t-25 -126t-15.5 -95.5t-7 -87.5q0 -26 4 -53h-120q-4 52 -4 58q0 81 25 198l27 127l2 31l-146 4l-85 -404q-17 -77 -67 -131t-152 -78l-19 44q54 27 80 67.5t39 103.5l84 401l-52 2l7 34l56 12v2q-2 37 2 79q6 67 67 106t152 39q72 0 140 -24 l-29 -79q-59 31 -118 31q-45 0 -75 -20.5t-37 -58.5q-6 -44 3 -75h154l122 35z" />
<glyph unicode="&#xfb02;" horiz-adv-x="573" d="M340 415l-100 3l-85 -404q-17 -77 -67 -131t-152 -78l-19 44q54 27 80 68t39 103l84 401l-52 2l7 34l56 12v2q-2 37 2 80q6 66 62 105t145 39q66 0 128 -15l114 15q-19 -100 -52.5 -253t-49 -240t-15.5 -148q0 -29 5 -54h-120q-5 28 -5 49q0 89 45 300l46 214l4 43 q-49 17 -95 17q-48 0 -77 -20.5t-35 -57.5q-6 -43 3 -76h117z" />
<glyph unicode="&#xfb03;" horiz-adv-x="847" d="M814 500q-11 -62 -34 -172t-32 -169t-9 -106q0 -28 5 -53h-120q-5 32 -5 58q0 81 25 198l27 127l2 31l-146 4l-85 -404q-16 -77 -66 -131t-152 -78l-19 44q54 26 79.5 67t38.5 104l84 395l-167 4l-85 -405q-17 -77 -67 -131t-152 -78l-19 44q54 27 80 67.5t39 103.5 l84 401l-52 2l7 34l56 12v2q-3 38 1 68q6 62 59 100.5t133 38.5q92 -2 146 -35q61 52 169 52q73 0 141 -24l-29 -79q-60 31 -119 31q-45 0 -74.5 -20.5t-36.5 -58.5q-8 -40 3 -75h154l122 35zM232 532q-6 -34 4 -63h183v2q-3 33 1 79q2 17 7 31q-44 25 -94 25 q-40 0 -67.5 -18.5t-33.5 -55.5z" />
<glyph unicode="&#xfb04;" horiz-adv-x="860" d="M627 415l-100 3l-85 -404q-17 -77 -67 -131t-152 -78l-18 44q53 27 79 68t39 103l83 395l-166 4l-85 -405q-17 -77 -67 -131t-152 -78l-19 44q54 27 80 67.5t39 103.5l84 401l-52 2l7 34l56 12v2q-3 38 1 68q6 62 59 100.5t133 38.5q84 0 143 -33q58 50 159 50 q67 0 129 -15l114 15q-19 -100 -52.5 -253t-49 -240t-15.5 -148q0 -29 5 -54h-120q-5 28 -5 49q0 89 45 300l46 214l4 43q-49 17 -95 17q-48 0 -77 -20.5t-35 -57.5q-6 -43 3 -76h117zM232 532q-6 -34 4 -63h182v2q-2 37 2 80q0 11 6 31q-45 24 -93 24q-40 0 -67.5 -18.5 t-33.5 -55.5z" />
<glyph unicode="&#xfb06;" horiz-adv-x="824" d="M364 151q0 -70 -65 -115.5t-165 -45.5q-84 0 -145 23l29 96q62 -40 140 -40q40 0 64.5 17.5t24.5 46.5q0 8 -2 15.5t-7.5 14.5t-10 12t-14.5 12.5t-16 11.5t-19 12.5t-20 12.5q-40 26 -61.5 52.5t-21.5 67.5q0 70 66 118t165 48q39 0 70 -7q-11 19 -11 46q0 63 63 110 t147 47q63 0 101 -30t38 -78q0 -62 -55 -115h168l-16 -54l-149 3q-64 -296 -64 -319q0 -45 47 -45q49 0 118 69l3 -61q-75 -86 -176 -86q-114 0 -114 104q0 8 0.5 17t3 24t5.5 29t9 43.5t11.5 55.5t16 76t20.5 96l-52 2l8 34l66 12q34 43 34 88q0 30 -19.5 48t-54.5 18 q-46 0 -78 -30t-32 -70q0 -26 13 -49l-28 -92q-61 36 -118 36q-39 0 -63.5 -20t-24.5 -49q0 -6 1 -11t4 -10.5t5.5 -9.5t8 -9.5t8.5 -8t11 -8.5t11 -8t12.5 -8.5t12.5 -8.5q29 -18 47 -32t34 -40.5t16 -57.5z" />
<glyph horiz-adv-x="307" d="M371 804q-95 -63 -205 -89l-15 36q91 60 163 130zM-73 -140q97 35 121 154l110 514l17 122l129 10l-124 -582q-12 -56 -26.5 -95.5t-42 -79t-74.5 -64.5t-113 -34z" />
<glyph horiz-adv-x="477" d="M30 106q0 61 31 123t93.5 106t140.5 44q62 0 120 -24l-28 -127q-25 -105 -25 -168q0 -21 5 -48h-99q-5 27 -5 46q0 39 10 96q-31 -66 -77 -107.5t-92 -41.5q-34 0 -54 26.5t-20 74.5zM132 126q0 -54 30 -54q33 0 73 62t66 154q2 6 4.5 18t3.5 18q-19 8 -34 8 q-55 0 -99 -70t-44 -136z" />
<glyph horiz-adv-x="469" d="M414 279q0 -62 -31 -123.5t-94 -106t-142 -44.5q-61 0 -119 23l82 383l8 94l111 7q-8 -38 -64 -294q30 70 78.5 115.5t95.5 45.5q35 0 55 -26.5t20 -73.5zM281 313q-36 0 -80.5 -75.5t-67.5 -177.5q17 -7 36 -7q55 0 99 70t44 135q0 55 -31 55z" />
<glyph horiz-adv-x="394" d="M304 114l3 -52q-59 -57 -143 -57q-59 0 -93.5 32.5t-34.5 96.5q0 96 69 170.5t165 74.5q50 0 87 -21l-25 -80q-34 47 -74 47q-46 0 -83 -58t-37 -121q0 -82 61 -82q50 0 105 50z" />
<glyph horiz-adv-x="484" d="M30 106q0 61 31 123t93.5 106t140.5 44q17 0 26 -1q2 6 4.5 18t3.5 15l8 94l111 7q-6 -29 -17.5 -82t-16.5 -75h1l-2 -1q-49 -228 -49 -294q0 -25 5 -48h-99q-5 28 -5 47q0 41 11 102q-30 -69 -77.5 -112.5t-94.5 -43.5q-34 0 -54 26.5t-20 74.5zM132 126q0 -53 30 -55 q34 0 76 68t68 166q2 14 4 19q-21 8 -35 8q-55 0 -99 -70t-44 -136z" />
<glyph horiz-adv-x="411" d="M320 114l2 -52q-24 -24 -70 -40.5t-89 -16.5q-60 0 -93.5 33.5t-33.5 95.5q0 93 66 169t157 76q46 0 74.5 -21t28.5 -57q0 -52 -55 -92t-135 -44q-13 -1 -33 1q-1 -7 -1 -20q0 -82 67 -82q56 0 115 50zM241 332q-33 0 -61.5 -46t-38.5 -102q63 10 98.5 45t35.5 69t-34 34 z" />
<glyph horiz-adv-x="303" d="M277 306l-84 2l-60 -282q-13 -59 -50.5 -100t-120.5 -54l-16 35q41 19 60 48.5t29 74.5l60 280l-40 2l5 27l44 10v2q-3 30 0 57q4 48 40.5 76t89.5 28q57 0 93 -21l-22 -62q-28 25 -61 25q-23 0 -38.5 -14t-19.5 -38q-4 -31 4 -53h99z" />
<glyph horiz-adv-x="430" d="M327 -25q0 -47 -56.5 -75t-145.5 -28q-151 0 -151 75q0 26 19.5 46t47.5 29l8 -8q-14 -43 -2 -71q16 -44 84 -44q37 0 65.5 14.5t28.5 34.5q0 17 -24 30.5t-53 21t-53 23.5t-24 38q0 25 27.5 45t72.5 27v2q-120 0 -120 91q0 60 51 106.5t140 46.5q102 0 163 6 q14 -11 14 -29q0 -13 -10 -23t-26 -10q-10 0 -23 4.5t-33.5 14t-35.5 14.5l-1 -3q71 -30 71 -86q0 -84 -120 -132l-15 -5q-14 -6 -19.5 -8.5t-16 -7.5t-15 -10t-4.5 -10q0 -10 24.5 -20t53.5 -18.5t53.5 -29.5t24.5 -51zM148 213q0 -47 35 -47q32 0 56.5 42t24.5 82 q0 46 -36 46q-34 0 -57 -41t-23 -82z" />
<glyph horiz-adv-x="473" d="M369 12h-99q-5 28 -5 49q0 36 17.5 119.5t17.5 96.5q0 14 -7.5 22.5t-19.5 8.5q-37 -1 -77 -67t-49 -149q-1 -14 -1 -38q0 -19 4 -42h-99q-4 20 -4 44q0 67 32 212l31 143l8 94l110 7q-11 -57 -32 -153t-27 -125q29 65 73.5 105t91.5 40q32 0 51 -18t19 -53 q0 -21 -20 -112.5t-20 -141.5q0 -19 5 -42z" />
<glyph horiz-adv-x="260" d="M229 493q0 -26 -22.5 -46.5t-52.5 -20.5q-19 0 -30.5 9.5t-11.5 25.5q0 25 23 46.5t53 21.5q19 0 30 -10t11 -26zM200 379q-6 -33 -18.5 -94t-18.5 -92t-11.5 -70.5t-5.5 -65.5t4 -45h-99q-4 21 -4 52q0 47 17 125l18 88l8 95z" />
<glyph horiz-adv-x="254" d="M232 493q0 -25 -22.5 -46t-52.5 -21q-19 0 -31 9.5t-12 25.5q0 25 23.5 46.5t53.5 21.5q41 0 41 -36zM201 379q-36 -162 -74 -352q-27 -133 -171 -155l-16 35q41 19 60 48.5t29 75.5l54 247l8 94z" />
<glyph horiz-adv-x="459" d="M150 12h-99q-4 25 -4 42q0 69 32 215l31 142l8 94l111 7q-7 -33 -29.5 -134.5t-31.5 -149.5q31 68 80 109.5t99 41.5q31 0 49 -16.5t17 -43.5q1 -72 -130 -148q38 -86 94 -159l-109 -7q-55 79 -79 150q123 77 123 130q0 13 -8 21.5t-21 8.5q-47 0 -92.5 -84t-44.5 -175 q0 -24 4 -44z" />
<glyph horiz-adv-x="260" d="M229 512q-10 -51 -28 -132.5t-28 -128.5t-18.5 -102t-8.5 -91q0 -25 4 -46h-99q-4 30 -4 43q0 73 31 214l32 142l8 94z" />
<glyph horiz-adv-x="676" d="M150 12h-99q-4 26 -4 43q0 71 35 223l8 94l110 7q-3 -14 -14 -66t-16 -77q27 64 70.5 103.5t88.5 39.5q33 0 52 -22t14 -66q-4 -24 -6 -37q28 57 68.5 91t81.5 34q33 0 52 -22.5t14 -64.5q-4 -30 -21 -111.5t-17 -124.5q0 -18 4 -44h-99q-4 22 -4 42q0 34 15 109.5 t19 104.5q1 15 -5.5 27.5t-17.5 12.5q-31 0 -69 -61t-50 -138q-3 -27 -3 -53q0 -28 4 -44h-99q-4 16 -4 42q0 33 15 110.5t18 103.5q1 16 -5 28t-18 12q-23 0 -51.5 -36t-49.5 -96t-21 -119q0 -28 4 -45z" />
<glyph horiz-adv-x="473" d="M150 12h-99q-4 26 -4 43q0 71 35 223l8 94l110 7q-6 -29 -16.5 -77.5t-14.5 -68.5q29 65 73 105.5t92 40.5q34 0 54 -21.5t15 -66.5q-3 -28 -21 -110.5t-18 -127.5q0 -16 5 -41h-99q-5 28 -5 49q0 29 14.5 96.5t19.5 108.5q3 42 -26 42q-40 0 -83 -77.5t-44 -167.5v-2v-4 q0 -28 4 -45z" />
<glyph horiz-adv-x="463" d="M402 248q0 -91 -68 -166.5t-164 -75.5q-61 0 -97.5 32.5t-36.5 94.5q0 92 68.5 169t164.5 77q63 0 98 -35t35 -96zM138 126q0 -72 48 -72q47 0 80.5 69t33.5 137q0 71 -47 71q-31 0 -58.5 -34t-42 -81t-14.5 -90z" />
<glyph horiz-adv-x="469" d="M201 379q-7 -31 -18.5 -85t-16.5 -76q30 70 78.5 115.5t95.5 45.5q34 0 54 -26.5t20 -73.5q0 -61 -31 -123t-93.5 -106.5t-140.5 -44.5q-11 0 -25 3q-6 -47 -6 -82q0 -28 4 -47h-99q-4 24 -4 44q0 65 33 212l31 143l7 94zM283 313q-37 0 -82 -75t-68 -178q18 -7 37 -7 q55 0 99 70t44 135q0 25 -8 40t-22 15z" />
<glyph horiz-adv-x="469" d="M30 106q0 61 31 123t93.5 106t140.5 44q62 0 120 -24q-7 -33 -19 -90q-39 -183 -49.5 -241.5t-10.5 -98.5q0 -24 5 -46h-99q-5 20 -5 44q0 61 35 229q-30 -65 -76.5 -106t-91.5 -41q-34 0 -54 26.5t-20 74.5zM132 126q0 -54 30 -54q34 -1 75 64.5t67 160.5l2 11 q2 11 4 16q-21 8 -35 8q-55 0 -99 -70t-44 -136z" />
<glyph horiz-adv-x="358" d="M150 12h-99q-4 26 -4 43q0 71 35 223l8 94l110 7q-6 -30 -17 -80t-15 -70q22 67 55.5 108.5t72.5 41.5q31 0 53 -20l-39 -80q-20 11 -46 11q-44 0 -80 -74.5t-38 -162.5q0 -25 4 -41z" />
<glyph horiz-adv-x="376" d="M296 122q0 -51 -50.5 -84t-127.5 -33q-67 0 -113 17l21 77q51 -30 109 -30q29 0 46.5 11t17.5 29q0 8 -2.5 14.5t-11 13t-13.5 10t-20.5 12t-21.5 12.5q-31 19 -47.5 38t-16.5 49q0 52 51.5 86.5t130.5 34.5q54 0 93 -13l-22 -78q-46 27 -92 27q-28 0 -46 -12.5 t-18 -30.5q0 -4 1 -7.5t3 -7t4 -6t6.5 -6t7 -6t8.5 -6t8.5 -5t9.5 -6t9 -5.5q36 -20 56 -40.5t20 -54.5z" />
<glyph horiz-adv-x="353" d="M276 62q-57 -57 -134 -57q-92 0 -92 80q0 27 46 238l-39 1l6 27l51 10l45 96l66 5q-14 -69 -22 -101h117l-13 -43l-113 3q-44 -199 -44 -221q0 -31 36 -31q37 0 87 45z" />
<glyph horiz-adv-x="469" d="M72 278l8 94l111 7q-10 -56 -24.5 -122t-22 -103t-7.5 -50q0 -27 25 -27q32 0 70 59t54 141q7 36 7 56q0 1 1 16.5t0 22.5l110 7q-6 -33 -18.5 -94t-18.5 -92t-11.5 -70.5t-5.5 -65.5q0 -22 5 -45h-99q-5 27 -5 57q0 33 6 65q-28 -60 -71 -94.5t-87 -34.5q-65 0 -65 77 q0 21 38 196z" />
<glyph horiz-adv-x="412" d="M75 168q-2 128 -20 204l101 7q11 -49 15 -132q3 -96 -8 -195h2q50 82 81.5 169t31.5 152q23 6 46 6q47 0 47 -40q0 -56 -58.5 -158.5t-154.5 -175.5l-82 7q2 80 -1 156z" />
<glyph horiz-adv-x="624" d="M75 166q-3 128 -20 206l101 7q11 -48 14 -133q3 -90 -8 -194h2q50 82 81 168.5t31 151.5l93 7q13 -54 15 -131q3 -101 -8 -196h2q50 82 81 169.5t30 151.5q23 6 47 6q47 0 47 -40q0 -57 -58.5 -159.5t-153.5 -174.5l-76 7q9 113 4 264q-18 -67 -58 -145t-84 -126l-83 7 q3 64 1 154z" />
<glyph horiz-adv-x="409" d="M5 39q-1 29 41.5 73.5t100.5 68.5q-38 129 -82 191l100 7q33 -48 65 -157q51 65 60 147q18 10 44 10q20 0 32 -9.5t12 -24.5q0 -30 -42.5 -73.5t-100.5 -67.5q41 -133 83 -192l-100 -7q-33 48 -65 157q-53 -70 -60 -146q-17 -11 -44 -11q-21 0 -32.5 9.5t-11.5 24.5z" />
<glyph horiz-adv-x="417" d="M214 15q-121 -143 -237 -143q-63 0 -63 41q0 30 20 43q32 -9 65 -9q40 0 85 22t68 55l-72 4q3 70 0 149q-2 110 -20 195l101 7q12 -56 15 -127q3 -89 -8 -185h2q50 77 81.5 160.5t31.5 145.5q23 6 46 6q48 0 48 -39q0 -48 -48 -146t-115 -179z" />
<glyph horiz-adv-x="400" d="M15 5l-16 25q148 134 241 253q-16 2 -55 9t-54 7q-39 0 -58 -35l-19 6q14 109 89 109q24 0 73 -13t75 -13q5 8 17 26q18 0 30 -7.5t11 -23.5q1 -40 -74.5 -115t-164.5 -137q21 0 57 -5t55 -5q65 0 88 45l20 -6q-16 -68 -45.5 -94t-74.5 -26q-26 0 -66 9.5t-61 9.5 q-33 0 -68 -19z" />
<glyph horiz-adv-x="476" d="M107 466q0 45 18.5 92.5t51.5 88t84 66.5t110 26q63 0 121 -24l-29 -127q-24 -112 -24 -168q0 -27 4 -48h-99q-4 21 -4 46q0 39 10 96q-31 -66 -77.5 -107.5t-91.5 -41.5q-34 0 -54 26.5t-20 74.5zM208 486q0 -53 30 -55q33 1 73 63t67 154q2 12 8 36q-19 8 -35 8 q-55 0 -99 -70t-44 -136z" />
<glyph horiz-adv-x="469" d="M491 639q0 -62 -31 -123.5t-94 -106t-142 -44.5q-61 0 -119 23l82 383l8 94l111 7q-8 -38 -64 -294q30 70 78.5 115.5t95.5 45.5q35 0 55 -26.5t20 -73.5zM358 673q-36 0 -80.5 -75.5t-67.5 -177.5q17 -7 36 -7q55 0 99 70t44 135q0 55 -31 55z" />
<glyph horiz-adv-x="394" d="M381 474l3 -52q-59 -57 -143 -57q-59 0 -93.5 32.5t-34.5 96.5q0 96 69 170.5t165 74.5q50 0 87 -21l-25 -80q-34 47 -74 47q-46 0 -83 -58t-37 -121q0 -82 61 -82q50 0 105 50z" />
<glyph horiz-adv-x="483" d="M107 466q0 45 18.5 92.5t51.5 88t84 66.5t110 26q18 0 27 -1q1 3 3.5 14.5t3.5 18.5l8 94l111 7q-7 -33 -34 -157h2l-2 -1q-49 -220 -49 -294q0 -25 5 -48h-99q-5 27 -5 47q0 47 11 102q-30 -69 -77.5 -112.5t-94.5 -43.5q-34 0 -54 26.5t-20 74.5zM208 486 q0 -25 8 -39.5t22 -14.5q34 -1 76 67t68 166q2 5 4 19q-19 8 -35 8q-55 0 -99 -70t-44 -136z" />
<glyph horiz-adv-x="411" d="M396 474l2 -52q-24 -24 -70 -40.5t-88 -16.5q-60 0 -93.5 33.5t-33.5 95.5q0 93 66 169t156 76q46 0 74.5 -21t28.5 -57q0 -52 -55 -92t-134 -44q-12 -1 -34 1q-1 -7 -1 -20q0 -82 68 -82q57 0 114 50zM318 692q-33 0 -61.5 -46t-38.5 -102q63 10 98 45t35 69 q0 15 -9 24.5t-24 9.5z" />
<glyph horiz-adv-x="303" d="M353 666l-83 2l-60 -282q-13 -58 -50.5 -99t-120.5 -55l-16 35q41 20 60 49.5t28 73.5l60 280l-40 2l6 27l43 10v2q-3 30 0 57q4 48 40.5 76t89.5 28q56 0 94 -21l-23 -62q-28 25 -61 25q-23 0 -38.5 -14t-18.5 -38q-4 -33 3 -53h100z" />
<glyph horiz-adv-x="430" d="M404 336q0 -48 -56.5 -76t-146.5 -28q-150 0 -150 75q0 26 19.5 46t46.5 29l8 -8q-14 -40 -2 -70q17 -44 84 -44q38 0 66 14t28 35q0 17 -24 30t-52.5 20.5t-52.5 23.5t-24 38q0 25 27.5 45t72.5 27v2q-121 0 -121 91q0 60 51.5 106.5t140.5 46.5q102 0 163 6 q14 -12 14 -29q0 -13 -10 -23t-27 -10q-10 0 -23 4.5t-33.5 14t-35.5 14.5l-1 -3q72 -30 72 -86q0 -84 -120 -132q-1 0 -14.5 -5t-20 -8t-17 -8t-15 -10t-4.5 -10q0 -10 24.5 -20t54 -18.5t54 -29t24.5 -50.5zM225 573q0 -47 34 -47q33 0 57 42t24 82q0 46 -36 46 q-34 0 -56.5 -41t-22.5 -82z" />
<glyph horiz-adv-x="473" d="M446 372h-99q-5 28 -5 49q0 36 17.5 119.5t17.5 96.5q0 14 -8 22.5t-19 7.5q-36 1 -76.5 -65.5t-49.5 -149.5q-1 -14 -1 -38q0 -19 4 -42h-99q-4 20 -4 44q0 67 32 212l31 143l8 94l111 7q-10 -49 -30.5 -142.5t-29.5 -135.5q29 65 73.5 105t91.5 40q32 0 51 -18t19 -53 q0 -21 -20 -112.5t-20 -141.5q0 -19 5 -42z" />
<glyph horiz-adv-x="259" d="M305 853q0 -26 -22.5 -46.5t-52.5 -20.5q-19 0 -30.5 9.5t-11.5 25.5q0 25 23 46.5t53 21.5q19 0 30 -10t11 -26zM276 739q-6 -33 -18.5 -94t-18.5 -92t-11.5 -70.5t-5.5 -65.5t4 -45h-99q-4 21 -4 52q0 47 17 125l18 88l8 95z" />
<glyph horiz-adv-x="255" d="M309 853q0 -25 -23 -46t-52 -21q-19 0 -31 9.5t-12 25.5q0 25 23.5 46.5t52.5 21.5q19 0 30.5 -9.5t11.5 -26.5zM278 739q-45 -204 -74 -352q-27 -133 -171 -155l-16 35q41 19 60 49t28 75l54 247l8 94z" />
<glyph horiz-adv-x="459" d="M227 372h-99q-4 25 -4 42q0 69 32 215l31 142l8 94l111 7q-7 -33 -29.5 -134.5t-31.5 -149.5q31 68 80 109.5t99 41.5q31 0 49 -16.5t17 -43.5q1 -72 -130 -148q38 -86 94 -159l-109 -7q-55 79 -79 150q123 77 123 130q0 13 -8 21.5t-21 8.5q-47 0 -92.5 -84t-44.5 -175 q0 -24 4 -44z" />
<glyph horiz-adv-x="260" d="M306 872q-10 -51 -28 -132.5t-28 -128.5t-18.5 -102t-8.5 -91q0 -25 4 -46h-99q-4 30 -4 43q0 73 31 214l32 142l8 94z" />
<glyph horiz-adv-x="675" d="M226 372h-99q-4 26 -4 43q0 71 35 223l8 94l110 7q-3 -14 -14 -66t-16 -77q27 64 70.5 103.5t88.5 39.5q33 0 52 -22t14 -66q-4 -24 -6 -37q28 57 68.5 91t81.5 34q33 0 52 -22.5t14 -64.5q-4 -30 -21 -111.5t-17 -124.5q0 -18 4 -44h-99q-4 22 -4 42q0 34 15 109.5 t19 104.5q1 15 -5.5 27.5t-17.5 12.5q-31 0 -69 -61t-50 -138q-3 -27 -3 -53q0 -28 4 -44h-99q-4 16 -4 42q0 33 15 110.5t18 103.5q1 16 -5 28t-18 12q-23 0 -51.5 -36t-49.5 -96t-21 -119q0 -28 4 -45z" />
<glyph horiz-adv-x="464" d="M479 608q0 -91 -68 -166.5t-164 -75.5q-61 0 -97.5 32.5t-36.5 94.5q0 92 68.5 169t164.5 77q63 0 98 -35t35 -96zM215 486q0 -72 48 -72q47 0 80.5 69t33.5 137q0 71 -47 71q-31 0 -58.5 -34t-42 -81t-14.5 -90z" />
<glyph horiz-adv-x="469" d="M277 739q-7 -31 -18.5 -85t-16.5 -76q30 70 78.5 115.5t95.5 45.5q34 0 54 -26.5t20 -73.5q0 -61 -31 -123t-93.5 -106.5t-140.5 -44.5q-11 0 -25 3q-6 -46 -6 -81q0 -29 4 -48h-99q-4 26 -4 44q0 65 33 212l31 143l7 94zM359 673q-37 0 -82 -75t-68 -178q18 -7 37 -7 q55 0 99 70t44 135q0 25 -8 40t-22 15z" />
<glyph horiz-adv-x="468" d="M107 466q0 45 18.5 92.5t51.5 88t84 66.5t110 26q63 0 121 -24q-53 -246 -66 -315.5t-13 -113.5q0 -28 4 -47h-99q-4 24 -4 44q0 67 35 229q-31 -65 -77 -106t-91 -41q-34 0 -54 26.5t-20 74.5zM208 486q0 -53 31 -55q33 1 74 66.5t67 159.5l6 27q-19 8 -35 8 q-55 0 -99 -70t-44 -136z" />
<glyph horiz-adv-x="357" d="M226 372h-99q-4 26 -4 43q0 71 35 223l8 94l110 7q-6 -30 -17 -80t-15 -70q22 67 55.5 108.5t72.5 41.5q31 0 53 -20l-39 -80q-20 11 -46 11q-44 0 -80 -74.5t-38 -162.5q0 -25 4 -41z" />
<glyph horiz-adv-x="377" d="M373 482q0 -51 -50.5 -84t-128.5 -33q-67 0 -113 17l22 77q49 -30 109 -30q29 0 46.5 11t17.5 29q0 8 -2.5 14.5t-11 13t-13.5 10t-20.5 12t-21.5 12.5q-31 19 -47.5 38t-16.5 49q0 52 51 86.5t130 34.5q54 0 93 -13l-21 -78q-47 27 -93 27q-27 0 -45 -12.5t-18 -30.5 q0 -4 1 -7.5t3 -7t4 -6t6.5 -6t7 -6t8.5 -6t8.5 -5t9.5 -6t9 -5.5q36 -20 56 -40.5t20 -54.5z" />
<glyph horiz-adv-x="353" d="M352 422q-57 -57 -134 -57q-92 0 -92 80q0 27 46 238l-39 1l6 27l51 10l45 96l67 5q-5 -21 -12.5 -55t-10.5 -46h117l-13 -43l-113 3q-44 -199 -44 -221q0 -31 36 -31q37 0 87 45z" />
<glyph horiz-adv-x="468" d="M431 372h-99q-5 27 -5 57q0 33 6 65q-28 -60 -71 -94.5t-87 -34.5q-65 0 -65 77q0 21 38 196l8 94l111 7q-10 -56 -24.5 -122t-22 -103t-7.5 -50q0 -27 25 -27q32 0 70 59t54 141q7 36 7 56q0 1 1 16.5t0 22.5l110 7q-6 -33 -18.5 -94t-18.5 -92t-11.5 -70.5t-5.5 -65.5 q0 -22 5 -45z" />
<glyph horiz-adv-x="411" d="M151 528q-2 128 -20 204l101 7q11 -49 15 -132q3 -96 -8 -195h2q50 82 81.5 169t31.5 152q23 6 46 6q47 0 47 -40q0 -56 -58.5 -158.5t-154.5 -175.5l-82 7q2 80 -1 156z" />
<glyph horiz-adv-x="623" d="M151 526q-3 128 -20 206l101 7q11 -48 14 -133q3 -90 -8 -194h2q50 82 81 168.5t31 151.5l93 7q13 -54 15 -131q3 -101 -8 -196h2q50 82 81 169.5t30 151.5q23 6 47 6q47 0 47 -40q0 -57 -58.5 -159.5t-153.5 -174.5l-76 7q9 113 4 264q-18 -67 -58 -145t-84 -126l-83 7 q3 64 1 154z" />
<glyph horiz-adv-x="408" d="M81 399q0 30 42 74t100 68q-38 129 -82 191l99 7q34 -48 66 -157q51 65 60 147q18 10 44 10q20 0 32 -9.5t12 -24.5q0 -30 -42.5 -73.5t-100.5 -67.5q41 -133 83 -192l-100 -7q-33 48 -65 157q-53 -70 -60 -146q-17 -11 -44 -11q-21 0 -32.5 9.5t-11.5 24.5z" />
<glyph horiz-adv-x="417" d="M291 375q-121 -143 -236 -143q-64 0 -64 42q0 30 21 43q30 -10 65 -10q39 0 84 22.5t68 54.5l-72 4q3 70 0 149q-2 110 -20 195l101 7q12 -56 15 -127q3 -89 -8 -185h2q50 77 81.5 160.5t31.5 145.5q23 6 46 6q48 0 48 -39q0 -48 -48 -146t-115 -179z" />
<glyph horiz-adv-x="400" d="M92 365l-16 25q148 134 241 253q-16 2 -55 9t-54 7q-39 0 -58 -35l-19 6q14 109 89 109q24 0 73 -13t75 -13q5 8 17 26q18 0 30 -7.5t11 -23.5q1 -40 -74.5 -115t-164.5 -137q21 0 57 -5t55 -5q65 0 88 45l20 -6q-16 -68 -45.5 -94t-74.5 -26q-26 0 -66 9.5t-61 9.5 q-33 0 -68 -19z" />
<glyph horiz-adv-x="270" d="M322 691q-81 -78 -182 -126l-22 34q80 75 142 156zM247 510q-22 -112 -103 -496q-36 -174 -219 -209l-18 44q53 27 79 68t39 102l75 353l13 128z" />
<glyph horiz-adv-x="994" d="M379 137l3 -61q-36 -39 -86.5 -62.5t-100.5 -23.5q-75 0 -117.5 43.5t-42.5 129.5q0 135 90 241t214 106q28 0 52 -6q-10 23 -10 48q0 65 67.5 109.5t169.5 44.5q63 0 108 -11q-17 -86 -45.5 -219.5t-35.5 -169.5q39 92 97 148t119 56q40 0 64.5 -23.5t24.5 -73.5 q0 -30 -28 -159.5t-28 -204.5q0 -28 4 -49h-120q-4 29 -4 60q0 56 25 177t25 140q0 21 -11 33.5t-27 12.5q-46 0 -100 -89.5t-71 -202.5q-6 -47 -6 -83q0 -18 5 -48h-120q-5 32 -5 53q0 85 45 296l45 208l6 63q-15 3 -32 3q-54 0 -85.5 -24t-31.5 -66q0 -29 15 -54l-33 -99 q-43 63 -95 63q-63 0 -114 -85.5t-51 -178.5q0 -117 81 -117q65 0 140 75z" />
<glyph horiz-adv-x="842" d="M379 137l3 -61q-37 -40 -86.5 -63t-101.5 -23q-74 0 -116.5 43.5t-42.5 129.5q0 134 89.5 240.5t210.5 106.5q27 0 57 -10q-4 13 -4 32q0 70 57.5 122t141.5 52q60 0 97 -29t37 -76q0 -64 -48 -118h172l-16 -54l-149 3q-64 -297 -64 -319q0 -45 47 -45q49 0 118 69l3 -61 q-75 -86 -176 -86q-114 0 -114 104q0 8 0.5 17t3 24t5.5 29t9 43.5t11.5 55.5t16 76t20.5 96l-52 2l8 34l66 12q24 48 24 87q0 32 -17.5 49.5t-49.5 17.5q-44 0 -74 -33.5t-30 -79.5q0 -28 13 -55l-30 -89q-43 63 -95 63q-63 0 -114 -85.5t-51 -180.5q0 -115 81 -115 q65 0 140 75z" />
<glyph horiz-adv-x="975" d="M364 151q0 -70 -65 -115.5t-165 -45.5q-84 0 -145 23l29 96q62 -40 140 -40q40 0 64.5 17.5t24.5 46.5q0 8 -2 15.5t-7.5 14.5t-10 12t-14.5 12.5t-16 11.5t-19 12.5t-20 12.5q-40 26 -61.5 52.5t-21.5 67.5q0 70 66 118t167 48q29 0 64 -5q-14 25 -14 55 q0 61 67.5 103.5t169.5 42.5q64 0 111 -11h1q-16 -88 -46 -228t-34 -161q38 92 96 148t120 56q39 0 64 -23.5t25 -73.5q0 -30 -28.5 -159.5t-28.5 -204.5q0 -22 5 -49h-120q-5 28 -5 60q0 56 25 177t25 140q0 21 -10.5 33.5t-27.5 12.5q-46 0 -99.5 -89t-71.5 -203 q-5 -52 -5 -83q0 -16 4 -48h-120q-4 26 -4 53q0 85 45 296l44 208l6 62q-22 4 -36 4q-54 0 -86 -21t-32 -59q0 -28 15 -51l-28 -96q-61 36 -118 36q-39 0 -63.5 -20t-24.5 -49q0 -6 1 -11t4 -10.5t5.5 -9.5t8 -9.5t8.5 -8t11 -8.5t11 -8t12.5 -8.5t12.5 -8.5 q30 -18 47.5 -32t33.5 -40.5t16 -57.5z" />
<glyph horiz-adv-x="426" d="M364 232q0 -90 -59 -163.5t-152 -73.5q-59 0 -90 33t-31 96q0 90 59.5 164.5t151.5 74.5q58 0 89.5 -34t31.5 -97zM122 108q0 -67 45 -67q46 0 76.5 71t30.5 139q0 66 -45 66q-46 0 -76.5 -71.5t-30.5 -137.5z" />
<glyph horiz-adv-x="300" d="M142 0h-84l66 305l-67 -25l-4 39l160 44l5 -4z" />
<glyph horiz-adv-x="385" d="M254 0h-246l2 48q79 49 146.5 111t67.5 107q0 20 -15 31t-41 11q-47 0 -96 -34l2 59q62 30 132 30q50 0 79 -20.5t29 -57.5q0 -58 -71.5 -115t-173.5 -104h80q64 0 124 9z" />
<glyph horiz-adv-x="362" d="M267 109q0 -50 -52 -82t-125 -32q-56 0 -92 13l17 48q30 -15 67 -15q41 0 68.5 21t27.5 48q0 24 -21 35.5t-51 11.5q-19 0 -37 -4l5 30q56 14 94 38.5t38 52.5q0 34 -52 34q-39 0 -85 -22l6 51q52 26 118 26q47 0 74 -18t27 -50q0 -38 -38.5 -65.5t-98.5 -42.5 q110 -5 110 -78z" />
<glyph horiz-adv-x="419" d="M243 0h-84l14 65h-161l2 35l246 263l59 -5l-48 -228q18 1 54 5l-19 -70h-49zM222 284l-157 -157h120h2z" />
<glyph horiz-adv-x="383" d="M291 125q0 -58 -53 -94t-134 -36q-55 0 -91 13l15 45q34 -12 74 -12q44 0 72.5 23.5t28.5 56.5q0 49 -63 49q-26 0 -68 -11l-7 4l41 195h125q61 0 104 5l-19 -72h-178l-23 -95q38 12 76 12q100 0 100 -83z" />
<glyph horiz-adv-x="394" d="M320 137q0 -57 -49 -99.5t-121 -42.5q-58 0 -89.5 30.5t-31.5 88.5q0 96 75.5 172.5t182.5 76.5q39 0 53 -6l-16 -47q-17 7 -41 7q-45 0 -86 -34.5t-63 -102.5q43 37 101 37q39 0 62 -21.5t23 -58.5zM119 102q0 -61 43 -61q29 0 49.5 26.5t20.5 60.5q0 52 -49 52 q-27 0 -56 -24q-8 -26 -8 -54z" />
<glyph horiz-adv-x="373" d="M131 0h-95q23 79 88.5 160t148.5 131h-86q-61 0 -124 -7l19 74h250l5 -5l-5 -40q-159 -146 -201 -313z" />
<glyph horiz-adv-x="399" d="M15 68q0 33 33.5 61t85.5 41q-66 39 -66 88q0 44 47.5 74.5t112.5 30.5q51 0 81.5 -19.5t30.5 -52.5t-30 -59t-76 -39q80 -40 80 -92q0 -44 -50.5 -75t-122.5 -31q-57 0 -91.5 20t-34.5 53zM152 272q0 -34 48 -62q58 33 58 74q0 17 -12.5 27t-31.5 10q-25 0 -43.5 -14 t-18.5 -35zM100 78q0 -18 15.5 -29.5t41.5 -11.5q29 0 51 14.5t22 37.5q0 19 -16 33.5t-48 30.5q-66 -34 -66 -75z" />
<glyph horiz-adv-x="394" d="M45 217q0 60 49 103t121 43q58 0 89.5 -30t31.5 -88q0 -96 -75.5 -173t-182.5 -77q-38 0 -54 6l17 47q16 -7 40 -7q45 0 86 31.5t64 93.5q-42 -36 -98 -36q-41 0 -64.5 23.5t-23.5 63.5zM246 257q0 61 -42 61q-30 0 -50.5 -29.5t-20.5 -66.5q0 -55 49 -55q29 0 56 23 q8 42 8 67z" />
<glyph horiz-adv-x="600" d="M576 442q0 -77 -24.5 -156.5t-67 -145.5t-108 -108t-140.5 -42q-85 0 -133 54t-48 162q0 77 25 157t68 146.5t108.5 108.5t139.5 42q86 0 133 -55.5t47 -162.5zM181 189q0 -132 78 -132q55 0 100.5 71.5t68 164t22.5 171.5q0 129 -76 129q-56 0 -102 -72t-68.5 -163.5 t-22.5 -168.5z" />
<glyph horiz-adv-x="371" d="M196 0h-118l122 574l-111 -49l-3 59l242 76l7 -6z" />
<glyph horiz-adv-x="513" d="M384 0h-385l5 67q360 287 360 431q0 39 -23.5 61t-66.5 22q-74 0 -158 -62l6 86q100 55 207 55q77 0 120.5 -35.5t43.5 -99.5q0 -187 -407 -431h130q99 0 200 14z" />
<glyph horiz-adv-x="476" d="M407 203q0 -93 -83 -153t-200 -60q-80 0 -142 24l26 70q50 -26 109 -26q70 0 117 43t47 100q0 48 -34 69.5t-84 21.5q-33 0 -59 -6l10 45q92 26 155.5 75t63.5 107q0 32 -22.5 50t-62.5 18q-61 0 -138 -42l10 74q86 47 186 47q73 0 113 -30.5t40 -85.5q0 -71 -64 -124 t-161 -81q173 -10 173 -136z" />
<glyph horiz-adv-x="562" d="M359 0h-118l28 131h-260l4 50l402 479l82 -10l-91 -426q50 3 90 10l-31 -103h-78zM356 540l-269 -321h188h13z" />
<glyph horiz-adv-x="506" d="M445 234q0 -105 -85 -174.5t-214 -69.5q-78 0 -141 24l25 67q55 -24 117 -24q76 0 124 50t48 117q0 49 -28 73t-74 24q-53 0 -110 -21l-9 9l73 341h192q89 0 162 10l-30 -103h-281l-42 -199q64 20 119 20q74 0 114 -37t40 -107z" />
<glyph horiz-adv-x="535" d="M500 249q0 -102 -78 -180.5t-191 -78.5q-84 0 -132.5 49.5t-48.5 150.5q0 111 53.5 219t150 179.5t208.5 71.5q61 0 85 -12l-26 -68q-26 13 -67 13q-75 0 -145 -71t-109 -215q33 39 78.5 60t90.5 21q61 0 96 -37t35 -102zM176 158q0 -101 70 -101q56 0 93 57.5t37 127.5 q0 90 -67 90q-28 0 -60.5 -17t-57.5 -48q-15 -59 -15 -109z" />
<glyph horiz-adv-x="490" d="M177 0h-132q40 150 150.5 306.5t240.5 250.5h-136q-102 0 -200 -15l32 108h389l7 -7l-9 -56q-118 -120 -210.5 -275t-131.5 -312z" />
<glyph horiz-adv-x="559" d="M28 119q0 63 56 116t140 78q-102 70 -102 158q0 79 74.5 134t176.5 55q76 0 122 -34t46 -91q0 -62 -50.5 -113t-128.5 -77q60 -33 93 -76t33 -91q0 -78 -79.5 -133t-191.5 -55q-87 0 -138 35.5t-51 93.5zM240 492q0 -65 76 -120q48 29 78 69.5t30 82.5q0 34 -20.5 54 t-53.5 20q-43 0 -76.5 -30.5t-33.5 -75.5zM148 134q0 -36 25.5 -59t69.5 -23q51 0 88.5 30.5t37.5 77.5q0 36 -25 65t-75 61q-53 -29 -87 -69.5t-34 -82.5z" />
<glyph horiz-adv-x="536" d="M518 460q0 -112 -53 -219.5t-151 -179t-213 -71.5q-54 0 -76 12l25 68q30 -13 67 -13q73 0 142 66t106 198q-34 -38 -78 -58.5t-87 -20.5q-59 0 -95.5 39t-36.5 110q0 107 79.5 188t191.5 81q82 0 130.5 -50t48.5 -150zM191 394q0 -95 70 -95q65 0 115 66q16 62 16 120 q0 108 -69 108q-56 0 -94 -64t-38 -135z" />
<glyph horiz-adv-x="426" d="M426 524q0 -90 -59 -163.5t-152 -73.5q-59 0 -90 33t-31 96q0 90 59.5 164.5t151.5 74.5q58 0 89.5 -34t31.5 -97zM184 400q0 -67 45 -67q46 0 76.5 71t30.5 139q0 66 -45 66q-46 0 -76.5 -71.5t-30.5 -137.5z" />
<glyph horiz-adv-x="300" d="M204 292h-84l66 305l-67 -25l-4 39l160 44l5 -4z" />
<glyph horiz-adv-x="385" d="M316 292h-246l2 48q79 49 146.5 111t67.5 107q0 20 -15 31t-41 11q-47 0 -96 -34l2 59q62 30 132 30q50 0 79 -20.5t29 -57.5q0 -58 -71.5 -115t-173.5 -104h80q64 0 124 9z" />
<glyph horiz-adv-x="362" d="M329 401q0 -50 -52 -82t-125 -32q-52 0 -91 13l16 48q30 -15 67 -15q41 0 68.5 21t27.5 48q0 24 -21 35.5t-51 11.5q-19 0 -37 -4l5 30q56 14 94 38.5t38 52.5q0 34 -52 34q-39 0 -85 -22l6 51q52 26 118 26q47 0 74 -18t27 -50q0 -38 -38.5 -65.5t-98.5 -42.5 q110 -5 110 -78z" />
<glyph horiz-adv-x="419" d="M305 292h-84l14 65h-161l2 35l246 263l59 -5l-48 -228q18 1 54 5l-19 -70h-49zM284 576l-157 -157h120h2z" />
<glyph horiz-adv-x="383" d="M353 417q0 -58 -53 -94t-134 -36q-50 0 -91 13l15 45q34 -12 74 -12q44 0 72.5 23.5t28.5 56.5q0 49 -63 49q-26 0 -68 -11l-7 4l41 195h125q61 0 104 5l-19 -72h-178l-23 -95q38 12 76 12q100 0 100 -83z" />
<glyph horiz-adv-x="394" d="M382 429q0 -57 -49 -99.5t-121 -42.5q-58 0 -89.5 30.5t-31.5 88.5q0 96 75.5 172.5t182.5 76.5q39 0 53 -6l-16 -47q-18 7 -41 7q-45 0 -86 -34.5t-63 -102.5q43 37 101 37q39 0 62 -21.5t23 -58.5zM181 394q0 -61 43 -61q29 0 49.5 26.5t20.5 60.5q0 52 -49 52 q-27 0 -56 -24q-8 -26 -8 -54z" />
<glyph horiz-adv-x="373" d="M193 292h-94q23 79 88 160t148 131h-86q-61 0 -124 -7l19 74h250l5 -5l-5 -40q-159 -146 -201 -313z" />
<glyph horiz-adv-x="399" d="M77 360q0 33 33.5 61t85.5 41q-66 39 -66 88q0 44 47.5 74.5t112.5 30.5q51 0 81.5 -19.5t30.5 -52.5t-30 -59t-76 -39q80 -40 80 -92q0 -44 -50.5 -75t-122.5 -31q-57 0 -91.5 20t-34.5 53zM214 564q0 -34 48 -62q58 33 58 74q0 17 -12.5 27t-31.5 10q-25 0 -43.5 -14 t-18.5 -35zM162 370q0 -18 15.5 -29.5t41.5 -11.5q29 0 51 14.5t22 37.5q0 19 -16 33.5t-48 30.5q-66 -34 -66 -75z" />
<glyph horiz-adv-x="394" d="M107 509q0 60 49 103t121 43q58 0 89.5 -30t31.5 -88q0 -96 -75.5 -173t-182.5 -77q-38 0 -54 6l17 47q16 -7 41 -7q44 0 85 31.5t64 93.5q-42 -36 -98 -36q-41 0 -64.5 23.5t-23.5 63.5zM308 549q0 61 -42 61q-30 0 -50.5 -29.5t-20.5 -66.5q0 -55 49 -55q29 0 56 23 q8 42 8 67z" />
<glyph horiz-adv-x="547" d="M503 332q0 -130 -84.5 -236t-209.5 -106q-77 0 -121.5 44t-44.5 132q0 131 84.5 237.5t209.5 106.5q79 0 122.5 -45t43.5 -133zM167 159q0 -102 64 -102q44 0 79.5 49.5t52.5 113.5t17 121q0 102 -65 102q-44 0 -79.5 -49.5t-52 -113.5t-16.5 -121z" />
<glyph horiz-adv-x="371" d="M196 0h-118l90 424l-111 -49l-3 59l242 76l7 -6z" />
<glyph d="M366 0h-365l2 61q56 38 86 59t79 59t74.5 65t46 61t20.5 62q0 30 -20 47t-56 17q-69 0 -153 -65l6 86q41 24 99.5 41t112.5 17q65 0 102 -26.5t37 -77.5q0 -37 -22 -76t-54.5 -71t-81.5 -66t-91.5 -58t-95.5 -51h103q100 0 201 14z" />
<glyph horiz-adv-x="481" d="M380 51q0 -91 -84 -151t-205 -60q-79 0 -142 21l25 71q53 -25 109 -25q71 0 119.5 43.5t48.5 102.5q0 46 -33 67.5t-87 21.5q-35 0 -60 -6l10 45q98 27 157.5 77t59.5 104q0 33 -22 51t-63 18q-58 0 -136 -39l10 75q90 43 186 43q72 0 112.5 -30.5t40.5 -85.5 q0 -68 -61.5 -122.5t-163.5 -83.5q179 -8 179 -137z" />
<glyph horiz-adv-x="571" d="M330 -185h-118l38 180h-270l4 51l409 464l82 -10l-88 -412q55 5 89 10l-30 -103h-78zM337 404l-277 -321l196 1h12z" />
<glyph horiz-adv-x="506" d="M413 84q0 -105 -85 -174.5t-214 -69.5q-76 0 -141 23l24 67q58 -23 118 -23q76 0 124 50t48 117q0 49 -28 73t-74 24q-53 0 -110 -21l-9 9l73 341h192q89 0 162 10l-30 -103h-281l-42 -199q64 20 119 20q74 0 114 -37t40 -107z" />
<glyph horiz-adv-x="535" d="M500 249q0 -102 -78 -180.5t-191 -78.5q-84 0 -132.5 49.5t-48.5 150.5q0 111 53.5 219t150 179.5t208.5 71.5q61 0 85 -12l-26 -68q-26 13 -67 13q-75 0 -145 -71t-109 -215q33 39 78.5 60t90.5 21q61 0 96 -37t35 -102zM176 158q0 -101 70 -101q56 0 93 57.5t37 127.5 q0 90 -67 90q-28 0 -60.5 -17t-57.5 -48q-15 -59 -15 -109z" />
<glyph horiz-adv-x="490" d="M145 -150h-132q40 150 150.5 306.5t240.5 250.5h-136q-103 0 -200 -15l32 108h389l7 -7l-9 -56q-118 -120 -210.5 -275t-131.5 -312z" />
<glyph horiz-adv-x="559" d="M28 119q0 63 56 116t140 78q-102 70 -102 158q0 79 74.5 134t176.5 55q76 0 122 -34t46 -91q0 -62 -50.5 -113t-128.5 -77q60 -33 93 -76t33 -91q0 -78 -79.5 -133t-191.5 -55q-87 0 -138 35.5t-51 93.5zM240 492q0 -65 76 -120q48 29 78 69.5t30 82.5q0 34 -20.5 54 t-53.5 20q-43 0 -76.5 -30.5t-33.5 -75.5zM148 134q0 -36 25.5 -59t69.5 -23q51 0 88.5 30.5t37.5 77.5q0 36 -25 65t-75 61q-53 -29 -87 -69.5t-34 -82.5z" />
<glyph horiz-adv-x="534" d="M484 310q0 -112 -53 -219.5t-151 -179t-213 -71.5q-53 0 -77 12l26 68q26 -13 67 -13q73 0 142 66t106 198q-34 -38 -78 -58.5t-87 -20.5q-59 0 -95.5 39t-36.5 110q0 107 79.5 188t191.5 81q82 0 130.5 -50t48.5 -150zM157 244q0 -95 70 -95q65 0 115 66q16 62 16 120 q0 108 -69 108q-56 0 -94 -64t-38 -135z" />
<glyph horiz-adv-x="285" d="M168 164h-80q61 337 79 486l125 10q-3 -22 -22 -120q-35 -173 -102 -376zM158 50q0 -30 -26.5 -55.5t-60.5 -25.5q-22 0 -35 11t-13 31q0 30 27 56t61 26q21 0 34 -11t13 -32z" />
<glyph horiz-adv-x="271" d="M127 592q0 30 26.5 55.5t60.5 25.5q22 0 35 -11t13 -30q0 -30 -27 -56t-61 -26q-21 0 -34 11t-13 31zM122 487h81q-69 -387 -83 -505l-127 -10q8 50 26 134q41 186 103 381z" />
<glyph horiz-adv-x="491" d="M240 160h-83q-1 7 3 53q2 34 24 68.5t51.5 62.5t58.5 55.5t49 57t20 55.5q0 28 -20 43.5t-51 15.5q-76 0 -151 -65l-32 67q107 87 222 87q71 0 113 -35t42 -96q0 -47 -22.5 -87t-55.5 -68.5t-67 -54t-61 -55t-33 -60.5q-5 -24 -7 -44zM234 50q0 -30 -26.5 -55.5 t-60.5 -25.5q-48 0 -48 42q0 31 26.5 56.5t61.5 25.5q21 0 34 -11t13 -32z" />
<glyph horiz-adv-x="491" d="M288 600q0 30 26.5 55.5t60.5 25.5q22 0 35 -11t13 -30q0 -30 -27 -56t-61 -26q-21 0 -34 11t-13 31zM281 490h83q1 -12 -2 -53q-3 -33 -25 -67.5t-51 -62.5t-58 -55.5t-49 -57t-20 -55.5q0 -28 20 -44t51 -16q74 0 151 66l32 -67q-110 -88 -222 -88q-71 0 -113 35 t-42 97q0 47 22.5 86.5t55.5 68t67 54t61 55t33 60.5q5 39 6 44z" />
<glyph horiz-adv-x="296" d="M133 193q-20 0 -32 12t-12 32q0 29 23.5 53t53.5 24q20 0 32 -11t12 -30q0 -30 -23 -55t-54 -25z" />
<glyph horiz-adv-x="422" d="M341 300q0 -62 -49.5 -112.5t-114.5 -50.5q-41 0 -65.5 22t-24.5 64q0 62 50.5 112t115.5 50q40 0 64 -22t24 -63z" />
<glyph horiz-adv-x="401" d="M205 395l38 112l-97 -69l-16 47l108 42l-90 44l36 46l68 -69l10 112h52l-40 -113l99 70l16 -46l-108 -44l90 -42l-36 -47l-69 70l-9 -113h-52z" />
<glyph horiz-adv-x="383" d="M88 -10l-50 14l-2 5l291 651l50 -13l1 -5z" />
<glyph horiz-adv-x="449" d="M371 -10l-290 652l1 5l50 13l291 -651l-2 -5z" />
<glyph horiz-adv-x="685" d="M535 179h-127l-83 -189l-54 8l-4 7l76 174h-133l-83 -189l-53 8l-4 7l76 174h-115l-5 5l19 52h127l79 179h-125l-4 5l18 52h136l83 188l53 -8l4 -6l-76 -174h133l83 188l54 -8l4 -6l-77 -174h107l5 -5l-19 -52h-118l-79 -179h116l4 -5zM235 236h134l79 179h-134z" />
<glyph horiz-adv-x="639" d="M480 124h-113l-59 -134l-54 8l-4 7l52 119h-120l-59 -134l-53 8l-5 7l53 119h-99l-4 6l18 52h110l61 138h-101l-4 6l18 52h113l59 132l53 -8l4 -6l-52 -118h120l59 132l53 -8l5 -6l-53 -118h100l5 -6l-19 -52h-111l-61 -138h102l4 -6zM207 182h121l61 138h-120z" />
<glyph horiz-adv-x="343" d="M64 235q0 139 89.5 265t227.5 195l22 -44q-99 -81 -156.5 -195.5t-57.5 -235.5q0 -135 75 -225l-41 -44q-77 48 -118 122.5t-41 161.5z" />
<glyph horiz-adv-x="343" d="M311 411q0 -138 -90 -264t-228 -196l-22 44q100 80 157 195t57 236q0 134 -74 225l41 44q77 -47 118 -121.5t41 -162.5z" />
<glyph horiz-adv-x="362" d="M141 233q0 48 -72 55l13 65q106 11 106 103q0 14 -3.5 40.5t-3.5 42.5q0 156 238 156l-12 -62q-112 0 -112 -101q0 -12 2.5 -38t2.5 -37q0 -55 -37 -90.5t-99 -46.5q41 -9 66 -30.5t25 -52.5q0 -28 -31 -91.5t-31 -87.5q0 -50 81 -51l-15 -62q-96 0 -141.5 22t-45.5 69 q0 37 34.5 104t34.5 93z" />
<glyph horiz-adv-x="361" d="M250 408q0 -48 73 -55l-14 -65q-54 -6 -79.5 -30.5t-25.5 -73.5q0 -14 3.5 -40t3.5 -43q0 -156 -239 -156l12 62q112 2 112 102q0 12 -2.5 37.5t-2.5 36.5q0 55 37 90.5t99 46.5q-41 9 -66 30.5t-25 52.5q0 28 31 92t31 88q0 50 -81 50l15 62q97 0 142 -22t45 -69 q0 -37 -34.5 -103.5t-34.5 -92.5z" />
<glyph horiz-adv-x="399" d="M179 695h226l-15 -69h-113l-129 -602h114l-15 -70h-225l142 672z" />
<glyph horiz-adv-x="398" d="M251 -46h-226l15 70h113l129 602h-114l15 69h226l-143 -671z" />
<glyph horiz-adv-x="342" d="M49 312l4 43h276l-4 -43h-276z" />
<glyph horiz-adv-x="481" d="M47 312l5 43h418l-6 -43h-417z" />
<glyph horiz-adv-x="734" d="M44 312l9 43h673l-9 -43h-673z" />
<glyph horiz-adv-x="243" d="M131 64q0 -49 -50 -117t-112 -106l-16 23q63 62 93 127q-34 9 -34 44q0 30 22.5 53t52.5 23q44 0 44 -47z" />
<glyph horiz-adv-x="435" d="M131 64q0 -49 -50 -117t-112 -106l-16 23q63 62 93 127q-34 9 -34 44q0 30 22.5 53t52.5 23q44 0 44 -47zM323 64q0 -49 -50 -116.5t-111 -106.5l-17 23q63 62 93 127q-34 9 -34 44q0 30 22.5 53t52.5 23q44 0 44 -47z" />
<glyph horiz-adv-x="442" d="M112 437q0 48 50 116t112 107l16 -24q-64 -63 -93 -127q34 -7 34 -43q0 -30 -22 -53t-52 -23q-45 0 -45 47zM311 437q0 48 50 116t111 107l16 -24q-66 -66 -92 -127q34 -7 34 -43q0 -30 -22.5 -53t-52.5 -23q-44 0 -44 47z" />
<glyph horiz-adv-x="442" d="M447 614q0 -49 -50 -117t-112 -106l-16 23q66 66 92 127q-33 7 -33 43q0 30 22 53.5t52 23.5q21 0 33 -13t12 -34zM248 614q0 -49 -50 -116.5t-111 -106.5l-17 23q64 63 93 127q-34 7 -34 43q0 30 22.5 53.5t52.5 23.5q44 0 44 -47z" />
<glyph horiz-adv-x="243" d="M112 437q0 49 50 117t112 106l16 -23q-63 -62 -93 -127q34 -8 34 -43q0 -30 -22 -53.5t-52 -23.5q-21 0 -33 13t-12 34z" />
<glyph horiz-adv-x="243" d="M248 613q0 -48 -50 -116t-111 -107l-17 23q63 62 93 127q-34 8 -34 44q0 30 22.5 53t52.5 23q44 0 44 -47z" />
<glyph horiz-adv-x="514" d="M278 345l6 31q123 95 226 201l21 -15q-48 -77 -154 -202q52 -117 68 -202l-27 -14q-64 112 -140 201zM70 345l6 31q123 95 226 201l21 -15q-48 -77 -154 -202q52 -117 68 -202l-27 -14q-64 112 -140 201z" />
<glyph horiz-adv-x="513" d="M283 376l-6 -31q-111 -85 -227 -201l-21 14q48 77 154 202q-52 117 -68 202l27 15q63 -111 141 -201zM491 376l-6 -31q-111 -85 -227 -201l-21 14q48 77 154 202q-52 117 -68 202l27 15q63 -111 141 -201z" />
<glyph horiz-adv-x="305" d="M69 342l6 31q123 95 226 201l21 -15q-48 -77 -154 -202q52 -117 68 -202l-27 -14q-64 112 -140 201z" />
<glyph horiz-adv-x="305" d="M282 373l-6 -31q-117 -91 -226 -201l-22 14q52 82 154 202q-53 125 -67 202l27 15q62 -109 140 -201z" />
<glyph horiz-adv-x="370" d="M231 660l-85 -275h-38l32 275h91zM409 660l-86 -275h-38l32 275h92z" />
<glyph horiz-adv-x="207" d="M236 660l-85 -275h-38l32 275h91z" />
<glyph horiz-adv-x="452" d="M166 -123l23 113q-72 2 -113 45.5t-42 127.5q0 128 83.5 232t200.5 114l24 111l38 3l-24 -114q53 -4 95 -30l-33 -99q-43 63 -95 63q-63 0 -114 -85.5t-51 -178.5q0 -117 81 -117q65 0 140 75l3 -61q-64 -70 -154 -83l-24 -113z" />
<glyph horiz-adv-x="473" d="M359 67l-51 72q-53 -40 -114 -40q-54 0 -87 30l-72 -63l-22 31l72 63q-15 29 -15 68q0 88 68 156l-48 68l33 28q30 -39 49 -68q50 34 105 34q56 -1 89 -36l80 71l23 -31l-82 -72q13 -31 13 -63q0 -79 -58 -145q25 -35 53 -71zM129 241q0 -38 20.5 -63t59.5 -25 q55 0 93.5 46.5t38.5 102.5q0 38 -20.5 62t-59.5 24q-55 0 -93.5 -45t-38.5 -102z" />
<glyph horiz-adv-x="472" d="M124 -123l23 113q-91 4 -149 28l41 111q63 -57 136 -57q47 0 77 27.5t30 67.5q0 27 -19 52t-46 46.5t-53.5 46t-45.5 60t-19 78.5q0 77 56.5 133.5t147.5 71.5l25 115l48 3l-24 -113h9q74 0 131 -22l-42 -106q-54 46 -117 46q-46 0 -76.5 -28.5t-30.5 -68.5q0 -28 19 -54 t46 -48t53.5 -46.5t45.5 -60t19 -77.5q0 -81 -61 -136t-152 -67l-24 -112z" />
<glyph horiz-adv-x="537" d="M32 245l13 41h48q6 40 18 81h-42l12 41h44q44 111 129 181.5t190 70.5q82 0 140 -27l-36 -100q-20 18 -53 31.5t-64 13.5q-61 0 -107 -47t-72 -123h194l-12 -41h-195q-9 -34 -14 -81h185l-13 -41h-174v-6q0 -163 114 -163q66 0 122 37l-5 -87q-75 -36 -161 -36 q-100 0 -152 59.5t-52 172.5q0 15 1 23h-58z" />
<glyph horiz-adv-x="513" d="M432 277l-150 3l-68 -215q-9 -29 -17.5 -51t-29 -56.5t-44.5 -57t-64 -39.5t-88 -17q-54 0 -98 20l41 69q42 -22 71 -22q79 0 117 137l62 235l-83 2l13 34l83 12q37 128 43 143q69 186 250 186q70 0 111 -27l-49 -85q-31 45 -81 45q-71 0 -112 -123q-28 -83 -43 -139h157 z" />
<glyph horiz-adv-x="537" d="M453 286l-143 3l-5 -17q-52 -166 -154 -240q38 -25 61.5 -38.5t66.5 -27.5t86 -14q42 0 83 13l-53 -93q-19 -8 -54 -8q-38 0 -73 11t-72 37.5t-52 39.5t-53 48q-33 -10 -62 -10q-37 0 -49.5 12t-8.5 33q5 23 23.5 35.5t43.5 12.5q30 -1 68 -23q41 54 68 153l19 79l-93 2 l12 35l93 12q42 164 111 250.5t184 86.5q63 0 107 -24l-46 -85q-37 41 -81 41q-52 0 -83.5 -60.5t-71.5 -208.5h149z" />
<glyph horiz-adv-x="542" d="M52 107l9 41h130l12 59h-129l9 42h112l-85 401l118 10l58 -351h2l208 351l108 -10l-255 -401h111l-9 -42h-129l-12 -59h128l-8 -41h-129l-23 -107h-118l22 107h-130z" />
<glyph horiz-adv-x="452" d="M166 -123l23 113q-72 2 -113 45.5t-42 127.5q0 128 83.5 232t200.5 114l24 111l38 3l-24 -114q53 -4 95 -30l-33 -99q-43 63 -95 63q-63 0 -114 -85.5t-51 -178.5q0 -117 81 -117q65 0 140 75l3 -61q-64 -70 -154 -83l-24 -113z" />
<glyph horiz-adv-x="473" d="M353 42l-50 72q-54 -40 -115 -40q-54 0 -86 30l-72 -63l-22 31l71 63q-15 29 -15 68q0 86 68 156l-47 68l32 28q26 -35 50 -68q50 34 104 34q58 -1 89 -36l81 71l23 -31l-83 -72q13 -27 13 -63q0 -81 -58 -145q31 -43 54 -71zM124 216q0 -38 20.5 -63t59.5 -25 q55 0 93 46.5t38 102.5q0 38 -20.5 62t-59.5 24q-55 0 -93 -45t-38 -102z" />
<glyph horiz-adv-x="426" d="M104 -123l24 113q-80 2 -139 23l29 96q62 -40 140 -40q40 0 64.5 17.5t24.5 46.5q0 8 -2 15.5t-7.5 14.5t-10 12t-14.5 12.5t-16 11.5t-19 12.5t-20 12.5q-40 26 -61.5 52.5t-21.5 67.5q0 61 50 105.5t131 56.5l24 114l39 3l-24 -113h14q69 0 118 -18l-28 -96 q-61 36 -118 36q-39 0 -63.5 -20t-24.5 -49q0 -6 1 -11t4 -10.5t5.5 -9.5t8 -9.5t8.5 -8t11 -8.5t11 -8t12.5 -8.5t12.5 -8.5q30 -18 47.5 -32t33.5 -40.5t16 -57.5q0 -64 -55 -108t-143 -52l-24 -111z" />
<glyph horiz-adv-x="497" d="M375 192h-172v-13q0 -117 81 -117q65 0 140 75l3 -61q-36 -39 -86.5 -62.5t-100.5 -23.5q-75 0 -117.5 43.5t-43.5 129.5q0 9 2 29h-63l11 34h56q3 17 13 51h-53l11 34h55q39 88 112.5 143.5t160.5 55.5q60 0 112 -31l-33 -99q-43 63 -95 63q-40 0 -76.5 -37t-60.5 -95 h181l-10 -34h-184q-8 -28 -11 -51h179z" />
<glyph horiz-adv-x="519" d="M424 205l-148 3l-43 -126q-68 -205 -238 -205q-52 0 -98 20l41 69q44 -22 72 -22q39 0 68 33t43 84l40 150l-92 2l13 34l92 12q8 32 26 82q64 169 245 169q74 0 113 -27l-48 -85q-31 45 -83 45q-38 0 -63.5 -27.5t-46.5 -83.5q-23 -64 -25 -73h153z" />
<glyph horiz-adv-x="532" d="M428 207l-147 3q-50 -127 -126 -181q37 -24 60.5 -37t65 -26.5t83.5 -13.5q43 0 84 13l-53 -93q-19 -8 -54 -8q-38 0 -73 11t-70 36t-52.5 40t-52.5 48q-29 -9 -61 -9q-62 0 -62 37q0 23 20 39.5t48 15.5q29 0 68 -22q37 48 62 135l5 17l-98 3l12 35l99 12h1 q29 104 95.5 176t172.5 72q65 0 109 -24l-47 -85q-34 42 -81 42q-48 0 -79.5 -49t-57.5 -132h151z" />
<glyph horiz-adv-x="502" d="M34 92l7 34h128l12 57h-127l6 33h121l-103 284l111 10l73 -238h1l168 238l102 -10l-218 -284h121l-7 -33h-129l-12 -57h129l-7 -34h-129l-19 -92h-119l19 92h-128z" />
<glyph horiz-adv-x="610" d="M502 284h-147l-34 -163h-86l34 163h-147l16 78q70 2 148 2l34 166h87l-35 -165q57 1 149 1z" />
<glyph horiz-adv-x="576" d="M484 284h-380l17 78q116 4 382 4z" />
<glyph horiz-adv-x="594" d="M398 127l-98 138l-153 -134l-45 58l156 137l-100 142l67 56q27 -35 101 -137l153 134l46 -60l-155 -135q39 -54 99 -139l-2 -9z" />
<glyph horiz-adv-x="610" d="M417 520q-4 -31 -26 -54t-52 -23q-21 0 -32.5 15t-8.5 36q5 30 28.5 53t51.5 23q20 0 31.5 -14t7.5 -36zM502 284h-380l17 78q116 4 382 4zM341 157q-5 -30 -27 -52.5t-51 -22.5q-22 0 -33.5 14.5t-8.5 36.5q5 30 28.5 52.5t51.5 22.5q21 0 32.5 -14t7.5 -37z" />
<glyph horiz-adv-x="610" d="M524 388h-380l16 78q116 4 383 4zM479 180h-380l17 78q116 4 382 4z" />
<glyph horiz-adv-x="610" d="M162 70l-37 26l60 84h-85l16 78q17 1 61 1.5t66 0.5l93 128h-192l17 78q156 3 233 3l79 110l8 3l37 -26l-62 -86h87l-19 -82h-127l-92 -127q73 1 194 1l-19 -82h-233l-77 -107z" />
<glyph horiz-adv-x="610" d="M86 109l20 95l302 123l-250 119l21 95q181 -87 340 -180l-14 -70z" />
<glyph horiz-adv-x="610" d="M557 541l-20 -95l-302 -123l250 -119l-21 -95q-169 81 -340 180l15 70z" />
<glyph horiz-adv-x="610" d="M108 225l18 87l294 87l-256 87l20 90q208 -73 349 -138l-16 -75zM457 76h-380l16 77q145 5 383 5z" />
<glyph horiz-adv-x="610" d="M566 576l-19 -87l-293 -88l255 -86l-18 -90q-205 71 -350 138l16 75zM458 76h-380l17 77q145 5 382 5z" />
<glyph horiz-adv-x="610" d="M509 340h-147l-29 -138h-85l28 138h-147l16 78q70 2 148 2l29 141h88l-30 -140q57 1 148 1zM445 43h-380l16 78q116 4 383 4z" />
<glyph horiz-adv-x="610" d="M229 421q-14 0 -68 -58l-37 21q82 121 126 121q25 0 110.5 -26t101.5 -26q12 0 69 57l37 -21q-82 -121 -127 -121q-25 0 -111.5 26.5t-100.5 26.5zM181 197q-14 0 -68 -58l-37 21q82 121 126 121q25 0 110.5 -26t101.5 -26q12 0 69 57l37 -21q-82 -121 -127 -121 q-25 0 -111.5 26.5t-100.5 26.5z" />
<glyph horiz-adv-x="610" d="M519 383l-50 -236h-85l33 152h-302l17 79q143 5 387 5z" />
<glyph horiz-adv-x="835" d="M757 347q0 -89 -59.5 -161t-143.5 -72q-54 0 -86 30t-55 82q-89 -112 -192 -112q-58 0 -90 36t-32 97q0 89 60 159.5t143 70.5q53 0 85.5 -30.5t56.5 -83.5q90 114 194 114q57 0 88 -35t31 -95zM608 405q-68 0 -141 -99q23 -61 44 -89.5t55 -28.5q44 0 75 44t31 96 q0 36 -17.5 56.5t-46.5 20.5zM184 265q0 -37 17.5 -57.5t47.5 -20.5q68 0 141 97q-23 61 -44.5 90t-55.5 29q-45 0 -75.5 -43t-30.5 -95z" />
<glyph horiz-adv-x="933" d="M255 -10h-70l514 670h71zM426 524q0 -90 -59 -163.5t-152 -73.5q-59 0 -90 33t-31 96q0 90 59.5 164.5t151.5 74.5q58 0 89.5 -34t31.5 -97zM184 400q0 -67 45 -67q46 0 76.5 71t30.5 139q0 66 -45 66q-46 0 -76.5 -71.5t-30.5 -137.5zM871 232q0 -90 -59 -163.5 t-152 -73.5q-59 0 -90 33t-31 96q0 90 59.5 164.5t151.5 74.5q58 0 89.5 -34t31.5 -97zM629 108q0 -67 45 -67q46 0 76.5 71t30.5 139q0 66 -45 66q-46 0 -76.5 -71.5t-30.5 -137.5z" />
<glyph horiz-adv-x="1341" d="M255 -10h-70l514 670h71zM426 524q0 -90 -59 -163.5t-152 -73.5q-59 0 -90 33t-31 96q0 90 59.5 164.5t151.5 74.5q58 0 89.5 -34t31.5 -97zM184 400q0 -67 45 -67q46 0 76.5 71t30.5 139q0 66 -45 66q-46 0 -76.5 -71.5t-30.5 -137.5zM871 232q0 -90 -59 -163.5 t-152 -73.5q-59 0 -90 33t-31 96q0 90 59.5 164.5t151.5 74.5q58 0 89.5 -34t31.5 -97zM1279 232q0 -90 -59 -163.5t-151 -73.5q-59 0 -90.5 33t-31.5 96q0 90 60 164.5t152 74.5q58 0 89 -34t31 -97zM629 108q0 -67 45 -67q46 0 76.5 71t30.5 139q0 66 -45 66 q-46 0 -76.5 -71.5t-30.5 -137.5zM1037 108q0 -67 46 -67t76.5 71t30.5 139q0 66 -45 66q-47 0 -77.5 -71.5t-30.5 -137.5z" />
<glyph horiz-adv-x="610" d="M486 209h-147l-34 -163h-86l34 163h-147l16 78q70 2 148 2l34 166h87l-35 -165q57 1 149 1z" />
<glyph horiz-adv-x="576" d="M468 209h-380l17 78q116 4 382 4z" />
<glyph horiz-adv-x="566" d="M367 52l-97 138l-154 -134l-45 58l156 137l-99 142l66 56q40 -52 102 -137l152 134l46 -60l-155 -135q83 -115 100 -139l-3 -9z" />
<glyph horiz-adv-x="610" d="M401 445q-4 -31 -26 -54t-52 -23q-21 0 -32.5 15t-8.5 36q5 30 28.5 53t51.5 23q20 0 31.5 -14t7.5 -36zM486 209h-380l17 78q116 4 382 4zM325 82q-5 -30 -27 -52.5t-51 -22.5q-22 0 -33.5 14.5t-8.5 36.5q5 30 28.5 52.5t51.5 22.5q21 0 32.5 -14t7.5 -37z" />
<glyph horiz-adv-x="610" d="M508 313h-380l16 78q116 4 383 4zM463 105h-380l17 78q116 4 382 4z" />
<glyph horiz-adv-x="610" d="M146 -6l-37 27l60 84h-85l16 77q10 1 127 3l93 128h-192l17 78q156 3 233 3l79 110l8 3l37 -26l-62 -86h87l-19 -82h-127l-92 -127q73 1 194 1l-19 -82h-233l-77 -108z" />
<glyph horiz-adv-x="610" d="M69 33l20 95l302 123l-250 119l21 95q181 -87 340 -180l-14 -70z" />
<glyph horiz-adv-x="611" d="M541 465l-20 -95l-302 -123l250 -119l-21 -95q-169 81 -340 180l15 70z" />
<glyph horiz-adv-x="612" d="M99 159l17 80l295 83l-259 84l17 80q259 -91 352 -128l-15 -70zM445 20h-380l15 73q116 4 383 4z" />
<glyph horiz-adv-x="611" d="M544 486l-17 -80l-295 -84l260 -83l-17 -80l-352 129l14 70q121 41 407 128zM446 20h-380l15 73q116 4 383 4z" />
<glyph horiz-adv-x="610" d="M493 270h-145l-29 -136h-85l28 136h-149l15 72q41 1 149 3l29 138h88l-30 -137q30 0 80.5 0.5t66.5 0.5zM435 -5h-380l15 73q145 5 383 5z" />
<glyph horiz-adv-x="610" d="M213 346q-14 0 -68 -58l-37 21q82 121 126 121q25 0 110.5 -26t101.5 -26q12 0 69 57l37 -21q-82 -121 -127 -121q-25 0 -111.5 26.5t-100.5 26.5zM165 122q-14 0 -68 -58l-37 21q82 121 126 121q25 0 110.5 -26t101.5 -26q12 0 69 57l37 -21q-82 -121 -127 -121 q-25 0 -111.5 26.5t-100.5 26.5z" />
<glyph horiz-adv-x="610" d="M519 382l-50 -236h-85l32 152h-301l17 79q142 5 387 5z" />
<glyph horiz-adv-x="835" d="M754 331q0 -89 -60 -161t-144 -72q-54 0 -85.5 29.5t-54.5 82.5q-89 -112 -193 -112q-58 0 -90 36t-32 97q0 89 60.5 159.5t143.5 70.5q53 0 85.5 -30.5t55.5 -83.5q90 114 194 114q57 0 88.5 -35t31.5 -95zM604 389q-66 0 -141 -99q23 -61 44 -89.5t56 -28.5 q44 0 74.5 44t30.5 96q0 36 -17 56.5t-47 20.5zM180 249q0 -37 18 -57.5t48 -20.5q68 0 141 97q-24 62 -45.5 90.5t-55.5 28.5q-45 0 -75.5 -43t-30.5 -95z" />
<glyph horiz-adv-x="830" d="M375 408q0 -69 -54.5 -119.5t-129.5 -50.5q-53 0 -84.5 26t-31.5 76q0 68 54.5 119t130.5 51q54 0 84.5 -26.5t30.5 -75.5zM593 510h66l-423 -520h-66zM161 341q0 -61 45 -61q37 0 60.5 42t23.5 87q0 60 -44 60q-37 0 -61 -41t-24 -87zM755 160q0 -69 -54.5 -119.5 t-129.5 -50.5q-53 0 -84.5 26t-31.5 76q0 68 54.5 119t130.5 51q54 0 84.5 -26t30.5 -76zM541 94q0 -62 46 -62q37 0 60 42t23 87q0 60 -44 60q-37 0 -61 -41t-24 -86z" />
<glyph horiz-adv-x="1173" d="M375 408q0 -69 -54.5 -119.5t-129.5 -50.5q-53 0 -84.5 26t-31.5 76q0 68 54.5 119t130.5 51q54 0 84.5 -26.5t30.5 -75.5zM593 510h66l-423 -520h-66zM161 341q0 -61 45 -61q37 0 60.5 42t23.5 87q0 60 -44 60q-37 0 -61 -41t-24 -87zM1098 160q0 -69 -54.5 -119.5 t-129.5 -50.5q-53 0 -84.5 26t-31.5 76q0 68 54.5 119t130.5 51q54 0 84.5 -26t30.5 -76zM755 160q0 -69 -54.5 -119.5t-129.5 -50.5q-53 0 -84.5 26t-31.5 76q0 68 54.5 119t130.5 51q54 0 84.5 -26t30.5 -76zM884 94q0 -62 46 -62q37 0 60 42t23 87q0 60 -44 60 q-37 0 -61 -41t-24 -86zM541 94q0 -62 46 -62q37 0 60 42t23 87q0 60 -44 60q-37 0 -61 -41t-24 -86z" />
<glyph horiz-adv-x="738" d="M653 77q0 -36 -22.5 -59t-60.5 -28l-7 7q11 17 11 40q0 45 -86 100q-125 -147 -291 -147q-86 0 -132 40t-47 102q0 66 50 124t128 85q-40 54 -40 120q0 91 71.5 145t172.5 54q68 0 109.5 -26.5t41.5 -71.5q0 -36 -29.5 -64.5t-73.5 -41.5q155 0 272 9q0 -37 -14 -91 q-59 4 -102 11q-12 -83 -57 -163q106 -74 106 -145zM279 486q0 -16 4 -31t8.5 -27.5t16 -27t18.5 -23.5t24.5 -23.5t26 -21t30 -21t29.5 -19.5t32.5 -20t30.5 -19q23 64 28 146q-65 15 -109 33l-2 16q29 47 29 83q0 27 -16 44.5t-48 17.5q-42 0 -72 -28.5t-30 -78.5z M142 166q0 -52 34 -83t92 -31q109 0 184 106q-12 7 -46.5 26t-53 30t-46 28.5t-49 35t-38.5 36.5q-35 -29 -56 -68.5t-21 -79.5z" />
<glyph horiz-adv-x="344" d="M340 473q0 -63 -46.5 -113t-110.5 -50q-44 0 -69 26t-25 71q0 63 46 112.5t109 49.5q45 0 70.5 -26t25.5 -70zM142 419q0 -27 15 -44t40 -17q37 0 63 32t26 71q0 27 -14.5 43.5t-39.5 16.5q-37 0 -63.5 -31.5t-26.5 -70.5z" />
<glyph horiz-adv-x="353" d="M348 323q0 -63 -46.5 -113t-110.5 -50q-44 0 -69 26t-25 71q0 63 46 112.5t109 49.5q45 0 70.5 -26t25.5 -70zM150 269q0 -27 15 -44t40 -17q37 0 63 32t26 71q0 27 -14.5 43.5t-39.5 16.5q-37 0 -63.5 -31.5t-26.5 -70.5z" />
<glyph horiz-adv-x="614" d="M381 804q-94 -62 -205 -89l-16 36q94 62 164 130zM679 804q-94 -62 -205 -89l-16 36q94 62 164 130zM165 0h-119l112 528l17 122l130 10zM235 -140q95 34 121 154l109 514l18 122l128 10l-123 -582q-10 -45 -20 -77t-29.5 -67.5t-45.5 -59.5t-67 -42.5t-94 -26.5z" />
<glyph horiz-adv-x="543" d="M314 691q-81 -78 -182 -126l-22 34q80 75 142 156zM596 691q-83 -78 -183 -126l-22 34q83 78 143 156zM243 510q-12 -65 -35.5 -179t-32.5 -172.5t-9 -105.5q0 -28 5 -53h-120q-5 26 -5 53q0 85 25 203l25 114l12 130zM521 510q-52 -253 -103 -496q-19 -86 -71.5 -138.5 t-147.5 -70.5l-18 44q53 27 79 68t39 102l75 353l12 128z" />
</font>
</defs>
</svg>
