<?xml version="1.0" standalone="no"?>
<!DOCTYPE svg PUBLIC "-//W3C//DTD SVG 1.1//EN" "http://www.w3.org/Graphics/SVG/1.1/DTD/svg11.dtd" >
<svg xmlns="http://www.w3.org/2000/svg" xmlns:xlink="http://www.w3.org/1999/xlink" version="1.1">
<metadata></metadata>
<defs>
<font id="indivisa_text_serifbold" horiz-adv-x="596" >
<font-face units-per-em="1000" ascent="800" descent="-200" />
<missing-glyph horiz-adv-x="250" />
<glyph unicode="&#xfb00;" horiz-adv-x="679" d="M226 47l71 -29l-2 -18h-261l-2 18l37 15q18 8 25 18.5t7 30.5v360h-67l-2 18l69 27v24q0 96 69.5 161.5t174.5 65.5q89 0 146 -50q67 70 163 70q62 0 104.5 -32.5t42.5 -75.5q0 -26 -17.5 -41t-43.5 -15q-18 0 -40 8q-4 58 -19 85.5t-46 27.5q-42 0 -66 -42t-24 -117v-72 h125v-42h-125v-395l89 -29l-2 -18h-279l-2 18l37 15q32 15 32 49v360h-194v-395zM420 509q0 42 13 84q-29 102 -101 102q-50 0 -78 -36.5t-28 -101.5v-73h186l8 3v22z" />
<glyph unicode="&#xfb03;" horiz-adv-x="964" d="M226 47l71 -29l-2 -18h-261l-2 18l37 15q18 8 25 18.5t7 30.5v360h-67l-2 18l69 27v24q0 96 70 161.5t175 65.5q90 0 147 -50q70 70 174 70q78 0 131.5 -32.5t53.5 -77.5q0 -25 -15.5 -39.5t-40.5 -14.5q-32 0 -50 10q-13 51 -34.5 81t-61.5 30q-50 0 -77 -39.5 t-27 -112.5v-79h208q61 20 108 24l8 -9v-452l69 -29l-2 -18h-258l-2 18l37 15q18 8 24.5 18.5t6.5 30.5v360h-199v-395l76 -29l-2 -18h-266l-2 18l37 15q32 15 32 49v360h-195v-395zM421 509q0 45 14 87q-30 99 -102 99q-51 0 -79 -36.5t-28 -101.5v-73h195v25z" />
<glyph unicode="&#xfb04;" horiz-adv-x="963" d="M226 47l77 -29l-2 -18h-267l-2 18l37 15q18 8 25 18.5t7 30.5v360h-67l-2 18l69 27v24q0 96 70 161.5t175 65.5q88 0 145 -48q68 68 172 68q53 0 99 -18q55 15 99 18l9 -8v-703l69 -29l-2 -18h-259l-2 18l37 15q32 15 32 49v360h-200v-395l77 -29l-2 -18h-267l-2 18 l37 15q32 15 32 49v360h-194v-395zM545 577v-93h200v163q-30 68 -95 68q-50 0 -77.5 -36t-27.5 -102zM420 519q0 43 14 82q-30 94 -101 94q-51 0 -79 -36.5t-28 -101.5v-73h194v35z" />
<glyph unicode="fi" horiz-adv-x="645" d="M226 47l77 -29l-2 -18h-267l-2 18l37 15q18 8 25 18.5t7 30.5v360h-67l-2 18l69 27v22q0 106 71 177.5t175 71.5q78 0 132 -32.5t54 -77.5q0 -25 -15.5 -39.5t-41.5 -14.5q-30 0 -50 10q-25 111 -95 111q-49 0 -77 -40t-28 -112v-79h209q59 20 107 24l9 -9v-452l69 -29 l-2 -18h-259l-2 18l37 15q18 8 25 18.5t7 30.5v360h-200v-395z" />
<glyph unicode="fl" horiz-adv-x="645" d="M226 47l77 -29l-2 -18h-267l-2 18l37 15q18 8 25 18.5t7 30.5v360h-67l-2 18l69 27v32q0 102 69.5 170.5t173.5 68.5q53 0 100 -18q55 15 98 18l9 -8v-703l69 -29l-2 -18h-259l-2 18l37 15q18 8 25 18.5t7 30.5v360h-200v-395zM226 577v-93h200v163q-30 68 -95 68 q-50 0 -77.5 -36t-27.5 -102z" />
<glyph unicode="&#x2f;symbol&#x32;&#x2f;" horiz-adv-x="932" d="M494 570l52 -90l-137 -240h-103l137 240l-52 90h103zM357 570l52 -90l-138 -240h-103l138 240l-52 90h103zM752 120h-103l-137 240l51 90l137 -240h103zM683 0h-103l-137 240l51 90l138 -240h103zM100 120l51 90h275l51 -90h-274l-52 -90zM168 0l52 90h274l52 -90h-275 l-51 -90zM789 88q18 0 30.5 -13t12.5 -31t-12.5 -31t-30.5 -13t-30.5 13t-12.5 31t12.5 31t30.5 13zM829 44q0 16 -11.5 28t-28.5 12t-28.5 -12t-11.5 -28t11.5 -28t28.5 -12t28.5 12t11.5 28zM771 69h18q7 0 11 -2q5 -4 5 -11q0 -5 -3 -8q-1 -2 -6 -4q7 -1 8 -9q0 -8 3 -16 h-8q-1 2 -1.5 6.5t-0.5 6.5q-1 10 -11 10h-8v-23h-7v50zM778 47h10q5 0 7 1q3 3 3 7q0 8 -10 8h-10v-16z" />
<glyph unicode="&#x2f;symbol&#x33;&#x2f;" horiz-adv-x="957" d="M505 638l68 -270h270l-203 -135l136 -270l-271 135l-270 -270l135 405l-270 203l338 -68zM814 87q18 0 30.5 -12.5t12.5 -31.5q0 -18 -12.5 -30.5t-30.5 -12.5t-30.5 12.5t-12.5 30.5q0 19 12.5 31.5t30.5 12.5zM854 43q0 17 -11.5 29t-28.5 12t-28.5 -12t-11.5 -29 t12 -28.5t28 -11.5t28 11.5t12 28.5zM796 68h18q8 0 11 -2q6 -3 6 -10q0 -5 -4 -9q-3 -3 -6 -3q7 -3 8 -10q2 -14 3 -16h-7q-1 2 -2 7.5t-1 6.5q0 9 -10 9h-9v-23h-7v50zM803 47h10q5 0 7 1q3 3 3 6q0 9 -10 9h-10v-16z" />
<glyph unicode="&#x2f;symbol&#x35;&#x2f;" horiz-adv-x="705" d="M232 -6l-132 136l124 234l129 -136zM474 -6l-121 234l128 136l124 -234z" />
<glyph unicode="&#x2f;symbol&#x31;&#x2f;" horiz-adv-x="5534" d="M1865 412q-25 0 -40.5 14.5t-15.5 37.5q0 35 32.5 64t70.5 29q24 0 39 -13.5t15 -37.5q0 -36 -31 -65t-70 -29zM1284 412q-26 0 -41.5 14.5t-15.5 37.5q0 35 33 64t71 29q24 0 38.5 -13.5t14.5 -37.5q0 -36 -31 -65t-69 -29zM959 0q0 42 11 108q-16 -50 -51.5 -82.5 t-78.5 -32.5q-41 0 -63 29.5t-22 82.5q0 62 27 121t84 101t132 42q17 0 25 -1l16 73l6 102l136 7q0 -67 -46 -273t-46 -277h-130zM100 0l78 364q17 86 21 136l128 7l11 -15l-104 -492h-134zM3503 492l-57 -492h-131l20 175q5 50 33 215h-3q-31 -102 -81 -215l-76 -175h-149 l-2 175q-2 121 9 215h-2q-32 -130 -59 -215l-53 -175h-109l154 500l184 6l1 -137q2 -134 -15 -259h2q39 126 94 259l56 131l169 7zM5316 300q-37 -177 -37 -183q0 -34 36 -34q25 0 59 18l-9 -79q-52 -29 -114 -29q-105 0 -105 100q0 20 40 210l-47 1l9 44l54 14l53 95l81 6 l13 -15l-20 -86h99l6 -14l-17 -51zM3936 0q0 74 42 260l5 102l137 7q0 -31 -7 -89h2q53 89 134 89q34 0 53 -19.5t19 -51.5q0 -27 -26 -147q-18 -85 -18 -151h-131q0 55 19 150q15 71 15 87q0 24 -17 24q-34 0 -64 -82.5t-32 -178.5h-131zM3768 369q87 0 145 -32l-28 -128 q-31 -145 -31 -209h-130q0 45 12 112q-15 -52 -51 -85.5t-81 -33.5q-41 0 -63 29.5t-22 83.5q0 46 16 91.5t46 84t79 63t108 24.5zM4653 51q-67 -58 -159 -58q-65 0 -103.5 35t-38.5 102q0 94 68.5 166.5t167.5 72.5q54 0 86.5 -23.5t32.5 -64.5q0 -57 -60 -96.5t-161 -43.5 v-1q0 -64 63 -64q42 0 90 28zM2525 369q88 0 146 -32l-29 -128q-31 -145 -31 -209h-130q0 37 12 112q-15 -52 -51 -85.5t-81 -33.5q-41 0 -62.5 29.5t-21.5 83.5q0 62 26.5 120.5t85 100.5t136.5 42zM2245 256q-52 30 -97 30q-18 0 -30 -7t-12 -19q0 -14 20 -26.5t44 -22 t44 -33t20 -56.5q0 -57 -53 -93t-128 -36q-78 0 -118 28l27 93q57 -38 111 -38q19 0 29.5 7.5t10.5 18.5q0 13 -20 26t-44 23t-44 33t-20 55q0 56 54.5 93t128.5 37q58 0 104 -18zM4716 0q0 79 41 260l6 102l137 7q0 -12 -7 -89h2q52 89 134 89q34 0 53 -19.5t19 -51.5 q0 -27 -26 -147q-19 -90 -19 -151h-130q0 55 19 150q15 78 15 87q0 24 -17 24q-35 0 -65 -82t-32 -179h-130zM1752 0q0 69 26 193l15 67l6 102l137 7q0 -46 -27 -177t-27 -192h-130zM1399 362l140 7q13 -129 -5 -289h2q76 151 91 284q22 5 50 5q32 0 48.5 -8.5t16.5 -33.5 q0 -46 -51 -147.5t-116 -179.5h-149q-5 228 -27 362zM1170 0q0 72 27 193l14 67l6 102l137 7q0 -46 -27 -177t-27 -192h-130zM336 0q0 79 41 260l6 102l137 7q0 -31 -7 -89h2q52 89 134 89q34 0 53 -19.5t19 -51.5q0 -27 -26 -147q-18 -85 -18 -151h-131q0 55 19 150 q15 78 15 87q0 24 -17 24q-34 0 -64 -82.5t-32 -178.5h-131zM4490 177q47 10 73 34t26 59q0 31 -22 31q-28 0 -48.5 -38.5t-28.5 -85.5zM2435 101q23 0 47 43.5t37 100.5q3 14 9 44q-14 8 -27 8q-34 0 -62 -54.5t-28 -101.5q0 -40 24 -40zM913 101q22 0 44.5 39.5t37.5 94.5 q1 9 8 40l3 14q-14 8 -27 8q-33 0 -61.5 -54.5t-28.5 -101.5q0 -40 24 -40zM3677 101q23 0 47 43t38 101q1 8 4.5 24.5t4.5 19.5q-16 8 -27 8q-34 0 -62.5 -54.5t-28.5 -101.5q0 -40 24 -40z" />
<glyph unicode="&#x2f;symbol&#x34;&#x2f;" horiz-adv-x="2607" d="M1684 406q0 65 -11 128l126 14l15 -15v-533h-130v406zM1889 406q0 62 -10 128l126 14l14 -15v-533h-130v406zM427 101v-101h-320v362q0 80 -7 135l126 7l14 -14v-396zM925 21l7 109q62 -36 144 -36q50 0 50 36q0 20 -31.5 41.5t-69 40.5t-69 57t-31.5 88q0 69 55 108 t138 39q80 0 127 -18l-14 -111q-56 29 -111 29q-27 0 -42.5 -11t-15.5 -29q0 -20 20.5 -38t50 -34t59.5 -35t50.5 -51t20.5 -72q0 -66 -53.5 -103.5t-139.5 -37.5q-41 0 -83.5 8t-61.5 20zM2405 213q0 -24 -1 -36l-11 -11h-191q14 -83 98 -83q44 0 84 21l7 -81 q-46 -30 -127 -30q-90 0 -144 47.5t-54 134.5q0 85 52 139t132 54q72 0 113.5 -43t41.5 -112zM795 0l-106 -7q-11 16 -21 49h-4q-34 -49 -104 -49q-43 0 -70 23t-27 66q0 113 191 118v20q0 54 -58 54q-55 0 -108 -29l-8 97q72 26 150 26q154 0 154 -135q0 -25 -2 -69t-2 -70 q0 -51 15 -94zM1626 0l-107 -7q-12 20 -21 49h-3q-34 -49 -105 -49q-43 0 -69.5 23t-26.5 66q0 113 191 118v20q0 54 -58 54q-54 0 -109 -29l-7 97q72 26 150 26q153 0 153 -135q0 -25 -1.5 -69.5t-1.5 -69.5q0 -51 15 -94zM2199 207l78 4q2 14 2 26q0 59 -34 59 q-44 0 -46 -89zM654 74v88q-29 -3 -47 -18t-18 -39q0 -18 10 -29t27 -11q16 0 28 9zM1485 74v88q-29 -3 -47 -18t-18 -39q0 -18 10 -29t27 -11q16 0 28 9zM2464 85q18 0 30.5 -13t12.5 -31t-12.5 -31t-30.5 -13t-31 13t-13 31t13 31t31 13zM2504 41q0 17 -12 28.5t-28 11.5 t-28 -11.5t-12 -28.5t12 -28.5t28 -11.5t28 11.5t12 28.5zM2446 66h18q7 0 11 -3q5 -3 5 -10q0 -5 -3 -9q-3 -3 -6 -3q7 -1 8 -10q0 -7 3 -15h-8q-1 2 -1.5 6.5t-0.5 6.5q-1 9 -11 9h-8v-22h-7v50zM2453 44h10q5 0 7 1q3 3 3 7q0 8 -10 8h-10v-16z" />
<glyph unicode=" "  horiz-adv-x="250" />
<glyph unicode="&#x09;" horiz-adv-x="250" />
<glyph unicode="&#xa0;" horiz-adv-x="250" />
<glyph unicode="!" horiz-adv-x="320" d="M92 683l6 6l23 3q40 6 69 6q21 0 30 -9t9 -31q0 -9 -2 -31l-40 -419h-49zM227 67q0 -32 -20.5 -54.5t-52.5 -22.5q-27 0 -45 18.5t-18 45.5q0 30 22.5 53t54.5 23q26 0 42.5 -17.5t16.5 -45.5z" />
<glyph unicode="&#x22;" horiz-adv-x="438" d="M52 763l4 5q46 5 113 5l12 -14l-51 -302h-35l-16 142zM263 763l4 5q46 5 112 5l12 -14l-50 -302h-35l-16 142z" />
<glyph unicode="#" horiz-adv-x="760" d="M214 -10l-61 10l-8 8l43 172h-131l-8 8l10 61h146l48 191h-129l-8 8l10 61h144l47 189l61 -10l8 -8l-43 -171h159l47 189l61 -10l8 -8l-43 -171h128l8 -8l-9 -61h-144l-48 -191h131l8 -8l-9 -61h-147l-47 -190l-61 10l-8 8l43 172h-159zM278 249h159l48 191h-159z" />
<glyph unicode="$" horiz-adv-x="531" d="M286 -137l-48 -3l-8 8v122q-56 1 -104 11t-60 24q-15 18 -15 65q0 67 27 118l25 -2q18 -101 49 -135q34 -37 101 -37q48 0 74 27.5t26 70.5q0 49 -30.5 87t-73.5 65.5t-86.5 56t-74 72t-30.5 99.5q0 78 53.5 126t136.5 58v131l49 3l7 -8v-124q52 -2 94 -13t55 -24 q11 -10 11 -49q0 -77 -27 -131l-24 1q-14 90 -42 129q-30 43 -88 43q-45 0 -71.5 -28.5t-26.5 -74.5q0 -49 30.5 -87.5t73.5 -65t86.5 -55t74 -71.5t30.5 -99q0 -78 -52.5 -124.5t-141.5 -56.5v-129z" />
<glyph unicode="%" horiz-adv-x="991" d="M733 698l-423 -708h-55l423 708h55zM55 483q-1 93 48 152t131 59q80 0 127 -58.5t48 -152.5q0 -89 -49 -148t-130 -59t-128 57.5t-47 149.5zM152 482q1 -96 18 -133.5t62 -37.5q44 0 62 39.5t18 133.5q-1 95 -19 135.5t-60 40.5q-43 0 -62 -42.5t-19 -135.5zM582 197 q-1 93 48 152t131 59q80 0 127 -58.5t48 -152.5q0 -89 -49 -148t-130 -59t-128 57.5t-47 149.5zM680 196q0 -96 17 -133.5t62 -37.5q44 0 62 39.5t18 133.5q-1 95 -19 135.5t-60 40.5q-43 0 -62 -42.5t-18 -135.5z" />
<glyph unicode="&#x26;" horiz-adv-x="791" d="M330 -10q-117 0 -189 51.5t-72 136.5q0 62 40.5 109t106.5 66l-6 7q-73 82 -73 161q0 75 62 126t153 51q80 0 128.5 -37t48.5 -93q0 -29 -17.5 -45.5t-48.5 -16.5q-23 0 -36 6q4 21 4 43q-1 46 -22.5 72.5t-59.5 26.5t-63 -26t-25 -67q0 -71 77 -159l206 -236 q14 38 14 89q0 93 -34 136q21 23 56 23q36 0 55.5 -29t19.5 -79q0 -106 -64 -190q70 -64 167 -53l4 -12q-49 -62 -128 -62q-67 0 -129 48q-78 -47 -175 -47zM196 196q0 -73 43.5 -117.5t116.5 -44.5q66 0 115 33q-28 25 -63 65l-161 185q-51 -46 -51 -121z" />
<glyph unicode="'" horiz-adv-x="227" d="M49 763l4 5q46 5 113 5l11 -14l-50 -302h-35l-16 142z" />
<glyph unicode="(" horiz-adv-x="390" d="M360 -179l-13 -17q-125 71 -191.5 192.5t-66.5 284.5t66.5 284.5t191.5 192.5l13 -17q-140 -162 -140 -460t140 -460z" />
<glyph unicode=")" horiz-adv-x="390" d="M29 741l14 17q124 -71 190.5 -192.5t66.5 -284.5t-66.5 -284.5t-190.5 -192.5l-14 17q140 162 140 460t-140 460z" />
<glyph unicode="*" horiz-adv-x="429" d="M242 506q0 -26 -28 -26q-27 0 -27 26q0 13 7 45t9 48q-13 -10 -37 -32t-35 -28q-23 -14 -37 10t9 37q11 6 42 16t46 17q-14 6 -45.5 15.5t-42.5 16.5q-22 14 -9 38q14 22 37 10q11 -6 35 -28t37 -32q-2 16 -9 47.5t-7 44.5q0 27 27 27q28 0 28 -27q0 -13 -7 -44.5 t-9 -47.5q13 10 37 32t35 28q22 12 37 -10q14 -24 -10 -38q-11 -7 -42 -16.5t-45 -15.5q15 -7 45.5 -17t41.5 -16q24 -13 10 -37q-15 -24 -37 -10q-11 6 -35 28t-37 32q2 -16 9 -48t7 -45z" />
<glyph unicode="+" d="M510 310h-177v-176h-69v176h-186v66q47 1 186 3l-1 175h70v-174q38 0 98.5 0.5t78.5 0.5l8 -8z" />
<glyph unicode="," horiz-adv-x="267" d="M55 -170q53 68 69 160q-32 2 -52 22.5t-20 50.5q0 34 26.5 59.5t62.5 25.5q35 0 55.5 -22.5t20.5 -59.5q0 -68 -45 -139.5t-103 -108.5z" />
<glyph unicode="-" horiz-adv-x="393" d="M33 251v44h327v-44h-327z" />
<glyph unicode="." horiz-adv-x="258" d="M126 -10q-33 0 -54 20.5t-23 50.5q-1 35 25 61t61 26q31 0 51.5 -19.5t21.5 -51.5q2 -36 -22 -61.5t-60 -25.5z" />
<glyph unicode="/" horiz-adv-x="396" d="M139 -10l-62 14l-8 8l188 746l61 -14l8 -8z" />
<glyph unicode="0" horiz-adv-x="606" d="M41 341q0 159 72.5 258t193.5 99q118 0 187.5 -98t69.5 -257q1 -155 -71 -254t-193 -99t-189.5 96.5t-69.5 254.5zM171 341q1 -159 31 -231.5t100 -72.5q71 0 102 75.5t30 230.5q-1 158 -31.5 233t-98.5 75q-133 0 -133 -310z" />
<glyph unicode="1" horiz-adv-x="364" d="M246 47l89 -29l-2 -18h-305l-2 18l43 12q29 9 40.5 20t11.5 32v527l-93 14l-2 18l212 57l8 -9v-642z" />
<glyph unicode="2" horiz-adv-x="519" d="M48 0l-11 70q145 118 219.5 212t74.5 188q0 59 -33.5 93.5t-92.5 34.5q-83 0 -152 -81l-18 11q30 79 92.5 124.5t138.5 45.5q88 0 141.5 -52.5t53.5 -135.5q0 -30 -9 -61t-20 -55.5t-36.5 -55.5t-42 -50t-53 -51.5t-53.5 -47t-60.5 -49t-57.5 -46.5h247q35 0 52 16.5 t32 61.5l18 -1q-2 -90 -25 -171h-405z" />
<glyph unicode="3" horiz-adv-x="501" d="M104 304l-5 41q214 32 214 158q0 42 -29.5 68.5t-78.5 26.5q-86 0 -155 -85l-16 11q28 79 92 126.5t139 47.5q79 0 128.5 -42.5t49.5 -107.5q0 -77 -57 -123.5t-139 -66.5q92 -6 152.5 -53t60.5 -127q0 -85 -77.5 -136.5t-184.5 -51.5q-86 0 -141.5 28t-55.5 77 q0 28 26 47.5t63 24.5l8 -7q-3 -15 -3 -18q10 -110 114 -110q56 0 92 33.5t37 91.5q-1 70 -53.5 109.5t-125.5 39.5q-37 0 -55 -2z" />
<glyph unicode="4" horiz-adv-x="568" d="M9 210l344 482l84 -8v-457h106l-8 -70h-98v-157h-126v157h-291zM86 227h225v338z" />
<glyph unicode="5" horiz-adv-x="512" d="M70 351l6 337h381q1 -79 -21 -181l-21 1q-3 50 -13 65t-44 15h-215l-4 -199q6 0 21.5 0.5t25.5 0.5q134 0 213.5 -52.5t79.5 -148.5q0 -89 -71 -144t-185 -55q-89 0 -143.5 29t-54.5 76q0 28 25 47.5t64 24.5l8 -7q-3 -15 -3 -19q9 -109 116 -109q56 0 88.5 36t32.5 96 q0 82 -73 128t-202 47z" />
<glyph unicode="6" horiz-adv-x="566" d="M532 204q0 -95 -68.5 -154.5t-175.5 -59.5q-111 0 -179 76t-68 201q0 179 126 298t326 133l6 -28q-127 -41 -210 -122.5t-109 -199.5q70 47 147 47q93 0 149 -52t56 -139zM170 249q0 -92 34 -153.5t92 -61.5q48 0 79.5 40t31.5 104q0 71 -38.5 115.5t-102.5 44.5 q-53 0 -92 -31q-4 -25 -4 -58z" />
<glyph unicode="7" horiz-adv-x="492" d="M473 688l10 -71q-101 -117 -158 -278t-70 -339h-128q13 148 93 309t181 279h-283q-33 0 -46 -15t-24 -63l-19 1q-4 95 14 177h430z" />
<glyph unicode="8" horiz-adv-x="555" d="M521 176q0 -78 -68 -132t-179 -54q-106 0 -173.5 45t-67.5 118q0 63 47.5 109t120.5 70q-62 38 -96 81t-34 105q0 76 62 128t161 52q87 0 142.5 -43.5t55.5 -111.5q0 -109 -128 -172q37 -21 59.5 -37t48 -40t37.5 -53.5t12 -64.5zM187 553q0 -53 36.5 -88.5t107.5 -75.5 q60 69 60 154q0 51 -26.5 81.5t-74.5 30.5q-45 0 -74 -28.5t-29 -73.5zM153 160q0 -58 35 -92.5t90 -34.5q51 0 86 31t35 80q0 26 -10.5 48.5t-36.5 43.5t-43.5 32.5t-56.5 33.5q-13 7 -19 11q-80 -67 -80 -153z" />
<glyph unicode="9" horiz-adv-x="566" d="M525 417q0 -180 -125 -296.5t-327 -130.5l-6 29q125 40 208.5 118.5t109.5 195.5q-66 -46 -145 -46q-93 0 -150 52.5t-57 140.5q0 97 69.5 157.5t176.5 60.5q112 0 179 -78t67 -203zM159 500q0 -69 39 -112.5t103 -43.5q52 0 91 31q4 27 4 62q0 94 -31 155.5t-88 61.5 q-53 0 -85.5 -42.5t-32.5 -111.5z" />
<glyph unicode=":" horiz-adv-x="258" d="M126 311q-33 0 -54 20.5t-23 50.5q-1 35 25 61t61 26q31 0 51.5 -19.5t21.5 -51.5q2 -36 -22 -61.5t-60 -25.5zM126 -10q-33 0 -54 20.5t-23 50.5q-1 35 25 61t61 26q31 0 51.5 -19.5t21.5 -51.5q2 -36 -22 -61.5t-60 -25.5z" />
<glyph unicode=";" horiz-adv-x="267" d="M131 311q-33 0 -54.5 20.5t-22.5 50.5q-1 35 24.5 61t61.5 26q31 0 51.5 -19.5t21.5 -51.5q1 -36 -22.5 -61.5t-59.5 -25.5zM55 -170q53 68 69 160q-32 2 -52 22.5t-20 50.5q0 34 26.5 59.5t62.5 25.5q35 0 55.5 -22.5t20.5 -59.5q0 -68 -45 -139.5t-103 -108.5z" />
<glyph unicode="&#x3c;" d="M506 102l-435 222l2 40l2 7q263 138 430 210v-76l-320 -158l321 -169v-76z" />
<glyph unicode="=" d="M510 409h-432v66q162 5 432 5l8 -8zM510 212h-432v65q162 5 432 5l8 -8z" />
<glyph unicode="&#x3e;" d="M90 102v76l321 169l-320 158v76q181 -78 430 -210l3 -7l1 -40z" />
<glyph unicode="?" horiz-adv-x="448" d="M236 225l-8 -8q-32 -2 -51.5 15t-19.5 45q0 25 16 47.5t38.5 41.5t45.5 41t39 56.5t16 76.5q0 51 -24 83t-68 32q-45 0 -72 -31.5t-27 -82.5q0 -31 8 -58q-22 -12 -52 -12t-49 19.5t-19 52.5q0 65 65.5 110t155.5 45t149.5 -46t59.5 -126q0 -46 -28 -90t-57.5 -67 t-69 -48t-40.5 -26q-8 -6 -8 -25v-45zM275 67q0 -32 -21 -54.5t-53 -22.5q-27 0 -44.5 18.5t-17.5 45.5q0 30 22.5 53t53.5 23q26 0 43 -17.5t17 -45.5z" />
<glyph unicode="@" horiz-adv-x="1095" d="M797 54q70 0 134.5 86t64.5 215q0 156 -104 257t-266 101q-92 0 -185 -39t-169 -107t-124 -170t-48 -218q0 -168 108 -280t274 -112q63 0 119 13.5t87.5 28t76.5 40.5l18 -29q-124 -98 -304 -98q-187 0 -308.5 122.5t-121.5 306.5q0 128 51.5 240t135 186.5t187 117.5 t208.5 43q184 0 299.5 -115t115.5 -291q0 -148 -88 -255t-215 -107q-81 0 -117.5 51t-25.5 131q7 28 7 45h-3q-39 -94 -93.5 -160.5t-110.5 -66.5q-46 0 -74.5 39.5t-28.5 107.5q0 147 91.5 259t230.5 112q100 0 176 -37l-20 -64l-40 -183q-18 -74 -3 -122t65 -48zM427 156 q0 -70 34 -70q39 0 96.5 106.5t81.5 193.5l16 62q-22 16 -52 16q-42 0 -83.5 -48t-67 -120t-25.5 -140z" />
<glyph unicode="A" horiz-adv-x="714" d="M317 688h80l214 -604q7 -20 17 -29.5t28 -16.5l41 -15l-2 -23h-288l-2 23l79 25l-58 172l-228 -3l-57 -168l79 -26l-2 -23h-199l-2 23q6 3 27 10t25 10q24 11 34 41zM213 261l200 -1l-100 296z" />
<glyph unicode="B" horiz-adv-x="663" d="M46 665l2 23h287q113 0 177.5 -45t64.5 -125q0 -61 -34 -101t-94 -56q84 -20 128.5 -63.5t44.5 -107.5q0 -91 -72 -140.5t-193 -49.5h-309l-2 23l41 14q22 8 30 18t8 29v542q0 8 -10 11zM317 643h-63v-271h67q61 0 96 37.5t35 102.5q0 62 -35.5 96.5t-99.5 34.5zM322 330 h-68v-285h76q73 0 116.5 39t43.5 105q0 64 -45.5 102.5t-122.5 38.5z" />
<glyph unicode="C" horiz-adv-x="670" d="M412 -10q-163 0 -263 92t-100 256q0 163 102 261.5t255 98.5q109 0 186 -31q7 -28 7 -74q0 -63 -12 -120l-24 -2q-53 118 -83 169q-28 7 -60 7q-102 0 -170.5 -86.5t-67.5 -222.5q1 -134 68 -216t173 -82q33 0 65 7q43 63 92 164h24q8 -33 8 -90q0 -63 -8 -106 q-92 -25 -192 -25z" />
<glyph unicode="D" horiz-adv-x="724" d="M674 344q0 -163 -94.5 -253.5t-253.5 -90.5h-278l-2 23l41 14q22 8 30 18t8 29v542q0 8 -10 11l-69 28l2 23h278q160 0 254 -91t94 -253zM321 642h-67v-596h67q106 0 163 77t57 221q1 144 -56 221t-164 77z" />
<glyph unicode="E" horiz-adv-x="603" d="M254 363l197 8l-3 -58l-194 8v-276h112q45 0 83 5q4 5 11 20t15.5 34.5t11.5 25.5l32 81h24q10 -47 10 -111q0 -54 -8 -100h-497l-2 23l41 14q22 8 30 18t8 29v542q0 8 -10 11l-69 28l2 23h487q8 -46 8 -100q0 -61 -10 -111h-24l-32 81q-34 76 -38 80q-38 5 -83 5h-102 v-280z" />
<glyph unicode="F" horiz-adv-x="563" d="M254 53l99 -30l-2 -23h-303l-2 23l41 14q22 8 30 18t8 29v542q0 8 -10 11l-69 28l2 23h481q8 -46 8 -100q0 -61 -10 -111h-24l-32 81q-34 76 -38 80q-38 5 -83 5h-96v-298l197 8l-3 -58l-194 8v-250z" />
<glyph unicode="G" horiz-adv-x="721" d="M405 -10q-158 0 -257 91.5t-99 256.5t105.5 262.5t262.5 97.5q110 0 191 -31q7 -28 7 -74q0 -63 -12 -120l-24 -2q-8 16 -39 83.5t-44 85.5q-28 8 -72 8q-100 0 -171 -85t-71 -222q0 -138 68.5 -219.5t171.5 -81.5q39 0 75 10v217l-79 30l2 23h264l2 -23l-41 -14 q-15 -6 -20.5 -16t-5.5 -31v-215q-99 -31 -214 -31z" />
<glyph unicode="H" horiz-adv-x="798" d="M254 53l79 -30l-2 -23h-283l-2 23l41 14q22 8 30 18t8 29v551l-79 30l2 23h283l2 -23l-41 -14q-21 -9 -29.5 -18.5t-8.5 -28.5v-232h290v263l-79 30l2 23h282l2 -23l-41 -14q-21 -9 -29 -18.5t-8 -28.5v-551l78 -30l-2 -23h-282l-2 23l41 14q21 9 29.5 18.5t8.5 28.5v240 h-290v-271z" />
<glyph unicode="I" horiz-adv-x="380" d="M254 53l79 -30l-2 -23h-283l-2 23l41 14q22 8 30 18t8 29v551l-79 30l2 23h283l2 -23l-41 -14q-21 -9 -29.5 -18.5t-8.5 -28.5v-551z" />
<glyph unicode="J" horiz-adv-x="364" d="M126 635l-79 30l2 23h283l2 -23l-41 -14q-22 -8 -30 -18t-8 -29v-526q0 -92 -55.5 -156t-137.5 -92l-16 19q41 54 60.5 115t19.5 150v521z" />
<glyph unicode="K" horiz-adv-x="724" d="M254 53l79 -30l-2 -23h-283l-2 23l41 14q22 8 30 18t8 29v551l-79 30l2 23h283l2 -23l-41 -14q-21 -9 -29.5 -18.5t-8.5 -28.5v-249l85 1l195 283l-85 26l2 23h233l2 -23q-53 -16 -63 -23q-23 -11 -51 -45l-153 -193l7 4l127 -217q6 -10 20 -34.5t19.5 -33.5t17 -26 t19.5 -25.5t20 -19t25 -17.5l29 -15l-2 -20l-129 -3q-37 -1 -57.5 14.5t-40.5 50.5l-136 247h-84v-256z" />
<glyph unicode="L" horiz-adv-x="591" d="M125 635l-79 30l2 23h283l2 -23l-41 -14q-21 -9 -29.5 -18.5t-8.5 -28.5v-559h109q53 0 85 7q23 37 40 86l27 69h24q11 -52 11 -111q0 -40 -8 -96h-494l-2 23l41 14q22 8 30 18t8 29v551z" />
<glyph unicode="M" horiz-adv-x="1003" d="M168 53l81 -30l-2 -23h-204l-2 23l41 14q21 8 28.5 17.5t9.5 29.5l61 551l-80 30l2 23h212l192 -514l189 514h204l2 -23l-80 -30l63 -573q1 -5 13.5 -12.5t20.5 -9.5l45 -17l-2 -23h-284l-2 23l35 13q1 1 5 2q39 18 39 34v2l-54 482l-157 -420l-48 -136h-65l-45 136 l-162 427z" />
<glyph unicode="N" horiz-adv-x="743" d="M176 53l98 -30l-2 -23h-224l-2 23l41 14q22 8 30 18t8 29v542q0 5 -12.5 13t-20.5 10l-46 16l2 23h188l348 -526v473l-79 30l2 23h204l2 -23l-41 -14q-22 -8 -30 -18t-8 -29v-604h-87l-371 549v-496z" />
<glyph unicode="O" horiz-adv-x="716" d="M49 344q0 163 89.5 258.5t223.5 95.5q135 0 220 -93t85 -256q0 -165 -86.5 -262t-223.5 -97q-139 0 -223.5 95t-84.5 259zM182 344q0 -142 47.5 -224.5t130.5 -82.5q82 0 127.5 85t46.5 227q0 139 -45.5 220.5t-126.5 81.5q-82 0 -130.5 -83t-49.5 -224z" />
<glyph unicode="P" horiz-adv-x="628" d="M254 53l99 -30l-2 -23h-303l-2 23l41 14q22 8 30 18t8 29v542q0 8 -10 11l-69 28l2 23h290q115 0 189.5 -57t74.5 -157q0 -99 -75.5 -154.5t-190.5 -55.5h-82v-211zM325 641h-71v-330h69q69 0 107.5 43t38.5 120q0 78 -38 122.5t-106 44.5z" />
<glyph unicode="Q" horiz-adv-x="716" d="M49 344q0 163 89.5 258.5t223.5 95.5q135 0 220 -93t85 -256q0 -151 -73.5 -246t-193.5 -110q158 -67 296 -67q13 0 39 4l7 -4q12 -15 12 -38q0 -34 -22 -52t-58 -18q-67 0 -168.5 51.5t-184.5 122.5q-124 12 -198 105.5t-74 246.5zM182 344q0 -142 47.5 -224.5 t130.5 -82.5q82 0 127.5 85t46.5 227q0 139 -45.5 220.5t-126.5 81.5q-82 0 -130.5 -83t-49.5 -224z" />
<glyph unicode="R" horiz-adv-x="708" d="M254 53l79 -30l-2 -23h-283l-2 23l41 14q22 8 30 18t8 29v542q0 8 -10 11l-69 28l2 23h290q117 0 188 -52t71 -140q0 -64 -36.5 -110t-91.5 -69l70 -126q28 -50 41 -70.5t35 -45.5t48 -40l27 -15l-2 -20l-127 -3q-37 -1 -58 14t-40 51l-118 227q-7 -1 -13 -1h-78v-235z M319 641h-65v-307h65q68 0 106 41t38 115q0 70 -38 110.5t-106 40.5z" />
<glyph unicode="S" horiz-adv-x="531" d="M234 -10q-62 0 -113.5 10t-64.5 25q-15 18 -15 65q0 67 27 118l25 -2q18 -101 49 -135q33 -37 107 -37q53 0 83 29.5t30 74.5q0 39 -23 72.5t-57.5 55t-75 47.5t-75 50.5t-57.5 63t-23 85.5q0 88 71 137t177 49q55 0 103.5 -11.5t62.5 -25.5q11 -10 11 -49 q0 -76 -26 -131l-25 1q-14 90 -42 129q-29 43 -91 43q-51 0 -82.5 -30.5t-31.5 -78.5q0 -45 32 -81.5t77.5 -63.5t91.5 -56t78 -73.5t32 -102.5q0 -87 -67.5 -132.5t-187.5 -45.5z" />
<glyph unicode="T" horiz-adv-x="635" d="M382 53l79 -30l-2 -23h-283l-2 23l41 14q22 8 30 18t8 29v558h-39q-50 0 -85 -6q-23 -42 -39 -89l-28 -70h-25q-10 58 -10 111q0 54 8 100h565q8 -46 8 -100q0 -53 -10 -111h-25l-28 70q-16 47 -39 89q-34 6 -85 6h-39v-589z" />
<glyph unicode="U" horiz-adv-x="672" d="M88 235v400l-79 30l2 23h283l2 -23l-41 -14q-21 -9 -29.5 -18.5t-8.5 -28.5v-372q0 -92 43 -142t114 -50q72 0 115 49t43 143v403l-79 30l2 23h204l2 -23l-79 -30v-400q0 -121 -62.5 -183t-178.5 -62t-184.5 63t-68.5 182z" />
<glyph unicode="V" horiz-adv-x="714" d="M397 0h-80l-214 604q-7 20 -17 29.5t-28 16.5l-41 15l2 23h288l2 -23l-79 -24l171 -509l172 508l-79 25l2 23h199l2 -23q-6 -3 -27 -9.5t-25 -9.5q-23 -12 -34 -42z" />
<glyph unicode="W" horiz-adv-x="1063" d="M383 0h-80l-200 604q-6 20 -16 29.5t-29 16.5l-41 15l2 23h288l2 -23l-79 -24l157 -507l121 385l-28 85q-7 22 -14 30.5t-24 15.5l-42 15l2 23h283l2 -23l-80 -24l157 -505l159 504l-80 25l2 23h198l2 -23q-6 -3 -26.5 -10t-24.5 -9q-25 -12 -34 -42l-200 -604h-81 l-147 448z" />
<glyph unicode="X" horiz-adv-x="712" d="M133 91l164 234l-185 279q-19 31 -36 40q-9 8 -46 21l2 23h284l2 -23l-79 -24l154 -234l147 232l-79 26l2 23h220l2 -23q-39 -12 -59 -23q-26 -14 -48 -45l-161 -227l188 -286q10 -14 13.5 -19.5t10.5 -11.5t15 -10q3 -3 11.5 -6.5t18.5 -7.5t13 -6l-2 -23h-281l-2 23 l79 25l-159 239l-152 -238l79 -26l-2 -23h-220l-2 23q50 18 60 23q26 14 48 45z" />
<glyph unicode="Y" horiz-adv-x="689" d="M409 53l79 -30l-2 -23h-283l-2 23l41 14q22 8 30 18t8 29v203l-175 317q-12 22 -23 32t-30 18l-35 11l2 23h291l2 -23l-80 -25l157 -309l157 310l-78 24l2 23h200l2 -23q-4 -2 -16.5 -6.5t-22 -8.5t-12.5 -7q-21 -9 -37 -39l-175 -318v-233z" />
<glyph unicode="Z" horiz-adv-x="635" d="M563 0h-498l-8 42l369 601h-167q-45 0 -83 -5l-76 -161h-24q-10 47 -10 107q0 54 8 104h489l8 -42l-368 -601h175q45 0 83 5l76 161h24q10 -46 10 -105q0 -56 -8 -106z" />
<glyph unicode="[" horiz-adv-x="412" d="M362 -196h-233v956h233v-29h-113v-898h113v-29z" />
<glyph unicode="\" horiz-adv-x="396" d="M256 -10l-187 746l8 8l62 14l187 -746l-8 -8z" />
<glyph unicode="]" horiz-adv-x="412" d="M49 758h233v-956h-233v29h113v898h-113v29z" />
<glyph unicode="^" horiz-adv-x="526" d="M159 210h-75l147 338h62l149 -338h-75l-107 244z" />
<glyph unicode="_" horiz-adv-x="556" d="M33 -148v56h489v-56h-489z" />
<glyph unicode="`" horiz-adv-x="376" d="M296 584l-11 -15q-86 32 -146 74.5t-60 75.5q0 44 71 44q15 0 22 -1l8 -5q37 -74 116 -173z" />
<glyph unicode="a" horiz-adv-x="544" d="M288 508q80 0 123 -40.5t43 -118.5q0 -20 -2 -109t-2 -116q0 -34 10 -50t37 -16q19 0 39 5l4 -12q-41 -61 -116 -61q-37 0 -62 18t-33 49q-57 -67 -149 -67q-59 0 -95 30.5t-36 83.5q0 74 76 118.5t203 46.5v53.5t0.5 44.5t0.5 18q0 80 -69 80q-35 0 -57.5 -23.5 t-22.5 -60.5q0 -24 5 -43q-25 -14 -57 -14q-28 0 -44.5 12t-16.5 34q0 49 69 93.5t152 44.5zM176 126q0 -68 67 -68q49 0 84 37q0 13 0.5 62.5t0.5 79.5q-71 -5 -111.5 -34t-40.5 -77z" />
<glyph unicode="b" horiz-adv-x="582" d="M96 -10l-9 7v679l-64 23l-2 14q80 36 183 45l8 -9v-305q57 64 140 64q87 0 137.5 -68t50.5 -182q0 -124 -64.5 -196t-174.5 -72q-63 0 -116 24zM282 33q63 0 96 54.5t33 152.5q0 92 -29 143t-84 51q-47 0 -86 -36v-345q30 -20 70 -20z" />
<glyph unicode="c" horiz-adv-x="478" d="M461 103q-61 -113 -193 -113q-104 0 -165.5 67t-61.5 179q0 119 68 195.5t174 76.5q74 0 121.5 -37t47.5 -90q0 -29 -18 -46t-47 -17q-23 0 -48 11q2 10 2 14q0 122 -68 122q-46 0 -74 -51t-28 -133q0 -101 39.5 -154t117.5 -53q67 0 119 41z" />
<glyph unicode="d" horiz-adv-x="588" d="M584 51q-41 -61 -116 -61q-74 0 -95 68q-51 -68 -141 -68q-85 0 -138 66t-53 179q0 126 72 199.5t184 73.5q36 0 71 -8v176l-84 23l-2 14q86 36 203 45l8 -9v-620q0 -37 11.5 -54t37.5 -17q21 0 38 5zM171 256q0 -93 31 -145.5t85 -52.5q45 0 81 36v351q-28 20 -63 20 q-62 0 -98 -54.5t-36 -154.5z" />
<glyph unicode="e" horiz-adv-x="500" d="M464 103q-60 -113 -194 -113q-104 0 -166.5 67.5t-62.5 180.5q0 119 67 194.5t167 75.5q83 0 136.5 -52t53.5 -140q0 -35 -1 -49l-13 -13h-279q11 -180 152 -180q72 0 126 41zM269 465q-46 0 -72 -50t-26 -126l167 7q1 11 1 38q0 131 -70 131z" />
<glyph unicode="f" horiz-adv-x="360" d="M226 47l89 -29l-2 -18h-279l-2 18l37 15q18 8 25 18.5t7 30.5v360h-67l-2 18l69 27v22q0 105 68.5 177t165.5 72q63 0 105.5 -32.5t42.5 -75.5q0 -26 -17.5 -41t-43.5 -15q-19 0 -41 8q-6 113 -64 113q-42 0 -66.5 -42t-24.5 -117v-72h125v-42h-125v-395z" />
<glyph unicode="g" horiz-adv-x="512" d="M49 318q0 81 59 135.5t149 54.5q69 0 117 -34q20 35 47 56.5t50 21.5q32 0 32 -43q0 -26 -5 -39q-3 -14 -23 -14q-5 0 -33 -1t-43 -2q45 -47 45 -120q0 -82 -56 -134.5t-145 -52.5q-27 0 -46 4q-11 -17 -11 -36q0 -20 12.5 -28.5t42.5 -10.5l92 -7q78 -6 121 -42t43 -98 q0 -81 -74 -133.5t-193 -52.5q-90 0 -147 32t-57 84q0 34 28 59.5t69 34.5l9 -9q-9 -15 -9 -30q2 -59 45 -93.5t110 -34.5q60 0 96.5 26t36.5 67q0 65 -90 76l-113 13q-109 13 -109 91q0 64 64 101q-52 19 -83 61t-31 98zM318 324q0 144 -69 144q-74 0 -74 -138 q0 -144 73 -144q70 0 70 138z" />
<glyph unicode="h" horiz-adv-x="615" d="M218 47l69 -29l-2 -18h-259l-2 18l37 15q18 8 25 18.5t7 30.5v594l-64 23l-2 14q80 36 183 45l8 -9v-307q78 66 163 66q68 0 104 -39t36 -112v-310l69 -29l-2 -18h-259l-2 18l38 15q18 8 24.5 18.5t6.5 30.5v261q0 91 -78 91q-48 0 -100 -34v-353z" />
<glyph unicode="i" horiz-adv-x="320" d="M229 673q0 -36 -22.5 -60t-57.5 -24q-30 0 -49.5 20t-19.5 49q0 33 25 57.5t59 24.5q28 0 46.5 -18.5t18.5 -48.5zM226 47l69 -29l-2 -18h-259l-2 18l37 15q18 8 25 18.5t7 30.5v344l-64 23l-2 14q80 36 183 45l8 -9v-452z" />
<glyph unicode="j" horiz-adv-x="302" d="M220 670q0 -36 -22.5 -60t-57.5 -24q-30 0 -49 19.5t-19 49.5q0 33 24.5 57.5t58.5 24.5q28 0 46.5 -18.5t18.5 -48.5zM14 -240q41 54 60.5 115.5t19.5 150.5v400l-64 23l-2 14q78 36 182 45l9 -9v-509q0 -92 -54.5 -156t-135.5 -92z" />
<glyph unicode="k" horiz-adv-x="593" d="M218 47l69 -29l-2 -18h-259l-2 18l37 15q18 8 25 18.5t7 30.5v594l-64 23l-2 14q80 36 183 45l8 -8v-470h70l124 171l-81 29l2 18h222l2 -18q-48 -19 -59 -26q-24 -12 -54 -45l-75 -83l3 3l128 -235q26 -47 53 -59l31 -15l-2 -20h-112q-35 0 -54 14t-36 48l-92 176h-70 v-191z" />
<glyph unicode="l" horiz-adv-x="312" d="M218 47l69 -29l-2 -18h-259l-2 18l37 15q18 8 25 18.5t7 30.5v594l-64 23l-2 14q80 36 183 45l8 -8v-703z" />
<glyph unicode="m" horiz-adv-x="918" d="M226 47l69 -29l-2 -18h-259l-2 18l37 15q18 8 25 18.5t7 30.5v344l-64 23l-2 14q80 36 183 45l8 -9v-57q78 66 161 66q94 0 125 -75q81 75 170 75q69 0 106 -39t37 -112v-310l69 -29l-2 -18h-259l-2 18l37 15q32 15 32 49v261q0 91 -79 91q-49 0 -99 -33q3 -21 3 -44 v-310l69 -29l-2 -18h-258l-2 18l37 15q18 8 24.5 18.5t6.5 30.5v261q0 91 -76 91q-48 0 -98 -33v-354z" />
<glyph unicode="n" horiz-adv-x="623" d="M226 47l69 -29l-2 -18h-259l-2 18l37 15q18 8 25 18.5t7 30.5v344l-64 23l-2 14q80 36 183 45l8 -9v-57q78 66 163 66q68 0 104 -39t36 -112v-310l69 -29l-2 -18h-259l-2 18l38 15q18 8 24.5 18.5t6.5 30.5v261q0 91 -78 91q-48 0 -100 -33v-354z" />
<glyph unicode="o" horiz-adv-x="538" d="M497 250q0 -118 -64.5 -189t-167.5 -71q-100 0 -162 70.5t-62 189.5q0 117 66.5 187.5t167.5 70.5q99 0 160.5 -69.5t61.5 -188.5zM171 250q0 -217 96 -217q51 0 75.5 50.5t24.5 164.5q0 217 -94 217q-102 0 -102 -215z" />
<glyph unicode="p" horiz-adv-x="588" d="M218 -201l89 -29l-2 -18h-279l-2 18l37 15q32 13 32 49v592l-64 23l-2 14q80 36 183 45l8 -9v-55q57 64 140 64q87 0 138 -68t51 -181q0 -125 -69 -197t-186 -72q-38 0 -74 6v-197zM292 33q57 0 91 55t34 149q0 197 -113 197q-47 0 -86 -36v-344q31 -21 74 -21z" />
<glyph unicode="q" horiz-adv-x="579" d="M493 -201l69 -29l-2 -18h-259l-2 18l38 15q31 13 31 49v218q-53 -63 -136 -62q-86 1 -138.5 65t-52.5 179q0 128 70.5 201t175.5 73q59 0 109 -24l89 24l8 -7v-702zM305 465q-62 0 -98 -55t-36 -155q0 -93 31 -145t82 -52q48 0 84 36v351q-28 20 -63 20z" />
<glyph unicode="r" horiz-adv-x="431" d="M226 47l89 -29l-2 -18h-279l-2 18l37 15q18 8 25 18.5t7 30.5v344l-64 23l-2 14q80 36 183 45l8 -9v-76q65 85 127 85q30 0 49 -17.5t19 -45.5q0 -41 -36 -77q-13 0 -14 -1q-42 39 -93 45q-23 0 -52 -31v-334z" />
<glyph unicode="s" horiz-adv-x="452" d="M198 -10q-47 0 -88.5 8t-53.5 20q-15 17 -15 58q0 52 27 92l15 -2q12 -68 43 -102q29 -31 80 -31q37 0 57.5 18t20.5 49t-24 56t-58.5 43.5t-69 38.5t-58.5 52t-24 74q0 66 58.5 105t146.5 39q44 0 82.5 -8.5t48.5 -18.5q11 -9 11 -46q0 -59 -26 -99l-15 1q-13 71 -37 98 q-30 30 -68 30q-34 0 -54.5 -18.5t-20.5 -50.5q0 -31 24 -56t59 -43t69.5 -38.5t58.5 -52.5t24 -74q0 -67 -58 -104.5t-155 -37.5z" />
<glyph unicode="t" horiz-adv-x="411" d="M394 103q-25 -49 -68 -81t-102 -32q-64 0 -98.5 40t-34.5 118v294h-73l-2 18l76 39l104 141l20 -2v-154h149v-42h-149v-273q0 -95 71 -95q49 0 93 41z" />
<glyph unicode="u" horiz-adv-x="628" d="M95 151v275l-64 23l-2 14q80 36 183 45l8 -9v-335q0 -103 88 -103q49 0 92 34v331l-64 23l-2 14q80 36 183 45l8 -9v-370q0 -71 46 -71q21 0 41 5l4 -12q-42 -61 -117 -61q-72 0 -93 66q-68 -66 -156 -66q-73 0 -114 42t-41 119z" />
<glyph unicode="v" horiz-adv-x="547" d="M457 416l-147 -416h-79l-147 415q-10 30 -31 42q-5 5 -44 23l2 18h266l2 -18l-71 -28l107 -338l109 338l-70 28l2 18h179l2 -18q-39 -16 -46 -21q-22 -13 -34 -43z" />
<glyph unicode="w" horiz-adv-x="808" d="M477 498l124 -363l84 317l-72 28l2 18h182l2 -18q-39 -14 -47 -21q-26 -14 -34 -43l-120 -416h-79l-116 333l-119 -333h-80l-120 415q-8 30 -31 42q-9 9 -44 23l2 18h263l2 -18l-68 -28l82 -317l127 363h60z" />
<glyph unicode="x" horiz-adv-x="554" d="M214 452l106 -157l97 156l-69 29l2 18h187l2 -18q-37 -15 -49 -26q-18 -13 -41 -45l-108 -146l122 -180q20 -34 39 -44q4 -4 22 -12t20 -9l-2 -18h-258l-2 18l64 28l-109 159l-98 -158l69 -29l-2 -18h-195l-2 18q43 17 54 26q19 12 44 45l109 148l-122 178q-21 32 -37 42 q-3 3 -43 23l2 18h260l2 -18z" />
<glyph unicode="y" horiz-adv-x="551" d="M15 498h263l2 -18l-68 -28l105 -332l111 332l-73 28l2 18h182l2 -18q-43 -18 -47 -22q-22 -12 -32 -42l-159 -446q-42 -120 -86.5 -174t-101.5 -54q-33 0 -54.5 21t-21.5 54q0 27 14 49l7 3q34 -21 62 -21q46 0 89 42t65 108l-39 -5l-149 422q-10 29 -31 42q-5 6 -44 23z " />
<glyph unicode="z" horiz-adv-x="491" d="M448 73q-2 -42 -8 -73h-390l-9 42l274 414h-169l-68 -127h-18q-12 47 -12 97q0 38 7 72h386l8 -42l-274 -414h174l68 127h18q13 -49 13 -96z" />
<glyph unicode="{" horiz-adv-x="437" d="M89 294q54 4 79 30.5t25 76.5q0 37 -17 109.5t-17 110.5q0 71 55 104.5t171 33.5l3 -27q-104 -3 -104 -99q0 -38 15 -112t15 -113q0 -47 -33.5 -80.5t-90.5 -46.5q57 -13 90.5 -46.5t33.5 -80.5q0 -36 -15 -111t-15 -114q0 -96 104 -100l-3 -26q-116 0 -171 33.5 t-55 103.5q0 39 17 113.5t17 107.5q0 49 -25 75.5t-79 30.5v27z" />
<glyph unicode="|" horiz-adv-x="326" d="M137 -258l-8 8v1005l60 3l8 -8v-1005z" />
<glyph unicode="}" horiz-adv-x="437" d="M348 294v-27q-54 -4 -79 -30.5t-25 -75.5q0 -33 17 -107.5t17 -113.5q0 -70 -55 -103.5t-171 -33.5l-3 26q104 4 104 100q0 39 -15 114t-15 111q0 47 33.5 80.5t90.5 46.5q-57 13 -90.5 46.5t-33.5 80.5q0 39 15 113t15 112q0 96 -104 99l3 27q116 0 171 -33.5t55 -104.5 q0 -38 -17 -110.5t-17 -109.5q0 -50 25 -76.5t79 -30.5z" />
<glyph unicode="~" horiz-adv-x="581" d="M418 214q-23 0 -134.5 26t-126.5 26q-11 0 -59 -59l-41 27q17 30 29.5 49t34 38.5t40.5 19.5q22 0 133.5 -26t127.5 -26q10 0 59 59l41 -27q-18 -31 -29.5 -49t-33 -38t-41.5 -20z" />
<glyph unicode="&#xa1;" horiz-adv-x="320" d="M93 431q0 32 20.5 54.5t52.5 22.5q27 0 45 -18.5t18 -45.5q0 -30 -22.5 -53t-53.5 -23q-26 0 -43 17.5t-17 45.5zM228 -185l-6 -6l-23 -3q-40 -6 -68 -6q-22 0 -31 9t-9 32q0 8 2 30l40 419h50z" />
<glyph unicode="&#xa2;" horiz-adv-x="498" d="M305 -137l-49 -3l-7 8v123q-96 8 -152 79.5t-56 190.5q0 113 57 191.5t151 92.5v132l49 3l7 -8v-125q67 -4 109 -40.5t42 -85.5q0 -29 -18 -46t-47 -17q-25 0 -48 11q2 10 2 14q0 122 -68 122q-48 0 -77 -56.5t-29 -148.5q0 -110 40.5 -168t118.5 -58q67 0 121 41l14 -12 q-52 -96 -160 -111v-129z" />
<glyph unicode="&#xa3;" horiz-adv-x="631" d="M78 294l7 57h116q6 68 11 99q15 123 82.5 185.5t163.5 62.5q59 0 95.5 -27.5t36.5 -65.5q0 -56 -60 -72q-39 119 -90 119q-40 0 -61.5 -48.5t-40.5 -149.5l-19 -103h163l-6 -57h-167l-12 -62q-20 -109 -96 -184q63 -25 95 -37t97 -27t122 -15q30 0 62 8q8 -16 8 -36 q0 -39 -25 -59t-68 -20q-130 0 -336 150q-45 -30 -84 -30q-22 0 -34.5 11.5t-12.5 29.5q0 23 19 39.5t48 16.5q26 0 66 -14q22 64 37 229h-117z" />
<glyph unicode="&#xa4;" horiz-adv-x="553" d="M454 116l-71 72q-49 -36 -115 -36q-61 0 -105 28l-64 -64l-50 49l63 63q-34 48 -34 110q0 68 40 122l-66 68l46 46q11 -9 69 -67q47 29 107 29q63 0 109 -32l71 70l49 -49l-71 -71q30 -49 30 -106q0 -60 -32 -110q29 -28 74 -73v-11zM270 468q-54 0 -86.5 -37t-32.5 -88 q0 -48 32.5 -85.5t87.5 -37.5q57 0 87.5 36.5t30.5 88.5q0 49 -32.5 86t-86.5 37z" />
<glyph unicode="&#xa5;" horiz-adv-x="689" d="M125 128v50h155v81h-155v50h155v3l-175 292q-13 23 -23.5 32.5t-29.5 17.5l-35 11l2 23h291l2 -23l-79 -24l155 -283l157 283l-77 24l2 23h200l2 -23q-4 -2 -16.5 -6.5t-22 -8.5t-12.5 -7q-19 -8 -37 -39l-175 -294v-1h156v-50h-156v-81h156v-50h-156v-22h-1v-53l79 -30 l-2 -23h-282l-2 23l41 14q21 9 29.5 18.5t8.5 28.5v44h-155z" />
<glyph unicode="&#xa6;" horiz-adv-x="326" d="M197 359l-56 -3l-12 8v391l60 3l8 -8v-391zM197 -255l-56 -3l-12 8v388l60 3l8 -7v-389z" />
<glyph unicode="&#xa7;" horiz-adv-x="559" d="M510 75q0 -106 -79.5 -176t-187.5 -70q-85 0 -139.5 26t-54.5 68q0 41 43 72l19 -2q66 -82 165 -120q33 24 33 83q0 44 -27 93.5t-65 95.5t-76 93.5t-65 105t-27 112.5q1 104 81.5 173t185.5 69q84 0 139 -26t55 -67q0 -42 -43 -73l-19 2q-67 86 -164 120 q-33 -35 -33 -94q0 -36 19 -75.5t48 -73.5t62.5 -75t62.5 -78.5t48 -86t19 -96.5zM121 473q0 -46 18.5 -91.5t46.5 -81.5t60 -76.5t60 -75.5t46.5 -78.5t18.5 -86.5q0 -39 -13 -74l9 -5q71 54 71 150q0 57 -25.5 111.5t-62 97.5t-73.5 85t-62.5 91.5t-25.5 99.5q0 39 11 78 l-9 4q-70 -52 -70 -148z" />
<glyph unicode="&#xa8;" horiz-adv-x="513" d="M434 674q0 -33 -20.5 -55.5t-52.5 -22.5q-26 0 -43.5 18.5t-17.5 44.5q0 32 22 55t53 23q26 0 42.5 -17.5t16.5 -45.5zM213 674q0 -33 -20.5 -55.5t-52.5 -22.5q-26 0 -43.5 18.5t-17.5 44.5q0 32 22 55t53 23q26 0 42.5 -17.5t16.5 -45.5z" />
<glyph unicode="&#xa9;" horiz-adv-x="699" d="M349 -49q-127 0 -213.5 86t-86.5 213q0 123 88 210.5t212 87.5q127 0 213.5 -87t86.5 -211q0 -123 -88 -211t-212 -88zM349 -4q105 0 180 75t75 179q0 105 -74.5 179t-180.5 74q-105 0 -179.5 -74t-74.5 -179q0 -108 73 -181t181 -73zM485 156q-44 -76 -127 -76 q-63 0 -107.5 46.5t-44.5 120.5q0 75 44 124t112 49q48 0 80.5 -25t32.5 -61q0 -18 -12 -29t-28 -11q-23 0 -39 8q1 4 1 9q0 66 -40 66q-28 0 -45 -30.5t-17 -80.5q0 -54 25.5 -86t68.5 -32q39 0 78 26z" />
<glyph unicode="&#xaa;" horiz-adv-x="476" d="M246 698q65 0 100.5 -32t35.5 -94q0 -15 -1.5 -83t-1.5 -88q0 -29 9 -40.5t30 -11.5q14 0 31 4l4 -10q-34 -49 -96 -49q-31 0 -51.5 14t-26.5 38q-49 -52 -123 -52q-48 0 -77.5 24t-29.5 65q0 58 62 92.5t166 36.5q1 46 1 91q0 61 -55 61q-29 0 -47 -17.5t-18 -47.5 q0 -22 4 -34q-24 -12 -48 -12q-22 0 -36 9.5t-14 27.5q0 38 57 73t125 35zM154 402q0 -53 55 -53q40 0 67 27q1 23 1 111q-57 -4 -90 -26t-33 -59z" />
<glyph unicode="&#xab;" horiz-adv-x="548" d="M263 30l-17 -10q-92 120 -171 189l-6 7v71q96 93 180 197l15 -10q-39 -95 -101 -223q56 -110 100 -221zM478 30l-17 -10q-95 122 -172 189l-5 7v71q99 96 179 197l16 -10q-39 -95 -101 -223q56 -110 100 -221z" />
<glyph unicode="&#xac;" d="M508 424v-233h-70v171h-370v65q163 5 432 5z" />
<glyph unicode="&#xae;" horiz-adv-x="699" d="M349 -49q-127 0 -213.5 86t-86.5 213q0 123 88 210.5t212 87.5q127 0 213.5 -87t86.5 -211q0 -123 -88 -211t-212 -88zM349 -4q105 0 180 75t75 179q0 105 -74.5 179t-180.5 74q-105 0 -179.5 -74t-74.5 -179q0 -108 73 -181t181 -73zM322 125l39 -14l-2 -23h-161l-2 23 l23 8q10 4 12.5 10t2.5 20v207q0 20 -16 25l-22 8l2 23h169q66 0 104 -26t38 -71q-1 -58 -64 -86l14 -22q2 -4 7 -12.5t7.5 -13t7.5 -12.5t8 -12t7 -10.5t7.5 -10.5t7.5 -8t8 -6.5t8 -4.5l16 -6v-23l-70 -3q-20 -1 -31 7t-23 27l-56 92h-41v-86zM353 373h-31v-123h36 q30 0 47.5 16t17.5 46q0 61 -70 61z" />
<glyph unicode="&#xaf;" horiz-adv-x="472" d="M79 628v63h314v-63h-314z" />
<glyph unicode="&#xb0;" horiz-adv-x="344" d="M174 451q-52 0 -85.5 33t-33.5 87q0 55 36 91.5t91 36.5q52 0 85 -33t33 -85q0 -56 -36 -93t-90 -37zM178 655q-34 0 -54.5 -23.5t-20.5 -58.5q0 -34 21 -55.5t53 -21.5q33 0 54 23.5t21 59.5q0 33 -20.5 54.5t-53.5 21.5z" />
<glyph unicode="&#xb1;" d="M496 402h-165v-156h-69v156h-174v66q46 1 174 3l-1 152h70v-151q36 0 92.5 0.5t72.5 0.5l8 -8zM512 75h-432v66q162 5 432 5l8 -8z" />
<glyph unicode="&#xb2;" horiz-adv-x="381" d="M52 347l-8 55q85 45 136 99t51 105q0 34 -21 52.5t-58 18.5q-50 0 -95 -41l-12 8q18 53 60 83.5t93 30.5q59 0 94.5 -32t35.5 -83q0 -28 -14 -56t-30.5 -47.5t-50 -45t-52 -37.5t-55.5 -35h147q22 0 33.5 8t21.5 28l12 -1q0 -59 -17 -110h-271z" />
<glyph unicode="&#xb3;" horiz-adv-x="391" d="M107 520l-4 28q137 12 137 77q0 23 -18.5 37.5t-49.5 14.5q-49 0 -97 -40l-11 8q19 51 61.5 82t91.5 31q54 0 87 -26.5t33 -65.5q0 -47 -37 -72.5t-89 -33.5q60 -5 99 -33t39 -75q0 -54 -51.5 -83t-123.5 -29q-58 0 -95.5 16t-37.5 45q0 19 19 31t46 13l8 -6q-2 -4 -2 -8 q8 -61 70 -61q33 0 54 16.5t21 45.5q0 41 -34 65t-81 24q-23 0 -35 -1z" />
<glyph unicode="&#xb4;" horiz-adv-x="376" d="M296 719q0 -33 -59.5 -75.5t-145.5 -74.5l-12 15q79 99 116 173l9 5q7 1 22 1q70 0 70 -44z" />
<glyph unicode="&#xb6;" horiz-adv-x="611" d="M290 -128q59 0 90.5 47.5t31.5 123.5v598h-84v-423h-12q-116 0 -191.5 63t-75.5 174q0 110 75.5 171.5t191.5 61.5h244l2 -23l-41 -14q-22 -8 -30 -18t-8 -29v-533q0 -117 -57 -179.5t-151 -62.5q-75 0 -125.5 29.5t-50.5 85.5q0 66 73 102l16 -10q-9 -17 -9 -31 q4 -60 31.5 -96.5t79.5 -36.5z" />
<glyph unicode="&#xb7;" horiz-adv-x="338" d="M166 190q-33 0 -54 20.5t-23 50.5q-1 35 25 61t61 26q31 0 51.5 -19.5t21.5 -51.5q2 -36 -22 -61.5t-60 -25.5z" />
<glyph unicode="&#xb8;" horiz-adv-x="350" d="M111 -110l-5 8l18 102h50l-12 -61q52 -7 80.5 -28t28.5 -52q0 -46 -49.5 -72.5t-137.5 -28.5l-5 15q82 31 82 73q0 32 -50 44z" />
<glyph unicode="&#xb9;" horiz-adv-x="298" d="M198 379l59 -20l-2 -12h-212l-2 12l26 6q21 8 29 16t8 23v288l-61 11l-2 11l152 44l5 -5v-374z" />
<glyph unicode="&#xba;" horiz-adv-x="457" d="M416 497q0 -92 -53.5 -147.5t-137.5 -55.5q-83 -1 -133.5 54t-50.5 149q0 91 54.5 146t137.5 55q81 0 132 -54.5t51 -146.5zM149 496q0 -168 78 -168q41 0 61 39.5t20 127.5q0 169 -77 169q-82 0 -82 -168z" />
<glyph unicode="&#xbb;" horiz-adv-x="548" d="M479 216q-99 -96 -179 -197l-16 10q39 95 101 223q-56 110 -100 221l17 10q91 -118 172 -189l5 -8v-70zM264 216q-99 -96 -179 -197l-16 10q43 101 102 223q-54 106 -101 221l18 10q88 -117 171 -189l5 -8v-70z" />
<glyph unicode="&#xbc;" horiz-adv-x="969" d="M699 698l-424 -708h-55l423 708h56zM243 316l58 -21l-1 -11h-212l-2 11l26 6q20 8 28.5 16t8.5 23v288l-61 11l-2 11l152 44l5 -5v-373zM531 125l227 279l63 -6v-262h67l-5 -52h-62v-84h-94v84h-190zM586 136h141v175z" />
<glyph unicode="&#xbd;" horiz-adv-x="969" d="M699 698l-424 -708h-55l423 708h56zM243 316l58 -21l-1 -11h-212l-2 11l26 6q20 8 28.5 16t8.5 23v288l-61 11l-2 11l152 44l5 -5v-373zM588 0l-7 54q85 45 135.5 98.5t50.5 105.5q0 34 -21 53t-58 19q-49 0 -95 -42l-12 8q18 54 60 84.5t94 30.5q59 0 94 -32t35 -83 q0 -28 -13.5 -56t-31 -48.5t-49.5 -45t-52 -37t-55 -34.5h146q22 0 33.5 8t22.5 28l11 -1q0 -58 -16 -110h-272z" />
<glyph unicode="&#xbe;" horiz-adv-x="969" d="M732 698l-423 -708h-55l423 708h55zM135 456l-3 28q137 12 137 77q0 23 -18.5 37.5t-50.5 14.5q-48 0 -96 -40l-12 8q19 51 61.5 82t92.5 31q53 0 86.5 -26.5t33.5 -65.5q0 -47 -37 -72.5t-89 -33.5q60 -5 99 -33t39 -75q0 -54 -51.5 -83t-123.5 -29q-58 0 -95.5 16 t-37.5 45q0 19 19 31t46 13l7 -6q-1 -2 -1 -8q8 -61 70 -61q33 0 54 16.5t21 45.5q0 41 -34.5 65t-80.5 24q-24 0 -36 -1zM531 125l227 279l63 -6v-262h67l-5 -52h-62v-84h-94v84h-190zM586 136h141v175z" />
<glyph unicode="&#xbf;" horiz-adv-x="448" d="M173 431q0 32 21 54.5t53 22.5q27 0 45 -18.5t18 -45.5q0 -30 -23 -53t-54 -23q-26 0 -43 17.5t-17 45.5zM212 273l8 8q32 2 51.5 -15t19.5 -45q0 -25 -16 -47.5t-38.5 -41.5t-45.5 -41t-39 -56.5t-16 -76.5q0 -51 24 -83t68 -32q45 0 72.5 31.5t27.5 82.5q0 28 -9 58 q22 12 52 12t49 -19.5t19 -52.5q0 -65 -65.5 -110t-155.5 -45t-149.5 46t-59.5 126q0 46 28 90t57.5 67t69 48t40.5 26q8 6 8 25v45z" />
<glyph unicode="&#xc0;" horiz-adv-x="714" d="M492 791l-6 -17q-106 2 -190.5 25.5t-84.5 68.5q0 17 16.5 33t39.5 24l10 -2q100 -82 215 -132zM317 688h80l214 -604q7 -20 17 -29.5t28 -16.5l41 -15l-2 -23h-288l-2 23l79 25l-58 172l-228 -3l-57 -168l79 -26l-2 -23h-199l-2 23q6 3 27 10t25 10q24 11 34 41z M213 261l200 -1l-100 296z" />
<glyph unicode="&#xc1;" horiz-adv-x="714" d="M438 923l11 1q23 -8 39 -23.5t16 -32.5q0 -45 -84 -68.5t-191 -26.5l-6 18q120 52 215 132zM317 688h80l214 -604q7 -20 17 -29.5t28 -16.5l41 -15l-2 -23h-288l-2 23l79 25l-58 172l-228 -3l-57 -168l79 -26l-2 -23h-199l-2 23q6 3 27 10t25 10q24 11 34 41zM213 261 l200 -1l-100 296z" />
<glyph unicode="&#xc2;" horiz-adv-x="714" d="M520 782l-15 -10q-85 47 -145 75q-96 -53 -147 -75l-13 13q83 87 120 137l9 6h72q67 -74 119 -146zM317 688h80l214 -604q7 -20 17 -29.5t28 -16.5l41 -15l-2 -23h-288l-2 23l79 25l-58 172l-228 -3l-57 -168l79 -26l-2 -23h-199l-2 23q6 3 27 10t25 10q24 11 34 41z M213 261l200 -1l-100 296z" />
<glyph unicode="&#xc3;" horiz-adv-x="714" d="M184 771l-18 6q-1 6 -1 19q4 55 28 89t68 34q40 0 123.5 -29.5t98.5 -32.5q1 2 12 16.5t22 29.5t15 21l17 -6q1 -7 1 -24q-3 -53 -26.5 -85.5t-68.5 -32.5q-39 0 -125.5 30t-96.5 32q-4 -4 -24 -30.5t-25 -36.5zM317 688h80l214 -604q7 -20 17 -29.5t28 -16.5l41 -15 l-2 -23h-288l-2 23l79 25l-58 172l-228 -3l-57 -168l79 -26l-2 -23h-199l-2 23q6 3 27 10t25 10q24 11 34 41zM213 261l200 -1l-100 296z" />
<glyph unicode="&#xc4;" horiz-adv-x="714" d="M544 857q0 -31 -21.5 -52.5t-54.5 -21.5q-28 0 -46 17t-18 42q0 30 22.5 51.5t55.5 21.5q26 0 44 -16.5t18 -41.5zM323 857q0 -31 -21.5 -52.5t-54.5 -21.5q-28 0 -46 17t-18 42q0 30 22.5 51.5t55.5 21.5q27 0 44.5 -16.5t17.5 -41.5zM317 688h80l214 -604 q7 -20 17 -29.5t28 -16.5l41 -15l-2 -23h-288l-2 23l79 25l-58 172l-228 -3l-57 -168l79 -26l-2 -23h-199l-2 23q6 3 27 10t25 10q24 11 34 41zM213 261l200 -1l-100 296z" />
<glyph unicode="&#xc5;" horiz-adv-x="714" d="M355 766q-44 0 -71 23t-27 61q0 40 29.5 65.5t75.5 25.5q43 0 71 -23.5t27 -59.5q-1 -40 -30.5 -66t-74.5 -26zM359 908q-21 0 -35 -16.5t-14 -40.5q0 -23 13.5 -37.5t34.5 -14.5t34.5 16.5t13.5 41.5q0 22 -13 36.5t-34 14.5zM317 688h80l214 -604q7 -20 17 -29.5 t28 -16.5l41 -15l-2 -23h-288l-2 23l79 25l-58 172l-228 -3l-57 -168l79 -26l-2 -23h-199l-2 23q6 3 27 10t25 10q24 11 34 41zM213 261l200 -1l-100 296z" />
<glyph unicode="&#xc6;" horiz-adv-x="911" d="M19 0l-2 23q6 3 27 10t25 10q24 11 34 41l195 551l-79 30l2 23h622q8 -46 8 -100q0 -61 -10 -111h-24l-32 81q-34 76 -38 80q-38 5 -83 5h-102v-280l197 8l-3 -58l-194 8v-276h112q45 0 83 5q4 5 11 20t15.5 34.5t11.5 25.5l32 81h24q10 -47 10 -111q0 -54 -8 -100h-497 l-2 23l41 14q22 8 30 18t8 29v238l-201 -3l-91 -270l79 -26l-2 -23h-199zM433 643h-91l-95 -280l186 -1v281z" />
<glyph unicode="&#xc7;" horiz-adv-x="670" d="M350 -110l-5 8l17 94q-143 15 -228 105t-85 241q0 163 102 261.5t255 98.5q109 0 186 -31q7 -28 7 -74q0 -63 -12 -120l-24 -2q-53 118 -83 169q-28 7 -60 7q-102 0 -170.5 -86.5t-67.5 -222.5q1 -134 68 -216t173 -82q33 0 65 7q43 63 92 164h24q8 -33 8 -90 q0 -63 -8 -106q-92 -25 -192 -25h-1l-10 -51q52 -7 80.5 -28t28.5 -52q0 -46 -49.5 -72.5t-137.5 -28.5l-5 15q82 31 82 73q0 32 -50 44z" />
<glyph unicode="&#xc8;" horiz-adv-x="603" d="M456 791l-6 -18q-107 3 -191 26.5t-84 68.5q0 17 16 32.5t39 23.5l11 -1q95 -80 215 -132zM254 363l197 8l-3 -58l-194 8v-276h112q45 0 83 5q4 5 11 20t15.5 34.5t11.5 25.5l32 81h24q10 -47 10 -111q0 -54 -8 -100h-497l-2 23l41 14q22 8 30 18t8 29v542q0 8 -10 11 l-69 28l2 23h487q8 -46 8 -100q0 -61 -10 -111h-24l-32 81q-34 76 -38 80q-38 5 -83 5h-102v-280z" />
<glyph unicode="&#xc9;" horiz-adv-x="603" d="M409 922l11 2q23 -8 39 -23.5t16 -32.5q0 -46 -84 -69.5t-191 -25.5l-6 18q122 53 215 131zM254 363l197 8l-3 -58l-194 8v-276h112q45 0 83 5q4 5 11 20t15.5 34.5t11.5 25.5l32 81h24q10 -47 10 -111q0 -54 -8 -100h-497l-2 23l41 14q22 8 30 18t8 29v542q0 10 -10 12 l-69 27l2 23h487q8 -46 8 -99q0 -62 -10 -111h-24l-32 80q-35 77 -38 81q-46 4 -83 4h-102v-280z" />
<glyph unicode="&#xca;" horiz-adv-x="603" d="M487 782l-15 -11q-85 47 -145 75q-116 -61 -147 -75l-13 13q83 87 120 137l9 7h72q73 -82 119 -146zM254 363l197 8l-3 -58l-194 8v-276h112q45 0 83 5q4 5 11 20t15.5 34.5t11.5 25.5l32 81h24q10 -47 10 -111q0 -54 -8 -100h-497l-2 23l41 14q22 8 30 18t8 29v542 q0 8 -10 11l-69 28l2 23h487q8 -46 8 -100q0 -61 -10 -111h-24l-32 81q-34 76 -38 80q-38 5 -83 5h-102v-280z" />
<glyph unicode="&#xcb;" horiz-adv-x="603" d="M508 857q0 -31 -21 -52.5t-55 -21.5q-28 0 -45.5 17t-17.5 42q0 30 22.5 51.5t54.5 21.5q27 0 44.5 -16.5t17.5 -41.5zM288 857q0 -31 -21.5 -52.5t-55.5 -21.5q-28 0 -45.5 17t-17.5 42q0 30 22.5 51.5t54.5 21.5q27 0 45 -16.5t18 -41.5zM254 363l197 8l-3 -58l-194 8 v-276h112q45 0 83 5q4 5 11 20t15.5 34.5t11.5 25.5l32 81h24q10 -47 10 -111q0 -54 -8 -100h-497l-2 23l41 14q22 8 30 18t8 29v542q0 8 -10 11l-69 28l2 23h487q8 -46 8 -100q0 -61 -10 -111h-24l-32 81q-34 76 -38 80q-38 5 -83 5h-102v-280z" />
<glyph unicode="&#xcc;" horiz-adv-x="380" d="M323 791l-6 -17q-106 2 -190.5 25.5t-84.5 68.5q0 17 16.5 33t39.5 24l10 -2q100 -82 215 -132zM254 53l79 -30l-2 -23h-283l-2 23l41 14q22 8 30 18t8 29v551l-79 30l2 23h283l2 -23l-41 -14q-21 -9 -29.5 -18.5t-8.5 -28.5v-551z" />
<glyph unicode="&#xcd;" horiz-adv-x="380" d="M273 923l10 1q23 -8 39.5 -23.5t16.5 -32.5q0 -45 -84 -68.5t-191 -26.5l-6 18q115 50 215 132zM254 53l79 -30l-2 -23h-283l-2 23l41 14q22 8 30 18t8 29v551l-79 30l2 23h283l2 -23l-41 -14q-21 -9 -29.5 -18.5t-8.5 -28.5v-551z" />
<glyph unicode="&#xce;" horiz-adv-x="380" d="M351 782l-15 -10q-97 53 -145 75q-91 -50 -147 -75l-13 13q90 96 120 137l9 6h72q67 -74 119 -146zM254 53l79 -30l-2 -23h-283l-2 23l41 14q22 8 30 18t8 29v551l-79 30l2 23h283l2 -23l-41 -14q-21 -9 -29.5 -18.5t-8.5 -28.5v-551z" />
<glyph unicode="&#xcf;" horiz-adv-x="380" d="M371 857q0 -31 -21.5 -52.5t-54.5 -21.5q-28 0 -46 17t-18 42q0 30 22.5 51.5t55.5 21.5q26 0 44 -16.5t18 -41.5zM150 857q0 -31 -21.5 -52.5t-54.5 -21.5q-28 0 -46 17t-18 42q0 30 22.5 51.5t55.5 21.5q27 0 44.5 -16.5t17.5 -41.5zM254 53l79 -30l-2 -23h-283l-2 23 l41 14q22 8 30 18t8 29v551l-79 30l2 23h283l2 -23l-41 -14q-21 -9 -29.5 -18.5t-8.5 -28.5v-551z" />
<glyph unicode="&#xd0;" horiz-adv-x="731" d="M681 344q0 -163 -94.5 -253.5t-253.5 -90.5h-278l-2 23l41 14q22 8 30 18t8 29v244h-83v43h83v255q0 9 -11 11l-68 28l2 23h278q160 0 254 -91t94 -253zM436 328h-175v-282h67q106 0 162.5 77t57.5 221t-56 221t-164 77h-67v-271h175v-43z" />
<glyph unicode="&#xd1;" horiz-adv-x="743" d="M218 768l-17 6q-1 6 -1 19q3 54 27 88.5t68 34.5q40 0 125.5 -30t97.5 -33q1 2 22 31t26 37l18 -6q0 -3 0.5 -11t0.5 -13q-4 -53 -27.5 -85.5t-67.5 -32.5q-40 0 -126.5 30t-95.5 32q-4 -4 -24.5 -31t-25.5 -36zM176 53l98 -30l-2 -23h-224l-2 23l41 14q22 8 30 18t8 29 v542q0 5 -12.5 13t-20.5 10l-46 16l2 23h188l348 -526v473l-79 30l2 23h204l2 -23l-41 -14q-22 -8 -30 -18t-8 -29v-604h-87l-371 549v-496z" />
<glyph unicode="&#xd2;" horiz-adv-x="716" d="M499 791l-6 -17q-106 2 -190.5 25.5t-84.5 68.5q0 17 16.5 33t39.5 24l10 -2q100 -82 215 -132zM49 344q0 163 89.5 258.5t223.5 95.5q135 0 220 -93t85 -256q0 -165 -86.5 -262t-223.5 -97q-139 0 -223.5 95t-84.5 259zM182 344q0 -142 47.5 -224.5t130.5 -82.5 q82 0 127.5 85t46.5 227q0 139 -45.5 220.5t-126.5 81.5q-82 0 -130.5 -83t-49.5 -224z" />
<glyph unicode="&#xd3;" horiz-adv-x="716" d="M442 923l11 1q23 -8 39.5 -23.5t16.5 -32.5q0 -45 -84 -68.5t-191 -26.5l-6 18q118 51 214 132zM49 344q0 163 89.5 258.5t223.5 95.5q135 0 220 -93t85 -256q0 -165 -86.5 -262t-223.5 -97q-139 0 -223.5 95t-84.5 259zM182 344q0 -142 47.5 -224.5t130.5 -82.5 q82 0 127.5 85t46.5 227q0 139 -45.5 220.5t-126.5 81.5q-82 0 -130.5 -83t-49.5 -224z" />
<glyph unicode="&#xd4;" horiz-adv-x="716" d="M521 782l-15 -10q-91 50 -145 75q-91 -50 -147 -75l-13 13q90 96 120 137l9 6h72q67 -74 119 -146zM49 344q0 163 89.5 258.5t223.5 95.5q135 0 220 -93t85 -256q0 -165 -86.5 -262t-223.5 -97q-139 0 -223.5 95t-84.5 259zM182 344q0 -142 47.5 -224.5t130.5 -82.5 q82 0 127.5 85t46.5 227q0 139 -45.5 220.5t-126.5 81.5q-82 0 -130.5 -83t-49.5 -224z" />
<glyph unicode="&#xd5;" horiz-adv-x="716" d="M184 771l-18 6q0 3 -0.5 9.5t-0.5 9.5q4 55 28 89t68 34q40 0 124.5 -29.5t97.5 -32.5q1 2 12.5 16.5t22 29.5t14.5 21l18 -6q0 -3 0.5 -11t0.5 -13q-4 -53 -27.5 -85.5t-67.5 -32.5q-40 0 -126.5 30t-95.5 32q-4 -3 -24 -30t-26 -37zM49 344q0 163 89.5 258.5 t223.5 95.5q135 0 220 -93t85 -256q0 -165 -86.5 -262t-223.5 -97q-139 0 -223.5 95t-84.5 259zM182 344q0 -142 47.5 -224.5t130.5 -82.5q82 0 127.5 85t46.5 227q0 139 -45.5 220.5t-126.5 81.5q-82 0 -130.5 -83t-49.5 -224z" />
<glyph unicode="&#xd6;" horiz-adv-x="716" d="M544 857q0 -31 -21.5 -52.5t-54.5 -21.5q-28 0 -46 17t-18 42q0 30 22.5 51.5t55.5 21.5q26 0 44 -16.5t18 -41.5zM323 857q0 -31 -21.5 -52.5t-54.5 -21.5q-28 0 -46 17t-18 42q0 30 22.5 51.5t55.5 21.5q26 0 44 -16.5t18 -41.5zM49 344q0 163 89.5 258.5t223.5 95.5 q135 0 220 -93t85 -256q0 -165 -86.5 -262t-223.5 -97q-139 0 -223.5 95t-84.5 259zM182 344q0 -142 47.5 -224.5t130.5 -82.5q82 0 127.5 85t46.5 227q0 139 -45.5 220.5t-126.5 81.5q-82 0 -130.5 -83t-49.5 -224z" />
<glyph unicode="&#xd7;" d="M452 138l-153 157l-157 -157l-50 50l158 157l-155 158l47 47l40 -40l59.5 -59.5l56.5 -56.5l156 156l50 -50l-156 -156q120 -122 154 -156v-11z" />
<glyph unicode="&#xd8;" horiz-adv-x="716" d="M49 344q0 163 89.5 258.5t223.5 95.5q121 0 201 -74l52 60l37 -29l-56 -66q71 -95 71 -240q0 -165 -86.5 -262t-223.5 -97q-124 0 -205 76l-52 -62l-35 31l56 66q-72 94 -72 243zM182 344q0 -86 18 -150l299 354q-45 103 -137 103q-82 0 -130.5 -83t-49.5 -224zM534 349 q0 82 -17 147l-299 -353q47 -106 142 -106q82 0 127.5 85t46.5 227z" />
<glyph unicode="&#xd9;" horiz-adv-x="672" d="M499 791l-5 -17q-107 2 -191.5 25.5t-84.5 68.5q0 17 16.5 33t39.5 24l11 -2q95 -80 214 -132zM88 235v400l-79 30l2 23h283l2 -23l-41 -14q-21 -9 -29.5 -18.5t-8.5 -28.5v-372q0 -92 43 -142t114 -50q72 0 115 49t43 143v403l-79 30l2 23h204l2 -23l-79 -30v-400 q0 -121 -62.5 -183t-178.5 -62t-184.5 63t-68.5 182z" />
<glyph unicode="&#xda;" horiz-adv-x="672" d="M457 923l10 1q23 -8 39.5 -23.5t16.5 -32.5q0 -45 -84 -68.5t-191 -26.5l-6 18q120 52 215 132zM88 235v400l-79 30l2 23h283l2 -23l-41 -14q-21 -9 -29.5 -18.5t-8.5 -28.5v-372q0 -92 43 -142t114 -50q72 0 115 49t43 143v403l-79 30l2 23h204l2 -23l-79 -30v-400 q0 -121 -62.5 -183t-178.5 -62t-184.5 63t-68.5 182z" />
<glyph unicode="&#xdb;" horiz-adv-x="672" d="M535 782l-15 -10q-85 47 -145 75q-96 -53 -147 -75l-13 13q83 87 120 137l9 6h72q67 -74 119 -146zM88 235v400l-79 30l2 23h283l2 -23l-41 -14q-21 -9 -29.5 -18.5t-8.5 -28.5v-372q0 -92 43 -142t114 -50q72 0 115 49t43 143v403l-79 30l2 23h204l2 -23l-79 -30v-400 q0 -121 -62.5 -183t-178.5 -62t-184.5 63t-68.5 182z" />
<glyph unicode="&#xdc;" horiz-adv-x="672" d="M553 857q0 -31 -21.5 -52.5t-54.5 -21.5q-28 0 -45.5 17t-17.5 42q0 30 22.5 51.5t54.5 21.5q27 0 44.5 -16.5t17.5 -41.5zM332 857q0 -31 -21.5 -52.5t-54.5 -21.5q-28 0 -45.5 17t-17.5 42q0 30 22.5 51.5t54.5 21.5q27 0 44.5 -16.5t17.5 -41.5zM88 235v400l-79 30 l2 23h283l2 -23l-41 -14q-21 -9 -29.5 -18.5t-8.5 -28.5v-372q0 -92 43 -142t114 -50q72 0 115 49t43 143v403l-79 30l2 23h204l2 -23l-79 -30v-400q0 -121 -62.5 -183t-178.5 -62t-184.5 63t-68.5 182z" />
<glyph unicode="&#xdd;" horiz-adv-x="689" d="M462 923l10 1q23 -8 39.5 -23.5t16.5 -32.5q0 -45 -84 -68.5t-191 -26.5l-6 18q115 50 215 132zM409 53l79 -30l-2 -23h-283l-2 23l41 14q22 8 30 18t8 29v203l-175 317q-12 22 -23 32t-30 18l-35 11l2 23h291l2 -23l-80 -25l157 -309l157 310l-78 24l2 23h200l2 -23 q-4 -2 -16.5 -6.5t-22 -8.5t-12.5 -7q-21 -9 -37 -39l-175 -318v-233z" />
<glyph unicode="&#xde;" horiz-adv-x="628" d="M254 53l99 -30l-2 -23h-303l-2 23l41 14q22 8 30 18t8 29v551l-79 30l2 23h283l2 -23l-41 -14q-21 -9 -29.5 -18.5t-8.5 -28.5v-45h84q115 0 189.5 -57t74.5 -157q0 -98 -75.5 -154t-190.5 -56h-82v-82zM325 512h-71v-329h69q69 0 107.5 42.5t38.5 119.5q0 78 -38 122.5 t-106 44.5z" />
<glyph unicode="&#xdf;" horiz-adv-x="630" d="M200 0h-174l-2 18l37 15q18 8 25 18.5t7 30.5v360h-67l-2 18l69 27v10q0 115 63.5 188t172.5 73q91 0 143 -43t52 -118q0 -57 -34 -100.5t-96 -60.5q91 -22 142.5 -87.5t51.5 -161.5q0 -89 -56.5 -143t-149.5 -54q-52 0 -87.5 28.5t-35.5 66.5q0 26 14.5 40.5t37.5 14.5 q15 0 31 -9q6 -98 52 -98q30 0 47.5 39t17.5 104q0 98 -41.5 159.5t-121.5 78.5v30q56 8 86 49.5t30 93.5q0 61 -25 95.5t-70 34.5q-99 0 -99 -185v-503z" />
<glyph unicode="&#xe0;" horiz-adv-x="544" d="M375 584l-11 -15q-86 32 -146 74.5t-60 75.5q0 44 70 44q16 0 23 -1l8 -5q37 -74 116 -173zM288 508q80 0 123 -40.5t43 -118.5q0 -20 -2 -109t-2 -116q0 -34 10 -50t37 -16q19 0 39 5l4 -12q-41 -61 -116 -61q-37 0 -62 18t-33 49q-57 -67 -149 -67q-59 0 -95 30.5 t-36 83.5q0 74 76 118.5t203 46.5v53.5t0.5 44.5t0.5 18q0 80 -69 80q-35 0 -57.5 -23.5t-22.5 -60.5q0 -24 5 -43q-25 -14 -57 -14q-28 0 -44.5 12t-16.5 34q0 49 69 93.5t152 44.5zM176 126q0 -68 67 -68q49 0 84 37q0 13 0.5 62.5t0.5 79.5q-71 -5 -111.5 -34t-40.5 -77z " />
<glyph unicode="&#xe1;" horiz-adv-x="544" d="M398 719q0 -33 -59.5 -75.5t-145.5 -74.5l-12 15q79 99 116 173l9 5q7 1 22 1q70 0 70 -44zM288 508q80 0 123 -40.5t43 -118.5q0 -20 -2 -109t-2 -116q0 -34 10 -50t37 -16q19 0 39 5l4 -12q-41 -61 -116 -61q-37 0 -62 18t-33 49q-57 -67 -149 -67q-59 0 -95 30.5 t-36 83.5q0 74 76 118.5t203 46.5v53.5t0.5 44.5t0.5 18q0 80 -69 80q-35 0 -57.5 -23.5t-22.5 -60.5q0 -24 5 -43q-25 -14 -57 -14q-28 0 -44.5 12t-16.5 34q0 49 69 93.5t152 44.5zM176 126q0 -68 67 -68q49 0 84 37q0 13 0.5 62.5t0.5 79.5q-71 -5 -111.5 -34t-40.5 -77z " />
<glyph unicode="&#xe2;" horiz-adv-x="544" d="M426 584l-16 -10q-72 57 -134 98q-74 -57 -137 -98l-13 13q75 106 109 164l9 7h73q59 -84 109 -174zM288 508q80 0 123 -40.5t43 -118.5q0 -20 -2 -109t-2 -116q0 -34 10 -50t37 -16q19 0 39 5l4 -12q-41 -61 -116 -61q-37 0 -62 18t-33 49q-57 -67 -149 -67 q-59 0 -95 30.5t-36 83.5q0 74 76 118.5t203 46.5v53.5t0.5 44.5t0.5 18q0 80 -69 80q-35 0 -57.5 -23.5t-22.5 -60.5q0 -24 5 -43q-25 -14 -57 -14q-28 0 -44.5 12t-16.5 34q0 49 69 93.5t152 44.5zM176 126q0 -68 67 -68q49 0 84 37q0 13 0.5 62.5t0.5 79.5 q-71 -5 -111.5 -34t-40.5 -77z" />
<glyph unicode="&#xe3;" horiz-adv-x="544" d="M115 602l-18 5q-1 6 -1 17q3 53 27 85.5t68 32.5q36 0 112.5 -27.5t83.5 -29.5l21 26q22 26 26 34l18 -6q1 -7 1 -21q-3 -51 -26.5 -82t-67.5 -31q-27 0 -64 11t-77 26.5t-55 19.5l-12 -14q-12 -14 -22.5 -27.5t-13.5 -18.5zM288 508q80 0 123 -40.5t43 -118.5 q0 -20 -2 -109t-2 -116q0 -34 10 -50t37 -16q19 0 39 5l4 -12q-41 -61 -116 -61q-37 0 -62 18t-33 49q-57 -67 -149 -67q-59 0 -95 30.5t-36 83.5q0 74 76 118.5t203 46.5v53.5t0.5 44.5t0.5 18q0 80 -69 80q-35 0 -57.5 -23.5t-22.5 -60.5q0 -24 5 -43q-25 -14 -57 -14 q-28 0 -44.5 12t-16.5 34q0 49 69 93.5t152 44.5zM176 126q0 -68 67 -68q49 0 84 37q0 13 0.5 62.5t0.5 79.5q-71 -5 -111.5 -34t-40.5 -77z" />
<glyph unicode="&#xe4;" horiz-adv-x="544" d="M455 674q0 -33 -20.5 -55.5t-52.5 -22.5q-27 0 -44 18.5t-17 44.5q0 32 22 55t53 23q25 0 42 -17.5t17 -45.5zM234 674q0 -33 -20.5 -55.5t-52.5 -22.5q-27 0 -44 18.5t-17 44.5q0 32 22 55t53 23q25 0 42 -17.5t17 -45.5zM288 508q80 0 123 -40.5t43 -118.5 q0 -20 -2 -109t-2 -116q0 -34 10 -50t37 -16q19 0 39 5l4 -12q-41 -61 -116 -61q-37 0 -62 18t-33 49q-57 -67 -149 -67q-59 0 -95 30.5t-36 83.5q0 74 76 118.5t203 46.5v53.5t0.5 44.5t0.5 18q0 80 -69 80q-35 0 -57.5 -23.5t-22.5 -60.5q0 -24 5 -43q-25 -14 -57 -14 q-28 0 -44.5 12t-16.5 34q0 49 69 93.5t152 44.5zM176 126q0 -68 67 -68q49 0 84 37q0 13 0.5 62.5t0.5 79.5q-71 -5 -111.5 -34t-40.5 -77z" />
<glyph unicode="&#xe5;" horiz-adv-x="544" d="M271 579q-44 0 -71 23t-27 61q0 40 30 65.5t76 25.5q43 0 70.5 -23.5t27.5 -59.5q-1 -40 -30.5 -66t-75.5 -26zM275 721q-21 0 -35 -16.5t-14 -40.5q0 -23 13.5 -37.5t34.5 -14.5q22 0 35.5 16.5t13.5 41.5q0 22 -13.5 36.5t-34.5 14.5zM288 508q80 0 123 -40.5 t43 -118.5q0 -20 -2 -109t-2 -116q0 -34 10 -50t37 -16q19 0 39 5l4 -12q-41 -61 -116 -61q-37 0 -62 18t-33 49q-57 -67 -149 -67q-59 0 -95 30.5t-36 83.5q0 74 76 118.5t203 46.5v53.5t0.5 44.5t0.5 18q0 80 -69 80q-35 0 -57.5 -23.5t-22.5 -60.5q0 -24 5 -43 q-25 -14 -57 -14q-28 0 -44.5 12t-16.5 34q0 49 69 93.5t152 44.5zM176 126q0 -68 67 -68q49 0 84 37q0 13 0.5 62.5t0.5 79.5q-71 -5 -111.5 -34t-40.5 -77z" />
<glyph unicode="&#xe6;" horiz-adv-x="777" d="M329 385q0 80 -69 80q-35 0 -57.5 -23.5t-22.5 -60.5q0 -24 5 -43q-25 -14 -57 -14q-28 0 -44.5 12t-16.5 34q0 48 66.5 93t145.5 45q90 0 130 -58q63 58 149 58q81 0 132.5 -52t51.5 -140q0 -35 -1 -49l-13 -13h-280q12 -180 153 -180q72 0 126 41l14 -12 q-58 -113 -188 -113q-124 0 -185 93q-32 -42 -80.5 -67.5t-103.5 -25.5q-62 0 -98.5 30t-36.5 84q0 74 76 118.5t203 46.5q0 24 0.5 63t0.5 53zM546 465q-46 0 -72 -50t-26 -126l167 7q1 11 1 38q0 131 -70 131zM176 126q0 -68 70 -68q57 0 104 60q-23 52 -23 119 q-70 -5 -110.5 -34t-40.5 -77z" />
<glyph unicode="&#xe7;" horiz-adv-x="478" d="M223 -110l-5 8l16 94q-89 11 -141 76.5t-52 167.5q0 119 68 195.5t174 76.5q74 0 121.5 -37t47.5 -90q0 -29 -18 -46t-47 -17q-23 0 -48 11q2 10 2 14q0 122 -68 122q-46 0 -74 -51t-28 -133q0 -101 39.5 -154t117.5 -53q67 0 119 41l14 -12q-57 -106 -178 -113l-9 -51 q51 -7 79.5 -28t28.5 -52q0 -46 -49.5 -72.5t-137.5 -28.5l-4 15q82 32 82 73q0 32 -50 44z" />
<glyph unicode="&#xe8;" horiz-adv-x="500" d="M361 584l-11 -15q-86 32 -145.5 74.5t-59.5 75.5q0 44 70 44q15 0 22 -1l9 -5q38 -77 115 -173zM464 103q-60 -113 -194 -113q-104 0 -166.5 67.5t-62.5 180.5q0 119 67 194.5t167 75.5q83 0 136.5 -52t53.5 -140q0 -35 -1 -49l-13 -13h-279q11 -180 152 -180 q72 0 126 41zM269 465q-46 0 -72 -50t-26 -126l167 7q1 11 1 38q0 131 -70 131z" />
<glyph unicode="&#xe9;" horiz-adv-x="500" d="M386 719q0 -33 -59.5 -75.5t-145.5 -74.5l-11 15q77 96 115 173l9 5q7 1 22 1q70 0 70 -44zM464 103q-60 -113 -194 -113q-104 0 -166.5 67.5t-62.5 180.5q0 119 67 194.5t167 75.5q83 0 136.5 -52t53.5 -140q0 -35 -1 -49l-13 -13h-279q11 -180 152 -180q72 0 126 41z M269 465q-46 0 -72 -50t-26 -126l167 7q1 11 1 38q0 131 -70 131z" />
<glyph unicode="&#xea;" horiz-adv-x="500" d="M416 584l-15 -10q-83 65 -135 98q-74 -57 -137 -98l-13 13q68 94 109 164l9 7h74q68 -99 108 -174zM464 103q-60 -113 -194 -113q-104 0 -166.5 67.5t-62.5 180.5q0 119 67 194.5t167 75.5q83 0 136.5 -52t53.5 -140q0 -35 -1 -49l-13 -13h-279q11 -180 152 -180 q72 0 126 41zM269 465q-46 0 -72 -50t-26 -126l167 7q1 11 1 38q0 131 -70 131z" />
<glyph unicode="&#xeb;" horiz-adv-x="500" d="M445 674q0 -33 -20.5 -55.5t-52.5 -22.5q-26 0 -43.5 18.5t-17.5 44.5q0 32 22 55t53 23q26 0 42.5 -17.5t16.5 -45.5zM224 674q0 -33 -20.5 -55.5t-52.5 -22.5q-26 0 -43.5 18.5t-17.5 44.5q0 32 22 55t53 23q26 0 42.5 -17.5t16.5 -45.5zM464 103q-60 -113 -194 -113 q-104 0 -166.5 67.5t-62.5 180.5q0 119 67 194.5t167 75.5q83 0 136.5 -52t53.5 -140q0 -35 -1 -49l-13 -13h-279q11 -180 152 -180q72 0 126 41zM269 465q-46 0 -72 -50t-26 -126l167 7q1 11 1 38q0 131 -70 131z" />
<glyph unicode="&#xec;" horiz-adv-x="320" d="M250 584l-12 -15q-86 32 -145.5 74.5t-59.5 75.5q0 44 70 44q15 0 23 -1l8 -5q37 -74 116 -173zM226 47l69 -29l-2 -18h-259l-2 18l37 15q18 8 25 18.5t7 30.5v344l-64 23l-2 14q80 36 183 45l8 -9v-452z" />
<glyph unicode="&#xed;" horiz-adv-x="320" d="M281 719q0 -33 -59.5 -75.5t-145.5 -74.5l-12 15q79 99 116 173l8 5q8 1 23 1q70 0 70 -44zM226 47l69 -29l-2 -18h-259l-2 18l37 15q18 8 25 18.5t7 30.5v344l-64 23l-2 14q80 36 183 45l8 -9v-452z" />
<glyph unicode="&#xee;" horiz-adv-x="320" d="M267 575l-16 -10q-57 57 -98 92q-63 -61 -101 -92l-13 13q49 103 72 168l9 6h75q44 -100 72 -177zM226 47l69 -29l-2 -18h-259l-2 18l37 15q18 8 25 18.5t7 30.5v344l-64 23l-2 14q80 36 183 45l8 -9v-452z" />
<glyph unicode="&#xef;" horiz-adv-x="320" d="M301 675q0 -33 -18 -55.5t-47 -22.5q-24 0 -38.5 18t-14.5 45q0 32 19 55t48 23q22 0 36.5 -17.5t14.5 -45.5zM125 675q0 -33 -18 -55.5t-47 -22.5q-24 0 -38.5 18t-14.5 45q0 32 19.5 55t47.5 23q22 0 36.5 -17.5t14.5 -45.5zM226 47l69 -29l-2 -18h-259l-2 18l37 15 q18 8 25 18.5t7 30.5v344l-64 23l-2 14q80 36 183 45l8 -9v-452z" />
<glyph unicode="&#xf0;" horiz-adv-x="548" d="M265 -10q-100 0 -162 70.5t-62 189.5q0 117 60.5 187.5t150.5 70.5q51 0 88 -28q-23 62 -62 111l-145 -67l-20 42l132 62q-63 65 -153 102l7 28q128 -12 226 -93l155 73l21 -43l-139 -65q135 -140 135 -354q0 -136 -61 -211t-171 -75zM273 465q-102 0 -102 -215 q0 -217 94 -217q54 0 78.5 51t24.5 170q0 90 -23.5 150.5t-71.5 60.5z" />
<glyph unicode="&#xf1;" horiz-adv-x="623" d="M134 607q0 3 -0.5 8.5t-0.5 8.5q3 53 27 85.5t68 32.5q36 0 112.5 -27.5t83.5 -29.5q1 1 22 26.5t26 33.5l18 -6q0 -3 0.5 -10t0.5 -11q-4 -51 -27.5 -82t-67.5 -31q-27 0 -63.5 11t-77 26.5t-55.5 19.5l-48 -60zM226 47l69 -29l-2 -18h-259l-2 18l37 15q18 8 25 18.5 t7 30.5v344l-64 23l-2 14q80 36 183 45l8 -9v-57q78 66 163 66q68 0 104 -39t36 -112v-310l69 -29l-2 -18h-259l-2 18l38 15q18 8 24.5 18.5t6.5 30.5v261q0 91 -78 91q-48 0 -100 -33v-354z" />
<glyph unicode="&#xf2;" horiz-adv-x="538" d="M365 584l-11 -15q-86 32 -146 74.5t-60 75.5q0 44 71 44q15 0 22 -1l9 -5q38 -77 115 -173zM497 250q0 -118 -64.5 -189t-167.5 -71q-100 0 -162 70.5t-62 189.5q0 117 66.5 187.5t167.5 70.5q99 0 160.5 -69.5t61.5 -188.5zM171 250q0 -217 96 -217q51 0 75.5 50.5 t24.5 164.5q0 217 -94 217q-102 0 -102 -215z" />
<glyph unicode="&#xf3;" horiz-adv-x="538" d="M399 719q0 -33 -59.5 -75.5t-145.5 -74.5l-11 15q79 102 115 173l9 5q7 1 22 1q70 0 70 -44zM497 250q0 -118 -64.5 -189t-167.5 -71q-100 0 -162 70.5t-62 189.5q0 117 66.5 187.5t167.5 70.5q99 0 160.5 -69.5t61.5 -188.5zM171 250q0 -217 96 -217q51 0 75.5 50.5 t24.5 164.5q0 217 -94 217q-102 0 -102 -215z" />
<glyph unicode="&#xf4;" horiz-adv-x="538" d="M425 584l-15 -10q-78 61 -135 98q-74 -57 -137 -98l-13 13q75 106 109 164l9 7h74q61 -89 108 -174zM497 250q0 -118 -64.5 -189t-167.5 -71q-100 0 -162 70.5t-62 189.5q0 117 66.5 187.5t167.5 70.5q99 0 160.5 -69.5t61.5 -188.5zM171 250q0 -217 96 -217 q51 0 75.5 50.5t24.5 164.5q0 217 -94 217q-102 0 -102 -215z" />
<glyph unicode="&#xf5;" horiz-adv-x="538" d="M111 602l-18 5q-1 6 -1 17q3 53 27 85.5t68 32.5q36 0 112.5 -27.5t83.5 -29.5q1 1 22 26.5t26 33.5l17 -6q1 -7 1 -21q-3 -51 -26.5 -82t-67.5 -31q-27 0 -64 11t-77 26.5t-55 19.5zM497 250q0 -118 -64.5 -189t-167.5 -71q-100 0 -162 70.5t-62 189.5q0 117 66.5 187.5 t167.5 70.5q99 0 160.5 -69.5t61.5 -188.5zM171 250q0 -217 96 -217q51 0 75.5 50.5t24.5 164.5q0 217 -94 217q-102 0 -102 -215z" />
<glyph unicode="&#xf6;" horiz-adv-x="538" d="M454 674q0 -33 -20.5 -55.5t-52.5 -22.5q-26 0 -43.5 18.5t-17.5 44.5q0 32 22 55t53 23q25 0 42 -17.5t17 -45.5zM233 674q0 -33 -20.5 -55.5t-52.5 -22.5q-26 0 -43.5 18.5t-17.5 44.5q0 32 22 55t53 23q26 0 42.5 -17.5t16.5 -45.5zM497 250q0 -118 -64.5 -189 t-167.5 -71q-100 0 -162 70.5t-62 189.5q0 117 66.5 187.5t167.5 70.5q99 0 160.5 -69.5t61.5 -188.5zM171 250q0 -217 96 -217q51 0 75.5 50.5t24.5 164.5q0 217 -94 217q-102 0 -102 -215z" />
<glyph unicode="&#xf7;" d="M360 538q0 -30 -19 -50.5t-49 -20.5q-24 0 -40 17t-16 41q0 30 20 51t49 21q24 0 39.5 -16.5t15.5 -42.5zM510 310h-432v66q162 5 432 5l8 -8zM360 166q0 -30 -18.5 -50.5t-48.5 -20.5q-25 0 -40.5 16.5t-15.5 41.5q0 30 20 51t49 21q23 0 38.5 -16.5t15.5 -42.5z" />
<glyph unicode="&#xf8;" horiz-adv-x="538" d="M497 250q0 -118 -64.5 -189t-167.5 -71q-92 0 -151 59l-43 -47l-34 33l47 51q-43 67 -43 164q0 117 66.5 187.5t167.5 70.5q91 0 149 -58l42 45l36 -32l-48 -50q43 -67 43 -163zM171 250q0 -27 2 -69l182 195q-21 89 -82 89q-102 0 -102 -215zM367 248q0 27 -2 69 l-183 -195q22 -89 85 -89q51 0 75.5 50.5t24.5 164.5z" />
<glyph unicode="&#xf9;" horiz-adv-x="628" d="M410 584l-11 -15q-86 32 -145.5 74.5t-59.5 75.5q0 44 70 44q15 0 22 -1l9 -5q36 -71 115 -173zM95 151v275l-64 23l-2 14q80 36 183 45l8 -9v-335q0 -103 88 -103q49 0 92 34v331l-64 23l-2 14q80 36 183 45l8 -9v-370q0 -71 46 -71q21 0 41 5l4 -12q-42 -61 -117 -61 q-72 0 -93 66q-68 -66 -156 -66q-73 0 -114 42t-41 119z" />
<glyph unicode="&#xfa;" horiz-adv-x="628" d="M454 719q0 -33 -60 -75.5t-146 -74.5l-11 15q79 99 116 173l8 5q7 1 22 1q71 0 71 -44zM95 151v275l-64 23l-2 14q80 36 183 45l8 -9v-335q0 -103 88 -103q49 0 92 34v331l-64 23l-2 14q80 36 183 45l8 -9v-370q0 -71 46 -71q21 0 41 5l4 -12q-42 -61 -117 -61 q-72 0 -93 66q-68 -66 -156 -66q-73 0 -114 42t-41 119z" />
<glyph unicode="&#xfb;" horiz-adv-x="628" d="M471 584l-15 -10q-73 59 -135 98q-74 -57 -137 -98l-13 13q68 94 109 164l9 7h74q68 -99 108 -174zM95 151v275l-64 23l-2 14q80 36 183 45l8 -9v-335q0 -103 88 -103q49 0 92 34v331l-64 23l-2 14q80 36 183 45l8 -9v-370q0 -71 46 -71q21 0 41 5l4 -12 q-42 -61 -117 -61q-72 0 -93 66q-68 -66 -156 -66q-73 0 -114 42t-41 119z" />
<glyph unicode="&#xfc;" horiz-adv-x="628" d="M494 674q0 -33 -20.5 -55.5t-52.5 -22.5q-26 0 -43.5 18.5t-17.5 44.5q0 32 22 55t53 23q26 0 42.5 -17.5t16.5 -45.5zM273 674q0 -33 -20.5 -55.5t-52.5 -22.5q-26 0 -43.5 18.5t-17.5 44.5q0 32 22 55t53 23q26 0 42.5 -17.5t16.5 -45.5zM95 151v275l-64 23l-2 14 q80 36 183 45l8 -9v-335q0 -103 88 -103q49 0 92 34v331l-64 23l-2 14q80 36 183 45l8 -9v-370q0 -71 46 -71q21 0 41 5l4 -12q-42 -61 -117 -61q-72 0 -93 66q-68 -66 -156 -66q-73 0 -114 42t-41 119z" />
<glyph unicode="&#xfd;" horiz-adv-x="551" d="M419 719q0 -33 -59.5 -75.5t-145.5 -74.5l-12 15q79 99 116 173l8 5q8 1 23 1q70 0 70 -44zM15 498h263l2 -18l-68 -28l105 -332l111 332l-73 28l2 18h182l2 -18q-43 -18 -47 -22q-22 -12 -32 -42l-159 -446q-42 -120 -86.5 -174t-101.5 -54q-33 0 -54.5 21t-21.5 54 q0 27 14 49l7 3q34 -21 62 -21q46 0 89 42t65 108l-39 -5l-149 422q-10 29 -31 42q-5 6 -44 23z" />
<glyph unicode="&#xfe;" horiz-adv-x="588" d="M218 -201l89 -29l-2 -18h-279l-2 18l37 15q32 13 32 49v842l-64 23l-2 14q80 36 183 45l8 -9v-305q57 64 140 64q87 0 138 -68t51 -181q0 -125 -69 -197t-186 -72q-38 0 -74 6v-197zM292 33q57 0 91 55t34 149q0 197 -113 197q-47 0 -86 -36v-344q31 -21 74 -21z" />
<glyph unicode="&#xff;" horiz-adv-x="551" d="M471 674q0 -33 -20.5 -55.5t-52.5 -22.5q-26 0 -43 18.5t-17 44.5q0 32 21.5 55t52.5 23q26 0 42.5 -17.5t16.5 -45.5zM250 674q0 -33 -20.5 -55.5t-52.5 -22.5q-26 0 -43 18.5t-17 44.5q0 32 21.5 55t52.5 23q26 0 42.5 -17.5t16.5 -45.5zM15 498h263l2 -18l-68 -28 l105 -332l111 332l-73 28l2 18h182l2 -18q-43 -18 -47 -22q-22 -12 -32 -42l-159 -446q-42 -120 -86.5 -174t-101.5 -54q-33 0 -54.5 21t-21.5 54q0 27 14 49l7 3q34 -21 62 -21q46 0 89 42t65 108l-39 -5l-149 422q-10 29 -31 42q-5 6 -44 23z" />
<glyph unicode="&#x100;" horiz-adv-x="714" d="M199 816v67h314v-67h-314zM317 688h80l214 -604q7 -20 17 -29.5t28 -16.5l41 -15l-2 -23h-288l-2 23l79 25l-58 172l-228 -3l-57 -168l79 -26l-2 -23h-199l-2 23q6 3 27 10t25 10q24 11 34 41zM213 261l200 -1l-100 296z" />
<glyph unicode="&#x101;" horiz-adv-x="544" d="M118 628v63h314v-63h-314zM288 508q80 0 123 -40.5t43 -118.5q0 -20 -2 -109t-2 -116q0 -34 10 -50t37 -16q19 0 39 5l4 -12q-41 -61 -116 -61q-37 0 -62 18t-33 49q-57 -67 -149 -67q-59 0 -95 30.5t-36 83.5q0 74 76 118.5t203 46.5v53.5t0.5 44.5t0.5 18q0 80 -69 80 q-35 0 -57.5 -23.5t-22.5 -60.5q0 -24 5 -43q-25 -14 -57 -14q-28 0 -44.5 12t-16.5 34q0 49 69 93.5t152 44.5zM176 126q0 -68 67 -68q49 0 84 37q0 13 0.5 62.5t0.5 79.5q-71 -5 -111.5 -34t-40.5 -77z" />
<glyph unicode="&#x102;" horiz-adv-x="714" d="M477 918l5 2l17 -4q-10 -63 -47.5 -99t-93.5 -36q-54 0 -88.5 36t-40.5 100l21 4q9 -28 39 -44t75 -16q41 0 71.5 15.5t41.5 41.5zM317 688h80l214 -604q7 -20 17 -29.5t28 -16.5l41 -15l-2 -23h-288l-2 23l79 25l-58 172l-228 -3l-57 -168l79 -26l-2 -23h-199l-2 23 q6 3 27 10t25 10q24 11 34 41zM213 261l200 -1l-100 296z" />
<glyph unicode="&#x103;" horiz-adv-x="544" d="M392 744l5 2l17 -4q-7 -70 -46 -112t-95 -42q-57 0 -93 42t-40 113l21 3q9 -35 40.5 -55.5t76.5 -20.5q42 0 72.5 19.5t41.5 54.5zM288 508q80 0 123 -40.5t43 -118.5q0 -20 -2 -109t-2 -116q0 -34 10 -50t37 -16q19 0 39 5l4 -12q-41 -61 -116 -61q-37 0 -62 18t-33 49 q-57 -67 -149 -67q-59 0 -95 30.5t-36 83.5q0 74 76 118.5t203 46.5v53.5t0.5 44.5t0.5 18q0 80 -69 80q-35 0 -57.5 -23.5t-22.5 -60.5q0 -24 5 -43q-25 -14 -57 -14q-28 0 -44.5 12t-16.5 34q0 49 69 93.5t152 44.5zM176 126q0 -68 67 -68q49 0 84 37q0 13 0.5 62.5 t0.5 79.5q-71 -5 -111.5 -34t-40.5 -77z" />
<glyph unicode="&#x104;" horiz-adv-x="715" d="M682 -182q-38 -59 -111 -59q-42 0 -68 24.5t-26 65.5q0 101 161 151h-231l-2 23l79 25l-58 172l-228 -3l-57 -168l79 -26l-2 -23h-199l-2 23q6 3 27 10t25 10q24 11 34 41l214 604h80l214 -604q7 -20 17 -29.5t28 -16.5l41 -15l-2 -23q-55 -23 -85.5 -57t-30.5 -69 q0 -23 13.5 -36t37.5 -13q18 0 48 5zM213 261l200 -1l-100 296z" />
<glyph unicode="&#x105;" horiz-adv-x="544" d="M508 -182q-38 -59 -107 -59q-44 0 -71 24t-27 64q0 44 35 78t99 66q-4 -1 -13 -1q-37 0 -62 18t-33 49q-57 -67 -149 -67q-59 0 -95 30.5t-36 83.5q0 74 76 118.5t203 46.5v53.5t0.5 44.5t0.5 18q0 80 -69 80q-35 0 -57.5 -23.5t-22.5 -60.5q0 -24 5 -43q-25 -14 -57 -14 q-28 0 -44.5 12t-16.5 34q0 49 69 93.5t152 44.5q80 0 123 -40.5t43 -118.5q0 -20 -2 -109t-2 -116q0 -34 10 -50t37 -16q19 0 39 5l4 -12q-6 -8 -18 -22q-11 -12 -48.5 -46.5t-53 -58t-15.5 -51.5q0 -48 56 -48q18 0 43 5zM176 126q0 -68 67 -68q49 0 84 37q0 13 0.5 62.5 t0.5 79.5q-71 -5 -111.5 -34t-40.5 -77z" />
<glyph unicode="&#x106;" horiz-adv-x="670" d="M479 923l11 1q23 -8 39.5 -23.5t16.5 -32.5q0 -45 -84.5 -68.5t-191.5 -26.5l-5 18q119 52 214 132zM412 -10q-163 0 -263 92t-100 256q0 163 102 261.5t255 98.5q109 0 186 -31q7 -28 7 -74q0 -63 -12 -120l-24 -2q-53 118 -83 169q-28 7 -60 7q-102 0 -170.5 -86.5 t-67.5 -222.5q1 -134 68 -216t173 -82q33 0 65 7q43 63 92 164h24q8 -33 8 -90q0 -63 -8 -106q-92 -25 -192 -25z" />
<glyph unicode="&#x107;" horiz-adv-x="478" d="M395 719q0 -33 -59.5 -75.5t-145.5 -74.5l-12 15q79 99 116 173l9 5q7 1 22 1q70 0 70 -44zM461 103q-61 -113 -193 -113q-104 0 -165.5 67t-61.5 179q0 119 68 195.5t174 76.5q74 0 121.5 -37t47.5 -90q0 -29 -18 -46t-47 -17q-23 0 -48 11q2 10 2 14q0 122 -68 122 q-46 0 -74 -51t-28 -133q0 -101 39.5 -154t117.5 -53q67 0 119 41z" />
<glyph unicode="&#x108;" horiz-adv-x="670" d="M558 782l-16 -10q-83 47 -144 75q-91 -50 -147 -75l-13 13q85 91 119 137l9 6h73q59 -64 119 -146zM412 -10q-163 0 -263 92t-100 256q0 163 102 261.5t255 98.5q109 0 186 -31q7 -28 7 -74q0 -63 -12 -120l-24 -2q-53 118 -83 169q-28 7 -60 7q-102 0 -170.5 -86.5 t-67.5 -222.5q1 -134 68 -216t173 -82q33 0 65 7q43 63 92 164h24q8 -33 8 -90q0 -63 -8 -106q-92 -25 -192 -25z" />
<glyph unicode="&#x109;" horiz-adv-x="478" d="M425 584l-15 -10q-78 61 -135 98q-74 -57 -137 -98l-13 13q75 106 109 164l9 7h74q61 -89 108 -174zM461 103q-61 -113 -193 -113q-104 0 -165.5 67t-61.5 179q0 119 68 195.5t174 76.5q74 0 121.5 -37t47.5 -90q0 -29 -18 -46t-47 -17q-23 0 -48 11q2 10 2 14 q0 122 -68 122q-46 0 -74 -51t-28 -133q0 -101 39.5 -154t117.5 -53q67 0 119 41z" />
<glyph unicode="&#x10a;" horiz-adv-x="670" d="M476 856q0 -34 -23.5 -57t-60.5 -23q-32 0 -52 18.5t-20 46.5q0 32 25.5 55.5t61.5 23.5q30 0 49.5 -18t19.5 -46zM412 -10q-163 0 -263 92t-100 256q0 163 102 261.5t255 98.5q109 0 186 -31q7 -28 7 -74q0 -63 -12 -120l-24 -2q-53 118 -83 169q-28 7 -60 7 q-102 0 -170.5 -86.5t-67.5 -222.5q1 -134 68 -216t173 -82q33 0 65 7q43 63 92 164h24q8 -33 8 -90q0 -63 -8 -106q-92 -25 -192 -25z" />
<glyph unicode="&#x10b;" horiz-adv-x="478" d="M349 673q0 -36 -22.5 -60t-57.5 -24q-30 0 -49 19.5t-19 49.5q0 33 24.5 57.5t58.5 24.5q28 0 46.5 -18.5t18.5 -48.5zM461 103q-61 -113 -193 -113q-104 0 -165.5 67t-61.5 179q0 119 68 195.5t174 76.5q74 0 121.5 -37t47.5 -90q0 -29 -18 -46t-47 -17q-23 0 -48 11 q2 10 2 14q0 122 -68 122q-46 0 -74 -51t-28 -133q0 -101 39.5 -154t117.5 -53q67 0 119 41z" />
<glyph unicode="&#x10c;" horiz-adv-x="670" d="M437 778l-9 -6h-72q-70 77 -119 145l15 11q97 -53 145 -75q96 53 147 75l13 -13q-83 -87 -120 -137zM412 -10q-163 0 -263 92t-100 256q0 163 102 261.5t255 98.5q109 0 186 -31q7 -28 7 -74q0 -63 -12 -120l-24 -2q-53 118 -83 169q-28 7 -60 7q-102 0 -170.5 -86.5 t-67.5 -222.5q1 -134 68 -216t173 -82q33 0 65 7q43 63 92 164h24q8 -33 8 -90q0 -63 -8 -106q-92 -25 -192 -25z" />
<glyph unicode="&#x10d;" horiz-adv-x="478" d="M316 582l-9 -7h-73q-55 78 -109 174l16 10q61 -49 134 -98q84 64 137 98l13 -13q-75 -106 -109 -164zM461 103q-61 -113 -193 -113q-104 0 -165.5 67t-61.5 179q0 119 68 195.5t174 76.5q74 0 121.5 -37t47.5 -90q0 -29 -18 -46t-47 -17q-23 0 -48 11q2 10 2 14 q0 122 -68 122q-46 0 -74 -51t-28 -133q0 -101 39.5 -154t117.5 -53q67 0 119 41z" />
<glyph unicode="&#x10e;" horiz-adv-x="724" d="M396 778l-9 -6h-72q-70 77 -119 145l15 11q91 -50 145 -75q91 50 147 75l13 -13q-90 -96 -120 -137zM674 344q0 -163 -94.5 -253.5t-253.5 -90.5h-278l-2 23l41 14q22 8 30 18t8 29v542q0 8 -10 11l-69 28l2 23h278q160 0 254 -91t94 -253zM321 642h-67v-596h67 q106 0 163 77t57 221q1 144 -56 221t-164 77z" />
<glyph unicode="&#x10f;" horiz-adv-x="754" d="M584 51q-41 -61 -116 -61q-74 0 -95 68q-51 -68 -141 -68q-85 0 -138 66t-53 179q0 126 72 199.5t184 73.5q36 0 71 -8v176l-84 23l-2 14q86 36 203 45l8 -9v-620q0 -37 11.5 -54t37.5 -17q21 0 38 5zM713 693q0 -44 -31 -89.5t-70 -66.5l-11 9q29 40 38 95q-20 4 -32 18 t-12 34q0 26 17 43.5t42 17.5q27 0 43 -16.5t16 -44.5zM171 256q0 -93 31 -145.5t85 -52.5q45 0 81 36v351q-28 20 -63 20q-62 0 -98 -54.5t-36 -154.5z" />
<glyph unicode="&#x110;" horiz-adv-x="731" d="M681 344q0 -163 -94.5 -253.5t-253.5 -90.5h-278l-2 23l41 14q22 8 30 18t8 29v244h-83v43h83v255q0 9 -11 11l-68 28l2 23h278q160 0 254 -91t94 -253zM436 328h-175v-282h67q106 0 162.5 77t57.5 221t-56 221t-164 77h-67v-271h175v-43z" />
<glyph unicode="&#x111;" horiz-adv-x="588" d="M584 51q-41 -61 -116 -61q-74 0 -95 68q-51 -68 -141 -68q-85 0 -138 66t-53 179q0 126 72 199.5t184 73.5q36 0 71 -8v64h-180v42h180v70l-84 23l-2 14q86 36 203 45l8 -9v-143h91v-42h-91v-435q0 -37 11.5 -54t37.5 -17q21 0 38 5zM171 256q0 -93 31 -145.5t85 -52.5 q45 0 81 36v351q-28 20 -63 20q-62 0 -98 -54.5t-36 -154.5z" />
<glyph unicode="&#x112;" horiz-adv-x="603" d="M166 815v68h314v-68h-314zM254 363l197 8l-3 -58l-194 8v-276h112q45 0 83 5q4 5 11 20t15.5 34.5t11.5 25.5l32 81h24q10 -47 10 -111q0 -54 -8 -100h-497l-2 23l41 14q22 8 30 18t8 29v542q0 8 -10 11l-69 28l2 23h487q8 -46 8 -100q0 -61 -10 -111h-24l-32 81 q-34 76 -38 80q-38 5 -83 5h-102v-280z" />
<glyph unicode="&#x113;" horiz-adv-x="500" d="M109 628v63h313v-63h-313zM464 103q-60 -113 -194 -113q-104 0 -166.5 67.5t-62.5 180.5q0 119 67 194.5t167 75.5q83 0 136.5 -52t53.5 -140q0 -35 -1 -49l-13 -13h-279q11 -180 152 -180q72 0 126 41zM269 465q-46 0 -72 -50t-26 -126l167 7q1 11 1 38q0 131 -70 131z " />
<glyph unicode="&#x114;" horiz-adv-x="603" d="M440 918l5 2l17 -5q-10 -63 -47.5 -98.5t-93.5 -35.5q-54 0 -89 36t-40 99l21 5q9 -29 39 -45t74 -16q42 0 72.5 15.5t41.5 42.5zM254 363l197 8l-3 -58l-194 8v-276h112q45 0 83 5q4 5 11 20t15.5 34.5t11.5 25.5l32 81h24q10 -47 10 -111q0 -54 -8 -100h-497l-2 23 l41 14q22 8 30 18t8 29v542q0 8 -10 11l-69 28l2 23h487q8 -46 8 -100q0 -61 -10 -111h-24l-32 81q-34 76 -38 80q-38 5 -83 5h-102v-280z" />
<glyph unicode="&#x115;" horiz-adv-x="500" d="M382 744l5 2l17 -4q-7 -70 -45.5 -112t-95.5 -42q-56 0 -92 42t-40 113l20 3q9 -35 40.5 -55.5t77.5 -20.5q42 0 72.5 20t40.5 54zM464 103q-60 -113 -194 -113q-104 0 -166.5 67.5t-62.5 180.5q0 119 67 194.5t167 75.5q83 0 136.5 -52t53.5 -140q0 -35 -1 -49l-13 -13 h-279q11 -180 152 -180q72 0 126 41zM269 465q-46 0 -72 -50t-26 -126l167 7q1 11 1 38q0 131 -70 131z" />
<glyph unicode="&#x116;" horiz-adv-x="603" d="M406 856q0 -34 -24 -57t-60 -23q-32 0 -52.5 18.5t-20.5 46.5q0 32 26 55t62 23q30 0 49.5 -17.5t19.5 -45.5zM254 363l197 8l-3 -58l-194 8v-276h112q45 0 83 5q4 5 11 20t15.5 34.5t11.5 25.5l32 81h24q10 -47 10 -111q0 -54 -8 -100h-497l-2 23l41 14q22 8 30 18t8 29 v542q0 8 -10 11l-69 28l2 23h487q8 -46 8 -100q0 -61 -10 -111h-24l-32 81q-34 76 -38 80q-38 5 -83 5h-102v-280z" />
<glyph unicode="&#x117;" horiz-adv-x="500" d="M344 673q0 -36 -22.5 -60t-58.5 -24q-30 0 -49 19.5t-19 49.5q0 33 24.5 57.5t59.5 24.5q28 0 46.5 -18.5t18.5 -48.5zM464 103q-60 -113 -194 -113q-104 0 -166.5 67.5t-62.5 180.5q0 119 67 194.5t167 75.5q83 0 136.5 -52t53.5 -140q0 -35 -1 -49l-13 -13h-279 q11 -180 152 -180q72 0 126 41zM269 465q-46 0 -72 -50t-26 -126l167 7q1 11 1 38q0 131 -70 131z" />
<glyph unicode="&#x118;" horiz-adv-x="603" d="M254 363l197 8l-3 -58l-194 8v-276h112q45 0 83 5q4 5 11 20t15.5 34.5t11.5 25.5l32 81h24q10 -47 10 -111q0 -54 -8 -100q-55 -23 -85 -57t-30 -69q0 -23 13.5 -36t37.5 -13q17 0 47 5l4 -12q-38 -59 -110 -59q-42 0 -68 24.5t-26 65.5q0 101 160 151h-440l-2 23l41 14 q22 8 30 18t8 29v542q0 8 -10 11l-69 28l2 23h487q8 -46 8 -100q0 -61 -10 -111h-24l-32 81q-34 76 -38 80q-38 5 -83 5h-102v-280z" />
<glyph unicode="&#x119;" horiz-adv-x="500" d="M383 -182q-41 -59 -107 -59q-42 0 -69.5 23.5t-27.5 62.5q0 81 137 149q-19 -4 -46 -4q-104 0 -166.5 67.5t-62.5 180.5q0 119 67 194.5t167 75.5q83 0 136.5 -52t53.5 -140q0 -35 -1 -49l-13 -13h-279q11 -180 152 -180q72 0 126 41l14 -12q-14 -26 -34 -48t-63.5 -60 t-64.5 -65.5t-21 -56.5q0 -48 56 -48q17 0 42 5zM269 465q-46 0 -72 -50t-26 -126l167 7q1 11 1 38q0 131 -70 131z" />
<glyph unicode="&#x11a;" horiz-adv-x="603" d="M367 778l-9 -7h-72q-73 82 -119 146l15 11q63 -37 145 -76q96 52 147 76l13 -14q-81 -82 -120 -136zM254 363l197 8l-3 -58l-194 8v-276h112q45 0 83 5q4 5 11 20t15.5 34.5t11.5 25.5l32 81h24q10 -47 10 -111q0 -54 -8 -100h-497l-2 23l41 14q22 8 30 18t8 29v542 q0 8 -10 11l-69 28l2 23h487q8 -46 8 -100q0 -61 -10 -111h-24l-32 81q-34 76 -38 80q-38 5 -83 5h-102v-280z" />
<glyph unicode="&#x11b;" horiz-adv-x="500" d="M311 582l-9 -7h-74q-58 83 -108 174l15 10q61 -49 134 -98q92 69 138 98l13 -13q-68 -94 -109 -164zM464 103q-60 -113 -194 -113q-104 0 -166.5 67.5t-62.5 180.5q0 119 67 194.5t167 75.5q83 0 136.5 -52t53.5 -140q0 -35 -1 -49l-13 -13h-279q11 -180 152 -180 q72 0 126 41zM269 465q-46 0 -72 -50t-26 -126l167 7q1 11 1 38q0 131 -70 131z" />
<glyph unicode="&#x11c;" horiz-adv-x="721" d="M569 782l-16 -10q-85 47 -145 75q-84 -47 -146 -75l-14 13q83 87 120 137l9 6h73q59 -64 119 -146zM405 -10q-158 0 -257 91.5t-99 256.5t105.5 262.5t262.5 97.5q110 0 191 -31q7 -28 7 -74q0 -63 -12 -120l-24 -2q-8 16 -39 83.5t-44 85.5q-28 8 -72 8q-100 0 -171 -85 t-71 -222q0 -138 68.5 -219.5t171.5 -81.5q39 0 75 10v217l-79 30l2 23h264l2 -23l-41 -14q-15 -6 -20.5 -16t-5.5 -31v-215q-99 -31 -214 -31z" />
<glyph unicode="&#x11d;" horiz-adv-x="512" d="M404 584l-15 -10q-78 61 -135 98q-74 -57 -137 -98l-13 13q75 106 109 164l9 7h74q61 -89 108 -174zM49 318q0 81 59 135.5t149 54.5q69 0 117 -34q20 35 47 56.5t50 21.5q32 0 32 -43q0 -26 -5 -39q-3 -14 -23 -14q-5 0 -33 -1t-43 -2q45 -47 45 -120q0 -82 -56 -134.5 t-145 -52.5q-27 0 -46 4q-11 -17 -11 -36q0 -20 12.5 -28.5t42.5 -10.5l92 -7q78 -6 121 -42t43 -98q0 -81 -74 -133.5t-193 -52.5q-90 0 -147 32t-57 84q0 34 28 59.5t69 34.5l9 -9q-9 -15 -9 -30q2 -59 45 -93.5t110 -34.5q60 0 96.5 26t36.5 67q0 65 -90 76l-113 13 q-109 13 -109 91q0 64 64 101q-52 19 -83 61t-31 98zM318 324q0 144 -69 144q-74 0 -74 -138q0 -144 73 -144q70 0 70 138z" />
<glyph unicode="&#x11e;" horiz-adv-x="721" d="M521 918l5 2l17 -4q-10 -63 -47.5 -99t-93.5 -36q-54 0 -88.5 36.5t-40.5 99.5l21 4q9 -28 39 -44t75 -16q41 0 71.5 15.5t41.5 41.5zM405 -10q-158 0 -257 91.5t-99 256.5t105.5 262.5t262.5 97.5q110 0 191 -31q7 -28 7 -74q0 -63 -12 -120l-24 -2q-8 16 -39 83.5 t-44 85.5q-28 8 -72 8q-100 0 -171 -85t-71 -222q0 -138 68.5 -219.5t171.5 -81.5q39 0 75 10v217l-79 30l2 23h264l2 -23l-41 -14q-15 -6 -20.5 -16t-5.5 -31v-215q-99 -31 -214 -31z" />
<glyph unicode="&#x11f;" horiz-adv-x="512" d="M370 744l5 2l17 -4q-7 -70 -45.5 -112t-95.5 -42q-56 0 -92 42t-40 113l20 3q9 -35 40.5 -55.5t77.5 -20.5q41 0 71.5 20t41.5 54zM49 318q0 81 59 135.5t149 54.5q69 0 117 -34q20 35 47 56.5t50 21.5q32 0 32 -43q0 -26 -5 -39q-3 -14 -23 -14q-5 0 -33 -1t-43 -2 q45 -47 45 -120q0 -82 -56 -134.5t-145 -52.5q-27 0 -46 4q-11 -17 -11 -36q0 -20 12.5 -28.5t42.5 -10.5l92 -7q78 -6 121 -42t43 -98q0 -81 -74 -133.5t-193 -52.5q-90 0 -147 32t-57 84q0 34 28 59.5t69 34.5l9 -9q-9 -15 -9 -30q2 -59 45 -93.5t110 -34.5q60 0 96.5 26 t36.5 67q0 65 -90 76l-113 13q-109 13 -109 91q0 64 64 101q-52 19 -83 61t-31 98zM318 324q0 144 -69 144q-74 0 -74 -138q0 -144 73 -144q70 0 70 138z" />
<glyph unicode="&#x120;" horiz-adv-x="721" d="M487 856q0 -34 -23.5 -57t-60.5 -23q-32 0 -52.5 19t-20.5 46q0 32 26 55.5t62 23.5q30 0 49.5 -18t19.5 -46zM405 -10q-158 0 -257 91.5t-99 256.5t105.5 262.5t262.5 97.5q110 0 191 -31q7 -28 7 -74q0 -63 -12 -120l-24 -2q-8 16 -39 83.5t-44 85.5q-28 8 -72 8 q-100 0 -171 -85t-71 -222q0 -138 68.5 -219.5t171.5 -81.5q39 0 75 10v217l-79 30l2 23h264l2 -23l-41 -14q-15 -6 -20.5 -16t-5.5 -31v-215q-99 -31 -214 -31z" />
<glyph unicode="&#x121;" horiz-adv-x="512" d="M328 673q0 -36 -22.5 -60t-57.5 -24q-30 0 -49 19.5t-19 49.5q0 33 24.5 57.5t58.5 24.5q28 0 46.5 -18.5t18.5 -48.5zM49 318q0 81 59 135.5t149 54.5q69 0 117 -34q20 35 47 56.5t50 21.5q32 0 32 -43q0 -26 -5 -39q-3 -14 -23 -14q-5 0 -33 -1t-43 -2q45 -47 45 -120 q0 -82 -56 -134.5t-145 -52.5q-27 0 -46 4q-11 -17 -11 -36q0 -20 12.5 -28.5t42.5 -10.5l92 -7q78 -6 121 -42t43 -98q0 -81 -74 -133.5t-193 -52.5q-90 0 -147 32t-57 84q0 34 28 59.5t69 34.5l9 -9q-9 -15 -9 -30q2 -59 45 -93.5t110 -34.5q60 0 96.5 26t36.5 67 q0 65 -90 76l-113 13q-109 13 -109 91q0 64 64 101q-52 19 -83 61t-31 98zM318 324q0 144 -69 144q-74 0 -74 -138q0 -144 73 -144q70 0 70 138z" />
<glyph unicode="&#x122;" horiz-adv-x="721" d="M405 -10q-158 0 -257 91.5t-99 256.5t105.5 262.5t262.5 97.5q110 0 191 -31q7 -28 7 -74q0 -63 -12 -120l-24 -2q-8 16 -39 83.5t-44 85.5q-28 8 -72 8q-100 0 -171 -85t-71 -222q0 -138 68.5 -219.5t171.5 -81.5q39 0 75 10v217l-79 30l2 23h264l2 -23l-41 -14 q-15 -6 -20.5 -16t-5.5 -31v-215q-99 -31 -214 -31zM465 -162q0 -53 -35.5 -105.5t-80.5 -75.5l-11 10q30 44 43 110q-23 5 -37.5 21.5t-14.5 39.5q0 31 19.5 51.5t48.5 20.5q32 0 50 -19t18 -53z" />
<glyph unicode="&#x123;" horiz-adv-x="512" d="M185 662q0 52 36 105t80 76l12 -11q-32 -45 -43 -109q23 -5 37.5 -21.5t14.5 -39.5q0 -31 -20 -52t-49 -21q-31 0 -49.5 19.5t-18.5 53.5zM49 318q0 81 59 135.5t149 54.5q69 0 117 -34q20 35 47 56.5t50 21.5q32 0 32 -43q0 -26 -5 -39q-3 -14 -23 -14q-5 0 -33 -1 t-43 -2q45 -47 45 -120q0 -82 -56 -134.5t-145 -52.5q-27 0 -46 4q-11 -17 -11 -36q0 -20 12.5 -28.5t42.5 -10.5l92 -7q78 -6 121 -42t43 -98q0 -81 -74 -133.5t-193 -52.5q-90 0 -147 32t-57 84q0 34 28 59.5t69 34.5l9 -9q-9 -15 -9 -30q2 -59 45 -93.5t110 -34.5 q60 0 96.5 26t36.5 67q0 65 -90 76l-113 13q-109 13 -109 91q0 64 64 101q-52 19 -83 61t-31 98zM318 324q0 144 -69 144q-74 0 -74 -138q0 -144 73 -144q70 0 70 138z" />
<glyph unicode="&#x124;" horiz-adv-x="798" d="M559 782l-15 -10q-85 47 -145 75q-96 -52 -146 -75l-14 13q83 87 120 137l9 6h72q67 -74 119 -146zM254 53l79 -30l-2 -23h-283l-2 23l41 14q22 8 30 18t8 29v551l-79 30l2 23h283l2 -23l-41 -14q-21 -9 -29.5 -18.5t-8.5 -28.5v-232h290v263l-79 30l2 23h282l2 -23 l-41 -14q-21 -9 -29 -18.5t-8 -28.5v-551l78 -30l-2 -23h-282l-2 23l41 14q21 9 29.5 18.5t8.5 28.5v240h-290v-271z" />
<glyph unicode="&#x125;" horiz-adv-x="615" d="M4 795l-13 13q83 87 120 137l9 6h72q67 -74 119 -146l-15 -10q-97 53 -145 75q-91 -50 -147 -75zM218 47l69 -29l-2 -18h-259l-2 18l37 15q18 8 25 18.5t7 30.5v594l-64 23l-2 14q80 36 183 45l8 -9v-307q78 66 163 66q68 0 104 -39t36 -112v-310l69 -29l-2 -18h-259 l-2 18l38 15q18 8 24.5 18.5t6.5 30.5v261q0 91 -78 91q-48 0 -100 -34v-353z" />
<glyph unicode="&#x126;" horiz-adv-x="798" d="M254 53l79 -30l-2 -23h-283l-2 23l41 14q22 8 30 18t8 29v404h-72v42h72v105l-79 30l2 23h283l2 -23l-41 -14q-21 -9 -29.5 -18.5t-8.5 -28.5v-74h290v105l-79 30l2 23h282l2 -23l-41 -14q-21 -9 -29 -18.5t-8 -28.5v-74h71v-42h-71v-435l78 -30l-2 -23h-282l-2 23l41 14 q21 9 29.5 18.5t8.5 28.5v240h-290v-271zM254 372h290v116h-290v-116z" />
<glyph unicode="&#x127;" horiz-adv-x="615" d="M218 47l69 -29l-2 -18h-259l-2 18l37 15q18 8 25 18.5t7 30.5v482h-94v42h94v70l-64 23l-2 14q80 36 183 45l8 -9v-143h177v-42h-177v-122q78 66 163 66q68 0 104 -39t36 -112v-310l69 -29l-2 -18h-259l-2 18l38 15q18 8 24.5 18.5t6.5 30.5v261q0 91 -78 91 q-48 0 -100 -34v-353z" />
<glyph unicode="&#x128;" horiz-adv-x="380" d="M16 771l-17 6q-2 12 -2 19q4 55 28 89t68 34q40 0 124.5 -29.5t97.5 -32.5q1 2 12.5 16.5t22 29.5t14.5 21l18 -6q0 -3 0.5 -11t0.5 -13q-4 -53 -27.5 -85.5t-67.5 -32.5q-40 0 -126.5 30t-95.5 32q-4 -3 -24 -30t-26 -37zM254 53l79 -30l-2 -23h-283l-2 23l41 14 q22 8 30 18t8 29v551l-79 30l2 23h283l2 -23l-41 -14q-21 -9 -29.5 -18.5t-8.5 -28.5v-551z" />
<glyph unicode="&#x129;" horiz-adv-x="320" d="M85 656q-16 -12 -49 -45l-17 5q-1 4 -1 13q2 45 25 73.5t66 28.5q21 0 68 -21l47 -22q1 1 12 11t21.5 20.5l14.5 14.5l17 -6q2 -12 2 -19q-3 -42 -26 -69t-65 -27q-16 0 -37.5 8t-45 20t-32.5 15zM226 47l69 -29l-2 -18h-259l-2 18l37 15q18 8 25 18.5t7 30.5v344l-64 23 l-2 14q80 36 183 45l8 -9v-452z" />
<glyph unicode="&#x12a;" horiz-adv-x="380" d="M34 816v67h313v-67h-313zM254 53l79 -30l-2 -23h-283l-2 23l41 14q22 8 30 18t8 29v551l-79 30l2 23h283l2 -23l-41 -14q-21 -9 -29.5 -18.5t-8.5 -28.5v-551z" />
<glyph unicode="&#x12b;" horiz-adv-x="320" d="M38 623v63h232v-63h-232zM226 47l69 -29l-2 -18h-259l-2 18l37 15q18 8 25 18.5t7 30.5v344l-64 23l-2 14q80 36 183 45l8 -9v-452z" />
<glyph unicode="&#x12c;" horiz-adv-x="380" d="M304 918l4 2l17 -4q-10 -64 -47.5 -99.5t-93.5 -35.5q-54 0 -88.5 36.5t-39.5 99.5l20 4q9 -28 39.5 -44t74.5 -16q42 0 72.5 15.5t41.5 41.5zM254 53l79 -30l-2 -23h-283l-2 23l41 14q22 8 30 18t8 29v551l-79 30l2 23h283l2 -23l-41 -14q-21 -9 -29.5 -18.5t-8.5 -28.5 v-551z" />
<glyph unicode="&#x12d;" horiz-adv-x="320" d="M276 734q-7 -70 -41 -110t-87 -40q-50 0 -80.5 41t-34.5 111l20 4q7 -33 34 -52.5t67 -19.5q39 0 66 18.5t35 50.5l4 2zM226 47l69 -29l-2 -18h-259l-2 18l37 15q18 8 25 18.5t7 30.5v344l-64 23l-2 14q80 36 183 45l8 -9v-452z" />
<glyph unicode="&#x12e;" horiz-adv-x="380" d="M254 53l79 -30l-2 -23q-55 -23 -85.5 -57t-30.5 -69q0 -23 13.5 -36t38.5 -13q17 0 47 5l4 -12q-38 -59 -110 -59q-43 0 -68.5 24.5t-25.5 65.5q0 101 160 151h-226l-2 23l41 14q22 8 30 18t8 29v551l-79 30l2 23h283l2 -23l-41 -14q-21 -9 -29.5 -18.5t-8.5 -28.5v-551z " />
<glyph unicode="&#x12f;" horiz-adv-x="320" d="M229 673q0 -36 -22.5 -60t-57.5 -24q-30 0 -49.5 20t-19.5 49q0 33 25 57.5t59 24.5q28 0 46.5 -18.5t18.5 -48.5zM226 47l69 -29l-2 -18q-55 -23 -85.5 -57t-30.5 -69q0 -23 13.5 -36t38.5 -13q17 0 47 5l4 -12q-38 -59 -110 -59q-42 0 -68 24.5t-26 65.5q0 101 160 151 h-202l-2 18l37 15q18 8 25 18.5t7 30.5v344l-64 23l-2 14q80 36 183 45l8 -9v-452z" />
<glyph unicode="&#x130;" horiz-adv-x="380" d="M275 856q0 -34 -23.5 -57t-60.5 -23q-31 0 -51.5 19t-20.5 46q0 32 25.5 55.5t61.5 23.5q30 0 49.5 -18t19.5 -46zM254 53l79 -30l-2 -23h-283l-2 23l41 14q22 8 30 18t8 29v551l-79 30l2 23h283l2 -23l-41 -14q-21 -9 -29.5 -18.5t-8.5 -28.5v-551z" />
<glyph unicode="&#x131;" horiz-adv-x="320" d="M226 47l69 -29l-2 -18h-259l-2 18l37 15q18 8 25 18.5t7 30.5v344l-64 23l-2 14q80 36 183 45l8 -9v-452z" />
<glyph unicode="&#x132;" horiz-adv-x="711" d="M254 53l79 -30l-2 -23h-283l-2 23l41 14q22 8 30 18t8 29v551l-79 30l2 23h283l2 -23l-41 -14q-21 -9 -29.5 -18.5t-8.5 -28.5v-551zM473 635l-79 30l2 23h283l2 -23l-41 -14q-22 -8 -30 -18t-8 -29v-526q0 -92 -55.5 -156t-136.5 -92l-16 19q40 54 59.5 115t19.5 150 v521z" />
<glyph unicode="&#x133;" horiz-adv-x="600" d="M229 673q0 -36 -22.5 -60t-57.5 -24q-30 0 -49.5 20t-19.5 49q0 33 25 57.5t59 24.5q28 0 46.5 -18.5t18.5 -48.5zM518 670q0 -36 -22.5 -60t-57.5 -24q-30 0 -49.5 20t-19.5 49q0 33 25 57.5t59 24.5q28 0 46.5 -18.5t18.5 -48.5zM226 47l69 -29l-2 -18h-259l-2 18 l37 15q18 8 25 18.5t7 30.5v344l-64 23l-2 14q80 36 183 45l8 -9v-452zM312 -240q40 54 59.5 115t19.5 151v400l-63 23l-2 14q78 36 182 45l8 -9v-509q0 -92 -54.5 -156t-134.5 -92z" />
<glyph unicode="&#x134;" horiz-adv-x="364" d="M349 779l-16 -10q-85 47 -145 75q-96 -52 -146 -75l-14 13q83 87 120 137l9 6h73q66 -74 119 -146zM126 635l-79 30l2 23h283l2 -23l-41 -14q-22 -8 -30 -18t-8 -29v-526q0 -92 -55.5 -156t-137.5 -92l-16 19q41 54 60.5 115t19.5 150v521z" />
<glyph unicode="&#x135;" horiz-adv-x="302" d="M260 572l-15 -10q-51 51 -99 92q-68 -66 -101 -92l-13 13q46 97 73 168l9 6h74q36 -79 72 -177zM14 -240q41 54 60.5 115.5t19.5 150.5v400l-64 23l-2 14q78 36 182 45l9 -9v-509q0 -92 -54.5 -156t-135.5 -92z" />
<glyph unicode="&#x136;" horiz-adv-x="724" d="M254 53l79 -30l-2 -23h-283l-2 23l41 14q22 8 30 18t8 29v551l-79 30l2 23h283l2 -23l-41 -14q-21 -9 -29.5 -18.5t-8.5 -28.5v-249l85 1l195 283l-85 26l2 23h233l2 -23q-53 -16 -63 -23q-23 -11 -51 -45l-153 -193l7 4l127 -217q6 -10 20 -34.5t19.5 -33.5t17 -26 t19.5 -25.5t20 -19t25 -17.5l29 -15l-2 -20l-129 -3q-37 -1 -57.5 14.5t-40.5 50.5l-136 247h-84v-256zM453 -162q0 -52 -35.5 -105t-80.5 -76l-12 10q32 48 43 110q-23 4 -37 21t-14 40q0 31 19.5 51.5t48.5 20.5q31 0 49.5 -19.5t18.5 -52.5z" />
<glyph unicode="&#x137;" horiz-adv-x="593" d="M218 47l69 -29l-2 -18h-259l-2 18l37 15q18 8 25 18.5t7 30.5v594l-64 23l-2 14q80 36 183 45l8 -8v-470h70l124 171l-81 29l2 18h222l2 -18q-48 -19 -59 -26q-24 -12 -54 -45l-75 -83l3 3l128 -235q26 -47 53 -59l31 -15l-2 -20h-112q-35 0 -54 14t-36 48l-92 176h-70 v-191zM394 -162q0 -52 -36 -105t-81 -76l-11 10q30 44 43 110q-23 5 -37.5 21.5t-14.5 39.5q0 31 19.5 51.5t48.5 20.5q32 0 50.5 -19t18.5 -53z" />
<glyph unicode="&#x138;" horiz-adv-x="594" d="M226 47l69 -29l-2 -18h-259l-2 18l37 15q18 8 25 18.5t7 30.5v344l-64 23l-2 14q80 36 183 45l8 -9v-238h60l151 195l-72 22l2 20h200l2 -20q-28 -7 -57 -24q-13 -8 -43 -38l-97 -108l101 -155q50 -78 71 -98q14 -14 30 -22l25 -13l-2 -20l-124 -4q-29 -1 -44.5 10 t-33.5 38l-109 174h-60v-171z" />
<glyph unicode="&#x139;" horiz-adv-x="591" d="M282 923l10 1q23 -8 39.5 -23.5t16.5 -32.5q0 -45 -84 -68.5t-191 -26.5l-6 18q115 50 215 132zM125 635l-79 30l2 23h283l2 -23l-41 -14q-21 -9 -29.5 -18.5t-8.5 -28.5v-559h109q53 0 85 7q23 37 40 86l27 69h24q11 -52 11 -111q0 -40 -8 -96h-494l-2 23l41 14 q22 8 30 18t8 29v551z" />
<glyph unicode="&#x13a;" horiz-adv-x="312" d="M228 978l11 2q23 -8 39.5 -24t16.5 -33q0 -45 -84 -68.5t-191 -26.5l-6 18q118 51 214 132zM218 47l69 -29l-2 -18h-259l-2 18l37 15q18 8 25 18.5t7 30.5v594l-64 23l-2 14q80 36 183 45l8 -8v-703z" />
<glyph unicode="&#x13b;" horiz-adv-x="591" d="M125 635l-79 30l2 23h283l2 -23l-41 -14q-21 -9 -29.5 -18.5t-8.5 -28.5v-559h109q53 0 85 7q23 37 40 86l27 69h24q11 -52 11 -111q0 -40 -8 -96h-494l-2 23l41 14q22 8 30 18t8 29v551zM386 -162q0 -52 -35.5 -105t-80.5 -76l-12 10q32 48 43 110q-23 5 -37.5 21.5 t-14.5 39.5q0 31 20 51.5t49 20.5q31 0 49.5 -19.5t18.5 -52.5z" />
<glyph unicode="&#x13c;" horiz-adv-x="312" d="M218 47l69 -29l-2 -18h-259l-2 18l37 15q18 8 25 18.5t7 30.5v594l-64 23l-2 14q80 36 183 45l8 -8v-703zM221 -162q0 -53 -35.5 -105.5t-80.5 -75.5l-11 10q30 44 43 110q-23 5 -37.5 21.5t-14.5 39.5q0 31 19.5 51.5t48.5 20.5q32 0 50 -19t18 -53z" />
<glyph unicode="&#x13d;" horiz-adv-x="593" d="M551 676q0 -44 -31 -90t-69 -67l-11 9q27 40 38 96q-20 4 -32.5 18t-12.5 33q0 27 17 44t42 17q28 0 43.5 -16t15.5 -44zM125 635l-79 30l2 23h283l2 -23l-41 -14q-21 -9 -29.5 -18.5t-8.5 -28.5v-559h109q53 0 85 7q23 37 40 86l27 69h24q11 -52 11 -111q0 -40 -8 -96 h-494l-2 23l41 14q22 8 30 18t8 29v551z" />
<glyph unicode="&#x13e;" horiz-adv-x="467" d="M218 47l69 -29l-2 -18h-259l-2 18l37 15q18 8 25 18.5t7 30.5v594l-64 23l-2 14q80 36 183 45l8 -8v-703zM425 697q0 -44 -31 -89.5t-70 -66.5l-10 9q27 38 38 95q-20 4 -32.5 18t-12.5 34q0 26 17 43.5t42 17.5q27 0 43 -16.5t16 -44.5z" />
<glyph unicode="&#x13f;" horiz-adv-x="591" d="M125 635l-79 30l2 23h283l2 -23l-41 -14q-21 -9 -29.5 -18.5t-8.5 -28.5v-559h109q53 0 85 7q23 37 40 86l27 69h24q11 -52 11 -111q0 -40 -8 -96h-494l-2 23l41 14q22 8 30 18t8 29v551zM553 407q0 -35 -23 -59.5t-58 -24.5q-30 0 -49 20t-19 50q0 33 25 57.5t59 24.5 q28 0 46.5 -19t18.5 -49z" />
<glyph unicode="&#x140;" horiz-adv-x="421" d="M218 47l69 -29l-2 -18h-259l-2 18l37 15q18 8 25 18.5t7 30.5v594l-64 23l-2 14q80 36 183 45l8 -8v-703zM436 403q0 -35 -22.5 -59.5t-57.5 -24.5q-30 0 -49.5 20t-19.5 50q0 33 25 57.5t59 24.5q28 0 46.5 -19t18.5 -49z" />
<glyph unicode="&#x141;" horiz-adv-x="591" d="M380 422l-126 -69v-308h109q53 0 85 7q23 37 40 86l27 69h24q11 -52 11 -111q0 -40 -8 -96h-494l-2 23l41 14q22 8 30 18t8 29v198l-100 -56l-22 42l122 68v299l-79 30l2 23h283l2 -23l-41 -14q-21 -9 -29.5 -18.5t-8.5 -28.5v-197l103 57z" />
<glyph unicode="&#x142;" horiz-adv-x="312" d="M218 47l69 -29l-2 -18h-259l-2 18l37 15q18 8 25 18.5t7 30.5v242l-105 -58l-22 41l127 70v299l-64 23l-2 14q80 36 183 45l8 -8v-303l102 56l23 -41l-125 -69v-346z" />
<glyph unicode="&#x143;" horiz-adv-x="743" d="M475 920l10 1q23 -8 39.5 -23.5t16.5 -32.5q0 -45 -84 -68.5t-191 -26.5l-6 18q120 52 215 132zM176 53l98 -30l-2 -23h-224l-2 23l41 14q22 8 30 18t8 29v542q0 5 -12.5 13t-20.5 10l-46 16l2 23h188l348 -526v473l-79 30l2 23h204l2 -23l-41 -14q-22 -8 -30 -18t-8 -29 v-604h-87l-371 549v-496z" />
<glyph unicode="&#x144;" horiz-adv-x="623" d="M438 719q0 -33 -60 -75.5t-146 -74.5l-11 15q77 96 115 173l9 5q7 1 22 1q71 0 71 -44zM226 47l69 -29l-2 -18h-259l-2 18l37 15q18 8 25 18.5t7 30.5v344l-64 23l-2 14q80 36 183 45l8 -9v-57q78 66 163 66q68 0 104 -39t36 -112v-310l69 -29l-2 -18h-259l-2 18l38 15 q18 8 24.5 18.5t6.5 30.5v261q0 91 -78 91q-48 0 -100 -33v-354z" />
<glyph unicode="&#x145;" horiz-adv-x="743" d="M176 53l98 -30l-2 -23h-224l-2 23l41 14q22 8 30 18t8 29v542q0 5 -12.5 13t-20.5 10l-46 16l2 23h188l348 -526v473l-79 30l2 23h204l2 -23l-41 -14q-22 -8 -30 -18t-8 -29v-604h-87l-371 549v-496zM445 -162q0 -52 -35.5 -105t-80.5 -76l-12 10q32 48 43 110 q-23 5 -37.5 21.5t-14.5 39.5q0 31 20 51.5t49 20.5q31 0 49.5 -19.5t18.5 -52.5z" />
<glyph unicode="&#x146;" horiz-adv-x="623" d="M226 47l69 -29l-2 -18h-259l-2 18l37 15q18 8 25 18.5t7 30.5v344l-64 23l-2 14q80 36 183 45l8 -9v-57q78 66 163 66q68 0 104 -39t36 -112v-310l69 -29l-2 -18h-259l-2 18l38 15q18 8 24.5 18.5t6.5 30.5v261q0 91 -78 91q-48 0 -100 -33v-354zM379 -162 q0 -52 -35.5 -105t-80.5 -76l-12 10q32 46 44 110q-24 4 -38 21t-14 40q0 31 19.5 51.5t48.5 20.5q32 0 50 -19t18 -53z" />
<glyph unicode="&#x147;" horiz-adv-x="743" d="M433 775l-9 -6h-73q-70 79 -119 145l16 11q85 -47 145 -75q96 52 146 75l14 -13q-83 -87 -120 -137zM176 53l98 -30l-2 -23h-224l-2 23l41 14q22 8 30 18t8 29v542q0 5 -12.5 13t-20.5 10l-46 16l2 23h188l348 -526v473l-79 30l2 23h204l2 -23l-41 -14q-22 -8 -30 -18 t-8 -29v-604h-87l-371 549v-496z" />
<glyph unicode="&#x148;" horiz-adv-x="623" d="M353 582l-9 -7h-74q-64 94 -108 174l15 10q61 -49 134 -98q92 69 138 98l13 -13q-68 -94 -109 -164zM226 47l69 -29l-2 -18h-259l-2 18l37 15q18 8 25 18.5t7 30.5v344l-64 23l-2 14q80 36 183 45l8 -9v-57q78 66 163 66q68 0 104 -39t36 -112v-310l69 -29l-2 -18h-259 l-2 18l38 15q18 8 24.5 18.5t6.5 30.5v261q0 91 -78 91q-48 0 -100 -33v-354z" />
<glyph unicode="&#x14a;" horiz-adv-x="743" d="M176 53l98 -30l-2 -23h-224l-2 23l41 14q22 8 30 18t8 29v542q0 5 -12.5 13t-20.5 10l-46 16l2 23h188l348 -526v473l-79 30l2 23h204l2 -23l-41 -14q-22 -8 -30 -18t-8 -29v-529q0 -62 -16 -105t-41.5 -71.5t-77.5 -68.5l-17 16q30 37 41.5 51.5t27 43t22.5 59.5h-26 l-371 549v-496z" />
<glyph unicode="&#x14b;" horiz-adv-x="613" d="M226 47l69 -29l-2 -18h-259l-2 18l37 15q18 8 25 18.5t7 30.5v344l-64 23l-2 14q80 36 183 45l8 -9v-57q78 66 163 66q68 0 104 -39t36 -112v-367q0 -92 -54.5 -156t-134.5 -92l-15 18q40 54 59.5 115t19.5 151v317q0 91 -78 91q-48 0 -100 -33v-354z" />
<glyph unicode="&#x14c;" horiz-adv-x="716" d="M204 816v67h313v-67h-313zM49 344q0 163 89.5 258.5t223.5 95.5q135 0 220 -93t85 -256q0 -165 -86.5 -262t-223.5 -97q-139 0 -223.5 95t-84.5 259zM182 344q0 -142 47.5 -224.5t130.5 -82.5q82 0 127.5 85t46.5 227q0 139 -45.5 220.5t-126.5 81.5q-82 0 -130.5 -83 t-49.5 -224z" />
<glyph unicode="&#x14d;" horiz-adv-x="538" d="M118 628v63h313v-63h-313zM497 250q0 -118 -64.5 -189t-167.5 -71q-100 0 -162 70.5t-62 189.5q0 117 66.5 187.5t167.5 70.5q99 0 160.5 -69.5t61.5 -188.5zM171 250q0 -217 96 -217q51 0 75.5 50.5t24.5 164.5q0 217 -94 217q-102 0 -102 -215z" />
<glyph unicode="&#x14e;" horiz-adv-x="716" d="M477 918l4 2l17 -4q-10 -64 -47.5 -99.5t-93.5 -35.5q-54 0 -88.5 36.5t-39.5 99.5l20 4q9 -28 39 -44t75 -16q42 0 72.5 15.5t41.5 41.5zM49 344q0 163 89.5 258.5t223.5 95.5q135 0 220 -93t85 -256q0 -165 -86.5 -262t-223.5 -97q-139 0 -223.5 95t-84.5 259zM182 344 q0 -142 47.5 -224.5t130.5 -82.5q82 0 127.5 85t46.5 227q0 139 -45.5 220.5t-126.5 81.5q-82 0 -130.5 -83t-49.5 -224z" />
<glyph unicode="&#x14f;" horiz-adv-x="538" d="M391 744l5 2l17 -4q-7 -70 -45.5 -112t-95.5 -42q-56 0 -92 42t-40 113l20 3q9 -35 40.5 -55.5t77.5 -20.5q41 0 71.5 20t41.5 54zM497 250q0 -118 -64.5 -189t-167.5 -71q-100 0 -162 70.5t-62 189.5q0 117 66.5 187.5t167.5 70.5q99 0 160.5 -69.5t61.5 -188.5z M171 250q0 -217 96 -217q51 0 75.5 50.5t24.5 164.5q0 217 -94 217q-102 0 -102 -215z" />
<glyph unicode="&#x150;" horiz-adv-x="716" d="M319 926l10 1q21 -8 35.5 -23.5t14.5 -32.5q0 -23 -20.5 -41.5t-53.5 -29.5t-70 -17t-75 -7l-6 18q91 51 165 132zM535 926l11 1q20 -8 34.5 -23.5t14.5 -32.5q0 -23 -20.5 -41.5t-53.5 -29.5t-70 -17t-75 -7l-6 18q95 54 165 132zM49 344q0 163 89.5 258.5t223.5 95.5 q135 0 220 -93t85 -256q0 -165 -86.5 -262t-223.5 -97q-139 0 -223.5 95t-84.5 259zM182 344q0 -142 47.5 -224.5t130.5 -82.5q82 0 127.5 85t46.5 227q0 139 -45.5 220.5t-126.5 81.5q-82 0 -130.5 -83t-49.5 -224z" />
<glyph unicode="&#x151;" horiz-adv-x="538" d="M305 719q0 -33 -53.5 -75.5t-130.5 -74.5l-11 15q78 101 113 173l9 5q7 1 22 1q51 0 51 -44zM471 719q0 -33 -53.5 -75.5t-129.5 -74.5l-12 15q81 104 114 173l8 5q7 1 22 1q51 0 51 -44zM497 250q0 -118 -64.5 -189t-167.5 -71q-100 0 -162 70.5t-62 189.5 q0 117 66.5 187.5t167.5 70.5q99 0 160.5 -69.5t61.5 -188.5zM171 250q0 -217 96 -217q51 0 75.5 50.5t24.5 164.5q0 217 -94 217q-102 0 -102 -215z" />
<glyph unicode="&#x152;" horiz-adv-x="938" d="M590 363l196 8l-2 -58l-194 8v-276h112q45 0 83 5q4 5 11 20t15.5 34.5t11.5 25.5l32 81h24q10 -47 10 -111q0 -54 -8 -100h-420v1q-36 -11 -73 -11q-150 0 -244.5 94.5t-94.5 257.5t99 259.5t245 96.5q33 0 68 -11v1h410q8 -46 8 -100q0 -61 -10 -111h-24l-32 81 q-34 74 -38 80q-38 5 -83 5h-102v-280zM182 342q-1 -140 58.5 -223t158.5 -83q33 0 62 16v585q-28 15 -59 15q-100 0 -159.5 -84t-60.5 -226z" />
<glyph unicode="&#x153;" horiz-adv-x="831" d="M789 103q-58 -113 -188 -113q-118 0 -180 87q-59 -87 -171 -87q-94 0 -152 70.5t-58 189.5q0 117 62.5 187.5t157.5 70.5q110 0 168 -92q65 92 178 92q81 0 132.5 -52t51.5 -140q0 -35 -1 -49l-13 -13h-279q11 -180 152 -180q72 0 126 41zM170 250q0 -217 96 -217 q51 0 75.5 50.5t24.5 164.5q0 217 -94 217q-102 0 -102 -215zM594 465q-46 0 -72 -50t-26 -126l167 7q1 11 1 38q0 131 -70 131z" />
<glyph unicode="&#x154;" horiz-adv-x="708" d="M420 923l11 1q23 -8 39 -23.5t16 -32.5q0 -45 -84 -68.5t-191 -26.5l-6 18q120 52 215 132zM254 53l79 -30l-2 -23h-283l-2 23l41 14q22 8 30 18t8 29v542q0 8 -10 11l-69 28l2 23h290q117 0 188 -52t71 -140q0 -64 -36.5 -110t-91.5 -69l70 -126q28 -50 41 -70.5 t35 -45.5t48 -40l27 -15l-2 -20l-127 -3q-37 -1 -58 14t-40 51l-118 227q-7 -1 -13 -1h-78v-235zM319 641h-65v-307h65q68 0 106 41t38 115q0 70 -38 110.5t-106 40.5z" />
<glyph unicode="&#x155;" horiz-adv-x="431" d="M368 719q0 -33 -59.5 -75.5t-145.5 -74.5l-12 15q79 99 116 173l9 5q7 1 22 1q70 0 70 -44zM226 47l89 -29l-2 -18h-279l-2 18l37 15q18 8 25 18.5t7 30.5v344l-64 23l-2 14q80 36 183 45l8 -9v-76q65 85 127 85q30 0 49 -17.5t19 -45.5q0 -41 -36 -77q-13 0 -14 -1 q-42 39 -93 45q-23 0 -52 -31v-334z" />
<glyph unicode="&#x156;" horiz-adv-x="708" d="M254 53l79 -30l-2 -23h-283l-2 23l41 14q22 8 30 18t8 29v542q0 8 -10 11l-69 28l2 23h290q117 0 188 -52t71 -140q0 -64 -36.5 -110t-91.5 -69l70 -126q28 -50 41 -70.5t35 -45.5t48 -40l27 -15l-2 -20l-127 -3q-37 -1 -58 14t-40 51l-118 227q-7 -1 -13 -1h-78v-235z M319 641h-65v-307h65q68 0 106 41t38 115q0 70 -38 110.5t-106 40.5zM448 -162q0 -52 -35.5 -105t-80.5 -76l-12 10q32 48 43 110q-23 5 -37.5 21.5t-14.5 39.5q0 31 20 51.5t49 20.5q31 0 49.5 -19.5t18.5 -52.5z" />
<glyph unicode="&#x157;" horiz-adv-x="431" d="M226 47l89 -29l-2 -18h-279l-2 18l37 15q18 8 25 18.5t7 30.5v344l-64 23l-2 14q80 36 183 45l8 -9v-76q65 85 127 85q30 0 49 -17.5t19 -45.5q0 -41 -36 -77q-13 0 -14 -1q-42 39 -93 45q-23 0 -52 -31v-334zM232 -162q0 -52 -35.5 -105t-80.5 -76l-11 10q30 44 43 110 q-23 5 -37.5 21.5t-14.5 39.5q0 31 19.5 51.5t48.5 20.5q32 0 50 -19t18 -53z" />
<glyph unicode="&#x158;" horiz-adv-x="708" d="M384 778l-9 -6h-72q-70 77 -119 145l15 11q97 -53 145 -75q96 53 147 75l13 -13q-83 -87 -120 -137zM254 53l79 -30l-2 -23h-283l-2 23l41 14q22 8 30 18t8 29v542q0 8 -10 11l-69 28l2 23h290q117 0 188 -52t71 -140q0 -64 -36.5 -110t-91.5 -69l70 -126 q28 -50 41 -70.5t35 -45.5t48 -40l27 -15l-2 -20l-127 -3q-37 -1 -58 14t-40 51l-118 227q-7 -1 -13 -1h-78v-235zM319 641h-65v-307h65q68 0 106 41t38 115q0 70 -38 110.5t-106 40.5z" />
<glyph unicode="&#x159;" horiz-adv-x="431" d="M283 582l-9 -7h-74q-56 82 -108 174l15 10q66 -51 135 -98q84 64 137 98l13 -13q-75 -106 -109 -164zM226 47l89 -29l-2 -18h-279l-2 18l37 15q18 8 25 18.5t7 30.5v344l-64 23l-2 14q80 36 183 45l8 -9v-76q65 85 127 85q30 0 49 -17.5t19 -45.5q0 -41 -36 -77 q-13 0 -14 -1q-42 39 -93 45q-23 0 -52 -31v-334z" />
<glyph unicode="&#x15a;" horiz-adv-x="531" d="M369 923l11 1q23 -8 39.5 -23.5t16.5 -32.5q0 -45 -84.5 -68.5t-191.5 -26.5l-5 18q118 51 214 132zM234 -10q-62 0 -113.5 10t-64.5 25q-15 18 -15 65q0 67 27 118l25 -2q18 -101 49 -135q33 -37 107 -37q53 0 83 29.5t30 74.5q0 39 -23 72.5t-57.5 55t-75 47.5 t-75 50.5t-57.5 63t-23 85.5q0 88 71 137t177 49q55 0 103.5 -11.5t62.5 -25.5q11 -10 11 -49q0 -76 -26 -131l-25 1q-14 90 -42 129q-29 43 -91 43q-51 0 -82.5 -30.5t-31.5 -78.5q0 -45 32 -81.5t77.5 -63.5t91.5 -56t78 -73.5t32 -102.5q0 -87 -67.5 -132.5t-187.5 -45.5 z" />
<glyph unicode="&#x15b;" horiz-adv-x="452" d="M360 719q0 -33 -59.5 -75.5t-145.5 -74.5l-11 15q77 96 115 173l9 5q7 1 22 1q70 0 70 -44zM198 -10q-47 0 -88.5 8t-53.5 20q-15 17 -15 58q0 52 27 92l15 -2q12 -68 43 -102q29 -31 80 -31q37 0 57.5 18t20.5 49t-24 56t-58.5 43.5t-69 38.5t-58.5 52t-24 74 q0 66 58.5 105t146.5 39q44 0 82.5 -8.5t48.5 -18.5q11 -9 11 -46q0 -59 -26 -99l-15 1q-13 71 -37 98q-30 30 -68 30q-34 0 -54.5 -18.5t-20.5 -50.5q0 -31 24 -56t59 -43t69.5 -38.5t58.5 -52.5t24 -74q0 -67 -58 -104.5t-155 -37.5z" />
<glyph unicode="&#x15c;" horiz-adv-x="531" d="M450 782l-15 -10q-91 50 -145 75q-91 -50 -147 -75l-13 13q90 96 120 137l9 6h72q67 -74 119 -146zM234 -10q-62 0 -113.5 10t-64.5 25q-15 18 -15 65q0 67 27 118l25 -2q18 -101 49 -135q33 -37 107 -37q53 0 83 29.5t30 74.5q0 39 -23 72.5t-57.5 55t-75 47.5t-75 50.5 t-57.5 63t-23 85.5q0 88 71 137t177 49q55 0 103.5 -11.5t62.5 -25.5q11 -10 11 -49q0 -76 -26 -131l-25 1q-14 90 -42 129q-29 43 -91 43q-51 0 -82.5 -30.5t-31.5 -78.5q0 -45 32 -81.5t77.5 -63.5t91.5 -56t78 -73.5t32 -102.5q0 -87 -67.5 -132.5t-187.5 -45.5z" />
<glyph unicode="&#x15d;" horiz-adv-x="452" d="M386 584l-15 -10q-78 61 -135 98q-74 -57 -137 -98l-13 13q68 94 109 164l9 7h74q68 -99 108 -174zM198 -10q-47 0 -88.5 8t-53.5 20q-15 17 -15 58q0 52 27 92l15 -2q12 -68 43 -102q29 -31 80 -31q37 0 57.5 18t20.5 49t-24 56t-58.5 43.5t-69 38.5t-58.5 52t-24 74 q0 66 58.5 105t146.5 39q44 0 82.5 -8.5t48.5 -18.5q11 -9 11 -46q0 -59 -26 -99l-15 1q-13 71 -37 98q-30 30 -68 30q-34 0 -54.5 -18.5t-20.5 -50.5q0 -31 24 -56t59 -43t69.5 -38.5t58.5 -52.5t24 -74q0 -67 -58 -104.5t-155 -37.5z" />
<glyph unicode="&#x15e;" horiz-adv-x="531" d="M234 -10q-62 0 -113.5 10t-64.5 25q-15 18 -15 65q0 67 27 118l25 -2q18 -101 49 -135q33 -37 107 -37q53 0 83 29.5t30 74.5q0 39 -23 72.5t-57.5 55t-75 47.5t-75 50.5t-57.5 63t-23 85.5q0 88 71 137t177 49q55 0 103.5 -11.5t62.5 -25.5q11 -10 11 -49 q0 -76 -26 -131l-25 1q-14 90 -42 129q-29 43 -91 43q-51 0 -82.5 -30.5t-31.5 -78.5q0 -45 32 -81.5t77.5 -63.5t91.5 -56t78 -73.5t32 -102.5q0 -77 -53 -121.5t-149 -54.5l-10 -53q52 -7 80.5 -28t28.5 -52q0 -46 -49.5 -72.5t-137.5 -28.5l-5 15q82 31 82 73 q0 32 -50 44l-5 8l16 92h-3z" />
<glyph unicode="&#x15f;" horiz-adv-x="452" d="M175 -110l-5 8l16 92q-106 4 -130 28q-15 17 -15 58q0 52 27 92l15 -2q12 -68 43 -102q29 -31 80 -31q37 0 57.5 18t20.5 49t-24 56t-58.5 43.5t-69 38.5t-58.5 52t-24 74q0 66 58.5 105t146.5 39q44 0 82.5 -8.5t48.5 -18.5q11 -9 11 -46q0 -59 -26 -99l-15 1 q-13 71 -37 98q-30 30 -68 30q-34 0 -54.5 -18.5t-20.5 -50.5q0 -31 24 -56t59 -43t69.5 -38.5t58.5 -52.5t24 -74q0 -60 -47 -96.5t-128 -43.5l-10 -53q52 -7 80.5 -28t28.5 -52q0 -46 -50 -72.5t-137 -28.5l-5 15q82 31 82 73q0 32 -50 44z" />
<glyph unicode="&#x160;" horiz-adv-x="531" d="M333 778l-9 -6h-72q-70 77 -119 145l15 11q97 -53 145 -75q91 50 147 75l13 -13q-90 -96 -120 -137zM234 -10q-62 0 -113.5 10t-64.5 25q-15 18 -15 65q0 67 27 118l25 -2q18 -101 49 -135q33 -37 107 -37q53 0 83 29.5t30 74.5q0 39 -23 72.5t-57.5 55t-75 47.5 t-75 50.5t-57.5 63t-23 85.5q0 88 71 137t177 49q55 0 103.5 -11.5t62.5 -25.5q11 -10 11 -49q0 -76 -26 -131l-25 1q-14 90 -42 129q-29 43 -91 43q-51 0 -82.5 -30.5t-31.5 -78.5q0 -45 32 -81.5t77.5 -63.5t91.5 -56t78 -73.5t32 -102.5q0 -87 -67.5 -132.5t-187.5 -45.5 z" />
<glyph unicode="&#x161;" horiz-adv-x="452" d="M286 582l-9 -7h-74q-58 83 -108 174l15 10q61 -49 134 -98q92 69 137 98l14 -13q-76 -103 -109 -164zM198 -10q-47 0 -88.5 8t-53.5 20q-15 17 -15 58q0 52 27 92l15 -2q12 -68 43 -102q29 -31 80 -31q37 0 57.5 18t20.5 49t-24 56t-58.5 43.5t-69 38.5t-58.5 52t-24 74 q0 66 58.5 105t146.5 39q44 0 82.5 -8.5t48.5 -18.5q11 -9 11 -46q0 -59 -26 -99l-15 1q-13 71 -37 98q-30 30 -68 30q-34 0 -54.5 -18.5t-20.5 -50.5q0 -31 24 -56t59 -43t69.5 -38.5t58.5 -52.5t24 -74q0 -67 -58 -104.5t-155 -37.5z" />
<glyph unicode="&#x162;" horiz-adv-x="635" d="M270 -110l-5 8l18 102h-107l-2 23l41 14q22 8 30 18t8 29v558h-39q-50 0 -85 -6q-23 -42 -39 -89l-28 -70h-25q-10 58 -10 111q0 54 8 100h565q8 -46 8 -100q0 -53 -10 -111h-25l-28 70q-16 47 -39 89q-34 6 -85 6h-39v-589l79 -30l-2 -23h-127l-11 -61q52 -7 80.5 -28 t28.5 -52q0 -46 -50 -72.5t-137 -28.5l-5 15q82 31 82 73q0 32 -50 44z" />
<glyph unicode="&#x163;" horiz-adv-x="411" d="M189 -110l-5 8l16 93q-109 16 -109 157v294h-73l-2 18l76 39l104 141l20 -2v-154h149v-42h-149v-273q0 -95 71 -95q49 0 93 41l14 -12q-52 -98 -144 -111l-10 -53q51 -7 79.5 -28t28.5 -52q0 -46 -49.5 -72.5t-137.5 -28.5l-4 15q82 31 82 73q0 32 -50 44z" />
<glyph unicode="&#x164;" horiz-adv-x="635" d="M360 778l-9 -6h-72q-67 74 -119 146l15 10q69 -39 145 -75q96 53 147 75l13 -13q-78 -79 -120 -137zM382 53l79 -30l-2 -23h-283l-2 23l41 14q22 8 30 18t8 29v558h-39q-50 0 -85 -6q-23 -42 -39 -89l-28 -70h-25q-10 58 -10 111q0 54 8 100h565q8 -46 8 -100 q0 -53 -10 -111h-25l-28 70q-16 47 -39 89q-34 6 -85 6h-39v-589z" />
<glyph unicode="&#x165;" horiz-adv-x="399" d="M424 693q0 -44 -31 -89.5t-70 -66.5l-10 9q26 37 38 95q-20 4 -32.5 18t-12.5 34q0 26 17 43.5t42 17.5q27 0 43 -16.5t16 -44.5zM394 103q-25 -49 -68 -81t-102 -32q-64 0 -98.5 40t-34.5 118v294h-73l-2 18l76 39l104 141l20 -2v-154h149v-42h-149v-273q0 -95 71 -95 q49 0 93 41z" />
<glyph unicode="&#x166;" horiz-adv-x="635" d="M382 53l79 -30l-2 -23h-283l-2 23l41 14q22 8 30 18t8 29v241h-155v43h155v274h-39q-50 0 -85 -6q-23 -42 -39 -89l-28 -70h-25q-10 58 -10 111q0 54 8 100h565q8 -46 8 -100q0 -53 -10 -111h-25l-28 70q-16 47 -39 89q-34 6 -85 6h-39v-274h140v-43h-140v-272z" />
<glyph unicode="&#x167;" horiz-adv-x="411" d="M364 310h-148v-141q0 -95 71 -95q49 0 93 41l14 -12q-25 -49 -68 -81t-102 -32q-64 0 -98.5 40t-34.5 118v162h-74v42h74v90h-73l-2 18l76 39l104 141l20 -2v-154h149v-42h-149v-90h148v-42z" />
<glyph unicode="&#x168;" horiz-adv-x="672" d="M199 771l-18 6q-1 6 -1 19q3 54 27 88.5t68 34.5q40 0 124.5 -29.5t98.5 -32.5q1 1 12 16.5t21.5 30t14.5 20.5l18 -6q1 -7 1 -24q-3 -52 -27 -85t-68 -33q-40 0 -126.5 30t-95.5 32q-4 -4 -24 -31t-25 -36zM88 235v400l-79 30l2 23h283l2 -23l-41 -14 q-21 -9 -29.5 -18.5t-8.5 -28.5v-372q0 -92 43 -142t114 -50q72 0 115 49t43 143v403l-79 30l2 23h204l2 -23l-79 -30v-400q0 -121 -62.5 -183t-178.5 -62t-184.5 63t-68.5 182z" />
<glyph unicode="&#x169;" horiz-adv-x="628" d="M156 602l-18 5q0 3 -0.5 8.5t-0.5 8.5q3 53 27 85.5t68 32.5q36 0 112.5 -27.5t83.5 -29.5q1 1 22 26.5t26 33.5l18 -6q0 -3 0.5 -10t0.5 -11q-4 -51 -27.5 -82t-67.5 -31q-27 0 -63.5 11t-77 26.5t-55.5 19.5l-12 -14q-12 -14 -22.5 -27.5t-13.5 -18.5zM95 151v275 l-64 23l-2 14q80 36 183 45l8 -9v-335q0 -103 88 -103q49 0 92 34v331l-64 23l-2 14q80 36 183 45l8 -9v-370q0 -71 46 -71q21 0 41 5l4 -12q-42 -61 -117 -61q-72 0 -93 66q-68 -66 -156 -66q-73 0 -114 42t-41 119z" />
<glyph unicode="&#x16a;" horiz-adv-x="672" d="M212 816v67h314v-67h-314zM88 235v400l-79 30l2 23h283l2 -23l-41 -14q-21 -9 -29.5 -18.5t-8.5 -28.5v-372q0 -92 43 -142t114 -50q72 0 115 49t43 143v403l-79 30l2 23h204l2 -23l-79 -30v-400q0 -121 -62.5 -183t-178.5 -62t-184.5 63t-68.5 182z" />
<glyph unicode="&#x16b;" horiz-adv-x="628" d="M158 628v63h313v-63h-313zM95 151v275l-64 23l-2 14q80 36 183 45l8 -9v-335q0 -103 88 -103q49 0 92 34v331l-64 23l-2 14q80 36 183 45l8 -9v-370q0 -71 46 -71q21 0 41 5l4 -12q-42 -61 -117 -61q-72 0 -93 66q-68 -66 -156 -66q-73 0 -114 42t-41 119z" />
<glyph unicode="&#x16c;" horiz-adv-x="672" d="M496 918l5 2l17 -4q-10 -63 -47.5 -99t-93.5 -36q-54 0 -89 36.5t-40 99.5l21 4q9 -28 39 -44t74 -16q42 0 72.5 15.5t41.5 41.5zM88 235v400l-79 30l2 23h283l2 -23l-41 -14q-21 -9 -29.5 -18.5t-8.5 -28.5v-372q0 -92 43 -142t114 -50q72 0 115 49t43 143v403l-79 30 l2 23h204l2 -23l-79 -30v-400q0 -121 -62.5 -183t-178.5 -62t-184.5 63t-68.5 182z" />
<glyph unicode="&#x16d;" horiz-adv-x="628" d="M438 744l4 2l17 -4q-7 -70 -45.5 -112t-95.5 -42q-56 0 -92 42t-40 113l21 3q9 -35 40 -55.5t77 -20.5q42 0 72.5 19.5t41.5 54.5zM95 151v275l-64 23l-2 14q80 36 183 45l8 -9v-335q0 -103 88 -103q49 0 92 34v331l-64 23l-2 14q80 36 183 45l8 -9v-370q0 -71 46 -71 q21 0 41 5l4 -12q-42 -61 -117 -61q-72 0 -93 66q-68 -66 -156 -66q-73 0 -114 42t-41 119z" />
<glyph unicode="&#x16e;" horiz-adv-x="672" d="M370 766q-44 0 -71 23t-27 61q0 40 29.5 65.5t75.5 25.5q43 0 71 -23.5t27 -59.5q-1 -40 -30.5 -66t-74.5 -26zM374 908q-22 0 -35.5 -16t-13.5 -41q0 -23 13 -37.5t35 -14.5q21 0 34.5 16.5t13.5 41.5q0 22 -13 36.5t-34 14.5zM88 235v400l-79 30l2 23h283l2 -23 l-41 -14q-21 -9 -29.5 -18.5t-8.5 -28.5v-372q0 -92 43 -142t114 -50q72 0 115 49t43 143v403l-79 30l2 23h204l2 -23l-79 -30v-400q0 -121 -62.5 -183t-178.5 -62t-184.5 63t-68.5 182z" />
<glyph unicode="&#x16f;" horiz-adv-x="628" d="M317 579q-44 0 -71 23t-27 61q0 40 29.5 65.5t75.5 25.5q43 0 71 -23.5t27 -59.5q-1 -40 -30.5 -66t-74.5 -26zM321 721q-21 0 -35 -16.5t-14 -40.5q0 -23 13.5 -37.5t34.5 -14.5q22 0 35.5 16.5t13.5 41.5q0 22 -13.5 36.5t-34.5 14.5zM95 151v275l-64 23l-2 14 q80 36 183 45l8 -9v-335q0 -103 88 -103q49 0 92 34v331l-64 23l-2 14q80 36 183 45l8 -9v-370q0 -71 46 -71q21 0 41 5l4 -12q-42 -61 -117 -61q-72 0 -93 66q-68 -66 -156 -66q-73 0 -114 42t-41 119z" />
<glyph unicode="&#x170;" horiz-adv-x="672" d="M323 926l11 1q20 -8 34.5 -23.5t14.5 -32.5q0 -23 -20.5 -41.5t-53.5 -29.5t-70 -17t-75 -7l-6 18q95 54 165 132zM539 926l11 1q21 -8 35.5 -23.5t14.5 -32.5q0 -44 -67.5 -68t-151.5 -27l-6 18q93 52 164 132zM88 235v400l-79 30l2 23h283l2 -23l-41 -14 q-21 -9 -29.5 -18.5t-8.5 -28.5v-372q0 -92 43 -142t114 -50q72 0 115 49t43 143v403l-79 30l2 23h204l2 -23l-79 -30v-400q0 -121 -62.5 -183t-178.5 -62t-184.5 63t-68.5 182z" />
<glyph unicode="&#x171;" horiz-adv-x="628" d="M344 719q0 -33 -53.5 -75.5t-130.5 -74.5l-11 15q78 101 113 173l9 5q7 1 22 1q51 0 51 -44zM511 719q0 -33 -54 -75.5t-130 -74.5l-12 15q78 98 114 173l8 5q8 1 23 1q51 0 51 -44zM95 151v275l-64 23l-2 14q80 36 183 45l8 -9v-335q0 -103 88 -103q49 0 92 34v331 l-64 23l-2 14q80 36 183 45l8 -9v-370q0 -71 46 -71q21 0 41 5l4 -12q-42 -61 -117 -61q-72 0 -93 66q-68 -66 -156 -66q-73 0 -114 42t-41 119z" />
<glyph unicode="&#x172;" horiz-adv-x="672" d="M88 235v400l-79 30l2 23h283l2 -23l-41 -14q-21 -9 -29.5 -18.5t-8.5 -28.5v-372q0 -92 43 -142t114 -50q72 0 115 49t43 143v403l-79 30l2 23h204l2 -23l-79 -30v-400q0 -167 -120 -222q-51 -45 -76 -76.5t-25 -62.5q0 -24 15.5 -36.5t41.5 -12.5q12 0 42 5l4 -12 q-38 -59 -111 -59q-40 0 -66.5 22.5t-26.5 62.5q0 82 130 149q-24 -3 -49 -3q-116 0 -184.5 63t-68.5 182z" />
<glyph unicode="&#x173;" horiz-adv-x="628" d="M95 151v275l-64 23l-2 14q80 36 183 45l8 -9v-335q0 -103 88 -103q49 0 92 34v331l-64 23l-2 14q80 36 183 45l8 -9v-370q0 -71 46 -71q21 0 41 5l4 -12q-10 -14 -16 -20q-11 -13 -48.5 -47t-54 -58.5t-16.5 -52.5q0 -48 56 -48q20 0 43 5l4 -12q-39 -59 -107 -59 q-43 0 -70 24t-27 64q0 44 34.5 78t98.5 66q-4 -1 -14 -1q-72 0 -93 66q-68 -66 -156 -66q-73 0 -114 42t-41 119z" />
<glyph unicode="&#x174;" horiz-adv-x="1063" d="M704 782l-15 -10q-97 53 -145 75q-91 -50 -147 -75l-13 13q83 87 120 137l9 6h72q67 -74 119 -146zM383 0h-80l-200 604q-6 20 -16 29.5t-29 16.5l-41 15l2 23h288l2 -23l-79 -24l157 -507l121 385l-28 85q-7 22 -14 30.5t-24 15.5l-42 15l2 23h283l2 -23l-80 -24 l157 -505l159 504l-80 25l2 23h198l2 -23q-6 -3 -26.5 -10t-24.5 -9q-25 -12 -34 -42l-200 -604h-81l-147 448z" />
<glyph unicode="&#x175;" horiz-adv-x="808" d="M587 585l-15 -11q-73 59 -135 98q-95 -70 -137 -98l-13 13q70 96 109 165l9 6h74q62 -89 108 -173zM477 498l124 -363l84 317l-72 28l2 18h182l2 -18q-39 -14 -47 -21q-26 -14 -34 -43l-120 -416h-79l-116 333l-119 -333h-80l-120 415q-8 30 -31 42q-9 9 -44 23l2 18h263 l2 -18l-68 -28l82 -317l127 363h60z" />
<glyph unicode="&#x176;" horiz-adv-x="689" d="M536 782l-15 -10q-97 53 -145 75q-96 -53 -147 -75l-13 13q83 87 120 137l9 6h72q67 -74 119 -146zM409 53l79 -30l-2 -23h-283l-2 23l41 14q22 8 30 18t8 29v203l-175 317q-12 22 -23 32t-30 18l-35 11l2 23h291l2 -23l-80 -25l157 -309l157 310l-78 24l2 23h200l2 -23 q-4 -2 -16.5 -6.5t-22 -8.5t-12.5 -7q-21 -9 -37 -39l-175 -318v-233z" />
<glyph unicode="&#x177;" horiz-adv-x="551" d="M443 584l-16 -10q-72 57 -134 98q-88 -66 -137 -98l-14 13q76 103 109 164l9 7h74q59 -84 109 -174zM15 498h263l2 -18l-68 -28l105 -332l111 332l-73 28l2 18h182l2 -18q-43 -18 -47 -22q-22 -12 -32 -42l-159 -446q-42 -120 -86.5 -174t-101.5 -54q-33 0 -54.5 21 t-21.5 54q0 27 14 49l7 3q34 -21 62 -21q46 0 89 42t65 108l-39 -5l-149 422q-10 29 -31 42q-5 6 -44 23z" />
<glyph unicode="&#x178;" horiz-adv-x="689" d="M562 857q0 -31 -21.5 -52.5t-54.5 -21.5q-28 0 -46 17t-18 42q0 30 23 51.5t55 21.5q27 0 44.5 -16.5t17.5 -41.5zM341 857q0 -31 -21.5 -52.5t-54.5 -21.5q-28 0 -46 17t-18 42q0 30 23 51.5t55 21.5q27 0 44.5 -16.5t17.5 -41.5zM409 53l79 -30l-2 -23h-283l-2 23 l41 14q22 8 30 18t8 29v203l-175 317q-12 22 -23 32t-30 18l-35 11l2 23h291l2 -23l-80 -25l157 -309l157 310l-78 24l2 23h200l2 -23q-4 -2 -16.5 -6.5t-22 -8.5t-12.5 -7q-21 -9 -37 -39l-175 -318v-233z" />
<glyph unicode="&#x179;" horiz-adv-x="635" d="M409 923l10 1q23 -8 39.5 -23.5t16.5 -32.5q0 -45 -84 -68.5t-191 -26.5l-6 18q115 50 215 132zM563 0h-498l-8 42l369 601h-167q-45 0 -83 -5l-76 -161h-24q-10 47 -10 107q0 54 8 104h489l8 -42l-368 -601h175q45 0 83 5l76 161h24q10 -46 10 -105q0 -56 -8 -106z" />
<glyph unicode="&#x17a;" horiz-adv-x="491" d="M381 719q0 -33 -59.5 -75.5t-145.5 -74.5l-12 15q79 99 116 173l9 5q7 1 22 1q70 0 70 -44zM448 73q-2 -42 -8 -73h-390l-9 42l274 414h-169l-68 -127h-18q-12 47 -12 97q0 38 7 72h386l8 -42l-274 -414h174l68 127h18q13 -49 13 -96z" />
<glyph unicode="&#x17b;" horiz-adv-x="635" d="M405 856q0 -34 -23.5 -57t-60.5 -23q-31 0 -51.5 19t-20.5 46q0 32 25.5 55.5t61.5 23.5q30 0 49.5 -18t19.5 -46zM563 0h-498l-8 42l369 601h-167q-45 0 -83 -5l-76 -161h-24q-10 47 -10 107q0 54 8 104h489l8 -42l-368 -601h175q45 0 83 5l76 161h24q10 -46 10 -105 q0 -56 -8 -106z" />
<glyph unicode="&#x17c;" horiz-adv-x="491" d="M329 673q0 -36 -22.5 -60t-57.5 -24q-30 0 -49 19.5t-19 49.5q0 33 24.5 57.5t58.5 24.5q28 0 46.5 -18.5t18.5 -48.5zM448 73q-2 -42 -8 -73h-390l-9 42l274 414h-169l-68 -127h-18q-12 47 -12 97q0 38 7 72h386l8 -42l-274 -414h174l68 127h18q13 -49 13 -96z" />
<glyph unicode="&#x17d;" horiz-adv-x="635" d="M366 778l-9 -6h-72q-70 77 -119 145l15 11q91 -50 145 -75q91 50 147 75l13 -13q-90 -96 -120 -137zM563 0h-498l-8 42l369 601h-167q-45 0 -83 -5l-76 -161h-24q-10 47 -10 107q0 54 8 104h489l8 -42l-368 -601h175q45 0 83 5l76 161h24q10 -46 10 -105q0 -56 -8 -106z " />
<glyph unicode="&#x17e;" horiz-adv-x="491" d="M296 582l-9 -7h-74q-56 82 -108 174l15 10q66 -51 135 -98q84 64 137 98l13 -13q-75 -106 -109 -164zM448 73q-2 -42 -8 -73h-390l-9 42l274 414h-169l-68 -127h-18q-12 47 -12 97q0 38 7 72h386l8 -42l-274 -414h174l68 127h18q13 -49 13 -96z" />
<glyph unicode="&#x18f;" horiz-adv-x="683" d="M334 -10q-118 0 -194 75.5t-76 201.5q0 26 2 60l15 16h426q-3 307 -170 307q-64 0 -104.5 -39.5t-40.5 -108.5q0 -22 7 -46q-32 -18 -65 -18q-28 0 -45.5 14t-17.5 40q0 80 83 143t187 63q137 0 218.5 -93t81.5 -250q0 -164 -86.5 -264.5t-220.5 -100.5zM198 252 q0 -103 37.5 -158.5t105.5 -55.5q74 0 117 73t48 192l-307 -10q-1 -12 -1 -41z" />
<glyph unicode="&#x192;" horiz-adv-x="604" d="M83 294l6 57h118l9 99q11 121 80.5 184.5t164.5 63.5q60 0 96.5 -27.5t36.5 -65.5q0 -29 -17.5 -47t-41.5 -25q-39 119 -91 119q-40 0 -62.5 -49.5t-39.5 -148.5l-16 -103h173l-7 -57h-176l-31 -191q-17 -103 -86 -172t-153 -69q-38 0 -62 19.5t-24 49.5q0 37 43 66 q46 -82 93 -82q70 0 87 183l19 196h-119z" />
<glyph unicode="&#x19d;" horiz-adv-x="743" d="M40 -170l-16 16q31 38 43.5 55t29.5 49t22.5 67.5t5.5 86.5v522q0 5 -12.5 13t-20.5 10l-46 16l2 23h188l348 -526v473l-79 30l2 23h204l2 -23l-41 -14q-22 -8 -30 -18t-8 -29v-604h-87l-371 549v-474q0 -89 -29.5 -137.5t-106.5 -107.5z" />
<glyph unicode="&#x1cd;" horiz-adv-x="714" d="M404 778l-9 -6h-72q-70 77 -119 145l15 11q97 -53 145 -75q96 53 147 75l13 -13q-83 -87 -120 -137zM317 688h80l214 -604q7 -20 17 -29.5t28 -16.5l41 -15l-2 -23h-288l-2 23l79 25l-58 172l-228 -3l-57 -168l79 -26l-2 -23h-199l-2 23q6 3 27 10t25 10q24 11 34 41z M213 261l200 -1l-100 296z" />
<glyph unicode="&#x1ce;" horiz-adv-x="544" d="M317 582l-9 -7h-74q-56 82 -108 174l15 10q66 -51 135 -98q84 64 137 98l13 -13q-75 -106 -109 -164zM288 508q80 0 123 -40.5t43 -118.5q0 -20 -2 -109t-2 -116q0 -34 10 -50t37 -16q19 0 39 5l4 -12q-41 -61 -116 -61q-37 0 -62 18t-33 49q-57 -67 -149 -67 q-59 0 -95 30.5t-36 83.5q0 74 76 118.5t203 46.5v53.5t0.5 44.5t0.5 18q0 80 -69 80q-35 0 -57.5 -23.5t-22.5 -60.5q0 -24 5 -43q-25 -14 -57 -14q-28 0 -44.5 12t-16.5 34q0 49 69 93.5t152 44.5zM176 126q0 -68 67 -68q49 0 84 37q0 13 0.5 62.5t0.5 79.5 q-71 -5 -111.5 -34t-40.5 -77z" />
<glyph unicode="&#x1cf;" horiz-adv-x="380" d="M230 778l-9 -6h-72q-70 77 -119 145l15 11q91 -50 145 -75q91 50 147 75l13 -13q-90 -96 -120 -137zM254 53l79 -30l-2 -23h-283l-2 23l41 14q22 8 30 18t8 29v551l-79 30l2 23h283l2 -23l-41 -14q-21 -9 -29.5 -18.5t-8.5 -28.5v-551z" />
<glyph unicode="&#x1d0;" horiz-adv-x="320" d="M199 570l-9 -7h-75q-40 92 -72 177l15 11q58 -58 99 -93q62 60 101 93l13 -13q-46 -98 -72 -168zM226 47l69 -29l-2 -18h-259l-2 18l37 15q18 8 25 18.5t7 30.5v344l-64 23l-2 14q80 36 183 45l8 -9v-452z" />
<glyph unicode="&#x1d1;" horiz-adv-x="716" d="M403 778l-9 -6h-72q-70 77 -119 145l15 11q91 -50 145 -75q91 50 147 75l13 -13q-90 -96 -120 -137zM49 344q0 163 89.5 258.5t223.5 95.5q135 0 220 -93t85 -256q0 -165 -86.5 -262t-223.5 -97q-139 0 -223.5 95t-84.5 259zM182 344q0 -142 47.5 -224.5t130.5 -82.5 q82 0 127.5 85t46.5 227q0 139 -45.5 220.5t-126.5 81.5q-82 0 -130.5 -83t-49.5 -224z" />
<glyph unicode="&#x1d2;" horiz-adv-x="538" d="M316 582l-9 -7h-73q-55 78 -109 174l16 10q61 -49 134 -98q97 73 137 98l14 -13q-73 -100 -110 -164zM497 250q0 -118 -64.5 -189t-167.5 -71q-100 0 -162 70.5t-62 189.5q0 117 66.5 187.5t167.5 70.5q99 0 160.5 -69.5t61.5 -188.5zM171 250q0 -217 96 -217 q51 0 75.5 50.5t24.5 164.5q0 217 -94 217q-102 0 -102 -215z" />
<glyph unicode="&#x1d3;" horiz-adv-x="672" d="M423 778l-9 -6h-72q-70 77 -119 145l15 11q85 -47 145 -75q96 53 147 75l13 -13q-83 -87 -120 -137zM88 235v400l-79 30l2 23h283l2 -23l-41 -14q-21 -9 -29.5 -18.5t-8.5 -28.5v-372q0 -92 43 -142t114 -50q72 0 115 49t43 143v403l-79 30l2 23h204l2 -23l-79 -30v-400 q0 -121 -62.5 -183t-178.5 -62t-184.5 63t-68.5 182z" />
<glyph unicode="&#x1d4;" horiz-adv-x="628" d="M363 582l-9 -7h-74q-64 94 -108 174l15 10q64 -51 135 -98q84 64 137 98l13 -13q-68 -94 -109 -164zM95 151v275l-64 23l-2 14q80 36 183 45l8 -9v-335q0 -103 88 -103q49 0 92 34v331l-64 23l-2 14q80 36 183 45l8 -9v-370q0 -71 46 -71q21 0 41 5l4 -12 q-42 -61 -117 -61q-72 0 -93 66q-68 -66 -156 -66q-73 0 -114 42t-41 119z" />
<glyph unicode="&#x1d5;" horiz-adv-x="672" d="M214 1030v68h313v-68h-313zM553 857q0 -31 -21.5 -52.5t-54.5 -21.5q-28 0 -45.5 17t-17.5 42q0 30 22.5 51.5t54.5 21.5q27 0 44.5 -16.5t17.5 -41.5zM332 857q0 -31 -21.5 -52.5t-54.5 -21.5q-28 0 -45.5 17t-17.5 42q0 30 22.5 51.5t54.5 21.5q27 0 44.5 -16.5 t17.5 -41.5zM88 235v400l-79 30l2 23h283l2 -23l-41 -14q-21 -9 -29.5 -18.5t-8.5 -28.5v-372q0 -92 43 -142t114 -50q72 0 115 49t43 143v403l-79 30l2 23h204l2 -23l-79 -30v-400q0 -121 -62.5 -183t-178.5 -62t-184.5 63t-68.5 182z" />
<glyph unicode="&#x1d6;" horiz-adv-x="628" d="M160 860v63h313v-63h-313zM494 674q0 -33 -20.5 -55.5t-52.5 -22.5q-26 0 -43.5 18.5t-17.5 44.5q0 32 22 55t53 23q26 0 42.5 -17.5t16.5 -45.5zM273 674q0 -33 -20.5 -55.5t-52.5 -22.5q-26 0 -43.5 18.5t-17.5 44.5q0 32 22 55t53 23q26 0 42.5 -17.5t16.5 -45.5z M95 151v275l-64 23l-2 14q80 36 183 45l8 -9v-335q0 -103 88 -103q49 0 92 34v331l-64 23l-2 14q80 36 183 45l8 -9v-370q0 -71 46 -71q21 0 41 5l4 -12q-42 -61 -117 -61q-72 0 -93 66q-68 -66 -156 -66q-73 0 -114 42t-41 119z" />
<glyph unicode="&#x1d7;" horiz-adv-x="672" d="M449 1143l11 2q22 -8 38.5 -24t16.5 -33q0 -45 -84.5 -68.5t-190.5 -25.5l-6 17q120 52 215 132zM553 857q0 -31 -21.5 -52.5t-54.5 -21.5q-28 0 -45.5 17t-17.5 42q0 30 22.5 51.5t54.5 21.5q27 0 44.5 -16.5t17.5 -41.5zM332 857q0 -31 -21.5 -52.5t-54.5 -21.5 q-28 0 -45.5 17t-17.5 42q0 30 22.5 51.5t54.5 21.5q27 0 44.5 -16.5t17.5 -41.5zM88 235v400l-79 30l2 23h283l2 -23l-41 -14q-21 -9 -29.5 -18.5t-8.5 -28.5v-372q0 -92 43 -142t114 -50q72 0 115 49t43 143v403l-79 30l2 23h204l2 -23l-79 -30v-400q0 -121 -62.5 -183 t-178.5 -62t-184.5 63t-68.5 182z" />
<glyph unicode="&#x1d8;" horiz-adv-x="628" d="M443 951q0 -33 -59.5 -75.5t-145.5 -73.5l-11 14q77 96 115 173l9 5q7 1 22 1q70 0 70 -44zM494 674q0 -33 -20.5 -55.5t-52.5 -22.5q-26 0 -43.5 18.5t-17.5 44.5q0 32 22 55t53 23q26 0 42.5 -17.5t16.5 -45.5zM273 674q0 -33 -20.5 -55.5t-52.5 -22.5 q-26 0 -43.5 18.5t-17.5 44.5q0 32 22 55t53 23q26 0 42.5 -17.5t16.5 -45.5zM95 151v275l-64 23l-2 14q80 36 183 45l8 -9v-335q0 -103 88 -103q49 0 92 34v331l-64 23l-2 14q80 36 183 45l8 -9v-370q0 -71 46 -71q21 0 41 5l4 -12q-42 -61 -117 -61q-72 0 -93 66 q-68 -66 -156 -66q-73 0 -114 42t-41 119z" />
<glyph unicode="&#x1d9;" horiz-adv-x="672" d="M417 998l-9 -6h-72q-67 74 -119 146l15 10q97 -53 145 -75q96 53 147 75l13 -13q-78 -79 -120 -137zM553 857q0 -31 -21.5 -52.5t-54.5 -21.5q-28 0 -45.5 17t-17.5 42q0 30 22.5 51.5t54.5 21.5q27 0 44.5 -16.5t17.5 -41.5zM332 857q0 -31 -21.5 -52.5t-54.5 -21.5 q-28 0 -45.5 17t-17.5 42q0 30 22.5 51.5t54.5 21.5q27 0 44.5 -16.5t17.5 -41.5zM88 235v400l-79 30l2 23h283l2 -23l-41 -14q-21 -9 -29.5 -18.5t-8.5 -28.5v-372q0 -92 43 -142t114 -50q72 0 115 49t43 143v403l-79 30l2 23h204l2 -23l-79 -30v-400q0 -121 -62.5 -183 t-178.5 -62t-184.5 63t-68.5 182z" />
<glyph unicode="&#x1da;" horiz-adv-x="628" d="M360 814l-9 -7h-73q-55 78 -109 174l16 10q61 -49 134 -98q97 73 137 98l14 -13q-69 -92 -110 -164zM494 674q0 -33 -20.5 -55.5t-52.5 -22.5q-26 0 -43.5 18.5t-17.5 44.5q0 32 22 55t53 23q26 0 42.5 -17.5t16.5 -45.5zM273 674q0 -33 -20.5 -55.5t-52.5 -22.5 q-26 0 -43.5 18.5t-17.5 44.5q0 32 22 55t53 23q26 0 42.5 -17.5t16.5 -45.5zM95 151v275l-64 23l-2 14q80 36 183 45l8 -9v-335q0 -103 88 -103q49 0 92 34v331l-64 23l-2 14q80 36 183 45l8 -9v-370q0 -71 46 -71q21 0 41 5l4 -12q-42 -61 -117 -61q-72 0 -93 66 q-68 -66 -156 -66q-73 0 -114 42t-41 119z" />
<glyph unicode="&#x1db;" horiz-adv-x="672" d="M509 1012l-6 -18q-48 1 -93.5 7t-88 16.5t-68 29t-25.5 42.5q0 17 16.5 32.5t39.5 23.5l10 -2q97 -80 215 -131zM553 857q0 -31 -21.5 -52.5t-54.5 -21.5q-28 0 -45.5 17t-17.5 42q0 30 22.5 51.5t54.5 21.5q27 0 44.5 -16.5t17.5 -41.5zM332 857q0 -31 -21.5 -52.5 t-54.5 -21.5q-28 0 -45.5 17t-17.5 42q0 30 22.5 51.5t54.5 21.5q27 0 44.5 -16.5t17.5 -41.5zM88 235v400l-79 30l2 23h283l2 -23l-41 -14q-21 -9 -29.5 -18.5t-8.5 -28.5v-372q0 -92 43 -142t114 -50q72 0 115 49t43 143v403l-79 30l2 23h204l2 -23l-79 -30v-400 q0 -121 -62.5 -183t-178.5 -62t-184.5 63t-68.5 182z" />
<glyph unicode="&#x1dc;" horiz-adv-x="628" d="M416 816l-11 -14q-86 31 -146 73.5t-60 75.5q0 44 71 44q15 0 22 -1l9 -5q38 -77 115 -173zM494 674q0 -33 -20.5 -55.5t-52.5 -22.5q-26 0 -43.5 18.5t-17.5 44.5q0 32 22 55t53 23q26 0 42.5 -17.5t16.5 -45.5zM273 674q0 -33 -20.5 -55.5t-52.5 -22.5 q-26 0 -43.5 18.5t-17.5 44.5q0 32 22 55t53 23q26 0 42.5 -17.5t16.5 -45.5zM95 151v275l-64 23l-2 14q80 36 183 45l8 -9v-335q0 -103 88 -103q49 0 92 34v331l-64 23l-2 14q80 36 183 45l8 -9v-370q0 -71 46 -71q21 0 41 5l4 -12q-42 -61 -117 -61q-72 0 -93 66 q-68 -66 -156 -66q-73 0 -114 42t-41 119z" />
<glyph unicode="&#x1e6;" horiz-adv-x="721" d="M448 778l-9 -6h-72q-70 77 -119 145l15 11q97 -53 145 -75q96 53 147 75l13 -13q-83 -87 -120 -137zM405 -10q-158 0 -257 91.5t-99 256.5t105.5 262.5t262.5 97.5q110 0 191 -31q7 -28 7 -74q0 -63 -12 -120l-24 -2q-8 16 -39 83.5t-44 85.5q-28 8 -72 8 q-100 0 -171 -85t-71 -222q0 -138 68.5 -219.5t171.5 -81.5q39 0 75 10v217l-79 30l2 23h264l2 -23l-41 -14q-15 -6 -20.5 -16t-5.5 -31v-215q-99 -31 -214 -31z" />
<glyph unicode="&#x1e7;" horiz-adv-x="512" d="M295 582l-9 -7h-73q-55 78 -109 174l16 10q61 -49 134 -98q84 64 137 98l13 -13q-75 -106 -109 -164zM49 318q0 81 59 135.5t149 54.5q69 0 117 -34q20 35 47 56.5t50 21.5q32 0 32 -43q0 -26 -5 -39q-3 -14 -23 -14q-5 0 -33 -1t-43 -2q45 -47 45 -120q0 -82 -56 -134.5 t-145 -52.5q-27 0 -46 4q-11 -17 -11 -36q0 -20 12.5 -28.5t42.5 -10.5l92 -7q78 -6 121 -42t43 -98q0 -81 -74 -133.5t-193 -52.5q-90 0 -147 32t-57 84q0 34 28 59.5t69 34.5l9 -9q-9 -15 -9 -30q2 -59 45 -93.5t110 -34.5q60 0 96.5 26t36.5 67q0 65 -90 76l-113 13 q-109 13 -109 91q0 64 64 101q-52 19 -83 61t-31 98zM318 324q0 144 -69 144q-74 0 -74 -138q0 -144 73 -144q70 0 70 138z" />
<glyph unicode="&#x1ea;" horiz-adv-x="716" d="M49 344q0 163 89.5 258.5t223.5 95.5q135 0 220 -93t85 -256q0 -124 -50.5 -211t-137.5 -124q-53 -31 -86.5 -69.5t-33.5 -70.5q0 -24 15.5 -36.5t40.5 -12.5q13 0 43 5l4 -12q-38 -59 -111 -59q-41 0 -67.5 22.5t-26.5 62.5q0 43 34 78t102 70q-24 -2 -36 -2 q-139 0 -223.5 95t-84.5 259zM182 344q0 -142 47.5 -224.5t130.5 -82.5q82 0 127.5 85t46.5 227q0 139 -45.5 220.5t-126.5 81.5q-82 0 -130.5 -83t-49.5 -224z" />
<glyph unicode="&#x1eb;" horiz-adv-x="538" d="M382 -182q-39 -59 -107 -59q-43 0 -70 23.5t-27 62.5q0 81 140 151q-26 -6 -53 -6q-100 0 -162 70.5t-62 189.5q0 117 66.5 187.5t167.5 70.5q99 0 160.5 -69.5t61.5 -188.5q0 -121 -69 -193q-19 -21 -63.5 -60.5t-65 -67t-20.5 -56.5q0 -48 56 -48q18 0 43 5zM171 250 q0 -217 96 -217q51 0 75.5 50.5t24.5 164.5q0 217 -94 217q-102 0 -102 -215z" />
<glyph unicode="&#x1f4;" horiz-adv-x="721" d="M484 923l11 1q23 -8 39 -23.5t16 -32.5q0 -45 -84 -68.5t-191 -26.5l-6 18q120 52 215 132zM405 -10q-158 0 -257 91.5t-99 256.5t105.5 262.5t262.5 97.5q110 0 191 -31q7 -28 7 -74q0 -63 -12 -120l-24 -2q-8 16 -39 83.5t-44 85.5q-28 8 -72 8q-100 0 -171 -85 t-71 -222q0 -138 68.5 -219.5t171.5 -81.5q39 0 75 10v217l-79 30l2 23h264l2 -23l-41 -14q-15 -6 -20.5 -16t-5.5 -31v-215q-99 -31 -214 -31z" />
<glyph unicode="&#x1f5;" horiz-adv-x="512" d="M380 719q0 -33 -59.5 -75.5t-145.5 -74.5l-12 15q79 99 116 173l9 5q7 1 22 1q70 0 70 -44zM49 318q0 81 59 135.5t149 54.5q69 0 117 -34q20 35 47 56.5t50 21.5q32 0 32 -43q0 -26 -5 -39q-3 -14 -23 -14q-5 0 -33 -1t-43 -2q45 -47 45 -120q0 -82 -56 -134.5 t-145 -52.5q-27 0 -46 4q-11 -17 -11 -36q0 -20 12.5 -28.5t42.5 -10.5l92 -7q78 -6 121 -42t43 -98q0 -81 -74 -133.5t-193 -52.5q-90 0 -147 32t-57 84q0 34 28 59.5t69 34.5l9 -9q-9 -15 -9 -30q2 -59 45 -93.5t110 -34.5q60 0 96.5 26t36.5 67q0 65 -90 76l-113 13 q-109 13 -109 91q0 64 64 101q-52 19 -83 61t-31 98zM318 324q0 144 -69 144q-74 0 -74 -138q0 -144 73 -144q70 0 70 138z" />
<glyph unicode="&#x1fa;" horiz-adv-x="714" d="M444 1149l11 2q23 -8 39.5 -24t16.5 -33q0 -45 -84.5 -68.5t-191.5 -25.5l-5 17q118 51 214 132zM354 766q-44 0 -71 23t-27 61q0 40 30 65.5t76 25.5q43 0 70.5 -23.5t27.5 -59.5q-1 -40 -30.5 -66t-75.5 -26zM358 908q-21 0 -35 -16.5t-14 -40.5q0 -23 13.5 -37.5 t34.5 -14.5q22 0 35.5 16.5t13.5 41.5q0 22 -13.5 36.5t-34.5 14.5zM317 688h80l214 -604q7 -20 17 -29.5t28 -16.5l41 -15l-2 -23h-288l-2 23l79 25l-58 172l-228 -3l-57 -168l79 -26l-2 -23h-199l-2 23q6 3 27 10t25 10q24 11 34 41zM213 261l200 -1l-100 296z" />
<glyph unicode="&#x1fb;" horiz-adv-x="544" d="M390 951q0 -33 -60 -75.5t-146 -73.5l-11 14q77 96 115 173l9 5q7 1 22 1q71 0 71 -44zM271 579q-44 0 -71 23t-27 61q0 40 30 65.5t76 25.5q43 0 70.5 -23.5t27.5 -59.5q-1 -40 -30.5 -66t-75.5 -26zM275 721q-21 0 -35 -16.5t-14 -40.5q0 -23 13.5 -37.5t34.5 -14.5 q22 0 35.5 16.5t13.5 41.5q0 22 -13.5 36.5t-34.5 14.5zM288 508q80 0 123 -40.5t43 -118.5q0 -20 -2 -109t-2 -116q0 -34 10 -50t37 -16q19 0 39 5l4 -12q-41 -61 -116 -61q-37 0 -62 18t-33 49q-57 -67 -149 -67q-59 0 -95 30.5t-36 83.5q0 74 76 118.5t203 46.5v53.5 t0.5 44.5t0.5 18q0 80 -69 80q-35 0 -57.5 -23.5t-22.5 -60.5q0 -24 5 -43q-25 -14 -57 -14q-28 0 -44.5 12t-16.5 34q0 49 69 93.5t152 44.5zM176 126q0 -68 67 -68q49 0 84 37q0 13 0.5 62.5t0.5 79.5q-71 -5 -111.5 -34t-40.5 -77z" />
<glyph unicode="&#x1fc;" horiz-adv-x="911" d="M613 923l11 1q23 -8 39 -23.5t16 -32.5q0 -45 -84 -68.5t-191 -26.5l-6 18q120 52 215 132zM19 0l-2 23q6 3 27 10t25 10q24 11 34 41l195 551l-79 30l2 23h622q8 -46 8 -100q0 -61 -10 -111h-24l-32 81q-34 76 -38 80q-38 5 -83 5h-102v-280l197 8l-3 -58l-194 8v-276 h112q45 0 83 5q4 5 11 20t15.5 34.5t11.5 25.5l32 81h24q10 -47 10 -111q0 -54 -8 -100h-497l-2 23l41 14q22 8 30 18t8 29v238l-201 -3l-91 -270l79 -26l-2 -23h-199zM433 643h-91l-95 -280l186 -1v281z" />
<glyph unicode="&#x1fd;" horiz-adv-x="777" d="M546 719q0 -33 -60 -75.5t-146 -74.5l-11 15q77 96 115 173l9 5q7 1 22 1q71 0 71 -44zM329 385q0 80 -69 80q-35 0 -57.5 -23.5t-22.5 -60.5q0 -24 5 -43q-25 -14 -57 -14q-28 0 -44.5 12t-16.5 34q0 48 66.5 93t145.5 45q90 0 130 -58q63 58 149 58q81 0 132.5 -52 t51.5 -140q0 -35 -1 -49l-13 -13h-280q12 -180 153 -180q72 0 126 41l14 -12q-58 -113 -188 -113q-124 0 -185 93q-32 -42 -80.5 -67.5t-103.5 -25.5q-62 0 -98.5 30t-36.5 84q0 74 76 118.5t203 46.5q0 24 0.5 63t0.5 53zM546 465q-46 0 -72 -50t-26 -126l167 7q1 11 1 38 q0 131 -70 131zM176 126q0 -68 70 -68q57 0 104 60q-23 52 -23 119q-70 -5 -110.5 -34t-40.5 -77z" />
<glyph unicode="&#x1fe;" horiz-adv-x="716" d="M441 923l10 1q23 -8 39.5 -23.5t16.5 -32.5q0 -45 -84 -68.5t-191 -26.5l-6 18q115 50 215 132zM49 344q0 163 89.5 258.5t223.5 95.5q121 0 201 -74l52 60l37 -29l-56 -66q71 -95 71 -240q0 -165 -86.5 -262t-223.5 -97q-124 0 -205 76l-52 -62l-35 31l56 66 q-72 94 -72 243zM182 344q0 -86 18 -150l299 354q-45 103 -137 103q-82 0 -130.5 -83t-49.5 -224zM534 349q0 82 -17 147l-299 -353q47 -106 142 -106q82 0 127.5 85t46.5 227z" />
<glyph unicode="&#x1ff;" horiz-adv-x="538" d="M396 719q0 -33 -59.5 -75.5t-145.5 -74.5l-11 15q79 102 115 173l9 5q7 1 22 1q70 0 70 -44zM497 250q0 -118 -64.5 -189t-167.5 -71q-92 0 -151 59l-43 -47l-34 33l47 51q-43 67 -43 164q0 117 66.5 187.5t167.5 70.5q91 0 149 -58l42 45l36 -32l-48 -50q43 -67 43 -163 zM171 250q0 -27 2 -69l182 195q-21 89 -82 89q-102 0 -102 -215zM367 248q0 27 -2 69l-183 -195q22 -89 85 -89q51 0 75.5 50.5t24.5 164.5z" />
<glyph unicode="&#x218;" horiz-adv-x="531" d="M234 -10q-62 0 -113.5 10t-64.5 25q-15 18 -15 65q0 67 27 118l25 -2q18 -101 49 -135q33 -37 107 -37q53 0 83 29.5t30 74.5q0 39 -23 72.5t-57.5 55t-75 47.5t-75 50.5t-57.5 63t-23 85.5q0 88 71 137t177 49q55 0 103.5 -11.5t62.5 -25.5q11 -10 11 -49 q0 -76 -26 -131l-25 1q-14 90 -42 129q-29 43 -91 43q-51 0 -82.5 -30.5t-31.5 -78.5q0 -45 32 -81.5t77.5 -63.5t91.5 -56t78 -73.5t32 -102.5q0 -87 -67.5 -132.5t-187.5 -45.5zM332 -162q0 -52 -35.5 -105t-80.5 -76l-11 10q31 48 43 110q-23 5 -37.5 21.5t-14.5 39.5 q0 31 19.5 51.5t48.5 20.5q32 0 50 -19t18 -53z" />
<glyph unicode="&#x219;" horiz-adv-x="452" d="M198 -10q-47 0 -88.5 8t-53.5 20q-15 17 -15 58q0 52 27 92l15 -2q12 -68 43 -102q29 -31 80 -31q37 0 57.5 18t20.5 49t-24 56t-58.5 43.5t-69 38.5t-58.5 52t-24 74q0 66 58.5 105t146.5 39q44 0 82.5 -8.5t48.5 -18.5q11 -9 11 -46q0 -59 -26 -99l-15 1q-13 71 -37 98 q-30 30 -68 30q-34 0 -54.5 -18.5t-20.5 -50.5q0 -31 24 -56t59 -43t69.5 -38.5t58.5 -52.5t24 -74q0 -67 -58 -104.5t-155 -37.5zM293 -162q0 -52 -35.5 -105t-80.5 -76l-12 10q32 46 44 110q-24 4 -38 21t-14 40q0 31 19.5 51.5t48.5 20.5q32 0 50 -19t18 -53z" />
<glyph unicode="&#x21a;" horiz-adv-x="635" d="M382 53l79 -30l-2 -23h-283l-2 23l41 14q22 8 30 18t8 29v558h-39q-50 0 -85 -6q-23 -42 -39 -89l-28 -70h-25q-10 58 -10 111q0 54 8 100h565q8 -46 8 -100q0 -53 -10 -111h-25l-28 70q-16 47 -39 89q-34 6 -85 6h-39v-589zM376 -162q0 -52 -35.5 -105t-80.5 -76l-12 10 q32 48 43 110q-23 4 -37 21t-14 40q0 31 19.5 51.5t48.5 20.5q31 0 49.5 -19.5t18.5 -52.5z" />
<glyph unicode="&#x21b;" horiz-adv-x="411" d="M394 103q-25 -49 -68 -81t-102 -32q-64 0 -98.5 40t-34.5 118v294h-73l-2 18l76 39l104 141l20 -2v-154h149v-42h-149v-273q0 -95 71 -95q49 0 93 41zM295 -162q0 -52 -35.5 -105t-80.5 -76l-12 10q32 48 43 110q-23 4 -37 21t-14 40q0 31 19.5 51.5t48.5 20.5 q31 0 49.5 -19.5t18.5 -52.5z" />
<glyph unicode="&#x232;" horiz-adv-x="689" d="M219 816v67h313v-67h-313zM409 53l79 -30l-2 -23h-283l-2 23l41 14q22 8 30 18t8 29v203l-175 317q-12 22 -23 32t-30 18l-35 11l2 23h291l2 -23l-80 -25l157 -309l157 310l-78 24l2 23h200l2 -23q-4 -2 -16.5 -6.5t-22 -8.5t-12.5 -7q-21 -9 -37 -39l-175 -318v-233z " />
<glyph unicode="&#x233;" horiz-adv-x="551" d="M135 628v63h314v-63h-314zM15 498h263l2 -18l-68 -28l105 -332l111 332l-73 28l2 18h182l2 -18q-43 -18 -47 -22q-22 -12 -32 -42l-159 -446q-42 -120 -86.5 -174t-101.5 -54q-33 0 -54.5 21t-21.5 54q0 27 14 49l7 3q34 -21 62 -21q46 0 89 42t65 108l-39 -5l-149 422 q-10 29 -31 42q-5 6 -44 23z" />
<glyph unicode="&#x237;" horiz-adv-x="302" d="M14 -240q41 54 60.5 115.5t19.5 150.5v400l-64 23l-2 14q78 36 182 45l9 -9v-509q0 -92 -54.5 -156t-135.5 -92z" />
<glyph unicode="&#x259;" horiz-adv-x="503" d="M235 -10q-85 0 -139.5 52.5t-54.5 140.5q0 23 2 51l12 14h281q-6 217 -100 217q-36 0 -57 -22t-21 -61q0 -22 5 -40q-29 -15 -58 -15q-26 0 -42 12t-16 33q0 51 59 93.5t134 42.5q103 0 164 -67.5t61 -180.5q0 -119 -65.5 -194.5t-164.5 -75.5zM168 165q0 -132 73 -132 q43 0 68 49.5t27 129.5l-167 -6q-1 -12 -1 -41z" />
<glyph unicode="&#x272;" horiz-adv-x="615" d="M522 47l69 -29l-2 -18h-259l-2 18l37 15q32 15 32 49v261q0 91 -78 91q-50 0 -100 -33v-411q0 -92 -54.5 -156t-135.5 -92l-15 18q41 54 60.5 115.5t19.5 150.5v400l-64 23l-2 14q78 36 182 45l9 -9v-57q78 66 162 66q68 0 104.5 -39t36.5 -112v-310z" />
<glyph unicode="&#x2c6;" horiz-adv-x="459" d="M379 584l-15 -10q-72 57 -134 98q-80 -60 -137 -98l-14 13q76 103 109 164l9 7h74q62 -88 108 -174z" />
<glyph unicode="&#x2c7;" horiz-adv-x="459" d="M270 582l-9 -7h-73q-55 78 -109 174l16 10q61 -49 134 -98q84 64 137 98l13 -13q-75 -106 -109 -164z" />
<glyph unicode="&#x2d8;" horiz-adv-x="432" d="M331 744l5 2l17 -4q-8 -70 -46.5 -112t-94.5 -42q-57 0 -93 42t-40 113l21 3q9 -35 40 -55.5t77 -20.5q42 0 72.5 19.5t41.5 54.5z" />
<glyph unicode="&#x2d9;" horiz-adv-x="307" d="M228 672q0 -35 -22.5 -59.5t-57.5 -24.5q-30 0 -49.5 20t-19.5 49q0 33 25 58t59 25q28 0 46.5 -19t18.5 -49z" />
<glyph unicode="&#x2da;" horiz-adv-x="362" d="M177 579q-44 0 -71 23t-27 61q0 40 30 65.5t76 25.5q43 0 70.5 -23.5t27.5 -59.5q-1 -40 -30.5 -66t-75.5 -26zM181 721q-21 0 -35 -16.5t-14 -40.5q0 -23 13.5 -37.5t34.5 -14.5q22 0 35.5 16.5t13.5 41.5q0 22 -13.5 36.5t-34.5 14.5z" />
<glyph unicode="&#x2db;" horiz-adv-x="378" d="M284 -182q-38 -59 -111 -59q-42 0 -68 24.5t-26 65.5q0 57 54.5 99t156.5 65l7 -13q-55 -23 -85.5 -57t-30.5 -69q0 -23 13.5 -36t38.5 -13q17 0 47 5z" />
<glyph unicode="&#x2dc;" horiz-adv-x="516" d="M98 602l-17 5q-2 12 -2 17q4 53 27.5 85.5t67.5 32.5q36 0 113.5 -28t82.5 -29q1 1 22 26.5t26 33.5l18 -6q0 -3 0.5 -10t0.5 -11q-3 -51 -26.5 -82t-67.5 -31q-27 0 -64 11t-77.5 26.5t-55.5 19.5z" />
<glyph unicode="&#x2dd;" horiz-adv-x="520" d="M275 719q0 -33 -53.5 -75.5t-130.5 -74.5l-12 15q74 93 114 173l8 5q8 1 23 1q51 0 51 -44zM441 719q0 -33 -53.5 -75.5t-130.5 -74.5l-11 15q78 101 113 173l9 5q7 1 22 1q51 0 51 -44z" />
<glyph unicode="&#x326;" horiz-adv-x="296" d="M217 -162q0 -52 -35.5 -105t-80.5 -76l-12 10q32 48 43 110q-23 4 -37 21t-14 40q0 31 19.5 51.5t48.5 20.5q31 0 49.5 -19.5t18.5 -52.5z" />
<glyph unicode="&#x394;" horiz-adv-x="604" d="M262 688h81l244 -670l-2 -18h-566l-2 18zM438 44l-179 512l-183 -512h362z" />
<glyph unicode="&#x3bc;" horiz-adv-x="628" d="M218 -223q0 -26 -88 -32q-20 -2 -32 -3l-7 8q0 412 7 717q1 27 19 31q31 5 104 10l8 -8q-9 -84 -9 -305q0 -60 21.5 -85t68.5 -25q48 0 90 33v39.5v45.5v34q0 52 1.5 132.5t1.5 97.5q0 26 19 31q16 4 104 10l8 -8q-9 -82 -9 -263q0 -112 9 -145.5t42 -33.5q19 0 36 5 l4 -12q-41 -61 -117 -61q-40 0 -65 23t-30 60v3q-18 -39 -48 -62.5t-66 -23.5q-73 0 -99 81l-4 -1l9 -91q22 -192 22 -202z" />
<glyph unicode="&#x3c0;" horiz-adv-x="620" d="M213 47q-7 -33 -21.5 -45t-43.5 -12q-26 0 -46 8l-8 8q66 186 84 396h-67q-28 0 -44 -13.5t-30 -46.5l-20 2q9 102 28 161q45 5 116 5q39 0 185.5 -5.5t172.5 -5.5q31 0 43 7.5t21 28.5l20 -2q-9 -79 -31 -146q-30 3 -102 7q-8 -86 -8 -149q0 -101 18 -144t61 -43 q16 0 37 7l4 -12q-43 -63 -104 -63q-56 0 -78.5 48t-22.5 149q0 93 11 211q-46 2 -134 4q-13 -236 -41 -355z" />
<glyph unicode="&#x1e0c;" horiz-adv-x="724" d="M674 344q0 -163 -94.5 -253.5t-253.5 -90.5h-278l-2 23l41 14q22 8 30 18t8 29v542q0 8 -10 11l-69 28l2 23h278q160 0 254 -91t94 -253zM321 642h-67v-596h67q106 0 163 77t57 221q1 144 -56 221t-164 77zM439 -157q0 -36 -22.5 -60t-58.5 -24q-30 0 -49 19.5t-19 49.5 q0 33 25 57.5t59 24.5q28 0 46.5 -18.5t18.5 -48.5z" />
<glyph unicode="&#x1e0d;" horiz-adv-x="588" d="M584 51q-41 -61 -116 -61q-74 0 -95 68q-51 -68 -141 -68q-85 0 -138 66t-53 179q0 126 72 199.5t184 73.5q36 0 71 -8v176l-84 23l-2 14q86 36 203 45l8 -9v-620q0 -37 11.5 -54t37.5 -17q21 0 38 5zM171 256q0 -93 31 -145.5t85 -52.5q45 0 81 36v351q-28 20 -63 20 q-62 0 -98 -54.5t-36 -154.5zM372 -157q0 -36 -22.5 -60t-57.5 -24q-30 0 -49 19.5t-19 49.5q0 33 24.5 57.5t58.5 24.5q28 0 46.5 -18.5t18.5 -48.5z" />
<glyph unicode="&#x1e24;" horiz-adv-x="798" d="M254 53l79 -30l-2 -23h-283l-2 23l41 14q22 8 30 18t8 29v551l-79 30l2 23h283l2 -23l-41 -14q-21 -9 -29.5 -18.5t-8.5 -28.5v-232h290v263l-79 30l2 23h282l2 -23l-41 -14q-21 -9 -29 -18.5t-8 -28.5v-551l78 -30l-2 -23h-282l-2 23l41 14q21 9 29.5 18.5t8.5 28.5v240 h-290v-271zM467 -157q0 -36 -22.5 -60t-58.5 -24q-30 0 -49 19.5t-19 49.5q0 33 24.5 57.5t59.5 24.5q28 0 46.5 -18.5t18.5 -48.5z" />
<glyph unicode="&#x1e25;" horiz-adv-x="615" d="M218 47l69 -29l-2 -18h-259l-2 18l37 15q18 8 25 18.5t7 30.5v594l-64 23l-2 14q80 36 183 45l8 -9v-307q78 66 163 66q68 0 104 -39t36 -112v-310l69 -29l-2 -18h-259l-2 18l38 15q18 8 24.5 18.5t6.5 30.5v261q0 91 -78 91q-48 0 -100 -34v-353zM373 -157 q0 -36 -22.5 -60t-57.5 -24q-30 0 -49 19.5t-19 49.5q0 33 24.5 57.5t58.5 24.5q29 0 47 -18.5t18 -48.5z" />
<glyph unicode="&#x1e44;" horiz-adv-x="743" d="M472 853q0 -34 -24 -57t-61 -23q-31 0 -51.5 19t-20.5 46q0 32 26 55.5t62 23.5q30 0 49.5 -18t19.5 -46zM176 53l98 -30l-2 -23h-224l-2 23l41 14q22 8 30 18t8 29v542q0 5 -12.5 13t-20.5 10l-46 16l2 23h188l348 -526v473l-79 30l2 23h204l2 -23l-41 -14 q-22 -8 -30 -18t-8 -29v-604h-87l-371 549v-496z" />
<glyph unicode="&#x1e45;" horiz-adv-x="623" d="M386 673q0 -36 -22.5 -60t-58.5 -24q-30 0 -49 19.5t-19 49.5q0 33 25 57.5t59 24.5q28 0 46.5 -18.5t18.5 -48.5zM226 47l69 -29l-2 -18h-259l-2 18l37 15q18 8 25 18.5t7 30.5v344l-64 23l-2 14q80 36 183 45l8 -9v-57q78 66 163 66q68 0 104 -39t36 -112v-310l69 -29 l-2 -18h-259l-2 18l38 15q18 8 24.5 18.5t6.5 30.5v261q0 91 -78 91q-48 0 -100 -33v-354z" />
<glyph unicode="&#x1e5a;" horiz-adv-x="708" d="M254 53l79 -30l-2 -23h-283l-2 23l41 14q22 8 30 18t8 29v542q0 8 -10 11l-69 28l2 23h290q117 0 188 -52t71 -140q0 -64 -36.5 -110t-91.5 -69l70 -126q28 -50 41 -70.5t35 -45.5t48 -40l27 -15l-2 -20l-127 -3q-37 -1 -58 14t-40 51l-118 227q-7 -1 -13 -1h-78v-235z M319 641h-65v-307h65q68 0 106 41t38 115q0 70 -38 110.5t-106 40.5zM454 -157q0 -36 -22.5 -60t-57.5 -24q-30 0 -49.5 19.5t-19.5 49.5q0 33 25 57.5t59 24.5q28 0 46.5 -18.5t18.5 -48.5z" />
<glyph unicode="&#x1e5b;" horiz-adv-x="431" d="M226 47l89 -29l-2 -18h-279l-2 18l37 15q18 8 25 18.5t7 30.5v344l-64 23l-2 14q80 36 183 45l8 -9v-76q65 85 127 85q30 0 49 -17.5t19 -45.5q0 -41 -36 -77q-13 0 -14 -1q-42 39 -93 45q-23 0 -52 -31v-334zM238 -157q0 -36 -22.5 -60t-57.5 -24q-30 0 -49 19.5 t-19 49.5q0 33 24.5 57.5t58.5 24.5q28 0 46.5 -18.5t18.5 -48.5z" />
<glyph unicode="&#x1e62;" horiz-adv-x="531" d="M234 -10q-62 0 -113.5 10t-64.5 25q-15 18 -15 65q0 67 27 118l25 -2q18 -101 49 -135q33 -37 107 -37q53 0 83 29.5t30 74.5q0 39 -23 72.5t-57.5 55t-75 47.5t-75 50.5t-57.5 63t-23 85.5q0 88 71 137t177 49q55 0 103.5 -11.5t62.5 -25.5q11 -10 11 -49 q0 -76 -26 -131l-25 1q-14 90 -42 129q-29 43 -91 43q-51 0 -82.5 -30.5t-31.5 -78.5q0 -45 32 -81.5t77.5 -63.5t91.5 -56t78 -73.5t32 -102.5q0 -87 -67.5 -132.5t-187.5 -45.5zM338 -157q0 -36 -22.5 -60t-57.5 -24q-30 0 -49 19.5t-19 49.5q0 33 24.5 57.5t58.5 24.5 q29 0 47 -18.5t18 -48.5z" />
<glyph unicode="&#x1e63;" horiz-adv-x="452" d="M198 -10q-47 0 -88.5 8t-53.5 20q-15 17 -15 58q0 52 27 92l15 -2q12 -68 43 -102q29 -31 80 -31q37 0 57.5 18t20.5 49t-24 56t-58.5 43.5t-69 38.5t-58.5 52t-24 74q0 66 58.5 105t146.5 39q44 0 82.5 -8.5t48.5 -18.5q11 -9 11 -46q0 -59 -26 -99l-15 1q-13 71 -37 98 q-30 30 -68 30q-34 0 -54.5 -18.5t-20.5 -50.5q0 -31 24 -56t59 -43t69.5 -38.5t58.5 -52.5t24 -74q0 -67 -58 -104.5t-155 -37.5zM299 -157q0 -36 -22.5 -60t-57.5 -24q-30 0 -49 19.5t-19 49.5q0 33 24.5 57.5t58.5 24.5q28 0 46.5 -18.5t18.5 -48.5z" />
<glyph unicode="&#x1e6c;" horiz-adv-x="635" d="M382 53l79 -30l-2 -23h-283l-2 23l41 14q22 8 30 18t8 29v558h-39q-50 0 -85 -6q-23 -42 -39 -89l-28 -70h-25q-10 58 -10 111q0 54 8 100h565q8 -46 8 -100q0 -53 -10 -111h-25l-28 70q-16 47 -39 89q-34 6 -85 6h-39v-589zM382 -157q0 -36 -22.5 -60t-57.5 -24 q-30 0 -49 19.5t-19 49.5q0 33 24.5 57.5t58.5 24.5q28 0 46.5 -18.5t18.5 -48.5z" />
<glyph unicode="&#x1e6d;" horiz-adv-x="411" d="M394 103q-25 -49 -68 -81t-102 -32q-64 0 -98.5 40t-34.5 118v294h-73l-2 18l76 39l104 141l20 -2v-154h149v-42h-149v-273q0 -95 71 -95q49 0 93 41zM301 -157q0 -36 -22.5 -60t-57.5 -24q-30 0 -49.5 20t-19.5 49q0 33 25 57.5t59 24.5q28 0 46.5 -18.5t18.5 -48.5z " />
<glyph unicode="&#x1e80;" horiz-adv-x="1063" d="M684 791l-6 -17q-106 2 -190.5 25.5t-84.5 68.5q0 17 16.5 33t39.5 24l10 -2q100 -82 215 -132zM383 0h-80l-200 604q-6 20 -16 29.5t-29 16.5l-41 15l2 23h288l2 -23l-79 -24l157 -507l121 385l-28 85q-7 22 -14 30.5t-24 15.5l-42 15l2 23h283l2 -23l-80 -24l157 -505 l159 504l-80 25l2 23h198l2 -23q-6 -3 -26.5 -10t-24.5 -9q-25 -12 -34 -42l-200 -604h-81l-147 448z" />
<glyph unicode="&#x1e81;" horiz-adv-x="808" d="M528 584l-11 -14q-86 32 -145.5 74t-59.5 76q0 43 70 43h22l9 -6q39 -76 115 -173zM477 498l124 -363l84 317l-72 28l2 18h182l2 -18q-39 -14 -47 -21q-26 -14 -34 -43l-120 -416h-79l-116 333l-119 -333h-80l-120 415q-8 30 -31 42q-9 9 -44 23l2 18h263l2 -18l-68 -28 l82 -317l127 363h60z" />
<glyph unicode="&#x1e82;" horiz-adv-x="1063" d="M637 923l11 1q23 -8 39.5 -23.5t16.5 -32.5q0 -45 -84 -68.5t-191 -26.5l-6 18q118 51 214 132zM383 0h-80l-200 604q-6 20 -16 29.5t-29 16.5l-41 15l2 23h288l2 -23l-79 -24l157 -507l121 385l-28 85q-7 22 -14 30.5t-24 15.5l-42 15l2 23h283l2 -23l-80 -24l157 -505 l159 504l-80 25l2 23h198l2 -23q-6 -3 -26.5 -10t-24.5 -9q-25 -12 -34 -42l-200 -604h-81l-147 448z" />
<glyph unicode="&#x1e83;" horiz-adv-x="808" d="M566 720q0 -34 -59.5 -76t-146.5 -74l-11 14q76 97 115 173l9 6h22q71 0 71 -43zM477 498l124 -363l84 317l-72 28l2 18h182l2 -18q-39 -14 -47 -21q-26 -14 -34 -43l-120 -416h-79l-116 333l-119 -333h-80l-120 415q-8 30 -31 42q-9 9 -44 23l2 18h263l2 -18l-68 -28 l82 -317l127 363h60z" />
<glyph unicode="&#x1e84;" horiz-adv-x="1063" d="M726 857q0 -31 -21.5 -52.5t-54.5 -21.5q-28 0 -46 17t-18 42q0 30 22.5 51.5t55.5 21.5q27 0 44.5 -16.5t17.5 -41.5zM505 857q0 -31 -21.5 -52.5t-54.5 -21.5q-28 0 -46 17t-18 42q0 30 22.5 51.5t55.5 21.5q27 0 44.5 -16.5t17.5 -41.5zM383 0h-80l-200 604 q-6 20 -16 29.5t-29 16.5l-41 15l2 23h288l2 -23l-79 -24l157 -507l121 385l-28 85q-7 22 -14 30.5t-24 15.5l-42 15l2 23h283l2 -23l-80 -24l157 -505l159 504l-80 25l2 23h198l2 -23q-6 -3 -26.5 -10t-24.5 -9q-25 -12 -34 -42l-200 -604h-81l-147 448z" />
<glyph unicode="&#x1e85;" horiz-adv-x="808" d="M616 675q0 -33 -20.5 -56t-52.5 -23q-27 0 -44 18.5t-17 45.5q0 32 22 55t53 23q26 0 42.5 -17.5t16.5 -45.5zM395 675q0 -33 -20.5 -56t-52.5 -23q-27 0 -44 18.5t-17 45.5q0 32 22 55t53 23q26 0 42.5 -17.5t16.5 -45.5zM477 498l124 -363l84 317l-72 28l2 18h182 l2 -18q-39 -14 -47 -21q-26 -14 -34 -43l-120 -416h-79l-116 333l-119 -333h-80l-120 415q-8 30 -31 42q-9 9 -44 23l2 18h263l2 -18l-68 -28l82 -317l127 363h60z" />
<glyph unicode="&#x1e92;" horiz-adv-x="635" d="M563 0h-498l-8 42l369 601h-167q-45 0 -83 -5l-76 -161h-24q-10 47 -10 107q0 54 8 104h489l8 -42l-368 -601h175q45 0 83 5l76 161h24q10 -46 10 -105q0 -56 -8 -106zM395 -157q0 -36 -22.5 -60t-57.5 -24q-30 0 -49 19.5t-19 49.5q0 33 24.5 57.5t58.5 24.5 q29 0 47 -18.5t18 -48.5z" />
<glyph unicode="&#x1e93;" horiz-adv-x="491" d="M448 73q-2 -42 -8 -73h-390l-9 42l274 414h-169l-68 -127h-18q-12 47 -12 97q0 38 7 72h386l8 -42l-274 -414h174l68 127h18q13 -49 13 -96zM322 -157q0 -36 -22.5 -60t-57.5 -24q-30 0 -49.5 20t-19.5 49q0 33 25 57.5t59 24.5q28 0 46.5 -18.5t18.5 -48.5z" />
<glyph unicode="&#x1e9e;" horiz-adv-x="763" d="M721 162q0 -80 -60 -126t-167 -46q-49 0 -90.5 10.5t-52.5 24.5q-15 18 -15 65q0 63 27 105l24 -1q12 -86 37 -121q28 -39 79 -39q42 0 67 26t25 65q0 76 -56.5 130t-168.5 95l-3 32l155 198q-49 75 -129 75q-60 0 -99.5 -49.5t-39.5 -123.5v-453l-25 -29h-181l-2 23 l41 14q22 8 30 18t8 29v375q0 102 80.5 170.5t199.5 68.5q146 0 218 -69l4 -29l-146 -179q116 -52 178 -114t62 -145z" />
<glyph unicode="&#x1ea0;" horiz-adv-x="714" d="M317 688h80l214 -604q7 -20 17 -29.5t28 -16.5l41 -15l-2 -23h-288l-2 23l79 25l-58 172l-228 -3l-57 -168l79 -26l-2 -23h-199l-2 23q6 3 27 10t25 10q24 11 34 41zM213 261l200 -1l-100 296zM383 -157q0 -36 -22.5 -60t-57.5 -24q-30 0 -49 19.5t-19 49.5 q0 33 24.5 57.5t58.5 24.5q29 0 47 -18.5t18 -48.5z" />
<glyph unicode="&#x1ea1;" horiz-adv-x="544" d="M288 508q80 0 123 -40.5t43 -118.5q0 -20 -2 -109t-2 -116q0 -34 10 -50t37 -16q19 0 39 5l4 -12q-41 -61 -116 -61q-37 0 -62 18t-33 49q-57 -67 -149 -67q-59 0 -95 30.5t-36 83.5q0 74 76 118.5t203 46.5v53.5t0.5 44.5t0.5 18q0 80 -69 80q-35 0 -57.5 -23.5 t-22.5 -60.5q0 -24 5 -43q-25 -14 -57 -14q-28 0 -44.5 12t-16.5 34q0 49 69 93.5t152 44.5zM176 126q0 -68 67 -68q49 0 84 37q0 13 0.5 62.5t0.5 79.5q-71 -5 -111.5 -34t-40.5 -77zM348 -157q0 -36 -22.5 -60t-57.5 -24q-30 0 -49.5 20t-19.5 49q0 33 25 57.5t59 24.5 q28 0 46.5 -18.5t18.5 -48.5z" />
<glyph unicode="&#x1eb8;" horiz-adv-x="603" d="M254 363l197 8l-3 -58l-194 8v-276h112q45 0 83 5q4 5 11 20t15.5 34.5t11.5 25.5l32 81h24q10 -47 10 -111q0 -54 -8 -100h-497l-2 23l41 14q22 8 30 18t8 29v542q0 8 -10 11l-69 28l2 23h487q8 -46 8 -100q0 -61 -10 -111h-24l-32 81q-34 76 -38 80q-38 5 -83 5h-102 v-280zM386 -157q0 -36 -22.5 -60t-57.5 -24q-30 0 -49 19.5t-19 49.5q0 33 24.5 57.5t58.5 24.5q28 0 46.5 -18.5t18.5 -48.5z" />
<glyph unicode="&#x1eb9;" horiz-adv-x="500" d="M464 103q-60 -113 -194 -113q-104 0 -166.5 67.5t-62.5 180.5q0 119 67 194.5t167 75.5q83 0 136.5 -52t53.5 -140q0 -35 -1 -49l-13 -13h-279q11 -180 152 -180q72 0 126 41zM269 465q-46 0 -72 -50t-26 -126l167 7q1 11 1 38q0 131 -70 131zM329 -157q0 -36 -22.5 -60 t-57.5 -24q-30 0 -49 19.5t-19 49.5q0 33 24.5 57.5t59.5 24.5q28 0 46 -18.5t18 -48.5z" />
<glyph unicode="&#x1ebc;" horiz-adv-x="603" d="M145 771l-18 5q0 3 -0.5 9.5t-0.5 9.5q4 55 28 89t68 34q40 0 125 -29.5t97 -32.5q2 4 23 31.5t26 35.5l17 -6q1 -7 1 -23q-3 -53 -26.5 -85.5t-67.5 -32.5q-40 0 -126.5 30t-96.5 32q-34 -42 -49 -67zM254 363l197 8l-3 -58l-194 8v-276h112q45 0 83 5q4 5 11 20 t15.5 34.5t11.5 25.5l32 81h24q10 -47 10 -111q0 -54 -8 -100h-497l-2 23l41 14q22 8 30 18t8 29v542q0 8 -10 11l-69 28l2 23h487q8 -46 8 -100q0 -61 -10 -111h-24l-32 81q-34 76 -38 80q-38 5 -83 5h-102v-280z" />
<glyph unicode="&#x1ebd;" horiz-adv-x="500" d="M107 602l-18 5q0 3 -0.5 8.5t-0.5 8.5q3 53 27 85.5t68 32.5q36 0 112.5 -27.5t83.5 -29.5q1 1 22 26.5t26 33.5l17 -6q2 -14 2 -21q-4 -51 -27.5 -82t-67.5 -31q-27 0 -63.5 11t-77 26.5t-55.5 19.5zM464 103q-60 -113 -194 -113q-104 0 -166.5 67.5t-62.5 180.5 q0 119 67 194.5t167 75.5q83 0 136.5 -52t53.5 -140q0 -35 -1 -49l-13 -13h-279q11 -180 152 -180q72 0 126 41zM269 465q-46 0 -72 -50t-26 -126l167 7q1 11 1 38q0 131 -70 131z" />
<glyph unicode="&#x1eca;" horiz-adv-x="380" d="M254 53l79 -30l-2 -23h-283l-2 23l41 14q22 8 30 18t8 29v551l-79 30l2 23h283l2 -23l-41 -14q-21 -9 -29.5 -18.5t-8.5 -28.5v-551zM258 -157q0 -36 -22.5 -60t-57.5 -24q-30 0 -49 19.5t-19 49.5q0 33 24.5 57.5t58.5 24.5q28 0 46.5 -18.5t18.5 -48.5z" />
<glyph unicode="&#x1ecb;" horiz-adv-x="320" d="M229 673q0 -36 -22.5 -60t-57.5 -24q-30 0 -49.5 20t-19.5 49q0 33 25 57.5t59 24.5q28 0 46.5 -18.5t18.5 -48.5zM226 47l69 -29l-2 -18h-259l-2 18l37 15q18 8 25 18.5t7 30.5v344l-64 23l-2 14q80 36 183 45l8 -9v-452zM229 -157q0 -36 -22.5 -60.5t-57.5 -24.5 q-30 0 -49.5 20t-19.5 50q0 33 25 57.5t59 24.5q28 0 46.5 -18.5t18.5 -48.5z" />
<glyph unicode="&#x1ecc;" horiz-adv-x="716" d="M49 344q0 163 89.5 258.5t223.5 95.5q135 0 220 -93t85 -256q0 -165 -86.5 -262t-223.5 -97q-139 0 -223.5 95t-84.5 259zM182 344q0 -142 47.5 -224.5t130.5 -82.5q82 0 127.5 85t46.5 227q0 139 -45.5 220.5t-126.5 81.5q-82 0 -130.5 -83t-49.5 -224zM429 -157 q0 -36 -22.5 -60t-57.5 -24q-30 0 -49.5 20t-19.5 49q0 33 25 57.5t59 24.5q28 0 46.5 -18.5t18.5 -48.5z" />
<glyph unicode="&#x1ecd;" horiz-adv-x="538" d="M497 250q0 -118 -64.5 -189t-167.5 -71q-100 0 -162 70.5t-62 189.5q0 117 66.5 187.5t167.5 70.5q99 0 160.5 -69.5t61.5 -188.5zM171 250q0 -217 96 -217q51 0 75.5 50.5t24.5 164.5q0 217 -94 217q-102 0 -102 -215zM343 -157q0 -36 -22.5 -60t-57.5 -24 q-30 0 -49.5 19.5t-19.5 49.5q0 33 25 57.5t59 24.5q28 0 46.5 -18.5t18.5 -48.5z" />
<glyph unicode="&#x1ee4;" horiz-adv-x="672" d="M88 235v400l-79 30l2 23h283l2 -23l-41 -14q-21 -9 -29.5 -18.5t-8.5 -28.5v-372q0 -92 43 -142t114 -50q72 0 115 49t43 143v403l-79 30l2 23h204l2 -23l-79 -30v-400q0 -121 -62.5 -183t-178.5 -62t-184.5 63t-68.5 182zM419 -157q0 -36 -22.5 -60t-57.5 -24 q-30 0 -49.5 20t-19.5 49q0 33 25 57.5t59 24.5q28 0 46.5 -18.5t18.5 -48.5z" />
<glyph unicode="&#x1ee5;" horiz-adv-x="628" d="M95 151v275l-64 23l-2 14q80 36 183 45l8 -9v-335q0 -103 88 -103q49 0 92 34v331l-64 23l-2 14q80 36 183 45l8 -9v-370q0 -71 46 -71q21 0 41 5l4 -12q-42 -61 -117 -61q-72 0 -93 66q-68 -66 -156 -66q-73 0 -114 42t-41 119zM400 -157q0 -36 -22.5 -60t-57.5 -24 q-30 0 -49.5 20t-19.5 49q0 33 25 57.5t59 24.5q28 0 46.5 -18.5t18.5 -48.5z" />
<glyph unicode="&#x1ef2;" horiz-adv-x="689" d="M506 791l-6 -17q-106 2 -190.5 25.5t-84.5 68.5q0 17 16.5 33t39.5 24l11 -2q96 -81 214 -132zM409 53l79 -30l-2 -23h-283l-2 23l41 14q22 8 30 18t8 29v203l-175 317q-12 22 -23 32t-30 18l-35 11l2 23h291l2 -23l-80 -25l157 -309l157 310l-78 24l2 23h200l2 -23 q-4 -2 -16.5 -6.5t-22 -8.5t-12.5 -7q-21 -9 -37 -39l-175 -318v-233z" />
<glyph unicode="&#x1ef3;" horiz-adv-x="551" d="M388 584l-12 -15q-86 32 -145.5 74.5t-59.5 75.5q0 44 70 44q15 0 23 -1l8 -5q37 -74 116 -173zM15 498h263l2 -18l-68 -28l105 -332l111 332l-73 28l2 18h182l2 -18q-43 -18 -47 -22q-22 -12 -32 -42l-159 -446q-42 -120 -86.5 -174t-101.5 -54q-33 0 -54.5 21t-21.5 54 q0 27 14 49l7 3q34 -21 62 -21q46 0 89 42t65 108l-39 -5l-149 422q-10 29 -31 42q-5 6 -44 23z" />
<glyph unicode="&#x1ef8;" horiz-adv-x="689" d="M197 771l-17 6q-1 6 -1 19q3 54 27 88.5t68 34.5q40 0 124.5 -29.5t98.5 -32.5q1 1 12 16.5t21.5 30t14.5 20.5l18 -6q0 -3 0.5 -11t0.5 -13q-4 -53 -27.5 -85.5t-67.5 -32.5q-40 0 -126.5 30t-95.5 32q-4 -3 -24 -30t-26 -37zM409 53l79 -30l-2 -23h-283l-2 23l41 14 q22 8 30 18t8 29v203l-175 317q-12 22 -23 32t-30 18l-35 11l2 23h291l2 -23l-80 -25l157 -309l157 310l-78 24l2 23h200l2 -23q-4 -2 -16.5 -6.5t-22 -8.5t-12.5 -7q-21 -9 -37 -39l-175 -318v-233z" />
<glyph unicode="&#x1ef9;" horiz-adv-x="551" d="M127 602l-17 5q-2 12 -2 17q4 53 27.5 85.5t67.5 32.5q36 0 113.5 -28t82.5 -29q1 1 22 26.5t26 33.5l18 -6q0 -3 0.5 -10t0.5 -11q-3 -51 -26.5 -82t-67.5 -31q-27 0 -64 11t-77.5 26.5t-55.5 19.5zM15 498h263l2 -18l-68 -28l105 -332l111 332l-73 28l2 18h182l2 -18 q-43 -18 -47 -22q-22 -12 -32 -42l-159 -446q-42 -120 -86.5 -174t-101.5 -54q-33 0 -54.5 21t-21.5 54q0 27 14 49l7 3q34 -21 62 -21q46 0 89 42t65 108l-39 -5l-149 422q-10 29 -31 42q-5 6 -44 23z" />
<glyph unicode="&#x2007;" />
<glyph unicode="&#x2013;" horiz-adv-x="561" d="M33 251v44h495v-44h-495z" />
<glyph unicode="&#x2014;" horiz-adv-x="864" d="M33 251v44h798v-44h-798z" />
<glyph unicode="&#x2018;" horiz-adv-x="267" d="M211 747q-52 -69 -68 -161q32 -2 52 -22.5t20 -49.5q0 -35 -26 -60.5t-63 -25.5q-35 0 -56 22.5t-21 59.5q0 68 45 139t103 109z" />
<glyph unicode="&#x2019;" horiz-adv-x="267" d="M55 440q53 68 69 160q-32 2 -52 22.5t-20 50.5q0 34 26.5 59.5t62.5 25.5q35 0 55.5 -22.5t20.5 -59.5q0 -68 -45 -139.5t-103 -108.5z" />
<glyph unicode="&#x201a;" horiz-adv-x="267" d="M55 -170q53 68 69 160q-32 2 -52 22.5t-20 50.5q0 34 26.5 59.5t62.5 25.5q35 0 55.5 -22.5t20.5 -59.5q0 -68 -45 -139.5t-103 -108.5z" />
<glyph unicode="&#x201c;" horiz-adv-x="492" d="M211 747q-52 -69 -68 -161q32 -2 52 -22.5t20 -49.5q0 -35 -26 -60.5t-63 -25.5q-35 0 -56 22.5t-21 59.5q0 68 45 139t103 109zM437 747q-53 -71 -69 -161q32 -2 52 -22.5t20 -49.5q0 -35 -26 -60.5t-62 -25.5q-35 0 -56 22.5t-21 59.5q0 68 45 139.5t103 108.5z" />
<glyph unicode="&#x201d;" horiz-adv-x="492" d="M281 440q54 69 68 160q-31 2 -51.5 23t-20.5 50q0 34 26.5 59.5t62.5 25.5q35 0 56 -22.5t21 -59.5q0 -68 -45 -139t-103 -109zM55 440q53 68 69 160q-32 2 -52 22.5t-20 50.5q0 34 26.5 59.5t62.5 25.5q35 0 55.5 -22.5t20.5 -59.5q0 -68 -45 -139.5t-103 -108.5z" />
<glyph unicode="&#x201e;" horiz-adv-x="492" d="M281 -170q54 69 68 160q-32 2 -52 22.5t-20 50.5q0 34 26.5 59.5t62.5 25.5q35 0 56 -22.5t21 -59.5q0 -68 -45 -139t-103 -109zM55 -170q53 68 69 160q-32 2 -52 22.5t-20 50.5q0 34 26.5 59.5t62.5 25.5q35 0 55.5 -22.5t20.5 -59.5q0 -68 -45 -139.5t-103 -108.5z" />
<glyph unicode="&#x2020;" horiz-adv-x="505" d="M326 134l-54 -134h-39l-54 134l48 325l-167 -33l-4 3q-6 53 -7 107l14 8l163 -34l-47 177l3 4q63 7 136 7l8 -8l-47 -180l166 34l4 -3q7 -98 7 -107l-14 -8l-164 33z" />
<glyph unicode="&#x2021;" horiz-adv-x="505" d="M182 691q63 7 136 7l8 -8l-47 -180l166 34l4 -3q7 -98 7 -107l-14 -8l-160 32q17 -81 17 -114q0 -31 -17 -110l162 32l8 -5q2 -64 1 -107l-10 -6l-164 34l47 -178l-5 -6q-66 -4 -136 -2l-6 7l47 179l-164 -34l-8 4q-3 82 -2 108l10 6l161 -32q-17 79 -17 110q0 38 18 114 l-164 -32l-4 3q-6 53 -7 107l14 8l163 -34l-47 177z" />
<glyph unicode="&#x2022;" horiz-adv-x="452" d="M221 116q-56 0 -93 36t-39 88q-1 60 42.5 105t104.5 45q55 0 90 -34t36 -89q2 -62 -38 -106.5t-103 -44.5z" />
<glyph unicode="&#x2026;" horiz-adv-x="732" d="M126 -10q-33 0 -54 20.5t-23 50.5q-1 35 25 61t61 26q31 0 51.5 -19.5t21.5 -51.5q2 -36 -22 -61.5t-60 -25.5zM363 -10q-33 0 -54 20.5t-23 50.5q-1 35 25 61t61 26q31 0 51.5 -19.5t21.5 -51.5q2 -36 -22 -61.5t-60 -25.5zM600 -10q-33 0 -54 20.5t-23 50.5 q-1 35 25 61t61 26q31 0 51.5 -19.5t21.5 -51.5q2 -36 -22 -61.5t-60 -25.5z" />
<glyph unicode="&#x2030;" horiz-adv-x="1424" d="M733 698l-423 -708h-55l423 708h55zM55 483q-1 93 48 152t131 59q80 0 127 -58.5t48 -152.5q0 -89 -49 -148t-130 -59t-128 57.5t-47 149.5zM152 482q1 -96 18 -133.5t62 -37.5q44 0 62 39.5t18 133.5q-1 95 -19 135.5t-60 40.5q-43 0 -62 -42.5t-19 -135.5zM582 197 q-1 93 48 152t131 59q80 0 127 -58.5t48 -152.5q0 -89 -49 -148t-130 -59t-128 57.5t-47 149.5zM1016 197q-1 93 48 152t131 59q80 0 127 -58.5t47 -152.5q1 -89 -48 -148t-131 -59q-81 0 -127.5 57t-46.5 150zM680 196q0 -96 17 -133.5t62 -37.5q44 0 62 39.5t18 133.5 q-1 95 -19 135.5t-60 40.5q-43 0 -62 -42.5t-18 -135.5zM1113 196q1 -96 18 -133.5t62 -37.5q44 0 62 40t17 133q0 95 -18 135.5t-60 40.5q-43 0 -62.5 -42.5t-18.5 -135.5z" />
<glyph unicode="&#x2039;" horiz-adv-x="334" d="M263 30l-17 -10q-93 122 -171 188l-6 8v70q98 97 180 198l15 -11q-38 -91 -101 -223q52 -100 100 -220z" />
<glyph unicode="&#x203a;" horiz-adv-x="334" d="M264 216q-107 -105 -179 -198l-16 11q41 97 102 223q-53 103 -101 220l18 10q93 -122 171 -188l5 -8v-70z" />
<glyph unicode="&#x2044;" horiz-adv-x="257" d="M368 698l-424 -708h-55l423 708h56z" />
<glyph unicode="&#x2070;" horiz-adv-x="436" d="M41 547q0 93 49 152t131 59q80 0 127 -58.5t47 -152.5q1 -89 -48 -148t-131 -59q-81 0 -127.5 57t-47.5 150zM139 546q0 -96 17 -134t62 -38t63 40t17 133q0 95 -18 136t-60 41q-43 0 -62.5 -42.5t-18.5 -135.5z" />
<glyph unicode="&#x2071;" horiz-adv-x="286" d="M142 837q-26 0 -42.5 17t-16.5 41q0 29 21 50t51 21q24 0 40.5 -16t16.5 -41q0 -30 -20 -51t-50 -21zM200 407l56 -23l-1 -14h-214l-2 14l31 12q25 11 25 40v263l-52 20l-2 11q70 29 152 36l7 -7v-352z" />
<glyph unicode="&#x2074;" horiz-adv-x="440" d="M41 478l228 280l63 -6v-262h67l-5 -52h-62v-84h-94v84h-190zM96 490h142v175z" />
<glyph unicode="&#x2075;" horiz-adv-x="387" d="M75 748h258q0 -51 -15 -119l-15 1q-2 23 -8.5 30t-29.5 7h-140l-3 -95h31q88 0 140 -30t52 -85q0 -54 -47 -85.5t-125 -31.5q-60 0 -96 16t-36 43q0 19 18.5 31.5t46.5 12.5l8 -6q-2 -4 -2 -9q3 -26 21 -42t48 -16q34 0 53 17t19 47q0 44 -47 71.5t-128 29.5l-7 8z" />
<glyph unicode="&#x2076;" horiz-adv-x="414" d="M372 470q0 -55 -46.5 -92.5t-119.5 -37.5q-74 0 -119.5 45t-45.5 118q0 109 85.5 181.5t219.5 73.5l5 -17q-75 -24 -127 -70t-73 -107q45 15 84 15q62 0 99.5 -29.5t37.5 -79.5zM139 488q0 -47 20 -82.5t54 -35.5q29 0 46.5 21.5t17.5 55.5q0 40 -23.5 65t-62.5 25 q-25 0 -48 -5q-4 -19 -4 -44z" />
<glyph unicode="&#x2077;" horiz-adv-x="390" d="M342 748l7 -55q-130 -137 -148 -346h-96q8 83 62 168.5t123 151.5h-186q-21 0 -30.5 -7t-17.5 -28l-13 1q-2 62 12 115h287z" />
<glyph unicode="&#x2078;" horiz-adv-x="415" d="M373 457q0 -49 -46 -83t-122 -34q-72 0 -118 27t-46 71q0 39 30.5 63.5t77.5 33.5q-83 49 -83 110q0 49 42 81t109 32q59 0 96 -26t37 -67q0 -59 -81 -92q24 -13 39 -22.5t32 -24t25 -31.5t8 -38zM153 677q0 -29 23 -48.5t69 -43.5q30 37 30 81q0 28 -15.5 45t-44.5 17 q-27 0 -44.5 -14.5t-17.5 -36.5zM131 441q0 -33 21.5 -52t55.5 -19q31 0 52 16t21 41q0 7 -1.5 13.5t-6 12.5t-8.5 11t-12 10.5t-12.5 9.5t-15.5 10l-16.5 9t-18 9.5t-17.5 9.5q-42 -36 -42 -81z" />
<glyph unicode="&#x2079;" horiz-adv-x="414" d="M372 585q0 -105 -86 -175t-220 -70l-4 17q157 48 200 171q-47 -15 -85 -15q-62 0 -99 31t-37 83q1 56 47.5 93.5t119.5 37.5q74 0 119 -47.5t45 -125.5zM137 645q0 -40 23 -65t62 -25q30 0 48 5q5 23 5 45q0 52 -18.5 87.5t-50.5 35.5q-31 0 -50 -22.5t-19 -60.5z" />
<glyph unicode="&#x207f;" horiz-adv-x="536" d="M200 407l56 -23l-1 -14h-214l-2 14l31 12q25 11 25 40v263l-52 20l-2 11q70 29 152 36l7 -7v-45q63 52 133 52q56 0 86 -30t30 -87v-242l56 -23l-1 -14h-214l-2 14l31 12q25 11 25 40v201q0 69 -64 69q-38 0 -80 -26v-273z" />
<glyph unicode="&#x2080;" horiz-adv-x="436" d="M41 121q0 93 49 152t131 59q80 0 127 -58.5t47 -152.5q1 -89 -48 -148t-131 -59q-81 0 -127.5 57t-47.5 150zM139 120q0 -96 17 -133.5t62 -37.5t63 40t17 133q0 95 -18 135.5t-60 40.5q-43 0 -62.5 -42.5t-18.5 -135.5z" />
<glyph unicode="&#x2081;" horiz-adv-x="298" d="M198 -46l59 -21l-2 -11h-212l-2 11l26 6q21 8 29 16t8 23v288l-61 11l-2 11l152 44l5 -5v-373z" />
<glyph unicode="&#x2082;" horiz-adv-x="381" d="M52 -78l-8 54q85 45 136 99t51 105q0 34 -21 52.5t-58 18.5q-50 0 -95 -41l-12 8q18 53 60 83.5t93 30.5q59 0 94.5 -32t35.5 -83q0 -28 -14 -56t-30.5 -47.5t-50 -45t-52 -37.5t-55.5 -35h147q22 0 33.5 8t21.5 28l12 -1q0 -60 -17 -109h-271z" />
<glyph unicode="&#x2083;" horiz-adv-x="391" d="M107 94l-4 28q137 12 137 77q0 23 -18.5 37.5t-49.5 14.5q-49 0 -97 -40l-11 8q19 51 61.5 82t91.5 31q54 0 87 -26.5t33 -65.5q0 -47 -37 -72.5t-89 -33.5q60 -5 99 -33t39 -75q0 -54 -51.5 -83t-123.5 -29q-58 0 -95.5 16t-37.5 45q0 19 19 31t46 13l8 -6q-2 -4 -2 -8 q8 -61 70 -61q33 0 54 16.5t21 45.5q0 41 -34 65t-81 24q-23 0 -35 -1z" />
<glyph unicode="&#x2084;" horiz-adv-x="440" d="M41 52l228 280l63 -6v-262h67l-5 -52h-62v-84h-94v84h-190zM96 64h142v175z" />
<glyph unicode="&#x2085;" horiz-adv-x="387" d="M75 322h258q0 -51 -15 -119l-15 1q-2 23 -8.5 30t-29.5 7h-140l-3 -95h31q89 0 140.5 -30t51.5 -85q0 -54 -47 -85.5t-125 -31.5q-59 0 -95.5 16.5t-36.5 43.5q0 18 18.5 30.5t46.5 12.5l8 -5q-2 -6 -2 -10q3 -26 21 -42t48 -16q34 0 53 17t19 47q0 44 -47 71.5 t-128 29.5l-7 8z" />
<glyph unicode="&#x2086;" horiz-adv-x="414" d="M372 44q0 -55 -46.5 -92.5t-119.5 -37.5q-74 0 -119.5 45t-45.5 118q0 109 85.5 181.5t219.5 73.5l5 -17q-75 -24 -127 -70t-73 -107q45 15 84 15q62 0 99.5 -29.5t37.5 -79.5zM139 63q0 -48 20 -83.5t54 -35.5q29 0 46.5 21.5t17.5 55.5q0 40 -23.5 65t-62.5 25 q-25 0 -48 -5q-4 -19 -4 -43z" />
<glyph unicode="&#x2087;" horiz-adv-x="390" d="M342 322l7 -55q-130 -136 -148 -345h-96q8 83 62 168t123 151h-186q-21 0 -30.5 -7t-17.5 -28l-13 1q-2 62 12 115h287z" />
<glyph unicode="&#x2088;" horiz-adv-x="415" d="M373 31q0 -49 -46 -83t-122 -34q-72 0 -118 27t-46 71q0 39 30.5 63.5t77.5 33.5q-83 49 -83 110q0 49 42 81t109 32q59 0 96 -26t37 -67q0 -59 -81 -92q24 -13 39 -22.5t32 -24t25 -31.5t8 -38zM153 251q0 -29 23 -48.5t69 -43.5q30 37 30 81q0 28 -15.5 45t-44.5 17 q-27 0 -44.5 -14t-17.5 -37zM131 15q0 -33 21.5 -52t55.5 -19q31 0 52 16t21 41q0 7 -1.5 13.5t-6 12.5t-8.5 11t-12 10.5t-12.5 9.5t-15.5 10l-16.5 9t-18 9.5t-17.5 9.5q-42 -36 -42 -81z" />
<glyph unicode="&#x2089;" horiz-adv-x="414" d="M372 159q0 -105 -86 -175t-220 -70l-4 17q157 48 200 171q-47 -15 -85 -15q-62 0 -99 31t-37 83q1 56 47.5 93.5t119.5 37.5q74 0 119 -47.5t45 -125.5zM137 219q0 -40 23 -65t62 -25q30 0 48 5q5 23 5 45q0 52 -18.5 87.5t-50.5 35.5q-31 0 -50 -22.5t-19 -60.5z" />
<glyph unicode="&#x2090;" horiz-adv-x="463" d="M241 326q65 0 100.5 -32t35.5 -93q0 -16 -2 -83.5t-2 -87.5q0 -29 9 -41t30 -12q15 0 31 4l4 -9q-33 -50 -95 -50q-30 0 -51.5 14t-27.5 38q-47 -52 -123 -52q-48 0 -77 24t-29 66q0 57 62.5 91.5t165.5 36.5v42.5v35.5l1 13q0 61 -56 61q-29 0 -47 -17.5t-18 -46.5 q0 -19 4 -35q-23 -11 -48 -11q-49 0 -49 36q0 38 56.5 73t125.5 35zM149 30q0 -52 54 -52q40 0 68 26q0 68 1 111q-58 -4 -90.5 -26t-32.5 -59z" />
<glyph unicode="&#x2091;" horiz-adv-x="413" d="M383 13q-48 -91 -159 -91q-85 0 -136.5 52.5t-51.5 140.5q0 94 54.5 152.5t137.5 58.5q69 0 112.5 -40.5t43.5 -109.5q0 -27 -1 -38l-10 -11h-229q10 -136 124 -136q58 0 104 31zM223 292q-37 0 -58.5 -38.5t-21.5 -97.5l136 5q0 4 0.5 14t0.5 16q0 101 -57 101z" />
<glyph unicode="&#x2092;" horiz-adv-x="446" d="M410 125q0 -92 -53 -147.5t-138 -55.5q-82 0 -132.5 55t-50.5 148q0 91 54.5 146t137.5 55q81 0 131.5 -54t50.5 -147zM143 125q0 -88 19 -128t59 -40q42 0 61.5 38.5t19.5 127.5q0 169 -76 169q-83 0 -83 -167z" />
<glyph unicode="&#x2093;" horiz-adv-x="447" d="M173 282l86 -122l79 121l-56 23l1 14h155l1 -14q-40 -20 -41 -21q-15 -10 -33 -35l-88 -112l100 -140q17 -27 31 -34q8 -7 35 -17l-1 -15h-214l-2 15l53 22l-89 123l-79 -122l56 -23l-1 -15h-161l-1 15q34 12 44 20q14 9 36 36l89 114l-100 138q-19 25 -31 33 q-6 6 -34 18l1 14h214l2 -14z" />
<glyph unicode="&#x2095;" horiz-adv-x="528" d="M192 -32l56 -23l-1 -15h-214l-2 15l31 11q25 12 25 40v459l-52 19l-2 11q66 29 152 36l7 -6v-241q62 52 133 52q56 0 86 -30t30 -87v-241l56 -23l-1 -15h-214l-2 15l31 11q25 12 25 40v201q0 69 -64 69q-39 0 -80 -25v-273z" />
<glyph unicode="&#x2096;" horiz-adv-x="495" d="M192 -32l56 -23l-1 -15h-214l-2 15l31 11q25 12 25 40v459l-52 19l-2 11q68 30 152 37l7 -7v-367h56l102 133l-67 23l2 14h182l2 -14q-43 -18 -48 -21q-18 -8 -45 -35l-57 -60l104 -185q23 -36 43 -45l25 -12l-1 -16h-93q-29 0 -45 11t-29 37l-75 136h-56v-146z" />
<glyph unicode="&#x2097;" horiz-adv-x="278" d="M192 -32l56 -23l-1 -15h-214l-2 15l31 11q25 12 25 40v459l-52 19l-2 11q68 30 152 37l7 -7v-547z" />
<glyph unicode="&#x2098;" horiz-adv-x="778" d="M200 -32l56 -23l-1 -15h-214l-2 15l31 11q25 12 25 40v264l-52 19l-2 11q66 29 152 36l7 -6v-46q63 52 132 52q77 0 103 -59q63 59 139 59q56 0 86.5 -30t30.5 -87v-241l56 -23l-2 -15h-213l-2 15l31 11q25 12 25 40v201q0 69 -64 69q-38 0 -79 -25q2 -20 2 -32v-241 l57 -23l-1 -15h-214l-2 15l30 11q26 12 26 40v201q0 69 -62 69q-40 0 -79 -25v-273z" />
<glyph unicode="&#x2099;" horiz-adv-x="536" d="M200 -32l56 -23l-1 -15h-214l-2 15l31 11q25 12 25 40v264l-52 19l-2 11q66 29 152 36l7 -6v-46q63 52 133 52q56 0 86 -30t30 -87v-241l56 -23l-1 -15h-214l-2 15l31 11q25 12 25 40v201q0 69 -64 69q-39 0 -80 -25v-273z" />
<glyph unicode="&#x209a;" horiz-adv-x="497" d="M192 -226l73 -23l-2 -14h-230l-2 14l30 12q26 11 26 39v458l-52 19l-2 11q66 29 152 36l7 -6v-44q45 50 115 50q71 0 112.5 -53t41.5 -141q0 -97 -56.5 -153.5t-153.5 -56.5q-21 0 -59 4v-152zM251 -43q47 0 74.5 42.5t27.5 114.5q0 152 -92 152q-37 0 -69 -26v-267 q21 -16 59 -16z" />
<glyph unicode="&#x209b;" horiz-adv-x="375" d="M164 -78q-91 0 -117 22q-11 13 -11 46q0 44 22 73l12 -2q9 -52 36 -80q22 -24 65 -24q30 0 46.5 13.5t16.5 36.5q0 29 -30 53t-65.5 39t-65.5 44.5t-30 69.5q0 53 48 83t121 30q37 0 68.5 -6.5t39.5 -14.5q9 -7 9 -36q0 -47 -23 -78l-12 1q-10 55 -30 76q-24 24 -55 24 q-28 0 -44.5 -14t-16.5 -37q0 -24 19.5 -43.5t48 -34t56.5 -30.5t47.5 -41t19.5 -58q0 -53 -47.5 -82.5t-127.5 -29.5z" />
<glyph unicode="&#x209c;" horiz-adv-x="343" d="M331 13q-20 -39 -55.5 -65t-84.5 -26q-109 0 -109 125v226h-59l-2 15l61 32l88 109l16 -1v-121h121v-34h-121v-210q0 -72 58 -72q38 0 76 31z" />
<glyph unicode="&#x20ac;" horiz-adv-x="645" d="M41 231l7 50h79q-3 25 -3 54q0 5 0.5 14t0.5 13h-70l7 50h68q20 127 98 206.5t184 79.5q79 0 131 -40t52 -99q0 -27 -16.5 -43.5t-42.5 -16.5q-22 0 -35 3q1 5 1 12q-7 60 -33 100.5t-68 40.5q-61 0 -100.5 -66t-45.5 -177h216l-6 -50h-211q0 -39 5 -81h197l-5 -50h-182 q42 -157 175 -157q80 0 146 51l14 -12q-69 -123 -205 -123q-103 0 -172.5 63.5t-92.5 177.5h-93z" />
<glyph unicode="&#x2122;" horiz-adv-x="675" d="M191 485l28 -11l-1 -14h-108l-2 14l16 6q12 4 12 20v166h-8q-31 0 -35 -1q-4 -6 -14 -30l-12 -29h-13q-5 22 -5 44t4 38h221q4 -16 4 -38t-5 -44h-13l-12 29q-10 24 -13 30q-5 1 -35 1h-9v-181zM313 688h80l64 -157l62 157h84l1 -14l-28 -12l23 -177l27 -11l-1 -14h-108 l-2 14l12 5q17 7 15 23l-18 130l-69 -172h-27l-68 168l-19 -143l26 -11l-1 -14h-75l-1 14l12 5q15 5 16 18l22 165l-29 12z" />
<glyph unicode="&#x2202;" horiz-adv-x="637" d="M309 758q135 0 206.5 -104t71.5 -271q0 -59 -9.5 -113.5t-32.5 -105.5t-56.5 -89t-85.5 -61t-116 -23q-107 0 -172.5 62t-65.5 165q0 108 78.5 181.5t209.5 73.5q64 0 117 -21q-11 105 -58 166t-123 61q-95 0 -166 -71l-29 30q36 48 95.5 84t135.5 36zM178 217 q0 -81 34 -128t90 -47q71 0 113 82.5t42 222.5v51q-46 23 -105 23q-82 0 -128 -56t-46 -148z" />
<glyph unicode="&#x220f;" horiz-adv-x="743" d="M254 -127l-8 -11h-195l-2 23l41 14q22 8 30 18t8 29v689l-79 30l2 23h640l2 -23l-41 -14q-21 -9 -29.5 -18.5t-8.5 -28.5v-689l79 -30l-2 -23h-194l-8 11v766h-235v-766z" />
<glyph unicode="&#x2211;" horiz-adv-x="597" d="M33 -138l-8 42l273 327l-267 415l8 42h501q8 -45 8 -96q0 -56 -10 -111h-25q-2 13 -19.5 49.5t-35 70t-18.5 35.5q-32 7 -85 7h-178l234 -363l-314 -373h258q53 0 85 7q1 2 18.5 35.5t35 70t19.5 49.5h25q10 -55 10 -111q0 -51 -8 -96h-507z" />
<glyph unicode="&#x2212;" d="M510 310h-432v66q162 5 432 5l8 -8z" />
<glyph unicode="&#x221a;" horiz-adv-x="615" d="M9 498h202l151 -406l186 666l58 -16l-214 -742h-126l-175 449h-82v49z" />
<glyph unicode="&#x221e;" horiz-adv-x="852" d="M776 345q0 -80 -48.5 -133t-124.5 -53q-100 0 -173 110q-73 -110 -187 -110q-74 0 -120.5 51.5t-46.5 132.5t48 133.5t126 52.5q102 0 174 -111q75 111 185 111q74 0 120.5 -51.5t46.5 -132.5zM597 460q-41 0 -78 -29t-59 -72l2 -4q35 -63 68.5 -95.5t75.5 -32.5t69 32 t27 86q0 51 -29.5 83t-75.5 32zM150 346q0 -54 29 -86t76 -32q42 0 79 29t59 71q-1 1 -3 5q-38 65 -69.5 96t-73.5 31q-43 0 -70 -30.5t-27 -83.5z" />
<glyph unicode="&#x222b;" horiz-adv-x="450" d="M276 717q-57 -17 -57 -100q0 -16 2.5 -39t7.5 -58.5t10.5 -67t15 -89.5t16.5 -101q6 -37 16.5 -100.5t15 -92t8.5 -64t4 -59.5q0 -56 -19 -97.5t-51.5 -63.5t-69 -32.5t-77.5 -10.5q-48 0 -78.5 19.5t-30.5 47.5q0 40 59 59l6 -4q18 -35 43 -57.5t48 -22.5q53 15 53 94 q0 22 -5 61t-11 76.5t-17.5 108.5t-19.5 123q-6 38 -16 97.5t-14.5 88.5t-8.5 62.5t-4 54.5q0 57 19 99.5t51 65t68 33t77 10.5q54 0 88.5 -24.5t34.5 -57.5q0 -43 -62 -61l-6 4q-17 45 -43 71.5t-53 26.5z" />
<glyph unicode="&#x2248;" d="M426 389q-22 0 -133.5 26t-126.5 26q-10 0 -59 -59l-41 26q18 31 29.5 49t33 38t41.5 20q22 0 133 -26t128 -26q10 0 59 59l41 -27q-17 -31 -29 -49t-34 -37.5t-42 -19.5zM426 176q-22 0 -133.5 26t-126.5 26q-11 0 -59 -59l-41 27q18 31 29.5 49t33 38t41.5 20 q22 0 133 -26t128 -26q10 0 59 59l41 -27q-13 -23 -21.5 -36.5t-23 -32.5t-29.5 -28.5t-31 -9.5z" />
<glyph unicode="&#x2260;" d="M142 120l44 92h-108v65q42 1 141 3l61 129h-202v66q159 3 235 3l55 117l11 3l56 -29l-43 -90q26 0 65.5 0.5t52.5 0.5l8 -8l-8 -63h-151l-62 -128q82 1 213 1l8 -8l-8 -62h-246l-58 -121l-6 -2z" />
<glyph unicode="&#x2264;" d="M512 625v-73l-323 -133l324 -132v-73q-16 8 -219.5 90.5t-222.5 92.5l-2 40l4 6q13 5 208 87.5t231 94.5zM508 75h-432v65q162 5 432 5l8 -8z" />
<glyph unicode="&#x2265;" d="M80 212v73l323 136l-322 129v73q425 -172 437 -177l4 -7l1 -39zM519 75h-432v65q162 5 432 5l8 -8z" />
<glyph unicode="&#x25ca;" horiz-adv-x="608" d="M49 323v38l212 329l78 10l219 -340v-37l-215 -323l-77 -10zM301 639l-182 -297l182 -290h3l185 290l-185 297h-3z" />
<glyph unicode="&#x25fc;" horiz-adv-x="500" d="M0 500h500v-500h-500v500z" />
<glyph unicode="&#x2c7c;" horiz-adv-x="267" d="M135 399q-27 0 -43.5 16.5t-16.5 41.5q0 29 21.5 49.5t51.5 20.5q24 0 40 -15.5t16 -40.5q0 -30 -19.5 -51t-49.5 -21zM23 -257q65 80 65 207v310l-52 19l-2 11q63 29 151 36l7 -6v-398q0 -72 -45.5 -122.5t-111.5 -70.5z" />
<glyph unicode="&#xa7b6;" horiz-adv-x="837" d="M347 0h-314q-8 56 -8 93q0 56 11 95h24l31 -62q17 -44 36 -74q31 -7 85 -7h82q-183 122 -182 326q-1 144 84.5 235.5t225.5 91.5q135 0 218.5 -91.5t83.5 -235.5q0 -203 -182 -326h82q52 0 86 7q25 48 35 74l32 62h24q10 -46 10 -95q0 -50 -8 -93h-313l-21 47 q122 120 122 313q0 133 -44 212t-124 79q-85 0 -132 -79t-45 -212q-3 -191 121 -313z" />
<glyph unicode="&#xfb01;" horiz-adv-x="645" d="M226 47l77 -29l-2 -18h-267l-2 18l37 15q18 8 25 18.5t7 30.5v360h-67l-2 18l69 27v22q0 106 71 177.5t175 71.5q78 0 132 -32.5t54 -77.5q0 -25 -15.5 -39.5t-41.5 -14.5q-30 0 -50 10q-25 111 -95 111q-49 0 -77 -40t-28 -112v-79h209q59 20 107 24l9 -9v-452l69 -29 l-2 -18h-259l-2 18l37 15q18 8 25 18.5t7 30.5v360h-200v-395z" />
<glyph unicode="&#xfb02;" horiz-adv-x="645" d="M226 47l77 -29l-2 -18h-267l-2 18l37 15q18 8 25 18.5t7 30.5v360h-67l-2 18l69 27v32q0 102 69.5 170.5t173.5 68.5q53 0 100 -18q55 15 98 18l9 -8v-703l69 -29l-2 -18h-259l-2 18l37 15q18 8 25 18.5t7 30.5v360h-200v-395zM226 577v-93h200v163q-30 68 -95 68 q-50 0 -77.5 -36t-27.5 -102z" />
<glyph unicode="&#xfb06;" horiz-adv-x="845" d="M662 581q0 -47 -31 -97h168v-42h-148v-273q0 -95 70 -95q50 0 93 41l14 -12q-25 -49 -68 -81t-102 -32q-132 0 -132 158v294h-65l-2 20q89 37 89 117q0 39 -27.5 64.5t-70.5 25.5q-62 0 -100.5 -49.5t-38.5 -119.5q41 -11 66 -36t25 -53q0 -21 -13.5 -34t-34.5 -13 q-27 0 -50.5 27t-30.5 71q-11 3 -22 3q-33 0 -54.5 -18.5t-21.5 -48.5q0 -32 24 -57t58.5 -43.5t69.5 -39t59 -52.5t24 -74q0 -67 -58 -104.5t-155 -37.5q-46 0 -88 8t-54 20q-14 16 -14 58q0 54 26 92l15 -2q12 -68 43 -102q29 -31 80 -31q37 0 58 18.5t21 48.5 q0 32 -24 57.5t-58.5 44t-69 38.5t-58.5 52.5t-24 74.5q0 63 59 102t143 39q12 0 18 -1q3 93 65.5 158t157.5 65q76 0 122.5 -42t46.5 -107z" />
<glyph horiz-adv-x="490" d="M88 -78l-7 6v527l-52 19l-2 11q63 28 150 36l8 -6v-238q46 49 115 49q70 0 112 -53t42 -141q0 -97 -53.5 -153.5t-143.5 -56.5q-53 0 -94 19zM241 -43q51 0 78 42t27 117q0 71 -23.5 110.5t-68.5 39.5q-37 0 -69 -26v-268q23 -15 56 -15z" />
<glyph horiz-adv-x="392" d="M374 227q0 -23 -15 -37t-40 -14q-16 0 -32 6q0 2 -3 6.5t-3 5.5q0 98 -55 98q-37 0 -60 -39t-23 -102q0 -78 32.5 -119t95.5 -41q54 0 98 31l11 -9q-49 -91 -158 -91q-85 0 -135.5 52t-50.5 140q0 94 55 153t143 59q61 0 100.5 -28.5t39.5 -70.5z" />
<glyph horiz-adv-x="498" d="M246 326q30 0 57 -6v135l-68 19l-2 11q72 29 168 36l7 -6v-483q0 -55 40 -55q8 0 30 4l4 -9q-33 -50 -96 -50q-60 0 -78 53q-44 -53 -116 -53q-70 0 -113 52t-43 139q0 98 59 155.5t151 57.5zM253 292q-51 0 -80.5 -42t-29.5 -119q0 -72 25.5 -113t68.5 -41q41 0 66 27 v272q-20 16 -50 16z" />
<glyph horiz-adv-x="294" d="M200 -32l73 -23l-2 -15h-230l-2 15l31 11q25 12 25 40v277h-54l-2 15l56 22v17q0 82 56.5 138t136.5 56q52 0 87 -25.5t35 -60.5q0 -21 -14.5 -33.5t-36.5 -12.5q-15 0 -33 8q-3 46 -15 68t-38 22q-34 0 -53.5 -32t-19.5 -89v-59h102v-34h-102v-305z" />
<glyph horiz-adv-x="432" d="M55 178q0 63 48.5 105.5t122.5 42.5q57 0 97 -26q15 28 37 45.5t41 17.5q27 0 27 -35q0 -23 -4 -32q-3 -11 -19 -11q-6 0 -28 -0.5t-33 -1.5q36 -38 36 -93q0 -64 -46 -105.5t-120 -41.5q-14 0 -38 4q-9 -14 -9 -27q0 -15 10.5 -21t35.5 -8l76 -6q64 -5 99 -32.5 t35 -76.5q0 -64 -60.5 -105.5t-159.5 -41.5q-74 0 -120.5 24t-46.5 65q0 27 23 47t57 25l8 -7q-7 -8 -7 -19q1 -46 36.5 -73.5t90.5 -27.5q48 0 78 20t30 50q0 50 -73 58l-93 10q-91 10 -91 73q0 50 53 80q-43 15 -68 47.5t-25 76.5zM275 183q0 111 -56 111q-60 0 -60 -107 q0 -110 59 -112q57 0 57 108z" />
<glyph horiz-adv-x="286" d="M142 397q-26 0 -42.5 17t-16.5 42q0 29 21 49.5t51 20.5q24 0 40.5 -16t16.5 -40q0 -30 -20 -51.5t-50 -21.5zM200 -32l56 -23l-1 -15h-214l-2 15l31 11q25 12 25 40v264l-52 19l-2 11q66 29 152 36l7 -6v-352z" />
<glyph horiz-adv-x="487" d="M408 -226l56 -23l-1 -14h-214l-2 14l30 12q26 11 26 39v168q-44 -49 -111 -48q-70 1 -113 51.5t-43 139.5q0 100 57.5 156.5t143.5 56.5q51 0 89 -19l75 19l7 -5v-547zM253 292q-51 0 -80.5 -42.5t-29.5 -119.5q0 -71 25.5 -112t66.5 -41q43 0 68 27v272q-22 16 -50 16z " />
<glyph horiz-adv-x="363" d="M200 -32l73 -23l-2 -15h-230l-2 15l31 11q25 12 25 40v264l-52 19l-2 11q66 29 152 36l7 -6v-61q51 67 104 67q24 0 39.5 -13.5t15.5 -36.5q0 -33 -30 -63q-11 0 -12 -1q-33 30 -76 35q-20 0 -41 -21v-258z" />
<glyph horiz-adv-x="540" d="M88 47v213l-52 19l-2 11q63 29 151 36l7 -6v-262q0 -78 71 -78q39 0 75 25v255l-52 19l-2 11q63 29 151 36l7 -6v-288q0 -55 38 -55q16 0 33 4l3 -9q-34 -50 -96 -50q-59 0 -77 51q-56 -51 -128 -51q-60 0 -93.5 32.5t-33.5 92.5z" />
<glyph horiz-adv-x="441" d="M371 253l-121 -323h-65l-120 323q-8 21 -26 33q-3 4 -35 18l1 14h219l2 -14l-58 -22l87 -260l89 260l-57 22l1 14h147l2 -14q-34 -13 -38 -16q-18 -11 -28 -35z" />
<glyph horiz-adv-x="655" d="M388 318l101 -279l68 243l-59 22l2 14h149l2 -14q-31 -10 -39 -16q-20 -13 -27 -35l-99 -323h-65l-95 254l-97 -254h-66l-98 323q-7 22 -26 33q-4 5 -35 18l1 14h217l2 -14l-56 -22l67 -242l103 278h50z" />
<glyph horiz-adv-x="445" d="M9 318h217l1 -14l-56 -22l87 -255l90 255l-60 22l2 14h149l2 -14q-33 -12 -39 -17q-19 -12 -26 -34l-131 -349q-35 -93 -71 -134t-83 -41q-28 0 -45 17t-17 43q0 21 11 40l7 2q26 -15 50 -15q38 0 73 31t54 82l-34 -3l-121 327q-11 25 -26 33q-4 5 -36 18z" />
<glyph horiz-adv-x="407" d="M370 -13q-2 -37 -6 -57h-321l-7 34l223 321h-137l-56 -99h-14q-11 33 -11 76q0 29 6 56h317l8 -33l-225 -321h141l56 99h15q11 -36 11 -76z" />
<glyph horiz-adv-x="464" d="M241 766q65 0 100.5 -32t35.5 -94q0 -15 -2 -83t-2 -88q0 -29 9 -40.5t30 -11.5q15 0 31 4l4 -10q-34 -49 -95 -49q-31 0 -52 14t-27 38q-47 -52 -123 -52q-48 0 -77 24t-29 65q0 58 62 92.5t166 36.5v42t0.5 35t0.5 14q0 61 -56 61q-29 0 -47 -17.5t-18 -47.5 q0 -18 4 -34q-23 -12 -48 -12q-49 0 -49 37q0 38 56.5 73t125.5 35zM149 470q0 -53 54 -53q41 0 68 27q0 67 1 111q-58 -4 -90.5 -26t-32.5 -59z" />
<glyph horiz-adv-x="490" d="M88 362l-7 5v527l-52 20l-2 11q68 29 150 36l8 -7v-237q47 49 115 49q70 0 112 -53t42 -142q0 -96 -53.5 -152.5t-143.5 -56.5q-53 0 -94 19zM241 396q51 0 78 42.5t27 117.5q0 71 -23.5 110.5t-68.5 39.5q-38 0 -69 -27v-268q26 -15 56 -15z" />
<glyph horiz-adv-x="392" d="M374 667q0 -24 -15 -37.5t-40 -13.5q-16 0 -32 6q0 2 -3 6.5t-3 5.5q0 98 -55 98q-37 0 -60 -39.5t-23 -102.5q0 -78 32.5 -119t95.5 -41q53 0 98 32l11 -10q-49 -90 -158 -90q-85 0 -135.5 52t-50.5 139q0 94 55 153.5t143 59.5q61 0 100.5 -28.5t39.5 -70.5z" />
<glyph horiz-adv-x="496" d="M246 766q30 0 57 -6v134l-68 20l-2 11q72 29 168 36l7 -7v-482q0 -29 9 -42t31 -13q15 0 30 4l4 -10q-33 -49 -96 -49q-61 0 -78 53q-44 -53 -116 -53q-70 0 -113 51.5t-43 139.5q0 98 59 155.5t151 57.5zM253 732q-51 0 -80.5 -42t-29.5 -119q0 -72 25.5 -113t68.5 -41 q40 0 66 26v273q-22 16 -50 16z" />
<glyph horiz-adv-x="413" d="M383 452q-49 -90 -159 -90q-86 0 -137 52.5t-51 140.5q0 93 54.5 152t137.5 59q69 0 112.5 -40.5t43.5 -109.5q0 -27 -1 -39l-10 -10h-229q11 -137 124 -137q57 0 104 32zM223 732q-37 0 -58.5 -38.5t-21.5 -97.5l136 4q0 4 0.5 14.5t0.5 16.5q0 101 -57 101z" />
<glyph horiz-adv-x="294" d="M200 407l73 -23l-2 -14h-230l-2 14l31 12q25 11 25 40v277h-54l-2 14l56 22v18q0 81 57 137.5t136 56.5q52 0 87 -25.5t35 -60.5q0 -21 -14.5 -33.5t-36.5 -12.5q-15 0 -33 8q-3 46 -15 68t-38 22q-34 0 -53.5 -32t-19.5 -89v-59h102v-34h-102v-306z" />
<glyph horiz-adv-x="432" d="M55 617q0 64 48.5 106.5t122.5 42.5q56 0 97 -27q15 29 37.5 46.5t40.5 17.5q27 0 27 -36q0 -22 -4 -31q-3 -11 -19 -12q-41 0 -61 -2q36 -36 36 -92q0 -65 -46 -106t-120 -41q-20 0 -38 3q-9 -13 -9 -26q0 -15 10.5 -21.5t35.5 -8.5l76 -6q64 -4 99 -32t35 -77 q0 -64 -61 -105.5t-159 -41.5q-74 0 -120.5 24.5t-46.5 64.5q0 27 23 47t57 26l8 -7q-7 -8 -7 -20q1 -46 36.5 -73t90.5 -27q48 0 78 20t30 50q0 48 -73 58l-93 10q-91 10 -91 72q0 51 53 81q-43 14 -68 47t-25 76zM275 622q0 112 -56 112q-60 0 -60 -107q0 -112 59 -112 q57 0 57 107z" />
<glyph horiz-adv-x="528" d="M192 407l56 -23l-1 -14h-214l-2 14l31 12q25 11 25 40v458l-52 20l-2 11q70 29 152 36l7 -7v-240q62 52 133 52q56 0 86 -30t30 -87v-242l56 -23l-1 -14h-214l-2 14l31 12q25 11 25 40v201q0 69 -64 69q-40 0 -80 -26v-273z" />
<glyph horiz-adv-x="267" d="M135 838q-26 0 -43 17t-17 42q0 28 21.5 49t51.5 21q24 0 40 -16t16 -41q0 -30 -19.5 -51t-49.5 -21zM23 182q65 80 65 208v309l-52 20l-2 11q68 29 151 36l7 -7v-397q0 -73 -45.5 -123.5t-111.5 -70.5z" />
<glyph horiz-adv-x="495" d="M192 407l56 -23l-1 -14h-214l-2 14l31 12q25 11 25 40v459l-52 19l-2 11q66 29 152 36l7 -6v-367h56l102 132l-67 24l2 14h182l2 -14q-4 -2 -23 -9.5t-25 -11.5q-18 -9 -45 -36l-57 -60l104 -184q21 -35 43 -46l25 -11l-1 -16h-93q-29 0 -45 11t-29 37l-75 136h-56v-147z " />
<glyph horiz-adv-x="278" d="M192 407l56 -23l-1 -14h-214l-2 14l31 12q25 11 25 40v459l-52 19l-2 11q66 29 152 36l7 -6v-548z" />
<glyph horiz-adv-x="778" d="M200 407l56 -23l-1 -14h-214l-2 14l31 12q25 11 25 40v263l-52 20l-2 11q70 29 152 36l7 -7v-45q63 52 132 52q77 0 103 -59q65 59 139 59q56 0 86.5 -30t30.5 -87v-242l56 -23l-2 -14h-213l-2 14l31 12q25 11 25 40v201q0 69 -64 69q-38 0 -79 -25q2 -20 2 -32v-242 l57 -23l-1 -14h-214l-2 14l30 12q26 11 26 40v201q0 69 -62 69q-38 0 -79 -26v-273z" />
<glyph horiz-adv-x="446" d="M410 565q0 -92 -53 -147.5t-138 -55.5q-82 -1 -132.5 54t-50.5 149q0 91 54.5 146t137.5 55q81 0 131.5 -54.5t50.5 -146.5zM143 564q0 -168 78 -168q42 0 61.5 39t19.5 128q0 169 -76 169q-83 0 -83 -168z" />
<glyph horiz-adv-x="497" d="M192 214l73 -23l-2 -15h-230l-2 15l30 11q26 11 26 40v457l-52 20l-2 11q70 29 152 36l7 -7v-43q45 50 115 50q71 0 112.5 -53t41.5 -141q0 -98 -56.5 -154t-153.5 -56q-34 0 -59 4v-152zM251 396q47 0 74.5 42.5t27.5 115.5q0 152 -92 152q-37 0 -69 -27v-267 q23 -16 59 -16z" />
<glyph horiz-adv-x="487" d="M408 214l56 -23l-1 -15h-214l-2 15l30 11q26 11 26 40v168q-44 -49 -111 -48q-70 0 -113 50t-43 140q0 100 57.5 157t143.5 57q48 0 89 -19l75 19l7 -5v-547zM253 732q-51 0 -80.5 -42.5t-29.5 -119.5q0 -72 25.5 -112.5t66.5 -40.5q44 0 68 26v273q-24 16 -50 16z" />
<glyph horiz-adv-x="363" d="M200 407l73 -23l-2 -14h-230l-2 14l31 12q25 11 25 40v263l-52 20l-2 11q70 29 152 36l7 -7v-61q51 68 104 68q24 0 39.5 -13.5t15.5 -36.5q0 -32 -30 -64h-12q-33 30 -76 35q-21 0 -41 -22v-258z" />
<glyph horiz-adv-x="375" d="M164 362q-93 0 -117 22q-11 13 -11 46q0 44 22 72l12 -1q9 -53 36 -80q22 -25 65 -25q30 0 46.5 13.5t16.5 37.5q0 29 -30 53t-65.5 39t-65.5 44.5t-30 69.5q0 52 48 82.5t121 30.5q36 0 67.5 -6.5t40.5 -14.5q9 -7 9 -36q0 -48 -23 -78l-12 1q-11 54 -30 75 q-23 25 -55 25q-28 0 -44.5 -14t-16.5 -38t19.5 -43t48 -33.5t56.5 -30.5t47.5 -41t19.5 -58q0 -54 -47.5 -83t-127.5 -29z" />
<glyph horiz-adv-x="345" d="M333 452q-48 -90 -140 -90q-109 0 -109 124v227h-59l-2 14l61 33l88 109l16 -1v-121h121v-34h-121v-210q0 -73 58 -73q39 0 76 32z" />
<glyph horiz-adv-x="539" d="M89 486v213l-52 20l-2 11q68 29 151 36l7 -7v-261q0 -78 71 -78q39 0 75 25v254l-52 20l-2 11q68 29 151 36l7 -7v-287q0 -55 38 -55q16 0 33 4l3 -10q-34 -49 -96 -49q-59 0 -77 51q-56 -51 -128 -51q-60 0 -93.5 32.5t-33.5 91.5z" />
<glyph horiz-adv-x="441" d="M371 693l-121 -323h-65l-120 322q-8 22 -26 34q-4 4 -35 18l1 14h219l2 -14l-58 -22l87 -260l89 260l-57 22l1 14h147l2 -14q-1 -1 -17.5 -7t-20.5 -10q-18 -10 -28 -34z" />
<glyph horiz-adv-x="655" d="M388 758l101 -280l68 244l-59 22l2 14h149l2 -14q-3 -1 -12 -4.5t-16.5 -6.5t-10.5 -6q-20 -11 -27 -34l-99 -323h-65l-95 254l-97 -254h-66l-98 322q-6 23 -26 34q-4 4 -19 11l-16 7l1 14h217l2 -14l-56 -22l67 -242l103 278h50z" />
<glyph horiz-adv-x="447" d="M173 722l86 -122l79 120l-56 24l1 14h155l1 -14q-38 -19 -41 -22q-13 -8 -33 -35l-88 -112l100 -139q16 -26 31 -35q3 -2 10 -5.5t14.5 -7t10.5 -4.5l-1 -14h-214l-2 14l53 22l-89 124l-79 -123l56 -23l-1 -14h-161l-1 14q41 19 44 21q13 8 36 35l89 114l-100 138 q-17 24 -31 33q-3 3 -9.5 6.5t-14.5 7.5l-10 5l1 14h214l2 -14z" />
<glyph horiz-adv-x="445" d="M9 758h217l1 -14l-56 -22l87 -256l90 256l-60 22l2 14h149l2 -14q-33 -12 -39 -17q-20 -14 -26 -34l-131 -350q-35 -92 -71 -133.5t-83 -41.5q-28 0 -45 17t-17 44q0 20 11 39l7 3q26 -15 50 -15q38 0 73 31t54 81l-34 -3l-121 327q-11 24 -26 34q-5 5 -36 18z" />
<glyph horiz-adv-x="407" d="M370 427q-2 -37 -6 -57h-321l-7 33l223 321h-137l-56 -99h-14q-11 33 -11 77q0 29 6 56h317l8 -34l-225 -321h141l56 99h15q11 -36 11 -75z" />
<glyph horiz-adv-x="1083" d="M687 47l69 -29l-2 -18h-259l-2 18l37 15q32 15 32 49v597q-77 -17 -136 -65.5t-76 -114.5q45 -13 72.5 -41.5t27.5 -63.5q0 -28 -18 -45t-45 -17q-34 0 -58 31.5t-24 82.5q0 13 1 18q-5 1 -15 1q-53 0 -87 -56t-34 -134q0 -96 41.5 -148.5t116.5 -52.5q67 0 119 41 l14 -12q-61 -113 -193 -113q-104 0 -165.5 67t-61.5 181q0 119 69.5 194.5t176.5 75.5q17 0 25 -1q23 103 121.5 169t244.5 82l9 -9v-307q76 66 162 66q68 0 104.5 -39t36.5 -112v-310l69 -29l-2 -18h-259l-2 18l37 15q32 15 32 49v261q0 91 -79 91q-49 0 -99 -34v-353z" />
<glyph horiz-adv-x="880" d="M493 462q89 33 89 116q0 40 -26.5 65.5t-68.5 25.5q-63 0 -105 -50.5t-47 -115.5q51 -11 83 -41.5t32 -67.5q0 -28 -18 -45t-45 -17q-36 0 -62.5 37t-30.5 96h-4q-52 0 -86 -56.5t-34 -133.5q0 -96 41.5 -148.5t116.5 -52.5q67 0 119 41l14 -12q-61 -113 -193 -113 q-104 0 -165.5 67.5t-61.5 181.5q0 118 69 193.5t176 75.5h9q9 93 73 157.5t159 64.5q76 0 123 -42t47 -107q0 -51 -30 -97h167v-42h-149v-273q0 -95 71 -95q49 0 93 41l14 -12q-25 -49 -68 -81t-102 -32q-64 0 -98.5 40t-34.5 118v294h-65z" />
<glyph horiz-adv-x="1047" d="M253 465q-34 0 -56 -19t-22 -50t24 -55.5t58.5 -43t69.5 -38.5t59 -52.5t24 -74.5q0 -67 -58 -104.5t-155 -37.5q-46 0 -88 8t-54 20q-14 16 -14 58q0 54 26 92l15 -2q12 -68 43 -102q29 -31 80 -31q37 0 58 18.5t21 48.5q0 32 -24 57.5t-58.5 44t-69 38.5t-58.5 52.5 t-24 74.5q0 63 60 102t145 39q12 0 32 -2q21 101 117 167.5t238 84.5l8 -9v-307q78 66 163 66q68 0 104 -39t36 -112v-310l69 -29l-2 -18h-259l-2 18l37 15q18 8 25 18.5t7 30.5v261q0 91 -79 91q-47 0 -99 -34v-353l69 -29l-2 -18h-259l-2 18l37 15q18 8 25 18.5t7 30.5 v596q-72 -18 -127.5 -66.5t-72.5 -115.5q35 -12 56.5 -35t21.5 -50q0 -21 -13 -34t-32 -13q-31 0 -53.5 25.5t-22.5 62.5v9q-12 4 -29 4z" />
<glyph horiz-adv-x="604" d="M264 538h75l181 -463q7 -19 14.5 -26t25.5 -17l32 -12l-2 -20h-255l-2 20l67 22l-42 109l-198 -2l-40 -106l63 -23l-2 -20h-167l-2 20q5 3 22 9.5t22 10.5q19 11 27 34zM175 189l169 -2l-84 221z" />
<glyph horiz-adv-x="604" d="M430 759q0 -33 -59.5 -75.5t-145.5 -74.5l-12 15q79 99 116 173l9 5q7 1 22 1q70 0 70 -44zM264 538h75l181 -463q7 -19 14.5 -26t25.5 -17l32 -12l-2 -20h-255l-2 20l67 22l-42 109l-198 -2l-40 -106l63 -23l-2 -20h-167l-2 20q5 3 22 9.5t22 10.5q19 11 27 34zM175 189 l169 -2l-84 221z" />
<glyph horiz-adv-x="604" d="M420 784l5 2l17 -4q-7 -70 -46 -112t-95 -42q-57 0 -93 42t-40 113l21 3q9 -35 40.5 -55.5t77.5 -20.5q41 0 71.5 20t41.5 54zM264 538h75l181 -463q7 -19 14.5 -26t25.5 -17l32 -12l-2 -20h-255l-2 20l67 22l-42 109l-198 -2l-40 -106l63 -23l-2 -20h-167l-2 20 q5 3 22 9.5t22 10.5q19 11 27 34zM175 189l169 -2l-84 221z" />
<glyph horiz-adv-x="604" d="M345 622l-9 -7h-74q-56 82 -108 174l15 10q66 -51 135 -98q84 64 137 98l13 -13q-75 -106 -109 -164zM264 538h75l181 -463q7 -19 14.5 -26t25.5 -17l32 -12l-2 -20h-255l-2 20l67 22l-42 109l-198 -2l-40 -106l63 -23l-2 -20h-167l-2 20q5 3 22 9.5t22 10.5q19 11 27 34 zM175 189l169 -2l-84 221z" />
<glyph horiz-adv-x="604" d="M454 624l-15 -10q-78 61 -135 98q-74 -57 -137 -98l-13 13q75 106 109 164l9 7h74q61 -89 108 -174zM264 538h75l181 -463q7 -19 14.5 -26t25.5 -17l32 -12l-2 -20h-255l-2 20l67 22l-42 109l-198 -2l-40 -106l63 -23l-2 -20h-167l-2 20q5 3 22 9.5t22 10.5q19 11 27 34z M175 189l169 -2l-84 221z" />
<glyph horiz-adv-x="604" d="M483 714q0 -33 -20.5 -55.5t-52.5 -22.5q-27 0 -44 18.5t-17 44.5q0 32 22 55t53 23q25 0 42 -17.5t17 -45.5zM262 714q0 -33 -20.5 -55.5t-52.5 -22.5q-27 0 -44 18.5t-17 44.5q0 32 22 55t53 23q25 0 42 -17.5t17 -45.5zM264 538h75l181 -463q7 -19 14.5 -26t25.5 -17 l32 -12l-2 -20h-255l-2 20l67 22l-42 109l-198 -2l-40 -106l63 -23l-2 -20h-167l-2 20q5 3 22 9.5t22 10.5q19 11 27 34zM175 189l169 -2l-84 221z" />
<glyph horiz-adv-x="604" d="M264 538h75l181 -463q7 -19 14.5 -26t25.5 -17l32 -12l-2 -20h-255l-2 20l67 22l-42 109l-198 -2l-40 -106l63 -23l-2 -20h-167l-2 20q5 3 22 9.5t22 10.5q19 11 27 34zM175 189l169 -2l-84 221zM342 -157q0 -36 -22.5 -60t-57.5 -24q-30 0 -49.5 19.5t-19.5 49.5 q0 33 25 57.5t59 24.5q28 0 46.5 -18.5t18.5 -48.5z" />
<glyph horiz-adv-x="604" d="M399 624l-11 -15q-86 32 -146 74.5t-60 75.5q0 44 71 44q15 0 22 -1l8 -5q37 -74 116 -173zM264 538h75l181 -463q7 -19 14.5 -26t25.5 -17l32 -12l-2 -20h-255l-2 20l67 22l-42 109l-198 -2l-40 -106l63 -23l-2 -20h-167l-2 20q5 3 22 9.5t22 10.5q19 11 27 34zM175 189 l169 -2l-84 221z" />
<glyph horiz-adv-x="604" d="M147 668v63h313v-63h-313zM264 538h75l181 -463q7 -19 14.5 -26t25.5 -17l32 -12l-2 -20h-255l-2 20l67 22l-42 109l-198 -2l-40 -106l63 -23l-2 -20h-167l-2 20q5 3 22 9.5t22 10.5q19 11 27 34zM175 189l169 -2l-84 221z" />
<glyph horiz-adv-x="604" d="M264 538h75l181 -463q7 -19 14.5 -26t25.5 -17l32 -12l-2 -20q-55 -23 -85.5 -57t-30.5 -69q0 -23 13.5 -36t38.5 -13q17 0 47 5l4 -12q-38 -59 -111 -59q-42 0 -68 24.5t-26 65.5q0 101 161 151h-198l-2 20l67 22l-42 109l-198 -2l-40 -106l63 -23l-2 -20h-167l-2 20 q5 3 22 9.5t22 10.5q19 11 27 34zM175 189l169 -2l-84 221z" />
<glyph horiz-adv-x="604" d="M299 619q-44 0 -71 23t-27 61q0 40 30 65.5t76 25.5q43 0 70.5 -23.5t27.5 -59.5q-1 -40 -30.5 -66t-75.5 -26zM303 761q-21 0 -35 -16.5t-14 -40.5q0 -23 13.5 -37.5t34.5 -14.5q22 0 35.5 16.5t13.5 41.5q0 22 -13.5 36.5t-34.5 14.5zM264 538h75l181 -463 q7 -19 14.5 -26t25.5 -17l32 -12l-2 -20h-255l-2 20l67 22l-42 109l-198 -2l-40 -106l63 -23l-2 -20h-167l-2 20q5 3 22 9.5t22 10.5q19 11 27 34zM175 189l169 -2l-84 221z" />
<glyph horiz-adv-x="604" d="M424 991q0 -33 -59.5 -75.5t-145.5 -73.5l-11 14q77 96 115 173l9 5q7 1 22 1q70 0 70 -44zM299 619q-44 0 -71 23t-27 61q0 40 30 65.5t76 25.5q43 0 70.5 -23.5t27.5 -59.5q-1 -40 -30.5 -66t-75.5 -26zM303 761q-21 0 -35 -16.5t-14 -40.5q0 -23 13.5 -37.5 t34.5 -14.5q22 0 35.5 16.5t13.5 41.5q0 22 -13.5 36.5t-34.5 14.5zM264 538h75l181 -463q7 -19 14.5 -26t25.5 -17l32 -12l-2 -20h-255l-2 20l67 22l-42 109l-198 -2l-40 -106l63 -23l-2 -20h-167l-2 20q5 3 22 9.5t22 10.5q19 11 27 34zM175 189l169 -2l-84 221z" />
<glyph horiz-adv-x="604" d="M145 642l-18 5q-1 6 -1 17q3 53 27 85.5t68 32.5q36 0 112.5 -27.5t83.5 -29.5l21 26q22 26 26 34l18 -6q1 -7 1 -21q-3 -51 -26.5 -82t-67.5 -31q-27 0 -64 11t-77 26.5t-55 19.5zM264 538h75l181 -463q7 -19 14.5 -26t25.5 -17l32 -12l-2 -20h-255l-2 20l67 22l-42 109 l-198 -2l-40 -106l63 -23l-2 -20h-167l-2 20q5 3 22 9.5t22 10.5q19 11 27 34zM175 189l169 -2l-84 221z" />
<glyph horiz-adv-x="809" d="M14 0l-2 20q5 3 22 9.5t22 10.5q19 11 27 34l163 416l-70 28l2 20h572q6 -37 6 -82q0 -58 -9 -105h-22l-30 70q-23 53 -34 72q-60 3 -67 3h-85v-212l166 7l-1 -55l-165 7v-201h93q38 0 67 3q13 23 35 72l29 70h22q10 -52 10 -100q0 -40 -7 -87h-441l-2 20l38 15 q31 12 31 47v163l-188 -3l-77 -199l64 -23l-2 -20h-167zM384 496h-91l-82 -214l173 -1v215z" />
<glyph horiz-adv-x="809" d="M601 759q0 -33 -59.5 -75.5t-145.5 -74.5l-12 15q79 99 116 173l8 5q8 1 23 1q70 0 70 -44zM14 0l-2 20q5 3 22 9.5t22 10.5q19 11 27 34l163 416l-70 28l2 20h572q6 -37 6 -82q0 -58 -9 -105h-22l-30 70q-23 53 -34 72q-60 3 -67 3h-85v-212l166 7l-1 -55l-165 7v-201 h93q38 0 67 3q13 23 35 72l29 70h22q10 -52 10 -100q0 -40 -7 -87h-441l-2 20l38 15q31 12 31 47v163l-188 -3l-77 -199l64 -23l-2 -20h-167zM384 496h-91l-82 -214l173 -1v215z" />
<glyph d="M51 518l2 20h255q100 0 156.5 -32.5t56.5 -99.5q0 -47 -32 -79.5t-80 -41.5q151 -32 151 -134q0 -72 -61 -111.5t-164 -39.5h-282l-2 20l38 15q31 12 31 47v374q0 35 -31 47zM290 496h-45v-201h48q48 0 77 27t29 76q0 47 -28 72.5t-81 25.5zM295 256h-50v-214h54 q62 0 97 27.5t35 81.5q0 49 -37 77t-99 28z" />
<glyph horiz-adv-x="571" d="M513 8q-78 -18 -164 -18q-138 0 -221.5 69.5t-83.5 199.5q0 132 85.5 210.5t213.5 78.5q90 0 161 -26q4 -30 4 -60q0 -60 -12 -115l-22 -1q-56 116 -79 151q-22 5 -46 5q-76 0 -126.5 -68t-50.5 -174q0 -100 51.5 -161.5t138.5 -61.5q30 0 49 4q34 58 79 144h22 q7 -35 7 -83q0 -49 -6 -94z" />
<glyph horiz-adv-x="571" d="M453 759q0 -33 -59.5 -75.5t-145.5 -74.5l-12 15q79 99 116 173l9 5q7 1 22 1q70 0 70 -44zM513 8q-78 -18 -164 -18q-138 0 -221.5 69.5t-83.5 199.5q0 132 85.5 210.5t213.5 78.5q90 0 161 -26q4 -30 4 -60q0 -60 -12 -115l-22 -1q-56 116 -79 151q-22 5 -46 5 q-76 0 -126.5 -68t-50.5 -174q0 -100 51.5 -161.5t138.5 -61.5q30 0 49 4q34 58 79 144h22q7 -35 7 -83q0 -49 -6 -94z" />
<glyph horiz-adv-x="571" d="M378 622l-9 -7h-74q-56 82 -108 174l15 10q66 -51 135 -98q84 64 137 98l13 -13q-75 -106 -109 -164zM513 8q-78 -18 -164 -18q-138 0 -221.5 69.5t-83.5 199.5q0 132 85.5 210.5t213.5 78.5q90 0 161 -26q4 -30 4 -60q0 -60 -12 -115l-22 -1q-56 116 -79 151 q-22 5 -46 5q-76 0 -126.5 -68t-50.5 -174q0 -100 51.5 -161.5t138.5 -61.5q30 0 49 4q34 58 79 144h22q7 -35 7 -83q0 -49 -6 -94z" />
<glyph horiz-adv-x="571" d="M299 -110l-5 8l16 93q-122 10 -194 79t-72 189q0 132 85.5 210.5t213.5 78.5q90 0 161 -26q4 -30 4 -60q0 -60 -12 -115l-22 -1q-56 116 -79 151q-22 5 -46 5q-76 0 -126.5 -68t-50.5 -174q0 -100 51.5 -161.5t138.5 -61.5q30 0 49 4q34 58 79 144h22q7 -35 7 -83 q0 -49 -6 -94q-68 -16 -154 -18l-9 -51q52 -7 80.5 -28t28.5 -52q0 -46 -50 -72.5t-137 -28.5l-5 15q82 31 82 73q0 32 -50 44z" />
<glyph horiz-adv-x="571" d="M485 624l-16 -10q-72 57 -134 98q-88 -66 -137 -98l-13 13q75 106 109 164l9 7h73q59 -84 109 -174zM513 8q-78 -18 -164 -18q-138 0 -221.5 69.5t-83.5 199.5q0 132 85.5 210.5t213.5 78.5q90 0 161 -26q4 -30 4 -60q0 -60 -12 -115l-22 -1q-56 116 -79 151q-22 5 -46 5 q-76 0 -126.5 -68t-50.5 -174q0 -100 51.5 -161.5t138.5 -61.5q30 0 49 4q34 58 79 144h22q7 -35 7 -83q0 -49 -6 -94z" />
<glyph horiz-adv-x="571" d="M411 713q0 -36 -22.5 -60t-57.5 -24q-30 0 -49.5 20t-19.5 49q0 33 25 57.5t59 24.5q28 0 46.5 -18.5t18.5 -48.5zM513 8q-78 -18 -164 -18q-138 0 -221.5 69.5t-83.5 199.5q0 132 85.5 210.5t213.5 78.5q90 0 161 -26q4 -30 4 -60q0 -60 -12 -115l-22 -1 q-56 116 -79 151q-22 5 -46 5q-76 0 -126.5 -68t-50.5 -174q0 -100 51.5 -161.5t138.5 -61.5q30 0 49 4q34 58 79 144h22q7 -35 7 -83q0 -49 -6 -94z" />
<glyph horiz-adv-x="648" d="M604 269q0 -129 -81.5 -199t-217.5 -70h-252l-2 20l38 15q31 12 31 47v374q0 35 -31 47l-38 15l2 20h252q138 0 218.5 -69t80.5 -200zM301 496h-56v-454h56q84 0 129 57t45 170q1 113 -44 170t-130 57z" />
<glyph horiz-adv-x="648" d="M604 269q0 -129 -81.5 -199t-217.5 -70h-252l-2 20l38 15q31 12 31 47v170h-93v42h93v162q0 35 -31 47l-38 15l2 20h252q138 0 218.5 -69t80.5 -200zM368 252h-123v-210h56q84 0 129 57t45 170q1 113 -44 170t-130 57h-56v-202h123v-42z" />
<glyph horiz-adv-x="648" d="M363 622l-9 -7h-73q-55 78 -109 174l16 10q61 -49 134 -98q84 64 137 98l13 -13q-75 -106 -109 -164zM604 269q0 -129 -81.5 -199t-217.5 -70h-252l-2 20l38 15q31 12 31 47v374q0 35 -31 47l-38 15l2 20h252q138 0 218.5 -69t80.5 -200zM301 496h-56v-454h56 q84 0 129 57t45 170q1 113 -44 170t-130 57z" />
<glyph horiz-adv-x="648" d="M604 269q0 -129 -81.5 -199t-217.5 -70h-252l-2 20l38 15q31 12 31 47v170h-93v42h93v162q0 35 -31 47l-38 15l2 20h252q138 0 218.5 -69t80.5 -200zM368 252h-123v-210h56q84 0 129 57t45 170q1 113 -44 170t-130 57h-56v-202h123v-42z" />
<glyph horiz-adv-x="648" d="M604 269q0 -129 -81.5 -199t-217.5 -70h-252l-2 20l38 15q31 12 31 47v374q0 35 -31 47l-38 15l2 20h252q138 0 218.5 -69t80.5 -200zM301 496h-56v-454h56q84 0 129 57t45 170q1 113 -44 170t-130 57zM388 -157q0 -36 -22.5 -60t-57.5 -24q-30 0 -49.5 20t-19.5 49 q0 33 25 57.5t59 24.5q28 0 46.5 -18.5t18.5 -48.5z" />
<glyph horiz-adv-x="545" d="M245 284l166 7l-1 -55l-165 7v-201h93q38 0 67 3q17 31 34 72l29 70h22q11 -48 11 -100q0 -40 -7 -87h-441l-2 20l38 15q31 12 31 47v374q0 35 -31 47l-38 15l2 20h432q7 -35 7 -82q0 -61 -10 -105h-22l-29 70q-23 53 -34 72q-60 3 -67 3h-85v-212z" />
<glyph horiz-adv-x="545" d="M420 759q0 -33 -59.5 -75.5t-145.5 -74.5l-11 15q77 96 115 173l9 5q7 1 22 1q70 0 70 -44zM245 284l166 7l-1 -55l-165 7v-201h93q38 0 67 3q17 31 34 72l29 70h22q11 -48 11 -100q0 -40 -7 -87h-441l-2 20l38 15q31 12 31 47v374q0 35 -31 47l-38 15l2 20h432 q7 -35 7 -82q0 -61 -10 -105h-22l-29 70q-23 53 -34 72q-60 3 -67 3h-85v-212z" />
<glyph horiz-adv-x="545" d="M410 784l5 2l17 -4q-7 -70 -45.5 -112t-95.5 -42q-56 0 -92 42t-40 113l20 3q9 -35 40.5 -55.5t77.5 -20.5q41 0 72 20t41 54zM245 284l166 7l-1 -55l-165 7v-201h93q38 0 67 3q17 31 34 72l29 70h22q11 -48 11 -100q0 -40 -7 -87h-441l-2 20l38 15q31 12 31 47v374 q0 35 -31 47l-38 15l2 20h432q7 -35 7 -82q0 -61 -10 -105h-22l-29 70q-23 53 -34 72q-60 3 -67 3h-85v-212z" />
<glyph horiz-adv-x="545" d="M336 622l-9 -7h-74q-58 83 -108 174l15 10q61 -49 134 -98q97 73 137 98l14 -13q-76 -103 -109 -164zM245 284l166 7l-1 -55l-165 7v-201h93q38 0 67 3q17 31 34 72l29 70h22q11 -48 11 -100q0 -40 -7 -87h-441l-2 20l38 15q31 12 31 47v374q0 35 -31 47l-38 15l2 20h432 q7 -35 7 -82q0 -61 -10 -105h-22l-29 70q-23 53 -34 72q-60 3 -67 3h-85v-212z" />
<glyph horiz-adv-x="545" d="M444 624l-15 -10q-78 61 -135 98q-74 -57 -137 -98l-13 13q68 94 109 164l9 7h74q68 -99 108 -174zM245 284l166 7l-1 -55l-165 7v-201h93q38 0 67 3q17 31 34 72l29 70h22q11 -48 11 -100q0 -40 -7 -87h-441l-2 20l38 15q31 12 31 47v374q0 35 -31 47l-38 15l2 20h432 q7 -35 7 -82q0 -61 -10 -105h-22l-29 70q-23 53 -34 72q-60 3 -67 3h-85v-212z" />
<glyph horiz-adv-x="545" d="M473 714q0 -33 -20.5 -55.5t-52.5 -22.5q-26 0 -43.5 18.5t-17.5 44.5q0 32 22 55t53 23q26 0 42.5 -17.5t16.5 -45.5zM252 714q0 -33 -20.5 -55.5t-52.5 -22.5q-26 0 -43.5 18.5t-17.5 44.5q0 32 22 55t53 23q26 0 42.5 -17.5t16.5 -45.5zM245 284l166 7l-1 -55l-165 7 v-201h93q38 0 67 3q17 31 34 72l29 70h22q11 -48 11 -100q0 -40 -7 -87h-441l-2 20l38 15q31 12 31 47v374q0 35 -31 47l-38 15l2 20h432q7 -35 7 -82q0 -61 -10 -105h-22l-29 70q-23 53 -34 72q-60 3 -67 3h-85v-212z" />
<glyph horiz-adv-x="545" d="M368 713q0 -36 -22.5 -60t-57.5 -24q-30 0 -49 19.5t-19 49.5q0 33 24.5 57.5t58.5 24.5q29 0 47 -18.5t18 -48.5zM245 284l166 7l-1 -55l-165 7v-201h93q38 0 67 3q17 31 34 72l29 70h22q11 -48 11 -100q0 -40 -7 -87h-441l-2 20l38 15q31 12 31 47v374q0 35 -31 47 l-38 15l2 20h432q7 -35 7 -82q0 -61 -10 -105h-22l-29 70q-23 53 -34 72q-60 3 -67 3h-85v-212z" />
<glyph horiz-adv-x="545" d="M245 284l166 7l-1 -55l-165 7v-201h93q38 0 67 3q17 31 34 72l29 70h22q11 -48 11 -100q0 -40 -7 -87h-441l-2 20l38 15q31 12 31 47v374q0 35 -31 47l-38 15l2 20h432q7 -35 7 -82q0 -61 -10 -105h-22l-29 70q-23 53 -34 72q-60 3 -67 3h-85v-212zM377 -157 q0 -36 -22.5 -60t-57.5 -24q-30 0 -49 19.5t-19 49.5q0 33 24.5 57.5t58.5 24.5q29 0 47 -18.5t18 -48.5z" />
<glyph horiz-adv-x="545" d="M389 624l-11 -15q-86 32 -145.5 74.5t-59.5 75.5q0 44 70 44q15 0 22 -1l9 -5q38 -77 115 -173zM245 284l166 7l-1 -55l-165 7v-201h93q38 0 67 3q17 31 34 72l29 70h22q11 -48 11 -100q0 -40 -7 -87h-441l-2 20l38 15q31 12 31 47v374q0 35 -31 47l-38 15l2 20h432 q7 -35 7 -82q0 -61 -10 -105h-22l-29 70q-23 53 -34 72q-60 3 -67 3h-85v-212z" />
<glyph horiz-adv-x="545" d="M137 668v63h313v-63h-313zM245 284l166 7l-1 -55l-165 7v-201h93q38 0 67 3q17 31 34 72l29 70h22q11 -48 11 -100q0 -40 -7 -87h-441l-2 20l38 15q31 12 31 47v374q0 35 -31 47l-38 15l2 20h432q7 -35 7 -82q0 -61 -10 -105h-22l-29 70q-23 53 -34 72q-60 3 -67 3h-85 v-212z" />
<glyph horiz-adv-x="545" d="M245 284l166 7l-1 -55l-165 7v-201h93q38 0 67 3q17 31 34 72l29 70h22q11 -48 11 -100q0 -40 -7 -87q-55 -23 -85.5 -57t-30.5 -69q0 -23 13.5 -36t38.5 -13q17 0 47 5l4 -12q-38 -59 -111 -59q-42 0 -67.5 24.5t-25.5 65.5q0 102 160 151h-384l-2 20l38 15q31 12 31 47 v374q0 35 -31 47l-38 15l2 20h432q7 -35 7 -82q0 -61 -10 -105h-22l-29 70q-23 53 -34 72q-60 3 -67 3h-85v-212z" />
<glyph horiz-adv-x="545" d="M135 642l-18 5q0 3 -0.5 8.5t-0.5 8.5q3 53 27 85.5t68 32.5q36 0 112.5 -27.5t83.5 -29.5q1 1 22 26.5t26 33.5l17 -6q2 -14 2 -21q-4 -51 -27.5 -82t-67.5 -31q-27 0 -64 11t-77 26.5t-55 19.5zM245 284l166 7l-1 -55l-165 7v-201h93q38 0 67 3q17 31 34 72l29 70h22 q11 -48 11 -100q0 -40 -7 -87h-441l-2 20l38 15q31 12 31 47v374q0 35 -31 47l-38 15l2 20h432q7 -35 7 -82q0 -61 -10 -105h-22l-29 70q-23 53 -34 72q-60 3 -67 3h-85v-212z" />
<glyph horiz-adv-x="588" d="M282 -10q-102 0 -167.5 58t-65.5 155q0 37 1 51l13 14h359q-6 237 -140 237q-50 0 -83.5 -29.5t-33.5 -74.5q0 -14 6 -31q-29 -15 -58 -15q-25 0 -41.5 12.5t-16.5 33.5q0 56 70.5 101.5t161.5 45.5q120 0 192.5 -73.5t72.5 -194.5q0 -128 -77 -209t-193 -81zM175 185 q0 -79 27.5 -115.5t85.5 -36.5q62 0 97.5 55t37.5 144l-247 -7q-1 -11 -1 -40z" />
<glyph horiz-adv-x="509" d="M245 48l87 -28l-2 -20h-277l-2 20l38 15q31 13 31 47v374q0 35 -31 47l-38 15l2 20h429q7 -35 7 -82q0 -61 -10 -105h-22l-29 70q-25 56 -34 72q-57 3 -68 3h-81v-216l163 7l-1 -55l-162 7v-191z" />
<glyph horiz-adv-x="629" d="M359 -10q-145 0 -230 68.5t-85 203.5q0 132 91.5 209t226.5 77q94 0 169 -26q4 -30 4 -59q0 -58 -12 -115l-22 -2q-9 15 -37 73.5t-42 77.5q-40 5 -53 5q-84 0 -140.5 -65.5t-56.5 -172.5q0 -108 53.5 -168t140.5 -60q25 0 55 5v158l-67 29l2 21h237l2 -21l-33 -12 q-22 -9 -22 -46v-154q-76 -26 -181 -26z" />
<glyph horiz-adv-x="629" d="M475 759q0 -33 -59.5 -75.5t-145.5 -74.5l-12 15q79 99 116 173l9 5q7 1 22 1q70 0 70 -44zM359 -10q-145 0 -230 68.5t-85 203.5q0 132 91.5 209t226.5 77q94 0 169 -26q4 -30 4 -59q0 -58 -12 -115l-22 -2q-9 15 -37 73.5t-42 77.5q-40 5 -53 5q-84 0 -140.5 -65.5 t-56.5 -172.5q0 -108 53.5 -168t140.5 -60q25 0 55 5v158l-67 29l2 21h237l2 -21l-33 -12q-22 -9 -22 -46v-154q-76 -26 -181 -26z" />
<glyph horiz-adv-x="629" d="M465 784l5 2l17 -4q-7 -70 -46 -112t-95 -42q-57 0 -93 42t-39 113l20 3q9 -35 40.5 -55.5t77.5 -20.5q41 0 71.5 20t41.5 54zM359 -10q-145 0 -230 68.5t-85 203.5q0 132 91.5 209t226.5 77q94 0 169 -26q4 -30 4 -59q0 -58 -12 -115l-22 -2q-9 15 -37 73.5t-42 77.5 q-40 5 -53 5q-84 0 -140.5 -65.5t-56.5 -172.5q0 -108 53.5 -168t140.5 -60q25 0 55 5v158l-67 29l2 21h237l2 -21l-33 -12q-22 -9 -22 -46v-154q-76 -26 -181 -26z" />
<glyph horiz-adv-x="629" d="M390 622l-9 -7h-74q-56 82 -108 174l15 10q66 -51 135 -98q84 64 137 98l13 -13q-75 -106 -109 -164zM359 -10q-145 0 -230 68.5t-85 203.5q0 132 91.5 209t226.5 77q94 0 169 -26q4 -30 4 -59q0 -58 -12 -115l-22 -2q-9 15 -37 73.5t-42 77.5q-40 5 -53 5 q-84 0 -140.5 -65.5t-56.5 -172.5q0 -108 53.5 -168t140.5 -60q25 0 55 5v158l-67 29l2 21h237l2 -21l-33 -12q-22 -9 -22 -46v-154q-76 -26 -181 -26z" />
<glyph horiz-adv-x="629" d="M496 624l-15 -10q-78 61 -135 98q-74 -57 -137 -98l-13 13q75 106 109 164l9 7h74q61 -89 108 -174zM359 -10q-145 0 -230 68.5t-85 203.5q0 132 91.5 209t226.5 77q94 0 169 -26q4 -30 4 -59q0 -58 -12 -115l-22 -2q-9 15 -37 73.5t-42 77.5q-40 5 -53 5 q-84 0 -140.5 -65.5t-56.5 -172.5q0 -108 53.5 -168t140.5 -60q25 0 55 5v158l-67 29l2 21h237l2 -21l-33 -12q-22 -9 -22 -46v-154q-76 -26 -181 -26z" />
<glyph horiz-adv-x="629" d="M359 -10q-145 0 -230 68.5t-85 203.5q0 132 91.5 209t226.5 77q94 0 169 -26q4 -30 4 -59q0 -58 -12 -115l-22 -2q-9 15 -37 73.5t-42 77.5q-40 5 -53 5q-84 0 -140.5 -65.5t-56.5 -172.5q0 -108 53.5 -168t140.5 -60q25 0 55 5v158l-67 29l2 21h237l2 -21l-33 -12 q-22 -9 -22 -46v-154q-76 -26 -181 -26zM402 -162q0 -52 -35.5 -105t-80.5 -76l-12 10q32 46 44 110q-24 4 -38 21t-14 40q0 31 19.5 51.5t48.5 20.5q32 0 50 -19t18 -53z" />
<glyph horiz-adv-x="629" d="M425 713q0 -36 -22.5 -60t-57.5 -24q-30 0 -49 19.5t-19 49.5q0 33 24.5 57.5t58.5 24.5q28 0 46.5 -18.5t18.5 -48.5zM359 -10q-145 0 -230 68.5t-85 203.5q0 132 91.5 209t226.5 77q94 0 169 -26q4 -30 4 -59q0 -58 -12 -115l-22 -2q-9 15 -37 73.5t-42 77.5 q-40 5 -53 5q-84 0 -140.5 -65.5t-56.5 -172.5q0 -108 53.5 -168t140.5 -60q25 0 55 5v158l-67 29l2 21h237l2 -21l-33 -12q-22 -9 -22 -46v-154q-76 -26 -181 -26z" />
<glyph horiz-adv-x="722" d="M245 48l69 -28l-2 -20h-259l-2 20l38 15q31 13 31 47v408l-69 28l2 20h259l2 -20l-38 -15q-31 -13 -31 -47v-165h232v199l-69 28l2 20h259l2 -20l-38 -15q-31 -13 -31 -47v-408l69 -28l-2 -20h-259l-2 20l38 15q31 12 31 47v164h-232v-198z" />
<glyph horiz-adv-x="722" d="M245 48l69 -28l-2 -20h-259l-2 20l38 15q31 13 31 47v294h-68v42h68v72l-69 28l2 20h259l2 -20l-38 -15q-31 -13 -31 -47v-38h232v72l-69 28l2 20h259l2 -20l-38 -15q-31 -13 -31 -47v-38h67v-42h-67v-328l69 -28l-2 -20h-259l-2 20l38 15q31 12 31 47v164h-232v-198z M245 291h232v85h-232v-85z" />
<glyph horiz-adv-x="722" d="M512 624l-16 -10q-72 57 -134 98q-74 -57 -137 -98l-13 13q75 106 109 164l9 7h73q59 -84 109 -174zM245 48l69 -28l-2 -20h-259l-2 20l38 15q31 13 31 47v408l-69 28l2 20h259l2 -20l-38 -15q-31 -13 -31 -47v-165h232v199l-69 28l2 20h259l2 -20l-38 -15 q-31 -13 -31 -47v-408l69 -28l-2 -20h-259l-2 20l38 15q31 12 31 47v164h-232v-198z" />
<glyph horiz-adv-x="722" d="M245 48l69 -28l-2 -20h-259l-2 20l38 15q31 13 31 47v408l-69 28l2 20h259l2 -20l-38 -15q-31 -13 -31 -47v-165h232v199l-69 28l2 20h259l2 -20l-38 -15q-31 -13 -31 -47v-408l69 -28l-2 -20h-259l-2 20l38 15q31 12 31 47v164h-232v-198zM432 -157q0 -36 -22.5 -60 t-57.5 -24q-30 0 -49 19.5t-19 49.5q0 33 24.5 57.5t58.5 24.5q29 0 47 -18.5t18 -48.5z" />
<glyph horiz-adv-x="365" d="M245 48l69 -28l-2 -20h-259l-2 20l38 15q31 13 31 47v408l-69 28l2 20h259l2 -20l-38 -15q-31 -13 -31 -47v-408z" />
<glyph horiz-adv-x="365" d="M245 48l69 -28l-2 -20h-259l-2 20l38 15q31 13 31 47v408l-69 28l2 20h259l2 -20l-38 -15q-31 -13 -31 -47v-408z" />
</font>
</defs>
</svg>
