<?xml version="1.0" standalone="no"?>
<!DOCTYPE svg PUBLIC "-//W3C//DTD SVG 1.1//EN" "http://www.w3.org/Graphics/SVG/1.1/DTD/svg11.dtd" >
<svg xmlns="http://www.w3.org/2000/svg" xmlns:xlink="http://www.w3.org/1999/xlink" version="1.1">
<metadata></metadata>
<defs>
<font id="indivisa_text_serifitalic" horiz-adv-x="574" >
<font-face units-per-em="1000" ascent="800" descent="-200" />
<missing-glyph horiz-adv-x="250" />
<glyph unicode="&#xfb00;" horiz-adv-x="585" d="M165 -1q-25 -120 -81 -187.5t-133 -67.5q-41 0 -67 18.5t-26 45.5q0 24 21 35q39 -52 86 -52t74.5 46.5t48.5 144.5l100 471h-70l2 14l75 22h1l4 19q22 105 85.5 166.5t145.5 61.5q39 0 69.5 -16t44.5 -40q60 76 142 76q42 0 69 -19.5t27 -47.5q0 -33 -31 -45 q-45 67 -95 67q-46 0 -67.5 -45.5t-43.5 -147.5l-7 -30h128l-7 -35h-128l-96 -454q-25 -121 -76 -188t-122 -67q-35 0 -57 18.5t-22 45.5q0 24 22 35q31 -52 68 -52q41 0 65 45.5t45 145.5l100 471h-198zM273 512l-5 -24h198l5 20q13 66 39 117q-13 28 -40 47t-63 19 q-57 0 -85.5 -43.5t-48.5 -135.5z" />
<glyph unicode="&#xfb03;" horiz-adv-x="795" d="M165 -1q-25 -120 -81 -187.5t-133 -67.5q-41 0 -67 18.5t-26 45.5q0 24 21 35q39 -52 86 -52t74.5 46.5t48.5 144.5l100 471h-70l2 14l75 22h1l4 19q22 104 85.5 166t145.5 62q39 0 70 -17t46 -41q64 78 153 78q50 0 84 -29t34 -71q0 -20 -15.5 -33t-40.5 -12 q-22 100 -89 100q-23 0 -42 -11t-31.5 -27.5t-23.5 -45t-18 -56t-15 -67.5l-4 -16h163q88 0 88 -67q0 -20 -10 -66t-28 -119t-24 -102q-10 -48 -10 -63q0 -26 18 -26q27 0 92 88l8 -6q-26 -55 -61.5 -96t-74.5 -41q-56 0 -56 66q0 27 12 78q9 41 25.5 110t26.5 113.5 t10 59.5q0 36 -45 36h-141l-96 -454q-25 -121 -76 -188t-122 -67q-35 0 -57 18.5t-22 45.5q0 24 22 35q31 -52 68 -52q41 0 65 45.5t45 145.5l100 471h-198zM273 512l-5 -24h198l5 20q13 62 40 115q-13 29 -40 48.5t-64 19.5q-57 0 -86 -44.5t-48 -134.5z" />
<glyph unicode="&#xfb04;" horiz-adv-x="824" d="M165 -1q-25 -120 -81 -187.5t-133 -67.5q-41 0 -67 18.5t-26 45.5q0 24 21 35q39 -52 86 -52t74.5 46.5t48.5 144.5l100 471h-70l2 14l75 22h1l4 19q22 104 85.5 166t145.5 62q41 0 73 -18t45 -44q70 82 170 82q37 0 64 -15q37 9 70 14l8 -8l-134 -613q-10 -58 -10 -63 q0 -26 18 -26q29 0 92 88l8 -6q-25 -54 -61 -95.5t-75 -41.5q-56 0 -56 66q0 20 12 78l117 536q-32 41 -83 41q-59 0 -91.5 -49.5t-51.5 -143.5l-7 -30h151l-13 -35h-145l-96 -454q-25 -120 -80.5 -187.5t-132.5 -67.5q-41 0 -67.5 18.5t-26.5 45.5q0 24 22 35 q39 -52 85 -52q47 0 74.5 46.5t48.5 144.5l100 471h-198zM273 512l-5 -24h198l5 20q13 61 41 113q-13 30 -40 50t-65 20q-57 0 -86 -44.5t-48 -134.5z" />
<glyph unicode="fi" horiz-adv-x="524" d="M165 -1q-25 -120 -81 -187.5t-133 -67.5q-41 0 -67 18.5t-26 45.5q0 24 21 35q39 -52 86 -52t74.5 46.5t48.5 144.5l100 471h-70l2 14l75 22h1l4 19q25 115 86 181.5t143 66.5q50 0 84 -29t34 -71q0 -20 -15.5 -33t-40.5 -12q-22 100 -89 100q-23 0 -41.5 -11.5 t-30.5 -26.5t-23.5 -47t-17.5 -54.5t-17 -67.5l-4 -16h163q88 0 88 -67q0 -20 -10 -66t-28 -119t-24 -102q-10 -48 -10 -63q0 -26 18 -26q27 0 92 88l8 -6q-26 -55 -61.5 -96t-74.5 -41q-56 0 -56 66q0 25 11 78q9 39 26 109.5t27 114.5t10 59q0 36 -45 36h-141z" />
<glyph unicode="fl" horiz-adv-x="554" d="M165 -1q-25 -120 -81 -187.5t-133 -67.5q-41 0 -67 18.5t-26 45.5q0 24 21 35q39 -52 86 -52t74.5 46.5t48.5 144.5l100 471h-70l2 14l75 22h1l4 19q24 114 92 181t156 67q37 0 64 -15q39 10 70 14l8 -8l-134 -613q-10 -58 -10 -63q0 -26 18 -26q27 0 92 88l8 -6 q-26 -55 -61.5 -96t-74.5 -41q-56 0 -56 66q0 27 12 78l117 536q-32 41 -83 41q-59 0 -91.5 -49.5t-51.5 -143.5l-7 -30h125l-7 -35h-125z" />
<glyph unicode="&#x2f;symbol&#x33;&#x2f;" horiz-adv-x="957" d="M505 638l68 -270h270l-203 -135l136 -270l-271 135l-270 -270l135 405l-270 203l338 -68zM814 87q18 0 30.5 -12.5t12.5 -31.5q0 -18 -12.5 -30.5t-30.5 -12.5t-30.5 12.5t-12.5 30.5q0 19 12.5 31.5t30.5 12.5zM854 43q0 17 -11.5 29t-28.5 12t-28.5 -12t-11.5 -29 t12 -28.5t28 -11.5t28 11.5t12 28.5zM796 68h18q8 0 11 -2q6 -3 6 -10q0 -5 -4 -9q-3 -3 -6 -3q7 -3 8 -10q2 -14 3 -16h-7q-1 2 -2 7.5t-1 6.5q0 9 -10 9h-9v-23h-7v50zM803 47h10q5 0 7 1q3 3 3 6q0 9 -10 9h-10v-16z" />
<glyph unicode="&#x2f;symbol&#x32;&#x2f;" horiz-adv-x="932" d="M494 570l52 -90l-137 -240h-103l137 240l-52 90h103zM357 570l52 -90l-138 -240h-103l138 240l-52 90h103zM752 120h-103l-137 240l51 90l137 -240h103zM683 0h-103l-137 240l51 90l138 -240h103zM100 120l51 90h275l51 -90h-274l-52 -90zM168 0l52 90h274l52 -90h-275 l-51 -90zM789 88q18 0 30.5 -13t12.5 -31t-12.5 -31t-30.5 -13t-30.5 13t-12.5 31t12.5 31t30.5 13zM829 44q0 16 -11.5 28t-28.5 12t-28.5 -12t-11.5 -28t11.5 -28t28.5 -12t28.5 12t11.5 28zM771 69h18q7 0 11 -2q5 -4 5 -11q0 -5 -3 -8q-1 -2 -6 -4q7 -1 8 -9q0 -8 3 -16 h-8q-1 2 -1.5 6.5t-0.5 6.5q-1 10 -11 10h-8v-23h-7v50zM778 47h10q5 0 7 1q3 3 3 7q0 8 -10 8h-10v-16z" />
<glyph unicode="&#x2f;symbol&#x35;&#x2f;" horiz-adv-x="705" d="M232 -6l-132 136l124 234l129 -136zM474 -6l-121 234l128 136l124 -234z" />
<glyph unicode="&#x2f;symbol&#x31;&#x2f;" horiz-adv-x="5534" d="M1865 412q-25 0 -40.5 14.5t-15.5 37.5q0 35 32.5 64t70.5 29q24 0 39 -13.5t15 -37.5q0 -36 -31 -65t-70 -29zM1284 412q-26 0 -41.5 14.5t-15.5 37.5q0 35 33 64t71 29q24 0 38.5 -13.5t14.5 -37.5q0 -36 -31 -65t-69 -29zM959 0q0 42 11 108q-16 -50 -51.5 -82.5 t-78.5 -32.5q-41 0 -63 29.5t-22 82.5q0 62 27 121t84 101t132 42q17 0 25 -1l16 73l6 102l136 7q0 -67 -46 -273t-46 -277h-130zM100 0l78 364q17 86 21 136l128 7l11 -15l-104 -492h-134zM3503 492l-57 -492h-131l20 175q5 50 33 215h-3q-31 -102 -81 -215l-76 -175h-149 l-2 175q-2 121 9 215h-2q-32 -130 -59 -215l-53 -175h-109l154 500l184 6l1 -137q2 -134 -15 -259h2q39 126 94 259l56 131l169 7zM5316 300q-37 -177 -37 -183q0 -34 36 -34q25 0 59 18l-9 -79q-52 -29 -114 -29q-105 0 -105 100q0 20 40 210l-47 1l9 44l54 14l53 95l81 6 l13 -15l-20 -86h99l6 -14l-17 -51zM3936 0q0 74 42 260l5 102l137 7q0 -31 -7 -89h2q53 89 134 89q34 0 53 -19.5t19 -51.5q0 -27 -26 -147q-18 -85 -18 -151h-131q0 55 19 150q15 71 15 87q0 24 -17 24q-34 0 -64 -82.5t-32 -178.5h-131zM3768 369q87 0 145 -32l-28 -128 q-31 -145 -31 -209h-130q0 45 12 112q-15 -52 -51 -85.5t-81 -33.5q-41 0 -63 29.5t-22 83.5q0 46 16 91.5t46 84t79 63t108 24.5zM4653 51q-67 -58 -159 -58q-65 0 -103.5 35t-38.5 102q0 94 68.5 166.5t167.5 72.5q54 0 86.5 -23.5t32.5 -64.5q0 -57 -60 -96.5t-161 -43.5 v-1q0 -64 63 -64q42 0 90 28zM2525 369q88 0 146 -32l-29 -128q-31 -145 -31 -209h-130q0 37 12 112q-15 -52 -51 -85.5t-81 -33.5q-41 0 -62.5 29.5t-21.5 83.5q0 62 26.5 120.5t85 100.5t136.5 42zM2245 256q-52 30 -97 30q-18 0 -30 -7t-12 -19q0 -14 20 -26.5t44 -22 t44 -33t20 -56.5q0 -57 -53 -93t-128 -36q-78 0 -118 28l27 93q57 -38 111 -38q19 0 29.5 7.5t10.5 18.5q0 13 -20 26t-44 23t-44 33t-20 55q0 56 54.5 93t128.5 37q58 0 104 -18zM4716 0q0 79 41 260l6 102l137 7q0 -12 -7 -89h2q52 89 134 89q34 0 53 -19.5t19 -51.5 q0 -27 -26 -147q-19 -90 -19 -151h-130q0 55 19 150q15 78 15 87q0 24 -17 24q-35 0 -65 -82t-32 -179h-130zM1752 0q0 69 26 193l15 67l6 102l137 7q0 -46 -27 -177t-27 -192h-130zM1399 362l140 7q13 -129 -5 -289h2q76 151 91 284q22 5 50 5q32 0 48.5 -8.5t16.5 -33.5 q0 -46 -51 -147.5t-116 -179.5h-149q-5 228 -27 362zM1170 0q0 72 27 193l14 67l6 102l137 7q0 -46 -27 -177t-27 -192h-130zM336 0q0 79 41 260l6 102l137 7q0 -31 -7 -89h2q52 89 134 89q34 0 53 -19.5t19 -51.5q0 -27 -26 -147q-18 -85 -18 -151h-131q0 55 19 150 q15 78 15 87q0 24 -17 24q-34 0 -64 -82.5t-32 -178.5h-131zM4490 177q47 10 73 34t26 59q0 31 -22 31q-28 0 -48.5 -38.5t-28.5 -85.5zM2435 101q23 0 47 43.5t37 100.5q3 14 9 44q-14 8 -27 8q-34 0 -62 -54.5t-28 -101.5q0 -40 24 -40zM913 101q22 0 44.5 39.5t37.5 94.5 q1 9 8 40l3 14q-14 8 -27 8q-33 0 -61.5 -54.5t-28.5 -101.5q0 -40 24 -40zM3677 101q23 0 47 43t38 101q1 8 4.5 24.5t4.5 19.5q-16 8 -27 8q-34 0 -62.5 -54.5t-28.5 -101.5q0 -40 24 -40z" />
<glyph unicode="&#x2f;symbol&#x34;&#x2f;" horiz-adv-x="2607" d="M1684 406q0 65 -11 128l126 14l15 -15v-533h-130v406zM1889 406q0 62 -10 128l126 14l14 -15v-533h-130v406zM427 101v-101h-320v362q0 80 -7 135l126 7l14 -14v-396zM925 21l7 109q62 -36 144 -36q50 0 50 36q0 20 -31.5 41.5t-69 40.5t-69 57t-31.5 88q0 69 55 108 t138 39q80 0 127 -18l-14 -111q-56 29 -111 29q-27 0 -42.5 -11t-15.5 -29q0 -20 20.5 -38t50 -34t59.5 -35t50.5 -51t20.5 -72q0 -66 -53.5 -103.5t-139.5 -37.5q-41 0 -83.5 8t-61.5 20zM2405 213q0 -24 -1 -36l-11 -11h-191q14 -83 98 -83q44 0 84 21l7 -81 q-46 -30 -127 -30q-90 0 -144 47.5t-54 134.5q0 85 52 139t132 54q72 0 113.5 -43t41.5 -112zM795 0l-106 -7q-11 16 -21 49h-4q-34 -49 -104 -49q-43 0 -70 23t-27 66q0 113 191 118v20q0 54 -58 54q-55 0 -108 -29l-8 97q72 26 150 26q154 0 154 -135q0 -25 -2 -69t-2 -70 q0 -51 15 -94zM1626 0l-107 -7q-12 20 -21 49h-3q-34 -49 -105 -49q-43 0 -69.5 23t-26.5 66q0 113 191 118v20q0 54 -58 54q-54 0 -109 -29l-7 97q72 26 150 26q153 0 153 -135q0 -25 -1.5 -69.5t-1.5 -69.5q0 -51 15 -94zM2199 207l78 4q2 14 2 26q0 59 -34 59 q-44 0 -46 -89zM654 74v88q-29 -3 -47 -18t-18 -39q0 -18 10 -29t27 -11q16 0 28 9zM1485 74v88q-29 -3 -47 -18t-18 -39q0 -18 10 -29t27 -11q16 0 28 9zM2464 85q18 0 30.5 -13t12.5 -31t-12.5 -31t-30.5 -13t-31 13t-13 31t13 31t31 13zM2504 41q0 17 -12 28.5t-28 11.5 t-28 -11.5t-12 -28.5t12 -28.5t28 -11.5t28 11.5t12 28.5zM2446 66h18q7 0 11 -3q5 -3 5 -10q0 -5 -3 -9q-3 -3 -6 -3q7 -1 8 -10q0 -7 3 -15h-8q-1 2 -1.5 6.5t-0.5 6.5q-1 9 -11 9h-8v-22h-7v50zM2453 44h10q5 0 7 1q3 3 3 7q0 8 -10 8h-10v-16z" />
<glyph unicode=" "  horiz-adv-x="250" />
<glyph unicode="&#x09;" horiz-adv-x="250" />
<glyph unicode="&#xa0;" horiz-adv-x="250" />
<glyph unicode="!" horiz-adv-x="295" d="M232 685l6 4q33 5 61 5q21 0 21 -15q0 -13 -15 -62l-114 -420h-36zM136 -10q-18 0 -28.5 11t-10.5 29q0 28 17.5 48.5t41.5 20.5q17 0 28 -10.5t11 -28.5q0 -29 -17.5 -49.5t-41.5 -20.5z" />
<glyph unicode="&#x22;" horiz-adv-x="370" d="M208 752l4 4q48 0 71 -10l5 -12l-98 -253l-25 4l21 130zM376 752l5 4q48 0 71 -10l4 -12l-98 -253l-24 4l21 130z" />
<glyph unicode="#" horiz-adv-x="715" d="M246 -10l-40 5l-8 8l46 186h-139l-8 8l7 41h152l52 211h-136l-8 8l7 41h150l49 198l40 -5l8 -8l-46 -185h172l49 198l41 -5l8 -8l-46 -185h136l8 -8l-6 -41h-150l-53 -211h139l8 -8l-6 -41h-153l-49 -199l-41 5l-8 8l46 186h-171zM308 238h171l53 211h-172z" />
<glyph unicode="$" horiz-adv-x="493" d="M231 -137l-37 -3l-6 7l27 125q-52 1 -93.5 12.5t-48.5 25.5q-4 12 -4 22q0 59 39 130h19q-1 -13 -1 -35q0 -59 18 -84q25 -35 92 -35q64 0 105 43t41 102q0 40 -22.5 74.5t-55 61.5t-65 54.5t-55 66t-22.5 83.5q0 75 60.5 126.5t144.5 56.5l28 131l37 3l6 -7l-28 -128 q87 -6 112 -35q5 -5 5 -14q0 -23 -13 -65.5t-29 -72.5h-19q2 32 2 41q0 54 -13 74q-24 35 -82 35t-97 -38t-39 -93q0 -37 22.5 -71t55 -61t65 -55.5t55 -67.5t22.5 -84q0 -76 -54 -131.5t-144 -63.5z" />
<glyph unicode="%" horiz-adv-x="954" d="M496 552q0 -62 -27 -122.5t-77.5 -102.5t-111.5 -42q-59 0 -94 39.5t-35 106.5q0 101 63.5 184t154.5 83q59 0 93 -39t34 -107zM843 696l-572 -706h-47l572 706h47zM209 419q0 -49 20.5 -78t57.5 -29q65 0 108 83.5t43 172.5q0 104 -75 104q-65 0 -109.5 -82.5 t-44.5 -170.5zM927 257q0 -97 -62.5 -182t-153.5 -85q-59 0 -94 39.5t-35 106.5q0 101 63.5 184t154.5 83q59 0 93 -39t34 -107zM641 124q0 -49 20 -78t57 -29q65 0 108 83.5t43 172.5q0 103 -75 103q-65 0 -109 -81.5t-44 -170.5z" />
<glyph unicode="&#x26;" horiz-adv-x="772" d="M726 83q0 -40 -15 -66.5t-41 -26.5q-21 0 -37 14l-4 10q33 45 38 102q1 10 0 19q-60 20 -87 30q-110 -175 -286 -175q-86 0 -138 46t-52 122t51.5 137.5t123.5 85.5q-26 48 -26 107q0 88 60.5 148t148.5 60q64 0 99 -29.5t35 -76.5q0 -29 -14.5 -54t-38.5 -39 q48 -3 99 -3q121 0 151 20l5 -1q11 -13 11 -33q0 -40 -52 -40q-41 0 -88 3q-10 -123 -62 -230q11 -6 34 -16.5t35 -15.5q50 -22 50 -98zM330 504q0 -47 18.5 -88t54.5 -74t74 -58t90 -51q45 97 52 214q-64 7 -125 16l-10 17q46 49 46 102q0 36 -19.5 56t-55.5 20 q-55 0 -90 -42.5t-35 -111.5zM182 175q0 -58 36 -94.5t100 -36.5q135 0 221 137q-175 73 -243 171q-47 -25 -80.5 -73t-33.5 -104z" />
<glyph unicode="'" horiz-adv-x="201" d="M206 752l5 4q48 0 71 -10l5 -12l-99 -253l-24 4l21 130z" />
<glyph unicode="(" horiz-adv-x="362" d="M276 -180l-14 -14q-130 113 -130 331q0 182 89 353.5t240 265.5l11 -15q-123 -102 -194.5 -276.5t-71.5 -343.5q0 -189 70 -301z" />
<glyph unicode=")" horiz-adv-x="363" d="M181 742l15 14q130 -115 130 -331q0 -182 -89 -353.5t-240 -265.5l-12 15q123 102 195 277t72 343q0 188 -71 301z" />
<glyph unicode="*" horiz-adv-x="374" d="M306 510q-3 -27 -27 -27q-20 0 -20 17q0 9 6 26t16 40.5t15 39.5q-15 -10 -40.5 -28.5t-41.5 -28.5t-24 -10t-13 6t-5 15q0 14 18 23q13 7 47 18t53 19q-16 9 -43 18t-39 16t-12 18t8 19.5t19 8.5q10 0 21.5 -10t28 -28.5t27.5 -27.5q0 46 7 95q3 27 27 27q20 0 20 -17 q0 -9 -6 -26t-15.5 -40.5t-14.5 -38.5q15 9 39.5 27.5t41 28.5t25.5 10q16 0 16 -19q0 -17 -15 -24q-12 -6 -47.5 -17t-55.5 -20q16 -8 43 -17.5t39.5 -16.5t12.5 -19q0 -10 -8.5 -19t-18.5 -9q-8 0 -19 9t-29.5 28t-28.5 28q0 -56 -7 -94z" />
<glyph unicode="+" d="M283 142l-2 4l36 174h-184l10 47q49 1 185 3l36 174h47l4 -4l-36 -170q140 2 179 2l6 -8l-16 -44h-180l-37 -178h-48z" />
<glyph unicode="," horiz-adv-x="285" d="M33 -187l-10 8q34 33 63.5 80.5t42.5 90.5q-34 9 -34 47q0 26 18 46t45 20q23 0 36 -16.5t13 -41.5q0 -55 -52.5 -125t-121.5 -109z" />
<glyph unicode="-" horiz-adv-x="386" d="M85 250l7 39h301l-8 -39h-300z" />
<glyph unicode="." horiz-adv-x="267" d="M187 57q0 -27 -17.5 -47t-44.5 -20q-23 0 -36 14t-13 35q0 26 18.5 46t45.5 20q22 0 34.5 -14t12.5 -34z" />
<glyph unicode="/" horiz-adv-x="400" d="M118 -9l-11 -3l-39 20l347 744l12 4l39 -20z" />
<glyph unicode="0" horiz-adv-x="585" d="M607 454q0 -105 -38.5 -210.5t-113.5 -179.5t-166 -74q-85 0 -136.5 65.5t-51.5 174.5t39.5 215t115.5 178.5t168 72.5q85 0 134 -65t49 -177zM175 214q0 -84 32 -134t92 -50q52 0 97.5 44t74.5 111t45.5 143t16.5 145q0 184 -118 184q-53 0 -100 -43t-77 -109.5 t-47 -143.5t-16 -147z" />
<glyph unicode="1" horiz-adv-x="335" d="M283 0h-254l-2 17l59 12q24 5 34 13.5t14 26.5l10 46l109 517l-91 8l1 16l167 40l8 -9l-121 -572l-16 -75l87 -23z" />
<glyph unicode="2" horiz-adv-x="511" d="M55 -10l-18 36q230 179 326 292t96 201q0 53 -29.5 84t-84.5 31q-102 0 -182 -97l-12 7q30 69 91.5 110.5t136.5 41.5q74 0 116.5 -42.5t42.5 -116.5q0 -54 -24 -108t-72 -107t-98 -96.5t-122 -97.5q-26 -20 -78 -58q24 6 53 6q35 0 107.5 -9t90.5 -9q21 0 46 38 q18 29 30 53l10 -5q-8 -31 -24 -75q-32 -79 -69 -79q-27 0 -109 14.5t-128 14.5q-55 0 -96 -29z" />
<glyph unicode="3" horiz-adv-x="442" d="M429 235q0 -98 -114 -166t-296 -79l-4 25q145 20 243 78.5t98 138.5q0 52 -36 77.5t-97 25.5q-25 0 -59 -2l-3 33q114 15 178 61t64 116q0 42 -26 66.5t-74 24.5q-50 0 -97 -27t-77 -75l-12 8q27 70 88.5 113t131.5 43q67 0 104.5 -35t37.5 -96q0 -70 -56 -122.5 t-146 -75.5q152 -15 152 -132z" />
<glyph unicode="4" horiz-adv-x="551" d="M491 692l48 -7l-98 -464l112 2l-14 -52l-108 1l-37 -172h-72l37 173l-304 3l-4 32zM450 602l-341 -386l260 4z" />
<glyph unicode="5" horiz-adv-x="446" d="M444 247q0 -102 -113.5 -173.5t-293.5 -83.5l-5 25q142 20 239 81.5t97 145.5q0 55 -35 84t-101 29q-57 0 -110 -12l-11 10l76 337q224 -8 240 -8q28 0 43 12.5t30 43.5l11 -3q-13 -67 -28 -93t-55 -26q-86 0 -205 13l-55 -243q39 9 90 9q86 0 136 -39.5t50 -108.5z" />
<glyph unicode="6" horiz-adv-x="514" d="M88 175q0 192 136.5 341t328.5 180l5 -25q-137 -45 -235.5 -136.5t-143.5 -219.5q61 90 170 90q70 0 112 -43.5t42 -117.5q0 -102 -71 -178t-170 -76q-75 0 -124.5 49t-49.5 136zM427 241q0 59 -26.5 90.5t-75.5 31.5q-70 0 -118.5 -60.5t-48.5 -144.5q0 -61 26.5 -96.5 t76.5 -35.5q73 0 119.5 64.5t46.5 150.5z" />
<glyph unicode="7" horiz-adv-x="454" d="M228 6q-9 -16 -30 -16q-14 0 -28 10t-22 24q226 348 334 553q-158 44 -248 44q-33 0 -51.5 -23t-37.5 -79l-11 4q16 93 35 133t63 40q113 0 273 -76l37 74q22 -5 22 -22q0 -15 -19 -59q-154 -336 -317 -607z" />
<glyph unicode="8" horiz-adv-x="507" d="M488 185q0 -86 -70 -140.5t-171 -54.5q-83 0 -133.5 39t-50.5 102q0 74 57.5 131t156.5 88q-49 39 -76 77t-27 89q0 77 63.5 128.5t149.5 51.5q73 0 115.5 -35t42.5 -93q0 -64 -45.5 -116.5t-127.5 -86.5q37 -30 58 -51t39.5 -56t18.5 -73zM247 530q0 -42 25.5 -74.5 t75.5 -71.5q58 30 95.5 80.5t37.5 98.5q0 45 -25.5 71t-73.5 26q-56 0 -95.5 -37.5t-39.5 -92.5zM134 138q0 -51 33.5 -81.5t88.5 -30.5q64 0 111.5 41.5t47.5 102.5q0 33 -18.5 64.5t-38.5 49.5t-57 47q-75 -31 -121 -83.5t-46 -109.5z" />
<glyph unicode="9" horiz-adv-x="513" d="M548 511q0 -127 -64 -240t-170.5 -187t-231.5 -94l-5 25q137 45 235.5 136.5t143.5 219.5q-61 -90 -170 -90q-70 0 -111.5 43.5t-41.5 117.5q0 102 70.5 178t169.5 76q75 0 125 -49t50 -136zM208 445q0 -59 26.5 -90.5t75.5 -31.5q70 0 118.5 60.5t48.5 144.5 q0 61 -26.5 96.5t-76.5 35.5q-73 0 -119.5 -64.5t-46.5 -150.5z" />
<glyph unicode=":" horiz-adv-x="228" d="M237 382q-2 -27 -21 -47t-45 -20q-24 0 -36 14t-10 35q1 25 20.5 45.5t46.5 20.5q22 0 34 -13.5t11 -34.5zM168 57q-1 -26 -20 -46.5t-46 -20.5q-23 0 -35 14t-11 35q2 26 21.5 46t45.5 20q22 0 34.5 -14t10.5 -34z" />
<glyph unicode=";" horiz-adv-x="228" d="M237 382q-2 -27 -21 -47t-45 -20q-24 0 -36 14t-10 35q1 25 20.5 45.5t46.5 20.5q22 0 34 -13.5t11 -34.5zM-24 -187l-9 8q36 33 69.5 80.5t50.5 90.5q-35 9 -31 47q2 26 21 46t46 20q23 0 35 -16.5t10 -41.5q-4 -55 -61.5 -125t-130.5 -109z" />
<glyph unicode="&#x3c;" d="M593 571l-12 -61l-365 -177l292 -167l-12 -55q-159 84 -367 210l-1 3l6 27z" />
<glyph unicode="=" d="M569 415h-416l11 47q155 5 414 5l6 -8zM527 221h-415l10 46q155 5 415 5l6 -8z" />
<glyph unicode="&#x3e;" d="M103 111l13 61l364 177l-291 167l12 55q148 -78 367 -210v-3l-6 -26z" />
<glyph unicode="?" horiz-adv-x="411" d="M263 223l-9 -8q-58 7 -58 53q0 35 23 64t56 51t66 45.5t56 58t23 78.5t-23.5 69.5t-65.5 25.5q-60 0 -100 -44t-40 -106q0 -9 2 -27q-20 -8 -35 -8q-39 0 -39 42q0 72 67.5 125.5t154.5 53.5q70 0 112 -38t42 -99q0 -48 -25.5 -86.5t-61.5 -63.5t-72 -47t-61.5 -47.5 t-25.5 -53.5q0 -24 14 -38zM172 -10q-17 0 -28 11t-11 29q0 28 17.5 48.5t41.5 20.5q17 0 28 -10.5t11 -28.5q0 -29 -17.5 -49.5t-41.5 -20.5z" />
<glyph unicode="@" horiz-adv-x="1077" d="M820 -160q-120 -96 -297 -96q-187 0 -307 122.5t-120 304.5q0 127 51 239t132.5 186.5t183.5 117t205 42.5q179 0 291.5 -114.5t112.5 -289.5q0 -147 -84 -254.5t-201 -107.5q-75 0 -108.5 51t-21.5 130q1 11 4.5 34t5.5 36h-1q-26 -62 -57.5 -115t-74.5 -94.5t-82 -41.5 q-38 0 -62 35.5t-24 98.5q0 97 40.5 185t112 142.5t155.5 54.5q68 0 124 -26l-16 -61l-39 -173q-22 -93 -4.5 -150t72.5 -57q80 0 147.5 90.5t67.5 225.5q0 157 -102 258.5t-261 101.5q-91 0 -183 -39t-167.5 -107t-123 -171t-47.5 -219q0 -169 107 -281.5t270 -112.5 q63 0 120 13.5t88.5 28t76.5 40.5zM443 132q0 -36 10.5 -58.5t30.5 -22.5q31 0 79 68t86 150t52 135l12 51q-26 13 -54 13q-51 0 -101.5 -48.5t-82.5 -127.5t-32 -160z" />
<glyph unicode="A" horiz-adv-x="666" d="M445 688h45l75 -613q2 -19 9 -27.5t22 -13.5l51 -14l-2 -20h-232l-4 20l86 22l-25 200l-232 -4l-107 -195l81 -23l-4 -20h-203l-2 20l56 16q29 8 47 39zM259 276l207 -1l-37 311z" />
<glyph unicode="B" horiz-adv-x="598" d="M585 208q0 -88 -74 -148t-207 -60h-251l-2 20l59 15q18 5 26 12.5t12 23.5l9 44l97 457l15 71l-78 23l4 20h225q87 0 138 -37.5t51 -101.5q0 -69 -46.5 -121.5t-110.5 -73.5q62 -15 97.5 -51.5t35.5 -92.5zM329 572l-44 -206h82q65 0 116 53.5t51 122.5q0 52 -34 80 t-101 28h-54zM343 332h-65l-46 -217l-17 -79h86q91 0 148 48.5t57 127.5q0 57 -43.5 88.5t-119.5 31.5z" />
<glyph unicode="C" horiz-adv-x="601" d="M376 -10q-125 0 -197 73.5t-72 201.5q0 177 116.5 304t279.5 127q89 0 141 -26q-5 -74 -38 -169h-19q-3 16 -10.5 67.5t-11.5 75.5q-31 11 -65 11q-126 0 -220 -115t-94 -270q0 -112 55 -175.5t142 -63.5q36 0 76 10q11 19 25 41t31 51.5t29 48.5h19q-10 -87 -36 -164 q-64 -28 -151 -28z" />
<glyph unicode="D" horiz-adv-x="671" d="M276 0h-223l-2 20l59 15q18 5 26 12.5t12 23.5l9 44l97 457l15 71l-78 23l4 20h220q126 0 200 -68.5t74 -187.5q0 -82 -28 -158.5t-79 -137.5t-130.5 -97.5t-175.5 -36.5zM329 572l-97 -457l-17 -79h62q99 0 176.5 57.5t117 148t39.5 194.5q0 101 -53 157.5t-157 56.5 h-54z" />
<glyph unicode="E" horiz-adv-x="581" d="M329 572l-45 -210l206 5l-11 -46l-202 6l-45 -212l-17 -81h137q59 0 102 5q61 113 78 143h19q-7 -99 -40 -182h-458l-2 20l59 15q18 5 26 12.5t12 23.5l9 44l97 457l15 71l-78 23l4 20h433q-3 -75 -38 -182h-19q-4 35 -10 81.5t-8 61.5q-44 4 -100 4h-107z" />
<glyph unicode="F" horiz-adv-x="521" d="M216 43l98 -23l-4 -20h-257l-2 20l59 15q31 8 37 36l10 44l96 457l15 71l-77 23l4 20h433q-3 -81 -38 -182h-18l-9 71l-9 72q-50 4 -101 4h-108l-16 -79l-47 -223l207 6l-12 -46l-203 5l-42 -199z" />
<glyph unicode="G" horiz-adv-x="641" d="M385 31q51 0 89 13l35 161l15 72l-78 23l4 20h235l2 -20l-59 -14q-31 -8 -36 -37l-11 -44h1l-40 -185q-73 -30 -165 -30q-124 0 -197 72.5t-73 200.5q0 120 56.5 220.5t148.5 156.5t196 56q94 0 159 -26q-6 -73 -41 -169h-18q-6 37 -22 143q-32 11 -84 11 q-123 0 -220 -115t-97 -277q0 -102 54.5 -167t145.5 -65z" />
<glyph unicode="H" horiz-adv-x="760" d="M216 43l79 -23l-4 -20h-238l-2 20l59 15q31 8 37 36l10 44l96 457l16 71l-78 23l4 20h237l2 -20l-59 -15q-31 -8 -36 -36l-11 -43h1l-43 -204h321l43 204l16 71l-78 23l4 20h237l2 -20l-59 -15q-31 -8 -37 -36l-10 -43h1l-97 -457l-16 -72l79 -23l-4 -20h-238l-2 20 l59 15q31 8 37 36l10 44l45 213h-322l-45 -213z" />
<glyph unicode="I" horiz-adv-x="365" d="M216 43l79 -23l-4 -20h-238l-2 20l59 15q31 8 37 36l10 44l96 457l16 71l-78 23l4 20h237l2 -20l-59 -15q-31 -8 -36 -36l-11 -43h1l-97 -457z" />
<glyph unicode="J" horiz-adv-x="354" d="M271 643l-79 23l4 20h238l2 -20l-59 -15q-31 -8 -37 -36l-10 -43l-105 -496q-19 -89 -65.5 -142.5t-128.5 -103.5l-14 18q58 62 89 115t50 145l99 464z" />
<glyph unicode="K" horiz-adv-x="655" d="M216 43l79 -23l-4 -20h-238l-2 20l59 15q31 8 37 36l10 44l96 457l16 71l-78 23l4 20h237l2 -20l-59 -15q-31 -8 -36 -36l-11 -43h1l-45 -211l113 1l240 281l-83 23l4 20h216l2 -20l-60 -17q-29 -8 -58 -40l-208 -237l83 -237q18 -51 35 -73t47 -32l31 -10l-4 -20l-78 -1 q-39 0 -58 16t-31 52l-86 256h-113l-44 -208z" />
<glyph unicode="L" horiz-adv-x="552" d="M269 643l-78 23l4 20h237l2 -20l-59 -15q-31 -8 -36 -36l-11 -43h1l-97 -457l-17 -80h119q69 0 102 4q67 128 80 151h18q-10 -105 -40 -190h-441l-2 20l59 15q18 5 26 12.5t12 23.5l9 44l96 457z" />
<glyph unicode="M" horiz-adv-x="985" d="M257 686h157l93 -578l333 578h156l-2 -20l-88 -25l-53 -596l77 -25l-6 -20h-231l1 20l55 15q29 10 32 36l44 511l-259 -450l-74 -132h-44l-21 133l-73 460l-183 -549l82 -24l-6 -20h-206l1 20l57 15q18 6 25.5 13t12.5 23l191 572l-77 23z" />
<glyph unicode="N" horiz-adv-x="722" d="M182 44l96 -23l-5 -21h-223l-3 21l61 15q19 5 27 12.5t12 22.5l10 44l111 526l-80 24l5 21h141l236 -575l97 461l16 70l-85 23l4 21h213l2 -21l-60 -15q-19 -5 -27 -12t-12 -23l-10 -43l-121 -572h-50l-240 583l-99 -468z" />
<glyph unicode="O" horiz-adv-x="605" d="M626 451q0 -105 -39.5 -209.5t-116 -178t-169.5 -73.5q-90 0 -144.5 66.5t-54.5 177.5q0 108 40.5 213t118 177t170.5 72q91 0 143 -66t52 -179zM181 214q0 -84 33 -134t94 -50q52 0 98.5 44.5t76 112.5t47 145t17.5 145q0 180 -122 180q-69 0 -127 -73t-87.5 -173.5 t-29.5 -196.5z" />
<glyph unicode="P" horiz-adv-x="556" d="M216 43l98 -23l-4 -20h-257l-2 20l59 15q31 8 37 36l10 44l96 457l15 71l-77 23l4 20h215q102 0 159.5 -45t57.5 -128q0 -111 -81.5 -178t-209.5 -67h-72l-32 -153zM329 572l-57 -266h67q100 0 154.5 60.5t54.5 145.5q0 135 -146 135h-58z" />
<glyph unicode="Q" horiz-adv-x="594" d="M614 -130q0 -29 -29 -44t-79 -15q-111 0 -228.5 36t-210.5 103l13 26q3 0 9.5 -0.5t9.5 -0.5q130 0 231.5 68t154 177t52.5 238q0 199 -126 199q-86 0 -152 -110t-66 -256q0 -117 53 -203l-30 -20q-43 34 -71 95t-28 136q0 164 90.5 280.5t209.5 116.5q94 0 146.5 -67 t52.5 -183q0 -127 -57 -237t-166.5 -183t-250.5 -84q155 -65 336 -65q64 0 126 19q10 -10 10 -26z" />
<glyph unicode="R" horiz-adv-x="634" d="M216 43l79 -23l-4 -20h-238l-2 20l59 15q31 8 37 36l10 44l97 457l15 71l-78 23l4 20h218q99 0 154 -42t55 -117q0 -72 -45 -127.5t-119 -82.5l59 -182q16 -48 34 -71.5t47 -33.5l28 -10l-4 -20l-74 -1q-40 0 -59 15.5t-30 52.5l-73 232q-20 -4 -48 -4h-68l-38 -180z M329 572l-51 -239h56q100 0 155 57t55 137q0 57 -37 88.5t-102 31.5h-60z" />
<glyph unicode="S" horiz-adv-x="465" d="M215 -10q-58 0 -106 12t-56 27q-4 10 -4 21q0 60 39 131l19 -1q-1 -13 -1 -34q0 -60 18 -84q26 -35 97 -35q67 0 109.5 43t42.5 102q0 34 -17 64.5t-42.5 52t-55.5 47t-55.5 49t-42.5 57t-17 71.5q0 79 67 131t158 52q55 0 94 -11.5t51 -24.5q5 -5 5 -14q0 -23 -13 -65.5 t-29 -72.5h-19q2 32 2 41q0 54 -13 74q-25 35 -88 35q-60 0 -100 -38t-40 -93q0 -32 17 -61.5t42.5 -51t55.5 -47.5t55.5 -49.5t42.5 -57.5t17 -72q0 -83 -63.5 -140.5t-169.5 -57.5z" />
<glyph unicode="T" horiz-adv-x="572" d="M320 43l79 -23l-4 -20h-238l-2 20l59 15q31 8 37 36l10 44l113 534h-61q-66 0 -108 -9q-26 -45 -45 -85l-26 -51h-19q9 104 40 182h530q-5 -87 -38 -182h-19l-5 51q-2 44 -8 85q-39 9 -105 9h-61l-113 -534z" />
<glyph unicode="U" horiz-adv-x="668" d="M601 240q-53 -250 -259 -250q-88 0 -142 48.5t-54 134.5q0 43 7 76l69 323l16 71l-79 23l4 20h238l2 -20l-59 -15q-31 -8 -37 -36l-10 -43l-69 -327q-7 -34 -7 -68q0 -69 38.5 -107.5t102.5 -38.5q71 0 122.5 52t74.5 157l72 334l15 68l-85 23l4 21h213l2 -21l-94 -23 l-15 -68z" />
<glyph unicode="V" horiz-adv-x="667" d="M345 0h-44l-76 611q-2 19 -9 28t-22 13l-51 14l2 20h232l4 -20l-86 -22l67 -540l295 540l-81 22l4 20h204l3 -20l-56 -16q-29 -8 -47 -38z" />
<glyph unicode="W" horiz-adv-x="1011" d="M336 0h-45l-66 611q-2 19 -9 28t-22 13l-51 14l2 20h232l4 -20l-86 -22l57 -538l237 435l-9 70q-2 20 -8.5 28.5t-21.5 12.5l-52 14l3 20h232l4 -20l-86 -22l64 -538l286 538l-82 22l4 20h205l3 -20l-56 -16q-31 -8 -47 -38l-329 -612h-45l-57 475z" />
<glyph unicode="X" horiz-adv-x="665" d="M233 0h-216l-2 20q21 6 61 18q32 10 57 39l224 264l-116 270q-13 31 -35 38q-28 11 -49 17l2 20h230l4 -20l-85 -23l110 -255l211 255l-81 23l4 20h215l3 -20q-25 -6 -60 -17q-30 -8 -57 -40l-219 -258l119 -276q8 -19 14 -26.5t18 -11.5q28 -11 50 -17l-2 -20h-229 l-4 20l85 23l-112 261l-217 -261l81 -23z" />
<glyph unicode="Y" horiz-adv-x="634" d="M347 43l79 -23l-4 -20h-238l-2 20l59 15q31 8 37 36l10 44l17 79q12 81 2.5 180.5t-39 183t-60.5 83.5t-86 -90l-14 7q59 138 132 138q41 0 74 -55.5t51 -143t20 -186.5q82 169 158 277t128 108q32 0 50 -39.5t22 -94.5l-16 -5q-25 84 -58 84q-32 0 -96 -83t-122 -193.5 t-74 -184.5l-14 -65z" />
<glyph unicode="Z" horiz-adv-x="588" d="M508 0h-451l1 35l499 615h-186q-67 0 -103 -4l-79 -142h-18q3 95 37 182h443l-1 -34l-499 -616h195q59 0 102 5l81 141h18q-4 -82 -39 -182z" />
<glyph unicode="[" horiz-adv-x="391" d="M279 -194h-193l202 954h194l-6 -26h-121l-192 -902h122z" />
<glyph unicode="\" horiz-adv-x="474" d="M332 -10l-108 753l9 8l43 5l109 -753l-8 -8z" />
<glyph unicode="]" horiz-adv-x="391" d="M208 760h194l-203 -954h-193l5 26h122l192 902h-122z" />
<glyph unicode="^" horiz-adv-x="526" d="M110 210h-58l216 336h58l76 -336h-55l-62 277z" />
<glyph unicode="_" horiz-adv-x="503" d="M-1 -146l10 43h418l-10 -43h-418z" />
<glyph unicode="`" horiz-adv-x="404" d="M376 589l-13 -12q-66 40 -112.5 81.5t-43.5 68.5q3 31 51 31h11l6 -4q26 -67 101 -165z" />
<glyph unicode="a" horiz-adv-x="501" d="M405 134q-11 -53 -11 -63q0 -26 18 -26q29 0 92 88l9 -6q-26 -54 -62 -95.5t-74 -41.5q-57 0 -57 66q0 20 12 78l25 113q-29 -62 -59.5 -114.5t-74 -97.5t-80.5 -45q-35 0 -57 32.5t-22 89.5q0 101 40.5 192.5t109.5 146.5t148 55q69 0 121 -26l-6 -19zM139 120 q0 -31 9 -50t25 -19q42 0 111 113.5t97 199.5l20 89q-28 19 -66 19q-72 0 -134 -110t-62 -242z" />
<glyph unicode="b" horiz-adv-x="463" d="M400 506q38 1 58.5 -33t20.5 -94q0 -156 -78 -272.5t-189 -116.5q-68 0 -140 27l6 19l130 595l15 68l-74 16v11q64 18 150 29l8 -8l-26 -116q-37 -167 -85 -367q66 137 111 188q48 54 93 54zM366 444q-28 0 -68.5 -55.5t-69.5 -114.5t-48 -108l-27 -122q36 -18 74 -18 q48 0 89.5 52.5t64.5 131.5t23 161q0 73 -38 73z" />
<glyph unicode="c" horiz-adv-x="377" d="M325 506q44 0 70 -26t26 -68q0 -35 -18 -61.5t-43 -26.5q-13 0 -25 7q20 44 20 84q0 55 -45 55q-59 0 -111 -98.5t-52 -208.5q0 -119 83 -119q61 0 145 95l8 -6q-35 -64 -83 -103.5t-102 -39.5q-62 0 -94 42.5t-32 119.5q0 89 36.5 171.5t95.5 132.5t121 50z" />
<glyph unicode="d" horiz-adv-x="501" d="M405 134q-11 -53 -11 -63q0 -26 18 -26q29 0 92 88l9 -6q-26 -54 -62 -95.5t-74 -41.5q-57 0 -57 66q0 20 12 78l26 116q-20 -45 -42.5 -85.5t-51.5 -82.5t-60.5 -67t-60.5 -25q-35 0 -57 32.5t-22 89.5q0 101 40.5 192.5t109.5 146.5t148 55q19 0 51 -4l30 129l14 67 l-93 17v11q50 14 169 29l8 -8l-26 -116zM139 120q0 -31 9 -50t25 -19q43 0 111 113.5t97 199.5l20 89q-28 19 -66 19q-72 0 -134 -110t-62 -242z" />
<glyph unicode="e" horiz-adv-x="383" d="M379 133q-36 -65 -83.5 -104t-101.5 -39q-59 0 -90 45t-31 125q0 84 36 165t94 131t119 50q44 0 69 -24t25 -65q0 -78 -79 -130.5t-184 -55.5l2 14q-7 -36 -7 -80q0 -57 20.5 -89t58.5 -32q62 0 144 95zM310 470q-47 0 -90.5 -61.5t-61.5 -149.5q82 7 136.5 54.5 t54.5 109.5q0 21 -10.5 34t-28.5 13z" />
<glyph unicode="f" horiz-adv-x="314" d="M165 -1q-25 -120 -81 -187.5t-133 -67.5q-41 0 -67 18.5t-26 45.5q0 24 21 35q39 -52 86 -52t74.5 46.5t48.5 144.5l100 471h-70l2 14l75 22h1l4 19q24 115 82 181.5t134 66.5q42 0 69 -19.5t27 -47.5q0 -33 -31 -45q-45 67 -95 67q-46 0 -67.5 -45.5t-43.5 -147.5 l-7 -30h128l-8 -35h-127z" />
<glyph unicode="g" horiz-adv-x="401" d="M281 506q148 0 200 13q6 -9 6 -23q0 -16 -10 -27t-30 -11q-22 0 -100 19q49 -36 49 -105q0 -53 -21 -99t-51 -76.5t-60.5 -54t-51.5 -42.5t-21 -32q0 -11 11 -20t35 -23l6 -3q35 -20 50.5 -30t35 -26.5t26.5 -32.5t7 -37q0 -59 -61 -105.5t-162 -46.5q-79 0 -126 31.5 t-47 77.5q0 61 93 118l9 -9q-38 -45 -38 -82q0 -45 37 -73.5t92 -28.5q59 0 97 27.5t38 68.5q0 24 -20.5 43.5t-68.5 47.5q-60 34 -73 50q-12 15 -12 32q0 21 21.5 41.5t76.5 59.5h-5q-58 0 -93.5 37t-35.5 98q0 91 58 157t139 66zM155 288q0 -48 18 -77t47 -29 q42 0 73.5 62.5t31.5 141.5q0 41 -15 64t-43 23q-46 0 -79 -58t-33 -127z" />
<glyph unicode="h" horiz-adv-x="510" d="M74 13l26 121l108 498l15 68l-74 16v10q70 20 150 30l8 -8l-26 -116q-40 -183 -90 -377q62 126 116 188.5t106 62.5q32 0 49 -21.5t17 -54.5q0 -22 -8 -61.5t-16.5 -73.5t-23 -86.5t-19.5 -74.5q-10 -58 -10 -63q0 -26 18 -26q27 0 92 88l8 -6q-26 -55 -61.5 -96 t-74.5 -41q-56 0 -56 66q0 27 12 78q7 31 24.5 96.5t28.5 112t11 68.5q0 36 -28 36q-42 0 -102.5 -96.5t-93.5 -182.5l-7 -34l-29 -136l-32 -4q-27 -3 -31 -3q-13 0 -7 22z" />
<glyph unicode="i" horiz-adv-x="298" d="M256 607q-18 0 -29 11.5t-11 30.5q0 29 18 50t44 21q18 0 29 -11t11 -30q0 -30 -18 -51t-44 -21zM199 134q-10 -48 -10 -63q0 -26 17 -26q29 0 92 88l9 -6q-26 -54 -62 -95.5t-74 -41.5q-56 0 -56 66q0 25 11 78q9 41 30.5 130.5t23.5 97.5q10 48 10 64q0 25 -18 25 q-28 0 -91 -88l-9 6q26 55 61.5 96t74.5 41q56 0 56 -66q0 -25 -11 -78q-7 -29 -26.5 -110t-27.5 -118z" />
<glyph unicode="j" horiz-adv-x="259" d="M246 607q-18 0 -29 11.5t-11 30.5q0 29 18 50t44 21q18 0 29 -11t11 -30q0 -30 -18 -51t-44 -21zM173 362q10 58 10 64q0 25 -18 25q-29 0 -92 -88l-8 6q25 54 61 95.5t75 41.5q56 0 56 -66q0 -20 -12 -78l-76 -363q-24 -120 -80 -187.5t-134 -67.5q-41 0 -67 18.5 t-26 45.5q0 24 22 35q39 -52 85 -52q47 0 74.5 46.5t48.5 144.5z" />
<glyph unicode="k" horiz-adv-x="490" d="M74 13l26 121l108 497l15 68l-74 16v11q64 18 150 29l8 -8l-26 -116q-36 -162 -89 -374q56 119 115 184.5t119 64.5q38 -1 58.5 -22.5t20.5 -53.5q0 -63 -60.5 -119.5t-131.5 -88.5q40 -100 63 -138.5t42 -38.5q27 0 92 88l8 -6q-26 -54 -62 -95.5t-73 -41.5 q-39 0 -67.5 47t-72.5 174l5 9q72 29 127.5 82.5t55.5 110.5q0 38 -36 38q-48 0 -104.5 -76t-110.5 -207l-7 -34l-29 -136l-32 -4q-27 -3 -31 -3q-13 0 -7 22z" />
<glyph unicode="l" horiz-adv-x="269" d="M173 134q-11 -53 -11 -63q0 -26 18 -26q29 0 92 88l8 -6q-25 -54 -61 -95.5t-75 -41.5q-56 0 -56 66q0 20 12 78l108 497l15 68l-74 16v11q64 18 150 29l8 -8l-26 -116z" />
<glyph unicode="m" horiz-adv-x="781" d="M104 13l26 121l50 227q10 44 10 64q0 26 -17 26q-29 0 -92 -88l-9 6q26 55 61.5 96t73.5 41q55 0 55 -63q0 -34 -35 -169q22 40 34 61.5t37 59.5t44.5 58t46.5 36.5t53 16.5q30 0 46.5 -21t16.5 -53q0 -39 -33 -163q115 237 211 237q32 0 49.5 -21.5t17.5 -54.5 q0 -28 -10.5 -76.5t-30.5 -124t-25 -95.5q-11 -53 -11 -63q0 -26 18 -26q29 0 92 88l9 -6q-26 -54 -62 -95.5t-74 -41.5q-56 0 -56 66q0 25 11 78q7 32 25 97.5t29 112t11 68.5q0 35 -29 35q-42 0 -103.5 -99t-92.5 -182l-9 -32l-28 -136l-32 -4q-27 -3 -31 -3q-12 0 -8 22 l27 121q8 34 25.5 98.5t28.5 111t11 68.5q0 35 -29 35q-42 0 -102.5 -96.5t-93.5 -182.5l-7 -34l-29 -136l-32 -4q-24 -3 -31 -3q-13 0 -7 22z" />
<glyph unicode="n" horiz-adv-x="540" d="M104 13l26 121q44 201 50 227q10 44 10 64q0 26 -17 26q-29 0 -92 -88l-9 6q26 55 61.5 96t73.5 41q55 0 55 -63q0 -19 -36 -182q23 46 41 77.5t48 75.5t62.5 68t64.5 24t49 -21.5t17 -54.5q0 -22 -7.5 -62t-16 -73t-23 -87.5t-19.5 -73.5q-10 -58 -10 -63q0 -26 18 -26 q27 0 92 88l8 -6q-26 -55 -61.5 -96t-74.5 -41q-56 0 -56 66q0 20 12 78q7 32 25 96.5t29 111.5t11 69q0 36 -29 36t-71 -54t-73 -114t-51 -110l-8 -35l-29 -136l-32 -4q-24 -3 -31 -3q-13 0 -7 22z" />
<glyph unicode="o" horiz-adv-x="433" d="M439 329q0 -141 -69 -240t-159 -99q-61 0 -98 49.5t-37 130.5q0 133 70 234.5t159 101.5q65 0 99.5 -47t34.5 -130zM151 155q0 -60 18 -95t49 -35q58 0 102 104.5t44 220.5q0 121 -64 121q-39 0 -74.5 -50.5t-55 -123.5t-19.5 -142z" />
<glyph unicode="p" horiz-adv-x="493" d="M50 -234l26 121l97 443q17 75 17 95q0 26 -17 26q-29 0 -92 -88l-9 6q26 55 61.5 96t73.5 41q55 0 55 -63q0 -15 -5.5 -43.5t-16.5 -76t-14 -60.5q65 135 109 186q48 56 95 57q38 1 58.5 -33t20.5 -94q0 -156 -78 -272.5t-189 -116.5q-38 0 -69 7l-24 -110l-29 -136 l-32 -4q-24 -3 -31 -3q-13 0 -7 22zM397 444q-28 0 -69 -56t-69.5 -113.5t-48.5 -107.5l-27 -123q36 -18 74 -18q48 0 89.5 52.5t64.5 131.5t23 161q0 73 -37 73z" />
<glyph unicode="q" horiz-adv-x="458" d="M252 -234l27 121l78 360q-29 -62 -59.5 -114.5t-74 -97.5t-80.5 -45q-35 0 -57 32.5t-22 89.5q0 101 40.5 192.5t109.5 146.5t148 55q69 0 121 -26l-6 -19l-126 -574l-28 -136l-32 -4q-27 -3 -32 -3q-11 0 -7 22zM139 120q0 -31 9 -50t25 -19q42 0 111 113.5t97 199.5 l20 89q-28 19 -66 19q-72 0 -134 -110t-62 -242z" />
<glyph unicode="r" horiz-adv-x="408" d="M104 13l26 121q60 275 60 291q0 26 -17 26q-29 0 -92 -88l-9 6q26 55 61.5 96t73.5 41q55 0 55 -63q0 -32 -34 -170q23 48 40 80t43 72t53.5 60.5t54.5 20.5q23 0 36 -12t13 -31q0 -36 -25 -66q-28 30 -56 30q-31 0 -72.5 -57t-69.5 -116.5t-35 -88.5l-7 -31l-29 -136 l-32 -4q-24 -3 -31 -3q-13 0 -7 22z" />
<glyph unicode="s" horiz-adv-x="381" d="M353 132q0 -63 -45 -102.5t-121 -39.5q-59 0 -98 27t-39 70q0 58 61 91l8 -7q-12 -37 -11 -67q3 -37 27.5 -59t61.5 -22t61 22.5t24 62.5q0 28 -16.5 54.5t-40 49t-47 46t-40 54t-16.5 64.5q0 55 44 92.5t109 37.5q58 0 91.5 -25t33.5 -62q0 -58 -53 -93l-9 6q7 37 6 63 q-5 80 -72 80q-34 0 -56.5 -22.5t-22.5 -58.5q0 -34 25 -68.5t55 -60t55 -61.5t25 -72z" />
<glyph unicode="t" horiz-adv-x="344" d="M186 -10q-38 0 -58.5 26t-20.5 72q0 37 6 63l65 302h-82l2 14l88 26l89 146l15 -1l-32 -150h148l-8 -35h-148l-63 -296q-6 -32 -6 -55q0 -58 43 -58q57 0 139 95l8 -6q-79 -143 -185 -143z" />
<glyph unicode="u" horiz-adv-x="547" d="M187 362q10 48 10 64q0 25 -18 25q-27 0 -92 -88l-8 6q26 55 61.5 96t74.5 41q56 0 56 -66q0 -25 -11 -78q-7 -31 -25.5 -97.5t-28.5 -110.5t-10 -65q0 -38 26 -38q40 0 102 96t97 189l6 27h1l29 136l31 4q27 3 32 3q11 0 7 -22l-27 -121l-50 -229q-10 -48 -10 -63 q0 -26 18 -26q27 0 92 88l8 -6q-26 -55 -61.5 -96t-74.5 -41q-56 0 -56 66q0 27 12 78l22 100q-16 -35 -36.5 -72t-49 -78.5t-62 -67.5t-63.5 -26q-32 0 -49.5 22.5t-17.5 58.5q0 27 10.5 75t29 117.5t25.5 98.5z" />
<glyph unicode="v" horiz-adv-x="417" d="M184 -2l-34 2q20 273 20 324q0 70 -8 98.5t-28 28.5q-28 0 -93 -88l-9 6q27 57 63 97t75 40q69 0 69 -129q0 -125 -22 -306q73 99 119.5 208t46.5 181q0 22 -2 38q14 8 31 8q46 0 46 -50q0 -72 -87 -215.5t-187 -242.5z" />
<glyph unicode="w" horiz-adv-x="654" d="M697 459q0 -69 -90.5 -214.5t-191.5 -246.5l-35 2q20 273 20 324v23q-72 -205 -216 -349l-34 2q20 273 20 324q0 70 -8 98.5t-28 28.5q-28 0 -93 -88l-9 6q27 57 63 97t75 40q69 0 69 -129q0 -125 -22 -306q78 107 122 215.5t51 193.5q0 9 -2 19q12 7 31 7q29 0 40 -25 t11 -92q0 -118 -22 -318q76 105 124.5 212t48.5 184q0 15 -2 31q14 8 32 8q46 0 46 -47z" />
<glyph unicode="x" horiz-adv-x="449" d="M326 161q20 -74 28.5 -95t21.5 -21q19 0 81 88l8 -6q-25 -56 -56.5 -96.5t-63.5 -40.5q-33 0 -48 32t-44 139l-17 64q-52 -62 -80 -111.5t-28 -95.5q0 -18 1 -25q-16 -7 -31 -7q-18 0 -30.5 11t-12.5 31q0 72 174 223l-22 82q-20 75 -28.5 96.5t-22.5 21.5q-22 0 -81 -88 l-8 6q24 55 56.5 96t64.5 41t47.5 -33t44.5 -140l16 -59q106 127 106 204q0 5 -0.5 13.5t-0.5 11.5q16 7 30 7q20 0 32 -11t12 -31q0 -72 -172 -221z" />
<glyph unicode="y" horiz-adv-x="429" d="M166 506q82 0 82 -164q0 -153 -55 -324q93 88 142.5 198t49.5 221q0 35 -5 60q11 9 30 9q50 0 50 -71q0 -108 -75.5 -238t-208.5 -228q-39 -101 -93 -163t-118 -62q-37 0 -59.5 16t-22.5 40t22 35q28 -40 67 -40q92 0 152 209q24 82 37 174t13 151q0 122 -42 122 q-26 0 -83 -88l-9 6q21 55 55.5 96t70.5 41z" />
<glyph unicode="z" horiz-adv-x="405" d="M127 19q-45 0 -79 -29l-21 24q27 33 79.5 95.5t81.5 98t70 87.5t75 99q-95 40 -145 40q-27 0 -45.5 -19.5t-44.5 -68.5l-11 5q23 86 41.5 120.5t55.5 34.5q68 0 171 -81q14 20 56 81q33 -8 33 -35q0 -21 -28 -50q-45 -56 -93 -112t-111 -127.5t-100 -114.5q24 9 64 9 q17 0 70 -8.5t66 -8.5t22.5 8.5t24.5 29.5q13 17 35 52l10 -5q-23 -67 -31 -84q-31 -70 -65 -70q-20 0 -88 14.5t-93 14.5z" />
<glyph unicode="{" horiz-adv-x="416" d="M308 -173l-6 -22q-164 0 -164 100q0 48 46 152t46 142q0 66 -75 69h-12l6 27h12q118 4 120 166v82q0 112 53 163.5t169 51.5l-1 -22q-77 -4 -109.5 -44t-34.5 -126q-2 -18 -2.5 -52t-1.5 -50q-6 -148 -116 -183q63 -21 63 -86q0 -38 -45 -147.5t-45 -142.5q0 -74 97 -78z " />
<glyph unicode="|" horiz-adv-x="320" d="M79 -254l-5 7l212 995l36 6l6 -7l-212 -995z" />
<glyph unicode="}" horiz-adv-x="416" d="M204 736l6 22q164 0 164 -99q0 -49 -46 -153t-46 -142q0 -66 75 -69h12l-6 -27h-12q-118 -3 -120 -166v-82q0 -112 -53 -163.5t-169 -51.5l1 22q77 4 109.5 44t34.5 126q2 18 2.5 52t1.5 50q6 148 116 183q-63 21 -63 86q0 38 45 148t45 143q0 73 -97 77z" />
<glyph unicode="~" horiz-adv-x="543" d="M187 285q-13 0 -74 -61l-27 20q22 27 36 43.5t37.5 34t41.5 17.5q19 0 115.5 -27t114.5 -27q10 0 75 61l27 -20q-22 -27 -36 -43.5t-38 -34t-42 -17.5q-19 0 -117 27t-113 27z" />
<glyph unicode="&#xa1;" horiz-adv-x="295" d="M241 506q17 0 27.5 -11t10.5 -29q0 -29 -17 -49t-42 -20q-17 0 -27.5 11t-10.5 28q0 29 17 49.5t42 20.5zM144 -188l-5 -5q-35 -5 -62 -5q-21 0 -21 15q0 8 15 62l114 420h37z" />
<glyph unicode="&#xa2;" horiz-adv-x="453" d="M228 -137l-36 -3l-6 7l26 124q-65 7 -97.5 51.5t-32.5 117.5q0 128 76 245t174 138l30 134l36 3l6 -7l-28 -127q46 -4 73 -32.5t27 -74.5q0 -40 -18 -70.5t-43 -30.5q-16 0 -28 8q20 51 20 96q0 31 -14 48.5t-41 17.5q-44 0 -88.5 -52t-73 -130.5t-28.5 -152.5 q0 -59 25 -93.5t73 -34.5q72 0 159 102l9 -7q-31 -61 -76 -101.5t-97 -47.5z" />
<glyph unicode="&#xa3;" horiz-adv-x="581" d="M486 297h-182l-18 -82q-25 -114 -82 -181q14 -6 67 -32.5t84 -40t79 -27t86 -13.5q35 0 63 11q5 -12 5 -24q0 -27 -22 -41.5t-58 -14.5t-83.5 17.5t-81 36.5t-90 53.5t-78.5 46.5q-31 -23 -63 -23q-17 0 -27.5 8.5t-10.5 22.5q0 18 16 30.5t40 12.5q18 0 46 -11 q21 39 46 169q5 28 15 82h-117l9 43h116q11 56 21 108q24 118 79 183t133 65q52 0 86 -29.5t34 -66.5q0 -40 -42 -50q-24 108 -90 108q-47 0 -75 -49t-51 -151l-26 -118h182z" />
<glyph unicode="&#xa4;" horiz-adv-x="546" d="M508 151l-35 -24l-55 72q-59 -40 -125 -40q-62 0 -102 32l-79 -65l-29 38l76 63q-21 37 -21 86q0 86 75 154l-51 67l37 30q10 -12 30 -36.5t25 -30.5q55 31 111 31q67 0 106 -36l88 72l29 -38l-87 -71q19 -35 19 -81q1 -79 -64 -144q11 -15 29.5 -37.5t24.5 -30.5z M193 314q0 -45 28.5 -76t80.5 -31q66 0 114.5 51t48.5 115q0 45 -28 76t-80 31q-65 0 -114.5 -51.5t-49.5 -114.5z" />
<glyph unicode="&#xa5;" horiz-adv-x="687" d="M151 130l9 41h166l6 28q7 32 8 64h-161l9 40h152q-2 117 -35 227.5t-71 110.5q-30 0 -85 -90l-15 7q59 138 132 138q61 0 102.5 -114t43.5 -266q83 167 158 273.5t127 106.5q33 0 51 -39.5t21 -94.5l-15 -5q-24 84 -59 84q-37 0 -115 -109t-133 -229h156l-9 -40h-164 q-17 -41 -25 -78l-3 -14h173l-9 -41h-173l-3 -15l-16 -72l78 -23l-4 -20h-237l-2 20l59 15q31 8 36 36l11 44h-1l4 15h-167z" />
<glyph unicode="&#xa6;" horiz-adv-x="320" d="M248 373l-37 -6l-5 7l80 374l36 6l6 -7zM116 -248l-36 -6l-6 7l80 373l36 6l6 -7z" />
<glyph unicode="&#xa7;" horiz-adv-x="537" d="M483 111q0 -115 -94.5 -198.5t-225.5 -83.5q-60 0 -98 21.5t-38 52.5q0 42 45 64l14 -2q57 -81 147 -96q29 21 48 62.5t19 80.5q0 62 -60 161q-6 10 -17.5 29.5t-17.5 28.5q-64 109 -64 189q0 113 95 194.5t225 81.5q60 0 98 -21t38 -52q0 -20 -12.5 -37.5t-32.5 -27.5 l-14 2q-51 81 -147 97q-29 -21 -48 -63t-19 -81q0 -63 59 -159q11 -18 35 -56q65 -110 65 -187zM309 -95l6 -5q53 33 82.5 85t29.5 111q0 75 -59 170q-5 9 -16.5 27t-17.5 27q-63 102 -63 175q0 70 44 125l-6 5q-53 -32 -82 -83t-29 -110q0 -72 57 -168q4 -7 34 -56 q64 -107 64 -180t-44 -123z" />
<glyph unicode="&#xa8;" horiz-adv-x="479" d="M477 678q0 -27 -16.5 -47t-38.5 -20q-18 0 -29.5 12.5t-11.5 31.5q0 25 16.5 45t40.5 20q17 0 28 -11.5t11 -30.5zM275 678q0 -27 -16.5 -47t-38.5 -20q-18 0 -29 12t-11 32q0 25 16 45t40 20q17 0 28 -11.5t11 -30.5z" />
<glyph unicode="&#xa9;" horiz-adv-x="712" d="M341 -46q-110 0 -177 68.5t-67 177.5q0 143 104 244.5t250 101.5q109 0 177.5 -69t68.5 -177q0 -143 -104.5 -244.5t-251.5 -101.5zM444 505q-126 0 -216 -89t-90 -212q0 -92 58 -150.5t154 -58.5q125 0 215.5 89t90.5 212q0 92 -58.5 150.5t-153.5 58.5zM493 180 q-55 -100 -127 -100q-49 0 -74.5 29.5t-25.5 80.5q0 85 58.5 157.5t124.5 72.5q37 0 56.5 -21t19.5 -51q0 -21 -11.5 -36t-28.5 -15q-9 0 -19 6q8 18 8 39q0 43 -35 43q-41 0 -76 -59.5t-35 -128.5q0 -72 59 -72q46 0 98 61z" />
<glyph unicode="&#xaa;" horiz-adv-x="419" d="M491 458q-52 -107 -108 -107q-46 0 -46 54q0 16 10 61l17 84q-35 -78 -79 -138.5t-86 -60.5q-28 0 -46 26.5t-18 72.5q0 121 69 212.5t163 91.5q55 0 99 -21l-5 -17l-54 -250q-7 -37 -7 -47q0 -23 13 -23q24 0 70 67zM198 457q0 -55 27 -55q32 0 82.5 84.5t74.5 152.5 l16 72q-23 15 -51 15q-54 0 -101.5 -84t-47.5 -185z" />
<glyph unicode="&#xab;" horiz-adv-x="543" d="M251 28l-18 -8q-56 121 -116 196l-4 7l12 51q94 82 208 206l14 -10q-45 -69 -168 -232q44 -110 72 -210zM457 28l-18 -8q-60 126 -116 196l-4 7l12 51q94 82 208 206l13 -10q-56 -86 -168 -232q47 -117 73 -210z" />
<glyph unicode="&#xac;" d="M569 434l-45 -215h-52l36 171h-370l10 47q157 5 414 5z" />
<glyph unicode="&#xae;" horiz-adv-x="712" d="M341 -46q-110 0 -177 68.5t-67 177.5q0 143 104.5 244.5t251.5 101.5q110 0 177 -68.5t67 -177.5q0 -143 -104.5 -244.5t-251.5 -101.5zM444 505q-126 0 -216 -89t-90 -212q0 -92 58 -150.5t154 -58.5q125 0 215.5 89t90.5 212q0 92 -58.5 150.5t-153.5 58.5zM366 91 h-146l2 21l32 9q15 4 21 23l6 32l34 159l9 43l-42 12l4 20h146q57 0 88.5 -21.5t31.5 -61.5q0 -35 -23 -61t-62 -39l20 -44q24 -58 43 -64l23 -8l-3 -20l-49 -2q-25 -1 -36 8.5t-21 33.5l-36 84q-7 -1 -22 -1h-39l-8 -38l-10 -50l44 -14zM373 335l-18 -88h45q42 0 67 21.5 t25 55.5q0 53 -73 53h-37z" />
<glyph unicode="&#xaf;" horiz-adv-x="455" d="M182 643l11 46h257l-11 -46h-257z" />
<glyph unicode="&#xb0;" horiz-adv-x="370" d="M418 599q0 -58 -42.5 -100t-100.5 -42q-46 0 -73.5 26.5t-27.5 70.5q0 58 42.5 100t100.5 42q46 0 73.5 -26.5t27.5 -70.5zM218 560q0 -29 17.5 -47t46.5 -18q40 0 66.5 28t26.5 70q0 29 -17.5 47t-47.5 18q-40 0 -66 -28t-26 -70z" />
<glyph unicode="&#xb1;" d="M557 385h-179l-36 -170h-51l35 170h-175l11 47q44 1 175 3l34 165h52l-35 -164q38 0 100 0.5t79 0.5l6 -8zM497 81h-415l9 47q157 5 415 5l7 -8z" />
<glyph unicode="&#xb2;" horiz-adv-x="380" d="M198 362q-38 0 -68 -19l-11 29q147 93 209 156.5t62 115.5q0 31 -16.5 49t-48.5 18q-66 0 -120 -71l-13 7q24 49 66 79t91 30q47 0 74 -26t27 -71q0 -107 -179 -222q-45 -25 -61 -33q8 1 23 1q21 0 64 -7t54 -7q19 0 51 51q3 4 4 6l6 -4q-10 -38 -18 -54q-22 -47 -46 -47 q-17 0 -68.5 9.5t-81.5 9.5z" />
<glyph unicode="&#xb3;" horiz-adv-x="361" d="M401 484q0 -57 -77.5 -95t-204.5 -46l-3 18q97 13 160 45.5t63 76.5q0 59 -85 59q-22 0 -38 -3l-2 22q73 8 114 34t41 64q0 26 -17 41t-48 15q-60 0 -106 -56l-13 6q24 43 62.5 67t85.5 24q48 0 74 -21.5t26 -58.5q0 -40 -34 -69.5t-90 -44.5q92 -11 92 -78z" />
<glyph unicode="&#xb4;" horiz-adv-x="400" d="M335 756l7 3q8 0 11 -1q41 -3 41 -28q0 -30 -69.5 -75.5t-150.5 -77.5l-10 15q119 93 171 164z" />
<glyph unicode="&#xb6;" horiz-adv-x="604" d="M460 68q-23 -113 -86 -176t-150 -63q-65 0 -105 29.5t-40 79.5q0 66 78 107l11 -10q-25 -41 -25 -78q0 -42 24 -66.5t70 -24.5q64 0 108 56.5t62 150.5l107 499l16 75h-77l-91 -422q-103 0 -162 51t-59 140q0 118 91 194t231 76h210l2 -20l-62 -15q-31 -7 -36 -36 l-10 -43z" />
<glyph unicode="&#xb7;" horiz-adv-x="308" d="M255 278q0 -26 -18 -46.5t-44 -20.5q-23 0 -36 14t-13 35q0 26 18 46.5t45 20.5q22 0 35 -14t13 -35z" />
<glyph unicode="&#xb8;" horiz-adv-x="335" d="M163 -120q0 -38 -46 -67t-119 -36l-2 10q42 13 69 34.5t27 43.5q0 32 -48 37l-2 6l36 92h38l-25 -63q72 -10 72 -57z" />
<glyph unicode="&#xb9;" horiz-adv-x="279" d="M293 353h-176l-1 10l38 6q28 7 33 27l67 316l-60 6l1 10l119 28l5 -6l-79 -372l55 -15z" />
<glyph unicode="&#xba;" horiz-adv-x="364" d="M433 611q0 -108 -55.5 -184t-127.5 -76q-48 0 -78.5 39t-30.5 102q0 104 56.5 183t127.5 79q52 0 80 -38t28 -105zM204 482q0 -48 13.5 -75.5t38.5 -27.5q46 0 79.5 82t33.5 174q0 91 -49 91q-45 0 -80.5 -79.5t-35.5 -164.5z" />
<glyph unicode="&#xbb;" horiz-adv-x="543" d="M374 471l17 9q59 -125 117 -197l3 -6l-11 -52q-91 -78 -208 -205l-14 10q45 68 168 231q-45 114 -72 210zM168 471l18 9q61 -128 116 -197l4 -6l-12 -52q-91 -78 -208 -205l-13 10q51 78 167 231q-51 136 -72 210z" />
<glyph unicode="&#xbc;" horiz-adv-x="939" d="M312 293h-175l-1 10l37 6q28 7 33 27l67 316l-60 6l1 10l119 28l5 -6l-79 -372l55 -15zM821 696l-573 -706h-46l571 706h48zM827 403l40 -4l-57 -267l65 1l-10 -36l-62 1l-21 -98h-57l21 99l-191 1l-3 22zM798 338l-201 -209l156 2z" />
<glyph unicode="&#xbd;" horiz-adv-x="939" d="M829 696l-573 -706h-47l572 706h48zM312 293h-175l-1 10l37 6q28 7 33 27l67 316l-60 6l1 10l119 28l5 -6l-79 -372l55 -15zM645 9q-36 0 -68 -19l-11 29q146 93 209 156.5t63 115.5q0 31 -17 49t-49 18q-31 0 -63.5 -19.5t-56.5 -51.5l-13 7q24 49 66 79t91 30 q47 0 74 -26t27 -70q0 -107 -179 -222q-10 -6 -32.5 -18.5t-27.5 -15.5q7 1 22 1q21 0 64 -6.5t54 -6.5q7 0 14 4t15.5 15t12 16t13.5 21l7 -4q-8 -32 -18 -54q-22 -47 -47 -47q-17 0 -68.5 9.5t-81.5 9.5z" />
<glyph unicode="&#xbe;" horiz-adv-x="939" d="M408 424q0 -57 -77.5 -95t-204.5 -46l-2 18q96 13 159 45.5t63 76.5q0 59 -85 59q-22 0 -37 -3l-3 22q73 8 114.5 34t41.5 64q0 25 -17 40.5t-49 15.5q-60 0 -106 -56l-13 6q24 43 62.5 67t85.5 24q48 0 74 -21.5t26 -58.5q0 -40 -34 -69.5t-90 -44.5q92 -11 92 -78z M831 696l-573 -706h-46l571 706h48zM827 403l40 -4l-57 -267l65 1l-10 -36l-62 1l-21 -98h-57l21 99l-191 1l-3 22zM798 338l-201 -209l156 2z" />
<glyph unicode="&#xbf;" horiz-adv-x="411" d="M320 506q17 0 28 -11t11 -29q0 -28 -17.5 -48.5t-42.5 -20.5q-17 0 -27.5 11t-10.5 28q0 29 17 49.5t42 20.5zM229 273l9 8q26 -2 42 -16t16 -37q0 -35 -23 -64t-56 -51t-66 -45.5t-56 -58t-23 -78.5q0 -43 23.5 -69t65.5 -26q60 0 100 44t40 106q0 9 -2 27q20 8 35 8 q39 0 39 -42q0 -72 -67.5 -125.5t-154.5 -53.5q-70 0 -112 38t-42 99q0 48 25.5 86.5t61.5 63.5t72 47t61.5 47.5t25.5 53.5q0 23 -14 38z" />
<glyph unicode="&#xc0;" horiz-adv-x="666" d="M605 795l-11 -16q-67 5 -141.5 30.5t-73.5 57.5q0 28 43 43l8 -1q23 -26 72 -58t103 -56zM445 688h45l75 -613q2 -19 9 -27.5t22 -13.5l51 -14l-2 -20h-232l-4 20l86 22l-25 200l-232 -4l-107 -195l81 -23l-4 -20h-203l-2 20l56 16q29 8 47 39zM259 276l207 -1l-37 311z " />
<glyph unicode="&#xc1;" horiz-adv-x="666" d="M584 908l8 1q37 -14 37 -37q0 -29 -79 -56t-175 -38l-5 16q157 69 214 114zM445 688h45l75 -613q2 -19 9 -27.5t22 -13.5l51 -14l-2 -20h-232l-4 20l86 22l-25 200l-232 -4l-107 -195l81 -23l-4 -20h-203l-2 20l56 16q29 8 47 39zM259 276l207 -1l-37 311z" />
<glyph unicode="&#xc2;" horiz-adv-x="666" d="M636 782l-17 -10q-68 58 -114 87q-79 -48 -152 -87l-10 13q94 75 140 125l9 5h50q50 -62 94 -133zM445 688h45l75 -613q2 -19 9 -27.5t22 -13.5l51 -14l-2 -20h-232l-4 20l86 22l-25 200l-232 -4l-107 -195l81 -23l-4 -20h-203l-2 20l56 16q29 8 47 39zM259 276l207 -1 l-37 311z" />
<glyph unicode="&#xc3;" horiz-adv-x="666" d="M386 845q-17 -7 -77 -64l-10 5q49 116 123 116q33 0 95.5 -29t85.5 -30q18 7 78 65l10 -6q-48 -116 -124 -116q-31 0 -93.5 29.5t-87.5 29.5zM445 688h45l75 -613q2 -19 9 -27.5t22 -13.5l51 -14l-2 -20h-232l-4 20l86 22l-25 200l-232 -4l-107 -195l81 -23l-4 -20h-203 l-2 20l56 16q29 8 47 39zM259 276l207 -1l-37 311z" />
<glyph unicode="&#xc4;" horiz-adv-x="666" d="M645 852q0 -26 -16.5 -44.5t-40.5 -18.5q-20 0 -31.5 10.5t-11.5 29.5q0 24 17 43.5t42 19.5q19 0 30 -11t11 -29zM441 852q0 -26 -16.5 -44.5t-40.5 -18.5q-20 0 -31.5 10.5t-11.5 29.5q0 24 17 43.5t42 19.5q19 0 30 -11t11 -29zM445 688h45l75 -613q2 -19 9 -27.5 t22 -13.5l51 -14l-2 -20h-232l-4 20l86 22l-25 200l-232 -4l-107 -195l81 -23l-4 -20h-203l-2 20l56 16q29 8 47 39zM259 276l207 -1l-37 311z" />
<glyph unicode="&#xc5;" horiz-adv-x="666" d="M589 859q0 -39 -31.5 -66t-77.5 -27q-32 0 -51 17t-19 46q0 38 31.5 65t76.5 27q33 0 52 -16.5t19 -45.5zM452 829q0 -17 10 -27t26 -10q24 0 41 19t17 46q0 17 -10 27t-26 10q-24 0 -41 -18.5t-17 -46.5zM445 688h45l75 -613q2 -19 9 -27.5t22 -13.5l51 -14l-2 -20h-232 l-4 20l86 22l-25 200l-232 -4l-107 -195l81 -23l-4 -20h-203l-2 20l56 16q29 8 47 39zM259 276l207 -1l-37 311z" />
<glyph unicode="&#xc6;" horiz-adv-x="886" d="M430 642l-78 23l7 21h574q-3 -75 -38 -182h-19q-4 35 -10 81.5t-8 61.5q-48 4 -100 4h-115l-62 -289l214 5l-11 -46l-210 7l-45 -213l-17 -80l145 -1q59 0 102 5q61 113 78 143h19q-7 -99 -40 -182h-466l-2 20l59 15q32 8 37 36l10 44l44 211l-209 -3l-155 -280l77 -22 l-6 -21h-201l2 21q12 3 31.5 8.5t26.5 7.5q28 8 45 38zM567 650h-96l-161 -290h195z" />
<glyph unicode="&#xc7;" horiz-adv-x="601" d="M452 -120q0 -38 -46 -67t-119 -36l-2 10q42 13 69.5 34.5t27.5 43.5q0 32 -48 37l-3 6l33 82q-120 4 -188.5 77t-68.5 198q0 177 116.5 304t279.5 127q89 0 141 -26q-5 -74 -38 -169h-19q-3 16 -10.5 67.5t-11.5 75.5q-31 11 -65 11q-126 0 -220 -115t-94 -270 q0 -112 55 -175.5t142 -63.5q36 0 76 10q11 19 25 41t31 51.5t29 48.5h19q-10 -87 -36 -164q-53 -22 -125 -27l-21 -54q34 -4 52.5 -19t18.5 -38z" />
<glyph unicode="&#xc8;" horiz-adv-x="581" d="M575 794l-10 -16q-39 3 -87.5 14t-88.5 31.5t-39 42.5q0 15 13 26t30 17l7 -1q23 -25 72 -57t103 -57zM329 572l-45 -210l206 5l-11 -46l-202 6l-45 -212l-17 -81h137q59 0 102 5q61 113 78 143h19q-7 -99 -40 -182h-458l-2 20l59 15q18 5 26 12.5t12 23.5l9 44l97 457 l15 71l-78 23l4 20h433q-3 -75 -38 -182h-19q-4 35 -10 81.5t-8 61.5q-44 4 -100 4h-107z" />
<glyph unicode="&#xc9;" horiz-adv-x="581" d="M544 907l9 1q36 -14 36 -37q0 -29 -79 -56t-175 -38l-5 16q157 69 214 114zM329 572l-45 -210l206 5l-11 -46l-202 6l-45 -212l-17 -81h137q59 0 102 5q61 113 78 143h19q-7 -99 -40 -182h-458l-2 20l59 15q18 5 26 12.5t12 23.5l9 44l97 457l15 71l-78 23l4 20h433 q-3 -75 -38 -182h-19q-4 35 -10 81.5t-8 61.5q-44 4 -100 4h-107z" />
<glyph unicode="&#xca;" horiz-adv-x="581" d="M599 782l-17 -11q-68 58 -114 87q-82 -50 -153 -87l-9 13q103 84 140 126l9 4h50q48 -60 94 -132zM329 572l-45 -210l206 5l-11 -46l-202 6l-45 -212l-17 -81h137q59 0 102 5q61 113 78 143h19q-7 -99 -40 -182h-458l-2 20l59 15q18 5 26 12.5t12 23.5l9 44l97 457l15 71 l-78 23l4 20h433q-3 -75 -38 -182h-19q-4 35 -10 81.5t-8 61.5q-44 4 -100 4h-107z" />
<glyph unicode="&#xcb;" horiz-adv-x="581" d="M620 852q0 -26 -17 -45t-40 -19q-20 0 -32 11t-12 29q0 24 17 43.5t42 19.5q19 0 30.5 -11t11.5 -28zM416 852q0 -26 -17 -45t-40 -19q-20 0 -32 11t-12 29q0 24 17 43.5t42 19.5q19 0 30.5 -11t11.5 -28zM329 572l-45 -210l206 5l-11 -46l-202 6l-45 -212l-17 -81h137 q59 0 102 5q61 113 78 143h19q-7 -99 -40 -182h-458l-2 20l59 15q18 5 26 12.5t12 23.5l9 44l97 457l15 71l-78 23l4 20h433q-3 -75 -38 -182h-19q-4 35 -10 81.5t-8 61.5q-44 4 -100 4h-107z" />
<glyph unicode="&#xcc;" horiz-adv-x="365" d="M458 795l-11 -16q-39 3 -87 14t-88 31.5t-39 42.5q0 28 42 43l8 -1q23 -26 72 -58t103 -56zM216 43l79 -23l-4 -20h-238l-2 20l59 15q31 8 37 36l10 44l96 457l16 71l-78 23l4 20h237l2 -20l-59 -15q-31 -8 -36 -36l-11 -43h1l-97 -457z" />
<glyph unicode="&#xcd;" horiz-adv-x="365" d="M428 908l8 1q36 -13 36 -37q0 -29 -78.5 -56.5t-174.5 -37.5l-6 16q157 69 215 114zM216 43l79 -23l-4 -20h-238l-2 20l59 15q31 8 37 36l10 44l96 457l16 71l-78 23l4 20h237l2 -20l-59 -15q-31 -8 -36 -36l-11 -43h1l-97 -457z" />
<glyph unicode="&#xce;" horiz-adv-x="365" d="M482 782l-16 -10q-64 54 -114 87q-82 -50 -153 -87l-9 13q92 75 140 125l8 5h51q52 -65 93 -133zM216 43l79 -23l-4 -20h-238l-2 20l59 15q31 8 37 36l10 44l96 457l16 71l-78 23l4 20h237l2 -20l-59 -15q-31 -8 -36 -36l-11 -43h1l-97 -457z" />
<glyph unicode="&#xcf;" horiz-adv-x="365" d="M501 852q0 -26 -17 -44.5t-40 -18.5q-20 0 -32 10.5t-12 29.5q0 24 17 43.5t42 19.5q19 0 30.5 -11t11.5 -29zM297 852q0 -26 -17 -44.5t-40 -18.5q-20 0 -31.5 10.5t-11.5 29.5q0 24 16.5 43.5t41.5 19.5q19 0 30.5 -11t11.5 -29zM216 43l79 -23l-4 -20h-238l-2 20 l59 15q31 8 37 36l10 44l96 457l16 71l-78 23l4 20h237l2 -20l-59 -15q-31 -8 -36 -36l-11 -43h1l-97 -457z" />
<glyph unicode="&#xd0;" horiz-adv-x="671" d="M276 0h-223l-2 20l59 15q18 5 26 12.5t12 23.5l9 44l47 220h-107l7 34h107l43 203l15 71l-78 23l4 20h220q126 0 200 -68.5t74 -187.5q0 -82 -28 -158.5t-79 -137.5t-130.5 -97.5t-175.5 -36.5zM459 335h-180l-47 -220l-17 -79h62q99 0 176.5 57.5t117 148t39.5 194.5 q0 101 -53 157.5t-157 56.5h-54l-17 -78l-43 -203h180z" />
<glyph unicode="&#xd1;" horiz-adv-x="722" d="M433 845q-15 -6 -78 -64l-10 5q49 116 123 116q33 0 95.5 -29t85.5 -30q18 7 78 65l10 -6q-48 -116 -124 -116q-31 0 -93.5 29.5t-86.5 29.5zM182 44l96 -23l-5 -21h-223l-3 21l61 15q19 5 27 12.5t12 22.5l10 44l111 526l-80 24l5 21h141l236 -575l97 461l16 70l-85 23 l4 21h213l2 -21l-60 -15q-19 -5 -27 -12t-12 -23l-10 -43l-121 -572h-50l-240 583l-99 -468z" />
<glyph unicode="&#xd2;" horiz-adv-x="605" d="M573 795l-10 -16q-67 5 -141.5 30.5t-73.5 57.5q0 28 43 43l8 -1q22 -25 71 -57.5t103 -56.5zM626 451q0 -105 -39.5 -209.5t-116 -178t-169.5 -73.5q-90 0 -144.5 66.5t-54.5 177.5q0 108 40.5 213t118 177t170.5 72q91 0 143 -66t52 -179zM181 214q0 -84 33 -134 t94 -50q52 0 98.5 44.5t76 112.5t47 145t17.5 145q0 180 -122 180q-69 0 -127 -73t-87.5 -173.5t-29.5 -196.5z" />
<glyph unicode="&#xd3;" horiz-adv-x="605" d="M555 908l9 1q36 -14 36 -37q0 -29 -79 -56t-175 -38l-5 16q157 69 214 114zM626 451q0 -105 -39.5 -209.5t-116 -178t-169.5 -73.5q-90 0 -144.5 66.5t-54.5 177.5q0 108 40.5 213t118 177t170.5 72q91 0 143 -66t52 -179zM181 214q0 -84 33 -134t94 -50q52 0 98.5 44.5 t76 112.5t47 145t17.5 145q0 180 -122 180q-69 0 -127 -73t-87.5 -173.5t-29.5 -196.5z" />
<glyph unicode="&#xd4;" horiz-adv-x="605" d="M596 782l-16 -10q-64 54 -114 87q-82 -50 -153 -87l-9 13q92 75 140 125l8 5h51q52 -65 93 -133zM626 451q0 -105 -39.5 -209.5t-116 -178t-169.5 -73.5q-90 0 -144.5 66.5t-54.5 177.5q0 108 40.5 213t118 177t170.5 72q91 0 143 -66t52 -179zM181 214q0 -84 33 -134 t94 -50q52 0 98.5 44.5t76 112.5t47 145t17.5 145q0 180 -122 180q-69 0 -127 -73t-87.5 -173.5t-29.5 -196.5z" />
<glyph unicode="&#xd5;" horiz-adv-x="605" d="M353 845q-17 -7 -77 -64l-10 5q49 116 123 116q32 0 94.5 -29t86.5 -30q19 7 77 65l11 -6q-49 -116 -124 -116q-31 0 -93.5 29.5t-87.5 29.5zM626 451q0 -105 -39.5 -209.5t-116 -178t-169.5 -73.5q-90 0 -144.5 66.5t-54.5 177.5q0 108 40.5 213t118 177t170.5 72 q91 0 143 -66t52 -179zM181 214q0 -84 33 -134t94 -50q52 0 98.5 44.5t76 112.5t47 145t17.5 145q0 180 -122 180q-69 0 -127 -73t-87.5 -173.5t-29.5 -196.5z" />
<glyph unicode="&#xd6;" horiz-adv-x="605" d="M614 852q0 -26 -17 -44.5t-40 -18.5q-20 0 -31.5 10.5t-11.5 29.5q0 24 16.5 43.5t41.5 19.5q19 0 30.5 -11t11.5 -29zM410 852q0 -26 -16.5 -44.5t-40.5 -18.5q-20 0 -31.5 10.5t-11.5 29.5q0 24 17 43.5t42 19.5q19 0 30 -11t11 -29zM626 451q0 -105 -39.5 -209.5 t-116 -178t-169.5 -73.5q-90 0 -144.5 66.5t-54.5 177.5q0 108 40.5 213t118 177t170.5 72q91 0 143 -66t52 -179zM181 214q0 -84 33 -134t94 -50q52 0 98.5 44.5t76 112.5t47 145t17.5 145q0 180 -122 180q-69 0 -127 -73t-87.5 -173.5t-29.5 -196.5z" />
<glyph unicode="&#xd7;" d="M471 145l-127 162l-198 -162l-29 42l195 159l-126 160l39 34q27 -33 128 -160l197 160l29 -41l-195 -159q82 -104 124 -156l-3 -11z" />
<glyph unicode="&#xd8;" horiz-adv-x="605" d="M626 451q0 -105 -39.5 -209.5t-116 -178t-169.5 -73.5q-115 0 -168 102l-78 -79l-24 25l87 89q-16 50 -16 107q0 108 40.5 213t118 177t170.5 72q107 0 159 -89l66 67l25 -25l-75 -76q20 -54 20 -122zM181 214v-23l358 365q-24 101 -114 101q-69 0 -127 -73t-87.5 -173.5 t-29.5 -196.5zM547 477q0 24 -1 35l-359 -365q12 -55 42.5 -86t78.5 -31q52 0 98.5 44.5t76 112.5t47 145t17.5 145z" />
<glyph unicode="&#xd9;" horiz-adv-x="668" d="M633 795l-10 -16q-39 3 -87.5 14t-88.5 31.5t-39 42.5q0 28 43 43l7 -1q22 -25 72 -57.5t103 -56.5zM601 240q-53 -250 -259 -250q-88 0 -142 48.5t-54 134.5q0 43 7 76l69 323l16 71l-79 23l4 20h238l2 -20l-59 -15q-31 -8 -37 -36l-10 -43l-69 -327q-7 -34 -7 -68 q0 -69 38.5 -107.5t102.5 -38.5q71 0 122.5 52t74.5 157l72 334l15 68l-85 23l4 21h213l2 -21l-94 -23l-15 -68z" />
<glyph unicode="&#xda;" horiz-adv-x="668" d="M603 908l8 1q36 -14 36 -37q0 -29 -79 -56t-175 -38l-5 16q157 69 215 114zM601 240q-53 -250 -259 -250q-88 0 -142 48.5t-54 134.5q0 43 7 76l69 323l16 71l-79 23l4 20h238l2 -20l-59 -15q-31 -8 -37 -36l-10 -43l-69 -327q-7 -34 -7 -68q0 -69 38.5 -107.5 t102.5 -38.5q71 0 122.5 52t74.5 157l72 334l15 68l-85 23l4 21h213l2 -21l-94 -23l-15 -68z" />
<glyph unicode="&#xdb;" horiz-adv-x="668" d="M654 782l-16 -10q-68 58 -114 87q-82 -50 -153 -87l-9 13q92 75 140 125l8 5h51q52 -65 93 -133zM601 240q-53 -250 -259 -250q-88 0 -142 48.5t-54 134.5q0 43 7 76l69 323l16 71l-79 23l4 20h238l2 -20l-59 -15q-31 -8 -37 -36l-10 -43l-69 -327q-7 -34 -7 -68 q0 -69 38.5 -107.5t102.5 -38.5q71 0 122.5 52t74.5 157l72 334l15 68l-85 23l4 21h213l2 -21l-94 -23l-15 -68z" />
<glyph unicode="&#xdc;" horiz-adv-x="668" d="M670 852q0 -26 -17 -44.5t-40 -18.5q-20 0 -31.5 10.5t-11.5 29.5q0 24 16.5 43.5t41.5 19.5q19 0 30.5 -11t11.5 -29zM466 852q0 -26 -16.5 -44.5t-40.5 -18.5q-20 0 -31.5 10.5t-11.5 29.5q0 24 17 43.5t42 19.5q19 0 30 -11t11 -29zM601 240q-53 -250 -259 -250 q-88 0 -142 48.5t-54 134.5q0 43 7 76l69 323l16 71l-79 23l4 20h238l2 -20l-59 -15q-31 -8 -37 -36l-10 -43l-69 -327q-7 -34 -7 -68q0 -69 38.5 -107.5t102.5 -38.5q71 0 122.5 52t74.5 157l72 334l15 68l-85 23l4 21h213l2 -21l-94 -23l-15 -68z" />
<glyph unicode="&#xdd;" horiz-adv-x="634" d="M584 908l8 1q37 -14 37 -37q0 -29 -79 -56t-175 -38l-5 16q157 69 214 114zM347 43l79 -23l-4 -20h-238l-2 20l59 15q31 8 37 36l10 44l17 79q12 81 2.5 180.5t-39 183t-60.5 83.5t-86 -90l-14 7q59 138 132 138q41 0 74 -55.5t51 -143t20 -186.5q82 169 158 277t128 108 q32 0 50 -39.5t22 -94.5l-16 -5q-25 84 -58 84q-32 0 -96 -83t-122 -193.5t-74 -184.5l-14 -65z" />
<glyph unicode="&#xde;" horiz-adv-x="556" d="M216 43l98 -23l-4 -20h-257l-2 20l59 15q31 8 37 36l10 44l97 460l16 72l-78 23l4 20h237l2 -20l-59 -15q-31 -8 -37 -36l-10 -44l-4 -19h57q102 0 159.5 -45t57.5 -128q0 -111 -81.5 -178t-209.5 -67h-71l-5 -23zM374 516h-57l-72 -340h66q100 0 155 60.5t55 145.5 q0 134 -147 134z" />
<glyph unicode="&#xdf;" horiz-adv-x="541" d="M161 -1q-27 -121 -82 -188t-131 -67q-41 0 -67.5 18.5t-26.5 45.5q0 24 22 35q39 -52 85 -52t73.5 46t49.5 145l123 543q24 108 82 169.5t141 61.5q61 0 95 -31.5t34 -86.5q0 -72 -47.5 -129t-118.5 -70q135 -88 135 -233q0 -91 -54 -153.5t-132 -62.5q-39 0 -65 18.5 t-26 45.5q0 24 22 35q29 -52 75 -52q44 0 74 49t30 119q0 143 -118 225l4 19q67 9 109 59.5t42 118.5q0 45 -19 70.5t-53 25.5q-93 0 -133 -179z" />
<glyph unicode="&#xe0;" horiz-adv-x="501" d="M449 589l-13 -12q-67 40 -113.5 81.5t-42.5 68.5q3 31 50 31h11l7 -4q23 -64 101 -165zM405 134q-11 -53 -11 -63q0 -26 18 -26q29 0 92 88l9 -6q-26 -54 -62 -95.5t-74 -41.5q-57 0 -57 66q0 20 12 78l25 113q-29 -62 -59.5 -114.5t-74 -97.5t-80.5 -45q-35 0 -57 32.5 t-22 89.5q0 101 40.5 192.5t109.5 146.5t148 55q69 0 121 -26l-6 -19zM139 120q0 -31 9 -50t25 -19q42 0 111 113.5t97 199.5l20 89q-28 19 -66 19q-72 0 -134 -110t-62 -242z" />
<glyph unicode="&#xe1;" horiz-adv-x="501" d="M456 756l7 3q8 0 11 -1q41 -3 41 -28q0 -30 -69.5 -75.5t-150.5 -77.5l-10 15q119 93 171 164zM405 134q-11 -53 -11 -63q0 -26 18 -26q29 0 92 88l9 -6q-26 -54 -62 -95.5t-74 -41.5q-57 0 -57 66q0 20 12 78l25 113q-29 -62 -59.5 -114.5t-74 -97.5t-80.5 -45 q-35 0 -57 32.5t-22 89.5q0 101 40.5 192.5t109.5 146.5t148 55q69 0 121 -26l-6 -19zM139 120q0 -31 9 -50t25 -19q42 0 111 113.5t97 199.5l20 89q-28 19 -66 19q-72 0 -134 -110t-62 -242z" />
<glyph unicode="&#xe2;" horiz-adv-x="501" d="M510 592l-17 -11q-56 67 -102 111q-94 -78 -142 -111l-10 13q92 102 128 154l8 5h54q45 -80 81 -161zM405 134q-11 -53 -11 -63q0 -26 18 -26q29 0 92 88l9 -6q-26 -54 -62 -95.5t-74 -41.5q-57 0 -57 66q0 20 12 78l25 113q-29 -62 -59.5 -114.5t-74 -97.5t-80.5 -45 q-35 0 -57 32.5t-22 89.5q0 101 40.5 192.5t109.5 146.5t148 55q69 0 121 -26l-6 -19zM139 120q0 -31 9 -50t25 -19q42 0 111 113.5t97 199.5l20 89q-28 19 -66 19q-72 0 -134 -110t-62 -242z" />
<glyph unicode="&#xe3;" horiz-adv-x="501" d="M283 675q-16 -8 -70 -67l-9 5q45 117 119 117q31 0 85 -29.5t75 -30.5q17 8 69 67l10 -5q-45 -117 -120 -117q-31 0 -86 29.5t-73 30.5zM405 134q-11 -53 -11 -63q0 -26 18 -26q29 0 92 88l9 -6q-26 -54 -62 -95.5t-74 -41.5q-57 0 -57 66q0 20 12 78l25 113 q-29 -62 -59.5 -114.5t-74 -97.5t-80.5 -45q-35 0 -57 32.5t-22 89.5q0 101 40.5 192.5t109.5 146.5t148 55q69 0 121 -26l-6 -19zM139 120q0 -31 9 -50t25 -19q42 0 111 113.5t97 199.5l20 89q-28 19 -66 19q-72 0 -134 -110t-62 -242z" />
<glyph unicode="&#xe4;" horiz-adv-x="501" d="M528 678q0 -27 -16.5 -47t-38.5 -20q-18 0 -29.5 12.5t-11.5 31.5q0 25 16.5 45t40.5 20q17 0 28 -11.5t11 -30.5zM326 678q0 -27 -16.5 -47t-38.5 -20q-18 0 -29.5 12.5t-11.5 31.5q0 25 16.5 45t40.5 20q17 0 28 -11.5t11 -30.5zM405 134q-11 -53 -11 -63q0 -26 18 -26 q29 0 92 88l9 -6q-26 -54 -62 -95.5t-74 -41.5q-57 0 -57 66q0 20 12 78l25 113q-29 -62 -59.5 -114.5t-74 -97.5t-80.5 -45q-35 0 -57 32.5t-22 89.5q0 101 40.5 192.5t109.5 146.5t148 55q69 0 121 -26l-6 -19zM139 120q0 -31 9 -50t25 -19q42 0 111 113.5t97 199.5l20 89 q-28 19 -66 19q-72 0 -134 -110t-62 -242z" />
<glyph unicode="&#xe5;" horiz-adv-x="501" d="M479 683q0 -39 -31.5 -66.5t-77.5 -27.5q-32 0 -51 17.5t-19 46.5q0 38 31 65t76 27q33 0 52.5 -17t19.5 -45zM341 653q0 -17 10.5 -27t26.5 -10q24 0 41 19t17 46q0 17 -10 27t-26 10q-25 0 -42 -19t-17 -46zM405 134q-11 -53 -11 -63q0 -26 18 -26q29 0 92 88l9 -6 q-26 -54 -62 -95.5t-74 -41.5q-57 0 -57 66q0 20 12 78l25 113q-29 -62 -59.5 -114.5t-74 -97.5t-80.5 -45q-35 0 -57 32.5t-22 89.5q0 101 40.5 192.5t109.5 146.5t148 55q69 0 121 -26l-6 -19zM139 120q0 -31 9 -50t25 -19q42 0 111 113.5t97 199.5l20 89q-28 19 -66 19 q-72 0 -134 -110t-62 -242z" />
<glyph unicode="&#xe6;" horiz-adv-x="638" d="M635 133q-36 -65 -83.5 -104t-101.5 -39q-59 0 -90.5 45t-31.5 125q0 20 1 31q-104 -201 -186 -201q-35 0 -57 32.5t-22 89.5q0 101 40.5 192.5t109.5 146.5t148 55q69 0 121 -26l-1 -5l-1 -2q49 33 97 33q44 0 68.5 -24t24.5 -65q0 -78 -79 -130.5t-183 -55.5l2 14 q-8 -42 -8 -80q0 -57 21 -89t59 -32q61 0 143 95zM139 120q0 -31 9 -50t25 -19q33 0 82 70t92 160l53 173q-28 18 -65 18q-72 0 -134 -110t-62 -242zM566 470q-48 0 -90.5 -61.5t-61.5 -149.5q81 7 135.5 54.5t54.5 109.5q0 47 -38 47z" />
<glyph unicode="&#xe7;" horiz-adv-x="377" d="M266 -120q0 -38 -46 -67t-119 -36l-2 10q43 13 70 34.5t27 43.5q0 32 -48 37l-3 6l33 83q-52 7 -79 48.5t-27 112.5q0 89 36.5 171.5t95.5 132.5t121 50q44 0 70 -26t26 -68q0 -35 -18 -61.5t-43 -26.5q-13 0 -25 7q20 44 20 84q0 55 -45 55q-59 0 -111 -98.5t-52 -208.5 q0 -119 83 -119q61 0 145 95l8 -6q-72 -129 -167 -142l-21 -54q34 -4 52.5 -19t18.5 -38z" />
<glyph unicode="&#xe8;" horiz-adv-x="383" d="M406 589l-13 -12q-66 40 -112.5 81.5t-43.5 68.5q5 31 51 31h11l6 -4q24 -63 101 -165zM379 133q-36 -65 -83.5 -104t-101.5 -39q-59 0 -90 45t-31 125q0 84 36 165t94 131t119 50q44 0 69 -24t25 -65q0 -78 -79 -130.5t-184 -55.5l2 14q-7 -36 -7 -80q0 -57 20.5 -89 t58.5 -32q62 0 144 95zM310 470q-47 0 -90.5 -61.5t-61.5 -149.5q82 7 136.5 54.5t54.5 109.5q0 21 -10.5 34t-28.5 13z" />
<glyph unicode="&#xe9;" horiz-adv-x="383" d="M398 756l8 3q7 0 11 -1q40 -3 40 -28q0 -30 -69.5 -76t-150.5 -77l-9 15q119 95 170 164zM379 133q-36 -65 -83.5 -104t-101.5 -39q-59 0 -90 45t-31 125q0 84 36 165t94 131t119 50q44 0 69 -24t25 -65q0 -78 -79 -130.5t-184 -55.5l2 14q-7 -36 -7 -80q0 -57 20.5 -89 t58.5 -32q62 0 144 95zM310 470q-47 0 -90.5 -61.5t-61.5 -149.5q82 7 136.5 54.5t54.5 109.5q0 21 -10.5 34t-28.5 13z" />
<glyph unicode="&#xea;" horiz-adv-x="383" d="M462 592l-16 -11q-56 68 -103 111q-85 -71 -141 -111l-10 13q92 102 128 154l8 5h54q47 -83 80 -161zM379 133q-36 -65 -83.5 -104t-101.5 -39q-59 0 -90 45t-31 125q0 84 36 165t94 131t119 50q44 0 69 -24t25 -65q0 -78 -79 -130.5t-184 -55.5l2 14q-7 -36 -7 -80 q0 -57 20.5 -89t58.5 -32q62 0 144 95zM310 470q-47 0 -90.5 -61.5t-61.5 -149.5q82 7 136.5 54.5t54.5 109.5q0 21 -10.5 34t-28.5 13z" />
<glyph unicode="&#xeb;" horiz-adv-x="383" d="M488 678q0 -27 -16.5 -47t-38.5 -20q-18 0 -29.5 12.5t-11.5 31.5q0 25 16.5 45t39.5 20q18 0 29 -11.5t11 -30.5zM286 678q0 -27 -16.5 -47t-38.5 -20q-18 0 -29.5 12.5t-11.5 31.5q0 25 16.5 45t39.5 20q18 0 29 -11.5t11 -30.5zM379 133q-36 -65 -83.5 -104 t-101.5 -39q-59 0 -90 45t-31 125q0 84 36 165t94 131t119 50q44 0 69 -24t25 -65q0 -78 -79 -130.5t-184 -55.5l2 14q-7 -36 -7 -80q0 -57 20.5 -89t58.5 -32q62 0 144 95zM310 470q-47 0 -90.5 -61.5t-61.5 -149.5q82 7 136.5 54.5t54.5 109.5q0 21 -10.5 34t-28.5 13z " />
<glyph unicode="&#xec;" horiz-adv-x="298" d="M345 589l-13 -12q-67 40 -113.5 81.5t-42.5 68.5q3 31 50 31h11l7 -4q23 -64 101 -165zM199 134q-10 -48 -10 -63q0 -26 17 -26q29 0 92 88l9 -6q-26 -54 -62 -95.5t-74 -41.5q-56 0 -56 66q0 25 11 78q9 41 30.5 130.5t23.5 97.5q10 48 10 64q0 25 -18 25q-28 0 -91 -88 l-9 6q26 55 61.5 96t74.5 41q56 0 56 -66q0 -25 -11 -78q-7 -29 -26.5 -110t-27.5 -118z" />
<glyph unicode="&#xed;" horiz-adv-x="298" d="M324 756l8 3q7 0 11 -1q40 -3 40 -28q0 -30 -69.5 -76t-150.5 -77l-9 15q119 95 170 164zM199 134q-10 -48 -10 -63q0 -26 17 -26q29 0 92 88l9 -6q-26 -54 -62 -95.5t-74 -41.5q-56 0 -56 66q0 25 11 78q9 41 30.5 130.5t23.5 97.5q10 48 10 64q0 25 -18 25 q-28 0 -91 -88l-9 6q26 55 61.5 96t74.5 41q56 0 56 -66q0 -25 -11 -78q-7 -29 -26.5 -110t-27.5 -118z" />
<glyph unicode="&#xee;" horiz-adv-x="298" d="M349 592l-17 -11q-50 80 -66 104q-59 -55 -116 -104l-10 13q9 13 36.5 51t44.5 63t25 40l9 5h53q5 -23 19.5 -78t21.5 -83zM199 134q-10 -48 -10 -63q0 -26 17 -26q29 0 92 88l9 -6q-26 -54 -62 -95.5t-74 -41.5q-56 0 -56 66q0 25 11 78q9 41 30.5 130.5t23.5 97.5 q10 48 10 64q0 25 -18 25q-28 0 -91 -88l-9 6q26 55 61.5 96t74.5 41q56 0 56 -66q0 -25 -11 -78q-7 -29 -26.5 -110t-27.5 -118z" />
<glyph unicode="&#xef;" horiz-adv-x="298" d="M386 674q-2 -26 -15.5 -44.5t-36.5 -18.5q-18 0 -28 13.5t-9 34.5q0 25 15 43.5t37 18.5q18 0 28 -13t9 -34zM232 674q-2 -26 -15.5 -44.5t-35.5 -18.5q-18 0 -28.5 13.5t-9.5 34.5q1 25 16 43.5t36 18.5q18 0 28 -13t9 -34zM199 134q-10 -48 -10 -63q0 -26 17 -26 q29 0 92 88l9 -6q-26 -54 -62 -95.5t-74 -41.5q-56 0 -56 66q0 25 11 78q9 41 30.5 130.5t23.5 97.5q10 48 10 64q0 25 -18 25q-28 0 -91 -88l-9 6q26 55 61.5 96t74.5 41q56 0 56 -66q0 -25 -11 -78q-7 -29 -26.5 -110t-27.5 -118z" />
<glyph unicode="&#xf0;" horiz-adv-x="444" d="M226 -10q-61 0 -98.5 49.5t-37.5 130.5q0 133 68.5 234.5t154.5 101.5q32 0 57 -17q-13 67 -42 118l-167 -70l-8 32l158 66q-45 63 -113 98l12 21q92 -34 149 -99l126 53l9 -32l-115 -48q72 -104 73 -292q0 -133 -65.5 -239.5t-160.5 -106.5zM314 471q-39 0 -74.5 -50.5 t-55 -123.5t-19.5 -142q0 -60 17.5 -95t48.5 -35q39 0 74 50t54 123.5t19 146.5q0 126 -64 126z" />
<glyph unicode="&#xf1;" horiz-adv-x="540" d="M299 675q-16 -8 -70 -67l-9 5q44 117 119 117q30 0 84.5 -29.5t74.5 -30.5q16 8 70 67l9 -5q-44 -117 -119 -117q-31 0 -86 29.5t-73 30.5zM104 13l26 121q44 201 50 227q10 44 10 64q0 26 -17 26q-29 0 -92 -88l-9 6q26 55 61.5 96t73.5 41q55 0 55 -63q0 -19 -36 -182 q23 46 41 77.5t48 75.5t62.5 68t64.5 24t49 -21.5t17 -54.5q0 -22 -7.5 -62t-16 -73t-23 -87.5t-19.5 -73.5q-10 -58 -10 -63q0 -26 18 -26q27 0 92 88l8 -6q-26 -55 -61.5 -96t-74.5 -41q-56 0 -56 66q0 20 12 78q7 32 25 96.5t29 111.5t11 69q0 36 -29 36t-71 -54 t-73 -114t-51 -110l-8 -35l-29 -136l-32 -4q-24 -3 -31 -3q-13 0 -7 22z" />
<glyph unicode="&#xf2;" horiz-adv-x="433" d="M405 589l-13 -12q-66 40 -112.5 81.5t-43.5 68.5q5 31 51 31h11l6 -4q24 -63 101 -165zM439 329q0 -141 -69 -240t-159 -99q-61 0 -98 49.5t-37 130.5q0 133 70 234.5t159 101.5q65 0 99.5 -47t34.5 -130zM151 155q0 -60 18 -95t49 -35q58 0 102 104.5t44 220.5 q0 121 -64 121q-39 0 -74.5 -50.5t-55 -123.5t-19.5 -142z" />
<glyph unicode="&#xf3;" horiz-adv-x="433" d="M390 756l8 3q7 0 11 -1q40 -3 40 -28q0 -30 -69.5 -76t-150.5 -77l-9 15q119 95 170 164zM439 329q0 -141 -69 -240t-159 -99q-61 0 -98 49.5t-37 130.5q0 133 70 234.5t159 101.5q65 0 99.5 -47t34.5 -130zM151 155q0 -60 18 -95t49 -35q58 0 102 104.5t44 220.5 q0 121 -64 121q-39 0 -74.5 -50.5t-55 -123.5t-19.5 -142z" />
<glyph unicode="&#xf4;" horiz-adv-x="433" d="M458 592l-17 -11q-56 67 -102 111q-94 -78 -142 -111l-10 13q85 93 128 154l8 5h54q45 -80 81 -161zM439 329q0 -141 -69 -240t-159 -99q-61 0 -98 49.5t-37 130.5q0 133 70 234.5t159 101.5q65 0 99.5 -47t34.5 -130zM151 155q0 -60 18 -95t49 -35q58 0 102 104.5 t44 220.5q0 121 -64 121q-39 0 -74.5 -50.5t-55 -123.5t-19.5 -142z" />
<glyph unicode="&#xf5;" horiz-adv-x="433" d="M230 675q-16 -8 -70 -67l-9 5q44 117 119 117q30 0 84.5 -29.5t74.5 -30.5q16 8 70 67l9 -5q-44 -117 -119 -117q-32 0 -86.5 29.5t-72.5 30.5zM439 329q0 -141 -69 -240t-159 -99q-61 0 -98 49.5t-37 130.5q0 133 70 234.5t159 101.5q65 0 99.5 -47t34.5 -130zM151 155 q0 -60 18 -95t49 -35q58 0 102 104.5t44 220.5q0 121 -64 121q-39 0 -74.5 -50.5t-55 -123.5t-19.5 -142z" />
<glyph unicode="&#xf6;" horiz-adv-x="433" d="M482 678q0 -27 -16.5 -47t-38.5 -20q-18 0 -29 12t-11 32q0 25 16 45t40 20q17 0 28 -11.5t11 -30.5zM280 678q0 -27 -16 -47t-38 -20q-19 0 -30 12t-11 32q0 25 16 45t40 20q17 0 28 -11.5t11 -30.5zM439 329q0 -141 -69 -240t-159 -99q-61 0 -98 49.5t-37 130.5 q0 133 70 234.5t159 101.5q65 0 99.5 -47t34.5 -130zM151 155q0 -60 18 -95t49 -35q58 0 102 104.5t44 220.5q0 121 -64 121q-39 0 -74.5 -50.5t-55 -123.5t-19.5 -142z" />
<glyph unicode="&#xf7;" d="M377 475q-17 0 -27 10.5t-10 28.5q0 28 16.5 47.5t40.5 19.5q16 0 26.5 -10.5t10.5 -27.5q0 -28 -17 -48t-40 -20zM547 318h-415l10 46q155 5 414 5l7 -8zM298 105q-17 0 -27.5 10.5t-10.5 27.5q0 28 17 47.5t40 19.5q17 0 27.5 -10.5t10.5 -27.5q0 -28 -17 -47.5 t-40 -19.5z" />
<glyph unicode="&#xf8;" horiz-adv-x="433" d="M439 329q0 -141 -69 -240t-159 -99q-81 0 -116 81l-63 -62l-23 27l73 72q-6 28 -6 62q0 133 70 234.5t159 101.5q77 0 112 -67l50 49l24 -27l-60 -59q8 -35 8 -73zM300 471q-55 0 -99 -94t-50 -200l211 208q-8 86 -62 86zM218 25q38 0 71.5 47.5t53 119t21.5 144.5 l-212 -209q4 -48 21 -75t45 -27z" />
<glyph unicode="&#xf9;" horiz-adv-x="547" d="M455 589l-13 -12q-67 40 -113.5 81.5t-42.5 68.5q3 31 50 31h11l7 -4q23 -64 101 -165zM187 362q10 48 10 64q0 25 -18 25q-27 0 -92 -88l-8 6q26 55 61.5 96t74.5 41q56 0 56 -66q0 -25 -11 -78q-7 -31 -25.5 -97.5t-28.5 -110.5t-10 -65q0 -38 26 -38q40 0 102 96 t97 189l6 27h1l29 136l31 4q27 3 32 3q11 0 7 -22l-27 -121l-50 -229q-10 -48 -10 -63q0 -26 18 -26q27 0 92 88l8 -6q-26 -55 -61.5 -96t-74.5 -41q-56 0 -56 66q0 27 12 78l22 100q-16 -35 -36.5 -72t-49 -78.5t-62 -67.5t-63.5 -26q-32 0 -49.5 22.5t-17.5 58.5 q0 27 10.5 75t29 117.5t25.5 98.5z" />
<glyph unicode="&#xfa;" horiz-adv-x="547" d="M453 756l8 3q8 0 11 -1q40 -3 40 -28q0 -30 -69.5 -76t-150.5 -77l-9 15q123 98 170 164zM187 362q10 48 10 64q0 25 -18 25q-27 0 -92 -88l-8 6q26 55 61.5 96t74.5 41q56 0 56 -66q0 -25 -11 -78q-7 -31 -25.5 -97.5t-28.5 -110.5t-10 -65q0 -38 26 -38q40 0 102 96 t97 189l6 27h1l29 136l31 4q27 3 32 3q11 0 7 -22l-27 -121l-50 -229q-10 -48 -10 -63q0 -26 18 -26q27 0 92 88l8 -6q-26 -55 -61.5 -96t-74.5 -41q-56 0 -56 66q0 27 12 78l22 100q-16 -35 -36.5 -72t-49 -78.5t-62 -67.5t-63.5 -26q-32 0 -49.5 22.5t-17.5 58.5 q0 27 10.5 75t29 117.5t25.5 98.5z" />
<glyph unicode="&#xfb;" horiz-adv-x="547" d="M512 591l-17 -11q-56 67 -102 111q-83 -68 -142 -111l-10 13q85 93 128 154l8 5h54q45 -80 81 -161zM187 362q10 48 10 64q0 25 -18 25q-27 0 -92 -88l-8 6q26 55 61.5 96t74.5 41q56 0 56 -66q0 -25 -11 -78q-7 -31 -25.5 -97.5t-28.5 -110.5t-10 -65q0 -38 26 -38 q40 0 102 96t97 189l6 27h1l29 136l31 4q27 3 32 3q11 0 7 -22l-27 -121l-50 -229q-10 -48 -10 -63q0 -26 18 -26q27 0 92 88l8 -6q-26 -55 -61.5 -96t-74.5 -41q-56 0 -56 66q0 27 12 78l22 100q-16 -35 -36.5 -72t-49 -78.5t-62 -67.5t-63.5 -26q-32 0 -49.5 22.5 t-17.5 58.5q0 27 10.5 75t29 117.5t25.5 98.5z" />
<glyph unicode="&#xfc;" horiz-adv-x="547" d="M538 678q0 -27 -16 -47t-38 -20q-19 0 -30 12t-11 32q0 25 16.5 45t39.5 20q17 0 28 -11.5t11 -30.5zM336 678q0 -27 -16 -47t-38 -20q-18 0 -29.5 12.5t-11.5 31.5q0 25 16.5 45t39.5 20q18 0 28.5 -11.5t10.5 -30.5zM187 362q10 48 10 64q0 25 -18 25q-27 0 -92 -88 l-8 6q26 55 61.5 96t74.5 41q56 0 56 -66q0 -25 -11 -78q-7 -31 -25.5 -97.5t-28.5 -110.5t-10 -65q0 -38 26 -38q40 0 102 96t97 189l6 27h1l29 136l31 4q27 3 32 3q11 0 7 -22l-27 -121l-50 -229q-10 -48 -10 -63q0 -26 18 -26q27 0 92 88l8 -6q-26 -55 -61.5 -96 t-74.5 -41q-56 0 -56 66q0 27 12 78l22 100q-16 -35 -36.5 -72t-49 -78.5t-62 -67.5t-63.5 -26q-32 0 -49.5 22.5t-17.5 58.5q0 27 10.5 75t29 117.5t25.5 98.5z" />
<glyph unicode="&#xfd;" horiz-adv-x="429" d="M382 756l7 3q8 0 11 -1q41 -3 41 -28q0 -30 -69.5 -75.5t-150.5 -77.5l-10 15q121 97 171 164zM166 506q82 0 82 -164q0 -153 -55 -324q93 88 142.5 198t49.5 221q0 35 -5 60q11 9 30 9q50 0 50 -71q0 -108 -75.5 -238t-208.5 -228q-39 -101 -93 -163t-118 -62 q-37 0 -59.5 16t-22.5 40t22 35q28 -40 67 -40q92 0 152 209q24 82 37 174t13 151q0 122 -42 122q-26 0 -83 -88l-9 6q21 55 55.5 96t70.5 41z" />
<glyph unicode="&#xfe;" horiz-adv-x="467" d="M24 -234l26 121l163 744l14 68l-73 16v11q62 18 149 29l8 -8l-26 -116l-76 -350q16 33 28 56.5t33.5 58t40.5 56t44 38t49 16.5q38 1 58.5 -33t20.5 -94q0 -156 -78 -272.5t-189 -116.5q-38 0 -69 7l-24 -110l-29 -136l-32 -4q-24 -3 -31 -3q-13 0 -7 22zM370 444 q-39 0 -95 -95t-92 -185l-26 -120q36 -18 74 -18q48 0 89.5 52.5t64.5 131.5t23 161q0 73 -38 73z" />
<glyph unicode="&#xff;" horiz-adv-x="429" d="M467 678q0 -27 -16.5 -47t-38.5 -20q-18 0 -29.5 12.5t-11.5 31.5q0 25 16.5 45t39.5 20q18 0 29 -11.5t11 -30.5zM265 678q0 -27 -16.5 -47t-38.5 -20q-18 0 -29.5 12.5t-11.5 31.5q0 25 16.5 45t40.5 20q17 0 28 -11.5t11 -30.5zM166 506q82 0 82 -164q0 -153 -55 -324 q93 88 142.5 198t49.5 221q0 35 -5 60q11 9 30 9q50 0 50 -71q0 -108 -75.5 -238t-208.5 -228q-39 -101 -93 -163t-118 -62q-37 0 -59.5 16t-22.5 40t22 35q28 -40 67 -40q92 0 152 209q24 82 37 174t13 151q0 122 -42 122q-26 0 -83 -88l-9 6q21 55 55.5 96t70.5 41z" />
<glyph unicode="&#x100;" horiz-adv-x="666" d="M351 819l10 45h273l-10 -45h-273zM445 688h45l75 -613q2 -19 9 -27.5t22 -13.5l51 -14l-2 -20h-232l-4 20l86 22l-25 200l-232 -4l-107 -195l81 -23l-4 -20h-203l-2 20l56 16q29 8 47 39zM259 276l207 -1l-37 311z" />
<glyph unicode="&#x101;" horiz-adv-x="501" d="M243 643l11 46h257l-11 -46h-257zM405 134q-11 -53 -11 -63q0 -26 18 -26q29 0 92 88l9 -6q-26 -54 -62 -95.5t-74 -41.5q-57 0 -57 66q0 20 12 78l25 113q-29 -62 -59.5 -114.5t-74 -97.5t-80.5 -45q-35 0 -57 32.5t-22 89.5q0 101 40.5 192.5t109.5 146.5t148 55 q69 0 121 -26l-6 -19zM139 120q0 -31 9 -50t25 -19q42 0 111 113.5t97 199.5l20 89q-28 19 -66 19q-72 0 -134 -110t-62 -242z" />
<glyph unicode="&#x102;" horiz-adv-x="666" d="M617 901l4 2l15 -7q-24 -54 -64.5 -83t-91.5 -29q-49 0 -73 31.5t-19 84.5l18 3q4 -29 27 -45.5t61 -16.5q78 0 123 60zM445 688h45l75 -613q2 -19 9 -27.5t22 -13.5l51 -14l-2 -20h-232l-4 20l86 22l-25 200l-232 -4l-107 -195l81 -23l-4 -20h-203l-2 20l56 16 q29 8 47 39zM259 276l207 -1l-37 311z" />
<glyph unicode="&#x103;" horiz-adv-x="501" d="M508 734l5 2l15 -3q-24 -63 -65.5 -99t-92.5 -36q-48 0 -72 37t-19 98l18 3q4 -37 27 -58t61 -21q79 0 123 77zM405 134q-11 -53 -11 -63q0 -26 18 -26q29 0 92 88l9 -6q-26 -54 -62 -95.5t-74 -41.5q-57 0 -57 66q0 20 12 78l25 113q-29 -62 -59.5 -114.5t-74 -97.5 t-80.5 -45q-35 0 -57 32.5t-22 89.5q0 101 40.5 192.5t109.5 146.5t148 55q69 0 121 -26l-6 -19zM139 120q0 -31 9 -50t25 -19q42 0 111 113.5t97 199.5l20 89q-28 19 -66 19q-72 0 -134 -110t-62 -242z" />
<glyph unicode="&#x104;" horiz-adv-x="666" d="M642 0q-56 -23 -91 -60.5t-35 -72.5q0 -16 8.5 -25.5t20.5 -9.5q32 0 82 62l8 -6q-19 -47 -50 -79t-71 -32q-66 0 -66 70q0 42 37 84t98 69h-170l-4 20l86 22l-25 200l-232 -4l-107 -195l81 -23l-4 -20h-203l-2 20l56 16q29 8 47 39l339 613h45l75 -613q2 -19 9 -27.5 t22 -13.5l51 -14l-2 -20h-3zM259 276l207 -1l-37 311z" />
<glyph unicode="&#x105;" horiz-adv-x="501" d="M405 134q-11 -53 -11 -63q0 -26 18 -26q29 0 92 88l9 -6q-25 -49 -50 -81l3 2q-25 -35 -63 -76.5t-55.5 -66t-17.5 -45.5q0 -28 26 -28q13 0 28 11t22.5 20t26.5 31l8 -6q-19 -47 -49.5 -79t-68.5 -32q-27 0 -44 17.5t-17 45.5q0 15 5.5 29.5t11.5 25t22 26t24 22 t30.5 25t29.5 23.5q-3 -1 -8 -1q-57 0 -57 66q0 20 12 78l25 113q-29 -62 -59.5 -114.5t-74 -97.5t-80.5 -45q-35 0 -57 32.5t-22 89.5q0 101 40.5 192.5t109.5 146.5t148 55q69 0 121 -26l-6 -19zM139 120q0 -31 9 -50t25 -19q42 0 111 113.5t97 199.5l20 89q-28 19 -66 19 q-72 0 -134 -110t-62 -242z" />
<glyph unicode="&#x106;" horiz-adv-x="601" d="M612 908l8 1q37 -14 37 -37q0 -29 -79 -56t-175 -38l-5 16q157 69 214 114zM376 -10q-125 0 -197 73.5t-72 201.5q0 177 116.5 304t279.5 127q89 0 141 -26q-5 -74 -38 -169h-19q-3 16 -10.5 67.5t-11.5 75.5q-31 11 -65 11q-126 0 -220 -115t-94 -270q0 -112 55 -175.5 t142 -63.5q36 0 76 10q11 19 25 41t31 51.5t29 48.5h19q-10 -87 -36 -164q-64 -28 -151 -28z" />
<glyph unicode="&#x107;" horiz-adv-x="377" d="M425 756l7 3q8 0 11 -1q41 -3 41 -28q0 -30 -69.5 -75.5t-150.5 -77.5l-10 15q119 93 171 164zM325 506q44 0 70 -26t26 -68q0 -35 -18 -61.5t-43 -26.5q-13 0 -25 7q20 44 20 84q0 55 -45 55q-59 0 -111 -98.5t-52 -208.5q0 -119 83 -119q61 0 145 95l8 -6 q-35 -64 -83 -103.5t-102 -39.5q-62 0 -94 42.5t-32 119.5q0 89 36.5 171.5t95.5 132.5t121 50z" />
<glyph unicode="&#x108;" horiz-adv-x="601" d="M659 782l-16 -10q-75 61 -114 87q-82 -50 -153 -87l-9 13q92 75 140 125l8 5h51q52 -65 93 -133zM376 -10q-125 0 -197 73.5t-72 201.5q0 177 116.5 304t279.5 127q89 0 141 -26q-5 -74 -38 -169h-19q-3 16 -10.5 67.5t-11.5 75.5q-31 11 -65 11q-126 0 -220 -115 t-94 -270q0 -112 55 -175.5t142 -63.5q36 0 76 10q11 19 25 41t31 51.5t29 48.5h19q-10 -87 -36 -164q-64 -28 -151 -28z" />
<glyph unicode="&#x109;" horiz-adv-x="377" d="M467 592l-16 -11q-52 63 -103 111q-94 -78 -142 -111l-9 13q87 97 127 154l9 5h53q45 -80 81 -161zM325 506q44 0 70 -26t26 -68q0 -35 -18 -61.5t-43 -26.5q-13 0 -25 7q20 44 20 84q0 55 -45 55q-59 0 -111 -98.5t-52 -208.5q0 -119 83 -119q61 0 145 95l8 -6 q-35 -64 -83 -103.5t-102 -39.5q-62 0 -94 42.5t-32 119.5q0 89 36.5 171.5t95.5 132.5t121 50z" />
<glyph unicode="&#x10a;" horiz-adv-x="601" d="M579 851q0 -26 -19 -45.5t-45 -19.5q-21 0 -33 11t-12 31q1 26 20 44.5t44 18.5q45 0 45 -40zM376 -10q-125 0 -197 73.5t-72 201.5q0 177 116.5 304t279.5 127q89 0 141 -26q-5 -74 -38 -169h-19q-3 16 -10.5 67.5t-11.5 75.5q-31 11 -65 11q-126 0 -220 -115t-94 -270 q0 -112 55 -175.5t142 -63.5q36 0 76 10q11 19 25 41t31 51.5t29 48.5h19q-10 -87 -36 -164q-64 -28 -151 -28z" />
<glyph unicode="&#x10b;" horiz-adv-x="377" d="M347 607q-18 0 -29 11.5t-11 30.5q0 29 18 50t44 21q17 0 28.5 -11t11.5 -30q0 -30 -18 -51t-44 -21zM325 506q44 0 70 -26t26 -68q0 -35 -18 -61.5t-43 -26.5q-13 0 -25 7q20 44 20 84q0 55 -45 55q-59 0 -111 -98.5t-52 -208.5q0 -119 83 -119q61 0 145 95l8 -6 q-35 -64 -83 -103.5t-102 -39.5q-62 0 -94 42.5t-32 119.5q0 89 36.5 171.5t95.5 132.5t121 50z" />
<glyph unicode="&#x10c;" horiz-adv-x="601" d="M541 776l-8 -5h-53q-34 48 -83 134l16 10q63 -56 102 -87q88 50 162 87l10 -12q-90 -71 -146 -127zM376 -10q-125 0 -197 73.5t-72 201.5q0 177 116.5 304t279.5 127q89 0 141 -26q-5 -74 -38 -169h-19q-3 16 -10.5 67.5t-11.5 75.5q-31 11 -65 11q-126 0 -220 -115 t-94 -270q0 -112 55 -175.5t142 -63.5q36 0 76 10q11 19 25 41t31 51.5t29 48.5h19q-10 -87 -36 -164q-64 -28 -151 -28z" />
<glyph unicode="&#x10d;" horiz-adv-x="377" d="M371 586l-7 -5h-54q-39 76 -73 162l16 10q57 -72 94 -111q105 80 153 111l10 -12q-93 -95 -139 -155zM325 506q44 0 70 -26t26 -68q0 -35 -18 -61.5t-43 -26.5q-13 0 -25 7q20 44 20 84q0 55 -45 55q-59 0 -111 -98.5t-52 -208.5q0 -119 83 -119q61 0 145 95l8 -6 q-35 -64 -83 -103.5t-102 -39.5q-62 0 -94 42.5t-32 119.5q0 89 36.5 171.5t95.5 132.5t121 50z" />
<glyph unicode="&#x10e;" horiz-adv-x="671" d="M519 776l-8 -5h-54q-35 50 -82 134l16 10q56 -52 102 -87q88 50 162 87l10 -12q-90 -71 -146 -127zM276 0h-223l-2 20l59 15q18 5 26 12.5t12 23.5l9 44l97 457l15 71l-78 23l4 20h220q126 0 200 -68.5t74 -187.5q0 -82 -28 -158.5t-79 -137.5t-130.5 -97.5t-175.5 -36.5 zM329 572l-97 -457l-17 -79h62q99 0 176.5 57.5t117 148t39.5 194.5q0 101 -53 157.5t-157 56.5h-54z" />
<glyph unicode="&#x10f;" horiz-adv-x="501" d="M405 134q-11 -53 -11 -63q0 -26 18 -26q29 0 92 88l9 -6q-26 -54 -62 -95.5t-74 -41.5q-57 0 -57 66q0 20 12 78l26 116q-20 -45 -42.5 -85.5t-51.5 -82.5t-60.5 -67t-60.5 -25q-35 0 -57 32.5t-22 89.5q0 101 40.5 192.5t109.5 146.5t148 55q19 0 51 -4l30 129l14 67 l-93 17v11q50 14 169 29l8 -8l-26 -116zM690 704q0 -40 -34 -86.5t-83 -74.5l-7 7q45 51 62 103q-35 3 -35 39q0 23 17 39.5t40 16.5q18 0 29 -12t11 -32zM139 120q0 -31 9 -50t25 -19q43 0 111 113.5t97 199.5l20 89q-28 19 -66 19q-72 0 -134 -110t-62 -242z" />
<glyph unicode="&#x110;" horiz-adv-x="671" d="M276 0h-223l-2 20l59 15q18 5 26 12.5t12 23.5l9 44l47 220h-107l7 34h107l43 203l15 71l-78 23l4 20h220q126 0 200 -68.5t74 -187.5q0 -82 -28 -158.5t-79 -137.5t-130.5 -97.5t-175.5 -36.5zM459 335h-180l-47 -220l-17 -79h62q99 0 176.5 57.5t117 148t39.5 194.5 q0 101 -53 157.5t-157 56.5h-54l-17 -78l-43 -203h180z" />
<glyph unicode="&#x111;" horiz-adv-x="501" d="M405 134q-11 -53 -11 -63q0 -26 18 -26q29 0 92 88l9 -6q-26 -54 -62 -95.5t-74 -41.5q-57 0 -57 66q0 20 12 78l26 116q-20 -45 -42.5 -85.5t-51.5 -82.5t-60.5 -67t-60.5 -25q-35 0 -57 32.5t-22 89.5q0 101 40.5 192.5t109.5 146.5t148 55q19 0 51 -4l20 86h-168l7 35 h169l2 8l14 67l-93 17v11q50 14 169 29l8 -8l-26 -116l-1 -8h124l-8 -35h-124zM139 120q0 -31 9 -50t25 -19q43 0 111 113.5t97 199.5l20 89q-28 19 -66 19q-72 0 -134 -110t-62 -242z" />
<glyph unicode="&#x112;" horiz-adv-x="581" d="M328 818l11 45h272l-10 -45h-273zM329 572l-45 -210l206 5l-11 -46l-202 6l-45 -212l-17 -81h137q59 0 102 5q61 113 78 143h19q-7 -99 -40 -182h-458l-2 20l59 15q18 5 26 12.5t12 23.5l9 44l97 457l15 71l-78 23l4 20h433q-3 -75 -38 -182h-19q-4 35 -10 81.5t-8 61.5 q-44 4 -100 4h-107z" />
<glyph unicode="&#x113;" horiz-adv-x="383" d="M202 643l10 46h257l-10 -46h-257zM379 133q-36 -65 -83.5 -104t-101.5 -39q-59 0 -90 45t-31 125q0 84 36 165t94 131t119 50q44 0 69 -24t25 -65q0 -78 -79 -130.5t-184 -55.5l2 14q-7 -36 -7 -80q0 -57 20.5 -89t58.5 -32q62 0 144 95zM310 470q-47 0 -90.5 -61.5 t-61.5 -149.5q82 7 136.5 54.5t54.5 109.5q0 21 -10.5 34t-28.5 13z" />
<glyph unicode="&#x114;" horiz-adv-x="581" d="M588 900l4 2l15 -7q-24 -54 -64.5 -83t-91.5 -29q-49 0 -73 31.5t-19 84.5l18 4q3 -29 26.5 -46t61.5 -17q77 0 123 60zM329 572l-45 -210l206 5l-11 -46l-202 6l-45 -212l-17 -81h137q59 0 102 5q61 113 78 143h19q-7 -99 -40 -182h-458l-2 20l59 15q18 5 26 12.5 t12 23.5l9 44l97 457l15 71l-78 23l4 20h433q-3 -75 -38 -182h-19q-4 35 -10 81.5t-8 61.5q-44 4 -100 4h-107z" />
<glyph unicode="&#x115;" horiz-adv-x="383" d="M468 734l4 2l16 -3q-24 -63 -65.5 -99t-92.5 -36q-48 0 -72 37t-19 98l18 3q4 -37 27 -58t61 -21q79 0 123 77zM379 133q-36 -65 -83.5 -104t-101.5 -39q-59 0 -90 45t-31 125q0 84 36 165t94 131t119 50q44 0 69 -24t25 -65q0 -78 -79 -130.5t-184 -55.5l2 14 q-7 -36 -7 -80q0 -57 20.5 -89t58.5 -32q62 0 144 95zM310 470q-47 0 -90.5 -61.5t-61.5 -149.5q82 7 136.5 54.5t54.5 109.5q0 21 -10.5 34t-28.5 13z" />
<glyph unicode="&#x116;" horiz-adv-x="581" d="M523 850q0 -26 -19 -45.5t-45 -19.5q-21 0 -33 11t-12 31q0 25 19 44.5t45 19.5q21 0 33 -11t12 -30zM329 572l-45 -210l206 5l-11 -46l-202 6l-45 -212l-17 -81h137q59 0 102 5q61 113 78 143h19q-7 -99 -40 -182h-458l-2 20l59 15q18 5 26 12.5t12 23.5l9 44l97 457 l15 71l-78 23l4 20h433q-3 -75 -38 -182h-19q-4 35 -10 81.5t-8 61.5q-44 4 -100 4h-107z" />
<glyph unicode="&#x117;" horiz-adv-x="383" d="M328 607q-18 0 -29.5 11.5t-11.5 30.5q0 29 18.5 50t43.5 21q18 0 29.5 -11t11.5 -30q0 -30 -18 -51t-44 -21zM379 133q-36 -65 -83.5 -104t-101.5 -39q-59 0 -90 45t-31 125q0 84 36 165t94 131t119 50q44 0 69 -24t25 -65q0 -78 -79 -130.5t-184 -55.5l2 14 q-7 -36 -7 -80q0 -57 20.5 -89t58.5 -32q62 0 144 95zM310 470q-47 0 -90.5 -61.5t-61.5 -149.5q82 7 136.5 54.5t54.5 109.5q0 21 -10.5 34t-28.5 13z" />
<glyph unicode="&#x118;" horiz-adv-x="581" d="M506 0q-56 -23 -91 -60.5t-35 -72.5q0 -16 8.5 -25.5t20.5 -9.5q32 0 82 62l8 -6q-19 -47 -50 -79t-70 -32q-66 0 -66 70q0 42 36.5 84t97.5 69h-394l-2 20l59 15q18 5 26 12.5t12 23.5l9 44l97 457l15 71l-78 23l4 20h433q-3 -75 -38 -182h-19q-4 35 -10 81.5t-8 61.5 q-44 4 -100 4h-107l-17 -79l-45 -210l206 5l-11 -46l-202 6l-45 -212l-17 -81h137q59 0 102 5q61 113 78 143h19q-7 -99 -40 -182h-5z" />
<glyph unicode="&#x119;" horiz-adv-x="383" d="M379 133q-26 -49 -61 -84q-26 -31 -69 -73.5t-61 -67t-18 -47.5q0 -29 26 -29q12 0 27 11t23.5 20.5t26.5 30.5l8 -6q-19 -47 -49 -79t-69 -32q-28 0 -44.5 17.5t-16.5 46.5q0 19 7 35.5t24 33.5t29.5 28t39 31t38.5 29q-24 -8 -46 -8q-59 0 -90 45t-31 125q0 84 36 165 t94 131t119 50q44 0 69 -24t25 -65q0 -78 -79 -130.5t-184 -55.5l2 14q-7 -36 -7 -80q0 -57 20.5 -89t58.5 -32q62 0 144 95zM310 470q-47 0 -90.5 -61.5t-61.5 -149.5q82 7 136.5 54.5t54.5 109.5q0 21 -10.5 34t-28.5 13z" />
<glyph unicode="&#x11a;" horiz-adv-x="581" d="M491 775l-8 -5h-53q-29 41 -83 134l16 10q63 -56 102 -87q105 60 162 87l10 -12q-97 -78 -146 -127zM329 572l-45 -210l206 5l-11 -46l-202 6l-45 -212l-17 -81h137q59 0 102 5q61 113 78 143h19q-7 -99 -40 -182h-458l-2 20l59 15q18 5 26 12.5t12 23.5l9 44l97 457 l15 71l-78 23l4 20h433q-3 -75 -38 -182h-19q-4 35 -10 81.5t-8 61.5q-44 4 -100 4h-107z" />
<glyph unicode="&#x11b;" horiz-adv-x="383" d="M366 586l-8 -5h-53q-31 58 -74 162l17 10q62 -78 94 -111q89 69 152 111l10 -12q-89 -90 -138 -155zM379 133q-36 -65 -83.5 -104t-101.5 -39q-59 0 -90 45t-31 125q0 84 36 165t94 131t119 50q44 0 69 -24t25 -65q0 -78 -79 -130.5t-184 -55.5l2 14q-7 -36 -7 -80 q0 -57 20.5 -89t58.5 -32q62 0 144 95zM310 470q-47 0 -90.5 -61.5t-61.5 -149.5q82 7 136.5 54.5t54.5 109.5q0 21 -10.5 34t-28.5 13z" />
<glyph unicode="&#x11c;" horiz-adv-x="641" d="M672 782l-17 -10q-68 57 -113 87q-89 -53 -153 -87l-10 13q94 75 140 125l9 5h50q50 -62 94 -133zM385 31q51 0 89 13l35 161l15 72l-78 23l4 20h235l2 -20l-59 -14q-31 -8 -36 -37l-11 -44h1l-40 -185q-73 -30 -165 -30q-124 0 -197 72.5t-73 200.5q0 120 56.5 220.5 t148.5 156.5t196 56q94 0 159 -26q-6 -73 -41 -169h-18q-6 37 -22 143q-32 11 -84 11q-123 0 -220 -115t-97 -277q0 -102 54.5 -167t145.5 -65z" />
<glyph unicode="&#x11d;" horiz-adv-x="401" d="M441 589l-16 -10q-60 70 -103 111q-77 -65 -142 -111l-9 13q87 94 127 154l9 5h53q43 -76 81 -162zM281 506q148 0 200 13q6 -9 6 -23q0 -16 -10 -27t-30 -11q-22 0 -100 19q49 -36 49 -105q0 -53 -21 -99t-51 -76.5t-60.5 -54t-51.5 -42.5t-21 -32q0 -11 11 -20t35 -23 l6 -3q35 -20 50.5 -30t35 -26.5t26.5 -32.5t7 -37q0 -59 -61 -105.5t-162 -46.5q-79 0 -126 31.5t-47 77.5q0 61 93 118l9 -9q-38 -45 -38 -82q0 -45 37 -73.5t92 -28.5q59 0 97 27.5t38 68.5q0 24 -20.5 43.5t-68.5 47.5q-60 34 -73 50q-12 15 -12 32q0 21 21.5 41.5 t76.5 59.5h-5q-58 0 -93.5 37t-35.5 98q0 91 58 157t139 66zM155 288q0 -48 18 -77t47 -29q42 0 73.5 62.5t31.5 141.5q0 41 -15 64t-43 23q-46 0 -79 -58t-33 -127z" />
<glyph unicode="&#x11e;" horiz-adv-x="641" d="M653 901l4 2l15 -7q-24 -54 -64.5 -83t-91.5 -29q-49 0 -73 31.5t-19 84.5l18 3q3 -29 26.5 -45.5t61.5 -16.5q78 0 123 60zM385 31q51 0 89 13l35 161l15 72l-78 23l4 20h235l2 -20l-59 -14q-31 -8 -36 -37l-11 -44h1l-40 -185q-73 -30 -165 -30q-124 0 -197 72.5 t-73 200.5q0 120 56.5 220.5t148.5 156.5t196 56q94 0 159 -26q-6 -73 -41 -169h-18q-6 37 -22 143q-32 11 -84 11q-123 0 -220 -115t-97 -277q0 -102 54.5 -167t145.5 -65z" />
<glyph unicode="&#x11f;" horiz-adv-x="401" d="M447 732l5 2l15 -3q-24 -64 -65 -99.5t-92 -35.5q-49 0 -73 37t-19 98l18 3q4 -37 27 -58.5t61 -21.5q78 0 123 78zM281 506q148 0 200 13q6 -9 6 -23q0 -16 -10 -27t-30 -11q-22 0 -100 19q49 -36 49 -105q0 -53 -21 -99t-51 -76.5t-60.5 -54t-51.5 -42.5t-21 -32 q0 -11 11 -20t35 -23l6 -3q35 -20 50.5 -30t35 -26.5t26.5 -32.5t7 -37q0 -59 -61 -105.5t-162 -46.5q-79 0 -126 31.5t-47 77.5q0 61 93 118l9 -9q-38 -45 -38 -82q0 -45 37 -73.5t92 -28.5q59 0 97 27.5t38 68.5q0 24 -20.5 43.5t-68.5 47.5q-60 34 -73 50q-12 15 -12 32 q0 21 21.5 41.5t76.5 59.5h-5q-58 0 -93.5 37t-35.5 98q0 91 58 157t139 66zM155 288q0 -48 18 -77t47 -29q42 0 73.5 62.5t31.5 141.5q0 41 -15 64t-43 23q-46 0 -79 -58t-33 -127z" />
<glyph unicode="&#x120;" horiz-adv-x="641" d="M590 851q0 -26 -19 -45.5t-45 -19.5q-21 0 -33 11t-12 31q0 26 19 44.5t45 18.5q21 0 33 -10.5t12 -29.5zM385 31q51 0 89 13l35 161l15 72l-78 23l4 20h235l2 -20l-59 -14q-31 -8 -36 -37l-11 -44h1l-40 -185q-73 -30 -165 -30q-124 0 -197 72.5t-73 200.5 q0 120 56.5 220.5t148.5 156.5t196 56q94 0 159 -26q-6 -73 -41 -169h-18q-6 37 -22 143q-32 11 -84 11q-123 0 -220 -115t-97 -277q0 -102 54.5 -167t145.5 -65z" />
<glyph unicode="&#x121;" horiz-adv-x="401" d="M317 604q-18 0 -29 11.5t-11 30.5q0 30 18 51t44 21q17 0 28.5 -11t11.5 -30q0 -31 -18 -52t-44 -21zM281 506q148 0 200 13q6 -9 6 -23q0 -16 -10 -27t-30 -11q-22 0 -100 19q49 -36 49 -105q0 -53 -21 -99t-51 -76.5t-60.5 -54t-51.5 -42.5t-21 -32q0 -11 11 -20 t35 -23l6 -3q35 -20 50.5 -30t35 -26.5t26.5 -32.5t7 -37q0 -59 -61 -105.5t-162 -46.5q-79 0 -126 31.5t-47 77.5q0 61 93 118l9 -9q-38 -45 -38 -82q0 -45 37 -73.5t92 -28.5q59 0 97 27.5t38 68.5q0 24 -20.5 43.5t-68.5 47.5q-60 34 -73 50q-12 15 -12 32 q0 21 21.5 41.5t76.5 59.5h-5q-58 0 -93.5 37t-35.5 98q0 91 58 157t139 66zM155 288q0 -48 18 -77t47 -29q42 0 73.5 62.5t31.5 141.5q0 41 -15 64t-43 23q-46 0 -79 -58t-33 -127z" />
<glyph unicode="&#x122;" horiz-adv-x="641" d="M385 31q51 0 89 13l35 161l15 72l-78 23l4 20h235l2 -20l-59 -14q-31 -8 -36 -37l-11 -44h1l-40 -185q-73 -30 -165 -30q-124 0 -197 72.5t-73 200.5q0 120 56.5 220.5t148.5 156.5t196 56q94 0 159 -26q-6 -73 -41 -169h-18q-6 37 -22 143q-32 11 -84 11 q-123 0 -220 -115t-97 -277q0 -102 54.5 -167t145.5 -65zM391 -158q0 -42 -36 -92t-88 -79l-7 8q47 54 64 108q-16 2 -26 13t-10 29q0 25 18 43t43 18q19 0 30.5 -13t11.5 -35z" />
<glyph unicode="&#x123;" horiz-adv-x="401" d="M276 652q0 43 36 93t88 79l8 -8q-48 -54 -65 -108q36 -5 36 -42q0 -26 -17.5 -44t-43.5 -18q-19 0 -30.5 13t-11.5 35zM281 506q148 0 200 13q6 -9 6 -23q0 -16 -10 -27t-30 -11q-22 0 -100 19q49 -36 49 -105q0 -53 -21 -99t-51 -76.5t-60.5 -54t-51.5 -42.5t-21 -32 q0 -11 11 -20t35 -23l6 -3q35 -20 50.5 -30t35 -26.5t26.5 -32.5t7 -37q0 -59 -61 -105.5t-162 -46.5q-79 0 -126 31.5t-47 77.5q0 61 93 118l9 -9q-38 -45 -38 -82q0 -45 37 -73.5t92 -28.5q59 0 97 27.5t38 68.5q0 24 -20.5 43.5t-68.5 47.5q-60 34 -73 50q-12 15 -12 32 q0 21 21.5 41.5t76.5 59.5h-5q-58 0 -93.5 37t-35.5 98q0 91 58 157t139 66zM155 288q0 -48 18 -77t47 -29q42 0 73.5 62.5t31.5 141.5q0 41 -15 64t-43 23q-46 0 -79 -58t-33 -127z" />
<glyph unicode="&#x124;" horiz-adv-x="760" d="M680 782l-16 -10q-68 58 -114 87q-82 -50 -153 -87l-9 13q92 75 140 125l8 5h51q52 -65 93 -133zM216 43l79 -23l-4 -20h-238l-2 20l59 15q31 8 37 36l10 44l96 457l16 71l-78 23l4 20h237l2 -20l-59 -15q-31 -8 -36 -36l-11 -43h1l-43 -204h321l43 204l16 71l-78 23 l4 20h237l2 -20l-59 -15q-31 -8 -37 -36l-10 -43h1l-97 -457l-16 -72l79 -23l-4 -20h-238l-2 20l59 15q31 8 37 36l10 44l45 213h-322l-45 -213z" />
<glyph unicode="&#x125;" horiz-adv-x="510" d="M411 800l-17 -10q-62 52 -114 87q-79 -48 -152 -87l-10 13q94 75 140 125l9 5h50q50 -62 94 -133zM74 13l26 121l108 498l15 68l-74 16v10q70 20 150 30l8 -8l-26 -116q-40 -183 -90 -377q62 126 116 188.5t106 62.5q32 0 49 -21.5t17 -54.5q0 -22 -8 -61.5t-16.5 -73.5 t-23 -86.5t-19.5 -74.5q-10 -58 -10 -63q0 -26 18 -26q27 0 92 88l8 -6q-26 -55 -61.5 -96t-74.5 -41q-56 0 -56 66q0 27 12 78q7 31 24.5 96.5t28.5 112t11 68.5q0 36 -28 36q-42 0 -102.5 -96.5t-93.5 -182.5l-7 -34l-29 -136l-32 -4q-27 -3 -31 -3q-13 0 -7 22z" />
<glyph unicode="&#x126;" horiz-adv-x="760" d="M216 43l79 -23l-4 -20h-238l-2 20l59 15q31 8 37 36l10 44l80 378h-87l6 35h88l9 44l16 71l-78 23l4 20h237l2 -20l-59 -15q-31 -8 -36 -36l-11 -43h1l-10 -44h322l9 44l16 71l-78 23l4 20h237l2 -20l-59 -15q-31 -8 -37 -36l-10 -43h1l-10 -44h79l-6 -35h-80l-80 -378 l-16 -72l79 -23l-4 -20h-238l-2 20l59 15q31 8 37 36l10 44l45 213h-322l-45 -213zM286 368h321l27 125h-322z" />
<glyph unicode="&#x127;" horiz-adv-x="510" d="M74 13l26 121l99 454h-140l7 35h141l1 9l15 68l-74 16v10q70 20 150 30l8 -8l-26 -116q-1 -2 -1 -5t-1 -4h153l-7 -35h-154q-31 -138 -80 -333q62 126 116 188.5t106 62.5q32 0 49 -21.5t17 -54.5q0 -22 -8 -61.5t-16.5 -73.5t-23 -86.5t-19.5 -74.5q-10 -58 -10 -63 q0 -26 18 -26q27 0 92 88l8 -6q-26 -55 -61.5 -96t-74.5 -41q-56 0 -56 66q0 27 12 78q7 31 24.5 96.5t28.5 112t11 68.5q0 36 -28 36q-42 0 -102.5 -96.5t-93.5 -182.5l-7 -34l-29 -136l-32 -4q-27 -3 -31 -3q-13 0 -7 22z" />
<glyph unicode="&#x128;" horiz-adv-x="365" d="M239 845q-15 -6 -78 -64l-10 5q49 116 123 116q33 0 95.5 -29t85.5 -30q18 7 78 65l10 -6q-48 -116 -124 -116q-31 0 -93.5 29.5t-86.5 29.5zM216 43l79 -23l-4 -20h-238l-2 20l59 15q31 8 37 36l10 44l96 457l16 71l-78 23l4 20h237l2 -20l-59 -15q-31 -8 -36 -36 l-11 -43h1l-97 -457z" />
<glyph unicode="&#x129;" horiz-adv-x="298" d="M192 675q-15 -7 -68 -67l-9 5q42 117 113 117q22 0 61.5 -29.5t53.5 -30.5q15 7 68 67l9 -5q-44 -117 -114 -117q-22 0 -62 29.5t-52 30.5zM199 134q-10 -48 -10 -63q0 -26 17 -26q29 0 92 88l9 -6q-26 -54 -62 -95.5t-74 -41.5q-56 0 -56 66q0 25 11 78q9 41 30.5 130.5 t23.5 97.5q10 48 10 64q0 25 -18 25q-28 0 -91 -88l-9 6q26 55 61.5 96t74.5 41q56 0 56 -66q0 -25 -11 -78q-7 -29 -26.5 -110t-27.5 -118z" />
<glyph unicode="&#x12a;" horiz-adv-x="365" d="M207 819l10 45h273l-10 -45h-273zM216 43l79 -23l-4 -20h-238l-2 20l59 15q31 8 37 36l10 44l96 457l16 71l-78 23l4 20h237l2 -20l-59 -15q-31 -8 -36 -36l-11 -43h1l-97 -457z" />
<glyph unicode="&#x12b;" horiz-adv-x="298" d="M167 643l10 46h192l-11 -46h-191zM199 134q-10 -48 -10 -63q0 -26 17 -26q29 0 92 88l9 -6q-26 -54 -62 -95.5t-74 -41.5q-56 0 -56 66q0 25 11 78q9 41 30.5 130.5t23.5 97.5q10 48 10 64q0 25 -18 25q-28 0 -91 -88l-9 6q26 55 61.5 96t74.5 41q56 0 56 -66 q0 -25 -11 -78q-7 -29 -26.5 -110t-27.5 -118z" />
<glyph unicode="&#x12c;" horiz-adv-x="365" d="M467 901l5 2l14 -7q-50 -112 -155 -112q-49 0 -73 31.5t-19 84.5l18 3q3 -29 26 -45.5t61 -16.5q80 0 123 60zM216 43l79 -23l-4 -20h-238l-2 20l59 15q31 8 37 36l10 44l96 457l16 71l-78 23l4 20h237l2 -20l-59 -15q-31 -8 -36 -36l-11 -43h1l-97 -457z" />
<glyph unicode="&#x12d;" horiz-adv-x="298" d="M367 734l4 2l15 -3q-19 -63 -57 -99t-85 -36q-41 0 -62 37.5t-15 97.5l18 3q1 -36 21 -57.5t53 -21.5t62.5 20.5t45.5 56.5zM199 134q-10 -48 -10 -63q0 -26 17 -26q29 0 92 88l9 -6q-26 -54 -62 -95.5t-74 -41.5q-56 0 -56 66q0 25 11 78q9 41 30.5 130.5t23.5 97.5 q10 48 10 64q0 25 -18 25q-28 0 -91 -88l-9 6q26 55 61.5 96t74.5 41q56 0 56 -66q0 -25 -11 -78q-7 -29 -26.5 -110t-27.5 -118z" />
<glyph unicode="&#x12e;" horiz-adv-x="365" d="M216 43l79 -23l-4 -20q-56 -23 -91 -60.5t-35 -72.5q0 -16 8 -25.5t20 -9.5q32 0 82 62l9 -6q-20 -47 -51 -79t-70 -32q-66 0 -66 70q0 42 36.5 84t97.5 69h-178l-2 20l59 15q31 8 37 36l10 44l96 457l16 71l-78 23l4 20h237l2 -20l-59 -15q-31 -8 -36 -36l-11 -43h1 l-97 -457z" />
<glyph unicode="&#x12f;" horiz-adv-x="298" d="M256 607q-18 0 -29 11.5t-11 30.5q0 29 18 50t44 21q18 0 29 -11t11 -30q0 -30 -18 -51t-44 -21zM199 134q-10 -48 -10 -63q0 -26 17 -26q29 0 92 88l9 -6q-26 -53 -49 -81l2 2q-25 -35 -63 -76.5t-55.5 -66t-17.5 -45.5q0 -28 26 -28q13 0 28 11t22.5 20t26.5 31l8 -6 q-19 -47 -49.5 -79t-68.5 -32q-27 0 -44 17.5t-17 45.5q0 15 5.5 29.5t12 25t22 25.5t24.5 22.5t30.5 25t29.5 23.5q-3 -1 -9 -1q-56 0 -56 66q0 25 11 78q9 41 30.5 130.5t23.5 97.5q10 48 10 64q0 25 -18 25q-28 0 -91 -88l-9 6q26 55 61.5 96t74.5 41q56 0 56 -66 q0 -25 -11 -78q-7 -29 -26.5 -110t-27.5 -118z" />
<glyph unicode="&#x130;" horiz-adv-x="365" d="M399 851q0 -26 -19.5 -45.5t-45.5 -19.5q-21 0 -33 11.5t-11 30.5q0 26 19 44.5t45 18.5q21 0 33 -10.5t12 -29.5zM216 43l79 -23l-4 -20h-238l-2 20l59 15q31 8 37 36l10 44l96 457l16 71l-78 23l4 20h237l2 -20l-59 -15q-31 -8 -36 -36l-11 -43h1l-97 -457z" />
<glyph unicode="&#x131;" horiz-adv-x="298" d="M199 134q-10 -48 -10 -63q0 -26 17 -26q29 0 92 88l9 -6q-26 -54 -62 -95.5t-74 -41.5q-56 0 -56 66q0 25 11 78q9 41 30.5 130.5t23.5 97.5q10 48 10 64q0 25 -18 25q-28 0 -91 -88l-9 6q26 55 61.5 96t74.5 41q56 0 56 -66q0 -25 -11 -78q-7 -29 -26.5 -110t-27.5 -118 z" />
<glyph unicode="&#x132;" horiz-adv-x="717" d="M216 43l79 -23l-4 -20h-238l-2 20l59 15q31 8 37 36l10 44l96 457l16 71l-78 23l4 20h237l2 -20l-59 -15q-31 -8 -36 -36l-11 -43h1l-97 -457zM634 643l-78 23l4 20h238l2 -20l-60 -15q-31 -9 -36 -36l-10 -43l-105 -496q-19 -89 -65.5 -143t-129.5 -103l-13 18 q58 62 89 115t50 145l99 464z" />
<glyph unicode="&#x133;" horiz-adv-x="542" d="M256 607q-18 0 -29 11.5t-11 30.5q0 29 18 50t44 21q18 0 29 -11t11 -30q0 -30 -18 -51t-44 -21zM515 607q-18 0 -29.5 11.5t-11.5 30.5q0 29 18 50t44 21q18 0 29.5 -11.5t11.5 -29.5q0 -30 -18.5 -51t-43.5 -21zM199 134q-10 -48 -10 -63q0 -26 17 -26q29 0 92 88l9 -6 q-26 -54 -62 -95.5t-74 -41.5q-56 0 -56 66q0 25 11 78q9 41 30.5 130.5t23.5 97.5q10 48 10 64q0 25 -18 25q-28 0 -91 -88l-9 6q26 55 61.5 96t74.5 41q56 0 56 -66q0 -25 -11 -78q-7 -29 -26.5 -110t-27.5 -118zM441 362q10 48 10 64q0 25 -18 25q-27 0 -92 -88l-8 6 q26 55 61.5 96t74.5 41q56 0 56 -66q0 -25 -11 -78l-76 -363q-25 -120 -81 -187.5t-133 -67.5q-41 0 -67.5 18.5t-26.5 45.5q0 24 22 35q39 -52 85 -52q47 0 75 47t49 144z" />
<glyph unicode="&#x134;" horiz-adv-x="354" d="M482 782l-17 -10q-68 57 -113 87q-89 -53 -153 -87l-10 13q94 75 140 125l9 5h50q50 -62 94 -133zM271 643l-79 23l4 20h238l2 -20l-59 -15q-31 -8 -37 -36l-10 -43l-105 -496q-19 -89 -65.5 -142.5t-128.5 -103.5l-14 18q58 62 89 115t50 145l99 464z" />
<glyph unicode="&#x135;" horiz-adv-x="258" d="M323 592l-17 -11q-56 90 -66 104q-59 -55 -116 -104l-10 13q9 13 36.5 51t44.5 63t25 40l9 5h53q5 -23 19.5 -78t21.5 -83zM168 362q10 48 10 64q0 25 -18 25q-27 0 -92 -88l-8 6q26 55 61.5 96t74.5 41q56 0 56 -66q0 -25 -11 -78l-76 -363q-25 -120 -81 -187.5 t-133 -67.5q-41 0 -67.5 18.5t-26.5 45.5q0 24 22 35q39 -52 85 -52q47 0 75 47t49 144z" />
<glyph unicode="&#x136;" horiz-adv-x="655" d="M216 43l79 -23l-4 -20h-238l-2 20l59 15q31 8 37 36l10 44l96 457l16 71l-78 23l4 20h237l2 -20l-59 -15q-31 -8 -36 -36l-11 -43h1l-45 -211l113 1l240 281l-83 23l4 20h216l2 -20l-60 -17q-29 -8 -58 -40l-208 -237l83 -237q18 -51 35 -73t47 -32l31 -10l-4 -20l-78 -1 q-39 0 -58 16t-31 52l-86 256h-113l-44 -208zM372 -158q0 -42 -36 -92t-88 -79l-7 8q46 54 65 108q-17 2 -27 13t-10 29q0 25 18 43t43 18q19 0 30.5 -13t11.5 -35z" />
<glyph unicode="&#x137;" horiz-adv-x="490" d="M74 13l26 121l108 497l15 68l-74 16v11q64 18 150 29l8 -8l-26 -116q-36 -162 -89 -374q56 119 115 184.5t119 64.5q38 -1 58.5 -22.5t20.5 -53.5q0 -63 -60.5 -119.5t-131.5 -88.5q40 -100 63 -138.5t42 -38.5q27 0 92 88l8 -6q-26 -54 -62 -95.5t-73 -41.5 q-39 0 -67.5 47t-72.5 174l5 9q72 29 127.5 82.5t55.5 110.5q0 38 -36 38q-48 0 -104.5 -76t-110.5 -207l-7 -34l-29 -136l-32 -4q-27 -3 -31 -3q-13 0 -7 22zM275 -158q0 -42 -36 -92t-88 -79l-8 8q49 56 65 108q-17 2 -27 13t-10 29q0 25 18 43t43 18q19 0 31 -13t12 -35z " />
<glyph unicode="&#x138;" horiz-adv-x="542" d="M105 13l27 121l49 232q10 48 10 63q0 26 -18 26q-28 0 -91 -88l-9 6q26 55 61.5 96t74.5 41q56 0 56 -66q0 -25 -11 -78l-23 -106h67q31 55 52.5 89.5t52.5 75t61.5 61t60.5 20.5q23 0 36.5 -12t13.5 -31q0 -30 -21 -56q-24 30 -51 30q-59 0 -153 -153l15 -46 q62 -193 105 -193q27 0 90 88l9 -6q-25 -54 -61.5 -95.5t-71.5 -41.5q-41 0 -70 50.5t-70 183.5h-72l-20 -90l-28 -136l-32 -4q-27 -3 -31 -3q-12 0 -8 22z" />
<glyph unicode="&#x139;" horiz-adv-x="552" d="M427 908l9 1q36 -14 36 -37q0 -29 -79 -56t-175 -38l-5 16q157 69 214 114zM269 643l-78 23l4 20h237l2 -20l-59 -15q-31 -8 -36 -36l-11 -43h1l-97 -457l-17 -80h119q69 0 102 4q67 128 80 151h18q-10 -105 -40 -190h-441l-2 20l59 15q18 5 26 12.5t12 23.5l9 44l96 457 z" />
<glyph unicode="&#x13a;" horiz-adv-x="269" d="M369 968l9 1q36 -14 36 -37q0 -29 -79 -56t-175 -38l-5 16q157 69 214 114zM173 134q-11 -53 -11 -63q0 -26 18 -26q29 0 92 88l8 -6q-25 -54 -61 -95.5t-75 -41.5q-56 0 -56 66q0 20 12 78l108 497l15 68l-74 16v11q64 18 150 29l8 -8l-26 -116z" />
<glyph unicode="&#x13b;" horiz-adv-x="552" d="M269 643l-78 23l4 20h237l2 -20l-59 -15q-31 -8 -36 -36l-11 -43h1l-97 -457l-17 -80h119q69 0 102 4q67 128 80 151h18q-10 -105 -40 -190h-441l-2 20l59 15q18 5 26 12.5t12 23.5l9 44l96 457zM326 -158q0 -42 -36 -92t-88 -79l-8 8q49 56 65 108q-17 2 -26.5 13 t-9.5 29q0 25 17.5 43t42.5 18q19 0 31 -13t12 -35z" />
<glyph unicode="&#x13c;" horiz-adv-x="269" d="M173 134q-11 -53 -11 -63q0 -26 18 -26q29 0 92 88l8 -6q-25 -54 -61 -95.5t-75 -41.5q-56 0 -56 66q0 20 12 78l108 497l15 68l-74 16v11q64 18 150 29l8 -8l-26 -116zM182 -158q0 -42 -36 -92t-88 -79l-8 8q49 56 65 108q-17 2 -27 13t-10 29q0 25 18 43t43 18 q19 0 31 -13t12 -35z" />
<glyph unicode="&#x13d;" horiz-adv-x="552" d="M618 656q0 -40 -34 -87t-83 -75l-8 7q46 52 63 103q-16 2 -25.5 12.5t-9.5 26.5q0 24 17 40.5t40 16.5q18 0 29 -12t11 -32zM269 643l-78 23l4 20h237l2 -20l-59 -15q-31 -8 -36 -36l-11 -43h1l-97 -457l-17 -80h119q69 0 102 4q67 128 80 151h18q-10 -105 -40 -190h-441 l-2 20l59 15q18 5 26 12.5t12 23.5l9 44l96 457z" />
<glyph unicode="&#x13e;" horiz-adv-x="372" d="M480 712q0 -40 -34.5 -87t-83.5 -75l-7 8q46 50 63 102q-16 2 -25.5 12.5t-9.5 26.5q0 24 16.5 40.5t40.5 16.5q18 0 29 -12t11 -32zM173 134q-11 -53 -11 -63q0 -26 18 -26q29 0 92 88l8 -6q-25 -54 -61 -95.5t-75 -41.5q-56 0 -56 66q0 20 12 78l108 497l15 68l-74 16 v11q64 18 150 29l8 -8l-26 -116z" />
<glyph unicode="&#x13f;" horiz-adv-x="552" d="M269 643l-78 23l4 20h237l2 -20l-59 -15q-31 -8 -36 -36l-11 -43h1l-97 -457l-17 -80h119q69 0 102 4q67 128 80 151h18q-10 -105 -40 -190h-441l-2 20l59 15q18 5 26 12.5t12 23.5l9 44l96 457zM512 324q-18 0 -29 11.5t-11 30.5q0 29 18 50t43 21q18 0 29.5 -11 t11.5 -30q0 -30 -18 -51t-44 -21z" />
<glyph unicode="&#x140;" horiz-adv-x="393" d="M173 134q-11 -53 -11 -63q0 -26 18 -26q29 0 92 88l8 -6q-25 -54 -61 -95.5t-75 -41.5q-56 0 -56 66q0 20 12 78l108 497l15 68l-74 16v11q64 18 150 29l8 -8l-26 -116zM374 328q-18 0 -29.5 11.5t-11.5 30.5q0 29 18 50t44 21q18 0 29.5 -11t11.5 -30q0 -30 -18 -51 t-44 -21z" />
<glyph unicode="&#x141;" horiz-adv-x="552" d="M420 418l-140 -75l-48 -228l-17 -80h119q69 0 102 4q67 128 80 151h18q-10 -105 -40 -190h-441l-2 20l59 15q18 5 26 12.5t12 23.5l9 44l38 182l-115 -62l-11 37l137 73l47 227l16 71l-78 23l4 20h237l2 -20l-59 -15q-31 -8 -36 -36l-11 -43h1l-38 -181l117 64z" />
<glyph unicode="&#x142;" horiz-adv-x="269" d="M173 134q-11 -53 -11 -63q0 -26 18 -26q29 0 92 88l8 -6q-25 -54 -61 -95.5t-75 -41.5q-56 0 -56 66q0 20 12 78l47 216l-114 -61l-11 36l136 73l50 233l15 68l-74 16v11q64 18 150 29l8 -8l-26 -116l-41 -188l121 65l12 -36l-144 -78z" />
<glyph unicode="&#x143;" horiz-adv-x="722" d="M622 908l8 1q37 -14 37 -37q0 -29 -79 -56t-175 -38l-5 16q157 69 214 114zM182 44l96 -23l-5 -21h-223l-3 21l61 15q19 5 27 12.5t12 22.5l10 44l111 526l-80 24l5 21h141l236 -575l97 461l16 70l-85 23l4 21h213l2 -21l-60 -15q-19 -5 -27 -12t-12 -23l-10 -43 l-121 -572h-50l-240 583l-99 -468z" />
<glyph unicode="&#x144;" horiz-adv-x="540" d="M459 756l8 3q7 0 11 -1q40 -3 40 -28q0 -30 -69.5 -76t-150.5 -77l-9 15q119 95 170 164zM104 13l26 121q44 201 50 227q10 44 10 64q0 26 -17 26q-29 0 -92 -88l-9 6q26 55 61.5 96t73.5 41q55 0 55 -63q0 -19 -36 -182q23 46 41 77.5t48 75.5t62.5 68t64.5 24t49 -21.5 t17 -54.5q0 -22 -7.5 -62t-16 -73t-23 -87.5t-19.5 -73.5q-10 -58 -10 -63q0 -26 18 -26q27 0 92 88l8 -6q-26 -55 -61.5 -96t-74.5 -41q-56 0 -56 66q0 20 12 78q7 32 25 96.5t29 111.5t11 69q0 36 -29 36t-71 -54t-73 -114t-51 -110l-8 -35l-29 -136l-32 -4q-24 -3 -31 -3 q-13 0 -7 22z" />
<glyph unicode="&#x145;" horiz-adv-x="722" d="M182 44l96 -23l-5 -21h-223l-3 21l61 15q19 5 27 12.5t12 22.5l10 44l111 526l-80 24l5 21h141l236 -575l97 461l16 70l-85 23l4 21h213l2 -21l-60 -15q-19 -5 -27 -12t-12 -23l-10 -43l-121 -572h-50l-240 583l-99 -468zM393 -158q0 -42 -36 -92t-88 -79l-8 8 q48 54 65 108q-17 2 -26.5 13t-9.5 29q0 25 18 43t43 18q19 0 30.5 -13t11.5 -35z" />
<glyph unicode="&#x146;" horiz-adv-x="540" d="M104 13l26 121q44 201 50 227q10 44 10 64q0 26 -17 26q-29 0 -92 -88l-9 6q26 55 61.5 96t73.5 41q55 0 55 -63q0 -19 -36 -182q23 46 41 77.5t48 75.5t62.5 68t64.5 24t49 -21.5t17 -54.5q0 -22 -7.5 -62t-16 -73t-23 -87.5t-19.5 -73.5q-10 -58 -10 -63q0 -26 18 -26 q27 0 92 88l8 -6q-26 -55 -61.5 -96t-74.5 -41q-56 0 -56 66q0 20 12 78q7 32 25 96.5t29 111.5t11 69q0 36 -29 36t-71 -54t-73 -114t-51 -110l-8 -35l-29 -136l-32 -4q-24 -3 -31 -3q-13 0 -7 22zM307 -158q0 -42 -36 -92t-88 -79l-7 8q47 54 64 108q-16 2 -26 13t-10 29 q0 25 18 43t43 18q19 0 30.5 -13t11.5 -35z" />
<glyph unicode="&#x147;" horiz-adv-x="722" d="M549 776l-7 -5h-54q-30 43 -83 134l17 10q56 -52 102 -87q95 54 161 87l10 -12q-97 -78 -146 -127zM182 44l96 -23l-5 -21h-223l-3 21l61 15q19 5 27 12.5t12 22.5l10 44l111 526l-80 24l5 21h141l236 -575l97 461l16 70l-85 23l4 21h213l2 -21l-60 -15q-19 -5 -27 -12 t-12 -23l-10 -43l-121 -572h-50l-240 583l-99 -468z" />
<glyph unicode="&#x148;" horiz-adv-x="540" d="M418 586l-8 -5h-53q-31 58 -74 162l17 10q62 -78 94 -111q89 69 152 111l10 -12q-89 -90 -138 -155zM104 13l26 121q44 201 50 227q10 44 10 64q0 26 -17 26q-29 0 -92 -88l-9 6q26 55 61.5 96t73.5 41q55 0 55 -63q0 -19 -36 -182q23 46 41 77.5t48 75.5t62.5 68 t64.5 24t49 -21.5t17 -54.5q0 -22 -7.5 -62t-16 -73t-23 -87.5t-19.5 -73.5q-10 -58 -10 -63q0 -26 18 -26q27 0 92 88l8 -6q-26 -55 -61.5 -96t-74.5 -41q-56 0 -56 66q0 20 12 78q7 32 25 96.5t29 111.5t11 69q0 36 -29 36t-71 -54t-73 -114t-51 -110l-8 -35l-29 -136 l-32 -4q-24 -3 -31 -3q-13 0 -7 22z" />
<glyph unicode="&#x14a;" horiz-adv-x="721" d="M182 44l95 -23l-4 -21h-224l-2 21l61 15q19 5 27 12.5t12 22.5l10 44l107 508q0 12 -4.5 18t-18.5 10l-53 14l5 21h141l235 -575l98 461l16 70l-85 23l4 21h213l2 -21l-61 -15q-19 -5 -27 -12t-11 -23l-10 -43l-106 -497q-19 -89 -54 -137t-112 -108l-12 14 q34 37 47 51.5t33 44t33 60.5l-241 583l-99 -468z" />
<glyph unicode="&#x14b;" horiz-adv-x="520" d="M104 13l26 121q44 201 50 227q10 44 10 64q0 26 -17 26q-29 0 -92 -88l-9 6q26 55 61.5 96t73.5 41q55 0 55 -63q0 -25 -35 -181q17 35 31 60.5t37.5 63t45 61.5t48.5 41.5t53 17.5q32 0 49 -22t17 -55q0 -45 -83 -430q-25 -120 -81 -187.5t-133 -67.5q-41 0 -67.5 18.5 t-26.5 45.5q0 24 22 35q39 -52 85 -52q47 0 75 47t49 144q12 57 27 126.5t24.5 112t18.5 85t13 68t4 37.5q0 36 -29 36t-71 -54t-73 -114t-51 -110l-8 -35l-29 -136l-32 -4q-24 -3 -31 -3q-13 0 -7 22z" />
<glyph unicode="&#x14c;" horiz-adv-x="605" d="M326 819l10 45h273l-10 -45h-273zM626 451q0 -105 -39.5 -209.5t-116 -178t-169.5 -73.5q-90 0 -144.5 66.5t-54.5 177.5q0 108 40.5 213t118 177t170.5 72q91 0 143 -66t52 -179zM181 214q0 -84 33 -134t94 -50q52 0 98.5 44.5t76 112.5t47 145t17.5 145q0 180 -122 180 q-69 0 -127 -73t-87.5 -173.5t-29.5 -196.5z" />
<glyph unicode="&#x14d;" horiz-adv-x="433" d="M204 643l11 46h257l-11 -46h-257zM439 329q0 -141 -69 -240t-159 -99q-61 0 -98 49.5t-37 130.5q0 133 70 234.5t159 101.5q65 0 99.5 -47t34.5 -130zM151 155q0 -60 18 -95t49 -35q58 0 102 104.5t44 220.5q0 121 -64 121q-39 0 -74.5 -50.5t-55 -123.5t-19.5 -142z" />
<glyph unicode="&#x14e;" horiz-adv-x="605" d="M591 901l4 2l14 -7q-50 -112 -155 -112q-49 0 -73 31.5t-19 84.5l18 3q3 -29 26.5 -45.5t61.5 -16.5q78 0 123 60zM626 451q0 -105 -39.5 -209.5t-116 -178t-169.5 -73.5q-90 0 -144.5 66.5t-54.5 177.5q0 108 40.5 213t118 177t170.5 72q91 0 143 -66t52 -179zM181 214 q0 -84 33 -134t94 -50q52 0 98.5 44.5t76 112.5t47 145t17.5 145q0 180 -122 180q-69 0 -127 -73t-87.5 -173.5t-29.5 -196.5z" />
<glyph unicode="&#x14f;" horiz-adv-x="433" d="M459 734l4 2l16 -3q-24 -63 -65.5 -99t-92.5 -36q-48 0 -72 37t-19 98l18 3q4 -37 27 -58t61 -21q79 0 123 77zM439 329q0 -141 -69 -240t-159 -99q-61 0 -98 49.5t-37 130.5q0 133 70 234.5t159 101.5q65 0 99.5 -47t34.5 -130zM151 155q0 -60 18 -95t49 -35 q58 0 102 104.5t44 220.5q0 121 -64 121q-39 0 -74.5 -50.5t-55 -123.5t-19.5 -142z" />
<glyph unicode="&#x150;" horiz-adv-x="605" d="M458 908l9 2q36 -7 36 -32q0 -60 -234 -101l-7 16q111 48 196 115zM679 908l9 2q35 -7 35 -32q0 -60 -233 -101l-7 16q107 46 196 115zM626 451q0 -105 -39.5 -209.5t-116 -178t-169.5 -73.5q-90 0 -144.5 66.5t-54.5 177.5q0 108 40.5 213t118 177t170.5 72 q91 0 143 -66t52 -179zM181 214q0 -84 33 -134t94 -50q52 0 98.5 44.5t76 112.5t47 145t17.5 145q0 180 -122 180q-69 0 -127 -73t-87.5 -173.5t-29.5 -196.5z" />
<glyph unicode="&#x151;" horiz-adv-x="433" d="M322 756l8 3q7 0 11 -1q35 -3 35 -28q0 -30 -68 -75.5t-147 -77.5l-9 15q119 95 170 164zM488 756l8 3q8 0 11 -1q35 -5 35 -28q0 -30 -68 -75.5t-147 -77.5l-9 15q119 95 170 164zM439 329q0 -141 -69 -240t-159 -99q-61 0 -98 49.5t-37 130.5q0 133 70 234.5t159 101.5 q65 0 99.5 -47t34.5 -130zM151 155q0 -60 18 -95t49 -35q58 0 102 104.5t44 220.5q0 121 -64 121q-39 0 -74.5 -50.5t-55 -123.5t-19.5 -142z" />
<glyph unicode="&#x152;" horiz-adv-x="872" d="M803 0h-367q-41 -10 -88 -10q-113 0 -181 72t-68 193q0 184 115.5 312.5t280.5 128.5q48 0 85 -10h339q-1 -73 -37 -182h-19q-11 78 -18 143q-44 4 -100 4h-108l-61 -289l206 5l-11 -46l-203 6l-62 -293h137q60 0 102 5q8 14 33.5 60.5t45.5 82.5h18q-5 -96 -39 -182z M178 243q0 -95 46 -154t130 -59q51 0 81 22l125 589q-34 16 -70 16q-88 0 -160.5 -57t-112 -151.5t-39.5 -205.5z" />
<glyph unicode="&#x153;" horiz-adv-x="653" d="M297 506q50 0 81 -32.5t40 -91.5q36 57 83.5 90.5t95.5 33.5q42 0 65.5 -24t23.5 -65q0 -78 -79 -130.5t-184 -55.5l2 14q-7 -36 -7 -80q0 -57 20.5 -89t58.5 -32q61 0 143 95l9 -6q-35 -65 -81.5 -104t-98.5 -39q-88 0 -110 103q-31 -48 -72 -75.5t-84 -27.5 q-57 0 -92 49.5t-35 130.5q0 133 67.5 234.5t153.5 101.5zM300 471q-39 0 -74.5 -50.5t-55 -123.5t-19.5 -142q0 -60 17.5 -95t48.5 -35q39 0 74 50.5t54 125.5t19 149q0 121 -64 121zM580 470q-47 0 -90.5 -61.5t-61.5 -149.5q82 7 136 54.5t54 109.5q0 47 -38 47z" />
<glyph unicode="&#x154;" horiz-adv-x="634" d="M561 908l8 1q37 -14 37 -37q0 -29 -79 -56t-175 -38l-5 16q157 69 214 114zM216 43l79 -23l-4 -20h-238l-2 20l59 15q31 8 37 36l10 44l97 457l15 71l-78 23l4 20h218q99 0 154 -42t55 -117q0 -72 -45 -127.5t-119 -82.5l59 -182q16 -48 34 -71.5t47 -33.5l28 -10l-4 -20 l-74 -1q-40 0 -59 15.5t-30 52.5l-73 232q-20 -4 -48 -4h-68l-38 -180zM329 572l-51 -239h56q100 0 155 57t55 137q0 57 -37 88.5t-102 31.5h-60z" />
<glyph unicode="&#x155;" horiz-adv-x="408" d="M409 756l8 3q7 0 11 -1q40 -3 40 -28q0 -30 -69.5 -76t-150.5 -77l-9 15q119 95 170 164zM104 13l26 121q60 275 60 291q0 26 -17 26q-29 0 -92 -88l-9 6q26 55 61.5 96t73.5 41q55 0 55 -63q0 -32 -34 -170q23 48 40 80t43 72t53.5 60.5t54.5 20.5q23 0 36 -12t13 -31 q0 -36 -25 -66q-28 30 -56 30q-31 0 -72.5 -57t-69.5 -116.5t-35 -88.5l-7 -31l-29 -136l-32 -4q-24 -3 -31 -3q-13 0 -7 22z" />
<glyph unicode="&#x156;" horiz-adv-x="634" d="M216 43l79 -23l-4 -20h-238l-2 20l59 15q31 8 37 36l10 44l97 457l15 71l-78 23l4 20h218q99 0 154 -42t55 -117q0 -72 -45 -127.5t-119 -82.5l59 -182q16 -48 34 -71.5t47 -33.5l28 -10l-4 -20l-74 -1q-40 0 -59 15.5t-30 52.5l-73 232q-20 -4 -48 -4h-68l-38 -180z M329 572l-51 -239h56q100 0 155 57t55 137q0 57 -37 88.5t-102 31.5h-60zM376 -158q0 -42 -36 -92t-88 -79l-8 8q48 54 65 108q-17 2 -26.5 13t-9.5 29q0 25 17.5 43t42.5 18q19 0 31 -13t12 -35z" />
<glyph unicode="&#x157;" horiz-adv-x="408" d="M104 13l26 121q60 275 60 291q0 26 -17 26q-29 0 -92 -88l-9 6q26 55 61.5 96t73.5 41q55 0 55 -63q0 -32 -34 -170q23 48 40 80t43 72t53.5 60.5t54.5 20.5q23 0 36 -12t13 -31q0 -36 -25 -66q-28 30 -56 30q-31 0 -72.5 -57t-69.5 -116.5t-35 -88.5l-7 -31l-29 -136 l-32 -4q-24 -3 -31 -3q-13 0 -7 22zM157 -158q0 -42 -36 -92t-88 -79l-8 8q49 56 65 108q-17 2 -26.5 13t-9.5 29q0 25 17.5 43t42.5 18q19 0 31 -13t12 -35z" />
<glyph unicode="&#x158;" horiz-adv-x="634" d="M490 776l-8 -5h-53q-34 48 -83 134l16 10q63 -56 102 -87q88 50 162 87l10 -12q-90 -71 -146 -127zM216 43l79 -23l-4 -20h-238l-2 20l59 15q31 8 37 36l10 44l97 457l15 71l-78 23l4 20h218q99 0 154 -42t55 -117q0 -72 -45 -127.5t-119 -82.5l59 -182q16 -48 34 -71.5 t47 -33.5l28 -10l-4 -20l-74 -1q-40 0 -59 15.5t-30 52.5l-73 232q-20 -4 -48 -4h-68l-38 -180zM329 572l-51 -239h56q100 0 155 57t55 137q0 57 -37 88.5t-102 31.5h-60z" />
<glyph unicode="&#x159;" horiz-adv-x="408" d="M363 586l-7 -5h-54q-36 71 -74 162l17 10q62 -78 94 -111q105 80 153 111l10 -12q-93 -95 -139 -155zM104 13l26 121q60 275 60 291q0 26 -17 26q-29 0 -92 -88l-9 6q26 55 61.5 96t73.5 41q55 0 55 -63q0 -32 -34 -170q23 48 40 80t43 72t53.5 60.5t54.5 20.5 q23 0 36 -12t13 -31q0 -36 -25 -66q-28 30 -56 30q-31 0 -72.5 -57t-69.5 -116.5t-35 -88.5l-7 -31l-29 -136l-32 -4q-24 -3 -31 -3q-13 0 -7 22z" />
<glyph unicode="&#x15a;" horiz-adv-x="465" d="M491 908l9 1q36 -14 36 -37q0 -29 -79 -56t-175 -38l-5 16q157 69 214 114zM215 -10q-58 0 -106 12t-56 27q-4 10 -4 21q0 60 39 131l19 -1q-1 -13 -1 -34q0 -60 18 -84q26 -35 97 -35q67 0 109.5 43t42.5 102q0 34 -17 64.5t-42.5 52t-55.5 47t-55.5 49t-42.5 57 t-17 71.5q0 79 67 131t158 52q55 0 94 -11.5t51 -24.5q5 -5 5 -14q0 -23 -13 -65.5t-29 -72.5h-19q2 32 2 41q0 54 -13 74q-25 35 -88 35q-60 0 -100 -38t-40 -93q0 -32 17 -61.5t42.5 -51t55.5 -47.5t55.5 -49.5t42.5 -57.5t17 -72q0 -83 -63.5 -140.5t-169.5 -57.5z" />
<glyph unicode="&#x15b;" horiz-adv-x="381" d="M371 756l8 3q7 0 11 -1q40 -3 40 -28q0 -30 -69.5 -76t-150.5 -77l-9 15q119 95 170 164zM353 132q0 -63 -45 -102.5t-121 -39.5q-59 0 -98 27t-39 70q0 58 61 91l8 -7q-12 -37 -11 -67q3 -37 27.5 -59t61.5 -22t61 22.5t24 62.5q0 28 -16.5 54.5t-40 49t-47 46t-40 54 t-16.5 64.5q0 55 44 92.5t109 37.5q58 0 91.5 -25t33.5 -62q0 -58 -53 -93l-9 6q7 37 6 63q-5 80 -72 80q-34 0 -56.5 -22.5t-22.5 -58.5q0 -34 25 -68.5t55 -60t55 -61.5t25 -72z" />
<glyph unicode="&#x15c;" horiz-adv-x="465" d="M545 782l-16 -10q-68 58 -114 87q-82 -50 -153 -87l-9 13q92 75 140 125l8 5h51q52 -65 93 -133zM215 -10q-58 0 -106 12t-56 27q-4 10 -4 21q0 60 39 131l19 -1q-1 -13 -1 -34q0 -60 18 -84q26 -35 97 -35q67 0 109.5 43t42.5 102q0 34 -17 64.5t-42.5 52t-55.5 47 t-55.5 49t-42.5 57t-17 71.5q0 79 67 131t158 52q55 0 94 -11.5t51 -24.5q5 -5 5 -14q0 -23 -13 -65.5t-29 -72.5h-19q2 32 2 41q0 54 -13 74q-25 35 -88 35q-60 0 -100 -38t-40 -93q0 -32 17 -61.5t42.5 -51t55.5 -47.5t55.5 -49.5t42.5 -57.5t17 -72q0 -83 -63.5 -140.5 t-169.5 -57.5z" />
<glyph unicode="&#x15d;" horiz-adv-x="381" d="M423 592l-16 -11q-56 68 -103 111q-86 -72 -142 -111l-9 13q87 97 127 154l9 5h53q45 -80 81 -161zM353 132q0 -63 -45 -102.5t-121 -39.5q-59 0 -98 27t-39 70q0 58 61 91l8 -7q-12 -37 -11 -67q3 -37 27.5 -59t61.5 -22t61 22.5t24 62.5q0 28 -16.5 54.5t-40 49t-47 46 t-40 54t-16.5 64.5q0 55 44 92.5t109 37.5q58 0 91.5 -25t33.5 -62q0 -58 -53 -93l-9 6q7 37 6 63q-5 80 -72 80q-34 0 -56.5 -22.5t-22.5 -58.5q0 -34 25 -68.5t55 -60t55 -61.5t25 -72z" />
<glyph unicode="&#x15e;" horiz-adv-x="465" d="M294 -120q0 -38 -46 -67t-119 -36l-2 10q42 13 69.5 34.5t27.5 43.5q0 32 -48 37l-3 6l33 82q-56 1 -100.5 13t-52.5 26q-4 10 -4 21q0 60 39 131l19 -1q-1 -13 -1 -34q0 -60 18 -84q26 -35 97 -35q67 0 109.5 43t42.5 102q0 34 -17 64.5t-42.5 52t-55.5 47t-55.5 49 t-42.5 57t-17 71.5q0 79 67 131t158 52q55 0 94 -11.5t51 -24.5q5 -5 5 -14q0 -23 -13 -65.5t-29 -72.5h-19q2 32 2 41q0 54 -13 74q-25 35 -88 35q-60 0 -100 -38t-40 -93q0 -32 17 -61.5t42.5 -51t55.5 -47.5t55.5 -49.5t42.5 -57.5t17 -72q0 -77 -55.5 -132.5 t-148.5 -64.5l-21 -54q34 -4 52.5 -19t18.5 -38z" />
<glyph unicode="&#x15f;" horiz-adv-x="381" d="M254 -120q0 -38 -46.5 -67t-119.5 -36l-2 10q43 13 70 34.5t27 43.5q0 32 -48 37l-2 6l33 83q-51 5 -83.5 31t-32.5 65q0 58 61 91l8 -7q-12 -37 -11 -67q3 -37 27.5 -59t61.5 -22t61 22.5t24 62.5q0 28 -16.5 54.5t-40 49t-47 46t-40 54t-16.5 64.5q0 55 44 92.5 t109 37.5q58 0 91.5 -25t33.5 -62q0 -58 -53 -93l-9 6q7 37 6 63q-5 80 -72 80q-34 0 -56.5 -22.5t-22.5 -58.5q0 -34 25 -68.5t55 -60t55 -61.5t25 -72q0 -59 -40.5 -98t-109.5 -43l-21 -54q72 -10 72 -57z" />
<glyph unicode="&#x160;" horiz-adv-x="465" d="M422 776l-7 -5h-54q-25 35 -83 134l17 10q56 -52 102 -87q95 54 161 87l10 -12q-97 -78 -146 -127zM215 -10q-58 0 -106 12t-56 27q-4 10 -4 21q0 60 39 131l19 -1q-1 -13 -1 -34q0 -60 18 -84q26 -35 97 -35q67 0 109.5 43t42.5 102q0 34 -17 64.5t-42.5 52t-55.5 47 t-55.5 49t-42.5 57t-17 71.5q0 79 67 131t158 52q55 0 94 -11.5t51 -24.5q5 -5 5 -14q0 -23 -13 -65.5t-29 -72.5h-19q2 32 2 41q0 54 -13 74q-25 35 -88 35q-60 0 -100 -38t-40 -93q0 -32 17 -61.5t42.5 -51t55.5 -47.5t55.5 -49.5t42.5 -57.5t17 -72q0 -83 -63.5 -140.5 t-169.5 -57.5z" />
<glyph unicode="&#x161;" horiz-adv-x="381" d="M330 586l-8 -5h-53q-31 58 -74 162l16 10q71 -87 95 -111q89 69 152 111l10 -12q-89 -90 -138 -155zM353 132q0 -63 -45 -102.5t-121 -39.5q-59 0 -98 27t-39 70q0 58 61 91l8 -7q-12 -37 -11 -67q3 -37 27.5 -59t61.5 -22t61 22.5t24 62.5q0 28 -16.5 54.5t-40 49 t-47 46t-40 54t-16.5 64.5q0 55 44 92.5t109 37.5q58 0 91.5 -25t33.5 -62q0 -58 -53 -93l-9 6q7 37 6 63q-5 80 -72 80q-34 0 -56.5 -22.5t-22.5 -58.5q0 -34 25 -68.5t55 -60t55 -61.5t25 -72z" />
<glyph unicode="&#x162;" horiz-adv-x="572" d="M320 43l79 -23l-4 -20h-102l-25 -63q34 -4 52.5 -19t18.5 -38q0 -38 -46 -67t-119 -36l-2 10q43 13 70 34.5t27 43.5q0 32 -48 37l-2 6l36 92h-98l-2 20l59 15q31 8 37 36l10 44l113 534h-61q-66 0 -108 -9q-26 -45 -45 -85l-26 -51h-19q9 104 40 182h530 q-5 -87 -38 -182h-19l-5 51q-2 44 -8 85q-39 9 -105 9h-61l-113 -534z" />
<glyph unicode="&#x163;" horiz-adv-x="344" d="M252 -120q0 -38 -46 -67t-119 -36l-2 10q42 13 69.5 34.5t27.5 43.5q0 32 -48 37l-3 6l34 85q-58 14 -58 95q0 37 6 63l65 302h-82l2 14l88 26l89 146l15 -1l-32 -150h148l-8 -35h-148l-63 -296q-6 -32 -6 -55q0 -58 43 -58q57 0 139 95l8 -6q-72 -131 -169 -142l-21 -54 q34 -4 52.5 -19t18.5 -38z" />
<glyph unicode="&#x164;" horiz-adv-x="572" d="M471 777l-8 -5h-54q-30 44 -83 134l17 10q62 -58 102 -87q84 48 161 87l11 -12q-106 -86 -146 -127zM320 43l79 -23l-4 -20h-238l-2 20l59 15q31 8 37 36l10 44l113 534h-61q-66 0 -108 -9q-26 -45 -45 -85l-26 -51h-19q9 104 40 182h530q-5 -87 -38 -182h-19l-5 51 q-2 44 -8 85q-39 9 -105 9h-61l-113 -534z" />
<glyph unicode="&#x165;" horiz-adv-x="344" d="M501 704q0 -40 -34 -86.5t-83 -74.5l-7 7q46 50 63 103q-35 3 -35 39q0 23 16.5 39.5t40.5 16.5q18 0 28.5 -12t10.5 -32zM186 -10q-38 0 -58.5 26t-20.5 72q0 37 6 63l65 302h-82l2 14l88 26l89 146l15 -1l-32 -150h148l-8 -35h-148l-63 -296q-6 -32 -6 -55 q0 -58 43 -58q57 0 139 95l8 -6q-79 -143 -185 -143z" />
<glyph unicode="&#x166;" horiz-adv-x="572" d="M320 43l79 -23l-4 -20h-238l-2 20l59 15q31 8 37 36l10 44l46 219h-142l7 35h143l59 280h-61q-66 0 -108 -9q-26 -45 -45 -85l-26 -51h-19q9 104 40 182h530q-5 -87 -38 -182h-19l-5 51q-2 44 -8 85q-39 9 -105 9h-61l-59 -280h148l-7 -35h-148l-47 -219z" />
<glyph unicode="&#x167;" horiz-adv-x="344" d="M186 -10q-38 0 -58.5 26t-20.5 72q0 37 6 63l33 153h-69l7 34h69l25 115h-82l2 14l88 26l89 146l15 -1l-32 -150h148l-8 -35h-148l-24 -115h158l-6 -34h-160l-31 -147q-6 -32 -6 -55q0 -58 43 -58q57 0 139 95l8 -6q-79 -143 -185 -143z" />
<glyph unicode="&#x168;" horiz-adv-x="668" d="M411 845q-16 -7 -77 -64l-11 5q49 116 123 116q33 0 95.5 -29t86.5 -30q17 7 77 65l10 -6q-48 -116 -123 -116q-31 0 -94 29.5t-87 29.5zM601 240q-53 -250 -259 -250q-88 0 -142 48.5t-54 134.5q0 43 7 76l69 323l16 71l-79 23l4 20h238l2 -20l-59 -15q-31 -8 -37 -36 l-10 -43l-69 -327q-7 -34 -7 -68q0 -69 38.5 -107.5t102.5 -38.5q71 0 122.5 52t74.5 157l72 334l15 68l-85 23l4 21h213l2 -21l-94 -23l-15 -68z" />
<glyph unicode="&#x169;" horiz-adv-x="547" d="M286 675q-16 -8 -70 -67l-9 5q45 117 119 117q31 0 85 -29.5t75 -30.5q17 8 69 67l9 -5q-44 -117 -119 -117q-31 0 -86 29.5t-73 30.5zM187 362q10 48 10 64q0 25 -18 25q-27 0 -92 -88l-8 6q26 55 61.5 96t74.5 41q56 0 56 -66q0 -25 -11 -78q-7 -31 -25.5 -97.5 t-28.5 -110.5t-10 -65q0 -38 26 -38q40 0 102 96t97 189l6 27h1l29 136l31 4q27 3 32 3q11 0 7 -22l-27 -121l-50 -229q-10 -48 -10 -63q0 -26 18 -26q27 0 92 88l8 -6q-26 -55 -61.5 -96t-74.5 -41q-56 0 -56 66q0 27 12 78l22 100q-16 -35 -36.5 -72t-49 -78.5t-62 -67.5 t-63.5 -26q-32 0 -49.5 22.5t-17.5 58.5q0 27 10.5 75t29 117.5t25.5 98.5z" />
<glyph unicode="&#x16a;" horiz-adv-x="668" d="M381 819l10 45h273l-10 -45h-273zM601 240q-53 -250 -259 -250q-88 0 -142 48.5t-54 134.5q0 43 7 76l69 323l16 71l-79 23l4 20h238l2 -20l-59 -15q-31 -8 -37 -36l-10 -43l-69 -327q-7 -34 -7 -68q0 -69 38.5 -107.5t102.5 -38.5q71 0 122.5 52t74.5 157l72 334l15 68 l-85 23l4 21h213l2 -21l-94 -23l-15 -68z" />
<glyph unicode="&#x16b;" horiz-adv-x="547" d="M252 643l10 46h257l-11 -46h-256zM187 362q10 48 10 64q0 25 -18 25q-27 0 -92 -88l-8 6q26 55 61.5 96t74.5 41q56 0 56 -66q0 -25 -11 -78q-7 -31 -25.5 -97.5t-28.5 -110.5t-10 -65q0 -38 26 -38q40 0 102 96t97 189l6 27h1l29 136l31 4q27 3 32 3q11 0 7 -22 l-27 -121l-50 -229q-10 -48 -10 -63q0 -26 18 -26q27 0 92 88l8 -6q-26 -55 -61.5 -96t-74.5 -41q-56 0 -56 66q0 27 12 78l22 100q-16 -35 -36.5 -72t-49 -78.5t-62 -67.5t-63.5 -26q-32 0 -49.5 22.5t-17.5 58.5q0 27 10.5 75t29 117.5t25.5 98.5z" />
<glyph unicode="&#x16c;" horiz-adv-x="668" d="M636 901l5 2l14 -7q-50 -112 -155 -112q-49 0 -73 31.5t-19 84.5l17 3q4 -29 27 -45.5t61 -16.5q80 0 123 60zM601 240q-53 -250 -259 -250q-88 0 -142 48.5t-54 134.5q0 43 7 76l69 323l16 71l-79 23l4 20h238l2 -20l-59 -15q-31 -8 -37 -36l-10 -43l-69 -327 q-7 -34 -7 -68q0 -69 38.5 -107.5t102.5 -38.5q71 0 122.5 52t74.5 157l72 334l15 68l-85 23l4 21h213l2 -21l-94 -23l-15 -68z" />
<glyph unicode="&#x16d;" horiz-adv-x="547" d="M511 734l4 2l16 -3q-24 -63 -65.5 -99t-92.5 -36q-48 0 -72 37t-19 98l18 3q4 -37 27 -58t61 -21q79 0 123 77zM187 362q10 48 10 64q0 25 -18 25q-27 0 -92 -88l-8 6q26 55 61.5 96t74.5 41q56 0 56 -66q0 -25 -11 -78q-7 -31 -25.5 -97.5t-28.5 -110.5t-10 -65 q0 -38 26 -38q40 0 102 96t97 189l6 27h1l29 136l31 4q27 3 32 3q11 0 7 -22l-27 -121l-50 -229q-10 -48 -10 -63q0 -26 18 -26q27 0 92 88l8 -6q-26 -55 -61.5 -96t-74.5 -41q-56 0 -56 66q0 27 12 78l22 100q-16 -35 -36.5 -72t-49 -78.5t-62 -67.5t-63.5 -26 q-32 0 -49.5 22.5t-17.5 58.5q0 27 10.5 75t29 117.5t25.5 98.5z" />
<glyph unicode="&#x16e;" horiz-adv-x="668" d="M612 859q0 -39 -31.5 -66t-76.5 -27q-33 0 -52 17t-19 46q0 38 31.5 65t76.5 27q33 0 52 -16.5t19 -45.5zM475 829q0 -17 10 -27t26 -10q25 0 42 19t17 46q0 17 -10 27t-27 10q-24 0 -41 -18.5t-17 -46.5zM601 240q-53 -250 -259 -250q-88 0 -142 48.5t-54 134.5 q0 43 7 76l69 323l16 71l-79 23l4 20h238l2 -20l-59 -15q-31 -8 -37 -36l-10 -43l-69 -327q-7 -34 -7 -68q0 -69 38.5 -107.5t102.5 -38.5q71 0 122.5 52t74.5 157l72 334l15 68l-85 23l4 21h213l2 -21l-94 -23l-15 -68z" />
<glyph unicode="&#x16f;" horiz-adv-x="547" d="M479 683q0 -39 -31.5 -66.5t-76.5 -27.5q-32 0 -51.5 17.5t-19.5 46.5q0 38 31.5 65t76.5 27q33 0 52 -17t19 -45zM342 653q0 -17 10 -27t26 -10q25 0 42 19t17 46q0 17 -10.5 27t-26.5 10q-24 0 -41 -19t-17 -46zM187 362q10 48 10 64q0 25 -18 25q-27 0 -92 -88l-8 6 q26 55 61.5 96t74.5 41q56 0 56 -66q0 -25 -11 -78q-7 -31 -25.5 -97.5t-28.5 -110.5t-10 -65q0 -38 26 -38q40 0 102 96t97 189l6 27h1l29 136l31 4q27 3 32 3q11 0 7 -22l-27 -121l-50 -229q-10 -48 -10 -63q0 -26 18 -26q27 0 92 88l8 -6q-26 -55 -61.5 -96t-74.5 -41 q-56 0 -56 66q0 27 12 78l22 100q-16 -35 -36.5 -72t-49 -78.5t-62 -67.5t-63.5 -26q-32 0 -49.5 22.5t-17.5 58.5q0 27 10.5 75t29 117.5t25.5 98.5z" />
<glyph unicode="&#x170;" horiz-adv-x="668" d="M508 908l9 2q35 -7 35 -32q0 -60 -233 -101l-7 16q107 46 196 115zM729 908l9 2q35 -7 35 -32q0 -60 -233 -101l-7 16q107 46 196 115zM601 240q-53 -250 -259 -250q-88 0 -142 48.5t-54 134.5q0 43 7 76l69 323l16 71l-79 23l4 20h238l2 -20l-59 -15q-31 -8 -37 -36 l-10 -43l-69 -327q-7 -34 -7 -68q0 -69 38.5 -107.5t102.5 -38.5q71 0 122.5 52t74.5 157l72 334l15 68l-85 23l4 21h213l2 -21l-94 -23l-15 -68z" />
<glyph unicode="&#x171;" horiz-adv-x="547" d="M382 756l8 3q7 0 11 -1q35 -3 35 -28q0 -30 -68 -75.5t-147 -77.5l-9 15q119 95 170 164zM548 756l8 3q8 0 11 -1q36 -5 36 -28q0 -30 -68.5 -75.5t-147.5 -77.5l-9 15q123 98 170 164zM187 362q10 48 10 64q0 25 -18 25q-27 0 -92 -88l-8 6q26 55 61.5 96t74.5 41 q56 0 56 -66q0 -25 -11 -78q-7 -31 -25.5 -97.5t-28.5 -110.5t-10 -65q0 -38 26 -38q40 0 102 96t97 189l6 27h1l29 136l31 4q27 3 32 3q11 0 7 -22l-27 -121l-50 -229q-10 -48 -10 -63q0 -26 18 -26q27 0 92 88l8 -6q-26 -55 -61.5 -96t-74.5 -41q-56 0 -56 66q0 27 12 78 l22 100q-16 -35 -36.5 -72t-49 -78.5t-62 -67.5t-63.5 -26q-32 0 -49.5 22.5t-17.5 58.5q0 27 10.5 75t29 117.5t25.5 98.5z" />
<glyph unicode="&#x172;" horiz-adv-x="668" d="M430 -112q-20 -47 -51 -79t-70 -32q-32 0 -49 19t-17 51q0 80 128 144q-9 -1 -29 -1q-88 0 -142 48.5t-54 134.5q0 43 7 76l69 323l16 71l-79 23l4 20h238l2 -20l-59 -15q-31 -8 -37 -36l-10 -43l-69 -327q-7 -34 -7 -68q0 -69 38.5 -107.5t102.5 -38.5q71 0 122.5 52 t74.5 157l72 334l15 68l-85 23l4 21h213l2 -21l-94 -23l-15 -68l-70 -334q-33 -152 -123 -212v-1q-2 -1 -14 -8q-80 -49 -117 -83t-37 -70q0 -34 29 -34q32 0 82 62z" />
<glyph unicode="&#x173;" horiz-adv-x="547" d="M187 362q10 48 10 64q0 25 -18 25q-27 0 -92 -88l-8 6q26 55 61.5 96t74.5 41q56 0 56 -66q0 -25 -11 -78q-7 -31 -25.5 -97.5t-28.5 -110.5t-10 -65q0 -38 26 -38q40 0 102 96t97 189l6 27h1l29 136l31 4q27 3 32 3q11 0 7 -22l-27 -121l-50 -229q-10 -48 -10 -63 q0 -26 18 -26q27 0 92 88l8 -6q-22 -47 -49 -81l2 2q-25 -35 -63 -76.5t-55.5 -66t-17.5 -45.5q0 -13 7.5 -20.5t18.5 -7.5q13 0 28 10.5t23.5 20.5t25.5 31l9 -6q-48 -111 -118 -111q-27 0 -44.5 17.5t-17.5 45.5q0 15 5.5 29.5t12 25t22 25.5t24.5 22.5t30.5 25t29.5 23.5 q-3 -1 -9 -1q-56 0 -56 66q0 27 12 78l22 100q-16 -35 -36.5 -72t-49 -78.5t-62 -67.5t-63.5 -26q-32 0 -49.5 22.5t-17.5 58.5q0 27 10.5 75t29 117.5t25.5 98.5z" />
<glyph unicode="&#x174;" horiz-adv-x="1011" d="M795 782l-17 -10q-68 57 -113 87q-89 -53 -153 -87l-10 13q94 75 140 125l9 5h50q50 -62 94 -133zM336 0h-45l-66 611q-2 19 -9 28t-22 13l-51 14l2 20h232l4 -20l-86 -22l57 -538l237 435l-9 70q-2 20 -8.5 28.5t-21.5 12.5l-52 14l3 20h232l4 -20l-86 -22l64 -538 l286 538l-82 22l4 20h205l3 -20l-56 -16q-31 -8 -47 -38l-329 -612h-45l-57 475z" />
<glyph unicode="&#x175;" horiz-adv-x="654" d="M563 592l-17 -11q-56 67 -102 111q-94 -78 -142 -111l-10 13q92 102 128 154l8 5h54q45 -80 81 -161zM697 459q0 -69 -90.5 -214.5t-191.5 -246.5l-35 2q20 273 20 324v23q-72 -205 -216 -349l-34 2q20 273 20 324q0 70 -8 98.5t-28 28.5q-28 0 -93 -88l-9 6q27 57 63 97 t75 40q69 0 69 -129q0 -125 -22 -306q78 107 122 215.5t51 193.5q0 9 -2 19q12 7 31 7q29 0 40 -25t11 -92q0 -118 -22 -318q76 105 124.5 212t48.5 184q0 15 -2 31q14 8 32 8q46 0 46 -47z" />
<glyph unicode="&#x176;" horiz-adv-x="634" d="M615 782l-17 -10q-68 57 -113 87q-89 -53 -153 -87l-10 13q94 75 140 125l9 5h50q50 -62 94 -133zM347 43l79 -23l-4 -20h-238l-2 20l59 15q31 8 37 36l10 44l17 79q12 81 2.5 180.5t-39 183t-60.5 83.5t-86 -90l-14 7q59 138 132 138q41 0 74 -55.5t51 -143t20 -186.5 q82 169 158 277t128 108q32 0 50 -39.5t22 -94.5l-16 -5q-25 84 -58 84q-32 0 -96 -83t-122 -193.5t-74 -184.5l-14 -65z" />
<glyph unicode="&#x177;" horiz-adv-x="429" d="M438 592l-16 -11q-56 68 -103 111q-85 -71 -141 -111l-10 13q92 102 128 154l8 5h54q47 -83 80 -161zM166 506q82 0 82 -164q0 -153 -55 -324q93 88 142.5 198t49.5 221q0 35 -5 60q11 9 30 9q50 0 50 -71q0 -108 -75.5 -238t-208.5 -228q-39 -101 -93 -163t-118 -62 q-37 0 -59.5 16t-22.5 40t22 35q28 -40 67 -40q92 0 152 209q24 82 37 174t13 151q0 122 -42 122q-26 0 -83 -88l-9 6q21 55 55.5 96t70.5 41z" />
<glyph unicode="&#x178;" horiz-adv-x="634" d="M624 852q0 -26 -17 -44.5t-40 -18.5q-20 0 -32 10.5t-12 29.5q0 24 17 43.5t42 19.5q19 0 30.5 -11t11.5 -29zM420 852q0 -26 -17 -44.5t-40 -18.5q-20 0 -32 10.5t-12 29.5q0 24 17 43.5t42 19.5q19 0 30.5 -11t11.5 -29zM347 43l79 -23l-4 -20h-238l-2 20l59 15 q31 8 37 36l10 44l17 79q12 81 2.5 180.5t-39 183t-60.5 83.5t-86 -90l-14 7q59 138 132 138q41 0 74 -55.5t51 -143t20 -186.5q82 169 158 277t128 108q32 0 50 -39.5t22 -94.5l-16 -5q-25 84 -58 84q-32 0 -96 -83t-122 -193.5t-74 -184.5l-14 -65z" />
<glyph unicode="&#x179;" horiz-adv-x="588" d="M544 908l9 1q36 -14 36 -37q0 -29 -79 -56t-175 -38l-5 16q157 69 214 114zM508 0h-451l1 35l499 615h-186q-67 0 -103 -4l-79 -142h-18q3 95 37 182h443l-1 -34l-499 -616h195q59 0 102 5l81 141h18q-4 -82 -39 -182z" />
<glyph unicode="&#x17a;" horiz-adv-x="405" d="M388 756l8 3q7 0 11 -1q40 -3 40 -28q0 -30 -69.5 -76t-150.5 -77l-9 15q119 95 170 164zM127 19q-45 0 -79 -29l-21 24q27 33 79.5 95.5t81.5 98t70 87.5t75 99q-95 40 -145 40q-27 0 -45.5 -19.5t-44.5 -68.5l-11 5q23 86 41.5 120.5t55.5 34.5q68 0 171 -81 q14 20 56 81q33 -8 33 -35q0 -21 -28 -50q-45 -56 -93 -112t-111 -127.5t-100 -114.5q24 9 64 9q17 0 70 -8.5t66 -8.5t22.5 8.5t24.5 29.5q13 17 35 52l10 -5q-23 -67 -31 -84q-31 -70 -65 -70q-20 0 -88 14.5t-93 14.5z" />
<glyph unicode="&#x17b;" horiz-adv-x="588" d="M515 851q0 -26 -19 -45.5t-45 -19.5q-21 0 -33 11t-12 31q0 25 19 44t45 19q21 0 33 -10.5t12 -29.5zM508 0h-451l1 35l499 615h-186q-67 0 -103 -4l-79 -142h-18q3 95 37 182h443l-1 -34l-499 -616h195q59 0 102 5l81 141h18q-4 -82 -39 -182z" />
<glyph unicode="&#x17c;" horiz-adv-x="405" d="M314 607q-18 0 -29.5 11.5t-11.5 30.5q0 29 18 50t44 21q18 0 29.5 -11t11.5 -30q0 -30 -18 -51t-44 -21zM127 19q-45 0 -79 -29l-21 24q27 33 79.5 95.5t81.5 98t70 87.5t75 99q-95 40 -145 40q-27 0 -45.5 -19.5t-44.5 -68.5l-11 5q23 86 41.5 120.5t55.5 34.5 q68 0 171 -81q14 20 56 81q33 -8 33 -35q0 -21 -28 -50q-45 -56 -93 -112t-111 -127.5t-100 -114.5q24 9 64 9q17 0 70 -8.5t66 -8.5t22.5 8.5t24.5 29.5q13 17 35 52l10 -5q-23 -67 -31 -84q-31 -70 -65 -70q-20 0 -88 14.5t-93 14.5z" />
<glyph unicode="&#x17d;" horiz-adv-x="588" d="M475 776l-7 -5h-54q-30 43 -83 134l17 10q56 -52 102 -87q95 54 161 87l11 -12q-95 -75 -147 -127zM508 0h-451l1 35l499 615h-186q-67 0 -103 -4l-79 -142h-18q3 95 37 182h443l-1 -34l-499 -616h195q59 0 102 5l81 141h18q-4 -82 -39 -182z" />
<glyph unicode="&#x17e;" horiz-adv-x="405" d="M347 586l-8 -5h-53q-31 58 -74 162l17 10q62 -78 94 -111q89 69 152 111l10 -12q-89 -90 -138 -155zM127 19q-45 0 -79 -29l-21 24q27 33 79.5 95.5t81.5 98t70 87.5t75 99q-95 40 -145 40q-27 0 -45.5 -19.5t-44.5 -68.5l-11 5q23 86 41.5 120.5t55.5 34.5q68 0 171 -81 q14 20 56 81q33 -8 33 -35q0 -21 -28 -50q-45 -56 -93 -112t-111 -127.5t-100 -114.5q24 9 64 9q17 0 70 -8.5t66 -8.5t22.5 8.5t24.5 29.5q13 17 35 52l10 -5q-23 -67 -31 -84q-31 -70 -65 -70q-20 0 -88 14.5t-93 14.5z" />
<glyph unicode="&#x18f;" horiz-adv-x="585" d="M603 456q0 -128 -44.5 -235t-122.5 -169t-171 -62q-85 0 -133 57.5t-48 160.5q0 53 16 116l15 13h394q15 69 15 141q0 178 -132 178q-71 0 -121.5 -51.5t-50.5 -120.5q0 -7 2 -15q-20 -10 -39 -10q-39 0 -39 34q0 80 77.5 141.5t178.5 61.5q94 0 148.5 -65.5t54.5 -174.5 zM160 200q0 -83 30.5 -126.5t89.5 -43.5q73 0 132.5 77.5t89.5 195.5l-331 -7q-11 -46 -11 -96z" />
<glyph unicode="&#x192;" horiz-adv-x="468" d="M203 -8q-25 -115 -81 -181.5t-133 -66.5q-38 0 -62 18t-24 45q0 31 30 44q37 -66 87 -66q46 0 70.5 47t45.5 150l64 315h-117l10 43h116l22 108q22 118 78.5 183t135.5 65q52 0 86 -29.5t34 -66.5q0 -40 -43 -50q-24 108 -90 108q-46 0 -73.5 -48.5t-51.5 -151.5 l-27 -118h184l-10 -43h-183z" />
<glyph unicode="&#x19d;" horiz-adv-x="721" d="M22 -170l-12 14q46 50 64.5 73t42 72t37.5 115l110 519q0 22 -23 28l-53 14l5 21h141l236 -575l97 461l16 70l-85 23l4 21h213l2 -21l-61 -15q-19 -5 -27 -12t-11 -23l-10 -43l-122 -572h-49l-241 583l-107 -508q-13 -62 -36 -105.5t-50.5 -71t-80.5 -68.5z" />
<glyph unicode="&#x1cd;" horiz-adv-x="666" d="M515 776l-8 -5h-53q-34 48 -83 134l16 10q63 -56 102 -87q88 50 162 87l10 -12q-90 -71 -146 -127zM445 688h45l75 -613q2 -19 9 -27.5t22 -13.5l51 -14l-2 -20h-232l-4 20l86 22l-25 200l-232 -4l-107 -195l81 -23l-4 -20h-203l-2 20l56 16q29 8 47 39zM259 276l207 -1 l-37 311z" />
<glyph unicode="&#x1ce;" horiz-adv-x="501" d="M405 586l-8 -5h-54q-31 61 -73 162l16 10q71 -87 95 -111q89 69 152 111l10 -12q-96 -98 -138 -155zM405 134q-11 -53 -11 -63q0 -26 18 -26q29 0 92 88l9 -6q-26 -54 -62 -95.5t-74 -41.5q-57 0 -57 66q0 20 12 78l25 113q-29 -62 -59.5 -114.5t-74 -97.5t-80.5 -45 q-35 0 -57 32.5t-22 89.5q0 101 40.5 192.5t109.5 146.5t148 55q69 0 121 -26l-6 -19zM139 120q0 -31 9 -50t25 -19q42 0 111 113.5t97 199.5l20 89q-28 19 -66 19q-72 0 -134 -110t-62 -242z" />
<glyph unicode="&#x1cf;" horiz-adv-x="365" d="M363 776l-8 -5h-53q-25 35 -83 134l16 10q63 -57 103 -87q80 46 161 87l10 -12q-97 -78 -146 -127zM216 43l79 -23l-4 -20h-238l-2 20l59 15q31 8 37 36l10 44l96 457l16 71l-78 23l4 20h237l2 -20l-59 -15q-31 -8 -36 -36l-11 -43h1l-97 -457z" />
<glyph unicode="&#x1d0;" horiz-adv-x="298" d="M278 586l-8 -5h-54q-1 5 -42 162l17 10q32 -59 64 -106q71 67 118 106l11 -12q-73 -96 -106 -155zM199 134q-10 -48 -10 -63q0 -26 17 -26q29 0 92 88l9 -6q-26 -54 -62 -95.5t-74 -41.5q-56 0 -56 66q0 25 11 78q9 41 30.5 130.5t23.5 97.5q10 48 10 64q0 25 -18 25 q-28 0 -91 -88l-9 6q26 55 61.5 96t74.5 41q56 0 56 -66q0 -25 -11 -78q-7 -29 -26.5 -110t-27.5 -118z" />
<glyph unicode="&#x1d1;" horiz-adv-x="605" d="M481 776l-7 -5h-54q-25 35 -83 134l17 10q56 -52 102 -87q95 54 161 87l10 -12q-97 -78 -146 -127zM626 451q0 -105 -39.5 -209.5t-116 -178t-169.5 -73.5q-90 0 -144.5 66.5t-54.5 177.5q0 108 40.5 213t118 177t170.5 72q91 0 143 -66t52 -179zM181 214q0 -84 33 -134 t94 -50q52 0 98.5 44.5t76 112.5t47 145t17.5 145q0 180 -122 180q-69 0 -127 -73t-87.5 -173.5t-29.5 -196.5z" />
<glyph unicode="&#x1d2;" horiz-adv-x="433" d="M352 586l-8 -5h-54q-31 61 -73 162l16 10q71 -87 95 -111q89 69 152 111l10 -12q-96 -98 -138 -155zM439 329q0 -141 -69 -240t-159 -99q-61 0 -98 49.5t-37 130.5q0 133 70 234.5t159 101.5q65 0 99.5 -47t34.5 -130zM151 155q0 -60 18 -95t49 -35q58 0 102 104.5 t44 220.5q0 121 -64 121q-39 0 -74.5 -50.5t-55 -123.5t-19.5 -142z" />
<glyph unicode="&#x1d3;" horiz-adv-x="668" d="M536 776l-8 -5h-53q-34 48 -83 134l16 10q63 -56 102 -87q88 50 162 87l10 -12q-97 -78 -146 -127zM601 240q-53 -250 -259 -250q-88 0 -142 48.5t-54 134.5q0 43 7 76l69 323l16 71l-79 23l4 20h238l2 -20l-59 -15q-31 -8 -37 -36l-10 -43l-69 -327q-7 -34 -7 -68 q0 -69 38.5 -107.5t102.5 -38.5q71 0 122.5 52t74.5 157l72 334l15 68l-85 23l4 21h213l2 -21l-94 -23l-15 -68z" />
<glyph unicode="&#x1d4;" horiz-adv-x="547" d="M407 586l-7 -5h-54q-31 61 -73 162l16 10q57 -72 95 -111q89 69 152 111l10 -12q-93 -95 -139 -155zM187 362q10 48 10 64q0 25 -18 25q-27 0 -92 -88l-8 6q26 55 61.5 96t74.5 41q56 0 56 -66q0 -25 -11 -78q-7 -31 -25.5 -97.5t-28.5 -110.5t-10 -65q0 -38 26 -38 q40 0 102 96t97 189l6 27h1l29 136l31 4q27 3 32 3q11 0 7 -22l-27 -121l-50 -229q-10 -48 -10 -63q0 -26 18 -26q27 0 92 88l8 -6q-26 -55 -61.5 -96t-74.5 -41q-56 0 -56 66q0 27 12 78l22 100q-16 -35 -36.5 -72t-49 -78.5t-62 -67.5t-63.5 -26q-32 0 -49.5 22.5 t-17.5 58.5q0 27 10.5 75t29 117.5t25.5 98.5z" />
<glyph unicode="&#x1d5;" horiz-adv-x="668" d="M419 1011l10 46h273l-10 -46h-273zM670 852q0 -26 -17 -44.5t-40 -18.5q-20 0 -31.5 10.5t-11.5 29.5q0 24 16.5 43.5t41.5 19.5q19 0 30.5 -11t11.5 -29zM466 852q0 -26 -16.5 -44.5t-40.5 -18.5q-20 0 -31.5 10.5t-11.5 29.5q0 24 17 43.5t42 19.5q19 0 30 -11t11 -29z M601 240q-53 -250 -259 -250q-88 0 -142 48.5t-54 134.5q0 43 7 76l69 323l16 71l-79 23l4 20h238l2 -20l-59 -15q-31 -8 -37 -36l-10 -43l-69 -327q-7 -34 -7 -68q0 -69 38.5 -107.5t102.5 -38.5q71 0 122.5 52t74.5 157l72 334l15 68l-85 23l4 21h213l2 -21l-94 -23 l-15 -68z" />
<glyph unicode="&#x1d6;" horiz-adv-x="547" d="M299 876l10 45h257l-10 -45h-257zM538 678q0 -27 -16 -47t-38 -20q-19 0 -30 12t-11 32q0 25 16.5 45t39.5 20q17 0 28 -11.5t11 -30.5zM336 678q0 -27 -16 -47t-38 -20q-18 0 -29.5 12.5t-11.5 31.5q0 25 16.5 45t39.5 20q18 0 28.5 -11.5t10.5 -30.5zM187 362 q10 48 10 64q0 25 -18 25q-27 0 -92 -88l-8 6q26 55 61.5 96t74.5 41q56 0 56 -66q0 -25 -11 -78q-7 -31 -25.5 -97.5t-28.5 -110.5t-10 -65q0 -38 26 -38q40 0 102 96t97 189l6 27h1l29 136l31 4q27 3 32 3q11 0 7 -22l-27 -121l-50 -229q-10 -48 -10 -63q0 -26 18 -26 q27 0 92 88l8 -6q-26 -55 -61.5 -96t-74.5 -41q-56 0 -56 66q0 27 12 78l22 100q-16 -35 -36.5 -72t-49 -78.5t-62 -67.5t-63.5 -26q-32 0 -49.5 22.5t-17.5 58.5q0 27 10.5 75t29 117.5t25.5 98.5z" />
<glyph unicode="&#x1d7;" horiz-adv-x="668" d="M650 1100l9 2q36 -16 36 -37q0 -30 -79 -57t-175 -38l-5 17q155 66 214 113zM466 852q0 -26 -16.5 -44.5t-40.5 -18.5q-20 0 -31.5 10.5t-11.5 29.5q0 24 17 43.5t42 19.5q19 0 30 -11t11 -29zM670 852q0 -26 -17 -44.5t-40 -18.5q-20 0 -31.5 10.5t-11.5 29.5 q0 24 16.5 43.5t41.5 19.5q19 0 30.5 -11t11.5 -29zM601 240q-53 -250 -259 -250q-88 0 -142 48.5t-54 134.5q0 43 7 76l69 323l16 71l-79 23l4 20h238l2 -20l-59 -15q-31 -8 -37 -36l-10 -43l-69 -327q-7 -34 -7 -68q0 -69 38.5 -107.5t102.5 -38.5q71 0 122.5 52t74.5 157 l72 334l15 68l-85 23l4 21h213l2 -21l-94 -23l-15 -68z" />
<glyph unicode="&#x1d8;" horiz-adv-x="547" d="M501 988l7 3q4 -1 11 -1q41 -5 41 -28q0 -31 -69.5 -76.5t-151.5 -77.5l-9 15q123 100 171 165zM538 678q0 -27 -16 -47t-38 -20q-19 0 -30 12t-11 32q0 25 16.5 45t39.5 20q17 0 28 -11.5t11 -30.5zM336 678q0 -27 -16 -47t-38 -20q-18 0 -29.5 12.5t-11.5 31.5 q0 25 16.5 45t39.5 20q18 0 28.5 -11.5t10.5 -30.5zM187 362q10 48 10 64q0 25 -18 25q-27 0 -92 -88l-8 6q26 55 61.5 96t74.5 41q56 0 56 -66q0 -25 -11 -78q-7 -31 -25.5 -97.5t-28.5 -110.5t-10 -65q0 -38 26 -38q40 0 102 96t97 189l6 27h1l29 136l31 4q27 3 32 3 q11 0 7 -22l-27 -121l-50 -229q-10 -48 -10 -63q0 -26 18 -26q27 0 92 88l8 -6q-26 -55 -61.5 -96t-74.5 -41q-56 0 -56 66q0 27 12 78l22 100q-16 -35 -36.5 -72t-49 -78.5t-62 -67.5t-63.5 -26q-32 0 -49.5 22.5t-17.5 58.5q0 27 10.5 75t29 117.5t25.5 98.5z" />
<glyph unicode="&#x1d9;" horiz-adv-x="668" d="M572 969l-8 -5h-54q-35 50 -82 134l16 10q62 -58 102 -88q77 45 162 88l10 -13q-84 -66 -146 -126zM670 852q0 -26 -17 -44.5t-40 -18.5q-20 0 -31.5 10.5t-11.5 29.5q0 24 16.5 43.5t41.5 19.5q19 0 30.5 -11t11.5 -29zM466 852q0 -26 -16.5 -44.5t-40.5 -18.5 q-20 0 -31.5 10.5t-11.5 29.5q0 24 17 43.5t42 19.5q19 0 30 -11t11 -29zM601 240q-53 -250 -259 -250q-88 0 -142 48.5t-54 134.5q0 43 7 76l69 323l16 71l-79 23l4 20h238l2 -20l-59 -15q-31 -8 -37 -36l-10 -43l-69 -327q-7 -34 -7 -68q0 -69 38.5 -107.5t102.5 -38.5 q71 0 122.5 52t74.5 157l72 334l15 68l-85 23l4 21h213l2 -21l-94 -23l-15 -68z" />
<glyph unicode="&#x1da;" horiz-adv-x="547" d="M449 819l-8 -5h-54q-30 58 -73 161l16 10q66 -80 95 -110q81 63 152 110l10 -12q-94 -96 -138 -154zM538 678q0 -27 -16 -47t-38 -20q-19 0 -30 12t-11 32q0 25 16.5 45t39.5 20q17 0 28 -11.5t11 -30.5zM336 678q0 -27 -16 -47t-38 -20q-18 0 -29.5 12.5t-11.5 31.5 q0 25 16.5 45t39.5 20q18 0 28.5 -11.5t10.5 -30.5zM187 362q10 48 10 64q0 25 -18 25q-27 0 -92 -88l-8 6q26 55 61.5 96t74.5 41q56 0 56 -66q0 -25 -11 -78q-7 -31 -25.5 -97.5t-28.5 -110.5t-10 -65q0 -38 26 -38q40 0 102 96t97 189l6 27h1l29 136l31 4q27 3 32 3 q11 0 7 -22l-27 -121l-50 -229q-10 -48 -10 -63q0 -26 18 -26q27 0 92 88l8 -6q-26 -55 -61.5 -96t-74.5 -41q-56 0 -56 66q0 27 12 78l22 100q-16 -35 -36.5 -72t-49 -78.5t-62 -67.5t-63.5 -26q-32 0 -49.5 22.5t-17.5 58.5q0 27 10.5 75t29 117.5t25.5 98.5z" />
<glyph unicode="&#x1db;" horiz-adv-x="668" d="M671 988l-10 -17q-40 3 -88 14.5t-88 32t-39 42.5q0 15 13 26t30 17l7 -2q23 -25 72.5 -57t102.5 -56zM670 852q0 -26 -17 -44.5t-40 -18.5q-20 0 -31.5 10.5t-11.5 29.5q0 24 16.5 43.5t41.5 19.5q19 0 30.5 -11t11.5 -29zM466 852q0 -26 -16.5 -44.5t-40.5 -18.5 q-20 0 -31.5 10.5t-11.5 29.5q0 24 17 43.5t42 19.5q19 0 30 -11t11 -29zM601 240q-53 -250 -259 -250q-88 0 -142 48.5t-54 134.5q0 43 7 76l69 323l16 71l-79 23l4 20h238l2 -20l-59 -15q-31 -8 -37 -36l-10 -43l-69 -327q-7 -34 -7 -68q0 -69 38.5 -107.5t102.5 -38.5 q71 0 122.5 52t74.5 157l72 334l15 68l-85 23l4 21h213l2 -21l-94 -23l-15 -68z" />
<glyph unicode="&#x1dc;" horiz-adv-x="547" d="M504 821l-13 -12q-66 40 -112.5 82t-43.5 68q5 31 51 31h11l6 -3q23 -61 101 -166zM538 678q0 -27 -16 -47t-38 -20q-19 0 -30 12t-11 32q0 25 16.5 45t39.5 20q17 0 28 -11.5t11 -30.5zM336 678q0 -27 -16 -47t-38 -20q-18 0 -29.5 12.5t-11.5 31.5q0 25 16.5 45 t39.5 20q18 0 28.5 -11.5t10.5 -30.5zM187 362q10 48 10 64q0 25 -18 25q-27 0 -92 -88l-8 6q26 55 61.5 96t74.5 41q56 0 56 -66q0 -25 -11 -78q-7 -31 -25.5 -97.5t-28.5 -110.5t-10 -65q0 -38 26 -38q40 0 102 96t97 189l6 27h1l29 136l31 4q27 3 32 3q11 0 7 -22 l-27 -121l-50 -229q-10 -48 -10 -63q0 -26 18 -26q27 0 92 88l8 -6q-26 -55 -61.5 -96t-74.5 -41q-56 0 -56 66q0 27 12 78l22 100q-16 -35 -36.5 -72t-49 -78.5t-62 -67.5t-63.5 -26q-32 0 -49.5 22.5t-17.5 58.5q0 27 10.5 75t29 117.5t25.5 98.5z" />
<glyph unicode="&#x1e6;" horiz-adv-x="641" d="M555 776l-7 -5h-54q-25 35 -83 134l17 10q56 -52 102 -87q95 54 161 87l10 -12q-97 -78 -146 -127zM385 31q51 0 89 13l35 161l15 72l-78 23l4 20h235l2 -20l-59 -14q-31 -8 -36 -37l-11 -44h1l-40 -185q-73 -30 -165 -30q-124 0 -197 72.5t-73 200.5q0 120 56.5 220.5 t148.5 156.5t196 56q94 0 159 -26q-6 -73 -41 -169h-18q-6 37 -22 143q-32 11 -84 11q-123 0 -220 -115t-97 -277q0 -102 54.5 -167t145.5 -65z" />
<glyph unicode="&#x1e7;" horiz-adv-x="401" d="M336 584l-8 -5h-53q-39 75 -74 161l17 11q53 -69 94 -111q105 80 152 111l11 -13q-83 -83 -139 -154zM281 506q148 0 200 13q6 -9 6 -23q0 -16 -10 -27t-30 -11q-22 0 -100 19q49 -36 49 -105q0 -53 -21 -99t-51 -76.5t-60.5 -54t-51.5 -42.5t-21 -32q0 -11 11 -20 t35 -23l6 -3q35 -20 50.5 -30t35 -26.5t26.5 -32.5t7 -37q0 -59 -61 -105.5t-162 -46.5q-79 0 -126 31.5t-47 77.5q0 61 93 118l9 -9q-38 -45 -38 -82q0 -45 37 -73.5t92 -28.5q59 0 97 27.5t38 68.5q0 24 -20.5 43.5t-68.5 47.5q-60 34 -73 50q-12 15 -12 32 q0 21 21.5 41.5t76.5 59.5h-5q-58 0 -93.5 37t-35.5 98q0 91 58 157t139 66zM155 288q0 -48 18 -77t47 -29q42 0 73.5 62.5t31.5 141.5q0 41 -15 64t-43 23q-46 0 -79 -58t-33 -127z" />
<glyph unicode="&#x1ea;" horiz-adv-x="605" d="M423 25q-87 -51 -125 -86t-38 -73q0 -34 29 -34q32 0 82 62l9 -6q-20 -47 -50.5 -79t-69.5 -32q-33 0 -50 18.5t-17 50.5q0 82 127 145q-6 -1 -19 -1q-90 0 -144.5 66.5t-54.5 177.5q0 108 40.5 213t118 177t170.5 72q91 0 143 -66t52 -179q0 -125 -58 -249.5 t-151 -178.5zM181 214q0 -84 33 -134t94 -50q52 0 98.5 44.5t76 112.5t47 145t17.5 145q0 180 -122 180q-69 0 -127 -73t-87.5 -173.5t-29.5 -196.5z" />
<glyph unicode="&#x1eb;" horiz-adv-x="433" d="M339 49q-24 -27 -57.5 -61t-50 -51t-29 -38t-12.5 -38q0 -29 26 -29q12 0 27 11t23.5 20.5t26.5 30.5l8 -6q-19 -47 -49 -79t-69 -32q-28 0 -44.5 17.5t-16.5 46.5q0 19 7 35.5t24.5 34t30 28t40 31t38.5 29.5q-26 -9 -51 -9q-61 0 -98 49.5t-37 130.5q0 133 70 234.5 t159 101.5q65 0 99.5 -47t34.5 -130q0 -88 -28.5 -162.5t-76.5 -120.5zM151 155q0 -60 18 -95t49 -35q58 0 102 104.5t44 220.5q0 121 -64 121q-39 0 -74.5 -50.5t-55 -123.5t-19.5 -142z" />
<glyph unicode="&#x1f4;" horiz-adv-x="641" d="M612 908l9 1q36 -14 36 -37q0 -29 -79 -56t-175 -38l-5 16q157 69 214 114zM385 31q51 0 89 13l35 161l15 72l-78 23l4 20h235l2 -20l-59 -14q-31 -8 -36 -37l-11 -44h1l-40 -185q-73 -30 -165 -30q-124 0 -197 72.5t-73 200.5q0 120 56.5 220.5t148.5 156.5t196 56 q94 0 159 -26q-6 -73 -41 -169h-18q-6 37 -22 143q-32 11 -84 11q-123 0 -220 -115t-97 -277q0 -102 54.5 -167t145.5 -65z" />
<glyph unicode="&#x1f5;" horiz-adv-x="401" d="M395 754l8 3q3 -1 11 -1q40 -5 40 -28q0 -31 -69 -76t-151 -78l-9 16q119 95 170 164zM281 506q148 0 200 13q6 -9 6 -23q0 -16 -10 -27t-30 -11q-22 0 -100 19q49 -36 49 -105q0 -53 -21 -99t-51 -76.5t-60.5 -54t-51.5 -42.5t-21 -32q0 -11 11 -20t35 -23l6 -3 q35 -20 50.5 -30t35 -26.5t26.5 -32.5t7 -37q0 -59 -61 -105.5t-162 -46.5q-79 0 -126 31.5t-47 77.5q0 61 93 118l9 -9q-38 -45 -38 -82q0 -45 37 -73.5t92 -28.5q59 0 97 27.5t38 68.5q0 24 -20.5 43.5t-68.5 47.5q-60 34 -73 50q-12 15 -12 32q0 21 21.5 41.5t76.5 59.5 h-5q-58 0 -93.5 37t-35.5 98q0 91 58 157t139 66zM155 288q0 -48 18 -77t47 -29q42 0 73.5 62.5t31.5 141.5q0 41 -15 64t-43 23q-46 0 -79 -58t-33 -127z" />
<glyph unicode="&#x1fa;" horiz-adv-x="666" d="M635 1126l8 1q37 -14 37 -37q0 -29 -79 -56t-175 -38l-5 16q157 69 214 114zM589 859q0 -39 -31.5 -66t-77.5 -27q-32 0 -51 17t-19 46q0 38 31.5 65t76.5 27q33 0 52 -16.5t19 -45.5zM452 829q0 -17 10 -27t26 -10q24 0 41 19t17 46q0 17 -10 27t-26 10q-24 0 -41 -18.5 t-17 -46.5zM445 688h45l75 -613q2 -19 9 -27.5t22 -13.5l51 -14l-2 -20h-232l-4 20l86 22l-25 200l-232 -4l-107 -195l81 -23l-4 -20h-203l-2 20l56 16q29 8 47 39zM259 276l207 -1l-37 311z" />
<glyph unicode="&#x1fb;" horiz-adv-x="501" d="M508 991l7 3q4 -1 11 -1q41 -5 41 -28q0 -31 -69.5 -76.5t-151.5 -77.5l-9 15q123 100 171 165zM479 683q0 -39 -31.5 -66.5t-77.5 -27.5q-32 0 -51 17.5t-19 46.5q0 38 31 65t76 27q33 0 52.5 -17t19.5 -45zM341 653q0 -17 10.5 -27t26.5 -10q24 0 41 19t17 46 q0 17 -10 27t-26 10q-25 0 -42 -19t-17 -46zM405 134q-11 -53 -11 -63q0 -26 18 -26q29 0 92 88l9 -6q-26 -54 -62 -95.5t-74 -41.5q-57 0 -57 66q0 20 12 78l25 113q-29 -62 -59.5 -114.5t-74 -97.5t-80.5 -45q-35 0 -57 32.5t-22 89.5q0 101 40.5 192.5t109.5 146.5 t148 55q69 0 121 -26l-6 -19zM139 120q0 -31 9 -50t25 -19q42 0 111 113.5t97 199.5l20 89q-28 19 -66 19q-72 0 -134 -110t-62 -242z" />
<glyph unicode="&#x1fc;" horiz-adv-x="886" d="M772 908l9 1q36 -14 36 -37q0 -29 -79 -56t-175 -38l-5 16q157 69 214 114zM430 642l-78 23l7 21h574q-3 -75 -38 -182h-19q-4 35 -10 81.5t-8 61.5q-48 4 -100 4h-115l-62 -289l214 5l-11 -46l-210 7l-45 -213l-17 -80l145 -1q59 0 102 5q61 113 78 143h19 q-7 -99 -40 -182h-466l-2 20l59 15q32 8 37 36l10 44l44 211l-209 -3l-155 -280l77 -22l-6 -21h-201l2 21q12 3 31.5 8.5t26.5 7.5q28 8 45 38zM567 650h-96l-161 -290h195z" />
<glyph unicode="&#x1fd;" horiz-adv-x="638" d="M565 756l7 3q8 0 11 -1q41 -3 41 -28q0 -30 -69.5 -75.5t-150.5 -77.5l-10 15q119 93 171 164zM635 133q-36 -65 -83.5 -104t-101.5 -39q-59 0 -90.5 45t-31.5 125q0 20 1 31q-104 -201 -186 -201q-35 0 -57 32.5t-22 89.5q0 101 40.5 192.5t109.5 146.5t148 55 q69 0 121 -26l-1 -5l-1 -2q49 33 97 33q44 0 68.5 -24t24.5 -65q0 -78 -79 -130.5t-183 -55.5l2 14q-8 -42 -8 -80q0 -57 21 -89t59 -32q61 0 143 95zM139 120q0 -31 9 -50t25 -19q33 0 82 70t92 160l53 173q-28 18 -65 18q-72 0 -134 -110t-62 -242zM566 470 q-48 0 -90.5 -61.5t-61.5 -149.5q81 7 135.5 54.5t54.5 109.5q0 47 -38 47z" />
<glyph unicode="&#x1fe;" horiz-adv-x="605" d="M517 946l8 3q7 0 11 -1q40 -3 40 -28q0 -30 -69.5 -76t-150.5 -77l-9 15q119 95 170 164zM626 451q0 -105 -39.5 -209.5t-116 -178t-169.5 -73.5q-115 0 -168 102l-78 -79l-24 25l87 89q-16 50 -16 107q0 108 40.5 213t118 177t170.5 72q107 0 159 -89l66 67l25 -25 l-75 -76q20 -54 20 -122zM181 214v-23l358 365q-24 101 -114 101q-69 0 -127 -73t-87.5 -173.5t-29.5 -196.5zM547 477q0 24 -1 35l-359 -365q12 -55 42.5 -86t78.5 -31q52 0 98.5 44.5t76 112.5t47 145t17.5 145z" />
<glyph unicode="&#x1ff;" horiz-adv-x="433" d="M382 756l8 3q7 0 11 -1q40 -3 40 -28q0 -30 -69.5 -76t-150.5 -77l-9 15q119 95 170 164zM439 329q0 -141 -69 -240t-159 -99q-81 0 -116 81l-63 -62l-23 27l73 72q-6 28 -6 62q0 133 70 234.5t159 101.5q77 0 112 -67l50 49l24 -27l-60 -59q8 -35 8 -73zM300 471 q-55 0 -99 -94t-50 -200l211 208q-8 86 -62 86zM218 25q38 0 71.5 47.5t53 119t21.5 144.5l-212 -209q4 -48 21 -75t45 -27z" />
<glyph unicode="&#x218;" horiz-adv-x="465" d="M215 -10q-58 0 -106 12t-56 27q-4 10 -4 21q0 60 39 131l19 -1q-1 -13 -1 -34q0 -60 18 -84q26 -35 97 -35q67 0 109.5 43t42.5 102q0 34 -17 64.5t-42.5 52t-55.5 47t-55.5 49t-42.5 57t-17 71.5q0 79 67 131t158 52q55 0 94 -11.5t51 -24.5q5 -5 5 -14q0 -23 -13 -65.5 t-29 -72.5h-19q2 32 2 41q0 54 -13 74q-25 35 -88 35q-60 0 -100 -38t-40 -93q0 -32 17 -61.5t42.5 -51t55.5 -47.5t55.5 -49.5t42.5 -57.5t17 -72q0 -83 -63.5 -140.5t-169.5 -57.5zM250 -158q0 -42 -36 -92t-88 -79l-8 8q48 54 65 108q-16 2 -26 13t-10 29q0 25 17.5 43 t43.5 18q19 0 30.5 -13t11.5 -35z" />
<glyph unicode="&#x219;" horiz-adv-x="381" d="M353 132q0 -63 -45 -102.5t-121 -39.5q-59 0 -98 27t-39 70q0 58 61 91l8 -7q-12 -37 -11 -67q3 -37 27.5 -59t61.5 -22t61 22.5t24 62.5q0 28 -16.5 54.5t-40 49t-47 46t-40 54t-16.5 64.5q0 55 44 92.5t109 37.5q58 0 91.5 -25t33.5 -62q0 -58 -53 -93l-9 6q7 37 6 63 q-5 80 -72 80q-34 0 -56.5 -22.5t-22.5 -58.5q0 -34 25 -68.5t55 -60t55 -61.5t25 -72zM201 -158q0 -42 -36 -92t-88 -79l-8 8q48 54 65 108q-17 2 -26.5 13t-9.5 29q0 25 18 43t43 18q19 0 30.5 -13t11.5 -35z" />
<glyph unicode="&#x21a;" horiz-adv-x="572" d="M320 43l79 -23l-4 -20h-238l-2 20l59 15q31 8 37 36l10 44l113 534h-61q-66 0 -108 -9q-26 -45 -45 -85l-26 -51h-19q9 104 40 182h530q-5 -87 -38 -182h-19l-5 51q-2 44 -8 85q-39 9 -105 9h-61l-113 -534zM295 -158q0 -42 -36 -92t-88 -79l-8 8q49 56 65 108 q-17 2 -27 13t-10 29q0 25 18 43t43 18q19 0 31 -13t12 -35z" />
<glyph unicode="&#x21b;" horiz-adv-x="344" d="M186 -10q-38 0 -58.5 26t-20.5 72q0 37 6 63l65 302h-82l2 14l88 26l89 146l15 -1l-32 -150h148l-8 -35h-148l-63 -296q-6 -32 -6 -55q0 -58 43 -58q57 0 139 95l8 -6q-79 -143 -185 -143zM222 -158q0 -42 -36 -92t-88 -79l-8 8q48 54 65 108q-17 2 -26.5 13t-9.5 29 q0 25 17.5 43t43.5 18q19 0 30.5 -13t11.5 -35z" />
<glyph unicode="&#x232;" horiz-adv-x="634" d="M333 819l11 45h273l-11 -45h-273zM347 43l79 -23l-4 -20h-238l-2 20l59 15q31 8 37 36l10 44l17 79q12 81 2.5 180.5t-39 183t-60.5 83.5t-86 -90l-14 7q59 138 132 138q41 0 74 -55.5t51 -143t20 -186.5q82 169 158 277t128 108q32 0 50 -39.5t22 -94.5l-16 -5 q-25 84 -58 84q-32 0 -96 -83t-122 -193.5t-74 -184.5l-14 -65z" />
<glyph unicode="&#x233;" horiz-adv-x="429" d="M189 643l10 46h257l-10 -46h-257zM166 506q82 0 82 -164q0 -153 -55 -324q93 88 142.5 198t49.5 221q0 35 -5 60q11 9 30 9q50 0 50 -71q0 -108 -75.5 -238t-208.5 -228q-39 -101 -93 -163t-118 -62q-37 0 -59.5 16t-22.5 40t22 35q28 -40 67 -40q92 0 152 209 q24 82 37 174t13 151q0 122 -42 122q-26 0 -83 -88l-9 6q21 55 55.5 96t70.5 41z" />
<glyph unicode="&#x237;" horiz-adv-x="258" d="M168 362q10 48 10 64q0 25 -18 25q-27 0 -92 -88l-8 6q26 55 61.5 96t74.5 41q56 0 56 -66q0 -25 -11 -78l-76 -363q-25 -120 -81 -187.5t-133 -67.5q-41 0 -67.5 18.5t-26.5 45.5q0 24 22 35q39 -52 85 -52q47 0 75 47t49 144z" />
<glyph unicode="&#x259;" horiz-adv-x="398" d="M408 337q0 -84 -36 -165t-94.5 -131.5t-119.5 -50.5q-43 0 -68 23t-25 62q0 78 79 130.5t183 56.5q8 45 8 88q0 120 -65 120q-42 0 -69 -36.5t-35 -90.5q-16 -7 -31 -7q-26 0 -26 26q0 49 54.5 96.5t122.5 47.5q59 0 90.5 -44.5t31.5 -124.5zM132 71q0 -20 10.5 -32.5 t28.5 -12.5q47 0 89 60t62 148q-82 -9 -136 -56t-54 -107z" />
<glyph unicode="&#x272;" horiz-adv-x="540" d="M71 369q26 55 61.5 96t73.5 41q55 0 55 -63q0 -16 -36 -183q19 38 31.5 61t37.5 62.5t45.5 62.5t48.5 41.5t54 18.5q32 0 49 -21.5t17 -54.5q0 -22 -7.5 -62t-16 -73t-23 -87.5t-19.5 -73.5q-10 -58 -10 -63q0 -26 18 -26q27 0 92 88l8 -6q-26 -55 -61.5 -96t-74.5 -41 q-56 0 -56 66q0 20 12 78q7 32 25 96.5t29 111.5t11 69q0 36 -29 36t-70.5 -53t-73.5 -113.5t-50 -109.5l-36 -172q-25 -120 -81 -187.5t-133 -67.5q-41 0 -67.5 18.5t-26.5 45.5q0 24 22 35q39 -52 85 -52q47 0 75 47t49 144l80 380q10 48 10 63q0 26 -18 26q-28 0 -91 -88 z" />
<glyph unicode="&#x2c6;" horiz-adv-x="457" d="M438 592l-16 -11q-56 68 -103 111q-85 -71 -141 -111l-10 13q92 102 128 154l8 5h54q47 -83 80 -161z" />
<glyph unicode="&#x2c7;" horiz-adv-x="458" d="M332 586l-7 -5h-54q-31 61 -73 162l16 10q57 -72 94 -111q105 80 153 111l10 -12q-93 -95 -139 -155z" />
<glyph unicode="&#x2d8;" horiz-adv-x="428" d="M422 734l5 2l15 -3q-24 -64 -65 -99.5t-92 -35.5q-49 0 -73 37t-19 98l18 3q4 -37 27 -58t61 -21q79 0 123 77z" />
<glyph unicode="&#x2d9;" horiz-adv-x="284" d="M220 607q-18 0 -29.5 11.5t-11.5 30.5q0 29 18 50t44 21q18 0 29.5 -11t11.5 -30q0 -30 -18 -51t-44 -21z" />
<glyph unicode="&#x2da;" horiz-adv-x="414" d="M359 683q0 -39 -31.5 -66.5t-77.5 -27.5q-32 0 -51 17.5t-19 46.5q0 38 31.5 65t76.5 27q32 0 51.5 -17t19.5 -45zM222 653q0 -17 10 -27t26 -10q24 0 41 19t17 46q0 17 -10 27t-26 10q-25 0 -41.5 -19t-16.5 -46z" />
<glyph unicode="&#x2db;" horiz-adv-x="381" d="M219 0q-56 -23 -91 -60.5t-35 -72.5q0 -16 8 -25.5t20 -9.5q31 0 83 62l8 -6q-19 -46 -50.5 -78.5t-70.5 -32.5q-66 0 -66 70q0 49 50 97.5t128 71.5z" />
<glyph unicode="&#x2dc;" horiz-adv-x="524" d="M253 675q-17 -8 -69 -67l-10 5q45 117 119 117q31 0 85 -29.5t75 -30.5q16 8 70 67l9 -5q-45 -117 -119 -117q-31 0 -86.5 29.5t-73.5 30.5z" />
<glyph unicode="&#x2dd;" horiz-adv-x="547" d="M335 756l8 3q8 0 11 -1q36 -3 36 -28q0 -30 -68.5 -75.5t-147.5 -77.5l-9 15q123 98 170 164zM502 756l7 3q8 0 11 -1q36 -5 36 -28q0 -30 -68 -75.5t-147 -77.5l-10 15q119 93 171 164z" />
<glyph unicode="&#x326;" horiz-adv-x="288" d="M108 -158q0 -42 -35.5 -92t-87.5 -79l-8 8q46 54 65 108q-17 2 -27 13t-10 29q0 25 18 43t43 18q19 0 30.5 -13t11.5 -35z" />
<glyph unicode="&#x394;" horiz-adv-x="607" d="M568 0h-550l-1 10l398 676h45l110 -676zM76 38h409l-88 551z" />
<glyph unicode="&#x3bc;" horiz-adv-x="566" d="M113 -232q-1 -5 -3 -8.5t-6.5 -5.5t-8.5 -3.5t-12 -2.5l-12 -1.5t-15 -1.5t-15 -1l-5 7q8 41 32.5 142.5t60 250t52.5 219.5q8 31 18 78.5t12 57.5l32 4q24 3 31 3q12 0 7 -22q-15 -67 -39 -162.5t-36.5 -151.5t-12.5 -81q0 -38 29 -38q42 0 103.5 95.5t96.5 189.5l7 27 h1l28 136l32 4q27 3 31 3q12 0 8 -22l-27 -121l-50 -229q-10 -48 -10 -63q0 -26 18 -26q27 0 92 88l8 -6q-26 -55 -61.5 -96t-74.5 -41q-56 0 -56 66q0 25 11 78l22 99q-14 -35 -32.5 -71.5t-45 -78t-57.5 -67.5t-61 -26q-19 0 -33 14t-15 44h-2q-6 -97 -29 -208 q-6 -38 -13 -72z" />
<glyph unicode="&#x3c0;" horiz-adv-x="636" d="M204 47q-15 -32 -28 -44.5t-33 -12.5q-19 0 -31 5l-6 8q88 141 174 439q-25 1 -76 1q-29 0 -47 -13.5t-40 -47.5l-20 2q26 72 53 121q46 5 120 5q33 0 181.5 -6t170.5 -6q29 0 42.5 7.5t28.5 29.5l19 -2q-24 -60 -53 -106q-30 2 -112 7q-73 -261 -73 -351q0 -38 21 -38 q28 0 91 88l9 -6q-25 -55 -59.5 -96t-71.5 -41q-56 0 -56 70q0 89 83 376q-83 5 -157 6q-78 -287 -130 -395z" />
<glyph unicode="&#x1e0c;" horiz-adv-x="671" d="M276 0h-223l-2 20l59 15q18 5 26 12.5t12 23.5l9 44l97 457l15 71l-78 23l4 20h220q126 0 200 -68.5t74 -187.5q0 -82 -28 -158.5t-79 -137.5t-130.5 -97.5t-175.5 -36.5zM329 572l-97 -457l-17 -79h62q99 0 176.5 57.5t117 148t39.5 194.5q0 101 -53 157.5t-157 56.5 h-54zM293 -223q-18 0 -29.5 11.5t-11.5 30.5q0 29 18 50t44 21q18 0 29.5 -11t11.5 -30q0 -30 -18 -51t-44 -21z" />
<glyph unicode="&#x1e0d;" horiz-adv-x="501" d="M405 134q-11 -53 -11 -63q0 -26 18 -26q29 0 92 88l9 -6q-26 -54 -62 -95.5t-74 -41.5q-57 0 -57 66q0 20 12 78l26 116q-20 -45 -42.5 -85.5t-51.5 -82.5t-60.5 -67t-60.5 -25q-35 0 -57 32.5t-22 89.5q0 101 40.5 192.5t109.5 146.5t148 55q19 0 51 -4l30 129l14 67 l-93 17v11q50 14 169 29l8 -8l-26 -116zM139 120q0 -31 9 -50t25 -19q43 0 111 113.5t97 199.5l20 89q-28 19 -66 19q-72 0 -134 -110t-62 -242zM221 -223q-18 0 -29.5 11.5t-11.5 30.5q0 29 18.5 50t43.5 21q18 0 29.5 -11t11.5 -30q0 -30 -18 -51t-44 -21z" />
<glyph unicode="&#x1e24;" horiz-adv-x="760" d="M216 43l79 -23l-4 -20h-238l-2 20l59 15q31 8 37 36l10 44l96 457l16 71l-78 23l4 20h237l2 -20l-59 -15q-31 -8 -36 -36l-11 -43h1l-43 -204h321l43 204l16 71l-78 23l4 20h237l2 -20l-59 -15q-31 -8 -37 -36l-10 -43h1l-97 -457l-16 -72l79 -23l-4 -20h-238l-2 20 l59 15q31 8 37 36l10 44l45 213h-322l-45 -213zM330 -223q-18 0 -29.5 11.5t-11.5 30.5q0 29 18 50t44 21q18 0 29.5 -11t11.5 -30q0 -30 -18 -51t-44 -21z" />
<glyph unicode="&#x1e25;" horiz-adv-x="510" d="M74 13l26 121l108 498l15 68l-74 16v10q70 20 150 30l8 -8l-26 -116q-40 -183 -90 -377q62 126 116 188.5t106 62.5q32 0 49 -21.5t17 -54.5q0 -22 -8 -61.5t-16.5 -73.5t-23 -86.5t-19.5 -74.5q-10 -58 -10 -63q0 -26 18 -26q27 0 92 88l8 -6q-26 -55 -61.5 -96 t-74.5 -41q-56 0 -56 66q0 27 12 78q7 31 24.5 96.5t28.5 112t11 68.5q0 36 -28 36q-42 0 -102.5 -96.5t-93.5 -182.5l-7 -34l-29 -136l-32 -4q-27 -3 -31 -3q-13 0 -7 22zM212 -223q-18 0 -29.5 11.5t-11.5 30.5q0 29 18.5 50t43.5 21q18 0 29.5 -11t11.5 -30 q0 -30 -18 -51t-44 -21z" />
<glyph unicode="&#x1e44;" horiz-adv-x="722" d="M585 851q0 -26 -19 -45.5t-45 -19.5q-21 0 -33 11t-12 31q1 26 20 44.5t44 18.5q45 0 45 -40zM182 44l96 -23l-5 -21h-223l-3 21l61 15q19 5 27 12.5t12 22.5l10 44l111 526l-80 24l5 21h141l236 -575l97 461l16 70l-85 23l4 21h213l2 -21l-60 -15q-19 -5 -27 -12 t-12 -23l-10 -43l-121 -572h-50l-240 583l-99 -468z" />
<glyph unicode="&#x1e45;" horiz-adv-x="540" d="M395 607q-18 0 -29.5 11.5t-11.5 30.5q0 29 18 50t44 21q18 0 29.5 -11.5t11.5 -29.5q0 -30 -18 -51t-44 -21zM104 13l26 121q44 201 50 227q10 44 10 64q0 26 -17 26q-29 0 -92 -88l-9 6q26 55 61.5 96t73.5 41q55 0 55 -63q0 -19 -36 -182q23 46 41 77.5t48 75.5 t62.5 68t64.5 24t49 -21.5t17 -54.5q0 -22 -7.5 -62t-16 -73t-23 -87.5t-19.5 -73.5q-10 -58 -10 -63q0 -26 18 -26q27 0 92 88l8 -6q-26 -55 -61.5 -96t-74.5 -41q-56 0 -56 66q0 20 12 78q7 32 25 96.5t29 111.5t11 69q0 36 -29 36t-71 -54t-73 -114t-51 -110l-8 -35 l-29 -136l-32 -4q-24 -3 -31 -3q-13 0 -7 22z" />
<glyph unicode="&#x1e5a;" horiz-adv-x="634" d="M216 43l79 -23l-4 -20h-238l-2 20l59 15q31 8 37 36l10 44l97 457l15 71l-78 23l4 20h218q99 0 154 -42t55 -117q0 -72 -45 -127.5t-119 -82.5l59 -182q16 -48 34 -71.5t47 -33.5l28 -10l-4 -20l-74 -1q-40 0 -59 15.5t-30 52.5l-73 232q-20 -4 -48 -4h-68l-38 -180z M329 572l-51 -239h56q100 0 155 57t55 137q0 57 -37 88.5t-102 31.5h-60zM317 -223q-18 0 -29.5 11.5t-11.5 30.5q0 29 18 50t44 21q18 0 29.5 -11t11.5 -30q0 -30 -18 -51t-44 -21z" />
<glyph unicode="&#x1e5b;" horiz-adv-x="408" d="M104 13l26 121q60 275 60 291q0 26 -17 26q-29 0 -92 -88l-9 6q26 55 61.5 96t73.5 41q55 0 55 -63q0 -32 -34 -170q23 48 40 80t43 72t53.5 60.5t54.5 20.5q23 0 36 -12t13 -31q0 -36 -25 -66q-28 30 -56 30q-31 0 -72.5 -57t-69.5 -116.5t-35 -88.5l-7 -31l-29 -136 l-32 -4q-24 -3 -31 -3q-13 0 -7 22zM95 -223q-18 0 -29 11.5t-11 30.5q0 29 18 50t44 21q17 0 28.5 -11t11.5 -30q0 -30 -18 -51t-44 -21z" />
<glyph unicode="&#x1e62;" horiz-adv-x="465" d="M215 -10q-58 0 -106 12t-56 27q-4 10 -4 21q0 60 39 131l19 -1q-1 -13 -1 -34q0 -60 18 -84q26 -35 97 -35q67 0 109.5 43t42.5 102q0 34 -17 64.5t-42.5 52t-55.5 47t-55.5 49t-42.5 57t-17 71.5q0 79 67 131t158 52q55 0 94 -11.5t51 -24.5q5 -5 5 -14q0 -23 -13 -65.5 t-29 -72.5h-19q2 32 2 41q0 54 -13 74q-25 35 -88 35q-60 0 -100 -38t-40 -93q0 -32 17 -61.5t42.5 -51t55.5 -47.5t55.5 -49.5t42.5 -57.5t17 -72q0 -83 -63.5 -140.5t-169.5 -57.5zM191 -223q-18 0 -29.5 11.5t-11.5 30.5q0 29 18 50t44 21q18 0 29.5 -11t11.5 -30 q0 -30 -18 -51t-44 -21z" />
<glyph unicode="&#x1e63;" horiz-adv-x="381" d="M353 132q0 -63 -45 -102.5t-121 -39.5q-59 0 -98 27t-39 70q0 58 61 91l8 -7q-12 -37 -11 -67q3 -37 27.5 -59t61.5 -22t61 22.5t24 62.5q0 28 -16.5 54.5t-40 49t-47 46t-40 54t-16.5 64.5q0 55 44 92.5t109 37.5q58 0 91.5 -25t33.5 -62q0 -58 -53 -93l-9 6q7 37 6 63 q-5 80 -72 80q-34 0 -56.5 -22.5t-22.5 -58.5q0 -34 25 -68.5t55 -60t55 -61.5t25 -72zM142 -223q-18 0 -29.5 11.5t-11.5 30.5q0 29 18 50t44 21q18 0 29.5 -11t11.5 -30q0 -30 -18 -51t-44 -21z" />
<glyph unicode="&#x1e6c;" horiz-adv-x="572" d="M320 43l79 -23l-4 -20h-238l-2 20l59 15q31 8 37 36l10 44l113 534h-61q-66 0 -108 -9q-26 -45 -45 -85l-26 -51h-19q9 104 40 182h530q-5 -87 -38 -182h-19l-5 51q-2 44 -8 85q-39 9 -105 9h-61l-113 -534zM237 -223q-18 0 -29.5 11.5t-11.5 30.5q0 29 18 50t44 21 q18 0 29.5 -11t11.5 -30q0 -30 -18 -51t-44 -21z" />
<glyph unicode="&#x1e6d;" horiz-adv-x="344" d="M186 -10q-38 0 -58.5 26t-20.5 72q0 37 6 63l65 302h-82l2 14l88 26l89 146l15 -1l-32 -150h148l-8 -35h-148l-63 -296q-6 -32 -6 -55q0 -58 43 -58q57 0 139 95l8 -6q-79 -143 -185 -143zM161 -223q-18 0 -29 11.5t-11 30.5q0 29 18 50t44 21q17 0 28.5 -11t11.5 -30 q0 -30 -18 -51t-44 -21z" />
<glyph unicode="&#x1e80;" horiz-adv-x="1011" d="M761 795l-10 -16q-67 5 -141.5 30.5t-73.5 57.5q0 28 43 43l8 -1q22 -25 71 -57.5t103 -56.5zM336 0h-45l-66 611q-2 19 -9 28t-22 13l-51 14l2 20h232l4 -20l-86 -22l57 -538l237 435l-9 70q-2 20 -8.5 28.5t-21.5 12.5l-52 14l3 20h232l4 -20l-86 -22l64 -538l286 538 l-82 22l4 20h205l3 -20l-56 -16q-31 -8 -47 -38l-329 -612h-45l-57 475z" />
<glyph unicode="&#x1e81;" horiz-adv-x="654" d="M508 589l-13 -12q-66 40 -112.5 81.5t-43.5 68.5q3 31 50 31h11l7 -4q26 -67 101 -165zM697 459q0 -69 -90.5 -214.5t-191.5 -246.5l-35 2q20 273 20 324v23q-72 -205 -216 -349l-34 2q20 273 20 324q0 70 -8 98.5t-28 28.5q-28 0 -93 -88l-9 6q27 57 63 97t75 40 q69 0 69 -129q0 -125 -22 -306q78 107 122 215.5t51 193.5q0 9 -2 19q12 7 31 7q29 0 40 -25t11 -92q0 -118 -22 -318q76 105 124.5 212t48.5 184q0 15 -2 31q14 8 32 8q46 0 46 -47z" />
<glyph unicode="&#x1e82;" horiz-adv-x="1011" d="M743 908l8 1q37 -14 37 -37q0 -29 -79 -56t-175 -38l-5 16q157 69 214 114zM336 0h-45l-66 611q-2 19 -9 28t-22 13l-51 14l2 20h232l4 -20l-86 -22l57 -538l237 435l-9 70q-2 20 -8.5 28.5t-21.5 12.5l-52 14l3 20h232l4 -20l-86 -22l64 -538l286 538l-82 22l4 20h205 l3 -20l-56 -16q-31 -8 -47 -38l-329 -612h-45l-57 475z" />
<glyph unicode="&#x1e83;" horiz-adv-x="654" d="M504 756l8 3q7 0 11 -1q40 -3 40 -28q0 -30 -69.5 -76t-150.5 -77l-9 15q119 95 170 164zM697 459q0 -69 -90.5 -214.5t-191.5 -246.5l-35 2q20 273 20 324v23q-72 -205 -216 -349l-34 2q20 273 20 324q0 70 -8 98.5t-28 28.5q-28 0 -93 -88l-9 6q27 57 63 97t75 40 q69 0 69 -129q0 -125 -22 -306q78 107 122 215.5t51 193.5q0 9 -2 19q12 7 31 7q29 0 40 -25t11 -92q0 -118 -22 -318q76 105 124.5 212t48.5 184q0 15 -2 31q14 8 32 8q46 0 46 -47z" />
<glyph unicode="&#x1e84;" horiz-adv-x="1011" d="M800 852q0 -26 -16.5 -44.5t-40.5 -18.5q-20 0 -31.5 10.5t-11.5 29.5q0 24 17 43.5t42 19.5q19 0 30 -11t11 -29zM597 852q0 -26 -17 -44.5t-40 -18.5q-20 0 -32 10.5t-12 29.5q0 24 17 43.5t42 19.5q19 0 30.5 -11t11.5 -29zM336 0h-45l-66 611q-2 19 -9 28t-22 13 l-51 14l2 20h232l4 -20l-86 -22l57 -538l237 435l-9 70q-2 20 -8.5 28.5t-21.5 12.5l-52 14l3 20h232l4 -20l-86 -22l64 -538l286 538l-82 22l4 20h205l3 -20l-56 -16q-31 -8 -47 -38l-329 -612h-45l-57 475z" />
<glyph unicode="&#x1e85;" horiz-adv-x="654" d="M592 678q0 -27 -16.5 -47t-38.5 -20q-18 0 -29.5 12.5t-11.5 31.5q0 25 16.5 45t39.5 20q18 0 29 -11.5t11 -30.5zM390 678q0 -27 -16.5 -47t-38.5 -20q-18 0 -29.5 12.5t-11.5 31.5q0 25 16.5 45t39.5 20q18 0 29 -11.5t11 -30.5zM697 459q0 -69 -90.5 -214.5 t-191.5 -246.5l-35 2q20 273 20 324v23q-72 -205 -216 -349l-34 2q20 273 20 324q0 70 -8 98.5t-28 28.5q-28 0 -93 -88l-9 6q27 57 63 97t75 40q69 0 69 -129q0 -125 -22 -306q78 107 122 215.5t51 193.5q0 9 -2 19q12 7 31 7q29 0 40 -25t11 -92q0 -118 -22 -318 q76 105 124.5 212t48.5 184q0 15 -2 31q14 8 32 8q46 0 46 -47z" />
<glyph unicode="&#x1e92;" horiz-adv-x="588" d="M508 0h-451l1 35l499 615h-186q-67 0 -103 -4l-79 -142h-18q3 95 37 182h443l-1 -34l-499 -616h195q59 0 102 5l81 141h18q-4 -82 -39 -182zM256 -223q-18 0 -29.5 11.5t-11.5 30.5q0 29 18 50t44 21q18 0 29.5 -11.5t11.5 -29.5q0 -30 -18.5 -51t-43.5 -21z" />
<glyph unicode="&#x1e93;" horiz-adv-x="405" d="M127 19q-45 0 -79 -29l-21 24q27 33 79.5 95.5t81.5 98t70 87.5t75 99q-95 40 -145 40q-27 0 -45.5 -19.5t-44.5 -68.5l-11 5q23 86 41.5 120.5t55.5 34.5q68 0 171 -81q14 20 56 81q33 -8 33 -35q0 -21 -28 -50q-45 -56 -93 -112t-111 -127.5t-100 -114.5q24 9 64 9 q17 0 70 -8.5t66 -8.5t22.5 8.5t24.5 29.5q13 17 35 52l10 -5q-23 -67 -31 -84q-31 -70 -65 -70q-20 0 -88 14.5t-93 14.5zM162 -223q-18 0 -29.5 11.5t-11.5 30.5q0 29 18 50t44 21q18 0 29.5 -11t11.5 -30q0 -30 -18 -51t-44 -21z" />
<glyph unicode="&#x1e9e;" horiz-adv-x="648" d="M653 167q0 -82 -57 -129.5t-154 -47.5q-40 0 -76 10.5t-51 27.5q-6 6 -6 22q0 24 11.5 61t27.5 64l19 -1q-5 -81 11 -111q20 -36 77 -36t90 35.5t33 92.5q0 22 -7.5 42.5t-16 35t-29 35t-32.5 31.5t-41.5 34.5t-42.5 34.5l3 24l193 191q-36 76 -117 76q-64 0 -113.5 -46 t-66.5 -124l-99 -468l-23 -21h-138l3 21l54 14q20 5 28 12.5t12 23.5l86 407q18 93 96.5 155.5t180.5 62.5q118 0 168 -83l-1 -24l-193 -188q8 -6 34.5 -28.5t36 -31t30.5 -28.5t29.5 -33.5t20 -33t16 -39t4.5 -40.5z" />
<glyph unicode="&#x1ea0;" horiz-adv-x="666" d="M445 688h45l75 -613q2 -19 9 -27.5t22 -13.5l51 -14l-2 -20h-232l-4 20l86 22l-25 200l-232 -4l-107 -195l81 -23l-4 -20h-203l-2 20l56 16q29 8 47 39zM259 276l207 -1l-37 311zM269 -223q-18 0 -29 11.5t-11 30.5q0 29 18 50t44 21q17 0 28.5 -11t11.5 -30 q0 -30 -18 -51t-44 -21z" />
<glyph unicode="&#x1ea1;" horiz-adv-x="501" d="M405 134q-11 -53 -11 -63q0 -26 18 -26q29 0 92 88l9 -6q-26 -54 -62 -95.5t-74 -41.5q-57 0 -57 66q0 20 12 78l25 113q-29 -62 -59.5 -114.5t-74 -97.5t-80.5 -45q-35 0 -57 32.5t-22 89.5q0 101 40.5 192.5t109.5 146.5t148 55q69 0 121 -26l-6 -19zM139 120 q0 -31 9 -50t25 -19q42 0 111 113.5t97 199.5l20 89q-28 19 -66 19q-72 0 -134 -110t-62 -242zM212 -223q-18 0 -29.5 11.5t-11.5 30.5q0 29 18 50t44 21q18 0 29.5 -11.5t11.5 -29.5q0 -30 -18.5 -51t-43.5 -21z" />
<glyph unicode="&#x1eb8;" horiz-adv-x="581" d="M329 572l-45 -210l206 5l-11 -46l-202 6l-45 -212l-17 -81h137q59 0 102 5q61 113 78 143h19q-7 -99 -40 -182h-458l-2 20l59 15q18 5 26 12.5t12 23.5l9 44l97 457l15 71l-78 23l4 20h433q-3 -75 -38 -182h-19q-4 35 -10 81.5t-8 61.5q-44 4 -100 4h-107zM273 -223 q-18 0 -29.5 11.5t-11.5 30.5q0 29 18 50t44 21q18 0 29 -11t11 -30q0 -30 -18 -51t-43 -21z" />
<glyph unicode="&#x1eb9;" horiz-adv-x="383" d="M379 133q-36 -65 -83.5 -104t-101.5 -39q-59 0 -90 45t-31 125q0 84 36 165t94 131t119 50q44 0 69 -24t25 -65q0 -78 -79 -130.5t-184 -55.5l2 14q-7 -36 -7 -80q0 -57 20.5 -89t58.5 -32q62 0 144 95zM310 470q-47 0 -90.5 -61.5t-61.5 -149.5q82 7 136.5 54.5 t54.5 109.5q0 21 -10.5 34t-28.5 13zM158 -223q-18 0 -29.5 11.5t-11.5 30.5q0 29 18 50t44 21q18 0 29.5 -11t11.5 -30q0 -30 -18 -51t-44 -21z" />
<glyph unicode="&#x1ebc;" horiz-adv-x="581" d="M355 845q-17 -8 -77 -65l-10 5q49 116 122 116q33 0 96 -29t86 -30q20 9 77 65l10 -6q-48 -116 -123 -116q-32 0 -94.5 29.5t-86.5 30.5zM329 572l-45 -210l206 5l-11 -46l-202 6l-45 -212l-17 -81h137q59 0 102 5q61 113 78 143h19q-7 -99 -40 -182h-458l-2 20l59 15 q18 5 26 12.5t12 23.5l9 44l97 457l15 71l-78 23l4 20h433q-3 -75 -38 -182h-19q-4 35 -10 81.5t-8 61.5q-44 4 -100 4h-107z" />
<glyph unicode="&#x1ebd;" horiz-adv-x="383" d="M235 675q-16 -8 -70 -67l-9 5q45 117 119 117q31 0 85 -29.5t75 -30.5q16 8 70 67l9 -5q-45 -117 -119 -117q-31 0 -86.5 29.5t-73.5 30.5zM379 133q-36 -65 -83.5 -104t-101.5 -39q-59 0 -90 45t-31 125q0 84 36 165t94 131t119 50q44 0 69 -24t25 -65q0 -78 -79 -130.5 t-184 -55.5l2 14q-7 -36 -7 -80q0 -57 20.5 -89t58.5 -32q62 0 144 95zM310 470q-47 0 -90.5 -61.5t-61.5 -149.5q82 7 136.5 54.5t54.5 109.5q0 21 -10.5 34t-28.5 13z" />
<glyph unicode="&#x1eca;" horiz-adv-x="365" d="M216 43l79 -23l-4 -20h-238l-2 20l59 15q31 8 37 36l10 44l96 457l16 71l-78 23l4 20h237l2 -20l-59 -15q-31 -8 -36 -36l-11 -43h1l-97 -457zM123 -223q-18 0 -29.5 11.5t-11.5 30.5q0 29 18 50t44 21q18 0 29.5 -11t11.5 -30q0 -30 -18 -51t-44 -21z" />
<glyph unicode="&#x1ecb;" horiz-adv-x="287" d="M259 607q-18 0 -29.5 11.5t-11.5 30.5q0 29 18 50t44 21q18 0 29.5 -11t11.5 -30q0 -30 -18 -51t-44 -21zM199 134q-10 -48 -10 -63q0 -26 17 -26q29 0 92 88l9 -6q-26 -54 -62 -95.5t-74 -41.5q-56 0 -56 66q0 25 11 78q9 41 30.5 130.5t23.5 97.5q10 48 10 64 q0 25 -18 25q-28 0 -91 -88l-9 6q26 55 61.5 96t74.5 41q56 0 56 -66q0 -25 -11 -78q-7 -29 -26.5 -110t-27.5 -118zM117 -223q-18 0 -29 11.5t-11 30.5q0 29 18 50t44 21q17 0 28.5 -11t11.5 -30q0 -30 -18 -51t-44 -21z" />
<glyph unicode="&#x1ecc;" horiz-adv-x="605" d="M626 451q0 -105 -39.5 -209.5t-116 -178t-169.5 -73.5q-90 0 -144.5 66.5t-54.5 177.5q0 108 40.5 213t118 177t170.5 72q91 0 143 -66t52 -179zM181 214q0 -84 33 -134t94 -50q52 0 98.5 44.5t76 112.5t47 145t17.5 145q0 180 -122 180q-69 0 -127 -73t-87.5 -173.5 t-29.5 -196.5zM247 -223q-18 0 -29.5 11.5t-11.5 30.5q0 29 18 50t44 21q18 0 29.5 -11.5t11.5 -29.5q0 -30 -18.5 -51t-43.5 -21z" />
<glyph unicode="&#x1ecd;" horiz-adv-x="433" d="M439 329q0 -141 -69 -240t-159 -99q-61 0 -98 49.5t-37 130.5q0 133 70 234.5t159 101.5q65 0 99.5 -47t34.5 -130zM151 155q0 -60 18 -95t49 -35q58 0 102 104.5t44 220.5q0 121 -64 121q-39 0 -74.5 -50.5t-55 -123.5t-19.5 -142zM165 -223q-18 0 -29 11.5t-11 30.5 q0 29 18 50t44 21q17 0 28.5 -11t11.5 -30q0 -30 -18 -51t-44 -21z" />
<glyph unicode="&#x1ee4;" horiz-adv-x="668" d="M601 240q-53 -250 -259 -250q-88 0 -142 48.5t-54 134.5q0 43 7 76l69 323l16 71l-79 23l4 20h238l2 -20l-59 -15q-31 -8 -37 -36l-10 -43l-69 -327q-7 -34 -7 -68q0 -69 38.5 -107.5t102.5 -38.5q71 0 122.5 52t74.5 157l72 334l15 68l-85 23l4 21h213l2 -21l-94 -23 l-15 -68zM294 -223q-18 0 -29 11.5t-11 30.5q0 29 18 50t44 21q18 0 29 -11t11 -30q0 -30 -18 -51t-44 -21z" />
<glyph unicode="&#x1ee5;" horiz-adv-x="547" d="M187 362q10 48 10 64q0 25 -18 25q-27 0 -92 -88l-8 6q26 55 61.5 96t74.5 41q56 0 56 -66q0 -25 -11 -78q-7 -31 -25.5 -97.5t-28.5 -110.5t-10 -65q0 -38 26 -38q40 0 102 96t97 189l6 27h1l29 136l31 4q27 3 32 3q11 0 7 -22l-27 -121l-50 -229q-10 -48 -10 -63 q0 -26 18 -26q27 0 92 88l8 -6q-26 -55 -61.5 -96t-74.5 -41q-56 0 -56 66q0 27 12 78l22 100q-16 -35 -36.5 -72t-49 -78.5t-62 -67.5t-63.5 -26q-32 0 -49.5 22.5t-17.5 58.5q0 27 10.5 75t29 117.5t25.5 98.5zM251 -222q-18 0 -29 11.5t-11 30.5q0 29 18 50t44 21 q17 0 28.5 -11.5t11.5 -29.5q0 -30 -18 -51t-44 -21z" />
<glyph unicode="&#x1ef2;" horiz-adv-x="634" d="M577 795l-11 -16q-39 3 -87 14t-88 31.5t-39 42.5q0 15 13 26t30 17l7 -1q23 -26 72 -58t103 -56zM347 43l79 -23l-4 -20h-238l-2 20l59 15q31 8 37 36l10 44l17 79q12 81 2.5 180.5t-39 183t-60.5 83.5t-86 -90l-14 7q59 138 132 138q41 0 74 -55.5t51 -143t20 -186.5 q82 169 158 277t128 108q32 0 50 -39.5t22 -94.5l-16 -5q-25 84 -58 84q-32 0 -96 -83t-122 -193.5t-74 -184.5l-14 -65z" />
<glyph unicode="&#x1ef3;" horiz-adv-x="429" d="M376 589l-13 -12q-66 40 -112.5 81.5t-43.5 68.5q5 31 51 31h11l6 -4q26 -67 101 -165zM166 506q82 0 82 -164q0 -153 -55 -324q93 88 142.5 198t49.5 221q0 35 -5 60q11 9 30 9q50 0 50 -71q0 -108 -75.5 -238t-208.5 -228q-39 -101 -93 -163t-118 -62q-37 0 -59.5 16 t-22.5 40t22 35q28 -40 67 -40q92 0 152 209q24 82 37 174t13 151q0 122 -42 122q-26 0 -83 -88l-9 6q21 55 55.5 96t70.5 41z" />
<glyph unicode="&#x1ef8;" horiz-adv-x="634" d="M360 845q-17 -7 -77 -64l-10 5q49 116 123 116q32 0 94.5 -29t86.5 -30q19 7 77 65l11 -6q-48 -116 -124 -116q-31 0 -93.5 29.5t-87.5 29.5zM347 43l79 -23l-4 -20h-238l-2 20l59 15q31 8 37 36l10 44l17 79q12 81 2.5 180.5t-39 183t-60.5 83.5t-86 -90l-14 7 q59 138 132 138q41 0 74 -55.5t51 -143t20 -186.5q82 169 158 277t128 108q32 0 50 -39.5t22 -94.5l-16 -5q-25 84 -58 84q-32 0 -96 -83t-122 -193.5t-74 -184.5l-14 -65z" />
<glyph unicode="&#x1ef9;" horiz-adv-x="429" d="M227 675q-17 -8 -69 -67l-10 5q45 117 120 117q30 0 84 -29.5t75 -30.5q16 8 70 67l9 -5q-45 -117 -119 -117q-31 0 -86.5 29.5t-73.5 30.5zM166 506q82 0 82 -164q0 -153 -55 -324q93 88 142.5 198t49.5 221q0 35 -5 60q11 9 30 9q50 0 50 -71q0 -108 -75.5 -238 t-208.5 -228q-39 -101 -93 -163t-118 -62q-37 0 -59.5 16t-22.5 40t22 35q28 -40 67 -40q92 0 152 209q24 82 37 174t13 151q0 122 -42 122q-26 0 -83 -88l-9 6q21 55 55.5 96t70.5 41z" />
<glyph unicode="&#x2007;" />
<glyph unicode="&#x2013;" horiz-adv-x="540" d="M83 250l9 39h455l-8 -39h-456z" />
<glyph unicode="&#x2014;" horiz-adv-x="819" d="M84 250l8 39h734l-9 -39h-733z" />
<glyph unicode="&#x2018;" horiz-adv-x="254" d="M334 756l9 -8q-34 -33 -63.5 -80.5t-42.5 -90.5q34 -9 34 -47q0 -26 -18 -46t-44 -20q-23 0 -36 16.5t-13 41.5q0 55 52.5 125t121.5 109z" />
<glyph unicode="&#x2019;" horiz-adv-x="254" d="M156 464l-9 8q33 34 62.5 81.5t43.5 90.5q-35 7 -35 47q0 25 18.5 45t44.5 20q23 0 36 -16.5t13 -41.5q0 -54 -52.5 -124.5t-121.5 -109.5z" />
<glyph unicode="&#x201a;" horiz-adv-x="285" d="M33 -187l-10 8q34 33 63.5 80.5t42.5 90.5q-34 9 -34 47q0 26 18 46t45 20q23 0 36 -16.5t13 -41.5q0 -55 -52.5 -125t-121.5 -109z" />
<glyph unicode="&#x201c;" horiz-adv-x="438" d="M334 756l9 -8q-34 -33 -63.5 -80.5t-42.5 -90.5q34 -9 34 -47q0 -26 -18 -46t-44 -20q-23 0 -36 16.5t-13 41.5q0 55 52.5 125t121.5 109zM517 756l9 -8q-74 -74 -106 -171q35 -9 35 -47q0 -26 -18.5 -46t-44.5 -20q-23 0 -36 16.5t-13 41.5q0 55 52.5 125t121.5 109z " />
<glyph unicode="&#x201d;" horiz-adv-x="438" d="M339 464l-9 8q33 33 62.5 80t43.5 91q-34 9 -34 47q0 26 18 46t44 20q23 0 36 -16.5t13 -41.5q0 -55 -52.5 -125t-121.5 -109zM156 464l-9 8q74 74 106 171q-35 9 -35 47q0 26 18.5 46t44.5 20q23 0 36 -16.5t13 -41.5q0 -55 -52.5 -125t-121.5 -109z" />
<glyph unicode="&#x201e;" horiz-adv-x="438" d="M202 -182l-10 8q34 33 63.5 80.5t42.5 90.5q-34 9 -34 47q0 26 18 46t45 20q23 0 36 -16.5t13 -41.5q0 -55 -52.5 -125t-121.5 -109zM19 -182l-10 8q34 33 63.5 80.5t42.5 90.5q-34 9 -34 47q0 26 18 46t44 20q23 0 36 -16.5t13 -41.5q0 -54 -52 -124.5t-121 -109.5z" />
<glyph unicode="&#x2020;" horiz-adv-x="512" d="M293 10q-28 -15 -45 -15q-36 0 -36 31q0 14 11 55.5t43.5 158t61.5 225.5q-110 -12 -154 -12q-25 0 -25 26q0 18 14 37l6 3q62 -19 165 -23q20 113 10 186l2 4q22 8 39 8q33 0 33 -24q0 -8 -5 -24t-20 -61t-28 -89q92 12 153 12q25 0 25 -26q0 -18 -13 -37l-7 -3 q-61 19 -166 24q-58 -303 -62 -452z" />
<glyph unicode="&#x2021;" horiz-adv-x="514" d="M288 0q-22 -8 -40 -8q-33 0 -33 24q0 8 5 24t20.5 62t28.5 88q-110 -12 -154 -12q-25 0 -25 26q0 18 14 37l6 3q62 -19 168 -24q8 74 15 112q12 71 35 133q-110 -12 -151 -12q-27 0 -25 27q0 16 13 36l6 3q62 -19 165 -23q20 113 10 186l2 4q22 8 39 8q34 0 34 -24 q0 -7 -5.5 -24t-20 -61t-28.5 -89q92 12 153 12q25 0 25 -26q0 -18 -13 -37l-6 -3q-62 20 -168 24q-12 -92 -16 -111q-8 -52 -35 -134q110 12 152 12q25 0 25 -26q0 -17 -13 -37l-7 -3q-62 19 -165 23q-19 -119 -9 -185z" />
<glyph unicode="&#x2022;" horiz-adv-x="422" d="M368 280q0 -54 -36.5 -95.5t-90.5 -41.5q-47 0 -73.5 28.5t-26.5 71.5q0 53 36.5 95t91.5 42q46 0 72.5 -29t26.5 -71z" />
<glyph unicode="&#x2026;" horiz-adv-x="636" d="M168 57q0 -26 -18 -46.5t-45 -20.5q-23 0 -36 14t-13 35q0 26 18.5 46t45.5 20q22 0 35 -14t13 -34zM372 57q0 -26 -18 -46.5t-44 -20.5q-23 0 -36 14t-13 35q0 26 18 46t45 20q22 0 35 -14t13 -34zM577 57q0 -26 -18 -46.5t-44 -20.5q-24 0 -36.5 14t-12.5 35 q0 26 18 46t45 20q22 0 35 -14t13 -34z" />
<glyph unicode="&#x2030;" horiz-adv-x="1353" d="M495 550q0 -62 -26.5 -123t-77 -102.5t-111.5 -41.5q-59 0 -94 39.5t-35 106.5q0 101 63 184t155 83q58 0 92 -39t34 -107zM844 696l-573 -706h-46l571 706h48zM209 416q0 -48 20 -77t57 -29q44 0 80 42.5t54 100t18 113.5q0 103 -76 103q-65 0 -109 -82t-44 -171z M926 257q0 -62 -27 -122.5t-77.5 -102.5t-111.5 -42q-59 0 -94 39.5t-35 106.5q0 101 63.5 184t154.5 83q59 0 93 -39t34 -107zM1326 257q0 -97 -62.5 -182t-153.5 -85q-59 0 -94 39.5t-35 106.5q0 101 63.5 184t155.5 83q58 0 92 -39t34 -107zM639 124q0 -49 20.5 -78 t57.5 -29q65 0 108 83.5t43 172.5q0 103 -75 103q-65 0 -109.5 -82t-44.5 -170zM1040 124q0 -49 20 -78t57 -29q65 0 108 83.5t43 172.5q0 103 -75 103q-65 0 -109 -81.5t-44 -170.5z" />
<glyph unicode="&#x2039;" horiz-adv-x="338" d="M251 28l-18 -8q-56 121 -116 196l-4 7l12 51q94 82 208 206l14 -10q-45 -69 -168 -232q44 -110 72 -210z" />
<glyph unicode="&#x203a;" horiz-adv-x="338" d="M168 471l18 9q61 -128 116 -197l4 -6l-12 -52q-91 -78 -208 -205l-13 10q51 78 167 231q-51 136 -72 210z" />
<glyph unicode="&#x2044;" horiz-adv-x="266" d="M504 696l-572 -706h-47l572 706h47z" />
<glyph unicode="&#x2070;" horiz-adv-x="432" d="M494 610q0 -62 -26.5 -123t-77 -102.5t-111.5 -41.5q-59 0 -94 39.5t-35 106.5q0 101 63 184t155 83q58 0 92 -39t34 -107zM208 476q0 -48 20 -77t57 -29q65 0 108 83.5t43 172.5q0 103 -75 103q-65 0 -109 -82t-44 -171z" />
<glyph unicode="&#x2071;" horiz-adv-x="217" d="M282 832q-15 0 -24 10t-9 27q0 22 15 38t35 16q14 0 23 -9t9 -24q0 -24 -14.5 -41t-34.5 -17zM143 643l-7 5q20 43 48 75t59 32q45 0 45 -54q0 -27 -27.5 -147t-27.5 -138q0 -20 14 -20q22 0 70 67l7 -5q-20 -42 -48.5 -74.5t-58.5 -32.5q-46 0 -46 56q0 28 28 145.5 t28 137.5t-14 20q-20 0 -70 -67z" />
<glyph unicode="&#x2074;" horiz-adv-x="422" d="M416 756l39 -5l-56 -266l64 1l-9 -36l-63 1l-20 -98h-57l21 98l-192 2l-3 22zM386 690l-201 -209l157 3z" />
<glyph unicode="&#x2075;" horiz-adv-x="350" d="M391 491q0 -60 -74.5 -100t-198.5 -48l-2 18q93 12 154.5 46.5t61.5 79.5q0 64 -87 64q-38 0 -72 -8l-6 7l43 201q147 -5 169 -5q19 0 29 7t19 25l8 -1q-6 -30 -10.5 -43.5t-15.5 -24t-30 -10.5q-54 0 -142 9l-28 -129q28 5 57 5q58 0 91.5 -25t33.5 -68z" />
<glyph unicode="&#x2076;" horiz-adv-x="380" d="M419 487q0 -59 -45 -101.5t-110 -42.5q-51 0 -85.5 32.5t-34.5 88.5q0 112 86 195t211 97l3 -18q-87 -24 -148.5 -77t-88.5 -126q37 51 108 51q47 0 75.5 -27t28.5 -72zM195 447q0 -35 17.5 -55t50.5 -20q45 0 72.5 34t27.5 80q0 33 -17.5 51.5t-49.5 18.5 q-43 0 -72 -31.5t-29 -77.5z" />
<glyph unicode="&#x2077;" horiz-adv-x="367" d="M263 359q-9 -14 -24 -14q-23 0 -35 23q134 195 199 309q-102 29 -158 29q-23 0 -35.5 -12.5t-24.5 -43.5l-7 2q10 55 23.5 79.5t42.5 24.5q75 0 175 -51q9 16 27 50q16 -4 16 -15t-15 -44q-79 -166 -184 -337z" />
<glyph unicode="&#x2078;" horiz-adv-x="390" d="M423 458q0 -51 -47.5 -83t-117.5 -32q-57 0 -91.5 23t-34.5 61q0 44 39 76t103 47q-33 24 -51.5 46.5t-18.5 50.5q0 47 44 78t104 31q49 0 78.5 -21.5t29.5 -56.5q0 -38 -31.5 -68.5t-84.5 -46.5q25 -18 39 -30.5t27 -32.5t13 -42zM259 659q0 -38 66 -83q39 18 63 45.5 t24 55.5q0 25 -17 39t-48 14q-37 0 -62.5 -20.5t-25.5 -50.5zM186 429q1 -27 22.5 -43.5t57.5 -16.5q41 0 71.5 22t30.5 54q0 26 -19.5 46.5t-55.5 44.5q-48 -18 -77.5 -47t-29.5 -60z" />
<glyph unicode="&#x2079;" horiz-adv-x="382" d="M450 635q0 -111 -90 -194t-219 -98l-3 15q87 24 150.5 77.5t94.5 126.5q-41 -49 -109 -49q-47 0 -75 26t-28 69q0 60 46.5 104t113.5 44q55 0 87 -33.5t32 -87.5zM227 609q0 -33 17 -51t49 -18q43 0 74 34t31 81q0 35 -17 56t-49 21q-46 0 -75.5 -37t-29.5 -86z" />
<glyph unicode="&#x207f;" horiz-adv-x="432" d="M139 642l-8 5q53 107 107 107q43 0 43 -52q0 -24 -26 -138q19 37 32.5 60.5t37 58.5t48 53t49.5 18q27 0 41.5 -16.5t14.5 -42.5q0 -35 -29 -145.5t-29 -132.5q0 -21 15 -21q22 0 70 67l8 -5q-55 -107 -109 -107q-46 0 -46 54q0 31 28.5 137t28.5 135t-23 29 q-32 0 -77 -73.5t-71 -140.5l-28 -134l-27 -4q-10 -2 -25 -2q-8 0 -8 8q0 2 2 10q17 67 41 182t24 136t-14 21q-22 0 -70 -67z" />
<glyph unicode="&#x2080;" horiz-adv-x="432" d="M403 180q0 -62 -27 -122.5t-77.5 -102.5t-111.5 -42q-59 0 -94 39.5t-35 106.5q0 101 63.5 184t154.5 83q59 0 93 -39t34 -107zM116 47q0 -49 20 -78t58 -29q65 0 108 83.5t43 172.5q0 104 -75 104q-44 0 -80.5 -41.5t-55 -99t-18.5 -112.5z" />
<glyph unicode="&#x2081;" horiz-adv-x="279" d="M201 -77h-175l-1 10l38 7q28 5 33 27l67 315l-61 6l2 10l119 28l5 -5l-79 -373l55 -15z" />
<glyph unicode="&#x2082;" horiz-adv-x="380" d="M106 -68q-36 0 -68 -19l-11 29q146 93 209 156.5t63 115.5q0 31 -17 49t-49 18q-65 0 -120 -70l-12 6q24 49 65.5 79t90.5 30q47 0 74 -26t27 -70q0 -107 -178 -222q-22 -13 -61 -34q7 1 22 1q21 0 64 -6.5t54 -6.5q7 0 14 4t15.5 15t12 16t13.5 21l7 -3q-8 -32 -18 -55 q-22 -47 -47 -47q-17 0 -68.5 9.5t-81.5 9.5z" />
<glyph unicode="&#x2083;" horiz-adv-x="362" d="M310 54q0 -57 -77.5 -95t-204.5 -46l-2 19q95 12 158.5 44.5t63.5 76.5q0 30 -23 45t-62 15q-22 0 -37 -3l-3 22q73 8 114 33.5t41 63.5q0 26 -16.5 41t-48.5 15q-61 0 -106 -56l-13 7q23 42 62 66t86 24q48 0 74 -21.5t26 -58.5q0 -40 -34.5 -69.5t-89.5 -43.5 q92 -13 92 -79z" />
<glyph unicode="&#x2084;" horiz-adv-x="421" d="M324 326l40 -4l-57 -267l65 2l-10 -36h-62l-21 -98h-57l21 99l-191 1l-3 22zM295 261l-201 -209l157 2z" />
<glyph unicode="&#x2085;" horiz-adv-x="351" d="M300 61q0 -60 -74.5 -100t-198.5 -48l-2 19q93 12 154.5 46.5t61.5 79.5q0 30 -22.5 47t-64.5 17q-41 0 -71 -9l-7 7l43 201q150 -5 169 -5t29 7t20 25l7 -1q-6 -30 -10.5 -43.5t-15.5 -24t-30 -10.5q-54 0 -142 9l-28 -129q21 5 57 5q58 0 91.5 -24.5t33.5 -68.5z" />
<glyph unicode="&#x2086;" horiz-adv-x="380" d="M328 58q0 -59 -45.5 -102t-110.5 -43q-51 0 -85.5 33t-34.5 89q0 112 86 194.5t211 96.5l4 -18q-87 -24 -148.5 -76.5t-89.5 -126.5q38 52 108 52q48 0 76.5 -27t28.5 -72zM104 18q0 -35 17.5 -55t50.5 -20q45 0 72.5 34t27.5 80q0 32 -17.5 50.5t-49.5 18.5 q-43 0 -72 -31.5t-29 -76.5z" />
<glyph unicode="&#x2087;" horiz-adv-x="367" d="M171 -71q-8 -14 -23 -14q-23 0 -36 23q137 199 200 309q-105 30 -159 30q-23 0 -35.5 -13t-24.5 -44l-6 3q10 55 23.5 79t42.5 24q73 0 175 -50q18 32 27 49q16 -4 16 -14q0 -8 -16 -45q-76 -160 -184 -337z" />
<glyph unicode="&#x2088;" horiz-adv-x="390" d="M332 28q0 -51 -47.5 -83t-118.5 -32q-56 0 -90.5 23.5t-34.5 61.5q0 43 38.5 75t103.5 47q-71 50 -71 98q0 47 44.5 77.5t103.5 30.5q49 0 78.5 -21.5t29.5 -56.5q0 -38 -31.5 -68.5t-84.5 -46.5q25 -17 39.5 -30t27.5 -33t13 -42zM168 230q0 -24 16.5 -42.5t49.5 -41.5 q39 18 63 46t24 55q-2 53 -66 53q-37 0 -62 -20t-25 -50zM95 -1q0 -27 22 -43.5t57 -16.5q41 0 71.5 22t30.5 54q0 18 -12 36t-24.5 28t-37.5 28q-48 -18 -77.5 -47.5t-29.5 -60.5z" />
<glyph unicode="&#x2089;" horiz-adv-x="383" d="M360 205q0 -111 -90.5 -194t-219.5 -98l-3 15q88 25 151.5 78t93.5 127q-38 -49 -109 -49q-47 0 -75 25.5t-28 68.5q0 60 47 104t113 44q55 0 87.5 -33.5t32.5 -87.5zM137 180q0 -69 65 -69q44 0 74.5 33.5t30.5 80.5q0 36 -16.5 56.5t-48.5 20.5q-46 0 -75.5 -36.5 t-29.5 -85.5z" />
<glyph unicode="&#x20ac;" horiz-adv-x="597" d="M495 232h-234q-1 -9 -1 -26q0 -76 30.5 -117.5t85.5 -41.5q84 0 182 108l9 -6q-39 -71 -96 -115t-125 -44q-82 0 -126 54.5t-44 154.5q0 5 0.5 16t0.5 17h-88l16 40h76q6 50 19 92h-83l16 41h80q45 127 131 209t183 82q55 0 86.5 -31t31.5 -82q0 -37 -19 -69t-47 -32 q-13 0 -27 8q20 44 20 94q0 74 -61 74q-66 0 -125.5 -72t-93.5 -181h248l-17 -41h-243q-12 -52 -16 -92h248z" />
<glyph unicode="&#x2122;" horiz-adv-x="685" d="M458 460h-80l2 17l19 4q12 5 16 15l61 164l-29 10l6 16h71l31 -176l103 176h76l-3 -16l-33 -10l-8 -176l26 -7l-4 -17h-96l2 17l15 2q18 4 18 17l5 140l-104 -176h-29l-31 177l-57 -151l27 -9zM303 460h-98l2 17l21 5q12 3 14 15l4 20l32 147h-17q-24 0 -40 -3 q-5 -7 -29 -51h-12q-2 39 17 76h212q0 -28 -16 -76h-14q-4 44 -6 51q-17 3 -40 3h-16l-31 -147l-6 -31l28 -9z" />
<glyph unicode="&#x2202;" horiz-adv-x="584" d="M610 518q0 -124 -44 -243.5t-129 -201t-189 -81.5q-74 0 -117.5 45t-43.5 122q0 126 103 218t244 92q56 0 95 -18q3 24 3 48q0 94 -36 148t-102 54q-94 0 -186 -79l-7 9q38 51 98 88t127 37q90 0 137 -63.5t47 -174.5zM167 157q0 -57 26.5 -89.5t72.5 -32.5q64 0 120 57 t90 139t48 174q-43 20 -95 20q-112 0 -187 -79t-75 -189z" />
<glyph unicode="&#x220f;" horiz-adv-x="730" d="M173 -136h-147l-2 20l60 15q16 5 24 12.5t12 23.5l151 708l-79 23l4 20h599l2 -20l-60 -15q-31 -8 -36 -38l-152 -706l83 -23l-4 -20h-152l-7 8l164 771h-288l-163 -771z" />
<glyph unicode="&#x2211;" horiz-adv-x="592" d="M487 -136h-486l1 34l364 346l-193 408l13 34h460q-1 -76 -38 -182h-18q-10 56 -21 142q-44 4 -102 4h-211l184 -390l-380 -360h261q73 0 107 5q54 98 80 142h19q-8 -100 -40 -183z" />
<glyph unicode="&#x2212;" d="M547 318h-415l10 46q155 5 414 5l7 -8z" />
<glyph unicode="&#x221a;" horiz-adv-x="594" d="M113 496h145l75 -444l347 704l42 -16l-368 -740h-89l-81 453h-80z" />
<glyph unicode="&#x221e;" horiz-adv-x="844" d="M626 166q-56 0 -91.5 29t-62.5 98q-43 -59 -97.5 -93t-109.5 -34q-60 0 -94.5 38t-34.5 100q0 85 60 149.5t145 64.5q56 0 90 -28.5t63 -99.5q43 60 97.5 94t110.5 34q60 0 94 -37.5t34 -99.5q0 -86 -59.5 -150.5t-144.5 -64.5zM192 308q0 -44 23 -68.5t64 -24.5 q45 0 93 33t85 88q-23 66 -52 99.5t-75 33.5q-59 0 -98.5 -48.5t-39.5 -112.5zM688 469q-45 0 -92.5 -33t-84.5 -88q26 -68 53 -100.5t73 -32.5q59 0 98.5 48.5t39.5 112.5q0 44 -23 68.5t-64 24.5z" />
<glyph unicode="&#x222b;" horiz-adv-x="399" d="M268 -41q-2 -104 -54 -159.5t-130 -55.5q-57 0 -93 30t-36 67q0 20 12.5 33t29.5 16q27 -109 98 -109q45 0 70.5 42.5t26.5 116.5q2 100 2 312.5t1 288.5q1 103 53.5 159t130.5 56q56 0 92.5 -30t36.5 -67q0 -20 -12.5 -33t-29.5 -16q-14 56 -38 82.5t-61 26.5 q-45 0 -70 -42.5t-27 -116.5q-1 -93 -1 -300t-1 -301z" />
<glyph unicode="&#x2248;" d="M251 458q-11 0 -75 -60l-27 19q76 95 116 95q19 0 115.5 -27t114.5 -27q11 0 74 61l28 -19q-74 -95 -116 -95q-19 0 -116.5 26.5t-113.5 26.5zM208 257q-12 0 -74 -60l-27 19q74 95 115 95q19 0 115.5 -27t114.5 -27q12 0 75 61l27 -19q-74 -95 -115 -95 q-19 0 -117.5 26.5t-113.5 26.5z" />
<glyph unicode="&#x2260;" d="M163 117l71 104h-122l10 46q43 1 146 3l100 145h-215l11 47q51 2 238 4l85 123l11 3l35 -21l-73 -105q47 1 118 1l6 -8l-15 -44h-144l-100 -144q81 1 212 1l6 -8l-16 -43h-237l-87 -127l-3 -1z" />
<glyph unicode="&#x2264;" horiz-adv-x="589" d="M165 408l459 195l-12 -60l-362 -153l299 -143l-12 -55q-28 14 -179.5 87t-197.5 99l-1 3zM501 81h-415l10 47q155 5 414 5l7 -8z" />
<glyph unicode="&#x2265;" d="M570 387l-459 -195l12 60l362 153l-299 143l12 55q28 -14 179.5 -87t197.5 -99l1 -3zM509 81h-416l10 47q155 5 415 5l6 -8z" />
<glyph unicode="&#x25ca;" horiz-adv-x="613" d="M117 330l6 30l284 328l66 5l146 -338l-7 -31l-286 -326l-66 -5zM432 647l-260 -307l125 -296l6 1l262 299l-128 303h-5z" />
<glyph unicode="&#x25fc;" horiz-adv-x="510" d="M0 510h510v-510h-510v510z" />
<glyph unicode="&#xa7b6;" horiz-adv-x="789" d="M315 0h-285q4 86 34 168h19l7 -46q2 -44 9 -77q36 -9 98 -9h71q-94 104 -94 250q0 103 47 197t132 153.5t186 59.5q98 0 153.5 -63.5t55.5 -171.5q0 -127 -62.5 -238.5t-170.5 -186.5h71q62 0 101 9q21 35 42 77l26 46h18q-8 -97 -36 -168h-286l-5 37q104 75 164 189 t60 239q0 89 -36.5 140.5t-104.5 51.5q-60 0 -113.5 -35.5t-89 -91.5t-56 -123.5t-20.5 -133.5q0 -142 87 -236z" />
<glyph unicode="&#xfb01;" horiz-adv-x="524" d="M165 -1q-25 -120 -81 -187.5t-133 -67.5q-41 0 -67 18.5t-26 45.5q0 24 21 35q39 -52 86 -52t74.5 46.5t48.5 144.5l100 471h-70l2 14l75 22h1l4 19q25 115 86 181.5t143 66.5q50 0 84 -29t34 -71q0 -20 -15.5 -33t-40.5 -12q-22 100 -89 100q-23 0 -41.5 -11.5 t-30.5 -26.5t-23.5 -47t-17.5 -54.5t-17 -67.5l-4 -16h163q88 0 88 -67q0 -20 -10 -66t-28 -119t-24 -102q-10 -48 -10 -63q0 -26 18 -26q27 0 92 88l8 -6q-26 -55 -61.5 -96t-74.5 -41q-56 0 -56 66q0 25 11 78q9 39 26 109.5t27 114.5t10 59q0 36 -45 36h-141z" />
<glyph unicode="&#xfb02;" horiz-adv-x="554" d="M165 -1q-25 -120 -81 -187.5t-133 -67.5q-41 0 -67 18.5t-26 45.5q0 24 21 35q39 -52 86 -52t74.5 46.5t48.5 144.5l100 471h-70l2 14l75 22h1l4 19q24 114 92 181t156 67q37 0 64 -15q39 10 70 14l8 -8l-134 -613q-10 -58 -10 -63q0 -26 18 -26q27 0 92 88l8 -6 q-26 -55 -61.5 -96t-74.5 -41q-56 0 -56 66q0 27 12 78l117 536q-32 41 -83 41q-59 0 -91.5 -49.5t-51.5 -143.5l-7 -30h125l-7 -35h-125z" />
<glyph unicode="&#xfb06;" horiz-adv-x="705" d="M353 132q0 -63 -45 -102.5t-121 -39.5q-59 0 -98 27t-39 70q0 58 61 91l8 -7q-12 -37 -11 -67q3 -37 27.5 -59t61.5 -22t61 22.5t24 62.5q0 28 -16.5 54.5t-40 49t-47 46t-40 54t-16.5 64.5q0 55 46.5 92.5t115.5 37.5q12 0 32 -2q11 96 75.5 161t153.5 65q56 0 88.5 -30 t32.5 -79q0 -73 -69 -133h170l-8 -35h-148l-63 -296q-6 -31 -6 -55q0 -58 43 -58q57 0 139 95l8 -6q-79 -143 -185 -143q-38 0 -59 26.5t-21 71.5q0 32 7 63l64 302h-81l3 20q63 15 100 53.5t37 84.5q0 35 -21 55.5t-57 20.5q-68 0 -115.5 -55.5t-56.5 -135.5q58 -22 58 -72 q0 -23 -12 -37t-31 -14q-22 0 -35.5 25t-13.5 69q-16 8 -34 8q-37 0 -61.5 -22.5t-24.5 -58.5q0 -34 25 -68.5t55 -60t55 -61.5t25 -72z" />
<glyph horiz-adv-x="408" d="M399 29q-20 -43 -49 -75t-59 -32q-46 0 -46 54q0 20 9 61l18 83q-92 -198 -165 -198q-28 0 -46 26.5t-18 72.5q0 120 69 212t163 92q57 0 99 -22l-6 -16l-53 -250q-8 -42 -8 -48q0 -22 14 -22q22 0 70 67zM106 28q0 -55 27 -55q32 0 83 85t73 152l17 72q-21 14 -51 14 q-54 0 -101.5 -84t-47.5 -184z" />
<glyph horiz-adv-x="381" d="M302 325q31 0 47.5 -27.5t16.5 -75.5q0 -120 -60.5 -210t-148.5 -90q-52 0 -113 22l6 17l97 462l11 52l-57 14v8q60 17 120 23l6 -6l-19 -91q-21 -96 -65 -288q14 29 22 45.5t26 48t33 49t36.5 32.5t41.5 15zM274 275q-31 0 -74.5 -74.5t-67.5 -139.5l-20 -96 q26 -14 57 -14q54 0 94 84t40 180q0 60 -29 60z" />
<glyph horiz-adv-x="312" d="M246 325q36 0 57.5 -21.5t21.5 -55.5q0 -27 -14.5 -47t-34.5 -20q-10 0 -21 7q16 32 16 64q0 44 -36 44q-45 0 -84.5 -74t-39.5 -158q0 -98 67 -98q48 0 112 74l7 -5q-62 -113 -146 -113q-51 0 -77 34.5t-26 96.5q0 105 61.5 188.5t136.5 83.5z" />
<glyph horiz-adv-x="408" d="M315 37q-8 -46 -8 -51q0 -19 14 -19q21 0 71 67l7 -5q-20 -43 -49 -75t-59 -32q-45 0 -45 57q0 20 9 58l19 88q-22 -49 -45.5 -90t-57.5 -77t-64 -36q-29 0 -46.5 25.5t-17.5 71.5q0 121 68.5 213.5t163.5 92.5q21 0 40 -3l23 101l11 52l-74 14v8q55 14 136 23l7 -6 l-20 -91zM106 25q0 -52 27 -52q32 0 83 85.5t74 152.5l16 72q-22 15 -51 15q-55 0 -102 -85t-47 -188z" />
<glyph horiz-adv-x="319" d="M294 35q-61 -113 -146 -113q-47 0 -73 36t-26 99q0 101 60.5 184.5t135.5 83.5q35 0 56 -19.5t21 -51.5q0 -59 -60 -99.5t-139 -44.5h-8q-3 -22 -3 -46q0 -46 17 -71.5t47 -25.5q48 0 111 73zM235 296q-36 0 -69 -48t-47 -116q63 5 104.5 42t41.5 86q0 36 -30 36z" />
<glyph horiz-adv-x="211" d="M96 -71q-20 -93 -64.5 -146t-104.5 -53q-32 0 -53 14.5t-21 35.5q-1 19 16 29q32 -41 67 -41q36 0 57.5 36.5t37.5 112.5l75 366h-55l3 11l58 18l3 15q18 89 64.5 141.5t106.5 52.5q33 0 55 -15.5t22 -37.5q0 -27 -26 -37q-35 53 -75 53q-35 0 -51.5 -35t-32.5 -115 l-5 -23h100l-6 -28h-99z" />
<glyph horiz-adv-x="317" d="M201 325q118 0 159 10q5 -8 5 -19q0 -29 -32 -29q-19 0 -79 15q40 -29 40 -82q0 -42 -16 -77.5t-39.5 -59t-47 -42t-40 -33t-16.5 -24.5q0 -12 37 -33q2 -2 4 -3l39 -24t28 -21t21 -26.5t6 -29.5q0 -45 -47.5 -81t-127.5 -36q-63 0 -100.5 25t-37.5 62q0 48 73 90l8 -7 q-28 -35 -28 -63q0 -35 30 -57.5t73 -22.5q44 0 72.5 20t28.5 50q0 21 -16.5 37.5t-53.5 37.5q-50 28 -60 42q-7 11 -7 23q0 17 17.5 34t59.5 44h-3q-47 0 -75.5 30.5t-28.5 79.5q0 69 45.5 119.5t108.5 50.5zM105 156q0 -39 14 -61.5t37 -22.5q32 0 56 49t24 111 q-2 67 -46 67q-34 0 -59.5 -45t-25.5 -98z" />
<glyph horiz-adv-x="411" d="M221 520l6 -6l-19 -91q-34 -158 -67 -292q94 194 172 194q26 0 40 -17t14 -43q0 -35 -29 -146.5t-29 -132.5q0 -19 14 -19q22 0 70 67l7 -5q-19 -42 -47.5 -74.5t-59.5 -32.5q-46 0 -46 54q0 31 28.5 136.5t28.5 134.5q0 30 -22 30q-33 0 -79.5 -75.5t-69.5 -139.5 l-29 -134q-43 -5 -52 -5t-7 10l113 541l-57 15v8q40 12 120 23z" />
<glyph horiz-adv-x="221" d="M190 403q-15 0 -24 10t-9 27q0 22 15 38t35 16q14 0 23 -9t9 -24q0 -24 -14.5 -41t-34.5 -17zM51 214l-7 5q20 43 48 74.5t59 31.5q45 0 45 -53q0 -27 -27.5 -147.5t-27.5 -138.5q0 -19 14 -19q22 0 70 67l7 -5q-19 -42 -47.5 -74.5t-59.5 -32.5q-46 0 -46 56 q0 28 28 145.5t28 137.5t-14 20q-18 0 -70 -67z" />
<glyph horiz-adv-x="238" d="M186 403q-14 0 -23.5 9.5t-9.5 24.5q0 23 14.5 40t35.5 17q14 0 23.5 -9t9.5 -24q0 -24 -14.5 -41t-35.5 -17zM-17 -270q-32 0 -53.5 14.5t-21.5 35.5q0 19 18 29q30 -41 66 -41q37 0 58 36t37 113q68 326 68 342q0 22 -14 22q-20 0 -70 -67l-7 4q20 43 48 75t59 32 q46 0 46 -52q0 -18 -65 -344q-20 -93 -64.5 -146t-104.5 -53z" />
<glyph horiz-adv-x="391" d="M221 520l6 -6l-19 -91q-38 -171 -68 -291q91 193 182 193q31 0 47.5 -17.5t16.5 -43.5q0 -49 -47 -92.5t-102 -67.5q32 -77 50.5 -107t33.5 -30q21 0 69 67l8 -5q-20 -42 -49 -74.5t-58 -32.5q-32 0 -54 36t-57 135l4 8q55 22 97 63.5t42 84.5q0 31 -27 31 q-37 0 -80.5 -59t-83.5 -159l-29 -134l-25 -2q-24 -3 -27 -3q-9 0 -6 10l113 542l-57 14v8q60 17 120 23z" />
<glyph horiz-adv-x="220" d="M126 37q-9 -41 -8 -51q2 -19 15 -19q22 0 70 67l7 -5q-21 -43 -49 -75t-58 -32q-44 0 -46 54q0 20 9 61l81 386l11 52l-57 14v8q60 17 120 23l6 -6l-19 -91z" />
<glyph horiz-adv-x="623" d="M48 214l-8 4q20 43 48.5 75t58.5 32q44 0 44 -50q0 -25 -25 -132q17 32 26 48.5t28.5 46.5t34.5 45.5t36 28.5t42 13q24 0 37 -17t13 -43q0 -34 -26 -128q91 188 167 188q26 0 40 -17t14 -43q0 -35 -28.5 -146.5t-28.5 -132.5q0 -19 14 -19q21 0 71 67l7 -5 q-20 -43 -49 -75t-59 -32q-46 0 -46 54q0 31 28.5 138t28.5 136q0 27 -22 27q-33 0 -80.5 -77t-69.5 -140l-28 -132l-28 -2q-21 -3 -26 -3q-7 0 -7 8q0 3 2 9q68 285 68 310q0 27 -22 27q-33 0 -79.5 -75.5t-70.5 -140.5l-28 -133l-25 -2q-24 -3 -27 -3q-7 0 -7 8q0 6 1 9 q65 261 65 318q0 22 -13 22q-20 0 -71 -66z" />
<glyph horiz-adv-x="432" d="M48 213l-8 5q54 107 107 107q43 0 43 -52q0 -24 -26 -138q19 37 32.5 60.5t37 58.5t48 53t49.5 18q27 0 41.5 -17t14.5 -43q0 -35 -29 -145t-29 -132q0 -21 15 -21q22 0 70 67l8 -5q-54 -107 -109 -107q-46 0 -46 54q0 31 28.5 137t28.5 135t-23 29q-32 0 -77.5 -74 t-70.5 -141l-28 -134l-27 -3q-10 -2 -25 -2q-8 0 -8 8q0 3 2 9q17 70 41 184t24 135t-14 21q-20 0 -70 -67z" />
<glyph horiz-adv-x="365" d="M342 182q0 -108 -55.5 -184t-127.5 -76q-48 0 -78 38.5t-30 101.5q0 105 56.5 184t127.5 79q52 0 79.5 -38t27.5 -105zM114 52q0 -48 13.5 -75t38.5 -27q46 0 79.5 82t33.5 174q0 91 -49 91q-45 0 -80.5 -79.5t-35.5 -165.5z" />
<glyph horiz-adv-x="401" d="M58 -268q-14 -2 -26 -2q-10 0 -7 8l93 444q14 72 14 78q0 20 -14 20q-19 0 -70 -66l-8 4q20 43 48 75t58 32q45 0 45 -50q0 -13 -27 -140q13 28 21.5 45.5t27 48t33.5 49t36.5 33t41.5 14.5q31 0 47 -27t16 -74q0 -121 -60 -211.5t-148 -90.5q-33 0 -54 5l-41 -192z M295 275q-30 0 -73.5 -74.5t-68.5 -140.5l-20 -96q28 -14 57 -14q55 0 94.5 85t39.5 183q0 57 -29 57z" />
<glyph horiz-adv-x="386" d="M226 -268q-16 -2 -26 -2t-8 10l81 381h-1q-35 -78 -79 -138.5t-86 -60.5q-28 0 -46 26.5t-18 72.5q0 120 69 212t163 92q57 0 99 -22l-6 -16l-116 -552zM106 28q0 -55 27 -55q32 0 83 85.5t74 152.5l16 71q-21 14 -51 14q-54 0 -101.5 -84t-47.5 -184z" />
<glyph horiz-adv-x="333" d="M104 -74q-24 -3 -27 -3q-9 0 -7 8l23 105q44 204 44 224t-13 20q-20 0 -71 -66l-8 4q20 43 48.5 75t58.5 32q44 0 44 -50q0 -25 -25 -133q23 50 41 84t48 66.5t58 32.5q18 0 28.5 -10t11.5 -25q0 -31 -21 -54q-24 24 -45 24q-34 0 -79.5 -80t-54.5 -122l-28 -130z" />
<glyph horiz-adv-x="321" d="M273 34q0 -50 -35.5 -81t-96.5 -31q-47 0 -78.5 21t-31.5 54q0 47 48 71l8 -5q-9 -25 -8 -52q3 -28 22 -44.5t48 -16.5q28 0 46 16t18 46q0 27 -20 54t-44 46t-44 49.5t-20 62.5q0 43 35.5 72t87.5 29q46 0 73 -19.5t27 -48.5q0 -46 -42 -73l-8 6q6 26 4 49q-5 59 -57 59 q-26 0 -42.5 -16.5t-16.5 -42.5t20 -53.5t43.5 -47t43.5 -48t20 -56.5z" />
<glyph horiz-adv-x="270" d="M131 -78q-30 0 -47 21t-17 57q0 22 6 48l49 235h-62l1 11l68 20l71 115l12 -1l-25 -117h117l-5 -28h-118l-49 -230q-5 -25 -5 -42q0 -45 35 -45q45 0 107 74l7 -5q-27 -50 -64.5 -81.5t-80.5 -31.5z" />
<glyph horiz-adv-x="438" d="M428 29q-19 -42 -47.5 -74.5t-59.5 -32.5q-44 0 -46 54q0 21 25 135q-18 -40 -40 -78t-57 -74.5t-66 -36.5q-26 0 -40.5 17.5t-14.5 46.5q0 33 28 141.5t28 133.5q0 19 -14 19q-7 0 -15 -5t-19 -18l-16.5 -19.5t-19.5 -24.5l-7 5q19 42 47.5 74.5t59.5 32.5q46 0 46 -53 q0 -31 -28.5 -136.5t-27.5 -135.5q0 -27 20 -27q31 0 79.5 76.5t73.5 147.5l26 123l26 3q16 2 27 2q9 0 7 -9l-59 -279q-8 -46 -8 -51q0 -19 15 -19q22 0 70 67z" />
<glyph horiz-adv-x="333" d="M125 -72l-30 2q14 220 13 246q0 57 -6.5 80.5t-22.5 23.5q-22 0 -71 -67l-8 4q21 44 50 76t59 32q56 0 56 -103q0 -100 -15 -238q55 76 90.5 160.5t35.5 141.5q0 18 -2 32q10 7 26 7q39 0 39 -41q0 -57 -67.5 -168t-146.5 -188z" />
<glyph horiz-adv-x="520" d="M526 287q0 -55 -70 -167.5t-149 -191.5l-31 2q14 199 13 246v18q-55 -156 -164 -266l-30 2q13 212 13 246q-1 58 -7.5 81t-22.5 23q-22 0 -71 -67l-7 5q21 44 49.5 75.5t58.5 31.5q57 0 57 -103q0 -104 -16 -238q60 82 93 166t39 151q0 9 -2 19q10 5 26 5q23 0 32 -20.5 t10 -73.5q0 -95 -16 -246q58 80 95 163t37 143q0 13 -2 27q9 7 26 7q39 0 39 -38z" />
<glyph horiz-adv-x="355" d="M242 56q15 -55 22.5 -72t17.5 -17q18 0 61 67l7 -5q-48 -107 -95 -107q-26 0 -38 25t-36 109l-14 51q-81 -102 -81 -160q0 -4 0.5 -11.5t0.5 -10.5q-14 -6 -25 -6q-16 0 -26.5 9t-10.5 25q0 59 137 173l-18 63q-15 56 -22.5 73.5t-17.5 17.5q-18 0 -62 -66l-7 4 q19 43 44.5 75t51.5 32q25 0 37 -25t37 -111l12 -45q80 99 80 158q0 10 -2 20q12 6 25 6q36 0 36 -35q0 -59 -133 -169z" />
<glyph horiz-adv-x="360" d="M122 325q66 0 66 -130q0 -122 -42 -251q71 68 109 153t38 171q0 24 -4 50q9 7 25 7q42 0 42 -59q0 -86 -59.5 -186.5t-163.5 -174.5q-30 -79 -72 -127t-93 -48q-29 0 -47 12.5t-18 31.5q0 18 17 29q22 -32 53 -32q70 0 116 163q37 125 37 246q0 100 -33 100 q-21 0 -64 -67l-8 5q18 44 45 75.5t56 31.5z" />
<glyph horiz-adv-x="328" d="M89 -55q-37 0 -63 -23l-17 20q17 21 61 73t64.5 77t52.5 66t58 77q-73 31 -113 31q-21 0 -34.5 -14.5t-34.5 -53.5l-8 4q9 35 14.5 52t14.5 36.5t20 27t26 7.5q56 0 134 -64q14 20 44 64q27 -6 27 -28q0 -18 -23 -41q-34 -43 -69.5 -84.5t-88.5 -100.5t-77 -86q22 7 51 7 q14 0 55.5 -6.5t52.5 -6.5q15 0 36 29q17 27 25 40l9 -4q-16 -50 -24 -67q-24 -55 -51 -55q-15 0 -68.5 11.5t-73.5 11.5z" />
<glyph horiz-adv-x="408" d="M490 458q-21 -42 -49.5 -74.5t-58.5 -32.5q-46 0 -46 54q0 20 9 61l18 84q-91 -199 -165 -199q-28 0 -46 26.5t-18 72.5q0 121 69 212.5t163 91.5q55 0 99 -21l-6 -17l-53 -250q-8 -42 -8 -47q0 -23 14 -23q22 0 70 67zM197 457q0 -55 27 -55q32 0 83 85t73 152l17 72 q-23 15 -51 15q-54 0 -101.5 -84t-47.5 -185z" />
<glyph horiz-adv-x="380" d="M393 754q31 0 47.5 -27.5t16.5 -75.5q0 -120 -60.5 -210t-148.5 -90q-52 0 -113 22l6 17l97 462l11 53l-57 13v8q56 16 120 24l6 -7l-19 -91q-21 -96 -65 -288q14 29 22 45.5t26 48t33 49t36.5 32.5t41.5 15zM365 704q-31 0 -74.5 -74.5t-67.5 -138.5l-20 -97 q26 -14 57 -14q54 0 94 84t40 180q0 60 -29 60z" />
<glyph horiz-adv-x="311" d="M337 754q36 0 57.5 -21.5t21.5 -55.5q0 -27 -14.5 -47t-34.5 -20q-11 0 -21 7q16 34 16 64q0 44 -36 44q-45 0 -84 -73.5t-39 -157.5q0 -98 66 -98q49 0 112 73l7 -5q-27 -51 -65 -82t-81 -31q-50 0 -76 35t-26 97q0 104 61 187.5t136 83.5z" />
<glyph horiz-adv-x="408" d="M406 466q-8 -46 -8 -50q0 -20 14 -20q21 0 71 67l7 -5q-21 -42 -49.5 -74.5t-58.5 -32.5q-45 0 -45 58q0 19 9 57l19 88q-22 -49 -45.5 -90t-57.5 -77t-64 -36q-29 0 -46.5 26t-17.5 72q0 121 68.5 213t163.5 92q20 0 40 -3l23 101l11 52l-74 14v8q46 12 136 24l7 -7 l-20 -91zM197 455q0 -53 27 -53q32 0 83 85.5t74 153.5l16 71q-20 15 -51 15q-55 0 -102 -85t-47 -187z" />
<glyph horiz-adv-x="318" d="M385 464q-61 -113 -146 -113q-47 0 -73 36t-26 99q0 101 60.5 184.5t135.5 83.5q35 0 56 -19.5t21 -51.5q0 -59 -60 -99.5t-139 -44.5h-8q-3 -23 -3 -45q0 -46 17 -72t47 -26q48 0 111 73zM326 725q-36 0 -69 -48t-47 -116q63 6 104.5 43t41.5 85q0 36 -30 36z" />
<glyph horiz-adv-x="211" d="M187 359q-20 -94 -64 -147t-105 -53q-32 0 -53 14.5t-21 35.5t17 29q31 -41 66 -41q36 0 57.5 36.5t37.5 112.5l75 366h-54l2 11l58 18l3 16q18 88 64.5 140.5t107.5 52.5q33 0 54.5 -15.5t21.5 -37.5q0 -27 -26 -37q-35 53 -75 53q-35 0 -51.5 -34.5t-32.5 -114.5 l-4 -24h99l-6 -28h-99z" />
<glyph horiz-adv-x="318" d="M293 754q112 0 159 10q5 -8 5 -18q0 -30 -32 -30q-21 0 -79 15q40 -27 40 -82q0 -42 -16.5 -77.5t-40 -59t-46.5 -41.5t-39.5 -32.5t-16.5 -24.5q0 -9 9 -16.5t28 -18.5q3 -1 4 -2l39 -24t28 -21t21 -26.5t6 -29.5q0 -45 -47.5 -80.5t-127.5 -35.5q-63 0 -100.5 24.5 t-37.5 61.5q0 49 73 91l8 -8q-28 -33 -28 -63q0 -35 29.5 -57t72.5 -22q45 0 73.5 20t28.5 50q0 21 -16.5 37t-53.5 37q-50 28 -60 43q-7 10 -7 23q0 17 17.5 33t59.5 44h-3q-47 0 -75.5 30t-28.5 80q0 69 45.5 119.5t108.5 50.5zM197 585q0 -38 14 -61t37 -23q32 0 56 49 t24 111q-2 68 -46 68q-34 0 -59.5 -45t-25.5 -99z" />
<glyph horiz-adv-x="410" d="M312 950l6 -7l-19 -90q-34 -158 -67 -292q94 193 172 193q26 0 40 -16.5t14 -42.5q0 -35 -29 -147t-29 -132t14 -20q22 0 70 67l7 -5q-20 -42 -48 -74.5t-59 -32.5q-46 0 -46 54q0 31 28.5 137t28.5 135t-22 29q-33 0 -79.5 -75.5t-69.5 -139.5l-29 -133q-39 -6 -52 -6 q-9 0 -7 10l113 541l-57 15v8q32 10 120 24z" />
<glyph horiz-adv-x="238" d="M278 832q-14 0 -23.5 9t-9.5 25q0 24 14.5 40.5t35.5 16.5q14 0 23.5 -9t9.5 -24q0 -24 -15 -41t-35 -17zM75 159q-32 0 -53.5 14.5t-21.5 35.5q0 20 18 29q30 -41 66 -41t57.5 36t37.5 113q68 326 68 343q0 21 -14 21q-19 0 -71 -67l-6 4q51 108 107 108q45 0 45 -53 q0 -23 -65 -343q-19 -94 -63 -147t-105 -53z" />
<glyph horiz-adv-x="391" d="M312 950l6 -7l-19 -91q-38 -171 -68 -291q91 193 182 193q31 0 47.5 -17t16.5 -43q0 -50 -47 -93.5t-102 -67.5q32 -77 50.5 -107t33.5 -30q21 0 69 67l8 -5q-20 -42 -49 -74.5t-58 -32.5q-32 0 -54 36.5t-57 135.5l4 7q55 24 97 64.5t42 83.5q0 31 -27 31 q-37 0 -80.5 -58.5t-83.5 -159.5l-29 -133l-25 -3q-24 -3 -27 -3q-9 0 -6 10l113 542l-57 14v8q56 16 120 24z" />
<glyph horiz-adv-x="220" d="M217 466q-9 -41 -8 -50q2 -20 15 -20q22 0 70 67l7 -5q-52 -107 -107 -107q-44 0 -46 54q0 20 9 61l81 386l11 53l-57 13v8q56 16 120 24l6 -7l-19 -91z" />
<glyph horiz-adv-x="624" d="M139 643l-7 5q20 42 48.5 74t58.5 32q44 0 44 -50q0 -29 -26 -131q21 40 34 61.5t36.5 54.5t47.5 49t49 16t38 -17t13 -43q0 -34 -26 -128q91 188 166 188q27 0 41 -17t14 -42q0 -35 -28.5 -146.5t-28.5 -132.5q0 -20 13 -20q22 0 72 67l7 -5q-21 -42 -49.5 -74.5 t-58.5 -32.5q-46 0 -46 54q0 31 28 138t28 136q0 27 -22 27q-33 0 -80 -77t-69 -140l-29 -131l-27 -3q-21 -3 -26 -3q-7 0 -7 8q0 6 1 10q68 277 68 309q0 27 -22 27q-23 0 -55 -42t-56 -89t-38 -85l-28 -132l-26 -3q-21 -3 -26 -3q-7 0 -7 8q0 7 1 10q65 265 65 317 q0 22 -14 22q-20 0 -71 -66z" />
<glyph horiz-adv-x="364" d="M433 611q0 -108 -55.5 -184t-127.5 -76q-48 0 -78 39t-30 102q0 104 56.5 183t127.5 79q52 0 79.5 -38t27.5 -105zM205 482q0 -48 13.5 -75.5t38.5 -27.5q46 0 79.5 82t33.5 174q0 91 -49 91q-45 0 -80.5 -79.5t-35.5 -164.5z" />
<glyph horiz-adv-x="402" d="M150 161q-16 -2 -26 -2t-8 8l94 444q13 67 13 79q0 19 -13 19q-19 0 -70 -66l-8 5q20 42 48 74t58 32q45 0 45 -50q0 -13 -27 -140q17 37 28.5 59t34.5 58t47.5 54.5t49.5 18.5q63 0 63 -101q0 -121 -60.5 -211.5t-148.5 -90.5q-32 0 -53 5l-41 -192zM387 704 q-31 0 -74 -74t-68 -141l-20 -96q26 -14 57 -14q55 0 94.5 85t39.5 183q0 57 -29 57z" />
<glyph horiz-adv-x="386" d="M317 161q-16 -2 -26 -2t-8 10l81 381h-1q-35 -78 -79 -138.5t-86 -60.5q-28 0 -46 26.5t-18 72.5q0 121 69 212.5t163 91.5q55 0 99 -21l-6 -17l-116 -552zM197 457q0 -55 27 -55q32 0 83 85.5t74 153.5l16 70q-23 15 -51 15q-54 0 -101.5 -84t-47.5 -185z" />
<glyph horiz-adv-x="334" d="M196 355q-24 -3 -27 -3q-9 0 -7 8l22 105q45 203 45 225q0 19 -14 19q-7 0 -14.5 -4.5t-19.5 -18t-17 -19t-20 -24.5l-7 5q20 42 48 74t58 32q44 0 44 -50q0 -33 -25 -133q18 38 31 62.5t33 56t41.5 48t42.5 16.5q38 0 40 -35q0 -32 -21 -53q-25 23 -45 23 q-34 0 -79.5 -79t-55.5 -122l-27 -130z" />
<glyph horiz-adv-x="321" d="M364 463q0 -50 -35.5 -81t-96.5 -31q-47 0 -78 21t-32 54q0 46 48 71l8 -4q-9 -27 -8 -52q3 -29 22 -45.5t48 -16.5q28 0 46.5 16.5t18.5 45.5q0 27 -20.5 54t-44.5 46t-44 49t-20 63q0 43 35.5 72t87.5 29q46 0 73 -19.5t27 -48.5q0 -44 -42 -73l-8 6q6 30 5 49 q-6 60 -58 60q-26 0 -42.5 -17t-16.5 -43t20 -53.5t43.5 -47t43.5 -48t20 -56.5z" />
<glyph horiz-adv-x="270" d="M223 351q-30 0 -47 21t-17 57q0 22 6 49l49 234h-62l1 11l68 21l71 114l12 -1l-25 -117h117l-5 -28h-118l-49 -230q-5 -25 -5 -41q0 -45 35 -45q46 0 107 73l7 -5q-27 -50 -64.5 -81.5t-80.5 -31.5z" />
<glyph horiz-adv-x="438" d="M519 458q-20 -42 -48.5 -74.5t-58.5 -32.5q-44 0 -46 54q0 21 25 135q-18 -40 -40 -78t-57 -74.5t-66 -36.5q-26 0 -40.5 18t-14.5 46q0 33 28 141.5t28 133.5q0 19 -14 19q-7 0 -15 -5t-19 -18l-16.5 -19.5t-19.5 -24.5l-7 5q19 42 47.5 74.5t59.5 32.5q46 0 46 -53 q0 -31 -28.5 -136.5t-27.5 -135.5q0 -27 20 -27q31 0 79.5 76.5t73.5 148.5l26 122l26 3q16 2 27 2q9 0 7 -9l-59 -279q-8 -46 -8 -50q0 -20 15 -20q22 0 70 67z" />
<glyph horiz-adv-x="333" d="M216 357l-30 2q14 220 13 246q0 57 -6.5 80.5t-22.5 23.5q-22 0 -71 -67l-8 5q21 44 50 75.5t59 31.5q56 0 56 -103q0 -98 -15 -238q55 76 90.5 161t35.5 141q0 20 -2 32q10 7 26 7q39 0 39 -41q0 -57 -68 -168t-146 -188z" />
<glyph horiz-adv-x="520" d="M617 716q0 -55 -70 -167.5t-149 -191.5l-31 2q14 199 13 246v18q-55 -156 -164 -266l-30 2q13 212 13 246q-1 58 -7.5 81t-22.5 23q-22 0 -71 -67l-7 5q21 44 49.5 75.5t58.5 31.5q57 0 57 -102q0 -105 -16 -239q118 161 132 318q0 8 -2 18q10 5 26 5q23 0 32 -20t10 -73 q0 -96 -16 -247q58 80 95 163t37 143q0 15 -2 27q9 7 26 7q39 0 39 -38z" />
<glyph horiz-adv-x="355" d="M333 485q15 -55 22.5 -72t17.5 -17q16 0 61 67l7 -5q-48 -107 -95 -107q-26 0 -38 25t-36 109l-14 51q-81 -100 -81 -160q0 -4 0.5 -11.5t0.5 -10.5q-14 -6 -25 -6q-16 0 -26.5 9t-10.5 26q0 57 137 173l-18 62q-15 56 -22.5 73.5t-17.5 17.5q-18 0 -62 -66l-7 4 q19 43 44.5 75t51.5 32q25 0 37 -25t37 -111l12 -45q80 99 80 158q0 10 -2 20q9 6 25 6q36 0 36 -34q0 -60 -133 -170z" />
<glyph horiz-adv-x="360" d="M214 754q66 0 66 -130q0 -117 -42 -251q71 68 109 153.5t38 170.5q0 28 -5 50q9 7 25 7q42 0 42 -59q0 -86 -59.5 -186.5t-163.5 -174.5q-30 -79 -72 -127t-92 -48q-29 0 -47 12.5t-18 31.5q-1 17 16 29q22 -32 53 -32q70 0 116 163q39 132 37 246q0 100 -33 100 q-21 0 -64 -67l-8 5q18 43 45.5 75t56.5 32z" />
<glyph horiz-adv-x="328" d="M180 374q-35 0 -63 -23l-17 20q192 231 237 293q-75 31 -114 31q-21 0 -35 -15t-34 -53l-8 4q12 47 19.5 68.5t21.5 38t34 16.5q56 0 134 -64q4 5 44 64q27 -6 27 -28q1 -15 -23 -41q-34 -42 -70.5 -84.5t-86.5 -99t-77 -87.5q18 7 51 7q14 0 55 -6.5t52 -6.5q15 0 36 29 q4 6 12.5 19t13.5 21l8 -4q-13 -45 -24 -67q-23 -55 -51 -55q-15 0 -68.5 11.5t-73.5 11.5z" />
<glyph horiz-adv-x="891" d="M383 133q-35 -64 -83 -103.5t-102 -39.5q-62 0 -94 42.5t-32 119.5q0 89 36.5 171.5t95.5 132.5t121 50q12 0 18 -1q31 101 123.5 171.5t212.5 79.5l8 -8l-25 -116q-40 -183 -90 -377q62 126 116 188.5t106 62.5q32 0 49 -21.5t17 -54.5q0 -22 -8 -61.5t-16.5 -73.5 t-23 -86.5t-19.5 -74.5q-10 -48 -10 -63q0 -26 18 -26q27 0 92 88l8 -6q-26 -55 -61.5 -96t-74.5 -41q-56 0 -56 66q0 27 12 78q7 31 24.5 96.5t28.5 112t11 68.5q0 36 -28 36q-42 0 -102.5 -96.5t-93.5 -182.5l-8 -34l-28 -136l-32 -4q-27 -3 -31 -3q-12 0 -8 22l27 121 l124 570q-79 -16 -143.5 -71t-87.5 -137q47 -22 47 -74q0 -30 -13.5 -48t-34.5 -18q-19 0 -30.5 18t-11.5 48q0 23 3 44q-7 4 -18 4q-42 0 -81.5 -46t-63.5 -117.5t-24 -143.5q0 -119 83 -119q61 0 145 95z" />
<glyph horiz-adv-x="715" d="M383 133q-35 -64 -83 -103.5t-102 -39.5q-62 0 -94 42.5t-32 119.5q0 89 36.5 171.5t95.5 132.5t121 50h6q14 97 76 160.5t148 63.5q55 0 87.5 -30t32.5 -79q0 -72 -68 -133h169l-7 -35h-148l-64 -296q-6 -31 -6 -55q0 -58 44 -58q56 0 139 95l8 -6q-79 -143 -185 -143 q-38 0 -59 26.5t-21 71.5q0 32 7 63l64 302h-81l3 20q63 15 100 53.5t37 84.5q0 35 -21 55.5t-57 20.5q-65 0 -111 -54t-56 -133q59 -20 59 -86q0 -25 -12.5 -41.5t-30.5 -16.5q-50 0 -50 104v8q-6 2 -12 2q-42 0 -81.5 -46t-63.5 -117.5t-24 -143.5q0 -119 83 -119 q61 0 145 95z" />
<glyph horiz-adv-x="875" d="M353 132q0 -63 -45 -102.5t-121 -39.5q-59 0 -98 27t-39 70q0 58 61 91l8 -7q-12 -37 -11 -67q3 -37 27.5 -59t61.5 -22t61 22.5t24 62.5q0 28 -16.5 54.5t-40 49t-47 46t-40 54t-16.5 64.5q0 55 46.5 92.5t115.5 37.5q25 0 42 -4q28 98 119 171.5t219 82.5l8 -8 l-26 -116q-40 -183 -90 -377q62 126 116 188.5t106 62.5q32 0 49 -21.5t17 -54.5q0 -22 -8 -61.5t-16.5 -73.5t-23 -86.5t-19.5 -74.5q-10 -58 -10 -63q0 -26 18 -26q27 0 92 88l8 -6q-26 -55 -61.5 -96t-74.5 -41q-56 0 -56 66q0 27 12 78q7 31 24.5 96.5t28.5 112t11 68.5 q0 36 -28 36q-42 0 -102.5 -96.5t-93.5 -182.5l-7 -34l-29 -136l-32 -4q-27 -3 -31 -3q-12 0 -7 22l26 121l124 570q-80 -17 -145 -73t-87 -139q48 -22 48 -68q0 -23 -13 -37t-34 -14q-19 0 -30.5 16t-11.5 42q0 23 2 35q-15 9 -39 9q-37 0 -61.5 -22.5t-24.5 -58.5 q0 -34 25 -68.5t55 -60t55 -61.5t25 -72z" />
<glyph horiz-adv-x="575" d="M369 538h46l72 -472q2 -18 7.5 -26t18.5 -13l42 -11l-2 -16h-205l-3 16l72 21l-20 134l-205 -4l-77 -130l66 -21l-3 -16h-174l-2 16l47 15q26 9 40 34zM213 203h179l-37 243z" />
</font>
</defs>
</svg>
