<?xml version="1.0" standalone="no"?>
<!DOCTYPE svg PUBLIC "-//W3C//DTD SVG 1.1//EN" "http://www.w3.org/Graphics/SVG/1.1/DTD/svg11.dtd" >
<svg xmlns="http://www.w3.org/2000/svg" xmlns:xlink="http://www.w3.org/1999/xlink" version="1.1">
<metadata></metadata>
<defs>
<font id="indivisa_text_serifBlkIt" horiz-adv-x="620" >
<font-face units-per-em="1000" ascent="750" descent="-250" />
<missing-glyph horiz-adv-x="250" />
<glyph unicode="&#xfb00;" horiz-adv-x="719" d="M255 20q-28 -134 -107.5 -207t-181.5 -73q-55 0 -88.5 21t-33.5 55q0 39 37 54q30 -37 70 -37q85 0 118 157l93 440h-63l3 20l72 35l5 25q22 94 110 162t188 68q103 0 147 -54q88 74 191 74q59 0 96 -26t37 -64q0 -37 -23.5 -61.5t-54.5 -33.5q-55 99 -110 99 q-18 0 -30 -9.5t-17.5 -28.5t-8 -37.5t-5 -45.5t-6.5 -43l-6 -30h117l-11 -50h-117l-87 -410q-28 -134 -103 -207t-171 -73q-48 0 -77.5 21t-29.5 55q0 39 37 54q24 -37 55 -37q36 0 61 37.5t42 119.5l93 440h-154zM354 486l-1 -6h154l6 30q7 34 27 73q-38 71 -108 71 q-23 0 -37 -8.5t-20 -27t-8.5 -36t-5.5 -47t-7 -49.5z" />
<glyph unicode="&#xfb03;" horiz-adv-x="981" d="M255 20q-28 -134 -107.5 -207t-181.5 -73q-55 0 -88.5 21t-33.5 55q0 39 37 54q30 -37 70 -37q85 0 118 157l93 440h-63l3 20l72 35l5 25q22 94 110 162t188 68q107 0 148 -56q92 76 210 76q77 0 125 -31.5t48 -78.5q0 -36 -36 -59.5t-92 -25.5q-42 109 -110 109 q-16 0 -28.5 -6t-21 -19t-14 -25t-9 -33.5t-5 -35.5t-4 -39t-3.5 -36h159q68 0 105 -26.5t37 -74.5q0 -28 -40 -199q-11 -53 -11 -65q0 -19 17 -19q22 0 72 41l10 -10q-29 -56 -77 -96.5t-105 -40.5q-47 0 -73 26.5t-26 74.5q0 34 13 89q44 204 44 217q0 33 -45 33h-89 l-87 -410q-28 -134 -103 -207t-171 -73q-48 0 -77.5 21t-29.5 55q0 39 37 54q24 -37 55 -37q36 0 61 37.5t42 119.5l93 440h-154zM354 486l-1 -6h154l6 30q9 38 27 72q-39 72 -108 72q-23 0 -37 -8.5t-20 -27t-8.5 -36t-5.5 -47t-7 -49.5z" />
<glyph unicode="&#xfb04;" horiz-adv-x="1005" d="M255 20q-28 -134 -107.5 -207t-181.5 -73q-55 0 -88.5 21t-33.5 55q0 39 37 54q30 -37 70 -37q85 0 118 157l93 440h-63l3 20l72 35l5 25q22 94 110 162t188 68q103 0 147 -54q88 74 191 74q53 0 91 -23q73 17 156 23l8 -10l-124 -570q-11 -53 -11 -65q0 -19 17 -19 q22 0 72 41l10 -10q-29 -56 -77 -96.5t-105 -40.5q-47 0 -73 26.5t-26 74.5q0 34 13 89l93 436q-42 58 -99 58q-18 0 -30 -9.5t-17.5 -28.5t-8 -37.5t-5 -45.5t-6.5 -43l-6 -30h107l-11 -50h-107l-87 -410q-28 -134 -107.5 -207t-181.5 -73q-55 0 -88.5 21t-33.5 55 q0 39 37 54q30 -37 70 -37q85 0 118 157l93 440h-154zM354 486l-1 -6h154l6 30q7 34 27 73q-38 71 -108 71q-23 0 -37 -8.5t-20 -27t-8.5 -36t-5.5 -47t-7 -49.5z" />
<glyph unicode="fi" horiz-adv-x="647" d="M255 20q-28 -134 -107.5 -207t-181.5 -73q-55 0 -88.5 21t-33.5 55q0 39 37 54q30 -37 70 -37q85 0 118 157l93 440h-63l3 20l72 35l5 25q22 104 114.5 177t207.5 73q77 0 125 -31.5t48 -78.5q0 -36 -36 -59.5t-92 -25.5q-42 109 -110 109q-19 0 -33 -9.5t-21.5 -22 t-13 -35.5t-7.5 -39.5t-5 -45.5t-5 -42h159q68 0 105 -26.5t37 -74.5q0 -28 -40 -199q-11 -53 -11 -65q0 -19 17 -19q22 0 72 41l10 -10q-29 -56 -77 -96.5t-105 -40.5q-47 0 -73 26.5t-26 74.5q0 34 13 89q44 204 44 217q0 33 -45 33h-89z" />
<glyph unicode="fl" horiz-adv-x="671" d="M255 20q-28 -134 -107.5 -207t-181.5 -73q-55 0 -88.5 21t-33.5 55q0 39 37 54q30 -37 70 -37q85 0 118 157l93 440h-63l3 20l72 35l5 25q22 102 111 176t191 74q53 0 91 -23q73 17 156 23l8 -10l-124 -570q-11 -53 -11 -65q0 -19 17 -19q22 0 72 41l10 -10 q-29 -56 -77 -96.5t-105 -40.5q-47 0 -73 26.5t-26 74.5q0 34 13 89l93 436q-42 58 -99 58q-18 0 -30 -9.5t-17.5 -28.5t-8 -37.5t-5 -45.5t-6.5 -43l-6 -30h107l-11 -50h-107z" />
<glyph unicode="&#x2f;symbol&#x33;&#x2f;" horiz-adv-x="957" d="M505 638l68 -270h270l-203 -135l136 -270l-271 135l-270 -270l135 405l-270 203l338 -68zM814 87q18 0 30.5 -12.5t12.5 -31.5q0 -18 -12.5 -30.5t-30.5 -12.5t-30.5 12.5t-12.5 30.5q0 19 12.5 31.5t30.5 12.5zM854 43q0 17 -11.5 29t-28.5 12t-28.5 -12t-11.5 -29 t12 -28.5t28 -11.5t28 11.5t12 28.5zM796 68h18q8 0 11 -2q6 -3 6 -10q0 -5 -4 -9q-3 -3 -6 -3q7 -3 8 -10q2 -14 3 -16h-7q-1 2 -2 7.5t-1 6.5q0 9 -10 9h-9v-23h-7v50zM803 47h10q5 0 7 1q3 3 3 6q0 9 -10 9h-10v-16z" />
<glyph unicode="&#x2f;symbol&#x32;&#x2f;" horiz-adv-x="932" d="M494 570l52 -90l-137 -240h-103l137 240l-52 90h103zM357 570l52 -90l-138 -240h-103l138 240l-52 90h103zM752 120h-103l-137 240l51 90l137 -240h103zM683 0h-103l-137 240l51 90l138 -240h103zM100 120l51 90h275l51 -90h-274l-52 -90zM168 0l52 90h274l52 -90h-275 l-51 -90zM789 88q18 0 30.5 -13t12.5 -31t-12.5 -31t-30.5 -13t-30.5 13t-12.5 31t12.5 31t30.5 13zM829 44q0 16 -11.5 28t-28.5 12t-28.5 -12t-11.5 -28t11.5 -28t28.5 -12t28.5 12t11.5 28zM771 69h18q7 0 11 -2q5 -4 5 -11q0 -5 -3 -8q-1 -2 -6 -4q7 -1 8 -9q0 -8 3 -16 h-8q-1 2 -1.5 6.5t-0.5 6.5q-1 10 -11 10h-8v-23h-7v50zM778 47h10q5 0 7 1q3 3 3 7q0 8 -10 8h-10v-16z" />
<glyph unicode="&#x2f;symbol&#x35;&#x2f;" horiz-adv-x="705" d="M232 -6l-132 136l124 234l129 -136zM474 -6l-121 234l128 136l124 -234z" />
<glyph unicode="&#x2f;symbol&#x31;&#x2f;" horiz-adv-x="5534" d="M1865 412q-25 0 -40.5 14.5t-15.5 37.5q0 35 32.5 64t70.5 29q24 0 39 -13.5t15 -37.5q0 -36 -31 -65t-70 -29zM1284 412q-26 0 -41.5 14.5t-15.5 37.5q0 35 33 64t71 29q24 0 38.5 -13.5t14.5 -37.5q0 -36 -31 -65t-69 -29zM959 0q0 42 11 108q-16 -50 -51.5 -82.5 t-78.5 -32.5q-41 0 -63 29.5t-22 82.5q0 62 27 121t84 101t132 42q17 0 25 -1l16 73l6 102l136 7q0 -67 -46 -273t-46 -277h-130zM100 0l78 364q17 86 21 136l128 7l11 -15l-104 -492h-134zM3503 492l-57 -492h-131l20 175q5 50 33 215h-3q-31 -102 -81 -215l-76 -175h-149 l-2 175q-2 121 9 215h-2q-32 -130 -59 -215l-53 -175h-109l154 500l184 6l1 -137q2 -134 -15 -259h2q39 126 94 259l56 131l169 7zM5316 300q-37 -177 -37 -183q0 -34 36 -34q25 0 59 18l-9 -79q-52 -29 -114 -29q-105 0 -105 100q0 20 40 210l-47 1l9 44l54 14l53 95l81 6 l13 -15l-20 -86h99l6 -14l-17 -51zM3936 0q0 74 42 260l5 102l137 7q0 -31 -7 -89h2q53 89 134 89q34 0 53 -19.5t19 -51.5q0 -27 -26 -147q-18 -85 -18 -151h-131q0 55 19 150q15 71 15 87q0 24 -17 24q-34 0 -64 -82.5t-32 -178.5h-131zM3768 369q87 0 145 -32l-28 -128 q-31 -145 -31 -209h-130q0 45 12 112q-15 -52 -51 -85.5t-81 -33.5q-41 0 -63 29.5t-22 83.5q0 46 16 91.5t46 84t79 63t108 24.5zM4653 51q-67 -58 -159 -58q-65 0 -103.5 35t-38.5 102q0 94 68.5 166.5t167.5 72.5q54 0 86.5 -23.5t32.5 -64.5q0 -57 -60 -96.5t-161 -43.5 v-1q0 -64 63 -64q42 0 90 28zM2525 369q88 0 146 -32l-29 -128q-31 -145 -31 -209h-130q0 37 12 112q-15 -52 -51 -85.5t-81 -33.5q-41 0 -62.5 29.5t-21.5 83.5q0 62 26.5 120.5t85 100.5t136.5 42zM2245 256q-52 30 -97 30q-18 0 -30 -7t-12 -19q0 -14 20 -26.5t44 -22 t44 -33t20 -56.5q0 -57 -53 -93t-128 -36q-78 0 -118 28l27 93q57 -38 111 -38q19 0 29.5 7.5t10.5 18.5q0 13 -20 26t-44 23t-44 33t-20 55q0 56 54.5 93t128.5 37q58 0 104 -18zM4716 0q0 79 41 260l6 102l137 7q0 -12 -7 -89h2q52 89 134 89q34 0 53 -19.5t19 -51.5 q0 -27 -26 -147q-19 -90 -19 -151h-130q0 55 19 150q15 78 15 87q0 24 -17 24q-35 0 -65 -82t-32 -179h-130zM1752 0q0 69 26 193l15 67l6 102l137 7q0 -46 -27 -177t-27 -192h-130zM1399 362l140 7q13 -129 -5 -289h2q76 151 91 284q22 5 50 5q32 0 48.5 -8.5t16.5 -33.5 q0 -46 -51 -147.5t-116 -179.5h-149q-5 228 -27 362zM1170 0q0 72 27 193l14 67l6 102l137 7q0 -46 -27 -177t-27 -192h-130zM336 0q0 79 41 260l6 102l137 7q0 -31 -7 -89h2q52 89 134 89q34 0 53 -19.5t19 -51.5q0 -27 -26 -147q-18 -85 -18 -151h-131q0 55 19 150 q15 78 15 87q0 24 -17 24q-34 0 -64 -82.5t-32 -178.5h-131zM4490 177q47 10 73 34t26 59q0 31 -22 31q-28 0 -48.5 -38.5t-28.5 -85.5zM2435 101q23 0 47 43.5t37 100.5q3 14 9 44q-14 8 -27 8q-34 0 -62 -54.5t-28 -101.5q0 -40 24 -40zM913 101q22 0 44.5 39.5t37.5 94.5 q1 9 8 40l3 14q-14 8 -27 8q-33 0 -61.5 -54.5t-28.5 -101.5q0 -40 24 -40zM3677 101q23 0 47 43t38 101q1 8 4.5 24.5t4.5 19.5q-16 8 -27 8q-34 0 -62.5 -54.5t-28.5 -101.5q0 -40 24 -40z" />
<glyph unicode="&#x2f;symbol&#x34;&#x2f;" horiz-adv-x="2607" d="M1684 406q0 65 -11 128l126 14l15 -15v-533h-130v406zM1889 406q0 62 -10 128l126 14l14 -15v-533h-130v406zM427 101v-101h-320v362q0 80 -7 135l126 7l14 -14v-396zM925 21l7 109q62 -36 144 -36q50 0 50 36q0 20 -31.5 41.5t-69 40.5t-69 57t-31.5 88q0 69 55 108 t138 39q80 0 127 -18l-14 -111q-56 29 -111 29q-27 0 -42.5 -11t-15.5 -29q0 -20 20.5 -38t50 -34t59.5 -35t50.5 -51t20.5 -72q0 -66 -53.5 -103.5t-139.5 -37.5q-41 0 -83.5 8t-61.5 20zM2405 213q0 -24 -1 -36l-11 -11h-191q14 -83 98 -83q44 0 84 21l7 -81 q-46 -30 -127 -30q-90 0 -144 47.5t-54 134.5q0 85 52 139t132 54q72 0 113.5 -43t41.5 -112zM795 0l-106 -7q-11 16 -21 49h-4q-34 -49 -104 -49q-43 0 -70 23t-27 66q0 113 191 118v20q0 54 -58 54q-55 0 -108 -29l-8 97q72 26 150 26q154 0 154 -135q0 -25 -2 -69t-2 -70 q0 -51 15 -94zM1626 0l-107 -7q-12 20 -21 49h-3q-34 -49 -105 -49q-43 0 -69.5 23t-26.5 66q0 113 191 118v20q0 54 -58 54q-54 0 -109 -29l-7 97q72 26 150 26q153 0 153 -135q0 -25 -1.5 -69.5t-1.5 -69.5q0 -51 15 -94zM2199 207l78 4q2 14 2 26q0 59 -34 59 q-44 0 -46 -89zM654 74v88q-29 -3 -47 -18t-18 -39q0 -18 10 -29t27 -11q16 0 28 9zM1485 74v88q-29 -3 -47 -18t-18 -39q0 -18 10 -29t27 -11q16 0 28 9zM2464 85q18 0 30.5 -13t12.5 -31t-12.5 -31t-30.5 -13t-31 13t-13 31t13 31t31 13zM2504 41q0 17 -12 28.5t-28 11.5 t-28 -11.5t-12 -28.5t12 -28.5t28 -11.5t28 11.5t12 28.5zM2446 66h18q7 0 11 -3q5 -3 5 -10q0 -5 -3 -9q-3 -3 -6 -3q7 -1 8 -10q0 -7 3 -15h-8q-1 2 -1.5 6.5t-0.5 6.5q-1 9 -11 9h-8v-22h-7v50zM2453 44h10q5 0 7 1q3 3 3 7q0 8 -10 8h-10v-16z" />
<glyph unicode=" "  horiz-adv-x="250" />
<glyph unicode="&#x09;" horiz-adv-x="250" />
<glyph unicode="&#xa0;" horiz-adv-x="250" />
<glyph unicode="!" horiz-adv-x="349" d="M213 680l10 8q72 10 120 10q51 0 51 -34q0 -17 -9 -44l-140 -401h-64zM166 -10q-31 0 -51.5 19t-20.5 51q0 41 33.5 71.5t75.5 30.5q31 0 51 -19t20 -50q0 -42 -33 -72.5t-75 -30.5z" />
<glyph unicode="&#x22;" horiz-adv-x="484" d="M193 754l6 6q40 0 86.5 -8t67.5 -18l6 -17l-171 -306l-46 10l26 156zM423 754l6 6q40 0 86.5 -8t67.5 -18l6 -17l-171 -306l-46 10l26 156z" />
<glyph unicode="#" horiz-adv-x="700" d="M254 -10l-82 15l-8 8l39 157h-121l-8 8l12 82h140l42 170h-119l-8 8l12 82h138l45 180l82 -15l8 -8l-39 -157h145l45 180l82 -15l8 -8l-39 -157h118l8 -8l-12 -82h-137l-42 -170h121l8 -8l-12 -82h-140l-45 -180l-82 15l-8 8l39 157h-145zM322 260h145l42 170h-145z" />
<glyph unicode="$" horiz-adv-x="577" d="M292 -137l-63 -3l-6 8l26 122q-156 4 -178 34q-8 13 -8 34q0 36 20.5 83.5t50.5 81.5l30 -3v-10q0 -84 28 -127q27 -43 88 -43q46 0 77.5 30.5t31.5 80.5q0 36 -25.5 69t-61.5 60.5t-72.5 56.5t-62 70.5t-25.5 89.5q0 87 76 140.5t185 61.5l27 128l63 3l6 -8l-26 -123 q110 -7 143 -34q11 -9 11 -30q0 -33 -22 -82.5t-53 -85.5l-29 2v13q0 73 -14 107q-25 61 -88 61q-44 0 -74 -29.5t-30 -75.5q0 -38 25.5 -72.5t61.5 -62.5t72.5 -57t62 -67.5t25.5 -82.5q0 -90 -66 -146t-179 -65z" />
<glyph unicode="%" horiz-adv-x="1061" d="M549 544q0 -114 -77 -188t-174 -74q-77 0 -121 44.5t-44 121.5q0 114 77 188t174 74q77 0 121 -44.5t44 -121.5zM907 700l-575 -710h-71l574 710h72zM267 398q0 -35 10 -55.5t27 -20.5q45 0 78.5 91.5t33.5 184.5q0 33 -10 52.5t-27 19.5q-45 0 -78.5 -90.5t-33.5 -181.5 zM1059 252q0 -114 -77 -188t-174 -74q-77 0 -121 44.5t-44 121.5q0 114 77 188t174 74q77 0 121 -44.5t44 -121.5zM777 106q0 -35 10 -55.5t27 -20.5q45 0 78.5 91.5t33.5 184.5q0 33 -10 52.5t-27 19.5q-45 0 -78.5 -90.5t-33.5 -181.5z" />
<glyph unicode="&#x26;" horiz-adv-x="875" d="M820 98q0 -52 -26 -80t-66 -28q-43 0 -76 22l-11 23q31 43 52 102q-31 7 -75 20q-106 -167 -302 -167q-104 0 -167 47t-63 126q0 65 50.5 117t139.5 70q-35 52 -35 116q0 100 75 167t190 67q83 0 130 -26t47 -72q0 -72 -83 -106q49 -4 101 -4q101 0 157 18l14 -3 q18 -27 18 -62q0 -26 -18 -43.5t-51 -17.5q-59 0 -119 9q-13 -77 -35 -133q15 -7 47 -21q106 -43 106 -141zM425 520q0 -69 44.5 -124.5t140.5 -106.5q19 53 26 116q-55 12 -126 36l-10 16q50 68 50 136q0 57 -49 57q-32 0 -54 -38.5t-22 -91.5zM271 215q0 -48 34.5 -79 t88.5 -31q87 0 153 74q-166 55 -240 132q-36 -46 -36 -96z" />
<glyph unicode="'" horiz-adv-x="254" d="M188 754l6 6q40 0 86.5 -8t67.5 -18l6 -17l-171 -306l-46 10l26 156z" />
<glyph unicode="(" horiz-adv-x="427" d="M356 -178l-18 -20q-218 123 -218 380q0 193 113 346t309 232l10 -20q-117 -104 -186.5 -276t-69.5 -335q0 -184 60 -307z" />
<glyph unicode=")" horiz-adv-x="427" d="M166 740l18 20q218 -123 218 -380q0 -193 -113 -346t-309 -232l-10 20q117 104 186.5 276t69.5 335q0 184 -60 307z" />
<glyph unicode="*" horiz-adv-x="418" d="M340 521q0 -45 -40 -45q-27 0 -27 26q0 16 34 91q-16 -11 -37.5 -29t-33.5 -26t-24 -8q-10 0 -17.5 8.5t-7.5 19.5q0 20 21 32q12 6 44 15t45 13q-12 5 -39.5 13t-37.5 14.5t-10 19.5q0 17 11 29t26 12q10 0 20 -7.5t26 -26.5t25 -28v8q0 5 -0.5 24.5t-0.5 38.5 q0 45 40 45q27 0 27 -26q0 -18 -33 -88q15 11 35.5 28t32.5 24.5t23 7.5q12 0 18.5 -9t6.5 -19q0 -20 -21 -32q-13 -7 -44.5 -15.5t-43.5 -12.5q10 -4 25 -8.5t24.5 -7.5t19.5 -7t14.5 -10.5t4.5 -14.5q0 -16 -11.5 -28t-26.5 -12q-10 0 -19.5 7.5t-25.5 26t-24 26.5v-6 q0 -5 0.5 -24.5t0.5 -38.5z" />
<glyph unicode="+" d="M285 125l-5 6l36 172h-181l18 85q50 1 182 3l36 174h84l5 -6l-36 -167q71 1 182 1l7 -8l-28 -82h-180l-38 -178h-82z" />
<glyph unicode="," horiz-adv-x="312" d="M0 -181l-8 11q90 83 123 170q-48 24 -48 80q0 45 36 79.5t84 34.5q39 0 65 -25.5t26 -69.5q0 -75 -83 -158t-195 -122z" />
<glyph unicode="-" horiz-adv-x="404" d="M67 251l9 50h355l-10 -50h-354z" />
<glyph unicode="." horiz-adv-x="290" d="M258 109q0 -50 -35 -84.5t-84 -34.5q-41 0 -66.5 25t-25.5 63q0 46 37 81t87 35q37 0 62 -23.5t25 -61.5z" />
<glyph unicode="/" horiz-adv-x="402" d="M139 -11l-11 -3l-75 37l344 736l12 3l75 -37z" />
<glyph unicode="0" horiz-adv-x="638" d="M680 455q0 -203 -111 -334t-260 -131q-99 0 -161.5 66t-62.5 178q0 125 52.5 233.5t138 170.5t180.5 62q107 0 165.5 -67.5t58.5 -177.5zM253 143q2 -46 20 -72t51 -26q51 0 96 89.5t68.5 201.5t23.5 198q0 111 -68 111q-56 0 -102.5 -87.5t-69 -202.5t-19.5 -212z" />
<glyph unicode="1" horiz-adv-x="401" d="M366 0h-353l-2 20l34 11q37 12 55 26.5t24 39.5l103 488l-88 20l2 20l283 75l6 -8l-126 -595l-9 -42l77 -35z" />
<glyph unicode="2" horiz-adv-x="518" d="M50 -10l-17 94q341 256 341 380q0 43 -23.5 69.5t-66.5 26.5q-41 0 -80.5 -21t-66.5 -56l-17 9q32 91 106 149.5t160 58.5q84 0 133.5 -47.5t49.5 -127.5q0 -44 -17 -84.5t-42 -72t-70 -66.5t-85.5 -61t-103.5 -62q-66 -38 -93 -51q54 12 114 12q37 0 96.5 -2.5 t77.5 -2.5q22 0 43 33q1 1 7 11t10 16l15 -6q-17 -75 -29 -110q-31 -89 -80 -89q-30 0 -111.5 12.5t-131.5 12.5q-66 0 -119 -25z" />
<glyph unicode="3" horiz-adv-x="460" d="M472 229q0 -102 -125.5 -163t-358.5 -76l-1 30q309 93 309 210q0 35 -24.5 54t-69.5 19q-34 0 -59 -5l-7 48q97 13 150 52t53 97q0 30 -21 47.5t-60 17.5q-36 0 -73.5 -17.5t-63.5 -49.5l-17 9q42 89 118.5 143.5t153.5 54.5q69 0 108.5 -34.5t39.5 -89.5 q0 -80 -66.5 -134.5t-168.5 -80.5q90 -5 136.5 -39t46.5 -93z" />
<glyph unicode="4" horiz-adv-x="554" d="M463 698l117 -14l-93 -441l94 3l-25 -90l-88 1l-33 -157h-180l34 160l-255 4l4 56zM364 517l-235 -285l176 5z" />
<glyph unicode="5" horiz-adv-x="485" d="M515 241q0 -107 -124.5 -171t-354.5 -80l-1 30q289 96 289 217q0 41 -27.5 64t-75.5 23q-47 0 -90 -12l-12 13l84 369q208 -8 298 -8q35 0 48.5 10.5t31.5 47.5l15 -3q-16 -112 -42 -161.5t-88 -49.5q-104 0 -206 20l-38 -164q47 10 85 10q96 0 152 -40.5t56 -114.5z" />
<glyph unicode="6" horiz-adv-x="593" d="M76 203q0 138 81.5 251.5t211.5 177t280 68.5l1 -30q-124 -44 -222.5 -128.5t-150.5 -195.5q61 64 156 64q160 0 160 -154q0 -107 -83.5 -186.5t-206.5 -79.5q-105 0 -166 57t-61 156zM408 251q0 87 -51 87q-46 0 -78.5 -62.5t-32.5 -151.5q0 -84 48 -84q46 0 80 65 t34 146z" />
<glyph unicode="7" horiz-adv-x="464" d="M342 35q-22 -45 -80 -45q-34 0 -70 27t-49 61q187 247 302 430q-174 22 -246 22q-35 0 -48.5 -10.5t-31.5 -47.5l-15 3q14 115 41 170t79 55q153 0 276 -105q33 55 60 103q29 -4 29 -26q0 -25 -39 -123q-21 -53 -75 -188.5t-88.5 -220t-44.5 -105.5z" />
<glyph unicode="8" horiz-adv-x="578" d="M583 203q0 -99 -81 -156t-216 -57q-107 0 -172.5 40.5t-65.5 108.5q0 73 62.5 121t153.5 60q-53 41 -83 82t-30 95q0 93 83.5 148t195.5 55q89 0 144 -37t55 -97q0 -65 -49.5 -112t-129.5 -68q43 -33 66 -53t45 -56t22 -74zM326 545q0 -38 24.5 -70t70.5 -67q30 28 50 78 t20 90q0 74 -68 74q-41 0 -69 -29.5t-28 -75.5zM218 134q0 -44 23 -69t63 -25q44 0 74 30.5t30 80.5q0 22 -8.5 41.5t-29 40t-34 31.5t-45.5 35q-32 -26 -52.5 -73.5t-20.5 -91.5z" />
<glyph unicode="9" horiz-adv-x="593" d="M638 487q0 -138 -81.5 -251.5t-211.5 -177t-280 -68.5l-1 30q124 44 222.5 128.5t150.5 195.5q-61 -64 -156 -64q-160 0 -160 154q0 107 83.5 186.5t206.5 79.5q105 0 166 -57t61 -156zM306 439q0 -87 51 -87q46 0 78.5 62.5t32.5 151.5q0 84 -48 84q-46 0 -80 -65 t-34 -146z" />
<glyph unicode=":" horiz-adv-x="290" d="M325 426q0 -50 -35 -84.5t-84 -34.5q-41 0 -66.5 25t-25.5 63q0 46 37 81t87 35q37 0 62 -23.5t25 -61.5zM258 109q0 -50 -35 -84.5t-84 -34.5q-41 0 -66.5 25t-25.5 63q0 46 37 81t87 35q37 0 62 -23.5t25 -61.5z" />
<glyph unicode=";" horiz-adv-x="290" d="M325 426q0 -50 -35 -84.5t-84 -34.5q-41 0 -66.5 25t-25.5 63q0 46 37 81t87 35q37 0 62 -23.5t25 -61.5zM-20 -181l-8 11q90 83 123 170q-48 24 -48 80q0 45 36 79.5t84 34.5q39 0 65 -25.5t26 -69.5q0 -75 -83 -158t-195 -122z" />
<glyph unicode="&#x3c;" d="M647 591l-21 -100l-349 -159l283 -149l-19 -90q-167 76 -406 210l-2 11l12 55z" />
<glyph unicode="=" d="M607 403h-449l18 85q170 5 452 5l6 -8zM564 203h-449l18 85q172 5 452 5l7 -8z" />
<glyph unicode="&#x3e;" d="M101 93l21 100l349 159l-283 149l19 90q167 -76 406 -210l2 -11l-12 -55z" />
<glyph unicode="?" horiz-adv-x="452" d="M316 227l-8 -10q-117 0 -117 79q0 35 19.5 64.5t47.5 51.5t55.5 45t47 56.5t19.5 74.5q0 62 -45 62q-39 0 -62 -45t-23 -99q0 -5 0.5 -13t0.5 -12q-32 -16 -75 -16q-34 0 -53.5 17t-19.5 47q0 72 77 121.5t173 49.5q201 0 201 -146q0 -46 -27 -84t-66 -62.5t-77.5 -46 t-65.5 -44.5t-27 -47q0 -26 25 -43zM196 -10q-31 0 -51.5 19t-20.5 51q0 41 33.5 71.5t75.5 30.5q31 0 51 -19t20 -50q0 -42 -33 -72.5t-75 -30.5z" />
<glyph unicode="@" horiz-adv-x="1082" d="M821 -160q-126 -100 -311 -100q-186 0 -309 123.5t-123 307.5q0 128 52.5 240.5t137 187.5t190 118t212.5 43q189 0 307.5 -115.5t118.5 -292.5q0 -148 -92.5 -255t-227.5 -107q-88 0 -128 51t-29 132l3 18h-6q-35 -89 -85.5 -145t-107.5 -56q-54 0 -87.5 44t-33.5 116 q0 92 39 173t118 134t181 53q133 0 229 -48l-27 -80l-38 -182q-27 -131 57 -131q60 0 120 81.5t60 204.5q0 155 -106 255t-271 100q-93 0 -187 -39t-170.5 -106.5t-125 -169t-48.5 -216.5q0 -167 109.5 -278t277.5 -111q63 0 119 13.5t87 28t76 40.5zM487 182q0 -60 27 -60 q34 0 74 79.5t65 165.5l19 74q-20 19 -50 19q-33 0 -65.5 -48t-51 -112.5t-18.5 -117.5z" />
<glyph unicode="A" horiz-adv-x="723" d="M449 690h115l74 -595q3 -26 11.5 -37.5t27.5 -21.5l31 -16l-2 -20h-320l-4 20l75 33l-17 145l-216 -3l-78 -142l75 -33l-4 -20h-210l-4 20l58 25q18 7 28.5 17.5t21.5 30.5zM251 245l184 -2l-32 278z" />
<glyph unicode="B" horiz-adv-x="712" d="M710 200q0 -90 -84.5 -145t-230.5 -55h-352l-2 20l34 21q16 10 23 15t14.5 16t10.5 25l106 496l9 42l-57 35l4 20h302q116 0 180.5 -38t64.5 -112q0 -72 -54.5 -118t-140.5 -62q76 -12 124.5 -52.5t48.5 -107.5zM414 593l-46 -215h37q60 0 103.5 46.5t43.5 114.5 q0 46 -27.5 71t-79.5 25h-22zM397 328h-40l-49 -231l-9 -42h33q79 0 134 43.5t55 121.5q0 49 -34 78.5t-90 29.5z" />
<glyph unicode="C" horiz-adv-x="663" d="M406 -10q-147 0 -226.5 75.5t-79.5 214.5q0 171 123.5 295.5t292.5 124.5q117 0 196 -32q-5 -114 -55 -228h-30q-45 142 -74 196q-13 3 -27 3q-97 0 -166.5 -108.5t-69.5 -260.5q0 -97 38 -158.5t99 -61.5q14 0 24 3q68 60 169 187h30q-6 -106 -51 -228q-92 -22 -193 -22 z" />
<glyph unicode="D" horiz-adv-x="758" d="M287 0h-244l-2 20l34 21q16 10 23 15t14.5 16t10.5 25l108 496h-1l9 42l-57 35l4 20h311q131 0 211.5 -68t80.5 -194q0 -83 -28.5 -159t-82 -136.5t-139.5 -96.5t-191 -36h-61l11 50h46q71 0 130.5 60t92 154.5t32.5 199.5q0 176 -128 176h-46l-10 -47l-107 -496z" />
<glyph unicode="E" horiz-adv-x="637" d="M414 593l-48 -225l181 7l-18 -69l-174 10l-47 -219l-10 -48h98q38 0 63 5q27 27 133 186h30q6 -123 -45 -240h-534l-2 20l34 21q16 10 23 15t14.5 16t10.5 25l106 496l9 42l-57 35l4 20h514q0 -113 -57 -240h-30q-37 152 -54 186q-15 3 -62 3h-72z" />
<glyph unicode="F" horiz-adv-x="588" d="M298 55l77 -35l-4 -20h-329l-2 20l34 21q16 10 23 15t14.5 16t10.5 25h1l105 496l9 42l-57 35l4 20h516q0 -113 -57 -240h-30l-22 90q-15 62 -32 96q-27 3 -62 3l-74 1l-10 -47l-53 -248l182 8l-18 -69l-175 10l-42 -197z" />
<glyph unicode="G" horiz-adv-x="738" d="M436 50q30 0 58 6l36 167l9 42l-57 35l4 20h299l2 -20l-34 -16q-39 -18 -48 -61l-43 -201q-95 -32 -244 -32q-153 0 -236 75.5t-83 214.5q0 112 60.5 209t163.5 154t221 57t207 -32q-2 -49 -23 -116.5t-42 -111.5h-30q-49 149 -74 196q-15 3 -32 3q-102 0 -181.5 -105 t-79.5 -259q0 -99 40.5 -162t106.5 -63z" />
<glyph unicode="H" horiz-adv-x="833" d="M299 55l57 -35l-4 -20h-309l-2 20l34 21q16 10 23 15t14.5 16t10.5 25l105 496l9 42l-57 35l4 20h309l2 -20l-34 -21q-16 -10 -23 -15t-14.5 -16t-10.5 -25l-46 -216h241l46 216l9 42l-57 35l4 20h309l2 -20l-34 -21q-16 -10 -23 -15t-14.5 -16t-10.5 -25l-105 -496 l-9 -42l57 -35l-4 -20h-309l-2 20l34 21q16 10 23 15t14.5 16t10.5 25l47 223h-241l-47 -223z" />
<glyph unicode="I" horiz-adv-x="413" d="M299 55l57 -35l-4 -20h-309l-2 20l34 21q16 10 23 15t14.5 16t10.5 25l105 496l9 42l-57 35l4 20h309l2 -20l-34 -21q-16 -10 -23 -15t-14.5 -16t-10.5 -25l-105 -496z" />
<glyph unicode="J" horiz-adv-x="400" d="M237 635l-57 35l4 20h309l2 -20l-34 -21q-16 -10 -23 -15t-14.5 -16t-10.5 -25l-109 -513q-20 -96 -113.5 -169t-184.5 -81l-11 20q95 95 133 270l100 473z" />
<glyph unicode="K" horiz-adv-x="760" d="M299 55l57 -35l-4 -20h-309l-2 20l34 21q16 10 23 15t14.5 16t10.5 25l105 496l9 42l-57 35l4 20h309l2 -20l-34 -21q-16 -10 -23 -15t-14.5 -16t-10.5 -25l-47 -223h57l250 265l-75 35l4 20h251l2 -20l-70 -30q-29 -12 -75 -55l-151 -143l64 -192q35 -107 55 -150 t46 -60l31 -20l-6 -20l-184 -5q-36 -1 -52.5 13.5t-26.5 48.5l-75 258h-57l-46 -218z" />
<glyph unicode="L" horiz-adv-x="618" d="M237 635l-57 35l4 20h309l2 -20l-34 -21q-16 -10 -23 -15t-14.5 -16t-10.5 -25l-105 -496l-10 -47h89q36 0 63 4q30 30 133 186h30q0 -128 -45 -240h-525l-2 20l34 21q16 10 23 15t14.5 16t10.5 25l105 496z" />
<glyph unicode="M" horiz-adv-x="987" d="M219 690h253l71 -440l246 440h242l2 -20l-78 -42l-64 -565l72 -43l-4 -20h-318l-2 20l33 21q33 19 39 56l49 429l-238 -421l-51 -105h-76l-18 105l-67 426l-145 -469l85 -42l-5 -20h-226l-3 20l42 21q28 14 40 25t18 31l161 538l-62 35z" />
<glyph unicode="N" horiz-adv-x="727" d="M175 62l65 -37l-5 -25h-206l-3 25l40 20q22 11 29 15t16 14t12 23l112 531l-65 37l5 25h214l219 -472l80 375l8 35l-85 37l5 25h226l3 -25l-40 -20q-22 -11 -29 -15t-16 -14t-12 -23l-126 -593h-115l-236 511l-88 -414z" />
<glyph unicode="O" horiz-adv-x="702" d="M734 439q0 -130 -55 -234.5t-142 -159.5t-186 -55q-113 0 -184.5 70.5t-71.5 189.5q0 121 54 225.5t142.5 164.5t186.5 60q122 0 189 -72t67 -189zM285 143q0 -46 17.5 -72t50.5 -26q48 0 94.5 94.5t71.5 211t25 198.5q0 96 -65 96q-51 0 -97.5 -87.5t-71.5 -202.5 t-25 -212z" />
<glyph unicode="P" horiz-adv-x="660" d="M298 55l77 -35l-4 -20h-329l-2 20l34 21q16 10 23 15t14.5 16t10.5 25h1l105 496l9 42l-57 35l4 20h295q119 0 189 -49.5t70 -135.5q0 -107 -96.5 -176t-234.5 -69h-65l-35 -163zM413 593l-59 -278h40q66 0 111 61t45 144q0 115 -98 115h-30z" />
<glyph unicode="Q" horiz-adv-x="679" d="M725 -88q0 -60 -48.5 -93.5t-130.5 -33.5q-266 0 -496 153l25 50h1q206 0 326.5 144.5t120.5 371.5q0 77 -17 109.5t-53 32.5q-48 0 -88.5 -60.5t-62 -148.5t-21.5 -175q0 -61 12 -149l-75 -40q-48 38 -81 102.5t-33 144.5q0 102 49 190.5t129 139.5t170 51 q124 0 192.5 -72.5t68.5 -188.5q0 -144 -79.5 -254t-208 -170t-289.5 -74q112 -23 275 -23q94 0 172.5 16t119.5 32q22 -20 22 -55z" />
<glyph unicode="R" horiz-adv-x="761" d="M299 55l57 -35l-4 -20h-309l-2 20l34 21q16 10 23 15t14.5 16t10.5 25l106 496l9 42l-57 35l4 20h305q124 0 191.5 -46t67.5 -129q0 -54 -42 -104t-108 -84l25 -77q44 -131 64 -166q17 -31 37 -44l31 -20l-6 -20l-184 -5q-36 -1 -52.5 13.5t-26.5 48.5l-65 223h-75 l-39 -183zM414 593l-55 -258h36q71 0 118.5 55.5t47.5 134.5q0 54 -26 82t-72 28h-40z" />
<glyph unicode="S" horiz-adv-x="567" d="M273 -10q-187 0 -212 34q-8 13 -8 34q0 36 20.5 83.5t50.5 81.5l30 -3v-10q0 -84 28 -127t93 -43q49 0 81.5 30.5t32.5 80.5q0 36 -26.5 69t-64.5 60.5t-75.5 56.5t-64 70.5t-26.5 89.5q0 93 89 148t208 55q68 0 119.5 -11t68.5 -24q11 -9 11 -30q0 -33 -22 -82.5 t-53 -85.5l-29 2v13q0 73 -14 107q-27 61 -94 61q-47 0 -78 -29t-31 -76q0 -38 26.5 -72.5t64.5 -62.5t75.5 -57t64 -67.5t26.5 -82.5q0 -99 -79.5 -156t-211.5 -57z" />
<glyph unicode="T" horiz-adv-x="666" d="M426 55l57 -35l-4 -20h-309l-2 20l34 21q16 10 23 15t14.5 16t10.5 25l114 538h-17q-36 0 -64 -4q-34 -36 -71 -91l-60 -90h-30q-5 101 45 240h602q-7 -129 -57 -240h-30l-22 90q-15 59 -33 91q-25 4 -62 4h-16l-114 -538z" />
<glyph unicode="U" horiz-adv-x="694" d="M211 635l-57 35l4 20h309l2 -20l-34 -21q-16 -10 -23 -15t-14.5 -16t-10.5 -25l-72 -338q-7 -34 -7 -69q0 -65 28.5 -100.5t83.5 -35.5q129 0 173 202l76 351l5 25l-84 37l5 25h226l3 -25l-90 -37l-5 -25l-74 -348q-28 -132 -94.5 -198.5t-193.5 -66.5 q-113 0 -177.5 52.5t-64.5 150.5q0 39 7 68l70 332z" />
<glyph unicode="V" horiz-adv-x="724" d="M403 0h-115l-74 595q-3 26 -11.5 37.5t-27.5 21.5l-31 16l2 20h320l4 -20l-75 -33l53 -460l250 462l-77 31l4 20h220l4 -20l-58 -25q-18 -7 -28.5 -17.5t-21.5 -30.5z" />
<glyph unicode="W" horiz-adv-x="1096" d="M394 0h-115l-65 595q-3 26 -11.5 37.5t-27.5 21.5l-31 16l2 20h320l4 -20l-75 -33l44 -450l175 329l-9 79q-3 26 -11.5 37.5t-27.5 21.5l-33 16l4 20h320l4 -20l-75 -33l43 -450l241 452l-77 31l4 20h220l4 -20l-58 -25q-18 -7 -28.5 -17.5t-21.5 -30.5l-329 -597h-115 l-45 419z" />
<glyph unicode="X" horiz-adv-x="745" d="M271 0h-250l-4 20q43 15 82 35q36 20 63 50l187 211l-122 280q-17 37 -24 45q-10 11 -51 29l2 20h327l4 -20l-75 -33l92 -210l173 208l-75 35l4 20h249l4 -20q-52 -19 -73 -30q-41 -21 -72 -55l-187 -211l122 -280q13 -30 28 -45q16 -15 47 -29l-2 -20h-327l-4 20l75 33 l-92 210l-172 -208l75 -35z" />
<glyph unicode="Y" horiz-adv-x="700" d="M424 55l57 -35l-4 -20h-309l-2 20l34 21q16 10 23 15t14.5 16t10.5 25l30 142q9 62 2 141t-30.5 146.5t-48.5 67.5q-24 0 -71 -51l-20 16q36 68 84.5 104.5t98.5 36.5q45 0 77.5 -25t51 -73.5t27 -107.5t10.5 -137q175 343 266 343q37 0 57.5 -40.5t27.5 -100.5l-22 -6 q-27 41 -55 41q-40 0 -100.5 -67.5t-112 -165.5t-69.5 -181l-18 -83z" />
<glyph unicode="Z" horiz-adv-x="675" d="M605 0h-556l1 50l475 585h-130q-36 0 -64 -4l-141 -181h-30q-6 113 45 240h550l-1 -50l-475 -585h136q36 0 64 4l141 181h30q6 -100 -45 -240z" />
<glyph unicode="[" horiz-adv-x="434" d="M340 -198h-274l204 958h274l-7 -33h-104l-190 -892h104z" />
<glyph unicode="\" horiz-adv-x="476" d="M314 -10l-108 751l8 8l84 11l108 -751l-8 -8z" />
<glyph unicode="]" horiz-adv-x="434" d="M190 760h274l-204 -958h-274l7 33h104l190 892h-104z" />
<glyph unicode="^" horiz-adv-x="526" d="M142 210h-98l222 340h66l78 -340h-92l-46 207z" />
<glyph unicode="_" horiz-adv-x="559" d="M-19 -150l14 70h510l-14 -70h-510z" />
<glyph unicode="`" horiz-adv-x="392" d="M396 577l-13 -15q-96 27 -157 68t-61 81q0 57 95 57q23 0 34 -1l11 -8q35 -86 91 -182z" />
<glyph unicode="a" d="M561 180q-11 -53 -11 -65q0 -19 17 -19q22 0 72 41l10 -10q-29 -56 -77 -96.5t-105 -40.5q-47 0 -73 26.5t-26 74.5q0 34 13 89l3 11h-6q-35 -89 -85.5 -145t-107.5 -56q-54 0 -87.5 44t-33.5 116q0 92 39 173t118 134t181 53q133 0 229 -48l-27 -80zM249 182 q0 -60 27 -60q34 0 74 79.5t65 165.5l19 74q-20 19 -50 19q-33 0 -65.5 -48t-51 -112.5t-18.5 -117.5z" />
<glyph unicode="b" horiz-adv-x="590" d="M505 510q54 0 82 -42t28 -108q0 -98 -35 -180.5t-110 -136t-178 -53.5q-143 0 -239 48l27 80l107 502l12 54l-71 35v12q103 28 261 39l8 -10l-30 -130q-16 -70 -94 -339h4q41 94 102 161.5t126 67.5zM404 377q-27 0 -69.5 -65t-59.5 -124l-28 -130q26 -18 58 -18 q31 0 61 51t47 118t17 121q0 47 -26 47z" />
<glyph unicode="c" horiz-adv-x="490" d="M369 510q73 0 120 -36.5t47 -93.5q0 -50 -30.5 -80t-75.5 -30q-34 0 -67 20q23 86 23 120q0 50 -33 50q-37 0 -67 -72t-30 -153q0 -130 101 -130q33 0 71.5 15.5t66.5 40.5l10 -10q-39 -76 -103 -118.5t-144 -42.5q-85 0 -136 55t-51 146q0 129 89.5 224t208.5 95z" />
<glyph unicode="d" d="M561 180q-11 -53 -11 -65q0 -19 17 -19q22 0 72 41l10 -10q-29 -56 -77 -96.5t-105 -40.5q-47 0 -73 26.5t-26 74.5q0 34 13 89l3 11h-6q-35 -89 -85.5 -145t-107.5 -56q-54 0 -87.5 44t-33.5 116q0 92 39 173t118 134t181 53q16 0 48 -2l28 112l11 52l-90 37v12 q127 33 281 39l8 -10l-30 -130zM249 182q0 -60 27 -60q32 0 70.5 73.5t64.5 158.5l22 87q-19 19 -49 19q-33 0 -65.5 -48t-51 -112.5t-18.5 -117.5z" />
<glyph unicode="e" horiz-adv-x="498" d="M505 151q-39 -76 -103 -118.5t-144 -42.5q-85 0 -136 55t-51 146q0 129 89.5 224t208.5 95q70 0 116 -35.5t46 -94.5q0 -75 -68.5 -121t-206.5 -39q1 -57 28.5 -86t72.5 -29q33 0 71.5 15.5t66.5 40.5zM353 460q-33 0 -61 -60t-35 -142q54 3 89 48.5t35 107.5 q0 46 -28 46z" />
<glyph unicode="f" horiz-adv-x="385" d="M255 20q-28 -134 -107.5 -207t-181.5 -73q-55 0 -88.5 21t-33.5 55q0 39 37 54q30 -37 70 -37q85 0 118 157l93 440h-63l3 20l72 35l5 25q22 102 111 176t191 74q59 0 96 -26t37 -64q0 -37 -23.5 -61.5t-54.5 -33.5q-55 99 -110 99q-18 0 -30 -9.5t-17.5 -28.5t-8 -37.5 t-5 -45.5t-6.5 -43l-6 -30h117l-11 -50h-117z" />
<glyph unicode="g" horiz-adv-x="518" d="M332 510h41.5h41h36.5t37 0.5t31 1.5t31 2.5t25.5 3.5t23.5 5q10 -15 10 -42q0 -23 -12 -39t-36 -16q-26 0 -119 39l-3 -5q76 -42 76 -120q0 -45 -17 -81.5t-42 -58t-54.5 -39.5t-54.5 -28.5t-42 -21.5t-17 -22q0 -13 15.5 -22.5t50.5 -22.5q29 -11 46 -20t37.5 -24 t30.5 -35.5t10 -47.5q0 -76 -78 -126.5t-196 -50.5q-113 0 -178.5 33.5t-65.5 84.5q0 37 35.5 65t89.5 44l14 -11q-2 -8 -2 -15q0 -65 39 -111.5t104 -46.5q33 0 57.5 18t24.5 48q0 7 -2.5 14t-9 13.5t-11.5 11t-16.5 11t-18 10t-21.5 11.5t-21 11q-31 16 -48.5 27t-33 30 t-15.5 41q0 30 31.5 55t102.5 50q-81 5 -130 48.5t-49 109.5q0 91 71.5 154.5t180.5 63.5zM246 286q0 -101 38 -101q30 0 47.5 70.5t17.5 147.5q0 64 -34 64q-31 0 -50 -59t-19 -122z" />
<glyph unicode="h" horiz-adv-x="630" d="M59 19l34 161l94 440l12 54l-71 35v12q103 28 261 39l8 -10l-30 -130q-36 -152 -94 -339h4q18 39 40.5 75.5t53.5 73t70 58.5t79 22q48 0 75 -27t27 -67q0 -26 -8 -65t-23.5 -95.5t-19.5 -75.5q-11 -53 -11 -65q0 -19 17 -19q22 0 72 41l10 -10q-29 -56 -77 -96.5 t-105 -40.5q-47 0 -73 26.5t-26 74.5q0 34 13 89q41 162 41 180q0 27 -20 27q-31 0 -78 -73.5t-61 -133.5l-38 -180l-83 -3q-72 -3 -79 -3q-19 0 -14 25z" />
<glyph unicode="i" horiz-adv-x="362" d="M268 569q-34 0 -56.5 21.5t-22.5 56.5q0 45 36.5 79t84.5 34q34 0 56.5 -21t22.5 -56q0 -46 -36.5 -80t-84.5 -34zM297 180q-11 -53 -11 -65q0 -19 17 -19q22 0 72 41l10 -10q-29 -56 -77 -96.5t-105 -40.5q-47 0 -73 26.5t-26 74.5q0 34 13 89q5 24 15 70.5t15 69.5 q11 53 11 65q0 19 -17 19q-22 0 -72 -41l-10 10q29 56 77 96.5t105 40.5q47 0 73 -26.5t26 -74.5q0 -34 -13 -89q-5 -23 -15 -70t-15 -70z" />
<glyph unicode="j" horiz-adv-x="332" d="M257 569q-34 0 -56.5 21.5t-22.5 56.5q0 45 36.5 79t84.5 34q34 0 56.5 -21t22.5 -56q0 -46 -36.5 -80t-84.5 -34zM138 320q11 53 11 65q0 19 -17 19q-22 0 -72 -41l-10 10q29 56 77 96.5t105 40.5q47 0 73 -26.5t26 -74.5q0 -34 -13 -89l-62 -300q-28 -134 -107.5 -207 t-181.5 -73q-55 0 -88.5 21t-33.5 55q0 39 37 54q30 -37 70 -37q85 0 118 157z" />
<glyph unicode="k" horiz-adv-x="610" d="M59 19l34 161l94 440l12 54l-71 35v12q103 28 261 39l8 -10l-30 -130q-36 -152 -94 -339h4q18 40 40 75.5t53 72.5t71 59t82 22q49 0 76.5 -27t27.5 -67q0 -104 -137 -186q24 -66 41.5 -100t33.5 -34q21 0 69 41l10 -10q-29 -56 -77.5 -96.5t-106.5 -40.5q-17 0 -31 4.5 t-24.5 9.5t-20 19t-15 22t-13 29.5t-10.5 31t-11 37t-11 37.5l3 12q57 36 88.5 81.5t31.5 81.5q0 32 -25 32q-36 0 -85 -73t-64 -134l-38 -180l-83 -3q-72 -3 -79 -3q-19 0 -14 25z" />
<glyph unicode="l" horiz-adv-x="332" d="M273 180q-11 -53 -11 -65q0 -19 17 -19q22 0 72 41l10 -10q-29 -56 -77 -96.5t-105 -40.5q-47 0 -73 26.5t-26 74.5q0 34 13 89l94 440l12 54l-71 35v12q103 28 261 39l8 -10l-30 -130z" />
<glyph unicode="m" horiz-adv-x="952" d="M83 19l34 161l29 133q13 57 13 70q0 21 -17 21q-22 0 -72 -41l-10 10q31 57 76.5 97t99.5 40q44 0 68.5 -23t24.5 -62q0 -30 -32 -143l4 -1q18 40 40 75.5t52 72.5t68 59t78 22t64 -23.5t24 -61.5q0 -30 -32 -143l4 -1q18 40 40 75.5t52 72.5t68 59t78 22q48 0 75 -27 t27 -67q0 -20 -5.5 -53.5t-10.5 -56t-16.5 -69.5t-13.5 -57q-11 -53 -11 -65q0 -19 17 -19q22 0 72 41l10 -10q-29 -56 -77 -96.5t-105 -40.5q-47 0 -73 26.5t-26 74.5q0 34 13 89q41 162 41 184q0 23 -20 23q-31 0 -77.5 -73t-61.5 -134l-38 -180l-83 -3q-72 -3 -79 -3 q-19 0 -14 25l34 161q7 31 18 74.5t17 71t6 38.5q0 23 -20 23q-31 0 -77.5 -73t-61.5 -134l-38 -180l-83 -3q-72 -3 -79 -3q-19 0 -14 25z" />
<glyph unicode="n" horiz-adv-x="654" d="M83 19l34 161q5 23 30 133q12 60 12 70q0 21 -17 21q-22 0 -72 -41l-10 10q31 57 76.5 97t99.5 40q44 0 68.5 -23t24.5 -62q0 -30 -32 -143l4 -1q18 40 40 75.5t52 72.5t68 59t78 22q48 0 75 -27t27 -67q0 -20 -5.5 -53.5t-10.5 -56t-16.5 -69.5t-13.5 -57 q-11 -53 -11 -65q0 -19 17 -19q22 0 72 41l10 -10q-29 -56 -77 -96.5t-105 -40.5q-47 0 -73 26.5t-26 74.5q0 34 13 89q41 162 41 180q0 27 -20 27q-31 0 -77.5 -73t-61.5 -134l-38 -180l-83 -3q-72 -3 -79 -3q-19 0 -14 25z" />
<glyph unicode="o" horiz-adv-x="562" d="M578 309q0 -142 -87.5 -230.5t-206.5 -88.5q-95 0 -154 53.5t-59 148.5q0 132 88.5 224.5t206.5 92.5q99 0 155.5 -54.5t56.5 -145.5zM256 111q0 -76 33 -76q39 0 71.5 135t32.5 228q0 68 -33 68q-40 0 -72 -126.5t-32 -228.5z" />
<glyph unicode="p" horiz-adv-x="614" d="M29 -235l34 161l54 254q6 30 18 83t18 81.5t6 38.5q0 21 -17 21q-22 0 -72 -41l-10 10q31 57 76.5 97t99.5 40q44 0 68.5 -23t24.5 -62q0 -16 -5 -38.5t-14.5 -56t-12.5 -48.5l4 -1q41 94 102 161.5t126 67.5q54 0 82 -42t28 -108q0 -98 -35 -180.5t-110 -136t-178 -53.5 q-21 0 -59 2l-14 -66l-38 -180l-83 -3q-72 -3 -79 -3q-19 0 -14 25zM428 377q-28 0 -72.5 -69t-58.5 -128l-26 -122q26 -18 58 -18q31 0 61 51t47 118t17 121q0 47 -26 47z" />
<glyph unicode="q" horiz-adv-x="604" d="M293 -235l34 161l57 265h-6q-35 -89 -85.5 -145t-107.5 -56q-54 0 -87.5 44t-33.5 116q0 92 39 173t118 134t181 53q133 0 229 -48l-27 -80l-97 -456l-38 -180l-83 -3q-72 -3 -79 -3q-19 0 -14 25zM249 182q0 -60 27 -60q34 0 74 79.5t65 165.5l19 74q-20 19 -50 19 q-33 0 -65.5 -48t-51 -112.5t-18.5 -117.5z" />
<glyph unicode="r" horiz-adv-x="499" d="M83 19l34 161l20 90t17 79t5 34q0 21 -17 21q-22 0 -72 -41l-10 10q31 57 76.5 97t99.5 40q44 0 68.5 -23t24.5 -62q0 -30 -32 -143l4 -1q106 229 195 229q26 0 39.5 -16.5t13.5 -43.5q0 -42 -17.5 -87.5t-37.5 -72.5q-43 30 -78 30q-40 0 -72 -41.5t-47 -98.5l-38 -180 l-83 -3q-72 -3 -79 -3q-19 0 -14 25z" />
<glyph unicode="s" horiz-adv-x="469" d="M456 149q0 -73 -59.5 -116t-171.5 -43q-80 0 -132 22.5t-52 66.5q0 32 28 55.5t71 31.5l13 -10q1 -5 5 -17.5t6 -19.5q14 -43 31 -64.5t44 -21.5q23 0 36.5 14.5t13.5 37.5q0 25 -19 50t-46 47t-54.5 46t-46.5 57t-19 70q0 69 64 112t159 43q86 0 131.5 -26.5t45.5 -67.5 q0 -30 -25 -53t-65 -29l-12 9q-7 28 -12 47q-22 77 -66 77q-22 0 -36 -13.5t-14 -35.5q0 -25 18.5 -50.5t45.5 -48.5t54 -47.5t45.5 -56.5t18.5 -66z" />
<glyph unicode="t" horiz-adv-x="411" d="M206 -10q-55 0 -84.5 34t-29.5 89q0 27 5 47l57 270h-63l2 20l266 190l19 -2l-33 -158h125l-11 -50h-125l-52 -245q-4 -22 -4 -31q0 -49 42 -49q44 0 112 56l10 -10q-36 -70 -96 -115.5t-140 -45.5z" />
<glyph unicode="u" horiz-adv-x="658" d="M147 320q11 53 11 65q0 19 -17 19q-22 0 -72 -41l-10 10q29 56 77 96.5t105 40.5q47 0 73 -26.5t26 -74.5q0 -34 -13 -89q-35 -131 -35 -167q0 -31 22 -31q31 0 74.5 74.5t73.5 187.5l26 120l83 3q72 3 79 3q19 0 14 -25l-34 -161l-31 -144q-11 -53 -11 -65q0 -19 17 -19 q22 0 72 41l10 -10q-29 -56 -77 -96.5t-105 -40.5q-47 0 -73 26.5t-26 74.5q0 34 13 89l3 11h-7q-39 -95 -92 -148t-111 -53q-49 0 -77 29.5t-28 82.5q0 23 6 55t17 82t17 81z" />
<glyph unicode="v" horiz-adv-x="538" d="M267 -10l-115 9q0 10 1.5 50.5t1.5 59.5q0 175 -10 235t-37 60q-24 0 -66 -42l-12 11q29 55 79.5 96t105.5 41q56 0 83 -44.5t27 -147.5q0 -102 -19 -247q54 82 79 172.5t25 162.5q0 46 -11 85q32 19 74 19q50 0 78.5 -26t28.5 -76q0 -63 -51 -143.5t-116.5 -145.5 t-145.5 -129z" />
<glyph unicode="w" horiz-adv-x="806" d="M848 408q0 -63 -51 -143.5t-116.5 -145.5t-145.5 -129l-115 9q0 10 1.5 50.5t1.5 59.5v73q-63 -122 -156 -192l-115 9q0 10 1.5 50.5t1.5 59.5q0 175 -10 235t-37 60q-24 0 -66 -42l-12 11q29 55 79.5 96t105.5 41q56 0 83 -44.5t27 -147.5q0 -102 -19 -247 q56 85 82.5 175t26.5 160q0 45 -11 85q34 19 77 19q62 0 87 -44.5t25 -147.5q0 -102 -19 -247q54 82 79 172.5t25 162.5q0 46 -11 85q32 19 74 19q50 0 78.5 -26t28.5 -76z" />
<glyph unicode="x" horiz-adv-x="533" d="M431 180q31 -73 41 -81q4 -3 9 -3q19 0 60 41l10 -10q-69 -137 -162 -137q-16 0 -28.5 3.5t-24 13.5t-18.5 19t-17 29.5t-15.5 33.5t-17.5 43t-19 48l-14 33q-30 -73 -30 -153q0 -27 6 -55q-33 -15 -72 -15q-46 0 -75 21t-29 59q0 97 185 179l-25 61q-33 80 -43 89 q-6 5 -12 5q-17 0 -60 -41l-10 10q28 57 71 97t95 40q15 0 27.5 -4t23 -14.5t18 -20t17 -30t16 -36t18 -45.5t20.5 -50l10 -23q30 73 30 153q0 27 -6 55q33 15 72 15q46 0 75 -21t29 -59q0 -97 -185 -179z" />
<glyph unicode="y" horiz-adv-x="575" d="M227 510q61 0 90.5 -38t29.5 -122q0 -158 -63 -322q80 90 114 191.5t34 186.5q0 46 -11 85q32 19 74 19q107 0 107 -117q0 -122 -90.5 -235t-258.5 -203q-49 -98 -111.5 -156.5t-132.5 -58.5q-50 0 -81 21t-31 55q0 39 37 54q29 -37 55 -37q33 0 65.5 53t58.5 137 q54 169 54 287q0 94 -47 94q-24 0 -66 -42l-12 11q29 55 79.5 96t105.5 41z" />
<glyph unicode="z" horiz-adv-x="464" d="M155 15q-60 0 -110 -25l-31 45q216 204 295 290q-88 15 -134 15q-32 0 -46 -9t-31 -41l-15 3q13 110 40 163.5t77 53.5q99 0 172 -112q52 62 85 112q26 -9 44.5 -25.5t18.5 -38.5q0 -24 -13.5 -42.5t-51.5 -48.5q-43 -34 -128 -100t-128 -100q34 5 81 5q27 0 70 -2.5 t56 -2.5q24 0 43 26q9 11 17 24l15 -6q-22 -96 -37 -134q-30 -75 -74 -75q-17 0 -100.5 12.5t-114.5 12.5z" />
<glyph unicode="{" horiz-adv-x="460" d="M372 -168l-10 -32q-125 0 -182 24.5t-57 78.5q0 49 42 150t42 136q0 66 -82 77l6 28q70 8 98.5 46.5t33.5 102.5q1 15 1 99q0 127 69 172.5t233 45.5l-4 -32q-42 0 -71 -24.5t-38 -67.5q-8 -37 -11 -109.5t-10 -107.5q-12 -54 -60.5 -90t-119.5 -49q57 -12 90 -40.5 t33 -72.5q0 -31 -38.5 -132t-38.5 -132q0 -33 19 -52t55 -19z" />
<glyph unicode="|" horiz-adv-x="325" d="M61 -260l-7 8l214 1005l78 7l7 -8l-214 -1005z" />
<glyph unicode="}" horiz-adv-x="460" d="M183 728l10 32q125 0 182 -24.5t57 -78.5q0 -49 -42 -150t-42 -136q0 -66 82 -77l-6 -28q-70 -8 -98.5 -46.5t-33.5 -102.5q-1 -15 -1 -99q0 -127 -69 -172.5t-233 -45.5l4 32q42 0 71 24.5t38 67.5q8 37 11 109.5t10 107.5q12 54 60.5 90t119.5 49q-57 12 -90 40.5 t-33 72.5q0 31 38.5 132t38.5 132q0 33 -19 52t-55 19z" />
<glyph unicode="~" d="M174 262q-10 0 -69 -57l-44 34q90 119 140 119q23 0 127.5 -25t117.5 -25q10 0 69 57l44 -34q-90 -119 -140 -119q-23 0 -127 25t-118 25z" />
<glyph unicode="&#xa1;" horiz-adv-x="348" d="M266 510q31 0 51 -19t20 -51q0 -41 -33.5 -71.5t-75.5 -30.5q-31 0 -51 19t-20 50q0 42 33 72.5t76 30.5zM218 -180l-10 -8q-72 -10 -120 -10q-51 0 -51 34q0 17 9 44l140 401h64z" />
<glyph unicode="&#xa2;" horiz-adv-x="520" d="M286 -137l-62 -3l-6 8l26 124q-83 11 -127.5 63.5t-44.5 135.5q0 132 84.5 234.5t204.5 121.5l29 130l62 3l6 -8l-26 -123q63 -7 102 -42.5t39 -86.5q0 -50 -31.5 -80t-78.5 -30q-34 0 -67 20q23 86 23 120q0 50 -32 50q-30 0 -58 -40t-45 -102t-17 -123 q0 -63 26.5 -96.5t70.5 -33.5q33 0 71.5 15.5t66.5 40.5l10 -10q-67 -142 -198 -159z" />
<glyph unicode="&#xa3;" horiz-adv-x="685" d="M565 292h-149l-15 -59q-28 -106 -119 -182q53 -27 91.5 -43.5t104 -32t129.5 -15.5q5 0 60 5q12 -21 12 -48q0 -51 -28 -77.5t-78 -26.5q-67 0 -156 53.5t-184 148.5q-59 -35 -107 -35q-27 0 -41 14.5t-14 37.5q0 27 21.5 49t55.5 22q28 0 84 -27q13 49 23 160 q0 9 1.5 27.5t2.5 28.5h-124l15 70h115q5 51 12 88q21 125 99.5 187.5t188.5 62.5q63 0 100 -25.5t37 -64.5q0 -38 -28 -63t-66 -32q-10 67 -22 98t-34 31q-30 0 -49 -44.5t-46 -149.5l-23 -88h146z" />
<glyph unicode="&#xa4;" horiz-adv-x="562" d="M545 156l-70 -47l-52 69q-58 -33 -121 -33q-57 0 -99 26l-80 -66l-55 70l78 65q-15 34 -15 78q0 80 64 146l-48 63l70 58q34 -41 53 -66q50 26 107 26q62 0 105 -30l85 70l55 -71l-86 -71q12 -33 12 -71q0 -73 -55 -136q31 -40 54 -69zM231 323q0 -37 23 -62.5t66 -25.5 q53 0 90.5 40.5t37.5 91.5q0 37 -23 62.5t-66 25.5q-53 0 -90.5 -40.5t-37.5 -91.5z" />
<glyph unicode="&#xa5;" horiz-adv-x="716" d="M127 125l13 60h134l13 61q1 2 1 5t1 4h-135l13 60h126q-1 96 -26.5 187.5t-57.5 91.5q-24 0 -71 -51l-20 16q36 68 84.5 104.5t98.5 36.5q46 0 78.5 -25t51 -72.5t27 -105t10.5 -133.5q175 336 265 336q37 0 57.5 -40.5t27.5 -100.5l-22 -6q-27 41 -55 41q-46 0 -116 -85 t-120 -194h127l-13 -60h-139q-13 -38 -20 -68v-2h145l-13 -60h-145l-15 -70l57 -35l-4 -20h-309l-2 20l34 21q16 10 23 15t14.5 16t10.5 25l6 28h-135z" />
<glyph unicode="&#xa6;" horiz-adv-x="326" d="M269 352l-79 -7l-6 8l85 400l78 7l7 -8zM140 -253l-78 -7l-7 8l84 396l79 7l6 -8z" />
<glyph unicode="&#xa7;" horiz-adv-x="585" d="M557 142q0 -128 -113 -220.5t-269 -92.5q-74 0 -118 24t-44 68q0 29 21.5 58.5t50.5 45.5l25 -2q55 -88 114 -137q58 21 58 92q0 58 -61 162q-43 69 -59 99q-44 84 -44 153q0 126 113 217t268 91q74 0 118 -23.5t44 -65.5q0 -31 -21 -61t-51 -46l-25 2q-53 88 -119 140 q-57 -24 -57 -100q0 -56 62 -151q42 -65 55 -87q52 -91 52 -166zM326 -87l7 -7q64 32 96 88.5t32 123.5q0 68 -40 141q-7 12 -57 89q-58 90 -58 153t40 113l-7 7q-62 -30 -94 -84.5t-32 -119.5q0 -62 36 -131q20 -38 57 -96q61 -101 61 -168q0 -69 -41 -109z" />
<glyph unicode="&#xa8;" horiz-adv-x="546" d="M572 678q0 -41 -29 -69.5t-70 -28.5q-35 0 -57.5 22t-22.5 55q0 40 30 68.5t73 28.5q32 0 54 -21t22 -55zM331 678q0 -41 -29 -69.5t-70 -28.5q-35 0 -57.5 22t-22.5 55q0 40 30 68.5t73 28.5q32 0 54 -21t22 -55z" />
<glyph unicode="&#xa9;" horiz-adv-x="697" d="M342 -50q-118 0 -190.5 70.5t-72.5 183.5q0 141 106.5 243.5t252.5 102.5q118 0 190.5 -70.5t72.5 -183.5q0 -141 -106.5 -243.5t-252.5 -102.5zM433 500q-124 0 -213.5 -87.5t-89.5 -208.5q0 -90 60 -147t157 -57q124 0 213.5 87.5t89.5 208.5q0 90 -60 147t-157 57z M521 191q-55 -111 -157 -111q-58 0 -94 36t-36 95q0 84 61 146.5t142 62.5q49 0 79.5 -22t30.5 -55q0 -25 -18.5 -41t-46.5 -16q-22 0 -44 13q7 23 7 38q0 33 -21 33q-24 0 -44 -41.5t-20 -88.5q0 -70 72 -70q40 0 81 29z" />
<glyph unicode="&#xaa;" horiz-adv-x="562" d="M608 459q-22 -44 -60.5 -75.5t-84.5 -31.5q-38 0 -60 21.5t-22 60.5q0 26 10 71h-3q-27 -70 -65.5 -111.5t-84.5 -41.5q-45 0 -73 36.5t-28 96.5q0 109 73.5 191t194.5 82q110 0 188 -40l-22 -67l-30 -146q-8 -38 -8 -51q0 -15 13 -15q18 0 54 29zM293 507q0 -46 21 -46 q26 0 55.5 61.5t47.5 128.5l13 50q-14 13 -38 13q-37 0 -68 -72.5t-31 -134.5z" />
<glyph unicode="&#xab;" horiz-adv-x="557" d="M265 29l-17 -9q-72 101 -151 180l-5 9l20 90q180 141 235 189l15 -12q-90 -152 -143 -239q28 -109 46 -208zM489 29l-17 -9q-72 101 -151 180l-5 9l20 90q180 141 235 189l15 -12q-90 -152 -143 -239q28 -109 46 -208z" />
<glyph unicode="&#xac;" d="M609 414l-54 -253h-90l37 171h-370l18 85q170 5 453 5z" />
<glyph unicode="&#xae;" horiz-adv-x="697" d="M342 -50q-118 0 -190.5 70.5t-72.5 183.5q0 141 106.5 243.5t252.5 102.5q118 0 190.5 -70.5t72.5 -183.5q0 -141 -106.5 -243.5t-252.5 -102.5zM364 90h-178l-2 20l22 12q11 6 14.5 12.5t7.5 24.5l40 191l5 26l-26 14l4 20h180q69 0 106 -23t37 -63q0 -59 -75 -94 q3 -8 10.5 -28.5t11.5 -30.5t10.5 -24t13.5 -21t15 -9l22 -6q68 83 68 185q0 90 -60 147t-157 57q-124 0 -213.5 -87.5t-89.5 -208.5q0 -90 60 -147t157 -57q124 0 215 89l-99 -3q-18 -1 -28 6t-17 24l-38 91h-23l-10 -48l-7 -34l28 -15zM388 350l-21 -98h25q32 0 50 21.5 t18 50.5q0 41 -44 41h-25z" />
<glyph unicode="&#xaf;" horiz-adv-x="501" d="M161 612l18 82h332l-18 -82h-332z" />
<glyph unicode="&#xb0;" horiz-adv-x="342" d="M416 596q0 -63 -44.5 -106.5t-108.5 -43.5q-50 0 -80.5 28.5t-30.5 76.5q0 63 44.5 106.5t108.5 43.5q50 0 80.5 -28.5t30.5 -76.5zM210 562q0 -29 17.5 -47.5t46.5 -18.5q38 0 61 25t23 64q0 29 -17.5 47.5t-46.5 18.5q-38 0 -61 -25t-23 -64z" />
<glyph unicode="&#xb1;" d="M585 398h-160l-30 -143h-88l29 143h-161l18 85q43 1 161 3l29 139h90l-29 -138q63 1 162 1l7 -8zM537 75h-450l19 85q170 5 453 5l6 -8z" />
<glyph unicode="&#xb2;" horiz-adv-x="379" d="M204 345q-41 0 -82 -13l-11 80q115 53 166.5 99t51.5 89q0 21 -14 35t-40 14q-56 0 -97 -41l-12 6q21 63 72.5 104.5t109.5 41.5q56 0 90 -30t34 -79q0 -110 -125 -166q-22 -10 -118 -45q24 4 50 4q21 0 52.5 -2.5t41.5 -2.5q32 0 51 34l13 -5q-14 -67 -19 -79 q-22 -57 -55 -57q-20 0 -73 6.5t-86 6.5z" />
<glyph unicode="&#xb3;" horiz-adv-x="389" d="M446 468q0 -60 -87 -92.5t-260 -43.5l-1 20q195 55 195 118q0 18 -14.5 29.5t-40.5 11.5q-20 0 -34 -3l-5 34q56 7 87 28t31 51q0 43 -46 43q-48 0 -81 -36l-12 6q30 59 80 92.5t108 33.5q52 0 82 -24.5t30 -59.5q0 -92 -154 -128q122 -4 122 -80z" />
<glyph unicode="&#xb4;" horiz-adv-x="391" d="M291 763l13 6q24 -2 34 -4q84 -16 84 -53q0 -43 -84.5 -90.5t-191.5 -59.5l-10 16q92 86 155 185z" />
<glyph unicode="&#xb6;" horiz-adv-x="635" d="M514 37q-20 -93 -86 -150.5t-160 -57.5q-82 0 -138 26.5t-56 77.5q0 38 28 68.5t83 44.5l15 -10q-3 -29 -3 -55q0 -102 83 -102q50 0 89.5 44t55.5 120l117 550l9 42h-90l-91 -425q-115 0 -181.5 55.5t-66.5 151.5q0 119 104.5 196t266.5 77h230l2 -20l-45 -21 q-41 -19 -48 -56z" />
<glyph unicode="&#xb7;" horiz-adv-x="369" d="M335 286q0 -50 -35 -84.5t-84 -34.5q-41 0 -66.5 25t-25.5 63q0 46 37 81t87 35q37 0 62 -23.5t25 -61.5z" />
<glyph unicode="&#xb8;" horiz-adv-x="366" d="M218 -131q0 -50 -70.5 -85.5t-184.5 -43.5l-2 16q44 15 72 40t28 49t-35 32l-4 10l44 113h61l-23 -57q114 -11 114 -74z" />
<glyph unicode="&#xb9;" horiz-adv-x="314" d="M344 342h-245l-1 13l19 6q49 15 56 50l58 260l-58 16l2 14l202 59l5 -5l-80 -374l46 -26z" />
<glyph unicode="&#xba;" horiz-adv-x="478" d="M556 602q0 -111 -75.5 -180.5t-176.5 -69.5q-77 0 -124 41t-47 114q0 104 76.5 177.5t176.5 73.5q80 0 125 -42.5t45 -113.5zM289 434q0 -43 25 -43q33 0 59.5 105.5t26.5 182.5q0 40 -22 40q-34 0 -61.5 -98.5t-27.5 -186.5z" />
<glyph unicode="&#xbb;" horiz-adv-x="557" d="M376 479l17 9q72 -101 151 -180l5 -9l-20 -90q-180 -141 -235 -189l-15 12q90 152 143 239q-28 109 -46 208zM152 479l17 9q72 -101 151 -180l5 -9l-20 -90q-180 -141 -235 -189l-15 12q90 152 143 239q-28 109 -46 208z" />
<glyph unicode="&#xbc;" horiz-adv-x="1000" d="M390 282h-245l-1 13l19 6q49 15 56 50l58 260l-58 16l2 14l202 59l5 -5l-80 -374l46 -26zM860 700l-575 -710h-71l574 710h72zM814 418l94 -11l-54 -251l59 2l-18 -69l-55 1l-19 -90h-135l20 92l-166 3l4 43zM749 288l-137 -141l107 4z" />
<glyph unicode="&#xbd;" horiz-adv-x="1000" d="M860 700l-575 -710h-71l574 710h72zM390 282h-245l-1 13l19 6q49 15 56 50l58 260l-58 16l2 14l202 59l5 -5l-80 -374l46 -26zM682 3q-41 0 -82 -13l-11 80q115 53 166.5 99t51.5 89q0 21 -14 35t-40 14q-56 0 -97 -41l-12 6q21 63 72.5 104.5t109.5 41.5q56 0 90 -30 t34 -79q0 -110 -125 -166q-22 -10 -118 -45q24 4 50 4q21 0 52.5 -2.5t41.5 -2.5q32 0 51 34l13 -5q-14 -67 -19 -79q-22 -57 -55 -57q-20 0 -73 6.5t-86 6.5z" />
<glyph unicode="&#xbe;" horiz-adv-x="1000" d="M471 408q0 -60 -87 -92.5t-260 -43.5l-1 20q195 55 195 118q0 18 -14.5 29.5t-40.5 11.5q-21 0 -34 -3l-5 34q56 7 87 28t31 51q0 43 -46 43q-48 0 -81 -36l-12 6q30 59 80 92.5t108 33.5q52 0 82 -24.5t30 -59.5q0 -92 -154 -128q122 -4 122 -80zM870 700l-575 -710h-71 l574 710h72zM814 418l94 -11l-54 -251l59 2l-18 -69l-55 1l-19 -90h-135l20 92l-166 3l4 43zM749 288l-137 -141l107 4z" />
<glyph unicode="&#xbf;" horiz-adv-x="452" d="M339 510q31 0 51 -19t20 -51q0 -41 -33.5 -71.5t-75.5 -30.5q-31 0 -51 19t-20 50q0 42 33 72.5t76 30.5zM218 273l8 10q117 0 117 -79q0 -35 -19.5 -64.5t-47.5 -51.5t-55.5 -45t-47 -56.5t-19.5 -74.5q0 -62 45 -62q39 0 62 45t23 99q0 5 -0.5 13t-0.5 12q32 16 75 16 q34 0 53.5 -17t19.5 -47q0 -72 -77.5 -121.5t-172.5 -49.5q-201 0 -201 146q0 46 27 84t66 62.5t77.5 46t65.5 44.5t27 47q0 26 -25 43z" />
<glyph unicode="&#xc0;" horiz-adv-x="723" d="M672 796l-9 -19q-266 0 -266 84q0 29 30 53t65 35l13 -2q61 -78 167 -151zM449 690h115l74 -595q3 -26 11.5 -37.5t27.5 -21.5l31 -16l-2 -20h-320l-4 20l75 33l-17 145l-216 -3l-78 -142l75 -33l-4 -20h-210l-4 20l58 25q18 7 28.5 17.5t21.5 30.5zM251 245l184 -2 l-32 278z" />
<glyph unicode="&#xc1;" horiz-adv-x="723" d="M610 946l13 2q70 -35 70 -73q0 -47 -82 -73t-230 -26l-6 19q141 69 235 151zM449 690h115l74 -595q3 -26 11.5 -37.5t27.5 -21.5l31 -16l-2 -20h-320l-4 20l75 33l-17 145l-216 -3l-78 -142l75 -33l-4 -20h-210l-4 20l58 25q18 7 28.5 17.5t21.5 30.5zM251 245l184 -2 l-32 278z" />
<glyph unicode="&#xc2;" horiz-adv-x="723" d="M707 787l-18 -11q-77 42 -143 69q-93 -38 -175 -69l-11 14q82 79 147 151l13 8h95q61 -85 92 -162zM449 690h115l74 -595q3 -26 11.5 -37.5t27.5 -21.5l31 -16l-2 -20h-320l-4 20l75 33l-17 145l-216 -3l-78 -142l75 -33l-4 -20h-210l-4 20l58 25q18 7 28.5 17.5 t21.5 30.5zM251 245l184 -2l-32 278z" />
<glyph unicode="&#xc3;" horiz-adv-x="723" d="M398 833q-12 -7 -72 -54l-17 8q20 76 65.5 119t105.5 43q45 0 111.5 -27t94.5 -30q14 9 41 30t31 24l17 -8q-20 -76 -66 -119t-105 -43q-44 0 -110 27t-96 30zM449 690h115l74 -595q3 -26 11.5 -37.5t27.5 -21.5l31 -16l-2 -20h-320l-4 20l75 33l-17 145l-216 -3 l-78 -142l75 -33l-4 -20h-210l-4 20l58 25q18 7 28.5 17.5t21.5 30.5zM251 245l184 -2l-32 278z" />
<glyph unicode="&#xc4;" horiz-adv-x="723" d="M748 870q0 -39 -29 -65.5t-71 -26.5q-36 0 -58.5 20t-22.5 51q0 38 30.5 64.5t73.5 26.5q32 0 54.5 -19.5t22.5 -50.5zM499 870q0 -39 -29 -65.5t-71 -26.5q-36 0 -58.5 20t-22.5 51q0 38 30.5 64.5t73.5 26.5q32 0 54.5 -19.5t22.5 -50.5zM449 690h115l74 -595 q3 -26 11.5 -37.5t27.5 -21.5l31 -16l-2 -20h-320l-4 20l75 33l-17 145l-216 -3l-78 -142l75 -33l-4 -20h-210l-4 20l58 25q18 7 28.5 17.5t21.5 30.5zM251 245l184 -2l-32 278z" />
<glyph unicode="&#xc5;" horiz-adv-x="723" d="M654 879q0 -48 -41.5 -81.5t-101.5 -33.5q-45 0 -71.5 22t-26.5 59q0 48 41.5 81t101.5 33q45 0 71.5 -21.5t26.5 -58.5zM480 846q0 -20 11 -31.5t30 -11.5q28 0 47 21.5t19 53.5q0 19 -11 30.5t-30 11.5q-28 0 -47 -21.5t-19 -52.5zM449 690h115l74 -595 q3 -26 11.5 -37.5t27.5 -21.5l31 -16l-2 -20h-320l-4 20l75 33l-17 145l-216 -3l-78 -142l75 -33l-4 -20h-210l-4 20l58 25q18 7 28.5 17.5t21.5 30.5zM251 245l184 -2l-32 278z" />
<glyph unicode="&#xc6;" horiz-adv-x="952" d="M414 628l-67 37l7 25h660q0 -113 -57 -240h-30q-37 152 -54 186q-27 3 -62 3l-75 1l-58 -273l184 8l-18 -69l-176 10l-47 -219l-10 -47l100 -1q30 0 63 5q27 27 133 186h30q6 -123 -45 -240h-536l-2 20l34 21q16 10 23 15t14.5 16t10.5 25l47 220l-192 -2l-143 -261 l68 -29l-7 -25h-195l3 25q39 16 54 25q27 18 40 43zM550 635h-83l-149 -270l174 -2z" />
<glyph unicode="&#xc7;" horiz-adv-x="663" d="M511 -131q0 -50 -70.5 -85.5t-184.5 -43.5l-2 16q44 15 72 40t28 49t-35 32l-4 10l41 105q-124 13 -190 87t-66 201q0 171 123.5 295.5t292.5 124.5q117 0 196 -32q-5 -114 -55 -228h-30q-45 142 -74 196q-13 3 -27 3q-97 0 -166.5 -108.5t-69.5 -260.5q0 -97 38 -158.5 t99 -61.5q14 0 24 3q68 60 169 187h30q-6 -106 -51 -228q-88 -21 -183 -22l-19 -47q114 -11 114 -74z" />
<glyph unicode="&#xc8;" horiz-adv-x="637" d="M628 796l-9 -19q-266 0 -266 84q0 29 30 53t65 35l13 -2q61 -78 167 -151zM414 593l-48 -225l181 7l-18 -69l-174 10l-47 -219l-10 -48h98q38 0 63 5q27 27 133 186h30q6 -123 -45 -240h-534l-2 20l34 21q16 10 23 15t14.5 16t10.5 25l106 496l9 42l-57 35l4 20h514 q0 -113 -57 -240h-30q-37 152 -54 186q-15 3 -62 3h-72z" />
<glyph unicode="&#xc9;" horiz-adv-x="637" d="M556 946l13 2q70 -35 70 -73q0 -47 -82 -73t-230 -26l-6 19q141 69 235 151zM414 593l-48 -225l181 7l-18 -69l-174 10l-47 -219l-10 -48h98q38 0 63 5q27 27 133 186h30q6 -123 -45 -240h-534l-2 20l34 21q16 10 23 15t14.5 16t10.5 25l106 496l9 42l-57 35l4 20h514 q0 -113 -57 -240h-30q-37 152 -54 186q-15 3 -62 3h-72z" />
<glyph unicode="&#xca;" horiz-adv-x="637" d="M663 787l-18 -11q-77 42 -143 69q-93 -38 -175 -69l-11 14q82 79 147 151l13 8h95q61 -85 92 -162zM414 593l-48 -225l181 7l-18 -69l-174 10l-47 -219l-10 -48h98q38 0 63 5q27 27 133 186h30q6 -123 -45 -240h-534l-2 20l34 21q16 10 23 15t14.5 16t10.5 25l106 496 l9 42l-57 35l4 20h514q0 -113 -57 -240h-30q-37 152 -54 186q-15 3 -62 3h-72z" />
<glyph unicode="&#xcb;" horiz-adv-x="637" d="M704 870q0 -39 -29 -65.5t-71 -26.5q-36 0 -58.5 20t-22.5 51q0 38 30.5 64.5t73.5 26.5q32 0 54.5 -19.5t22.5 -50.5zM455 870q0 -39 -29 -65.5t-71 -26.5q-36 0 -58.5 20t-22.5 51q0 38 30.5 64.5t73.5 26.5q32 0 54.5 -19.5t22.5 -50.5zM414 593l-48 -225l181 7 l-18 -69l-174 10l-47 -219l-10 -48h98q38 0 63 5q27 27 133 186h30q6 -123 -45 -240h-534l-2 20l34 21q16 10 23 15t14.5 16t10.5 25l106 496l9 42l-57 35l4 20h514q0 -113 -57 -240h-30q-37 152 -54 186q-15 3 -62 3h-72z" />
<glyph unicode="&#xcc;" horiz-adv-x="413" d="M516 796l-9 -19q-266 0 -266 84q0 29 30 53t65 35l13 -2q61 -78 167 -151zM299 55l57 -35l-4 -20h-309l-2 20l34 21q16 10 23 15t14.5 16t10.5 25l105 496l9 42l-57 35l4 20h309l2 -20l-34 -21q-16 -10 -23 -15t-14.5 -16t-10.5 -25l-105 -496z" />
<glyph unicode="&#xcd;" horiz-adv-x="413" d="M446 946l13 2q70 -35 70 -73q0 -47 -82 -73t-230 -26l-6 19q141 69 235 151zM299 55l57 -35l-4 -20h-309l-2 20l34 21q16 10 23 15t14.5 16t10.5 25l105 496l9 42l-57 35l4 20h309l2 -20l-34 -21q-16 -10 -23 -15t-14.5 -16t-10.5 -25l-105 -496z" />
<glyph unicode="&#xce;" horiz-adv-x="413" d="M532 787l-18 -11q-77 42 -143 69q-93 -38 -175 -69l-11 14q82 79 147 151l13 8h95q61 -85 92 -162zM299 55l57 -35l-4 -20h-309l-2 20l34 21q16 10 23 15t14.5 16t10.5 25l105 496l9 42l-57 35l4 20h309l2 -20l-34 -21q-16 -10 -23 -15t-14.5 -16t-10.5 -25l-105 -496z " />
<glyph unicode="&#xcf;" horiz-adv-x="413" d="M592 870q0 -39 -29 -65.5t-71 -26.5q-36 0 -58.5 20t-22.5 51q0 38 30.5 64.5t73.5 26.5q32 0 54.5 -19.5t22.5 -50.5zM343 870q0 -39 -29 -65.5t-71 -26.5q-36 0 -58.5 20t-22.5 51q0 38 30.5 64.5t73.5 26.5q32 0 54.5 -19.5t22.5 -50.5zM299 55l57 -35l-4 -20h-309 l-2 20l34 21q16 10 23 15t14.5 16t10.5 25l105 496l9 42l-57 35l4 20h309l2 -20l-34 -21q-16 -10 -23 -15t-14.5 -16t-10.5 -25l-105 -496z" />
<glyph unicode="&#xd0;" horiz-adv-x="758" d="M287 0h-244l-2 20l34 21q16 10 23 15t14.5 16t10.5 25l49 226h-94l10 50h95l48 220h-1l9 42l-57 35l4 20h311q131 0 211.5 -68t80.5 -194q0 -83 -28.5 -159t-82 -136.5t-139.5 -96.5t-191 -36h-61l11 50h46q71 0 130.5 60t92 154.5t32.5 199.5q0 176 -128 176h-46 l-10 -47l-47 -220h124l-11 -50h-124l-49 -226z" />
<glyph unicode="&#xd1;" horiz-adv-x="727" d="M412 833q-12 -7 -72 -54l-17 8q20 76 65.5 119t105.5 43q45 0 111.5 -27t94.5 -30q14 9 41 30t31 24l17 -8q-20 -76 -66 -119t-105 -43q-44 0 -110 27t-96 30zM175 62l65 -37l-5 -25h-206l-3 25l40 20q22 11 29 15t16 14t12 23l112 531l-65 37l5 25h214l219 -472l80 375 l8 35l-85 37l5 25h226l3 -25l-40 -20q-22 -11 -29 -15t-16 -14t-12 -23l-126 -593h-115l-236 511l-88 -414z" />
<glyph unicode="&#xd2;" horiz-adv-x="702" d="M663 796l-9 -19q-266 0 -266 84q0 29 30 53t65 35l13 -2q61 -78 167 -151zM734 439q0 -130 -55 -234.5t-142 -159.5t-186 -55q-113 0 -184.5 70.5t-71.5 189.5q0 121 54 225.5t142.5 164.5t186.5 60q122 0 189 -72t67 -189zM285 143q0 -46 17.5 -72t50.5 -26 q48 0 94.5 94.5t71.5 211t25 198.5q0 96 -65 96q-51 0 -97.5 -87.5t-71.5 -202.5t-25 -212z" />
<glyph unicode="&#xd3;" horiz-adv-x="702" d="M612 946l13 2q70 -35 70 -73q0 -47 -82 -73t-230 -26l-6 19q141 69 235 151zM734 439q0 -130 -55 -234.5t-142 -159.5t-186 -55q-113 0 -184.5 70.5t-71.5 189.5q0 121 54 225.5t142.5 164.5t186.5 60q122 0 189 -72t67 -189zM285 143q0 -46 17.5 -72t50.5 -26 q48 0 94.5 94.5t71.5 211t25 198.5q0 96 -65 96q-51 0 -97.5 -87.5t-71.5 -202.5t-25 -212z" />
<glyph unicode="&#xd4;" horiz-adv-x="702" d="M679 787l-18 -11q-77 42 -143 69q-93 -38 -175 -69l-11 14q82 79 147 151l13 8h95q61 -85 92 -162zM734 439q0 -130 -55 -234.5t-142 -159.5t-186 -55q-113 0 -184.5 70.5t-71.5 189.5q0 121 54 225.5t142.5 164.5t186.5 60q122 0 189 -72t67 -189zM285 143 q0 -46 17.5 -72t50.5 -26q48 0 94.5 94.5t71.5 211t25 198.5q0 96 -65 96q-51 0 -97.5 -87.5t-71.5 -202.5t-25 -212z" />
<glyph unicode="&#xd5;" horiz-adv-x="702" d="M381 833q-12 -7 -72 -54l-17 8q20 76 65.5 119t105.5 43q45 0 111.5 -27t94.5 -30q14 9 41 30t31 24l17 -8q-20 -76 -66 -119t-105 -43q-44 0 -110 27t-96 30zM734 439q0 -130 -55 -234.5t-142 -159.5t-186 -55q-113 0 -184.5 70.5t-71.5 189.5q0 121 54 225.5 t142.5 164.5t186.5 60q122 0 189 -72t67 -189zM285 143q0 -46 17.5 -72t50.5 -26q48 0 94.5 94.5t71.5 211t25 198.5q0 96 -65 96q-51 0 -97.5 -87.5t-71.5 -202.5t-25 -212z" />
<glyph unicode="&#xd6;" horiz-adv-x="702" d="M739 870q0 -39 -29 -65.5t-71 -26.5q-36 0 -58.5 20t-22.5 51q0 38 30.5 64.5t73.5 26.5q32 0 54.5 -19.5t22.5 -50.5zM490 870q0 -39 -29 -65.5t-71 -26.5q-36 0 -58.5 20t-22.5 51q0 38 30.5 64.5t73.5 26.5q32 0 54.5 -19.5t22.5 -50.5zM734 439q0 -130 -55 -234.5 t-142 -159.5t-186 -55q-113 0 -184.5 70.5t-71.5 189.5q0 121 54 225.5t142.5 164.5t186.5 60q122 0 189 -72t67 -189zM285 143q0 -46 17.5 -72t50.5 -26q48 0 94.5 94.5t71.5 211t25 198.5q0 96 -65 96q-51 0 -97.5 -87.5t-71.5 -202.5t-25 -212z" />
<glyph unicode="&#xd7;" d="M487 130l-122 153l-188 -153l-49 69l184 150l-120 151l68 60q41 -46 124 -152l187 152l49 -69l-183 -149q55 -71 119 -150l-2 -11z" />
<glyph unicode="&#xd8;" horiz-adv-x="702" d="M734 439q0 -130 -55 -234.5t-142 -159.5t-186 -55q-116 0 -186 72l-67 -67l-35 36l71 70q-39 64 -39 149q0 121 54 225.5t142.5 164.5t186.5 60q119 0 187 -70l66 65l36 -35l-71 -70q38 -64 38 -151zM479 645q-42 0 -81.5 -60t-65 -146t-38.5 -179l248 247q2 30 2 42 q0 96 -65 96zM285 143q0 -46 17.5 -72t50.5 -26q39 0 77 62t63.5 146t39.5 174l-247 -245q-1 -13 -1 -39z" />
<glyph unicode="&#xd9;" horiz-adv-x="694" d="M696 796l-9 -19q-266 0 -266 84q0 29 30 53t65 35l13 -2q61 -78 167 -151zM211 635l-57 35l4 20h309l2 -20l-34 -21q-16 -10 -23 -15t-14.5 -16t-10.5 -25l-72 -338q-7 -34 -7 -69q0 -65 28.5 -100.5t83.5 -35.5q129 0 173 202l76 351l5 25l-84 37l5 25h226l3 -25 l-90 -37l-5 -25l-74 -348q-28 -132 -94.5 -198.5t-193.5 -66.5q-113 0 -177.5 52.5t-64.5 150.5q0 39 7 68l70 332z" />
<glyph unicode="&#xda;" horiz-adv-x="694" d="M624 946l13 2q70 -35 70 -73q0 -47 -82 -73t-230 -26l-6 19q141 69 235 151zM211 635l-57 35l4 20h309l2 -20l-34 -21q-16 -10 -23 -15t-14.5 -16t-10.5 -25l-72 -338q-7 -34 -7 -69q0 -65 28.5 -100.5t83.5 -35.5q129 0 173 202l76 351l5 25l-84 37l5 25h226l3 -25 l-90 -37l-5 -25l-74 -348q-28 -132 -94.5 -198.5t-193.5 -66.5q-113 0 -177.5 52.5t-64.5 150.5q0 39 7 68l70 332z" />
<glyph unicode="&#xdb;" horiz-adv-x="694" d="M721 787l-18 -11q-77 42 -143 69q-93 -38 -175 -69l-11 14q82 79 147 151l13 8h95q61 -85 92 -162zM211 635l-57 35l4 20h309l2 -20l-34 -21q-16 -10 -23 -15t-14.5 -16t-10.5 -25l-72 -338q-7 -34 -7 -69q0 -65 28.5 -100.5t83.5 -35.5q129 0 173 202l76 351l5 25 l-84 37l5 25h226l3 -25l-90 -37l-5 -25l-74 -348q-28 -132 -94.5 -198.5t-193.5 -66.5q-113 0 -177.5 52.5t-64.5 150.5q0 39 7 68l70 332z" />
<glyph unicode="&#xdc;" horiz-adv-x="694" d="M772 870q0 -39 -29 -65.5t-71 -26.5q-36 0 -58.5 20t-22.5 51q0 38 30.5 64.5t73.5 26.5q32 0 54.5 -19.5t22.5 -50.5zM523 870q0 -39 -29 -65.5t-71 -26.5q-36 0 -58.5 20t-22.5 51q0 38 30.5 64.5t73.5 26.5q32 0 54.5 -19.5t22.5 -50.5zM211 635l-57 35l4 20h309 l2 -20l-34 -21q-16 -10 -23 -15t-14.5 -16t-10.5 -25l-72 -338q-7 -34 -7 -69q0 -65 28.5 -100.5t83.5 -35.5q129 0 173 202l76 351l5 25l-84 37l5 25h226l3 -25l-90 -37l-5 -25l-74 -348q-28 -132 -94.5 -198.5t-193.5 -66.5q-113 0 -177.5 52.5t-64.5 150.5q0 39 7 68 l70 332z" />
<glyph unicode="&#xdd;" horiz-adv-x="700" d="M623 946l13 2q70 -35 70 -73q0 -47 -82 -73t-230 -26l-6 19q141 69 235 151zM424 55l57 -35l-4 -20h-309l-2 20l34 21q16 10 23 15t14.5 16t10.5 25l30 142q9 62 2 141t-30.5 146.5t-48.5 67.5q-24 0 -71 -51l-20 16q36 68 84.5 104.5t98.5 36.5q45 0 77.5 -25t51 -73.5 t27 -107.5t10.5 -137q175 343 266 343q37 0 57.5 -40.5t27.5 -100.5l-22 -6q-27 41 -55 41q-40 0 -100.5 -67.5t-112 -165.5t-69.5 -181l-18 -83z" />
<glyph unicode="&#xde;" horiz-adv-x="660" d="M298 55l77 -35l-4 -20h-329l-2 20l34 21q16 10 23 15t14.5 16t10.5 25h1l105 496l9 42l-57 35l4 20h309l2 -20l-34 -21q-16 -10 -23 -15t-14.5 -16t-10.5 -25l-6 -30h45q119 0 189 -49.5t70 -135.5q0 -107 -96.5 -176t-234.5 -69h-65l-8 -36zM425 508h-30l-69 -320h41 q66 0 111 61t45 144q0 115 -98 115z" />
<glyph unicode="&#xdf;" horiz-adv-x="660" d="M255 20q-28 -134 -107.5 -207t-181.5 -73q-55 0 -88.5 21t-33.5 55q0 39 37 54q30 -37 70 -37q85 0 118 157l101 478q27 141 111 216.5t213 75.5q88 0 135 -36.5t47 -104.5t-50 -115.5t-131 -62.5q173 -77 173 -224q0 -95 -71.5 -161t-173.5 -66q-49 0 -80 21t-31 55 q0 39 37 54q22 -37 54 -37q34 0 57 41t23 100q0 136 -94 194l9 40q52 8 87 57t35 108q0 87 -49 87q-38 0 -65 -47.5t-47 -152.5z" />
<glyph unicode="&#xe0;" d="M507 577l-13 -15q-96 27 -157 68t-61 81q0 57 95 57q23 0 34 -1l11 -8q35 -86 91 -182zM561 180q-11 -53 -11 -65q0 -19 17 -19q22 0 72 41l10 -10q-29 -56 -77 -96.5t-105 -40.5q-47 0 -73 26.5t-26 74.5q0 34 13 89l3 11h-6q-35 -89 -85.5 -145t-107.5 -56 q-54 0 -87.5 44t-33.5 116q0 92 39 173t118 134t181 53q133 0 229 -48l-27 -80zM249 182q0 -60 27 -60q34 0 74 79.5t65 165.5l19 74q-20 19 -50 19q-33 0 -65.5 -48t-51 -112.5t-18.5 -117.5z" />
<glyph unicode="&#xe1;" d="M455 763l13 6q24 -2 34 -4q84 -16 84 -53q0 -43 -84.5 -90.5t-191.5 -59.5l-10 16q92 86 155 185zM561 180q-11 -53 -11 -65q0 -19 17 -19q22 0 72 41l10 -10q-29 -56 -77 -96.5t-105 -40.5q-47 0 -73 26.5t-26 74.5q0 34 13 89l3 11h-6q-35 -89 -85.5 -145t-107.5 -56 q-54 0 -87.5 44t-33.5 116q0 92 39 173t118 134t181 53q133 0 229 -48l-27 -80zM249 182q0 -60 27 -60q34 0 74 79.5t65 165.5l19 74q-20 19 -50 19q-33 0 -65.5 -48t-51 -112.5t-18.5 -117.5z" />
<glyph unicode="&#xe2;" d="M577 577l-18 -11q-66 51 -128 86q-114 -62 -160 -86l-11 14q90 114 132 175l13 8h95q52 -100 77 -186zM561 180q-11 -53 -11 -65q0 -19 17 -19q22 0 72 41l10 -10q-29 -56 -77 -96.5t-105 -40.5q-47 0 -73 26.5t-26 74.5q0 34 13 89l3 11h-6q-35 -89 -85.5 -145 t-107.5 -56q-54 0 -87.5 44t-33.5 116q0 92 39 173t118 134t181 53q133 0 229 -48l-27 -80zM249 182q0 -60 27 -60q34 0 74 79.5t65 165.5l19 74q-20 19 -50 19q-33 0 -65.5 -48t-51 -112.5t-18.5 -117.5z" />
<glyph unicode="&#xe3;" d="M283 629q-9 -6 -72 -58l-13 6q20 81 66 127t106 46q42 0 104.5 -29t89.5 -32q9 6 72 58l13 -6q-20 -81 -66 -127t-106 -46q-41 0 -103.5 29t-90.5 32zM561 180q-11 -53 -11 -65q0 -19 17 -19q22 0 72 41l10 -10q-29 -56 -77 -96.5t-105 -40.5q-47 0 -73 26.5t-26 74.5 q0 34 13 89l3 11h-6q-35 -89 -85.5 -145t-107.5 -56q-54 0 -87.5 44t-33.5 116q0 92 39 173t118 134t181 53q133 0 229 -48l-27 -80zM249 182q0 -60 27 -60q34 0 74 79.5t65 165.5l19 74q-20 19 -50 19q-33 0 -65.5 -48t-51 -112.5t-18.5 -117.5z" />
<glyph unicode="&#xe4;" d="M632 678q0 -41 -29 -69.5t-70 -28.5q-35 0 -57.5 22t-22.5 55q0 40 30 68.5t73 28.5q32 0 54 -21t22 -55zM391 678q0 -41 -29 -69.5t-70 -28.5q-35 0 -57.5 22t-22.5 55q0 40 30 68.5t73 28.5q32 0 54 -21t22 -55zM561 180q-11 -53 -11 -65q0 -19 17 -19q22 0 72 41 l10 -10q-29 -56 -77 -96.5t-105 -40.5q-47 0 -73 26.5t-26 74.5q0 34 13 89l3 11h-6q-35 -89 -85.5 -145t-107.5 -56q-54 0 -87.5 44t-33.5 116q0 92 39 173t118 134t181 53q133 0 229 -48l-27 -80zM249 182q0 -60 27 -60q34 0 74 79.5t65 165.5l19 74q-20 19 -50 19 q-33 0 -65.5 -48t-51 -112.5t-18.5 -117.5z" />
<glyph unicode="&#xe5;" d="M553 683q0 -48 -41.5 -81.5t-101.5 -33.5q-45 0 -71.5 22t-26.5 59q0 48 41.5 81t101.5 33q45 0 71.5 -21.5t26.5 -58.5zM379 650q0 -20 11 -31.5t30 -11.5q28 0 47 21.5t19 53.5q0 19 -11 30.5t-30 11.5q-28 0 -47 -21.5t-19 -52.5zM561 180q-11 -53 -11 -65 q0 -19 17 -19q22 0 72 41l10 -10q-29 -56 -77 -96.5t-105 -40.5q-47 0 -73 26.5t-26 74.5q0 34 13 89l3 11h-6q-35 -89 -85.5 -145t-107.5 -56q-54 0 -87.5 44t-33.5 116q0 92 39 173t118 134t181 53q133 0 229 -48l-27 -80zM249 182q0 -60 27 -60q34 0 74 79.5t65 165.5 l19 74q-20 19 -50 19q-33 0 -65.5 -48t-51 -112.5t-18.5 -117.5z" />
<glyph unicode="&#xe6;" horiz-adv-x="811" d="M818 151q-39 -76 -103 -118.5t-144 -42.5q-85 0 -136 55t-51 146h-6q-35 -89 -85.5 -145t-107.5 -56q-54 0 -87.5 44t-33.5 116q0 92 39 173t118 134t181 53q89 0 169 -25q55 25 111 25q70 0 116 -35.5t46 -94.5q0 -75 -68.5 -121t-206.5 -39q1 -57 28.5 -86t72.5 -29 q33 0 71.5 15.5t66.5 40.5zM249 182q0 -60 27 -60q34 0 74 79.5t65 165.5l19 74q-20 19 -50 19q-33 0 -65.5 -48t-51 -112.5t-18.5 -117.5zM666 460q-33 0 -61 -60t-35 -142q54 3 89 48.5t35 107.5q0 46 -28 46z" />
<glyph unicode="&#xe7;" horiz-adv-x="490" d="M379 -131q0 -50 -70.5 -85.5t-184.5 -43.5l-2 16q44 15 72 40t28 49t-35 32l-4 10l41 106q-71 11 -112 64t-41 134q0 129 89.5 224t208.5 95q73 0 120 -36.5t47 -93.5q0 -50 -30.5 -80t-75.5 -30q-34 0 -67 20q23 86 23 120q0 50 -33 50q-37 0 -67 -72t-30 -153 q0 -130 101 -130q33 0 71.5 15.5t66.5 40.5l10 -10q-76 -146 -220 -160l-20 -48q114 -11 114 -74z" />
<glyph unicode="&#xe8;" horiz-adv-x="498" d="M463 577l-13 -15q-96 27 -157 68t-61 81q0 57 95 57q23 0 34 -1l11 -8q35 -86 91 -182zM505 151q-39 -76 -103 -118.5t-144 -42.5q-85 0 -136 55t-51 146q0 129 89.5 224t208.5 95q70 0 116 -35.5t46 -94.5q0 -75 -68.5 -121t-206.5 -39q1 -57 28.5 -86t72.5 -29 q33 0 71.5 15.5t66.5 40.5zM353 460q-33 0 -61 -60t-35 -142q54 3 89 48.5t35 107.5q0 46 -28 46z" />
<glyph unicode="&#xe9;" horiz-adv-x="498" d="M411 763l13 6q24 -2 34 -4q84 -16 84 -53q0 -43 -84.5 -90.5t-191.5 -59.5l-10 16q92 86 155 185zM505 151q-39 -76 -103 -118.5t-144 -42.5q-85 0 -136 55t-51 146q0 129 89.5 224t208.5 95q70 0 116 -35.5t46 -94.5q0 -75 -68.5 -121t-206.5 -39q1 -57 28.5 -86 t72.5 -29q33 0 71.5 15.5t66.5 40.5zM353 460q-33 0 -61 -60t-35 -142q54 3 89 48.5t35 107.5q0 46 -28 46z" />
<glyph unicode="&#xea;" horiz-adv-x="498" d="M543 577l-18 -11q-66 51 -128 86q-114 -62 -160 -86l-11 14q90 114 132 175l13 8h95q52 -100 77 -186zM505 151q-39 -76 -103 -118.5t-144 -42.5q-85 0 -136 55t-51 146q0 129 89.5 224t208.5 95q70 0 116 -35.5t46 -94.5q0 -75 -68.5 -121t-206.5 -39q1 -57 28.5 -86 t72.5 -29q33 0 71.5 15.5t66.5 40.5zM353 460q-33 0 -61 -60t-35 -142q54 3 89 48.5t35 107.5q0 46 -28 46z" />
<glyph unicode="&#xeb;" horiz-adv-x="498" d="M598 678q0 -41 -29 -69.5t-70 -28.5q-35 0 -57.5 22t-22.5 55q0 40 30 68.5t73 28.5q32 0 54 -21t22 -55zM357 678q0 -41 -29 -69.5t-70 -28.5q-35 0 -57.5 22t-22.5 55q0 40 30 68.5t73 28.5q32 0 54 -21t22 -55zM505 151q-39 -76 -103 -118.5t-144 -42.5q-85 0 -136 55 t-51 146q0 129 89.5 224t208.5 95q70 0 116 -35.5t46 -94.5q0 -75 -68.5 -121t-206.5 -39q1 -57 28.5 -86t72.5 -29q33 0 71.5 15.5t66.5 40.5zM353 460q-33 0 -61 -60t-35 -142q54 3 89 48.5t35 107.5q0 46 -28 46z" />
<glyph unicode="&#xec;" horiz-adv-x="362" d="M373 577l-13 -15q-96 27 -157 68t-61 81q0 57 95 57q23 0 34 -1l11 -8q35 -86 91 -182zM297 180q-11 -53 -11 -65q0 -19 17 -19q22 0 72 41l10 -10q-29 -56 -77 -96.5t-105 -40.5q-47 0 -73 26.5t-26 74.5q0 34 13 89q5 24 15 70.5t15 69.5q11 53 11 65q0 19 -17 19 q-22 0 -72 -41l-10 10q29 56 77 96.5t105 40.5q47 0 73 -26.5t26 -74.5q0 -34 -13 -89q-5 -23 -15 -70t-15 -70z" />
<glyph unicode="&#xed;" horiz-adv-x="362" d="M301 763l13 6q24 -2 34 -4q84 -16 84 -53q0 -43 -84.5 -90.5t-191.5 -59.5l-10 16q92 86 155 185zM297 180q-11 -53 -11 -65q0 -19 17 -19q22 0 72 41l10 -10q-29 -56 -77 -96.5t-105 -40.5q-47 0 -73 26.5t-26 74.5q0 34 13 89q5 24 15 70.5t15 69.5q11 53 11 65 q0 19 -17 19q-22 0 -72 -41l-10 10q29 56 77 96.5t105 40.5q47 0 73 -26.5t26 -74.5q0 -34 -13 -89q-5 -23 -15 -70t-15 -70z" />
<glyph unicode="&#xee;" horiz-adv-x="362" d="M378 577l-18 -11q-34 32 -95 76q-52 -34 -123 -76l-11 14q68 118 97 175l13 8h95q28 -97 42 -186zM297 180q-11 -53 -11 -65q0 -19 17 -19q22 0 72 41l10 -10q-29 -56 -77 -96.5t-105 -40.5q-47 0 -73 26.5t-26 74.5q0 34 13 89q5 24 15 70.5t15 69.5q11 53 11 65 q0 19 -17 19q-22 0 -72 -41l-10 10q29 56 77 96.5t105 40.5q47 0 73 -26.5t26 -74.5q0 -34 -13 -89q-5 -23 -15 -70t-15 -70z" />
<glyph unicode="&#xef;" horiz-adv-x="362" d="M460 687q0 -45 -26.5 -76t-64.5 -31q-28 0 -44 18t-16 49q0 45 27 76t66 31q27 0 42.5 -18t15.5 -49zM261 687q0 -45 -26.5 -76t-64.5 -31q-28 0 -44 18t-16 49q0 45 27 76t66 31q27 0 42.5 -18t15.5 -49zM297 180q-11 -53 -11 -65q0 -19 17 -19q22 0 72 41l10 -10 q-29 -56 -77 -96.5t-105 -40.5q-47 0 -73 26.5t-26 74.5q0 34 13 89q5 24 15 70.5t15 69.5q11 53 11 65q0 19 -17 19q-22 0 -72 -41l-10 10q29 56 77 96.5t105 40.5q47 0 73 -26.5t26 -74.5q0 -34 -13 -89q-5 -23 -15 -70t-15 -70z" />
<glyph unicode="&#xf0;" horiz-adv-x="549" d="M284 -10q-95 0 -153.5 53.5t-58.5 148.5q0 132 85.5 225t198.5 93q11 0 33 -2q-13 48 -34 84l-190 -81l-13 54l171 73q-46 58 -117 92l14 30q121 -25 200 -80l141 60l14 -54l-107 -46q104 -101 104 -281q0 -169 -85 -269t-203 -100zM360 466q-42 -1 -73 -126t-31 -229 q0 -76 33 -76q39 0 71.5 135t32.5 228q0 68 -33 68z" />
<glyph unicode="&#xf1;" horiz-adv-x="654" d="M314 629q-9 -6 -72 -58l-13 6q20 81 66 127t106 46q42 0 104.5 -29t89.5 -32q9 6 72 58l13 -6q-20 -81 -66 -127t-106 -46q-41 0 -103.5 29t-90.5 32zM83 19l34 161q5 23 30 133q12 60 12 70q0 21 -17 21q-22 0 -72 -41l-10 10q31 57 76.5 97t99.5 40q44 0 68.5 -23 t24.5 -62q0 -30 -32 -143l4 -1q18 40 40 75.5t52 72.5t68 59t78 22q48 0 75 -27t27 -67q0 -20 -5.5 -53.5t-10.5 -56t-16.5 -69.5t-13.5 -57q-11 -53 -11 -65q0 -19 17 -19q22 0 72 41l10 -10q-29 -56 -77 -96.5t-105 -40.5q-47 0 -73 26.5t-26 74.5q0 34 13 89 q41 162 41 180q0 27 -20 27q-31 0 -77.5 -73t-61.5 -134l-38 -180l-83 -3q-72 -3 -79 -3q-19 0 -14 25z" />
<glyph unicode="&#xf2;" horiz-adv-x="562" d="M495 577l-13 -15q-96 27 -157 68t-61 81q0 57 95 57q23 0 34 -1l11 -8q35 -86 91 -182zM578 309q0 -142 -87.5 -230.5t-206.5 -88.5q-95 0 -154 53.5t-59 148.5q0 132 88.5 224.5t206.5 92.5q99 0 155.5 -54.5t56.5 -145.5zM256 111q0 -76 33 -76q39 0 71.5 135t32.5 228 q0 68 -33 68q-40 0 -72 -126.5t-32 -228.5z" />
<glyph unicode="&#xf3;" horiz-adv-x="562" d="M413 763l13 6q24 -2 34 -4q84 -16 84 -53q0 -43 -84.5 -90.5t-191.5 -59.5l-10 16q92 86 155 185zM578 309q0 -142 -87.5 -230.5t-206.5 -88.5q-95 0 -154 53.5t-59 148.5q0 132 88.5 224.5t206.5 92.5q99 0 155.5 -54.5t56.5 -145.5zM256 111q0 -76 33 -76 q39 0 71.5 135t32.5 228q0 68 -33 68q-40 0 -72 -126.5t-32 -228.5z" />
<glyph unicode="&#xf4;" horiz-adv-x="562" d="M545 577l-18 -11q-66 51 -128 86q-114 -62 -160 -86l-11 14q90 114 132 175l13 8h95q52 -100 77 -186zM578 309q0 -142 -87.5 -230.5t-206.5 -88.5q-95 0 -154 53.5t-59 148.5q0 132 88.5 224.5t206.5 92.5q99 0 155.5 -54.5t56.5 -145.5zM256 111q0 -76 33 -76 q39 0 71.5 135t32.5 228q0 68 -33 68q-40 0 -72 -126.5t-32 -228.5z" />
<glyph unicode="&#xf5;" horiz-adv-x="562" d="M261 629q-9 -6 -72 -58l-13 6q20 81 66 127t106 46q42 0 104.5 -29t89.5 -32q9 6 72 58l13 -6q-20 -81 -66 -127t-106 -46q-41 0 -103.5 29t-90.5 32zM578 309q0 -142 -87.5 -230.5t-206.5 -88.5q-95 0 -154 53.5t-59 148.5q0 132 88.5 224.5t206.5 92.5 q99 0 155.5 -54.5t56.5 -145.5zM256 111q0 -76 33 -76q39 0 71.5 135t32.5 228q0 68 -33 68q-40 0 -72 -126.5t-32 -228.5z" />
<glyph unicode="&#xf6;" horiz-adv-x="562" d="M610 678q0 -41 -29 -69.5t-70 -28.5q-35 0 -57.5 22t-22.5 55q0 40 30 68.5t73 28.5q32 0 54 -21t22 -55zM369 678q0 -41 -29 -69.5t-70 -28.5q-35 0 -57.5 22t-22.5 55q0 40 30 68.5t73 28.5q32 0 54 -21t22 -55zM578 309q0 -142 -87.5 -230.5t-206.5 -88.5 q-95 0 -154 53.5t-59 148.5q0 132 88.5 224.5t206.5 92.5q99 0 155.5 -54.5t56.5 -145.5zM256 111q0 -76 33 -76q39 0 71.5 135t32.5 228q0 68 -33 68q-40 0 -72 -126.5t-32 -228.5z" />
<glyph unicode="&#xf7;" d="M397 456q-28 0 -46.5 17.5t-18.5 46.5q0 37 30.5 64.5t69.5 27.5q28 0 46 -17t18 -46q0 -38 -30 -65.5t-69 -27.5zM585 303h-450l19 85q170 5 453 5l6 -8zM317 84q-28 0 -46.5 17.5t-18.5 46.5q0 37 30.5 64.5t69.5 27.5q28 0 46 -17t18 -46q0 -38 -30 -65.5t-69 -27.5z " />
<glyph unicode="&#xf8;" horiz-adv-x="562" d="M578 309q0 -142 -87.5 -230.5t-206.5 -88.5q-95 0 -152 52l-51 -46l-32 38l51 46q-29 46 -29 112q0 132 88.5 224.5t206.5 92.5q95 0 152 -51l50 46l33 -37l-52 -47q29 -47 29 -111zM360 466q-29 0 -54.5 -70t-39.5 -165l124 112q3 32 3 55q0 68 -33 68zM256 111 q0 -76 33 -76q28 0 52 69t39 163l-122 -111q-2 -32 -2 -45z" />
<glyph unicode="&#xf9;" horiz-adv-x="658" d="M496 577l-13 -15q-96 27 -157 68t-61 81q0 57 95 57q23 0 34 -1l11 -8q35 -86 91 -182zM147 320q11 53 11 65q0 19 -17 19q-22 0 -72 -41l-10 10q29 56 77 96.5t105 40.5q47 0 73 -26.5t26 -74.5q0 -34 -13 -89q-35 -131 -35 -167q0 -31 22 -31q31 0 74.5 74.5 t73.5 187.5l26 120l83 3q72 3 79 3q19 0 14 -25l-34 -161l-31 -144q-11 -53 -11 -65q0 -19 17 -19q22 0 72 41l10 -10q-29 -56 -77 -96.5t-105 -40.5q-47 0 -73 26.5t-26 74.5q0 34 13 89l3 11h-7q-39 -95 -92 -148t-111 -53q-49 0 -77 29.5t-28 82.5q0 23 6 55t17 82t17 81 z" />
<glyph unicode="&#xfa;" horiz-adv-x="658" d="M474 763l13 6q24 -2 34 -4q84 -16 84 -53q0 -43 -84.5 -90.5t-191.5 -59.5l-10 16q92 86 155 185zM147 320q11 53 11 65q0 19 -17 19q-22 0 -72 -41l-10 10q29 56 77 96.5t105 40.5q47 0 73 -26.5t26 -74.5q0 -34 -13 -89q-35 -131 -35 -167q0 -31 22 -31q31 0 74.5 74.5 t73.5 187.5l26 120l83 3q72 3 79 3q19 0 14 -25l-34 -161l-31 -144q-11 -53 -11 -65q0 -19 17 -19q22 0 72 41l10 -10q-29 -56 -77 -96.5t-105 -40.5q-47 0 -73 26.5t-26 74.5q0 34 13 89l3 11h-7q-39 -95 -92 -148t-111 -53q-49 0 -77 29.5t-28 82.5q0 23 6 55t17 82t17 81 z" />
<glyph unicode="&#xfb;" horiz-adv-x="658" d="M583 573l-18 -11q-66 51 -128 86q-114 -62 -160 -86l-11 14q90 114 132 175l13 8h95q52 -100 77 -186zM147 320q11 53 11 65q0 19 -17 19q-22 0 -72 -41l-10 10q29 56 77 96.5t105 40.5q47 0 73 -26.5t26 -74.5q0 -34 -13 -89q-35 -131 -35 -167q0 -31 22 -31 q31 0 74.5 74.5t73.5 187.5l26 120l83 3q72 3 79 3q19 0 14 -25l-34 -161l-31 -144q-11 -53 -11 -65q0 -19 17 -19q22 0 72 41l10 -10q-29 -56 -77 -96.5t-105 -40.5q-47 0 -73 26.5t-26 74.5q0 34 13 89l3 11h-7q-39 -95 -92 -148t-111 -53q-49 0 -77 29.5t-28 82.5 q0 23 6 55t17 82t17 81z" />
<glyph unicode="&#xfc;" horiz-adv-x="658" d="M641 678q0 -41 -29 -69.5t-70 -28.5q-35 0 -57.5 22t-22.5 55q0 40 30 68.5t73 28.5q32 0 54 -21t22 -55zM400 678q0 -41 -29 -69.5t-70 -28.5q-35 0 -57.5 22t-22.5 55q0 40 30 68.5t73 28.5q32 0 54 -21t22 -55zM147 320q11 53 11 65q0 19 -17 19q-22 0 -72 -41l-10 10 q29 56 77 96.5t105 40.5q47 0 73 -26.5t26 -74.5q0 -34 -13 -89q-35 -131 -35 -167q0 -31 22 -31q31 0 74.5 74.5t73.5 187.5l26 120l83 3q72 3 79 3q19 0 14 -25l-34 -161l-31 -144q-11 -53 -11 -65q0 -19 17 -19q22 0 72 41l10 -10q-29 -56 -77 -96.5t-105 -40.5 q-47 0 -73 26.5t-26 74.5q0 34 13 89l3 11h-7q-39 -95 -92 -148t-111 -53q-49 0 -77 29.5t-28 82.5q0 23 6 55t17 82t17 81z" />
<glyph unicode="&#xfd;" horiz-adv-x="575" d="M410 763l13 6q24 -2 34 -4q84 -16 84 -53q0 -43 -84.5 -90.5t-191.5 -59.5l-10 16q92 86 155 185zM227 510q61 0 90.5 -38t29.5 -122q0 -158 -63 -322q80 90 114 191.5t34 186.5q0 46 -11 85q32 19 74 19q107 0 107 -117q0 -122 -90.5 -235t-258.5 -203 q-49 -98 -111.5 -156.5t-132.5 -58.5q-50 0 -81 21t-31 55q0 39 37 54q29 -37 55 -37q33 0 65.5 53t58.5 137q54 169 54 287q0 94 -47 94q-24 0 -66 -42l-12 11q29 55 79.5 96t105.5 41z" />
<glyph unicode="&#xfe;" horiz-adv-x="614" d="M29 -235l34 161l148 694l12 54l-71 35v12q103 28 261 39l8 -10l-30 -130l-59 -276q41 73 92.5 119.5t104.5 46.5q54 0 82 -42t28 -108q0 -98 -35 -180.5t-110 -136t-178 -53.5q-21 0 -59 2l-14 -66l-38 -180l-83 -3q-72 -3 -79 -3q-19 0 -14 25zM428 377 q-28 0 -72.5 -68.5t-57.5 -124.5l-27 -126q26 -18 58 -18q31 0 61 51t47 118t17 121q0 47 -26 47z" />
<glyph unicode="&#xff;" horiz-adv-x="575" d="M607 678q0 -41 -29 -69.5t-70 -28.5q-35 0 -57.5 22t-22.5 55q0 40 30 68.5t73 28.5q32 0 54 -21t22 -55zM366 678q0 -41 -29 -69.5t-70 -28.5q-35 0 -57.5 22t-22.5 55q0 40 30 68.5t73 28.5q32 0 54 -21t22 -55zM227 510q61 0 90.5 -38t29.5 -122q0 -158 -63 -322 q80 90 114 191.5t34 186.5q0 46 -11 85q32 19 74 19q107 0 107 -117q0 -122 -90.5 -235t-258.5 -203q-49 -98 -111.5 -156.5t-132.5 -58.5q-50 0 -81 21t-31 55q0 39 37 54q29 -37 55 -37q33 0 65.5 53t58.5 137q54 169 54 287q0 94 -47 94q-24 0 -66 -42l-12 11 q29 55 79.5 96t105.5 41z" />
<glyph unicode="&#x100;" horiz-adv-x="723" d="M353 818l18 82h342l-18 -82h-342zM449 690h115l74 -595q3 -26 11.5 -37.5t27.5 -21.5l31 -16l-2 -20h-320l-4 20l75 33l-17 145l-216 -3l-78 -142l75 -33l-4 -20h-210l-4 20l58 25q18 7 28.5 17.5t21.5 30.5zM251 245l184 -2l-32 278z" />
<glyph unicode="&#x101;" d="M261 612l18 82h332l-18 -82h-332zM561 180q-11 -53 -11 -65q0 -19 17 -19q22 0 72 41l10 -10q-29 -56 -77 -96.5t-105 -40.5q-47 0 -73 26.5t-26 74.5q0 34 13 89l3 11h-6q-35 -89 -85.5 -145t-107.5 -56q-54 0 -87.5 44t-33.5 116q0 92 39 173t118 134t181 53 q133 0 229 -48l-27 -80zM249 182q0 -60 27 -60q34 0 74 79.5t65 165.5l19 74q-20 19 -50 19q-33 0 -65.5 -48t-51 -112.5t-18.5 -117.5z" />
<glyph unicode="&#x102;" horiz-adv-x="723" d="M686 938l6 2l19 -4q-22 -76 -69.5 -116.5t-114.5 -40.5q-65 0 -91 46t-13 112l23 4q5 -27 31.5 -43t69.5 -16q104 0 139 56zM449 690h115l74 -595q3 -26 11.5 -37.5t27.5 -21.5l31 -16l-2 -20h-320l-4 20l75 33l-17 145l-216 -3l-78 -142l75 -33l-4 -20h-210l-4 20l58 25 q18 7 28.5 17.5t21.5 30.5zM251 245l184 -2l-32 278z" />
<glyph unicode="&#x103;" d="M574 754l6 2l19 -4q-21 -80 -72.5 -127.5t-115.5 -47.5q-61 0 -86.5 52t-13.5 124l23 4q5 -33 31.5 -52.5t69.5 -19.5q105 0 139 69zM561 180q-11 -53 -11 -65q0 -19 17 -19q22 0 72 41l10 -10q-29 -56 -77 -96.5t-105 -40.5q-47 0 -73 26.5t-26 74.5q0 34 13 89l3 11h-6 q-35 -89 -85.5 -145t-107.5 -56q-54 0 -87.5 44t-33.5 116q0 92 39 173t118 134t181 53q133 0 229 -48l-27 -80zM249 182q0 -60 27 -60q34 0 74 79.5t65 165.5l19 74q-20 19 -50 19q-33 0 -65.5 -48t-51 -112.5t-18.5 -117.5z" />
<glyph unicode="&#x104;" horiz-adv-x="723" d="M706 0q-41 -24 -69 -59t-28 -68q0 -27 20 -27q21 0 50 41l10 -10q-46 -137 -150 -137q-79 0 -79 82q0 58 49.5 107.5t123.5 70.5h-247l-4 20l75 33l-17 145l-216 -3l-78 -142l75 -33l-4 -20h-210l-4 20l58 25q18 7 28.5 17.5t21.5 30.5l338 597h115l74 -595 q3 -26 11.5 -37.5t27.5 -21.5l31 -16zM251 245l184 -2l-32 278z" />
<glyph unicode="&#x105;" d="M561 180q-11 -53 -11 -65q0 -19 17 -19q22 0 72 41l10 -10q-20 -38 -47 -68q-72 -85 -99 -124t-27 -65q0 -24 20 -24q19 0 50 41l10 -10q-48 -137 -150 -137q-34 0 -56.5 20t-22.5 55q0 47 40 88.5t113 87.5q-4 -1 -13 -1q-47 0 -73 26.5t-26 74.5q0 34 13 89l3 11h-6 q-35 -89 -85.5 -145t-107.5 -56q-54 0 -87.5 44t-33.5 116q0 92 39 173t118 134t181 53q133 0 229 -48l-27 -80zM249 182q0 -60 27 -60q34 0 74 79.5t65 165.5l19 74q-20 19 -50 19q-33 0 -65.5 -48t-51 -112.5t-18.5 -117.5z" />
<glyph unicode="&#x106;" horiz-adv-x="663" d="M622 946l13 2q70 -35 70 -73q0 -47 -82 -73t-230 -26l-6 19q141 69 235 151zM406 -10q-147 0 -226.5 75.5t-79.5 214.5q0 171 123.5 295.5t292.5 124.5q117 0 196 -32q-5 -114 -55 -228h-30q-45 142 -74 196q-13 3 -27 3q-97 0 -166.5 -108.5t-69.5 -260.5 q0 -97 38 -158.5t99 -61.5q14 0 24 3q68 60 169 187h30q-6 -106 -51 -228q-92 -22 -193 -22z" />
<glyph unicode="&#x107;" horiz-adv-x="490" d="M411 763l13 6q24 -2 34 -4q84 -16 84 -53q0 -43 -84.5 -90.5t-191.5 -59.5l-10 16q92 86 155 185zM369 510q73 0 120 -36.5t47 -93.5q0 -50 -30.5 -80t-75.5 -30q-34 0 -67 20q23 86 23 120q0 50 -33 50q-37 0 -67 -72t-30 -153q0 -130 101 -130q33 0 71.5 15.5 t66.5 40.5l10 -10q-39 -76 -103 -118.5t-144 -42.5q-85 0 -136 55t-51 146q0 129 89.5 224t208.5 95z" />
<glyph unicode="&#x108;" horiz-adv-x="663" d="M699 787l-18 -11q-77 42 -143 69q-93 -38 -175 -69l-11 14q82 79 147 151l13 8h95q61 -85 92 -162zM406 -10q-147 0 -226.5 75.5t-79.5 214.5q0 171 123.5 295.5t292.5 124.5q117 0 196 -32q-5 -114 -55 -228h-30q-45 142 -74 196q-13 3 -27 3q-97 0 -166.5 -108.5 t-69.5 -260.5q0 -97 38 -158.5t99 -61.5q14 0 24 3q68 60 169 187h30q-6 -106 -51 -228q-92 -22 -193 -22z" />
<glyph unicode="&#x109;" horiz-adv-x="490" d="M533 577l-18 -11q-66 51 -128 86q-114 -62 -160 -86l-11 14q90 114 132 175l13 8h95q52 -100 77 -186zM369 510q73 0 120 -36.5t47 -93.5q0 -50 -30.5 -80t-75.5 -30q-34 0 -67 20q23 86 23 120q0 50 -33 50q-37 0 -67 -72t-30 -153q0 -130 101 -130q33 0 71.5 15.5 t66.5 40.5l10 -10q-39 -76 -103 -118.5t-144 -42.5q-85 0 -136 55t-51 146q0 129 89.5 224t208.5 95z" />
<glyph unicode="&#x10a;" horiz-adv-x="663" d="M643 875q0 -46 -35.5 -77.5t-85.5 -31.5q-39 0 -63.5 21t-23.5 53q1 46 35.5 77.5t84.5 31.5q39 0 63.5 -21t24.5 -53zM406 -10q-147 0 -226.5 75.5t-79.5 214.5q0 171 123.5 295.5t292.5 124.5q117 0 196 -32q-5 -114 -55 -228h-30q-45 142 -74 196q-13 3 -27 3 q-97 0 -166.5 -108.5t-69.5 -260.5q0 -97 38 -158.5t99 -61.5q14 0 24 3q68 60 169 187h30q-6 -106 -51 -228q-92 -22 -193 -22z" />
<glyph unicode="&#x10b;" horiz-adv-x="490" d="M368 569q-34 0 -56.5 21.5t-22.5 56.5q0 45 36.5 79t84.5 34q34 0 56.5 -21t22.5 -56q0 -46 -36.5 -80t-84.5 -34zM369 510q73 0 120 -36.5t47 -93.5q0 -50 -30.5 -80t-75.5 -30q-34 0 -67 20q23 86 23 120q0 50 -33 50q-37 0 -67 -72t-30 -153q0 -130 101 -130 q33 0 71.5 15.5t66.5 40.5l10 -10q-39 -76 -103 -118.5t-144 -42.5q-85 0 -136 55t-51 146q0 129 89.5 224t208.5 95z" />
<glyph unicode="&#x10c;" horiz-adv-x="663" d="M583 780l-13 -8h-95q-52 89 -79 166l18 11q70 -44 125 -71q132 50 193 71l11 -14q-97 -89 -160 -155zM406 -10q-147 0 -226.5 75.5t-79.5 214.5q0 171 123.5 295.5t292.5 124.5q117 0 196 -32q-5 -114 -55 -228h-30q-45 142 -74 196q-13 3 -27 3q-97 0 -166.5 -108.5 t-69.5 -260.5q0 -97 38 -158.5t99 -61.5q14 0 24 3q68 60 169 187h30q-6 -106 -51 -228q-92 -22 -193 -22z" />
<glyph unicode="&#x10d;" horiz-adv-x="490" d="M435 574l-13 -8h-95q-45 98 -69 186l18 11q58 -48 119 -87q79 40 179 87l11 -14q-93 -103 -150 -175zM369 510q73 0 120 -36.5t47 -93.5q0 -50 -30.5 -80t-75.5 -30q-34 0 -67 20q23 86 23 120q0 50 -33 50q-37 0 -67 -72t-30 -153q0 -130 101 -130q33 0 71.5 15.5 t66.5 40.5l10 -10q-39 -76 -103 -118.5t-144 -42.5q-85 0 -136 55t-51 146q0 129 89.5 224t208.5 95z" />
<glyph unicode="&#x10e;" horiz-adv-x="758" d="M603 780l-13 -8h-95q-52 89 -79 166l18 11q70 -44 125 -71q132 50 193 71l11 -14q-97 -89 -160 -155zM287 0h-244l-2 20l34 21q16 10 23 15t14.5 16t10.5 25l108 496h-1l9 42l-57 35l4 20h311q131 0 211.5 -68t80.5 -194q0 -83 -28.5 -159t-82 -136.5t-139.5 -96.5 t-191 -36h-61l11 50h46q71 0 130.5 60t92 154.5t32.5 199.5q0 176 -128 176h-46l-10 -47l-107 -496z" />
<glyph unicode="&#x10f;" d="M561 180q-11 -53 -11 -65q0 -19 17 -19q22 0 72 41l10 -10q-29 -56 -77 -96.5t-105 -40.5q-47 0 -73 26.5t-26 74.5q0 34 13 89l3 11h-6q-35 -89 -85.5 -145t-107.5 -56q-54 0 -87.5 44t-33.5 116q0 92 39 173t118 134t181 53q16 0 48 -2l28 112l11 52l-90 37v12 q127 33 281 39l8 -10l-30 -130zM864 698q0 -49 -45 -97.5t-109 -69.5l-8 9q44 47 58 89q-18 5 -29.5 18.5t-11.5 32.5q0 34 24.5 57t59.5 23q27 0 44 -17.5t17 -44.5zM249 182q0 -60 27 -60q32 0 70.5 73.5t64.5 158.5l22 87q-19 19 -49 19q-33 0 -65.5 -48t-51 -112.5 t-18.5 -117.5z" />
<glyph unicode="&#x110;" horiz-adv-x="758" d="M287 0h-244l-2 20l34 21q16 10 23 15t14.5 16t10.5 25l49 226h-94l10 50h95l48 220h-1l9 42l-57 35l4 20h311q131 0 211.5 -68t80.5 -194q0 -83 -28.5 -159t-82 -136.5t-139.5 -96.5t-191 -36h-61l11 50h46q71 0 130.5 60t92 154.5t32.5 199.5q0 176 -128 176h-46 l-10 -47l-47 -220h124l-11 -50h-124l-49 -226z" />
<glyph unicode="&#x111;" d="M561 180q-11 -53 -11 -65q0 -19 17 -19q22 0 72 41l10 -10q-29 -56 -77 -96.5t-105 -40.5q-47 0 -73 26.5t-26 74.5q0 34 13 89l3 11h-6q-35 -89 -85.5 -145t-107.5 -56q-54 0 -87.5 44t-33.5 116q0 92 39 173t118 134t181 53q16 0 48 -2l17 68h-140l11 50h141l10 46 l-90 37v12q127 33 281 39l8 -10l-29 -124h99l-11 -50h-99zM249 182q0 -60 27 -60q32 0 70.5 73.5t64.5 158.5l22 87q-19 19 -49 19q-33 0 -65.5 -48t-51 -112.5t-18.5 -117.5z" />
<glyph unicode="&#x112;" horiz-adv-x="637" d="M309 818l18 82h342l-18 -82h-342zM414 593l-48 -225l181 7l-18 -69l-174 10l-47 -219l-10 -48h98q38 0 63 5q27 27 133 186h30q6 -123 -45 -240h-534l-2 20l34 21q16 10 23 15t14.5 16t10.5 25l106 496l9 42l-57 35l4 20h514q0 -113 -57 -240h-30q-37 152 -54 186 q-15 3 -62 3h-72z" />
<glyph unicode="&#x113;" horiz-adv-x="498" d="M217 612l18 82h332l-18 -82h-332zM505 151q-39 -76 -103 -118.5t-144 -42.5q-85 0 -136 55t-51 146q0 129 89.5 224t208.5 95q70 0 116 -35.5t46 -94.5q0 -75 -68.5 -121t-206.5 -39q1 -57 28.5 -86t72.5 -29q33 0 71.5 15.5t66.5 40.5zM353 460q-33 0 -61 -60t-35 -142 q54 3 89 48.5t35 107.5q0 46 -28 46z" />
<glyph unicode="&#x114;" horiz-adv-x="637" d="M610 938l6 2l19 -4q-22 -76 -69.5 -116.5t-114.5 -40.5q-65 0 -91 46t-13 112l23 4q5 -27 31.5 -43t69.5 -16q104 0 139 56zM414 593l-48 -225l181 7l-18 -69l-174 10l-47 -219l-10 -48h98q38 0 63 5q27 27 133 186h30q6 -123 -45 -240h-534l-2 20l34 21q16 10 23 15 t14.5 16t10.5 25l106 496l9 42l-57 35l4 20h514q0 -113 -57 -240h-30q-37 152 -54 186q-15 3 -62 3h-72z" />
<glyph unicode="&#x115;" horiz-adv-x="498" d="M540 754l6 2l19 -4q-21 -80 -72.5 -127.5t-115.5 -47.5q-61 0 -86.5 52t-13.5 124l23 4q5 -33 31.5 -52.5t69.5 -19.5q105 0 139 69zM505 151q-39 -76 -103 -118.5t-144 -42.5q-85 0 -136 55t-51 146q0 129 89.5 224t208.5 95q70 0 116 -35.5t46 -94.5q0 -75 -68.5 -121 t-206.5 -39q1 -57 28.5 -86t72.5 -29q33 0 71.5 15.5t66.5 40.5zM353 460q-33 0 -61 -60t-35 -142q54 3 89 48.5t35 107.5q0 46 -28 46z" />
<glyph unicode="&#x116;" horiz-adv-x="637" d="M593 875q0 -46 -35.5 -77.5t-85.5 -31.5q-39 0 -63.5 21t-23.5 53q1 46 35.5 77.5t84.5 31.5q39 0 63.5 -21t24.5 -53zM414 593l-48 -225l181 7l-18 -69l-174 10l-47 -219l-10 -48h98q38 0 63 5q27 27 133 186h30q6 -123 -45 -240h-534l-2 20l34 21q16 10 23 15t14.5 16 t10.5 25l106 496l9 42l-57 35l4 20h514q0 -113 -57 -240h-30q-37 152 -54 186q-15 3 -62 3h-72z" />
<glyph unicode="&#x117;" horiz-adv-x="498" d="M368 569q-34 0 -56.5 21.5t-22.5 56.5q0 45 36.5 79t84.5 34q34 0 56.5 -21t22.5 -56q0 -46 -36.5 -80t-84.5 -34zM505 151q-39 -76 -103 -118.5t-144 -42.5q-85 0 -136 55t-51 146q0 129 89.5 224t208.5 95q70 0 116 -35.5t46 -94.5q0 -75 -68.5 -121t-206.5 -39 q1 -57 28.5 -86t72.5 -29q33 0 71.5 15.5t66.5 40.5zM353 460q-33 0 -61 -60t-35 -142q54 3 89 48.5t35 107.5q0 46 -28 46z" />
<glyph unicode="&#x118;" horiz-adv-x="637" d="M577 0q-41 -24 -69 -59t-28 -68q0 -27 20 -27q21 0 50 41l10 -10q-46 -137 -150 -137q-79 0 -79 82q0 58 49.5 107.5t123.5 70.5h-461l-2 20l34 21q16 10 23 15t14.5 16t10.5 25l106 496l9 42l-57 35l4 20h514q0 -113 -57 -240h-30q-37 152 -54 186q-15 3 -62 3h-72 l-10 -46l-48 -225l181 7l-18 -69l-174 10l-47 -219l-10 -48h98q38 0 63 5q27 27 133 186h30q6 -123 -45 -240z" />
<glyph unicode="&#x119;" horiz-adv-x="498" d="M505 151q-25 -49 -65 -89q-22 -23 -54 -54.5t-46 -45t-29.5 -32t-21 -31.5t-5.5 -26q0 -27 20 -27q21 0 50 41l10 -10q-46 -137 -150 -137q-37 0 -58 21.5t-21 58.5q0 49 44.5 89t126.5 85q-21 -4 -48 -4q-85 0 -136 55t-51 146q0 129 89.5 224t208.5 95q70 0 116 -35.5 t46 -94.5q0 -75 -68.5 -121t-206.5 -39q1 -57 28.5 -86t72.5 -29q33 0 71.5 15.5t66.5 40.5zM353 460q-33 0 -61 -60t-35 -142q54 3 89 48.5t35 107.5q0 46 -28 46z" />
<glyph unicode="&#x11a;" horiz-adv-x="637" d="M527 780l-13 -8h-95q-52 89 -79 166l18 11q70 -44 125 -71q132 50 193 71l11 -14q-97 -89 -160 -155zM414 593l-48 -225l181 7l-18 -69l-174 10l-47 -219l-10 -48h98q38 0 63 5q27 27 133 186h30q6 -123 -45 -240h-534l-2 20l34 21q16 10 23 15t14.5 16t10.5 25l106 496 l9 42l-57 35l4 20h514q0 -113 -57 -240h-30q-37 152 -54 186q-15 3 -62 3h-72z" />
<glyph unicode="&#x11b;" horiz-adv-x="498" d="M435 574l-13 -8h-95q-45 98 -69 186l18 11q58 -48 119 -87q79 40 179 87l11 -14q-93 -103 -150 -175zM505 151q-39 -76 -103 -118.5t-144 -42.5q-85 0 -136 55t-51 146q0 129 89.5 224t208.5 95q70 0 116 -35.5t46 -94.5q0 -75 -68.5 -121t-206.5 -39q1 -57 28.5 -86 t72.5 -29q33 0 71.5 15.5t66.5 40.5zM353 460q-33 0 -61 -60t-35 -142q54 3 89 48.5t35 107.5q0 46 -28 46z" />
<glyph unicode="&#x11c;" horiz-adv-x="738" d="M734 787l-18 -11q-77 42 -143 69q-93 -38 -175 -69l-11 14q82 79 147 151l13 8h95q61 -85 92 -162zM436 50q30 0 58 6l36 167l9 42l-57 35l4 20h299l2 -20l-34 -16q-39 -18 -48 -61l-43 -201q-95 -32 -244 -32q-153 0 -236 75.5t-83 214.5q0 112 60.5 209t163.5 154 t221 57t207 -32q-2 -49 -23 -116.5t-42 -111.5h-30q-49 149 -74 196q-15 3 -32 3q-102 0 -181.5 -105t-79.5 -259q0 -99 40.5 -162t106.5 -63z" />
<glyph unicode="&#x11d;" horiz-adv-x="518" d="M507 577l-18 -11q-66 51 -128 86q-114 -62 -160 -86l-11 14q90 114 132 175l13 8h95q52 -100 77 -186zM332 510h41.5h41h36.5t37 0.5t31 1.5t31 2.5t25.5 3.5t23.5 5q10 -15 10 -42q0 -23 -12 -39t-36 -16q-26 0 -119 39l-3 -5q76 -42 76 -120q0 -45 -17 -81.5t-42 -58 t-54.5 -39.5t-54.5 -28.5t-42 -21.5t-17 -22q0 -13 15.5 -22.5t50.5 -22.5q29 -11 46 -20t37.5 -24t30.5 -35.5t10 -47.5q0 -76 -78 -126.5t-196 -50.5q-113 0 -178.5 33.5t-65.5 84.5q0 37 35.5 65t89.5 44l14 -11q-2 -8 -2 -15q0 -65 39 -111.5t104 -46.5q33 0 57.5 18 t24.5 48q0 7 -2.5 14t-9 13.5t-11.5 11t-16.5 11t-18 10t-21.5 11.5t-21 11q-31 16 -48.5 27t-33 30t-15.5 41q0 30 31.5 55t102.5 50q-81 5 -130 48.5t-49 109.5q0 91 71.5 154.5t180.5 63.5zM246 286q0 -101 38 -101q30 0 47.5 70.5t17.5 147.5q0 64 -34 64q-31 0 -50 -59 t-19 -122z" />
<glyph unicode="&#x11e;" horiz-adv-x="738" d="M711 938l6 2l19 -4q-22 -76 -69.5 -116.5t-114.5 -40.5q-65 0 -91 46t-13 112l23 4q5 -27 31.5 -43t69.5 -16q104 0 139 56zM436 50q30 0 58 6l36 167l9 42l-57 35l4 20h299l2 -20l-34 -16q-39 -18 -48 -61l-43 -201q-95 -32 -244 -32q-153 0 -236 75.5t-83 214.5 q0 112 60.5 209t163.5 154t221 57t207 -32q-2 -49 -23 -116.5t-42 -111.5h-30q-49 149 -74 196q-15 3 -32 3q-102 0 -181.5 -105t-79.5 -259q0 -99 40.5 -162t106.5 -63z" />
<glyph unicode="&#x11f;" horiz-adv-x="518" d="M504 754l6 2l19 -4q-21 -80 -72.5 -127.5t-115.5 -47.5q-61 0 -86.5 52t-13.5 124l23 4q5 -33 31.5 -52.5t69.5 -19.5q105 0 139 69zM332 510h41.5h41h36.5t37 0.5t31 1.5t31 2.5t25.5 3.5t23.5 5q10 -15 10 -42q0 -23 -12 -39t-36 -16q-26 0 -119 39l-3 -5 q76 -42 76 -120q0 -45 -17 -81.5t-42 -58t-54.5 -39.5t-54.5 -28.5t-42 -21.5t-17 -22q0 -13 15.5 -22.5t50.5 -22.5q29 -11 46 -20t37.5 -24t30.5 -35.5t10 -47.5q0 -76 -78 -126.5t-196 -50.5q-113 0 -178.5 33.5t-65.5 84.5q0 37 35.5 65t89.5 44l14 -11q-2 -8 -2 -15 q0 -65 39 -111.5t104 -46.5q33 0 57.5 18t24.5 48q0 7 -2.5 14t-9 13.5t-11.5 11t-16.5 11t-18 10t-21.5 11.5t-21 11q-31 16 -48.5 27t-33 30t-15.5 41q0 30 31.5 55t102.5 50q-81 5 -130 48.5t-49 109.5q0 91 71.5 154.5t180.5 63.5zM246 286q0 -101 38 -101 q30 0 47.5 70.5t17.5 147.5q0 64 -34 64q-31 0 -50 -59t-19 -122z" />
<glyph unicode="&#x120;" horiz-adv-x="738" d="M669 875q0 -46 -35.5 -77.5t-85.5 -31.5q-39 0 -63.5 21t-23.5 53q1 46 35.5 77.5t84.5 31.5q39 0 63.5 -21t24.5 -53zM436 50q30 0 58 6l36 167l9 42l-57 35l4 20h299l2 -20l-34 -16q-39 -18 -48 -61l-43 -201q-95 -32 -244 -32q-153 0 -236 75.5t-83 214.5 q0 112 60.5 209t163.5 154t221 57t207 -32q-2 -49 -23 -116.5t-42 -111.5h-30q-49 149 -74 196q-15 3 -32 3q-102 0 -181.5 -105t-79.5 -259q0 -99 40.5 -162t106.5 -63z" />
<glyph unicode="&#x121;" horiz-adv-x="518" d="M342 569q-34 0 -56.5 21.5t-22.5 56.5q0 45 36.5 79t84.5 34q34 0 56.5 -21t22.5 -56q0 -46 -36.5 -80t-84.5 -34zM332 510h41.5h41h36.5t37 0.5t31 1.5t31 2.5t25.5 3.5t23.5 5q10 -15 10 -42q0 -23 -12 -39t-36 -16q-26 0 -119 39l-3 -5q76 -42 76 -120 q0 -45 -17 -81.5t-42 -58t-54.5 -39.5t-54.5 -28.5t-42 -21.5t-17 -22q0 -13 15.5 -22.5t50.5 -22.5q29 -11 46 -20t37.5 -24t30.5 -35.5t10 -47.5q0 -76 -78 -126.5t-196 -50.5q-113 0 -178.5 33.5t-65.5 84.5q0 37 35.5 65t89.5 44l14 -11q-2 -8 -2 -15q0 -65 39 -111.5 t104 -46.5q33 0 57.5 18t24.5 48q0 7 -2.5 14t-9 13.5t-11.5 11t-16.5 11t-18 10t-21.5 11.5t-21 11q-31 16 -48.5 27t-33 30t-15.5 41q0 30 31.5 55t102.5 50q-81 5 -130 48.5t-49 109.5q0 91 71.5 154.5t180.5 63.5zM246 286q0 -101 38 -101q30 0 47.5 70.5t17.5 147.5 q0 64 -34 64q-31 0 -50 -59t-19 -122z" />
<glyph unicode="&#x122;" horiz-adv-x="738" d="M436 50q30 0 58 6l36 167l9 42l-57 35l4 20h299l2 -20l-34 -16q-39 -18 -48 -61l-43 -201q-95 -32 -244 -32q-153 0 -236 75.5t-83 214.5q0 112 60.5 209t163.5 154t221 57t207 -32q-2 -49 -23 -116.5t-42 -111.5h-30q-49 149 -74 196q-15 3 -32 3q-102 0 -181.5 -105 t-79.5 -259q0 -99 40.5 -162t106.5 -63zM474 -147q0 -61 -53.5 -122t-129.5 -88l-10 11q49 56 68 113q-21 5 -34.5 23t-13.5 42q0 41 29.5 70t70.5 29q32 0 52.5 -22t20.5 -56z" />
<glyph unicode="&#x123;" horiz-adv-x="518" d="M279 647q0 61 53.5 122t129.5 88l10 -11q-49 -56 -68 -113q21 -5 34.5 -23t13.5 -42q0 -41 -29.5 -70t-70.5 -29q-32 0 -52.5 22t-20.5 56zM332 510h41.5h41h36.5t37 0.5t31 1.5t31 2.5t25.5 3.5t23.5 5q10 -15 10 -42q0 -23 -12 -39t-36 -16q-26 0 -119 39l-3 -5 q76 -42 76 -120q0 -45 -17 -81.5t-42 -58t-54.5 -39.5t-54.5 -28.5t-42 -21.5t-17 -22q0 -13 15.5 -22.5t50.5 -22.5q29 -11 46 -20t37.5 -24t30.5 -35.5t10 -47.5q0 -76 -78 -126.5t-196 -50.5q-113 0 -178.5 33.5t-65.5 84.5q0 37 35.5 65t89.5 44l14 -11q-2 -8 -2 -15 q0 -65 39 -111.5t104 -46.5q33 0 57.5 18t24.5 48q0 7 -2.5 14t-9 13.5t-11.5 11t-16.5 11t-18 10t-21.5 11.5t-21 11q-31 16 -48.5 27t-33 30t-15.5 41q0 30 31.5 55t102.5 50q-81 5 -130 48.5t-49 109.5q0 91 71.5 154.5t180.5 63.5zM246 286q0 -101 38 -101 q30 0 47.5 70.5t17.5 147.5q0 64 -34 64q-31 0 -50 -59t-19 -122z" />
<glyph unicode="&#x124;" horiz-adv-x="833" d="M764 787l-18 -11q-77 42 -143 69q-93 -38 -175 -69l-11 14q82 79 147 151l13 8h95q61 -85 92 -162zM299 55l57 -35l-4 -20h-309l-2 20l34 21q16 10 23 15t14.5 16t10.5 25l105 496l9 42l-57 35l4 20h309l2 -20l-34 -21q-16 -10 -23 -15t-14.5 -16t-10.5 -25l-46 -216h241 l46 216l9 42l-57 35l4 20h309l2 -20l-34 -21q-16 -10 -23 -15t-14.5 -16t-10.5 -25l-105 -496l-9 -42l57 -35l-4 -20h-309l-2 20l34 21q16 10 23 15t14.5 16t10.5 25l47 223h-241l-47 -223z" />
<glyph unicode="&#x125;" horiz-adv-x="630" d="M469 808l-18 -11q-77 42 -143 69q-93 -38 -175 -69l-11 14q82 79 147 151l13 8h95q61 -85 92 -162zM59 19l34 161l94 440l12 54l-71 35v12q103 28 261 39l8 -10l-30 -130q-36 -152 -94 -339h4q18 39 40.5 75.5t53.5 73t70 58.5t79 22q48 0 75 -27t27 -67q0 -26 -8 -65 t-23.5 -95.5t-19.5 -75.5q-11 -53 -11 -65q0 -19 17 -19q22 0 72 41l10 -10q-29 -56 -77 -96.5t-105 -40.5q-47 0 -73 26.5t-26 74.5q0 34 13 89q41 162 41 180q0 27 -20 27q-31 0 -78 -73.5t-61 -133.5l-38 -180l-83 -3q-72 -3 -79 -3q-19 0 -14 25z" />
<glyph unicode="&#x126;" horiz-adv-x="833" d="M299 55l57 -35l-4 -20h-309l-2 20l34 21q16 10 23 15t14.5 16t10.5 25l82 386h-76l9 50h77l13 60l9 42l-57 35l4 20h309l2 -20l-34 -21q-16 -10 -23 -15t-14.5 -16t-10.5 -25l-13 -60h241l13 60l9 42l-57 35l4 20h309l2 -20l-34 -21q-16 -10 -23 -15t-14.5 -16t-10.5 -25 l-13 -60h77l-9 -50h-78l-82 -386l-9 -42l57 -35l-4 -20h-309l-2 20l34 21q16 10 23 15t14.5 16t10.5 25l47 223h-241l-47 -223zM367 377h241l23 106h-241z" />
<glyph unicode="&#x127;" horiz-adv-x="630" d="M59 19l34 161l85 396h-99l11 50h98l11 48l-71 35v12q103 28 261 39l8 -10l-29 -124h142l-11 -50h-143q-35 -143 -83 -295h4q18 39 40.5 75.5t53.5 73t70 58.5t79 22q48 0 75 -27t27 -67q0 -26 -8 -65t-23.5 -95.5t-19.5 -75.5q-11 -53 -11 -65q0 -19 17 -19q22 0 72 41 l10 -10q-29 -56 -77 -96.5t-105 -40.5q-47 0 -73 26.5t-26 74.5q0 34 13 89q41 162 41 180q0 27 -20 27q-31 0 -78 -73.5t-61 -133.5l-38 -180l-83 -3q-72 -3 -79 -3q-19 0 -14 25z" />
<glyph unicode="&#x128;" horiz-adv-x="413" d="M234 833q-12 -7 -72 -54l-17 8q20 76 65.5 119t105.5 43q45 0 111.5 -27t94.5 -30q14 9 41 30t31 24l17 -8q-20 -76 -66 -119t-105 -43q-44 0 -110 27t-96 30zM299 55l57 -35l-4 -20h-309l-2 20l34 21q16 10 23 15t14.5 16t10.5 25l105 496l9 42l-57 35l4 20h309l2 -20 l-34 -21q-16 -10 -23 -15t-14.5 -16t-10.5 -25l-105 -496z" />
<glyph unicode="&#x129;" horiz-adv-x="362" d="M172 629q-9 -6 -72 -58l-13 6q19 81 62.5 127t99.5 46q31 0 78 -29t62 -32q9 6 72 58l13 -6q-19 -81 -62.5 -127t-99.5 -46q-31 0 -77.5 29.5t-62.5 31.5zM297 180q-11 -53 -11 -65q0 -19 17 -19q22 0 72 41l10 -10q-29 -56 -77 -96.5t-105 -40.5q-47 0 -73 26.5 t-26 74.5q0 34 13 89q5 24 15 70.5t15 69.5q11 53 11 65q0 19 -17 19q-22 0 -72 -41l-10 10q29 56 77 96.5t105 40.5q47 0 73 -26.5t26 -74.5q0 -34 -13 -89q-5 -23 -15 -70t-15 -70z" />
<glyph unicode="&#x12a;" horiz-adv-x="413" d="M197 818l18 82h342l-18 -82h-342zM299 55l57 -35l-4 -20h-309l-2 20l34 21q16 10 23 15t14.5 16t10.5 25l105 496l9 42l-57 35l4 20h309l2 -20l-34 -21q-16 -10 -23 -15t-14.5 -16t-10.5 -25l-105 -496z" />
<glyph unicode="&#x12b;" horiz-adv-x="362" d="M136 612l18 82h282l-18 -82h-282zM297 180q-11 -53 -11 -65q0 -19 17 -19q22 0 72 41l10 -10q-29 -56 -77 -96.5t-105 -40.5q-47 0 -73 26.5t-26 74.5q0 34 13 89q5 24 15 70.5t15 69.5q11 53 11 65q0 19 -17 19q-22 0 -72 -41l-10 10q29 56 77 96.5t105 40.5 q47 0 73 -26.5t26 -74.5q0 -34 -13 -89q-5 -23 -15 -70t-15 -70z" />
<glyph unicode="&#x12c;" horiz-adv-x="413" d="M518 938l6 2l19 -4q-22 -76 -69.5 -116.5t-114.5 -40.5q-65 0 -91 46t-13 112l23 4q5 -27 31.5 -43t69.5 -16q104 0 139 56zM299 55l57 -35l-4 -20h-309l-2 20l34 21q16 10 23 15t14.5 16t10.5 25l105 496l9 42l-57 35l4 20h309l2 -20l-34 -21q-16 -10 -23 -15t-14.5 -16 t-10.5 -25l-105 -496z" />
<glyph unicode="&#x12d;" horiz-adv-x="362" d="M402 754l6 2l19 -4q-17 -79 -66 -127t-110 -48q-54 0 -77.5 52.5t-10.5 123.5l23 4q1 -33 25.5 -52.5t63.5 -19.5q46 0 80.5 18t46.5 51zM297 180q-11 -53 -11 -65q0 -19 17 -19q22 0 72 41l10 -10q-29 -56 -77 -96.5t-105 -40.5q-47 0 -73 26.5t-26 74.5q0 34 13 89 q5 24 15 70.5t15 69.5q11 53 11 65q0 19 -17 19q-22 0 -72 -41l-10 10q29 56 77 96.5t105 40.5q47 0 73 -26.5t26 -74.5q0 -34 -13 -89q-5 -23 -15 -70t-15 -70z" />
<glyph unicode="&#x12e;" horiz-adv-x="413" d="M299 55l57 -35l-4 -20q-41 -24 -69 -59t-28 -68q0 -27 20 -27q21 0 50 41l10 -10q-46 -137 -150 -137q-79 0 -79 82q0 58 49.5 107.5t123.5 70.5h-236l-2 20l34 21q16 10 23 15t14.5 16t10.5 25l105 496l9 42l-57 35l4 20h309l2 -20l-34 -21q-16 -10 -23 -15t-14.5 -16 t-10.5 -25l-105 -496z" />
<glyph unicode="&#x12f;" horiz-adv-x="362" d="M268 569q-34 0 -56.5 21.5t-22.5 56.5q0 45 36.5 79t84.5 34q34 0 56.5 -21t22.5 -56q0 -46 -36.5 -80t-84.5 -34zM297 180q-11 -53 -11 -65q0 -19 17 -19q22 0 72 41l10 -10q-20 -38 -47 -68q-72 -85 -99 -124t-27 -65q0 -24 20 -24q19 0 50 41l10 -10 q-48 -137 -150 -137q-34 0 -56.5 20t-22.5 55q0 47 40 88.5t113 87.5q-4 -1 -13 -1q-47 0 -73 26.5t-26 74.5q0 34 13 89q5 24 15 70.5t15 69.5q11 53 11 65q0 19 -17 19q-22 0 -72 -41l-10 10q29 56 77 96.5t105 40.5q47 0 73 -26.5t26 -74.5q0 -34 -13 -89q-5 -23 -15 -70 t-15 -70z" />
<glyph unicode="&#x130;" horiz-adv-x="413" d="M483 875q0 -46 -35.5 -77.5t-85.5 -31.5q-39 0 -63.5 21t-23.5 53q1 46 35.5 77.5t84.5 31.5q39 0 63.5 -21t24.5 -53zM299 55l57 -35l-4 -20h-309l-2 20l34 21q16 10 23 15t14.5 16t10.5 25l105 496l9 42l-57 35l4 20h309l2 -20l-34 -21q-16 -10 -23 -15t-14.5 -16 t-10.5 -25l-105 -496z" />
<glyph unicode="&#x131;" horiz-adv-x="362" d="M297 180q-11 -53 -11 -65q0 -19 17 -19q22 0 72 41l10 -10q-29 -56 -77 -96.5t-105 -40.5q-47 0 -73 26.5t-26 74.5q0 34 13 89q5 24 15 70.5t15 69.5q11 53 11 65q0 19 -17 19q-22 0 -72 -41l-10 10q29 56 77 96.5t105 40.5q47 0 73 -26.5t26 -74.5q0 -34 -13 -89 q-5 -23 -15 -70t-15 -70z" />
<glyph unicode="&#x132;" horiz-adv-x="808" d="M299 55l57 -35l-4 -20h-309l-2 20l34 21q16 10 23 15t14.5 16t10.5 25l105 496l9 42l-57 35l4 20h309l2 -20l-34 -21q-16 -10 -23 -15t-14.5 -16t-10.5 -25l-105 -496zM646 635l-57 35l4 20h309l2 -20l-34 -21q-16 -10 -23 -15t-14.5 -16t-10.5 -25l-109 -513 q-20 -96 -113.5 -169t-184.5 -81l-11 20q95 95 133 270l100 473z" />
<glyph unicode="&#x133;" horiz-adv-x="685" d="M268 569q-34 0 -56.5 21.5t-22.5 56.5q0 45 36.5 79t84.5 34q34 0 56.5 -21t22.5 -56q0 -46 -36.5 -80t-84.5 -34zM589 569q-34 0 -56.5 21.5t-22.5 56.5q0 45 36.5 79t84.5 34q34 0 56.5 -21t22.5 -56q0 -46 -36.5 -80t-84.5 -34zM297 180q-11 -53 -11 -65q0 -19 17 -19 q22 0 72 41l10 -10q-29 -56 -77 -96.5t-105 -40.5q-47 0 -73 26.5t-26 74.5q0 34 13 89q5 24 15 70.5t15 69.5q11 53 11 65q0 19 -17 19q-22 0 -72 -41l-10 10q29 56 77 96.5t105 40.5q47 0 73 -26.5t26 -74.5q0 -34 -13 -89q-5 -23 -15 -70t-15 -70zM470 320q11 53 11 65 q0 19 -17 19q-22 0 -72 -41l-10 10q29 56 77 96.5t105 40.5q47 0 73 -26.5t26 -74.5q0 -34 -13 -89l-62 -300q-28 -134 -107.5 -207t-181.5 -73q-55 0 -88.5 21t-33.5 55q0 39 37 54q30 -37 70 -37q85 0 118 157z" />
<glyph unicode="&#x134;" horiz-adv-x="400" d="M537 787l-18 -11q-77 42 -143 69q-93 -38 -175 -69l-11 14q82 79 147 151l13 8h95q61 -85 92 -162zM237 635l-57 35l4 20h309l2 -20l-34 -21q-16 -10 -23 -15t-14.5 -16t-10.5 -25l-109 -513q-20 -96 -113.5 -169t-184.5 -81l-11 20q95 95 133 270l100 473z" />
<glyph unicode="&#x135;" horiz-adv-x="332" d="M362 577l-18 -11q-34 32 -95 76q-52 -34 -123 -76l-11 14q68 118 97 175l13 8h95q28 -97 42 -186zM138 320q11 53 11 65q0 19 -17 19q-22 0 -72 -41l-10 10q29 56 77 96.5t105 40.5q47 0 73 -26.5t26 -74.5q0 -34 -13 -89l-62 -300q-28 -134 -107.5 -207t-181.5 -73 q-55 0 -88.5 21t-33.5 55q0 39 37 54q30 -37 70 -37q85 0 118 157z" />
<glyph unicode="&#x136;" horiz-adv-x="760" d="M299 55l57 -35l-4 -20h-309l-2 20l34 21q16 10 23 15t14.5 16t10.5 25l105 496l9 42l-57 35l4 20h309l2 -20l-34 -21q-16 -10 -23 -15t-14.5 -16t-10.5 -25l-47 -223h57l250 265l-75 35l4 20h251l2 -20l-70 -30q-29 -12 -75 -55l-151 -143l64 -192q35 -107 55 -150 t46 -60l31 -20l-6 -20l-184 -5q-36 -1 -52.5 13.5t-26.5 48.5l-75 258h-57l-46 -218zM456 -147q0 -61 -53.5 -122t-129.5 -88l-10 11q49 56 68 113q-21 5 -34.5 23t-13.5 42q0 41 29.5 70t70.5 29q32 0 52.5 -22t20.5 -56z" />
<glyph unicode="&#x137;" horiz-adv-x="610" d="M59 19l34 161l94 440l12 54l-71 35v12q103 28 261 39l8 -10l-30 -130q-36 -152 -94 -339h4q18 40 40 75.5t53 72.5t71 59t82 22q49 0 76.5 -27t27.5 -67q0 -104 -137 -186q24 -66 41.5 -100t33.5 -34q21 0 69 41l10 -10q-29 -56 -77.5 -96.5t-106.5 -40.5q-17 0 -31 4.5 t-24.5 9.5t-20 19t-15 22t-13 29.5t-10.5 31t-11 37t-11 37.5l3 12q57 36 88.5 81.5t31.5 81.5q0 32 -25 32q-36 0 -85 -73t-64 -134l-38 -180l-83 -3q-72 -3 -79 -3q-19 0 -14 25zM356 -147q0 -61 -53.5 -122t-129.5 -88l-10 11q49 56 68 113q-21 5 -34.5 23t-13.5 42 q0 41 29.5 70t70.5 29q32 0 52.5 -22t20.5 -56z" />
<glyph unicode="&#x138;" horiz-adv-x="632" d="M84 19l34 161l30 140q11 53 11 65q0 19 -17 19q-22 0 -72 -41l-10 10q29 56 77 96.5t105 40.5q47 0 73 -26.5t26 -74.5q0 -34 -13 -89l-12 -55h30q83 129 144.5 187t116.5 58q26 0 39.5 -16.5t13.5 -43.5q0 -62 -35 -117q-23 29 -58 29q-45 0 -86 -24l8 -29 q30 -104 53.5 -158.5t44.5 -54.5t69 41l10 -10q-29 -56 -77 -96.5t-105 -40.5q-32 0 -54.5 13.5t-38 44t-24 59t-21.5 79.5q-5 19 -7 29h-33l-8 -35l-38 -180l-83 -3q-72 -3 -79 -3q-19 0 -14 25z" />
<glyph unicode="&#x139;" horiz-adv-x="618" d="M444 946l13 2q70 -35 70 -73q0 -47 -82 -73t-230 -26l-6 19q141 69 235 151zM237 635l-57 35l4 20h309l2 -20l-34 -21q-16 -10 -23 -15t-14.5 -16t-10.5 -25l-105 -496l-10 -47h89q36 0 63 4q30 30 133 186h30q0 -128 -45 -240h-525l-2 20l34 21q16 10 23 15t14.5 16 t10.5 25l105 496z" />
<glyph unicode="&#x13a;" horiz-adv-x="332" d="M394 1006l13 2q70 -35 70 -73q0 -47 -82 -73t-230 -26l-6 19q141 69 235 151zM273 180q-11 -53 -11 -65q0 -19 17 -19q22 0 72 41l10 -10q-29 -56 -77 -96.5t-105 -40.5q-47 0 -73 26.5t-26 74.5q0 34 13 89l94 440l12 54l-71 35v12q103 28 261 39l8 -10l-30 -130z" />
<glyph unicode="&#x13b;" horiz-adv-x="618" d="M237 635l-57 35l4 20h309l2 -20l-34 -21q-16 -10 -23 -15t-14.5 -16t-10.5 -25l-105 -496l-10 -47h89q36 0 63 4q30 30 133 186h30q0 -128 -45 -240h-525l-2 20l34 21q16 10 23 15t14.5 16t10.5 25l105 496zM394 -147q0 -61 -53.5 -122t-129.5 -88l-10 11q49 56 68 113 q-21 5 -34.5 23t-13.5 42q0 41 29.5 70t70.5 29q32 0 52.5 -22t20.5 -56z" />
<glyph unicode="&#x13c;" horiz-adv-x="332" d="M273 180q-11 -53 -11 -65q0 -19 17 -19q22 0 72 41l10 -10q-29 -56 -77 -96.5t-105 -40.5q-47 0 -73 26.5t-26 74.5q0 34 13 89l94 440l12 54l-71 35v12q103 28 261 39l8 -10l-30 -130zM207 -147q0 -61 -53.5 -122t-129.5 -88l-10 11q49 56 68 113q-21 5 -34.5 23 t-13.5 42q0 41 29.5 70t70.5 29q32 0 52.5 -22t20.5 -56z" />
<glyph unicode="&#x13d;" horiz-adv-x="618" d="M722 638q0 -49 -45 -97.5t-109 -69.5l-8 9q44 47 58 89q-18 5 -29.5 18.5t-11.5 32.5q0 34 24.5 57t59.5 23q27 0 44 -17.5t17 -44.5zM237 635l-57 35l4 20h309l2 -20l-34 -21q-16 -10 -23 -15t-14.5 -16t-10.5 -25l-105 -496l-10 -47h89q36 0 63 4q30 30 133 186h30 q0 -128 -45 -240h-525l-2 20l34 21q16 10 23 15t14.5 16t10.5 25l105 496z" />
<glyph unicode="&#x13e;" horiz-adv-x="433" d="M273 180q-11 -53 -11 -65q0 -19 17 -19q22 0 72 41l10 -10q-29 -56 -77 -96.5t-105 -40.5q-47 0 -73 26.5t-26 74.5q0 34 13 89l94 440l12 54l-71 35v12q103 28 261 39l8 -10l-30 -130zM570 698q0 -49 -45 -97.5t-109 -69.5l-8 9q44 47 58 89q-18 5 -29.5 18.5 t-11.5 32.5q0 34 24.5 57t59.5 23q27 0 44 -17.5t17 -44.5z" />
<glyph unicode="&#x13f;" horiz-adv-x="618" d="M237 635l-57 35l4 20h309l2 -20l-34 -21q-16 -10 -23 -15t-14.5 -16t-10.5 -25l-105 -496l-10 -47h89q36 0 63 4q30 30 133 186h30q0 -128 -45 -240h-525l-2 20l34 21q16 10 23 15t14.5 16t10.5 25l105 496zM549 323q-34 0 -56.5 21.5t-22.5 56.5q0 45 36.5 79t84.5 34 q34 0 56.5 -21t22.5 -56q0 -46 -36.5 -80t-84.5 -34z" />
<glyph unicode="&#x140;" horiz-adv-x="490" d="M273 180q-11 -53 -11 -65q0 -19 17 -19q22 0 72 41l10 -10q-29 -56 -77 -96.5t-105 -40.5q-47 0 -73 26.5t-26 74.5q0 34 13 89l94 440l12 54l-71 35v12q103 28 261 39l8 -10l-30 -130zM452 290q-34 0 -56.5 21.5t-22.5 56.5q0 45 36.5 79t84.5 34q34 0 56.5 -21 t22.5 -56q0 -46 -36.5 -80t-84.5 -34z" />
<glyph unicode="&#x141;" horiz-adv-x="618" d="M475 423l-110 -59l-57 -267l-10 -47h89q36 0 63 4q30 30 133 186h30q0 -128 -45 -240h-525l-2 20l34 21q16 10 23 15t14.5 16t10.5 25l33 156l-75 -40l-18 54l108 58l57 268l9 42l-57 35l4 20h309l2 -20l-34 -21q-16 -10 -23 -15t-14.5 -16t-10.5 -25l-33 -157l76 41z " />
<glyph unicode="&#x142;" horiz-adv-x="332" d="M273 180q-11 -53 -11 -65q0 -19 17 -19q22 0 72 41l10 -10q-29 -56 -77 -96.5t-105 -40.5q-47 0 -73 26.5t-26 74.5q0 34 13 89l32 150l-80 -43l-18 54l113 61l47 218l12 54l-71 35v12q103 28 261 39l8 -10l-30 -130l-23 -110l76 41l19 -54l-111 -59z" />
<glyph unicode="&#x143;" horiz-adv-x="727" d="M622 946l13 2q70 -35 70 -73q0 -47 -82 -73t-230 -26l-6 19q141 69 235 151zM175 62l65 -37l-5 -25h-206l-3 25l40 20q22 11 29 15t16 14t12 23l112 531l-65 37l5 25h214l219 -472l80 375l8 35l-85 37l5 25h226l3 -25l-40 -20q-22 -11 -29 -15t-16 -14t-12 -23l-126 -593 h-115l-236 511l-88 -414z" />
<glyph unicode="&#x144;" horiz-adv-x="654" d="M466 763l13 6q24 -2 34 -4q84 -16 84 -53q0 -43 -84.5 -90.5t-191.5 -59.5l-10 16q92 86 155 185zM83 19l34 161q5 23 30 133q12 60 12 70q0 21 -17 21q-22 0 -72 -41l-10 10q31 57 76.5 97t99.5 40q44 0 68.5 -23t24.5 -62q0 -30 -32 -143l4 -1q18 40 40 75.5t52 72.5 t68 59t78 22q48 0 75 -27t27 -67q0 -20 -5.5 -53.5t-10.5 -56t-16.5 -69.5t-13.5 -57q-11 -53 -11 -65q0 -19 17 -19q22 0 72 41l10 -10q-29 -56 -77 -96.5t-105 -40.5q-47 0 -73 26.5t-26 74.5q0 34 13 89q41 162 41 180q0 27 -20 27q-31 0 -77.5 -73t-61.5 -134l-38 -180 l-83 -3q-72 -3 -79 -3q-19 0 -14 25z" />
<glyph unicode="&#x145;" horiz-adv-x="727" d="M175 62l65 -37l-5 -25h-206l-3 25l40 20q22 11 29 15t16 14t12 23l112 531l-65 37l5 25h214l219 -472l80 375l8 35l-85 37l5 25h226l3 -25l-40 -20q-22 -11 -29 -15t-16 -14t-12 -23l-126 -593h-115l-236 511l-88 -414zM419 -147q0 -61 -53.5 -122t-129.5 -88l-10 11 q49 56 68 113q-21 5 -34.5 23t-13.5 42q0 41 29.5 70t70.5 29q32 0 52.5 -22t20.5 -56z" />
<glyph unicode="&#x146;" horiz-adv-x="654" d="M83 19l34 161q5 23 30 133q12 60 12 70q0 21 -17 21q-22 0 -72 -41l-10 10q31 57 76.5 97t99.5 40q44 0 68.5 -23t24.5 -62q0 -30 -32 -143l4 -1q18 40 40 75.5t52 72.5t68 59t78 22q48 0 75 -27t27 -67q0 -20 -5.5 -53.5t-10.5 -56t-16.5 -69.5t-13.5 -57 q-11 -53 -11 -65q0 -19 17 -19q22 0 72 41l10 -10q-29 -56 -77 -96.5t-105 -40.5q-47 0 -73 26.5t-26 74.5q0 34 13 89q41 162 41 180q0 27 -20 27q-31 0 -77.5 -73t-61.5 -134l-38 -180l-83 -3q-72 -3 -79 -3q-19 0 -14 25zM400 -147q0 -61 -53.5 -122t-129.5 -88l-10 11 q49 56 68 113q-21 5 -34.5 23t-13.5 42q0 41 29.5 70t70.5 29q32 0 52.5 -22t20.5 -56z" />
<glyph unicode="&#x147;" horiz-adv-x="727" d="M593 780l-13 -8h-95q-52 89 -79 166l18 11q70 -44 125 -71q132 50 193 71l11 -14q-97 -89 -160 -155zM175 62l65 -37l-5 -25h-206l-3 25l40 20q22 11 29 15t16 14t12 23l112 531l-65 37l5 25h214l219 -472l80 375l8 35l-85 37l5 25h226l3 -25l-40 -20q-22 -11 -29 -15 t-16 -14t-12 -23l-126 -593h-115l-236 511l-88 -414z" />
<glyph unicode="&#x148;" horiz-adv-x="654" d="M490 574l-13 -8h-95q-45 98 -69 186l18 11q58 -48 119 -87q79 40 179 87l11 -14q-93 -103 -150 -175zM83 19l34 161q5 23 30 133q12 60 12 70q0 21 -17 21q-22 0 -72 -41l-10 10q31 57 76.5 97t99.5 40q44 0 68.5 -23t24.5 -62q0 -30 -32 -143l4 -1q18 40 40 75.5 t52 72.5t68 59t78 22q48 0 75 -27t27 -67q0 -20 -5.5 -53.5t-10.5 -56t-16.5 -69.5t-13.5 -57q-11 -53 -11 -65q0 -19 17 -19q22 0 72 41l10 -10q-29 -56 -77 -96.5t-105 -40.5q-47 0 -73 26.5t-26 74.5q0 34 13 89q41 162 41 180q0 27 -20 27q-31 0 -77.5 -73t-61.5 -134 l-38 -180l-83 -3q-72 -3 -79 -3q-19 0 -14 25z" />
<glyph unicode="&#x14a;" horiz-adv-x="726" d="M174 62l65 -37l-5 -25h-206l-3 25l40 20q22 11 29 15t16 14t12 23l112 531q-5 3 -15.5 9.5t-16.5 9.5l-35 18l8 25h213l219 -472l80 375l8 35l-85 37l5 25h226l3 -25l-40 -20q-22 -11 -29 -15t-16 -14t-12 -23l-110 -518q-21 -89 -59 -137.5t-120 -107.5l-15 19 q31 33 45.5 49.5t33 44t30.5 57.5h-46l-236 511l-88 -414z" />
<glyph unicode="&#x14b;" horiz-adv-x="644" d="M83 19l34 161q5 23 30 133q12 60 12 70q0 21 -17 21q-22 0 -72 -41l-10 10q31 57 76.5 97t99.5 40q44 0 68.5 -23t24.5 -62q0 -30 -32 -143l4 -1q18 39 40 75t52.5 73t68.5 59t78 22q49 0 76.5 -28.5t27.5 -70.5q0 -49 -79 -391q-31 -135 -110.5 -207.5t-180.5 -72.5 q-55 0 -88.5 21t-33.5 55q0 39 37 54q30 -37 70 -37q84 0 120 157q77 332 77 370q0 27 -20 27q-31 0 -77.5 -73t-61.5 -134l-38 -180l-83 -3q-72 -3 -79 -3q-19 0 -14 25z" />
<glyph unicode="&#x14c;" horiz-adv-x="702" d="M342 818l18 82h342l-18 -82h-342zM734 439q0 -130 -55 -234.5t-142 -159.5t-186 -55q-113 0 -184.5 70.5t-71.5 189.5q0 121 54 225.5t142.5 164.5t186.5 60q122 0 189 -72t67 -189zM285 143q0 -46 17.5 -72t50.5 -26q48 0 94.5 94.5t71.5 211t25 198.5q0 96 -65 96 q-51 0 -97.5 -87.5t-71.5 -202.5t-25 -212z" />
<glyph unicode="&#x14d;" horiz-adv-x="562" d="M219 612l18 82h332l-18 -82h-332zM578 309q0 -142 -87.5 -230.5t-206.5 -88.5q-95 0 -154 53.5t-59 148.5q0 132 88.5 224.5t206.5 92.5q99 0 155.5 -54.5t56.5 -145.5zM256 111q0 -76 33 -76q39 0 71.5 135t32.5 228q0 68 -33 68q-40 0 -72 -126.5t-32 -228.5z" />
<glyph unicode="&#x14e;" horiz-adv-x="702" d="M665 938l6 2l19 -4q-22 -76 -69.5 -116.5t-114.5 -40.5q-65 0 -91 46t-13 112l23 4q5 -27 31.5 -43t69.5 -16q104 0 139 56zM734 439q0 -130 -55 -234.5t-142 -159.5t-186 -55q-113 0 -184.5 70.5t-71.5 189.5q0 121 54 225.5t142.5 164.5t186.5 60q122 0 189 -72 t67 -189zM285 143q0 -46 17.5 -72t50.5 -26q48 0 94.5 94.5t71.5 211t25 198.5q0 96 -65 96q-51 0 -97.5 -87.5t-71.5 -202.5t-25 -212z" />
<glyph unicode="&#x14f;" horiz-adv-x="562" d="M538 754l6 2l19 -4q-21 -80 -72.5 -127.5t-115.5 -47.5q-61 0 -86.5 52t-13.5 124l23 4q5 -33 31.5 -52.5t69.5 -19.5q105 0 139 69zM578 309q0 -142 -87.5 -230.5t-206.5 -88.5q-95 0 -154 53.5t-59 148.5q0 132 88.5 224.5t206.5 92.5q99 0 155.5 -54.5t56.5 -145.5z M256 111q0 -76 33 -76q39 0 71.5 135t32.5 228q0 68 -33 68q-40 0 -72 -126.5t-32 -228.5z" />
<glyph unicode="&#x150;" horiz-adv-x="702" d="M469 946l13 3q37 -6 61 -23.5t24 -42.5q0 -45 -85.5 -74t-218.5 -29l-7 17q110 59 213 149zM771 946l13 3q37 -6 61 -23.5t24 -42.5q0 -45 -85.5 -74t-218.5 -29l-7 17q110 59 213 149zM734 439q0 -130 -55 -234.5t-142 -159.5t-186 -55q-113 0 -184.5 70.5t-71.5 189.5 q0 121 54 225.5t142.5 164.5t186.5 60q122 0 189 -72t67 -189zM285 143q0 -46 17.5 -72t50.5 -26q48 0 94.5 94.5t71.5 211t25 198.5q0 96 -65 96q-51 0 -97.5 -87.5t-71.5 -202.5t-25 -212z" />
<glyph unicode="&#x151;" horiz-adv-x="562" d="M315 763l13 6q24 -2 34 -4q64 -16 64 -53q0 -43 -78.5 -90.5t-177.5 -59.5l-10 16q92 86 155 185zM535 763l13 6q29 -3 34 -4q64 -17 64 -53q0 -43 -78.5 -90.5t-177.5 -59.5l-10 16q92 86 155 185zM578 309q0 -142 -87.5 -230.5t-206.5 -88.5q-95 0 -154 53.5t-59 148.5 q0 132 88.5 224.5t206.5 92.5q99 0 155.5 -54.5t56.5 -145.5zM256 111q0 -76 33 -76q39 0 71.5 135t32.5 228q0 68 -33 68q-40 0 -72 -126.5t-32 -228.5z" />
<glyph unicode="&#x152;" horiz-adv-x="967" d="M907 0h-423q-44 -10 -95 -10q-134 0 -219 81t-85 219q0 167 130 288.5t301 121.5q51 0 90 -10h423q0 -113 -57 -240h-30q-37 152 -54 186q-15 3 -62 3h-72l-58 -271l181 7l-18 -69l-174 10l-57 -267h98q38 0 63 5q27 27 133 186h30q6 -123 -45 -240zM275 233 q0 -87 30 -137.5t86 -50.5q26 0 54 14l123 574q-22 12 -51 12q-65 0 -122 -65t-88.5 -160t-31.5 -187z" />
<glyph unicode="&#x153;" horiz-adv-x="793" d="M345 510q103 0 153 -77q80 77 180 77q64 0 106 -35.5t42 -94.5q0 -75 -68.5 -121t-206.5 -39q1 -57 28.5 -86t72.5 -29q33 0 71.5 15.5t66.5 40.5l10 -10q-37 -76 -97.5 -118.5t-135.5 -42.5q-88 0 -135 69q-72 -69 -169 -69q-85 0 -138.5 53.5t-53.5 148.5 q0 132 82.5 225t191.5 93zM359 466q-40 0 -72 -126.5t-32 -228.5q0 -76 33 -76q39 0 71.5 135t32.5 228q0 68 -33 68zM648 460q-33 0 -61 -60t-35 -142q54 3 89 48.5t35 107.5q0 46 -28 46z" />
<glyph unicode="&#x154;" horiz-adv-x="761" d="M594 946l13 2q70 -35 70 -73q0 -47 -82 -73t-230 -26l-6 19q141 69 235 151zM299 55l57 -35l-4 -20h-309l-2 20l34 21q16 10 23 15t14.5 16t10.5 25l106 496l9 42l-57 35l4 20h305q124 0 191.5 -46t67.5 -129q0 -54 -42 -104t-108 -84l25 -77q44 -131 64 -166 q17 -31 37 -44l31 -20l-6 -20l-184 -5q-36 -1 -52.5 13.5t-26.5 48.5l-65 223h-75l-39 -183zM414 593l-55 -258h36q71 0 118.5 55.5t47.5 134.5q0 54 -26 82t-72 28h-40z" />
<glyph unicode="&#x155;" horiz-adv-x="499" d="M406 763l13 6q24 -2 34 -4q84 -16 84 -53q0 -43 -84.5 -90.5t-191.5 -59.5l-10 16q92 86 155 185zM83 19l34 161l20 90t17 79t5 34q0 21 -17 21q-22 0 -72 -41l-10 10q31 57 76.5 97t99.5 40q44 0 68.5 -23t24.5 -62q0 -30 -32 -143l4 -1q106 229 195 229 q26 0 39.5 -16.5t13.5 -43.5q0 -42 -17.5 -87.5t-37.5 -72.5q-43 30 -78 30q-40 0 -72 -41.5t-47 -98.5l-38 -180l-83 -3q-72 -3 -79 -3q-19 0 -14 25z" />
<glyph unicode="&#x156;" horiz-adv-x="761" d="M299 55l57 -35l-4 -20h-309l-2 20l34 21q16 10 23 15t14.5 16t10.5 25l106 496l9 42l-57 35l4 20h305q124 0 191.5 -46t67.5 -129q0 -54 -42 -104t-108 -84l25 -77q44 -131 64 -166q17 -31 37 -44l31 -20l-6 -20l-184 -5q-36 -1 -52.5 13.5t-26.5 48.5l-65 223h-75 l-39 -183zM414 593l-55 -258h36q71 0 118.5 55.5t47.5 134.5q0 54 -26 82t-72 28h-40zM464 -147q0 -61 -53.5 -122t-129.5 -88l-10 11q49 56 68 113q-21 5 -34.5 23t-13.5 42q0 41 29.5 70t70.5 29q32 0 52.5 -22t20.5 -56z" />
<glyph unicode="&#x157;" horiz-adv-x="499" d="M83 19l34 161l20 90t17 79t5 34q0 21 -17 21q-22 0 -72 -41l-10 10q31 57 76.5 97t99.5 40q44 0 68.5 -23t24.5 -62q0 -30 -32 -143l4 -1q106 229 195 229q26 0 39.5 -16.5t13.5 -43.5q0 -42 -17.5 -87.5t-37.5 -72.5q-43 30 -78 30q-40 0 -72 -41.5t-47 -98.5l-38 -180 l-83 -3q-72 -3 -79 -3q-19 0 -14 25zM225 -147q0 -61 -53.5 -122t-129.5 -88l-10 11q49 56 68 113q-21 5 -34.5 23t-13.5 42q0 41 29.5 70t70.5 29q32 0 52.5 -22t20.5 -56z" />
<glyph unicode="&#x158;" horiz-adv-x="761" d="M555 780l-13 -8h-95q-52 89 -79 166l18 11q70 -44 125 -71q132 50 193 71l11 -14q-97 -89 -160 -155zM299 55l57 -35l-4 -20h-309l-2 20l34 21q16 10 23 15t14.5 16t10.5 25l106 496l9 42l-57 35l4 20h305q124 0 191.5 -46t67.5 -129q0 -54 -42 -104t-108 -84l25 -77 q44 -131 64 -166q17 -31 37 -44l31 -20l-6 -20l-184 -5q-36 -1 -52.5 13.5t-26.5 48.5l-65 223h-75l-39 -183zM414 593l-55 -258h36q71 0 118.5 55.5t47.5 134.5q0 54 -26 82t-72 28h-40z" />
<glyph unicode="&#x159;" horiz-adv-x="499" d="M430 574l-13 -8h-95q-45 98 -69 186l18 11q58 -48 119 -87q79 40 179 87l11 -14q-93 -103 -150 -175zM83 19l34 161l20 90t17 79t5 34q0 21 -17 21q-22 0 -72 -41l-10 10q31 57 76.5 97t99.5 40q44 0 68.5 -23t24.5 -62q0 -30 -32 -143l4 -1q106 229 195 229 q26 0 39.5 -16.5t13.5 -43.5q0 -42 -17.5 -87.5t-37.5 -72.5q-43 30 -78 30q-40 0 -72 -41.5t-47 -98.5l-38 -180l-83 -3q-72 -3 -79 -3q-19 0 -14 25z" />
<glyph unicode="&#x15a;" horiz-adv-x="567" d="M518 946l13 2q70 -35 70 -73q0 -47 -82 -73t-230 -26l-6 19q141 69 235 151zM273 -10q-187 0 -212 34q-8 13 -8 34q0 36 20.5 83.5t50.5 81.5l30 -3v-10q0 -84 28 -127t93 -43q49 0 81.5 30.5t32.5 80.5q0 36 -26.5 69t-64.5 60.5t-75.5 56.5t-64 70.5t-26.5 89.5 q0 93 89 148t208 55q68 0 119.5 -11t68.5 -24q11 -9 11 -30q0 -33 -22 -82.5t-53 -85.5l-29 2v13q0 73 -14 107q-27 61 -94 61q-47 0 -78 -29t-31 -76q0 -38 26.5 -72.5t64.5 -62.5t75.5 -57t64 -67.5t26.5 -82.5q0 -99 -79.5 -156t-211.5 -57z" />
<glyph unicode="&#x15b;" horiz-adv-x="469" d="M404 763l13 6q24 -2 34 -4q84 -16 84 -53q0 -43 -84.5 -90.5t-191.5 -59.5l-10 16q92 86 155 185zM456 149q0 -73 -59.5 -116t-171.5 -43q-80 0 -132 22.5t-52 66.5q0 32 28 55.5t71 31.5l13 -10q1 -5 5 -17.5t6 -19.5q14 -43 31 -64.5t44 -21.5q23 0 36.5 14.5 t13.5 37.5q0 25 -19 50t-46 47t-54.5 46t-46.5 57t-19 70q0 69 64 112t159 43q86 0 131.5 -26.5t45.5 -67.5q0 -30 -25 -53t-65 -29l-12 9q-7 28 -12 47q-22 77 -66 77q-22 0 -36 -13.5t-14 -35.5q0 -25 18.5 -50.5t45.5 -48.5t54 -47.5t45.5 -56.5t18.5 -66z" />
<glyph unicode="&#x15c;" horiz-adv-x="567" d="M625 787l-18 -11q-77 42 -143 69q-93 -38 -175 -69l-11 14q82 79 147 151l13 8h95q61 -85 92 -162zM273 -10q-187 0 -212 34q-8 13 -8 34q0 36 20.5 83.5t50.5 81.5l30 -3v-10q0 -84 28 -127t93 -43q49 0 81.5 30.5t32.5 80.5q0 36 -26.5 69t-64.5 60.5t-75.5 56.5 t-64 70.5t-26.5 89.5q0 93 89 148t208 55q68 0 119.5 -11t68.5 -24q11 -9 11 -30q0 -33 -22 -82.5t-53 -85.5l-29 2v13q0 73 -14 107q-27 61 -94 61q-47 0 -78 -29t-31 -76q0 -38 26.5 -72.5t64.5 -62.5t75.5 -57t64 -67.5t26.5 -82.5q0 -99 -79.5 -156t-211.5 -57z" />
<glyph unicode="&#x15d;" horiz-adv-x="469" d="M506 577l-18 -11q-66 51 -128 86q-114 -62 -160 -86l-11 14q90 114 132 175l13 8h95q52 -100 77 -186zM456 149q0 -73 -59.5 -116t-171.5 -43q-80 0 -132 22.5t-52 66.5q0 32 28 55.5t71 31.5l13 -10q1 -5 5 -17.5t6 -19.5q14 -43 31 -64.5t44 -21.5q23 0 36.5 14.5 t13.5 37.5q0 25 -19 50t-46 47t-54.5 46t-46.5 57t-19 70q0 69 64 112t159 43q86 0 131.5 -26.5t45.5 -67.5q0 -30 -25 -53t-65 -29l-12 9q-7 28 -12 47q-22 77 -66 77q-22 0 -36 -13.5t-14 -35.5q0 -25 18.5 -50.5t45.5 -48.5t54 -47.5t45.5 -56.5t18.5 -66z" />
<glyph unicode="&#x15e;" horiz-adv-x="567" d="M389 -131q0 -50 -70.5 -85.5t-184.5 -43.5l-2 16q44 15 72 40t28 49t-35 32l-4 10l40 104q-151 4 -172 33q-8 13 -8 34q0 36 20.5 83.5t50.5 81.5l30 -3v-10q0 -84 28 -127t93 -43q49 0 81.5 30.5t32.5 80.5q0 36 -26.5 69t-64.5 60.5t-75.5 56.5t-64 70.5t-26.5 89.5 q0 93 89 148t208 55q68 0 119.5 -11t68.5 -24q11 -9 11 -30q0 -33 -22 -82.5t-53 -85.5l-29 2v13q0 73 -14 107q-27 61 -94 61q-47 0 -78 -29t-31 -76q0 -38 26.5 -72.5t64.5 -62.5t75.5 -57t64 -67.5t26.5 -82.5q0 -95 -73 -151.5t-197 -61.5l-19 -47q114 -11 114 -74z" />
<glyph unicode="&#x15f;" horiz-adv-x="469" d="M351 -131q0 -50 -70.5 -85.5t-184.5 -43.5l-2 16q44 15 72 40t28 49t-35 32l-4 10l40 104q-68 4 -111 26t-43 62q0 32 28 55.5t71 31.5l13 -10q1 -5 5 -17.5t6 -19.5q14 -43 31 -64.5t44 -21.5q23 0 36.5 14.5t13.5 37.5q0 25 -19 50t-46 47t-54.5 46t-46.5 57t-19 70 q0 69 64 112t159 43q86 0 131.5 -26.5t45.5 -67.5q0 -30 -25 -53t-65 -29l-12 9q-7 28 -12 47q-22 77 -66 77q-22 0 -36 -13.5t-14 -35.5q0 -25 18.5 -50.5t45.5 -48.5t54 -47.5t45.5 -56.5t18.5 -66q0 -68 -51.5 -110t-148.5 -48l-19 -48q114 -11 114 -74z" />
<glyph unicode="&#x160;" horiz-adv-x="567" d="M489 780l-13 -8h-95q-52 89 -79 166l18 11q70 -44 125 -71q132 50 193 71l11 -14q-97 -89 -160 -155zM273 -10q-187 0 -212 34q-8 13 -8 34q0 36 20.5 83.5t50.5 81.5l30 -3v-10q0 -84 28 -127t93 -43q49 0 81.5 30.5t32.5 80.5q0 36 -26.5 69t-64.5 60.5t-75.5 56.5 t-64 70.5t-26.5 89.5q0 93 89 148t208 55q68 0 119.5 -11t68.5 -24q11 -9 11 -30q0 -33 -22 -82.5t-53 -85.5l-29 2v13q0 73 -14 107q-27 61 -94 61q-47 0 -78 -29t-31 -76q0 -38 26.5 -72.5t64.5 -62.5t75.5 -57t64 -67.5t26.5 -82.5q0 -99 -79.5 -156t-211.5 -57z" />
<glyph unicode="&#x161;" horiz-adv-x="469" d="M428 574l-13 -8h-95q-45 98 -69 186l18 11q58 -48 119 -87q79 40 179 87l11 -14q-93 -103 -150 -175zM456 149q0 -73 -59.5 -116t-171.5 -43q-80 0 -132 22.5t-52 66.5q0 32 28 55.5t71 31.5l13 -10q1 -5 5 -17.5t6 -19.5q14 -43 31 -64.5t44 -21.5q23 0 36.5 14.5 t13.5 37.5q0 25 -19 50t-46 47t-54.5 46t-46.5 57t-19 70q0 69 64 112t159 43q86 0 131.5 -26.5t45.5 -67.5q0 -30 -25 -53t-65 -29l-12 9q-7 28 -12 47q-22 77 -66 77q-22 0 -36 -13.5t-14 -35.5q0 -25 18.5 -50.5t45.5 -48.5t54 -47.5t45.5 -56.5t18.5 -66z" />
<glyph unicode="&#x162;" horiz-adv-x="666" d="M426 55l57 -35l-4 -20h-127l-23 -57q114 -11 114 -74q0 -50 -70.5 -85.5t-184.5 -43.5l-2 16q44 15 72 40t28 49t-35 32l-4 10l44 113h-121l-2 20l34 21q16 10 23 15t14.5 16t10.5 25l114 538h-17q-36 0 -64 -4q-34 -36 -71 -91l-60 -90h-30q-5 101 45 240h602 q-7 -129 -57 -240h-30l-22 90q-15 59 -33 91q-25 4 -62 4h-16l-114 -538z" />
<glyph unicode="&#x163;" horiz-adv-x="411" d="M341 -131q0 -50 -70.5 -85.5t-184.5 -43.5l-2 16q44 15 72 40t28 49t-35 32l-4 10l41 104q-46 7 -70 39.5t-24 82.5q0 27 5 47l57 270h-63l2 20l266 190l19 -2l-33 -158h125l-11 -50h-125l-52 -245q-4 -22 -4 -31q0 -49 42 -49q44 0 112 56l10 -10q-70 -135 -195 -157 l-20 -51q114 -11 114 -74z" />
<glyph unicode="&#x164;" horiz-adv-x="666" d="M538 780l-13 -8h-95q-52 89 -79 166l18 11q70 -44 125 -71q132 50 193 71l11 -14q-97 -89 -160 -155zM426 55l57 -35l-4 -20h-309l-2 20l34 21q16 10 23 15t14.5 16t10.5 25l114 538h-17q-36 0 -64 -4q-34 -36 -71 -91l-60 -90h-30q-5 101 45 240h602q-7 -129 -57 -240 h-30l-22 90q-15 59 -33 91q-25 4 -62 4h-16l-114 -538z" />
<glyph unicode="&#x165;" horiz-adv-x="411" d="M559 698q0 -49 -45 -97.5t-109 -69.5l-8 9q44 47 58 89q-18 5 -29.5 18.5t-11.5 32.5q0 34 24.5 57t59.5 23q27 0 44 -17.5t17 -44.5zM206 -10q-55 0 -84.5 34t-29.5 89q0 27 5 47l57 270h-63l2 20l266 190l19 -2l-33 -158h125l-11 -50h-125l-52 -245q-4 -22 -4 -31 q0 -49 42 -49q44 0 112 56l10 -10q-36 -70 -96 -115.5t-140 -45.5z" />
<glyph unicode="&#x166;" horiz-adv-x="666" d="M426 55l57 -35l-4 -20h-309l-2 20l34 21q16 10 23 15t14.5 16t10.5 25l51 240h-115l11 50h114l53 248h-17q-36 0 -64 -4q-34 -36 -71 -91l-60 -90h-30q-5 101 45 240h602q-7 -129 -57 -240h-30l-22 90q-15 59 -33 91q-25 4 -62 4h-16l-53 -248h121l-11 -50h-120l-51 -240 z" />
<glyph unicode="&#x167;" horiz-adv-x="411" d="M206 -10q-55 0 -84.5 34t-29.5 89q0 27 5 47l23 106h-58l10 50h58l24 114h-63l2 20l266 190l19 -2l-33 -158h125l-11 -50h-125l-24 -114h132l-10 -50h-133l-17 -81q-4 -22 -4 -31q0 -49 42 -49q44 0 112 56l10 -10q-36 -70 -96 -115.5t-140 -45.5z" />
<glyph unicode="&#x168;" horiz-adv-x="694" d="M404 833q-12 -7 -72 -54l-17 8q20 76 65.5 119t105.5 43q45 0 111.5 -27t94.5 -30q14 9 41 30t31 24l17 -8q-20 -76 -66 -119t-105 -43q-44 0 -110 27t-96 30zM211 635l-57 35l4 20h309l2 -20l-34 -21q-16 -10 -23 -15t-14.5 -16t-10.5 -25l-72 -338q-7 -34 -7 -69 q0 -65 28.5 -100.5t83.5 -35.5q129 0 173 202l76 351l5 25l-84 37l5 25h226l3 -25l-90 -37l-5 -25l-74 -348q-28 -132 -94.5 -198.5t-193.5 -66.5q-113 0 -177.5 52.5t-64.5 150.5q0 39 7 68l70 332z" />
<glyph unicode="&#x169;" horiz-adv-x="658" d="M292 629q-9 -6 -72 -58l-13 6q20 81 66 127t106 46q42 0 104.5 -29t89.5 -32q9 6 72 58l13 -6q-20 -81 -66 -127t-106 -46q-41 0 -103.5 29t-90.5 32zM147 320q11 53 11 65q0 19 -17 19q-22 0 -72 -41l-10 10q29 56 77 96.5t105 40.5q47 0 73 -26.5t26 -74.5 q0 -34 -13 -89q-35 -131 -35 -167q0 -31 22 -31q31 0 74.5 74.5t73.5 187.5l26 120l83 3q72 3 79 3q19 0 14 -25l-34 -161l-31 -144q-11 -53 -11 -65q0 -19 17 -19q22 0 72 41l10 -10q-29 -56 -77 -96.5t-105 -40.5q-47 0 -73 26.5t-26 74.5q0 34 13 89l3 11h-7 q-39 -95 -92 -148t-111 -53q-49 0 -77 29.5t-28 82.5q0 23 6 55t17 82t17 81z" />
<glyph unicode="&#x16a;" horiz-adv-x="694" d="M387 818l18 82h342l-18 -82h-342zM211 635l-57 35l4 20h309l2 -20l-34 -21q-16 -10 -23 -15t-14.5 -16t-10.5 -25l-72 -338q-7 -34 -7 -69q0 -65 28.5 -100.5t83.5 -35.5q129 0 173 202l76 351l5 25l-84 37l5 25h226l3 -25l-90 -37l-5 -25l-74 -348 q-28 -132 -94.5 -198.5t-193.5 -66.5q-113 0 -177.5 52.5t-64.5 150.5q0 39 7 68l70 332z" />
<glyph unicode="&#x16b;" horiz-adv-x="658" d="M250 612l18 82h332l-18 -82h-332zM147 320q11 53 11 65q0 19 -17 19q-22 0 -72 -41l-10 10q29 56 77 96.5t105 40.5q47 0 73 -26.5t26 -74.5q0 -34 -13 -89q-35 -131 -35 -167q0 -31 22 -31q31 0 74.5 74.5t73.5 187.5l26 120l83 3q72 3 79 3q19 0 14 -25l-34 -161 l-31 -144q-11 -53 -11 -65q0 -19 17 -19q22 0 72 41l10 -10q-29 -56 -77 -96.5t-105 -40.5q-47 0 -73 26.5t-26 74.5q0 34 13 89l3 11h-7q-39 -95 -92 -148t-111 -53q-49 0 -77 29.5t-28 82.5q0 23 6 55t17 82t17 81z" />
<glyph unicode="&#x16c;" horiz-adv-x="694" d="M703 938l6 2l19 -4q-22 -76 -69.5 -116.5t-114.5 -40.5q-65 0 -91 46t-13 112l23 4q5 -27 31.5 -43t69.5 -16q104 0 139 56zM211 635l-57 35l4 20h309l2 -20l-34 -21q-16 -10 -23 -15t-14.5 -16t-10.5 -25l-72 -338q-7 -34 -7 -69q0 -65 28.5 -100.5t83.5 -35.5 q129 0 173 202l76 351l5 25l-84 37l5 25h226l3 -25l-90 -37l-5 -25l-74 -348q-28 -132 -94.5 -198.5t-193.5 -66.5q-113 0 -177.5 52.5t-64.5 150.5q0 39 7 68l70 332z" />
<glyph unicode="&#x16d;" horiz-adv-x="658" d="M583 754l6 2l19 -4q-21 -80 -72.5 -127.5t-115.5 -47.5q-61 0 -86.5 52t-13.5 124l23 4q5 -33 31.5 -52.5t69.5 -19.5q105 0 139 69zM147 320q11 53 11 65q0 19 -17 19q-22 0 -72 -41l-10 10q29 56 77 96.5t105 40.5q47 0 73 -26.5t26 -74.5q0 -34 -13 -89 q-35 -131 -35 -167q0 -31 22 -31q31 0 74.5 74.5t73.5 187.5l26 120l83 3q72 3 79 3q19 0 14 -25l-34 -161l-31 -144q-11 -53 -11 -65q0 -19 17 -19q22 0 72 41l10 -10q-29 -56 -77 -96.5t-105 -40.5q-47 0 -73 26.5t-26 74.5q0 34 13 89l3 11h-7q-39 -95 -92 -148t-111 -53 q-49 0 -77 29.5t-28 82.5q0 23 6 55t17 82t17 81z" />
<glyph unicode="&#x16e;" horiz-adv-x="694" d="M688 879q0 -48 -41.5 -81.5t-101.5 -33.5q-45 0 -71.5 22t-26.5 59q0 48 41.5 81t101.5 33q45 0 71.5 -21.5t26.5 -58.5zM514 846q0 -20 11 -31.5t30 -11.5q28 0 47 21.5t19 53.5q0 19 -11 30.5t-30 11.5q-28 0 -47 -21.5t-19 -52.5zM211 635l-57 35l4 20h309l2 -20 l-34 -21q-16 -10 -23 -15t-14.5 -16t-10.5 -25l-72 -338q-7 -34 -7 -69q0 -65 28.5 -100.5t83.5 -35.5q129 0 173 202l76 351l5 25l-84 37l5 25h226l3 -25l-90 -37l-5 -25l-74 -348q-28 -132 -94.5 -198.5t-193.5 -66.5q-113 0 -177.5 52.5t-64.5 150.5q0 39 7 68l70 332z " />
<glyph unicode="&#x16f;" horiz-adv-x="658" d="M552 683q0 -48 -41.5 -81.5t-101.5 -33.5q-45 0 -71.5 22t-26.5 59q0 48 41.5 81t101.5 33q45 0 71.5 -21.5t26.5 -58.5zM378 650q0 -20 11 -31.5t30 -11.5q28 0 47 21.5t19 53.5q0 19 -11 30.5t-30 11.5q-28 0 -47 -21.5t-19 -52.5zM147 320q11 53 11 65q0 19 -17 19 q-22 0 -72 -41l-10 10q29 56 77 96.5t105 40.5q47 0 73 -26.5t26 -74.5q0 -34 -13 -89q-35 -131 -35 -167q0 -31 22 -31q31 0 74.5 74.5t73.5 187.5l26 120l83 3q72 3 79 3q19 0 14 -25l-34 -161l-31 -144q-11 -53 -11 -65q0 -19 17 -19q22 0 72 41l10 -10 q-29 -56 -77 -96.5t-105 -40.5q-47 0 -73 26.5t-26 74.5q0 34 13 89l3 11h-7q-39 -95 -92 -148t-111 -53q-49 0 -77 29.5t-28 82.5q0 23 6 55t17 82t17 81z" />
<glyph unicode="&#x170;" horiz-adv-x="694" d="M492 946l13 3q37 -6 61 -23.5t24 -42.5q0 -45 -85.5 -74t-218.5 -29l-7 17q110 59 213 149zM794 946l13 3q37 -6 61 -23.5t24 -42.5q0 -45 -85.5 -74t-218.5 -29l-7 17q110 59 213 149zM211 635l-57 35l4 20h309l2 -20l-34 -21q-16 -10 -23 -15t-14.5 -16t-10.5 -25 l-72 -338q-7 -34 -7 -69q0 -65 28.5 -100.5t83.5 -35.5q129 0 173 202l76 351l5 25l-84 37l5 25h226l3 -25l-90 -37l-5 -25l-74 -348q-28 -132 -94.5 -198.5t-193.5 -66.5q-113 0 -177.5 52.5t-64.5 150.5q0 39 7 68l70 332z" />
<glyph unicode="&#x171;" horiz-adv-x="658" d="M336 763l13 6q24 -2 34 -4q64 -16 64 -53q0 -43 -78.5 -90.5t-177.5 -59.5l-10 16q92 86 155 185zM556 763l13 6q29 -3 34 -4q64 -17 64 -53q0 -43 -78.5 -90.5t-177.5 -59.5l-10 16q92 86 155 185zM147 320q11 53 11 65q0 19 -17 19q-22 0 -72 -41l-10 10q29 56 77 96.5 t105 40.5q47 0 73 -26.5t26 -74.5q0 -34 -13 -89q-35 -131 -35 -167q0 -31 22 -31q31 0 74.5 74.5t73.5 187.5l26 120l83 3q72 3 79 3q19 0 14 -25l-34 -161l-31 -144q-11 -53 -11 -65q0 -19 17 -19q22 0 72 41l10 -10q-29 -56 -77 -96.5t-105 -40.5q-47 0 -73 26.5 t-26 74.5q0 34 13 89l3 11h-7q-39 -95 -92 -148t-111 -53q-49 0 -77 29.5t-28 82.5q0 23 6 55t17 82t17 81z" />
<glyph unicode="&#x172;" horiz-adv-x="694" d="M448 -123q-22 -65 -61.5 -101t-86.5 -36q-35 0 -58 22t-23 60q0 102 176 169q-9 -1 -28 -1q-113 0 -177.5 52.5t-64.5 150.5q0 39 7 68l70 332l9 42l-57 35l4 20h309l2 -20l-34 -21q-16 -10 -23 -15t-14.5 -16t-10.5 -25l-72 -338q-7 -34 -7 -69q0 -65 28.5 -100.5 t83.5 -35.5q129 0 173 202l76 351l5 25l-84 37l5 25h226l3 -25l-90 -37l-5 -25l-74 -348q-32 -153 -114 -215q-9 -8 -18 -12q-81 -55 -118 -92.5t-37 -67.5q0 -22 19 -22q22 0 51 41z" />
<glyph unicode="&#x173;" horiz-adv-x="658" d="M147 320q11 53 11 65q0 19 -17 19q-22 0 -72 -41l-10 10q29 56 77 96.5t105 40.5q47 0 73 -26.5t26 -74.5q0 -34 -13 -89q-35 -131 -35 -167q0 -31 22 -31q31 0 74.5 74.5t73.5 187.5l26 120l83 3q72 3 79 3q19 0 14 -25l-34 -161l-31 -144q-11 -53 -11 -65q0 -19 17 -19 q22 0 72 41l10 -10q-20 -38 -47 -68q-72 -85 -99 -124t-27 -65q0 -24 20 -24q19 0 50 41l10 -10q-48 -137 -150 -137q-34 0 -56.5 20t-22.5 55q0 47 40 88.5t113 87.5q-4 -1 -13 -1q-47 0 -73 26.5t-26 74.5q0 34 13 89l3 11h-7q-39 -95 -92 -148t-111 -53q-49 0 -77 29.5 t-28 82.5q0 23 6 55t17 82t17 81z" />
<glyph unicode="&#x174;" horiz-adv-x="1096" d="M909 787l-18 -11q-77 42 -143 69q-93 -38 -175 -69l-11 14q82 79 147 151l13 8h95q61 -85 92 -162zM394 0h-115l-65 595q-3 26 -11.5 37.5t-27.5 21.5l-31 16l2 20h320l4 -20l-75 -33l44 -450l175 329l-9 79q-3 26 -11.5 37.5t-27.5 21.5l-33 16l4 20h320l4 -20l-75 -33 l43 -450l241 452l-77 31l4 20h220l4 -20l-58 -25q-18 -7 -28.5 -17.5t-21.5 -30.5l-329 -597h-115l-45 419z" />
<glyph unicode="&#x175;" horiz-adv-x="806" d="M640 577l-18 -11q-66 51 -128 86q-114 -62 -160 -86l-11 14q90 114 132 175l13 8h95q52 -100 77 -186zM848 408q0 -63 -51 -143.5t-116.5 -145.5t-145.5 -129l-115 9q0 10 1.5 50.5t1.5 59.5v73q-63 -122 -156 -192l-115 9q0 10 1.5 50.5t1.5 59.5q0 175 -10 235t-37 60 q-24 0 -66 -42l-12 11q29 55 79.5 96t105.5 41q56 0 83 -44.5t27 -147.5q0 -102 -19 -247q56 85 82.5 175t26.5 160q0 45 -11 85q34 19 77 19q62 0 87 -44.5t25 -147.5q0 -102 -19 -247q54 82 79 172.5t25 162.5q0 46 -11 85q32 19 74 19q50 0 78.5 -26t28.5 -76z" />
<glyph unicode="&#x176;" horiz-adv-x="700" d="M700 787l-18 -11q-77 42 -143 69q-93 -38 -175 -69l-11 14q82 79 147 151l13 8h95q61 -85 92 -162zM424 55l57 -35l-4 -20h-309l-2 20l34 21q16 10 23 15t14.5 16t10.5 25l30 142q9 62 2 141t-30.5 146.5t-48.5 67.5q-24 0 -71 -51l-20 16q36 68 84.5 104.5t98.5 36.5 q45 0 77.5 -25t51 -73.5t27 -107.5t10.5 -137q175 343 266 343q37 0 57.5 -40.5t27.5 -100.5l-22 -6q-27 41 -55 41q-40 0 -100.5 -67.5t-112 -165.5t-69.5 -181l-18 -83z" />
<glyph unicode="&#x177;" horiz-adv-x="575" d="M542 577l-18 -11q-66 51 -128 86q-114 -62 -160 -86l-11 14q90 114 132 175l13 8h95q52 -100 77 -186zM227 510q61 0 90.5 -38t29.5 -122q0 -158 -63 -322q80 90 114 191.5t34 186.5q0 46 -11 85q32 19 74 19q107 0 107 -117q0 -122 -90.5 -235t-258.5 -203 q-49 -98 -111.5 -156.5t-132.5 -58.5q-50 0 -81 21t-31 55q0 39 37 54q29 -37 55 -37q33 0 65.5 53t58.5 137q54 169 54 287q0 94 -47 94q-24 0 -66 -42l-12 11q29 55 79.5 96t105.5 41z" />
<glyph unicode="&#x178;" horiz-adv-x="700" d="M751 870q0 -39 -29 -65.5t-71 -26.5q-36 0 -58.5 20t-22.5 51q0 38 30.5 64.5t73.5 26.5q32 0 54.5 -19.5t22.5 -50.5zM502 870q0 -39 -29 -65.5t-71 -26.5q-36 0 -58.5 20t-22.5 51q0 38 30.5 64.5t73.5 26.5q32 0 54.5 -19.5t22.5 -50.5zM424 55l57 -35l-4 -20h-309 l-2 20l34 21q16 10 23 15t14.5 16t10.5 25l30 142q9 62 2 141t-30.5 146.5t-48.5 67.5q-24 0 -71 -51l-20 16q36 68 84.5 104.5t98.5 36.5q45 0 77.5 -25t51 -73.5t27 -107.5t10.5 -137q175 343 266 343q37 0 57.5 -40.5t27.5 -100.5l-22 -6q-27 41 -55 41 q-40 0 -100.5 -67.5t-112 -165.5t-69.5 -181l-18 -83z" />
<glyph unicode="&#x179;" horiz-adv-x="675" d="M581 946l13 2q70 -35 70 -73q0 -47 -82 -73t-230 -26l-6 19q141 69 235 151zM605 0h-556l1 50l475 585h-130q-36 0 -64 -4l-141 -181h-30q-6 113 45 240h550l-1 -50l-475 -585h136q36 0 64 4l141 181h30q6 -100 -45 -240z" />
<glyph unicode="&#x17a;" horiz-adv-x="464" d="M359 763l13 6q24 -2 34 -4q84 -16 84 -53q0 -43 -84.5 -90.5t-191.5 -59.5l-10 16q92 86 155 185zM155 15q-60 0 -110 -25l-31 45q216 204 295 290q-88 15 -134 15q-32 0 -46 -9t-31 -41l-15 3q13 110 40 163.5t77 53.5q99 0 172 -112q52 62 85 112q26 -9 44.5 -25.5 t18.5 -38.5q0 -24 -13.5 -42.5t-51.5 -48.5q-43 -34 -128 -100t-128 -100q34 5 81 5q27 0 70 -2.5t56 -2.5q24 0 43 26q9 11 17 24l15 -6q-22 -96 -37 -134q-30 -75 -74 -75q-17 0 -100.5 12.5t-114.5 12.5z" />
<glyph unicode="&#x17b;" horiz-adv-x="675" d="M618 875q0 -46 -35.5 -77.5t-85.5 -31.5q-39 0 -63.5 21t-23.5 53q1 46 35.5 77.5t84.5 31.5q39 0 63.5 -21t24.5 -53zM605 0h-556l1 50l475 585h-130q-36 0 -64 -4l-141 -181h-30q-6 113 45 240h550l-1 -50l-475 -585h136q36 0 64 4l141 181h30q6 -100 -45 -240z" />
<glyph unicode="&#x17c;" horiz-adv-x="464" d="M326 569q-34 0 -56.5 21.5t-22.5 56.5q0 45 36.5 79t84.5 34q34 0 56.5 -21t22.5 -56q0 -46 -36.5 -80t-84.5 -34zM155 15q-60 0 -110 -25l-31 45q216 204 295 290q-88 15 -134 15q-32 0 -46 -9t-31 -41l-15 3q13 110 40 163.5t77 53.5q99 0 172 -112q52 62 85 112 q26 -9 44.5 -25.5t18.5 -38.5q0 -24 -13.5 -42.5t-51.5 -48.5q-43 -34 -128 -100t-128 -100q34 5 81 5q27 0 70 -2.5t56 -2.5q24 0 43 26q9 11 17 24l15 -6q-22 -96 -37 -134q-30 -75 -74 -75q-17 0 -100.5 12.5t-114.5 12.5z" />
<glyph unicode="&#x17d;" horiz-adv-x="675" d="M552 780l-13 -8h-95q-52 89 -79 166l18 11q70 -44 125 -71q132 50 193 71l11 -14q-97 -89 -160 -155zM605 0h-556l1 50l475 585h-130q-36 0 -64 -4l-141 -181h-30q-6 113 45 240h550l-1 -50l-475 -585h136q36 0 64 4l141 181h30q6 -100 -45 -240z" />
<glyph unicode="&#x17e;" horiz-adv-x="464" d="M383 574l-13 -8h-95q-45 98 -69 186l18 11q58 -48 119 -87q79 40 179 87l11 -14q-93 -103 -150 -175zM155 15q-60 0 -110 -25l-31 45q216 204 295 290q-88 15 -134 15q-32 0 -46 -9t-31 -41l-15 3q13 110 40 163.5t77 53.5q99 0 172 -112q52 62 85 112q26 -9 44.5 -25.5 t18.5 -38.5q0 -24 -13.5 -42.5t-51.5 -48.5q-43 -34 -128 -100t-128 -100q34 5 81 5q27 0 70 -2.5t56 -2.5q24 0 43 26q9 11 17 24l15 -6q-22 -96 -37 -134q-30 -75 -74 -75q-17 0 -100.5 12.5t-114.5 12.5z" />
<glyph unicode="&#x18f;" horiz-adv-x="638" d="M664 439q0 -123 -53.5 -226.5t-146.5 -163t-204 -59.5q-99 0 -159 60.5t-60 165.5q0 52 21 115l22 18h367q23 110 23 200q0 94 -74 94q-61 0 -95 -53.5t-35 -122.5v-3q-49 -24 -95 -24q-33 0 -53.5 12.5t-20.5 37.5q0 79 97 144.5t213 65.5q119 0 186 -72t67 -189z M223 162q0 -115 57 -115q50 0 92 73t69 184l-197 -12q-21 -76 -21 -130z" />
<glyph unicode="&#x192;" horiz-adv-x="511" d="M268 -10q-28 -111 -108 -180.5t-181 -69.5q-41 0 -65.5 20.5t-24.5 54.5q0 57 74 89q20 -53 37 -75.5t41 -22.5q36 0 53.5 42.5t33.5 141.5l51 302h-111l15 70h107l15 88q19 125 98 187.5t190 62.5q63 0 100 -25.5t37 -64.5q0 -38 -28 -63t-66 -32q-10 67 -22 98t-34 31 q-35 0 -62 -78q-9 -28 -33 -116l-22 -88h170l-15 -70h-173z" />
<glyph unicode="&#x19d;" horiz-adv-x="726" d="M-2 -170l-15 19q44 47 63 70.5t41 71t36 113.5l111 524q-5 3 -17 9.5t-17 9.5l-33 18l8 25h213l219 -472l80 375l8 35l-85 37l5 25h226l3 -25l-40 -20q-22 -11 -29 -15t-16 -14t-12 -23l-126 -593h-115l-236 512l-93 -437q-13 -62 -38 -106t-54.5 -71t-86.5 -68z" />
<glyph unicode="&#x1cd;" horiz-adv-x="723" d="M580 780l-13 -8h-95q-52 89 -79 166l18 11q70 -44 125 -71q132 50 193 71l11 -14q-97 -89 -160 -155zM449 690h115l74 -595q3 -26 11.5 -37.5t27.5 -21.5l31 -16l-2 -20h-320l-4 20l75 33l-17 145l-216 -3l-78 -142l75 -33l-4 -20h-210l-4 20l58 25q18 7 28.5 17.5 t21.5 30.5zM251 245l184 -2l-32 278z" />
<glyph unicode="&#x1ce;" d="M469 574l-13 -8h-95q-45 98 -69 186l18 11q58 -48 119 -87q79 40 179 87l11 -14q-93 -103 -150 -175zM561 180q-11 -53 -11 -65q0 -19 17 -19q22 0 72 41l10 -10q-29 -56 -77 -96.5t-105 -40.5q-47 0 -73 26.5t-26 74.5q0 34 13 89l3 11h-6q-35 -89 -85.5 -145 t-107.5 -56q-54 0 -87.5 44t-33.5 116q0 92 39 173t118 134t181 53q133 0 229 -48l-27 -80zM249 182q0 -60 27 -60q34 0 74 79.5t65 165.5l19 74q-20 19 -50 19q-33 0 -65.5 -48t-51 -112.5t-18.5 -117.5z" />
<glyph unicode="&#x1cf;" horiz-adv-x="413" d="M416 780l-13 -8h-95q-52 89 -79 166l18 11q70 -44 125 -71q132 50 193 71l11 -14q-97 -89 -160 -155zM299 55l57 -35l-4 -20h-309l-2 20l34 21q16 10 23 15t14.5 16t10.5 25l105 496l9 42l-57 35l4 20h309l2 -20l-34 -21q-16 -10 -23 -15t-14.5 -16t-10.5 -25l-105 -496z " />
<glyph unicode="&#x1d0;" horiz-adv-x="362" d="M309 574l-13 -8h-95q-18 89 -29 186l18 11q47 -51 81 -80q100 60 137 80l11 -14q-67 -102 -110 -175zM297 180q-11 -53 -11 -65q0 -19 17 -19q22 0 72 41l10 -10q-29 -56 -77 -96.5t-105 -40.5q-47 0 -73 26.5t-26 74.5q0 34 13 89q5 24 15 70.5t15 69.5q11 53 11 65 q0 19 -17 19q-22 0 -72 -41l-10 10q29 56 77 96.5t105 40.5q47 0 73 -26.5t26 -74.5q0 -34 -13 -89q-5 -23 -15 -70t-15 -70z" />
<glyph unicode="&#x1d1;" horiz-adv-x="702" d="M561 780l-13 -8h-95q-52 89 -79 166l18 11q70 -44 125 -71q132 50 193 71l11 -14q-97 -89 -160 -155zM734 439q0 -130 -55 -234.5t-142 -159.5t-186 -55q-113 0 -184.5 70.5t-71.5 189.5q0 121 54 225.5t142.5 164.5t186.5 60q122 0 189 -72t67 -189zM285 143 q0 -46 17.5 -72t50.5 -26q48 0 94.5 94.5t71.5 211t25 198.5q0 96 -65 96q-51 0 -97.5 -87.5t-71.5 -202.5t-25 -212z" />
<glyph unicode="&#x1d2;" horiz-adv-x="562" d="M433 574l-13 -8h-95q-45 98 -69 186l18 11q58 -48 119 -87q79 40 179 87l11 -14q-93 -103 -150 -175zM578 309q0 -142 -87.5 -230.5t-206.5 -88.5q-95 0 -154 53.5t-59 148.5q0 132 88.5 224.5t206.5 92.5q99 0 155.5 -54.5t56.5 -145.5zM256 111q0 -76 33 -76 q39 0 71.5 135t32.5 228q0 68 -33 68q-40 0 -72 -126.5t-32 -228.5z" />
<glyph unicode="&#x1d3;" horiz-adv-x="694" d="M605 780l-13 -8h-95q-52 89 -79 166l18 11q70 -44 125 -71q132 50 193 71l11 -14q-97 -89 -160 -155zM211 635l-57 35l4 20h309l2 -20l-34 -21q-16 -10 -23 -15t-14.5 -16t-10.5 -25l-72 -338q-7 -34 -7 -69q0 -65 28.5 -100.5t83.5 -35.5q129 0 173 202l76 351l5 25 l-84 37l5 25h226l3 -25l-90 -37l-5 -25l-74 -348q-28 -132 -94.5 -198.5t-193.5 -66.5q-113 0 -177.5 52.5t-64.5 150.5q0 39 7 68l70 332z" />
<glyph unicode="&#x1d4;" horiz-adv-x="658" d="M478 574l-13 -8h-95q-45 98 -69 186l18 11q58 -48 119 -87q79 40 179 87l11 -14q-93 -103 -150 -175zM147 320q11 53 11 65q0 19 -17 19q-22 0 -72 -41l-10 10q29 56 77 96.5t105 40.5q47 0 73 -26.5t26 -74.5q0 -34 -13 -89q-35 -131 -35 -167q0 -31 22 -31 q31 0 74.5 74.5t73.5 187.5l26 120l83 3q72 3 79 3q19 0 14 -25l-34 -161l-31 -144q-11 -53 -11 -65q0 -19 17 -19q22 0 72 41l10 -10q-29 -56 -77 -96.5t-105 -40.5q-47 0 -73 26.5t-26 74.5q0 34 13 89l3 11h-7q-39 -95 -92 -148t-111 -53q-49 0 -77 29.5t-28 82.5 q0 23 6 55t17 82t17 81z" />
<glyph unicode="&#x1d5;" horiz-adv-x="694" d="M428 1039l18 82h342l-18 -82h-342zM772 870q0 -39 -29 -65.5t-71 -26.5q-36 0 -58.5 20t-22.5 51q0 38 30.5 64.5t73.5 26.5q32 0 54.5 -19.5t22.5 -50.5zM523 870q0 -39 -29 -65.5t-71 -26.5q-36 0 -58.5 20t-22.5 51q0 38 30.5 64.5t73.5 26.5q32 0 54.5 -19.5 t22.5 -50.5zM211 635l-57 35l4 20h309l2 -20l-34 -21q-16 -10 -23 -15t-14.5 -16t-10.5 -25l-72 -338q-7 -34 -7 -69q0 -65 28.5 -100.5t83.5 -35.5q129 0 173 202l76 351l5 25l-84 37l5 25h226l3 -25l-90 -37l-5 -25l-74 -348q-28 -132 -94.5 -198.5t-193.5 -66.5 q-113 0 -177.5 52.5t-64.5 150.5q0 39 7 68l70 332z" />
<glyph unicode="&#x1d6;" horiz-adv-x="658" d="M302 852l18 82h332l-18 -82h-332zM641 678q0 -41 -29 -69.5t-70 -28.5q-35 0 -57.5 22t-22.5 55q0 40 30 68.5t73 28.5q32 0 54 -21t22 -55zM400 678q0 -41 -29 -69.5t-70 -28.5q-35 0 -57.5 22t-22.5 55q0 40 30 68.5t73 28.5q32 0 54 -21t22 -55zM147 320q11 53 11 65 q0 19 -17 19q-22 0 -72 -41l-10 10q29 56 77 96.5t105 40.5q47 0 73 -26.5t26 -74.5q0 -34 -13 -89q-35 -131 -35 -167q0 -31 22 -31q31 0 74.5 74.5t73.5 187.5l26 120l83 3q72 3 79 3q19 0 14 -25l-34 -161l-31 -144q-11 -53 -11 -65q0 -19 17 -19q22 0 72 41l10 -10 q-29 -56 -77 -96.5t-105 -40.5q-47 0 -73 26.5t-26 74.5q0 34 13 89l3 11h-7q-39 -95 -92 -148t-111 -53q-49 0 -77 29.5t-28 82.5q0 23 6 55t17 82t17 81z" />
<glyph unicode="&#x1d7;" horiz-adv-x="694" d="M675 1167l13 2q70 -35 70 -73q0 -47 -82 -73t-230 -26l-6 19q141 69 235 151zM523 870q0 -39 -29 -65.5t-71 -26.5q-36 0 -58.5 20t-22.5 51q0 38 30.5 64.5t73.5 26.5q32 0 54.5 -19.5t22.5 -50.5zM772 870q0 -39 -29 -65.5t-71 -26.5q-36 0 -58.5 20t-22.5 51 q0 38 30.5 64.5t73.5 26.5q32 0 54.5 -19.5t22.5 -50.5zM211 635l-57 35l4 20h309l2 -20l-34 -21q-16 -10 -23 -15t-14.5 -16t-10.5 -25l-72 -338q-7 -34 -7 -69q0 -65 28.5 -100.5t83.5 -35.5q129 0 173 202l76 351l5 25l-84 37l5 25h226l3 -25l-90 -37l-5 -25l-74 -348 q-28 -132 -94.5 -198.5t-193.5 -66.5q-113 0 -177.5 52.5t-64.5 150.5q0 39 7 68l70 332z" />
<glyph unicode="&#x1d8;" horiz-adv-x="658" d="M496 1003l13 6q24 -2 34 -4q84 -16 84 -53q0 -43 -84.5 -90.5t-191.5 -59.5l-10 16q92 86 155 185zM641 678q0 -41 -29 -69.5t-70 -28.5q-35 0 -57.5 22t-22.5 55q0 40 30 68.5t73 28.5q32 0 54 -21t22 -55zM400 678q0 -41 -29 -69.5t-70 -28.5q-35 0 -57.5 22t-22.5 55 q0 40 30 68.5t73 28.5q32 0 54 -21t22 -55zM147 320q11 53 11 65q0 19 -17 19q-22 0 -72 -41l-10 10q29 56 77 96.5t105 40.5q47 0 73 -26.5t26 -74.5q0 -34 -13 -89q-35 -131 -35 -167q0 -31 22 -31q31 0 74.5 74.5t73.5 187.5l26 120l83 3q72 3 79 3q19 0 14 -25l-34 -161 l-31 -144q-11 -53 -11 -65q0 -19 17 -19q22 0 72 41l10 -10q-29 -56 -77 -96.5t-105 -40.5q-47 0 -73 26.5t-26 74.5q0 34 13 89l3 11h-7q-39 -95 -92 -148t-111 -53q-49 0 -77 29.5t-28 82.5q0 23 6 55t17 82t17 81z" />
<glyph unicode="&#x1d9;" horiz-adv-x="694" d="M636 1001l-13 -8h-95q-52 89 -79 166l18 11q70 -44 125 -71q132 50 193 71l11 -14q-97 -89 -160 -155zM772 870q0 -39 -29 -65.5t-71 -26.5q-36 0 -58.5 20t-22.5 51q0 38 30.5 64.5t73.5 26.5q32 0 54.5 -19.5t22.5 -50.5zM523 870q0 -39 -29 -65.5t-71 -26.5 q-36 0 -58.5 20t-22.5 51q0 38 30.5 64.5t73.5 26.5q32 0 54.5 -19.5t22.5 -50.5zM211 635l-57 35l4 20h309l2 -20l-34 -21q-16 -10 -23 -15t-14.5 -16t-10.5 -25l-72 -338q-7 -34 -7 -69q0 -65 28.5 -100.5t83.5 -35.5q129 0 173 202l76 351l5 25l-84 37l5 25h226l3 -25 l-90 -37l-5 -25l-74 -348q-28 -132 -94.5 -198.5t-193.5 -66.5q-113 0 -177.5 52.5t-64.5 150.5q0 39 7 68l70 332z" />
<glyph unicode="&#x1da;" horiz-adv-x="658" d="M510 814l-13 -8h-95q-45 98 -69 186l18 11q58 -48 119 -87q79 40 179 87l11 -14q-93 -103 -150 -175zM641 678q0 -41 -29 -69.5t-70 -28.5q-35 0 -57.5 22t-22.5 55q0 40 30 68.5t73 28.5q32 0 54 -21t22 -55zM400 678q0 -41 -29 -69.5t-70 -28.5q-35 0 -57.5 22 t-22.5 55q0 40 30 68.5t73 28.5q32 0 54 -21t22 -55zM147 320q11 53 11 65q0 19 -17 19q-22 0 -72 -41l-10 10q29 56 77 96.5t105 40.5q47 0 73 -26.5t26 -74.5q0 -34 -13 -89q-35 -131 -35 -167q0 -31 22 -31q31 0 74.5 74.5t73.5 187.5l26 120l83 3q72 3 79 3q19 0 14 -25 l-34 -161l-31 -144q-11 -53 -11 -65q0 -19 17 -19q22 0 72 41l10 -10q-29 -56 -77 -96.5t-105 -40.5q-47 0 -73 26.5t-26 74.5q0 34 13 89l3 11h-7q-39 -95 -92 -148t-111 -53q-49 0 -77 29.5t-28 82.5q0 23 6 55t17 82t17 81z" />
<glyph unicode="&#x1db;" horiz-adv-x="694" d="M737 1017l-9 -19q-266 0 -266 84q0 29 30 53t65 35l13 -2q61 -78 167 -151zM772 870q0 -39 -29 -65.5t-71 -26.5q-36 0 -58.5 20t-22.5 51q0 38 30.5 64.5t73.5 26.5q32 0 54.5 -19.5t22.5 -50.5zM523 870q0 -39 -29 -65.5t-71 -26.5q-36 0 -58.5 20t-22.5 51 q0 38 30.5 64.5t73.5 26.5q32 0 54.5 -19.5t22.5 -50.5zM211 635l-57 35l4 20h309l2 -20l-34 -21q-16 -10 -23 -15t-14.5 -16t-10.5 -25l-72 -338q-7 -34 -7 -69q0 -65 28.5 -100.5t83.5 -35.5q129 0 173 202l76 351l5 25l-84 37l5 25h226l3 -25l-90 -37l-5 -25l-74 -348 q-28 -132 -94.5 -198.5t-193.5 -66.5q-113 0 -177.5 52.5t-64.5 150.5q0 39 7 68l70 332z" />
<glyph unicode="&#x1dc;" horiz-adv-x="658" d="M538 817l-13 -15q-96 27 -157 68t-61 81q0 57 95 57q23 0 34 -1l11 -8q35 -86 91 -182zM641 678q0 -41 -29 -69.5t-70 -28.5q-35 0 -57.5 22t-22.5 55q0 40 30 68.5t73 28.5q32 0 54 -21t22 -55zM400 678q0 -41 -29 -69.5t-70 -28.5q-35 0 -57.5 22t-22.5 55 q0 40 30 68.5t73 28.5q32 0 54 -21t22 -55zM147 320q11 53 11 65q0 19 -17 19q-22 0 -72 -41l-10 10q29 56 77 96.5t105 40.5q47 0 73 -26.5t26 -74.5q0 -34 -13 -89q-35 -131 -35 -167q0 -31 22 -31q31 0 74.5 74.5t73.5 187.5l26 120l83 3q72 3 79 3q19 0 14 -25l-34 -161 l-31 -144q-11 -53 -11 -65q0 -19 17 -19q22 0 72 41l10 -10q-29 -56 -77 -96.5t-105 -40.5q-47 0 -73 26.5t-26 74.5q0 34 13 89l3 11h-7q-39 -95 -92 -148t-111 -53q-49 0 -77 29.5t-28 82.5q0 23 6 55t17 82t17 81z" />
<glyph unicode="&#x1e6;" horiz-adv-x="738" d="M625 780l-13 -8h-95q-52 89 -79 166l18 11q70 -44 125 -71q132 50 193 71l11 -14q-97 -89 -160 -155zM436 50q30 0 58 6l36 167l9 42l-57 35l4 20h299l2 -20l-34 -16q-39 -18 -48 -61l-43 -201q-95 -32 -244 -32q-153 0 -236 75.5t-83 214.5q0 112 60.5 209t163.5 154 t221 57t207 -32q-2 -49 -23 -116.5t-42 -111.5h-30q-49 149 -74 196q-15 3 -32 3q-102 0 -181.5 -105t-79.5 -259q0 -99 40.5 -162t106.5 -63z" />
<glyph unicode="&#x1e7;" horiz-adv-x="518" d="M399 574l-13 -8h-95q-45 98 -69 186l18 11q58 -48 119 -87q79 40 179 87l11 -14q-93 -103 -150 -175zM332 510h41.5h41h36.5t37 0.5t31 1.5t31 2.5t25.5 3.5t23.5 5q10 -15 10 -42q0 -23 -12 -39t-36 -16q-26 0 -119 39l-3 -5q76 -42 76 -120q0 -45 -17 -81.5t-42 -58 t-54.5 -39.5t-54.5 -28.5t-42 -21.5t-17 -22q0 -13 15.5 -22.5t50.5 -22.5q29 -11 46 -20t37.5 -24t30.5 -35.5t10 -47.5q0 -76 -78 -126.5t-196 -50.5q-113 0 -178.5 33.5t-65.5 84.5q0 37 35.5 65t89.5 44l14 -11q-2 -8 -2 -15q0 -65 39 -111.5t104 -46.5q33 0 57.5 18 t24.5 48q0 7 -2.5 14t-9 13.5t-11.5 11t-16.5 11t-18 10t-21.5 11.5t-21 11q-31 16 -48.5 27t-33 30t-15.5 41q0 30 31.5 55t102.5 50q-81 5 -130 48.5t-49 109.5q0 91 71.5 154.5t180.5 63.5zM246 286q0 -101 38 -101q30 0 47.5 70.5t17.5 147.5q0 64 -34 64q-31 0 -50 -59 t-19 -122z" />
<glyph unicode="&#x1ea;" horiz-adv-x="702" d="M734 439q0 -137 -58.5 -242.5t-154.5 -160.5q-167 -107 -167 -168q0 -22 19 -22q22 0 51 41l10 -10q-22 -65 -60 -101t-84 -36q-37 0 -61 21.5t-24 59.5q0 104 179 171q-22 -2 -33 -2q-113 0 -184.5 70.5t-71.5 189.5q0 121 54 225.5t142.5 164.5t186.5 60q122 0 189 -72 t67 -189zM285 143q0 -46 17.5 -72t50.5 -26q48 0 94.5 94.5t71.5 211t25 198.5q0 96 -65 96q-51 0 -97.5 -87.5t-71.5 -202.5t-25 -212z" />
<glyph unicode="&#x1eb;" horiz-adv-x="562" d="M578 309q0 -159 -110 -251q-11 -11 -32 -30q-71 -66 -97 -96.5t-26 -58.5q0 -27 20 -27q21 0 50 41l10 -10q-46 -137 -150 -137q-37 0 -58 21.5t-21 58.5q0 26 13.5 50t41 46.5t53.5 39.5t66 39q-30 -5 -54 -5q-95 0 -154 53.5t-59 148.5q0 132 88.5 224.5t206.5 92.5 q99 0 155.5 -54.5t56.5 -145.5zM256 111q0 -76 33 -76q39 0 71.5 135t32.5 228q0 68 -33 68q-40 0 -72 -126.5t-32 -228.5z" />
<glyph unicode="&#x1f4;" horiz-adv-x="738" d="M637 946l13 2q70 -35 70 -73q0 -47 -82 -73t-230 -26l-6 19q141 69 235 151zM436 50q30 0 58 6l36 167l9 42l-57 35l4 20h299l2 -20l-34 -16q-39 -18 -48 -61l-43 -201q-95 -32 -244 -32q-153 0 -236 75.5t-83 214.5q0 112 60.5 209t163.5 154t221 57t207 -32 q-2 -49 -23 -116.5t-42 -111.5h-30q-49 149 -74 196q-15 3 -32 3q-102 0 -181.5 -105t-79.5 -259q0 -99 40.5 -162t106.5 -63z" />
<glyph unicode="&#x1f5;" horiz-adv-x="518" d="M385 763l13 6q24 -2 34 -4q84 -16 84 -53q0 -43 -84.5 -90.5t-191.5 -59.5l-10 16q92 86 155 185zM332 510h41.5h41h36.5t37 0.5t31 1.5t31 2.5t25.5 3.5t23.5 5q10 -15 10 -42q0 -23 -12 -39t-36 -16q-26 0 -119 39l-3 -5q76 -42 76 -120q0 -45 -17 -81.5t-42 -58 t-54.5 -39.5t-54.5 -28.5t-42 -21.5t-17 -22q0 -13 15.5 -22.5t50.5 -22.5q29 -11 46 -20t37.5 -24t30.5 -35.5t10 -47.5q0 -76 -78 -126.5t-196 -50.5q-113 0 -178.5 33.5t-65.5 84.5q0 37 35.5 65t89.5 44l14 -11q-2 -8 -2 -15q0 -65 39 -111.5t104 -46.5q33 0 57.5 18 t24.5 48q0 7 -2.5 14t-9 13.5t-11.5 11t-16.5 11t-18 10t-21.5 11.5t-21 11q-31 16 -48.5 27t-33 30t-15.5 41q0 30 31.5 55t102.5 50q-81 5 -130 48.5t-49 109.5q0 91 71.5 154.5t180.5 63.5zM246 286q0 -101 38 -101q30 0 47.5 70.5t17.5 147.5q0 64 -34 64q-31 0 -50 -59 t-19 -122z" />
<glyph unicode="&#x1fa;" horiz-adv-x="723" d="M661 1181l13 2q70 -35 70 -73q0 -47 -82 -73t-230 -26l-6 19q141 69 235 151zM654 879q0 -48 -41.5 -81.5t-101.5 -33.5q-45 0 -71.5 22t-26.5 59q0 48 41.5 81t101.5 33q45 0 71.5 -21.5t26.5 -58.5zM480 846q0 -20 11 -31.5t30 -11.5q28 0 47 21.5t19 53.5 q0 19 -11 30.5t-30 11.5q-28 0 -47 -21.5t-19 -52.5zM449 690h115l74 -595q3 -26 11.5 -37.5t27.5 -21.5l31 -16l-2 -20h-320l-4 20l75 33l-17 145l-216 -3l-78 -142l75 -33l-4 -20h-210l-4 20l58 25q18 7 28.5 17.5t21.5 30.5zM251 245l184 -2l-32 278z" />
<glyph unicode="&#x1fb;" d="M503 1013l13 6q24 -2 34 -4q84 -16 84 -53q0 -43 -84.5 -90.5t-191.5 -59.5l-10 16q92 86 155 185zM553 683q0 -48 -41.5 -81.5t-101.5 -33.5q-45 0 -71.5 22t-26.5 59q0 48 41.5 81t101.5 33q45 0 71.5 -21.5t26.5 -58.5zM379 650q0 -20 11 -31.5t30 -11.5q28 0 47 21.5 t19 53.5q0 19 -11 30.5t-30 11.5q-28 0 -47 -21.5t-19 -52.5zM561 180q-11 -53 -11 -65q0 -19 17 -19q22 0 72 41l10 -10q-29 -56 -77 -96.5t-105 -40.5q-47 0 -73 26.5t-26 74.5q0 34 13 89l3 11h-6q-35 -89 -85.5 -145t-107.5 -56q-54 0 -87.5 44t-33.5 116q0 92 39 173 t118 134t181 53q133 0 229 -48l-27 -80zM249 182q0 -60 27 -60q34 0 74 79.5t65 165.5l19 74q-20 19 -50 19q-33 0 -65.5 -48t-51 -112.5t-18.5 -117.5z" />
<glyph unicode="&#x1fc;" horiz-adv-x="952" d="M784 946l13 2q70 -35 70 -73q0 -47 -82 -73t-230 -26l-6 19q141 69 235 151zM414 628l-67 37l7 25h660q0 -113 -57 -240h-30q-37 152 -54 186q-27 3 -62 3l-75 1l-58 -273l184 8l-18 -69l-176 10l-47 -219l-10 -47l100 -1q30 0 63 5q27 27 133 186h30q6 -123 -45 -240 h-536l-2 20l34 21q16 10 23 15t14.5 16t10.5 25l47 220l-192 -2l-143 -261l68 -29l-7 -25h-195l3 25q39 16 54 25q27 18 40 43zM550 635h-83l-149 -270l174 -2z" />
<glyph unicode="&#x1fd;" horiz-adv-x="811" d="M587 763l13 6q24 -2 34 -4q84 -16 84 -53q0 -43 -84.5 -90.5t-191.5 -59.5l-10 16q92 86 155 185zM818 151q-39 -76 -103 -118.5t-144 -42.5q-85 0 -136 55t-51 146h-6q-35 -89 -85.5 -145t-107.5 -56q-54 0 -87.5 44t-33.5 116q0 92 39 173t118 134t181 53q89 0 169 -25 q55 25 111 25q70 0 116 -35.5t46 -94.5q0 -75 -68.5 -121t-206.5 -39q1 -57 28.5 -86t72.5 -29q33 0 71.5 15.5t66.5 40.5zM249 182q0 -60 27 -60q34 0 74 79.5t65 165.5l19 74q-20 19 -50 19q-33 0 -65.5 -48t-51 -112.5t-18.5 -117.5zM666 460q-33 0 -61 -60t-35 -142 q54 3 89 48.5t35 107.5q0 46 -28 46z" />
<glyph unicode="&#x1fe;" horiz-adv-x="702" d="M534 953l13 6q24 -2 34 -4q84 -16 84 -53q0 -43 -84.5 -90.5t-191.5 -59.5l-10 16q92 86 155 185zM734 439q0 -130 -55 -234.5t-142 -159.5t-186 -55q-116 0 -186 72l-67 -67l-35 36l71 70q-39 64 -39 149q0 121 54 225.5t142.5 164.5t186.5 60q119 0 187 -70l66 65 l36 -35l-71 -70q38 -64 38 -151zM479 645q-42 0 -81.5 -60t-65 -146t-38.5 -179l248 247q2 30 2 42q0 96 -65 96zM285 143q0 -46 17.5 -72t50.5 -26q39 0 77 62t63.5 146t39.5 174l-247 -245q-1 -13 -1 -39z" />
<glyph unicode="&#x1ff;" horiz-adv-x="562" d="M399 763l13 6q24 -2 34 -4q84 -16 84 -53q0 -43 -84.5 -90.5t-191.5 -59.5l-10 16q92 86 155 185zM578 309q0 -142 -87.5 -230.5t-206.5 -88.5q-95 0 -152 52l-51 -46l-32 38l51 46q-29 46 -29 112q0 132 88.5 224.5t206.5 92.5q95 0 152 -51l50 46l33 -37l-52 -47 q29 -47 29 -111zM360 466q-29 0 -54.5 -70t-39.5 -165l124 112q3 32 3 55q0 68 -33 68zM256 111q0 -76 33 -76q28 0 52 69t39 163l-122 -111q-2 -32 -2 -45z" />
<glyph unicode="&#x218;" horiz-adv-x="567" d="M273 -10q-187 0 -212 34q-8 13 -8 34q0 36 20.5 83.5t50.5 81.5l30 -3v-10q0 -84 28 -127t93 -43q49 0 81.5 30.5t32.5 80.5q0 36 -26.5 69t-64.5 60.5t-75.5 56.5t-64 70.5t-26.5 89.5q0 93 89 148t208 55q68 0 119.5 -11t68.5 -24q11 -9 11 -30q0 -33 -22 -82.5 t-53 -85.5l-29 2v13q0 73 -14 107q-27 61 -94 61q-47 0 -78 -29t-31 -76q0 -38 26.5 -72.5t64.5 -62.5t75.5 -57t64 -67.5t26.5 -82.5q0 -99 -79.5 -156t-211.5 -57zM326 -147q0 -61 -53.5 -122t-129.5 -88l-10 11q49 56 68 113q-21 5 -34.5 23t-13.5 42q0 41 29.5 70 t70.5 29q32 0 52.5 -22t20.5 -56z" />
<glyph unicode="&#x219;" horiz-adv-x="469" d="M456 149q0 -73 -59.5 -116t-171.5 -43q-80 0 -132 22.5t-52 66.5q0 32 28 55.5t71 31.5l13 -10q1 -5 5 -17.5t6 -19.5q14 -43 31 -64.5t44 -21.5q23 0 36.5 14.5t13.5 37.5q0 25 -19 50t-46 47t-54.5 46t-46.5 57t-19 70q0 69 64 112t159 43q86 0 131.5 -26.5t45.5 -67.5 q0 -30 -25 -53t-65 -29l-12 9q-7 28 -12 47q-22 77 -66 77q-22 0 -36 -13.5t-14 -35.5q0 -25 18.5 -50.5t45.5 -48.5t54 -47.5t45.5 -56.5t18.5 -66zM293 -147q0 -61 -53.5 -122t-129.5 -88l-10 11q49 56 68 113q-21 5 -34.5 23t-13.5 42q0 41 29.5 70t70.5 29 q32 0 52.5 -22t20.5 -56z" />
<glyph unicode="&#x21a;" horiz-adv-x="666" d="M426 55l57 -35l-4 -20h-309l-2 20l34 21q16 10 23 15t14.5 16t10.5 25l114 538h-17q-36 0 -64 -4q-34 -36 -71 -91l-60 -90h-30q-5 101 45 240h602q-7 -129 -57 -240h-30l-22 90q-15 59 -33 91q-25 4 -62 4h-16l-114 -538zM376 -147q0 -61 -53.5 -122t-129.5 -88l-10 11 q49 56 68 113q-21 5 -34.5 23t-13.5 42q0 41 29.5 70t70.5 29q32 0 52.5 -22t20.5 -56z" />
<glyph unicode="&#x21b;" horiz-adv-x="411" d="M206 -10q-55 0 -84.5 34t-29.5 89q0 27 5 47l57 270h-63l2 20l266 190l19 -2l-33 -158h125l-11 -50h-125l-52 -245q-4 -22 -4 -31q0 -49 42 -49q44 0 112 56l10 -10q-36 -70 -96 -115.5t-140 -45.5zM278 -147q0 -61 -53.5 -122t-129.5 -88l-10 11q49 56 68 113 q-21 5 -34.5 23t-13.5 42q0 41 29.5 70t70.5 29q32 0 52.5 -22t20.5 -56z" />
<glyph unicode="&#x232;" horiz-adv-x="700" d="M361 818l18 82h342l-18 -82h-342zM424 55l57 -35l-4 -20h-309l-2 20l34 21q16 10 23 15t14.5 16t10.5 25l30 142q9 62 2 141t-30.5 146.5t-48.5 67.5q-24 0 -71 -51l-20 16q36 68 84.5 104.5t98.5 36.5q45 0 77.5 -25t51 -73.5t27 -107.5t10.5 -137q175 343 266 343 q37 0 57.5 -40.5t27.5 -100.5l-22 -6q-27 41 -55 41q-40 0 -100.5 -67.5t-112 -165.5t-69.5 -181l-18 -83z" />
<glyph unicode="&#x233;" horiz-adv-x="575" d="M216 612l18 82h332l-18 -82h-332zM227 510q61 0 90.5 -38t29.5 -122q0 -158 -63 -322q80 90 114 191.5t34 186.5q0 46 -11 85q32 19 74 19q107 0 107 -117q0 -122 -90.5 -235t-258.5 -203q-49 -98 -111.5 -156.5t-132.5 -58.5q-50 0 -81 21t-31 55q0 39 37 54 q29 -37 55 -37q33 0 65.5 53t58.5 137q54 169 54 287q0 94 -47 94q-24 0 -66 -42l-12 11q29 55 79.5 96t105.5 41z" />
<glyph unicode="&#x237;" horiz-adv-x="332" d="M138 320q11 53 11 65q0 19 -17 19q-22 0 -72 -41l-10 10q29 56 77 96.5t105 40.5q47 0 73 -26.5t26 -74.5q0 -34 -13 -89l-62 -300q-28 -134 -107.5 -207t-181.5 -73q-55 0 -88.5 21t-33.5 55q0 39 37 54q30 -37 70 -37q85 0 118 157z" />
<glyph unicode="&#x259;" horiz-adv-x="512" d="M530 309q0 -129 -89.5 -224t-208.5 -95q-70 0 -116 31t-46 82q0 75 70 121.5t211 39.5q4 62 4 94q0 53 -9.5 77.5t-33.5 24.5q-50 0 -72 -125q-45 -20 -80 -20q-59 0 -59 46q0 56 74.5 102.5t163.5 46.5q86 0 138.5 -55t52.5 -146zM220 77q0 -37 32 -37q33 0 57.5 51.5 t36.5 133.5q-55 -5 -90.5 -48t-35.5 -100z" />
<glyph unicode="&#x272;" horiz-adv-x="654" d="M58 373q31 56 77.5 96.5t100.5 40.5q44 0 68.5 -23t24.5 -62q0 -30 -32 -143l4 -1q19 40 40.5 75t52 72.5t68 59.5t77.5 22q48 0 75 -27t27 -67q0 -20 -5.5 -53.5t-10.5 -56t-16.5 -69.5t-13.5 -57q-11 -53 -11 -65q0 -19 17 -19q22 0 72 41l10 -10q-29 -56 -77 -96.5 t-105 -40.5q-47 0 -73 26.5t-26 74.5q0 34 13 89q41 162 41 180q0 27 -20 27q-31 0 -77.5 -73t-61.5 -134l-33 -160q-27 -134 -107 -207t-182 -73q-55 0 -88.5 21t-33.5 55q0 39 37 54q30 -37 70 -37q85 0 118 157l68 330q12 58 12 63q0 21 -18 21q-22 0 -72 -41z" />
<glyph unicode="&#x2c6;" horiz-adv-x="459" d="M463 577l-18 -11q-66 51 -128 86q-114 -62 -160 -86l-11 14q90 114 132 175l13 8h95q52 -100 77 -186z" />
<glyph unicode="&#x2c7;" horiz-adv-x="460" d="M350 574l-13 -8h-95q-45 98 -69 186l18 11q58 -48 119 -87q79 40 179 87l11 -14q-93 -103 -150 -175z" />
<glyph unicode="&#x2d8;" horiz-adv-x="420" d="M436 754l6 2l19 -4q-21 -80 -72.5 -127.5t-115.5 -47.5q-61 0 -86.5 52t-13.5 124l23 4q5 -33 31.5 -52.5t69.5 -19.5q105 0 139 69z" />
<glyph unicode="&#x2d9;" horiz-adv-x="329" d="M232 569q-34 0 -56.5 21.5t-22.5 56.5q0 45 36.5 79t84.5 34q34 0 56.5 -21t22.5 -56q0 -46 -36.5 -80t-84.5 -34z" />
<glyph unicode="&#x2da;" horiz-adv-x="600" d="M394 683q0 -48 -41.5 -81.5t-101.5 -33.5q-45 0 -71.5 22t-26.5 59q0 48 41.5 81t101.5 33q45 0 71.5 -21.5t26.5 -58.5zM220 650q0 -20 11 -31.5t30 -11.5q28 0 47 21.5t19 53.5q0 19 -11 30.5t-30 11.5q-28 0 -47 -21.5t-19 -52.5z" />
<glyph unicode="&#x2db;" horiz-adv-x="390" d="M262 0q-41 -24 -69 -59t-28 -68q0 -27 20 -27q21 0 50 41l10 -10q-46 -137 -150 -137q-79 0 -79 82q0 72 74 129t171 60z" />
<glyph unicode="&#x2dc;" horiz-adv-x="579" d="M241 629q-9 -6 -72 -58l-13 6q20 81 66 127t106 46q42 0 104.5 -29t89.5 -32q9 6 72 58l13 -6q-20 -81 -66 -127t-106 -46q-41 0 -103.5 29t-90.5 32z" />
<glyph unicode="&#x2dd;" horiz-adv-x="591" d="M291 763l13 6q24 -2 34 -4q64 -16 64 -53q0 -43 -78.5 -90.5t-177.5 -59.5l-10 16q92 86 155 185zM511 763l13 6q29 -3 34 -4q64 -17 64 -53q0 -43 -78.5 -90.5t-177.5 -59.5l-10 16q92 86 155 185z" />
<glyph unicode="&#x326;" horiz-adv-x="305" d="M156 -147q0 -61 -53.5 -122t-129.5 -88l-10 11q49 56 68 113q-21 5 -34.5 23t-13.5 42q0 41 29.5 70t70.5 29q32 0 52.5 -22t20.5 -56z" />
<glyph unicode="&#x394;" horiz-adv-x="609" d="M592 0h-589v20l379 670h118l95 -670zM78 50h312l-53 472z" />
<glyph unicode="&#x3bc;" horiz-adv-x="670" d="M205 -215q0 -6 -2 -11t-7 -8.5t-10.5 -6t-15 -4.5t-18.5 -3.5t-24 -3t-27.5 -2.5t-33 -2.5t-37.5 -3.5l-6 8q81 410 116 576q6 30 18.5 90t19.5 90l83 3q72 3 79 3q19 0 14 -25q-3 -15 -23 -97t-30.5 -139t-10.5 -96q0 -31 22 -31q31 0 74.5 74.5t73.5 187.5l26 120l83 3 q72 3 79 3q19 0 14 -25l-34 -161l-31 -144q-11 -53 -11 -65q0 -19 17 -19q22 0 72 41l10 -10q-29 -56 -77 -96.5t-105 -40.5q-47 0 -73 26.5t-26 74.5q0 34 13 89l3 11h-1q-27 -92 -63 -146.5t-74 -54.5q-56 0 -66 91h-5q7 -108 -1 -226q-1 -17 -5 -70z" />
<glyph unicode="&#x3c0;" horiz-adv-x="604" d="M223 47q-15 -33 -35.5 -45t-59.5 -12q-31 0 -57 10l-6 8q123 244 160 352h-56q-50 0 -86 -60l-20 2q29 118 72 203q44 5 114 5q41 0 175 -5t171 -5q42 0 57.5 6.5t28.5 28.5l19 -2q-22 -91 -70 -188q-47 5 -91 6q-40 -135 -40 -216q0 -39 27 -39q20 0 68 41l10 -10 q-25 -56 -67 -96.5t-91 -40.5q-36 0 -56 23t-20 64q0 77 62 279q-6 0 -107 3q-54 -201 -102 -312z" />
<glyph unicode="&#x1e0c;" horiz-adv-x="758" d="M287 0h-244l-2 20l34 21q16 10 23 15t14.5 16t10.5 25l108 496h-1l9 42l-57 35l4 20h311q131 0 211.5 -68t80.5 -194q0 -83 -28.5 -159t-82 -136.5t-139.5 -96.5t-191 -36h-61l11 50h46q71 0 130.5 60t92 154.5t32.5 199.5q0 176 -128 176h-46l-10 -47l-107 -496z M302 -260q-34 0 -56.5 21.5t-22.5 56.5q0 45 36.5 79t84.5 34q34 0 56.5 -21t22.5 -56q0 -46 -36.5 -80t-84.5 -34z" />
<glyph unicode="&#x1e0d;" d="M561 180q-11 -53 -11 -65q0 -19 17 -19q22 0 72 41l10 -10q-29 -56 -77 -96.5t-105 -40.5q-47 0 -73 26.5t-26 74.5q0 34 13 89l3 11h-6q-35 -89 -85.5 -145t-107.5 -56q-54 0 -87.5 44t-33.5 116q0 92 39 173t118 134t181 53q16 0 48 -2l28 112l11 52l-90 37v12 q127 33 281 39l8 -10l-30 -130zM249 182q0 -60 27 -60q32 0 70.5 73.5t64.5 158.5l22 87q-19 19 -49 19q-33 0 -65.5 -48t-51 -112.5t-18.5 -117.5zM271 -260q-34 0 -56.5 21.5t-22.5 56.5q0 45 36.5 79t84.5 34q34 0 56.5 -21t22.5 -56q0 -46 -36.5 -80t-84.5 -34z" />
<glyph unicode="&#x1e24;" horiz-adv-x="833" d="M299 55l57 -35l-4 -20h-309l-2 20l34 21q16 10 23 15t14.5 16t10.5 25l105 496l9 42l-57 35l4 20h309l2 -20l-34 -21q-16 -10 -23 -15t-14.5 -16t-10.5 -25l-46 -216h241l46 216l9 42l-57 35l4 20h309l2 -20l-34 -21q-16 -10 -23 -15t-14.5 -16t-10.5 -25l-105 -496 l-9 -42l57 -35l-4 -20h-309l-2 20l34 21q16 10 23 15t14.5 16t10.5 25l47 223h-241l-47 -223zM349 -260q-34 0 -56.5 21.5t-22.5 56.5q0 45 36.5 79t84.5 34q34 0 56.5 -21t22.5 -56q0 -46 -36.5 -80t-84.5 -34z" />
<glyph unicode="&#x1e25;" horiz-adv-x="630" d="M59 19l34 161l94 440l12 54l-71 35v12q103 28 261 39l8 -10l-30 -130q-36 -152 -94 -339h4q18 39 40.5 75.5t53.5 73t70 58.5t79 22q48 0 75 -27t27 -67q0 -26 -8 -65t-23.5 -95.5t-19.5 -75.5q-11 -53 -11 -65q0 -19 17 -19q22 0 72 41l10 -10q-29 -56 -77 -96.5 t-105 -40.5q-47 0 -73 26.5t-26 74.5q0 34 13 89q41 162 41 180q0 27 -20 27q-31 0 -78 -73.5t-61 -133.5l-38 -180l-83 -3q-72 -3 -79 -3q-19 0 -14 25zM275 -260q-34 0 -56.5 21.5t-22.5 56.5q0 45 36.5 79t84.5 34q34 0 56.5 -21t22.5 -56q0 -46 -36.5 -80t-84.5 -34z " />
<glyph unicode="&#x1e44;" horiz-adv-x="727" d="M659 875q0 -46 -35.5 -77.5t-85.5 -31.5q-39 0 -63.5 21t-23.5 53q1 46 35.5 77.5t84.5 31.5q39 0 63.5 -21t24.5 -53zM175 62l65 -37l-5 -25h-206l-3 25l40 20q22 11 29 15t16 14t12 23l112 531l-65 37l5 25h214l219 -472l80 375l8 35l-85 37l5 25h226l3 -25l-40 -20 q-22 -11 -29 -15t-16 -14t-12 -23l-126 -593h-115l-236 511l-88 -414z" />
<glyph unicode="&#x1e45;" horiz-adv-x="654" d="M433 569q-34 0 -56.5 21.5t-22.5 56.5q0 45 36.5 79t84.5 34q34 0 56.5 -21t22.5 -56q0 -46 -36.5 -80t-84.5 -34zM83 19l34 161q5 23 30 133q12 60 12 70q0 21 -17 21q-22 0 -72 -41l-10 10q31 57 76.5 97t99.5 40q44 0 68.5 -23t24.5 -62q0 -30 -32 -143l4 -1 q18 40 40 75.5t52 72.5t68 59t78 22q48 0 75 -27t27 -67q0 -20 -5.5 -53.5t-10.5 -56t-16.5 -69.5t-13.5 -57q-11 -53 -11 -65q0 -19 17 -19q22 0 72 41l10 -10q-29 -56 -77 -96.5t-105 -40.5q-47 0 -73 26.5t-26 74.5q0 34 13 89q41 162 41 180q0 27 -20 27 q-31 0 -77.5 -73t-61.5 -134l-38 -180l-83 -3q-72 -3 -79 -3q-19 0 -14 25z" />
<glyph unicode="&#x1e5a;" horiz-adv-x="761" d="M299 55l57 -35l-4 -20h-309l-2 20l34 21q16 10 23 15t14.5 16t10.5 25l106 496l9 42l-57 35l4 20h305q124 0 191.5 -46t67.5 -129q0 -54 -42 -104t-108 -84l25 -77q44 -131 64 -166q17 -31 37 -44l31 -20l-6 -20l-184 -5q-36 -1 -52.5 13.5t-26.5 48.5l-65 223h-75 l-39 -183zM414 593l-55 -258h36q71 0 118.5 55.5t47.5 134.5q0 54 -26 82t-72 28h-40zM349 -260q-34 0 -56.5 21.5t-22.5 56.5q0 45 36.5 79t84.5 34q34 0 56.5 -21t22.5 -56q0 -46 -36.5 -80t-84.5 -34z" />
<glyph unicode="&#x1e5b;" horiz-adv-x="499" d="M83 19l34 161l20 90t17 79t5 34q0 21 -17 21q-22 0 -72 -41l-10 10q31 57 76.5 97t99.5 40q44 0 68.5 -23t24.5 -62q0 -30 -32 -143l4 -1q106 229 195 229q26 0 39.5 -16.5t13.5 -43.5q0 -42 -17.5 -87.5t-37.5 -72.5q-43 30 -78 30q-40 0 -72 -41.5t-47 -98.5l-38 -180 l-83 -3q-72 -3 -79 -3q-19 0 -14 25zM110 -260q-34 0 -56.5 21.5t-22.5 56.5q0 45 36.5 79t84.5 34q34 0 56.5 -21t22.5 -56q0 -46 -36.5 -80t-84.5 -34z" />
<glyph unicode="&#x1e62;" horiz-adv-x="567" d="M273 -10q-187 0 -212 34q-8 13 -8 34q0 36 20.5 83.5t50.5 81.5l30 -3v-10q0 -84 28 -127t93 -43q49 0 81.5 30.5t32.5 80.5q0 36 -26.5 69t-64.5 60.5t-75.5 56.5t-64 70.5t-26.5 89.5q0 93 89 148t208 55q68 0 119.5 -11t68.5 -24q11 -9 11 -30q0 -33 -22 -82.5 t-53 -85.5l-29 2v13q0 73 -14 107q-27 61 -94 61q-47 0 -78 -29t-31 -76q0 -38 26.5 -72.5t64.5 -62.5t75.5 -57t64 -67.5t26.5 -82.5q0 -99 -79.5 -156t-211.5 -57zM211 -260q-34 0 -56.5 21.5t-22.5 56.5q0 45 36.5 79t84.5 34q34 0 56.5 -21t22.5 -56q0 -46 -36.5 -80 t-84.5 -34z" />
<glyph unicode="&#x1e63;" horiz-adv-x="469" d="M456 149q0 -73 -59.5 -116t-171.5 -43q-80 0 -132 22.5t-52 66.5q0 32 28 55.5t71 31.5l13 -10q1 -5 5 -17.5t6 -19.5q14 -43 31 -64.5t44 -21.5q23 0 36.5 14.5t13.5 37.5q0 25 -19 50t-46 47t-54.5 46t-46.5 57t-19 70q0 69 64 112t159 43q86 0 131.5 -26.5t45.5 -67.5 q0 -30 -25 -53t-65 -29l-12 9q-7 28 -12 47q-22 77 -66 77q-22 0 -36 -13.5t-14 -35.5q0 -25 18.5 -50.5t45.5 -48.5t54 -47.5t45.5 -56.5t18.5 -66zM178 -260q-34 0 -56.5 21.5t-22.5 56.5q0 45 36.5 79t84.5 34q34 0 56.5 -21t22.5 -56q0 -46 -36.5 -80t-84.5 -34z" />
<glyph unicode="&#x1e6c;" horiz-adv-x="666" d="M426 55l57 -35l-4 -20h-309l-2 20l34 21q16 10 23 15t14.5 16t10.5 25l114 538h-17q-36 0 -64 -4q-34 -36 -71 -91l-60 -90h-30q-5 101 45 240h602q-7 -129 -57 -240h-30l-22 90q-15 59 -33 91q-25 4 -62 4h-16l-114 -538zM266 -260q-34 0 -56.5 21.5t-22.5 56.5 q0 45 36.5 79t84.5 34q34 0 56.5 -21t22.5 -56q0 -46 -36.5 -80t-84.5 -34z" />
<glyph unicode="&#x1e6d;" horiz-adv-x="411" d="M206 -10q-55 0 -84.5 34t-29.5 89q0 27 5 47l57 270h-63l2 20l266 190l19 -2l-33 -158h125l-11 -50h-125l-52 -245q-4 -22 -4 -31q0 -49 42 -49q44 0 112 56l10 -10q-36 -70 -96 -115.5t-140 -45.5zM163 -260q-34 0 -56.5 21.5t-22.5 56.5q0 45 36.5 79t84.5 34 q34 0 56.5 -21t22.5 -56q0 -46 -36.5 -80t-84.5 -34z" />
<glyph unicode="&#x1e80;" horiz-adv-x="1096" d="M864 796l-9 -19q-266 0 -266 84q0 29 30 53t65 35l13 -2q61 -78 167 -151zM394 0h-115l-65 595q-3 26 -11.5 37.5t-27.5 21.5l-31 16l2 20h320l4 -20l-75 -33l44 -450l175 329l-9 79q-3 26 -11.5 37.5t-27.5 21.5l-33 16l4 20h320l4 -20l-75 -33l43 -450l241 452l-77 31 l4 20h220l4 -20l-58 -25q-18 -7 -28.5 -17.5t-21.5 -30.5l-329 -597h-115l-45 419z" />
<glyph unicode="&#x1e81;" horiz-adv-x="806" d="M560 577l-13 -15q-96 27 -157 68t-61 81q0 57 95 57q23 0 34 -1l11 -8q35 -86 91 -182zM848 408q0 -63 -51 -143.5t-116.5 -145.5t-145.5 -129l-115 9q0 10 1.5 50.5t1.5 59.5v73q-63 -122 -156 -192l-115 9q0 10 1.5 50.5t1.5 59.5q0 175 -10 235t-37 60q-24 0 -66 -42 l-12 11q29 55 79.5 96t105.5 41q56 0 83 -44.5t27 -147.5q0 -102 -19 -247q56 85 82.5 175t26.5 160q0 45 -11 85q34 19 77 19q62 0 87 -44.5t25 -147.5q0 -102 -19 -247q54 82 79 172.5t25 162.5q0 46 -11 85q32 19 74 19q50 0 78.5 -26t28.5 -76z" />
<glyph unicode="&#x1e82;" horiz-adv-x="1096" d="M812 946l13 2q70 -35 70 -73q0 -47 -82 -73t-230 -26l-6 19q141 69 235 151zM394 0h-115l-65 595q-3 26 -11.5 37.5t-27.5 21.5l-31 16l2 20h320l4 -20l-75 -33l44 -450l175 329l-9 79q-3 26 -11.5 37.5t-27.5 21.5l-33 16l4 20h320l4 -20l-75 -33l43 -450l241 452 l-77 31l4 20h220l4 -20l-58 -25q-18 -7 -28.5 -17.5t-21.5 -30.5l-329 -597h-115l-45 419z" />
<glyph unicode="&#x1e83;" horiz-adv-x="806" d="M518 763l13 6q24 -2 34 -4q84 -16 84 -53q0 -43 -84.5 -90.5t-191.5 -59.5l-10 16q92 86 155 185zM848 408q0 -63 -51 -143.5t-116.5 -145.5t-145.5 -129l-115 9q0 10 1.5 50.5t1.5 59.5v73q-63 -122 -156 -192l-115 9q0 10 1.5 50.5t1.5 59.5q0 175 -10 235t-37 60 q-24 0 -66 -42l-12 11q29 55 79.5 96t105.5 41q56 0 83 -44.5t27 -147.5q0 -102 -19 -247q56 85 82.5 175t26.5 160q0 45 -11 85q34 19 77 19q62 0 87 -44.5t25 -147.5q0 -102 -19 -247q54 82 79 172.5t25 162.5q0 46 -11 85q32 19 74 19q50 0 78.5 -26t28.5 -76z" />
<glyph unicode="&#x1e84;" horiz-adv-x="1096" d="M950 870q0 -39 -29 -65.5t-71 -26.5q-36 0 -58.5 20t-22.5 51q0 38 30.5 64.5t73.5 26.5q32 0 54.5 -19.5t22.5 -50.5zM701 870q0 -39 -29 -65.5t-71 -26.5q-36 0 -58.5 20t-22.5 51q0 38 30.5 64.5t73.5 26.5q32 0 54.5 -19.5t22.5 -50.5zM394 0h-115l-65 595 q-3 26 -11.5 37.5t-27.5 21.5l-31 16l2 20h320l4 -20l-75 -33l44 -450l175 329l-9 79q-3 26 -11.5 37.5t-27.5 21.5l-33 16l4 20h320l4 -20l-75 -33l43 -450l241 452l-77 31l4 20h220l4 -20l-58 -25q-18 -7 -28.5 -17.5t-21.5 -30.5l-329 -597h-115l-45 419z" />
<glyph unicode="&#x1e85;" horiz-adv-x="806" d="M715 678q0 -41 -29 -69.5t-70 -28.5q-35 0 -57.5 22t-22.5 55q0 40 30 68.5t73 28.5q32 0 54 -21t22 -55zM474 678q0 -41 -29 -69.5t-70 -28.5q-35 0 -57.5 22t-22.5 55q0 40 30 68.5t73 28.5q32 0 54 -21t22 -55zM848 408q0 -63 -51 -143.5t-116.5 -145.5t-145.5 -129 l-115 9q0 10 1.5 50.5t1.5 59.5v73q-63 -122 -156 -192l-115 9q0 10 1.5 50.5t1.5 59.5q0 175 -10 235t-37 60q-24 0 -66 -42l-12 11q29 55 79.5 96t105.5 41q56 0 83 -44.5t27 -147.5q0 -102 -19 -247q56 85 82.5 175t26.5 160q0 45 -11 85q34 19 77 19q62 0 87 -44.5 t25 -147.5q0 -102 -19 -247q54 82 79 172.5t25 162.5q0 46 -11 85q32 19 74 19q50 0 78.5 -26t28.5 -76z" />
<glyph unicode="&#x1e92;" horiz-adv-x="675" d="M605 0h-556l1 50l475 585h-130q-36 0 -64 -4l-141 -181h-30q-6 113 45 240h550l-1 -50l-475 -585h136q36 0 64 4l141 181h30q6 -100 -45 -240zM284 -260q-34 0 -56.5 21.5t-22.5 56.5q0 45 36.5 79t84.5 34q34 0 56.5 -21t22.5 -56q0 -46 -36.5 -80t-84.5 -34z" />
<glyph unicode="&#x1e93;" horiz-adv-x="464" d="M155 15q-60 0 -110 -25l-31 45q216 204 295 290q-88 15 -134 15q-32 0 -46 -9t-31 -41l-15 3q13 110 40 163.5t77 53.5q99 0 172 -112q52 62 85 112q26 -9 44.5 -25.5t18.5 -38.5q0 -24 -13.5 -42.5t-51.5 -48.5q-43 -34 -128 -100t-128 -100q34 5 81 5q27 0 70 -2.5 t56 -2.5q24 0 43 26q9 11 17 24l15 -6q-22 -96 -37 -134q-30 -75 -74 -75q-17 0 -100.5 12.5t-114.5 12.5zM172 -260q-34 0 -56.5 21.5t-22.5 56.5q0 45 36.5 79t84.5 34q34 0 56.5 -21t22.5 -56q0 -46 -36.5 -80t-84.5 -34z" />
<glyph unicode="&#x1e9e;" horiz-adv-x="734" d="M759 182q0 -91 -75 -141.5t-195 -50.5q-50 0 -88.5 9t-46.5 25q-9 10 -9 34q0 36 20.5 82t49.5 75l30 -3q-7 -99 17 -143q16 -29 48 -29q37 0 55.5 30.5t18.5 74.5q0 17 -3 32t-13.5 32t-16 27t-25 29.5l-26 26t-32.5 30.5t-32 29l5 37l162 163q-5 47 -27.5 73t-59.5 26 q-49 0 -87 -48.5t-54 -131.5l-93 -434l-40 -36h-225l3 25l33 15q27 12 40 24t17 33l73 343q23 111 125 185.5t231 74.5q75 0 131 -26t82 -73l-3 -33l-149 -142q44 -42 62 -60t46.5 -52.5t39.5 -65.5t11 -66z" />
<glyph unicode="&#x1ea0;" horiz-adv-x="723" d="M449 690h115l74 -595q3 -26 11.5 -37.5t27.5 -21.5l31 -16l-2 -20h-320l-4 20l75 33l-17 145l-216 -3l-78 -142l75 -33l-4 -20h-210l-4 20l58 25q18 7 28.5 17.5t21.5 30.5zM251 245l184 -2l-32 278zM247 -260q-34 0 -56.5 21.5t-22.5 56.5q0 45 36.5 79t84.5 34 q34 0 56.5 -21t22.5 -56q0 -46 -36.5 -80t-84.5 -34z" />
<glyph unicode="&#x1ea1;" d="M561 180q-11 -53 -11 -65q0 -19 17 -19q22 0 72 41l10 -10q-29 -56 -77 -96.5t-105 -40.5q-47 0 -73 26.5t-26 74.5q0 34 13 89l3 11h-6q-35 -89 -85.5 -145t-107.5 -56q-54 0 -87.5 44t-33.5 116q0 92 39 173t118 134t181 53q133 0 229 -48l-27 -80zM249 182 q0 -60 27 -60q34 0 74 79.5t65 165.5l19 74q-20 19 -50 19q-33 0 -65.5 -48t-51 -112.5t-18.5 -117.5zM263 -260q-34 0 -56.5 21.5t-22.5 56.5q0 45 36.5 79t84.5 34q34 0 56.5 -21t22.5 -56q0 -46 -36.5 -80t-84.5 -34z" />
<glyph unicode="&#x1eb8;" horiz-adv-x="637" d="M414 593l-48 -225l181 7l-18 -69l-174 10l-47 -219l-10 -48h98q38 0 63 5q27 27 133 186h30q6 -123 -45 -240h-534l-2 20l34 21q16 10 23 15t14.5 16t10.5 25l106 496l9 42l-57 35l4 20h514q0 -113 -57 -240h-30q-37 152 -54 186q-15 3 -62 3h-72zM271 -260 q-34 0 -56.5 21.5t-22.5 56.5q0 45 36.5 79t84.5 34q34 0 56.5 -21t22.5 -56q0 -46 -36.5 -80t-84.5 -34z" />
<glyph unicode="&#x1eb9;" horiz-adv-x="498" d="M505 151q-39 -76 -103 -118.5t-144 -42.5q-85 0 -136 55t-51 146q0 129 89.5 224t208.5 95q70 0 116 -35.5t46 -94.5q0 -75 -68.5 -121t-206.5 -39q1 -57 28.5 -86t72.5 -29q33 0 71.5 15.5t66.5 40.5zM353 460q-33 0 -61 -60t-35 -142q54 3 89 48.5t35 107.5 q0 46 -28 46zM190 -260q-34 0 -56.5 21.5t-22.5 56.5q0 45 36.5 79t84.5 34q34 0 56.5 -21t22.5 -56q0 -46 -36.5 -80t-84.5 -34z" />
<glyph unicode="&#x1ebc;" horiz-adv-x="637" d="M346 833q-12 -7 -72 -54l-17 8q20 76 65.5 119t105.5 43q45 0 111.5 -27t94.5 -30q14 9 41 30t31 24l17 -8q-20 -76 -66 -119t-105 -43q-44 0 -110 27t-96 30zM414 593l-48 -225l181 7l-18 -69l-174 10l-47 -219l-10 -48h98q38 0 63 5q27 27 133 186h30q6 -123 -45 -240 h-534l-2 20l34 21q16 10 23 15t14.5 16t10.5 25l106 496l9 42l-57 35l4 20h514q0 -113 -57 -240h-30q-37 152 -54 186q-15 3 -62 3h-72z" />
<glyph unicode="&#x1ebd;" horiz-adv-x="498" d="M249 629q-9 -6 -72 -58l-13 6q20 81 66 127t106 46q42 0 104.5 -29t89.5 -32q9 6 72 58l13 -6q-20 -81 -66 -127t-106 -46q-41 0 -103.5 29t-90.5 32zM505 151q-39 -76 -103 -118.5t-144 -42.5q-85 0 -136 55t-51 146q0 129 89.5 224t208.5 95q70 0 116 -35.5t46 -94.5 q0 -75 -68.5 -121t-206.5 -39q1 -57 28.5 -86t72.5 -29q33 0 71.5 15.5t66.5 40.5zM353 460q-33 0 -61 -60t-35 -142q54 3 89 48.5t35 107.5q0 46 -28 46z" />
<glyph unicode="&#x1eca;" horiz-adv-x="413" d="M299 55l57 -35l-4 -20h-309l-2 20l34 21q16 10 23 15t14.5 16t10.5 25l105 496l9 42l-57 35l4 20h309l2 -20l-34 -21q-16 -10 -23 -15t-14.5 -16t-10.5 -25l-105 -496zM136 -260q-34 0 -56.5 21.5t-22.5 56.5q0 45 36.5 79t84.5 34q34 0 56.5 -21t22.5 -56 q0 -46 -36.5 -80t-84.5 -34z" />
<glyph unicode="&#x1ecb;" horiz-adv-x="316" d="M268 569q-34 0 -56.5 21.5t-22.5 56.5q0 45 36.5 79t84.5 34q34 0 56.5 -21t22.5 -56q0 -46 -36.5 -80t-84.5 -34zM297 180q-11 -53 -11 -65q0 -19 17 -19q22 0 72 41l10 -10q-29 -56 -77 -96.5t-105 -40.5q-47 0 -73 26.5t-26 74.5q0 34 13 89q5 24 15 70.5t15 69.5 q11 53 11 65q0 19 -17 19q-22 0 -72 -41l-10 10q29 56 77 96.5t105 40.5q47 0 73 -26.5t26 -74.5q0 -34 -13 -89q-5 -23 -15 -70t-15 -70zM141 -260q-34 0 -56.5 21.5t-22.5 56.5q0 45 36.5 79t84.5 34q34 0 56.5 -21t22.5 -56q0 -46 -36.5 -80t-84.5 -34z" />
<glyph unicode="&#x1ecc;" horiz-adv-x="702" d="M734 439q0 -130 -55 -234.5t-142 -159.5t-186 -55q-113 0 -184.5 70.5t-71.5 189.5q0 121 54 225.5t142.5 164.5t186.5 60q122 0 189 -72t67 -189zM285 143q0 -46 17.5 -72t50.5 -26q48 0 94.5 94.5t71.5 211t25 198.5q0 96 -65 96q-51 0 -97.5 -87.5t-71.5 -202.5 t-25 -212zM278 -260q-34 0 -56.5 21.5t-22.5 56.5q0 45 36.5 79t84.5 34q34 0 56.5 -21t22.5 -56q0 -46 -36.5 -80t-84.5 -34z" />
<glyph unicode="&#x1ecd;" horiz-adv-x="562" d="M578 309q0 -142 -87.5 -230.5t-206.5 -88.5q-95 0 -154 53.5t-59 148.5q0 132 88.5 224.5t206.5 92.5q99 0 155.5 -54.5t56.5 -145.5zM256 111q0 -76 33 -76q39 0 71.5 135t32.5 228q0 68 -33 68q-40 0 -72 -126.5t-32 -228.5zM216 -260q-34 0 -56.5 21.5t-22.5 56.5 q0 45 36.5 79t84.5 34q34 0 56.5 -21t22.5 -56q0 -46 -36.5 -80t-84.5 -34z" />
<glyph unicode="&#x1ee4;" horiz-adv-x="694" d="M211 635l-57 35l4 20h309l2 -20l-34 -21q-16 -10 -23 -15t-14.5 -16t-10.5 -25l-72 -338q-7 -34 -7 -69q0 -65 28.5 -100.5t83.5 -35.5q129 0 173 202l76 351l5 25l-84 37l5 25h226l3 -25l-90 -37l-5 -25l-74 -348q-28 -132 -94.5 -198.5t-193.5 -66.5 q-113 0 -177.5 52.5t-64.5 150.5q0 39 7 68l70 332zM306 -260q-34 0 -56.5 21.5t-22.5 56.5q0 45 36.5 79t84.5 34q34 0 56.5 -21t22.5 -56q0 -46 -36.5 -80t-84.5 -34z" />
<glyph unicode="&#x1ee5;" horiz-adv-x="658" d="M147 320q11 53 11 65q0 19 -17 19q-22 0 -72 -41l-10 10q29 56 77 96.5t105 40.5q47 0 73 -26.5t26 -74.5q0 -34 -13 -89q-35 -131 -35 -167q0 -31 22 -31q31 0 74.5 74.5t73.5 187.5l26 120l83 3q72 3 79 3q19 0 14 -25l-34 -161l-31 -144q-11 -53 -11 -65q0 -19 17 -19 q22 0 72 41l10 -10q-29 -56 -77 -96.5t-105 -40.5q-47 0 -73 26.5t-26 74.5q0 34 13 89l3 11h-7q-39 -95 -92 -148t-111 -53q-49 0 -77 29.5t-28 82.5q0 23 6 55t17 82t17 81zM285 -260q-34 0 -56.5 21.5t-22.5 56.5q0 45 36.5 79t84.5 34q34 0 56.5 -21t22.5 -56 q0 -46 -36.5 -80t-84.5 -34z" />
<glyph unicode="&#x1ef2;" horiz-adv-x="700" d="M665 796l-9 -19q-266 0 -266 84q0 29 30 53t65 35l13 -2q61 -78 167 -151zM424 55l57 -35l-4 -20h-309l-2 20l34 21q16 10 23 15t14.5 16t10.5 25l30 142q9 62 2 141t-30.5 146.5t-48.5 67.5q-24 0 -71 -51l-20 16q36 68 84.5 104.5t98.5 36.5q45 0 77.5 -25t51 -73.5 t27 -107.5t10.5 -137q175 343 266 343q37 0 57.5 -40.5t27.5 -100.5l-22 -6q-27 41 -55 41q-40 0 -100.5 -67.5t-112 -165.5t-69.5 -181l-18 -83z" />
<glyph unicode="&#x1ef3;" horiz-adv-x="575" d="M462 577l-13 -15q-96 27 -157 68t-61 81q0 57 95 57q23 0 34 -1l11 -8q35 -86 91 -182zM227 510q61 0 90.5 -38t29.5 -122q0 -158 -63 -322q80 90 114 191.5t34 186.5q0 46 -11 85q32 19 74 19q107 0 107 -117q0 -122 -90.5 -235t-258.5 -203q-49 -98 -111.5 -156.5 t-132.5 -58.5q-50 0 -81 21t-31 55q0 39 37 54q29 -37 55 -37q33 0 65.5 53t58.5 137q54 169 54 287q0 94 -47 94q-24 0 -66 -42l-12 11q29 55 79.5 96t105.5 41z" />
<glyph unicode="&#x1ef8;" horiz-adv-x="700" d="M398 833q-12 -7 -72 -54l-17 8q20 76 65.5 119t105.5 43q45 0 111.5 -27t94.5 -30q14 9 41 30t31 24l17 -8q-20 -76 -66 -119t-105 -43q-44 0 -110 27t-96 30zM424 55l57 -35l-4 -20h-309l-2 20l34 21q16 10 23 15t14.5 16t10.5 25l30 142q9 62 2 141t-30.5 146.5 t-48.5 67.5q-24 0 -71 -51l-20 16q36 68 84.5 104.5t98.5 36.5q45 0 77.5 -25t51 -73.5t27 -107.5t10.5 -137q175 343 266 343q37 0 57.5 -40.5t27.5 -100.5l-22 -6q-27 41 -55 41q-40 0 -100.5 -67.5t-112 -165.5t-69.5 -181l-18 -83z" />
<glyph unicode="&#x1ef9;" horiz-adv-x="575" d="M258 629q-9 -6 -72 -58l-13 6q20 81 66 127t106 46q42 0 104.5 -29t89.5 -32q9 6 72 58l13 -6q-20 -81 -66 -127t-106 -46q-41 0 -103.5 29t-90.5 32zM227 510q61 0 90.5 -38t29.5 -122q0 -158 -63 -322q80 90 114 191.5t34 186.5q0 46 -11 85q32 19 74 19 q107 0 107 -117q0 -122 -90.5 -235t-258.5 -203q-49 -98 -111.5 -156.5t-132.5 -58.5q-50 0 -81 21t-31 55q0 39 37 54q29 -37 55 -37q33 0 65.5 53t58.5 137q54 169 54 287q0 94 -47 94q-24 0 -66 -42l-12 11q29 55 79.5 96t105.5 41z" />
<glyph unicode="&#x2007;" />
<glyph unicode="&#x2013;" horiz-adv-x="584" d="M65 251l12 50h535l-11 -50h-536z" />
<glyph unicode="&#x2014;" horiz-adv-x="913" d="M66 251l10 50h864l-10 -50h-864z" />
<glyph unicode="&#x2018;" horiz-adv-x="312" d="M411 760l8 -11q-90 -83 -123 -170q48 -24 48 -80q0 -45 -36 -79.5t-84 -34.5q-39 0 -65 25.5t-26 69.5q0 75 83 158t195 122z" />
<glyph unicode="&#x2019;" horiz-adv-x="311" d="M120 386l-8 11q90 83 123 170q-48 24 -48 80q0 45 36 79.5t84 34.5q39 0 65 -25.5t26 -69.5q0 -75 -83 -158t-195 -122z" />
<glyph unicode="&#x201a;" horiz-adv-x="312" d="M0 -181l-8 11q90 83 123 170q-48 24 -48 80q0 45 36 79.5t84 34.5q39 0 65 -25.5t26 -69.5q0 -75 -83 -158t-195 -122z" />
<glyph unicode="&#x201c;" horiz-adv-x="582" d="M411 760l8 -11q-90 -83 -123 -170q48 -24 48 -80q0 -45 -36 -79.5t-84 -34.5q-39 0 -65 25.5t-26 69.5q0 75 83 158t195 122zM681 760l8 -11q-90 -83 -123 -170q48 -24 48 -80q0 -45 -36 -79.5t-84 -34.5q-39 0 -65 25.5t-26 69.5q0 75 83 158t195 122z" />
<glyph unicode="&#x201d;" horiz-adv-x="581" d="M390 385l-8 11q90 83 123 170q-48 24 -48 80q0 45 36 79.5t84 34.5q39 0 65 -25.5t26 -69.5q0 -75 -83 -158t-195 -122zM120 385l-8 11q90 83 123 170q-48 24 -48 80q0 45 36 79.5t84 34.5q39 0 65 -25.5t26 -69.5q0 -75 -83 -158t-195 -122z" />
<glyph unicode="&#x201e;" horiz-adv-x="581" d="M274 -160l-8 11q90 83 123 170q-48 24 -48 80q0 45 36 79.5t84 34.5q39 0 65 -25.5t26 -69.5q0 -75 -83 -158t-195 -122zM4 -160l-8 11q90 83 123 170q-48 24 -48 80q0 45 36 79.5t84 34.5q39 0 65 -25.5t26 -69.5q0 -75 -83 -158t-195 -122z" />
<glyph unicode="&#x2020;" horiz-adv-x="509" d="M364 48q-21 -20 -54 -34t-64 -14q-33 0 -54.5 20.5t-21.5 57.5q0 20 4 43t13 51.5t16.5 50t23.5 57.5t24 53.5t27 58t25 52.5q-74 -26 -121 -26q-51 0 -51 59q0 39 30 80l14 5q56 -24 144 -45q-7 95 -32 160l3 6q40 20 92 20q29 0 48 -13t19 -36q0 -36 -56 -130 q72 24 115 24q51 0 51 -59q0 -39 -30 -80l-14 -5q-60 26 -147 46q-17 -230 -1 -396z" />
<glyph unicode="&#x2021;" horiz-adv-x="518" d="M342 7q-42 -20 -93 -20q-30 0 -48.5 13t-18.5 36q0 38 57 130q-74 -24 -116 -24q-51 0 -51 59q0 39 30 80l14 5q55 -23 140 -45q-6 27 -6 53q0 65 48 146q-62 -22 -106 -22q-54 0 -51 62q0 34 29 77l15 5q54 -24 143 -45q-7 93 -31 160l2 6q40 20 93 20q29 0 48 -13 t19 -37q0 -7 -1.5 -15t-5.5 -18t-7 -17t-9.5 -20t-10 -18.5t-12 -20.5t-11.5 -20q70 24 115 24q51 0 51 -59q0 -39 -30 -80l-14 -5q-64 27 -142 45q6 -26 6 -52q0 -62 -51 -148q67 23 112 23q51 0 51 -59q0 -39 -30 -80l-14 -5q-56 24 -144 45q6 -90 32 -160z" />
<glyph unicode="&#x2022;" horiz-adv-x="481" d="M442 271q0 -76 -54 -129t-128 -53q-63 0 -102 38.5t-39 95.5q0 71 57 124.5t133 53.5q57 0 95 -36t38 -94z" />
<glyph unicode="&#x2026;" horiz-adv-x="822" d="M258 109q0 -50 -35 -84.5t-84 -34.5q-41 0 -66.5 25t-25.5 63q0 46 37 81t87 35q37 0 62 -23.5t25 -61.5zM524 109q0 -50 -35 -84.5t-84 -34.5q-41 0 -66.5 25t-25.5 63q0 46 37 81t87 35q37 0 62 -23.5t25 -61.5zM790 109q0 -50 -35 -84.5t-84 -34.5q-41 0 -66.5 25 t-25.5 63q0 46 37 81t87 35q37 0 62 -23.5t25 -61.5z" />
<glyph unicode="&#x2030;" horiz-adv-x="1549" d="M546 534q0 -114 -77 -188t-174 -74q-77 0 -121 44.5t-44 121.5q0 114 77 188t174 74q77 0 121 -44.5t44 -121.5zM909 700l-575 -710h-71l574 710h72zM264 388q0 -35 10 -55.5t27 -20.5q45 0 78.5 91.5t33.5 184.5q0 33 -10 52.5t-27 19.5q-45 0 -78.5 -90.5t-33.5 -181.5 zM1054 252q0 -114 -77 -188t-174 -74q-77 0 -121 44.5t-44 121.5q0 114 77 188t174 74q77 0 121 -44.5t44 -121.5zM1547 252q0 -114 -77 -188t-174 -74q-77 0 -121 44.5t-44 121.5q0 114 77 188t174 74q77 0 121 -44.5t44 -121.5zM772 106q0 -35 10 -55.5t27 -20.5 q45 0 78.5 91.5t33.5 184.5q0 33 -10 52.5t-27 19.5q-45 0 -78.5 -90.5t-33.5 -181.5zM1265 106q0 -35 10 -55.5t27 -20.5q45 0 78.5 91.5t33.5 184.5q0 33 -10 52.5t-27 19.5q-45 0 -78.5 -90.5t-33.5 -181.5z" />
<glyph unicode="&#x2039;" horiz-adv-x="333" d="M265 29l-17 -9q-72 101 -151 180l-5 9l20 90q180 141 235 189l15 -12q-90 -152 -143 -239q28 -109 46 -208z" />
<glyph unicode="&#x203a;" horiz-adv-x="333" d="M152 479l17 9q72 -101 151 -180l5 -9l-20 -90q-180 -141 -235 -189l-15 12q90 152 143 239q-28 109 -46 208z" />
<glyph unicode="&#x2044;" horiz-adv-x="255" d="M515 700l-575 -710h-71l574 710h72z" />
<glyph unicode="&#x2070;" horiz-adv-x="472" d="M551 594q0 -114 -77 -188t-174 -74q-77 0 -121 44.5t-44 121.5q0 114 77 188t174 74q77 0 121 -44.5t44 -121.5zM269 448q0 -35 10 -55.5t27 -20.5q45 0 78.5 91.5t33.5 184.5q0 33 -10 52.5t-27 19.5q-45 0 -78.5 -90.5t-33.5 -181.5z" />
<glyph unicode="&#x2071;" horiz-adv-x="283" d="M284 803q-28 0 -47 17t-19 46q0 37 30 64.5t69 27.5q28 0 46.5 -18t18.5 -47q0 -36 -30 -63t-68 -27zM128 644l-9 8q23 44 61.5 76t84.5 32q38 0 59.5 -22t21.5 -62q0 -24 -19.5 -119t-19.5 -103q0 -15 14 -15q18 0 54 29l8 -9q-22 -44 -60.5 -75.5t-84.5 -31.5 q-38 0 -60 21.5t-22 60.5q0 24 19.5 116t19.5 108q0 15 -13 15q-16 0 -54 -29z" />
<glyph unicode="&#x2074;" horiz-adv-x="429" d="M395 760l94 -11l-54 -251l59 2l-18 -69l-55 1l-19 -90h-135l20 92l-166 3l4 43zM330 630l-137 -141l107 4z" />
<glyph unicode="&#x2075;" horiz-adv-x="355" d="M414 481q0 -66 -79.5 -101.5t-236.5 -47.5v20q83 23 128.5 55t45.5 68q0 20 -17 32.5t-46 12.5t-57 -7l-8 9l50 234q110 -6 211 -6q25 0 33.5 5.5t19.5 28.5l11 -1q-10 -75 -27.5 -109t-57.5 -34q-76 0 -147 16l-19 -84q24 4 53 4q67 0 105 -24.5t38 -70.5z" />
<glyph unicode="&#x2076;" horiz-adv-x="418" d="M478 489q0 -64 -52.5 -110.5t-133.5 -46.5q-74 0 -117 43t-43 113q0 125 106.5 201t256.5 71l1 -20q-77 -22 -137 -72.5t-91 -119.5q37 39 98 39q53 0 82.5 -26.5t29.5 -71.5zM255 432q0 -59 28 -59q26 0 43.5 35t17.5 80q0 50 -30 50q-25 0 -42 -30t-17 -76z" />
<glyph unicode="&#x2077;" horiz-adv-x="361" d="M338 371q-21 -39 -61 -39q-23 0 -47.5 16.5t-33.5 38.5q110 140 176 243q-95 18 -152 18q-24 0 -35 -6t-23 -22l-5 1q9 71 27.5 105t53.5 34q96 0 167 -77q30 48 45 74q26 -2 26 -19t-34 -104q-61 -171 -104 -263z" />
<glyph unicode="&#x2078;" horiz-adv-x="429" d="M483 462q1 -60 -53.5 -95t-148.5 -35q-74 0 -119.5 26t-45.5 70t39 68.5t95 25.5q-70 51 -70 106q0 63 56.5 97.5t134.5 34.5q61 0 99.5 -24.5t38.5 -63.5q0 -41 -30.5 -66t-78.5 -34q39 -26 61 -51t22 -59zM310 670q0 -22 16 -40t47 -40q33 40 33 91q-2 43 -40 43 q-25 0 -40.5 -15t-15.5 -39zM244 419q1 -23 15 -37.5t35 -14.5q26 0 42.5 15t16.5 39q0 15 -12 31t-24.5 25.5t-38.5 26.5q-34 -34 -34 -85z" />
<glyph unicode="&#x2079;" horiz-adv-x="418" d="M500 604q0 -125 -106.5 -201t-256.5 -71l-1 20q77 22 137 72.5t91 119.5q-37 -39 -98 -39q-53 0 -82.5 26.5t-29.5 71.5q0 64 52.5 110.5t133.5 46.5q74 0 117 -43t43 -113zM288 604q0 -50 30 -50q25 0 42 30t17 76q0 59 -28 59q-26 0 -43.5 -35t-17.5 -80z" />
<glyph unicode="&#x207f;" horiz-adv-x="526" d="M128 642l-9 8q24 45 60 76.5t80 31.5q37 0 57.5 -19.5t20.5 -52.5q0 -24 -23 -103l3 -2q14 31 31.5 59t41.5 56t54 45t62 17q40 0 63 -21.5t23 -53.5t-21 -118.5t-21 -105.5q0 -20 14 -20q18 0 54 29l8 -9q-22 -43 -61.5 -75t-86.5 -32q-40 0 -62 21.5t-22 60.5 q0 27 20 99.5t20 97.5t-16 25q-24 0 -59 -55t-44 -101l-29 -140l-70 -2q-40 -2 -66 -2q-13 0 -13 11q0 5 1 8q57 244 57 280q0 16 -14 16q-18 0 -53 -29z" />
<glyph unicode="&#x2080;" horiz-adv-x="472" d="M461 172q0 -114 -77 -188t-174 -74q-77 0 -121 44.5t-44 121.5q0 114 77 188t174 74q77 0 121 -44.5t44 -121.5zM179 26q0 -35 10 -55.5t27 -20.5q45 0 78.5 91.5t33.5 184.5q0 33 -10 52.5t-27 19.5q-45 0 -78.5 -90.5t-33.5 -181.5z" />
<glyph unicode="&#x2081;" horiz-adv-x="314" d="M255 -80h-245l-1 13l19 6q49 15 56 50l58 260l-58 16l2 14l202 59l5 -5l-80 -374l46 -26z" />
<glyph unicode="&#x2082;" horiz-adv-x="379" d="M114 -77q-41 0 -82 -13l-11 80q115 53 166.5 99t51.5 89q0 21 -14 35t-40 14q-56 0 -97 -41l-12 6q21 63 72.5 104.5t109.5 41.5q56 0 90 -30t34 -79q0 -110 -125 -166q-22 -10 -118 -45q24 4 50 4q21 0 52.5 -2.5t41.5 -2.5q32 0 51 34l13 -5q-14 -67 -19 -79 q-22 -57 -55 -57q-20 0 -73 6.5t-86 6.5z" />
<glyph unicode="&#x2083;" horiz-adv-x="389" d="M356 46q0 -60 -87 -92.5t-260 -43.5l-1 20q195 55 195 118q0 18 -14.5 29.5t-40.5 11.5q-20 0 -34 -3l-5 34q56 7 87 28t31 51q0 43 -46 43q-48 0 -81 -36l-12 6q30 59 80 92.5t108 33.5q52 0 82 -24.5t30 -59.5q0 -92 -154 -128q122 -4 122 -80z" />
<glyph unicode="&#x2084;" horiz-adv-x="428" d="M305 338l94 -11l-54 -251l59 2l-18 -69l-55 1l-19 -90h-135l20 92l-166 3l4 43zM240 208l-137 -141l107 4z" />
<glyph unicode="&#x2085;" horiz-adv-x="355" d="M324 59q0 -66 -79.5 -101.5t-236.5 -47.5v20q83 23 128.5 55t45.5 68q0 20 -17 32.5t-46 12.5t-57 -7l-8 9l50 234q110 -6 211 -6q25 0 33.5 5.5t19.5 28.5l11 -1q-10 -75 -27.5 -109t-57.5 -34q-76 0 -147 16l-19 -84q24 4 53 4q67 0 105 -24.5t38 -70.5z" />
<glyph unicode="&#x2086;" horiz-adv-x="419" d="M389 67q0 -64 -52.5 -110.5t-133.5 -46.5q-74 0 -117 43t-43 113q0 125 106.5 201t256.5 71l1 -20q-77 -22 -137 -72.5t-91 -119.5q37 39 98 39q53 0 82.5 -26.5t29.5 -71.5zM166 10q0 -59 28 -59q26 0 43.5 35t17.5 80q0 50 -30 50q-25 0 -42 -30t-17 -76z" />
<glyph unicode="&#x2087;" horiz-adv-x="361" d="M248 -51q-21 -39 -61 -39q-23 0 -47.5 16.5t-33.5 38.5q110 140 176 243q-95 18 -152 18q-24 0 -35 -6t-23 -22l-5 1q9 71 27.5 105t53.5 34q96 0 167 -77q30 48 45 74q26 -2 26 -19t-34 -104q-61 -171 -104 -263z" />
<glyph unicode="&#x2088;" horiz-adv-x="428" d="M393 40q1 -60 -53.5 -95t-148.5 -35q-74 0 -119.5 26t-45.5 70t39 68.5t95 25.5q-70 51 -70 106q0 63 56.5 97.5t134.5 34.5q61 0 99.5 -24.5t38.5 -63.5q0 -41 -30.5 -66t-78.5 -34q39 -26 61 -51t22 -59zM220 248q0 -22 16 -40t47 -40q33 40 33 91q-2 43 -40 43 q-25 0 -40.5 -15t-15.5 -39zM154 -3q1 -23 15 -37.5t35 -14.5q26 0 42.5 15t16.5 39q0 15 -12 31t-24.5 25.5t-38.5 26.5q-34 -34 -34 -85z" />
<glyph unicode="&#x2089;" horiz-adv-x="419" d="M411 182q0 -125 -106.5 -201t-256.5 -71l-1 20q77 22 137 72.5t91 119.5q-37 -39 -98 -39q-53 0 -82.5 26.5t-29.5 71.5q0 64 52.5 110.5t133.5 46.5q74 0 117 -43t43 -113zM199 182q0 -50 30 -50q25 0 42 30t17 76q0 59 -28 59q-26 0 -43.5 -35t-17.5 -80z" />
<glyph unicode="&#x20ac;" horiz-adv-x="663" d="M509 230h-147q4 -56 35 -86t79 -30q42 0 89.5 19.5t82.5 51.5l11 -11q-45 -87 -117 -135.5t-161 -48.5q-110 0 -170 64t-60 173v3h-79l21 60h62q5 39 13 70h-68l21 60h67q50 124 150 202t217 78q82 0 128.5 -34t46.5 -88q0 -53 -34.5 -85t-84.5 -32q-39 0 -72 21 q25 58 25 110q0 54 -35 54q-44 0 -83.5 -64.5t-62.5 -161.5h175l-21 -60h-166q-6 -44 -8 -70h167z" />
<glyph unicode="&#x2122;" horiz-adv-x="664" d="M446 460h-68l-2 12l10 4q16 6 22 23l52 165l-22 14l3 12h88l32 -137l87 137h91l2 -12l-29 -14l-21 -179l21 -13l-2 -12h-120v12l10 5q21 9 22 26l14 124l-68 -107l3 -11l-9 2l-32 -51h-25l-34 160l-42 -135l21 -13zM304 460h-118v12l13 6q15 6 18 24l36 167h-30 q-7 -7 -49 -67h-12q-2 34 15 88h231q0 -35 -21 -88h-12q-17 61 -21 67h-29l-36 -167l-3 -17l22 -13z" />
<glyph unicode="&#x2202;" horiz-adv-x="658" d="M702 505q0 -135 -52 -252t-148.5 -190t-216.5 -73q-100 0 -155.5 50t-55.5 136q0 127 116 214t279 87q26 0 48 -3q-3 181 -135 181q-91 0 -176 -66l-10 11q37 63 110 111.5t157 48.5q121 0 180 -69t59 -186zM252 142q0 -44 18 -68t50 -24q47 0 90.5 61.5t69 143 t34.5 160.5q-20 2 -34 2q-99 0 -163.5 -84.5t-64.5 -190.5z" />
<glyph unicode="&#x220f;" horiz-adv-x="773" d="M244 -140h-232l-2 20l34 21q16 10 23 15t14.5 16t10.5 25l144 678l-62 35l4 20h667l2 -20l-34 -21q-16 -10 -23 -15t-14.5 -16t-10.5 -25l-144 -678l77 -35l-4 -20h-255l-7 8l164 767h-180l-163 -767z" />
<glyph unicode="&#x2211;" horiz-adv-x="612" d="M523 -140h-535v50l327 312l-171 418l20 50h535q0 -113 -57 -240h-30q-45 141 -64 182q-20 3 -72 3h-129l135 -335l-404 -385h237q51 0 83 5q28 26 140 182h30q6 -124 -45 -242z" />
<glyph unicode="&#x2212;" d="M585 303h-450l19 85q170 5 453 5l6 -8z" />
<glyph unicode="&#x221a;" horiz-adv-x="636" d="M98 500h260l53 -366l309 626l63 -25l-371 -735h-165l-79 445h-82z" />
<glyph unicode="&#x221e;" horiz-adv-x="849" d="M634 147q-63 0 -101.5 24.5t-65.5 83.5q-83 -108 -194 -108q-71 0 -111.5 44t-40.5 117q0 91 65 160t156 69q63 0 98.5 -23.5t66.5 -86.5q85 110 196 110q71 0 111.5 -44t40.5 -117q0 -91 -65 -160t-156 -69zM219 316q0 -37 18 -57.5t51 -20.5q41 0 84.5 26.5t66.5 64.5 q-22 60 -46.5 89t-62.5 29q-48 0 -79.5 -40t-31.5 -91zM688 446q-40 0 -82.5 -26t-67.5 -63q26 -64 48.5 -92t59.5 -28q48 0 79.5 40t31.5 91q0 37 -18 57.5t-51 20.5z" />
<glyph unicode="&#x222b;" horiz-adv-x="483" d="M354 37q-4 -77 -29.5 -136t-65 -93t-86.5 -51t-99 -17q-63 0 -100 25.5t-37 64.5q0 38 28 63t66 32q10 -67 22 -98t34 -31q30 0 54 56.5t30 142.5q6 91 15 260t11 208q4 77 29.5 136t65 93t86.5 51t99 17q63 0 100 -25.5t37 -64.5q0 -38 -28 -63t-66 -32q-10 67 -22 98 t-34 31q-30 0 -54.5 -56.5t-29.5 -142.5q-4 -78 -13 -234t-13 -234z" />
<glyph unicode="&#x2248;" d="M263 437q-10 0 -69 -57l-44 34q90 119 140 119q23 0 127.5 -25t117.5 -25q10 0 69 57l44 -34q-90 -119 -140 -119q-24 0 -127 25t-118 25zM215 213q-10 0 -69 -57l-44 34q90 119 140 119q23 0 127.5 -25t117.5 -25q10 0 69 57l44 -34q-90 -119 -140 -119q-23 0 -126.5 25 t-118.5 25z" />
<glyph unicode="&#x2260;" d="M168 127l52 76h-105l18 85q45 1 148 3l78 112h-201l18 85q54 2 244 4l76 110l11 3l64 -42l-49 -70h106l6 -8l-27 -82h-147l-77 -111q78 1 202 1l7 -8l-28 -82h-243l-80 -115l-10 -3z" />
<glyph unicode="&#x2264;" d="M158 457l503 177l-19 -95l-338 -118l287 -113l-19 -85q-214 80 -422 168l-4 11zM535 75h-450l19 85q170 5 453 5l6 -8z" />
<glyph unicode="&#x2265;" d="M626 400l-503 -177l19 95l338 118l-287 113l19 85q214 -80 422 -168l4 -11zM537 75h-450l19 85q170 5 453 5l6 -8z" />
<glyph unicode="&#x25ca;" horiz-adv-x="608" d="M101 329l10 46l278 315l102 2l143 -338l-10 -45l-280 -309l-102 -2zM192 336l109 -270l244 283l-115 273z" />
<glyph unicode="&#x25fc;" horiz-adv-x="510" d="M0 510h510v-510h-510v510z" />
<glyph unicode="&#xa7b6;" horiz-adv-x="886" d="M359 0h-343q4 128 50 210h30l30 -80q21 -55 31 -71q24 -4 62 -4h60q-110 106 -110 236q0 172 125 290.5t305 118.5q121 0 190 -67t69 -177q0 -125 -68.5 -228t-182.5 -173h64q37 0 64 4q17 17 61 71l64 80h30q6 -102 -38 -210h-343l-15 58q85 81 132.5 198.5t47.5 233.5 q0 155 -100 155q-68 0 -121.5 -68t-78.5 -160t-25 -182q0 -101 49 -177z" />
<glyph unicode="&#xfb01;" horiz-adv-x="647" d="M255 20q-28 -134 -107.5 -207t-181.5 -73q-55 0 -88.5 21t-33.5 55q0 39 37 54q30 -37 70 -37q85 0 118 157l93 440h-63l3 20l72 35l5 25q22 104 114.5 177t207.5 73q77 0 125 -31.5t48 -78.5q0 -36 -36 -59.5t-92 -25.5q-42 109 -110 109q-19 0 -33 -9.5t-21.5 -22 t-13 -35.5t-7.5 -39.5t-5 -45.5t-5 -42h159q68 0 105 -26.5t37 -74.5q0 -28 -40 -199q-11 -53 -11 -65q0 -19 17 -19q22 0 72 41l10 -10q-29 -56 -77 -96.5t-105 -40.5q-47 0 -73 26.5t-26 74.5q0 34 13 89q44 204 44 217q0 33 -45 33h-89z" />
<glyph unicode="&#xfb02;" horiz-adv-x="671" d="M255 20q-28 -134 -107.5 -207t-181.5 -73q-55 0 -88.5 21t-33.5 55q0 39 37 54q30 -37 70 -37q85 0 118 157l93 440h-63l3 20l72 35l5 25q22 102 111 176t191 74q53 0 91 -23q73 17 156 23l8 -10l-124 -570q-11 -53 -11 -65q0 -19 17 -19q22 0 72 41l10 -10 q-29 -56 -77 -96.5t-105 -40.5q-47 0 -73 26.5t-26 74.5q0 34 13 89l93 436q-42 58 -99 58q-18 0 -30 -9.5t-17.5 -28.5t-8 -37.5t-5 -45.5t-6.5 -43l-6 -30h107l-11 -50h-107z" />
<glyph unicode="&#xfb06;" horiz-adv-x="867" d="M456 149q0 -73 -59.5 -116t-171.5 -43q-80 0 -132 22.5t-52 66.5q0 32 28 55.5t71 31.5l13 -10q1 -5 5 -17.5t6 -19.5q14 -43 31 -64.5t44 -21.5q23 0 36.5 14.5t13.5 37.5q0 25 -19 50t-46 47t-54.5 46t-46.5 57t-19 70q0 69 64 112t164 43h15q30 92 112 156t185 64 q85 0 133 -35.5t48 -95.5q0 -68 -54 -119h155l-11 -50h-125l-52 -245q-4 -22 -4 -31q0 -49 42 -49q44 0 112 56l10 -10q-36 -70 -96 -115.5t-140 -45.5q-55 0 -84.5 34t-29.5 89q0 20 5 47l57 270h-63l2 20q109 46 109 125q0 34 -23.5 54.5t-65.5 20.5q-58 0 -106 -40.5 t-69 -104.5q50 -9 80 -31t30 -51q0 -34 -25.5 -53.5t-64.5 -19.5q-35 0 -57.5 21t-22.5 58q0 19 3 37q-4 1 -13 1q-22 0 -36 -13.5t-14 -35.5q0 -25 18.5 -50.5t45.5 -48.5t54 -47.5t45.5 -56.5t18.5 -66z" />
<glyph horiz-adv-x="504" d="M512 29q-22 -44 -60.5 -75.5t-84.5 -31.5q-38 0 -60 21.5t-22 60.5q0 26 10 71h-3q-27 -70 -65.5 -111.5t-84.5 -41.5q-45 0 -73 36.5t-28 96.5q0 109 73.5 191t194.5 82q110 0 188 -40l-22 -67l-30 -146q-8 -38 -8 -51q0 -15 13 -15q18 0 54 29zM197 77q0 -46 21 -46 q26 0 55.5 61.5t47.5 128.5l13 50q-14 13 -38 13q-37 0 -68 -72.5t-31 -134.5z" />
<glyph horiz-adv-x="482" d="M386 328q45 0 68 -33t23 -85q0 -119 -67 -203.5t-190 -84.5q-117 0 -195 39l22 68l79 386l9 41l-55 29v9q92 25 213 31l6 -8l-23 -102q-10 -43 -72 -265h3q32 74 80 126t99 52zM302 218q-19 0 -50.5 -46.5t-43.5 -91.5l-22 -102q21 -13 45 -13q33 0 62 77.5t29 140.5 q0 35 -20 35z" />
<glyph horiz-adv-x="406" d="M283 328q61 0 100 -30t39 -77q0 -39 -25.5 -62t-62.5 -23q-28 0 -56 17q18 72 18 96q0 38 -25 38q-27 0 -48.5 -52.5t-21.5 -112.5q0 -105 81 -105q61 0 109 41l9 -8q-31 -61 -82.5 -94.5t-117.5 -33.5q-70 0 -112 44.5t-42 117.5q0 99 71 171.5t166 72.5z" />
<glyph horiz-adv-x="505" d="M445 75q-8 -38 -8 -51q0 -15 13 -15q17 0 55 29l8 -9q-23 -44 -61.5 -75.5t-84.5 -31.5q-38 0 -59.5 21.5t-21.5 60.5q0 32 10 71l-2 -7h-6q-27 -67 -65 -106.5t-81 -39.5q-46 0 -73.5 36t-27.5 96q0 109 73 191.5t194 82.5q14 0 38 -2l22 89l8 39l-70 31v9 q105 27 228 31l7 -8l-23 -102zM197 76q0 -45 21 -45q26 0 56 63t46 127l13 52q-14 14 -37 14q-37 0 -68 -74t-31 -137z" />
<glyph horiz-adv-x="413" d="M399 50q-65 -128 -198 -128q-69 0 -112 44t-43 115q0 100 71 173.5t167 73.5q57 0 96 -29t39 -75q0 -53 -46.5 -88.5t-143.5 -35.5q-20 0 -27 1q3 -41 24.5 -61.5t56.5 -20.5q60 0 107 39zM270 284q-23 0 -43.5 -46t-23.5 -106q38 2 63.5 36t25.5 81q0 35 -22 35z" />
<glyph horiz-adv-x="265" d="M170 -53q-22 -106 -86 -163.5t-146 -57.5q-45 0 -72.5 17t-27.5 44q-1 31 29 43q24 -25 56 -25q65 0 89 118l70 340h-49l3 16l55 28l5 22q16 79 89 137.5t155 58.5q48 0 78 -20.5t30 -51.5t-19.5 -51t-44.5 -27q-46 78 -88 78q-17 0 -27 -13t-12 -29t-4 -42.5t-5 -39.5 l-5 -26h91l-8 -40h-91z" />
<glyph horiz-adv-x="413" d="M245 328q175 0 214 11q8 -13 8 -35q0 -44 -38 -44q-20 0 -93 31l-3 -4q61 -33 61 -95q0 -35 -13 -63t-32.5 -44t-43 -29.5t-43 -21t-33 -16t-13.5 -16.5q0 -3 1.5 -5t4.5 -4.5t6 -4.5t8.5 -5t9.5 -5t11.5 -5.5t11.5 -5.5q29 -14 47 -25.5t34.5 -34t16.5 -49.5 q0 -57 -60.5 -93.5t-156.5 -36.5q-92 0 -145 26t-53 66q0 30 28.5 51.5t71.5 33.5l14 -12q-1 -5 -1 -13q0 -44 33 -81t86 -37q55 0 55 40q-1 35 -80 72q-37 18 -57.5 35.5t-20.5 42.5q0 24 25 42.5t83 38.5q-65 4 -105 39t-40 88q0 71 57 119.5t144 48.5zM182 152 q0 -78 28 -78q22 0 34 55.5t12 116.5q0 48 -25 48q-23 0 -36 -46t-13 -96z" />
<glyph horiz-adv-x="508" d="M294 525l7 -8l-24 -102q-29 -126 -71 -262h3q12 28 29.5 55.5t42 56t56.5 46t65 17.5q40 0 62 -21.5t22 -53.5q0 -31 -23 -120.5t-23 -108.5q0 -15 13 -15q17 0 55 29l8 -9q-23 -44 -61.5 -75.5t-84.5 -31.5q-39 0 -61 21.5t-22 60.5q0 28 20.5 104.5t20.5 97.5 q0 20 -18 20q-23 0 -58.5 -53.5t-44.5 -97.5l-29 -145q-96 -4 -136 -4q-15 0 -12 19l106 511l-56 29v9q91 25 214 31z" />
<glyph horiz-adv-x="305" d="M192 373q-28 0 -47 17t-19 46q0 37 30 64.5t69 27.5q28 0 46.5 -18t18.5 -47q0 -36 -30 -63t-68 -27zM36 214l-9 8q23 44 61.5 76t84.5 32q38 0 59.5 -22t21.5 -62q0 -24 -19.5 -118.5t-19.5 -103.5q0 -15 14 -15q18 0 54 29l8 -9q-22 -44 -60.5 -75.5t-84.5 -31.5 q-38 0 -60 21.5t-22 60.5q0 24 19.5 116t19.5 108q0 15 -13 15q-16 0 -54 -29z" />
<glyph horiz-adv-x="276" d="M168 373q-28 0 -46.5 17t-18.5 46q0 37 30 64.5t69 27.5q28 0 46.5 -18t18.5 -47q0 -36 -30 -63t-69 -27zM-35 -274q-43 0 -70.5 17t-27.5 44q0 31 30 43q23 -27 54 -27q67 0 91 120q59 294 59 305q0 15 -14 15q-15 0 -54 -29l-8 8q23 45 61 76.5t84 31.5 q39 0 60.5 -21.5t21.5 -60.5q0 -18 -56 -301q-21 -106 -85 -163.5t-146 -57.5z" />
<glyph horiz-adv-x="489" d="M293 525l6 -8l-23 -102q-26 -113 -72 -262h4q13 29 29.5 56t41 55.5t55.5 46t65 17.5q40 0 63.5 -22t23.5 -54q0 -82 -105 -141q39 -102 60 -102q17 0 53 29l8 -9q-23 -44 -62 -75.5t-87 -31.5q-16 0 -28.5 3t-22.5 13l-16.5 16.5t-13.5 24.5t-9.5 25.5t-9.5 32l-9 31.5 l2 10q42 27 64.5 61t22.5 60q0 27 -18 27q-27 0 -63.5 -54.5t-45.5 -96.5l-30 -145l-69 -2q-40 -2 -65 -2q-16 0 -12 19l105 511l-55 29v9q92 25 213 31z" />
<glyph horiz-adv-x="266" d="M206 75q-8 -38 -8 -51q0 -15 13 -15q17 0 55 29l8 -9q-23 -44 -61.5 -75.5t-84.5 -31.5q-76 0 -81 82q-1 24 9 71l70 340l9 41l-55 29v9q92 25 213 31l6 -8l-23 -102z" />
<glyph horiz-adv-x="766" d="M36 212l-8 8q25 45 61.5 76.5t80.5 31.5q36 0 56.5 -19t20.5 -50q0 -17 -23 -107l3 -2q14 31 31 59t40.5 56.5t53.5 45.5t62 17q33 0 53 -18.5t20 -49.5q0 -23 -24 -108l4 -2q14 31 31 59t40.5 56.5t53.5 45.5t62 17q40 0 63 -21.5t23 -53.5q0 -34 -21 -124t-21 -105 t13 -15q19 0 55 29l8 -9q-23 -44 -61.5 -75.5t-84.5 -31.5q-40 0 -62 21.5t-22 60.5q0 28 19.5 105t19.5 100q0 17 -15 17q-24 0 -58.5 -55t-44.5 -101l-29 -140l-71 -2q-40 -2 -66 -2q-12 0 -12 11q0 5 1 8q55 236 55 264q0 17 -15 17q-24 0 -59 -55t-44 -101l-29 -140 l-71 -2q-40 -2 -66 -2q-12 0 -12 11q0 5 1 8q20 86 38 178t18 102q0 16 -13 16q-15 0 -55 -29z" />
<glyph horiz-adv-x="527" d="M37 212l-9 8q24 45 60 76.5t80 31.5q37 0 57.5 -19.5t20.5 -52.5q0 -24 -23 -103l3 -2q14 31 31.5 59t41.5 56t54 45t62 17q40 0 63 -21.5t23 -53.5t-21 -118.5t-21 -105.5q0 -20 14 -20q18 0 54 29l8 -9q-22 -43 -61.5 -75t-86.5 -32q-40 0 -62 21.5t-22 60.5 q0 28 20 100t20 97t-16 25q-24 0 -59 -55t-44 -101l-29 -140l-70 -2q-40 -2 -66 -2q-13 0 -13 11q0 5 1 8q57 244 57 280q0 16 -14 16q-18 0 -53 -29z" />
<glyph horiz-adv-x="479" d="M468 172q0 -111 -75.5 -180.5t-176.5 -69.5q-77 0 -124 41t-47 114q0 104 76.5 177.5t176.5 73.5q80 0 125 -42.5t45 -113.5zM201 4q0 -43 25 -43q33 0 59.5 105.5t26.5 182.5q0 40 -22 40q-34 0 -61.5 -98.5t-27.5 -186.5z" />
<glyph horiz-adv-x="501" d="M86 -272q-40 -2 -67 -2q-15 0 -12 12l65 319q32 158 32 168q0 16 -13 16q-14 0 -54 -29l-9 8q25 45 61 76.5t80 31.5q36 0 57 -19t21 -50q0 -13 -3.5 -30t-10.5 -42t-10 -37h3q30 73 79.5 125.5t100.5 52.5q44 0 66.5 -34.5t22.5 -88.5q0 -118 -67 -201.5t-188 -83.5 q-16 0 -46 2l-39 -191zM225 70l-20 -97q24 -13 45 -13q34 0 63 79.5t29 143.5q0 35 -20 35q-21 0 -54 -51.5t-43 -96.5z" />
<glyph horiz-adv-x="507" d="M305 -272q-11 0 -36.5 -1t-29.5 -1q-15 0 -12 20l68 329h-4q-27 -70 -65.5 -111.5t-83.5 -41.5t-73 36.5t-28 96.5q0 109 73.5 191t194.5 82q110 0 188 -40l-24 -67l-99 -490zM197 77q0 -46 21 -46q23 0 49.5 50.5t45.5 113.5l20 77q-15 12 -37 12q-37 0 -68 -72.5 t-31 -134.5z" />
<glyph horiz-adv-x="426" d="M146 -72q-40 -2 -67 -2q-7 0 -10 2.5t-2 8.5l28 136q30 150 30 152q0 16 -13 16q-14 0 -54 -29l-9 8q25 45 61 76.5t80 31.5q36 0 56.5 -19t20.5 -50q0 -23 -24 -108l4 -1q82 178 151 178q42 0 42 -52q0 -33 -14 -70.5t-30 -59.5q-35 24 -63 24q-32 0 -55.5 -28 t-32.5 -72l-29 -140z" />
<glyph horiz-adv-x="396" d="M362 48q0 -58 -48.5 -92t-139.5 -34q-66 0 -108.5 17t-43.5 52q0 26 23 44.5t58 23.5l11 -8q2 -6 5.5 -15.5t4.5 -12.5q15 -37 27 -51.5t34 -14.5q17 0 26.5 10.5t9.5 27.5q0 19 -16 38t-38 36t-44.5 35.5t-38 44.5t-15.5 55q0 55 52 89.5t131 34.5q71 0 108.5 -21 t37.5 -53q0 -23 -20.5 -41t-53.5 -22l-10 7q-1 2 -5 15.5t-6 20.5q-12 30 -23.5 44.5t-29.5 14.5q-17 0 -27 -10t-10 -26q0 -19 15 -39t37 -38t44 -36.5t37.5 -43.5t15.5 -52z" />
<glyph horiz-adv-x="331" d="M151 -78q-46 0 -70 27t-24 71q0 20 4 36l44 207h-50l1 16l59 40l159 110l16 -1l-26 -125h95l-9 -40h-95l-39 -186q-2 -8 -2 -22q0 -38 33 -38t84 41l9 -8q-28 -55 -76.5 -91.5t-112.5 -36.5z" />
<glyph horiz-adv-x="527" d="M535 29q-23 -44 -62.5 -75.5t-85.5 -31.5q-76 0 -81 82q-1 24 9 72h-5q-63 -154 -156 -154q-43 0 -67.5 23.5t-24.5 66.5q0 29 20.5 110.5t20.5 103.5q0 15 -14 15t-53 -29l-9 8q22 44 60.5 76t84.5 32q39 0 61 -21.5t22 -60.5q0 -31 -19 -100t-16 -97q2 -18 18 -18 q22 0 54 56.5t56 147.5l-3 -15l22 103l71 2q60 3 66 3q15 0 12 -14l-49 -239q-8 -38 -8 -51q0 -15 13 -15q17 0 55 29z" />
<glyph horiz-adv-x="436" d="M196 -78l-101 7q0 12 0.5 35t0.5 34q0 98 -4 150.5t-12.5 72.5t-23.5 20q-17 0 -49 -30l-9 8q24 44 64 76.5t84 32.5q47 0 70 -36t23 -120q0 -76 -13 -187q74 116 74 251q0 38 -10 76q30 16 62 16q43 0 67.5 -21.5t24.5 -63.5q0 -129 -248 -321z" />
<glyph horiz-adv-x="650" d="M658 244q0 -129 -246 -322l-99 7q0 12 0.5 35t0.5 34q0 12 -0.5 33.5t-0.5 30.5q-47 -89 -117 -140l-98 7q0 12 0.5 35t0.5 34q-1 145 -10 194t-32 49q-17 0 -49 -30l-10 9q23 44 63.5 76t84.5 32q47 0 70 -35.5t24 -118.5q0 -77 -13 -188q78 122 78 251q0 35 -10 75 q30 16 65 16q51 0 72.5 -36t22.5 -119q0 -79 -14 -187q73 115 73 250q0 42 -9 76q27 16 61 16q43 0 67.5 -21.5t24.5 -62.5z" />
<glyph horiz-adv-x="425" d="M330 72q18 -40 24.5 -51.5t14.5 -11.5q16 0 45 29l8 -9q-54 -107 -129 -107q-15 0 -27.5 5.5t-20.5 12t-17.5 23t-14.5 28t-16.5 38.5t-18.5 43l-11 25q-19 -50 -19 -117q0 -23 6 -45q-28 -13 -60 -13q-38 0 -62.5 17.5t-24.5 48.5q0 79 148 137l-19 44q-28 64 -37 70 q-4 2 -7 2q-14 0 -45 -29l-9 8q21 45 56.5 76.5t77.5 31.5q17 0 29.5 -6t24 -23.5t17.5 -30.5t20 -46.5t23 -52.5l6 -13q17 47 17 114q0 16 -5 46q29 12 59 12q38 0 62.5 -17t24.5 -49q0 -78 -145 -135z" />
<glyph horiz-adv-x="460" d="M150 328q50 0 74.5 -30t24.5 -98q0 -123 -49 -249q61 70 86 148t25 144q0 35 -10 69q30 16 63 16q91 0 91 -98q0 -95 -72.5 -181.5t-207.5 -155.5q-38 -76 -87.5 -121.5t-104.5 -45.5q-41 0 -66.5 17t-25.5 44q-1 31 29 44q24 -29 43 -29q49 0 94 148q42 135 40 219 q-2 72 -38 72q-18 0 -50 -30l-10 9q23 44 64.5 76t86.5 32z" />
<glyph horiz-adv-x="376" d="M112 -59q-50 0 -88 -19l-26 37q157 144 228 220q-74 10 -103 10q-26 0 -36.5 -6t-22.5 -30l-12 2q9 87 30 130t62 43q77 0 135 -89q30 37 67 89q51 -18 52 -53q1 -20 -10 -35.5t-43 -38.5q-31 -23 -191 -142q30 3 61 3q22 0 55 -1.5t43 -1.5q17 0 33 19q8 10 12 17l12 -5 q-18 -84 -28 -109q-23 -59 -59 -59q-13 0 -80 9.5t-91 9.5z" />
<glyph horiz-adv-x="503" d="M603 459q-22 -44 -60.5 -75.5t-84.5 -31.5q-38 0 -60 21.5t-22 60.5q0 26 10 71h-3q-27 -70 -65.5 -111.5t-84.5 -41.5q-45 0 -73 36.5t-28 96.5q0 109 73.5 191t194.5 82q110 0 188 -40l-22 -67l-30 -146q-8 -38 -8 -51q0 -15 13 -15q18 0 54 29zM288 507q0 -46 21 -46 q26 0 55.5 61.5t47.5 128.5l13 50q-14 13 -38 13q-37 0 -68 -72.5t-31 -134.5z" />
<glyph horiz-adv-x="481" d="M477 758q45 0 68 -33t23 -85q0 -119 -67 -203.5t-190 -84.5q-117 0 -195 39l22 68l79 386l9 41l-55 29v9q92 25 213 31l6 -8l-23 -102q-10 -43 -72 -265h3q32 74 80 126t99 52zM393 648q-19 0 -50.5 -46.5t-43.5 -91.5l-22 -102q21 -13 45 -13q33 0 62 77.5t29 140.5 q0 35 -20 35z" />
<glyph horiz-adv-x="407" d="M375 758q61 0 100 -30t39 -77q0 -39 -25.5 -62t-62.5 -23q-28 0 -56 17q18 72 18 96q0 38 -25 38q-27 0 -48.5 -52.5t-21.5 -112.5q0 -105 81 -105q61 0 109 41l9 -8q-31 -61 -82.5 -94.5t-117.5 -33.5q-70 0 -112 44.5t-42 117.5q0 99 71 171.5t166 72.5z" />
<glyph horiz-adv-x="504" d="M536 505q-8 -38 -8 -51q0 -15 13 -15q17 0 55 29l8 -9q-23 -44 -61.5 -75.5t-84.5 -31.5q-38 0 -59.5 21.5t-21.5 60.5q0 32 10 71l-2 -7h-6q-27 -67 -65 -106.5t-81 -39.5q-46 0 -73.5 36t-27.5 96q0 109 73 191.5t194 82.5q14 0 38 -2l22 89l8 39l-70 31v9 q105 27 228 31l7 -8l-23 -102zM288 506q0 -45 21 -45q26 0 56 63t46 127l13 52q-14 14 -37 14q-37 0 -68 -74t-31 -137z" />
<glyph horiz-adv-x="413" d="M490 480q-65 -128 -198 -128q-69 0 -112 44t-43 115q0 100 71 173.5t167 73.5q57 0 96 -29t39 -75q0 -53 -46.5 -88.5t-143.5 -35.5q-20 0 -27 1q3 -41 24.5 -61.5t56.5 -20.5q60 0 107 39zM361 714q-23 0 -43.5 -46t-23.5 -106q38 2 63.5 36t25.5 81q0 35 -22 35z" />
<glyph horiz-adv-x="265" d="M262 377q-22 -106 -86 -163.5t-146 -57.5q-45 0 -72.5 17t-27.5 44q-1 31 29 43q24 -25 56 -25q65 0 89 118l70 340h-49l3 16l55 28l5 22q16 79 89 137.5t155 58.5q48 0 78 -20.5t30 -51.5t-19.5 -51t-44.5 -27q-46 78 -88 78q-17 0 -27 -13t-12 -29t-4 -42.5t-5 -39.5 l-5 -26h91l-8 -40h-91z" />
<glyph horiz-adv-x="413" d="M336 758q176 0 214 11q8 -13 8 -35q0 -44 -38 -44q-20 0 -93 31l-3 -4q61 -33 61 -95q0 -35 -13 -63t-32.5 -44t-43 -29.5t-43 -21t-33 -16t-13.5 -16.5q0 -3 1.5 -5t4.5 -4.5t6 -4.5t8.5 -5t9.5 -5t11.5 -5.5t11.5 -5.5q29 -14 47 -25.5t34.5 -34t16.5 -49.5 q0 -57 -60.5 -93.5t-156.5 -36.5q-92 0 -145 26t-53 66q0 30 28.5 51.5t71.5 33.5l14 -12q-1 -5 -1 -13q0 -44 33 -81t86 -37q55 0 55 40q-1 35 -80 72q-37 18 -57.5 35.5t-20.5 42.5q0 24 25 42.5t83 38.5q-65 4 -105 39t-40 88q0 71 57 119.5t144 48.5zM273 582 q0 -78 28 -78q22 0 34 55.5t12 116.5q0 48 -25 48q-23 0 -36 -46t-13 -96z" />
<glyph horiz-adv-x="507" d="M385 955l7 -8l-24 -102q-29 -126 -71 -262h3q12 28 29.5 55.5t42 56t56.5 46t65 17.5q40 0 62 -21.5t22 -53.5q0 -31 -23 -120.5t-23 -108.5q0 -15 13 -15q17 0 55 29l8 -9q-23 -44 -61.5 -75.5t-84.5 -31.5q-39 0 -61 21.5t-22 60.5q0 28 20.5 104.5t20.5 97.5 q0 20 -18 20q-23 0 -58.5 -53.5t-44.5 -97.5l-29 -145q-96 -4 -136 -4q-15 0 -12 19l106 511l-56 29v9q91 25 214 31z" />
<glyph horiz-adv-x="276" d="M259 803q-28 0 -46.5 17t-18.5 46q0 37 30 64.5t69 27.5q28 0 46.5 -18t18.5 -47q0 -36 -30 -63t-69 -27zM56 156q-43 0 -70.5 17t-27.5 44q0 31 30 43q23 -27 54 -27q67 0 91 120q59 294 59 305q0 15 -14 15q-15 0 -54 -29l-8 8q23 45 61 76.5t84 31.5q39 0 60.5 -21.5 t21.5 -60.5q0 -18 -56 -301q-21 -106 -85 -163.5t-146 -57.5z" />
<glyph horiz-adv-x="488" d="M384 955l6 -8l-23 -102q-26 -113 -72 -262h4q13 29 29.5 56t41 55.5t55.5 46t65 17.5q40 0 63.5 -22t23.5 -54q0 -82 -105 -141q39 -102 60 -102q17 0 53 29l8 -9q-23 -44 -62 -75.5t-87 -31.5q-16 0 -28.5 3t-22.5 13l-16.5 16.5t-13.5 24.5t-9.5 25.5t-9.5 32l-9 31.5 l2 10q42 27 64.5 61t22.5 60q0 27 -18 27q-27 0 -63.5 -54.5t-45.5 -96.5l-30 -145l-69 -2q-40 -2 -65 -2q-16 0 -12 19l105 511l-55 29v9q92 25 213 31z" />
<glyph horiz-adv-x="265" d="M297 505q-8 -38 -8 -51q0 -15 13 -15q17 0 55 29l8 -9q-23 -44 -61.5 -75.5t-84.5 -31.5q-76 0 -81 82q-1 24 9 71l70 340l9 41l-55 29v9q92 25 213 31l6 -8l-23 -102z" />
<glyph horiz-adv-x="765" d="M127 642l-8 8q25 45 61.5 76.5t80.5 31.5q36 0 56.5 -19t20.5 -50q0 -17 -23 -107l3 -2q14 31 31 59t40.5 56.5t53.5 45.5t62 17q33 0 53 -18.5t20 -49.5q0 -23 -24 -108l4 -2q14 31 31 59t40.5 56.5t53.5 45.5t62 17q40 0 63 -21.5t23 -53.5q0 -34 -21 -124t-21 -105 t13 -15q19 0 55 29l8 -9q-23 -44 -61.5 -75.5t-84.5 -31.5q-40 0 -62 21.5t-22 60.5q0 28 19.5 105t19.5 100q0 17 -15 17q-24 0 -58.5 -55t-44.5 -101l-29 -140l-71 -2q-40 -2 -66 -2q-12 0 -12 11q0 5 1 8q55 236 55 264q0 17 -15 17q-24 0 -59 -55t-44 -101l-29 -140 l-71 -2q-40 -2 -66 -2q-12 0 -12 11q0 5 1 8q20 86 38 178t18 102q0 16 -13 16q-15 0 -55 -29z" />
<glyph horiz-adv-x="478" d="M559 602q0 -111 -75.5 -180.5t-176.5 -69.5q-77 0 -124 41t-47 114q0 104 76.5 177.5t176.5 73.5q80 0 125 -42.5t45 -113.5zM292 434q0 -43 25 -43q33 0 59.5 105.5t26.5 182.5q0 40 -22 40q-34 0 -61.5 -98.5t-27.5 -186.5z" />
<glyph horiz-adv-x="500" d="M177 158q-40 -2 -67 -2q-15 0 -12 12l65 319q32 158 32 168q0 16 -13 16q-14 0 -54 -29l-9 8q25 45 61 76.5t80 31.5q36 0 57 -19t21 -50q0 -13 -3.5 -30t-10.5 -42t-10 -37h3q30 73 79.5 125.5t100.5 52.5q44 0 66.5 -34.5t22.5 -88.5q0 -118 -67 -201.5t-188 -83.5 q-16 0 -46 2l-39 -191zM316 500l-20 -97q24 -13 45 -13q34 0 63 79.5t29 143.5q0 35 -20 35q-21 0 -54 -51.5t-43 -96.5z" />
<glyph horiz-adv-x="506" d="M396 158q-11 0 -36.5 -1t-29.5 -1q-15 0 -12 20l68 329h-4q-27 -70 -65.5 -111.5t-83.5 -41.5t-73 36.5t-28 96.5q0 109 73.5 191t194.5 82q110 0 188 -40l-24 -67l-99 -490zM288 507q0 -46 21 -46q23 0 49.5 50.5t45.5 113.5l20 77q-15 12 -37 12q-37 0 -68 -72.5 t-31 -134.5z" />
<glyph horiz-adv-x="426" d="M237 358q-40 -2 -67 -2q-7 0 -10 2.5t-2 8.5l28 136q30 150 30 152q0 16 -13 16q-14 0 -54 -29l-9 8q25 45 61 76.5t80 31.5q36 0 56.5 -19t20.5 -50q0 -23 -24 -108l4 -1q82 178 151 178q42 0 42 -52q0 -33 -14 -70.5t-30 -59.5q-35 24 -63 24q-32 0 -55.5 -28 t-32.5 -72l-29 -140z" />
<glyph horiz-adv-x="396" d="M454 478q0 -58 -48.5 -92t-139.5 -34q-66 0 -108.5 17t-43.5 52q0 26 23 44.5t58 23.5l11 -8q2 -6 5.5 -15.5t4.5 -12.5q15 -37 27 -51.5t34 -14.5q17 0 26.5 10.5t9.5 27.5q0 19 -16 38t-38 36t-44.5 35.5t-38 44.5t-15.5 55q0 55 52 89.5t131 34.5q71 0 108.5 -21 t37.5 -53q0 -23 -20.5 -41t-53.5 -22l-10 7q-1 2 -5 15.5t-6 20.5q-12 30 -23.5 44.5t-29.5 14.5q-17 0 -27 -10t-10 -26q0 -19 15 -39t37 -38t44 -36.5t37.5 -43.5t15.5 -52z" />
<glyph horiz-adv-x="332" d="M243 352q-46 0 -70 27t-24 71q0 20 4 36l44 207h-50l1 16l59 40l159 110l16 -1l-26 -125h95l-9 -40h-95l-39 -186q-2 -8 -2 -22q0 -38 33 -38t84 41l9 -8q-28 -55 -76.5 -91.5t-112.5 -36.5z" />
<glyph horiz-adv-x="526" d="M626 459q-23 -44 -62.5 -75.5t-85.5 -31.5q-76 0 -81 82q-1 24 9 72h-5q-63 -154 -156 -154q-43 0 -67.5 23.5t-24.5 66.5q0 29 20.5 110.5t20.5 103.5q0 15 -14 15t-53 -29l-9 8q22 44 60.5 76t84.5 32q39 0 61 -21.5t22 -60.5q0 -31 -19 -100t-16 -97q1 -18 18 -18 q22 0 54 56.5t56 147.5l-3 -15l22 103l71 2q60 3 66 3q15 0 12 -14l-49 -239q-8 -38 -8 -51q0 -15 13 -15q17 0 55 29z" />
</font>
</defs>
</svg>
