<?xml version="1.0" standalone="no"?>
<!DOCTYPE svg PUBLIC "-//W3C//DTD SVG 1.1//EN" "http://www.w3.org/Graphics/SVG/1.1/DTD/svg11.dtd" >
<svg xmlns="http://www.w3.org/2000/svg" xmlns:xlink="http://www.w3.org/1999/xlink" version="1.1">
<metadata></metadata>
<defs>
<font id="indivisa_text_seriflight" horiz-adv-x="560" >
<font-face units-per-em="1000" ascent="800" descent="-200" />
<missing-glyph horiz-adv-x="250" />
<glyph unicode="&#xfb00;" horiz-adv-x="584" d="M162 35l95 -19l-2 -16h-206l-2 16l48 13q17 5 22 10.5t5 20.5v400h-73l-2 16l75 14v23q0 101 51 161.5t135 60.5q40 0 74.5 -22.5t47.5 -51.5q50 94 149 94q47 0 80 -25.5t33 -58.5q0 -12 -7 -19.5t-18 -7.5q-5 0 -7 1q-21 77 -92 77q-61 0 -96 -53.5t-35 -148.5v-30h137 v-30h-137v-425l95 -19l-2 -16h-206l-2 16l48 13q17 5 22 10.5t5 20.5v400h-235v-425zM389 490v-1l8 1v18q0 54 13 103q-4 0 -6 1q-8 37 -36 63.5t-68 26.5q-64 0 -101 -47t-37 -130v-35h227z" />
<glyph unicode="&#xfb03;" horiz-adv-x="826" d="M162 35l95 -19l-2 -16h-206l-2 16l48 13q17 5 22 10.5t5 20.5v400h-73l-2 16l75 14v23q0 101 52 161.5t137 60.5q40 0 74 -21t50 -48q54 89 154 89q52 0 87.5 -25.5t35.5 -58.5q0 -12 -7 -19.5t-18 -7.5q-5 0 -7 1q-9 35 -35.5 56t-66.5 21q-66 0 -103.5 -53.5 t-37.5 -148.5v-30h235q13 10 30 15l10 -10v-460l75 -19l-2 -16h-186l-2 16l48 13q17 5 22 10.5t5 20.5v400h-235v-425l95 -19l-2 -16h-206l-2 16l48 13q17 5 22 10.5t5 20.5v400h-235v-425zM397 490v18q0 58 15 105q-8 36 -37.5 62.5t-71.5 26.5q-66 0 -103.5 -47 t-37.5 -130v-35h235z" />
<glyph unicode="&#xfb04;" horiz-adv-x="826" d="M162 35l95 -19l-2 -16h-206l-2 16l48 13q17 5 22 10.5t5 20.5v400h-73l-2 16l75 14v23q0 101 52 161.5t137 60.5q38 0 71 -18.5t50 -44.5q50 83 149 83q50 0 91 -30v26q19 4 30 5l10 -10v-711l75 -19l-2 -16h-186l-2 16l48 13q17 5 22 10.5t5 20.5v400h-235v-425l95 -19 l-2 -16h-206l-2 16l48 13q17 5 22 10.5t5 20.5v400h-235v-425zM437 545v-55h235v185q-32 47 -94 47q-66 0 -103.5 -47t-37.5 -130zM397 490v43q0 49 12 89q-10 34 -38.5 57t-67.5 23q-66 0 -103.5 -47t-37.5 -130v-35h235z" />
<glyph unicode="fi" horiz-adv-x="551" d="M162 35l95 -19l-2 -16h-206l-2 16l48 13q17 5 22 10.5t5 20.5v400h-73l-2 16l75 14v18q0 112 54 179.5t138 67.5q52 0 87.5 -25.5t35.5 -58.5q0 -12 -7 -19.5t-18 -7.5q-5 0 -7 1q-21 77 -102 77q-63 0 -102 -54t-39 -148v-30h235q13 10 30 15l10 -10v-460l75 -19l-2 -16 h-186l-2 16l48 13q17 5 22 10.5t5 20.5v400h-235v-425z" />
<glyph unicode="fl" horiz-adv-x="551" d="M162 35l95 -19l-2 -16h-206l-2 16l48 13q17 5 22 10.5t5 20.5v400h-73l-2 16l75 14v43q0 101 51 161.5t133 60.5q50 0 91 -30v26q19 4 30 5l10 -10v-711l75 -19l-2 -16h-186l-2 16l48 13q17 5 22 10.5t5 20.5v400h-235v-425zM162 545v-55h235v185q-32 47 -94 47 q-66 0 -103.5 -47t-37.5 -130z" />
<glyph unicode="&#x2f;symbol&#x32;&#x2f;" horiz-adv-x="932" d="M494 570l52 -90l-137 -240h-103l137 240l-52 90h103zM357 570l52 -90l-138 -240h-103l138 240l-52 90h103zM752 120h-103l-137 240l51 90l137 -240h103zM683 0h-103l-137 240l51 90l138 -240h103zM100 120l51 90h275l51 -90h-274l-52 -90zM168 0l52 90h274l52 -90h-275 l-51 -90zM789 88q18 0 30.5 -13t12.5 -31t-12.5 -31t-30.5 -13t-30.5 13t-12.5 31t12.5 31t30.5 13zM829 44q0 16 -11.5 28t-28.5 12t-28.5 -12t-11.5 -28t11.5 -28t28.5 -12t28.5 12t11.5 28zM771 69h18q7 0 11 -2q5 -4 5 -11q0 -5 -3 -8q-1 -2 -6 -4q7 -1 8 -9q0 -8 3 -16 h-8q-1 2 -1.5 6.5t-0.5 6.5q-1 10 -11 10h-8v-23h-7v50zM778 47h10q5 0 7 1q3 3 3 7q0 8 -10 8h-10v-16z" />
<glyph unicode="&#x2f;symbol&#x33;&#x2f;" horiz-adv-x="957" d="M505 638l68 -270h270l-203 -135l136 -270l-271 135l-270 -270l135 405l-270 203l338 -68zM814 87q18 0 30.5 -12.5t12.5 -31.5q0 -18 -12.5 -30.5t-30.5 -12.5t-30.5 12.5t-12.5 30.5q0 19 12.5 31.5t30.5 12.5zM854 43q0 17 -11.5 29t-28.5 12t-28.5 -12t-11.5 -29 t12 -28.5t28 -11.5t28 11.5t12 28.5zM796 68h18q8 0 11 -2q6 -3 6 -10q0 -5 -4 -9q-3 -3 -6 -3q7 -3 8 -10q2 -14 3 -16h-7q-1 2 -2 7.5t-1 6.5q0 9 -10 9h-9v-23h-7v50zM803 47h10q5 0 7 1q3 3 3 6q0 9 -10 9h-10v-16z" />
<glyph unicode="&#x2f;symbol&#x35;&#x2f;" horiz-adv-x="705" d="M232 -6l-132 136l124 234l129 -136zM474 -6l-121 234l128 136l124 -234z" />
<glyph unicode="&#x2f;symbol&#x31;&#x2f;" horiz-adv-x="5534" d="M1865 412q-25 0 -40.5 14.5t-15.5 37.5q0 35 32.5 64t70.5 29q24 0 39 -13.5t15 -37.5q0 -36 -31 -65t-70 -29zM1284 412q-26 0 -41.5 14.5t-15.5 37.5q0 35 33 64t71 29q24 0 38.5 -13.5t14.5 -37.5q0 -36 -31 -65t-69 -29zM959 0q0 42 11 108q-16 -50 -51.5 -82.5 t-78.5 -32.5q-41 0 -63 29.5t-22 82.5q0 62 27 121t84 101t132 42q17 0 25 -1l16 73l6 102l136 7q0 -67 -46 -273t-46 -277h-130zM100 0l78 364q17 86 21 136l128 7l11 -15l-104 -492h-134zM3503 492l-57 -492h-131l20 175q5 50 33 215h-3q-31 -102 -81 -215l-76 -175h-149 l-2 175q-2 121 9 215h-2q-32 -130 -59 -215l-53 -175h-109l154 500l184 6l1 -137q2 -134 -15 -259h2q39 126 94 259l56 131l169 7zM5316 300q-37 -177 -37 -183q0 -34 36 -34q25 0 59 18l-9 -79q-52 -29 -114 -29q-105 0 -105 100q0 20 40 210l-47 1l9 44l54 14l53 95l81 6 l13 -15l-20 -86h99l6 -14l-17 -51zM3936 0q0 74 42 260l5 102l137 7q0 -31 -7 -89h2q53 89 134 89q34 0 53 -19.5t19 -51.5q0 -27 -26 -147q-18 -85 -18 -151h-131q0 55 19 150q15 71 15 87q0 24 -17 24q-34 0 -64 -82.5t-32 -178.5h-131zM3768 369q87 0 145 -32l-28 -128 q-31 -145 -31 -209h-130q0 45 12 112q-15 -52 -51 -85.5t-81 -33.5q-41 0 -63 29.5t-22 83.5q0 46 16 91.5t46 84t79 63t108 24.5zM4653 51q-67 -58 -159 -58q-65 0 -103.5 35t-38.5 102q0 94 68.5 166.5t167.5 72.5q54 0 86.5 -23.5t32.5 -64.5q0 -57 -60 -96.5t-161 -43.5 v-1q0 -64 63 -64q42 0 90 28zM2525 369q88 0 146 -32l-29 -128q-31 -145 -31 -209h-130q0 37 12 112q-15 -52 -51 -85.5t-81 -33.5q-41 0 -62.5 29.5t-21.5 83.5q0 62 26.5 120.5t85 100.5t136.5 42zM2245 256q-52 30 -97 30q-18 0 -30 -7t-12 -19q0 -14 20 -26.5t44 -22 t44 -33t20 -56.5q0 -57 -53 -93t-128 -36q-78 0 -118 28l27 93q57 -38 111 -38q19 0 29.5 7.5t10.5 18.5q0 13 -20 26t-44 23t-44 33t-20 55q0 56 54.5 93t128.5 37q58 0 104 -18zM4716 0q0 79 41 260l6 102l137 7q0 -12 -7 -89h2q52 89 134 89q34 0 53 -19.5t19 -51.5 q0 -27 -26 -147q-19 -90 -19 -151h-130q0 55 19 150q15 78 15 87q0 24 -17 24q-35 0 -65 -82t-32 -179h-130zM1752 0q0 69 26 193l15 67l6 102l137 7q0 -46 -27 -177t-27 -192h-130zM1399 362l140 7q13 -129 -5 -289h2q76 151 91 284q22 5 50 5q32 0 48.5 -8.5t16.5 -33.5 q0 -46 -51 -147.5t-116 -179.5h-149q-5 228 -27 362zM1170 0q0 72 27 193l14 67l6 102l137 7q0 -46 -27 -177t-27 -192h-130zM336 0q0 79 41 260l6 102l137 7q0 -31 -7 -89h2q52 89 134 89q34 0 53 -19.5t19 -51.5q0 -27 -26 -147q-18 -85 -18 -151h-131q0 55 19 150 q15 78 15 87q0 24 -17 24q-34 0 -64 -82.5t-32 -178.5h-131zM4490 177q47 10 73 34t26 59q0 31 -22 31q-28 0 -48.5 -38.5t-28.5 -85.5zM2435 101q23 0 47 43.5t37 100.5q3 14 9 44q-14 8 -27 8q-34 0 -62 -54.5t-28 -101.5q0 -40 24 -40zM913 101q22 0 44.5 39.5t37.5 94.5 q1 9 8 40l3 14q-14 8 -27 8q-33 0 -61.5 -54.5t-28.5 -101.5q0 -40 24 -40zM3677 101q23 0 47 43t38 101q1 8 4.5 24.5t4.5 19.5q-16 8 -27 8q-34 0 -62.5 -54.5t-28.5 -101.5q0 -40 24 -40z" />
<glyph unicode="&#x2f;symbol&#x34;&#x2f;" horiz-adv-x="2607" d="M1684 406q0 65 -11 128l126 14l15 -15v-533h-130v406zM1889 406q0 62 -10 128l126 14l14 -15v-533h-130v406zM427 101v-101h-320v362q0 80 -7 135l126 7l14 -14v-396zM925 21l7 109q62 -36 144 -36q50 0 50 36q0 20 -31.5 41.5t-69 40.5t-69 57t-31.5 88q0 69 55 108 t138 39q80 0 127 -18l-14 -111q-56 29 -111 29q-27 0 -42.5 -11t-15.5 -29q0 -20 20.5 -38t50 -34t59.5 -35t50.5 -51t20.5 -72q0 -66 -53.5 -103.5t-139.5 -37.5q-41 0 -83.5 8t-61.5 20zM2405 213q0 -24 -1 -36l-11 -11h-191q14 -83 98 -83q44 0 84 21l7 -81 q-46 -30 -127 -30q-90 0 -144 47.5t-54 134.5q0 85 52 139t132 54q72 0 113.5 -43t41.5 -112zM795 0l-106 -7q-11 16 -21 49h-4q-34 -49 -104 -49q-43 0 -70 23t-27 66q0 113 191 118v20q0 54 -58 54q-55 0 -108 -29l-8 97q72 26 150 26q154 0 154 -135q0 -25 -2 -69t-2 -70 q0 -51 15 -94zM1626 0l-107 -7q-12 20 -21 49h-3q-34 -49 -105 -49q-43 0 -69.5 23t-26.5 66q0 113 191 118v20q0 54 -58 54q-54 0 -109 -29l-7 97q72 26 150 26q153 0 153 -135q0 -25 -1.5 -69.5t-1.5 -69.5q0 -51 15 -94zM2199 207l78 4q2 14 2 26q0 59 -34 59 q-44 0 -46 -89zM654 74v88q-29 -3 -47 -18t-18 -39q0 -18 10 -29t27 -11q16 0 28 9zM1485 74v88q-29 -3 -47 -18t-18 -39q0 -18 10 -29t27 -11q16 0 28 9zM2464 85q18 0 30.5 -13t12.5 -31t-12.5 -31t-30.5 -13t-31 13t-13 31t13 31t31 13zM2504 41q0 17 -12 28.5t-28 11.5 t-28 -11.5t-12 -28.5t12 -28.5t28 -11.5t28 11.5t12 28.5zM2446 66h18q7 0 11 -3q5 -3 5 -10q0 -5 -3 -9q-3 -3 -6 -3q7 -1 8 -10q0 -7 3 -15h-8q-1 2 -1.5 6.5t-0.5 6.5q-1 9 -11 9h-8v-22h-7v50zM2453 44h10q5 0 7 1q3 3 3 7q0 8 -10 8h-10v-16z" />
<glyph unicode=" "  horiz-adv-x="250" />
<glyph unicode="&#x09;" horiz-adv-x="250" />
<glyph unicode="&#xa0;" horiz-adv-x="250" />
<glyph unicode="!" horiz-adv-x="280" d="M111 685l3 3l15 3q16 4 29 4q14 0 14 -15q0 -5 -0.5 -16t-0.5 -16l-17 -458h-28zM176 37q0 -19 -9.5 -33t-27.5 -14q-16 0 -25.5 12t-9.5 31t10.5 33t27.5 14q16 0 25 -12t9 -31z" />
<glyph unicode="&#x22;" horiz-adv-x="335" d="M64 763l3 3q22 3 44 3l10 -11l-21 -245h-19l-6 123zM214 763l3 3q22 3 44 3l10 -11l-21 -245h-19l-6 123z" />
<glyph unicode="#" horiz-adv-x="760" d="M204 -10l-28 2l-8 8l48 195h-144l-8 8l5 28h156l56 224h-142l-8 8l5 28h154l50 204l28 -2l8 -8l-48 -194h180l50 204l28 -2l8 -8l-48 -194h142l8 -8l-4 -28h-155l-55 -224h144l8 -8l-4 -28h-157l-51 -205l-28 2l-8 8l48 195h-179zM264 231h179l56 224h-180z" />
<glyph unicode="$" horiz-adv-x="492" d="M259 -137l-28 -3l-7 7v123q-53 1 -97.5 13t-51.5 24q-9 15 -9 56q0 48 7 82h15q15 -90 38 -113q27 -27 116 -27q66 0 102.5 37t36.5 92q0 50 -31.5 89t-76.5 65.5t-90 54.5t-76.5 70.5t-31.5 98.5q0 71 45 114t119 48v133l28 3l7 -7v-128q47 -1 81.5 -12.5t45.5 -24.5 q6 -7 6 -46q0 -44 -6 -92h-16q-12 90 -35 113q-28 27 -99 27q-61 0 -96 -34t-35 -93q0 -49 31.5 -87t76.5 -64.5t90 -54t76.5 -70.5t31.5 -99q0 -71 -43.5 -116t-123.5 -51v-128z" />
<glyph unicode="%" horiz-adv-x="928" d="M689 695l-422 -705h-39l421 705h40zM78 483q-2 89 38.5 145.5t113.5 56.5q72 0 110.5 -55.5t39.5 -143.5q2 -91 -37.5 -150.5t-113.5 -59.5q-75 0 -112.5 56.5t-38.5 150.5zM113 483q1 -83 30 -132t87 -49t87.5 51.5t27.5 132.5q-1 78 -29.5 125.5t-85.5 47.5 q-58 0 -88.5 -48.5t-28.5 -127.5zM548 197q-2 89 38.5 145.5t113.5 56.5q72 0 110.5 -55.5t39.5 -143.5q2 -91 -37.5 -150.5t-113.5 -59.5q-75 0 -112.5 56.5t-38.5 150.5zM583 197q1 -83 30 -132t87 -49t87.5 51.5t27.5 132.5q-1 78 -29.5 125.5t-85.5 47.5 q-58 0 -88.5 -48.5t-28.5 -127.5z" />
<glyph unicode="&#x26;" horiz-adv-x="762" d="M310 -10q-99 0 -162.5 55t-63.5 139q0 59 33.5 110t86.5 75q-65 79 -65 159q0 71 53.5 119t126.5 48q71 0 113 -38t42 -98q0 -44 -31 -44q-12 0 -20 4q3 18 3 30q-2 48 -31.5 80t-80.5 32q-53 0 -91.5 -38t-38.5 -93q0 -45 20.5 -84t64.5 -86l228 -240q37 59 37 136 q0 59 -32 97q8 10 25 10q25 0 38.5 -29t13.5 -72q0 -99 -54 -170q49 -48 93 -62t96 0l4 -9q-31 -31 -79 -31q-38 0 -70 16t-72 54q-75 -70 -187 -70zM129 192q0 -74 52.5 -120.5t131.5 -46.5q96 0 157 61q-14 13 -47 48l-185 196l-8.5 8.5t-7.5 8.5q-41 -22 -67 -64.5 t-26 -90.5z" />
<glyph unicode="'" horiz-adv-x="185" d="M64 763l3 3q22 3 44 3l10 -11l-21 -245h-19l-6 123z" />
<glyph unicode="(" horiz-adv-x="344" d="M300 -180l-13 -13q-87 75 -135 199t-48 275t48 275t135 199l13 -13q-72 -75 -112 -196t-39 -265q-1 -144 39 -265t112 -196z" />
<glyph unicode=")" horiz-adv-x="344" d="M44 742l13 13q87 -75 135 -199t48 -275t-48 -275t-135 -199l-13 13q72 75 112 196t39 265q1 144 -39 265t-112 196z" />
<glyph unicode="*" horiz-adv-x="448" d="M244 507q0 -22 -20 -22t-20 22q0 13 6.5 47.5t7.5 54.5q-18 -12 -44.5 -34.5t-37.5 -28.5q-19 -11 -29 7q-10 17 9 28q11 6 44 18t51 21q-18 9 -51 21t-44 18q-19 11 -9 29q10 17 29 6q11 -6 37.5 -28.5t44.5 -34.5q-1 20 -7.5 54.5t-6.5 47.5q0 22 20 22t20 -22 q0 -13 -6.5 -47.5t-7.5 -54.5q18 12 44.5 34.5t37.5 28.5q19 11 29 -6q10 -18 -9 -29q-11 -6 -44 -18t-51 -21q18 -9 51 -21t44 -18q19 -11 9 -28q-10 -18 -29 -7q-11 6 -37.5 28.5t-44.5 34.5q1 -20 7.5 -54.5t6.5 -47.5z" />
<glyph unicode="+" d="M480 322h-180v-175h-40v175h-185v35q126 3 185 3v177h40v-176q69 1 177 1l8 -8z" />
<glyph unicode="," horiz-adv-x="221" d="M64 -180q41 68 54 170h-4q-20 0 -32 12t-12 32q0 18 12.5 31t32.5 13t31 -14.5t11 -38.5q0 -44 -23 -105t-58 -109z" />
<glyph unicode="-" horiz-adv-x="380" d="M48 250v35h284v-35h-284z" />
<glyph unicode="." horiz-adv-x="208" d="M103 -10q-17 0 -28 12t-11 29q0 19 12 33t30 14t28 -11t10 -29q0 -20 -10.5 -34t-30.5 -14z" />
<glyph unicode="/" horiz-adv-x="394" d="M123 -10l-31 5l-8 8l188 752l30 -5l8 -8z" />
<glyph unicode="0" horiz-adv-x="562" d="M56 343q-2 156 58.5 254t168.5 98q107 0 164 -96t59 -251q2 -156 -56.5 -257t-167.5 -101q-112 0 -168 96.5t-58 256.5zM101 343q2 -143 47.5 -230.5t134.5 -87.5t134.5 91.5t43.5 231.5q-2 139 -46.5 225.5t-132.5 86.5q-89 0 -136 -88.5t-45 -228.5z" />
<glyph unicode="1" horiz-adv-x="314" d="M176 35l95 -19l-2 -16h-226l-2 16l63 12q20 4 26 10t6 22v586l-93 5l-2 14l125 30l10 -10v-650z" />
<glyph unicode="2" horiz-adv-x="508" d="M55 0l-7 32q34 37 88 93.5t83 87.5t66 75.5t55 77t31.5 72t13.5 78.5q0 65 -37.5 103.5t-103.5 38.5q-101 0 -178 -104l-13 6q31 62 83.5 98.5t119.5 36.5q80 0 126.5 -50t46.5 -126q0 -26 -4 -51t-17 -52.5t-22 -47t-34 -52t-37 -48.5t-48.5 -54.5t-50.5 -53 t-59.5 -60.5t-61.5 -62h256q38 0 53.5 20.5t33.5 86.5l14 -1q0 -75 -19 -144h-378z" />
<glyph unicode="3" horiz-adv-x="482" d="M121 319l-2 30q242 51 242 197q0 47 -35.5 79t-90.5 32q-107 0 -187 -113l-12 7q32 68 86 106t120 38q71 0 117 -41.5t46 -105.5q0 -78 -56.5 -127.5t-136.5 -71.5q91 -2 152.5 -49t61.5 -124q0 -78 -65.5 -132t-167.5 -54q-80 0 -128.5 30.5t-48.5 80.5q0 46 41 70l9 -7 q-8 -26 -8 -45q0 -99 139 -99q81 0 134.5 42.5t54.5 112.5q-1 71 -61 109t-144 38q-30 0 -60 -3z" />
<glyph unicode="4" horiz-adv-x="557" d="M24 195l340 500l30 -5v-484h123l-8 -38h-115v-168h-40v168h-318zM73 206h281v424z" />
<glyph unicode="5" horiz-adv-x="498" d="M86 373v312h338q2 -75 -11 -145h-18q-6 72 -13 89.5t-40 17.5h-218v-256q13 1 40 1q128 0 207 -53t79 -151q0 -84 -64.5 -141t-160.5 -57q-81 0 -133 31t-52 81q0 45 41 69l9 -7q-8 -24 -8 -47q0 -46 39.5 -71.5t109.5 -25.5q81 0 129 46.5t48 118.5q0 94 -80 138.5 t-232 39.5z" />
<glyph unicode="6" horiz-adv-x="530" d="M482 199q0 -94 -61.5 -151.5t-147.5 -57.5q-96 0 -156.5 74t-60.5 199q0 171 109 289t273 143l6 -26q-138 -29 -231.5 -119.5t-110.5 -232.5q84 77 183 77q88 0 142.5 -53.5t54.5 -141.5zM98 255q0 -104 49.5 -167.5t127.5 -63.5q70 0 117.5 48.5t47.5 123.5 q0 73 -43 118.5t-120 45.5q-47 0 -95 -22t-84 -63v-20z" />
<glyph unicode="7" horiz-adv-x="486" d="M457 685l5 -33q-97 -112 -167.5 -296t-82.5 -356h-41q12 161 83 344t165 303h-298q-33 0 -40.5 -17.5t-13.5 -89.5h-18q-11 63 -8 145h416z" />
<glyph unicode="8" horiz-adv-x="511" d="M463 158q0 -74 -59.5 -121.5t-153.5 -47.5q-88 0 -145 45.5t-57 115.5q0 63 48.5 118t123.5 84q-65 37 -100.5 78t-35.5 103q0 68 52 115t130 47t124.5 -42.5t46.5 -110.5q0 -63 -37.5 -113.5t-93.5 -81.5q36 -19 59 -34.5t48.5 -38.5t37.5 -52t12 -64zM126 535 q0 -32 11.5 -58t37 -47.5t47 -35t58.5 -33.5q49 28 83 75t34 105q0 53 -36 87.5t-97 34.5q-60 0 -99 -36.5t-39 -91.5zM90 158q0 -60 46.5 -98.5t116.5 -38.5q69 0 118.5 38t49.5 100q0 39 -26 73t-51 50t-79 45q-12 7 -18 10q-71 -30 -114 -76.5t-43 -102.5z" />
<glyph unicode="9" horiz-adv-x="531" d="M475 427q0 -178 -106 -295t-277 -142l-5 27q136 30 230.5 117.5t111.5 232.5q-71 -76 -180 -76q-88 0 -144.5 52.5t-56.5 138.5q0 95 63.5 154t147.5 59q99 0 157.5 -75.5t58.5 -192.5zM90 485q0 -72 44.5 -116t120.5 -44q46 0 94 22.5t84 63.5v17q0 101 -46.5 167 t-128.5 66q-73 0 -120.5 -49t-47.5 -127z" />
<glyph unicode=":" horiz-adv-x="208" d="M103 317q-17 0 -28 12t-11 29q0 19 12 33t30 14t28 -11t10 -29q0 -20 -10.5 -34t-30.5 -14zM103 -10q-17 0 -28 12t-11 29q0 19 12 33t30 14t28 -11t10 -29q0 -20 -10.5 -34t-30.5 -14z" />
<glyph unicode=";" horiz-adv-x="221" d="M104 317q-17 0 -28 12t-11 29q0 19 12 33t30 14t28 -11t10 -29q0 -20 -10.5 -34t-30.5 -14zM64 -180q41 68 54 170h-4q-20 0 -32 12t-12 32q0 18 12.5 31t32.5 13t31 -14.5t11 -38.5q0 -44 -23 -105t-58 -109z" />
<glyph unicode="&#x3c;" d="M470 117l-405 222l4 16q259 142 400 210v-45l-335 -175l336 -183v-45z" />
<glyph unicode="=" d="M480 419h-405v35q150 5 402 5l8 -8zM480 226h-405v35q150 5 402 5l8 -8z" />
<glyph unicode="&#x3e;" d="M90 117v45l336 183l-335 175v45q141 -68 400 -210l4 -16z" />
<glyph unicode="?" horiz-adv-x="416" d="M214 222l-8 -8q-18 1 -29 12t-11 30q0 23 18.5 44t45 40t53.5 42t45.5 59.5t18.5 82.5q0 64 -35 101.5t-96 37.5q-63 0 -103.5 -36.5t-40.5 -91.5q0 -17 9 -49q-12 -6 -22 -6q-15 0 -25 14t-10 37q0 67 56.5 115.5t139.5 48.5q74 0 123 -47.5t49 -126.5q0 -47 -23 -90 t-46.5 -65t-60 -49.5t-40.5 -30.5q-8 -7 -8 -31v-33zM234 37q0 -19 -9.5 -33t-27.5 -14q-16 0 -25.5 12t-9.5 31t10.5 33t27.5 14q16 0 25 -12t9 -31z" />
<glyph unicode="@" horiz-adv-x="1091" d="M758 30q86 0 156 93.5t70 231.5q0 158 -101 260t-258 102q-72 0 -146 -24.5t-140.5 -72.5t-118.5 -112t-82.5 -149.5t-30.5 -179.5q0 -170 106 -283t268 -113q63 0 120.5 13.5t89.5 28.5t76 40l15 -25q-119 -95 -293 -95q-187 0 -306 122t-119 304q0 127 50.5 238.5 t131 186t181.5 117t203 42.5q176 0 286.5 -114.5t110.5 -288.5q0 -147 -81.5 -254.5t-193.5 -107.5q-70 0 -102 51t-20 129l13 86q-28 -64 -60 -119.5t-76.5 -101t-83.5 -45.5q-34 0 -55 33t-21 93q0 99 40.5 189t110 145t148.5 55q51 0 93 -20l-9 -39l-43 -186 q-25 -105 -6 -167.5t77 -62.5zM392 117q0 -38 12 -62.5t33 -24.5q32 0 86 75.5t97 165.5t57 144l11 44q-27 11 -56 11q-88 0 -164 -108.5t-76 -244.5z" />
<glyph unicode="A" horiz-adv-x="711" d="M344 685h23l218 -616q6 -18 13.5 -25.5t22.5 -10.5l58 -13l-2 -20h-212l-2 20l86 19l-75 216l-247 -4l-73 -211l85 -20l-2 -20h-203l-2 20l56 13q28 6 38 36zM238 285h226l-113 325z" />
<glyph unicode="B" horiz-adv-x="577" d="M61 665l2 20h216q91 0 144 -45t53 -125q0 -64 -31.5 -104.5t-77.5 -58.5q72 -17 113 -61t41 -109q0 -88 -61 -135t-164 -47h-233l-2 20l58 13q16 4 21.5 10t5.5 20v559q0 14 -5.5 20t-21.5 10zM271 655h-83v-292h93q73 0 114 42t41 109t-43.5 104t-121.5 37zM276 333h-88 v-303h108q84 0 134 40t50 111t-55 111.5t-149 40.5z" />
<glyph unicode="C" horiz-adv-x="626" d="M399 -10q-161 0 -248 93.5t-87 259.5q0 160 92.5 256t232.5 96q89 0 149 -30q3 -20 3 -46q0 -58 -6 -99h-15q-5 21 -16 63.5t-17 63.5q-44 13 -97 13q-122 0 -201.5 -86.5t-79.5 -230.5q0 -147 77.5 -232.5t209.5 -85.5q58 0 104 13q6 21 17 63.5t16 63.5h15q6 -44 6 -85 q0 -42 -3 -60q-62 -30 -152 -30z" />
<glyph unicode="D" horiz-adv-x="665" d="M601 342q0 -157 -88 -249.5t-243 -92.5h-207l-2 20l58 13q16 4 21.5 10t5.5 20v559q0 14 -5.5 20t-21.5 10l-58 13l2 20h207q155 0 243 -92.5t88 -250.5zM266 653h-78v-621h78q139 0 214.5 83t75.5 227t-75.5 227.5t-214.5 83.5z" />
<glyph unicode="E" horiz-adv-x="565" d="M188 360l222 5l-2 -39l-220 4v-300h148q68 0 113 5l34 130h15q3 -33 3 -75q0 -54 -6 -90h-432l-2 20l58 13q16 4 21.5 10t5.5 20v559q0 14 -5.5 20t-21.5 10l-58 13l2 20h422q6 -36 6 -90q0 -37 -3 -75h-15l-34 130q-68 5 -113 5h-138v-295z" />
<glyph unicode="F" horiz-adv-x="531" d="M188 39l105 -19l-2 -20h-228l-2 20l58 13q16 4 21.5 10t5.5 20v559q0 14 -5.5 20t-21.5 10l-58 13l2 20h422q6 -36 6 -90q0 -37 -3 -75h-15l-34 130q-68 5 -113 5h-138v-310l222 5l-2 -39l-220 4v-276z" />
<glyph unicode="G" horiz-adv-x="683" d="M389 -10q-155 0 -240 95t-85 258q0 157 93 254.5t232 97.5q99 0 159 -30q3 -20 3 -46q0 -48 -6 -99h-15l-33 127q-43 13 -107 13q-121 0 -201 -87.5t-80 -229.5q0 -145 75 -231.5t202 -86.5q68 0 121 16v240l-85 19l2 20h208l2 -20l-58 -13q-16 -4 -21.5 -10t-5.5 -20 v-237q-62 -30 -160 -30z" />
<glyph unicode="H" horiz-adv-x="742" d="M188 39l85 -19l-2 -20h-208l-2 20l58 13q16 4 21.5 10t5.5 20v583l-85 19l2 20h208l2 -20l-58 -13q-16 -4 -21.5 -10t-5.5 -20v-257h366v281l-85 19l2 20h208l2 -20l-58 -13q-16 -4 -21.5 -10t-5.5 -20v-583l85 -19l-2 -20h-208l-2 20l58 13q16 4 21.5 10t5.5 20v267 h-366v-291z" />
<glyph unicode="I" horiz-adv-x="334" d="M188 39l85 -19l-2 -20h-208l-2 20l58 13q16 4 21.5 10t5.5 20v583l-85 19l2 20h208l2 -20l-58 -13q-16 -4 -21.5 -10t-5.5 -20v-583z" />
<glyph unicode="J" horiz-adv-x="319" d="M147 646l-85 19l2 20h208l2 -20l-58 -13q-16 -4 -21.5 -10t-5.5 -20v-547q0 -89 -24 -137.5t-87 -107.5l-17 17q27 38 37 54.5t24.5 48.5t19.5 68t5 86v542z" />
<glyph unicode="K" horiz-adv-x="669" d="M188 39l85 -19l-2 -20h-208l-2 20l58 13q16 4 21.5 10t5.5 20v583l-85 19l2 20h208l2 -20l-58 -13q-16 -4 -21.5 -10t-5.5 -20v-274l145 2l180 296l-85 19l2 20h205l2 -20l-59 -13q-23 -5 -43 -36l-169 -275l143 -241q22 -36 40 -50t51 -23l28 -7l-2 -20h-42 q-40 0 -62.5 16.5t-44.5 53.5l-144 245h-145v-276z" />
<glyph unicode="L" horiz-adv-x="548" d="M146 646l-85 19l2 20h208l2 -20l-58 -13q-16 -4 -21.5 -10t-5.5 -20v-592h139q74 0 120 11q10 30 20 79l7 35h15q3 -33 3 -75q0 -48 -6 -80h-423l-2 20l58 13q16 4 21.5 10t5.5 20v583z" />
<glyph unicode="M" horiz-adv-x="999" d="M175 39l85 -19l-2 -20h-200l-2 20l58 13q16 4 20.5 9.5t6.5 20.5l76 582l-86 20l2 20h132l241 -627l233 627h130l2 -20l-87 -20l77 -582q2 -15 6.5 -20.5t20.5 -9.5l58 -13l-2 -20h-205l-2 20l43 10l42 9l-75 561l-160 -415l-69 -185h-34l-69 185l-167 428z" />
<glyph unicode="N" horiz-adv-x="736" d="M181 39l105 -19l-2 -20h-221l-2 20l58 13q16 4 21.5 10t5.5 20v559q0 14 -5.5 20t-21.5 10l-58 13l2 20h118l390 -610v571l-85 19l2 20h201l2 -20l-58 -13q-16 -4 -21.5 -10t-5.5 -20v-622h-35l-390 606v-567z" />
<glyph unicode="O" horiz-adv-x="648" d="M64 343q0 161 74.5 256.5t193.5 95.5q113 0 182.5 -94.5t69.5 -252.5q0 -161 -71 -259.5t-190 -98.5q-120 0 -189.5 94.5t-69.5 258.5zM109 343q0 -146 59.5 -232t157.5 -86q97 0 155 89t58 234q0 142 -57 227t-150 85q-100 0 -161.5 -86t-61.5 -231z" />
<glyph unicode="P" horiz-adv-x="558" d="M188 39l105 -19l-2 -20h-228l-2 20l58 13q16 4 21.5 10t5.5 20v559q0 14 -5.5 20t-21.5 10l-58 13l2 20h230q96 0 160.5 -56.5t64.5 -156.5q0 -95 -65.5 -148.5t-164.5 -53.5h-100v-231zM283 650h-95v-345h90q93 0 144 42.5t51 124.5q0 84 -50.5 131t-139.5 47z" />
<glyph unicode="Q" horiz-adv-x="648" d="M64 343q0 161 74.5 256.5t193.5 95.5q113 0 182.5 -94.5t69.5 -252.5q0 -149 -61.5 -245.5t-165.5 -110.5q169 -105 312 -105q13 0 19 1l1 -1q4 -6 4 -15q0 -35 -44 -35q-61 0 -162.5 44.5t-187.5 109.5q-109 10 -172 103.5t-63 248.5zM109 343q0 -146 59.5 -232 t157.5 -86q97 0 155 89t58 234q0 142 -57 227t-150 85q-100 0 -161.5 -86t-61.5 -231z" />
<glyph unicode="R" horiz-adv-x="628" d="M188 39l85 -19l-2 -20h-208l-2 20l58 13q16 4 21.5 10t5.5 20v559q0 14 -5.5 20t-21.5 10l-58 13l2 20h215q96 0 160.5 -50.5t64.5 -139.5q0 -69 -37 -115t-98 -66l114 -214q19 -37 37 -49.5t54 -23.5l23 -7l-2 -20h-37q-41 0 -64 16.5t-43 53.5l-124 234q-21 -4 -48 -4 h-90v-261zM268 650h-80v-317h80q90 0 140 41t50 121q0 74 -50.5 114.5t-139.5 40.5z" />
<glyph unicode="S" horiz-adv-x="482" d="M226 -10q-56 0 -104.5 12t-56.5 25q-9 15 -9 56q0 48 7 82h15q15 -90 38 -113q27 -27 116 -27q67 0 108 37.5t41 91.5q0 50 -32.5 89t-79 65.5t-93 54.5t-79 70.5t-32.5 98.5q0 76 56 119.5t140 43.5q52 0 90 -11.5t50 -25.5q6 -7 6 -46q0 -44 -6 -92h-16q-12 90 -35 113 q-28 27 -99 27q-62 0 -101.5 -34.5t-39.5 -92.5q0 -49 32.5 -87t79 -64.5t93 -54t79 -70.5t32.5 -99q0 -75 -54.5 -121.5t-145.5 -46.5z" />
<glyph unicode="T" horiz-adv-x="584" d="M313 39l85 -19l-2 -20h-208l-2 20l58 13q16 4 21.5 10t5.5 20v590h-74q-72 0 -120 -10q-9 -34 -19 -84l-8 -39h-15q-3 39 -3 75q0 54 6 90h508q6 -36 6 -90q0 -36 -3 -75h-15l-8 39q-10 50 -19 84q-48 10 -120 10h-74v-614z" />
<glyph unicode="U" horiz-adv-x="657" d="M109 220v426l-85 19l2 20h208l2 -20l-58 -13q-16 -4 -21.5 -10t-5.5 -20v-405q0 -90 51 -141t129 -51t129 50t51 142v429l-85 19l2 20h201l2 -20l-85 -19v-426q0 -111 -61.5 -170.5t-158.5 -59.5q-94 0 -155.5 60t-61.5 170z" />
<glyph unicode="V" horiz-adv-x="711" d="M367 0h-23l-218 616q-6 18 -13.5 25.5t-22.5 10.5l-58 13l2 20h211l2 -20l-85 -19l198 -571l197 571l-85 19l2 20h203l2 -20l-56 -13q-28 -6 -38 -36z" />
<glyph unicode="W" horiz-adv-x="1056" d="M362 0h-23l-213 616q-6 18 -13.5 25.5t-22.5 10.5l-58 13l2 20h211l2 -20l-85 -19l193 -571l155 460l-28 81q-6 18 -13.5 25.5t-22.5 10.5l-59 13l2 20h213l2 -20l-86 -19l192 -571l192 571l-85 19l2 20h203l2 -20l-56 -13q-28 -6 -38 -36l-213 -616h-23l-165 481z" />
<glyph unicode="X" horiz-adv-x="683" d="M124 69l193 276l-188 271q-13 19 -20 25.5t-21 10.5l-43 13l2 20h195l2 -20l-85 -19l188 -271l186 271l-85 19l2 20h186l2 -20l-44 -13q-19 -5 -40 -36l-187 -270l192 -277q1 -2 3 -5q15 -22 26 -27q4 -2 11 -4l44 -13l-2 -20h-195l-2 20l85 19l-193 278l-191 -278 l85 -19l-2 -20h-186l-2 20l44 13q19 5 40 36z" />
<glyph unicode="Y" horiz-adv-x="671" d="M356 39l85 -19l-2 -20h-208l-2 20l58 13q16 4 21.5 10t5.5 20v203l-187 350q-10 19 -17 26t-20 10l-58 13l2 20h211l2 -20l-85 -19l178 -346h1l176 346l-85 19l2 20h203l2 -20l-56 -13q-16 -4 -24.5 -11.5t-17.5 -24.5l-185 -352v-225z" />
<glyph unicode="Z" horiz-adv-x="594" d="M516 0h-439l-5 30l387 625h-216q-66 0 -113 -5l-34 -130h-15q-3 33 -3 65q0 59 6 100h418l5 -30l-387 -625h237q66 0 113 5l34 130h15q3 -33 3 -65q0 -60 -6 -100z" />
<glyph unicode="[" horiz-adv-x="377" d="M313 -193h-169v953h169v-24h-127v-905h127v-24z" />
<glyph unicode="\" horiz-adv-x="394" d="M271 -10l-187 752l8 8l30 5l188 -752l-8 -8z" />
<glyph unicode="]" horiz-adv-x="377" d="M64 755h169v-953h-169v24h127v905h-127v24z" />
<glyph unicode="^" horiz-adv-x="526" d="M135 210h-45l142 335h56l147 -335h-44l-131 299z" />
<glyph unicode="_" horiz-adv-x="512" d="M48 -145v35h416v-35h-416z" />
<glyph unicode="`" horiz-adv-x="367" d="M267 593l-12 -12q-35 27 -53.5 41.5t-47 38.5t-41.5 41.5t-13 29.5q0 23 32 23h4l5 -2q31 -58 126 -160z" />
<glyph unicode="a" horiz-adv-x="496" d="M249 506q65 0 100 -34t35 -98q0 -26 -2 -132.5t-2 -153.5q0 -37 10.5 -51t38.5 -14q22 0 44 7l4 -9q-31 -31 -74 -31q-28 0 -45.5 18.5t-19.5 50.5q-67 -69 -150 -69q-58 0 -91 29.5t-33 80.5q0 71 78 119t198 51q2 96 2 102q0 48 -27 74t-75 26q-50 0 -84.5 -30.5 t-34.5 -66.5q0 -17 7 -32q-9 -6 -21 -6q-15 0 -24 9.5t-9 25.5q0 46 55.5 90t119.5 44zM107 102q0 -77 87 -77q79 0 144 72q0 53 2 143q-105 -3 -169 -41t-64 -97z" />
<glyph unicode="b" horiz-adv-x="540" d="M121 -10l-10 5v715l-73 6l-2 14q47 16 105 25l10 -10v-301q59 61 140 61q92 0 142.5 -68.5t50.5 -186.5q0 -117 -58.5 -188.5t-157.5 -71.5q-58 0 -118 24zM270 23q81 0 126 61t45 166q0 101 -40.5 161.5t-111.5 60.5q-77 0 -138 -69v-350q53 -30 119 -30z" />
<glyph unicode="c" horiz-adv-x="443" d="M411 70q-25 -37 -66 -58.5t-88 -21.5q-92 0 -146.5 66.5t-54.5 178.5q0 119 56.5 194.5t144.5 75.5q61 0 102.5 -36t41.5 -89q0 -43 -29 -43q-10 0 -18 3q3 18 3 30q0 46 -28.5 74t-75.5 28q-68 0 -111 -61t-43 -157q0 -107 44 -168t122 -61t134 55z" />
<glyph unicode="d" horiz-adv-x="544" d="M525 21q-31 -31 -74 -31q-28 0 -45 17.5t-19 49.5q-61 -67 -146 -67q-82 0 -133.5 63.5t-51.5 182.5q0 123 66.5 196t157.5 73q52 0 106 -18v223l-93 6l-2 14q26 9 125 25l10 -10v-641q0 -43 11 -62t40 -19q20 0 44 7zM99 235q0 -101 41 -156t104 -55q81 0 142 73v348 q-48 27 -108 27q-79 0 -129 -61t-50 -176z" />
<glyph unicode="e" horiz-adv-x="459" d="M411 70q-25 -37 -67 -58.5t-90 -21.5q-91 0 -144.5 66.5t-53.5 178.5q0 119 56.5 194.5t144.5 75.5q70 0 111 -48.5t41 -132.5q0 -18 -2 -56l-9 -10h-299v-4q0 -106 44.5 -167.5t121.5 -61.5q78 0 134 55zM253 472q-63 0 -104 -51t-49 -135l265 5q1 15 1 35 q0 70 -29.5 108t-83.5 38z" />
<glyph unicode="f" horiz-adv-x="309" d="M162 35l95 -19l-2 -16h-206l-2 16l48 13q17 5 22 10.5t5 20.5v400h-73l-2 16l75 14v18q0 113 50 180t132 67q47 0 80 -25.5t33 -58.5q0 -12 -7 -19.5t-18 -7.5q-5 0 -7 1q-21 77 -92 77q-61 0 -96 -53.5t-35 -148.5v-30h137v-30h-137v-425z" />
<glyph unicode="g" horiz-adv-x="471" d="M76 317q0 82 46 135t117 53q46 0 84 -27q24 14 58.5 26.5t48.5 12.5q17 0 17 -23q0 -11 -2 -19q-3 -14 -22 -14q-54 0 -80 -2q43 -49 43 -126q0 -82 -43 -132.5t-114 -50.5q-18 0 -38 5q-27 -29 -27 -60q0 -42 49 -46l88 -9q67 -7 104 -42t37 -92q0 -71 -61 -116 t-156 -45q-82 0 -133 37.5t-51 98.5q0 59 53 102l12 -10q-22 -38 -22 -76q0 -56 40 -87.5t110 -31.5q73 0 119 34t46 87q0 44 -28.5 70t-81.5 31l-85 8q-37 4 -57 24.5t-20 50.5q0 39 39 80q-41 19 -65.5 60t-24.5 94zM343 322q0 71 -28.5 110.5t-79.5 39.5t-83.5 -39.5 t-32.5 -101.5q0 -65 31 -106t80 -42q52 -1 82.5 36.5t30.5 102.5z" />
<glyph unicode="h" horiz-adv-x="568" d="M154 35l75 -19l-2 -16h-186l-2 16l48 13q17 5 22 10.5t5 20.5v650l-73 6l-2 14q47 16 105 25l10 -10v-304q75 64 159 64q69 0 105 -39t36 -113v-318l75 -19l-2 -16h-186l-2 16l48 13q17 5 22 10.5t5 20.5v293q0 119 -108 119q-82 0 -152 -67v-370z" />
<glyph unicode="i" horiz-adv-x="276" d="M167 665q0 -19 -9.5 -33t-27.5 -14q-16 0 -25.5 12t-9.5 31t10.5 33t27.5 14q16 0 25 -12t9 -31zM162 35l75 -19l-2 -16h-186l-2 16l48 13q17 5 22 10.5t5 20.5v400l-73 6l-2 14q47 16 105 25l10 -10v-460z" />
<glyph unicode="j" horiz-adv-x="256" d="M160 665q0 -19 -9.5 -33t-27.5 -14q-16 0 -25.5 12t-9.5 31t10.5 33t27.5 14q16 0 25 -12t9 -31zM29 -241q34 48 47.5 71.5t26 72.5t12.5 116v441l-73 6l-2 14q47 16 105 25l10 -10v-505q0 -89 -24 -137.5t-87 -107.5z" />
<glyph unicode="k" horiz-adv-x="528" d="M154 35l75 -19l-2 -16h-186l-2 16l48 13q17 5 22 10.5t5 20.5v651l-73 6l-2 14q47 16 105 25l10 -10v-466h114l113 180l-75 19l2 16h177l2 -16l-44 -13q-19 -5 -40 -36l-105 -155l108 -181q33 -55 64 -64l34 -10l-2 -20h-36q-32 0 -50 14t-38 48l-111 188h-113v-215z" />
<glyph unicode="l" horiz-adv-x="268" d="M154 35l75 -19l-2 -16h-186l-2 16l48 13q17 5 22 10.5t5 20.5v651l-73 6l-2 14q47 16 105 25l10 -10v-711z" />
<glyph unicode="m" horiz-adv-x="856" d="M162 35l75 -19l-2 -16h-186l-2 16l48 13q17 5 22 10.5t5 20.5v400l-73 6l-2 14q47 16 105 25l10 -10v-54q75 64 154 64q89 0 121 -69q71 69 159 69q71 0 108.5 -39t37.5 -113v-318l75 -19l-2 -16h-186l-2 16l48 13q17 5 22 10.5t5 20.5v293q0 119 -110 119 q-80 0 -146 -64q6 -24 6 -55v-318l75 -19l-2 -16h-186l-2 16l48 13q17 5 22 10.5t5 20.5v293q0 119 -103 119q-77 0 -147 -67v-370z" />
<glyph unicode="n" horiz-adv-x="576" d="M162 35l75 -19l-2 -16h-186l-2 16l48 13q17 5 22 10.5t5 20.5v400l-73 6l-2 14q47 16 105 25l10 -10v-54q75 64 159 64q69 0 105 -39t36 -113v-318l75 -19l-2 -16h-186l-2 16l48 13q17 5 22 10.5t5 20.5v293q0 119 -108 119q-82 0 -152 -67v-370z" />
<glyph unicode="o" horiz-adv-x="498" d="M442 250q0 -122 -55 -190.5t-140 -69.5q-84 -1 -137.5 68.5t-53.5 192.5q0 119 59.5 186.5t140.5 67.5q79 0 132.5 -67t53.5 -188zM99 249q0 -97 40.5 -161.5t107.5 -64.5q71 0 111.5 56.5t40.5 165.5q0 101 -39.5 164t-104.5 63q-70 0 -113 -57t-43 -166z" />
<glyph unicode="p" horiz-adv-x="543" d="M154 -210l95 -19l-2 -16h-206l-2 16l48 13q17 5 22 10.5t5 20.5v645l-73 6l-2 14q47 16 105 25l10 -10v-51q63 61 140 61q94 0 143.5 -68t49.5 -187q0 -117 -59.5 -188.5t-156.5 -71.5q-59 0 -117 24v-224zM273 23q78 0 124.5 62t46.5 166q0 102 -39.5 161.5t-112.5 59.5 q-77 0 -138 -69v-350q53 -30 119 -30z" />
<glyph unicode="q" horiz-adv-x="532" d="M426 -210l75 -19l-2 -16h-186l-2 16l48 13q17 5 22 10.5t5 20.5v241q-60 -66 -145 -66q-82 0 -133.5 64.5t-51.5 186.5q0 121 66.5 192.5t157.5 71.5q54 0 112 -20l24 20l10 -5v-710zM278 472q-79 0 -129 -60t-50 -172q0 -103 41 -160t104 -57q82 0 142 74v348 q-48 27 -108 27z" />
<glyph unicode="r" horiz-adv-x="388" d="M162 35l95 -19l-2 -16h-206l-2 16l48 13q17 5 22 10.5t5 20.5v400l-73 6l-2 14q47 16 105 25l10 -10v-71q65 81 135 81q31 0 49 -15t18 -34q0 -22 -20 -34q-2 -1 -5 -2q-12 23 -25 34t-35 11q-57 0 -117 -85v-345z" />
<glyph unicode="s" horiz-adv-x="404" d="M187 -10q-37 0 -76 8.5t-47 18.5q-8 9 -8 50q0 42 6 78h15q8 -81 32 -105q17 -17 84 -17q51 0 81.5 24.5t30.5 66.5q0 36 -25 61.5t-61 42.5t-72 35t-61 49t-25 75q0 55 45 91.5t111 36.5q37 0 70.5 -8t42.5 -19q6 -6 6 -44q0 -44 -6 -84h-15q-7 87 -29 104 q-27 18 -74 18q-49 0 -78.5 -25.5t-29.5 -69.5q0 -35 25 -61.5t61 -43.5t72 -35t61 -48t25 -71q0 -57 -44.5 -92.5t-116.5 -35.5z" />
<glyph unicode="t" horiz-adv-x="405" d="M373 70q-25 -36 -62.5 -58t-76.5 -22q-55 0 -84 36t-29 104v330h-88l-2 16l90 14l20 150l20 -2v-148h185v-30h-185v-315q0 -120 81 -120q59 0 119 55z" />
<glyph unicode="u" horiz-adv-x="590" d="M119 160v300l-73 6l-2 14q47 16 105 25l10 -10v-335q0 -66 31 -101t91 -35q38 0 76.5 20t66.5 53v363l-73 6l-2 14q47 16 105 25l10 -10v-391q0 -44 11.5 -62.5t39.5 -18.5q19 0 44 7l4 -9q-31 -31 -74 -31q-59 0 -64 67q-28 -30 -69.5 -48.5t-82.5 -18.5 q-75 0 -114.5 43.5t-39.5 126.5z" />
<glyph unicode="v" horiz-adv-x="545" d="M437 430l-147 -430h-35l-147 430q-10 30 -36 36l-48 13l2 16h192l2 -16l-78 -19l136 -407h1l133 407l-77 19l2 16h182l2 -16l-46 -13q-29 -8 -38 -36z" />
<glyph unicode="w" horiz-adv-x="842" d="M439 495l157 -442h1l112 407l-77 19l2 16h182l2 -16l-46 -13q-30 -8 -38 -36l-125 -430h-35l-154 433l-151 -433h-35l-126 430q-5 17 -13 24.5t-23 11.5l-48 13l2 16h192l2 -16l-78 -19l116 -407h1l149 442h31z" />
<glyph unicode="x" horiz-adv-x="527" d="M140 460l129 -183l124 183l-75 19l2 16h176l2 -16l-44 -13q-9 -2 -16 -8t-9.5 -9t-14.5 -19l-129 -176l134 -189q17 -26 26 -31q5 -3 14 -5l44 -13l-2 -16h-185l-2 16l78 19l-134 190l-129 -190l75 -19l-2 -16h-176l-2 16l44 13q9 2 16 8t9.5 9t14.5 19l134 183l-129 182 q-1 2 -3 5q-15 22 -26 27q-4 2 -11 4l-44 13l2 16h185l2 -16z" />
<glyph unicode="y" horiz-adv-x="555" d="M36 495h192l2 -16l-78 -19l137 -406l133 406l-77 19l2 16h182l2 -16l-46 -13q-29 -8 -38 -36l-147 -430q-44 -129 -90.5 -192t-115.5 -63q-29 0 -49.5 14.5t-20.5 34.5q0 19 14 27l4 2q27 -38 66 -38q89 0 160 207l-150 438q-10 30 -36 36l-48 13z" />
<glyph unicode="z" horiz-adv-x="458" d="M402 66q-2 -43 -6 -66h-334l-6 30l300 435h-244l-30 -115h-15q-6 35 -6 82q2 41 6 63h329l6 -30l-300 -435h248l31 115h15q6 -33 6 -79z" />
<glyph unicode="{" horiz-adv-x="403" d="M104 295q105 0 105 94q0 42 -18.5 117.5t-18.5 118.5q0 63 43 97.5t121 34.5l3 -18q-67 -4 -95.5 -30.5t-28.5 -80.5q0 -42 18 -117.5t18 -119.5q0 -83 -69 -109q69 -26 69 -109q0 -44 -18 -119.5t-18 -117.5q0 -54 28.5 -80.5t95.5 -30.5l-3 -18q-78 0 -121 34.5 t-43 97.5q0 43 18.5 118.5t18.5 117.5q0 94 -105 94v26z" />
<glyph unicode="|" horiz-adv-x="328" d="M151 -255l-7 7v1000l33 3l7 -7v-1000z" />
<glyph unicode="}" horiz-adv-x="403" d="M299 295v-26q-105 0 -105 -94q0 -42 18.5 -117.5t18.5 -118.5q0 -63 -43 -97.5t-121 -34.5l-3 18q67 4 95.5 30.5t28.5 80.5q0 42 -18 117.5t-18 119.5q0 83 69 109q-69 26 -69 109q0 44 18 119.5t18 117.5q0 54 -28.5 80.5t-95.5 30.5l3 18q78 0 121 -34.5t43 -97.5 q0 -43 -18.5 -118.5t-18.5 -117.5q0 -94 105 -94z" />
<glyph unicode="~" horiz-adv-x="520" d="M382 218q-18 0 -125.5 27.5t-123.5 27.5q-13 0 -63 -62l-25 15q15 26 25.5 41t28.5 31t35 16q18 0 123 -27.5t126 -27.5q12 0 63 62l25 -15q-50 -88 -89 -88z" />
<glyph unicode="&#xa1;" horiz-adv-x="280" d="M104 458q0 19 9.5 33t27.5 14q16 0 25.5 -12t9.5 -31t-10.5 -33t-27.5 -14q-16 0 -25 12t-9 31zM169 -190l-3 -3l-15 -3q-16 -4 -29 -4q-14 0 -14 15q0 5 0.5 16t0.5 16l17 458h28z" />
<glyph unicode="&#xa2;" horiz-adv-x="469" d="M279 -137l-28 -3l-7 7v124q-88 7 -138 79.5t-50 197.5q0 111 51.5 188.5t136.5 87.5v133l28 3l7 -7v-129q55 -4 93.5 -39t38.5 -85q0 -43 -29 -43q-10 0 -18 3q3 18 3 30q0 46 -29 74t-75 28q-73 0 -118.5 -66.5t-45.5 -173.5q0 -114 45.5 -180.5t125.5 -66.5 q78 0 139 55l12 -10q-47 -72 -142 -79v-128z" />
<glyph unicode="&#xa3;" horiz-adv-x="581" d="M77 298l4 35h117q4 23 10.5 64t8.5 52q20 120 68.5 183.5t123.5 63.5q49 0 82 -31t33 -68q0 -32 -27 -36q-29 103 -104 103q-52 0 -83.5 -50.5t-49.5 -152.5l-22 -128h190l-4 -35h-192l-16 -89q-22 -124 -67 -182q20 -8 89.5 -43.5t123.5 -55t97 -19.5q37 0 63 13 q3 -7 3 -17q0 -41 -72 -41q-46 0 -105 25t-126.5 63.5t-95.5 50.5q-25 -19 -53 -19q-33 0 -33 25q0 15 14 24.5t36 9.5q14 0 33 -6q35 57 70 261h-116z" />
<glyph unicode="&#xa4;" horiz-adv-x="542" d="M453 133l-73 73q-50 -43 -118 -43q-63 0 -109 33l-63 -63l-26 26l62 62q-42 48 -42 116q0 73 48 126l-68 70l25 25l71 -70q46 35 108 35t110 -38l73 73l26 -26l-73 -73q40 -48 40 -112q0 -61 -38 -113q15 -15 39.5 -39t32.5 -32v-11zM264 488q-62 0 -101 -43.5 t-39 -102.5q0 -57 38.5 -100.5t102.5 -43.5t101.5 43t37.5 103q0 57 -39.5 100.5t-100.5 43.5z" />
<glyph unicode="&#xa5;" horiz-adv-x="671" d="M136 132v35h178v98h-178v35h178v2l-187 314q-17 27 -25 32q-5 3 -12 4l-58 13l2 20h211l2 -20l-84 -19l176 -308h2l175 308l-84 19l2 20h203l2 -20l-56 -13q-16 -3 -24 -10.5t-18 -25.5l-185 -316h180v-35h-180v-98h180v-35h-180v-12h-1v-81l85 -19l-2 -20h-208l-2 20 l58 13q16 4 21.5 10t5.5 20v57h1v12h-178z" />
<glyph unicode="&#xa6;" horiz-adv-x="328" d="M184 377l-23 -3l-17 7v371l33 3l7 -7v-371zM184 -252l-23 -3l-17 7v371l33 3l7 -7v-371z" />
<glyph unicode="&#xa7;" horiz-adv-x="521" d="M457 49q0 -97 -71 -158.5t-159 -61.5q-69 0 -116 22.5t-47 52.5q0 26 29 45l11 -2q28 -37 73.5 -58.5t99.5 -24.5q39 41 39 122q0 45 -26 94t-63 94t-74.5 91t-63 101t-25.5 109q1 97 71.5 158.5t158.5 61.5q67 0 115 -23t48 -52q0 -26 -29 -45l-11 2q-56 78 -171 83 q-41 -41 -41 -121q0 -47 26 -96t63 -92.5t74 -89t63 -101t26 -111.5zM107 480q0 -50 26 -102.5t63 -98t74 -90.5t63 -97.5t26 -102.5t-17 -86l7 -4q65 58 65 145q0 53 -26 105.5t-63 97l-74 89t-63 96.5t-26 103q0 50 17 86l-7 4q-65 -58 -65 -145z" />
<glyph unicode="&#xa8;" horiz-adv-x="460" d="M360 670q0 -20 -9 -34.5t-27 -14.5q-15 0 -24.5 12t-9.5 30q0 19 10.5 33.5t26.5 14.5q15 0 24 -11.5t9 -29.5zM170 670q0 -20 -9 -34.5t-27 -14.5q-15 0 -24.5 12t-9.5 30q0 19 10.5 33.5t26.5 14.5q15 0 24 -11.5t9 -29.5z" />
<glyph unicode="&#xa9;" horiz-adv-x="728" d="M364 -47q-127 0 -213.5 85.5t-86.5 211.5q0 122 88 208.5t212 86.5q127 0 213.5 -86t86.5 -209q0 -122 -88 -209.5t-212 -87.5zM364 -9q109 0 185.5 76t76.5 183t-76.5 182t-185.5 75q-108 0 -185 -75.5t-77 -181.5q0 -110 75 -184.5t187 -74.5zM479 135 q-36 -55 -104 -55q-63 0 -102.5 45t-39.5 120q0 76 39.5 125.5t99.5 49.5q42 0 70 -24t28 -60q0 -29 -26 -29q-11 0 -19 4q1 8 1 18q0 26 -15.5 42t-40.5 16q-42 0 -68 -38.5t-26 -98.5q0 -59 30.5 -97t72.5 -38q47 0 85 35z" />
<glyph unicode="&#xaa;" horiz-adv-x="441" d="M216 695q53 0 81.5 -27t28.5 -77q0 -20 -1.5 -101.5t-1.5 -117.5q0 -29 8.5 -40t31.5 -11q20 0 36 5l4 -7q-24 -26 -61 -26q-49 0 -54 54q-54 -54 -123 -54q-47 0 -74 23t-27 63q0 56 63.5 93.5t162.5 39.5q2 74 2 80q0 37 -22.5 57t-61.5 20q-41 0 -69 -23.5t-28 -51.5 q0 -15 5 -26q-8 -5 -17 -5q-12 0 -19.5 7.5t-7.5 20.5q0 36 45.5 70t98.5 34zM99 382q0 -60 71 -60q64 0 118 54q0 40 2 112q-86 -2 -138.5 -31t-52.5 -75z" />
<glyph unicode="&#xab;" horiz-adv-x="538" d="M253 29l-16 -8q-89 146 -149 201l-4 6v40q61 67 155 210l15 -9q-33 -69 -127 -222q59 -78 126 -218zM453 29l-16 -8q-89 146 -149 201l-4 6v40q61 67 155 210l15 -9q-33 -69 -127 -222q59 -78 126 -218z" />
<glyph unicode="&#xac;" d="M475 440v-203h-40v171h-370v35q152 5 402 5z" />
<glyph unicode="&#xae;" horiz-adv-x="728" d="M364 -47q-127 0 -213.5 85.5t-86.5 211.5q0 122 88 208.5t212 86.5q127 0 213.5 -86t86.5 -209q0 -122 -88 -209.5t-212 -87.5zM364 -9q109 0 185.5 76t76.5 183t-76.5 182t-185.5 75q-108 0 -185 -75.5t-77 -181.5q0 -110 75 -184.5t187 -74.5zM317 120l51 -13l-2 -22 h-137l-1 22l33 8q16 4 16 19v232q0 15 -16 19l-33 8l1 22h134q59 0 96 -26t37 -74q-1 -63 -69 -89l37 -65q25 -42 47 -48l20 -6l-1 -22l-25 -1q-26 -1 -39.5 9t-28.5 36l-50 87h-70v-96zM357 385h-40v-139h51q38 0 61.5 17.5t23.5 52.5q0 69 -96 69z" />
<glyph unicode="&#xaf;" horiz-adv-x="454" d="M100 653v34h254v-34h-254z" />
<glyph unicode="&#xb0;" horiz-adv-x="359" d="M190 460q-48 0 -80 31t-32 82t35.5 86.5t84.5 35.5q48 0 79.5 -31t31.5 -81q0 -51 -35.5 -87t-83.5 -36zM194 660q-35 0 -56.5 -24.5t-21.5 -60.5q0 -35 21.5 -57.5t55.5 -22.5q35 0 56.5 24.5t21.5 61.5q0 34 -21 56.5t-56 22.5z" />
<glyph unicode="&#xb1;" d="M475 409h-180v-178h-40v178h-185v35q129 3 185 3v174h40v-173q69 1 177 1l8 -8zM485 76h-405v35q150 5 402 5l8 -8z" />
<glyph unicode="&#xb2;" horiz-adv-x="382" d="M61 356l-5 21q18 16 56 50.5t53.5 49t41.5 41t36 43.5t19 39.5t9 43.5q0 38 -23.5 61.5t-62.5 23.5q-62 0 -112 -63l-9 4q19 39 52.5 62t77.5 23q52 0 82 -30t30 -77q0 -30 -12.5 -58.5t-42.5 -61t-57 -57t-78 -67.5q-17 -14 -26 -22h169q25 0 35 11t22 48l10 -1 q0 -45 -13 -84h-252z" />
<glyph unicode="&#xb3;" horiz-adv-x="382" d="M120 538l-1 18q77 14 117 38t40 67q0 29 -23 48.5t-59 19.5q-62 0 -118 -63l-8 4q46 85 133 85q48 0 78.5 -25t30.5 -65q0 -43 -36.5 -70.5t-83.5 -37.5q59 -3 97.5 -29.5t38.5 -71.5q0 -47 -42.5 -78.5t-108.5 -31.5q-54 0 -86.5 19t-32.5 49q0 27 31 41l6 -5 q-3 -8 -3 -21q0 -63 88 -63q50 0 82.5 23.5t32.5 64.5t-39 63.5t-94 22.5q-12 0 -40 -2z" />
<glyph unicode="&#xb4;" horiz-adv-x="367" d="M267 732q0 -12 -13 -29.5t-41.5 -41.5t-47 -38.5t-53.5 -41.5l-12 12q95 102 126 160l5 2h4q32 0 32 -23z" />
<glyph unicode="&#xb6;" horiz-adv-x="585" d="M252 -138q72 0 107 57t35 151v580h-74v-420h-31q-96 0 -160.5 62t-64.5 171q0 105 65.5 163.5t164.5 58.5h225l2 -20l-58 -13q-16 -4 -21.5 -10t-5.5 -20v-557q0 -113 -51.5 -174.5t-138.5 -61.5q-64 0 -103 32t-39 84q0 57 53 100l12 -10q-22 -40 -22 -78q0 -43 28 -69 t77 -26z" />
<glyph unicode="&#xb7;" horiz-adv-x="288" d="M143 225q-17 0 -28 12t-11 29q0 19 12 33t30 14t28 -11t10 -29q0 -20 -10.5 -34t-30.5 -14z" />
<glyph unicode="&#xb8;" horiz-adv-x="326" d="M122 -91l-3 5l15 86h31l-12 -64q73 -21 73 -69q0 -33 -36 -53t-86 -26l-4 15q83 21 83 59q0 32 -61 47z" />
<glyph unicode="&#xb9;" horiz-adv-x="270" d="M151 377l63 -12l-2 -9h-155l-1 9l40 7q14 3 18 6.5t4 13.5v332l-61 3l-1 8l89 20l6 -6v-372z" />
<glyph unicode="&#xba;" horiz-adv-x="428" d="M372 496q0 -95 -45 -148.5t-115 -54.5q-69 -1 -112.5 53.5t-43.5 150.5q0 92 49 145t115 53q65 0 108.5 -52.5t43.5 -146.5zM91 495q0 -76 33 -126t88 -50q59 0 92 44t33 129q0 79 -32 128t-86 49q-58 0 -93 -44.5t-35 -129.5z" />
<glyph unicode="&#xbb;" horiz-adv-x="538" d="M454 227q-61 -67 -155 -210l-15 9q33 69 127 222q-59 78 -126 218l16 8q89 -146 149 -201l4 -6v-40zM254 227q-61 -67 -155 -210l-15 9q33 69 127 222q-59 78 -126 218l16 8q89 -146 149 -201l4 -6v-40z" />
<glyph unicode="&#xbc;" horiz-adv-x="920" d="M673 695l-422 -705h-39l421 705h40zM175 307l63 -12l-2 -9h-155l-1 9l40 7q14 3 18 6.5t4 13.5v332l-61 3l-1 8l89 20l6 -6v-372zM541 113l226 286l24 -3v-277h79l-5 -24h-74v-95h-33v95h-209zM574 119h184v238z" />
<glyph unicode="&#xbd;" horiz-adv-x="920" d="M673 695l-422 -705h-39l421 705h40zM175 307l63 -12l-2 -9h-155l-1 9l40 7q14 3 18 6.5t4 13.5v332l-61 3l-1 8l89 20l6 -6v-372zM575 0l-5 21q18 16 56 50.5t53.5 49t41.5 41t36 43.5t19 39.5t9 43.5q0 38 -23.5 61.5t-62.5 23.5q-62 0 -112 -63l-9 4q19 39 52.5 62 t77.5 23q52 0 82 -30t30 -77q0 -30 -12.5 -58.5t-42.5 -61t-57 -57t-78 -67.5q-17 -14 -26 -22h169q25 0 35 11t22 48l10 -1q0 -45 -13 -84h-252z" />
<glyph unicode="&#xbe;" horiz-adv-x="920" d="M713 695l-422 -705h-39l421 705h40zM134 468l-1 18q77 14 117 38t40 67q0 29 -23 48.5t-59 19.5q-62 0 -118 -63l-8 4q46 85 133 85q48 0 78.5 -25t30.5 -65q0 -43 -36.5 -70.5t-83.5 -37.5q59 -3 97.5 -29.5t38.5 -71.5q0 -47 -42.5 -78.5t-108.5 -31.5q-54 0 -86.5 19 t-32.5 49q0 27 31 41l6 -5q-3 -8 -3 -21q0 -63 88 -63q50 0 82.5 23.5t32.5 64.5t-39 63.5t-94 22.5q-12 0 -40 -2zM541 113l226 286l24 -3v-277h79l-5 -24h-74v-95h-33v95h-209zM574 119h184v238z" />
<glyph unicode="&#xbf;" horiz-adv-x="416" d="M182 458q0 19 9.5 33t27.5 14q16 0 25.5 -12t9.5 -31t-10.5 -33t-27.5 -14q-16 0 -25 12t-9 31zM202 273l8 8q18 -1 29 -12t11 -30q0 -23 -18.5 -44t-45 -40t-53.5 -42t-45.5 -59.5t-18.5 -82.5q0 -64 35 -101.5t96 -37.5q63 0 103.5 36.5t40.5 91.5q0 17 -9 49 q12 6 22 6q15 0 25 -13.5t10 -37.5q0 -67 -56.5 -115.5t-139.5 -48.5q-74 0 -123 47.5t-49 126.5q0 47 23 90t46.5 65t60 49.5t40.5 30.5q8 7 8 31v33z" />
<glyph unicode="&#xc0;" horiz-adv-x="711" d="M480 795l-7 -16q-63 7 -146 36t-83 57q0 18 21 26l7 -1q99 -71 208 -102zM344 685h23l218 -616q6 -18 13.5 -25.5t22.5 -10.5l58 -13l-2 -20h-212l-2 20l86 19l-75 216l-247 -4l-73 -211l85 -20l-2 -20h-203l-2 20l56 13q28 6 38 36zM238 285h226l-113 325z" />
<glyph unicode="&#xc1;" horiz-adv-x="711" d="M443 896l7 1q21 -7 21 -26q0 -28 -83 -57t-146 -36l-7 16q109 31 208 102zM344 685h23l218 -616q6 -18 13.5 -25.5t22.5 -10.5l58 -13l-2 -20h-212l-2 20l86 19l-75 216l-247 -4l-73 -211l85 -20l-2 -20h-203l-2 20l56 13q28 6 38 36zM238 285h226l-113 325z" />
<glyph unicode="&#xc2;" horiz-adv-x="711" d="M496 781l-14 -10q-80 64 -126 93q-61 -51 -125 -93l-12 12q83 75 115 118l6 4h37q59 -57 119 -124zM344 685h23l218 -616q6 -18 13.5 -25.5t22.5 -10.5l58 -13l-2 -20h-212l-2 20l86 19l-75 216l-247 -4l-73 -211l85 -20l-2 -20h-203l-2 20l56 13q28 6 38 36zM238 285 h226l-113 325z" />
<glyph unicode="&#xc3;" horiz-adv-x="711" d="M191 776l-14 5q19 103 75 103q29 0 118 -35t105 -35q47 73 48 74l14 -6q-10 -52 -26.5 -77t-46.5 -25q-28 0 -118.5 34.5t-104.5 35.5q-20 -22 -50 -74zM344 685h23l218 -616q6 -18 13.5 -25.5t22.5 -10.5l58 -13l-2 -20h-212l-2 20l86 19l-75 216l-247 -4l-73 -211 l85 -20l-2 -20h-203l-2 20l56 13q28 6 38 36zM238 285h226l-113 325z" />
<glyph unicode="&#xc4;" horiz-adv-x="711" d="M491 839q0 -19 -10 -33t-29 -14q-17 0 -27 11.5t-10 28.5q0 18 11.5 31.5t28.5 13.5t26.5 -10.5t9.5 -27.5zM301 839q0 -19 -10 -33t-29 -14q-17 0 -27 11.5t-10 28.5q0 18 11.5 31.5t28.5 13.5t26.5 -10.5t9.5 -27.5zM344 685h23l218 -616q6 -18 13.5 -25.5t22.5 -10.5 l58 -13l-2 -20h-212l-2 20l86 19l-75 216l-247 -4l-73 -211l85 -20l-2 -20h-203l-2 20l56 13q28 6 38 36zM238 285h226l-113 325z" />
<glyph unicode="&#xc5;" horiz-adv-x="711" d="M354 766q-32 0 -52.5 19t-20.5 50q0 33 22.5 53.5t57.5 20.5q33 0 54 -19.5t20 -49.5q-1 -32 -24 -53t-57 -21zM358 886q-19 0 -31.5 -14.5t-12.5 -36.5q0 -20 12 -33t31 -13t31.5 14.5t12.5 37.5q0 20 -12 32.5t-31 12.5zM344 685h23l218 -616q6 -18 13.5 -25.5 t22.5 -10.5l58 -13l-2 -20h-212l-2 20l86 19l-75 216l-247 -4l-73 -211l85 -20l-2 -20h-203l-2 20l56 13q28 6 38 36zM238 285h226l-113 325z" />
<glyph unicode="&#xc6;" horiz-adv-x="885" d="M34 0l-2 20l56 13q28 6 38 36l204 577l-85 19l2 20h558q6 -36 6 -90q0 -37 -3 -75h-15l-34 130q-68 5 -113 5h-138v-295l222 5l-2 -39l-220 4v-300h148q68 0 113 5l34 130h15q3 -33 3 -75q0 -54 -6 -90h-432l-2 20l58 13q16 4 21.5 10t5.5 20v266l-214 -4l-98 -285 l85 -20l-2 -20h-203zM466 655h-100l-102 -296h202v296z" />
<glyph unicode="&#xc7;" horiz-adv-x="626" d="M344 -91l-3 5l14 78q-140 13 -215.5 105t-75.5 246q0 160 92.5 256t232.5 96q89 0 149 -30q3 -20 3 -46q0 -58 -6 -99h-15q-5 21 -16 63.5t-17 63.5q-44 13 -97 13q-122 0 -201.5 -86.5t-79.5 -230.5q0 -147 77.5 -232.5t209.5 -85.5q58 0 104 13q6 21 17 63.5t16 63.5 h15q6 -44 6 -85q0 -42 -3 -60q-62 -30 -152 -30h-14l-10 -54q73 -21 73 -69q0 -33 -36 -53t-86 -26l-4 15q83 21 83 59q0 32 -61 47z" />
<glyph unicode="&#xc8;" horiz-adv-x="565" d="M427 794l-7 -16q-63 7 -146 36t-83 57q0 19 21 26l7 -1q99 -71 208 -102zM188 360l222 5l-2 -39l-220 4v-300h148q68 0 113 5l34 130h15q3 -33 3 -75q0 -54 -6 -90h-432l-2 20l58 13q16 4 21.5 10t5.5 20v559q0 14 -5.5 20t-21.5 10l-58 13l2 20h422q6 -36 6 -90 q0 -37 -3 -75h-15l-34 130q-68 5 -113 5h-138v-295z" />
<glyph unicode="&#xc9;" horiz-adv-x="565" d="M409 895l7 1q21 -8 21 -26q0 -28 -83 -57t-146 -36l-7 16q109 31 208 102zM188 360l222 5l-2 -39l-220 4v-300h148q68 0 113 5l34 130h15q3 -33 3 -75q0 -54 -6 -90h-432l-2 20l58 13q16 4 21.5 10t5.5 20v560q0 14 -5.5 20t-21.5 10l-58 13l2 20h422q6 -36 6 -90 q0 -38 -3 -75h-15l-34 130q-68 5 -113 5h-138v-296z" />
<glyph unicode="&#xca;" horiz-adv-x="565" d="M457 780l-14 -10q-80 64 -126 93q-61 -51 -125 -93l-12 12q83 75 115 118l6 4h37q59 -57 119 -124zM188 360l222 5l-2 -39l-220 4v-300h148q68 0 113 5l34 130h15q3 -33 3 -75q0 -54 -6 -90h-432l-2 20l58 13q16 4 21.5 10t5.5 20v559q0 14 -5.5 20t-21.5 10l-58 13l2 20 h422q6 -36 6 -90q0 -37 -3 -75h-15l-34 130q-68 5 -113 5h-138v-295z" />
<glyph unicode="&#xcb;" horiz-adv-x="565" d="M452 838q0 -19 -10 -33t-29 -14q-17 0 -27 11.5t-10 28.5q0 18 11.5 31.5t28.5 13.5t26.5 -10.5t9.5 -27.5zM262 838q0 -19 -10 -33t-29 -14q-17 0 -27 11.5t-10 28.5q0 18 11.5 31.5t28.5 13.5t26.5 -10.5t9.5 -27.5zM188 360l222 5l-2 -39l-220 4v-300h148q68 0 113 5 l34 130h15q3 -33 3 -75q0 -54 -6 -90h-432l-2 20l58 13q16 4 21.5 10t5.5 20v559q0 14 -5.5 20t-21.5 10l-58 13l2 20h422q6 -36 6 -90q0 -37 -3 -75h-15l-34 130q-68 5 -113 5h-138v-295z" />
<glyph unicode="&#xcc;" horiz-adv-x="334" d="M286 795l-7 -16q-63 7 -146 36t-83 57q0 18 21 26l7 -1q99 -71 208 -102zM188 39l85 -19l-2 -20h-208l-2 20l58 13q16 4 21.5 10t5.5 20v583l-85 19l2 20h208l2 -20l-58 -13q-16 -4 -21.5 -10t-5.5 -20v-583z" />
<glyph unicode="&#xcd;" horiz-adv-x="334" d="M258 896l7 1q21 -7 21 -26q0 -28 -83 -57t-146 -36l-7 16q109 31 208 102zM188 39l85 -19l-2 -20h-208l-2 20l58 13q16 4 21.5 10t5.5 20v583l-85 19l2 20h208l2 -20l-58 -13q-16 -4 -21.5 -10t-5.5 -20v-583z" />
<glyph unicode="&#xce;" horiz-adv-x="334" d="M306 781l-14 -10q-80 64 -126 93q-61 -51 -125 -93l-12 12q83 75 115 118l6 4h37q59 -57 119 -124zM188 39l85 -19l-2 -20h-208l-2 20l58 13q16 4 21.5 10t5.5 20v583l-85 19l2 20h208l2 -20l-58 -13q-16 -4 -21.5 -10t-5.5 -20v-583z" />
<glyph unicode="&#xcf;" horiz-adv-x="334" d="M301 839q0 -19 -10 -33t-29 -14q-17 0 -27 11.5t-10 28.5q0 18 11.5 31.5t28.5 13.5t26.5 -10.5t9.5 -27.5zM111 839q0 -19 -10 -33t-29 -14q-17 0 -27 11.5t-10 28.5q0 18 11.5 31.5t28.5 13.5t26.5 -10.5t9.5 -27.5zM188 39l85 -19l-2 -20h-208l-2 20l58 13 q16 4 21.5 10t5.5 20v583l-85 19l2 20h208l2 -20l-58 -13q-16 -4 -21.5 -10t-5.5 -20v-583z" />
<glyph unicode="&#xd0;" horiz-adv-x="682" d="M618 342q0 -157 -88 -249.5t-243 -92.5h-207l-2 20l58 13q16 4 21.5 10t5.5 20v274h-102v30h102v255q0 14 -5.5 20t-21.5 10l-58 13l2 20h207q155 0 243 -92.5t88 -250.5zM398 337h-193v-305h78q139 0 214.5 83t75.5 227t-75.5 227.5t-214.5 83.5h-78v-286h193v-30z" />
<glyph unicode="&#xd1;" horiz-adv-x="736" d="M199 776l-14 5q19 103 75 103q29 0 118 -35t105 -35q47 73 48 74l14 -6q-10 -52 -26.5 -77t-46.5 -25q-28 0 -118.5 34.5t-104.5 35.5q-20 -22 -50 -74zM181 39l105 -19l-2 -20h-221l-2 20l58 13q16 4 21.5 10t5.5 20v559q0 14 -5.5 20t-21.5 10l-58 13l2 20h118 l390 -610v571l-85 19l2 20h201l2 -20l-58 -13q-16 -4 -21.5 -10t-5.5 -20v-622h-35l-390 606v-567z" />
<glyph unicode="&#xd2;" horiz-adv-x="648" d="M448 795l-7 -16q-63 7 -146 36t-83 57q0 18 21 26l7 -1q99 -71 208 -102zM64 343q0 161 74.5 256.5t193.5 95.5q113 0 182.5 -94.5t69.5 -252.5q0 -161 -71 -259.5t-190 -98.5q-120 0 -189.5 94.5t-69.5 258.5zM109 343q0 -146 59.5 -232t157.5 -86q97 0 155 89t58 234 q0 142 -57 227t-150 85q-100 0 -161.5 -86t-61.5 -231z" />
<glyph unicode="&#xd3;" horiz-adv-x="648" d="M420 896l7 1q21 -7 21 -26q0 -28 -83 -57t-146 -36l-7 16q109 31 208 102zM64 343q0 161 74.5 256.5t193.5 95.5q113 0 182.5 -94.5t69.5 -252.5q0 -161 -71 -259.5t-190 -98.5q-120 0 -189.5 94.5t-69.5 258.5zM109 343q0 -146 59.5 -232t157.5 -86q97 0 155 89t58 234 q0 142 -57 227t-150 85q-100 0 -161.5 -86t-61.5 -231z" />
<glyph unicode="&#xd4;" horiz-adv-x="648" d="M468 781l-14 -10q-80 64 -126 93q-61 -51 -125 -93l-12 12q83 75 115 118l6 4h37q59 -57 119 -124zM64 343q0 161 74.5 256.5t193.5 95.5q113 0 182.5 -94.5t69.5 -252.5q0 -161 -71 -259.5t-190 -98.5q-120 0 -189.5 94.5t-69.5 258.5zM109 343q0 -146 59.5 -232 t157.5 -86q97 0 155 89t58 234q0 142 -57 227t-150 85q-100 0 -161.5 -86t-61.5 -231z" />
<glyph unicode="&#xd5;" horiz-adv-x="648" d="M158 776l-14 5q19 103 75 103q29 0 118 -35t105 -35q47 73 48 74l14 -6q-10 -52 -26.5 -77t-46.5 -25q-28 0 -118.5 34.5t-104.5 35.5q-20 -22 -50 -74zM64 343q0 161 74.5 256.5t193.5 95.5q113 0 182.5 -94.5t69.5 -252.5q0 -161 -71 -259.5t-190 -98.5 q-120 0 -189.5 94.5t-69.5 258.5zM109 343q0 -146 59.5 -232t157.5 -86q97 0 155 89t58 234q0 142 -57 227t-150 85q-100 0 -161.5 -86t-61.5 -231z" />
<glyph unicode="&#xd6;" horiz-adv-x="648" d="M463 839q0 -19 -10 -33t-29 -14q-17 0 -27 11.5t-10 28.5q0 18 11.5 31.5t28.5 13.5t26.5 -10.5t9.5 -27.5zM273 839q0 -19 -10 -33t-29 -14q-17 0 -27 11.5t-10 28.5q0 18 11.5 31.5t28.5 13.5t26.5 -10.5t9.5 -27.5zM64 343q0 161 74.5 256.5t193.5 95.5 q113 0 182.5 -94.5t69.5 -252.5q0 -161 -71 -259.5t-190 -98.5q-120 0 -189.5 94.5t-69.5 258.5zM109 343q0 -146 59.5 -232t157.5 -86q97 0 155 89t58 234q0 142 -57 227t-150 85q-100 0 -161.5 -86t-61.5 -231z" />
<glyph unicode="&#xd7;" d="M442 150l-162 164l-164 -164l-28 28l164 164l-163 166l27 26q63 -61 164 -164l164 164l28 -28l-164 -164q122 -124 159 -161v-11z" />
<glyph unicode="&#xd8;" horiz-adv-x="648" d="M64 343q0 161 74.5 256.5t193.5 95.5q111 0 180 -92l53 65l27 -22l-60 -73q52 -91 52 -225q0 -161 -71 -259.5t-190 -98.5q-118 0 -188 93l-53 -65l-26 22l59 73q-51 91 -51 230zM109 343q0 -113 37 -192l339 419q-57 90 -153 90q-100 0 -161.5 -86t-61.5 -231zM539 348 q0 109 -36 189l-339 -419q59 -93 162 -93q97 0 155 89t58 234z" />
<glyph unicode="&#xd9;" horiz-adv-x="657" d="M449 795l-7 -16q-63 7 -146 36t-83 57q0 18 21 26l7 -1q99 -71 208 -102zM109 220v426l-85 19l2 20h208l2 -20l-58 -13q-16 -4 -21.5 -10t-5.5 -20v-405q0 -90 51 -141t129 -51t129 50t51 142v429l-85 19l2 20h201l2 -20l-85 -19v-426q0 -111 -61.5 -170.5t-158.5 -59.5 q-94 0 -155.5 60t-61.5 170z" />
<glyph unicode="&#xda;" horiz-adv-x="657" d="M441 896l7 1q21 -7 21 -26q0 -28 -83 -57t-146 -36l-7 16q109 31 208 102zM109 220v426l-85 19l2 20h208l2 -20l-58 -13q-16 -4 -21.5 -10t-5.5 -20v-405q0 -90 51 -141t129 -51t129 50t51 142v429l-85 19l2 20h201l2 -20l-85 -19v-426q0 -111 -61.5 -170.5t-158.5 -59.5 q-94 0 -155.5 60t-61.5 170z" />
<glyph unicode="&#xdb;" horiz-adv-x="657" d="M474 781l-14 -10q-80 64 -126 93q-61 -51 -125 -93l-12 12q83 75 115 118l6 4h37q59 -57 119 -124zM109 220v426l-85 19l2 20h208l2 -20l-58 -13q-16 -4 -21.5 -10t-5.5 -20v-405q0 -90 51 -141t129 -51t129 50t51 142v429l-85 19l2 20h201l2 -20l-85 -19v-426 q0 -111 -61.5 -170.5t-158.5 -59.5q-94 0 -155.5 60t-61.5 170z" />
<glyph unicode="&#xdc;" horiz-adv-x="657" d="M464 839q0 -19 -10 -33t-29 -14q-17 0 -27 11.5t-10 28.5q0 18 11.5 31.5t28.5 13.5t26.5 -10.5t9.5 -27.5zM274 839q0 -19 -10 -33t-29 -14q-17 0 -27 11.5t-10 28.5q0 18 11.5 31.5t28.5 13.5t26.5 -10.5t9.5 -27.5zM109 220v426l-85 19l2 20h208l2 -20l-58 -13 q-16 -4 -21.5 -10t-5.5 -20v-405q0 -90 51 -141t129 -51t129 50t51 142v429l-85 19l2 20h201l2 -20l-85 -19v-426q0 -111 -61.5 -170.5t-158.5 -59.5q-94 0 -155.5 60t-61.5 170z" />
<glyph unicode="&#xdd;" horiz-adv-x="671" d="M441 896l7 1q21 -7 21 -26q0 -28 -83 -57t-146 -36l-7 16q109 31 208 102zM356 39l85 -19l-2 -20h-208l-2 20l58 13q16 4 21.5 10t5.5 20v203l-187 350q-10 19 -17 26t-20 10l-58 13l2 20h211l2 -20l-85 -19l178 -346h1l176 346l-85 19l2 20h203l2 -20l-56 -13 q-16 -4 -24.5 -11.5t-17.5 -24.5l-185 -352v-225z" />
<glyph unicode="&#xde;" horiz-adv-x="558" d="M188 39l105 -19l-2 -20h-228l-2 20l58 13q16 4 21.5 10t5.5 20v583l-85 19l2 20h208l2 -20l-58 -13q-16 -4 -21.5 -10t-5.5 -20v-68h105q96 0 160.5 -56.5t64.5 -156.5q0 -95 -65.5 -148.5t-164.5 -53.5h-100v-100zM283 519h-95v-345h90q93 0 144 42.5t51 124.5 q0 84 -50.5 131t-139.5 47z" />
<glyph unicode="&#xdf;" horiz-adv-x="549" d="M142 0h-101l-2 16l48 13q17 5 22 10.5t5 20.5v400h-73l-2 16l75 14v18q0 118 47.5 182.5t134.5 64.5q67 0 108 -40.5t41 -107.5q0 -56 -32.5 -103t-93.5 -61q84 -25 129 -93t45 -168q0 -82 -46.5 -137t-116.5 -55q-48 0 -81.5 25.5t-33.5 58.5q0 12 7 19.5t18 7.5 q5 0 7 -1q21 -77 91 -77q48 0 80 44.5t32 110.5q0 101 -49 168t-139 87v13q74 10 107 53.5t33 99.5q0 58 -32 93t-85 35q-62 0 -96.5 -54t-34.5 -153v-504z" />
<glyph unicode="&#xe0;" horiz-adv-x="496" d="M313 593l-12 -12q-35 27 -53.5 41.5t-47 38.5t-41.5 41.5t-13 29.5q0 23 32 23h4l5 -2q31 -58 126 -160zM249 506q65 0 100 -34t35 -98q0 -26 -2 -132.5t-2 -153.5q0 -37 10.5 -51t38.5 -14q22 0 44 7l4 -9q-31 -31 -74 -31q-28 0 -45.5 18.5t-19.5 50.5 q-67 -69 -150 -69q-58 0 -91 29.5t-33 80.5q0 71 78 119t198 51q2 96 2 102q0 48 -27 74t-75 26q-50 0 -84.5 -30.5t-34.5 -66.5q0 -17 7 -32q-9 -6 -21 -6q-15 0 -24 9.5t-9 25.5q0 46 55.5 90t119.5 44zM107 102q0 -77 87 -77q79 0 144 72q0 53 2 143q-105 -3 -169 -41 t-64 -97z" />
<glyph unicode="&#xe1;" horiz-adv-x="496" d="M332 732q0 -12 -13 -29.5t-41.5 -41.5t-47 -38.5t-53.5 -41.5l-12 12q95 102 126 160l5 2h4q32 0 32 -23zM249 506q65 0 100 -34t35 -98q0 -26 -2 -132.5t-2 -153.5q0 -37 10.5 -51t38.5 -14q22 0 44 7l4 -9q-31 -31 -74 -31q-28 0 -45.5 18.5t-19.5 50.5 q-67 -69 -150 -69q-58 0 -91 29.5t-33 80.5q0 71 78 119t198 51q2 96 2 102q0 48 -27 74t-75 26q-50 0 -84.5 -30.5t-34.5 -66.5q0 -17 7 -32q-9 -6 -21 -6q-15 0 -24 9.5t-9 25.5q0 46 55.5 90t119.5 44zM107 102q0 -77 87 -77q79 0 144 72q0 53 2 143q-105 -3 -169 -41 t-64 -97z" />
<glyph unicode="&#xe2;" horiz-adv-x="496" d="M368 596l-14 -10q-68 77 -116 120q-49 -58 -115 -120l-12 12q74 92 103 148l6 4h41q52 -69 107 -154zM249 506q65 0 100 -34t35 -98q0 -26 -2 -132.5t-2 -153.5q0 -37 10.5 -51t38.5 -14q22 0 44 7l4 -9q-31 -31 -74 -31q-28 0 -45.5 18.5t-19.5 50.5q-67 -69 -150 -69 q-58 0 -91 29.5t-33 80.5q0 71 78 119t198 51q2 96 2 102q0 48 -27 74t-75 26q-50 0 -84.5 -30.5t-34.5 -66.5q0 -17 7 -32q-9 -6 -21 -6q-15 0 -24 9.5t-9 25.5q0 46 55.5 90t119.5 44zM107 102q0 -77 87 -77q79 0 144 72q0 53 2 143q-105 -3 -169 -41t-64 -97z" />
<glyph unicode="&#xe3;" horiz-adv-x="496" d="M89 614l-14 5q17 97 73 97q25 0 99.5 -28.5t87.5 -28.5q34 46 46 67l14 -6q-9 -48 -25.5 -72t-46.5 -24q-24 0 -100 28t-87 29q-21 -23 -47 -67zM249 506q65 0 100 -34t35 -98q0 -26 -2 -132.5t-2 -153.5q0 -37 10.5 -51t38.5 -14q22 0 44 7l4 -9q-31 -31 -74 -31 q-28 0 -45.5 18.5t-19.5 50.5q-67 -69 -150 -69q-58 0 -91 29.5t-33 80.5q0 71 78 119t198 51q2 96 2 102q0 48 -27 74t-75 26q-50 0 -84.5 -30.5t-34.5 -66.5q0 -17 7 -32q-9 -6 -21 -6q-15 0 -24 9.5t-9 25.5q0 46 55.5 90t119.5 44zM107 102q0 -77 87 -77q79 0 144 72 q0 53 2 143q-105 -3 -169 -41t-64 -97z" />
<glyph unicode="&#xe4;" horiz-adv-x="496" d="M369 670q0 -20 -9 -34.5t-27 -14.5q-15 0 -24.5 12t-9.5 30q0 19 10.5 33.5t26.5 14.5q15 0 24 -11.5t9 -29.5zM179 670q0 -20 -9 -34.5t-27 -14.5q-15 0 -24.5 12t-9.5 30q0 19 10.5 33.5t26.5 14.5q15 0 24 -11.5t9 -29.5zM249 506q65 0 100 -34t35 -98 q0 -26 -2 -132.5t-2 -153.5q0 -37 10.5 -51t38.5 -14q22 0 44 7l4 -9q-31 -31 -74 -31q-28 0 -45.5 18.5t-19.5 50.5q-67 -69 -150 -69q-58 0 -91 29.5t-33 80.5q0 71 78 119t198 51q2 96 2 102q0 48 -27 74t-75 26q-50 0 -84.5 -30.5t-34.5 -66.5q0 -17 7 -32q-9 -6 -21 -6 q-15 0 -24 9.5t-9 25.5q0 46 55.5 90t119.5 44zM107 102q0 -77 87 -77q79 0 144 72q0 53 2 143q-105 -3 -169 -41t-64 -97z" />
<glyph unicode="&#xe5;" horiz-adv-x="496" d="M236 596q-32 0 -52.5 19t-20.5 50q0 33 22.5 53.5t57.5 20.5q33 0 54 -19.5t20 -49.5q-1 -32 -24 -53t-57 -21zM240 716q-19 0 -31.5 -14.5t-12.5 -36.5q0 -20 12 -33t31 -13t31.5 14.5t12.5 37.5q0 20 -12 32.5t-31 12.5zM249 506q65 0 100 -34t35 -98q0 -26 -2 -132.5 t-2 -153.5q0 -37 10.5 -51t38.5 -14q22 0 44 7l4 -9q-31 -31 -74 -31q-28 0 -45.5 18.5t-19.5 50.5q-67 -69 -150 -69q-58 0 -91 29.5t-33 80.5q0 71 78 119t198 51q2 96 2 102q0 48 -27 74t-75 26q-50 0 -84.5 -30.5t-34.5 -66.5q0 -17 7 -32q-9 -6 -21 -6q-15 0 -24 9.5 t-9 25.5q0 46 55.5 90t119.5 44zM107 102q0 -77 87 -77q79 0 144 72q0 53 2 143q-105 -3 -169 -41t-64 -97z" />
<glyph unicode="&#xe6;" horiz-adv-x="742" d="M342 372q0 48 -27 74t-75 26q-50 0 -84.5 -30.5t-34.5 -66.5q0 -17 7 -32q-9 -6 -21 -6q-15 0 -24 9.5t-9 25.5q0 46 55.5 89.5t119.5 43.5q113 0 132 -97q58 97 159 97q70 0 111 -48.5t41 -132.5q0 -18 -2 -56l-9 -10h-299v-6q1 -106 45.5 -166.5t120.5 -60.5 q78 0 134 55l12 -10q-25 -37 -67 -58.5t-90 -21.5q-115 0 -167 102q-81 -102 -182 -102q-58 0 -91 29.5t-33 80.5q0 71 78 119t198 51q2 96 2 102zM536 472q-63 0 -104 -51t-49 -135l265 5q1 15 1 35q0 70 -29.5 108t-83.5 38zM107 102q0 -77 87 -77q91 0 163 96 q-18 49 -18 114v5q-104 -3 -168 -41t-64 -97z" />
<glyph unicode="&#xe7;" horiz-adv-x="443" d="M214 -91l-3 5l14 78q-79 12 -124 76.5t-45 166.5q0 119 56.5 194.5t144.5 75.5q61 0 102.5 -36t41.5 -89q0 -43 -29 -43q-10 0 -18 3q3 18 3 30q0 46 -28.5 74t-75.5 28q-68 0 -111 -61t-43 -157q0 -107 44 -168t122 -61t134 55l12 -10q-25 -37 -66 -58.5t-88 -21.5h-2 l-10 -54q73 -21 73 -69q0 -33 -36 -53t-86 -26l-4 15q83 21 83 59q0 32 -61 47z" />
<glyph unicode="&#xe8;" horiz-adv-x="459" d="M311 593l-12 -12q-35 27 -53.5 41.5t-47 38.5t-41.5 41.5t-13 29.5q0 23 32 23h4l5 -2q31 -58 126 -160zM411 70q-25 -37 -67 -58.5t-90 -21.5q-91 0 -144.5 66.5t-53.5 178.5q0 119 56.5 194.5t144.5 75.5q70 0 111 -48.5t41 -132.5q0 -18 -2 -56l-9 -10h-299v-4 q0 -106 44.5 -167.5t121.5 -61.5q78 0 134 55zM253 472q-63 0 -104 -51t-49 -135l265 5q1 15 1 35q0 70 -29.5 108t-83.5 38z" />
<glyph unicode="&#xe9;" horiz-adv-x="459" d="M350 732q0 -12 -13 -29.5t-41.5 -41.5t-47 -38.5t-53.5 -41.5l-12 12q95 102 126 160l5 2h4q32 0 32 -23zM411 70q-25 -37 -67 -58.5t-90 -21.5q-91 0 -144.5 66.5t-53.5 178.5q0 119 56.5 194.5t144.5 75.5q70 0 111 -48.5t41 -132.5q0 -18 -2 -56l-9 -10h-299v-4 q0 -106 44.5 -167.5t121.5 -61.5q78 0 134 55zM253 472q-63 0 -104 -51t-49 -135l265 5q1 15 1 35q0 70 -29.5 108t-83.5 38z" />
<glyph unicode="&#xea;" horiz-adv-x="459" d="M376 596l-14 -10q-68 77 -116 120q-49 -58 -115 -120l-12 12q74 92 103 148l6 4h41q52 -69 107 -154zM411 70q-25 -37 -67 -58.5t-90 -21.5q-91 0 -144.5 66.5t-53.5 178.5q0 119 56.5 194.5t144.5 75.5q70 0 111 -48.5t41 -132.5q0 -18 -2 -56l-9 -10h-299v-4 q0 -106 44.5 -167.5t121.5 -61.5q78 0 134 55zM253 472q-63 0 -104 -51t-49 -135l265 5q1 15 1 35q0 70 -29.5 108t-83.5 38z" />
<glyph unicode="&#xeb;" horiz-adv-x="459" d="M377 670q0 -20 -9 -34.5t-27 -14.5q-15 0 -24.5 12t-9.5 30q0 19 10.5 33.5t26.5 14.5q15 0 24 -11.5t9 -29.5zM187 670q0 -20 -9 -34.5t-27 -14.5q-15 0 -24.5 12t-9.5 30q0 19 10.5 33.5t26.5 14.5q15 0 24 -11.5t9 -29.5zM411 70q-25 -37 -67 -58.5t-90 -21.5 q-91 0 -144.5 66.5t-53.5 178.5q0 119 56.5 194.5t144.5 75.5q70 0 111 -48.5t41 -132.5q0 -18 -2 -56l-9 -10h-299v-4q0 -106 44.5 -167.5t121.5 -61.5q78 0 134 55zM253 472q-63 0 -104 -51t-49 -135l265 5q1 15 1 35q0 70 -29.5 108t-83.5 38z" />
<glyph unicode="&#xec;" horiz-adv-x="276" d="M194 593l-12 -12q-35 27 -53.5 41.5t-47 38.5t-41.5 41.5t-13 29.5q0 23 32 23h4l5 -2q31 -58 126 -160zM162 35l75 -19l-2 -16h-186l-2 16l48 13q17 5 22 10.5t5 20.5v400l-73 6l-2 14q47 16 105 25l10 -10v-460z" />
<glyph unicode="&#xed;" horiz-adv-x="276" d="M233 732q0 -12 -13 -29.5t-41.5 -41.5t-47 -38.5t-53.5 -41.5l-12 12q95 102 126 160l5 2h4q32 0 32 -23zM162 35l75 -19l-2 -16h-186l-2 16l48 13q17 5 22 10.5t5 20.5v400l-73 6l-2 14q47 16 105 25l10 -10v-460z" />
<glyph unicode="&#xee;" horiz-adv-x="276" d="M229 591l-14 -10q-45 67 -86 119q-44 -70 -85 -119l-12 12q48 85 72 148l6 4h43q36 -68 76 -154zM162 35l75 -19l-2 -16h-186l-2 16l48 13q17 5 22 10.5t5 20.5v400l-73 6l-2 14q47 16 105 25l10 -10v-460z" />
<glyph unicode="&#xef;" horiz-adv-x="276" d="M236 684q0 -20 -9 -34.5t-27 -14.5q-15 0 -24.5 12t-9.5 30q0 19 10.5 33.5t26.5 14.5q15 0 24 -11.5t9 -29.5zM96 684q0 -20 -9 -34.5t-27 -14.5q-15 0 -24.5 12t-9.5 30q0 19 10.5 33.5t26.5 14.5q15 0 24 -11.5t9 -29.5zM162 35l75 -19l-2 -16h-186l-2 16l48 13 q17 5 22 10.5t5 20.5v400l-73 6l-2 14q47 16 105 25l10 -10v-460z" />
<glyph unicode="&#xf0;" horiz-adv-x="524" d="M248 -10q-85 -1 -138.5 68.5t-53.5 192.5q0 119 56.5 186.5t132.5 67.5q91 0 135 -78q-28 108 -87 179l-153 -71l-14 32l142 67q-65 66 -160 95l6 26q103 -21 186 -107l153 72l15 -32l-144 -67q118 -147 118 -355q0 -132 -50.5 -204t-143.5 -72zM255 472q-70 0 -113 -57 t-43 -166q0 -97 40.5 -161.5t107.5 -64.5q153 0 153 230v1q0 98 -39.5 158t-105.5 60z" />
<glyph unicode="&#xf1;" horiz-adv-x="576" d="M185 681q-21 -23 -47 -67l-14 5q17 97 73 97q25 0 99.5 -28.5t87.5 -28.5q34 46 46 67l14 -6q-9 -48 -25.5 -72t-46.5 -24q-24 0 -100 28t-87 29zM162 35l75 -19l-2 -16h-186l-2 16l48 13q17 5 22 10.5t5 20.5v400l-73 6l-2 14q47 16 105 25l10 -10v-54q75 64 159 64 q69 0 105 -39t36 -113v-318l75 -19l-2 -16h-186l-2 16l48 13q17 5 22 10.5t5 20.5v293q0 119 -108 119q-82 0 -152 -67v-370z" />
<glyph unicode="&#xf2;" horiz-adv-x="498" d="M313 593l-12 -12q-35 27 -53.5 41.5t-47 38.5t-41.5 41.5t-13 29.5q0 23 32 23h4l5 -2q31 -58 126 -160zM442 250q0 -122 -55 -190.5t-140 -69.5q-84 -1 -137.5 68.5t-53.5 192.5q0 119 59.5 186.5t140.5 67.5q79 0 132.5 -67t53.5 -188zM99 249q0 -97 40.5 -161.5 t107.5 -64.5q71 0 111.5 56.5t40.5 165.5q0 101 -39.5 164t-104.5 63q-70 0 -113 -57t-43 -166z" />
<glyph unicode="&#xf3;" horiz-adv-x="498" d="M352 732q0 -12 -13 -29.5t-41.5 -41.5t-47 -38.5t-53.5 -41.5l-12 12q95 102 126 160l5 2h4q32 0 32 -23zM442 250q0 -122 -55 -190.5t-140 -69.5q-84 -1 -137.5 68.5t-53.5 192.5q0 119 59.5 186.5t140.5 67.5q79 0 132.5 -67t53.5 -188zM99 249q0 -97 40.5 -161.5 t107.5 -64.5q71 0 111.5 56.5t40.5 165.5q0 101 -39.5 164t-104.5 63q-70 0 -113 -57t-43 -166z" />
<glyph unicode="&#xf4;" horiz-adv-x="498" d="M383 596l-14 -10q-68 77 -116 120q-49 -58 -115 -120l-12 12q74 92 103 148l6 4h41q52 -69 107 -154zM442 250q0 -122 -55 -190.5t-140 -69.5q-84 -1 -137.5 68.5t-53.5 192.5q0 119 59.5 186.5t140.5 67.5q79 0 132.5 -67t53.5 -188zM99 249q0 -97 40.5 -161.5 t107.5 -64.5q71 0 111.5 56.5t40.5 165.5q0 101 -39.5 164t-104.5 63q-70 0 -113 -57t-43 -166z" />
<glyph unicode="&#xf5;" horiz-adv-x="498" d="M104 614l-14 5q17 97 73 97q25 0 99.5 -28.5t87.5 -28.5q34 46 46 67l14 -6q-9 -48 -25.5 -72t-46.5 -24q-24 0 -100 28t-87 29q-21 -23 -47 -67zM442 250q0 -122 -55 -190.5t-140 -69.5q-84 -1 -137.5 68.5t-53.5 192.5q0 119 59.5 186.5t140.5 67.5q79 0 132.5 -67 t53.5 -188zM99 249q0 -97 40.5 -161.5t107.5 -64.5q71 0 111.5 56.5t40.5 165.5q0 101 -39.5 164t-104.5 63q-70 0 -113 -57t-43 -166z" />
<glyph unicode="&#xf6;" horiz-adv-x="498" d="M384 670q0 -20 -9 -34.5t-27 -14.5q-15 0 -24.5 12t-9.5 30q0 19 10.5 33.5t26.5 14.5q15 0 24 -11.5t9 -29.5zM194 670q0 -20 -9 -34.5t-27 -14.5q-15 0 -24.5 12t-9.5 30q0 19 10.5 33.5t26.5 14.5q15 0 24 -11.5t9 -29.5zM442 250q0 -122 -55 -190.5t-140 -69.5 q-84 -1 -137.5 68.5t-53.5 192.5q0 119 59.5 186.5t140.5 67.5q79 0 132.5 -67t53.5 -188zM99 249q0 -97 40.5 -161.5t107.5 -64.5q71 0 111.5 56.5t40.5 165.5q0 101 -39.5 164t-104.5 63q-70 0 -113 -57t-43 -166z" />
<glyph unicode="&#xf7;" d="M316 530q0 -19 -9.5 -33t-27.5 -14q-16 0 -25.5 12t-9.5 31t10.5 33t27.5 14q16 0 25 -12t9 -31zM480 322h-405v35q150 5 402 5l8 -8zM316 158q0 -19 -9.5 -33t-27.5 -14q-16 0 -25.5 12t-9.5 31t10.5 33t27.5 14q16 0 25 -12t9 -31z" />
<glyph unicode="&#xf8;" horiz-adv-x="498" d="M442 250q0 -122 -55 -190.5t-140 -69.5q-90 -2 -143 76l-51 -54l-25 24l58 62q-30 65 -30 153q0 119 59.5 186.5t140.5 67.5q87 0 139 -76l49 53l26 -24l-57 -61q29 -61 29 -147zM99 249q0 -63 19 -117l248 266q-39 74 -111 74q-70 0 -113 -57t-43 -166zM399 245 q0 69 -18 118l-248 -265q42 -75 114 -75q71 0 111.5 56.5t40.5 165.5z" />
<glyph unicode="&#xf9;" horiz-adv-x="590" d="M354 593l-12 -12q-35 27 -53.5 41.5t-47 38.5t-41.5 41.5t-13 29.5q0 23 32 23h4l5 -2q31 -58 126 -160zM119 160v300l-73 6l-2 14q47 16 105 25l10 -10v-335q0 -66 31 -101t91 -35q38 0 76.5 20t66.5 53v363l-73 6l-2 14q47 16 105 25l10 -10v-391q0 -44 11.5 -62.5 t39.5 -18.5q19 0 44 7l4 -9q-31 -31 -74 -31q-59 0 -64 67q-28 -30 -69.5 -48.5t-82.5 -18.5q-75 0 -114.5 43.5t-39.5 126.5z" />
<glyph unicode="&#xfa;" horiz-adv-x="590" d="M393 732q0 -12 -13 -29.5t-41.5 -41.5t-47 -38.5t-53.5 -41.5l-12 12q95 102 126 160l5 2h4q32 0 32 -23zM119 160v300l-73 6l-2 14q47 16 105 25l10 -10v-335q0 -66 31 -101t91 -35q38 0 76.5 20t66.5 53v363l-73 6l-2 14q47 16 105 25l10 -10v-391q0 -44 11.5 -62.5 t39.5 -18.5q19 0 44 7l4 -9q-31 -31 -74 -31q-59 0 -64 67q-28 -30 -69.5 -48.5t-82.5 -18.5q-75 0 -114.5 43.5t-39.5 126.5z" />
<glyph unicode="&#xfb;" horiz-adv-x="590" d="M419 596l-14 -10q-68 77 -116 120q-49 -58 -115 -120l-12 12q74 92 103 148l6 4h41q52 -69 107 -154zM119 160v300l-73 6l-2 14q47 16 105 25l10 -10v-335q0 -66 31 -101t91 -35q38 0 76.5 20t66.5 53v363l-73 6l-2 14q47 16 105 25l10 -10v-391q0 -44 11.5 -62.5 t39.5 -18.5q19 0 44 7l4 -9q-31 -31 -74 -31q-59 0 -64 67q-28 -30 -69.5 -48.5t-82.5 -18.5q-75 0 -114.5 43.5t-39.5 126.5z" />
<glyph unicode="&#xfc;" horiz-adv-x="590" d="M420 670q0 -20 -9 -34.5t-27 -14.5q-15 0 -24.5 12t-9.5 30q0 19 10.5 33.5t26.5 14.5q15 0 24 -11.5t9 -29.5zM230 670q0 -20 -9 -34.5t-27 -14.5q-15 0 -24.5 12t-9.5 30q0 19 10.5 33.5t26.5 14.5q15 0 24 -11.5t9 -29.5zM119 160v300l-73 6l-2 14q47 16 105 25 l10 -10v-335q0 -66 31 -101t91 -35q38 0 76.5 20t66.5 53v363l-73 6l-2 14q47 16 105 25l10 -10v-391q0 -44 11.5 -62.5t39.5 -18.5q19 0 44 7l4 -9q-31 -31 -74 -31q-59 0 -64 67q-28 -30 -69.5 -48.5t-82.5 -18.5q-75 0 -114.5 43.5t-39.5 126.5z" />
<glyph unicode="&#xfd;" horiz-adv-x="555" d="M391 732q0 -12 -13 -29.5t-41.5 -41.5t-47 -38.5t-53.5 -41.5l-12 12q95 102 126 160l5 2h4q32 0 32 -23zM36 495h192l2 -16l-78 -19l137 -406l133 406l-77 19l2 16h182l2 -16l-46 -13q-29 -8 -38 -36l-147 -430q-44 -129 -90.5 -192t-115.5 -63q-29 0 -49.5 14.5 t-20.5 34.5q0 19 14 27l4 2q27 -38 66 -38q89 0 160 207l-150 438q-10 30 -36 36l-48 13z" />
<glyph unicode="&#xfe;" horiz-adv-x="543" d="M154 -210l95 -19l-2 -16h-206l-2 16l48 13q17 5 22 10.5t5 20.5v895l-73 6l-2 14q47 16 105 25l10 -10v-301q63 61 140 61q94 0 143.5 -68t49.5 -187q0 -117 -59.5 -188.5t-156.5 -71.5q-59 0 -117 24v-224zM273 23q78 0 124.5 62t46.5 166q0 102 -39.5 161.5 t-112.5 59.5q-77 0 -138 -69v-350q53 -30 119 -30z" />
<glyph unicode="&#xff;" horiz-adv-x="555" d="M418 670q0 -20 -9 -34.5t-27 -14.5q-15 0 -24.5 12t-9.5 30q0 19 10.5 33.5t26.5 14.5q15 0 24 -11.5t9 -29.5zM228 670q0 -20 -9 -34.5t-27 -14.5q-15 0 -24.5 12t-9.5 30q0 19 10.5 33.5t26.5 14.5q15 0 24 -11.5t9 -29.5zM36 495h192l2 -16l-78 -19l137 -406l133 406 l-77 19l2 16h182l2 -16l-46 -13q-29 -8 -38 -36l-147 -430q-44 -129 -90.5 -192t-115.5 -63q-29 0 -49.5 14.5t-20.5 34.5q0 19 14 27l4 2q27 -38 66 -38q89 0 160 207l-150 438q-10 30 -36 36l-48 13z" />
<glyph unicode="&#x100;" horiz-adv-x="711" d="M226 817v39h254v-39h-254zM344 685h23l218 -616q6 -18 13.5 -25.5t22.5 -10.5l58 -13l-2 -20h-212l-2 20l86 19l-75 216l-247 -4l-73 -211l85 -20l-2 -20h-203l-2 20l56 13q28 6 38 36zM238 285h226l-113 325z" />
<glyph unicode="&#x101;" horiz-adv-x="496" d="M113 653v34h254v-34h-254zM249 506q65 0 100 -34t35 -98q0 -26 -2 -132.5t-2 -153.5q0 -37 10.5 -51t38.5 -14q22 0 44 7l4 -9q-31 -31 -74 -31q-28 0 -45.5 18.5t-19.5 50.5q-67 -69 -150 -69q-58 0 -91 29.5t-33 80.5q0 71 78 119t198 51q2 96 2 102q0 48 -27 74 t-75 26q-50 0 -84.5 -30.5t-34.5 -66.5q0 -17 7 -32q-9 -6 -21 -6q-15 0 -24 9.5t-9 25.5q0 46 55.5 90t119.5 44zM107 102q0 -77 87 -77q79 0 144 72q0 53 2 143q-105 -3 -169 -41t-64 -97z" />
<glyph unicode="&#x102;" horiz-adv-x="711" d="M459 888l4 2l14 -3q-11 -48 -43.5 -75t-78.5 -27q-45 0 -76.5 27t-39.5 75l17 3q24 -62 104 -62q73 0 99 60zM344 685h23l218 -616q6 -18 13.5 -25.5t22.5 -10.5l58 -13l-2 -20h-212l-2 20l86 19l-75 216l-247 -4l-73 -211l85 -20l-2 -20h-203l-2 20l56 13q28 6 38 36z M238 285h226l-113 325z" />
<glyph unicode="&#x103;" horiz-adv-x="496" d="M341 728l4 2l14 -3q-11 -58 -43.5 -90t-78.5 -32q-45 0 -76.5 32.5t-39.5 89.5l17 3q11 -38 38.5 -60t65.5 -22q34 0 60.5 21t38.5 59zM249 506q65 0 100 -34t35 -98q0 -26 -2 -132.5t-2 -153.5q0 -37 10.5 -51t38.5 -14q22 0 44 7l4 -9q-31 -31 -74 -31 q-28 0 -45.5 18.5t-19.5 50.5q-67 -69 -150 -69q-58 0 -91 29.5t-33 80.5q0 71 78 119t198 51q2 96 2 102q0 48 -27 74t-75 26q-50 0 -84.5 -30.5t-34.5 -66.5q0 -17 7 -32q-9 -6 -21 -6q-15 0 -24 9.5t-9 25.5q0 46 55.5 90t119.5 44zM107 102q0 -77 87 -77q79 0 144 72 q0 53 2 143q-105 -3 -169 -41t-64 -97z" />
<glyph unicode="&#x104;" horiz-adv-x="713" d="M681 -181q-34 -31 -82 -31q-35 0 -55 19.5t-20 54.5q0 74 111 138h-170l-2 20l86 19l-75 216l-247 -4l-73 -211l85 -20l-2 -20h-203l-2 20l56 13q28 6 38 36l218 616h23l218 -616q6 -18 13.5 -25.5t22.5 -10.5l58 -13l-2 -20q-111 -64 -111 -127q0 -25 15.5 -38.5 t43.5 -13.5q23 0 52 7zM238 285h226l-113 325z" />
<glyph unicode="&#x105;" horiz-adv-x="496" d="M456 -181q-34 -31 -78 -31q-36 0 -57.5 20.5t-21.5 55.5q0 68 98 126q-54 5 -59 69q-67 -69 -150 -69q-58 0 -91 29.5t-33 80.5q0 71 78 119t198 51q2 96 2 102q0 48 -27 74t-75 26q-50 0 -84.5 -30.5t-34.5 -66.5q0 -17 7 -32q-9 -6 -21 -6q-15 0 -24 9.5t-9 25.5 q0 46 55.5 90t119.5 44q65 0 100 -34t35 -98q0 -26 -2 -132.5t-2 -153.5q0 -37 10.5 -51t38.5 -14q22 0 44 7l4 -9q-5 -5 -9 -8q-11 -9 -39.5 -29.5t-44 -33.5t-29.5 -35t-14 -44q0 -50 59 -50q23 0 52 7zM107 102q0 -77 87 -77q79 0 144 72q0 53 2 143q-105 -3 -169 -41 t-64 -97z" />
<glyph unicode="&#x106;" horiz-adv-x="626" d="M472 896l7 1q21 -7 21 -26q0 -28 -83 -57t-146 -36l-7 16q109 31 208 102zM399 -10q-161 0 -248 93.5t-87 259.5q0 160 92.5 256t232.5 96q89 0 149 -30q3 -20 3 -46q0 -58 -6 -99h-15q-5 21 -16 63.5t-17 63.5q-44 13 -97 13q-122 0 -201.5 -86.5t-79.5 -230.5 q0 -147 77.5 -232.5t209.5 -85.5q58 0 104 13q6 21 17 63.5t16 63.5h15q6 -44 6 -85q0 -42 -3 -60q-62 -30 -152 -30z" />
<glyph unicode="&#x107;" horiz-adv-x="443" d="M360 732q0 -12 -13 -29.5t-41.5 -41.5t-47 -38.5t-53.5 -41.5l-12 12q95 102 126 160l5 2h4q32 0 32 -23zM411 70q-25 -37 -66 -58.5t-88 -21.5q-92 0 -146.5 66.5t-54.5 178.5q0 119 56.5 194.5t144.5 75.5q61 0 102.5 -36t41.5 -89q0 -43 -29 -43q-10 0 -18 3 q3 18 3 30q0 46 -28.5 74t-75.5 28q-68 0 -111 -61t-43 -157q0 -107 44 -168t122 -61t134 55z" />
<glyph unicode="&#x108;" horiz-adv-x="626" d="M520 781l-14 -10q-80 64 -126 93q-61 -51 -125 -93l-12 12q83 75 115 118l6 4h37q59 -57 119 -124zM399 -10q-161 0 -248 93.5t-87 259.5q0 160 92.5 256t232.5 96q89 0 149 -30q3 -20 3 -46q0 -58 -6 -99h-15q-5 21 -16 63.5t-17 63.5q-44 13 -97 13 q-122 0 -201.5 -86.5t-79.5 -230.5q0 -147 77.5 -232.5t209.5 -85.5q58 0 104 13q6 21 17 63.5t16 63.5h15q6 -44 6 -85q0 -42 -3 -60q-62 -30 -152 -30z" />
<glyph unicode="&#x109;" horiz-adv-x="443" d="M386 596l-14 -10q-68 77 -116 120q-49 -58 -115 -120l-12 12q74 92 103 148l6 4h41q52 -69 107 -154zM411 70q-25 -37 -66 -58.5t-88 -21.5q-92 0 -146.5 66.5t-54.5 178.5q0 119 56.5 194.5t144.5 75.5q61 0 102.5 -36t41.5 -89q0 -43 -29 -43q-10 0 -18 3q3 18 3 30 q0 46 -28.5 74t-75.5 28q-68 0 -111 -61t-43 -157q0 -107 44 -168t122 -61t134 55z" />
<glyph unicode="&#x10a;" horiz-adv-x="626" d="M422 835q0 -18 -10.5 -30.5t-30.5 -12.5q-18 0 -28.5 11t-10.5 28t12 30t30 13q38 0 38 -39zM399 -10q-161 0 -248 93.5t-87 259.5q0 160 92.5 256t232.5 96q89 0 149 -30q3 -20 3 -46q0 -58 -6 -99h-15q-5 21 -16 63.5t-17 63.5q-44 13 -97 13q-122 0 -201.5 -86.5 t-79.5 -230.5q0 -147 77.5 -232.5t209.5 -85.5q58 0 104 13q6 21 17 63.5t16 63.5h15q6 -44 6 -85q0 -42 -3 -60q-62 -30 -152 -30z" />
<glyph unicode="&#x10b;" horiz-adv-x="443" d="M294 665q0 -19 -9.5 -33t-27.5 -14q-16 0 -25.5 12t-9.5 31t10.5 33t27.5 14q16 0 25 -12t9 -31zM411 70q-25 -37 -66 -58.5t-88 -21.5q-92 0 -146.5 66.5t-54.5 178.5q0 119 56.5 194.5t144.5 75.5q61 0 102.5 -36t41.5 -89q0 -43 -29 -43q-10 0 -18 3q3 18 3 30 q0 46 -28.5 74t-75.5 28q-68 0 -111 -61t-43 -157q0 -107 44 -168t122 -61t134 55z" />
<glyph unicode="&#x10c;" horiz-adv-x="626" d="M405 775l-6 -4h-37q-59 57 -119 124l14 10q80 -64 126 -93q61 51 125 93l12 -12q-83 -75 -115 -118zM399 -10q-161 0 -248 93.5t-87 259.5q0 160 92.5 256t232.5 96q89 0 149 -30q3 -20 3 -46q0 -58 -6 -99h-15q-5 21 -16 63.5t-17 63.5q-44 13 -97 13 q-122 0 -201.5 -86.5t-79.5 -230.5q0 -147 77.5 -232.5t209.5 -85.5q58 0 104 13q6 21 17 63.5t16 63.5h15q6 -44 6 -85q0 -42 -3 -60q-62 -30 -152 -30z" />
<glyph unicode="&#x10d;" horiz-adv-x="443" d="M283 592l-6 -4h-41q-52 69 -107 154l14 10q68 -77 116 -120q49 58 115 120l12 -12q-74 -92 -103 -148zM411 70q-25 -37 -66 -58.5t-88 -21.5q-92 0 -146.5 66.5t-54.5 178.5q0 119 56.5 194.5t144.5 75.5q61 0 102.5 -36t41.5 -89q0 -43 -29 -43q-10 0 -18 3q3 18 3 30 q0 46 -28.5 74t-75.5 28q-68 0 -111 -61t-43 -157q0 -107 44 -168t122 -61t134 55z" />
<glyph unicode="&#x10e;" horiz-adv-x="665" d="M326 775l-6 -4h-37q-59 57 -119 124l14 10q80 -64 126 -93q61 51 125 93l12 -12q-83 -75 -115 -118zM601 342q0 -157 -88 -249.5t-243 -92.5h-207l-2 20l58 13q16 4 21.5 10t5.5 20v559q0 14 -5.5 20t-21.5 10l-58 13l2 20h207q155 0 243 -92.5t88 -250.5zM266 653h-78 v-621h78q139 0 214.5 83t75.5 227t-75.5 227.5t-214.5 83.5z" />
<glyph unicode="&#x10f;" horiz-adv-x="697" d="M525 21q-31 -31 -74 -31q-28 0 -45 17.5t-19 49.5q-61 -67 -146 -67q-82 0 -133.5 63.5t-51.5 182.5q0 123 66.5 196t157.5 73q52 0 106 -18v223l-93 6l-2 14q26 9 125 25l10 -10v-641q0 -43 11 -62t40 -19q20 0 44 7zM641 702q0 -38 -22 -84.5t-51 -71.5l-11 9 q24 38 37 106q-34 5 -34 39q0 18 12.5 31.5t29.5 13.5q18 0 28.5 -11.5t10.5 -31.5zM99 235q0 -101 41 -156t104 -55q81 0 142 73v348q-48 27 -108 27q-79 0 -129 -61t-50 -176z" />
<glyph unicode="&#x110;" horiz-adv-x="682" d="M618 342q0 -157 -88 -249.5t-243 -92.5h-207l-2 20l58 13q16 4 21.5 10t5.5 20v274h-102v30h102v255q0 14 -5.5 20t-21.5 10l-58 13l2 20h207q155 0 243 -92.5t88 -250.5zM398 337h-193v-305h78q139 0 214.5 83t75.5 227t-75.5 227.5t-214.5 83.5h-78v-286h193v-30z" />
<glyph unicode="&#x111;" horiz-adv-x="544" d="M525 21q-31 -31 -74 -31q-28 0 -45 17.5t-19 49.5q-61 -67 -146 -67q-82 0 -133.5 63.5t-51.5 182.5q0 123 66.5 196t157.5 73q52 0 106 -18v93h-220v30h220v100l-93 6l-2 14q26 9 125 25l10 -10v-135h99v-30h-99v-476q0 -43 11 -62t40 -19q20 0 44 7zM99 235 q0 -101 41 -156t104 -55q81 0 142 73v348q-48 27 -108 27q-79 0 -129 -61t-50 -176z" />
<glyph unicode="&#x112;" horiz-adv-x="565" d="M182 816v39h254v-39h-254zM188 360l222 5l-2 -39l-220 4v-300h148q68 0 113 5l34 130h15q3 -33 3 -75q0 -54 -6 -90h-432l-2 20l58 13q16 4 21.5 10t5.5 20v559q0 14 -5.5 20t-21.5 10l-58 13l2 20h422q6 -36 6 -90q0 -37 -3 -75h-15l-34 130q-68 5 -113 5h-138v-295z " />
<glyph unicode="&#x113;" horiz-adv-x="459" d="M121 653v34h254v-34h-254zM411 70q-25 -37 -67 -58.5t-90 -21.5q-91 0 -144.5 66.5t-53.5 178.5q0 119 56.5 194.5t144.5 75.5q70 0 111 -48.5t41 -132.5q0 -18 -2 -56l-9 -10h-299v-4q0 -106 44.5 -167.5t121.5 -61.5q78 0 134 55zM253 472q-63 0 -104 -51t-49 -135 l265 5q1 15 1 35q0 70 -29.5 108t-83.5 38z" />
<glyph unicode="&#x114;" horiz-adv-x="565" d="M420 887l4 2l14 -3q-11 -48 -43.5 -75t-78.5 -27q-45 0 -76.5 27t-39.5 75l17 3q24 -62 104 -62q73 0 99 60zM188 360l222 5l-2 -39l-220 4v-300h148q68 0 113 5l34 130h15q3 -33 3 -75q0 -54 -6 -90h-432l-2 20l58 13q16 4 21.5 10t5.5 20v559q0 14 -5.5 20t-21.5 10 l-58 13l2 20h422q6 -36 6 -90q0 -37 -3 -75h-15l-34 130q-68 5 -113 5h-138v-295z" />
<glyph unicode="&#x115;" horiz-adv-x="459" d="M349 728l4 2l14 -3q-11 -58 -43.5 -90t-78.5 -32q-45 0 -76.5 32.5t-39.5 89.5l17 3q11 -38 38.5 -60t65.5 -22q34 0 60.5 21t38.5 59zM411 70q-25 -37 -67 -58.5t-90 -21.5q-91 0 -144.5 66.5t-53.5 178.5q0 119 56.5 194.5t144.5 75.5q70 0 111 -48.5t41 -132.5 q0 -18 -2 -56l-9 -10h-299v-4q0 -106 44.5 -167.5t121.5 -61.5q78 0 134 55zM253 472q-63 0 -104 -51t-49 -135l265 5q1 15 1 35q0 70 -29.5 108t-83.5 38z" />
<glyph unicode="&#x116;" horiz-adv-x="565" d="M359 834q0 -18 -10.5 -30.5t-30.5 -12.5q-18 0 -28.5 11t-10.5 28t12 30t30 13q38 0 38 -39zM188 360l222 5l-2 -39l-220 4v-300h148q68 0 113 5l34 130h15q3 -33 3 -75q0 -54 -6 -90h-432l-2 20l58 13q16 4 21.5 10t5.5 20v559q0 14 -5.5 20t-21.5 10l-58 13l2 20h422 q6 -36 6 -90q0 -37 -3 -75h-15l-34 130q-68 5 -113 5h-138v-295z" />
<glyph unicode="&#x117;" horiz-adv-x="459" d="M284 665q0 -19 -9.5 -33t-27.5 -14q-16 0 -25.5 12t-9.5 31t10.5 33t27.5 14q16 0 25 -12t9 -31zM411 70q-25 -37 -67 -58.5t-90 -21.5q-91 0 -144.5 66.5t-53.5 178.5q0 119 56.5 194.5t144.5 75.5q70 0 111 -48.5t41 -132.5q0 -18 -2 -56l-9 -10h-299v-4 q0 -106 44.5 -167.5t121.5 -61.5q78 0 134 55zM253 472q-63 0 -104 -51t-49 -135l265 5q1 15 1 35q0 70 -29.5 108t-83.5 38z" />
<glyph unicode="&#x118;" horiz-adv-x="565" d="M188 360l222 5l-2 -39l-220 4v-300h148q68 0 113 5l34 130h15q3 -33 3 -75q0 -54 -6 -90q-111 -64 -111 -127q0 -25 15.5 -38.5t43.5 -13.5q23 0 52 7l4 -9q-34 -31 -82 -31q-35 0 -55 19.5t-20 54.5q0 74 111 138h-390l-2 20l58 13q16 4 21.5 10t5.5 20v559 q0 14 -5.5 20t-21.5 10l-58 13l2 20h422q6 -36 6 -90q0 -37 -3 -75h-15l-34 130q-68 5 -113 5h-138v-295z" />
<glyph unicode="&#x119;" horiz-adv-x="459" d="M350 -181q-34 -31 -80 -31q-33 0 -55 18.5t-22 52.5q0 68 106 136q-23 -5 -45 -5q-91 0 -144.5 66.5t-53.5 178.5q0 119 56.5 194.5t144.5 75.5q70 0 111 -48.5t41 -132.5q0 -18 -2 -56l-9 -10h-299v-4q0 -106 44.5 -167.5t121.5 -61.5q78 0 134 55l12 -10 q-14 -19 -27 -31q-18 -19 -61 -54t-65.5 -62t-22.5 -55q0 -47 59 -47q23 0 52 7zM253 472q-63 0 -104 -51t-49 -135l265 5q1 15 1 35q0 70 -29.5 108t-83.5 38z" />
<glyph unicode="&#x11a;" horiz-adv-x="565" d="M342 774l-6 -4h-37q-59 57 -119 124l14 10q80 -64 126 -93q61 51 125 93l12 -12q-83 -75 -115 -118zM188 360l222 5l-2 -39l-220 4v-300h148q68 0 113 5l34 130h15q3 -33 3 -75q0 -54 -6 -90h-432l-2 20l58 13q16 4 21.5 10t5.5 20v559q0 14 -5.5 20t-21.5 10l-58 13 l2 20h422q6 -36 6 -90q0 -37 -3 -75h-15l-34 130q-68 5 -113 5h-138v-295z" />
<glyph unicode="&#x11b;" horiz-adv-x="459" d="M273 592l-6 -4h-41q-52 69 -107 154l14 10q68 -77 116 -120q49 58 115 120l12 -12q-74 -92 -103 -148zM411 70q-25 -37 -67 -58.5t-90 -21.5q-91 0 -144.5 66.5t-53.5 178.5q0 119 56.5 194.5t144.5 75.5q70 0 111 -48.5t41 -132.5q0 -18 -2 -56l-9 -10h-299v-4 q0 -106 44.5 -167.5t121.5 -61.5q78 0 134 55zM253 472q-63 0 -104 -51t-49 -135l265 5q1 15 1 35q0 70 -29.5 108t-83.5 38z" />
<glyph unicode="&#x11c;" horiz-adv-x="683" d="M520 781l-14 -10q-80 64 -126 93q-61 -51 -125 -93l-12 12q83 75 115 118l6 4h37q59 -57 119 -124zM389 -10q-155 0 -240 95t-85 258q0 157 93 254.5t232 97.5q99 0 159 -30q3 -20 3 -46q0 -48 -6 -99h-15l-33 127q-43 13 -107 13q-121 0 -201 -87.5t-80 -229.5 q0 -145 75 -231.5t202 -86.5q68 0 121 16v240l-85 19l2 20h208l2 -20l-58 -13q-16 -4 -21.5 -10t-5.5 -20v-237q-62 -30 -160 -30z" />
<glyph unicode="&#x11d;" horiz-adv-x="471" d="M365 596l-14 -10q-68 77 -116 120q-49 -58 -115 -120l-12 12q74 92 103 148l6 4h41q52 -69 107 -154zM76 317q0 82 46 135t117 53q46 0 84 -27q24 14 58.5 26.5t48.5 12.5q17 0 17 -23q0 -11 -2 -19q-3 -14 -22 -14q-54 0 -80 -2q43 -49 43 -126q0 -82 -43 -132.5 t-114 -50.5q-18 0 -38 5q-27 -29 -27 -60q0 -42 49 -46l88 -9q67 -7 104 -42t37 -92q0 -71 -61 -116t-156 -45q-82 0 -133 37.5t-51 98.5q0 59 53 102l12 -10q-22 -38 -22 -76q0 -56 40 -87.5t110 -31.5q73 0 119 34t46 87q0 44 -28.5 70t-81.5 31l-85 8q-37 4 -57 24.5 t-20 50.5q0 39 39 80q-41 19 -65.5 60t-24.5 94zM343 322q0 71 -28.5 110.5t-79.5 39.5t-83.5 -39.5t-32.5 -101.5q0 -65 31 -106t80 -42q52 -1 82.5 36.5t30.5 102.5z" />
<glyph unicode="&#x11e;" horiz-adv-x="683" d="M483 888l4 2l14 -3q-11 -48 -43.5 -75t-78.5 -27q-45 0 -76.5 27t-39.5 75l17 3q24 -62 104 -62q73 0 99 60zM389 -10q-155 0 -240 95t-85 258q0 157 93 254.5t232 97.5q99 0 159 -30q3 -20 3 -46q0 -48 -6 -99h-15l-33 127q-43 13 -107 13q-121 0 -201 -87.5t-80 -229.5 q0 -145 75 -231.5t202 -86.5q68 0 121 16v240l-85 19l2 20h208l2 -20l-58 -13q-16 -4 -21.5 -10t-5.5 -20v-237q-62 -30 -160 -30z" />
<glyph unicode="&#x11f;" horiz-adv-x="471" d="M338 728l4 2l14 -3q-11 -58 -43.5 -90t-78.5 -32q-45 0 -76.5 32.5t-39.5 89.5l17 3q11 -38 38.5 -60t65.5 -22q34 0 60.5 21t38.5 59zM76 317q0 82 46 135t117 53q46 0 84 -27q24 14 58.5 26.5t48.5 12.5q17 0 17 -23q0 -11 -2 -19q-3 -14 -22 -14q-54 0 -80 -2 q43 -49 43 -126q0 -82 -43 -132.5t-114 -50.5q-18 0 -38 5q-27 -29 -27 -60q0 -42 49 -46l88 -9q67 -7 104 -42t37 -92q0 -71 -61 -116t-156 -45q-82 0 -133 37.5t-51 98.5q0 59 53 102l12 -10q-22 -38 -22 -76q0 -56 40 -87.5t110 -31.5q73 0 119 34t46 87q0 44 -28.5 70 t-81.5 31l-85 8q-37 4 -57 24.5t-20 50.5q0 39 39 80q-41 19 -65.5 60t-24.5 94zM343 322q0 71 -28.5 110.5t-79.5 39.5t-83.5 -39.5t-32.5 -101.5q0 -65 31 -106t80 -42q52 -1 82.5 36.5t30.5 102.5z" />
<glyph unicode="&#x120;" horiz-adv-x="683" d="M422 835q0 -18 -10.5 -30.5t-30.5 -12.5q-18 0 -28.5 11t-10.5 28t12 30t30 13q38 0 38 -39zM389 -10q-155 0 -240 95t-85 258q0 157 93 254.5t232 97.5q99 0 159 -30q3 -20 3 -46q0 -48 -6 -99h-15l-33 127q-43 13 -107 13q-121 0 -201 -87.5t-80 -229.5 q0 -145 75 -231.5t202 -86.5q68 0 121 16v240l-85 19l2 20h208l2 -20l-58 -13q-16 -4 -21.5 -10t-5.5 -20v-237q-62 -30 -160 -30z" />
<glyph unicode="&#x121;" horiz-adv-x="471" d="M273 665q0 -19 -9.5 -33t-27.5 -14q-16 0 -25.5 12t-9.5 31t10.5 33t27.5 14q16 0 25 -12t9 -31zM76 317q0 82 46 135t117 53q46 0 84 -27q24 14 58.5 26.5t48.5 12.5q17 0 17 -23q0 -11 -2 -19q-3 -14 -22 -14q-54 0 -80 -2q43 -49 43 -126q0 -82 -43 -132.5t-114 -50.5 q-18 0 -38 5q-27 -29 -27 -60q0 -42 49 -46l88 -9q67 -7 104 -42t37 -92q0 -71 -61 -116t-156 -45q-82 0 -133 37.5t-51 98.5q0 59 53 102l12 -10q-22 -38 -22 -76q0 -56 40 -87.5t110 -31.5q73 0 119 34t46 87q0 44 -28.5 70t-81.5 31l-85 8q-37 4 -57 24.5t-20 50.5 q0 39 39 80q-41 19 -65.5 60t-24.5 94zM343 322q0 71 -28.5 110.5t-79.5 39.5t-83.5 -39.5t-32.5 -101.5q0 -65 31 -106t80 -42q52 -1 82.5 36.5t30.5 102.5z" />
<glyph unicode="&#x122;" horiz-adv-x="683" d="M389 -10q-155 0 -240 95t-85 258q0 157 93 254.5t232 97.5q99 0 159 -30q3 -20 3 -46q0 -48 -6 -99h-15l-33 127q-43 13 -107 13q-121 0 -201 -87.5t-80 -229.5q0 -145 75 -231.5t202 -86.5q68 0 121 16v240l-85 19l2 20h208l2 -20l-58 -13q-16 -4 -21.5 -10t-5.5 -20 v-237q-62 -30 -160 -30zM409 -165q0 -38 -22 -84.5t-51 -71.5l-11 9q24 38 37 106q-34 5 -34 39q0 18 12.5 31.5t29.5 13.5q18 0 28.5 -11.5t10.5 -31.5z" />
<glyph unicode="&#x123;" horiz-adv-x="471" d="M195 661q0 38 22 84.5t51 71.5l11 -9q-24 -38 -37 -106q34 -5 34 -39q0 -18 -12.5 -31.5t-29.5 -13.5q-18 0 -28.5 11.5t-10.5 31.5zM76 317q0 82 46 135t117 53q46 0 84 -27q24 14 58.5 26.5t48.5 12.5q17 0 17 -23q0 -11 -2 -19q-3 -14 -22 -14q-54 0 -80 -2 q43 -49 43 -126q0 -82 -43 -132.5t-114 -50.5q-18 0 -38 5q-27 -29 -27 -60q0 -42 49 -46l88 -9q67 -7 104 -42t37 -92q0 -71 -61 -116t-156 -45q-82 0 -133 37.5t-51 98.5q0 59 53 102l12 -10q-22 -38 -22 -76q0 -56 40 -87.5t110 -31.5q73 0 119 34t46 87q0 44 -28.5 70 t-81.5 31l-85 8q-37 4 -57 24.5t-20 50.5q0 39 39 80q-41 19 -65.5 60t-24.5 94zM343 322q0 71 -28.5 110.5t-79.5 39.5t-83.5 -39.5t-32.5 -101.5q0 -65 31 -106t80 -42q52 -1 82.5 36.5t30.5 102.5z" />
<glyph unicode="&#x124;" horiz-adv-x="742" d="M509 781l-14 -10q-80 64 -126 93q-61 -51 -125 -93l-12 12q83 75 115 118l6 4h37q59 -57 119 -124zM188 39l85 -19l-2 -20h-208l-2 20l58 13q16 4 21.5 10t5.5 20v583l-85 19l2 20h208l2 -20l-58 -13q-16 -4 -21.5 -10t-5.5 -20v-257h366v281l-85 19l2 20h208l2 -20 l-58 -13q-16 -4 -21.5 -10t-5.5 -20v-583l85 -19l-2 -20h-208l-2 20l58 13q16 4 21.5 10t5.5 20v267h-366v-291z" />
<glyph unicode="&#x125;" horiz-adv-x="568" d="M-5 797l-12 12q83 75 115 118l6 4h37q59 -57 119 -124l-14 -10q-80 64 -126 93q-61 -51 -125 -93zM154 35l75 -19l-2 -16h-186l-2 16l48 13q17 5 22 10.5t5 20.5v650l-73 6l-2 14q47 16 105 25l10 -10v-304q75 64 159 64q69 0 105 -39t36 -113v-318l75 -19l-2 -16h-186 l-2 16l48 13q17 5 22 10.5t5 20.5v293q0 119 -108 119q-82 0 -152 -67v-370z" />
<glyph unicode="&#x126;" horiz-adv-x="742" d="M188 39l85 -19l-2 -20h-208l-2 20l58 13q16 4 21.5 10t5.5 20v433h-76v30h76v120l-85 19l2 20h208l2 -20l-58 -13q-16 -4 -21.5 -10t-5.5 -20v-96h366v120l-85 19l2 20h208l2 -20l-58 -13q-16 -4 -21.5 -10t-5.5 -20v-96h74v-30h-74v-457l85 -19l-2 -20h-208l-2 20l58 13 q16 4 21.5 10t5.5 20v267h-366v-291zM188 365h366v131h-366v-131z" />
<glyph unicode="&#x127;" horiz-adv-x="568" d="M154 35l75 -19l-2 -16h-186l-2 16l48 13q17 5 22 10.5t5 20.5v520h-112v30h112v100l-73 6l-2 14q47 16 105 25l10 -10v-135h207v-30h-207v-139q75 64 159 64q69 0 105 -39t36 -113v-318l75 -19l-2 -16h-186l-2 16l48 13q17 5 22 10.5t5 20.5v293q0 119 -108 119 q-82 0 -152 -67v-370z" />
<glyph unicode="&#x128;" horiz-adv-x="334" d="M1 776l-14 5q19 103 75 103q29 0 118 -35t105 -35q47 73 48 74l14 -6q-10 -52 -26.5 -77t-46.5 -25q-28 0 -118.5 34.5t-104.5 35.5q-20 -22 -50 -74zM188 39l85 -19l-2 -20h-208l-2 20l58 13q16 4 21.5 10t5.5 20v583l-85 19l2 20h208l2 -20l-58 -13q-16 -4 -21.5 -10 t-5.5 -20v-583z" />
<glyph unicode="&#x129;" horiz-adv-x="276" d="M78 680q-21 -17 -47 -47l-14 5q14 77 63 77q14 0 56 -18.5t49 -18.5q39 39 46 47l14 -6q-14 -76 -62 -76q-13 0 -56 18.5t-49 18.5zM162 35l75 -19l-2 -16h-186l-2 16l48 13q17 5 22 10.5t5 20.5v400l-73 6l-2 14q47 16 105 25l10 -10v-460z" />
<glyph unicode="&#x12a;" horiz-adv-x="334" d="M41 817v39h254v-39h-254zM188 39l85 -19l-2 -20h-208l-2 20l58 13q16 4 21.5 10t5.5 20v583l-85 19l2 20h208l2 -20l-58 -13q-16 -4 -21.5 -10t-5.5 -20v-583z" />
<glyph unicode="&#x12b;" horiz-adv-x="276" d="M56 653v34h150v-34h-150zM162 35l75 -19l-2 -16h-186l-2 16l48 13q17 5 22 10.5t5 20.5v400l-73 6l-2 14q47 16 105 25l10 -10v-460z" />
<glyph unicode="&#x12c;" horiz-adv-x="334" d="M269 888l4 2l14 -3q-11 -48 -43.5 -75t-78.5 -27q-45 0 -76.5 27t-39.5 75l17 3q24 -62 104 -62q73 0 99 60zM188 39l85 -19l-2 -20h-208l-2 20l58 13q16 4 21.5 10t5.5 20v583l-85 19l2 20h208l2 -20l-58 -13q-16 -4 -21.5 -10t-5.5 -20v-583z" />
<glyph unicode="&#x12d;" horiz-adv-x="276" d="M235 721q-5 -55 -34 -88.5t-72 -33.5q-42 0 -69 33t-31 89l17 3q7 -37 31 -59.5t57 -22.5q32 0 55 22t28 58l4 2zM162 35l75 -19l-2 -16h-186l-2 16l48 13q17 5 22 10.5t5 20.5v400l-73 6l-2 14q47 16 105 25l10 -10v-460z" />
<glyph unicode="&#x12e;" horiz-adv-x="334" d="M188 39l85 -19l-2 -20q-111 -64 -111 -127q0 -25 15.5 -38.5t43.5 -13.5q23 0 52 7l4 -9q-34 -31 -82 -31q-35 0 -55 19.5t-20 54.5q0 74 111 138h-166l-2 20l58 13q16 4 21.5 10t5.5 20v583l-85 19l2 20h208l2 -20l-58 -13q-16 -4 -21.5 -10t-5.5 -20v-583z" />
<glyph unicode="&#x12f;" horiz-adv-x="276" d="M167 665q0 -19 -9.5 -33t-27.5 -14q-16 0 -25.5 12t-9.5 31t10.5 33t27.5 14q16 0 25 -12t9 -31zM162 35l75 -19l-2 -16q-111 -64 -111 -127q0 -25 15.5 -38.5t43.5 -13.5q23 0 52 7l4 -9q-34 -31 -82 -31q-35 0 -55 19.5t-20 54.5q0 74 111 138h-144l-2 16l48 13 q17 5 22 10.5t5 20.5v400l-73 6l-2 14q47 16 105 25l10 -10v-460z" />
<glyph unicode="&#x130;" horiz-adv-x="334" d="M208 835q0 -18 -10.5 -30.5t-30.5 -12.5q-18 0 -28.5 11t-10.5 28t12 30t30 13q38 0 38 -39zM188 39l85 -19l-2 -20h-208l-2 20l58 13q16 4 21.5 10t5.5 20v583l-85 19l2 20h208l2 -20l-58 -13q-16 -4 -21.5 -10t-5.5 -20v-583z" />
<glyph unicode="&#x131;" horiz-adv-x="276" d="M162 35l75 -19l-2 -16h-186l-2 16l48 13q17 5 22 10.5t5 20.5v400l-73 6l-2 14q47 16 105 25l10 -10v-460z" />
<glyph unicode="&#x132;" horiz-adv-x="571" d="M188 39l85 -19l-2 -20h-208l-2 20l58 13q16 4 21.5 10t5.5 20v583l-85 19l2 20h208l2 -20l-58 -13q-16 -4 -21.5 -10t-5.5 -20v-583zM399 646l-85 19l2 20h208l2 -20l-58 -13q-16 -4 -21.5 -10t-5.5 -20v-547q0 -89 -24 -137.5t-87 -107.5l-17 17q27 38 37 54.5 t24.5 48.5t19.5 68t5 86v542z" />
<glyph unicode="&#x133;" horiz-adv-x="476" d="M167 665q0 -19 -9.5 -33t-27.5 -14q-16 0 -25.5 12t-9.5 31t10.5 33t27.5 14q16 0 25 -12t9 -31zM380 665q0 -19 -9.5 -33t-27.5 -14q-16 0 -25.5 12t-9.5 31t10.5 33t27.5 14q16 0 25 -12t9 -31zM162 35l75 -19l-2 -16h-186l-2 16l48 13q17 5 22 10.5t5 20.5v400l-73 6 l-2 14q47 16 105 25l10 -10v-460zM249 -241q34 48 47.5 71.5t26 72.5t12.5 116v441l-73 6l-2 14q47 16 105 25l10 -10v-505q0 -89 -24 -137.5t-87 -107.5z" />
<glyph unicode="&#x134;" horiz-adv-x="319" d="M306 781l-14 -10q-80 64 -126 93q-61 -51 -125 -93l-12 12q83 75 115 118l6 4h37q59 -57 119 -124zM147 646l-85 19l2 20h208l2 -20l-58 -13q-16 -4 -21.5 -10t-5.5 -20v-547q0 -89 -24 -137.5t-87 -107.5l-17 17q27 38 37 54.5t24.5 48.5t19.5 68t5 86v542z" />
<glyph unicode="&#x135;" horiz-adv-x="256" d="M226 591l-14 -10q-45 67 -86 119q-44 -70 -85 -119l-12 12q48 85 72 148l6 4h43q36 -68 76 -154zM29 -241q34 48 47.5 71.5t26 72.5t12.5 116v441l-73 6l-2 14q47 16 105 25l10 -10v-505q0 -89 -24 -137.5t-87 -107.5z" />
<glyph unicode="&#x136;" horiz-adv-x="669" d="M188 39l85 -19l-2 -20h-208l-2 20l58 13q16 4 21.5 10t5.5 20v583l-85 19l2 20h208l2 -20l-58 -13q-16 -4 -21.5 -10t-5.5 -20v-274l145 2l180 296l-85 19l2 20h205l2 -20l-59 -13q-23 -5 -43 -36l-169 -275l143 -241q22 -36 40 -50t51 -23l28 -7l-2 -20h-42 q-40 0 -62.5 16.5t-44.5 53.5l-144 245h-145v-276zM411 -165q0 -38 -22 -84.5t-51 -71.5l-11 9q24 38 37 106q-34 5 -34 39q0 18 12.5 31.5t29.5 13.5q18 0 28.5 -11.5t10.5 -31.5z" />
<glyph unicode="&#x137;" horiz-adv-x="528" d="M154 35l75 -19l-2 -16h-186l-2 16l48 13q17 5 22 10.5t5 20.5v651l-73 6l-2 14q47 16 105 25l10 -10v-466h114l113 180l-75 19l2 16h177l2 -16l-44 -13q-19 -5 -40 -36l-105 -155l108 -181q33 -55 64 -64l34 -10l-2 -20h-36q-32 0 -50 14t-38 48l-111 188h-113v-215z M328 -165q0 -38 -22 -84.5t-51 -71.5l-11 9q24 38 37 106q-34 5 -34 39q0 18 12.5 31.5t29.5 13.5q18 0 28.5 -11.5t10.5 -31.5z" />
<glyph unicode="&#x138;" horiz-adv-x="537" d="M162 35l75 -19l-2 -16h-186l-2 16l48 13q17 5 22 10.5t5 20.5v400l-73 6l-2 14q47 16 105 25l10 -10v-240h117l140 207l-72 16l2 17h175l2 -17q-32 -5 -50 -12q-17 -6 -37 -34l-128 -184l101 -138q31 -43 48 -60t44 -26l23 -8l-2 -16l-38 -2q-20 -1 -35 7t-22 16t-23 30 l-127 172h-118v-188z" />
<glyph unicode="&#x139;" horiz-adv-x="548" d="M264 896l7 1q21 -7 21 -26q0 -28 -83 -57t-146 -36l-7 16q109 31 208 102zM146 646l-85 19l2 20h208l2 -20l-58 -13q-16 -4 -21.5 -10t-5.5 -20v-592h139q74 0 120 11q10 30 20 79l7 35h15q3 -33 3 -75q0 -48 -6 -80h-423l-2 20l58 13q16 4 21.5 10t5.5 20v583z" />
<glyph unicode="&#x13a;" horiz-adv-x="268" d="M206 958l7 1q21 -7 21 -26q0 -28 -83 -57t-146 -36l-7 16q109 31 208 102zM154 35l75 -19l-2 -16h-186l-2 16l48 13q17 5 22 10.5t5 20.5v651l-73 6l-2 14q47 16 105 25l10 -10v-711z" />
<glyph unicode="&#x13b;" horiz-adv-x="548" d="M146 646l-85 19l2 20h208l2 -20l-58 -13q-16 -4 -21.5 -10t-5.5 -20v-592h139q74 0 120 11q10 30 20 79l7 35h15q3 -33 3 -75q0 -48 -6 -80h-423l-2 20l58 13q16 4 21.5 10t5.5 20v583zM339 -165q0 -38 -22 -84.5t-51 -71.5l-11 9q24 38 37 106q-34 5 -34 39 q0 18 12.5 31.5t29.5 13.5q18 0 28.5 -11.5t10.5 -31.5z" />
<glyph unicode="&#x13c;" horiz-adv-x="268" d="M154 35l75 -19l-2 -16h-186l-2 16l48 13q17 5 22 10.5t5 20.5v651l-73 6l-2 14q47 16 105 25l10 -10v-711zM171 -165q0 -38 -22 -84.5t-51 -71.5l-11 9q24 38 37 106q-34 5 -34 39q0 18 12.5 31.5t29.5 13.5q18 0 28.5 -11.5t10.5 -31.5z" />
<glyph unicode="&#x13d;" horiz-adv-x="554" d="M498 657q0 -38 -22 -84.5t-51 -71.5l-11 9q24 38 37 106q-34 5 -34 39q0 18 12.5 31.5t29.5 13.5q18 0 28.5 -11.5t10.5 -31.5zM146 646l-85 19l2 20h208l2 -20l-58 -13q-16 -4 -21.5 -10t-5.5 -20v-592h139q74 0 120 11q10 30 20 79l7 35h15q3 -33 3 -75q0 -48 -6 -80 h-423l-2 20l58 13q16 4 21.5 10t5.5 20v583z" />
<glyph unicode="&#x13e;" horiz-adv-x="398" d="M154 35l75 -19l-2 -16h-186l-2 16l48 13q17 5 22 10.5t5 20.5v651l-73 6l-2 14q47 16 105 25l10 -10v-711zM342 712q0 -38 -22 -84.5t-51 -71.5l-11 9q24 38 37 106q-34 5 -34 39q0 18 12.5 31.5t29.5 13.5q18 0 28.5 -11.5t10.5 -31.5z" />
<glyph unicode="&#x13f;" horiz-adv-x="548" d="M146 646l-85 19l2 20h208l2 -20l-58 -13q-16 -4 -21.5 -10t-5.5 -20v-592h139q74 0 120 11q10 30 20 79l7 35h15q3 -33 3 -75q0 -48 -6 -80h-423l-2 20l58 13q16 4 21.5 10t5.5 20v583zM473 371q0 -19 -9.5 -33t-27.5 -14q-16 0 -25.5 12t-9.5 31t10.5 33t27.5 14 q16 0 25 -12t9 -31z" />
<glyph unicode="&#x140;" horiz-adv-x="315" d="M154 35l75 -19l-2 -16h-186l-2 16l48 13q17 5 22 10.5t5 20.5v651l-73 6l-2 14q47 16 105 25l10 -10v-711zM315 412q0 -19 -9.5 -33t-27.5 -14q-16 0 -25.5 12t-9.5 31t10.5 33t27.5 14q16 0 25 -12t9 -31z" />
<glyph unicode="&#x141;" horiz-adv-x="548" d="M336 417l-148 -82v-305h139q74 0 120 11q10 30 20 79l7 35h15q3 -33 3 -75q0 -48 -6 -80h-423l-2 20l58 13q16 4 21.5 10t5.5 20v249l-126 -70l-16 31l142 79v294l-85 19l2 20h208l2 -20l-58 -13q-16 -4 -21.5 -10t-5.5 -20v-247l131 73z" />
<glyph unicode="&#x142;" horiz-adv-x="268" d="M154 35l75 -19l-2 -16h-186l-2 16l48 13q17 5 22 10.5t5 20.5v303l-131 -73l-16 31l147 82v308l-73 6l-2 14q47 16 105 25l10 -10v-321l128 71l17 -31l-145 -80v-350z" />
<glyph unicode="&#x143;" horiz-adv-x="736" d="M456 896l7 1q21 -7 21 -26q0 -28 -83 -57t-146 -36l-7 16q109 31 208 102zM181 39l105 -19l-2 -20h-221l-2 20l58 13q16 4 21.5 10t5.5 20v559q0 14 -5.5 20t-21.5 10l-58 13l2 20h118l390 -610v571l-85 19l2 20h201l2 -20l-58 -13q-16 -4 -21.5 -10t-5.5 -20v-622h-35 l-390 606v-567z" />
<glyph unicode="&#x144;" horiz-adv-x="576" d="M386 732q0 -12 -13 -29.5t-41.5 -41.5t-47 -38.5t-53.5 -41.5l-12 12q95 102 126 160l5 2h4q32 0 32 -23zM162 35l75 -19l-2 -16h-186l-2 16l48 13q17 5 22 10.5t5 20.5v400l-73 6l-2 14q47 16 105 25l10 -10v-54q75 64 159 64q69 0 105 -39t36 -113v-318l75 -19l-2 -16 h-186l-2 16l48 13q17 5 22 10.5t5 20.5v293q0 119 -108 119q-82 0 -152 -67v-370z" />
<glyph unicode="&#x145;" horiz-adv-x="736" d="M181 39l105 -19l-2 -20h-221l-2 20l58 13q16 4 21.5 10t5.5 20v559q0 14 -5.5 20t-21.5 10l-58 13l2 20h118l390 -610v571l-85 19l2 20h201l2 -20l-58 -13q-16 -4 -21.5 -10t-5.5 -20v-622h-35l-390 606v-567zM418 -165q0 -38 -22 -84.5t-51 -71.5l-11 9q24 38 37 106 q-34 5 -34 39q0 18 12.5 31.5t29.5 13.5q18 0 28.5 -11.5t10.5 -31.5z" />
<glyph unicode="&#x146;" horiz-adv-x="576" d="M162 35l75 -19l-2 -16h-186l-2 16l48 13q17 5 22 10.5t5 20.5v400l-73 6l-2 14q47 16 105 25l10 -10v-54q75 64 159 64q69 0 105 -39t36 -113v-318l75 -19l-2 -16h-186l-2 16l48 13q17 5 22 10.5t5 20.5v293q0 119 -108 119q-82 0 -152 -67v-370zM325 -165 q0 -38 -22 -84.5t-51 -71.5l-11 9q24 38 37 106q-34 5 -34 39q0 18 12.5 31.5t29.5 13.5q18 0 28.5 -11.5t10.5 -31.5z" />
<glyph unicode="&#x147;" horiz-adv-x="736" d="M389 775l-6 -4h-37q-59 57 -119 124l14 10q80 -64 126 -93q61 51 125 93l12 -12q-83 -75 -115 -118zM181 39l105 -19l-2 -20h-221l-2 20l58 13q16 4 21.5 10t5.5 20v559q0 14 -5.5 20t-21.5 10l-58 13l2 20h118l390 -610v571l-85 19l2 20h201l2 -20l-58 -13 q-16 -4 -21.5 -10t-5.5 -20v-622h-35l-390 606v-567z" />
<glyph unicode="&#x148;" horiz-adv-x="576" d="M309 592l-6 -4h-41q-52 69 -107 154l14 10q68 -77 116 -120q49 58 115 120l12 -12q-74 -92 -103 -148zM162 35l75 -19l-2 -16h-186l-2 16l48 13q17 5 22 10.5t5 20.5v400l-73 6l-2 14q47 16 105 25l10 -10v-54q75 64 159 64q69 0 105 -39t36 -113v-318l75 -19l-2 -16 h-186l-2 16l48 13q17 5 22 10.5t5 20.5v293q0 119 -108 119q-82 0 -152 -67v-370z" />
<glyph unicode="&#x14a;" horiz-adv-x="736" d="M181 39l105 -19l-2 -20h-221l-2 20l58 13q16 4 21.5 10t5.5 20v559q0 14 -5.5 20t-21.5 10l-58 13l2 20h118l389 -609q1 9 1 28v542l-85 19l2 20h201l2 -20l-58 -13q-16 -4 -21.5 -10t-5.5 -20v-547q0 -89 -24 -137.5t-87 -107.5l-15 15q28 39 39 54.5t25 46.5t20 65 l-383 595v-567z" />
<glyph unicode="&#x14b;" horiz-adv-x="563" d="M162 35l75 -19l-2 -16h-186l-2 16l48 13q17 5 22 10.5t5 20.5v400l-73 6l-2 14q47 16 105 25l10 -10v-54q75 64 159 64q69 0 105 -39t36 -113v-363q0 -89 -24 -137.5t-87 -107.5l-15 14q34 48 47.5 71.5t26 72.5t12.5 116v334q0 119 -108 119q-82 0 -152 -67v-370z" />
<glyph unicode="&#x14c;" horiz-adv-x="648" d="M203 817v39h254v-39h-254zM64 343q0 161 74.5 256.5t193.5 95.5q113 0 182.5 -94.5t69.5 -252.5q0 -161 -71 -259.5t-190 -98.5q-120 0 -189.5 94.5t-69.5 258.5zM109 343q0 -146 59.5 -232t157.5 -86q97 0 155 89t58 234q0 142 -57 227t-150 85q-100 0 -161.5 -86 t-61.5 -231z" />
<glyph unicode="&#x14d;" horiz-adv-x="498" d="M128 653v34h254v-34h-254zM442 250q0 -122 -55 -190.5t-140 -69.5q-84 -1 -137.5 68.5t-53.5 192.5q0 119 59.5 186.5t140.5 67.5q79 0 132.5 -67t53.5 -188zM99 249q0 -97 40.5 -161.5t107.5 -64.5q71 0 111.5 56.5t40.5 165.5q0 101 -39.5 164t-104.5 63 q-70 0 -113 -57t-43 -166z" />
<glyph unicode="&#x14e;" horiz-adv-x="648" d="M431 888l4 2l14 -3q-11 -48 -43.5 -75t-78.5 -27q-45 0 -76.5 27t-39.5 75l17 3q24 -62 104 -62q73 0 99 60zM64 343q0 161 74.5 256.5t193.5 95.5q113 0 182.5 -94.5t69.5 -252.5q0 -161 -71 -259.5t-190 -98.5q-120 0 -189.5 94.5t-69.5 258.5zM109 343 q0 -146 59.5 -232t157.5 -86q97 0 155 89t58 234q0 142 -57 227t-150 85q-100 0 -161.5 -86t-61.5 -231z" />
<glyph unicode="&#x14f;" horiz-adv-x="498" d="M356 728l4 2l14 -3q-11 -58 -43.5 -90t-78.5 -32q-45 0 -76.5 32.5t-39.5 89.5l17 3q11 -38 38.5 -60t65.5 -22q34 0 60.5 21t38.5 59zM442 250q0 -122 -55 -190.5t-140 -69.5q-84 -1 -137.5 68.5t-53.5 192.5q0 119 59.5 186.5t140.5 67.5q79 0 132.5 -67t53.5 -188z M99 249q0 -97 40.5 -161.5t107.5 -64.5q71 0 111.5 56.5t40.5 165.5q0 101 -39.5 164t-104.5 63q-70 0 -113 -57t-43 -166z" />
<glyph unicode="&#x150;" horiz-adv-x="648" d="M326 897l7 1q21 -8 21 -26q0 -26 -66 -56.5t-113 -36.5l-7 16q82 31 158 102zM506 897l7 1q21 -8 21 -26q0 -26 -66 -56.5t-113 -36.5l-7 16q82 31 158 102zM64 343q0 161 74.5 256.5t193.5 95.5q113 0 182.5 -94.5t69.5 -252.5q0 -161 -71 -259.5t-190 -98.5 q-120 0 -189.5 94.5t-69.5 258.5zM109 343q0 -146 59.5 -232t157.5 -86q97 0 155 89t58 234q0 142 -57 227t-150 85q-100 0 -161.5 -86t-61.5 -231z" />
<glyph unicode="&#x151;" horiz-adv-x="498" d="M280 732q0 -12 -12.5 -29t-41 -42t-45 -38.5t-52.5 -41.5l-12 12q93 100 125 160l5 2h4q29 0 29 -23zM410 732q0 -12 -12.5 -29t-41 -42t-45 -38.5t-52.5 -41.5l-12 12q96 103 125 160l5 2h4q29 0 29 -23zM442 250q0 -122 -55 -190.5t-140 -69.5q-84 -1 -137.5 68.5 t-53.5 192.5q0 119 59.5 186.5t140.5 67.5q79 0 132.5 -67t53.5 -188zM99 249q0 -97 40.5 -161.5t107.5 -64.5q71 0 111.5 56.5t40.5 165.5q0 101 -39.5 164t-104.5 63q-70 0 -113 -57t-43 -166z" />
<glyph unicode="&#x152;" horiz-adv-x="857" d="M480 360l222 5l-2 -39l-220 4v-300h148q68 0 113 5l34 130h15q3 -33 3 -75q0 -54 -6 -90h-348q-31 -10 -76 -10q-132 0 -216 94t-84 254q0 159 89 258t220 99q37 0 68 -10h337q6 -36 6 -90q0 -37 -3 -75h-15l-34 130q-67 5 -113 5h-138v-295zM108 338q0 -142 73.5 -228.5 t182.5 -86.5q44 0 74 9v620q-32 10 -65 10q-116 0 -190.5 -88.5t-74.5 -235.5z" />
<glyph unicode="&#x153;" horiz-adv-x="807" d="M241 -10q-82 -1 -134 68.5t-52 192.5q0 119 58 186.5t137 67.5q61 0 105.5 -36.5t63.5 -105.5q24 66 71.5 104t108.5 38q70 0 111 -48.5t41 -132.5q0 -18 -2 -56l-9 -10h-299v-4q0 -106 44.5 -167.5t121.5 -61.5q78 0 134 55l12 -10q-25 -37 -67 -58.5t-90 -21.5 q-65 0 -112 35.5t-69 98.5q-44 -132 -174 -134zM98 249q0 -97 40.5 -161.5t107.5 -64.5q71 0 111.5 56.5t40.5 165.5q0 101 -39.5 164t-104.5 63q-70 0 -113 -57t-43 -166zM595 472q-63 0 -104 -51t-49 -135l265 5q1 15 1 35q0 70 -29.5 108t-83.5 38z" />
<glyph unicode="&#x154;" horiz-adv-x="628" d="M383 896l7 1q21 -7 21 -26q0 -28 -83 -57t-146 -36l-7 16q109 31 208 102zM188 39l85 -19l-2 -20h-208l-2 20l58 13q16 4 21.5 10t5.5 20v559q0 14 -5.5 20t-21.5 10l-58 13l2 20h215q96 0 160.5 -50.5t64.5 -139.5q0 -69 -37 -115t-98 -66l114 -214q19 -37 37 -49.5 t54 -23.5l23 -7l-2 -20h-37q-41 0 -64 16.5t-43 53.5l-124 234q-21 -4 -48 -4h-90v-261zM268 650h-80v-317h80q90 0 140 41t50 121q0 74 -50.5 114.5t-139.5 40.5z" />
<glyph unicode="&#x155;" horiz-adv-x="388" d="M336 732q0 -12 -13 -29.5t-41.5 -41.5t-47 -38.5t-53.5 -41.5l-12 12q95 102 126 160l5 2h4q32 0 32 -23zM162 35l95 -19l-2 -16h-206l-2 16l48 13q17 5 22 10.5t5 20.5v400l-73 6l-2 14q47 16 105 25l10 -10v-71q65 81 135 81q31 0 49 -15t18 -34q0 -22 -20 -34 q-2 -1 -5 -2q-12 23 -25 34t-35 11q-57 0 -117 -85v-345z" />
<glyph unicode="&#x156;" horiz-adv-x="628" d="M188 39l85 -19l-2 -20h-208l-2 20l58 13q16 4 21.5 10t5.5 20v559q0 14 -5.5 20t-21.5 10l-58 13l2 20h215q96 0 160.5 -50.5t64.5 -139.5q0 -69 -37 -115t-98 -66l114 -214q19 -37 37 -49.5t54 -23.5l23 -7l-2 -20h-37q-41 0 -64 16.5t-43 53.5l-124 234q-21 -4 -48 -4 h-90v-261zM268 650h-80v-317h80q90 0 140 41t50 121q0 74 -50.5 114.5t-139.5 40.5zM393 -165q0 -38 -22 -84.5t-51 -71.5l-11 9q24 38 37 106q-34 5 -34 39q0 18 12.5 31.5t29.5 13.5q18 0 28.5 -11.5t10.5 -31.5z" />
<glyph unicode="&#x157;" horiz-adv-x="388" d="M162 35l95 -19l-2 -16h-206l-2 16l48 13q17 5 22 10.5t5 20.5v400l-73 6l-2 14q47 16 105 25l10 -10v-71q65 81 135 81q31 0 49 -15t18 -34q0 -22 -20 -34q-2 -1 -5 -2q-12 23 -25 34t-35 11q-57 0 -117 -85v-345zM185 -165q0 -38 -22 -84.5t-51 -71.5l-11 9 q24 38 37 106q-34 5 -34 39q0 18 12.5 31.5t29.5 13.5q18 0 28.5 -11.5t10.5 -31.5z" />
<glyph unicode="&#x158;" horiz-adv-x="628" d="M316 775l-6 -4h-37q-59 57 -119 124l14 10q80 -64 126 -93q61 51 125 93l12 -12q-83 -75 -115 -118zM188 39l85 -19l-2 -20h-208l-2 20l58 13q16 4 21.5 10t5.5 20v559q0 14 -5.5 20t-21.5 10l-58 13l2 20h215q96 0 160.5 -50.5t64.5 -139.5q0 -69 -37 -115t-98 -66 l114 -214q19 -37 37 -49.5t54 -23.5l23 -7l-2 -20h-37q-41 0 -64 16.5t-43 53.5l-124 234q-21 -4 -48 -4h-90v-261zM268 650h-80v-317h80q90 0 140 41t50 121q0 74 -50.5 114.5t-139.5 40.5z" />
<glyph unicode="&#x159;" horiz-adv-x="388" d="M259 592l-6 -4h-41q-52 69 -107 154l14 10q68 -77 116 -120q49 58 115 120l12 -12q-74 -92 -103 -148zM162 35l95 -19l-2 -16h-206l-2 16l48 13q17 5 22 10.5t5 20.5v400l-73 6l-2 14q47 16 105 25l10 -10v-71q65 81 135 81q31 0 49 -15t18 -34q0 -22 -20 -34 q-2 -1 -5 -2q-12 23 -25 34t-35 11q-57 0 -117 -85v-345z" />
<glyph unicode="&#x15a;" horiz-adv-x="482" d="M356 896l7 1q21 -7 21 -26q0 -28 -83 -57t-146 -36l-7 16q109 31 208 102zM226 -10q-56 0 -104.5 12t-56.5 25q-9 15 -9 56q0 48 7 82h15q15 -90 38 -113q27 -27 116 -27q67 0 108 37.5t41 91.5q0 50 -32.5 89t-79 65.5t-93 54.5t-79 70.5t-32.5 98.5q0 76 56 119.5 t140 43.5q52 0 90 -11.5t50 -25.5q6 -7 6 -46q0 -44 -6 -92h-16q-12 90 -35 113q-28 27 -99 27q-62 0 -101.5 -34.5t-39.5 -92.5q0 -49 32.5 -87t79 -64.5t93 -54t79 -70.5t32.5 -99q0 -75 -54.5 -121.5t-145.5 -46.5z" />
<glyph unicode="&#x15b;" horiz-adv-x="404" d="M304 732q0 -12 -13 -29.5t-41.5 -41.5t-47 -38.5t-53.5 -41.5l-12 12q95 102 126 160l5 2h4q32 0 32 -23zM187 -10q-37 0 -76 8.5t-47 18.5q-8 9 -8 50q0 42 6 78h15q8 -81 32 -105q17 -17 84 -17q51 0 81.5 24.5t30.5 66.5q0 36 -25 61.5t-61 42.5t-72 35t-61 49t-25 75 q0 55 45 91.5t111 36.5q37 0 70.5 -8t42.5 -19q6 -6 6 -44q0 -44 -6 -84h-15q-7 87 -29 104q-27 18 -74 18q-49 0 -78.5 -25.5t-29.5 -69.5q0 -35 25 -61.5t61 -43.5t72 -35t61 -48t25 -71q0 -57 -44.5 -92.5t-116.5 -35.5z" />
<glyph unicode="&#x15c;" horiz-adv-x="482" d="M394 781l-14 -10q-80 64 -126 93q-61 -51 -125 -93l-12 12q83 75 115 118l6 4h37q59 -57 119 -124zM226 -10q-56 0 -104.5 12t-56.5 25q-9 15 -9 56q0 48 7 82h15q15 -90 38 -113q27 -27 116 -27q67 0 108 37.5t41 91.5q0 50 -32.5 89t-79 65.5t-93 54.5t-79 70.5 t-32.5 98.5q0 76 56 119.5t140 43.5q52 0 90 -11.5t50 -25.5q6 -7 6 -46q0 -44 -6 -92h-16q-12 90 -35 113q-28 27 -99 27q-62 0 -101.5 -34.5t-39.5 -92.5q0 -49 32.5 -87t79 -64.5t93 -54t79 -70.5t32.5 -99q0 -75 -54.5 -121.5t-145.5 -46.5z" />
<glyph unicode="&#x15d;" horiz-adv-x="404" d="M335 596l-14 -10q-68 77 -116 120q-49 -58 -115 -120l-12 12q74 92 103 148l6 4h41q52 -69 107 -154zM187 -10q-37 0 -76 8.5t-47 18.5q-8 9 -8 50q0 42 6 78h15q8 -81 32 -105q17 -17 84 -17q51 0 81.5 24.5t30.5 66.5q0 36 -25 61.5t-61 42.5t-72 35t-61 49t-25 75 q0 55 45 91.5t111 36.5q37 0 70.5 -8t42.5 -19q6 -6 6 -44q0 -44 -6 -84h-15q-7 87 -29 104q-27 18 -74 18q-49 0 -78.5 -25.5t-29.5 -69.5q0 -35 25 -61.5t61 -43.5t72 -35t61 -48t25 -71q0 -57 -44.5 -92.5t-116.5 -35.5z" />
<glyph unicode="&#x15e;" horiz-adv-x="482" d="M212 -91l-3 5l13 76q-55 1 -102 12.5t-55 24.5q-9 15 -9 56q0 48 7 82h15q15 -90 38 -113q27 -27 116 -27q67 0 108 37.5t41 91.5q0 50 -32.5 89t-79 65.5t-93 54.5t-79 70.5t-32.5 98.5q0 76 56 119.5t140 43.5q52 0 90 -11.5t50 -25.5q6 -7 6 -46q0 -44 -6 -92h-16 q-12 90 -35 113q-28 27 -99 27q-62 0 -101.5 -34.5t-39.5 -92.5q0 -49 32.5 -87t79 -64.5t93 -54t79 -70.5t32.5 -99q0 -69 -46.5 -114.5t-126.5 -52.5l-10 -55q73 -21 73 -69q0 -33 -36 -53t-86 -26l-4 15q83 21 83 59q0 32 -61 47z" />
<glyph unicode="&#x15f;" horiz-adv-x="404" d="M171 -91l-3 5l13 76q-37 1 -73 9t-44 18q-8 9 -8 50q0 42 6 78h15q8 -81 32 -105q17 -17 84 -17q51 0 81.5 24.5t30.5 66.5q0 36 -25 61.5t-61 42.5t-72 35t-61 49t-25 75q0 55 45 91.5t111 36.5q37 0 70.5 -8t42.5 -19q6 -6 6 -44q0 -44 -6 -84h-15q-7 87 -29 104 q-27 18 -74 18q-49 0 -78.5 -25.5t-29.5 -69.5q0 -35 25 -61.5t61 -43.5t72 -35t61 -48t25 -71q0 -51 -37 -85.5t-99 -41.5l-10 -55q73 -21 73 -69q0 -33 -36 -53t-86 -26l-4 15q83 21 83 59q0 32 -61 47z" />
<glyph unicode="&#x160;" horiz-adv-x="482" d="M289 775l-6 -4h-37q-59 57 -119 124l14 10q80 -64 126 -93q61 51 125 93l12 -12q-83 -75 -115 -118zM226 -10q-56 0 -104.5 12t-56.5 25q-9 15 -9 56q0 48 7 82h15q15 -90 38 -113q27 -27 116 -27q67 0 108 37.5t41 91.5q0 50 -32.5 89t-79 65.5t-93 54.5t-79 70.5 t-32.5 98.5q0 76 56 119.5t140 43.5q52 0 90 -11.5t50 -25.5q6 -7 6 -46q0 -44 -6 -92h-16q-12 90 -35 113q-28 27 -99 27q-62 0 -101.5 -34.5t-39.5 -92.5q0 -49 32.5 -87t79 -64.5t93 -54t79 -70.5t32.5 -99q0 -75 -54.5 -121.5t-145.5 -46.5z" />
<glyph unicode="&#x161;" horiz-adv-x="404" d="M237 592l-6 -4h-41q-52 69 -107 154l14 10q68 -77 116 -120q49 58 115 120l12 -12q-74 -92 -103 -148zM187 -10q-37 0 -76 8.5t-47 18.5q-8 9 -8 50q0 42 6 78h15q8 -81 32 -105q17 -17 84 -17q51 0 81.5 24.5t30.5 66.5q0 36 -25 61.5t-61 42.5t-72 35t-61 49t-25 75 q0 55 45 91.5t111 36.5q37 0 70.5 -8t42.5 -19q6 -6 6 -44q0 -44 -6 -84h-15q-7 87 -29 104q-27 18 -74 18q-49 0 -78.5 -25.5t-29.5 -69.5q0 -35 25 -61.5t61 -43.5t72 -35t61 -48t25 -71q0 -57 -44.5 -92.5t-116.5 -35.5z" />
<glyph unicode="&#x162;" horiz-adv-x="584" d="M266 -91l-3 5l15 86h-90l-2 20l58 13q16 4 21.5 10t5.5 20v590h-74q-72 0 -120 -10q-9 -34 -19 -84l-8 -39h-15q-3 39 -3 75q0 54 6 90h508q6 -36 6 -90q0 -36 -3 -75h-15l-8 39q-10 50 -19 84q-48 10 -120 10h-74v-614l85 -19l-2 -20h-87l-12 -64q73 -21 73 -69 q0 -33 -36 -53t-86 -26l-4 15q83 21 83 59q0 32 -61 47z" />
<glyph unicode="&#x163;" horiz-adv-x="405" d="M205 -91l-3 5l13 77q-94 12 -94 139v330h-88l-2 16l90 14l20 150l20 -2v-148h185v-30h-185v-315q0 -120 81 -120q59 0 119 55l12 -10q-23 -33 -57 -54.5t-70 -24.5l-10 -55q73 -21 73 -69q0 -33 -36 -53t-86 -26l-4 15q83 21 83 59q0 32 -61 47z" />
<glyph unicode="&#x164;" horiz-adv-x="584" d="M315 776l-6 -4h-37q-59 57 -119 124l14 10q80 -64 126 -93q61 51 125 93l12 -12q-83 -75 -115 -118zM313 39l85 -19l-2 -20h-208l-2 20l58 13q16 4 21.5 10t5.5 20v590h-74q-72 0 -120 -10q-9 -34 -19 -84l-8 -39h-15q-3 39 -3 75q0 54 6 90h508q6 -36 6 -90 q0 -36 -3 -75h-15l-8 39q-10 50 -19 84q-48 10 -120 10h-74v-614z" />
<glyph unicode="&#x165;" horiz-adv-x="373" d="M384 702q0 -38 -22 -84.5t-51 -71.5l-11 9q24 38 37 106q-34 5 -34 39q0 18 12.5 31.5t29.5 13.5q18 0 28.5 -11.5t10.5 -31.5zM373 70q-25 -36 -62.5 -58t-76.5 -22q-55 0 -84 36t-29 104v330h-88l-2 16l90 14l20 150l20 -2v-148h185v-30h-185v-315q0 -120 81 -120 q59 0 119 55z" />
<glyph unicode="&#x166;" horiz-adv-x="584" d="M313 39l85 -19l-2 -20h-208l-2 20l58 13q16 4 21.5 10t5.5 20v271h-171v30h171v289h-74q-72 0 -120 -10q-9 -34 -19 -84l-8 -39h-15q-3 39 -3 75q0 54 6 90h508q6 -36 6 -90q0 -36 -3 -75h-15l-8 39q-10 50 -19 84q-48 10 -120 10h-74v-289h171v-30h-171v-295z" />
<glyph unicode="&#x167;" horiz-adv-x="405" d="M345 316h-184v-171q0 -120 81 -120q59 0 119 55l12 -10q-25 -36 -62.5 -58t-76.5 -22q-55 0 -84 36t-29 104v186h-88v30h88v114h-88l-2 16l90 14l20 150l20 -2v-148h185v-30h-185v-114h184v-30z" />
<glyph unicode="&#x168;" horiz-adv-x="657" d="M164 776l-14 5q19 103 75 103q29 0 118 -35t105 -35q47 73 48 74l14 -6q-10 -52 -26.5 -77t-46.5 -25q-28 0 -118.5 34.5t-104.5 35.5q-20 -22 -50 -74zM109 220v426l-85 19l2 20h208l2 -20l-58 -13q-16 -4 -21.5 -10t-5.5 -20v-405q0 -90 51 -141t129 -51t129 50t51 142 v429l-85 19l2 20h201l2 -20l-85 -19v-426q0 -111 -61.5 -170.5t-158.5 -59.5q-94 0 -155.5 60t-61.5 170z" />
<glyph unicode="&#x169;" horiz-adv-x="590" d="M145 614l-14 5q17 97 73 97q25 0 99.5 -28.5t87.5 -28.5q34 46 46 67l14 -6q-9 -48 -25.5 -72t-46.5 -24q-24 0 -100 28t-87 29q-21 -23 -47 -67zM119 160v300l-73 6l-2 14q47 16 105 25l10 -10v-335q0 -66 31 -101t91 -35q38 0 76.5 20t66.5 53v363l-73 6l-2 14 q47 16 105 25l10 -10v-391q0 -44 11.5 -62.5t39.5 -18.5q19 0 44 7l4 -9q-31 -31 -74 -31q-59 0 -64 67q-28 -30 -69.5 -48.5t-82.5 -18.5q-75 0 -114.5 43.5t-39.5 126.5z" />
<glyph unicode="&#x16a;" horiz-adv-x="657" d="M209 817v39h254v-39h-254zM109 220v426l-85 19l2 20h208l2 -20l-58 -13q-16 -4 -21.5 -10t-5.5 -20v-405q0 -90 51 -141t129 -51t129 50t51 142v429l-85 19l2 20h201l2 -20l-85 -19v-426q0 -111 -61.5 -170.5t-158.5 -59.5q-94 0 -155.5 60t-61.5 170z" />
<glyph unicode="&#x16b;" horiz-adv-x="590" d="M164 653v34h254v-34h-254zM119 160v300l-73 6l-2 14q47 16 105 25l10 -10v-335q0 -66 31 -101t91 -35q38 0 76.5 20t66.5 53v363l-73 6l-2 14q47 16 105 25l10 -10v-391q0 -44 11.5 -62.5t39.5 -18.5q19 0 44 7l4 -9q-31 -31 -74 -31q-59 0 -64 67q-28 -30 -69.5 -48.5 t-82.5 -18.5q-75 0 -114.5 43.5t-39.5 126.5z" />
<glyph unicode="&#x16c;" horiz-adv-x="657" d="M442 888l4 2l14 -3q-11 -48 -43.5 -75t-78.5 -27q-45 0 -76.5 27t-39.5 75l17 3q24 -62 104 -62q73 0 99 60zM109 220v426l-85 19l2 20h208l2 -20l-58 -13q-16 -4 -21.5 -10t-5.5 -20v-405q0 -90 51 -141t129 -51t129 50t51 142v429l-85 19l2 20h201l2 -20l-85 -19v-426 q0 -111 -61.5 -170.5t-158.5 -59.5q-94 0 -155.5 60t-61.5 170z" />
<glyph unicode="&#x16d;" horiz-adv-x="590" d="M392 728l4 2l14 -3q-11 -58 -43.5 -90t-78.5 -32q-45 0 -76.5 32.5t-39.5 89.5l17 3q11 -38 38.5 -60t65.5 -22q34 0 60.5 21t38.5 59zM119 160v300l-73 6l-2 14q47 16 105 25l10 -10v-335q0 -66 31 -101t91 -35q38 0 76.5 20t66.5 53v363l-73 6l-2 14q47 16 105 25 l10 -10v-391q0 -44 11.5 -62.5t39.5 -18.5q19 0 44 7l4 -9q-31 -31 -74 -31q-59 0 -64 67q-28 -30 -69.5 -48.5t-82.5 -18.5q-75 0 -114.5 43.5t-39.5 126.5z" />
<glyph unicode="&#x16e;" horiz-adv-x="657" d="M327 766q-32 0 -52.5 19t-20.5 50q0 33 22.5 53.5t57.5 20.5q33 0 54 -19.5t20 -49.5q-1 -32 -24 -53t-57 -21zM331 886q-19 0 -31.5 -14.5t-12.5 -36.5q0 -20 12 -33t31 -13t31.5 14.5t12.5 37.5q0 20 -12 32.5t-31 12.5zM109 220v426l-85 19l2 20h208l2 -20l-58 -13 q-16 -4 -21.5 -10t-5.5 -20v-405q0 -90 51 -141t129 -51t129 50t51 142v429l-85 19l2 20h201l2 -20l-85 -19v-426q0 -111 -61.5 -170.5t-158.5 -59.5q-94 0 -155.5 60t-61.5 170z" />
<glyph unicode="&#x16f;" horiz-adv-x="590" d="M287 596q-32 0 -52.5 19t-20.5 50q0 33 22.5 53.5t57.5 20.5q33 0 54 -19.5t20 -49.5q-1 -32 -24 -53t-57 -21zM291 716q-19 0 -31.5 -14.5t-12.5 -36.5q0 -20 12 -33t31 -13t31.5 14.5t12.5 37.5q0 20 -12 32.5t-31 12.5zM119 160v300l-73 6l-2 14q47 16 105 25l10 -10 v-335q0 -66 31 -101t91 -35q38 0 76.5 20t66.5 53v363l-73 6l-2 14q47 16 105 25l10 -10v-391q0 -44 11.5 -62.5t39.5 -18.5q19 0 44 7l4 -9q-31 -31 -74 -31q-59 0 -64 67q-28 -30 -69.5 -48.5t-82.5 -18.5q-75 0 -114.5 43.5t-39.5 126.5z" />
<glyph unicode="&#x170;" horiz-adv-x="657" d="M337 897l7 1q21 -8 21 -26q0 -26 -66 -56.5t-113 -36.5l-7 16q82 31 158 102zM517 897l7 1q21 -8 21 -26q0 -26 -66 -56.5t-113 -36.5l-7 16q82 31 158 102zM109 220v426l-85 19l2 20h208l2 -20l-58 -13q-16 -4 -21.5 -10t-5.5 -20v-405q0 -90 51 -141t129 -51t129 50 t51 142v429l-85 19l2 20h201l2 -20l-85 -19v-426q0 -111 -61.5 -170.5t-158.5 -59.5q-94 0 -155.5 60t-61.5 170z" />
<glyph unicode="&#x171;" horiz-adv-x="590" d="M321 732q0 -12 -12.5 -29t-41 -42t-45 -38.5t-52.5 -41.5l-12 12q93 100 125 160l5 2h4q29 0 29 -23zM451 732q0 -12 -12.5 -29t-41 -42t-45 -38.5t-52.5 -41.5l-12 12q96 103 125 160l5 2h4q29 0 29 -23zM119 160v300l-73 6l-2 14q47 16 105 25l10 -10v-335 q0 -66 31 -101t91 -35q38 0 76.5 20t66.5 53v363l-73 6l-2 14q47 16 105 25l10 -10v-391q0 -44 11.5 -62.5t39.5 -18.5q19 0 44 7l4 -9q-31 -31 -74 -31q-59 0 -64 67q-28 -30 -69.5 -48.5t-82.5 -18.5q-75 0 -114.5 43.5t-39.5 126.5z" />
<glyph unicode="&#x172;" horiz-adv-x="657" d="M109 220v426l-85 19l2 20h208l2 -20l-58 -13q-16 -4 -21.5 -10t-5.5 -20v-405q0 -90 51 -141t129 -51t129 50t51 142v429l-85 19l2 20h201l2 -20l-85 -19v-426q0 -88 -40.5 -144.5t-108.5 -75.5q-110 -64 -110 -127q0 -25 15.5 -38.5t43.5 -13.5q23 0 52 7l4 -9 q-34 -31 -82 -31q-35 0 -55 19.5t-20 54.5q0 69 95 128h-14q-94 0 -155.5 60t-61.5 170z" />
<glyph unicode="&#x173;" horiz-adv-x="590" d="M119 160v300l-73 6l-2 14q47 16 105 25l10 -10v-335q0 -66 31 -101t91 -35q38 0 76.5 20t66.5 53v363l-73 6l-2 14q47 16 105 25l10 -10v-391q0 -44 11.5 -62.5t39.5 -18.5q19 0 44 7l4 -9l-7 -7q-12 -10 -40 -30.5t-44 -33.5t-30.5 -34.5t-14.5 -44.5q0 -50 59 -50 q20 0 52 7l4 -9q-38 -31 -78 -31q-36 0 -57.5 20.5t-21.5 55.5q0 68 98 126q-53 5 -58 67q-28 -30 -69.5 -48.5t-82.5 -18.5q-75 0 -114.5 43.5t-39.5 126.5z" />
<glyph unicode="&#x174;" horiz-adv-x="1056" d="M636 781l-14 -10q-80 64 -126 93q-61 -51 -125 -93l-12 12q83 75 115 118l6 4h37q59 -57 119 -124zM362 0h-23l-213 616q-6 18 -13.5 25.5t-22.5 10.5l-58 13l2 20h211l2 -20l-85 -19l193 -571l155 460l-28 81q-6 18 -13.5 25.5t-22.5 10.5l-59 13l2 20h213l2 -20 l-86 -19l192 -571l192 571l-85 19l2 20h203l2 -20l-56 -13q-28 -6 -38 -36l-213 -616h-23l-165 481z" />
<glyph unicode="&#x175;" horiz-adv-x="842" d="M555 597l-14 -10q-68 77 -116 120q-49 -58 -115 -120l-12 12q74 92 103 148l6 4h41q52 -69 107 -154zM439 495l157 -442h1l112 407l-77 19l2 16h182l2 -16l-46 -13q-30 -8 -38 -36l-125 -430h-35l-154 433l-151 -433h-35l-126 430q-5 17 -13 24.5t-23 11.5l-48 13l2 16 h192l2 -16l-78 -19l116 -407h1l149 442h31z" />
<glyph unicode="&#x176;" horiz-adv-x="671" d="M479 781l-14 -10q-80 64 -126 93q-61 -51 -125 -93l-12 12q83 75 115 118l6 4h37q59 -57 119 -124zM356 39l85 -19l-2 -20h-208l-2 20l58 13q16 4 21.5 10t5.5 20v203l-187 350q-10 19 -17 26t-20 10l-58 13l2 20h211l2 -20l-85 -19l178 -346h1l176 346l-85 19l2 20h203 l2 -20l-56 -13q-16 -4 -24.5 -11.5t-17.5 -24.5l-185 -352v-225z" />
<glyph unicode="&#x177;" horiz-adv-x="555" d="M417 596l-14 -10q-68 77 -116 120q-49 -58 -115 -120l-12 12q74 92 103 148l6 4h41q52 -69 107 -154zM36 495h192l2 -16l-78 -19l137 -406l133 406l-77 19l2 16h182l2 -16l-46 -13q-29 -8 -38 -36l-147 -430q-44 -129 -90.5 -192t-115.5 -63q-29 0 -49.5 14.5t-20.5 34.5 q0 19 14 27l4 2q27 -38 66 -38q89 0 160 207l-150 438q-10 30 -36 36l-48 13z" />
<glyph unicode="&#x178;" horiz-adv-x="671" d="M474 839q0 -19 -10 -33t-29 -14q-17 0 -27 11.5t-10 28.5q0 18 11.5 31.5t28.5 13.5t26.5 -10.5t9.5 -27.5zM284 839q0 -19 -10 -33t-29 -14q-17 0 -27 11.5t-10 28.5q0 18 11.5 31.5t28.5 13.5t26.5 -10.5t9.5 -27.5zM356 39l85 -19l-2 -20h-208l-2 20l58 13 q16 4 21.5 10t5.5 20v203l-187 350q-10 19 -17 26t-20 10l-58 13l2 20h211l2 -20l-85 -19l178 -346h1l176 346l-85 19l2 20h203l2 -20l-56 -13q-16 -4 -24.5 -11.5t-17.5 -24.5l-185 -352v-225z" />
<glyph unicode="&#x179;" horiz-adv-x="594" d="M394 896l7 1q21 -7 21 -26q0 -28 -83 -57t-146 -36l-7 16q109 31 208 102zM516 0h-439l-5 30l387 625h-216q-66 0 -113 -5l-34 -130h-15q-3 33 -3 65q0 59 6 100h418l5 -30l-387 -625h237q66 0 113 5l34 130h15q3 -33 3 -65q0 -60 -6 -100z" />
<glyph unicode="&#x17a;" horiz-adv-x="458" d="M338 732q0 -12 -13 -29.5t-41.5 -41.5t-47 -38.5t-53.5 -41.5l-12 12q95 102 126 160l5 2h4q32 0 32 -23zM402 66q-2 -43 -6 -66h-334l-6 30l300 435h-244l-30 -115h-15q-6 35 -6 82q2 41 6 63h329l6 -30l-300 -435h248l31 115h15q6 -33 6 -79z" />
<glyph unicode="&#x17b;" horiz-adv-x="594" d="M344 835q0 -18 -10.5 -30.5t-30.5 -12.5q-18 0 -28.5 11t-10.5 28t12 30t30 13q38 0 38 -39zM516 0h-439l-5 30l387 625h-216q-66 0 -113 -5l-34 -130h-15q-3 33 -3 65q0 59 6 100h418l5 -30l-387 -625h237q66 0 113 5l34 130h15q3 -33 3 -65q0 -60 -6 -100z" />
<glyph unicode="&#x17c;" horiz-adv-x="458" d="M272 665q0 -19 -9.5 -33t-27.5 -14q-16 0 -25.5 12t-9.5 31t10.5 33t27.5 14q16 0 25 -12t9 -31zM402 66q-2 -43 -6 -66h-334l-6 30l300 435h-244l-30 -115h-15q-6 35 -6 82q2 41 6 63h329l6 -30l-300 -435h248l31 115h15q6 -33 6 -79z" />
<glyph unicode="&#x17d;" horiz-adv-x="594" d="M327 775l-6 -4h-37q-59 57 -119 124l14 10q80 -64 126 -93q61 51 125 93l12 -12q-83 -75 -115 -118zM516 0h-439l-5 30l387 625h-216q-66 0 -113 -5l-34 -130h-15q-3 33 -3 65q0 59 6 100h418l5 -30l-387 -625h237q66 0 113 5l34 130h15q3 -33 3 -65q0 -60 -6 -100z" />
<glyph unicode="&#x17e;" horiz-adv-x="458" d="M261 592l-6 -4h-41q-52 69 -107 154l14 10q68 -77 116 -120q49 58 115 120l12 -12q-74 -92 -103 -148zM402 66q-2 -43 -6 -66h-334l-6 30l300 435h-244l-30 -115h-15q-6 35 -6 82q2 41 6 63h329l6 -30l-300 -435h248l31 115h15q6 -33 6 -79z" />
<glyph unicode="&#x18f;" horiz-adv-x="603" d="M295 -10q-98 0 -157 71t-59 193q0 32 3 68l10 11h410v10q0 149 -53.5 234t-149.5 85q-69 0 -118.5 -48.5t-49.5 -115.5q0 -20 8 -37q-10 -7 -25 -7q-12 0 -20 11.5t-8 29.5q0 82 65 141t154 59q111 0 176.5 -93t65.5 -251q0 -163 -69 -262t-183 -99zM124 251 q0 -110 45.5 -168t130.5 -58q84 0 138.5 75t62.5 201l-376 -6q-1 -19 -1 -44z" />
<glyph unicode="&#x192;" horiz-adv-x="558" d="M89 298l4 35h121l15 116q15 118 65.5 182.5t122.5 64.5q50 0 83.5 -31t33.5 -68q0 -28 -27 -36q-29 104 -106 104q-102 0 -129 -204l-17 -128h185l-4 -35h-185l-27 -207q-13 -103 -59 -165t-109 -62q-35 0 -57.5 17.5t-22.5 42.5q0 21 17 30q41 -57 85 -57q77 0 102 182 l29 219h-120z" />
<glyph unicode="&#x19d;" horiz-adv-x="736" d="M70 -170l-15 15q36 50 50.5 72.5t27.5 71t13 115.5v518q0 14 -5.5 20t-21.5 10l-58 13l2 20h118l390 -610v571l-85 19l2 20h201l2 -20l-58 -13q-16 -4 -21.5 -10t-5.5 -20v-622h-35l-390 606v-531q0 -89 -24 -137.5t-87 -107.5z" />
<glyph unicode="&#x1cd;" horiz-adv-x="711" d="M381 775l-6 -4h-37q-59 57 -119 124l14 10q80 -64 126 -93q61 51 125 93l12 -12q-83 -75 -115 -118zM344 685h23l218 -616q6 -18 13.5 -25.5t22.5 -10.5l58 -13l-2 -20h-212l-2 20l86 19l-75 216l-247 -4l-73 -211l85 -20l-2 -20h-203l-2 20l56 13q28 6 38 36zM238 285 h226l-113 325z" />
<glyph unicode="&#x1ce;" horiz-adv-x="496" d="M265 592l-6 -4h-41q-52 69 -107 154l14 10q68 -77 116 -120q49 58 115 120l12 -12q-74 -92 -103 -148zM249 506q65 0 100 -34t35 -98q0 -26 -2 -132.5t-2 -153.5q0 -37 10.5 -51t38.5 -14q22 0 44 7l4 -9q-31 -31 -74 -31q-28 0 -45.5 18.5t-19.5 50.5q-67 -69 -150 -69 q-58 0 -91 29.5t-33 80.5q0 71 78 119t198 51q2 96 2 102q0 48 -27 74t-75 26q-50 0 -84.5 -30.5t-34.5 -66.5q0 -17 7 -32q-9 -6 -21 -6q-15 0 -24 9.5t-9 25.5q0 46 55.5 90t119.5 44zM107 102q0 -77 87 -77q79 0 144 72q0 53 2 143q-105 -3 -169 -41t-64 -97z" />
<glyph unicode="&#x1cf;" horiz-adv-x="334" d="M191 775l-6 -4h-37q-59 57 -119 124l14 10q80 -64 126 -93q61 51 125 93l12 -12q-83 -75 -115 -118zM188 39l85 -19l-2 -20h-208l-2 20l58 13q16 4 21.5 10t5.5 20v583l-85 19l2 20h208l2 -20l-58 -13q-16 -4 -21.5 -10t-5.5 -20v-583z" />
<glyph unicode="&#x1d0;" horiz-adv-x="276" d="M164 580l-6 -4h-43q-36 68 -76 154l14 10q45 -67 86 -119q44 70 85 119l12 -12q-48 -85 -72 -148zM162 35l75 -19l-2 -16h-186l-2 16l48 13q17 5 22 10.5t5 20.5v400l-73 6l-2 14q47 16 105 25l10 -10v-460z" />
<glyph unicode="&#x1d1;" horiz-adv-x="648" d="M353 775l-6 -4h-37q-59 57 -119 124l14 10q80 -64 126 -93q61 51 125 93l12 -12q-83 -75 -115 -118zM64 343q0 161 74.5 256.5t193.5 95.5q113 0 182.5 -94.5t69.5 -252.5q0 -161 -71 -259.5t-190 -98.5q-120 0 -189.5 94.5t-69.5 258.5zM109 343q0 -146 59.5 -232 t157.5 -86q97 0 155 89t58 234q0 142 -57 227t-150 85q-100 0 -161.5 -86t-61.5 -231z" />
<glyph unicode="&#x1d2;" horiz-adv-x="498" d="M280 592l-6 -4h-41q-52 69 -107 154l14 10q68 -77 116 -120q49 58 115 120l12 -12q-74 -92 -103 -148zM442 250q0 -122 -55 -190.5t-140 -69.5q-84 -1 -137.5 68.5t-53.5 192.5q0 119 59.5 186.5t140.5 67.5q79 0 132.5 -67t53.5 -188zM99 249q0 -97 40.5 -161.5 t107.5 -64.5q71 0 111.5 56.5t40.5 165.5q0 101 -39.5 164t-104.5 63q-70 0 -113 -57t-43 -166z" />
<glyph unicode="&#x1d3;" horiz-adv-x="657" d="M364 775l-6 -4h-37q-59 57 -119 124l14 10q80 -64 126 -93q61 51 125 93l12 -12q-83 -75 -115 -118zM109 220v426l-85 19l2 20h208l2 -20l-58 -13q-16 -4 -21.5 -10t-5.5 -20v-405q0 -90 51 -141t129 -51t129 50t51 142v429l-85 19l2 20h201l2 -20l-85 -19v-426 q0 -111 -61.5 -170.5t-158.5 -59.5q-94 0 -155.5 60t-61.5 170z" />
<glyph unicode="&#x1d4;" horiz-adv-x="590" d="M316 592l-6 -4h-41q-52 69 -107 154l14 10q68 -77 116 -120q49 58 115 120l12 -12q-74 -92 -103 -148zM119 160v300l-73 6l-2 14q47 16 105 25l10 -10v-335q0 -66 31 -101t91 -35q38 0 76.5 20t66.5 53v363l-73 6l-2 14q47 16 105 25l10 -10v-391q0 -44 11.5 -62.5 t39.5 -18.5q19 0 44 7l4 -9q-31 -31 -74 -31q-59 0 -64 67q-28 -30 -69.5 -48.5t-82.5 -18.5q-75 0 -114.5 43.5t-39.5 126.5z" />
<glyph unicode="&#x1d5;" horiz-adv-x="657" d="M204 1007v39h254v-39h-254zM464 839q0 -19 -10 -33t-29 -14q-17 0 -27 11.5t-10 28.5q0 18 11.5 31.5t28.5 13.5t26.5 -10.5t9.5 -27.5zM274 839q0 -19 -10 -33t-29 -14q-17 0 -27 11.5t-10 28.5q0 18 11.5 31.5t28.5 13.5t26.5 -10.5t9.5 -27.5zM109 220v426l-85 19 l2 20h208l2 -20l-58 -13q-16 -4 -21.5 -10t-5.5 -20v-405q0 -90 51 -141t129 -51t129 50t51 142v429l-85 19l2 20h201l2 -20l-85 -19v-426q0 -111 -61.5 -170.5t-158.5 -59.5q-94 0 -155.5 60t-61.5 170z" />
<glyph unicode="&#x1d6;" horiz-adv-x="590" d="M164 873v34h254v-34h-254zM420 670q0 -20 -9 -34.5t-27 -14.5q-15 0 -24.5 12t-9.5 30q0 19 10.5 33.5t26.5 14.5q15 0 24 -11.5t9 -29.5zM230 670q0 -20 -9 -34.5t-27 -14.5q-15 0 -24.5 12t-9.5 30q0 19 10.5 33.5t26.5 14.5q15 0 24 -11.5t9 -29.5zM119 160v300l-73 6 l-2 14q47 16 105 25l10 -10v-335q0 -66 31 -101t91 -35q38 0 76.5 20t66.5 53v363l-73 6l-2 14q47 16 105 25l10 -10v-391q0 -44 11.5 -62.5t39.5 -18.5q19 0 44 7l4 -9q-31 -31 -74 -31q-59 0 -64 67q-28 -30 -69.5 -48.5t-82.5 -18.5q-75 0 -114.5 43.5t-39.5 126.5z" />
<glyph unicode="&#x1d7;" horiz-adv-x="657" d="M427 1086l7 1q21 -7 21 -26q0 -28 -83 -57t-146 -36l-7 16q109 31 208 102zM464 839q0 -19 -10 -33t-29 -14q-17 0 -27 11.5t-10 28.5q0 18 11.5 31.5t28.5 13.5t26.5 -10.5t9.5 -27.5zM274 839q0 -19 -10 -33t-29 -14q-17 0 -27 11.5t-10 28.5q0 18 11.5 31.5t28.5 13.5 t26.5 -10.5t9.5 -27.5zM109 220v426l-85 19l2 20h208l2 -20l-58 -13q-16 -4 -21.5 -10t-5.5 -20v-405q0 -90 51 -141t129 -51t129 50t51 142v429l-85 19l2 20h201l2 -20l-85 -19v-426q0 -111 -61.5 -170.5t-158.5 -59.5q-94 0 -155.5 60t-61.5 170z" />
<glyph unicode="&#x1d8;" horiz-adv-x="590" d="M393 952q0 -12 -13 -29.5t-41.5 -41.5t-47 -38.5t-53.5 -41.5l-12 12q95 102 126 160l5 2h4q32 0 32 -23zM420 670q0 -20 -9 -34.5t-27 -14.5q-15 0 -24.5 12t-9.5 30q0 19 10.5 33.5t26.5 14.5q15 0 24 -11.5t9 -29.5zM230 670q0 -20 -9 -34.5t-27 -14.5q-15 0 -24.5 12 t-9.5 30q0 19 10.5 33.5t26.5 14.5q15 0 24 -11.5t9 -29.5zM119 160v300l-73 6l-2 14q47 16 105 25l10 -10v-335q0 -66 31 -101t91 -35q38 0 76.5 20t66.5 53v363l-73 6l-2 14q47 16 105 25l10 -10v-391q0 -44 11.5 -62.5t39.5 -18.5q19 0 44 7l4 -9q-31 -31 -74 -31 q-59 0 -64 67q-28 -30 -69.5 -48.5t-82.5 -18.5q-75 0 -114.5 43.5t-39.5 126.5z" />
<glyph unicode="&#x1d9;" horiz-adv-x="657" d="M357 965l-6 -4h-37q-59 57 -119 124l14 10q80 -64 126 -93q61 51 125 93l12 -12q-83 -75 -115 -118zM464 839q0 -19 -10 -33t-29 -14q-17 0 -27 11.5t-10 28.5q0 18 11.5 31.5t28.5 13.5t26.5 -10.5t9.5 -27.5zM274 839q0 -19 -10 -33t-29 -14q-17 0 -27 11.5t-10 28.5 q0 18 11.5 31.5t28.5 13.5t26.5 -10.5t9.5 -27.5zM109 220v426l-85 19l2 20h208l2 -20l-58 -13q-16 -4 -21.5 -10t-5.5 -20v-405q0 -90 51 -141t129 -51t129 50t51 142v429l-85 19l2 20h201l2 -20l-85 -19v-426q0 -111 -61.5 -170.5t-158.5 -59.5q-94 0 -155.5 60t-61.5 170 z" />
<glyph unicode="&#x1da;" horiz-adv-x="590" d="M321 812l-6 -4h-41q-52 69 -107 154l14 10q68 -77 116 -120q49 58 115 120l12 -12q-74 -92 -103 -148zM420 670q0 -20 -9 -34.5t-27 -14.5q-15 0 -24.5 12t-9.5 30q0 19 10.5 33.5t26.5 14.5q15 0 24 -11.5t9 -29.5zM230 670q0 -20 -9 -34.5t-27 -14.5q-15 0 -24.5 12 t-9.5 30q0 19 10.5 33.5t26.5 14.5q15 0 24 -11.5t9 -29.5zM119 160v300l-73 6l-2 14q47 16 105 25l10 -10v-335q0 -66 31 -101t91 -35q38 0 76.5 20t66.5 53v363l-73 6l-2 14q47 16 105 25l10 -10v-391q0 -44 11.5 -62.5t39.5 -18.5q19 0 44 7l4 -9q-31 -31 -74 -31 q-59 0 -64 67q-28 -30 -69.5 -48.5t-82.5 -18.5q-75 0 -114.5 43.5t-39.5 126.5z" />
<glyph unicode="&#x1db;" horiz-adv-x="657" d="M449 985l-7 -16q-63 7 -146 36t-83 57q0 18 21 26l7 -1q99 -71 208 -102zM464 839q0 -19 -10 -33t-29 -14q-17 0 -27 11.5t-10 28.5q0 18 11.5 31.5t28.5 13.5t26.5 -10.5t9.5 -27.5zM274 839q0 -19 -10 -33t-29 -14q-17 0 -27 11.5t-10 28.5q0 18 11.5 31.5t28.5 13.5 t26.5 -10.5t9.5 -27.5zM109 220v426l-85 19l2 20h208l2 -20l-58 -13q-16 -4 -21.5 -10t-5.5 -20v-405q0 -90 51 -141t129 -51t129 50t51 142v429l-85 19l2 20h201l2 -20l-85 -19v-426q0 -111 -61.5 -170.5t-158.5 -59.5q-94 0 -155.5 60t-61.5 170z" />
<glyph unicode="&#x1dc;" horiz-adv-x="590" d="M364 813l-12 -12q-35 27 -53.5 41.5t-47 38.5t-41.5 41.5t-13 29.5q0 23 32 23h4l5 -2q31 -58 126 -160zM420 670q0 -20 -9 -34.5t-27 -14.5q-15 0 -24.5 12t-9.5 30q0 19 10.5 33.5t26.5 14.5q15 0 24 -11.5t9 -29.5zM230 670q0 -20 -9 -34.5t-27 -14.5q-15 0 -24.5 12 t-9.5 30q0 19 10.5 33.5t26.5 14.5q15 0 24 -11.5t9 -29.5zM119 160v300l-73 6l-2 14q47 16 105 25l10 -10v-335q0 -66 31 -101t91 -35q38 0 76.5 20t66.5 53v363l-73 6l-2 14q47 16 105 25l10 -10v-391q0 -44 11.5 -62.5t39.5 -18.5q19 0 44 7l4 -9q-31 -31 -74 -31 q-59 0 -64 67q-28 -30 -69.5 -48.5t-82.5 -18.5q-75 0 -114.5 43.5t-39.5 126.5z" />
<glyph unicode="&#x1e6;" horiz-adv-x="683" d="M405 775l-6 -4h-37q-59 57 -119 124l14 10q80 -64 126 -93q61 51 125 93l12 -12q-83 -75 -115 -118zM389 -10q-155 0 -240 95t-85 258q0 157 93 254.5t232 97.5q99 0 159 -30q3 -20 3 -46q0 -48 -6 -99h-15l-33 127q-43 13 -107 13q-121 0 -201 -87.5t-80 -229.5 q0 -145 75 -231.5t202 -86.5q68 0 121 16v240l-85 19l2 20h208l2 -20l-58 -13q-16 -4 -21.5 -10t-5.5 -20v-237q-62 -30 -160 -30z" />
<glyph unicode="&#x1e7;" horiz-adv-x="471" d="M262 592l-6 -4h-41q-52 69 -107 154l14 10q68 -77 116 -120q49 58 115 120l12 -12q-74 -92 -103 -148zM76 317q0 82 46 135t117 53q46 0 84 -27q24 14 58.5 26.5t48.5 12.5q17 0 17 -23q0 -11 -2 -19q-3 -14 -22 -14q-54 0 -80 -2q43 -49 43 -126q0 -82 -43 -132.5 t-114 -50.5q-18 0 -38 5q-27 -29 -27 -60q0 -42 49 -46l88 -9q67 -7 104 -42t37 -92q0 -71 -61 -116t-156 -45q-82 0 -133 37.5t-51 98.5q0 59 53 102l12 -10q-22 -38 -22 -76q0 -56 40 -87.5t110 -31.5q73 0 119 34t46 87q0 44 -28.5 70t-81.5 31l-85 8q-37 4 -57 24.5 t-20 50.5q0 39 39 80q-41 19 -65.5 60t-24.5 94zM343 322q0 71 -28.5 110.5t-79.5 39.5t-83.5 -39.5t-32.5 -101.5q0 -65 31 -106t80 -42q52 -1 82.5 36.5t30.5 102.5z" />
<glyph unicode="&#x1ea;" horiz-adv-x="648" d="M64 343q0 161 74.5 256.5t193.5 95.5q113 0 182.5 -94.5t69.5 -252.5q0 -136 -51.5 -228.5t-140.5 -119.5q-111 -64 -111 -127q0 -25 15.5 -38.5t43.5 -13.5q23 0 52 7l4 -9q-34 -31 -82 -31q-35 0 -55 19.5t-20 54.5q0 69 95 128h-11q-120 0 -189.5 94.5t-69.5 258.5z M109 343q0 -146 59.5 -232t157.5 -86q97 0 155 89t58 234q0 142 -57 227t-150 85q-100 0 -161.5 -86t-61.5 -231z" />
<glyph unicode="&#x1eb;" horiz-adv-x="498" d="M340 -181q-34 -31 -80 -31q-33 0 -55 18.5t-22 52.5q0 68 106 136q-22 -5 -42 -5q-84 -1 -137.5 68.5t-53.5 192.5q0 119 59.5 186.5t140.5 67.5q79 0 132.5 -67t53.5 -188q0 -136 -69 -207q-19 -22 -60.5 -57t-64.5 -62.5t-23 -55.5q0 -47 59 -47q23 0 52 7zM99 249 q0 -97 40.5 -161.5t107.5 -64.5q71 0 111.5 56.5t40.5 165.5q0 101 -39.5 164t-104.5 63q-70 0 -113 -57t-43 -166z" />
<glyph unicode="&#x1f4;" horiz-adv-x="683" d="M472 896l7 1q21 -7 21 -26q0 -28 -83 -57t-146 -36l-7 16q109 31 208 102zM389 -10q-155 0 -240 95t-85 258q0 157 93 254.5t232 97.5q99 0 159 -30q3 -20 3 -46q0 -48 -6 -99h-15l-33 127q-43 13 -107 13q-121 0 -201 -87.5t-80 -229.5q0 -145 75 -231.5t202 -86.5 q68 0 121 16v240l-85 19l2 20h208l2 -20l-58 -13q-16 -4 -21.5 -10t-5.5 -20v-237q-62 -30 -160 -30z" />
<glyph unicode="&#x1f5;" horiz-adv-x="471" d="M339 732q0 -12 -13 -29.5t-41.5 -41.5t-47 -38.5t-53.5 -41.5l-12 12q95 102 126 160l5 2h4q32 0 32 -23zM76 317q0 82 46 135t117 53q46 0 84 -27q24 14 58.5 26.5t48.5 12.5q17 0 17 -23q0 -11 -2 -19q-3 -14 -22 -14q-54 0 -80 -2q43 -49 43 -126q0 -82 -43 -132.5 t-114 -50.5q-18 0 -38 5q-27 -29 -27 -60q0 -42 49 -46l88 -9q67 -7 104 -42t37 -92q0 -71 -61 -116t-156 -45q-82 0 -133 37.5t-51 98.5q0 59 53 102l12 -10q-22 -38 -22 -76q0 -56 40 -87.5t110 -31.5q73 0 119 34t46 87q0 44 -28.5 70t-81.5 31l-85 8q-37 4 -57 24.5 t-20 50.5q0 39 39 80q-41 19 -65.5 60t-24.5 94zM343 322q0 71 -28.5 110.5t-79.5 39.5t-83.5 -39.5t-32.5 -101.5q0 -65 31 -106t80 -42q52 -1 82.5 36.5t30.5 102.5z" />
<glyph unicode="&#x1fa;" horiz-adv-x="711" d="M451 1086l7 1q21 -7 21 -26q0 -28 -83 -57t-146 -36l-7 16q109 31 208 102zM353 766q-32 0 -52.5 19t-20.5 50q0 33 22.5 53.5t57.5 20.5q33 0 54 -19.5t20 -49.5q-1 -32 -24 -53t-57 -21zM357 886q-19 0 -31.5 -14.5t-12.5 -36.5q0 -20 12 -33t31 -13t31.5 14.5 t12.5 37.5q0 20 -12 32.5t-31 12.5zM344 685h23l218 -616q6 -18 13.5 -25.5t22.5 -10.5l58 -13l-2 -20h-212l-2 20l86 19l-75 216l-247 -4l-73 -211l85 -20l-2 -20h-203l-2 20l56 13q28 6 38 36zM238 285h226l-113 325z" />
<glyph unicode="&#x1fb;" horiz-adv-x="496" d="M327 952q0 -12 -13 -29.5t-41.5 -41.5t-47 -38.5t-53.5 -41.5l-12 12q95 102 126 160l5 2h4q32 0 32 -23zM236 596q-32 0 -52.5 19t-20.5 50q0 33 22.5 53.5t57.5 20.5q33 0 54 -19.5t20 -49.5q-1 -32 -24 -53t-57 -21zM240 716q-19 0 -31.5 -14.5t-12.5 -36.5 q0 -20 12 -33t31 -13t31.5 14.5t12.5 37.5q0 20 -12 32.5t-31 12.5zM249 506q65 0 100 -34t35 -98q0 -26 -2 -132.5t-2 -153.5q0 -37 10.5 -51t38.5 -14q22 0 44 7l4 -9q-31 -31 -74 -31q-28 0 -45.5 18.5t-19.5 50.5q-67 -69 -150 -69q-58 0 -91 29.5t-33 80.5q0 71 78 119 t198 51q2 96 2 102q0 48 -27 74t-75 26q-50 0 -84.5 -30.5t-34.5 -66.5q0 -17 7 -32q-9 -6 -21 -6q-15 0 -24 9.5t-9 25.5q0 46 55.5 90t119.5 44zM107 102q0 -77 87 -77q79 0 144 72q0 53 2 143q-105 -3 -169 -41t-64 -97z" />
<glyph unicode="&#x1fc;" horiz-adv-x="885" d="M622 896l7 1q21 -7 21 -26q0 -28 -83 -57t-146 -36l-7 16q109 31 208 102zM34 0l-2 20l56 13q28 6 38 36l204 577l-85 19l2 20h558q6 -36 6 -90q0 -37 -3 -75h-15l-34 130q-68 5 -113 5h-138v-295l222 5l-2 -39l-220 4v-300h148q68 0 113 5l34 130h15q3 -33 3 -75 q0 -54 -6 -90h-432l-2 20l58 13q16 4 21.5 10t5.5 20v266l-214 -4l-98 -285l85 -20l-2 -20h-203zM466 655h-100l-102 -296h202v296z" />
<glyph unicode="&#x1fd;" horiz-adv-x="742" d="M486 732q0 -12 -13 -29.5t-41.5 -41.5t-47 -38.5t-53.5 -41.5l-12 12q95 102 126 160l5 2h4q32 0 32 -23zM342 372q0 48 -27 74t-75 26q-50 0 -84.5 -30.5t-34.5 -66.5q0 -17 7 -32q-9 -6 -21 -6q-15 0 -24 9.5t-9 25.5q0 46 55.5 89.5t119.5 43.5q113 0 132 -97 q58 97 159 97q70 0 111 -48.5t41 -132.5q0 -18 -2 -56l-9 -10h-299v-6q1 -106 45.5 -166.5t120.5 -60.5q78 0 134 55l12 -10q-25 -37 -67 -58.5t-90 -21.5q-115 0 -167 102q-81 -102 -182 -102q-58 0 -91 29.5t-33 80.5q0 71 78 119t198 51q2 96 2 102zM536 472 q-63 0 -104 -51t-49 -135l265 5q1 15 1 35q0 70 -29.5 108t-83.5 38zM107 102q0 -77 87 -77q91 0 163 96q-18 49 -18 114v5q-104 -3 -168 -41t-64 -97z" />
<glyph unicode="&#x1fe;" horiz-adv-x="648" d="M415 896l7 1q21 -7 21 -26q0 -28 -83 -57t-146 -36l-7 16q109 31 208 102zM64 343q0 161 74.5 256.5t193.5 95.5q111 0 180 -92l53 65l27 -22l-60 -73q52 -91 52 -225q0 -161 -71 -259.5t-190 -98.5q-118 0 -188 93l-53 -65l-26 22l59 73q-51 91 -51 230zM109 343 q0 -113 37 -192l339 419q-57 90 -153 90q-100 0 -161.5 -86t-61.5 -231zM539 348q0 109 -36 189l-339 -419q59 -93 162 -93q97 0 155 89t58 234z" />
<glyph unicode="&#x1ff;" horiz-adv-x="498" d="M352 732q0 -12 -13 -29.5t-41.5 -41.5t-47 -38.5t-53.5 -41.5l-12 12q95 102 126 160l5 2h4q32 0 32 -23zM442 250q0 -122 -55 -190.5t-140 -69.5q-90 -2 -143 76l-51 -54l-25 24l58 62q-30 65 -30 153q0 119 59.5 186.5t140.5 67.5q87 0 139 -76l49 53l26 -24l-57 -61 q29 -61 29 -147zM99 249q0 -63 19 -117l248 266q-39 74 -111 74q-70 0 -113 -57t-43 -166zM399 245q0 69 -18 118l-248 -265q42 -75 114 -75q71 0 111.5 56.5t40.5 165.5z" />
<glyph unicode="&#x218;" horiz-adv-x="482" d="M226 -10q-56 0 -104.5 12t-56.5 25q-9 15 -9 56q0 48 7 82h15q15 -90 38 -113q27 -27 116 -27q67 0 108 37.5t41 91.5q0 50 -32.5 89t-79 65.5t-93 54.5t-79 70.5t-32.5 98.5q0 76 56 119.5t140 43.5q52 0 90 -11.5t50 -25.5q6 -7 6 -46q0 -44 -6 -92h-16q-12 90 -35 113 q-28 27 -99 27q-62 0 -101.5 -34.5t-39.5 -92.5q0 -49 32.5 -87t79 -64.5t93 -54t79 -70.5t32.5 -99q0 -75 -54.5 -121.5t-145.5 -46.5zM277 -165q0 -38 -22 -84.5t-51 -71.5l-11 9q24 38 37 106q-34 5 -34 39q0 18 12.5 31.5t29.5 13.5q18 0 28.5 -11.5t10.5 -31.5z" />
<glyph unicode="&#x219;" horiz-adv-x="404" d="M187 -10q-37 0 -76 8.5t-47 18.5q-8 9 -8 50q0 42 6 78h15q8 -81 32 -105q17 -17 84 -17q51 0 81.5 24.5t30.5 66.5q0 36 -25 61.5t-61 42.5t-72 35t-61 49t-25 75q0 55 45 91.5t111 36.5q37 0 70.5 -8t42.5 -19q6 -6 6 -44q0 -44 -6 -84h-15q-7 87 -29 104 q-27 18 -74 18q-49 0 -78.5 -25.5t-29.5 -69.5q0 -35 25 -61.5t61 -43.5t72 -35t61 -48t25 -71q0 -57 -44.5 -92.5t-116.5 -35.5zM236 -165q0 -38 -22 -84.5t-51 -71.5l-11 9q24 38 37 106q-34 5 -34 39q0 18 12.5 31.5t29.5 13.5q18 0 28.5 -11.5t10.5 -31.5z" />
<glyph unicode="&#x21a;" horiz-adv-x="584" d="M313 39l85 -19l-2 -20h-208l-2 20l58 13q16 4 21.5 10t5.5 20v590h-74q-72 0 -120 -10q-9 -34 -19 -84l-8 -39h-15q-3 39 -3 75q0 54 6 90h508q6 -36 6 -90q0 -36 -3 -75h-15l-8 39q-10 50 -19 84q-48 10 -120 10h-74v-614zM331 -165q0 -38 -22 -84.5t-51 -71.5l-11 9 q24 38 37 106q-34 5 -34 39q0 18 12.5 31.5t29.5 13.5q18 0 28.5 -11.5t10.5 -31.5z" />
<glyph unicode="&#x21b;" horiz-adv-x="405" d="M373 70q-25 -36 -62.5 -58t-76.5 -22q-55 0 -84 36t-29 104v330h-88l-2 16l90 14l20 150l20 -2v-148h185v-30h-185v-315q0 -120 81 -120q59 0 119 55zM270 -165q0 -38 -22 -84.5t-51 -71.5l-11 9q24 38 37 106q-34 5 -34 39q0 18 12.5 31.5t29.5 13.5q18 0 28.5 -11.5 t10.5 -31.5z" />
<glyph unicode="&#x232;" horiz-adv-x="671" d="M214 817v39h254v-39h-254zM356 39l85 -19l-2 -20h-208l-2 20l58 13q16 4 21.5 10t5.5 20v203l-187 350q-10 19 -17 26t-20 10l-58 13l2 20h211l2 -20l-85 -19l178 -346h1l176 346l-85 19l2 20h203l2 -20l-56 -13q-16 -4 -24.5 -11.5t-17.5 -24.5l-185 -352v-225z" />
<glyph unicode="&#x233;" horiz-adv-x="555" d="M162 653v34h254v-34h-254zM36 495h192l2 -16l-78 -19l137 -406l133 406l-77 19l2 16h182l2 -16l-46 -13q-29 -8 -38 -36l-147 -430q-44 -129 -90.5 -192t-115.5 -63q-29 0 -49.5 14.5t-20.5 34.5q0 19 14 27l4 2q27 -38 66 -38q89 0 160 207l-150 438q-10 30 -36 36 l-48 13z" />
<glyph unicode="&#x237;" horiz-adv-x="256" d="M29 -241q34 48 47.5 71.5t26 72.5t12.5 116v441l-73 6l-2 14q47 16 105 25l10 -10v-505q0 -89 -24 -137.5t-87 -107.5z" />
<glyph unicode="&#x259;" horiz-adv-x="461" d="M216 -10q-73 0 -116.5 48.5t-43.5 132.5q0 18 2 58l9 10h299v2q0 108 -39.5 169.5t-108.5 61.5q-51 0 -82 -28t-31 -69q0 -17 7 -32q-9 -6 -23 -6q-11 0 -19 9t-8 24q0 55 47.5 95t112.5 40q86 0 136.5 -66.5t50.5 -178.5q0 -119 -54 -194.5t-139 -75.5zM99 169 q0 -70 31.5 -108t89.5 -38q60 0 99 51.5t46 136.5l-265 -5q-1 -16 -1 -37z" />
<glyph unicode="&#x272;" horiz-adv-x="569" d="M455 35l75 -19l-2 -16h-186l-2 16l48 13q17 5 22 10.5t5 20.5v293q0 119 -108 119q-82 0 -152 -67v-415q0 -89 -24 -137.5t-87 -107.5l-15 14q34 48 47.5 71.5t26 72.5t12.5 116v441l-73 6l-2 14q47 16 105 25l10 -10v-54q75 64 159 64q69 0 105 -39t36 -113v-318z" />
<glyph unicode="&#x2c6;" horiz-adv-x="457" d="M357 596l-14 -10q-68 77 -116 120q-49 -58 -115 -120l-12 12q74 92 103 148l6 4h41q52 -69 107 -154z" />
<glyph unicode="&#x2c7;" horiz-adv-x="457" d="M254 592l-6 -4h-41q-52 69 -107 154l14 10q68 -77 116 -120q49 58 115 120l12 -12q-74 -92 -103 -148z" />
<glyph unicode="&#x2d8;" horiz-adv-x="438" d="M320 728l4 2l14 -3q-11 -58 -43.5 -90t-78.5 -32q-45 0 -76.5 32.5t-39.5 89.5l17 3q11 -38 38.5 -60t65.5 -22q34 0 60.5 21t38.5 59z" />
<glyph unicode="&#x2d9;" horiz-adv-x="272" d="M172 665q0 -19 -9.5 -33t-27.5 -14q-16 0 -25.5 12t-9.5 31t10.5 33t27.5 14q16 0 25 -12t9 -31z" />
<glyph unicode="&#x2da;" horiz-adv-x="354" d="M173 596q-32 0 -52.5 19t-20.5 50q0 33 22.5 53.5t57.5 20.5q33 0 54 -19.5t20 -49.5q-1 -32 -24 -53t-57 -21zM177 716q-19 0 -31.5 -14.5t-12.5 -36.5q0 -20 12 -33t31 -13t31.5 14.5t12.5 37.5q0 20 -12 32.5t-31 12.5z" />
<glyph unicode="&#x2db;" horiz-adv-x="357" d="M257 -181q-34 -31 -82 -31q-35 0 -55 19.5t-20 54.5q0 85 143 155l10 -17q-111 -64 -111 -127q0 -25 15.5 -38.5t43.5 -13.5q23 0 52 7z" />
<glyph unicode="&#x2dc;" horiz-adv-x="520" d="M114 614l-14 5q17 97 73 97q25 0 99.5 -28.5t87.5 -28.5q34 46 46 67l14 -6q-9 -48 -25.5 -72t-46.5 -24q-24 0 -100 28t-87 29q-21 -23 -47 -67z" />
<glyph unicode="&#x2dd;" horiz-adv-x="493" d="M263 732q0 -12 -12.5 -29t-41 -42t-45 -38.5t-52.5 -41.5l-12 12q93 100 125 160l5 2h4q29 0 29 -23zM393 732q0 -12 -12.5 -29t-41 -42t-45 -38.5t-52.5 -41.5l-12 12q96 103 125 160l5 2h4q29 0 29 -23z" />
<glyph unicode="&#x326;" horiz-adv-x="284" d="M184 -165q0 -38 -22 -84.5t-51 -71.5l-11 9q24 38 37 106q-34 5 -34 39q0 18 12.5 31.5t29.5 13.5q18 0 28.5 -11.5t10.5 -31.5z" />
<glyph unicode="&#x394;" horiz-adv-x="599" d="M288 685h23l256 -669l-2 -16h-531l-2 16zM515 35l-220 575l-219 -575h439z" />
<glyph unicode="&#x3bc;" horiz-adv-x="585" d="M155 -235q0 -20 -44 -20l-7 7q10 512 10 718q0 27 14 31q18 4 28 4l7 -7q-9 -131 -9 -335q0 -68 31 -103.5t91 -35.5q38 0 76.5 20t66.5 53v152q0 34 0.5 107.5t0.5 113.5q0 27 14 31q18 4 27 4l7 -7q-9 -135 -9 -249q0 -80 1.5 -122t8.5 -67t16.5 -31t29.5 -6q18 0 39 7 l4 -9q-31 -31 -75 -31q-27 0 -44.5 17.5t-19.5 50.5q-64 -68 -147 -68t-121 63l-3 -1l2 -109q1 -30 3 -97t2 -81z" />
<glyph unicode="&#x3c0;" horiz-adv-x="646" d="M200 47q-9 -32 -16.5 -44.5t-21.5 -12.5q-13 0 -25 4l-8 8q53 111 80 465q-28 1 -82 1q-30 0 -44.5 -13t-30.5 -48l-20 2q15 65 27 96q46 5 121 5q30 0 184.5 -6t171.5 -6q25 0 36.5 8t21.5 29l20 -2q-20 -60 -30 -81q-33 2 -120 7q-10 -167 -10 -238q0 -102 17 -150 t57 -48q17 0 46 12l4 -9q-30 -36 -73 -36q-53 0 -73 55t-20 159q0 99 12 257q-97 5 -175 6q-8 -147 -23 -264t-26 -156z" />
<glyph unicode="&#x1e0c;" horiz-adv-x="665" d="M601 342q0 -157 -88 -249.5t-243 -92.5h-207l-2 20l58 13q16 4 21.5 10t5.5 20v559q0 14 -5.5 20t-21.5 10l-58 13l2 20h207q155 0 243 -92.5t88 -250.5zM266 653h-78v-621h78q139 0 214.5 83t75.5 227t-75.5 227.5t-214.5 83.5zM376 -165q0 -19 -9.5 -33t-27.5 -14 q-16 0 -25.5 12t-9.5 31t10.5 33t27.5 14q16 0 25 -12t9 -31z" />
<glyph unicode="&#x1e0d;" horiz-adv-x="544" d="M525 21q-31 -31 -74 -31q-28 0 -45 17.5t-19 49.5q-61 -67 -146 -67q-82 0 -133.5 63.5t-51.5 182.5q0 123 66.5 196t157.5 73q52 0 106 -18v223l-93 6l-2 14q26 9 125 25l10 -10v-641q0 -43 11 -62t40 -19q20 0 44 7zM99 235q0 -101 41 -156t104 -55q81 0 142 73v348 q-48 27 -108 27q-79 0 -129 -61t-50 -176zM295 -165q0 -19 -9.5 -33t-27.5 -14q-16 0 -25.5 12t-9.5 31t10.5 33t27.5 14q16 0 25 -12t9 -31z" />
<glyph unicode="&#x1e24;" horiz-adv-x="742" d="M188 39l85 -19l-2 -20h-208l-2 20l58 13q16 4 21.5 10t5.5 20v583l-85 19l2 20h208l2 -20l-58 -13q-16 -4 -21.5 -10t-5.5 -20v-257h366v281l-85 19l2 20h208l2 -20l-58 -13q-16 -4 -21.5 -10t-5.5 -20v-583l85 -19l-2 -20h-208l-2 20l58 13q16 4 21.5 10t5.5 20v267 h-366v-291zM407 -165q0 -19 -9.5 -33t-27.5 -14q-16 0 -25.5 12t-9.5 31t10.5 33t27.5 14q16 0 25 -12t9 -31z" />
<glyph unicode="&#x1e25;" horiz-adv-x="568" d="M154 35l75 -19l-2 -16h-186l-2 16l48 13q17 5 22 10.5t5 20.5v650l-73 6l-2 14q47 16 105 25l10 -10v-304q75 64 159 64q69 0 105 -39t36 -113v-318l75 -19l-2 -16h-186l-2 16l48 13q17 5 22 10.5t5 20.5v293q0 119 -108 119q-82 0 -152 -67v-370zM320 -165 q0 -19 -9.5 -33t-27.5 -14q-16 0 -25.5 12t-9.5 31t10.5 33t27.5 14q16 0 25 -12t9 -31z" />
<glyph unicode="&#x1e44;" horiz-adv-x="736" d="M406 835q0 -18 -10.5 -30.5t-30.5 -12.5q-18 0 -28.5 11t-10.5 28t12 30t30 13q38 0 38 -39zM181 39l105 -19l-2 -20h-221l-2 20l58 13q16 4 21.5 10t5.5 20v559q0 14 -5.5 20t-21.5 10l-58 13l2 20h118l390 -610v571l-85 19l2 20h201l2 -20l-58 -13q-16 -4 -21.5 -10 t-5.5 -20v-622h-35l-390 606v-567z" />
<glyph unicode="&#x1e45;" horiz-adv-x="576" d="M320 665q0 -19 -9.5 -33t-27.5 -14q-16 0 -25.5 12t-9.5 31t10.5 33t27.5 14q16 0 25 -12t9 -31zM162 35l75 -19l-2 -16h-186l-2 16l48 13q17 5 22 10.5t5 20.5v400l-73 6l-2 14q47 16 105 25l10 -10v-54q75 64 159 64q69 0 105 -39t36 -113v-318l75 -19l-2 -16h-186 l-2 16l48 13q17 5 22 10.5t5 20.5v293q0 119 -108 119q-82 0 -152 -67v-370z" />
<glyph unicode="&#x1e5a;" horiz-adv-x="628" d="M188 39l85 -19l-2 -20h-208l-2 20l58 13q16 4 21.5 10t5.5 20v559q0 14 -5.5 20t-21.5 10l-58 13l2 20h215q96 0 160.5 -50.5t64.5 -139.5q0 -69 -37 -115t-98 -66l114 -214q19 -37 37 -49.5t54 -23.5l23 -7l-2 -20h-37q-41 0 -64 16.5t-43 53.5l-124 234q-21 -4 -48 -4 h-90v-261zM268 650h-80v-317h80q90 0 140 41t50 121q0 74 -50.5 114.5t-139.5 40.5zM390 -165q0 -19 -9.5 -33t-27.5 -14q-16 0 -25.5 12t-9.5 31t10.5 33t27.5 14q16 0 25 -12t9 -31z" />
<glyph unicode="&#x1e5b;" horiz-adv-x="388" d="M162 35l95 -19l-2 -16h-206l-2 16l48 13q17 5 22 10.5t5 20.5v400l-73 6l-2 14q47 16 105 25l10 -10v-71q65 81 135 81q31 0 49 -15t18 -34q0 -22 -20 -34q-2 -1 -5 -2q-12 23 -25 34t-35 11q-57 0 -117 -85v-345zM181 -165q0 -19 -9.5 -33t-27.5 -14q-16 0 -25.5 12 t-9.5 31t10.5 33t27.5 14q16 0 25 -12t9 -31z" />
<glyph unicode="&#x1e62;" horiz-adv-x="482" d="M226 -10q-56 0 -104.5 12t-56.5 25q-9 15 -9 56q0 48 7 82h15q15 -90 38 -113q27 -27 116 -27q67 0 108 37.5t41 91.5q0 50 -32.5 89t-79 65.5t-93 54.5t-79 70.5t-32.5 98.5q0 76 56 119.5t140 43.5q52 0 90 -11.5t50 -25.5q6 -7 6 -46q0 -44 -6 -92h-16q-12 90 -35 113 q-28 27 -99 27q-62 0 -101.5 -34.5t-39.5 -92.5q0 -49 32.5 -87t79 -64.5t93 -54t79 -70.5t32.5 -99q0 -75 -54.5 -121.5t-145.5 -46.5zM274 -165q0 -19 -9.5 -33t-27.5 -14q-16 0 -25.5 12t-9.5 31t10.5 33t27.5 14q16 0 25 -12t9 -31z" />
<glyph unicode="&#x1e63;" horiz-adv-x="404" d="M187 -10q-37 0 -76 8.5t-47 18.5q-8 9 -8 50q0 42 6 78h15q8 -81 32 -105q17 -17 84 -17q51 0 81.5 24.5t30.5 66.5q0 36 -25 61.5t-61 42.5t-72 35t-61 49t-25 75q0 55 45 91.5t111 36.5q37 0 70.5 -8t42.5 -19q6 -6 6 -44q0 -44 -6 -84h-15q-7 87 -29 104 q-27 18 -74 18q-49 0 -78.5 -25.5t-29.5 -69.5q0 -35 25 -61.5t61 -43.5t72 -35t61 -48t25 -71q0 -57 -44.5 -92.5t-116.5 -35.5zM233 -165q0 -19 -9.5 -33t-27.5 -14q-16 0 -25.5 12t-9.5 31t10.5 33t27.5 14q16 0 25 -12t9 -31z" />
<glyph unicode="&#x1e6c;" horiz-adv-x="584" d="M313 39l85 -19l-2 -20h-208l-2 20l58 13q16 4 21.5 10t5.5 20v590h-74q-72 0 -120 -10q-9 -34 -19 -84l-8 -39h-15q-3 39 -3 75q0 54 6 90h508q6 -36 6 -90q0 -36 -3 -75h-15l-8 39q-10 50 -19 84q-48 10 -120 10h-74v-614zM328 -165q0 -19 -9.5 -33t-27.5 -14 q-16 0 -25.5 12t-9.5 31t10.5 33t27.5 14q16 0 25 -12t9 -31z" />
<glyph unicode="&#x1e6d;" horiz-adv-x="405" d="M373 70q-25 -36 -62.5 -58t-76.5 -22q-55 0 -84 36t-29 104v330h-88l-2 16l90 14l20 150l20 -2v-148h185v-30h-185v-315q0 -120 81 -120q59 0 119 55zM267 -165q0 -19 -9.5 -33t-27.5 -14q-16 0 -25.5 12t-9.5 31t10.5 33t27.5 14q16 0 25 -12t9 -31z" />
<glyph unicode="&#x1e80;" horiz-adv-x="1056" d="M621 795l-7 -16q-63 7 -146 36t-83 57q0 18 21 26l7 -1q99 -71 208 -102zM362 0h-23l-213 616q-6 18 -13.5 25.5t-22.5 10.5l-58 13l2 20h211l2 -20l-85 -19l193 -571l155 460l-28 81q-6 18 -13.5 25.5t-22.5 10.5l-59 13l2 20h213l2 -20l-86 -19l192 -571l192 571 l-85 19l2 20h203l2 -20l-56 -13q-28 -6 -38 -36l-213 -616h-23l-165 481z" />
<glyph unicode="&#x1e81;" horiz-adv-x="842" d="M495 594l-12 -12q-35 27 -53.5 41.5t-47 38.5t-41.5 41.5t-13 29.5q0 23 32 23h4l5 -2q31 -58 126 -160zM439 495l157 -442h1l112 407l-77 19l2 16h182l2 -16l-46 -13q-30 -8 -38 -36l-125 -430h-35l-154 433l-151 -433h-35l-126 430q-5 17 -13 24.5t-23 11.5l-48 13 l2 16h192l2 -16l-78 -19l116 -407h1l149 442h31z" />
<glyph unicode="&#x1e82;" horiz-adv-x="1056" d="M618 896l7 1q21 -7 21 -26q0 -28 -83 -57t-146 -36l-7 16q109 31 208 102zM362 0h-23l-213 616q-6 18 -13.5 25.5t-22.5 10.5l-58 13l2 20h211l2 -20l-85 -19l193 -571l155 460l-28 81q-6 18 -13.5 25.5t-22.5 10.5l-59 13l2 20h213l2 -20l-86 -19l192 -571l192 571 l-85 19l2 20h203l2 -20l-56 -13q-28 -6 -38 -36l-213 -616h-23l-165 481z" />
<glyph unicode="&#x1e83;" horiz-adv-x="842" d="M534 733q0 -12 -13 -29.5t-41.5 -41.5t-47 -38.5t-53.5 -41.5l-12 12q95 102 126 160l5 2h4q32 0 32 -23zM439 495l157 -442h1l112 407l-77 19l2 16h182l2 -16l-46 -13q-30 -8 -38 -36l-125 -430h-35l-154 433l-151 -433h-35l-126 430q-5 17 -13 24.5t-23 11.5l-48 13 l2 16h192l2 -16l-78 -19l116 -407h1l149 442h31z" />
<glyph unicode="&#x1e84;" horiz-adv-x="1056" d="M636 839q0 -19 -10 -33t-29 -14q-17 0 -27 11.5t-10 28.5q0 18 11.5 31.5t28.5 13.5t26.5 -10.5t9.5 -27.5zM446 839q0 -19 -10 -33t-29 -14q-17 0 -27 11.5t-10 28.5q0 18 11.5 31.5t28.5 13.5t26.5 -10.5t9.5 -27.5zM362 0h-23l-213 616q-6 18 -13.5 25.5t-22.5 10.5 l-58 13l2 20h211l2 -20l-85 -19l193 -571l155 460l-28 81q-6 18 -13.5 25.5t-22.5 10.5l-59 13l2 20h213l2 -20l-86 -19l192 -571l192 571l-85 19l2 20h203l2 -20l-56 -13q-28 -6 -38 -36l-213 -616h-23l-165 481z" />
<glyph unicode="&#x1e85;" horiz-adv-x="842" d="M556 671q0 -20 -9 -34.5t-27 -14.5q-15 0 -24.5 12t-9.5 30q0 19 10.5 33.5t26.5 14.5q15 0 24 -11.5t9 -29.5zM366 671q0 -20 -9 -34.5t-27 -14.5q-15 0 -24.5 12t-9.5 30q0 19 10.5 33.5t26.5 14.5q15 0 24 -11.5t9 -29.5zM439 495l157 -442h1l112 407l-77 19l2 16h182 l2 -16l-46 -13q-30 -8 -38 -36l-125 -430h-35l-154 433l-151 -433h-35l-126 430q-5 17 -13 24.5t-23 11.5l-48 13l2 16h192l2 -16l-78 -19l116 -407h1l149 442h31z" />
<glyph unicode="&#x1e92;" horiz-adv-x="594" d="M516 0h-439l-5 30l387 625h-216q-66 0 -113 -5l-34 -130h-15q-3 33 -3 65q0 59 6 100h418l5 -30l-387 -625h237q66 0 113 5l34 130h15q3 -33 3 -65q0 -60 -6 -100zM342 -165q0 -19 -9.5 -33t-27.5 -14q-16 0 -25.5 12t-9.5 31t10.5 33t27.5 14q16 0 25 -12t9 -31z" />
<glyph unicode="&#x1e93;" horiz-adv-x="458" d="M402 66q-2 -43 -6 -66h-334l-6 30l300 435h-244l-30 -115h-15q-6 35 -6 82q2 41 6 63h329l6 -30l-300 -435h248l31 115h15q6 -33 6 -79zM271 -165q0 -19 -9.5 -33t-27.5 -14q-16 0 -25.5 12t-9.5 31t10.5 33t27.5 14q16 0 25 -12t9 -31z" />
<glyph unicode="&#x1e9e;" horiz-adv-x="687" d="M631 150q0 -71 -49 -115.5t-131 -44.5q-44 0 -82.5 12t-48.5 25q-9 15 -9 56q0 48 7 82h15q15 -90 38 -113q25 -27 86 -27q58 0 93.5 35t35.5 86q0 16 -4 31.5t-9 28.5t-16.5 26t-20 22.5t-26 21.5t-27.5 19t-32 18.5t-32 17t-35.5 17.5t-34.5 17l-3 22l176 219 q-65 56 -158 56q-75 0 -125.5 -46.5t-50.5 -115.5v-483l-14 -17h-111l-2 20l58 13q16 4 21.5 10t5.5 20v425q0 88 65.5 147.5t163.5 59.5q120 0 188 -62l4 -22l-178 -221q7 -4 32.5 -17.5t35 -18.5t32.5 -18t33 -20.5t28.5 -21t27 -23.5t21 -25.5t18 -29t10 -31t4.5 -35.5z " />
<glyph unicode="&#x1ea0;" horiz-adv-x="711" d="M344 685h23l218 -616q6 -18 13.5 -25.5t22.5 -10.5l58 -13l-2 -20h-212l-2 20l86 19l-75 216l-247 -4l-73 -211l85 -20l-2 -20h-203l-2 20l56 13q28 6 38 36zM238 285h226l-113 325zM387 -165q0 -19 -9.5 -33t-27.5 -14q-16 0 -25.5 12t-9.5 31t10.5 33t27.5 14 q16 0 25 -12t9 -31z" />
<glyph unicode="&#x1ea1;" horiz-adv-x="496" d="M249 506q65 0 100 -34t35 -98q0 -26 -2 -132.5t-2 -153.5q0 -37 10.5 -51t38.5 -14q22 0 44 7l4 -9q-31 -31 -74 -31q-28 0 -45.5 18.5t-19.5 50.5q-67 -69 -150 -69q-58 0 -91 29.5t-33 80.5q0 71 78 119t198 51q2 96 2 102q0 48 -27 74t-75 26q-50 0 -84.5 -30.5 t-34.5 -66.5q0 -17 7 -32q-9 -6 -21 -6q-15 0 -24 9.5t-9 25.5q0 46 55.5 90t119.5 44zM107 102q0 -77 87 -77q79 0 144 72q0 53 2 143q-105 -3 -169 -41t-64 -97zM272 -165q0 -19 -9.5 -33t-27.5 -14q-16 0 -25.5 12t-9.5 31t10.5 33t27.5 14q16 0 25 -12t9 -31z" />
<glyph unicode="&#x1eb8;" horiz-adv-x="565" d="M188 360l222 5l-2 -39l-220 4v-300h148q68 0 113 5l34 130h15q3 -33 3 -75q0 -54 -6 -90h-432l-2 20l58 13q16 4 21.5 10t5.5 20v559q0 14 -5.5 20t-21.5 10l-58 13l2 20h422q6 -36 6 -90q0 -37 -3 -75h-15l-34 130q-68 5 -113 5h-138v-295zM348 -165q0 -19 -9.5 -33 t-27.5 -14q-16 0 -25.5 12t-9.5 31t10.5 33t27.5 14q16 0 25 -12t9 -31z" />
<glyph unicode="&#x1eb9;" horiz-adv-x="459" d="M411 70q-25 -37 -67 -58.5t-90 -21.5q-91 0 -144.5 66.5t-53.5 178.5q0 119 56.5 194.5t144.5 75.5q70 0 111 -48.5t41 -132.5q0 -18 -2 -56l-9 -10h-299v-4q0 -106 44.5 -167.5t121.5 -61.5q78 0 134 55zM253 472q-63 0 -104 -51t-49 -135l265 5q1 15 1 35 q0 70 -29.5 108t-83.5 38zM273 -165q0 -19 -9.5 -33t-27.5 -14q-16 0 -25.5 12t-9.5 31t10.5 33t27.5 14q16 0 25 -12t9 -31z" />
<glyph unicode="&#x1ebc;" horiz-adv-x="565" d="M132 775l-14 5q19 103 75 103q29 0 118 -35t105 -35q47 72 48 74l14 -6q-10 -52 -26.5 -77t-46.5 -25q-28 0 -118.5 34.5t-104.5 35.5q-20 -22 -50 -74zM188 360l222 5l-2 -39l-220 4v-300h148q68 0 113 5l34 130h15q3 -33 3 -75q0 -54 -6 -90h-432l-2 20l58 13 q16 4 21.5 10t5.5 20v559q0 14 -5.5 20t-21.5 10l-58 13l2 20h422q6 -36 6 -90q0 -37 -3 -75h-15l-34 130q-68 5 -113 5h-138v-295z" />
<glyph unicode="&#x1ebd;" horiz-adv-x="459" d="M102 614l-14 5q17 97 73 97q25 0 99.5 -28.5t87.5 -28.5q34 46 46 67l14 -6q-9 -48 -25.5 -72t-46.5 -24q-24 0 -100 28t-87 29q-21 -23 -47 -67zM411 70q-25 -37 -67 -58.5t-90 -21.5q-91 0 -144.5 66.5t-53.5 178.5q0 119 56.5 194.5t144.5 75.5q70 0 111 -48.5 t41 -132.5q0 -18 -2 -56l-9 -10h-299v-4q0 -106 44.5 -167.5t121.5 -61.5q78 0 134 55zM253 472q-63 0 -104 -51t-49 -135l265 5q1 15 1 35q0 70 -29.5 108t-83.5 38z" />
<glyph unicode="&#x1eca;" horiz-adv-x="334" d="M188 39l85 -19l-2 -20h-208l-2 20l58 13q16 4 21.5 10t5.5 20v583l-85 19l2 20h208l2 -20l-58 -13q-16 -4 -21.5 -10t-5.5 -20v-583zM203 -165q0 -19 -9.5 -33t-27.5 -14q-16 0 -25.5 12t-9.5 31t10.5 33t27.5 14q16 0 25 -12t9 -31z" />
<glyph unicode="&#x1ecb;" horiz-adv-x="276" d="M167 665q0 -19 -9.5 -33t-27.5 -14q-16 0 -25.5 12t-9.5 31t10.5 33t27.5 14q16 0 25 -12t9 -31zM162 35l75 -19l-2 -16h-186l-2 16l48 13q17 5 22 10.5t5 20.5v400l-73 6l-2 14q47 16 105 25l10 -10v-460zM174 -166q0 -19 -9.5 -33t-27.5 -14q-16 0 -25.5 12t-9.5 31 t10.5 33t27.5 14q16 0 25 -12t9 -31z" />
<glyph unicode="&#x1ecc;" horiz-adv-x="648" d="M64 343q0 161 74.5 256.5t193.5 95.5q113 0 182.5 -94.5t69.5 -252.5q0 -161 -71 -259.5t-190 -98.5q-120 0 -189.5 94.5t-69.5 258.5zM109 343q0 -146 59.5 -232t157.5 -86q97 0 155 89t58 234q0 142 -57 227t-150 85q-100 0 -161.5 -86t-61.5 -231zM359 -165 q0 -19 -9.5 -33t-27.5 -14q-16 0 -25.5 12t-9.5 31t10.5 33t27.5 14q16 0 25 -12t9 -31z" />
<glyph unicode="&#x1ecd;" horiz-adv-x="498" d="M442 250q0 -122 -55 -190.5t-140 -69.5q-84 -1 -137.5 68.5t-53.5 192.5q0 119 59.5 186.5t140.5 67.5q79 0 132.5 -67t53.5 -188zM99 249q0 -97 40.5 -161.5t107.5 -64.5q71 0 111.5 56.5t40.5 165.5q0 101 -39.5 164t-104.5 63q-70 0 -113 -57t-43 -166zM291 -165 q0 -19 -9.5 -33t-27.5 -14q-16 0 -25.5 12t-9.5 31t10.5 33t27.5 14q16 0 25 -12t9 -31z" />
<glyph unicode="&#x1ee4;" horiz-adv-x="657" d="M109 220v426l-85 19l2 20h208l2 -20l-58 -13q-16 -4 -21.5 -10t-5.5 -20v-405q0 -90 51 -141t129 -51t129 50t51 142v429l-85 19l2 20h201l2 -20l-85 -19v-426q0 -111 -61.5 -170.5t-158.5 -59.5q-94 0 -155.5 60t-61.5 170zM363 -165q0 -19 -9.5 -33t-27.5 -14 q-16 0 -25.5 12t-9.5 31t10.5 33t27.5 14q16 0 25 -12t9 -31z" />
<glyph unicode="&#x1ee5;" horiz-adv-x="590" d="M119 160v300l-73 6l-2 14q47 16 105 25l10 -10v-335q0 -66 31 -101t91 -35q38 0 76.5 20t66.5 53v363l-73 6l-2 14q47 16 105 25l10 -10v-391q0 -44 11.5 -62.5t39.5 -18.5q19 0 44 7l4 -9q-31 -31 -74 -31q-59 0 -64 67q-28 -30 -69.5 -48.5t-82.5 -18.5 q-75 0 -114.5 43.5t-39.5 126.5zM335 -165q0 -19 -9.5 -33t-27.5 -14q-16 0 -25.5 12t-9.5 31t10.5 33t27.5 14q16 0 25 -12t9 -31z" />
<glyph unicode="&#x1ef2;" horiz-adv-x="671" d="M454 795l-7 -16q-63 7 -146 36t-83 57q0 18 21 26l7 -1q99 -71 208 -102zM356 39l85 -19l-2 -20h-208l-2 20l58 13q16 4 21.5 10t5.5 20v203l-187 350q-10 19 -17 26t-20 10l-58 13l2 20h211l2 -20l-85 -19l178 -346h1l176 346l-85 19l2 20h203l2 -20l-56 -13 q-16 -4 -24.5 -11.5t-17.5 -24.5l-185 -352v-225z" />
<glyph unicode="&#x1ef3;" horiz-adv-x="555" d="M352 593l-12 -12q-35 27 -53.5 41.5t-47 38.5t-41.5 41.5t-13 29.5q0 23 32 23h4l5 -2q31 -58 126 -160zM36 495h192l2 -16l-78 -19l137 -406l133 406l-77 19l2 16h182l2 -16l-46 -13q-29 -8 -38 -36l-147 -430q-44 -129 -90.5 -192t-115.5 -63q-29 0 -49.5 14.5 t-20.5 34.5q0 19 14 27l4 2q27 -38 66 -38q89 0 160 207l-150 438q-10 30 -36 36l-48 13z" />
<glyph unicode="&#x1ef8;" horiz-adv-x="671" d="M164 776l-14 5q19 103 75 103q29 0 118 -35t105 -35q47 73 48 74l14 -6q-10 -52 -26.5 -77t-46.5 -25q-28 0 -118.5 34.5t-104.5 35.5q-20 -22 -50 -74zM356 39l85 -19l-2 -20h-208l-2 20l58 13q16 4 21.5 10t5.5 20v203l-187 350q-10 19 -17 26t-20 10l-58 13l2 20h211 l2 -20l-85 -19l178 -346h1l176 346l-85 19l2 20h203l2 -20l-56 -13q-16 -4 -24.5 -11.5t-17.5 -24.5l-185 -352v-225z" />
<glyph unicode="&#x1ef9;" horiz-adv-x="555" d="M143 614l-14 5q17 97 73 97q25 0 99.5 -28.5t87.5 -28.5q34 46 46 67l14 -6q-9 -48 -25.5 -72t-46.5 -24q-24 0 -100 28t-87 29q-21 -23 -47 -67zM36 495h192l2 -16l-78 -19l137 -406l133 406l-77 19l2 16h182l2 -16l-46 -13q-29 -8 -38 -36l-147 -430 q-44 -129 -90.5 -192t-115.5 -63q-29 0 -49.5 14.5t-20.5 34.5q0 19 14 27l4 2q27 -38 66 -38q89 0 160 207l-150 438q-10 30 -36 36l-48 13z" />
<glyph unicode="&#x2007;" />
<glyph unicode="&#x2013;" horiz-adv-x="526" d="M48 250v35h430v-35h-430z" />
<glyph unicode="&#x2014;" horiz-adv-x="790" d="M48 250v35h694v-35h-694z" />
<glyph unicode="&#x2018;" horiz-adv-x="221" d="M157 746q-41 -68 -54 -170h4q20 0 32 -12t12 -32q0 -18 -12.5 -31t-32.5 -13t-31 14.5t-11 38.5q0 44 23 105t58 109z" />
<glyph unicode="&#x2019;" horiz-adv-x="221" d="M64 497q41 68 54 170h-4q-20 0 -32 12t-12 32q0 18 12.5 31t32.5 13t31 -14.5t11 -38.5q0 -44 -23 -105t-58 -109z" />
<glyph unicode="&#x201a;" horiz-adv-x="221" d="M64 -180q41 68 54 170h-4q-20 0 -32 12t-12 32q0 18 12.5 31t32.5 13t31 -14.5t11 -38.5q0 -44 -23 -105t-58 -109z" />
<glyph unicode="&#x201c;" horiz-adv-x="378" d="M157 746q-41 -68 -54 -170h4q20 0 32 -12t12 -32q0 -18 -12.5 -31t-32.5 -13t-31 14.5t-11 38.5q0 44 23 105t58 109zM314 746q-41 -68 -54 -170h4q20 0 32 -12t12 -32q0 -18 -12.5 -31t-32.5 -13t-31 14.5t-11 38.5q0 44 23 105t58 109z" />
<glyph unicode="&#x201d;" horiz-adv-x="378" d="M221 497q41 68 54 170h-4q-20 0 -32 12t-12 32q0 18 12.5 31t32.5 13t31 -14.5t11 -38.5q0 -44 -23 -105t-58 -109zM64 497q41 68 54 170h-4q-20 0 -32 12t-12 32q0 18 12.5 31t32.5 13t31 -14.5t11 -38.5q0 -44 -23 -105t-58 -109z" />
<glyph unicode="&#x201e;" horiz-adv-x="378" d="M221 -180q41 68 54 170h-4q-20 0 -32 12t-12 32q0 18 12.5 31t32.5 13t31 -14.5t11 -38.5q0 -44 -23 -105t-58 -109zM64 -180q41 68 54 170h-4q-20 0 -32 12t-12 32q0 18 12.5 31t32.5 13t31 -14.5t11 -38.5q0 -44 -23 -105t-58 -109z" />
<glyph unicode="&#x2020;" horiz-adv-x="504" d="M277 150l-15 -150h-20l-15 150l9 322l-161 -7l-4 3q-6 27 -7 32l14 8l159 -12l-10 189l3 4q24 5 39 6l8 -8l-10 -191l162 12l4 -3q7 -29 7 -32l-14 -8l-158 7z" />
<glyph unicode="&#x2021;" horiz-adv-x="504" d="M230 689q24 5 39 6l8 -8l-10 -191l162 12l4 -3q7 -29 7 -32l-14 -8l-157 7l8 -124l-8 -125l157 7l14 -8q0 -3 -7 -32l-4 -3l-162 12l10 -191l-8 -8q-15 1 -39 6l-3 4l10 189l-159 -12l-14 8q1 5 7 32l4 3l160 -7l-8 125l8 124l-160 -7l-4 3q-6 27 -7 32l14 8l159 -12 l-10 189z" />
<glyph unicode="&#x2022;" horiz-adv-x="402" d="M198 160q-42 0 -68 29t-26 70q0 46 29 80.5t73 34.5q42 0 67 -27.5t25 -69.5q0 -48 -26 -82.5t-74 -34.5z" />
<glyph unicode="&#x2026;" horiz-adv-x="580" d="M103 -10q-17 0 -28 12t-11 29q0 19 12 33t30 14t28 -11t10 -29q0 -20 -10.5 -34t-30.5 -14zM289 -10q-17 0 -28 12t-11 29q0 19 12 33t30 14t28 -11t10 -29q0 -20 -10.5 -34t-30.5 -14zM475 -10q-17 0 -28 12t-11 29q0 19 12 33t30 14t28 -11t10 -29q0 -20 -10.5 -34 t-30.5 -14z" />
<glyph unicode="&#x2030;" horiz-adv-x="1310" d="M689 695l-422 -705h-39l421 705h40zM78 483q-2 89 38.5 145.5t113.5 56.5q72 0 110.5 -55.5t39.5 -143.5q2 -91 -37.5 -150.5t-113.5 -59.5q-75 0 -112.5 56.5t-38.5 150.5zM113 483q1 -83 30 -132t87 -49t87.5 51.5t27.5 132.5q-1 78 -29.5 125.5t-85.5 47.5 q-58 0 -88.5 -48.5t-28.5 -127.5zM548 197q-2 89 38.5 145.5t113.5 56.5q72 0 110.5 -55.5t39.5 -143.5q2 -91 -37.5 -150.5t-113.5 -59.5q-75 0 -112.5 56.5t-38.5 150.5zM930 197q-2 89 38.5 145.5t113.5 56.5q72 0 110.5 -55.5t39.5 -143.5q2 -91 -37.5 -150.5 t-113.5 -59.5q-75 0 -112.5 56.5t-38.5 150.5zM583 197q1 -83 30 -132t87 -49t87.5 51.5t27.5 132.5q-1 78 -29.5 125.5t-85.5 47.5q-58 0 -88.5 -48.5t-28.5 -127.5zM965 197q1 -83 30 -132t87 -49t87.5 51.5t27.5 132.5q-1 78 -29.5 125.5t-85.5 47.5q-58 0 -88.5 -48.5 t-28.5 -127.5z" />
<glyph unicode="&#x2039;" horiz-adv-x="338" d="M253 28l-16 -8q-89 146 -149 201l-4 6v40q61 67 155 210l15 -9q-33 -69 -127 -222q59 -78 126 -218z" />
<glyph unicode="&#x203a;" horiz-adv-x="338" d="M254 226q-61 -67 -155 -210l-15 9q33 69 127 222q-59 78 -126 218l16 8q89 -146 149 -201l4 -6v-40z" />
<glyph unicode="&#x2044;" horiz-adv-x="269" d="M365 695l-422 -705h-39l421 705h40z" />
<glyph unicode="&#x2070;" horiz-adv-x="414" d="M56 553q-2 89 38.5 145.5t113.5 56.5q72 0 110.5 -55.5t39.5 -143.5q2 -91 -37.5 -150.5t-113.5 -59.5q-75 0 -112.5 56.5t-38.5 150.5zM91 553q1 -83 30 -132t87 -49t87.5 51.5t27.5 132.5q-1 78 -29.5 125.5t-85.5 47.5q-58 0 -88.5 -48.5t-28.5 -127.5z" />
<glyph unicode="&#x2071;" horiz-adv-x="237" d="M121 885q-13 0 -20.5 9.5t-7.5 24.5q0 16 8.5 27.5t21.5 11.5q28 0 28 -33q0 -16 -8 -28t-22 -12zM140 397l61 -15l-1 -13h-153l-2 13l40 10q14 4 18 8.5t4 16.5v309l-60 6l-2 11q40 13 87 20l8 -8v-358z" />
<glyph unicode="&#x2074;" horiz-adv-x="441" d="M56 469l226 286l24 -3v-277h79l-5 -24h-74v-95h-33v95h-209zM89 475h184v238z" />
<glyph unicode="&#x2075;" horiz-adv-x="383" d="M87 745h226q1 -41 -8 -86h-13q-2 39 -7.5 49.5t-26.5 10.5h-141l-1 -142h24q85 0 136 -29.5t51 -87.5q0 -50 -42 -82t-106 -32q-54 0 -88.5 18t-34.5 47q0 28 31 40l6 -5q-4 -12 -4 -24q0 -27 24.5 -41.5t67.5 -14.5q50 0 81.5 25.5t31.5 65.5q0 53 -52 78.5t-149 23.5 l-7 6z" />
<glyph unicode="&#x2076;" horiz-adv-x="392" d="M336 474q0 -55 -41.5 -91.5t-98.5 -36.5q-62 0 -101 43t-39 114q0 102 72.5 174t178.5 78l4 -15q-83 -11 -143 -64.5t-74 -135.5q51 43 111 43q58 0 94.5 -29.5t36.5 -79.5zM91 497q0 -57 30 -93t77 -36q45 0 74 28.5t29 74.5q0 40 -26 65t-72 25q-59 0 -112 -48v-16z " />
<glyph unicode="&#x2077;" horiz-adv-x="393" d="M333 745l4 -22q-65 -65 -111 -167.5t-54 -199.5h-32q8 91 55.5 193.5t110.5 169.5h-197q-22 0 -27 -10t-9 -49h-12q-8 34 -4 85h276z" />
<glyph unicode="&#x2078;" horiz-adv-x="391" d="M335 448q0 -45 -39.5 -73.5t-103.5 -28.5q-60 0 -98 27t-38 70q0 40 32 71t79 42q-41 20 -64 44t-23 58q0 41 33 69t85 28t82.5 -25.5t30.5 -65.5q0 -69 -83 -108q25 -12 40 -20.5t32.5 -21.5t26 -29.5t8.5 -36.5zM113 661q0 -32 24.5 -53.5t71.5 -42.5q69 35 69 99 q0 31 -21 50t-58 19q-38 0 -62 -20.5t-24 -51.5zM89 446q0 -35 30 -56.5t75 -21.5q44 0 76 21.5t32 56.5q0 16 -7 29.5t-26.5 26.5t-29 18.5t-39.5 19.5l-12 6q-44 -13 -71.5 -40t-27.5 -60z" />
<glyph unicode="&#x2079;" horiz-adv-x="392" d="M336 598q0 -102 -72.5 -174t-178.5 -78l-4 15q83 11 143 64.5t74 135.5q-51 -43 -116 -43q-56 0 -91 30t-35 80q0 54 41.5 90.5t98.5 36.5q62 0 101 -43t39 -114zM91 631q0 -41 24.5 -66t68.5 -25q64 0 117 48v16q0 57 -30 93t-77 36q-45 0 -74 -28.5t-29 -73.5z" />
<glyph unicode="&#x207f;" horiz-adv-x="484" d="M140 397l61 -15l-1 -13h-153l-2 13l40 10q14 4 18 8.5t4 16.5v309l-60 6l-2 11q40 13 87 20l8 -8v-42q61 50 130 50q57 0 86.5 -30.5t29.5 -87.5v-248l61 -15l-1 -13h-153l-2 13l40 10q14 4 18 8.5t4 16.5v227q0 91 -89 91q-67 0 -124 -51v-287z" />
<glyph unicode="&#x2080;" horiz-adv-x="414" d="M56 121q-2 89 38.5 145.5t113.5 56.5q72 0 110.5 -55.5t39.5 -143.5q2 -91 -37.5 -150.5t-113.5 -59.5q-75 0 -112.5 56.5t-38.5 150.5zM91 121q1 -83 30 -132t87 -49t87.5 51.5t27.5 132.5q-1 78 -29.5 125.5t-85.5 47.5q-58 0 -88.5 -48.5t-28.5 -127.5z" />
<glyph unicode="&#x2081;" horiz-adv-x="270" d="M151 -55l63 -12l-2 -9h-155l-1 9l40 7q14 3 18 6.5t4 13.5v332l-61 3l-1 8l89 20l6 -6v-372z" />
<glyph unicode="&#x2082;" horiz-adv-x="382" d="M61 -76l-5 21q18 16 56 50.5t53.5 49t41.5 41t36 43.5t19 39.5t9 43.5q0 38 -23.5 61.5t-62.5 23.5q-62 0 -112 -63l-9 4q19 39 52.5 62t77.5 23q52 0 82 -30t30 -77q0 -30 -12.5 -58.5t-42.5 -61t-57 -57t-78 -67.5q-17 -14 -26 -22h169q25 0 35 11t22 48l10 -1 q0 -45 -13 -84h-252z" />
<glyph unicode="&#x2083;" horiz-adv-x="382" d="M120 106l-1 18q77 14 117 38t40 67q0 29 -23 48.5t-59 19.5q-62 0 -118 -63l-8 4q46 85 133 85q48 0 78.5 -25t30.5 -65q0 -43 -36.5 -70.5t-83.5 -37.5q59 -3 97.5 -29.5t38.5 -71.5q0 -47 -42.5 -78.5t-108.5 -31.5q-54 0 -86.5 19t-32.5 49q0 27 31 41l6 -5 q-3 -8 -3 -21q0 -63 88 -63q50 0 82.5 23.5t32.5 64.5t-39 63.5t-94 22.5q-12 0 -40 -2z" />
<glyph unicode="&#x2084;" horiz-adv-x="441" d="M56 37l226 286l24 -3v-277h79l-5 -24h-74v-95h-33v95h-209zM89 43h184v238z" />
<glyph unicode="&#x2085;" horiz-adv-x="383" d="M87 313h226q1 -41 -8 -86h-13q-2 39 -7.5 49.5t-26.5 10.5h-141l-1 -142h24q85 0 136 -29.5t51 -87.5q0 -50 -42 -82t-106 -32q-54 0 -88.5 18t-34.5 47q0 28 31 40l6 -5q-4 -12 -4 -24q0 -27 24.5 -41.5t67.5 -14.5q50 0 81.5 25.5t31.5 65.5q0 53 -52 78.5t-149 23.5 l-7 6z" />
<glyph unicode="&#x2086;" horiz-adv-x="392" d="M336 42q0 -55 -41.5 -91.5t-98.5 -36.5q-62 0 -101 43t-39 114q0 102 72.5 174t178.5 78l4 -15q-83 -11 -143 -64.5t-74 -135.5q51 43 111 43q58 0 94.5 -29.5t36.5 -79.5zM91 65q0 -57 30 -93t77 -36q45 0 74 28.5t29 74.5q0 40 -26 65t-72 25q-59 0 -112 -48v-16z" />
<glyph unicode="&#x2087;" horiz-adv-x="393" d="M333 313l4 -22q-65 -65 -111 -167.5t-54 -199.5h-32q8 91 55.5 193.5t110.5 169.5h-197q-22 0 -27 -10t-9 -49h-12q-8 34 -4 85h276z" />
<glyph unicode="&#x2088;" horiz-adv-x="391" d="M335 16q0 -45 -39.5 -73.5t-103.5 -28.5q-60 0 -98 27t-38 70q0 40 32 71t79 42q-41 20 -64 44t-23 58q0 41 33 69t85 28t82.5 -25.5t30.5 -65.5q0 -69 -83 -108q25 -12 40 -20.5t32.5 -21.5t26 -29.5t8.5 -36.5zM113 229q0 -32 24.5 -53.5t71.5 -42.5q69 35 69 99 q0 31 -21 50t-58 19q-38 0 -62 -20.5t-24 -51.5zM89 14q0 -35 30 -56.5t75 -21.5q44 0 76 21.5t32 56.5q0 16 -7 29.5t-26.5 26.5t-29 18.5t-39.5 19.5l-12 6q-44 -13 -71.5 -40t-27.5 -60z" />
<glyph unicode="&#x2089;" horiz-adv-x="392" d="M336 166q0 -102 -72.5 -174t-178.5 -78l-4 15q83 11 143 64.5t74 135.5q-51 -43 -116 -43q-56 0 -91 30t-35 80q0 54 41.5 90.5t98.5 36.5q62 0 101 -43t39 -114zM91 199q0 -41 24.5 -66t68.5 -25q64 0 117 48v16q0 57 -30 93t-77 36q-45 0 -74 -28.5t-29 -73.5z" />
<glyph unicode="&#x2090;" horiz-adv-x="411" d="M202 324q53 0 81.5 -27t28.5 -77q0 -20 -1.5 -101.5t-1.5 -117.5q0 -29 8.5 -40t31.5 -11q20 0 36 5l4 -7q-24 -26 -61 -26q-49 0 -54 54q-54 -54 -123 -54q-47 0 -74 23t-27 63q0 56 63.5 93.5t162.5 39.5q2 74 2 80q0 37 -22.5 57t-61.5 20q-41 0 -69 -23.5t-28 -51.5 q0 -15 5 -26q-8 -5 -17 -5q-12 0 -19.5 7.5t-7.5 20.5q0 36 45.5 70t98.5 34zM85 11q0 -60 71 -60q64 0 118 54q0 40 2 112q-86 -2 -138.5 -31t-52.5 -75z" />
<glyph unicode="&#x2091;" horiz-adv-x="367" d="M333 -14q-20 -29 -54.5 -46.5t-74.5 -17.5q-74 0 -118 51.5t-44 139.5q0 93 46 152t119 59q57 0 90.5 -38t33.5 -104q0 -28 -1 -43l-8 -8h-245v-1q0 -83 36.5 -130.5t99.5 -47.5t110 42zM203 298q-52 0 -86 -40t-39 -105l217 4q1 12 1 28q0 55 -24.5 84t-68.5 29z" />
<glyph unicode="&#x2092;" horiz-adv-x="400" d="M358 125q0 -95 -45 -148.5t-115 -54.5q-69 -1 -112.5 53.5t-43.5 150.5q0 92 49 145t115 53q65 0 108.5 -52.5t43.5 -146.5zM77 124q0 -76 33 -126t88 -50q59 0 92 44t33 129q0 79 -32 128t-86 49q-58 0 -93 -44.5t-35 -129.5z" />
<glyph unicode="&#x2093;" horiz-adv-x="413" d="M105 288l106 -142l101 142l-61 16l2 12h144l2 -12q0 -1 -18 -6t-19 -5q-13 -4 -32 -29l-106 -135l110 -147q1 -1 2 -3q9 -13 14 -18t17 -8l36 -10l-2 -13h-152l-2 13l64 15l-110 148l-105 -148l61 -15l-1 -13h-145l-1 13l36 10q5 2 10 5t6.5 4.5t8 9.5t8.5 10l109 141 l-105 142q-2 2 -4.5 5.5t-3.5 5.5t-3 4l-3.5 3.5t-3.5 3t-4 2.5t-5 2l-6 2q-36 10 -36 11l1 12h152l2 -12z" />
<glyph unicode="&#x2095;" horiz-adv-x="476" d="M132 -42l61 -15l-1 -13h-153l-2 13l40 10q14 4 18 8.5t4 16.5v504l-60 6l-2 11q40 13 87 20l8 -8v-237q61 50 130 50q57 0 86.5 -30.5t29.5 -87.5v-248l61 -15l-1 -13h-153l-2 13l40 10q14 4 18 8.5t4 16.5v227q0 91 -89 91q-67 0 -124 -51v-287z" />
<glyph unicode="&#x2096;" horiz-adv-x="429" d="M132 -42l61 -15l-1 -13h-153l-2 13l40 10q14 4 18 8.5t4 16.5v505l-60 5l-2 11q37 13 87 21l8 -8v-364h92l94 140l-62 16l2 12h145l2 -12l-36 -11q-15 -4 -33 -29l-85 -118l88 -143q26 -42 52 -49l28 -8l-2 -16h-29q-26 0 -41.5 11t-31.5 37l-91 146h-92v-166z" />
<glyph unicode="&#x2097;" horiz-adv-x="229" d="M132 -42l61 -15l-1 -13h-153l-2 13l40 10q14 4 18 8.5t4 16.5v505l-60 5l-2 11q37 13 87 21l8 -8v-554z" />
<glyph unicode="&#x2098;" horiz-adv-x="714" d="M140 -42l61 -15l-1 -13h-153l-2 13l40 10q14 4 18 8.5t4 16.5v309l-60 6l-2 11q40 13 87 20l8 -8v-42q62 50 126 50q74 0 100 -55q57 55 130 55q58 0 89 -30.5t31 -87.5v-248l61 -15l-2 -13h-152l-2 13l39 10q14 4 18 8.5t4 16.5v227q0 91 -90 91q-67 0 -119 -49 q5 -20 5 -41v-248l61 -15l-1 -13h-153l-2 13l39 10q14 4 18.5 8.5t4.5 16.5v227q0 91 -85 91q-63 0 -120 -51v-287z" />
<glyph unicode="&#x2099;" horiz-adv-x="484" d="M140 -42l61 -15l-1 -13h-153l-2 13l40 10q14 4 18 8.5t4 16.5v309l-60 6l-2 11q40 13 87 20l8 -8v-42q61 50 130 50q57 0 86.5 -30.5t29.5 -87.5v-248l61 -15l-1 -13h-153l-2 13l40 10q14 4 18 8.5t4 16.5v227q0 91 -89 91q-67 0 -124 -51v-287z" />
<glyph unicode="&#x209a;" horiz-adv-x="447" d="M132 -233l78 -16l-2 -12h-169l-2 12l39 11q14 3 18.5 8t4.5 17v500l-60 6l-2 11q40 13 87 20l8 -8v-39q51 47 115 47q77 0 117.5 -53t40.5 -146q0 -91 -49 -147t-129 -56q-49 0 -95 19v-174zM229 -52q64 0 102 48t38 129q0 79 -32 125t-92 46q-64 0 -113 -52v-272 q41 -24 97 -24z" />
<glyph unicode="&#x209b;" horiz-adv-x="323" d="M149 -78q-30 0 -62 6.5t-39 14.5q-6 7 -6 40q0 38 5 61h12q7 -63 26 -82q14 -14 69 -14q42 0 67 19t25 51q0 28 -20.5 48t-50 33t-59 27t-50 38.5t-20.5 58.5q0 44 37 72.5t91 28.5q30 0 57.5 -6.5t35.5 -14.5q5 -5 5 -34q0 -32 -5 -67h-13q-5 68 -24 81q-21 15 -60 15 q-40 0 -64.5 -19.5t-24.5 -53.5q0 -33 31.5 -57.5t68.5 -37.5t68.5 -40.5t31.5 -66.5q0 -45 -36.5 -73t-95.5 -28z" />
<glyph unicode="&#x209c;" horiz-adv-x="326" d="M308 -14q-21 -28 -51.5 -46t-62.5 -18q-45 0 -69 28.5t-24 81.5v256h-72l-2 12l74 13l17 116l16 -1v-116h152v-24h-152v-244q0 -92 66 -92q50 0 98 42z" />
<glyph unicode="&#x20ac;" horiz-adv-x="622" d="M56 232l5 35h94q-4 33 -4 81v17h-81l5 35h78q12 129 78 212t165 83q66 0 113 -45t47 -110q0 -43 -29 -43q-11 0 -18 3q3 18 3 30q0 60 -33.5 96t-87.5 36q-80 0 -133 -71.5t-62 -190.5h276l-5 -35h-273v-13q0 -40 5 -85h258l-4 -35h-249q19 -98 68.5 -152.5t122.5 -54.5 q89 0 160 66l11 -11q-60 -90 -179 -90q-89 0 -148.5 63t-78.5 179h-104z" />
<glyph unicode="&#x2122;" horiz-adv-x="691" d="M186 486l32 -8l-1 -18h-92l-1 18l22 5q10 3 10 13v166h-21q-27 0 -43 -3q-3 -7 -8 -29l-4 -18h-13q-3 14 -3 31q0 27 5 42h206q4 -16 4 -42q0 -13 -2 -31h-15l-4 18q-1 5 -3.5 15l-3.5 14q-18 3 -44 3h-21v-176zM322 685h67l70 -189l68 189h71v-17l-32 -9l32 -173l29 -8 v-18h-89l-2 18l17 4q16 3 13 18l-28 138l-65 -178h-31l-68 180l-29 -154l31 -8v-18h-84l-1 18l20 5q11 2 12 12l30 164l-33 9z" />
<glyph unicode="&#x2202;" horiz-adv-x="581" d="M281 755q108 0 172 -102.5t64 -269.5q0 -169 -68.5 -280t-187.5 -111q-87 0 -142 61.5t-55 162.5q0 105 73.5 178t188.5 73q81 0 145 -32q-9 125 -63.5 202.5t-136.5 77.5q-52 0 -97.5 -23.5t-76.5 -59.5l-17 18q33 42 84.5 73.5t116.5 31.5zM114 215q0 -83 42 -134 t109 -51q94 0 150.5 92t56.5 225v42q-64 38 -146 38q-99 0 -155.5 -58.5t-56.5 -153.5z" />
<glyph unicode="&#x220f;" horiz-adv-x="702" d="M191 -119l-8 -16h-117l-2 20l58 13q16 4 21.5 10t5.5 20v718l-85 19l2 20h570l2 -20l-58 -13q-16 -4 -21.5 -10t-5.5 -20v-718l85 -19l-2 -20h-117l-8 16v765h-320v-765z" />
<glyph unicode="&#x2211;" horiz-adv-x="576" d="M45 -135l-5 30l296 352l-282 408l5 30h447q6 -31 6 -80q0 -42 -3 -75h-15q-17 84 -27 114q-46 11 -120 11h-243l282 -407l-303 -353h264q74 0 120 11q10 30 27 114h15q3 -33 3 -75q0 -48 -6 -80h-461z" />
<glyph unicode="&#x2212;" d="M480 322h-405v35q150 5 402 5l8 -8z" />
<glyph unicode="&#x221a;" horiz-adv-x="582" d="M24 495h110l180 -465h2l203 725l39 -10l-210 -745h-66l-178 455h-80v40z" />
<glyph unicode="&#x221e;" horiz-adv-x="870" d="M770 343q0 -74 -43.5 -122.5t-113.5 -48.5q-57 0 -97.5 34t-76.5 93q-68 -127 -187 -127q-68 0 -110 48t-42 121q0 74 44 122.5t115 48.5q59 0 99 -34.5t77 -94.5q32 59 79 94t104 35q68 0 110 -48t42 -121zM612 476q-45 0 -87.5 -36t-69.5 -90l2 -4q42 -70 77.5 -104 t81.5 -34q48 0 80 35.5t32 98.5q0 60 -32.5 97t-83.5 37zM142 344q0 -62 32 -99t84 -37q100 0 161 124q0 1 -1.5 3.5t-2.5 3.5q-38 68 -75 102.5t-84 34.5q-50 0 -82 -35.5t-32 -96.5z" />
<glyph unicode="&#x222b;" horiz-adv-x="420" d="M258 724q-49 0 -75 -35.5t-26 -101.5q0 -52 47 -327q7 -43 18.5 -108t17 -99t10.5 -73.5t5 -64.5q0 -77 -45.5 -123.5t-115.5 -46.5q-39 0 -64.5 17.5t-25.5 42.5q0 21 17 30q40 -57 100 -57q90 0 90 122q0 33 -6.5 83t-23 146t-22.5 131q-6 38 -16.5 100t-15.5 93.5 t-9 66.5t-4 55q0 85 43.5 132.5t111.5 47.5q54 0 90.5 -31t36.5 -68q0 -28 -27 -36q-29 104 -111 104z" />
<glyph unicode="&#x2248;" d="M404 391q-18 0 -125.5 27.5t-123.5 27.5q-13 0 -63 -62l-25 15q15 26 25.5 41t28.5 31t35 16q18 0 123 -27.5t126 -27.5q12 0 63 62l25 -15q-50 -88 -89 -88zM404 197q-18 0 -125.5 27.5t-123.5 27.5q-13 0 -63 -62l-25 15q15 26 25.5 41t28.5 31t35 16q18 0 123 -27.5 t126 -27.5q12 0 63 62l25 -15q-50 -88 -89 -88z" />
<glyph unicode="&#x2260;" d="M135 111l54 115h-114v35q41 1 132 3l73 155h-205v35q49 2 223 4l60 127l11 3l30 -12l-56 -118q52 1 134 1l8 -8l-5 -32h-156l-74 -155q170 2 227 2l8 -8l-5 -32h-249l-62 -130z" />
<glyph unicode="&#x2264;" d="M470 611v-46l-341 -164l341 -154v-46q-28 14 -191.5 89t-214.5 102l-4 16zM475 76h-405v35q150 5 402 5l8 -8z" />
<glyph unicode="&#x2265;" d="M80 196v46l341 164l-341 154v46q28 -14 191.5 -89t214.5 -102l4 -16zM495 76h-405v35q150 5 402 5l8 -8z" />
<glyph unicode="&#x25ca;" horiz-adv-x="615" d="M64 330v25l216 335l48 10l223 -345v-27l-219 -328l-47 -10zM302 655l-196 -313l197 -306l8 1l200 305l-200 313h-9z" />
<glyph unicode="&#x25fc;" horiz-adv-x="495" d="M0 495h495v-495h-495v495z" />
<glyph unicode="&#x2c7c;" horiz-adv-x="212" d="M114 449q-13 0 -20.5 10t-7.5 25q0 16 8.5 27.5t21.5 11.5q27 0 27 -33q0 -17 -7.5 -29t-21.5 -12zM29 -258q27 36 39 55.5t22 57.5t10 90v342l-60 6l-2 11q40 13 87 20l8 -8v-394q0 -70 -20.5 -108.5t-71.5 -82.5z" />
<glyph unicode="&#xa7b6;" horiz-adv-x="760" d="M314 0h-268q-6 32 -6 80q0 42 3 75h15l7 -35q10 -49 20 -79q46 -11 120 -11h68q-152 127 -152 328q0 148 74 242.5t192 94.5q111 0 181.5 -94.5t70.5 -242.5q0 -201 -152 -328h68q74 0 120 11q10 30 20 79l7 35h15q3 -33 3 -75q0 -48 -6 -80h-268l-10 30q158 123 158 328 q0 132 -57.5 217t-149.5 85q-99 0 -160 -85t-61 -217q0 -205 158 -328z" />
<glyph unicode="&#xfb01;" horiz-adv-x="551" d="M162 35l95 -19l-2 -16h-206l-2 16l48 13q17 5 22 10.5t5 20.5v400h-73l-2 16l75 14v18q0 112 54 179.5t138 67.5q52 0 87.5 -25.5t35.5 -58.5q0 -12 -7 -19.5t-18 -7.5q-5 0 -7 1q-21 77 -102 77q-63 0 -102 -54t-39 -148v-30h235q13 10 30 15l10 -10v-460l75 -19l-2 -16 h-186l-2 16l48 13q17 5 22 10.5t5 20.5v400h-235v-425z" />
<glyph unicode="&#xfb02;" horiz-adv-x="551" d="M162 35l95 -19l-2 -16h-206l-2 16l48 13q17 5 22 10.5t5 20.5v400h-73l-2 16l75 14v43q0 101 51 161.5t133 60.5q50 0 91 -30v26q19 4 30 5l10 -10v-711l75 -19l-2 -16h-186l-2 16l48 13q17 5 22 10.5t5 20.5v400h-235v-425zM162 545v-55h235v185q-32 47 -94 47 q-66 0 -103.5 -47t-37.5 -130z" />
<glyph unicode="&#xfb06;" horiz-adv-x="775" d="M557 598q0 -66 -52 -108h211v-30h-185v-315q0 -120 81 -120q59 0 119 55l12 -10q-25 -36 -62.5 -58t-76.5 -22q-55 0 -84 36t-29 104v330h-68l-2 20q48 11 73 43.5t25 75.5t-31.5 71t-80.5 28q-67 0 -109 -43.5t-42 -109.5q0 -29 6 -50q32 -12 53 -33.5t21 -46.5 q0 -29 -27 -29q-18 0 -38 23t-32 59q-18 5 -35 5q-45 0 -74.5 -25t-29.5 -68q0 -36 25.5 -62.5t61.5 -44t72 -35.5t61.5 -48.5t25.5 -71.5q0 -57 -44.5 -92.5t-116.5 -35.5q-37 0 -76 8.5t-47 18.5q-8 9 -8 50q0 42 6 78h15q8 -81 32 -105q17 -17 84 -17q51 0 81.5 24.5 t30.5 66.5q0 36 -25 61.5t-60.5 42.5t-71.5 35t-61 49t-25 75q0 54 43.5 91t102.5 37q8 0 24 -2q-4 19 -4 43q0 78 51.5 131t133.5 53q64 0 105 -38t41 -94z" />
<glyph horiz-adv-x="443" d="M103 -78l-9 4v556l-59 6l-2 11q39 12 86 20l9 -8v-234q49 47 114 47q76 0 117.5 -53t41.5 -146q0 -92 -48 -147.5t-130 -55.5q-51 0 -95 20zM225 -52q66 0 103 47.5t37 128.5q0 79 -33.5 125.5t-90.5 46.5q-64 0 -113 -52v-272q41 -24 97 -24z" />
<glyph horiz-adv-x="351" d="M325 226q0 -34 -24 -34q-7 0 -15 2q2 9 2 23q0 37 -23 59t-62 22q-55 0 -90.5 -47.5t-35.5 -121.5q0 -83 36 -130t100 -47q63 0 110 42l10 -8q-20 -29 -54 -46.5t-72 -17.5q-76 0 -120.5 51.5t-44.5 139.5q0 93 46 152t119 59q50 0 84 -28t34 -70z" />
<glyph horiz-adv-x="449" d="M225 324q45 0 87 -14v172l-76 6l-2 11q20 6 103 20l8 -8v-499q0 -33 9 -47.5t33 -14.5q18 0 36 5l4 -7q-26 -26 -61 -26q-48 0 -54 52q-48 -52 -119 -52q-67 0 -109 49.5t-42 142.5q0 96 54 153t129 57zM224 298q-65 0 -106 -47.5t-41 -136.5q0 -77 33.5 -120.5 t85.5 -43.5q67 0 116 55v271q-38 22 -88 22z" />
<glyph horiz-adv-x="239" d="M140 -42l78 -15l-2 -13h-169l-2 13l40 10q14 4 18 8.5t4 16.5v310h-60l-2 12l62 12v14q0 88 41 140.5t108 52.5q39 0 66 -20.5t27 -46.5q0 -22 -21 -22q-4 0 -5 1q-17 62 -76 62q-50 0 -78.5 -41.5t-28.5 -114.5v-25h112v-24h-112v-330z" />
<glyph horiz-adv-x="385" d="M71 177q0 64 38 105.5t96 41.5q37 0 68 -21q20 12 48 22t40 10q14 0 14 -19q0 -12 -1 -16q-3 -11 -18 -11q-44 0 -66 -1q35 -38 35 -98q0 -65 -35.5 -104t-93.5 -39q-18 0 -31 4q-22 -24 -22 -46q0 -32 40 -35l73 -7q55 -5 85 -32.5t30 -72.5q0 -56 -50 -91.5t-128 -35.5 q-68 0 -109.5 29t-41.5 76t44 79l10 -8q-18 -26 -18 -56q0 -44 32.5 -69t90.5 -25q60 0 97.5 26t37.5 67q0 69 -90 78l-70 6q-30 3 -46.5 19.5t-16.5 39.5q0 34 32 64q-34 14 -54 46t-20 74zM290 181q0 56 -23.5 86.5t-65.5 30.5q-41 0 -68 -30.5t-27 -79.5q0 -50 25.5 -82 t65.5 -33q43 -1 68 28t25 80z" />
<glyph horiz-adv-x="237" d="M121 446q-13 0 -20.5 9.5t-7.5 24.5q0 16 8.5 27.5t21.5 11.5q28 0 28 -33q0 -16 -8 -28t-22 -12zM140 -42l61 -15l-1 -13h-153l-2 13l40 10q14 4 18 8.5t4 16.5v309l-60 6l-2 11q40 13 87 20l8 -8v-358z" />
<glyph horiz-adv-x="436" d="M345 -233l62 -16l-2 -12h-153l-1 12l39 11q13 3 17.5 8t4.5 17v186q-51 -51 -119 -51q-67 0 -109 50.5t-42 145.5q0 94 54 150t129 56q43 0 91 -17l21 17l8 -4v-553zM224 298q-65 0 -106 -46.5t-41 -133.5q0 -80 33.5 -124t85.5 -44q67 0 116 55v271q-38 22 -88 22z" />
<glyph horiz-adv-x="316" d="M140 -42l78 -15l-2 -13h-169l-2 13l40 10q14 4 18 8.5t4 16.5v309l-60 6l-2 11q40 13 87 20l8 -8v-56q53 64 111 64q25 0 40 -11.5t15 -27.5q0 -17 -17 -29q-2 0 -4 -1q-21 35 -49 35q-46 0 -96 -64v-268z" />
<glyph horiz-adv-x="496" d="M102 54v233l-60 6l-2 11q40 13 87 20l8 -8v-261q0 -104 100 -104q33 0 65 15.5t52 40.5v280l-60 6l-2 11q40 13 87 20l8 -8v-304q0 -34 9.5 -48t32.5 -14q17 0 36 5l3 -7q-26 -26 -61 -26q-48 0 -53 53q-50 -53 -124 -53q-61 0 -93.5 34t-32.5 98z" />
<glyph horiz-adv-x="427" d="M348 265l-120 -335h-29l-121 335q-8 23 -29 28q0 1 -19 6l-20 5l1 12h158l2 -12l-64 -16l111 -314h1l108 315l-62 15l1 12h150l1 -12l-37 -11q-24 -7 -32 -28z" />
<glyph horiz-adv-x="671" d="M350 316l129 -342h1l92 315l-64 15l2 12h149l2 -12l-38 -11q-24 -7 -31 -28l-103 -335h-29l-126 334l-123 -334h-29l-104 335q-6 22 -29 28q-39 10 -39 11l1 12h158l2 -12l-64 -16l95 -314l123 342h25z" />
<glyph horiz-adv-x="435" d="M19 316h158l2 -12l-64 -16l112 -313l108 314l-62 15l2 12h149l1 -12l-37 -11q-24 -7 -31 -28l-121 -337q-36 -100 -74.5 -148.5t-94.5 -48.5q-24 0 -40.5 11.5t-16.5 28.5q0 14 11 22l4 1q19 -28 54 -28q75 0 131 158l-123 341q-5 13 -11.5 19t-18.5 9q-39 10 -39 11z " />
<glyph horiz-adv-x="368" d="M326 -18q-2 -32 -5 -52h-274l-5 24l245 338h-199l-25 -90h-12q-5 22 -5 65q2 36 5 49h270l5 -24l-247 -338h204l25 90h13q5 -28 5 -62z" />
<glyph horiz-adv-x="412" d="M202 763q53 0 81.5 -27t28.5 -77q0 -20 -1.5 -101.5t-1.5 -117.5q0 -29 8.5 -40t31.5 -11q20 0 36 5l4 -7q-24 -26 -61 -26q-49 0 -54 54q-54 -54 -123 -54q-47 0 -74 23t-27 63q0 56 63.5 93.5t162.5 39.5q2 74 2 80q0 37 -22.5 57t-61.5 20q-41 0 -69 -23.5t-28 -51.5 q0 -15 5 -26q-8 -5 -17 -5q-12 0 -19.5 7.5t-7.5 20.5q0 36 45.5 70t98.5 34zM85 450q0 -60 71 -60q64 0 118 54q0 40 2 112q-86 -2 -138.5 -31t-52.5 -75z" />
<glyph horiz-adv-x="443" d="M103 361l-9 4v556l-59 6l-2 11q39 12 86 20l9 -8v-234q49 47 114 47q76 0 117.5 -53t41.5 -146q0 -92 -48 -147.5t-130 -55.5q-51 0 -95 20zM225 387q66 0 103 47.5t37 128.5q0 79 -33.5 125.5t-90.5 46.5q-64 0 -113 -52v-272q41 -24 97 -24z" />
<glyph horiz-adv-x="351" d="M325 665q0 -34 -24 -34q-7 0 -15 2q2 9 2 23q0 37 -23 59t-62 22q-55 0 -90.5 -47.5t-35.5 -121.5q0 -83 36 -130t100 -47q63 0 110 42l10 -8q-20 -29 -54 -46.5t-72 -17.5q-76 0 -120.5 51.5t-44.5 139.5q0 93 46 152t119 59q50 0 84 -28t34 -70z" />
<glyph horiz-adv-x="447" d="M225 763q45 0 87 -14v172l-76 6l-2 11q20 6 103 20l8 -8v-499q0 -33 9 -47.5t33 -14.5q18 0 36 5l4 -7q-26 -26 -61 -26q-48 0 -54 52q-48 -52 -119 -52q-67 0 -109 49.5t-42 142.5q0 96 54 153t129 57zM224 737q-65 0 -106 -47.5t-41 -136.5q0 -77 33.5 -120.5 t85.5 -43.5q67 0 116 55v271q-38 22 -88 22z" />
<glyph horiz-adv-x="367" d="M333 425q-20 -29 -54.5 -46.5t-74.5 -17.5q-74 0 -118 51.5t-44 139.5q0 93 46 152t119 59q57 0 90.5 -38t33.5 -104q0 -28 -1 -43l-8 -8h-245v-1q0 -83 36.5 -130.5t99.5 -47.5t110 42zM203 737q-52 0 -86 -40t-39 -105l217 4q1 12 1 28q0 55 -24.5 84t-68.5 29z" />
<glyph horiz-adv-x="239" d="M140 397l78 -15l-2 -13h-169l-2 13l40 10q14 4 18 8.5t4 16.5v310h-60l-2 12l62 12v14q0 88 41 140.5t108 52.5q39 0 66 -20.5t27 -46.5q0 -22 -21 -22q-4 0 -5 1q-17 62 -76 62q-50 0 -78.5 -41.5t-28.5 -114.5v-25h112v-24h-112v-330z" />
<glyph horiz-adv-x="385" d="M71 616q0 64 38 105.5t96 41.5q37 0 68 -21q20 12 48 22t40 10q14 0 14 -19q0 -12 -1 -16q-3 -11 -18 -11q-44 0 -66 -1q35 -38 35 -98q0 -65 -35.5 -104t-93.5 -39q-18 0 -31 4q-22 -24 -22 -46q0 -32 40 -35l73 -7q55 -5 85 -32.5t30 -72.5q0 -56 -50 -91.5t-128 -35.5 q-68 0 -109.5 29t-41.5 76t44 79l10 -8q-18 -26 -18 -56q0 -44 32.5 -69t90.5 -25q60 0 97.5 26t37.5 67q0 69 -90 78l-70 6q-30 3 -46.5 19.5t-16.5 39.5q0 34 32 64q-34 14 -54 46t-20 74zM290 620q0 56 -23.5 86.5t-65.5 30.5q-41 0 -68 -30.5t-27 -79.5q0 -50 25.5 -82 t65.5 -33q43 -1 68 28t25 80z" />
<glyph horiz-adv-x="476" d="M132 397l61 -15l-1 -13h-153l-2 13l40 10q14 4 18 8.5t4 16.5v504l-60 6l-2 11q40 13 87 20l8 -8v-237q61 50 130 50q57 0 86.5 -30.5t29.5 -87.5v-248l61 -15l-1 -13h-153l-2 13l40 10q14 4 18 8.5t4 16.5v227q0 91 -89 91q-67 0 -124 -51v-287z" />
<glyph horiz-adv-x="212" d="M114 888q-13 0 -20.5 10t-7.5 25q0 16 8.5 27.5t21.5 11.5q27 0 27 -33q0 -17 -7.5 -29t-21.5 -12zM29 181q27 36 39 55.5t22 57.5t10 90v342l-60 6l-2 11q40 13 87 20l8 -8v-394q0 -70 -20.5 -108.5t-71.5 -82.5z" />
<glyph horiz-adv-x="429" d="M132 397l61 -15l-1 -13h-153l-2 13l40 10q14 4 18 8.5t4 16.5v505l-60 5l-2 11q37 13 87 21l8 -8v-364h92l94 140l-62 16l2 12h145l2 -12l-36 -11q-15 -4 -33 -29l-85 -118l88 -143q26 -42 52 -49l28 -8l-2 -16h-29q-26 0 -41.5 11t-31.5 37l-91 146h-92v-166z" />
<glyph horiz-adv-x="229" d="M132 397l61 -15l-1 -13h-153l-2 13l40 10q14 4 18 8.5t4 16.5v505l-60 5l-2 11q37 13 87 21l8 -8v-554z" />
<glyph horiz-adv-x="714" d="M140 397l61 -15l-1 -13h-153l-2 13l40 10q14 4 18 8.5t4 16.5v309l-60 6l-2 11q40 13 87 20l8 -8v-42q62 50 126 50q74 0 100 -55q57 55 130 55q58 0 89 -30.5t31 -87.5v-248l61 -15l-2 -13h-152l-2 13l39 10q14 4 18 8.5t4 16.5v227q0 91 -90 91q-67 0 -119 -49 q5 -20 5 -41v-248l61 -15l-1 -13h-153l-2 13l39 10q14 4 18.5 8.5t4.5 16.5v227q0 91 -85 91q-63 0 -120 -51v-287z" />
<glyph horiz-adv-x="400" d="M358 564q0 -95 -45 -148.5t-115 -54.5q-69 -1 -112.5 53.5t-43.5 150.5q0 92 49 145t115 53q65 0 108.5 -52.5t43.5 -146.5zM77 563q0 -76 33 -126t88 -50q59 0 92 44t33 129q0 79 -32 128t-86 49q-58 0 -93 -44.5t-35 -129.5z" />
<glyph horiz-adv-x="447" d="M132 206l78 -16l-2 -12h-169l-2 12l39 11q14 3 18.5 8t4.5 17v500l-60 6l-2 11q40 13 87 20l8 -8v-39q51 47 115 47q77 0 117.5 -53t40.5 -146q0 -91 -49 -147t-129 -56q-49 0 -95 19v-174zM229 387q64 0 102 48t38 129q0 79 -32 125t-92 46q-64 0 -113 -52v-272 q41 -24 97 -24z" />
<glyph horiz-adv-x="436" d="M345 206l62 -16l-2 -12h-153l-1 12l39 11q13 3 17.5 8t4.5 17v186q-51 -51 -119 -51q-67 0 -109 50.5t-42 145.5q0 94 54 150t129 56q43 0 91 -17l21 17l8 -4v-553zM224 737q-65 0 -106 -46.5t-41 -133.5q0 -80 33.5 -124t85.5 -44q67 0 116 55v271q-38 22 -88 22z" />
<glyph horiz-adv-x="316" d="M140 397l78 -15l-2 -13h-169l-2 13l40 10q14 4 18 8.5t4 16.5v309l-60 6l-2 11q40 13 87 20l8 -8v-56q53 64 111 64q25 0 40 -11.5t15 -27.5q0 -17 -17 -29q-2 0 -4 -1q-21 35 -49 35q-46 0 -96 -64v-268z" />
<glyph horiz-adv-x="323" d="M149 361q-30 0 -62 6.5t-39 14.5q-6 7 -6 40q0 38 5 61h12q7 -63 26 -82q14 -14 69 -14q42 0 67 19t25 51q0 28 -20.5 48t-50 33t-59 27t-50 38.5t-20.5 58.5q0 44 37 72.5t91 28.5q30 0 57.5 -6.5t35.5 -14.5q5 -5 5 -34q0 -32 -5 -67h-13q-5 68 -24 81q-21 15 -60 15 q-40 0 -64.5 -19.5t-24.5 -53.5q0 -33 31.5 -57.5t68.5 -37.5t68.5 -40.5t31.5 -66.5q0 -45 -36.5 -73t-95.5 -28z" />
<glyph horiz-adv-x="328" d="M310 425q-21 -28 -51.5 -46t-62.5 -18q-45 0 -69 28.5t-24 81.5v256h-72l-2 12l74 13l17 116l16 -1v-116h152v-24h-152v-244q0 -92 66 -92q50 0 98 42z" />
<glyph horiz-adv-x="495" d="M103 493v233l-60 6l-2 11q40 13 87 20l8 -8v-261q0 -104 100 -104q33 0 65 15.5t52 40.5v280l-60 6l-2 11q40 13 87 20l8 -8v-304q0 -34 9.5 -48t32.5 -14q17 0 36 5l3 -7q-26 -26 -61 -26q-48 0 -53 53q-50 -53 -124 -53q-61 0 -93.5 34t-32.5 98z" />
<glyph horiz-adv-x="427" d="M348 704l-120 -335h-29l-121 335q-8 23 -29 28l-19 5q-20 5 -20 6l1 12h158l2 -12l-64 -16l111 -314h1l108 315l-62 15l1 12h150l1 -12l-37 -11q-24 -7 -32 -28z" />
<glyph horiz-adv-x="671" d="M350 755l129 -342h1l92 315l-64 15l2 12h149l2 -12l-38 -11q-24 -7 -31 -28l-103 -335h-29l-126 334l-123 -334h-29l-104 335q-6 22 -29 28q-39 10 -39 11l1 12h158l2 -12l-64 -16l95 -314l123 342h25z" />
<glyph horiz-adv-x="413" d="M105 727l106 -142l101 142l-61 16l2 12h144l2 -12q0 -1 -18 -6t-19 -5q-13 -4 -32 -29l-106 -135l110 -147q1 -1 2 -3q9 -13 14 -18t17 -8l36 -10l-2 -13h-152l-2 13l64 15l-110 148l-105 -148l61 -15l-1 -13h-145l-1 13l36 10q5 2 10 5t6.5 4.5t8 9.5t8.5 10l109 141 l-105 142q-2 2 -4.5 5.5t-3.5 5.5t-3 4l-3.5 3.5t-3.5 3t-4 2.5t-5 2l-6 2q-36 10 -36 11l1 12h152l2 -12z" />
<glyph horiz-adv-x="435" d="M19 755h158l2 -12l-64 -16l112 -313l108 314l-62 15l2 12h149l1 -12l-37 -11q-24 -7 -31 -28l-121 -337q-36 -100 -74.5 -148.5t-94.5 -48.5q-24 0 -40.5 11.5t-16.5 28.5q0 14 11 22l4 1q19 -28 54 -28q75 0 131 158l-123 341q-5 13 -11.5 19t-18.5 9q-39 10 -39 11z " />
<glyph horiz-adv-x="368" d="M326 421q-2 -32 -5 -52h-274l-5 24l245 338h-199l-25 -90h-12q-5 23 -5 65q2 36 5 49h270l5 -24l-247 -338h204l25 90h13q5 -28 5 -62z" />
<glyph horiz-adv-x="998" d="M584 35l75 -19l-2 -16h-186l-2 16l48 13q17 5 22 10.5t5 20.5v644q-183 -74 -201 -218q53 -27 53 -71q0 -29 -25 -29q-21 0 -38 23t-17 55v1q-24 8 -52 8q-73 0 -119.5 -65.5t-46.5 -155.5q0 -106 44 -166.5t123 -60.5q78 0 134 55l12 -10q-25 -37 -66 -58.5t-88 -21.5 q-92 0 -146.5 66.5t-54.5 179.5q0 118 59.5 193.5t152.5 75.5q24 0 50 -8q10 91 74.5 151.5t181.5 106.5l10 -10v-304q75 64 159 64q69 0 105 -39t36 -113v-318l75 -19l-2 -16h-186l-2 16l48 13q17 5 22 10.5t5 20.5v293q0 119 -108 119q-82 0 -152 -67v-370z" />
<glyph horiz-adv-x="825" d="M471 480q48 11 73 43.5t25 75.5t-30 71t-77 28q-64 0 -104.5 -43.5t-40.5 -109.5q0 -29 6 -50q32 -12 52.5 -33.5t20.5 -46.5q0 -29 -27 -29q-18 0 -38 23t-32 59q-22 6 -36 6q-73 0 -119 -65.5t-46 -155.5q0 -106 44 -167t123 -61q78 0 134 55l12 -10q-25 -37 -66 -58.5 t-88 -21.5q-92 0 -146.5 67t-54.5 180q0 118 59 193t151 75q8 0 24 -2q-4 19 -4 43q0 78 50 131t130 53q62 0 101.5 -38t39.5 -94q0 -35 -15.5 -64t-33.5 -44h208v-30h-185v-315q0 -120 81 -120q59 0 119 55l12 -10q-25 -36 -62.5 -58t-76.5 -22q-55 0 -84 36t-29 104v330 h-68z" />
<glyph horiz-adv-x="955" d="M209 473q-45 0 -77 -26t-32 -70q0 -35 25.5 -60.5t61.5 -43t72 -35.5t61.5 -48.5t25.5 -71.5q0 -57 -44.5 -92.5t-116.5 -35.5q-37 0 -76 8.5t-47 18.5q-8 9 -8 50q0 42 6 78h15q8 -81 32 -105q17 -17 84 -17q51 0 81.5 24.5t30.5 66.5q0 36 -25 61.5t-60.5 42.5 t-71.5 35t-61 49t-25 75q0 54 46.5 91t108.5 37q24 0 44 -7q11 90 79 149t193 108l10 -10v-304q75 64 159 64q69 0 105 -39t36 -113v-318l75 -19l-2 -16h-186l-2 16l48 13q17 5 22 10.5t5 20.5v293q0 119 -108 119q-82 0 -152 -67v-370l75 -19l-2 -16h-186l-2 16l48 13 q17 5 22 10.5t5 20.5v643q-90 -35 -147.5 -85t-69.5 -130q53 -26 53 -73q0 -29 -25 -29q-21 0 -38 23t-17 55v1q-22 8 -48 8z" />
<glyph horiz-adv-x="586" d="M283 535h20l185 -475q6 -16 12.5 -22.5t18.5 -9.5l49 -11l-2 -17h-182l-2 17l73 17l-59 150l-216 -3l-56 -145l70 -19l-2 -17h-172l-2 17l48 13q23 6 32 30zM192 212l194 -1l-97 249z" />
<glyph horiz-adv-x="586" d="M398 772q0 -12 -13 -29.5t-41.5 -41.5t-47 -38.5t-53.5 -41.5l-12 12q95 102 126 160l5 2h4q32 0 32 -23zM283 535h20l185 -475q6 -16 12.5 -22.5t18.5 -9.5l49 -11l-2 -17h-182l-2 17l73 17l-59 150l-216 -3l-56 -145l70 -19l-2 -17h-172l-2 17l48 13q23 6 32 30z M192 212l194 -1l-97 249z" />
<glyph horiz-adv-x="586" d="M397 768l4 2l14 -3q-11 -58 -43.5 -90t-78.5 -32q-45 0 -76.5 32.5t-39.5 89.5l17 3q11 -38 38.5 -60t65.5 -22q34 0 60.5 21t38.5 59zM283 535h20l185 -475q6 -16 12.5 -22.5t18.5 -9.5l49 -11l-2 -17h-182l-2 17l73 17l-59 150l-216 -3l-56 -145l70 -19l-2 -17h-172 l-2 17l48 13q23 6 32 30zM192 212l194 -1l-97 249z" />
<glyph horiz-adv-x="586" d="M321 632l-6 -4h-41q-52 69 -107 154l14 10q68 -77 116 -120q49 58 115 120l12 -12q-74 -92 -103 -148zM283 535h20l185 -475q6 -16 12.5 -22.5t18.5 -9.5l49 -11l-2 -17h-182l-2 17l73 17l-59 150l-216 -3l-56 -145l70 -19l-2 -17h-172l-2 17l48 13q23 6 32 30zM192 212 l194 -1l-97 249z" />
<glyph horiz-adv-x="586" d="M424 636l-14 -10q-68 77 -116 120q-49 -58 -115 -120l-12 12q74 92 103 148l6 4h41q52 -69 107 -154zM283 535h20l185 -475q6 -16 12.5 -22.5t18.5 -9.5l49 -11l-2 -17h-182l-2 17l73 17l-59 150l-216 -3l-56 -145l70 -19l-2 -17h-172l-2 17l48 13q23 6 32 30zM192 212 l194 -1l-97 249z" />
<glyph horiz-adv-x="586" d="M425 710q0 -20 -9 -34.5t-27 -14.5q-15 0 -24.5 12t-9.5 30q0 19 10.5 33.5t26.5 14.5q15 0 24 -11.5t9 -29.5zM235 710q0 -20 -9 -34.5t-27 -14.5q-15 0 -24.5 12t-9.5 30q0 19 10.5 33.5t26.5 14.5q15 0 24 -11.5t9 -29.5zM283 535h20l185 -475q6 -16 12.5 -22.5 t18.5 -9.5l49 -11l-2 -17h-182l-2 17l73 17l-59 150l-216 -3l-56 -145l70 -19l-2 -17h-172l-2 17l48 13q23 6 32 30zM192 212l194 -1l-97 249z" />
<glyph horiz-adv-x="586" d="M283 535h20l185 -475q6 -16 12.5 -22.5t18.5 -9.5l49 -11l-2 -17h-182l-2 17l73 17l-59 150l-216 -3l-56 -145l70 -19l-2 -17h-172l-2 17l48 13q23 6 32 30zM192 212l194 -1l-97 249zM329 -165q0 -19 -9.5 -33t-27.5 -14q-16 0 -25.5 12t-9.5 31t10.5 33t27.5 14 q16 0 25 -12t9 -31z" />
<glyph horiz-adv-x="586" d="M359 633l-12 -12q-35 27 -53.5 41.5t-47 38.5t-41.5 41.5t-13 29.5q0 23 32 23h4l5 -2q31 -58 126 -160zM283 535h20l185 -475q6 -16 12.5 -22.5t18.5 -9.5l49 -11l-2 -17h-182l-2 17l73 17l-59 150l-216 -3l-56 -145l70 -19l-2 -17h-172l-2 17l48 13q23 6 32 30z M192 212l194 -1l-97 249z" />
<glyph horiz-adv-x="586" d="M169 693v34h254v-34h-254zM283 535h20l185 -475q6 -16 12.5 -22.5t18.5 -9.5l49 -11l-2 -17h-182l-2 17l73 17l-59 150l-216 -3l-56 -145l70 -19l-2 -17h-172l-2 17l48 13q23 6 32 30zM192 212l194 -1l-97 249z" />
<glyph horiz-adv-x="588" d="M570 -181q-34 -31 -82 -31q-35 0 -55 19.5t-20 54.5q0 74 111 138h-140l-2 17l73 17l-59 150l-216 -3l-56 -145l70 -19l-2 -17h-172l-2 17l48 13q23 6 32 30l185 475h20l185 -475q6 -16 12.5 -22.5t18.5 -9.5l49 -11l-2 -17q-111 -64 -111 -127q0 -25 15.5 -38.5 t43.5 -13.5q23 0 52 7zM192 212l194 -1l-97 249z" />
<glyph horiz-adv-x="586" d="M292 636q-32 0 -52.5 19t-20.5 50q0 33 22.5 53.5t57.5 20.5q33 0 54 -19.5t20 -49.5q-1 -32 -24 -53t-57 -21zM296 756q-19 0 -31.5 -14.5t-12.5 -36.5q0 -20 12 -33t31 -13t31.5 14.5t12.5 37.5q0 20 -12 32.5t-31 12.5zM283 535h20l185 -475q6 -16 12.5 -22.5 t18.5 -9.5l49 -11l-2 -17h-182l-2 17l73 17l-59 150l-216 -3l-56 -145l70 -19l-2 -17h-172l-2 17l48 13q23 6 32 30zM192 212l194 -1l-97 249z" />
<glyph horiz-adv-x="586" d="M385 992q0 -12 -13 -29.5t-41.5 -41.5t-47 -38.5t-53.5 -41.5l-12 12q95 102 126 160l5 2h4q32 0 32 -23zM292 636q-32 0 -52.5 19t-20.5 50q0 33 22.5 53.5t57.5 20.5q33 0 54 -19.5t20 -49.5q-1 -32 -24 -53t-57 -21zM296 756q-19 0 -31.5 -14.5t-12.5 -36.5 q0 -20 12 -33t31 -13t31.5 14.5t12.5 37.5q0 20 -12 32.5t-31 12.5zM283 535h20l185 -475q6 -16 12.5 -22.5t18.5 -9.5l49 -11l-2 -17h-182l-2 17l73 17l-59 150l-216 -3l-56 -145l70 -19l-2 -17h-172l-2 17l48 13q23 6 32 30zM192 212l194 -1l-97 249z" />
<glyph horiz-adv-x="586" d="M150 654l-14 5q17 97 73 97q25 0 99.5 -28.5t87.5 -28.5q34 46 46 67l14 -6q-9 -48 -25.5 -72t-46.5 -24q-24 0 -100 28t-87 29q-21 -23 -47 -67zM283 535h20l185 -475q6 -16 12.5 -22.5t18.5 -9.5l49 -11l-2 -17h-182l-2 17l73 17l-59 150l-216 -3l-56 -145l70 -19 l-2 -17h-172l-2 17l48 13q23 6 32 30zM192 212l194 -1l-97 249z" />
<glyph horiz-adv-x="770" d="M20 0l-2 17l48 13q23 6 32 30l171 438l-75 19l2 18h511q5 -35 5 -74t-3 -74h-13l-15 57q-8 32 -16 58q-69 3 -95 3h-115v-226l187 5l-1 -40l-186 4v-218h124q64 0 95 4q11 44 15 57l15 57h13q3 -32 3 -74q0 -48 -5 -74h-373l-2 18l51 12q24 5 24 29v190l-209 -3l-82 -210 l70 -19l-2 -17h-172zM415 505h-109l-89 -228l198 -1v229z" />
<glyph horiz-adv-x="770" d="M556 772q0 -12 -13 -29.5t-41.5 -41.5t-47 -38.5t-53.5 -41.5l-12 12q95 102 126 160l5 2h4q32 0 32 -23zM20 0l-2 17l48 13q23 6 32 30l171 438l-75 19l2 18h511q5 -35 5 -74t-3 -74h-13l-15 57q-8 32 -16 58q-69 3 -95 3h-115v-226l187 5l-1 -40l-186 4v-218h124 q64 0 95 4q11 44 15 57l15 57h13q3 -32 3 -74q0 -48 -5 -74h-373l-2 18l51 12q24 5 24 29v190l-209 -3l-82 -210l70 -19l-2 -17h-172zM415 505h-109l-89 -228l198 -1v229z" />
<glyph horiz-adv-x="499" d="M57 517l2 18h188q79 0 125 -35t46 -97q0 -48 -27 -80.5t-68 -44.5q62 -13 98 -48t36 -85q0 -70 -52.5 -107.5t-142.5 -37.5h-203l-2 18l51 12q24 5 24 29v417q0 24 -24 29zM240 505h-68v-218h76q56 0 93 31t37 82q0 50 -36.5 77.5t-101.5 27.5zM244 258h-72v-228h88 q71 0 113 30.5t42 84.5q0 52 -46.5 82.5t-124.5 30.5z" />
<glyph horiz-adv-x="518" d="M457 11q-55 -21 -131 -21q-128 0 -202 71.5t-74 198.5q0 129 77.5 207t192.5 78q73 0 126 -24q3 -19 3 -48q0 -43 -6 -87h-13q-17 77 -31 118q-43 9 -80 9q-97 0 -162 -70t-65 -183q0 -109 63.5 -173.5t169.5 -64.5q51 0 85 8q19 63 31 116h13q6 -30 6 -68q0 -46 -3 -67z " />
<glyph horiz-adv-x="518" d="M402 772q0 -12 -13 -29.5t-41.5 -41.5t-47 -38.5t-53.5 -41.5l-12 12q95 102 126 160l5 2h4q32 0 32 -23zM457 11q-55 -21 -131 -21q-128 0 -202 71.5t-74 198.5q0 129 77.5 207t192.5 78q73 0 126 -24q3 -19 3 -48q0 -43 -6 -87h-13q-17 77 -31 118q-43 9 -80 9 q-97 0 -162 -70t-65 -183q0 -109 63.5 -173.5t169.5 -64.5q51 0 85 8q19 63 31 116h13q6 -30 6 -68q0 -46 -3 -67z" />
<glyph horiz-adv-x="518" d="M335 632l-6 -4h-41q-52 69 -107 154l14 10q68 -77 116 -120q49 58 115 120l12 -12q-74 -92 -103 -148zM457 11q-55 -21 -131 -21q-128 0 -202 71.5t-74 198.5q0 129 77.5 207t192.5 78q73 0 126 -24q3 -19 3 -48q0 -43 -6 -87h-13q-17 77 -31 118q-43 9 -80 9 q-97 0 -162 -70t-65 -183q0 -109 63.5 -173.5t169.5 -64.5q51 0 85 8q19 63 31 116h13q6 -30 6 -68q0 -46 -3 -67z" />
<glyph horiz-adv-x="518" d="M278 -91l-3 5l14 78q-112 10 -175.5 80t-63.5 188q0 129 77.5 207t192.5 78q73 0 126 -24q3 -19 3 -48q0 -43 -6 -87h-13q-17 77 -31 118q-43 9 -80 9q-97 0 -162 -70t-65 -183q0 -109 63.5 -173.5t169.5 -64.5q51 0 85 8q19 63 31 116h13q6 -30 6 -68q0 -46 -3 -67 q-55 -21 -131 -21h-7l-10 -54q73 -21 73 -69q0 -33 -36 -53t-86 -26l-4 15q83 21 83 59q0 32 -61 47z" />
<glyph horiz-adv-x="518" d="M433 636l-14 -10q-68 77 -116 120q-49 -58 -115 -120l-12 12q74 92 103 148l6 4h41q52 -69 107 -154zM457 11q-55 -21 -131 -21q-128 0 -202 71.5t-74 198.5q0 129 77.5 207t192.5 78q73 0 126 -24q3 -19 3 -48q0 -43 -6 -87h-13q-17 77 -31 118q-43 9 -80 9 q-97 0 -162 -70t-65 -183q0 -109 63.5 -173.5t169.5 -64.5q51 0 85 8q19 63 31 116h13q6 -30 6 -68q0 -46 -3 -67z" />
<glyph horiz-adv-x="518" d="M346 705q0 -19 -9.5 -33t-27.5 -14q-16 0 -25.5 12t-9.5 31t10.5 33t27.5 14q16 0 25 -12t9 -31zM457 11q-55 -21 -131 -21q-128 0 -202 71.5t-74 198.5q0 129 77.5 207t192.5 78q73 0 126 -24q3 -19 3 -48q0 -43 -6 -87h-13q-17 77 -31 118q-43 9 -80 9q-97 0 -162 -70 t-65 -183q0 -109 63.5 -173.5t169.5 -64.5q51 0 85 8q19 63 31 116h13q6 -30 6 -68q0 -46 -3 -67z" />
<glyph horiz-adv-x="572" d="M522 267q0 -125 -74 -196t-207 -71h-182l-2 18l51 12q24 5 24 29v417q0 24 -24 29l-51 12l2 18h182q133 0 207 -71t74 -197zM238 505h-66v-475h66q117 0 179.5 62t62.5 175t-62.5 175.5t-179.5 62.5z" />
<glyph horiz-adv-x="572" d="M522 267q0 -125 -74 -196t-207 -71h-182l-2 18l51 12q24 5 24 29v191h-112v30h112v196q0 24 -24 29l-51 12l2 18h182q133 0 207 -71t74 -197zM329 250h-157v-220h66q117 0 179.5 62t62.5 175t-62.5 175.5t-179.5 62.5h-66v-225h157v-30z" />
<glyph horiz-adv-x="572" d="M316 632l-6 -4h-41q-52 69 -107 154l14 10q68 -77 116 -120q49 58 115 120l12 -12q-74 -92 -103 -148zM522 267q0 -125 -74 -196t-207 -71h-182l-2 18l51 12q24 5 24 29v417q0 24 -24 29l-51 12l2 18h182q133 0 207 -71t74 -197zM238 505h-66v-475h66q117 0 179.5 62 t62.5 175t-62.5 175.5t-179.5 62.5z" />
<glyph horiz-adv-x="572" d="M522 267q0 -125 -74 -196t-207 -71h-182l-2 18l51 12q24 5 24 29v191h-112v30h112v196q0 24 -24 29l-51 12l2 18h182q133 0 207 -71t74 -197zM329 250h-157v-220h66q117 0 179.5 62t62.5 175t-62.5 175.5t-179.5 62.5h-66v-225h157v-30z" />
<glyph horiz-adv-x="572" d="M522 267q0 -125 -74 -196t-207 -71h-182l-2 18l51 12q24 5 24 29v417q0 24 -24 29l-51 12l2 18h182q133 0 207 -71t74 -197zM238 505h-66v-475h66q117 0 179.5 62t62.5 175t-62.5 175.5t-179.5 62.5zM315 -165q0 -19 -9.5 -33t-27.5 -14q-16 0 -25.5 12t-9.5 31t10.5 33 t27.5 14q16 0 25 -12t9 -31z" />
<glyph horiz-adv-x="487" d="M172 279l187 5l-1 -40l-186 4v-218h124q64 0 95 4q11 44 15 57l15 57h13q3 -32 3 -74q0 -48 -5 -74h-373l-2 18l51 12q24 5 24 29v417q0 24 -24 29l-51 12l2 18h365q5 -35 5 -74t-3 -74h-13l-15 57q-8 32 -16 58q-69 3 -95 3h-115v-226z" />
<glyph horiz-adv-x="487" d="M367 772q0 -12 -13 -29.5t-41.5 -41.5t-47 -38.5t-53.5 -41.5l-12 12q95 102 126 160l5 2h4q32 0 32 -23zM172 279l187 5l-1 -40l-186 4v-218h124q64 0 95 4q11 44 15 57l15 57h13q3 -32 3 -74q0 -48 -5 -74h-373l-2 18l51 12q24 5 24 29v417q0 24 -24 29l-51 12l2 18 h365q5 -35 5 -74t-3 -74h-13l-15 57q-8 32 -16 58q-69 3 -95 3h-115v-226z" />
<glyph horiz-adv-x="487" d="M366 768l4 2l14 -3q-11 -58 -43.5 -90t-78.5 -32q-45 0 -76.5 32.5t-39.5 89.5l17 3q11 -38 38.5 -60t65.5 -22q34 0 60.5 21t38.5 59zM172 279l187 5l-1 -40l-186 4v-218h124q64 0 95 4q11 44 15 57l15 57h13q3 -32 3 -74q0 -48 -5 -74h-373l-2 18l51 12q24 5 24 29v417 q0 24 -24 29l-51 12l2 18h365q5 -35 5 -74t-3 -74h-13l-15 57q-8 32 -16 58q-69 3 -95 3h-115v-226z" />
<glyph horiz-adv-x="487" d="M290 632l-6 -4h-41q-52 69 -107 154l14 10q68 -77 116 -120q49 58 115 120l12 -12q-74 -92 -103 -148zM172 279l187 5l-1 -40l-186 4v-218h124q64 0 95 4q11 44 15 57l15 57h13q3 -32 3 -74q0 -48 -5 -74h-373l-2 18l51 12q24 5 24 29v417q0 24 -24 29l-51 12l2 18h365 q5 -35 5 -74t-3 -74h-13l-15 57q-8 32 -16 58q-69 3 -95 3h-115v-226z" />
<glyph horiz-adv-x="487" d="M393 636l-14 -10q-68 77 -116 120q-49 -58 -115 -120l-12 12q74 92 103 148l6 4h41q52 -69 107 -154zM172 279l187 5l-1 -40l-186 4v-218h124q64 0 95 4q11 44 15 57l15 57h13q3 -32 3 -74q0 -48 -5 -74h-373l-2 18l51 12q24 5 24 29v417q0 24 -24 29l-51 12l2 18h365 q5 -35 5 -74t-3 -74h-13l-15 57q-8 32 -16 58q-69 3 -95 3h-115v-226z" />
<glyph horiz-adv-x="487" d="M394 710q0 -20 -9 -34.5t-27 -14.5q-15 0 -24.5 12t-9.5 30q0 19 10.5 33.5t26.5 14.5q15 0 24 -11.5t9 -29.5zM204 710q0 -20 -9 -34.5t-27 -14.5q-15 0 -24.5 12t-9.5 30q0 19 10.5 33.5t26.5 14.5q15 0 24 -11.5t9 -29.5zM172 279l187 5l-1 -40l-186 4v-218h124 q64 0 95 4q11 44 15 57l15 57h13q3 -32 3 -74q0 -48 -5 -74h-373l-2 18l51 12q24 5 24 29v417q0 24 -24 29l-51 12l2 18h365q5 -35 5 -74t-3 -74h-13l-15 57q-8 32 -16 58q-69 3 -95 3h-115v-226z" />
<glyph horiz-adv-x="487" d="M301 705q0 -19 -9.5 -33t-27.5 -14q-16 0 -25.5 12t-9.5 31t10.5 33t27.5 14q16 0 25 -12t9 -31zM172 279l187 5l-1 -40l-186 4v-218h124q64 0 95 4q11 44 15 57l15 57h13q3 -32 3 -74q0 -48 -5 -74h-373l-2 18l51 12q24 5 24 29v417q0 24 -24 29l-51 12l2 18h365 q5 -35 5 -74t-3 -74h-13l-15 57q-8 32 -16 58q-69 3 -95 3h-115v-226z" />
<glyph horiz-adv-x="487" d="M172 279l187 5l-1 -40l-186 4v-218h124q64 0 95 4q11 44 15 57l15 57h13q3 -32 3 -74q0 -48 -5 -74h-373l-2 18l51 12q24 5 24 29v417q0 24 -24 29l-51 12l2 18h365q5 -35 5 -74t-3 -74h-13l-15 57q-8 32 -16 58q-69 3 -95 3h-115v-226zM316 -165q0 -19 -9.5 -33 t-27.5 -14q-16 0 -25.5 12t-9.5 31t10.5 33t27.5 14q16 0 25 -12t9 -31z" />
<glyph horiz-adv-x="487" d="M328 633l-12 -12q-35 27 -53.5 41.5t-47 38.5t-41.5 41.5t-13 29.5q0 23 32 23h4l5 -2q31 -58 126 -160zM172 279l187 5l-1 -40l-186 4v-218h124q64 0 95 4q11 44 15 57l15 57h13q3 -32 3 -74q0 -48 -5 -74h-373l-2 18l51 12q24 5 24 29v417q0 24 -24 29l-51 12l2 18h365 q5 -35 5 -74t-3 -74h-13l-15 57q-8 32 -16 58q-69 3 -95 3h-115v-226z" />
<glyph horiz-adv-x="487" d="M138 693v34h254v-34h-254zM172 279l187 5l-1 -40l-186 4v-218h124q64 0 95 4q11 44 15 57l15 57h13q3 -32 3 -74q0 -48 -5 -74h-373l-2 18l51 12q24 5 24 29v417q0 24 -24 29l-51 12l2 18h365q5 -35 5 -74t-3 -74h-13l-15 57q-8 32 -16 58q-69 3 -95 3h-115v-226z" />
<glyph horiz-adv-x="487" d="M172 279l187 5l-1 -40l-186 4v-218h124q64 0 95 4q11 44 15 57l15 57h13q3 -32 3 -74q0 -48 -5 -74q-111 -64 -111 -127q0 -25 15.5 -38.5t43.5 -13.5q23 0 52 7l4 -9q-34 -31 -82 -31q-35 0 -55 19.5t-20 54.5q0 74 111 138h-331l-2 18l51 12q24 5 24 29v417 q0 24 -24 29l-51 12l2 18h365q5 -35 5 -74t-3 -74h-13l-15 57q-8 32 -16 58q-69 3 -95 3h-115v-226z" />
<glyph horiz-adv-x="487" d="M119 654l-14 5q17 97 73 97q25 0 99.5 -28.5t87.5 -28.5q34 46 46 67l14 -6q-9 -48 -25.5 -72t-46.5 -24q-24 0 -100 28t-87 29q-21 -23 -47 -67zM172 279l187 5l-1 -40l-186 4v-218h124q64 0 95 4q11 44 15 57l15 57h13q3 -32 3 -74q0 -48 -5 -74h-373l-2 18l51 12 q24 5 24 29v417q0 24 -24 29l-51 12l2 18h365q5 -35 5 -74t-3 -74h-13l-15 57q-8 32 -16 58q-69 3 -95 3h-115v-226z" />
<glyph horiz-adv-x="508" d="M245 -10q-86 0 -138 54t-52 147q0 18 2 58l9 10h358v2q-1 121 -47 186t-131 65q-58 0 -100 -33t-42 -79q0 -17 7 -32q-9 -6 -20 -6q-12 0 -20.5 10t-8.5 25q0 60 56 104t132 44q98 0 157 -73.5t59 -191.5q0 -128 -62 -209t-159 -81zM97 189q0 -80 39.5 -123t112.5 -43 t120 57.5t54 150.5l-325 -5q-1 -16 -1 -37z" />
<glyph horiz-adv-x="455" d="M172 37l90 -19l-2 -18h-201l-2 18l51 12q24 5 24 29v417q0 24 -24 29l-51 12l2 18h364q6 -31 6 -74q0 -39 -3 -74h-13l-15 57l-7 28t-8 30q-69 3 -96 3h-115v-236l187 5l-1 -40l-186 4v-201z" />
<glyph horiz-adv-x="581" d="M327 -10q-133 0 -205 72.5t-72 202.5q0 125 79 202.5t198 77.5q77 0 138 -24q2 -26 2 -48q0 -51 -5 -86l-13 -1l-31 116q-49 11 -95 11q-98 0 -164.5 -69.5t-66.5 -176.5q0 -114 63 -179.5t171 -65.5q55 0 100 12v176l-75 19l2 18h186l2 -18l-51 -12q-24 -5 -24 -29v-174 q-53 -24 -139 -24z" />
<glyph horiz-adv-x="581" d="M409 772q0 -12 -13 -29.5t-41.5 -41.5t-47 -38.5t-53.5 -41.5l-12 12q95 102 126 160l5 2h4q32 0 32 -23zM327 -10q-133 0 -205 72.5t-72 202.5q0 125 79 202.5t198 77.5q77 0 138 -24q2 -26 2 -48q0 -51 -5 -86l-13 -1l-31 116q-49 11 -95 11q-98 0 -164.5 -69.5 t-66.5 -176.5q0 -114 63 -179.5t171 -65.5q55 0 100 12v176l-75 19l2 18h186l2 -18l-51 -12q-24 -5 -24 -29v-174q-53 -24 -139 -24z" />
<glyph horiz-adv-x="581" d="M408 768l4 2l14 -3q-11 -58 -43.5 -90t-78.5 -32q-45 0 -76.5 32.5t-39.5 89.5l17 3q11 -38 38.5 -60t65.5 -22q34 0 60.5 21t38.5 59zM327 -10q-133 0 -205 72.5t-72 202.5q0 125 79 202.5t198 77.5q77 0 138 -24q2 -26 2 -48q0 -51 -5 -86l-13 -1l-31 116 q-49 11 -95 11q-98 0 -164.5 -69.5t-66.5 -176.5q0 -114 63 -179.5t171 -65.5q55 0 100 12v176l-75 19l2 18h186l2 -18l-51 -12q-24 -5 -24 -29v-174q-53 -24 -139 -24z" />
<glyph horiz-adv-x="581" d="M332 632l-6 -4h-41q-52 69 -107 154l14 10q68 -77 116 -120q49 58 115 120l12 -12q-74 -92 -103 -148zM327 -10q-133 0 -205 72.5t-72 202.5q0 125 79 202.5t198 77.5q77 0 138 -24q2 -26 2 -48q0 -51 -5 -86l-13 -1l-31 116q-49 11 -95 11q-98 0 -164.5 -69.5 t-66.5 -176.5q0 -114 63 -179.5t171 -65.5q55 0 100 12v176l-75 19l2 18h186l2 -18l-51 -12q-24 -5 -24 -29v-174q-53 -24 -139 -24z" />
<glyph horiz-adv-x="581" d="M435 636l-14 -10q-68 77 -116 120q-49 -58 -115 -120l-12 12q74 92 103 148l6 4h41q52 -69 107 -154zM327 -10q-133 0 -205 72.5t-72 202.5q0 125 79 202.5t198 77.5q77 0 138 -24q2 -26 2 -48q0 -51 -5 -86l-13 -1l-31 116q-49 11 -95 11q-98 0 -164.5 -69.5 t-66.5 -176.5q0 -114 63 -179.5t171 -65.5q55 0 100 12v176l-75 19l2 18h186l2 -18l-51 -12q-24 -5 -24 -29v-174q-53 -24 -139 -24z" />
<glyph horiz-adv-x="581" d="M327 -10q-133 0 -205 72.5t-72 202.5q0 125 79 202.5t198 77.5q77 0 138 -24q2 -26 2 -48q0 -51 -5 -86l-13 -1l-31 116q-49 11 -95 11q-98 0 -164.5 -69.5t-66.5 -176.5q0 -114 63 -179.5t171 -65.5q55 0 100 12v176l-75 19l2 18h186l2 -18l-51 -12q-24 -5 -24 -29v-174 q-53 -24 -139 -24zM348 -165q0 -38 -22 -84.5t-51 -71.5l-11 9q24 38 37 106q-34 5 -34 39q0 18 12.5 31.5t29.5 13.5q18 0 28.5 -11.5t10.5 -31.5z" />
<glyph horiz-adv-x="581" d="M348 705q0 -19 -9.5 -33t-27.5 -14q-16 0 -25.5 12t-9.5 31t10.5 33t27.5 14q16 0 25 -12t9 -31zM327 -10q-133 0 -205 72.5t-72 202.5q0 125 79 202.5t198 77.5q77 0 138 -24q2 -26 2 -48q0 -51 -5 -86l-13 -1l-31 116q-49 11 -95 11q-98 0 -164.5 -69.5t-66.5 -176.5 q0 -114 63 -179.5t171 -65.5q55 0 100 12v176l-75 19l2 18h186l2 -18l-51 -12q-24 -5 -24 -29v-174q-53 -24 -139 -24z" />
<glyph horiz-adv-x="651" d="M172 37l75 -19l-2 -18h-186l-2 18l51 12q24 5 24 29v439l-75 19l2 18h186l2 -18l-51 -12q-24 -5 -24 -29v-191h307v213l-75 19l2 18h186l2 -18l-51 -12q-24 -5 -24 -29v-439l75 -19l-2 -18h-186l-2 18l51 12q24 5 24 29v195h-307v-217z" />
<glyph horiz-adv-x="651" d="M172 37l75 -19l-2 -18h-186l-2 18l51 12q24 5 24 29v319h-71v30h71v90l-75 19l2 18h186l2 -18l-51 -12q-24 -5 -24 -29v-68h307v90l-75 19l2 18h186l2 -18l-51 -12q-24 -5 -24 -29v-68h70v-30h-70v-341l75 -19l-2 -18h-186l-2 18l51 12q24 5 24 29v195h-307v-217z M172 285h307v93h-307v-93z" />
<glyph horiz-adv-x="651" d="M454 636l-14 -10q-68 77 -116 120q-49 -58 -115 -120l-12 12q74 92 103 148l6 4h41q52 -69 107 -154zM172 37l75 -19l-2 -18h-186l-2 18l51 12q24 5 24 29v439l-75 19l2 18h186l2 -18l-51 -12q-24 -5 -24 -29v-191h307v213l-75 19l2 18h186l2 -18l-51 -12q-24 -5 -24 -29 v-439l75 -19l-2 -18h-186l-2 18l51 12q24 5 24 29v195h-307v-217z" />
<glyph horiz-adv-x="651" d="M172 37l75 -19l-2 -18h-186l-2 18l51 12q24 5 24 29v439l-75 19l2 18h186l2 -18l-51 -12q-24 -5 -24 -29v-191h307v213l-75 19l2 18h186l2 -18l-51 -12q-24 -5 -24 -29v-439l75 -19l-2 -18h-186l-2 18l51 12q24 5 24 29v195h-307v-217zM362 -165q0 -19 -9.5 -33 t-27.5 -14q-16 0 -25.5 12t-9.5 31t10.5 33t27.5 14q16 0 25 -12t9 -31z" />
<glyph horiz-adv-x="304" d="M172 37l75 -19l-2 -18h-186l-2 18l51 12q24 5 24 29v439l-75 19l2 18h186l2 -18l-51 -12q-24 -5 -24 -29v-439z" />
<glyph horiz-adv-x="304" d="M172 37l75 -19l-2 -18h-186l-2 18l51 12q24 5 24 29v439l-75 19l2 18h186l2 -18l-51 -12q-24 -5 -24 -29v-439z" />
<glyph horiz-adv-x="304" d="M244 772q0 -12 -13 -29.5t-41.5 -41.5t-47 -38.5t-53.5 -41.5l-12 12q95 102 126 160l5 2h4q32 0 32 -23zM172 37l75 -19l-2 -18h-186l-2 18l51 12q24 5 24 29v439l-75 19l2 18h186l2 -18l-51 -12q-24 -5 -24 -29v-439z" />
<glyph horiz-adv-x="304" d="M256 761q-5 -55 -34 -88.5t-72 -33.5q-42 0 -69 33t-31 89l17 3q7 -37 31 -59.5t57 -22.5q32 0 55 22t28 58l4 2zM172 37l75 -19l-2 -18h-186l-2 18l51 12q24 5 24 29v439l-75 19l2 18h186l2 -18l-51 -12q-24 -5 -24 -29v-439z" />
<glyph horiz-adv-x="304" d="M185 620l-6 -4h-43q-36 68 -76 154l14 10q45 -67 86 -119q44 70 85 119l12 -12q-48 -85 -72 -148zM172 37l75 -19l-2 -18h-186l-2 18l51 12q24 5 24 29v439l-75 19l2 18h186l2 -18l-51 -12q-24 -5 -24 -29v-439z" />
<glyph horiz-adv-x="304" d="M250 631l-14 -10q-45 67 -86 119q-44 -70 -85 -119l-12 12q48 85 72 148l6 4h43q36 -68 76 -154zM172 37l75 -19l-2 -18h-186l-2 18l51 12q24 5 24 29v439l-75 19l2 18h186l2 -18l-51 -12q-24 -5 -24 -29v-439z" />
<glyph horiz-adv-x="304" d="M257 707q0 -20 -9 -34.5t-27 -14.5q-15 0 -24.5 12t-9.5 30q0 19 10.5 33.5t26.5 14.5q15 0 24 -11.5t9 -29.5zM117 707q0 -20 -9 -34.5t-27 -14.5q-15 0 -24.5 12t-9.5 30q0 19 10.5 33.5t26.5 14.5q15 0 24 -11.5t9 -29.5zM172 37l75 -19l-2 -18h-186l-2 18l51 12 q24 5 24 29v439l-75 19l2 18h186l2 -18l-51 -12q-24 -5 -24 -29v-439z" />
<glyph horiz-adv-x="304" d="M188 705q0 -19 -9.5 -33t-27.5 -14q-16 0 -25.5 12t-9.5 31t10.5 33t27.5 14q16 0 25 -12t9 -31zM172 37l75 -19l-2 -18h-186l-2 18l51 12q24 5 24 29v439l-75 19l2 18h186l2 -18l-51 -12q-24 -5 -24 -29v-439z" />
<glyph horiz-adv-x="304" d="M172 37l75 -19l-2 -18h-186l-2 18l51 12q24 5 24 29v439l-75 19l2 18h186l2 -18l-51 -12q-24 -5 -24 -29v-439zM188 -165q0 -19 -9.5 -33t-27.5 -14q-16 0 -25.5 12t-9.5 31t10.5 33t27.5 14q16 0 25 -12t9 -31z" />
<glyph horiz-adv-x="304" d="M225 633l-12 -12q-35 27 -53.5 41.5t-47 38.5t-41.5 41.5t-13 29.5q0 23 32 23h4l5 -2q31 -58 126 -160zM172 37l75 -19l-2 -18h-186l-2 18l51 12q24 5 24 29v439l-75 19l2 18h186l2 -18l-51 -12q-24 -5 -24 -29v-439z" />
</font>
</defs>
</svg>
