<?xml version="1.0" standalone="no"?>
<!DOCTYPE svg PUBLIC "-//W3C//DTD SVG 1.1//EN" "http://www.w3.org/Graphics/SVG/1.1/DTD/svg11.dtd" >
<svg xmlns="http://www.w3.org/2000/svg" xmlns:xlink="http://www.w3.org/1999/xlink" version="1.1">
<metadata></metadata>
<defs>
<font id="indivisa_display_serifHvIt" horiz-adv-x="638" >
<font-face units-per-em="1000" ascent="800" descent="-200" />
<missing-glyph horiz-adv-x="200" />
<glyph unicode="&#xfb00;" horiz-adv-x="701" d="M278 74q-28 -131 -110 -200t-187 -69q-58 0 -95 23t-37 57q0 58 87 70q15 -77 43 -77q25 0 44.5 40.5t38.5 130.5l84 396h-66l1 9l74 30v1q16 75 104 142.5t193 67.5q55 0 90.5 -20t48.5 -48q87 68 188 68q57 0 90 -21t33 -62q0 -28 -23.5 -46.5t-54.5 -25.5 q-53 79 -87 79q-35 0 -35 -66q0 -68 -1 -73h94l-8 -35h-93l-79 -371q-26 -131 -100 -200t-163 -69q-55 0 -89 23t-34 57q0 58 87 70q2 -77 23 -77q31 0 60 171l84 396h-126zM364 480h127l1 5q4 22 19 50q-25 40 -48 62t-51 22q-46 0 -46 -73q0 -55 -2 -66z" />
<glyph unicode="&#xfb03;" horiz-adv-x="973" d="M278 74q-28 -131 -110 -200t-187 -69q-58 0 -95 23t-37 57q0 58 87 70q15 -77 43 -77q25 0 44.5 40.5t38.5 130.5l84 396h-66l1 9l74 30v1q16 75 104 142.5t193 67.5q56 0 91.5 -20t48.5 -50q94 70 215 70q76 0 125.5 -25.5t49.5 -70.5q0 -74 -158 -69q-8 36 -30 62.5 t-51 26.5q-40 0 -40 -66q0 -65 -2 -73h145q79 0 110.5 -27.5t31.5 -83.5q0 -27 -41 -189q-13 -52 -13 -65q0 -14 10 -14q12 0 69 75q3 4 5 6l9 -5q-27 -80 -79 -133.5t-121 -53.5q-49 0 -74.5 29.5t-25.5 83.5q0 30 10 77q51 212 51 222q0 43 -42 43h-52l-79 -371 q-26 -131 -100 -200t-163 -69q-55 0 -89 23t-34 57q0 58 87 70q2 -77 23 -77q31 0 60 171l84 396h-126zM364 480h127l1 5q4 22 19 50q-25 40 -48 62t-51 22q-46 0 -46 -73q0 -55 -2 -66z" />
<glyph unicode="&#xfb04;" horiz-adv-x="972" d="M615 74q-27 -131 -109 -200t-188 -69q-58 0 -95 23t-37 57v6q-83 -86 -205 -86q-58 0 -95 23t-37 57q0 58 87 70q15 -77 43 -77q25 0 44.5 40.5t38.5 130.5l84 396h-66l1 9l74 30v1q16 75 104 142.5t193 67.5q55 0 90.5 -20t48.5 -48q87 68 188 68q67 0 102 -24 q87 16 165 23l8 -10l-107 -504q-13 -52 -13 -65q0 -14 10 -14q12 0 69 75q3 4 5 6l9 -5q-27 -80 -79 -133.5t-121 -53.5q-49 0 -74.5 29.5t-25.5 83.5q0 30 10 77l81 382q-36 57 -81 57q-35 0 -35 -66q0 -70 -1 -73h72l-8 -35h-71zM364 480h127l1 5q4 22 19 50 q-25 40 -48 62t-51 22q-46 0 -46 -73q0 -55 -2 -66zM278 74q-16 -76 -52 -132q18 8 47 13q15 -77 43 -77q25 0 44.5 40.5t38.5 130.5l84 396h-126z" />
<glyph unicode="fi" horiz-adv-x="636" d="M278 74q-27 -131 -109 -200t-188 -69q-58 0 -95 23t-37 57q0 58 87 70q15 -77 43 -77q25 0 44.5 40.5t38.5 130.5l84 396h-66l1 9l74 30v1q17 77 105.5 143.5t209.5 66.5q76 0 125.5 -25.5t49.5 -70.5q0 -74 -158 -69q-8 36 -30 62.5t-51 26.5q-40 0 -40 -66 q0 -65 -2 -73h145q79 0 110.5 -27.5t31.5 -83.5q0 -27 -41 -189q-13 -52 -13 -65q0 -14 10 -14q12 0 69 75q3 4 5 6l9 -5q-27 -80 -79 -133.5t-121 -53.5q-49 0 -74.5 29.5t-25.5 83.5q0 30 10 77q51 212 51 222q0 43 -42 43h-52z" />
<glyph unicode="fl" horiz-adv-x="636" d="M278 74q-27 -131 -109 -200t-188 -69q-58 0 -95 23t-37 57q0 58 87 70q15 -77 43 -77q25 0 44.5 40.5t38.5 130.5l84 396h-66l1 9l74 30v1q15 75 100 142.5t187 67.5q68 0 102 -24q87 16 165 23l8 -10l-107 -504q-13 -52 -13 -65q0 -14 10 -14q12 0 69 75q3 4 5 6l9 -5 q-27 -80 -79 -133.5t-121 -53.5q-49 0 -74.5 29.5t-25.5 83.5q0 30 10 77l81 382q-36 57 -81 57q-35 0 -35 -66q0 -70 -1 -73h72l-8 -35h-71z" />
<glyph unicode="&#x2f;symbol&#x33;&#x2f;" horiz-adv-x="957" d="M505 638l68 -270h270l-203 -135l136 -270l-271 135l-270 -270l135 405l-270 203l338 -68zM814 87q18 0 30.5 -12.5t12.5 -31.5q0 -18 -12.5 -30.5t-30.5 -12.5t-30.5 12.5t-12.5 30.5q0 19 12.5 31.5t30.5 12.5zM854 43q0 17 -11.5 29t-28.5 12t-28.5 -12t-11.5 -29 t12 -28.5t28 -11.5t28 11.5t12 28.5zM796 68h18q8 0 11 -2q6 -3 6 -10q0 -5 -4 -9q-3 -3 -6 -3q7 -3 8 -10q2 -14 3 -16h-7q-1 2 -2 7.5t-1 6.5q0 9 -10 9h-9v-23h-7v50zM803 47h10q5 0 7 1q3 3 3 6q0 9 -10 9h-10v-16z" />
<glyph unicode="&#x2f;symbol&#x32;&#x2f;" horiz-adv-x="932" d="M494 570l52 -90l-137 -240h-103l137 240l-52 90h103zM357 570l52 -90l-138 -240h-103l138 240l-52 90h103zM752 120h-103l-137 240l51 90l137 -240h103zM683 0h-103l-137 240l51 90l138 -240h103zM100 120l51 90h275l51 -90h-274l-52 -90zM168 0l52 90h274l52 -90h-275 l-51 -90zM789 88q18 0 30.5 -13t12.5 -31t-12.5 -31t-30.5 -13t-30.5 13t-12.5 31t12.5 31t30.5 13zM829 44q0 16 -11.5 28t-28.5 12t-28.5 -12t-11.5 -28t11.5 -28t28.5 -12t28.5 12t11.5 28zM771 69h18q7 0 11 -2q5 -4 5 -11q0 -5 -3 -8q-1 -2 -6 -4q7 -1 8 -9q0 -8 3 -16 h-8q-1 2 -1.5 6.5t-0.5 6.5q-1 10 -11 10h-8v-23h-7v50zM778 47h10q5 0 7 1q3 3 3 7q0 8 -10 8h-10v-16z" />
<glyph unicode="&#x2f;symbol&#x31;&#x2f;" horiz-adv-x="5534" d="M1865 412q-25 0 -40.5 14.5t-15.5 37.5q0 35 32.5 64t70.5 29q24 0 39 -13.5t15 -37.5q0 -36 -31 -65t-70 -29zM1284 412q-26 0 -41.5 14.5t-15.5 37.5q0 35 33 64t71 29q24 0 38.5 -13.5t14.5 -37.5q0 -36 -31 -65t-69 -29zM959 0q0 42 11 108q-16 -50 -51.5 -82.5 t-78.5 -32.5q-41 0 -63 29.5t-22 82.5q0 62 27 121t84 101t132 42q17 0 25 -1l16 73l6 102l136 7q0 -67 -46 -273t-46 -277h-130zM100 0l78 364q17 86 21 136l128 7l11 -15l-104 -492h-134zM3503 492l-57 -492h-131l20 175q5 50 33 215h-3q-31 -102 -81 -215l-76 -175h-149 l-2 175q-2 121 9 215h-2q-32 -130 -59 -215l-53 -175h-109l154 500l184 6l1 -137q2 -134 -15 -259h2q39 126 94 259l56 131l169 7zM5316 300q-37 -177 -37 -183q0 -34 36 -34q25 0 59 18l-9 -79q-52 -29 -114 -29q-105 0 -105 100q0 20 40 210l-47 1l9 44l54 14l53 95l81 6 l13 -15l-20 -86h99l6 -14l-17 -51zM3936 0q0 74 42 260l5 102l137 7q0 -31 -7 -89h2q53 89 134 89q34 0 53 -19.5t19 -51.5q0 -27 -26 -147q-18 -85 -18 -151h-131q0 55 19 150q15 71 15 87q0 24 -17 24q-34 0 -64 -82.5t-32 -178.5h-131zM3768 369q87 0 145 -32l-28 -128 q-31 -145 -31 -209h-130q0 45 12 112q-15 -52 -51 -85.5t-81 -33.5q-41 0 -63 29.5t-22 83.5q0 46 16 91.5t46 84t79 63t108 24.5zM4653 51q-67 -58 -159 -58q-65 0 -103.5 35t-38.5 102q0 94 68.5 166.5t167.5 72.5q54 0 86.5 -23.5t32.5 -64.5q0 -57 -60 -96.5t-161 -43.5 v-1q0 -64 63 -64q42 0 90 28zM2525 369q88 0 146 -32l-29 -128q-31 -145 -31 -209h-130q0 37 12 112q-15 -52 -51 -85.5t-81 -33.5q-41 0 -62.5 29.5t-21.5 83.5q0 62 26.5 120.5t85 100.5t136.5 42zM2245 256q-52 30 -97 30q-18 0 -30 -7t-12 -19q0 -14 20 -26.5t44 -22 t44 -33t20 -56.5q0 -57 -53 -93t-128 -36q-78 0 -118 28l27 93q57 -38 111 -38q19 0 29.5 7.5t10.5 18.5q0 13 -20 26t-44 23t-44 33t-20 55q0 56 54.5 93t128.5 37q58 0 104 -18zM4716 0q0 79 41 260l6 102l137 7q0 -12 -7 -89h2q52 89 134 89q34 0 53 -19.5t19 -51.5 q0 -27 -26 -147q-19 -90 -19 -151h-130q0 55 19 150q15 78 15 87q0 24 -17 24q-35 0 -65 -82t-32 -179h-130zM1752 0q0 69 26 193l15 67l6 102l137 7q0 -46 -27 -177t-27 -192h-130zM1399 362l140 7q13 -129 -5 -289h2q76 151 91 284q22 5 50 5q32 0 48.5 -8.5t16.5 -33.5 q0 -46 -51 -147.5t-116 -179.5h-149q-5 228 -27 362zM1170 0q0 72 27 193l14 67l6 102l137 7q0 -46 -27 -177t-27 -192h-130zM336 0q0 79 41 260l6 102l137 7q0 -31 -7 -89h2q52 89 134 89q34 0 53 -19.5t19 -51.5q0 -27 -26 -147q-18 -85 -18 -151h-131q0 55 19 150 q15 78 15 87q0 24 -17 24q-34 0 -64 -82.5t-32 -178.5h-131zM4490 177q47 10 73 34t26 59q0 31 -22 31q-28 0 -48.5 -38.5t-28.5 -85.5zM2435 101q23 0 47 43.5t37 100.5q3 14 9 44q-14 8 -27 8q-34 0 -62 -54.5t-28 -101.5q0 -40 24 -40zM913 101q22 0 44.5 39.5t37.5 94.5 q1 9 8 40l3 14q-14 8 -27 8q-33 0 -61.5 -54.5t-28.5 -101.5q0 -40 24 -40zM3677 101q23 0 47 43t38 101q1 8 4.5 24.5t4.5 19.5q-16 8 -27 8q-34 0 -62.5 -54.5t-28.5 -101.5q0 -40 24 -40z" />
<glyph unicode="&#x2f;symbol&#x35;&#x2f;" horiz-adv-x="705" d="M232 -6l-132 136l124 234l129 -136zM474 -6l-121 234l128 136l124 -234z" />
<glyph unicode="&#x2f;symbol&#x34;&#x2f;" horiz-adv-x="2607" d="M1684 406q0 65 -11 128l126 14l15 -15v-533h-130v406zM1889 406q0 62 -10 128l126 14l14 -15v-533h-130v406zM427 101v-101h-320v362q0 80 -7 135l126 7l14 -14v-396zM925 21l7 109q62 -36 144 -36q50 0 50 36q0 20 -31.5 41.5t-69 40.5t-69 57t-31.5 88q0 69 55 108 t138 39q80 0 127 -18l-14 -111q-56 29 -111 29q-27 0 -42.5 -11t-15.5 -29q0 -20 20.5 -38t50 -34t59.5 -35t50.5 -51t20.5 -72q0 -66 -53.5 -103.5t-139.5 -37.5q-41 0 -83.5 8t-61.5 20zM2405 213q0 -24 -1 -36l-11 -11h-191q14 -83 98 -83q44 0 84 21l7 -81 q-46 -30 -127 -30q-90 0 -144 47.5t-54 134.5q0 85 52 139t132 54q72 0 113.5 -43t41.5 -112zM795 0l-106 -7q-11 16 -21 49h-4q-34 -49 -104 -49q-43 0 -70 23t-27 66q0 113 191 118v20q0 54 -58 54q-55 0 -108 -29l-8 97q72 26 150 26q154 0 154 -135q0 -25 -2 -69t-2 -70 q0 -51 15 -94zM1626 0l-107 -7q-12 20 -21 49h-3q-34 -49 -105 -49q-43 0 -69.5 23t-26.5 66q0 113 191 118v20q0 54 -58 54q-54 0 -109 -29l-7 97q72 26 150 26q153 0 153 -135q0 -25 -1.5 -69.5t-1.5 -69.5q0 -51 15 -94zM2199 207l78 4q2 14 2 26q0 59 -34 59 q-44 0 -46 -89zM654 74v88q-29 -3 -47 -18t-18 -39q0 -18 10 -29t27 -11q16 0 28 9zM1485 74v88q-29 -3 -47 -18t-18 -39q0 -18 10 -29t27 -11q16 0 28 9zM2464 85q18 0 30.5 -13t12.5 -31t-12.5 -31t-30.5 -13t-31 13t-13 31t13 31t31 13zM2504 41q0 17 -12 28.5t-28 11.5 t-28 -11.5t-12 -28.5t12 -28.5t28 -11.5t28 11.5t12 28.5zM2446 66h18q7 0 11 -3q5 -3 5 -10q0 -5 -3 -9q-3 -3 -6 -3q7 -1 8 -10q0 -7 3 -15h-8q-1 2 -1.5 6.5t-0.5 6.5q-1 9 -11 9h-8v-22h-7v50zM2453 44h10q5 0 7 1q3 3 3 7q0 8 -10 8h-10v-16z" />
<glyph unicode=" "  horiz-adv-x="200" />
<glyph unicode="&#x09;" horiz-adv-x="200" />
<glyph unicode="&#xa0;" horiz-adv-x="200" />
<glyph unicode="!" horiz-adv-x="352" d="M183 672l6 10q111 13 209 13q52 0 52 -37q0 -28 -35 -100l-155 -324h-70zM311 103q0 -49 -41 -81t-96 -32q-44 0 -70.5 20.5t-26.5 55.5q0 48 42 80t95 32q45 0 71 -20t26 -55z" />
<glyph unicode="&#x22;" horiz-adv-x="437" d="M186 689l5 6q85 0 139 -23l9 -17l-132 -250l-32 4l6 126zM383 689l5 6q85 0 139 -23l9 -17l-132 -250l-32 4l6 126z" />
<glyph unicode="#" d="M616 164h-119l-55 -174l-91 17l-6 6l48 151h-111l-55 -174l-91 17l-6 6l48 151h-96l-6 7l19 83h111l45 142h-104l-6 7l19 83h120l55 174l91 -17l6 -6l-48 -151h111l55 174l91 -17l6 -6l-48 -151h95l6 -7l-19 -83h-110l-45 -142h103l6 -7zM311 254h110l45 142h-110z" />
<glyph unicode="$" horiz-adv-x="589" d="M297 -120l-43 -3l-7 6l23 107q-142 2 -188 31q-20 13 -20 38q0 33 31 84t65 85l10 -2l60 -191q25 -5 52 -5q41 0 68.5 24t27.5 63q0 32 -23.5 62.5t-57 56.5t-67.5 54.5t-57.5 68t-23.5 84.5q0 101 82 158t203 59l24 110l42 3l7 -6l-23 -108q105 -6 157 -41 q15 -10 15 -26q0 -31 -35.5 -83t-69.5 -82l-10 2l-48 189q-20 2 -31 2q-41 0 -72 -26.5t-31 -70.5q0 -36 23.5 -68t57 -58t67 -54t57 -67.5t23.5 -86.5q0 -88 -75 -140t-190 -58z" />
<glyph unicode="%" horiz-adv-x="1052" d="M544 516q0 -95 -69 -159t-168 -65q-78 -1 -123 40.5t-45 106.5q0 97 68.5 162t164.5 65q80 0 126 -40.5t46 -109.5zM819 660h101l-539 -670h-103zM292 352q0 -36 16 -36q25 0 51 97t26 193q0 37 -16 37q-26 0 -51.5 -97t-25.5 -194zM1053 218q0 -95 -69 -159t-168 -65 q-78 -1 -123 40.5t-45 106.5q0 97 68.5 162t164.5 65q80 0 126 -40.5t46 -109.5zM801 54q0 -36 16 -36q25 0 51 97t26 193q0 37 -16 37q-26 0 -51.5 -97t-25.5 -194z" />
<glyph unicode="&#x26;" horiz-adv-x="853" d="M501 660q78 0 129 -27.5t51 -75.5q0 -74 -116 -112q50 3 105.5 15t85 21t90.5 29l14 -3q28 -32 28 -70q0 -73 -92 -73q-45 0 -96 9q-8 -57 -31 -117q54 -27 68 -35q50 -29 76.5 -59t26.5 -70q0 -48 -30 -75t-76 -27t-77 22l-3 18q37 49 55 85q15 28 22 52 q-41 -13 -99 -13h-15q-111 -164 -315 -164q-103 0 -166 41.5t-63 111.5q0 62 52 106t143 60q-49 66 -49 139q0 96 81.5 154t200.5 58zM437 512q0 -84 50.5 -136.5t141.5 -99.5q26 49 38 103q-66 14 -159 42l-10 16q50 67 50 128q0 55 -42 55q-30 0 -49.5 -32t-19.5 -76z M291 211q0 -45 30.5 -70.5t76.5 -25.5q71 0 136 47q-141 26 -230 107q-13 -28 -13 -58z" />
<glyph unicode="'" horiz-adv-x="240" d="M186 689l5 6q85 0 139 -23l9 -17l-132 -250l-32 4l6 126z" />
<glyph unicode="(" horiz-adv-x="386" d="M341 -108l-14 -15q-109 41 -171.5 125t-62.5 199q0 160 108.5 292.5t297.5 201.5l11 -17q-102 -97 -156.5 -238t-54.5 -296q0 -122 42 -252z" />
<glyph unicode=")" horiz-adv-x="385" d="M166 680l14 15q109 -41 171.5 -125t62.5 -199q0 -160 -108.5 -292.5t-297.5 -201.5l-11 17q102 97 156.5 238t54.5 296q0 122 -42 252z" />
<glyph unicode="*" horiz-adv-x="423" d="M339 466q0 -55 -39 -55q-28 0 -28 26q0 14 14.5 42.5t20.5 47.5q-16 -12 -33 -26t-25 -20.5t-17 -11t-18 -4.5q-12 0 -20 9t-8 23q0 24 30 35q8 3 34 9t45 13q-13 5 -35.5 12t-27.5 9q-21 11 -21 29q0 16 10.5 26.5t25.5 10.5q12 0 21.5 -6.5t26 -26t24.5 -27.5v65 q0 49 39 49q28 0 28 -25q0 -14 -14.5 -44t-20.5 -47q18 13 36 27.5t25 20.5t15.5 10t16.5 4q13 0 20.5 -8.5t7.5 -21.5q0 -25 -21 -34q-12 -6 -42.5 -13t-46.5 -12q12 -4 35 -11t32 -11q17 -9 17 -25q0 -15 -11 -27.5t-25 -12.5q-11 0 -18 5t-23.5 24t-29.5 32v-60z" />
<glyph unicode="+" horiz-adv-x="519" d="M524 256h-138l-31 -144h-147l30 144h-144l28 132q134 4 144 4l30 147h150l-31 -146q55 1 140 1l6 -8z" />
<glyph unicode="," horiz-adv-x="231" d="M222 83q0 -67 -62.5 -136t-156.5 -106l-10 12q68 66 98 141q-51 14 -51 68q0 43 31.5 72.5t73.5 29.5q34 0 55.5 -22.5t21.5 -58.5z" />
<glyph unicode="-" horiz-adv-x="377" d="M78 250l9 45h328l-9 -45h-328z" />
<glyph unicode="." horiz-adv-x="227" d="M118 -10q-36 0 -57.5 20t-21.5 52q0 43 32 72.5t75 29.5q33 0 54 -19t21 -50q0 -43 -30.5 -74t-72.5 -31z" />
<glyph unicode="/" horiz-adv-x="376" d="M143 -10l-77 36l306 666l7 3l77 -36l-306 -666z" />
<glyph unicode="0" horiz-adv-x="655" d="M707 410q0 -178 -107 -299t-260 -121q-119 0 -187 68t-68 177q0 181 110 303t263 122q118 0 183.5 -67t65.5 -183zM305 106q0 -74 36 -74q33 0 68.5 97.5t56.5 219t21 202.5q0 67 -29 67q-36 0 -73 -90t-58.5 -209.5t-21.5 -212.5z" />
<glyph unicode="1" horiz-adv-x="390" d="M364 0h-319v16l34 11q27 8 34 45l105 488l-72 5l1 14l297 81l7 -8l-127 -580l-7 -31l52 -25z" />
<glyph unicode="2" horiz-adv-x="506" d="M165 9q-56 0 -115 -19l-18 104q287 161 287 324q0 39 -20.5 60.5t-57.5 21.5q-76 0 -132 -79l-10 7q37 108 107.5 170t172.5 62q81 0 133.5 -49.5t52.5 -127.5q0 -48 -27 -93t-76.5 -83t-101 -67t-118.5 -59q-34 -14 -52 -20q33 4 72 4q34 0 95 -5t85 -5q21 0 36 13.5 t31 47.5l10 -3q-17 -92 -38 -150q-27 -73 -72 -73q-32 0 -113.5 9.5t-130.5 9.5z" />
<glyph unicode="3" horiz-adv-x="476" d="M491 195q0 -95 -128 -150t-359 -55l-2 20q125 24 189.5 73.5t64.5 117.5q0 36 -22.5 56.5t-62.5 20.5q-19 0 -36 -3l-6 38q84 19 130 56t46 82q0 27 -17 43t-47 16q-71 0 -125 -74l-10 7q32 97 107.5 157t167.5 60q75 0 117 -36t42 -94q0 -83 -75.5 -136t-200.5 -71 q98 2 162.5 -33.5t64.5 -94.5z" />
<glyph unicode="4" horiz-adv-x="571" d="M55 220l428 440l123 -20l-82 -388l77 3l-24 -114l-77 1l-30 -142h-210l31 145l-241 4zM363 483l-225 -243l174 6z" />
<glyph unicode="5" horiz-adv-x="488" d="M507 221q0 -105 -121.5 -168t-349.5 -63l-2 20q238 45 238 165q0 35 -29 54.5t-76 19.5q-29 0 -49 -4l-14 13l88 396q174 -8 300 -8q26 0 42.5 12.5t34.5 49.5l10 -3q-10 -49 -14.5 -70t-13.5 -54t-16.5 -46.5t-20 -29.5t-28 -21.5t-36.5 -5.5q-81 0 -244 22l-28 -131 q41 7 110 7q99 0 159 -42.5t60 -112.5z" />
<glyph unicode="6" horiz-adv-x="605" d="M80 227q0 184 161.5 306t412.5 127l1 -24q-114 -41 -201.5 -122.5t-129.5 -194.5q55 95 171 95q65 0 105 -39t40 -108q0 -117 -92.5 -197t-217.5 -80q-117 0 -183.5 63t-66.5 174zM420 252q3 93 -26 93q-36 0 -65 -78.5t-29 -178.5q0 -58 27 -58q33 0 61.5 67.5 t31.5 154.5z" />
<glyph unicode="7" horiz-adv-x="452" d="M327 47q-34 -57 -99 -57q-44 0 -81.5 28t-58.5 70q32 38 110.5 127.5t125 145t88.5 111.5q-133 14 -211 14q-36 0 -53.5 -12t-36.5 -50l-10 3q17 113 52 173t100 60q64 0 113 -45.5t74 -104.5q57 81 99 150q13 0 21.5 -8.5t8.5 -21.5q0 -26 -101 -269.5t-141 -313.5z" />
<glyph unicode="8" horiz-adv-x="582" d="M594 190q0 -93 -82.5 -146.5t-206.5 -53.5q-110 0 -179.5 40t-69.5 107q0 62 55.5 101t143.5 48q-103 97 -103 187q0 89 76 138t185 49q101 0 164 -40.5t63 -101.5q0 -59 -48 -95.5t-120 -48.5q39 -34 60.5 -55.5t41.5 -57t20 -71.5zM345 553q0 -42 26 -78.5t75 -78.5 q24 74 24 134q0 42 -16.5 66t-47.5 24q-27 0 -44 -19t-17 -48zM257 122q0 -44 19 -68t50 -24q28 0 48 21.5t20 57.5q0 25 -17.5 53t-34 44.5t-53.5 49.5q-32 -71 -32 -134z" />
<glyph unicode="9" horiz-adv-x="605" d="M663 423q0 -184 -161.5 -306t-412.5 -127l-1 24q114 41 201.5 122.5t129.5 194.5q-55 -95 -171 -95q-65 0 -105 39t-40 108q0 117 92.5 197t217.5 80q117 0 183.5 -63t66.5 -174zM323 398q-3 -93 26 -93q36 0 65 78.5t29 178.5q0 58 -27 58q-33 0 -61.5 -67.5 t-31.5 -154.5z" />
<glyph unicode=":" horiz-adv-x="228" d="M192 336q-36 0 -57.5 20t-21.5 52q0 43 32 72.5t75 29.5q33 0 54 -19t21 -50q0 -43 -30.5 -74t-72.5 -31zM119 -10q-36 0 -57.5 20t-21.5 52q0 43 32 72.5t75 29.5q33 0 54 -19t21 -50q0 -43 -30.5 -74t-72.5 -31z" />
<glyph unicode=";" horiz-adv-x="231" d="M192 336q-36 0 -57.5 20t-21.5 52q0 43 32 72.5t75 29.5q33 0 54 -19t21 -50q0 -43 -30.5 -74t-72.5 -31zM222 83q0 -67 -62.5 -136t-156.5 -106l-10 12q68 66 98 141q-51 14 -51 68q0 43 31.5 72.5t73.5 29.5q34 0 55.5 -22.5t21.5 -58.5z" />
<glyph unicode="&#x3c;" horiz-adv-x="536" d="M606 566l-37 -165l-265 -79l232 -79l-33 -155q-65 24 -196 82.5t-196 92.5l-2 11l24 115z" />
<glyph unicode="=" horiz-adv-x="540" d="M557 363h-430l28 132q147 6 433 6l6 -8zM512 149h-430l28 132q147 6 433 6l6 -8z" />
<glyph unicode="&#x3e;" horiz-adv-x="535" d="M68 85l37 165l265 79l-232 79l33 155q65 -24 196 -82.5t196 -92.5l2 -11l-24 -115z" />
<glyph unicode="?" horiz-adv-x="585" d="M436 695q116 0 184 -41t68 -117q0 -47 -29.5 -86.5t-71.5 -64.5t-84 -45t-71.5 -38.5t-29.5 -35.5q0 -19 25 -28l-3 -10q-24 -3 -45 -3q-97 0 -97 64q0 27 19 56t46.5 55t55 54t46.5 64.5t19 75.5q0 27 -13 43.5t-39 16.5q-46 0 -72 -49.5t-26 -118.5q0 -27 2 -41 q-38 -16 -87 -16q-115 0 -115 79q0 73 96.5 129.5t221.5 56.5zM432 103q0 -49 -41 -81t-96 -32q-44 0 -70.5 20.5t-26.5 55.5q0 48 42 80t95 32q45 0 71 -20t26 -55z" />
<glyph unicode="@" horiz-adv-x="1021" d="M647 660q-91 0 -183 -35t-167 -96.5t-122.5 -153.5t-47.5 -197q0 -157 98 -247.5t254 -90.5q65 0 125 16t89.5 30.5t80.5 44.5l16 -26q-125 -100 -320 -100q-169 0 -276 99t-107 267q0 114 50 214t131 166.5t182 105t203 38.5q173 0 282.5 -99.5t109.5 -248.5t-83.5 -253 t-212.5 -104q-88 0 -127 51.5t-24 138.5l7 40h-3q-96 -230 -212 -230q-58 0 -89.5 42.5t-31.5 107.5q0 95 42.5 178t129 137.5t200.5 54.5q133 0 238 -44l-26 -69l-48 -217q-24 -111 44 -111q55 0 105.5 78.5t50.5 199.5q0 137 -100.5 225t-257.5 88zM491 101 q26 0 76.5 108.5t84.5 219.5l10 33q-15 13 -38 13q-34 0 -70.5 -63.5t-58.5 -141.5t-22 -128q0 -41 18 -41z" />
<glyph unicode="A" horiz-adv-x="698" d="M424 650h115l101 -572q5 -34 35 -49l26 -13l-5 -16h-353l1 16l68 25l-17 123l-207 -2l-71 -123l63 -23l-5 -16h-173l1 16l34 11q21 7 32 18.5t27 38.5zM212 203l178 -2l-34 250z" />
<glyph unicode="B" horiz-adv-x="688" d="M363 0h-334l-1 16l40 13q23 8 28 43l108 506l7 31l-52 25l4 16h313q128 0 197.5 -37t69.5 -106q0 -61 -46.5 -104.5t-136.5 -63.5q69 -13 113.5 -52t44.5 -92q0 -90 -89 -142.5t-266 -52.5zM451 610h-22l-7 -32l-48 -224h25q60 0 96.5 46.5t36.5 114.5q0 46 -21 70.5 t-60 24.5zM394 314h-28l-52 -242l-7 -32h31q66 0 107.5 49t42.5 130q1 46 -24 70.5t-70 24.5z" />
<glyph unicode="C" horiz-adv-x="646" d="M530 660q128 0 186 -34q-7 -51 -27.5 -112t-47.5 -105h-10l-78 211h-8q-87 0 -154.5 -108.5t-66.5 -256.5q1 -101 35 -163t89 -62q6 0 9 1l165 205h10q8 -27 8 -67q0 -88 -27 -153q-80 -26 -204 -26q-145 0 -232.5 72t-87.5 202q0 173 125.5 284.5t315.5 111.5z" />
<glyph unicode="D" horiz-adv-x="725" d="M336 0h-307l-1 16l40 13q23 8 28 43l108 506l7 31l-52 25l4 16h307q146 0 227 -61t81 -182q0 -177 -123 -292t-319 -115zM454 610h-25l-7 -32l-108 -506l-7 -32h30q52 0 97 40.5t72.5 101.5t43 128.5t15.5 126.5q0 173 -111 173z" />
<glyph unicode="E" horiz-adv-x="594" d="M556 0h-526l-1 16l40 13q23 8 28 43l107 506l7 31l-52 25l4 16h522q0 -49 -18.5 -111t-44.5 -103h-10l-87 174h-96l-7 -32l-50 -235l160 12l-14 -65l-154 13l-49 -231l-7 -32h103l164 181h10q5 -27 5 -51q0 -77 -34 -170z" />
<glyph unicode="F" horiz-adv-x="565" d="M386 16l-5 -16h-354l1 16l32 10q18 6 25 15.5t11 30.5l108 506l7 31l-52 25l4 16h517q-2 -57 -20 -118.5t-46 -105.5h-10l-82 179h-94l-6 -27l-55 -260l165 12l-14 -65l-160 13l-44 -206l-6 -31z" />
<glyph unicode="G" horiz-adv-x="701" d="M629 16q-109 -26 -220 -26q-148 0 -234 71.5t-86 202.5q0 175 128 285.5t312 110.5q133 0 212 -34q-6 -48 -32.5 -108.5t-57.5 -108.5h-10l-78 211h-19q-87 0 -153.5 -109t-66.5 -258q0 -91 30.5 -153t79.5 -69l51 216l7 31l-48 25l6 16h301l-2 -16l-29 -10 q-18 -6 -25 -15.5t-12 -30.5z" />
<glyph unicode="H" horiz-adv-x="771" d="M354 0h-326v16l34 11q27 8 34 45l108 506l7 31l-52 25l5 16h326v-16l-34 -11q-27 -8 -34 -45l-50 -233h173l49 233l7 31l-52 25l5 16h326v-16l-34 -11q-27 -8 -34 -45l-107 -506l-7 -31l52 -25l-5 -16h-326v16l34 11q27 8 34 45l48 228h-172l-49 -228l-7 -31l52 -25z" />
<glyph unicode="I" horiz-adv-x="381" d="M355 0h-326v16l34 11q27 8 34 45l107 506l7 31l-52 25l5 16h326v-16l-34 -11q-27 -8 -34 -45l-107 -506l-7 -31l52 -25z" />
<glyph unicode="J" horiz-adv-x="377" d="M323 121q-23 -111 -117.5 -183t-224.5 -78l-4 11q54 51 84 117.5t55 184.5l86 405l7 31l-52 25l5 16h326v-16l-34 -11q-27 -8 -34 -45z" />
<glyph unicode="K" horiz-adv-x="768" d="M355 0h-326v16l34 11q27 8 34 45l107 506l7 31l-52 25l5 16h326v-16l-34 -11q-27 -8 -34 -45l-53 -253h41l238 284l-56 25l5 16h272l-1 -16l-64 -28q-45 -19 -113 -61.5t-110 -78.5l131 -375q16 -47 49 -65l18 -10l-6 -16l-203 -3q-48 -1 -68.5 19t-35.5 68l-63 201h-43 l-45 -213l-7 -31l52 -25z" />
<glyph unicode="L" horiz-adv-x="569" d="M544 0h-515l-1 16l40 13q23 8 28 43l108 506l7 31l-52 25l5 16h326v-16l-34 -11q-27 -8 -34 -45l-108 -506l-7 -32h100l159 224h10q5 -17 5 -65q0 -100 -37 -199z" />
<glyph unicode="M" horiz-adv-x="903" d="M198 650h279l37 -375l196 375h270v-16l-78 -25l-60 -564l64 -29l-5 -16h-344v16l35 11q29 9 33 45l46 414l-217 -411l-35 -75h-97l-7 75l-50 414l-140 -448l84 -25l-5 -16h-201v16l46 16q19 7 29 18t17 34l164 523l-66 27z" />
<glyph unicode="N" horiz-adv-x="675" d="M217 1h-197v16l50 15q19 6 25.5 14t10.5 27l114 536l-68 25l5 16h207l225 -421l74 349l7 31l-78 25l5 16h197v-16l-50 -15q-19 -6 -25.5 -14t-10.5 -27l-123 -578h-135l-223 431l-76 -358l-7 -31l78 -25z" />
<glyph unicode="O" horiz-adv-x="727" d="M778 400q0 -173 -119 -291.5t-288 -118.5q-134 0 -209.5 70.5t-75.5 184.5q0 177 120.5 296t289.5 119q132 0 207 -70t75 -190zM321 124q0 -94 50 -94q40 0 81 85.5t66 203t25 214.5q0 87 -49 87q-41 0 -82.5 -83t-66 -199t-24.5 -214z" />
<glyph unicode="P" horiz-adv-x="650" d="M386 16l-5 -16h-354l1 16l32 10q18 6 25 15.5t11 30.5l108 506l7 31l-52 25l4 16h311q130 0 200.5 -45.5t70.5 -136.5q0 -103 -96 -170.5t-248 -67.5h-53l-34 -158l-6 -31zM450 610h-21l-7 -32l-66 -308h23q67 0 106.5 73t39.5 162q0 50 -19.5 77.5t-55.5 27.5z" />
<glyph unicode="Q" horiz-adv-x="727" d="M778 400q0 -165 -108.5 -281t-266.5 -128q55 -30 164.5 -45.5t235.5 -15.5q96 0 179 17q15 -21 15 -60q0 -61 -50 -94t-139 -33q-134 0 -269 67t-212 165q-114 12 -177.5 80.5t-63.5 172.5q0 177 120.5 296t289.5 119q132 0 207 -70t75 -190zM321 124q0 -94 50 -94 q40 0 81 85.5t66 203t25 214.5q0 87 -49 87q-41 0 -82.5 -83t-66 -199t-24.5 -214z" />
<glyph unicode="R" horiz-adv-x="740" d="M355 0h-326v16l34 11q27 8 34 45l107 506l7 31l-52 25l4 16h315q133 0 203 -42.5t70 -121.5q0 -109 -140 -180l16 -56q41 -146 55 -175q17 -33 41 -45l28 -14l-5 -16l-205 -5q-41 -1 -61 14t-28 48l-48 203h-49l-40 -188l-7 -31l52 -25zM450 610h-21l-7 -32l-59 -278h29 q62 0 100.5 61t38.5 139q0 52 -21 81t-60 29z" />
<glyph unicode="S" horiz-adv-x="548" d="M120 443q0 70 44 120t113 73.5t153 23.5q132 0 197 -42q15 -10 15 -26q0 -31 -35.5 -83t-69.5 -82l-10 2l-48 189q-20 2 -31 2q-47 0 -82.5 -26.5t-35.5 -70.5q0 -36 24.5 -68t59.5 -58t70 -54t59.5 -67.5t24.5 -86.5q0 -97 -88.5 -148t-222.5 -51q-158 0 -207 31 q-20 13 -20 38q0 33 31 84t65 85l10 -2l60 -191q25 -5 52 -5q46 0 78.5 25.5t32.5 61.5q0 33 -24.5 63.5t-59.5 56t-70.5 53t-60 67t-24.5 86.5z" />
<glyph unicode="T" horiz-adv-x="660" d="M134 396h-10q-3 21 -3 47q0 99 39 207h616q-2 -58 -23 -132.5t-49 -121.5h-10l-70 214h-55l-114 -538l-7 -31l52 -25l-5 -16h-326v16l34 11q27 8 34 45l114 538h-56z" />
<glyph unicode="U" horiz-adv-x="685" d="M164 650h326v-16l-34 -11q-27 -8 -34 -45l-72 -338q-8 -40 -8 -68q0 -58 28 -88.5t79 -30.5q122 0 161 187l72 338l7 32l-69 24l5 16h187v-16l-79 -24l-7 -32l-72 -338q-28 -131 -94 -190.5t-185 -59.5t-183 56t-64 149q0 27 6 55l70 328l7 31l-52 25z" />
<glyph unicode="V" horiz-adv-x="696" d="M417 0h-122l-100 572q-4 23 -11 32t-24 17l-25 13l3 16h354l-1 -16l-67 -26l53 -423l217 425l-60 24l5 16h193l-1 -16q-19 -10 -34 -19q-42 -29 -78 -80.5t-96 -159.5z" />
<glyph unicode="W" horiz-adv-x="1044" d="M1038 480l-263 -480h-115l-46 418l-218 -418h-115l-81 572q-6 36 -35 49l-30 13l5 16h342l-1 -16l-62 -23l41 -402l145 290l-8 73q-4 34 -35 49l-27 13l5 16h351l-1 -16l-73 -26l28 -400l196 400l-69 26l5 16h203l-1 -16q-27 -10 -53 -30q-36 -28 -88 -124z" />
<glyph unicode="X" horiz-adv-x="690" d="M192 140l125 135l-117 295q-11 26 -19 37t-25 18l-21 9l5 16h334l-1 -16l-57 -22l78 -195l132 195l-53 22l5 16h230l-1 -16q-5 -2 -15.5 -5.5l-16.5 -5.5q-35 -14 -65 -36.5t-80 -76.5l-121 -131l117 -294q12 -30 21.5 -42t24.5 -18l21 -9l-5 -16h-340l1 16l62 24 l-79 198l-136 -200l53 -22l-5 -16h-230l1 16q6 2 16 5.5t16 5.5q35 14 65 36.5t80 76.5z" />
<glyph unicode="Y" horiz-adv-x="605" d="M465 0h-326v16l34 11q27 8 34 45l26 125q20 82 2.5 217t-57.5 135q-27 0 -81 -81l-12 5q24 76 77 131.5t123 55.5q93 0 132.5 -96.5t31.5 -258.5q134 355 234 355q40 0 53 -47.5t12 -128.5l-11 -6q-9 39 -19 57.5t-29 18.5q-36 0 -88.5 -68t-98 -166t-63.5 -182l-14 -66 l-7 -31l52 -25z" />
<glyph unicode="Z" d="M639 208q0 -105 -40 -208h-526l-10 85l415 525h-146l-173 -214h-10q-3 21 -3 47q0 104 39 207h521l10 -80l-410 -530h146l173 214h10q4 -17 4 -46z" />
<glyph unicode="[" horiz-adv-x="401" d="M355 -118h-300l173 813h300l-9 -40h-90l-155 -733h90z" />
<glyph unicode="\" horiz-adv-x="452" d="M390 1l-86 -11l-100 687l4 7l86 11l100 -687z" />
<glyph unicode="]" horiz-adv-x="400" d="M168 695h300l-173 -813h-300l9 40h90l155 733h-90z" />
<glyph unicode="^" horiz-adv-x="526" d="M237 200h-160l233 350h138l85 -350h-160l-32 179z" />
<glyph unicode="_" horiz-adv-x="568" d="M-15 -185l9 45h520l-9 -45h-520z" />
<glyph unicode="`" horiz-adv-x="381" d="M315 562l-10 -11q-115 14 -177 45t-62 75q0 38 32.5 57t84.5 19q20 0 40 -2q35 -86 92 -183z" />
<glyph unicode="a" horiz-adv-x="624" d="M62 140q0 95 42.5 178t129 137.5t200.5 54.5q139 0 238 -44l-26 -69l-48 -217q-13 -52 -13 -65q0 -14 10 -14q12 0 69 75q3 4 5 6l9 -5q-27 -80 -79 -133.5t-121 -53.5q-49 0 -74.5 29.5t-25.5 83.5q0 30 10 77l10 40h-3q-96 -230 -212 -230q-58 0 -89.5 42.5 t-31.5 107.5zM445 429l10 31q-18 15 -38 15q-34 0 -70.5 -63.5t-58.5 -141.5t-22 -128q0 -41 18 -41q26 0 76.5 108.5t84.5 219.5z" />
<glyph unicode="b" horiz-adv-x="593" d="M69 110l97 444l11 54l-70 35v12q114 28 289 39l8 -10l-28 -130q-42 -166 -78 -273h3q92 229 216 229q58 0 88.5 -44t30.5 -108q0 -69 -23.5 -134.5t-66 -117.5t-109 -84t-146.5 -32q-140 0 -248 51zM416 399q-22 0 -61 -66t-61 -154l-31 -142q15 -12 35 -12q50 0 92 122 t42 209q0 43 -16 43z" />
<glyph unicode="c" horiz-adv-x="519" d="M539 171q-30 -77 -102.5 -129t-163.5 -52q-83 0 -142.5 51.5t-59.5 147.5q0 133 96.5 227t228.5 94q79 0 126 -36.5t47 -93.5q0 -43 -34 -71.5t-84 -28.5q-38 0 -77 13q30 105 30 141t-22 36q-31 0 -60.5 -75t-29.5 -143q0 -137 100 -137q65 0 139 62z" />
<glyph unicode="d" horiz-adv-x="623" d="M387 180l10 45q-95 -235 -214 -235q-57 0 -89 43.5t-32 106.5q0 94 42.5 177t129.5 138t200 55q19 0 29 -1l10 45l11 54l-70 35v12q114 28 289 39l8 -10l-28 -130l-86 -374q-13 -52 -13 -65q0 -14 10 -14q12 0 69 75q3 4 5 6l9 -5q-27 -80 -79 -133.5t-121 -53.5 q-49 0 -74.5 29.5t-25.5 83.5q0 30 10 77zM284 101q26 0 76.5 108.5t84.5 219.5l7 33q-16 13 -35 13q-34 0 -70.5 -63.5t-58.5 -141.5t-22 -128q0 -41 18 -41z" />
<glyph unicode="e" horiz-adv-x="520" d="M538 171q-29 -82 -101.5 -131.5t-156.5 -49.5q-95 0 -152 54t-57 144q0 133 93.5 227.5t227.5 94.5q76 0 126 -34t50 -97q0 -72 -69.5 -118.5t-205.5 -50.5q12 -95 96 -95q71 0 141 62zM381 470q-31 0 -60.5 -75t-29.5 -153q47 14 79.5 73.5t32.5 126.5q0 28 -22 28z" />
<glyph unicode="f" horiz-adv-x="364" d="M278 74q-27 -131 -109 -200t-188 -69q-58 0 -95 23t-37 57q0 58 87 70q15 -77 43 -77q25 0 44.5 40.5t38.5 130.5l84 396h-66l1 9l74 30v1q15 75 100 142.5t187 67.5q57 0 90 -21t33 -62q0 -28 -23.5 -46.5t-54.5 -25.5q-53 79 -87 79q-24 0 -31 -26.5t-3.5 -57.5 t-1.5 -55h104l-8 -35h-103z" />
<glyph unicode="g" horiz-adv-x="542" d="M545 -51q0 -68 -84.5 -106t-219.5 -38q-112 0 -193 30.5t-81 79.5q0 32 39.5 56.5t103.5 28.5l8 -6q3 -69 37 -112.5t98 -43.5q28 0 47 12t19 32q0 16 -27.5 33.5t-61 31t-61 36.5t-27.5 50q0 66 159 110h-5q-102 0 -165.5 42.5t-63.5 111.5q0 89 81.5 151t205.5 62h55.5 h55t45 0.5t46.5 2t37 4t38 6.5q5 -15 5 -35q0 -78 -50 -78q-32 0 -102 32l-1 -3q79 -53 79 -119q0 -40 -23.5 -72t-57 -51.5t-66.5 -34.5t-56.5 -27t-23.5 -22q0 -14 33 -28.5t72 -27t72 -41t33 -67.5zM271 263q0 -38 6 -59t24 -20q24 0 40.5 74t16.5 150q0 34 -6 53t-22 18 q-25 0 -42 -69t-17 -147z" />
<glyph unicode="h" horiz-adv-x="616" d="M258 0q-133 -7 -192 -7q-21 0 -16 17l36 170l80 374l11 54l-70 35v12q114 28 289 39l8 -10l-28 -130q-35 -149 -76 -273h3q96 229 231 229q47 0 75 -27.5t28 -73.5q0 -56 -47 -229q-13 -52 -13 -65q0 -14 10 -14q12 0 69 75q3 4 5 6l9 -5q-27 -80 -79 -133.5t-121 -53.5 q-49 0 -74.5 29.5t-25.5 83.5q0 30 10 77q6 29 17.5 71.5t18.5 72.5t7 46q0 17 -13 17q-22 0 -57.5 -63t-56.5 -144z" />
<glyph unicode="i" horiz-adv-x="334" d="M416 669q0 -49 -41 -81t-96 -32q-44 0 -70.5 20.5t-26.5 55.5q0 48 42 80t95 32q45 0 71 -20t26 -55zM98 180q4 17 35 140q13 52 13 65q0 14 -10 14q-12 0 -69 -75q-3 -4 -5 -6l-9 5q27 80 79 133.5t121 53.5q49 0 74.5 -29.5t25.5 -83.5q0 -30 -10 -77q-10 -46 -35 -140 q-13 -52 -13 -65q0 -14 10 -14q12 0 69 75q3 4 5 6l9 -5q-27 -80 -79 -133.5t-121 -53.5q-49 0 -74.5 29.5t-25.5 83.5q0 30 10 77z" />
<glyph unicode="j" horiz-adv-x="318" d="M419 669q0 -49 -41 -81t-96 -32q-44 0 -70.5 20.5t-26.5 55.5q0 48 42 80t95 32q45 0 71 -20t26 -55zM294 74q-27 -131 -109 -200t-188 -69q-58 0 -95 23t-37 57q0 58 87 70q15 -77 43 -77q25 0 44.5 40.5t38.5 130.5l58 271q13 52 13 65q0 14 -10 14q-12 0 -69 -75 q-3 -4 -5 -6l-9 5q27 80 79 133.5t121 53.5q49 0 74.5 -29.5t25.5 -83.5q0 -30 -10 -77z" />
<glyph unicode="k" horiz-adv-x="623" d="M258 0q-133 -7 -192 -7q-21 0 -16 17l36 170l80 374l11 54l-70 35v12q114 28 289 39l8 -10l-28 -130q-28 -133 -76 -273h3q51 120 112 174.5t136 54.5q50 0 79.5 -31t29.5 -75q0 -97 -134 -156q26 -69 44.5 -103t38.5 -34q26 0 87 71l9 -5q-32 -77 -90.5 -132t-126.5 -55 q-19 0 -35 4.5t-27 10t-22 19.5t-17 23t-14.5 30.5t-11.5 31.5t-11.5 37.5t-11.5 38.5l1 5q50 32 80.5 79t30.5 86q0 34 -25 34q-27 0 -67 -62t-62 -147z" />
<glyph unicode="l" horiz-adv-x="316" d="M80 180l86 374l11 54l-70 35v12q114 28 289 39l8 -10l-28 -130l-86 -374q-13 -52 -13 -65q0 -14 10 -14q12 0 69 75q3 4 5 6l9 -5q-27 -80 -79 -133.5t-121 -53.5q-49 0 -74.5 29.5t-25.5 83.5q0 30 10 77z" />
<glyph unicode="m" horiz-adv-x="921" d="M276 0q-133 -7 -192 -7q-21 0 -16 17l36 170l22 101l7 33q13 64 13 72q0 13 -8 13q-5 0 -12 -5.5t-19.5 -20.5t-19 -23t-24.5 -32l-10 5q24 80 73.5 133.5t118.5 53.5q44 0 70.5 -24.5t26.5 -70.5q0 -52 -24 -134h3q45 112 105 170.5t126 58.5q40 0 64 -23.5t24 -61.5 q0 -36 -24 -144h3q46 111 105 170t121 59q44 0 70.5 -27.5t26.5 -73.5q0 -56 -47 -229q-13 -52 -13 -65q0 -14 10 -14q12 0 69 75q3 4 5 6l9 -5q-27 -80 -79 -133.5t-121 -53.5q-49 0 -74.5 29.5t-25.5 83.5q0 30 10 77q6 30 17.5 73t18.5 73.5t7 46.5q0 14 -9 14 q-18 0 -53 -64t-54 -143l-38 -180q-133 -7 -192 -7q-21 0 -16 17l36 170q38 173 38 190t-11 17q-22 0 -57.5 -63t-57.5 -144z" />
<glyph unicode="n" horiz-adv-x="634" d="M276 0q-133 -7 -192 -7q-21 0 -16 17l36 170l22 101l7 33q13 64 13 72q0 13 -8 13q-5 0 -12 -5.5t-19.5 -20.5t-19 -23t-24.5 -32l-10 5q24 80 73.5 133.5t118.5 53.5q44 0 70.5 -24.5t26.5 -70.5q0 -52 -24 -134h3q96 229 231 229q47 0 75 -27.5t28 -73.5 q0 -56 -47 -229q-13 -52 -13 -65q0 -14 10 -14q12 0 69 75q3 4 5 6l9 -5q-27 -80 -79 -133.5t-121 -53.5q-49 0 -74.5 29.5t-25.5 83.5q0 30 10 77q6 29 17.5 71.5t18.5 72.5t7 46q0 17 -13 17q-22 0 -57.5 -63t-56.5 -144z" />
<glyph unicode="o" horiz-adv-x="607" d="M640 302q0 -135 -96 -224t-232 -89q-112 0 -175.5 55.5t-63.5 154.5q0 131 97 221t233 90q111 0 174 -59t63 -149zM291 131q0 -101 29 -101q38 0 69 131t31 222q0 87 -29 87q-39 0 -69.5 -120.5t-30.5 -218.5z" />
<glyph unicode="p" horiz-adv-x="609" d="M232 -188q-133 -7 -192 -7q-21 0 -16 17l36 170l62 289l7 33q13 64 13 72q0 13 -8 13q-5 0 -12 -5.5t-19.5 -20.5t-19 -23t-24.5 -32l-10 5q24 80 73.5 133.5t118.5 53.5q44 0 70.5 -24.5t26.5 -70.5q0 -52 -24 -134h3q92 229 216 229q58 0 88.5 -44t30.5 -108 q0 -70 -23.5 -134.5t-68 -117.5t-115.5 -84.5t-158 -31.5h-17zM432 399q-21 0 -59 -63t-61 -149l-35 -161q5 -1 16 -1q41 0 78.5 61t57 137t19.5 133q0 43 -16 43z" />
<glyph unicode="q" horiz-adv-x="611" d="M520 -188q-133 -7 -192 -7q-21 0 -16 17l36 170q32 150 51 228h-4q-96 -230 -212 -230q-57 0 -89 43.5t-32 106.5q0 94 42.5 177t129.5 138t200 55q137 0 236 -44l-26 -69l-86 -405zM266 142q0 -41 18 -41q25 0 74 103t83 213l11 45q-16 13 -35 13q-34 0 -70.5 -63.5 t-58.5 -141.5t-22 -128z" />
<glyph unicode="r" horiz-adv-x="514" d="M276 0q-133 -7 -192 -7q-21 0 -16 17l36 170l22 101l7 33q13 64 13 72q0 13 -8 13q-5 0 -12 -5.5t-19.5 -20.5t-19 -23t-24.5 -32l-10 5q24 80 73.5 133.5t118.5 53.5q44 0 70.5 -24.5t26.5 -70.5q0 -52 -24 -134h3q94 229 191 229q58 0 58 -77q0 -83 -63 -160 q-52 28 -99 28q-41 0 -61 -30.5t-33 -90.5z" />
<glyph unicode="s" horiz-adv-x="501" d="M516 143q0 -71 -65 -112t-192 -41q-93 0 -156 26.5t-63 75.5q0 30 39.5 50t110.5 20l9 -4q7 -50 14 -72q18 -56 58 -56q17 0 28 11.5t11 28.5q0 28 -34 62t-74 62.5t-74 71.5t-34 85q0 72 64 115.5t179 43.5q94 0 155.5 -29.5t61.5 -73.5q0 -34 -38.5 -53.5t-101.5 -15.5 l-9 4q-3 40 -12 73q-17 55 -52 55q-42 0 -42 -43q0 -24 22.5 -50t54.5 -51t63.5 -52t54 -61t22.5 -70z" />
<glyph unicode="t" horiz-adv-x="374" d="M412 177q-29 -79 -85 -133t-130 -54q-55 0 -84.5 32t-29.5 85q0 32 9 73l57 265h-69l1 10l80 42l222 115l10 -2l-28 -130h86l-8 -35h-85l-56 -265q-10 -51 -10 -61q0 -18 16 -18q29 0 95 81z" />
<glyph unicode="u" d="M423 219h-3q-96 -229 -231 -229q-47 0 -75 27.5t-28 73.5q0 56 47 229q13 52 13 65q0 14 -10 14q-12 0 -69 -75q-3 -4 -5 -6l-9 5q27 80 79 133.5t121 53.5q49 0 74.5 -29.5t25.5 -83.5q0 -30 -10 -77q-6 -29 -17.5 -71.5t-18.5 -72.5t-7 -46q0 -17 13 -17q22 0 57.5 63 t56.5 144l38 180q133 7 192 7q21 0 16 -17l-36 -170l-22 -101l-7 -33q-13 -64 -13 -72q0 -13 8 -13q5 0 12 5.5t19.5 20.5t19 23t24.5 32l10 -5q-24 -80 -73.5 -133.5t-118.5 -53.5q-44 0 -70.5 24.5t-26.5 70.5q0 52 24 134z" />
<glyph unicode="v" horiz-adv-x="591" d="M147 -1q0 15 1.5 78t1.5 92q0 79 -1 125t-4.5 69t-7.5 29.5t-11 6.5q-26 0 -79 -81l-10 5q24 77 80 132t133 55q114 0 114 -162q0 -116 -43 -294q114 153 114 342q0 53 -11 95q40 19 92 19q60 0 94.5 -31.5t34.5 -90.5q0 -98 -95.5 -201t-267.5 -197z" />
<glyph unicode="w" horiz-adv-x="877" d="M516 510q65 0 99.5 -35.5t34.5 -116.5q0 -122 -43 -304q114 153 114 342q0 53 -11 95q40 19 92 19q60 0 94.5 -31.5t34.5 -90.5q0 -98 -95.5 -201t-267.5 -197l-135 9q2 132 2 167q-53 -90 -153 -176l-135 9q0 15 1.5 78t1.5 92q0 79 -1 125t-4.5 69t-7.5 29.5t-11 6.5 q-23 0 -79 -81l-10 5q24 77 80 132t133 55q114 0 114 -162q0 -116 -39 -276q114 154 114 324q0 53 -11 95q38 19 88 19z" />
<glyph unicode="x" horiz-adv-x="570" d="M240 5q-42 -15 -90 -15q-46 0 -75 21.5t-29 62.5q0 105 186 163l-36 86q-17 43 -25 57t-18 14q-21 0 -75 -71l-8 6q32 84 83 132.5t113 48.5q14 0 25.5 -1.5t22 -6.5t17.5 -8.5t15 -15t12.5 -17.5t13 -24t12 -27t14 -34.5t15.5 -37.5l16 -39q9 66 9 141q0 36 -4 55 q34 15 86 15q46 0 77 -22t31 -59q0 -106 -184 -166l36 -86q17 -43 25 -57t18 -14q21 0 75 71l8 -6q-31 -84 -82.5 -132.5t-113.5 -48.5q-14 0 -25.5 1.5t-22 6.5t-17.5 8.5t-15 15t-12.5 17.5t-13 24t-12 27t-14 34.5t-15.5 37.5l-18 43q-9 -67 -9 -145q0 -36 4 -55z" />
<glyph unicode="y" horiz-adv-x="604" d="M373 341q0 -69 -20.5 -156.5t-58.5 -164.5q150 149 150 376q0 53 -11 95q40 19 94 19q61 0 94 -35t33 -97q0 -118 -100.5 -225.5t-277.5 -165.5q-103 -181 -250 -181q-50 0 -81.5 22.5t-31.5 56.5q0 27 25 47t62 23q1 -3 2.5 -10.5t2.5 -12t2.5 -12.5t3.5 -13t4 -11.5 t5 -10.5l6 -8t7 -6t9 -2q38 0 74 166.5t36 295.5q0 68 -17 68q-22 0 -78 -81l-10 5q25 77 79 132t129 55q59 0 88.5 -40t29.5 -129z" />
<glyph unicode="z" horiz-adv-x="452" d="M135 25q-71 0 -117 -35l-16 20q179 177 270 280q-67 20 -117 20q-31 0 -47.5 -11t-34.5 -44l-10 3q19 137 52.5 194.5t98.5 57.5q26 0 57 -19.5t49 -37t48 -50.5q43 54 80 107q35 -2 56.5 -18.5t21.5 -43.5q0 -28 -18 -50.5t-59 -51.5q-185 -133 -251 -178q28 11 59 11 q33 0 85 -6t68 -6q38 0 74 70l10 -4q-10 -43 -14.5 -62.5t-14.5 -55t-19 -52.5t-22 -37t-29.5 -28t-36.5 -8q-29 0 -103.5 17.5t-119.5 17.5z" />
<glyph unicode="{" horiz-adv-x="428" d="M102 293q112 12 112 112q0 19 -6.5 61t-6.5 65q0 51 23.5 84t71 50t102.5 23.5t134 6.5l-4 -33q-52 -1 -79.5 -33t-27.5 -84q0 -19 6 -57t6 -56q0 -128 -222 -152q168 -19 168 -105q0 -33 -40 -107t-40 -108q0 -59 67 -62l-10 -33q-149 0 -211 29t-62 88q0 38 44.5 109.5 t44.5 102.5q0 62 -74 73z" />
<glyph unicode="|" horiz-adv-x="330" d="M170 -190l-83 -5l-6 8l186 877l83 5l6 -8z" />
<glyph unicode="}" horiz-adv-x="428" d="M445 267q-112 -12 -112 -112q0 -19 6.5 -61.5t6.5 -64.5q0 -51 -23.5 -84t-71 -50t-102.5 -23.5t-134 -6.5l4 33q52 1 79.5 33t27.5 84q0 19 -6 57t-6 56q0 128 222 152q-168 19 -168 105q0 33 40 107t40 108q0 59 -67 62l10 33q149 0 211 -29t62 -88q0 -38 -44.5 -109.5 t-44.5 -102.5q0 -62 74 -73z" />
<glyph unicode="~" horiz-adv-x="554" d="M199 217q-14 0 -63 -49l-65 34q101 155 167 155q30 0 115 -22t101 -22q15 0 64 49l64 -34q-22 -32 -37.5 -52.5t-39 -47.5t-46 -41t-43.5 -14q-35 0 -120 22t-97 22z" />
<glyph unicode="&#xa1;" horiz-adv-x="328" d="M147 397q0 49 41 81t96 32q44 0 70.5 -20.5t26.5 -55.5q0 -48 -42 -80t-95 -32q-45 0 -71 20t-26 55zM275 -172l-6 -10q-111 -13 -209 -13q-52 0 -52 37q0 28 35 100l155 324h70z" />
<glyph unicode="&#xa2;" horiz-adv-x="535" d="M281 -120l-43 -3l-7 6l24 108q-75 9 -125.5 59.5t-50.5 138.5q0 125 87 217t211 103l24 111l43 3l6 -6l-23 -108q69 -5 109.5 -41t40.5 -88q0 -43 -34 -71.5t-84 -28.5q-38 0 -77 13q30 105 30 141t-22 36q-31 0 -60.5 -75t-29.5 -143q0 -137 100 -137q65 0 139 62l8 -6 q-28 -72 -93 -122.5t-149 -57.5z" />
<glyph unicode="&#xa3;" horiz-adv-x="595" d="M579 14q-4 -62 -35.5 -106.5t-96.5 -44.5q-41 0 -77.5 20.5t-60 46.5t-56 57t-61.5 45q-62 -42 -112 -42q-27 0 -41 12.5t-14 32.5q0 29 24.5 51t66.5 22q31 0 79 -20q5 18 8 35.5t4 38.5t2 34.5t1.5 40.5t0.5 38h-106l11 45h98q3 56 17 114q23 100 96 163t184 63 q72 0 118.5 -27.5t46.5 -72.5q0 -38 -33.5 -64.5t-81.5 -30.5q-8 84 -18 118.5t-31 34.5t-34.5 -29.5t-37.5 -114.5l-44 -154h141l-11 -45h-147q-49 -122 -139 -205q127 -50 279 -50q27 0 60 5v-11z" />
<glyph unicode="&#xa4;" horiz-adv-x="490" d="M433 120l-42 55q-49 -33 -108 -33q-66 0 -108 36l-70 -58l-31 40l70 58q-18 33 -18 74q0 83 65 146l-43 56l44 36q25 -29 46 -56q47 28 105 28q61 0 101 -37l78 65l32 -40l-80 -65q15 -30 15 -65q0 -82 -52 -143q10 -12 43 -53l-2 -11zM327 417q-49 0 -79 -35t-30 -78 q0 -33 18.5 -55t55.5 -22q48 0 77 36t29 82q0 31 -18.5 51.5t-52.5 20.5z" />
<glyph unicode="&#xa5;" horiz-adv-x="677" d="M489 0h-326v16l34 11q27 8 34 45l12 57h-123l10 45h122l5 23q2 8 4 22h-122l10 45h116q6 98 -12 191.5t-51 93.5q-27 0 -81 -81l-12 5q24 76 77 131.5t123 55.5q93 0 132.5 -96.5t31.5 -258.5q134 355 234 355q40 0 53 -47.5t12 -128.5l-11 -6q-9 39 -19 57.5t-29 18.5 q-41 0 -103 -88t-107 -202h110l-10 -45h-117q-10 -30 -14 -45h122l-10 -45h-123l-12 -57l-7 -31l52 -25z" />
<glyph unicode="&#xa6;" horiz-adv-x="331" d="M280 325l-84 -5l-6 8l77 362l83 5l6 -8zM170 -190l-83 -5l-6 8l77 362l83 5l6 -8z" />
<glyph unicode="&#xa7;" horiz-adv-x="605" d="M589 135q0 -114 -102.5 -204.5t-257.5 -90.5q-86 0 -138 26t-52 73q0 72 94 117l10 -1q34 -100 109 -165q19 7 31.5 32.5t12.5 53.5q0 34 -18 71t-43.5 71.5t-51 71t-43.5 81t-18 89.5q0 121 108 210.5t268 89.5q77 0 125.5 -25.5t48.5 -70.5q0 -34 -25.5 -66.5 t-69.5 -53.5l-9 1q-41 96 -115 165q-42 -40 -42 -104q0 -41 28 -89t61 -86t61 -91.5t28 -104.5zM362 -86l4 -3q51 26 80 77t29 108q0 48 -27 97.5t-59 85t-59 85.5t-27 99q0 66 44 115l-4 3q-51 -26 -79 -71.5t-28 -103.5q0 -41 17.5 -80.5t42.5 -72.5t50 -65.5t42.5 -71 t17.5 -78.5q0 -72 -44 -124z" />
<glyph unicode="&#xa8;" horiz-adv-x="585" d="M266 665q0 -43 -35 -72t-83 -29q-39 0 -62 19.5t-23 52.5q0 40 36.5 70t82.5 30q39 0 61.5 -19t22.5 -52zM522 665q0 -43 -35 -72t-83 -29q-39 0 -62 19.5t-23 52.5q0 40 36.5 70t82.5 30q39 0 61.5 -19t22.5 -52z" />
<glyph unicode="&#xa9;" horiz-adv-x="618" d="M307 -10q-98 0 -158.5 57t-60.5 147q0 127 98.5 221.5t229.5 94.5q98 0 159.5 -59t61.5 -147q0 -123 -99.5 -218.5t-230.5 -95.5zM315 29q110 0 195 82.5t85 184.5q0 80 -49.5 127.5t-134.5 47.5q-111 0 -196 -81.5t-85 -188.5q0 -79 49 -125.5t136 -46.5zM482 181 q-21 -30 -60.5 -53.5t-86.5 -23.5t-78.5 31.5t-31.5 83.5q0 73 53.5 125t130.5 52q39 0 64.5 -19.5t25.5 -48.5q0 -21 -17 -34.5t-37 -13.5q-23 0 -40 10l1 8q2 9 3 19.5t1 15.5q0 25 -18 25q-21 0 -39 -32t-18 -76q0 -68 64 -68q30 0 71 13z" />
<glyph unicode="&#xaa;" horiz-adv-x="496" d="M114 395q0 106 77.5 185.5t207.5 79.5q108 0 182 -32l-20 -49l-36 -155q-10 -38 -10 -47q0 -10 7 -10q11 0 57 58l7 -3q-21 -57 -60.5 -95.5t-92.5 -38.5q-77 0 -77 81q0 23 8 55l7 28h-2q-72 -164 -162 -164q-45 0 -69 30t-24 77zM407 602l8 22q-13 11 -29 11 q-38 0 -77 -89.5t-39 -148.5q0 -30 14 -30q20 0 59 78.5t64 156.5z" />
<glyph unicode="&#xab;" horiz-adv-x="524" d="M492 52l-13 -8q-86 109 -168 193l-2 6l10 50q210 140 252 171l10 -8q-44 -84 -125 -206q21 -93 36 -198zM275 52l-13 -8q-86 109 -168 193l-2 6l10 50q210 140 252 171l10 -8q-44 -84 -125 -206q21 -93 36 -198z" />
<glyph unicode="&#xac;" horiz-adv-x="529" d="M569 425l-56 -263h-145l29 133h-294l28 132q147 6 432 6z" />
<glyph unicode="&#xae;" horiz-adv-x="618" d="M307 -10q-98 0 -158.5 57t-60.5 147q0 127 98.5 221.5t229.5 94.5q98 0 159.5 -59t61.5 -147q0 -123 -99.5 -218.5t-230.5 -95.5zM315 29q110 0 195 82.5t85 184.5q0 80 -49.5 127.5t-134.5 47.5q-111 0 -196 -81.5t-85 -188.5q0 -79 49 -125.5t136 -46.5zM325 142 l24 -11l-5 -17h-145l2 17l11 4q3 1 5 2t4 3t3 3.5t2 5t1.5 5t1.5 7t2 7.5l35 165q4 22 -5 27l-10 5l6 22h159q54 0 82.5 -18t28.5 -49q0 -58 -67 -88q5 -11 14.5 -36t17 -40.5t14.5 -21.5l3 -3l-4 -17l-74 -4q-26 -1 -35 20l-34 83h-21l-10 -45zM392 352h-22l-4 -19l-17 -80 h23q29 0 44 17.5t15 46.5q0 35 -39 35z" />
<glyph unicode="&#xaf;" horiz-adv-x="533" d="M84 591l23 106h342l-23 -106h-342z" />
<glyph unicode="&#xb0;" horiz-adv-x="323" d="M256 420q-46 0 -74.5 26.5t-28.5 71.5q0 59 43 100.5t102 41.5q47 0 74.5 -26t27.5 -69q0 -57 -40 -101t-104 -44zM287 605q-31 0 -51.5 -23.5t-20.5 -52.5q0 -25 15.5 -39.5t39.5 -14.5q29 0 48.5 23.5t19.5 52.5q0 24 -14.5 39t-36.5 15z" />
<glyph unicode="&#xb1;" horiz-adv-x="549" d="M555 352h-138l-31 -144h-147l30 144h-144l28 132q134 4 144 4l30 147h150l-31 -146q55 1 140 1l6 -8zM493 15h-430l28 132q147 6 433 6l6 -8z" />
<glyph unicode="&#xb2;" horiz-adv-x="343" d="M188 376q-32 0 -72 -11l-13 60q159 89 159 175q0 22 -12 34.5t-33 12.5q-40 0 -74 -43l-6 4q49 131 180 131q53 0 87.5 -28.5t34.5 -71.5q0 -100 -200 -166q-18 -6 -28 -9q30 2 45 2q21 0 57 -3t53 -3q25 0 43 34l7 -2q-13 -57 -25 -85q-18 -42 -48 -42q-21 0 -72 5.5 t-83 5.5z" />
<glyph unicode="&#xb3;" horiz-adv-x="319" d="M395 476q0 -52 -82 -81.5t-232 -29.5l-1 12q145 25 145 102q0 44 -47 44q-9 0 -21 -2l-4 22q46 10 71.5 30.5t25.5 45.5q0 15 -10 24t-27 9q-40 0 -70 -40l-6 4q20 55 67.5 89t108.5 34q50 0 78 -21.5t28 -54.5q0 -44 -45 -73t-120 -40q61 5 101 -16t40 -58z" />
<glyph unicode="&#xb4;" horiz-adv-x="422" d="M356 670q0 -49 -76 -80t-207 -35l-7 13q87 85 157 177q61 0 97 -20t36 -55z" />
<glyph unicode="&#xb6;" horiz-adv-x="570" d="M483 44q-22 -104 -70 -154t-134 -50q-62 0 -104.5 28t-42.5 72q0 41 32.5 69.5t78.5 37.5l6 -5q0 -6 -0.5 -19t-0.5 -20q0 -118 79 -118q80 0 108 134l119 559l7 32h-80l-90 -420q-122 0 -194.5 46.5t-72.5 131.5q0 124 100 203t265 79h176v-16l-31 -10q-19 -6 -26 -15.5 t-11 -30.5z" />
<glyph unicode="&#xb7;" horiz-adv-x="339" d="M227 238q-36 0 -57.5 20t-21.5 52q0 43 32 72.5t75 29.5q33 0 54 -19t21 -50q0 -43 -30.5 -74t-72.5 -31z" />
<glyph unicode="&#xb8;" horiz-adv-x="381" d="M119 -106l-2 6l36 100h47l-12 -33q127 -8 127 -78q0 -39 -38.5 -65t-92 -36t-117.5 -10l-1 15q95 36 95 74q0 24 -42 27z" />
<glyph unicode="&#xb9;" horiz-adv-x="263" d="M317 371h-205v9l13 6q17 5 22 26l62 269l-39 4l1 8l202 46l5 -5l-78 -322l-5 -18l25 -14z" />
<glyph unicode="&#xba;" horiz-adv-x="475" d="M555 511q0 -97 -73.5 -160.5t-177.5 -63.5q-86 0 -134.5 39.5t-48.5 110.5q0 94 74.5 158.5t178.5 64.5q84 0 132.5 -42t48.5 -107zM288 389q0 -73 22 -73q29 0 53 94t24 159q0 62 -22 62q-30 0 -53.5 -86t-23.5 -156z" />
<glyph unicode="&#xbb;" horiz-adv-x="524" d="M313 215q-210 -140 -252 -171l-10 8q44 84 125 206q-21 93 -36 198l13 8q86 -109 168 -193l2 -6zM530 215q-210 -140 -252 -171l-10 8q44 84 125 206q-21 93 -36 198l13 8q86 -109 168 -193l2 -6z" />
<glyph unicode="&#xbc;" horiz-adv-x="1000" d="M744 660h101l-539 -670h-103zM358 288h-205v9l13 6q17 5 22 26l62 269l-39 4l1 8l202 46l5 -5l-78 -322l-5 -18l25 -14zM526 123l260 245l89 -12l-46 -214l49 1l-17 -65l-45 1l-17 -79h-152l16 80l-142 2zM696 248l-114 -113l92 2z" />
<glyph unicode="&#xbd;" horiz-adv-x="1000" d="M744 660h101l-539 -670h-103zM358 288h-205v9l13 6q17 5 22 26l62 269l-39 4l1 8l202 46l5 -5l-78 -322l-5 -18l25 -14zM660 5q-32 0 -72 -11l-13 60q159 89 159 175q0 22 -12 34.5t-33 12.5q-40 0 -74 -43l-6 4q49 131 180 131q53 0 87.5 -28.5t34.5 -71.5 q0 -100 -200 -166q-18 -6 -28 -9q30 2 45 2q21 0 57 -3t53 -3q25 0 43 34l7 -2q-13 -57 -25 -85q-18 -42 -48 -42q-21 0 -72 5.5t-83 5.5z" />
<glyph unicode="&#xbe;" horiz-adv-x="1000" d="M744 660h101l-539 -670h-103zM415 393q0 -52 -82 -81.5t-232 -29.5l-1 12q145 25 145 102q0 44 -47 44q-9 0 -21 -2l-4 22q46 10 71.5 30.5t25.5 45.5q0 15 -10 24t-27 9q-40 0 -70 -40l-6 4q20 55 67.5 89t108.5 34q50 0 78 -21.5t28 -54.5q0 -44 -45 -73t-120 -40 q61 5 101 -16t40 -58zM526 123l260 245l89 -12l-46 -214l49 1l-17 -65l-45 1l-17 -79h-152l16 80l-142 2zM696 248l-114 -113l92 2z" />
<glyph unicode="&#xbf;" horiz-adv-x="609" d="M283 397q0 49 41 81t96 32q44 0 70.5 -20.5t26.5 -55.5q0 -48 -42 -80t-95 -32q-45 0 -71 20t-26 55zM279 -195q-116 0 -184 41t-68 117q0 47 29.5 86.5t71.5 64.5t84 45t71.5 38.5t29.5 35.5q0 19 -25 28l3 10q24 3 45 3q97 0 97 -64q0 -27 -19 -56t-46.5 -55t-55 -54 t-46.5 -64.5t-19 -75.5q0 -27 13 -43.5t39 -16.5q46 0 72 49.5t26 118.5q0 27 -2 41q38 16 87 16q115 0 115 -79q0 -73 -96.5 -129.5t-221.5 -56.5z" />
<glyph unicode="&#xc0;" horiz-adv-x="698" d="M638 713l-10 -11q-115 14 -177 45t-62 75q0 38 32.5 57t84.5 19q20 0 40 -2q35 -86 92 -183zM424 650h115l101 -572q5 -34 35 -49l26 -13l-5 -16h-353l1 16l68 25l-17 123l-207 -2l-71 -123l63 -23l-5 -16h-173l1 16l34 11q21 7 32 18.5t27 38.5zM212 203l178 -2l-34 250 z" />
<glyph unicode="&#xc1;" horiz-adv-x="698" d="M659 821q0 -49 -76 -80t-207 -35l-7 13q87 85 157 177q61 0 97 -20t36 -55zM424 650h115l101 -572q5 -34 35 -49l26 -13l-5 -16h-353l1 16l68 25l-17 123l-207 -2l-71 -123l63 -23l-5 -16h-173l1 16l34 11q21 7 32 18.5t27 38.5zM212 203l178 -2l-34 250z" />
<glyph unicode="&#xc2;" horiz-adv-x="698" d="M662 718l-11 -7q-70 35 -142 60q-22 -8 -170 -60l-7 8q72 90 122 161l13 8h141q27 -66 54 -170zM424 650h115l101 -572q5 -34 35 -49l26 -13l-5 -16h-353l1 16l68 25l-17 123l-207 -2l-71 -123l63 -23l-5 -16h-173l1 16l34 11q21 7 32 18.5t27 38.5zM212 203l178 -2 l-34 250z" />
<glyph unicode="&#xc3;" horiz-adv-x="698" d="M636 831q11 9 34.5 26.5t35.5 26.5l9 -3q-5 -70 -45 -118t-104 -48q-10 0 -20.5 1t-19.5 2.5t-20 4.5t-18 4.5t-18.5 6t-17 6.5t-17 7.5t-15 7t-15 7t-13.5 6.5q-12 -9 -35.5 -26.5t-34.5 -26.5l-9 3q5 73 45 119.5t104 46.5q30 0 59 -8.5t65.5 -24t49.5 -20.5zM424 650 h115l101 -572q5 -34 35 -49l26 -13l-5 -16h-353l1 16l68 25l-17 123l-207 -2l-71 -123l63 -23l-5 -16h-173l1 16l34 11q21 7 32 18.5t27 38.5zM212 203l178 -2l-34 250z" />
<glyph unicode="&#xc4;" horiz-adv-x="698" d="M487 815q0 -43 -35 -72t-83 -29q-39 0 -62 19.5t-23 52.5q0 40 36.5 70t82.5 30q39 0 61.5 -19t22.5 -52zM743 815q0 -43 -35 -72t-83 -29q-39 0 -62 19.5t-23 52.5q0 40 36.5 70t82.5 30q39 0 61.5 -19t22.5 -52zM424 650h115l101 -572q5 -34 35 -49l26 -13l-5 -16h-353 l1 16l68 25l-17 123l-207 -2l-71 -123l63 -23l-5 -16h-173l1 16l34 11q21 7 32 18.5t27 38.5zM212 203l178 -2l-34 250z" />
<glyph unicode="&#xc5;" horiz-adv-x="698" d="M627 816q0 -47 -39 -79.5t-95 -32.5q-42 0 -66.5 21t-24.5 58q0 48 39 80t95 32q42 0 66.5 -21t24.5 -58zM475 786q0 -35 29 -35q21 0 35.5 18t14.5 45q0 34 -29 34q-21 0 -35.5 -18t-14.5 -44zM424 650h115l101 -572q5 -34 35 -49l26 -13l-5 -16h-353l1 16l68 25 l-17 123l-207 -2l-71 -123l63 -23l-5 -16h-173l1 16l34 11q21 7 32 18.5t27 38.5zM212 203l178 -2l-34 250z" />
<glyph unicode="&#xc6;" horiz-adv-x="897" d="M180 16l-5 -16h-173l1 16l34 11q21 7 32 18.5t27 38.5l305 526l-66 24l5 16h649q0 -49 -18.5 -111t-44.5 -103h-10l-87 174h-97l-57 -270l158 12l-14 -65l-153 13l-48 -228l-7 -32h103l164 181h10q5 -27 5 -51q0 -77 -34 -170h-526l-1 16l40 13q23 8 28 43l49 229 l-181 -2l-151 -260zM515 610h-67l-157 -270l166 -2z" />
<glyph unicode="&#xc7;" horiz-adv-x="646" d="M351 -106l-2 6l33 91q-134 7 -213.5 78t-79.5 195q0 173 125.5 284.5t315.5 111.5q128 0 186 -34q-7 -51 -27.5 -112t-47.5 -105h-10l-78 211h-8q-87 0 -154.5 -108.5t-66.5 -256.5q1 -101 35 -163t89 -62q6 0 9 1l165 205h10q8 -27 8 -67q0 -88 -27 -153 q-74 -25 -184 -26l-9 -23q127 -8 127 -78q0 -39 -38.5 -65t-92 -36t-117.5 -10l-1 15q95 36 95 74q0 24 -42 27z" />
<glyph unicode="&#xc8;" horiz-adv-x="594" d="M616 713l-10 -11q-115 14 -177 45t-62 75q0 38 32.5 57t84.5 19q20 0 40 -2q35 -86 92 -183zM556 0h-526l-1 16l40 13q23 8 28 43l107 506l7 31l-52 25l4 16h522q0 -49 -18.5 -111t-44.5 -103h-10l-87 174h-96l-7 -32l-50 -235l160 12l-14 -65l-154 13l-49 -231l-7 -32 h103l164 181h10q5 -27 5 -51q0 -77 -34 -170z" />
<glyph unicode="&#xc9;" horiz-adv-x="594" d="M637 821q0 -49 -76 -80t-207 -35l-7 13q87 85 157 177q61 0 97 -20t36 -55zM556 0h-526l-1 16l40 13q23 8 28 43l107 507l7 31l-52 25l4 16h522q0 -49 -18.5 -111.5t-44.5 -103.5h-10l-87 175h-96l-7 -32l-50 -236l160 12l-14 -65l-154 13l-49 -231l-7 -32h103l164 181 h10q5 -27 5 -51q0 -77 -34 -170z" />
<glyph unicode="&#xca;" horiz-adv-x="594" d="M640 718l-11 -7q-70 35 -142 60q-22 -8 -170 -60l-7 8q72 90 122 161l13 8h141q27 -66 54 -170zM556 0h-526l-1 16l40 13q23 8 28 43l107 506l7 31l-52 25l4 16h522q0 -49 -18.5 -111t-44.5 -103h-10l-87 174h-96l-7 -32l-50 -235l160 12l-14 -65l-154 13l-49 -231 l-7 -32h103l164 181h10q5 -27 5 -51q0 -77 -34 -170z" />
<glyph unicode="&#xcb;" horiz-adv-x="594" d="M465 815q0 -43 -35 -72t-83 -29q-39 0 -62 19.5t-23 52.5q0 40 36.5 70t82.5 30q39 0 61.5 -19t22.5 -52zM721 815q0 -43 -35 -72t-83 -29q-39 0 -62 19.5t-23 52.5q0 40 36.5 70t82.5 30q39 0 61.5 -19t22.5 -52zM556 0h-526l-1 16l40 13q23 8 28 43l107 506l7 31 l-52 25l4 16h522q0 -49 -18.5 -111t-44.5 -103h-10l-87 174h-96l-7 -32l-50 -235l160 12l-14 -65l-154 13l-49 -231l-7 -32h103l164 181h10q5 -27 5 -51q0 -77 -34 -170z" />
<glyph unicode="&#xcc;" horiz-adv-x="381" d="M485 713l-10 -11q-115 14 -177 45t-62 75q0 38 32.5 57t84.5 19q20 0 40 -2q35 -86 92 -183zM355 0h-326v16l34 11q27 8 34 45l107 506l7 31l-52 25l5 16h326v-16l-34 -11q-27 -8 -34 -45l-107 -506l-7 -31l52 -25z" />
<glyph unicode="&#xcd;" horiz-adv-x="381" d="M506 821q0 -49 -76 -80t-207 -35l-7 13q87 85 157 177q61 0 97 -20t36 -55zM355 0h-326v16l34 11q27 8 34 45l107 506l7 31l-52 25l5 16h326v-16l-34 -11q-27 -8 -34 -45l-107 -506l-7 -31l52 -25z" />
<glyph unicode="&#xce;" horiz-adv-x="381" d="M509 718l-11 -7q-70 35 -142 60q-22 -8 -170 -60l-7 8q72 90 122 161l13 8h141q27 -66 54 -170zM355 0h-326v16l34 11q27 8 34 45l107 506l7 31l-52 25l5 16h326v-16l-34 -11q-27 -8 -34 -45l-107 -506l-7 -31l52 -25z" />
<glyph unicode="&#xcf;" horiz-adv-x="381" d="M334 815q0 -43 -35 -72t-83 -29q-39 0 -62 19.5t-23 52.5q0 40 36.5 70t82.5 30q39 0 61.5 -19t22.5 -52zM590 815q0 -43 -35 -72t-83 -29q-39 0 -62 19.5t-23 52.5q0 40 36.5 70t82.5 30q39 0 61.5 -19t22.5 -52zM355 0h-326v16l34 11q27 8 34 45l107 506l7 31l-52 25 l5 16h326v-16l-34 -11q-27 -8 -34 -45l-107 -506l-7 -31l52 -25z" />
<glyph unicode="&#xd0;" horiz-adv-x="725" d="M336 0h-307l-1 16l40 13q23 8 28 43l51 240h-57l8 35h57l49 231l7 31l-52 25l4 16h307q146 0 227 -61t81 -182q0 -177 -123 -292t-319 -115zM462 312h-97l-51 -240l-7 -32h30q52 0 97 40.5t72.5 101.5t43 128.5t15.5 126.5q0 173 -111 173h-25l-7 -32l-49 -231h97z" />
<glyph unicode="&#xd1;" horiz-adv-x="675" d="M629 831q12 9 35.5 26.5t34.5 26.5l9 -3q-5 -70 -45 -118t-104 -48q-10 0 -20.5 1t-19.5 2.5t-20 4.5t-18 4.5t-18.5 6t-17 6.5t-17 7.5t-15 7t-15 7t-13.5 6.5q-11 -9 -35 -26.5t-35 -26.5l-9 3q5 73 45 119.5t104 46.5q30 0 59 -8.5t65.5 -24t49.5 -20.5zM217 1h-197 v16l50 15q19 6 25.5 14t10.5 27l114 536l-68 25l5 16h207l225 -421l74 349l7 31l-78 25l5 16h197v-16l-50 -15q-19 -6 -25.5 -14t-10.5 -27l-123 -578h-135l-223 431l-76 -358l-7 -31l78 -25z" />
<glyph unicode="&#xd2;" horiz-adv-x="727" d="M658 713l-10 -11q-115 14 -177 45t-62 75q0 38 32.5 57t84.5 19q20 0 40 -2q35 -86 92 -183zM778 400q0 -173 -119 -291.5t-288 -118.5q-134 0 -209.5 70.5t-75.5 184.5q0 177 120.5 296t289.5 119q132 0 207 -70t75 -190zM321 124q0 -94 50 -94q40 0 81 85.5t66 203 t25 214.5q0 87 -49 87q-41 0 -82.5 -83t-66 -199t-24.5 -214z" />
<glyph unicode="&#xd3;" horiz-adv-x="727" d="M677 821q0 -49 -76 -80t-207 -35l-7 13q87 85 157 177q61 0 97 -20t36 -55zM778 400q0 -173 -119 -291.5t-288 -118.5q-134 0 -209.5 70.5t-75.5 184.5q0 177 120.5 296t289.5 119q132 0 207 -70t75 -190zM321 124q0 -94 50 -94q40 0 81 85.5t66 203t25 214.5 q0 87 -49 87q-41 0 -82.5 -83t-66 -199t-24.5 -214z" />
<glyph unicode="&#xd4;" horiz-adv-x="727" d="M680 718l-11 -7q-70 35 -142 60q-22 -8 -170 -60l-7 8q72 90 122 161l13 8h141q27 -66 54 -170zM778 400q0 -173 -119 -291.5t-288 -118.5q-134 0 -209.5 70.5t-75.5 184.5q0 177 120.5 296t289.5 119q132 0 207 -70t75 -190zM321 124q0 -94 50 -94q40 0 81 85.5t66 203 t25 214.5q0 87 -49 87q-41 0 -82.5 -83t-66 -199t-24.5 -214z" />
<glyph unicode="&#xd5;" horiz-adv-x="727" d="M654 831q12 9 35.5 26.5t34.5 26.5l9 -3q-5 -70 -45 -118t-104 -48q-10 0 -20.5 1t-19.5 2.5t-20 4.5t-18 4.5t-18.5 6t-17 6.5t-17 7.5t-15 7t-15 7t-13.5 6.5q-12 -9 -35.5 -26.5t-34.5 -26.5l-9 3q5 73 45 119.5t104 46.5q30 0 59 -8.5t65.5 -24t49.5 -20.5zM778 400 q0 -173 -119 -291.5t-288 -118.5q-134 0 -209.5 70.5t-75.5 184.5q0 177 120.5 296t289.5 119q132 0 207 -70t75 -190zM321 124q0 -94 50 -94q40 0 81 85.5t66 203t25 214.5q0 87 -49 87q-41 0 -82.5 -83t-66 -199t-24.5 -214z" />
<glyph unicode="&#xd6;" horiz-adv-x="727" d="M505 815q0 -43 -35 -72t-83 -29q-39 0 -62 19.5t-23 52.5q0 40 36.5 70t82.5 30q39 0 61.5 -19t22.5 -52zM761 815q0 -43 -35 -72t-83 -29q-39 0 -62 19.5t-23 52.5q0 40 36.5 70t82.5 30q39 0 61.5 -19t22.5 -52zM778 400q0 -173 -119 -291.5t-288 -118.5 q-134 0 -209.5 70.5t-75.5 184.5q0 177 120.5 296t289.5 119q132 0 207 -70t75 -190zM321 124q0 -94 50 -94q40 0 81 85.5t66 203t25 214.5q0 87 -49 87q-41 0 -82.5 -83t-66 -199t-24.5 -214z" />
<glyph unicode="&#xd7;" horiz-adv-x="467" d="M370 114l-88 113l-139 -114l-77 98l138 115l-90 116l116 96q36 -40 93 -112l135 112l80 -100l-135 -111q17 -22 89 -113l-2 -12z" />
<glyph unicode="&#xd8;" horiz-adv-x="727" d="M778 400q0 -173 -119 -291.5t-288 -118.5q-123 0 -199 62l-67 -62l-33 36l65 61q-51 65 -51 158q0 177 120.5 296t289.5 119q118 0 193 -58l62 58l35 -36l-61 -57q53 -67 53 -167zM494 620q-48 0 -93.5 -106t-66.5 -244l206 193q3 36 3 70q0 87 -49 87zM321 124 q0 -94 50 -94q46 0 91.5 108.5t67.5 247.5l-206 -192q-3 -36 -3 -70z" />
<glyph unicode="&#xd9;" horiz-adv-x="685" d="M684 713l-10 -11q-115 14 -177 45t-62 75q0 38 32.5 57t84.5 19q20 0 40 -2q35 -86 92 -183zM164 650h326v-16l-34 -11q-27 -8 -34 -45l-72 -338q-8 -40 -8 -68q0 -58 28 -88.5t79 -30.5q122 0 161 187l72 338l7 32l-69 24l5 16h187v-16l-79 -24l-7 -32l-72 -338 q-28 -131 -94 -190.5t-185 -59.5t-183 56t-64 149q0 27 6 55l70 328l7 31l-52 25z" />
<glyph unicode="&#xda;" horiz-adv-x="685" d="M705 821q0 -49 -76 -80t-207 -35l-7 13q87 85 157 177q61 0 97 -20t36 -55zM164 650h326v-16l-34 -11q-27 -8 -34 -45l-72 -338q-8 -40 -8 -68q0 -58 28 -88.5t79 -30.5q122 0 161 187l72 338l7 32l-69 24l5 16h187v-16l-79 -24l-7 -32l-72 -338q-28 -131 -94 -190.5 t-185 -59.5t-183 56t-64 149q0 27 6 55l70 328l7 31l-52 25z" />
<glyph unicode="&#xdb;" horiz-adv-x="685" d="M708 718l-11 -7q-70 35 -142 60q-23 -8 -170 -60l-7 8q72 90 122 161l13 8h141q27 -66 54 -170zM164 650h326v-16l-34 -11q-27 -8 -34 -45l-72 -338q-8 -40 -8 -68q0 -58 28 -88.5t79 -30.5q122 0 161 187l72 338l7 32l-69 24l5 16h187v-16l-79 -24l-7 -32l-72 -338 q-28 -131 -94 -190.5t-185 -59.5t-183 56t-64 149q0 27 6 55l70 328l7 31l-52 25z" />
<glyph unicode="&#xdc;" horiz-adv-x="685" d="M533 815q0 -43 -35 -72t-83 -29q-39 0 -62 19.5t-23 52.5q0 40 36.5 70t82.5 30q39 0 61.5 -19t22.5 -52zM789 815q0 -43 -35 -72t-83 -29q-39 0 -62 19.5t-23 52.5q0 40 36.5 70t82.5 30q39 0 61.5 -19t22.5 -52zM164 650h326v-16l-34 -11q-27 -8 -34 -45l-72 -338 q-8 -40 -8 -68q0 -58 28 -88.5t79 -30.5q122 0 161 187l72 338l7 32l-69 24l5 16h187v-16l-79 -24l-7 -32l-72 -338q-28 -131 -94 -190.5t-185 -59.5t-183 56t-64 149q0 27 6 55l70 328l7 31l-52 25z" />
<glyph unicode="&#xdd;" horiz-adv-x="605" d="M636 821q0 -49 -76 -80t-207 -35l-7 13q87 85 157 177q61 0 97 -20t36 -55zM465 0h-326v16l34 11q27 8 34 45l26 125q20 82 2.5 217t-57.5 135q-27 0 -81 -81l-12 5q24 76 77 131.5t123 55.5q93 0 132.5 -96.5t31.5 -258.5q134 355 234 355q40 0 53 -47.5t12 -128.5 l-11 -6q-9 39 -19 57.5t-29 18.5q-36 0 -88.5 -68t-98 -166t-63.5 -182l-14 -66l-7 -31l52 -25z" />
<glyph unicode="&#xde;" horiz-adv-x="665" d="M386 16l-5 -16h-354l1 16l32 10q18 6 25 15.5t11 30.5l108 506l7 31l-52 25l5 16h326v-16l-34 -11q-27 -8 -34 -45l-9 -40h36q130 0 200.5 -45.5t70.5 -136.5q0 -103 -96 -170.5t-248 -67.5h-52l-10 -46l-6 -31zM425 498h-20l-73 -340h22q67 0 106.5 73t39.5 162 q0 50 -19.5 77.5t-55.5 27.5z" />
<glyph unicode="&#xdf;" horiz-adv-x="626" d="M278 74q-27 -131 -109 -200t-188 -69q-58 0 -95 23t-37 57q0 58 87 70q15 -77 43 -77q25 0 44.5 40.5t38.5 130.5l74 346q27 146 114 223t230 77q83 0 132.5 -37t49.5 -102q0 -60 -46 -102t-127 -58q91 -32 130.5 -81t39.5 -118q0 -93 -62.5 -150t-156.5 -57 q-56 0 -89 21t-33 58q0 46 48 59q6 -63 36 -63q24 0 38.5 37.5t14.5 100.5q0 127 -65 180l6 29q40 8 66.5 58t26.5 109q0 70 -35 70q-25 0 -50 -46t-43 -137z" />
<glyph unicode="&#xe0;" horiz-adv-x="624" d="M570 562l-10 -11q-115 14 -177 45t-62 75q0 38 32.5 57t84.5 19q20 0 40 -2q35 -86 92 -183zM62 140q0 95 42.5 178t129 137.5t200.5 54.5q139 0 238 -44l-26 -69l-48 -217q-13 -52 -13 -65q0 -14 10 -14q12 0 69 75q3 4 5 6l9 -5q-27 -80 -79 -133.5t-121 -53.5 q-49 0 -74.5 29.5t-25.5 83.5q0 30 10 77l10 40h-3q-96 -230 -212 -230q-58 0 -89.5 42.5t-31.5 107.5zM445 429l10 31q-18 15 -38 15q-34 0 -70.5 -63.5t-58.5 -141.5t-22 -128q0 -41 18 -41q26 0 76.5 108.5t84.5 219.5z" />
<glyph unicode="&#xe1;" horiz-adv-x="624" d="M595 670q0 -49 -76 -80t-207 -35l-7 13q87 85 157 177q61 0 97 -20t36 -55zM62 140q0 95 42.5 178t129 137.5t200.5 54.5q139 0 238 -44l-26 -69l-48 -217q-13 -52 -13 -65q0 -14 10 -14q12 0 69 75q3 4 5 6l9 -5q-27 -80 -79 -133.5t-121 -53.5q-49 0 -74.5 29.5 t-25.5 83.5q0 30 10 77l10 40h-3q-96 -230 -212 -230q-58 0 -89.5 42.5t-31.5 107.5zM445 429l10 31q-18 15 -38 15q-34 0 -70.5 -63.5t-58.5 -141.5t-22 -128q0 -41 18 -41q26 0 76.5 108.5t84.5 219.5z" />
<glyph unicode="&#xe2;" horiz-adv-x="624" d="M602 568l-11 -7q-70 35 -142 60q-22 -8 -170 -60l-7 8q72 90 122 161l13 8h141q27 -66 54 -170zM62 140q0 95 42.5 178t129 137.5t200.5 54.5q139 0 238 -44l-26 -69l-48 -217q-13 -52 -13 -65q0 -14 10 -14q12 0 69 75q3 4 5 6l9 -5q-27 -80 -79 -133.5t-121 -53.5 q-49 0 -74.5 29.5t-25.5 83.5q0 30 10 77l10 40h-3q-96 -230 -212 -230q-58 0 -89.5 42.5t-31.5 107.5zM445 429l10 31q-18 15 -38 15q-34 0 -70.5 -63.5t-58.5 -141.5t-22 -128q0 -41 18 -41q26 0 76.5 108.5t84.5 219.5z" />
<glyph unicode="&#xe3;" horiz-adv-x="624" d="M568 681q12 9 35.5 26.5t34.5 26.5l9 -3q-5 -70 -45 -118t-104 -48q-10 0 -20.5 1t-19.5 2.5t-20 4.5t-18 4.5t-18.5 6t-17 6.5t-17 7.5t-15 7t-15 7t-13.5 6.5q-11 -9 -35 -26.5t-35 -26.5l-9 3q5 73 45 119.5t104 46.5q30 0 59 -8.5t65.5 -24t49.5 -20.5zM62 140 q0 95 42.5 178t129 137.5t200.5 54.5q139 0 238 -44l-26 -69l-48 -217q-13 -52 -13 -65q0 -14 10 -14q12 0 69 75q3 4 5 6l9 -5q-27 -80 -79 -133.5t-121 -53.5q-49 0 -74.5 29.5t-25.5 83.5q0 30 10 77l10 40h-3q-96 -230 -212 -230q-58 0 -89.5 42.5t-31.5 107.5zM445 429 l10 31q-18 15 -38 15q-34 0 -70.5 -63.5t-58.5 -141.5t-22 -128q0 -41 18 -41q26 0 76.5 108.5t84.5 219.5z" />
<glyph unicode="&#xe4;" horiz-adv-x="624" d="M421 665q0 -43 -35 -72t-83 -29q-39 0 -62 19.5t-23 52.5q0 40 36.5 70t82.5 30q39 0 61.5 -19t22.5 -52zM677 665q0 -43 -35 -72t-83 -29q-39 0 -62 19.5t-23 52.5q0 40 36.5 70t82.5 30q39 0 61.5 -19t22.5 -52zM62 140q0 95 42.5 178t129 137.5t200.5 54.5 q139 0 238 -44l-26 -69l-48 -217q-13 -52 -13 -65q0 -14 10 -14q12 0 69 75q3 4 5 6l9 -5q-27 -80 -79 -133.5t-121 -53.5q-49 0 -74.5 29.5t-25.5 83.5q0 30 10 77l10 40h-3q-96 -230 -212 -230q-58 0 -89.5 42.5t-31.5 107.5zM445 429l10 31q-18 15 -38 15 q-34 0 -70.5 -63.5t-58.5 -141.5t-22 -128q0 -41 18 -41q26 0 76.5 108.5t84.5 219.5z" />
<glyph unicode="&#xe5;" horiz-adv-x="624" d="M558 666q0 -47 -39 -79.5t-95 -32.5q-42 0 -66.5 21t-24.5 58q0 48 39 80t95 32q42 0 66.5 -21t24.5 -58zM406 636q0 -35 29 -35q21 0 35.5 18t14.5 45q0 34 -29 34q-21 0 -35.5 -18t-14.5 -44zM62 140q0 95 42.5 178t129 137.5t200.5 54.5q139 0 238 -44l-26 -69 l-48 -217q-13 -52 -13 -65q0 -14 10 -14q12 0 69 75q3 4 5 6l9 -5q-27 -80 -79 -133.5t-121 -53.5q-49 0 -74.5 29.5t-25.5 83.5q0 30 10 77l10 40h-3q-96 -230 -212 -230q-58 0 -89.5 42.5t-31.5 107.5zM445 429l10 31q-18 15 -38 15q-34 0 -70.5 -63.5t-58.5 -141.5 t-22 -128q0 -41 18 -41q26 0 76.5 108.5t84.5 219.5z" />
<glyph unicode="&#xe6;" horiz-adv-x="811" d="M859 171q-29 -82 -101.5 -131.5t-156.5 -49.5q-95 0 -152 54t-57 144q0 19 1 29q-94 -227 -210 -227q-58 0 -89.5 42.5t-31.5 107.5q0 95 42.5 178t129 137.5t200.5 54.5q88 0 166 -20q54 20 113 20q76 0 126 -34t50 -97q0 -72 -69.5 -118.5t-205.5 -50.5q12 -95 96 -95 q71 0 141 62zM284 101q26 0 76.5 108.5t84.5 219.5l10 31q-18 15 -38 15q-34 0 -70.5 -63.5t-58.5 -141.5t-22 -128q0 -41 18 -41zM646 397l-5 -4q-29 -75 -29 -151q47 14 79.5 73.5t32.5 126.5q0 28 -22 28q-21 0 -42 -37z" />
<glyph unicode="&#xe7;" horiz-adv-x="519" d="M215 -106l-2 6l33 92q-74 8 -124.5 58.5t-50.5 138.5q0 133 96.5 227t228.5 94q79 0 126 -36.5t47 -93.5q0 -43 -34 -71.5t-84 -28.5q-38 0 -77 13q30 105 30 141t-22 36q-31 0 -60.5 -75t-29.5 -143q0 -137 100 -137q65 0 139 62l8 -6q-28 -73 -94.5 -123.5 t-151.5 -56.5l-9 -24q127 -8 127 -78q0 -39 -38.5 -65t-92 -36t-117.5 -10l-1 15q95 36 95 74q0 24 -42 27z" />
<glyph unicode="&#xe8;" horiz-adv-x="520" d="M539 562l-10 -11q-115 14 -177 45t-62 75q0 38 32.5 57t84.5 19q20 0 40 -2q35 -86 92 -183zM538 171q-29 -82 -101.5 -131.5t-156.5 -49.5q-95 0 -152 54t-57 144q0 133 93.5 227.5t227.5 94.5q76 0 126 -34t50 -97q0 -72 -69.5 -118.5t-205.5 -50.5q12 -95 96 -95 q71 0 141 62zM381 470q-31 0 -60.5 -75t-29.5 -153q47 14 79.5 73.5t32.5 126.5q0 28 -22 28z" />
<glyph unicode="&#xe9;" horiz-adv-x="520" d="M564 670q0 -49 -76 -80t-207 -35l-7 13q87 85 157 177q61 0 97 -20t36 -55zM538 171q-29 -82 -101.5 -131.5t-156.5 -49.5q-95 0 -152 54t-57 144q0 133 93.5 227.5t227.5 94.5q76 0 126 -34t50 -97q0 -72 -69.5 -118.5t-205.5 -50.5q12 -95 96 -95q71 0 141 62zM381 470 q-31 0 -60.5 -75t-29.5 -153q47 14 79.5 73.5t32.5 126.5q0 28 -22 28z" />
<glyph unicode="&#xea;" horiz-adv-x="520" d="M571 568l-11 -7q-70 35 -142 60q-22 -8 -170 -60l-7 8q72 90 122 161l13 8h141q27 -66 54 -170zM538 171q-29 -82 -101.5 -131.5t-156.5 -49.5q-95 0 -152 54t-57 144q0 133 93.5 227.5t227.5 94.5q76 0 126 -34t50 -97q0 -72 -69.5 -118.5t-205.5 -50.5q12 -95 96 -95 q71 0 141 62zM381 470q-31 0 -60.5 -75t-29.5 -153q47 14 79.5 73.5t32.5 126.5q0 28 -22 28z" />
<glyph unicode="&#xeb;" horiz-adv-x="519" d="M390 665q0 -43 -35 -72t-83 -29q-39 0 -62 19.5t-23 52.5q0 40 36.5 70t82.5 30q39 0 61.5 -19t22.5 -52zM646 665q0 -43 -35 -72t-83 -29q-39 0 -62 19.5t-23 52.5q0 40 36.5 70t82.5 30q39 0 61.5 -19t22.5 -52zM538 171q-29 -82 -101.5 -131.5t-156.5 -49.5 q-95 0 -152 54t-57 144q0 133 93.5 227.5t227.5 94.5q76 0 126 -34t50 -97q0 -72 -69.5 -118.5t-205.5 -50.5q12 -95 96 -95q71 0 141 62zM381 470q-31 0 -60.5 -75t-29.5 -153q47 14 79.5 73.5t32.5 126.5q0 28 -22 28z" />
<glyph unicode="&#xec;" horiz-adv-x="334" d="M422 562l-10 -11q-115 14 -177 45t-62 75q0 38 32.5 57t84.5 19q20 0 40 -2q35 -86 92 -183zM98 180q4 17 35 140q13 52 13 65q0 14 -10 14q-12 0 -69 -75q-3 -4 -5 -6l-9 5q27 80 79 133.5t121 53.5q49 0 74.5 -29.5t25.5 -83.5q0 -30 -10 -77q-10 -46 -35 -140 q-13 -52 -13 -65q0 -14 10 -14q12 0 69 75q3 4 5 6l9 -5q-27 -80 -79 -133.5t-121 -53.5q-49 0 -74.5 29.5t-25.5 83.5q0 30 10 77z" />
<glyph unicode="&#xed;" horiz-adv-x="334" d="M447 670q0 -49 -76 -80t-207 -35l-7 13q87 85 157 177q61 0 97 -20t36 -55zM98 180q4 17 35 140q13 52 13 65q0 14 -10 14q-12 0 -69 -75q-3 -4 -5 -6l-9 5q27 80 79 133.5t121 53.5q49 0 74.5 -29.5t25.5 -83.5q0 -30 -10 -77q-10 -46 -35 -140q-13 -52 -13 -65 q0 -14 10 -14q12 0 69 75q3 4 5 6l9 -5q-27 -80 -79 -133.5t-121 -53.5q-49 0 -74.5 29.5t-25.5 83.5q0 30 10 77z" />
<glyph unicode="&#xee;" horiz-adv-x="334" d="M427 568l-11 -7q-65 35 -123 58q-25 -9 -76 -29t-73 -29l-7 8q56 84 102 161l13 8h141q14 -55 34 -170zM98 180q4 17 35 140q13 52 13 65q0 14 -10 14q-12 0 -69 -75q-3 -4 -5 -6l-9 5q27 80 79 133.5t121 53.5q49 0 74.5 -29.5t25.5 -83.5q0 -30 -10 -77 q-10 -46 -35 -140q-13 -52 -13 -65q0 -14 10 -14q12 0 69 75q3 4 5 6l9 -5q-27 -80 -79 -133.5t-121 -53.5q-49 0 -74.5 29.5t-25.5 83.5q0 30 10 77z" />
<glyph unicode="&#xef;" horiz-adv-x="334" d="M273 664q0 -39 -28 -69t-66 -30q-30 0 -47.5 19.5t-17.5 52.5q0 39 28 68.5t67 29.5q29 0 46.5 -19t17.5 -52zM484 664q0 -39 -28 -69t-66 -30q-30 0 -47.5 19.5t-17.5 52.5q0 39 28 68.5t67 29.5q29 0 46.5 -19t17.5 -52zM98 180q4 17 35 140q13 52 13 65q0 14 -10 14 q-12 0 -69 -75q-3 -4 -5 -6l-9 5q27 80 79 133.5t121 53.5q49 0 74.5 -29.5t25.5 -83.5q0 -30 -10 -77q-10 -46 -35 -140q-13 -52 -13 -65q0 -14 10 -14q12 0 69 75q3 4 5 6l9 -5q-27 -80 -79 -133.5t-121 -53.5q-49 0 -74.5 29.5t-25.5 83.5q0 30 10 77z" />
<glyph unicode="&#xf0;" horiz-adv-x="604" d="M645 670l-113 -36q111 -106 111 -292q0 -155 -94 -254t-236 -99q-113 0 -176 53.5t-63 156.5q0 131 91.5 221t218.5 90q19 0 37 -3q-8 50 -23 84l-187 -61l-12 36l182 58q-40 66 -129 124l7 12q151 -30 239 -98l136 44zM292 131q0 -101 29 -101q38 0 69 131t31 222 q0 87 -29 87q-39 0 -69.5 -120.5t-30.5 -218.5z" />
<glyph unicode="&#xf1;" horiz-adv-x="634" d="M567 681q12 9 35.5 26.5t34.5 26.5l9 -3q-5 -70 -45 -118t-104 -48q-10 0 -20.5 1t-19.5 2.5t-20 4.5t-18 4.5t-18.5 6t-17 6.5t-17 7.5t-15 7t-15 7t-13.5 6.5q-12 -9 -35.5 -26.5t-34.5 -26.5l-9 3q5 73 45 119.5t104 46.5q30 0 59 -8.5t65.5 -24t49.5 -20.5zM276 0 q-133 -7 -192 -7q-21 0 -16 17l36 170l22 101l7 33q13 64 13 72q0 13 -8 13q-5 0 -12 -5.5t-19.5 -20.5t-19 -23t-24.5 -32l-10 5q24 80 73.5 133.5t118.5 53.5q44 0 70.5 -24.5t26.5 -70.5q0 -52 -24 -134h3q96 229 231 229q47 0 75 -27.5t28 -73.5q0 -56 -47 -229 q-13 -52 -13 -65q0 -14 10 -14q12 0 69 75q3 4 5 6l9 -5q-27 -80 -79 -133.5t-121 -53.5q-49 0 -74.5 29.5t-25.5 83.5q0 30 10 77q6 29 17.5 71.5t18.5 72.5t7 46q0 17 -13 17q-22 0 -57.5 -63t-56.5 -144z" />
<glyph unicode="&#xf2;" horiz-adv-x="607" d="M564 562l-10 -11q-115 14 -177 45t-62 75q0 38 32.5 57t84.5 19q20 0 40 -2q35 -86 92 -183zM640 302q0 -135 -96 -224t-232 -89q-112 0 -175.5 55.5t-63.5 154.5q0 131 97 221t233 90q111 0 174 -59t63 -149zM291 131q0 -101 29 -101q38 0 69 131t31 222q0 87 -29 87 q-39 0 -69.5 -120.5t-30.5 -218.5z" />
<glyph unicode="&#xf3;" horiz-adv-x="607" d="M589 670q0 -49 -76 -80t-207 -35l-7 13q87 85 157 177q61 0 97 -20t36 -55zM640 302q0 -135 -96 -224t-232 -89q-112 0 -175.5 55.5t-63.5 154.5q0 131 97 221t233 90q111 0 174 -59t63 -149zM291 131q0 -101 29 -101q38 0 69 131t31 222q0 87 -29 87q-39 0 -69.5 -120.5 t-30.5 -218.5z" />
<glyph unicode="&#xf4;" horiz-adv-x="607" d="M596 568l-11 -7q-70 35 -142 60q-22 -8 -170 -60l-7 8q72 90 122 161l13 8h141q27 -66 54 -170zM640 302q0 -135 -96 -224t-232 -89q-112 0 -175.5 55.5t-63.5 154.5q0 131 97 221t233 90q111 0 174 -59t63 -149zM291 131q0 -101 29 -101q38 0 69 131t31 222q0 87 -29 87 q-39 0 -69.5 -120.5t-30.5 -218.5z" />
<glyph unicode="&#xf5;" horiz-adv-x="607" d="M562 681q11 9 34.5 26.5t35.5 26.5l9 -3q-5 -70 -45 -118t-104 -48q-10 0 -20.5 1t-19.5 2.5t-20 4.5t-18 4.5t-18.5 6t-17 6.5t-17 7.5t-15 7t-15 7t-13.5 6.5q-12 -9 -35.5 -26.5t-34.5 -26.5l-9 3q5 73 45 119.5t104 46.5q30 0 59 -8.5t65.5 -24t49.5 -20.5zM640 302 q0 -135 -96 -224t-232 -89q-112 0 -175.5 55.5t-63.5 154.5q0 131 97 221t233 90q111 0 174 -59t63 -149zM291 131q0 -101 29 -101q38 0 69 131t31 222q0 87 -29 87q-39 0 -69.5 -120.5t-30.5 -218.5z" />
<glyph unicode="&#xf6;" horiz-adv-x="607" d="M415 665q0 -43 -35 -72t-83 -29q-39 0 -62 19.5t-23 52.5q0 40 36.5 70t82.5 30q39 0 61.5 -19t22.5 -52zM671 665q0 -43 -35 -72t-83 -29q-39 0 -62 19.5t-23 52.5q0 40 36.5 70t82.5 30q39 0 61.5 -19t22.5 -52zM640 302q0 -135 -96 -224t-232 -89q-112 0 -175.5 55.5 t-63.5 154.5q0 131 97 221t233 90q111 0 174 -59t63 -149zM291 131q0 -101 29 -101q38 0 69 131t31 222q0 87 -29 87q-39 0 -69.5 -120.5t-30.5 -218.5z" />
<glyph unicode="&#xf7;" horiz-adv-x="539" d="M368 438q-36 0 -57.5 20t-21.5 52q0 43 32 72.5t75 29.5q33 0 54 -19t21 -50q0 -43 -30.5 -74t-72.5 -31zM534 256h-430l28 132q147 6 433 6l6 -8zM284 37q-36 0 -57.5 20t-21.5 52q0 43 32 72.5t75 29.5q33 0 54 -19t21 -50q0 -43 -30.5 -74t-72.5 -31z" />
<glyph unicode="&#xf8;" horiz-adv-x="607" d="M640 302q0 -135 -96 -224t-232 -89q-104 0 -167 48l-51 -44l-26 32l48 41q-43 52 -43 133q0 131 97 221t233 90q101 0 166 -52l57 49l26 -32l-54 -47q42 -52 42 -126zM391 470q-30 0 -55.5 -75.5t-37.5 -171.5l119 103q3 33 3 57q0 87 -29 87zM291 131q0 -101 29 -101 q27 0 51 71t38 164l-117 -101q-1 -12 -1 -33z" />
<glyph unicode="&#xf9;" d="M569 562l-10 -11q-115 14 -177 45t-62 75q0 38 32.5 57t84.5 19q20 0 40 -2q35 -86 92 -183zM423 219h-3q-96 -229 -231 -229q-47 0 -75 27.5t-28 73.5q0 56 47 229q13 52 13 65q0 14 -10 14q-12 0 -69 -75q-3 -4 -5 -6l-9 5q27 80 79 133.5t121 53.5q49 0 74.5 -29.5 t25.5 -83.5q0 -30 -10 -77q-6 -29 -17.5 -71.5t-18.5 -72.5t-7 -46q0 -17 13 -17q22 0 57.5 63t56.5 144l38 180q133 7 192 7q21 0 16 -17l-36 -170l-22 -101l-7 -33q-13 -64 -13 -72q0 -13 8 -13q5 0 12 5.5t19.5 20.5t19 23t24.5 32l10 -5q-24 -80 -73.5 -133.5 t-118.5 -53.5q-44 0 -70.5 24.5t-26.5 70.5q0 52 24 134z" />
<glyph unicode="&#xfa;" d="M594 670q0 -49 -76 -80t-207 -35l-7 13q87 85 157 177q61 0 97 -20t36 -55zM423 219h-3q-96 -229 -231 -229q-47 0 -75 27.5t-28 73.5q0 56 47 229q13 52 13 65q0 14 -10 14q-12 0 -69 -75q-3 -4 -5 -6l-9 5q27 80 79 133.5t121 53.5q49 0 74.5 -29.5t25.5 -83.5 q0 -30 -10 -77q-6 -29 -17.5 -71.5t-18.5 -72.5t-7 -46q0 -17 13 -17q22 0 57.5 63t56.5 144l38 180q133 7 192 7q21 0 16 -17l-36 -170l-22 -101l-7 -33q-13 -64 -13 -72q0 -13 8 -13q5 0 12 5.5t19.5 20.5t19 23t24.5 32l10 -5q-24 -80 -73.5 -133.5t-118.5 -53.5 q-44 0 -70.5 24.5t-26.5 70.5q0 52 24 134z" />
<glyph unicode="&#xfb;" d="M601 568l-11 -7q-70 35 -142 60q-22 -8 -170 -60l-7 8q72 90 122 161l13 8h141q27 -66 54 -170zM423 219h-3q-96 -229 -231 -229q-47 0 -75 27.5t-28 73.5q0 56 47 229q13 52 13 65q0 14 -10 14q-12 0 -69 -75q-3 -4 -5 -6l-9 5q27 80 79 133.5t121 53.5q49 0 74.5 -29.5 t25.5 -83.5q0 -30 -10 -77q-6 -29 -17.5 -71.5t-18.5 -72.5t-7 -46q0 -17 13 -17q22 0 57.5 63t56.5 144l38 180q133 7 192 7q21 0 16 -17l-36 -170l-22 -101l-7 -33q-13 -64 -13 -72q0 -13 8 -13q5 0 12 5.5t19.5 20.5t19 23t24.5 32l10 -5q-24 -80 -73.5 -133.5 t-118.5 -53.5q-44 0 -70.5 24.5t-26.5 70.5q0 52 24 134z" />
<glyph unicode="&#xfc;" d="M420 665q0 -43 -35 -72t-83 -29q-39 0 -62 19.5t-23 52.5q0 40 36.5 70t82.5 30q39 0 61.5 -19t22.5 -52zM676 665q0 -43 -35 -72t-83 -29q-39 0 -62 19.5t-23 52.5q0 40 36.5 70t82.5 30q39 0 61.5 -19t22.5 -52zM423 219h-3q-96 -229 -231 -229q-47 0 -75 27.5 t-28 73.5q0 56 47 229q13 52 13 65q0 14 -10 14q-12 0 -69 -75q-3 -4 -5 -6l-9 5q27 80 79 133.5t121 53.5q49 0 74.5 -29.5t25.5 -83.5q0 -30 -10 -77q-6 -29 -17.5 -71.5t-18.5 -72.5t-7 -46q0 -17 13 -17q22 0 57.5 63t56.5 144l38 180q133 7 192 7q21 0 16 -17l-36 -170 l-22 -101l-7 -33q-13 -64 -13 -72q0 -13 8 -13q5 0 12 5.5t19.5 20.5t19 23t24.5 32l10 -5q-24 -80 -73.5 -133.5t-118.5 -53.5q-44 0 -70.5 24.5t-26.5 70.5q0 52 24 134z" />
<glyph unicode="&#xfd;" horiz-adv-x="604" d="M554 670q0 -49 -76 -80t-207 -35l-7 13q87 85 157 177q61 0 97 -20t36 -55zM373 341q0 -69 -20.5 -156.5t-58.5 -164.5q150 149 150 376q0 53 -11 95q40 19 94 19q61 0 94 -35t33 -97q0 -118 -100.5 -225.5t-277.5 -165.5q-103 -181 -250 -181q-50 0 -81.5 22.5 t-31.5 56.5q0 27 25 47t62 23q1 -3 2.5 -10.5t2.5 -12t2.5 -12.5t3.5 -13t4 -11.5t5 -10.5l6 -8t7 -6t9 -2q38 0 74 166.5t36 295.5q0 68 -17 68q-22 0 -78 -81l-10 5q25 77 79 132t129 55q59 0 88.5 -40t29.5 -129z" />
<glyph unicode="&#xfe;" horiz-adv-x="588" d="M211 -188q-133 -7 -192 -7q-21 0 -16 17l36 170l119 562l11 54l-70 35v12q114 28 289 39l8 -10l-28 -130l-12 -56q-24 -114 -39 -168q85 180 195 180q58 0 88.5 -44t30.5 -108q0 -70 -23.5 -134.5t-68 -117.5t-115.5 -84.5t-158 -31.5h-17zM411 399q-21 0 -59 -63 t-61 -149l-35 -161q5 -1 16 -1q41 0 78.5 61t57 137t19.5 133q0 43 -16 43z" />
<glyph unicode="&#xff;" horiz-adv-x="604" d="M380 665q0 -43 -35 -72t-83 -29q-39 0 -62 19.5t-23 52.5q0 40 36.5 70t82.5 30q39 0 61.5 -19t22.5 -52zM636 665q0 -43 -35 -72t-83 -29q-39 0 -62 19.5t-23 52.5q0 40 36.5 70t82.5 30q39 0 61.5 -19t22.5 -52zM373 341q0 -69 -20.5 -156.5t-58.5 -164.5 q150 149 150 376q0 53 -11 95q40 19 94 19q61 0 94 -35t33 -97q0 -118 -100.5 -225.5t-277.5 -165.5q-103 -181 -250 -181q-50 0 -81.5 22.5t-31.5 56.5q0 27 25 47t62 23q1 -3 2.5 -10.5t2.5 -12t2.5 -12.5t3.5 -13t4 -11.5t5 -10.5l6 -8t7 -6t9 -2q38 0 74 166.5t36 295.5 q0 68 -17 68q-22 0 -78 -81l-10 5q25 77 79 132t129 55q59 0 88.5 -40t29.5 -129z" />
<glyph unicode="&#x100;" horiz-adv-x="698" d="M331 747l23 106h342l-23 -106h-342zM424 650h115l101 -572q5 -34 35 -49l26 -13l-5 -16h-353l1 16l68 25l-17 123l-207 -2l-71 -123l63 -23l-5 -16h-173l1 16l34 11q21 7 32 18.5t27 38.5zM212 203l178 -2l-34 250z" />
<glyph unicode="&#x101;" horiz-adv-x="624" d="M265 597l23 106h342l-23 -106h-342zM62 140q0 95 42.5 178t129 137.5t200.5 54.5q139 0 238 -44l-26 -69l-48 -217q-13 -52 -13 -65q0 -14 10 -14q12 0 69 75q3 4 5 6l9 -5q-27 -80 -79 -133.5t-121 -53.5q-49 0 -74.5 29.5t-25.5 83.5q0 30 10 77l10 40h-3 q-96 -230 -212 -230q-58 0 -89.5 42.5t-31.5 107.5zM445 429l10 31q-18 15 -38 15q-34 0 -70.5 -63.5t-58.5 -141.5t-22 -128q0 -41 18 -41q26 0 76.5 108.5t84.5 219.5z" />
<glyph unicode="&#x102;" horiz-adv-x="698" d="M670 895h3l12 -5q-58 -185 -191 -185q-62 0 -89 47.5t-16 138.5l15 4q31 -59 119 -59q83 0 147 59zM424 650h115l101 -572q5 -34 35 -49l26 -13l-5 -16h-353l1 16l68 25l-17 123l-207 -2l-71 -123l63 -23l-5 -16h-173l1 16l34 11q21 7 32 18.5t27 38.5zM212 203l178 -2 l-34 250z" />
<glyph unicode="&#x103;" horiz-adv-x="624" d="M599 746h3l12 -5q-58 -185 -191 -185q-62 0 -89 47.5t-16 138.5l15 4q31 -59 119 -59q83 0 147 59zM62 140q0 95 42.5 178t129 137.5t200.5 54.5q139 0 238 -44l-26 -69l-48 -217q-13 -52 -13 -65q0 -14 10 -14q12 0 69 75q3 4 5 6l9 -5q-27 -80 -79 -133.5t-121 -53.5 q-49 0 -74.5 29.5t-25.5 83.5q0 30 10 77l10 40h-3q-96 -230 -212 -230q-58 0 -89.5 42.5t-31.5 107.5zM445 429l10 31q-18 15 -38 15q-34 0 -70.5 -63.5t-58.5 -141.5t-22 -128q0 -41 18 -41q26 0 76.5 108.5t84.5 219.5z" />
<glyph unicode="&#x104;" horiz-adv-x="698" d="M727 -63q-32 -71 -77 -112.5t-91 -41.5q-32 0 -50.5 15.5t-18.5 42.5q0 45 42 88.5t108 70.5h-297l1 16l68 25l-17 123l-207 -2l-71 -123l63 -23l-5 -16h-173l1 16l34 11q21 7 32 18.5t27 38.5l328 566h115l101 -572q5 -34 35 -49l26 -13l-5 -16q-26 -12 -43.5 -36.5 t-17.5 -49.5q0 -19 17 -19q22 0 67 48zM212 203l178 -2l-34 250z" />
<glyph unicode="&#x105;" horiz-adv-x="624" d="M62 140q0 95 42.5 178t129 137.5t200.5 54.5q139 0 238 -44l-26 -69l-48 -217q-13 -52 -13 -65q0 -14 10 -14q12 0 69 75q3 4 5 6l9 -5q-16 -44 -38 -81q-12 -20 -41 -63t-47.5 -73.5t-18.5 -45.5q0 -19 17 -19q22 0 67 48l8 -6q-32 -71 -77 -112.5t-91 -41.5 q-31 0 -48 16.5t-17 44.5q0 27 22.5 57t46.5 49t66 48q-24 -8 -49 -8q-49 0 -74.5 29.5t-25.5 83.5q0 30 10 77l10 40h-3q-96 -230 -212 -230q-58 0 -89.5 42.5t-31.5 107.5zM445 429l10 31q-18 15 -38 15q-34 0 -70.5 -63.5t-58.5 -141.5t-22 -128q0 -41 18 -41 q26 0 76.5 108.5t84.5 219.5z" />
<glyph unicode="&#x106;" horiz-adv-x="646" d="M683 821q0 -49 -76 -80t-207 -35l-7 13q87 85 157 177q61 0 97 -20t36 -55zM530 660q128 0 186 -34q-7 -51 -27.5 -112t-47.5 -105h-10l-78 211h-8q-87 0 -154.5 -108.5t-66.5 -256.5q1 -101 35 -163t89 -62q6 0 9 1l165 205h10q8 -27 8 -67q0 -88 -27 -153 q-80 -26 -204 -26q-145 0 -232.5 72t-87.5 202q0 173 125.5 284.5t315.5 111.5z" />
<glyph unicode="&#x107;" horiz-adv-x="519" d="M564 670q0 -49 -76 -80t-207 -35l-7 13q87 85 157 177q61 0 97 -20t36 -55zM539 171q-30 -77 -102.5 -129t-163.5 -52q-83 0 -142.5 51.5t-59.5 147.5q0 133 96.5 227t228.5 94q79 0 126 -36.5t47 -93.5q0 -43 -34 -71.5t-84 -28.5q-38 0 -77 13q30 105 30 141t-22 36 q-31 0 -60.5 -75t-29.5 -143q0 -137 100 -137q65 0 139 62z" />
<glyph unicode="&#x108;" horiz-adv-x="646" d="M686 718l-11 -7q-70 35 -142 60q-22 -8 -170 -60l-7 8q72 90 122 161l13 8h141q27 -66 54 -170zM530 660q128 0 186 -34q-7 -51 -27.5 -112t-47.5 -105h-10l-78 211h-8q-87 0 -154.5 -108.5t-66.5 -256.5q1 -101 35 -163t89 -62q6 0 9 1l165 205h10q8 -27 8 -67 q0 -88 -27 -153q-80 -26 -204 -26q-145 0 -232.5 72t-87.5 202q0 173 125.5 284.5t315.5 111.5z" />
<glyph unicode="&#x109;" horiz-adv-x="519" d="M571 568l-11 -7q-70 35 -142 60q-22 -8 -170 -60l-7 8q72 90 122 161l13 8h141q27 -66 54 -170zM539 171q-30 -77 -102.5 -129t-163.5 -52q-83 0 -142.5 51.5t-59.5 147.5q0 133 96.5 227t228.5 94q79 0 126 -36.5t47 -93.5q0 -43 -34 -71.5t-84 -28.5q-38 0 -77 13 q30 105 30 141t-22 36q-31 0 -60.5 -75t-29.5 -143q0 -137 100 -137q65 0 139 62z" />
<glyph unicode="&#x10a;" horiz-adv-x="646" d="M655 820q0 -49 -41 -81t-96 -32q-44 0 -70.5 20.5t-26.5 55.5q0 48 42 80t95 32q45 0 71 -20t26 -55zM530 660q128 0 186 -34q-7 -51 -27.5 -112t-47.5 -105h-10l-78 211h-8q-87 0 -154.5 -108.5t-66.5 -256.5q1 -101 35 -163t89 -62q6 0 9 1l165 205h10q8 -27 8 -67 q0 -88 -27 -153q-80 -26 -204 -26q-145 0 -232.5 72t-87.5 202q0 173 125.5 284.5t315.5 111.5z" />
<glyph unicode="&#x10b;" horiz-adv-x="519" d="M533 669q0 -49 -41 -81t-96 -32q-44 0 -70.5 20.5t-26.5 55.5q0 48 42 80t95 32q45 0 71 -20t26 -55zM539 171q-30 -77 -102.5 -129t-163.5 -52q-83 0 -142.5 51.5t-59.5 147.5q0 133 96.5 227t228.5 94q79 0 126 -36.5t47 -93.5q0 -43 -34 -71.5t-84 -28.5q-38 0 -77 13 q30 105 30 141t-22 36q-31 0 -60.5 -75t-29.5 -143q0 -137 100 -137q65 0 139 62z" />
<glyph unicode="&#x10c;" horiz-adv-x="646" d="M600 719l-13 -8h-141q-27 66 -54 170l11 7q70 -35 142 -60q23 8 170 60l7 -8q-72 -90 -122 -161zM530 660q128 0 186 -34q-7 -51 -27.5 -112t-47.5 -105h-10l-78 211h-8q-87 0 -154.5 -108.5t-66.5 -256.5q1 -101 35 -163t89 -62q6 0 9 1l165 205h10q8 -27 8 -67 q0 -88 -27 -153q-80 -26 -204 -26q-145 0 -232.5 72t-87.5 202q0 173 125.5 284.5t315.5 111.5z" />
<glyph unicode="&#x10d;" horiz-adv-x="519" d="M473 570l-13 -8h-141q-27 66 -54 170l11 7q70 -35 142 -60q23 8 170 60l7 -8q-72 -90 -122 -161zM539 171q-30 -77 -102.5 -129t-163.5 -52q-83 0 -142.5 51.5t-59.5 147.5q0 133 96.5 227t228.5 94q79 0 126 -36.5t47 -93.5q0 -43 -34 -71.5t-84 -28.5q-38 0 -77 13 q30 105 30 141t-22 36q-31 0 -60.5 -75t-29.5 -143q0 -137 100 -137q65 0 139 62z" />
<glyph unicode="&#x10e;" horiz-adv-x="725" d="M583 719l-13 -8h-141q-27 66 -54 170l11 7q70 -35 142 -60q22 8 170 60l7 -8q-72 -90 -122 -161zM336 0h-307l-1 16l40 13q23 8 28 43l108 506l7 31l-52 25l4 16h307q146 0 227 -61t81 -182q0 -177 -123 -292t-319 -115zM454 610h-25l-7 -32l-108 -506l-7 -32h30 q52 0 97 40.5t72.5 101.5t43 128.5t15.5 126.5q0 173 -111 173z" />
<glyph unicode="&#x10f;" horiz-adv-x="728" d="M935 614q0 -62 -54 -126t-134 -99l-10 12q46 53 69 123q-53 14 -53 69q0 43 31.5 72.5t73.5 29.5q34 0 55.5 -22.5t21.5 -58.5zM387 180l10 45q-95 -235 -214 -235q-57 0 -89 43.5t-32 106.5q0 94 42.5 177t129.5 138t200 55q19 0 29 -1l10 45l11 54l-70 35v12 q114 28 289 39l8 -10l-28 -130l-86 -374q-13 -52 -13 -65q0 -14 10 -14q12 0 69 75q3 4 5 6l9 -5q-27 -80 -79 -133.5t-121 -53.5q-49 0 -74.5 29.5t-25.5 83.5q0 30 10 77zM284 101q26 0 76.5 108.5t84.5 219.5l7 33q-16 13 -35 13q-34 0 -70.5 -63.5t-58.5 -141.5 t-22 -128q0 -41 18 -41z" />
<glyph unicode="&#x110;" horiz-adv-x="725" d="M336 0h-307l-1 16l40 13q23 8 28 43l51 240h-57l8 35h57l49 231l7 31l-52 25l4 16h307q146 0 227 -61t81 -182q0 -177 -123 -292t-319 -115zM462 312h-97l-51 -240l-7 -32h30q52 0 97 40.5t72.5 101.5t43 128.5t15.5 126.5q0 173 -111 173h-25l-7 -32l-49 -231h97z" />
<glyph unicode="&#x111;" horiz-adv-x="623" d="M387 180l10 45q-95 -235 -214 -235q-57 0 -89 43.5t-32 106.5q0 94 42.5 177t129.5 138t200 55q19 0 29 -1l9 41h-112l8 35h111l5 23l-70 35v12q114 28 289 39l8 -10l-21 -99h60l-8 -35h-60l-85 -370q-13 -52 -13 -65q0 -14 10 -14q12 0 69 75q3 4 5 6l9 -5 q-27 -80 -79 -133.5t-121 -53.5q-49 0 -74.5 29.5t-25.5 83.5q0 30 10 77zM284 101q26 0 76.5 108.5t84.5 219.5l7 33q-16 13 -35 13q-34 0 -70.5 -63.5t-58.5 -141.5t-22 -128q0 -41 18 -41z" />
<glyph unicode="&#x112;" horiz-adv-x="594" d="M309 747l23 106h342l-23 -106h-342zM556 0h-526l-1 16l40 13q23 8 28 43l107 506l7 31l-52 25l4 16h522q0 -49 -18.5 -111t-44.5 -103h-10l-87 174h-96l-7 -32l-50 -235l160 12l-14 -65l-154 13l-49 -231l-7 -32h103l164 181h10q5 -27 5 -51q0 -77 -34 -170z" />
<glyph unicode="&#x113;" horiz-adv-x="520" d="M234 597l23 106h342l-23 -106h-342zM538 171q-29 -82 -101.5 -131.5t-156.5 -49.5q-95 0 -152 54t-57 144q0 133 93.5 227.5t227.5 94.5q76 0 126 -34t50 -97q0 -72 -69.5 -118.5t-205.5 -50.5q12 -95 96 -95q71 0 141 62zM381 470q-31 0 -60.5 -75t-29.5 -153 q47 14 79.5 73.5t32.5 126.5q0 28 -22 28z" />
<glyph unicode="&#x114;" horiz-adv-x="594" d="M648 895h3l12 -5q-58 -185 -191 -185q-62 0 -89 47.5t-16 138.5l15 4q31 -59 119 -59q83 0 147 59zM556 0h-526l-1 16l40 13q23 8 28 43l107 506l7 31l-52 25l4 16h522q0 -49 -18.5 -111t-44.5 -103h-10l-87 174h-96l-7 -32l-50 -235l160 12l-14 -65l-154 13l-49 -231 l-7 -32h103l164 181h10q5 -27 5 -51q0 -77 -34 -170z" />
<glyph unicode="&#x115;" horiz-adv-x="520" d="M568 746h3l12 -5q-58 -185 -191 -185q-62 0 -89 47.5t-16 138.5l15 4q31 -59 119 -59q83 0 147 59zM538 171q-29 -82 -101.5 -131.5t-156.5 -49.5q-95 0 -152 54t-57 144q0 133 93.5 227.5t227.5 94.5q76 0 126 -34t50 -97q0 -72 -69.5 -118.5t-205.5 -50.5 q12 -95 96 -95q71 0 141 62zM381 470q-31 0 -60.5 -75t-29.5 -153q47 14 79.5 73.5t32.5 126.5q0 28 -22 28z" />
<glyph unicode="&#x116;" horiz-adv-x="594" d="M609 820q0 -49 -41 -81t-96 -32q-44 0 -70.5 20.5t-26.5 55.5q0 48 42 80t95 32q45 0 71 -20t26 -55zM556 0h-526l-1 16l40 13q23 8 28 43l107 506l7 31l-52 25l4 16h522q0 -49 -18.5 -111t-44.5 -103h-10l-87 174h-96l-7 -32l-50 -235l160 12l-14 -65l-154 13l-49 -231 l-7 -32h103l164 181h10q5 -27 5 -51q0 -77 -34 -170z" />
<glyph unicode="&#x117;" horiz-adv-x="520" d="M533 669q0 -49 -41 -81t-96 -32q-44 0 -70.5 20.5t-26.5 55.5q0 48 42 80t95 32q45 0 71 -20t26 -55zM538 171q-29 -82 -101.5 -131.5t-156.5 -49.5q-95 0 -152 54t-57 144q0 133 93.5 227.5t227.5 94.5q76 0 126 -34t50 -97q0 -72 -69.5 -118.5t-205.5 -50.5 q12 -95 96 -95q71 0 141 62zM381 470q-31 0 -60.5 -75t-29.5 -153q47 14 79.5 73.5t32.5 126.5q0 28 -22 28z" />
<glyph unicode="&#x118;" horiz-adv-x="594" d="M587 -63q-32 -71 -77 -112.5t-91 -41.5q-32 0 -50.5 15.5t-18.5 42.5q0 45 42 88.5t108 70.5h-470l-1 16l40 13q23 8 28 43l107 506l7 31l-52 25l4 16h522q0 -49 -18.5 -111t-44.5 -103h-10l-87 174h-96l-7 -32l-50 -235l160 12l-14 -65l-154 13l-49 -231l-7 -32h103 l164 181h10q5 -27 5 -51q0 -77 -34 -170q-26 -12 -43.5 -36.5t-17.5 -49.5q0 -19 17 -19q22 0 67 48z" />
<glyph unicode="&#x119;" horiz-adv-x="520" d="M407 -63q-32 -71 -78 -112.5t-93 -41.5q-32 0 -49 16t-17 44q0 78 172 154q-29 -7 -62 -7q-95 0 -152 54t-57 144q0 133 93.5 227.5t227.5 94.5q76 0 126 -34t50 -97q0 -72 -69.5 -118.5t-205.5 -50.5q12 -95 96 -95q71 0 141 62l8 -6q-23 -63 -70 -106 q-31 -34 -72.5 -65.5t-61 -49.5t-19.5 -36q0 -19 17 -19q22 0 67 48zM381 470q-31 0 -60.5 -75t-29.5 -153q47 14 79.5 73.5t32.5 126.5q0 28 -22 28z" />
<glyph unicode="&#x11a;" horiz-adv-x="594" d="M554 719l-13 -8h-141q-27 66 -54 170l11 7q70 -35 142 -60q23 8 170 60l7 -8q-72 -90 -122 -161zM556 0h-526l-1 16l40 13q23 8 28 43l107 506l7 31l-52 25l4 16h522q0 -49 -18.5 -111t-44.5 -103h-10l-87 174h-96l-7 -32l-50 -235l160 12l-14 -65l-154 13l-49 -231 l-7 -32h103l164 181h10q5 -27 5 -51q0 -77 -34 -170z" />
<glyph unicode="&#x11b;" horiz-adv-x="520" d="M473 570l-13 -8h-141q-27 66 -54 170l11 7q70 -35 142 -60q23 8 170 60l7 -8q-72 -90 -122 -161zM538 171q-29 -82 -101.5 -131.5t-156.5 -49.5q-95 0 -152 54t-57 144q0 133 93.5 227.5t227.5 94.5q76 0 126 -34t50 -97q0 -72 -69.5 -118.5t-205.5 -50.5q12 -95 96 -95 q71 0 141 62zM381 470q-31 0 -60.5 -75t-29.5 -153q47 14 79.5 73.5t32.5 126.5q0 28 -22 28z" />
<glyph unicode="&#x11c;" horiz-adv-x="701" d="M702 718l-11 -7q-70 35 -142 60q-22 -8 -170 -60l-7 8q72 90 122 161l13 8h141q27 -66 54 -170zM629 16q-109 -26 -220 -26q-148 0 -234 71.5t-86 202.5q0 175 128 285.5t312 110.5q133 0 212 -34q-6 -48 -32.5 -108.5t-57.5 -108.5h-10l-78 211h-19q-87 0 -153.5 -109 t-66.5 -258q0 -91 30.5 -153t79.5 -69l51 216l7 31l-48 25l6 16h301l-2 -16l-29 -10q-18 -6 -25 -15.5t-12 -30.5z" />
<glyph unicode="&#x11d;" horiz-adv-x="542" d="M525 568l-11 -7q-70 35 -142 60q-23 -8 -170 -60l-7 8q72 90 122 161l13 8h141q27 -66 54 -170zM545 -51q0 -68 -84.5 -106t-219.5 -38q-112 0 -193 30.5t-81 79.5q0 32 39.5 56.5t103.5 28.5l8 -6q3 -69 37 -112.5t98 -43.5q28 0 47 12t19 32q0 16 -27.5 33.5t-61 31 t-61 36.5t-27.5 50q0 66 159 110h-5q-102 0 -165.5 42.5t-63.5 111.5q0 89 81.5 151t205.5 62h55.5h55t45 0.5t46.5 2t37 4t38 6.5q5 -15 5 -35q0 -78 -50 -78q-32 0 -102 32l-1 -3q79 -53 79 -119q0 -40 -23.5 -72t-57 -51.5t-66.5 -34.5t-56.5 -27t-23.5 -22 q0 -14 33 -28.5t72 -27t72 -41t33 -67.5zM271 263q0 -38 6 -59t24 -20q24 0 40.5 74t16.5 150q0 34 -6 53t-22 18q-25 0 -42 -69t-17 -147z" />
<glyph unicode="&#x11e;" horiz-adv-x="701" d="M710 895h3l12 -5q-58 -185 -191 -185q-62 0 -89 47.5t-16 138.5l15 4q31 -59 119 -59q83 0 147 59zM629 16q-109 -26 -220 -26q-148 0 -234 71.5t-86 202.5q0 175 128 285.5t312 110.5q133 0 212 -34q-6 -48 -32.5 -108.5t-57.5 -108.5h-10l-78 211h-19 q-87 0 -153.5 -109t-66.5 -258q0 -91 30.5 -153t79.5 -69l51 216l7 31l-48 25l6 16h301l-2 -16l-29 -10q-18 -6 -25 -15.5t-12 -30.5z" />
<glyph unicode="&#x11f;" horiz-adv-x="542" d="M535 746h3l12 -5q-58 -185 -191 -185q-62 0 -89 47.5t-16 138.5l15 4q31 -59 119 -59q83 0 147 59zM545 -51q0 -68 -84.5 -106t-219.5 -38q-112 0 -193 30.5t-81 79.5q0 32 39.5 56.5t103.5 28.5l8 -6q3 -69 37 -112.5t98 -43.5q28 0 47 12t19 32q0 16 -27.5 33.5t-61 31 t-61 36.5t-27.5 50q0 66 159 110h-5q-102 0 -165.5 42.5t-63.5 111.5q0 89 81.5 151t205.5 62h55.5h55t45 0.5t46.5 2t37 4t38 6.5q5 -15 5 -35q0 -78 -50 -78q-32 0 -102 32l-1 -3q79 -53 79 -119q0 -40 -23.5 -72t-57 -51.5t-66.5 -34.5t-56.5 -27t-23.5 -22 q0 -14 33 -28.5t72 -27t72 -41t33 -67.5zM271 263q0 -38 6 -59t24 -20q24 0 40.5 74t16.5 150q0 34 -6 53t-22 18q-25 0 -42 -69t-17 -147z" />
<glyph unicode="&#x120;" horiz-adv-x="701" d="M671 820q0 -49 -41 -81t-96 -32q-44 0 -70.5 20.5t-26.5 55.5q0 48 42 80t95 32q45 0 71 -20t26 -55zM629 16q-109 -26 -220 -26q-148 0 -234 71.5t-86 202.5q0 175 128 285.5t312 110.5q133 0 212 -34q-6 -48 -32.5 -108.5t-57.5 -108.5h-10l-78 211h-19 q-87 0 -153.5 -109t-66.5 -258q0 -91 30.5 -153t79.5 -69l51 216l7 31l-48 25l6 16h301l-2 -16l-29 -10q-18 -6 -25 -15.5t-12 -30.5z" />
<glyph unicode="&#x121;" horiz-adv-x="542" d="M500 669q0 -49 -41 -81t-96 -32q-44 0 -70.5 20.5t-26.5 55.5q0 48 42 80t95 32q45 0 71 -20t26 -55zM545 -51q0 -68 -84.5 -106t-219.5 -38q-112 0 -193 30.5t-81 79.5q0 32 39.5 56.5t103.5 28.5l8 -6q3 -69 37 -112.5t98 -43.5q28 0 47 12t19 32q0 16 -27.5 33.5 t-61 31t-61 36.5t-27.5 50q0 66 159 110h-5q-102 0 -165.5 42.5t-63.5 111.5q0 89 81.5 151t205.5 62h55.5h55t45 0.5t46.5 2t37 4t38 6.5q5 -15 5 -35q0 -78 -50 -78q-32 0 -102 32l-1 -3q79 -53 79 -119q0 -40 -23.5 -72t-57 -51.5t-66.5 -34.5t-56.5 -27t-23.5 -22 q0 -14 33 -28.5t72 -27t72 -41t33 -67.5zM271 263q0 -38 6 -59t24 -20q24 0 40.5 74t16.5 150q0 34 -6 53t-22 18q-25 0 -42 -69t-17 -147z" />
<glyph unicode="&#x122;" horiz-adv-x="701" d="M629 16q-109 -26 -220 -26q-148 0 -234 71.5t-86 202.5q0 175 128 285.5t312 110.5q133 0 212 -34q-6 -48 -32.5 -108.5t-57.5 -108.5h-10l-78 211h-19q-87 0 -153.5 -109t-66.5 -258q0 -91 30.5 -153t79.5 -69l51 216l7 31l-48 25l6 16h301l-2 -16l-29 -10 q-18 -6 -25 -15.5t-12 -30.5zM460 -137q0 -62 -54 -126t-134 -99l-10 12q46 53 69 123q-53 14 -53 69q0 43 31.5 72.5t73.5 29.5q34 0 55.5 -22.5t21.5 -58.5z" />
<glyph unicode="&#x123;" horiz-adv-x="542" d="M292 637q0 62 54 126t134 99l10 -12q-46 -53 -69 -123q53 -14 53 -69q0 -43 -31.5 -72.5t-73.5 -29.5q-34 0 -55.5 22.5t-21.5 58.5zM545 -51q0 -68 -84.5 -106t-219.5 -38q-112 0 -193 30.5t-81 79.5q0 32 39.5 56.5t103.5 28.5l8 -6q3 -69 37 -112.5t98 -43.5 q28 0 47 12t19 32q0 16 -27.5 33.5t-61 31t-61 36.5t-27.5 50q0 66 159 110h-5q-102 0 -165.5 42.5t-63.5 111.5q0 89 81.5 151t205.5 62h55.5h55t45 0.5t46.5 2t37 4t38 6.5q5 -15 5 -35q0 -78 -50 -78q-32 0 -102 32l-1 -3q79 -53 79 -119q0 -40 -23.5 -72t-57 -51.5 t-66.5 -34.5t-56.5 -27t-23.5 -22q0 -14 33 -28.5t72 -27t72 -41t33 -67.5zM271 263q0 -38 6 -59t24 -20q24 0 40.5 74t16.5 150q0 34 -6 53t-22 18q-25 0 -42 -69t-17 -147zM314 -322q0 -62 -54 -126t-134 -99l-10 12q46 53 69 123q-53 14 -53 69q0 43 31.5 72.5t73.5 29.5 q34 0 55.5 -22.5t21.5 -58.5z" />
<glyph unicode="&#x124;" horiz-adv-x="771" d="M699 718l-11 -7q-70 35 -142 60q-23 -8 -170 -60l-7 8q72 90 122 161l13 8h141q27 -66 54 -170zM354 0h-326v16l34 11q27 8 34 45l108 506l7 31l-52 25l5 16h326v-16l-34 -11q-27 -8 -34 -45l-50 -233h173l49 233l7 31l-52 25l5 16h326v-16l-34 -11q-27 -8 -34 -45 l-107 -506l-7 -31l52 -25l-5 -16h-326v16l34 11q27 8 34 45l48 228h-172l-49 -228l-7 -31l52 -25z" />
<glyph unicode="&#x125;" horiz-adv-x="616" d="M455 718l-11 -7q-70 35 -142 60q-22 -8 -170 -60l-7 8q72 90 122 161l13 8h141q27 -66 54 -170zM258 0q-133 -7 -192 -7q-21 0 -16 17l36 170l80 374l11 54l-70 35v12q114 28 289 39l8 -10l-28 -130q-35 -149 -76 -273h3q96 229 231 229q47 0 75 -27.5t28 -73.5 q0 -56 -47 -229q-13 -52 -13 -65q0 -14 10 -14q12 0 69 75q3 4 5 6l9 -5q-27 -80 -79 -133.5t-121 -53.5q-49 0 -74.5 29.5t-25.5 83.5q0 30 10 77q6 29 17.5 71.5t18.5 72.5t7 46q0 17 -13 17q-22 0 -57.5 -63t-56.5 -144z" />
<glyph unicode="&#x126;" horiz-adv-x="771" d="M354 0h-326v16l34 11q27 8 34 45l82 384h-80l8 45h82l16 77l7 31l-52 25l5 16h326v-16l-34 -11q-27 -8 -34 -45l-16 -77h172l16 77l7 31l-52 25l5 16h326v-16l-34 -11q-27 -8 -34 -45l-16 -77h60l-8 -45h-62l-81 -384l-7 -31l52 -25l-5 -16h-326v16l34 11q27 8 34 45 l48 228h-172l-49 -228l-7 -31l52 -25zM372 345h173l23 111h-172z" />
<glyph unicode="&#x127;" horiz-adv-x="616" d="M258 0q-133 -7 -192 -7q-21 0 -16 17l36 170l79 370h-67l8 35h66l5 23l-70 35v12q114 28 289 39l8 -10l-21 -99h105l-8 -35h-105q-39 -158 -75 -269h3q96 229 231 229q47 0 75 -27.5t28 -73.5q0 -56 -47 -229q-13 -52 -13 -65q0 -14 10 -14q12 0 69 75q3 4 5 6l9 -5 q-27 -80 -79 -133.5t-121 -53.5q-49 0 -74.5 29.5t-25.5 83.5q0 30 10 77q6 29 17.5 71.5t18.5 72.5t7 46q0 17 -13 17q-22 0 -57.5 -63t-56.5 -144z" />
<glyph unicode="&#x128;" horiz-adv-x="382" d="M483 831q11 9 34.5 26.5t35.5 26.5l9 -3q-5 -70 -45 -118t-104 -48q-10 0 -20.5 1t-19.5 2.5t-20 4.5t-18 4.5t-18.5 6t-17 6.5t-17 7.5t-15 7t-15 7t-13.5 6.5q-12 -9 -35.5 -26.5t-34.5 -26.5l-9 3q5 73 45 119.5t104 46.5q30 0 59 -8.5t65.5 -24t49.5 -20.5zM355 0 h-326v16l34 11q27 8 34 45l107 506l7 31l-52 25l5 16h326v-16l-34 -11q-27 -8 -34 -45l-107 -506l-7 -31l52 -25z" />
<glyph unicode="&#x129;" horiz-adv-x="334" d="M389 681q11 9 34.5 26.5t35.5 26.5l9 -3q-4 -69 -38 -117.5t-86 -48.5q-27 0 -57 11t-41.5 17.5t-40.5 24.5q-12 -9 -35 -26.5t-35 -26.5l-9 3q4 72 38 119t86 47q20 0 41.5 -6.5t33.5 -12t35.5 -19t28.5 -15.5zM98 180q4 17 35 140q13 52 13 65q0 14 -10 14 q-12 0 -69 -75q-3 -4 -5 -6l-9 5q27 80 79 133.5t121 53.5q49 0 74.5 -29.5t25.5 -83.5q0 -30 -10 -77q-10 -46 -35 -140q-13 -52 -13 -65q0 -14 10 -14q12 0 69 75q3 4 5 6l9 -5q-27 -80 -79 -133.5t-121 -53.5q-49 0 -74.5 29.5t-25.5 83.5q0 30 10 77z" />
<glyph unicode="&#x12a;" horiz-adv-x="381" d="M178 747l23 106h342l-23 -106h-342zM355 0h-326v16l34 11q27 8 34 45l107 506l7 31l-52 25l5 16h326v-16l-34 -11q-27 -8 -34 -45l-107 -506l-7 -31l52 -25z" />
<glyph unicode="&#x12b;" horiz-adv-x="334" d="M147 591l23 106h262l-23 -106h-262zM98 180q4 17 35 140q13 52 13 65q0 14 -10 14q-12 0 -69 -75q-3 -4 -5 -6l-9 5q27 80 79 133.5t121 53.5q49 0 74.5 -29.5t25.5 -83.5q0 -30 -10 -77q-10 -46 -35 -140q-13 -52 -13 -65q0 -14 10 -14q12 0 69 75q3 4 5 6l9 -5 q-27 -80 -79 -133.5t-121 -53.5q-49 0 -74.5 29.5t-25.5 83.5q0 30 10 77z" />
<glyph unicode="&#x12c;" horiz-adv-x="381" d="M517 895h3l12 -5q-58 -185 -191 -185q-62 0 -89 47.5t-16 138.5l15 4q31 -59 119 -59q83 0 147 59zM355 0h-326v16l34 11q27 8 34 45l107 506l7 31l-52 25l5 16h326v-16l-34 -11q-27 -8 -34 -45l-107 -506l-7 -31l52 -25z" />
<glyph unicode="&#x12d;" horiz-adv-x="334" d="M421 746h3l12 -5q-35 -185 -164 -185q-49 0 -76 28.5t-27 82.5q0 31 11 75l15 4q10 -30 32.5 -44.5t66.5 -14.5q78 0 127 59zM98 180q4 17 35 140q13 52 13 65q0 14 -10 14q-12 0 -69 -75q-3 -4 -5 -6l-9 5q27 80 79 133.5t121 53.5q49 0 74.5 -29.5t25.5 -83.5 q0 -30 -10 -77q-10 -46 -35 -140q-13 -52 -13 -65q0 -14 10 -14q12 0 69 75q3 4 5 6l9 -5q-27 -80 -79 -133.5t-121 -53.5q-49 0 -74.5 29.5t-25.5 83.5q0 30 10 77z" />
<glyph unicode="&#x12e;" horiz-adv-x="380" d="M355 0h-1q-26 -12 -43.5 -36.5t-17.5 -49.5q0 -19 17 -19q22 0 67 48l8 -6q-32 -71 -77 -112.5t-91 -41.5q-32 0 -50.5 15.5t-18.5 42.5q0 45 42 88.5t108 70.5h-269v16l34 11q27 8 34 45l107 506l7 31l-52 25l5 16h326v-16l-34 -11q-27 -8 -34 -45l-107 -506l-7 -31 l52 -25z" />
<glyph unicode="&#x12f;" horiz-adv-x="334" d="M416 669q0 -49 -41 -81t-96 -32q-44 0 -70.5 20.5t-26.5 55.5q0 48 42 80t95 32q45 0 71 -20t26 -55zM334 -63q-32 -71 -77 -112.5t-91 -41.5q-31 0 -48 16.5t-17 44.5q0 21 11 41.5t35 42t41 35t51 36.5q-24 -9 -51 -9q-49 0 -74.5 29.5t-25.5 83.5q0 30 10 77 q4 17 35 140q13 52 13 65q0 14 -10 14q-12 0 -69 -75q-3 -4 -5 -6l-9 5q27 80 79 133.5t121 53.5q49 0 74.5 -29.5t25.5 -83.5q0 -30 -10 -77q-10 -46 -35 -140q-13 -52 -13 -65q0 -14 10 -14q12 0 69 75q3 4 5 6l9 -5q-21 -59 -48 -95q-11 -17 -39.5 -59t-43.5 -69t-15 -40 q0 -19 17 -19q22 0 67 48z" />
<glyph unicode="&#x130;" horiz-adv-x="381" d="M478 820q0 -49 -41 -81t-96 -32q-44 0 -70.5 20.5t-26.5 55.5q0 48 42 80t95 32q45 0 71 -20t26 -55zM355 0h-326v16l34 11q27 8 34 45l107 506l7 31l-52 25l5 16h326v-16l-34 -11q-27 -8 -34 -45l-107 -506l-7 -31l52 -25z" />
<glyph unicode="&#x131;" horiz-adv-x="334" d="M98 180q4 17 35 140q13 52 13 65q0 14 -10 14q-12 0 -69 -75q-3 -4 -5 -6l-9 5q27 80 79 133.5t121 53.5q49 0 74.5 -29.5t25.5 -83.5q0 -30 -10 -77q-10 -46 -35 -140q-13 -52 -13 -65q0 -14 10 -14q12 0 69 75q3 4 5 6l9 -5q-27 -80 -79 -133.5t-121 -53.5 q-49 0 -74.5 29.5t-25.5 83.5q0 30 10 77z" />
<glyph unicode="&#x132;" horiz-adv-x="758" d="M355 0h-326v16l34 11q27 8 34 45l107 506l7 31l-52 25l5 16h326v-16l-34 -11q-27 -8 -34 -45l-107 -506l-7 -31l52 -25zM704 121q-23 -111 -117.5 -183t-224.5 -78l-4 11q54 51 84 117.5t55 184.5l86 405l7 31l-52 25l5 16h326v-16l-34 -11q-27 -8 -34 -45z" />
<glyph unicode="&#x133;" horiz-adv-x="642" d="M416 669q0 -49 -41 -81t-96 -32q-44 0 -70.5 20.5t-26.5 55.5q0 48 42 80t95 32q45 0 71 -20t26 -55zM743 669q0 -49 -41 -81t-96 -32q-44 0 -70.5 20.5t-26.5 55.5q0 48 42 80t95 32q45 0 71 -20t26 -55zM98 180q4 17 35 140q13 52 13 65q0 14 -10 14q-12 0 -69 -75 q-3 -4 -5 -6l-9 5q27 80 79 133.5t121 53.5q49 0 74.5 -29.5t25.5 -83.5q0 -30 -10 -77q-10 -46 -35 -140q-13 -52 -13 -65q0 -14 10 -14q12 0 69 75q3 4 5 6l9 -5q-27 -80 -79 -133.5t-121 -53.5q-49 0 -74.5 29.5t-25.5 83.5q0 30 10 77zM618 74q-27 -131 -109 -200 t-188 -69q-58 0 -95 23t-37 57q0 58 87 70q15 -77 43 -77q25 0 44.5 40.5t38.5 130.5l58 271q13 52 13 65q0 14 -10 14q-12 0 -69 -75q-3 -4 -5 -6l-9 5q27 80 79 133.5t121 53.5q49 0 74.5 -29.5t25.5 -83.5q0 -30 -10 -77z" />
<glyph unicode="&#x134;" horiz-adv-x="377" d="M510 719l-11 -7q-70 35 -142 60q-23 -8 -170 -60l-7 8q72 90 122 161l13 8h141q27 -66 54 -170zM323 121q-23 -111 -117.5 -183t-224.5 -78l-4 11q54 51 84 117.5t55 184.5l86 405l7 31l-52 25l5 16h326v-16l-34 -11q-27 -8 -34 -45z" />
<glyph unicode="&#x135;" horiz-adv-x="318" d="M430 568l-11 -7q-65 35 -123 58q-25 -9 -76 -29t-73 -29l-7 8q56 84 102 161l13 8h141q14 -55 34 -170zM294 74q-27 -131 -109 -200t-188 -69q-58 0 -95 23t-37 57q0 58 87 70q15 -77 43 -77q25 0 44.5 40.5t38.5 130.5l58 271q13 52 13 65q0 14 -10 14q-12 0 -69 -75 q-3 -4 -5 -6l-9 5q27 80 79 133.5t121 53.5q49 0 74.5 -29.5t25.5 -83.5q0 -30 -10 -77z" />
<glyph unicode="&#x136;" horiz-adv-x="768" d="M355 0h-326v16l34 11q27 8 34 45l107 506l7 31l-52 25l5 16h326v-16l-34 -11q-27 -8 -34 -45l-53 -253h41l238 284l-56 25l5 16h272l-1 -16l-64 -28q-45 -19 -113 -61.5t-110 -78.5l131 -375q16 -47 49 -65l18 -10l-6 -16l-203 -3q-48 -1 -68.5 19t-35.5 68l-63 201h-43 l-45 -213l-7 -31l52 -25zM476 -137q0 -62 -54 -126t-134 -99l-10 12q46 53 69 123q-53 14 -53 69q0 43 31.5 72.5t73.5 29.5q34 0 55.5 -22.5t21.5 -58.5z" />
<glyph unicode="&#x137;" horiz-adv-x="623" d="M258 0q-133 -7 -192 -7q-21 0 -16 17l36 170l80 374l11 54l-70 35v12q114 28 289 39l8 -10l-28 -130q-28 -133 -76 -273h3q51 120 112 174.5t136 54.5q50 0 79.5 -31t29.5 -75q0 -97 -134 -156q26 -69 44.5 -103t38.5 -34q26 0 87 71l9 -5q-32 -77 -90.5 -132t-126.5 -55 q-19 0 -35 4.5t-27 10t-22 19.5t-17 23t-14.5 30.5t-11.5 31.5t-11.5 37.5t-11.5 38.5l1 5q50 32 80.5 79t30.5 86q0 34 -25 34q-27 0 -67 -62t-62 -147zM392 -137q0 -62 -54 -126t-134 -99l-10 12q46 53 69 123q-53 14 -53 69q0 43 31.5 72.5t73.5 29.5q34 0 55.5 -22.5 t21.5 -58.5z" />
<glyph unicode="&#x138;" horiz-adv-x="644" d="M275 0q-133 -7 -192 -7q-21 0 -16 17l36 170l30 140q13 52 13 65q0 14 -10 14q-12 0 -69 -75q-3 -4 -5 -6l-9 5q27 80 79 133.5t121 53.5q49 0 74.5 -29.5t25.5 -83.5q0 -30 -10 -77l-15 -71h27q146 261 277 261q57 0 57 -77q0 -46 -24 -99q-33 24 -75 24q-36 0 -73 -15 l24 -75q49 -157 89 -157q26 0 87 71l9 -5q-32 -77 -90.5 -132t-126.5 -55q-16 0 -29.5 3.5t-24 7.5t-20.5 14.5t-16.5 17t-14.5 23.5l-12 25.5t-10.5 30t-9 31t-9 35.5t-9.5 36h-34l-7 -34z" />
<glyph unicode="&#x139;" horiz-adv-x="569" d="M506 821q0 -49 -76 -80t-207 -35l-7 13q87 85 157 177q61 0 97 -20t36 -55zM544 0h-515l-1 16l40 13q23 8 28 43l108 506l7 31l-52 25l5 16h326v-16l-34 -11q-27 -8 -34 -45l-108 -506l-7 -32h100l159 224h10q5 -17 5 -65q0 -100 -37 -199z" />
<glyph unicode="&#x13a;" horiz-adv-x="316" d="M487 856q0 -49 -76 -80t-207 -35l-7 13q87 85 157 177q61 0 97 -20t36 -55zM80 180l86 374l11 54l-70 35v12q114 28 289 39l8 -10l-28 -130l-86 -374q-13 -52 -13 -65q0 -14 10 -14q12 0 69 75q3 4 5 6l9 -5q-27 -80 -79 -133.5t-121 -53.5q-49 0 -74.5 29.5t-25.5 83.5 q0 30 10 77z" />
<glyph unicode="&#x13b;" horiz-adv-x="569" d="M544 0h-515l-1 16l40 13q23 8 28 43l108 506l7 31l-52 25l5 16h326v-16l-34 -11q-27 -8 -34 -45l-108 -506l-7 -32h100l159 224h10q5 -17 5 -65q0 -100 -37 -199zM375 -137q0 -62 -54 -126t-134 -99l-10 12q46 53 69 123q-53 14 -53 69q0 43 31.5 72.5t73.5 29.5 q34 0 55.5 -22.5t21.5 -58.5z" />
<glyph unicode="&#x13c;" horiz-adv-x="316" d="M80 180l86 374l11 54l-70 35v12q114 28 289 39l8 -10l-28 -130l-86 -374q-13 -52 -13 -65q0 -14 10 -14q12 0 69 75q3 4 5 6l9 -5q-27 -80 -79 -133.5t-121 -53.5q-49 0 -74.5 29.5t-25.5 83.5q0 30 10 77zM240 -137q0 -62 -54 -126t-134 -99l-10 12q46 53 69 123 q-53 14 -53 69q0 43 31.5 72.5t73.5 29.5q34 0 55.5 -22.5t21.5 -58.5z" />
<glyph unicode="&#x13d;" horiz-adv-x="569" d="M697 579q0 -62 -54 -126t-134 -99l-10 12q46 53 69 123q-53 14 -53 69q0 43 31.5 72.5t73.5 29.5q34 0 55.5 -22.5t21.5 -58.5zM544 0h-515l-1 16l40 13q23 8 28 43l108 506l7 31l-52 25l5 16h326v-16l-34 -11q-27 -8 -34 -45l-108 -506l-7 -32h100l159 224h10 q5 -17 5 -65q0 -100 -37 -199z" />
<glyph unicode="&#x13e;" horiz-adv-x="564" d="M635 614q0 -62 -54 -126t-134 -99l-10 12q46 53 69 123q-53 14 -53 69q0 43 31.5 72.5t73.5 29.5q34 0 55.5 -22.5t21.5 -58.5zM80 180l86 374l11 54l-70 35v12q114 28 289 39l8 -10l-28 -130l-86 -374q-13 -52 -13 -65q0 -14 10 -14q12 0 69 75q3 4 5 6l9 -5 q-27 -80 -79 -133.5t-121 -53.5q-49 0 -74.5 29.5t-25.5 83.5q0 30 10 77z" />
<glyph unicode="&#x13f;" horiz-adv-x="569" d="M544 0h-515l-1 16l40 13q23 8 28 43l108 506l7 31l-52 25l5 16h326v-16l-34 -11q-27 -8 -34 -45l-108 -506l-7 -32h100l159 224h10q5 -17 5 -65q0 -100 -37 -199zM609 336q-36 0 -57.5 20t-21.5 52q0 43 32 72.5t75 29.5q33 0 54 -19t21 -50q0 -43 -30.5 -74t-72.5 -31z " />
<glyph unicode="&#x140;" horiz-adv-x="530" d="M80 180l86 374l11 54l-70 35v12q114 28 289 39l8 -10l-28 -130l-86 -374q-13 -52 -13 -65q0 -14 10 -14q12 0 69 75q3 4 5 6l9 -5q-27 -80 -79 -133.5t-121 -53.5q-49 0 -74.5 29.5t-25.5 83.5q0 30 10 77zM605 402q0 -49 -36.5 -81t-86.5 -32q-40 0 -64 20.5t-24 55.5 q0 48 38 80t86 32q40 0 63.5 -20t23.5 -55z" />
<glyph unicode="&#x141;" horiz-adv-x="569" d="M544 0h-515l-1 16l40 13q23 8 28 43l39 182l-77 -34l-15 34l101 45l60 279l7 31l-52 25l5 16h326v-16l-34 -11q-27 -8 -34 -45l-37 -172l75 33l15 -34l-99 -44l-62 -289l-7 -32h100l159 224h10q5 -17 5 -65q0 -100 -37 -199z" />
<glyph unicode="&#x142;" horiz-adv-x="316" d="M80 180l21 91l-64 -28l-15 34l89 40l55 237l11 54l-70 35v12q114 28 289 39l8 -10l-28 -130l-31 -134l94 42l15 -34l-119 -53l-45 -195q-13 -52 -13 -65q0 -14 10 -14q12 0 69 75q3 4 5 6l9 -5q-27 -80 -79 -133.5t-121 -53.5q-49 0 -74.5 29.5t-25.5 83.5q0 30 10 77z " />
<glyph unicode="&#x143;" horiz-adv-x="675" d="M652 821q0 -49 -76 -80t-207 -35l-7 13q87 85 157 177q61 0 97 -20t36 -55zM217 1h-197v16l50 15q19 6 25.5 14t10.5 27l114 536l-68 25l5 16h207l225 -421l74 349l7 31l-78 25l5 16h197v-16l-50 -15q-19 -6 -25.5 -14t-10.5 -27l-123 -578h-135l-223 431l-76 -358 l-7 -31l78 -25z" />
<glyph unicode="&#x144;" horiz-adv-x="634" d="M594 670q0 -49 -76 -80t-207 -35l-7 13q87 85 157 177q61 0 97 -20t36 -55zM276 0q-133 -7 -192 -7q-21 0 -16 17l36 170l22 101l7 33q13 64 13 72q0 13 -8 13q-5 0 -12 -5.5t-19.5 -20.5t-19 -23t-24.5 -32l-10 5q24 80 73.5 133.5t118.5 53.5q44 0 70.5 -24.5 t26.5 -70.5q0 -52 -24 -134h3q96 229 231 229q47 0 75 -27.5t28 -73.5q0 -56 -47 -229q-13 -52 -13 -65q0 -14 10 -14q12 0 69 75q3 4 5 6l9 -5q-27 -80 -79 -133.5t-121 -53.5q-49 0 -74.5 29.5t-25.5 83.5q0 30 10 77q6 29 17.5 71.5t18.5 72.5t7 46q0 17 -13 17 q-22 0 -57.5 -63t-56.5 -144z" />
<glyph unicode="&#x145;" horiz-adv-x="675" d="M217 1h-197v16l50 15q19 6 25.5 14t10.5 27l114 536l-68 25l5 16h207l225 -421l74 349l7 31l-78 25l5 16h197v-16l-50 -15q-19 -6 -25.5 -14t-10.5 -27l-123 -578h-135l-223 431l-76 -358l-7 -31l78 -25zM395 -137q0 -62 -54 -126t-134 -99l-10 12q46 53 69 123 q-53 14 -53 69q0 43 31.5 72.5t73.5 29.5q34 0 55.5 -22.5t21.5 -58.5z" />
<glyph unicode="&#x146;" horiz-adv-x="634" d="M276 0q-133 -7 -192 -7q-21 0 -16 17l36 170l22 101l7 33q13 64 13 72q0 13 -8 13q-5 0 -12 -5.5t-19.5 -20.5t-19 -23t-24.5 -32l-10 5q24 80 73.5 133.5t118.5 53.5q44 0 70.5 -24.5t26.5 -70.5q0 -52 -24 -134h3q96 229 231 229q47 0 75 -27.5t28 -73.5 q0 -56 -47 -229q-13 -52 -13 -65q0 -14 10 -14q12 0 69 75q3 4 5 6l9 -5q-27 -80 -79 -133.5t-121 -53.5q-49 0 -74.5 29.5t-25.5 83.5q0 30 10 77q6 29 17.5 71.5t18.5 72.5t7 46q0 17 -13 17q-22 0 -57.5 -63t-56.5 -144zM406 -137q0 -62 -54 -126t-134 -99l-10 12 q46 53 69 123q-53 14 -53 69q0 43 31.5 72.5t73.5 29.5q34 0 55.5 -22.5t21.5 -58.5z" />
<glyph unicode="&#x147;" horiz-adv-x="675" d="M569 719l-13 -8h-141q-27 66 -54 170l11 7q70 -35 142 -60q23 8 170 60l7 -8q-72 -90 -122 -161zM217 1h-197v16l50 15q19 6 25.5 14t10.5 27l114 536l-68 25l5 16h207l225 -421l74 349l7 31l-78 25l5 16h197v-16l-50 -15q-19 -6 -25.5 -14t-10.5 -27l-123 -578h-135 l-223 431l-76 -358l-7 -31l78 -25z" />
<glyph unicode="&#x148;" horiz-adv-x="634" d="M503 570l-13 -8h-141q-27 66 -54 170l11 7q70 -35 142 -60q23 8 170 60l7 -8q-72 -90 -122 -161zM276 0q-133 -7 -192 -7q-21 0 -16 17l36 170l22 101l7 33q13 64 13 72q0 13 -8 13q-5 0 -12 -5.5t-19.5 -20.5t-19 -23t-24.5 -32l-10 5q24 80 73.5 133.5t118.5 53.5 q44 0 70.5 -24.5t26.5 -70.5q0 -52 -24 -134h3q96 229 231 229q47 0 75 -27.5t28 -73.5q0 -56 -47 -229q-13 -52 -13 -65q0 -14 10 -14q12 0 69 75q3 4 5 6l9 -5q-27 -80 -79 -133.5t-121 -53.5q-49 0 -74.5 29.5t-25.5 83.5q0 30 10 77q6 29 17.5 71.5t18.5 72.5t7 46 q0 17 -13 17q-22 0 -57.5 -63t-56.5 -144z" />
<glyph unicode="&#x14a;" horiz-adv-x="683" d="M225 1h-197v16l50 15q19 6 25.5 14t10.5 27l114 536l-68 25l5 16h207l225 -421l74 349l7 31l-78 25l5 16h197v-16l-50 -15q-19 -6 -25.5 -14t-10.5 -27l-117 -552q-20 -83 -60.5 -129.5t-129.5 -91.5l-7 11q61 44 93 82.5t51 101.5h-88l-223 431l-76 -358l-7 -31l78 -25z " />
<glyph unicode="&#x14b;" horiz-adv-x="617" d="M276 0q-133 -7 -192 -7q-21 0 -16 17l36 170l22 101l7 33q13 64 13 72q0 13 -8 13q-5 0 -12 -5.5t-19.5 -20.5t-19 -23t-24.5 -32l-10 5q24 80 73.5 133.5t118.5 53.5q44 0 70.5 -24.5t26.5 -70.5q0 -52 -24 -134h3q96 229 231 229q102 0 102 -113q0 -7 -0.5 -13.5 t-1.5 -16t-2 -17t-4 -23t-5.5 -28.5t-8 -39t-10.5 -48t-13 -62t-16 -76q-27 -131 -109 -200t-188 -69q-58 0 -95 23t-37 57q0 58 87 70q15 -77 43 -77q25 0 44.5 40.5t38.5 130.5q65 302 65 313q0 25 -14 25q-22 0 -57.5 -63t-56.5 -144z" />
<glyph unicode="&#x14c;" horiz-adv-x="727" d="M349 747l23 106h342l-23 -106h-342zM778 400q0 -173 -119 -291.5t-288 -118.5q-134 0 -209.5 70.5t-75.5 184.5q0 177 120.5 296t289.5 119q132 0 207 -70t75 -190zM321 124q0 -94 50 -94q40 0 81 85.5t66 203t25 214.5q0 87 -49 87q-41 0 -82.5 -83t-66 -199t-24.5 -214 z" />
<glyph unicode="&#x14d;" horiz-adv-x="607" d="M259 597l23 106h342l-23 -106h-342zM640 302q0 -135 -96 -224t-232 -89q-112 0 -175.5 55.5t-63.5 154.5q0 131 97 221t233 90q111 0 174 -59t63 -149zM291 131q0 -101 29 -101q38 0 69 131t31 222q0 87 -29 87q-39 0 -69.5 -120.5t-30.5 -218.5z" />
<glyph unicode="&#x14e;" horiz-adv-x="727" d="M688 895h3l12 -5q-58 -185 -191 -185q-62 0 -89 47.5t-16 138.5l15 4q31 -59 119 -59q83 0 147 59zM778 400q0 -173 -119 -291.5t-288 -118.5q-134 0 -209.5 70.5t-75.5 184.5q0 177 120.5 296t289.5 119q132 0 207 -70t75 -190zM321 124q0 -94 50 -94q40 0 81 85.5 t66 203t25 214.5q0 87 -49 87q-41 0 -82.5 -83t-66 -199t-24.5 -214z" />
<glyph unicode="&#x14f;" horiz-adv-x="607" d="M593 746h3l12 -5q-58 -185 -191 -185q-62 0 -89 47.5t-16 138.5l15 4q31 -59 119 -59q83 0 147 59zM640 302q0 -135 -96 -224t-232 -89q-112 0 -175.5 55.5t-63.5 154.5q0 131 97 221t233 90q111 0 174 -59t63 -149zM291 131q0 -101 29 -101q38 0 69 131t31 222 q0 87 -29 87q-39 0 -69.5 -120.5t-30.5 -218.5z" />
<glyph unicode="&#x150;" horiz-adv-x="727" d="M545 821q0 -49 -67 -80t-182 -35l-7 13q87 85 157 177q46 0 72.5 -20t26.5 -55zM775 821q0 -49 -67 -80t-182 -35l-7 13q87 85 157 177q46 0 72.5 -20t26.5 -55zM778 400q0 -173 -119 -291.5t-288 -118.5q-134 0 -209.5 70.5t-75.5 184.5q0 177 120.5 296t289.5 119 q132 0 207 -70t75 -190zM321 124q0 -94 50 -94q40 0 81 85.5t66 203t25 214.5q0 87 -49 87q-41 0 -82.5 -83t-66 -199t-24.5 -214z" />
<glyph unicode="&#x151;" horiz-adv-x="607" d="M459 670q0 -49 -67 -80t-182 -35l-7 13q87 85 157 177q46 0 72.5 -20t26.5 -55zM689 670q0 -49 -67 -80t-182 -35l-7 13q87 85 157 177q46 0 72.5 -20t26.5 -55zM640 302q0 -135 -96 -224t-232 -89q-112 0 -175.5 55.5t-63.5 154.5q0 131 97 221t233 90q111 0 174 -59 t63 -149zM291 131q0 -101 29 -101q38 0 69 131t31 222q0 87 -29 87q-39 0 -69.5 -120.5t-30.5 -218.5z" />
<glyph unicode="&#x152;" horiz-adv-x="985" d="M947 0h-447q-41 -10 -91 -10q-151 0 -235.5 70.5t-84.5 192.5q0 184 116.5 295.5t307.5 111.5q60 0 107 -10h456q0 -49 -18.5 -111t-44.5 -103h-10l-87 174h-95l-57 -267l159 12l-14 -65l-154 13l-56 -263h103l164 181h10q5 -27 5 -51q0 -77 -34 -170zM326 194 q0 -86 20 -125t63 -39q41 0 78 35l106 502q-9 53 -61 53q-44 0 -84 -45.5t-65.5 -112t-41 -139t-15.5 -129.5z" />
<glyph unicode="&#x153;" horiz-adv-x="845" d="M863 171q-27 -82 -94 -131.5t-144 -49.5q-98 0 -153 64q-82 -65 -189 -65q-98 0 -153.5 55.5t-55.5 154.5q0 131 91.5 221t218.5 90q104 0 161 -67q85 67 192 67q67 0 111.5 -34t44.5 -97q0 -72 -69.5 -118.5t-205.5 -50.5q12 -95 96 -95q71 0 141 62zM292 131 q0 -101 29 -101q38 0 69 131t31 222q0 87 -29 87q-39 0 -69.5 -120.5t-30.5 -218.5zM706 470q-31 0 -60.5 -75t-29.5 -153q47 14 79.5 73.5t32.5 126.5q0 28 -22 28z" />
<glyph unicode="&#x154;" horiz-adv-x="740" d="M662 821q0 -49 -76 -80t-207 -35l-7 13q87 85 157 177q61 0 97 -20t36 -55zM355 0h-326v16l34 11q27 8 34 45l107 506l7 31l-52 25l4 16h315q133 0 203 -42.5t70 -121.5q0 -109 -140 -180l16 -56q41 -146 55 -175q17 -33 41 -45l28 -14l-5 -16l-205 -5q-41 -1 -61 14 t-28 48l-48 203h-49l-40 -188l-7 -31l52 -25zM450 610h-21l-7 -32l-59 -278h29q62 0 100.5 61t38.5 139q0 52 -21 81t-60 29z" />
<glyph unicode="&#x155;" horiz-adv-x="514" d="M537 670q0 -49 -76 -80t-207 -35l-7 13q87 85 157 177q61 0 97 -20t36 -55zM276 0q-133 -7 -192 -7q-21 0 -16 17l36 170l22 101l7 33q13 64 13 72q0 13 -8 13q-5 0 -12 -5.5t-19.5 -20.5t-19 -23t-24.5 -32l-10 5q24 80 73.5 133.5t118.5 53.5q44 0 70.5 -24.5 t26.5 -70.5q0 -52 -24 -134h3q94 229 191 229q58 0 58 -77q0 -83 -63 -160q-52 28 -99 28q-41 0 -61 -30.5t-33 -90.5z" />
<glyph unicode="&#x156;" horiz-adv-x="740" d="M355 0h-326v16l34 11q27 8 34 45l107 506l7 31l-52 25l4 16h315q133 0 203 -42.5t70 -121.5q0 -109 -140 -180l16 -56q41 -146 55 -175q17 -33 41 -45l28 -14l-5 -16l-205 -5q-41 -1 -61 14t-28 48l-48 203h-49l-40 -188l-7 -31l52 -25zM450 610h-21l-7 -32l-59 -278h29 q62 0 100.5 61t38.5 139q0 52 -21 81t-60 29zM455 -137q0 -62 -54 -126t-134 -99l-10 12q46 53 69 123q-53 14 -53 69q0 43 31.5 72.5t73.5 29.5q34 0 55.5 -22.5t21.5 -58.5z" />
<glyph unicode="&#x157;" horiz-adv-x="514" d="M276 0q-133 -7 -192 -7q-21 0 -16 17l36 170l22 101l7 33q13 64 13 72q0 13 -8 13q-5 0 -12 -5.5t-19.5 -20.5t-19 -23t-24.5 -32l-10 5q24 80 73.5 133.5t118.5 53.5q44 0 70.5 -24.5t26.5 -70.5q0 -52 -24 -134h3q94 229 191 229q58 0 58 -77q0 -83 -63 -160 q-52 28 -99 28q-41 0 -61 -30.5t-33 -90.5zM237 -137q0 -62 -54 -126t-134 -99l-10 12q46 53 69 123q-53 14 -53 69q0 43 31.5 72.5t73.5 29.5q34 0 55.5 -22.5t21.5 -58.5z" />
<glyph unicode="&#x158;" horiz-adv-x="740" d="M579 719l-13 -8h-141q-27 66 -54 170l11 7q70 -35 142 -60q23 8 170 60l7 -8q-72 -90 -122 -161zM355 0h-326v16l34 11q27 8 34 45l107 506l7 31l-52 25l4 16h315q133 0 203 -42.5t70 -121.5q0 -109 -140 -180l16 -56q41 -146 55 -175q17 -33 41 -45l28 -14l-5 -16 l-205 -5q-41 -1 -61 14t-28 48l-48 203h-49l-40 -188l-7 -31l52 -25zM450 610h-21l-7 -32l-59 -278h29q62 0 100.5 61t38.5 139q0 52 -21 81t-60 29z" />
<glyph unicode="&#x159;" horiz-adv-x="514" d="M446 570l-13 -8h-141q-27 66 -54 170l11 7q70 -35 142 -60q23 8 170 60l7 -8q-72 -90 -122 -161zM276 0q-133 -7 -192 -7q-21 0 -16 17l36 170l22 101l7 33q13 64 13 72q0 13 -8 13q-5 0 -12 -5.5t-19.5 -20.5t-19 -23t-24.5 -32l-10 5q24 80 73.5 133.5t118.5 53.5 q44 0 70.5 -24.5t26.5 -70.5q0 -52 -24 -134h3q94 229 191 229q58 0 58 -77q0 -83 -63 -160q-52 28 -99 28q-41 0 -61 -30.5t-33 -90.5z" />
<glyph unicode="&#x15a;" horiz-adv-x="548" d="M595 821q0 -49 -76 -80t-207 -35l-7 13q87 85 157 177q61 0 97 -20t36 -55zM120 443q0 70 44 120t113 73.5t153 23.5q132 0 197 -42q15 -10 15 -26q0 -31 -35.5 -83t-69.5 -82l-10 2l-48 189q-20 2 -31 2q-47 0 -82.5 -26.5t-35.5 -70.5q0 -36 24.5 -68t59.5 -58t70 -54 t59.5 -67.5t24.5 -86.5q0 -97 -88.5 -148t-222.5 -51q-158 0 -207 31q-20 13 -20 38q0 33 31 84t65 85l10 -2l60 -191q25 -5 52 -5q46 0 78.5 25.5t32.5 61.5q0 33 -24.5 63.5t-59.5 56t-70.5 53t-60 67t-24.5 86.5z" />
<glyph unicode="&#x15b;" horiz-adv-x="501" d="M539 670q0 -49 -76 -80t-207 -35l-7 13q87 85 157 177q61 0 97 -20t36 -55zM516 143q0 -71 -65 -112t-192 -41q-93 0 -156 26.5t-63 75.5q0 30 39.5 50t110.5 20l9 -4q7 -50 14 -72q18 -56 58 -56q17 0 28 11.5t11 28.5q0 28 -34 62t-74 62.5t-74 71.5t-34 85 q0 72 64 115.5t179 43.5q94 0 155.5 -29.5t61.5 -73.5q0 -34 -38.5 -53.5t-101.5 -15.5l-9 4q-3 40 -12 73q-17 55 -52 55q-42 0 -42 -43q0 -24 22.5 -50t54.5 -51t63.5 -52t54 -61t22.5 -70z" />
<glyph unicode="&#x15c;" horiz-adv-x="548" d="M598 718l-11 -7q-70 35 -142 60q-22 -8 -170 -60l-7 8q72 90 122 161l13 8h141q27 -66 54 -170zM120 443q0 70 44 120t113 73.5t153 23.5q132 0 197 -42q15 -10 15 -26q0 -31 -35.5 -83t-69.5 -82l-10 2l-48 189q-20 2 -31 2q-47 0 -82.5 -26.5t-35.5 -70.5 q0 -36 24.5 -68t59.5 -58t70 -54t59.5 -67.5t24.5 -86.5q0 -97 -88.5 -148t-222.5 -51q-158 0 -207 31q-20 13 -20 38q0 33 31 84t65 85l10 -2l60 -191q25 -5 52 -5q46 0 78.5 25.5t32.5 61.5q0 33 -24.5 63.5t-59.5 56t-70.5 53t-60 67t-24.5 86.5z" />
<glyph unicode="&#x15d;" horiz-adv-x="501" d="M536 568l-11 -7q-70 35 -142 60q-22 -8 -170 -60l-7 8q72 90 122 161l13 8h141q27 -66 54 -170zM516 143q0 -71 -65 -112t-192 -41q-93 0 -156 26.5t-63 75.5q0 30 39.5 50t110.5 20l9 -4q7 -50 14 -72q18 -56 58 -56q17 0 28 11.5t11 28.5q0 28 -34 62t-74 62.5 t-74 71.5t-34 85q0 72 64 115.5t179 43.5q94 0 155.5 -29.5t61.5 -73.5q0 -34 -38.5 -53.5t-101.5 -15.5l-9 4q-3 40 -12 73q-17 55 -52 55q-42 0 -42 -43q0 -24 22.5 -50t54.5 -51t63.5 -52t54 -61t22.5 -70z" />
<glyph unicode="&#x15e;" horiz-adv-x="548" d="M182 -106l-2 6l33 91q-117 2 -163 30q-20 13 -20 38q0 33 31 84t65 85l10 -2l60 -191q25 -5 52 -5q46 0 78.5 25.5t32.5 61.5q0 33 -24.5 63.5t-59.5 56t-70.5 53t-60 67t-24.5 86.5q0 70 44 120t113 73.5t153 23.5q132 0 197 -42q15 -10 15 -26q0 -31 -35.5 -83 t-69.5 -82l-10 2l-48 189q-20 2 -31 2q-47 0 -82.5 -26.5t-35.5 -70.5q0 -36 24.5 -68t59.5 -58t70 -54t59.5 -67.5t24.5 -86.5q0 -97 -88 -148t-220 -51l-9 -23q127 -8 127 -78q0 -39 -38.5 -65t-92 -36t-117.5 -10l-1 15q95 36 95 74q0 24 -42 27z" />
<glyph unicode="&#x15f;" horiz-adv-x="501" d="M198 -106l-2 6l33 91q-82 4 -135.5 30t-53.5 71q0 30 39.5 50t110.5 20l9 -4q7 -50 14 -72q18 -56 58 -56q17 0 28 11.5t11 28.5q0 28 -34 62t-74 62.5t-74 71.5t-34 85q0 72 64 115.5t179 43.5q94 0 155.5 -29.5t61.5 -73.5q0 -34 -38.5 -53.5t-101.5 -15.5l-9 4 q-3 40 -12 73q-17 55 -52 55q-42 0 -42 -43q0 -24 22.5 -50t54.5 -51t63.5 -52t54 -61t22.5 -70q0 -68 -60.5 -109t-179.5 -44l-9 -23q127 -8 127 -78q0 -39 -38.5 -65t-92 -36t-117.5 -10l-1 15q95 36 95 74q0 24 -42 27z" />
<glyph unicode="&#x160;" horiz-adv-x="548" d="M512 719l-13 -8h-141q-27 66 -54 170l11 7q70 -35 142 -60q23 8 170 60l7 -8q-72 -90 -122 -161zM120 443q0 70 44 120t113 73.5t153 23.5q132 0 197 -42q15 -10 15 -26q0 -31 -35.5 -83t-69.5 -82l-10 2l-48 189q-20 2 -31 2q-47 0 -82.5 -26.5t-35.5 -70.5 q0 -36 24.5 -68t59.5 -58t70 -54t59.5 -67.5t24.5 -86.5q0 -97 -88.5 -148t-222.5 -51q-158 0 -207 31q-20 13 -20 38q0 33 31 84t65 85l10 -2l60 -191q25 -5 52 -5q46 0 78.5 25.5t32.5 61.5q0 33 -24.5 63.5t-59.5 56t-70.5 53t-60 67t-24.5 86.5z" />
<glyph unicode="&#x161;" horiz-adv-x="501" d="M448 570l-13 -8h-141q-27 66 -54 170l11 7q70 -35 142 -60q22 8 170 60l7 -8q-72 -90 -122 -161zM516 143q0 -71 -65 -112t-192 -41q-93 0 -156 26.5t-63 75.5q0 30 39.5 50t110.5 20l9 -4q7 -50 14 -72q18 -56 58 -56q17 0 28 11.5t11 28.5q0 28 -34 62t-74 62.5 t-74 71.5t-34 85q0 72 64 115.5t179 43.5q94 0 155.5 -29.5t61.5 -73.5q0 -34 -38.5 -53.5t-101.5 -15.5l-9 4q-3 40 -12 73q-17 55 -52 55q-42 0 -42 -43q0 -24 22.5 -50t54.5 -51t63.5 -52t54 -61t22.5 -70z" />
<glyph unicode="&#x162;" horiz-adv-x="660" d="M279 -106l-2 6l36 100h-144v16l34 11q27 8 34 45l114 538h-56l-161 -214h-10q-3 21 -3 47q0 99 39 207h616q-2 -58 -23 -132.5t-49 -121.5h-10l-70 214h-55l-114 -538l-7 -31l52 -25l-5 -16h-135l-12 -33q127 -8 127 -78q0 -39 -38.5 -65t-92 -36t-117.5 -10l-1 15 q95 36 95 74q0 24 -42 27z" />
<glyph unicode="&#x163;" horiz-adv-x="374" d="M140 -106l-2 6l33 92q-43 7 -65.5 37.5t-22.5 77.5q0 32 9 73l57 265h-69l1 10l80 42l222 115l10 -2l-28 -130h86l-8 -35h-85l-56 -265q-10 -51 -10 -61q0 -18 16 -18q29 0 95 81l9 -5q-27 -73 -77.5 -125.5t-116.5 -60.5l-9 -24q127 -8 127 -78q0 -39 -38.5 -65t-92 -36 t-117.5 -10l-1 15q95 36 95 74q0 24 -42 27z" />
<glyph unicode="&#x164;" horiz-adv-x="660" d="M562 719l-13 -8h-141q-27 66 -54 170l11 7q70 -35 142 -60q22 8 170 60l7 -8q-72 -90 -122 -161zM134 396h-10q-3 21 -3 47q0 99 39 207h616q-2 -58 -23 -132.5t-49 -121.5h-10l-70 214h-55l-114 -538l-7 -31l52 -25l-5 -16h-326v16l34 11q27 8 34 45l114 538h-56z" />
<glyph unicode="&#x165;" horiz-adv-x="402" d="M581 704q0 -52 -45 -105t-112 -82l-8 10q37 42 58 103q-45 11 -45 57q0 35 26.5 60t61.5 25q28 0 46 -19t18 -49zM412 177q-29 -79 -85 -133t-130 -54q-55 0 -84.5 32t-29.5 85q0 32 9 73l57 265h-69l1 10l80 42l222 115l10 -2l-28 -130h86l-8 -35h-85l-56 -265 q-10 -51 -10 -61q0 -18 16 -18q29 0 95 81z" />
<glyph unicode="&#x166;" horiz-adv-x="660" d="M134 396h-10q-3 21 -3 47q0 99 39 207h616q-2 -58 -23 -132.5t-49 -121.5h-10l-70 214h-55l-60 -282h116l-8 -45h-117l-45 -211l-7 -31l52 -25l-5 -16h-326v16l34 11q27 8 34 45l45 211h-115l8 45h116l60 282h-56z" />
<glyph unicode="&#x167;" horiz-adv-x="374" d="M412 177q-29 -79 -85 -133t-130 -54q-55 0 -84.5 32t-29.5 85q0 32 9 73l27 125h-67l8 35h66l23 105h-69l1 10l80 42l222 115l10 -2l-28 -130h86l-8 -35h-85l-22 -105h88l-8 -35h-88l-26 -125q-10 -51 -10 -61q0 -18 16 -18q29 0 95 81z" />
<glyph unicode="&#x168;" horiz-adv-x="685" d="M682 831q12 9 35 26.5t35 26.5l9 -3q-5 -70 -45 -118t-104 -48q-10 0 -20.5 1t-19.5 2.5t-20 4.5t-18 4.5t-18.5 6t-17 6.5t-17 7.5t-15 7t-15 7t-13.5 6.5q-12 -9 -35.5 -26.5t-34.5 -26.5l-9 3q5 73 45 119.5t104 46.5q30 0 59 -8.5t65.5 -24t49.5 -20.5zM164 650h326 v-16l-34 -11q-27 -8 -34 -45l-72 -338q-8 -40 -8 -68q0 -58 28 -88.5t79 -30.5q122 0 161 187l72 338l7 32l-69 24l5 16h187v-16l-79 -24l-7 -32l-72 -338q-28 -131 -94 -190.5t-185 -59.5t-183 56t-64 149q0 27 6 55l70 328l7 31l-52 25z" />
<glyph unicode="&#x169;" d="M567 681q12 9 35.5 26.5t34.5 26.5l9 -3q-5 -70 -45 -118t-104 -48q-10 0 -20.5 1t-19.5 2.5t-20 4.5t-18 4.5t-18.5 6t-17 6.5t-17 7.5t-15 7t-15 7t-13.5 6.5q-12 -9 -35.5 -26.5t-34.5 -26.5l-9 3q5 73 45 119.5t104 46.5q30 0 59 -8.5t65.5 -24t49.5 -20.5zM423 219 h-3q-96 -229 -231 -229q-47 0 -75 27.5t-28 73.5q0 56 47 229q13 52 13 65q0 14 -10 14q-12 0 -69 -75q-3 -4 -5 -6l-9 5q27 80 79 133.5t121 53.5q49 0 74.5 -29.5t25.5 -83.5q0 -30 -10 -77q-6 -29 -17.5 -71.5t-18.5 -72.5t-7 -46q0 -17 13 -17q22 0 57.5 63t56.5 144 l38 180q133 7 192 7q21 0 16 -17l-36 -170l-22 -101l-7 -33q-13 -64 -13 -72q0 -13 8 -13q5 0 12 5.5t19.5 20.5t19 23t24.5 32l10 -5q-24 -80 -73.5 -133.5t-118.5 -53.5q-44 0 -70.5 24.5t-26.5 70.5q0 52 24 134z" />
<glyph unicode="&#x16a;" horiz-adv-x="685" d="M377 747l23 106h342l-23 -106h-342zM164 650h326v-16l-34 -11q-27 -8 -34 -45l-72 -338q-8 -40 -8 -68q0 -58 28 -88.5t79 -30.5q122 0 161 187l72 338l7 32l-69 24l5 16h187v-16l-79 -24l-7 -32l-72 -338q-28 -131 -94 -190.5t-185 -59.5t-183 56t-64 149q0 27 6 55 l70 328l7 31l-52 25z" />
<glyph unicode="&#x16b;" d="M264 597l23 106h342l-23 -106h-342zM423 219h-3q-96 -229 -231 -229q-47 0 -75 27.5t-28 73.5q0 56 47 229q13 52 13 65q0 14 -10 14q-12 0 -69 -75q-3 -4 -5 -6l-9 5q27 80 79 133.5t121 53.5q49 0 74.5 -29.5t25.5 -83.5q0 -30 -10 -77q-6 -29 -17.5 -71.5t-18.5 -72.5 t-7 -46q0 -17 13 -17q22 0 57.5 63t56.5 144l38 180q133 7 192 7q21 0 16 -17l-36 -170l-22 -101l-7 -33q-13 -64 -13 -72q0 -13 8 -13q5 0 12 5.5t19.5 20.5t19 23t24.5 32l10 -5q-24 -80 -73.5 -133.5t-118.5 -53.5q-44 0 -70.5 24.5t-26.5 70.5q0 52 24 134z" />
<glyph unicode="&#x16c;" horiz-adv-x="685" d="M716 895h3l12 -5q-58 -185 -191 -185q-62 0 -89 47.5t-16 138.5l15 4q31 -59 119 -59q83 0 147 59zM164 650h326v-16l-34 -11q-27 -8 -34 -45l-72 -338q-8 -40 -8 -68q0 -58 28 -88.5t79 -30.5q122 0 161 187l72 338l7 32l-69 24l5 16h187v-16l-79 -24l-7 -32l-72 -338 q-28 -131 -94 -190.5t-185 -59.5t-183 56t-64 149q0 27 6 55l70 328l7 31l-52 25z" />
<glyph unicode="&#x16d;" d="M598 746h3l12 -5q-58 -185 -191 -185q-62 0 -89 47.5t-16 138.5l15 4q31 -59 119 -59q83 0 147 59zM423 219h-3q-96 -229 -231 -229q-47 0 -75 27.5t-28 73.5q0 56 47 229q13 52 13 65q0 14 -10 14q-12 0 -69 -75q-3 -4 -5 -6l-9 5q27 80 79 133.5t121 53.5 q49 0 74.5 -29.5t25.5 -83.5q0 -30 -10 -77q-6 -29 -17.5 -71.5t-18.5 -72.5t-7 -46q0 -17 13 -17q22 0 57.5 63t56.5 144l38 180q133 7 192 7q21 0 16 -17l-36 -170l-22 -101l-7 -33q-13 -64 -13 -72q0 -13 8 -13q5 0 12 5.5t19.5 20.5t19 23t24.5 32l10 -5 q-24 -80 -73.5 -133.5t-118.5 -53.5q-44 0 -70.5 24.5t-26.5 70.5q0 52 24 134z" />
<glyph unicode="&#x16e;" horiz-adv-x="685" d="M673 816q0 -47 -39 -79.5t-95 -32.5q-42 0 -66.5 21t-24.5 58q0 48 39 80t95 32q42 0 66.5 -21t24.5 -58zM521 786q0 -35 29 -35q21 0 35.5 18t14.5 45q0 34 -29 34q-21 0 -35.5 -18t-14.5 -44zM164 650h326v-16l-34 -11q-27 -8 -34 -45l-72 -338q-8 -40 -8 -68 q0 -58 28 -88.5t79 -30.5q122 0 161 187l72 338l7 32l-69 24l5 16h187v-16l-79 -24l-7 -32l-72 -338q-28 -131 -94 -190.5t-185 -59.5t-183 56t-64 149q0 27 6 55l70 328l7 31l-52 25z" />
<glyph unicode="&#x16f;" d="M557 666q0 -47 -39 -79.5t-95 -32.5q-42 0 -66.5 21t-24.5 58q0 48 39 80t95 32q42 0 66.5 -21t24.5 -58zM405 636q0 -35 29 -35q21 0 35.5 18t14.5 45q0 34 -29 34q-21 0 -35.5 -18t-14.5 -44zM423 219h-3q-96 -229 -231 -229q-47 0 -75 27.5t-28 73.5q0 56 47 229 q13 52 13 65q0 14 -10 14q-12 0 -69 -75q-3 -4 -5 -6l-9 5q27 80 79 133.5t121 53.5q49 0 74.5 -29.5t25.5 -83.5q0 -30 -10 -77q-6 -29 -17.5 -71.5t-18.5 -72.5t-7 -46q0 -17 13 -17q22 0 57.5 63t56.5 144l38 180q133 7 192 7q21 0 16 -17l-36 -170l-22 -101l-7 -33 q-13 -64 -13 -72q0 -13 8 -13q5 0 12 5.5t19.5 20.5t19 23t24.5 32l10 -5q-24 -80 -73.5 -133.5t-118.5 -53.5q-44 0 -70.5 24.5t-26.5 70.5q0 52 24 134z" />
<glyph unicode="&#x170;" horiz-adv-x="685" d="M573 821q0 -49 -67 -80t-182 -35l-7 13q87 85 157 177q46 0 72.5 -20t26.5 -55zM803 821q0 -49 -67 -80t-182 -35l-7 13q87 85 157 177q46 0 72.5 -20t26.5 -55zM164 650h326v-16l-34 -11q-27 -8 -34 -45l-72 -338q-8 -40 -8 -68q0 -58 28 -88.5t79 -30.5q122 0 161 187 l72 338l7 32l-69 24l5 16h187v-16l-79 -24l-7 -32l-72 -338q-28 -131 -94 -190.5t-185 -59.5t-183 56t-64 149q0 27 6 55l70 328l7 31l-52 25z" />
<glyph unicode="&#x171;" d="M464 670q0 -49 -67 -80t-182 -35l-7 13q87 85 157 177q46 0 72.5 -20t26.5 -55zM694 670q0 -49 -67 -80t-182 -35l-7 13q87 85 157 177q46 0 72.5 -20t26.5 -55zM423 219h-3q-96 -229 -231 -229q-47 0 -75 27.5t-28 73.5q0 56 47 229q13 52 13 65q0 14 -10 14 q-12 0 -69 -75q-3 -4 -5 -6l-9 5q27 80 79 133.5t121 53.5q49 0 74.5 -29.5t25.5 -83.5q0 -30 -10 -77q-6 -29 -17.5 -71.5t-18.5 -72.5t-7 -46q0 -17 13 -17q22 0 57.5 63t56.5 144l38 180q133 7 192 7q21 0 16 -17l-36 -170l-22 -101l-7 -33q-13 -64 -13 -72q0 -13 8 -13 q5 0 12 5.5t19.5 20.5t19 23t24.5 32l10 -5q-24 -80 -73.5 -133.5t-118.5 -53.5q-44 0 -70.5 24.5t-26.5 70.5q0 52 24 134z" />
<glyph unicode="&#x172;" horiz-adv-x="685" d="M495 -63q-32 -71 -78 -112.5t-93 -41.5q-32 0 -49 16t-17 44q0 41 42.5 80.5t108.5 67.5q-11 -1 -34 -1q-119 0 -183 56t-64 149q0 27 6 55l70 328l7 31l-52 25l5 16h326v-16l-34 -11q-27 -8 -34 -45l-72 -338q-8 -40 -8 -68q0 -58 28 -88.5t79 -30.5q122 0 161 187 l72 338l7 32l-69 24l5 16h187v-16l-79 -24l-7 -32l-72 -338q-37 -174 -145 -224q-106 -60 -106 -102q0 -19 17 -19q22 0 67 48z" />
<glyph unicode="&#x173;" d="M423 219h-3q-96 -229 -231 -229q-47 0 -75 27.5t-28 73.5q0 56 47 229q13 52 13 65q0 14 -10 14q-12 0 -69 -75q-3 -4 -5 -6l-9 5q27 80 79 133.5t121 53.5q49 0 74.5 -29.5t25.5 -83.5q0 -30 -10 -77q-6 -29 -17.5 -71.5t-18.5 -72.5t-7 -46q0 -17 13 -17q22 0 57.5 63 t56.5 144l38 180q133 7 192 7q21 0 16 -17l-36 -170l-22 -101l-7 -33q-13 -64 -13 -72q0 -13 8 -13q5 0 12 5.5t19.5 20.5t19 23t24.5 32l10 -5q-16 -55 -45 -97q-9 -15 -39 -58t-45 -69t-15 -39q0 -19 17 -19q22 0 67 48l8 -6q-32 -71 -77 -112.5t-91 -41.5q-31 0 -48 16.5 t-17 44.5q0 27 21.5 55.5t44.5 47.5t64 48q-20 -5 -37 -5q-44 0 -70.5 24.5t-26.5 70.5q0 52 24 134z" />
<glyph unicode="&#x174;" horiz-adv-x="1044" d="M848 718l-11 -7q-70 35 -142 60q-22 -8 -170 -60l-7 8q72 90 122 161l13 8h141q27 -66 54 -170zM1038 480l-263 -480h-115l-46 418l-218 -418h-115l-81 572q-6 36 -35 49l-30 13l5 16h342l-1 -16l-62 -23l41 -402l145 290l-8 73q-4 34 -35 49l-27 13l5 16h351l-1 -16 l-73 -26l28 -400l196 400l-69 26l5 16h203l-1 -16q-27 -10 -53 -30q-36 -28 -88 -124z" />
<glyph unicode="&#x175;" horiz-adv-x="877" d="M712 568l-11 -7q-70 35 -142 60q-22 -8 -170 -60l-7 8q72 90 122 161l13 8h141q27 -66 54 -170zM516 510q65 0 99.5 -35.5t34.5 -116.5q0 -122 -43 -304q114 153 114 342q0 53 -11 95q40 19 92 19q60 0 94.5 -31.5t34.5 -90.5q0 -98 -95.5 -201t-267.5 -197l-135 9 q2 132 2 167q-53 -90 -153 -176l-135 9q0 15 1.5 78t1.5 92q0 79 -1 125t-4.5 69t-7.5 29.5t-11 6.5q-23 0 -79 -81l-10 5q24 77 80 132t133 55q114 0 114 -162q0 -116 -39 -276q114 154 114 324q0 53 -11 95q38 19 88 19z" />
<glyph unicode="&#x176;" horiz-adv-x="605" d="M639 718l-11 -7q-70 35 -142 60q-23 -8 -170 -60l-7 8q72 90 122 161l13 8h141q27 -66 54 -170zM465 0h-326v16l34 11q27 8 34 45l26 125q20 82 2.5 217t-57.5 135q-27 0 -81 -81l-12 5q24 76 77 131.5t123 55.5q93 0 132.5 -96.5t31.5 -258.5q134 355 234 355 q40 0 53 -47.5t12 -128.5l-11 -6q-9 39 -19 57.5t-29 18.5q-36 0 -88.5 -68t-98 -166t-63.5 -182l-14 -66l-7 -31l52 -25z" />
<glyph unicode="&#x177;" horiz-adv-x="604" d="M561 568l-11 -7q-70 35 -142 60q-23 -8 -170 -60l-7 8q72 90 122 161l13 8h141q27 -66 54 -170zM373 341q0 -69 -20.5 -156.5t-58.5 -164.5q150 149 150 376q0 53 -11 95q40 19 94 19q61 0 94 -35t33 -97q0 -118 -100.5 -225.5t-277.5 -165.5q-103 -181 -250 -181 q-50 0 -81.5 22.5t-31.5 56.5q0 27 25 47t62 23q1 -3 2.5 -10.5t2.5 -12t2.5 -12.5t3.5 -13t4 -11.5t5 -10.5l6 -8t7 -6t9 -2q38 0 74 166.5t36 295.5q0 68 -17 68q-22 0 -78 -81l-10 5q25 77 79 132t129 55q59 0 88.5 -40t29.5 -129z" />
<glyph unicode="&#x178;" horiz-adv-x="605" d="M464 815q0 -43 -35 -72t-83 -29q-39 0 -62 19.5t-23 52.5q0 40 36.5 70t82.5 30q39 0 61.5 -19t22.5 -52zM720 815q0 -43 -35 -72t-83 -29q-39 0 -62 19.5t-23 52.5q0 40 36.5 70t82.5 30q39 0 61.5 -19t22.5 -52zM465 0h-326v16l34 11q27 8 34 45l26 125q20 82 2.5 217 t-57.5 135q-27 0 -81 -81l-12 5q24 76 77 131.5t123 55.5q93 0 132.5 -96.5t31.5 -258.5q134 355 234 355q40 0 53 -47.5t12 -128.5l-11 -6q-9 39 -19 57.5t-29 18.5q-36 0 -88.5 -68t-98 -166t-63.5 -182l-14 -66l-7 -31l52 -25z" />
<glyph unicode="&#x179;" d="M636 821q0 -49 -76 -80t-207 -35l-7 13q87 85 157 177q61 0 97 -20t36 -55zM639 208q0 -105 -40 -208h-526l-10 85l415 525h-146l-173 -214h-10q-3 21 -3 47q0 104 39 207h521l10 -80l-410 -530h146l173 214h10q4 -17 4 -46z" />
<glyph unicode="&#x17a;" horiz-adv-x="452" d="M507 670q0 -49 -76 -80t-207 -35l-7 13q87 85 157 177q61 0 97 -20t36 -55zM135 25q-71 0 -117 -35l-16 20q179 177 270 280q-67 20 -117 20q-31 0 -47.5 -11t-34.5 -44l-10 3q19 137 52.5 194.5t98.5 57.5q26 0 57 -19.5t49 -37t48 -50.5q43 54 80 107q35 -2 56.5 -18.5 t21.5 -43.5q0 -28 -18 -50.5t-59 -51.5q-185 -133 -251 -178q28 11 59 11q33 0 85 -6t68 -6q38 0 74 70l10 -4q-10 -43 -14.5 -62.5t-14.5 -55t-19 -52.5t-22 -37t-29.5 -28t-36.5 -8q-29 0 -103.5 17.5t-119.5 17.5z" />
<glyph unicode="&#x17b;" d="M608 820q0 -49 -41 -81t-96 -32q-44 0 -70.5 20.5t-26.5 55.5q0 48 42 80t95 32q45 0 71 -20t26 -55zM639 208q0 -105 -40 -208h-526l-10 85l415 525h-146l-173 -214h-10q-3 21 -3 47q0 104 39 207h521l10 -80l-410 -530h146l173 214h10q4 -17 4 -46z" />
<glyph unicode="&#x17c;" horiz-adv-x="452" d="M476 669q0 -49 -41 -81t-96 -32q-44 0 -70.5 20.5t-26.5 55.5q0 48 42 80t95 32q45 0 71 -20t26 -55zM135 25q-71 0 -117 -35l-16 20q179 177 270 280q-67 20 -117 20q-31 0 -47.5 -11t-34.5 -44l-10 3q19 137 52.5 194.5t98.5 57.5q26 0 57 -19.5t49 -37t48 -50.5 q43 54 80 107q35 -2 56.5 -18.5t21.5 -43.5q0 -28 -18 -50.5t-59 -51.5q-185 -133 -251 -178q28 11 59 11q33 0 85 -6t68 -6q38 0 74 70l10 -4q-10 -43 -14.5 -62.5t-14.5 -55t-19 -52.5t-22 -37t-29.5 -28t-36.5 -8q-29 0 -103.5 17.5t-119.5 17.5z" />
<glyph unicode="&#x17d;" d="M553 719l-13 -8h-141q-27 66 -54 170l11 7q70 -35 142 -60q22 8 170 60l7 -8q-72 -90 -122 -161zM639 208q0 -105 -40 -208h-526l-10 85l415 525h-146l-173 -214h-10q-3 21 -3 47q0 104 39 207h521l10 -80l-410 -530h146l173 214h10q4 -17 4 -46z" />
<glyph unicode="&#x17e;" horiz-adv-x="452" d="M416 570l-13 -8h-141q-27 66 -54 170l11 7q70 -35 142 -60q22 8 170 60l7 -8q-72 -90 -122 -161zM135 25q-71 0 -117 -35l-16 20q179 177 270 280q-67 20 -117 20q-31 0 -47.5 -11t-34.5 -44l-10 3q19 137 52.5 194.5t98.5 57.5q26 0 57 -19.5t49 -37t48 -50.5 q43 54 80 107q35 -2 56.5 -18.5t21.5 -43.5q0 -28 -18 -50.5t-59 -51.5q-185 -133 -251 -178q28 11 59 11q33 0 85 -6t68 -6q38 0 74 70l10 -4q-10 -43 -14.5 -62.5t-14.5 -55t-19 -52.5t-22 -37t-29.5 -28t-36.5 -8q-29 0 -103.5 17.5t-119.5 17.5z" />
<glyph unicode="&#x18f;" horiz-adv-x="697" d="M78 212q0 60 17 113l16 14h382q21 115 21 195q0 86 -48 86q-47 0 -84 -58.5t-38 -119.5q-53 -34 -135 -34q-39 0 -61.5 14.5t-22.5 39.5q0 77 110 137.5t230 60.5q133 0 208.5 -68.5t75.5 -190.5q0 -169 -119 -290t-293 -121q-127 0 -193 56.5t-66 165.5zM298 141 q0 -111 49 -111q39 0 75.5 77t62.5 192l-169 -8q-18 -72 -18 -150z" />
<glyph unicode="&#x192;" horiz-adv-x="609" d="M376 124q-29 -113 -123.5 -187.5t-200.5 -73.5q-45 0 -71.5 17.5t-26.5 46.5q0 31 27.5 58t82.5 42q0 -22 0.5 -33t3.5 -29.5t10.5 -27.5t20.5 -9q29 0 53.5 46.5t35.5 148.5l16 152h-103l11 45h97l5 48q8 77 40 135t79 91.5t100.5 49.5t112.5 16q69 0 116.5 -26 t47.5 -74q0 -38 -32.5 -67.5t-78.5 -37.5q-21 163 -60 163q-24 0 -40.5 -40.5t-42.5 -143.5l-6 -24l-23 -90h149l-11 -45h-150z" />
<glyph unicode="&#x19d;" horiz-adv-x="684" d="M150 26q-17 -83 -58.5 -129t-131.5 -92l-7 11q70 50 103.5 95.5t51.5 130.5l121 567l-68 25l5 16h207l225 -421l74 349l7 31l-78 25l5 16h197v-16l-50 -15q-19 -6 -25.5 -14t-10.5 -27l-123 -578h-135l-223 432z" />
<glyph unicode="&#x1cd;" horiz-adv-x="698" d="M576 719l-13 -8h-141q-27 66 -54 170l11 7q70 -35 142 -60q23 8 170 60l7 -8q-72 -90 -122 -161zM424 650h115l101 -572q5 -34 35 -49l26 -13l-5 -16h-353l1 16l68 25l-17 123l-207 -2l-71 -123l63 -23l-5 -16h-173l1 16l34 11q21 7 32 18.5t27 38.5zM212 203l178 -2 l-34 250z" />
<glyph unicode="&#x1ce;" horiz-adv-x="624" d="M504 570l-13 -8h-141q-27 66 -54 170l11 7q70 -35 142 -60q23 8 170 60l7 -8q-72 -90 -122 -161zM62 140q0 95 42.5 178t129 137.5t200.5 54.5q139 0 238 -44l-26 -69l-48 -217q-13 -52 -13 -65q0 -14 10 -14q12 0 69 75q3 4 5 6l9 -5q-27 -80 -79 -133.5t-121 -53.5 q-49 0 -74.5 29.5t-25.5 83.5q0 30 10 77l10 40h-3q-96 -230 -212 -230q-58 0 -89.5 42.5t-31.5 107.5zM445 429l10 31q-18 15 -38 15q-34 0 -70.5 -63.5t-58.5 -141.5t-22 -128q0 -41 18 -41q26 0 76.5 108.5t84.5 219.5z" />
<glyph unicode="&#x1cf;" horiz-adv-x="382" d="M423 719l-13 -8h-141q-27 66 -54 170l11 7q70 -35 142 -60q23 8 170 60l7 -8q-72 -90 -122 -161zM355 0h-326v16l34 11q27 8 34 45l107 506l7 31l-52 25l5 16h326v-16l-34 -11q-27 -8 -34 -45l-107 -506l-7 -31l52 -25z" />
<glyph unicode="&#x1d0;" horiz-adv-x="334" d="M342 569l-13 -8h-141q-14 55 -34 170l11 7q65 -35 123 -58q25 9 76 29t73 29l7 -8q-56 -84 -102 -161zM98 180q4 17 35 140q13 52 13 65q0 14 -10 14q-12 0 -69 -75q-3 -4 -5 -6l-9 5q27 80 79 133.5t121 53.5q49 0 74.5 -29.5t25.5 -83.5q0 -30 -10 -77 q-10 -46 -35 -140q-13 -52 -13 -65q0 -14 10 -14q12 0 69 75q3 4 5 6l9 -5q-27 -80 -79 -133.5t-121 -53.5q-49 0 -74.5 29.5t-25.5 83.5q0 30 10 77z" />
<glyph unicode="&#x1d1;" horiz-adv-x="727" d="M594 719l-13 -8h-141q-27 66 -54 170l11 7q70 -35 142 -60q23 8 170 60l7 -8q-72 -90 -122 -161zM778 400q0 -173 -119 -291.5t-288 -118.5q-134 0 -209.5 70.5t-75.5 184.5q0 177 120.5 296t289.5 119q132 0 207 -70t75 -190zM321 124q0 -94 50 -94q40 0 81 85.5t66 203 t25 214.5q0 87 -49 87q-41 0 -82.5 -83t-66 -199t-24.5 -214z" />
<glyph unicode="&#x1d2;" horiz-adv-x="607" d="M498 570l-13 -8h-141q-27 66 -54 170l11 7q70 -35 142 -60q23 8 170 60l7 -8q-72 -90 -122 -161zM640 302q0 -135 -96 -224t-232 -89q-112 0 -175.5 55.5t-63.5 154.5q0 131 97 221t233 90q111 0 174 -59t63 -149zM291 131q0 -101 29 -101q38 0 69 131t31 222 q0 87 -29 87q-39 0 -69.5 -120.5t-30.5 -218.5z" />
<glyph unicode="&#x1d3;" horiz-adv-x="685" d="M622 719l-13 -8h-141q-27 66 -54 170l11 7q70 -35 142 -60q23 8 170 60l7 -8q-72 -90 -122 -161zM164 650h326v-16l-34 -11q-27 -8 -34 -45l-72 -338q-8 -40 -8 -68q0 -58 28 -88.5t79 -30.5q122 0 161 187l72 338l7 32l-69 24l5 16h187v-16l-79 -24l-7 -32l-72 -338 q-28 -131 -94 -190.5t-185 -59.5t-183 56t-64 149q0 27 6 55l70 328l7 31l-52 25z" />
<glyph unicode="&#x1d4;" d="M503 570l-13 -8h-141q-27 66 -54 170l11 7q70 -35 142 -60q23 8 170 60l7 -8q-72 -90 -122 -161zM423 219h-3q-96 -229 -231 -229q-47 0 -75 27.5t-28 73.5q0 56 47 229q13 52 13 65q0 14 -10 14q-12 0 -69 -75q-3 -4 -5 -6l-9 5q27 80 79 133.5t121 53.5 q49 0 74.5 -29.5t25.5 -83.5q0 -30 -10 -77q-6 -29 -17.5 -71.5t-18.5 -72.5t-7 -46q0 -17 13 -17q22 0 57.5 63t56.5 144l38 180q133 7 192 7q21 0 16 -17l-36 -170l-22 -101l-7 -33q-13 -64 -13 -72q0 -13 8 -13q5 0 12 5.5t19.5 20.5t19 23t24.5 32l10 -5 q-24 -80 -73.5 -133.5t-118.5 -53.5q-44 0 -70.5 24.5t-26.5 70.5q0 52 24 134z" />
<glyph unicode="&#x1d5;" horiz-adv-x="685" d="M429 982l23 106h342l-23 -106h-342zM533 815q0 -43 -35 -72t-83 -29q-39 0 -62 19.5t-23 52.5q0 40 36.5 70t82.5 30q39 0 61.5 -19t22.5 -52zM789 815q0 -43 -35 -72t-83 -29q-39 0 -62 19.5t-23 52.5q0 40 36.5 70t82.5 30q39 0 61.5 -19t22.5 -52zM164 650h326v-16 l-34 -11q-27 -8 -34 -45l-72 -338q-8 -40 -8 -68q0 -58 28 -88.5t79 -30.5q122 0 161 187l72 338l7 32l-69 24l5 16h187v-16l-79 -24l-7 -32l-72 -338q-28 -131 -94 -190.5t-185 -59.5t-183 56t-64 149q0 27 6 55l70 328l7 31l-52 25z" />
<glyph unicode="&#x1d6;" d="M313 828l23 106h342l-23 -106h-342zM420 665q0 -43 -35 -72t-83 -29q-39 0 -62 19.5t-23 52.5q0 40 36.5 70t82.5 30q39 0 61.5 -19t22.5 -52zM676 665q0 -43 -35 -72t-83 -29q-39 0 -62 19.5t-23 52.5q0 40 36.5 70t82.5 30q39 0 61.5 -19t22.5 -52zM423 219h-3 q-96 -229 -231 -229q-47 0 -75 27.5t-28 73.5q0 56 47 229q13 52 13 65q0 14 -10 14q-12 0 -69 -75q-3 -4 -5 -6l-9 5q27 80 79 133.5t121 53.5q49 0 74.5 -29.5t25.5 -83.5q0 -30 -10 -77q-6 -29 -17.5 -71.5t-18.5 -72.5t-7 -46q0 -17 13 -17q22 0 57.5 63t56.5 144 l38 180q133 7 192 7q21 0 16 -17l-36 -170l-22 -101l-7 -33q-13 -64 -13 -72q0 -13 8 -13q5 0 12 5.5t19.5 20.5t19 23t24.5 32l10 -5q-24 -80 -73.5 -133.5t-118.5 -53.5q-44 0 -70.5 24.5t-26.5 70.5q0 52 24 134z" />
<glyph unicode="&#x1d7;" horiz-adv-x="685" d="M757 1056q0 -49 -76 -80t-207 -35l-7 13q87 85 157 177q61 0 97 -20t36 -55zM533 815q0 -43 -35 -72t-83 -29q-39 0 -62 19.5t-23 52.5q0 40 36.5 70t82.5 30q39 0 61.5 -19t22.5 -52zM789 815q0 -43 -35 -72t-83 -29q-39 0 -62 19.5t-23 52.5q0 40 36.5 70t82.5 30 q39 0 61.5 -19t22.5 -52zM164 650h326v-16l-34 -11q-27 -8 -34 -45l-72 -338q-8 -40 -8 -68q0 -58 28 -88.5t79 -30.5q122 0 161 187l72 338l7 32l-69 24l5 16h187v-16l-79 -24l-7 -32l-72 -338q-28 -131 -94 -190.5t-185 -59.5t-183 56t-64 149q0 27 6 55l70 328l7 31 l-52 25z" />
<glyph unicode="&#x1d8;" d="M643 901q0 -49 -76 -80t-207 -35l-7 13q87 85 157 177q61 0 97 -20t36 -55zM420 665q0 -43 -35 -72t-83 -29q-39 0 -62 19.5t-23 52.5q0 40 36.5 70t82.5 30q39 0 61.5 -19t22.5 -52zM676 665q0 -43 -35 -72t-83 -29q-39 0 -62 19.5t-23 52.5q0 40 36.5 70t82.5 30 q39 0 61.5 -19t22.5 -52zM423 219h-3q-96 -229 -231 -229q-47 0 -75 27.5t-28 73.5q0 56 47 229q13 52 13 65q0 14 -10 14q-12 0 -69 -75q-3 -4 -5 -6l-9 5q27 80 79 133.5t121 53.5q49 0 74.5 -29.5t25.5 -83.5q0 -30 -10 -77q-6 -29 -17.5 -71.5t-18.5 -72.5t-7 -46 q0 -17 13 -17q22 0 57.5 63t56.5 144l38 180q133 7 192 7q21 0 16 -17l-36 -170l-22 -101l-7 -33q-13 -64 -13 -72q0 -13 8 -13q5 0 12 5.5t19.5 20.5t19 23t24.5 32l10 -5q-24 -80 -73.5 -133.5t-118.5 -53.5q-44 0 -70.5 24.5t-26.5 70.5q0 52 24 134z" />
<glyph unicode="&#x1d9;" horiz-adv-x="685" d="M672 954l-13 -8h-141q-27 66 -54 170l11 7q70 -35 142 -60q23 7 170 60l7 -8q-72 -90 -122 -161zM533 815q0 -43 -35 -72t-83 -29q-39 0 -62 19.5t-23 52.5q0 40 36.5 70t82.5 30q39 0 61.5 -19t22.5 -52zM789 815q0 -43 -35 -72t-83 -29q-39 0 -62 19.5t-23 52.5 q0 40 36.5 70t82.5 30q39 0 61.5 -19t22.5 -52zM164 650h326v-16l-34 -11q-27 -8 -34 -45l-72 -338q-8 -40 -8 -68q0 -58 28 -88.5t79 -30.5q122 0 161 187l72 338l7 32l-69 24l5 16h187v-16l-79 -24l-7 -32l-72 -338q-28 -131 -94 -190.5t-185 -59.5t-183 56t-64 149 q0 27 6 55l70 328l7 31l-52 25z" />
<glyph unicode="&#x1da;" d="M552 801l-13 -8h-141q-27 66 -54 170l11 7q70 -35 142 -60q23 8 170 60l7 -8q-72 -90 -122 -161zM420 665q0 -43 -35 -72t-83 -29q-39 0 -62 19.5t-23 52.5q0 40 36.5 70t82.5 30q39 0 61.5 -19t22.5 -52zM676 665q0 -43 -35 -72t-83 -29q-39 0 -62 19.5t-23 52.5 q0 40 36.5 70t82.5 30q39 0 61.5 -19t22.5 -52zM423 219h-3q-96 -229 -231 -229q-47 0 -75 27.5t-28 73.5q0 56 47 229q13 52 13 65q0 14 -10 14q-12 0 -69 -75q-3 -4 -5 -6l-9 5q27 80 79 133.5t121 53.5q49 0 74.5 -29.5t25.5 -83.5q0 -30 -10 -77q-6 -29 -17.5 -71.5 t-18.5 -72.5t-7 -46q0 -17 13 -17q22 0 57.5 63t56.5 144l38 180q133 7 192 7q21 0 16 -17l-36 -170l-22 -101l-7 -33q-13 -64 -13 -72q0 -13 8 -13q5 0 12 5.5t19.5 20.5t19 23t24.5 32l10 -5q-24 -80 -73.5 -133.5t-118.5 -53.5q-44 0 -70.5 24.5t-26.5 70.5q0 52 24 134z " />
<glyph unicode="&#x1db;" horiz-adv-x="685" d="M736 948l-10 -11q-115 14 -177 45t-62 75q0 38 32.5 57t84.5 19q20 0 40 -2q35 -86 92 -183zM533 815q0 -43 -35 -72t-83 -29q-39 0 -62 19.5t-23 52.5q0 40 36.5 70t82.5 30q39 0 61.5 -19t22.5 -52zM789 815q0 -43 -35 -72t-83 -29q-39 0 -62 19.5t-23 52.5 q0 40 36.5 70t82.5 30q39 0 61.5 -19t22.5 -52zM164 650h326v-16l-34 -11q-27 -8 -34 -45l-72 -338q-8 -40 -8 -68q0 -58 28 -88.5t79 -30.5q122 0 161 187l72 338l7 32l-69 24l5 16h187v-16l-79 -24l-7 -32l-72 -338q-28 -131 -94 -190.5t-185 -59.5t-183 56t-64 149 q0 27 6 55l70 328l7 31l-52 25z" />
<glyph unicode="&#x1dc;" d="M618 793l-10 -11q-115 14 -177 45t-62 75q0 38 32.5 57t84.5 19q20 0 40 -2q35 -86 92 -183zM420 665q0 -43 -35 -72t-83 -29q-39 0 -62 19.5t-23 52.5q0 40 36.5 70t82.5 30q39 0 61.5 -19t22.5 -52zM676 665q0 -43 -35 -72t-83 -29q-39 0 -62 19.5t-23 52.5 q0 40 36.5 70t82.5 30q39 0 61.5 -19t22.5 -52zM423 219h-3q-96 -229 -231 -229q-47 0 -75 27.5t-28 73.5q0 56 47 229q13 52 13 65q0 14 -10 14q-12 0 -69 -75q-3 -4 -5 -6l-9 5q27 80 79 133.5t121 53.5q49 0 74.5 -29.5t25.5 -83.5q0 -30 -10 -77q-6 -29 -17.5 -71.5 t-18.5 -72.5t-7 -46q0 -17 13 -17q22 0 57.5 63t56.5 144l38 180q133 7 192 7q21 0 16 -17l-36 -170l-22 -101l-7 -33q-13 -64 -13 -72q0 -13 8 -13q5 0 12 5.5t19.5 20.5t19 23t24.5 32l10 -5q-24 -80 -73.5 -133.5t-118.5 -53.5q-44 0 -70.5 24.5t-26.5 70.5q0 52 24 134z " />
<glyph unicode="&#x1e6;" horiz-adv-x="701" d="M616 719l-13 -8h-141q-27 66 -54 170l11 7q70 -35 142 -60q23 8 170 60l7 -8q-72 -90 -122 -161zM629 16q-109 -26 -220 -26q-148 0 -234 71.5t-86 202.5q0 175 128 285.5t312 110.5q133 0 212 -34q-6 -48 -32.5 -108.5t-57.5 -108.5h-10l-78 211h-19q-87 0 -153.5 -109 t-66.5 -258q0 -91 30.5 -153t79.5 -69l51 216l7 31l-48 25l6 16h301l-2 -16l-29 -10q-18 -6 -25 -15.5t-12 -30.5z" />
<glyph unicode="&#x1e7;" horiz-adv-x="542" d="M440 570l-13 -8h-141q-27 66 -54 170l11 7q70 -35 142 -60q23 8 170 60l7 -8q-72 -90 -122 -161zM545 -51q0 -68 -84.5 -106t-219.5 -38q-112 0 -193 30.5t-81 79.5q0 32 39.5 56.5t103.5 28.5l8 -6q3 -69 37 -112.5t98 -43.5q28 0 47 12t19 32q0 16 -27.5 33.5t-61 31 t-61 36.5t-27.5 50q0 66 159 110h-5q-102 0 -165.5 42.5t-63.5 111.5q0 89 81.5 151t205.5 62h55.5h55t45 0.5t46.5 2t37 4t38 6.5q5 -15 5 -35q0 -78 -50 -78q-32 0 -102 32l-1 -3q79 -53 79 -119q0 -40 -23.5 -72t-57 -51.5t-66.5 -34.5t-56.5 -27t-23.5 -22 q0 -14 33 -28.5t72 -27t72 -41t33 -67.5zM271 263q0 -38 6 -59t24 -20q24 0 40.5 74t16.5 150q0 34 -6 53t-22 18q-25 0 -42 -69t-17 -147z" />
<glyph unicode="&#x1ea;" horiz-adv-x="727" d="M495 -63q-32 -71 -78 -112.5t-93 -41.5q-32 0 -49 16t-17 44q0 41 42.5 81t108.5 68q-24 -2 -38 -2q-134 0 -209.5 70.5t-75.5 184.5q0 177 120.5 296t289.5 119q132 0 207 -70t75 -190q0 -134 -74 -238.5t-193 -147.5l6 1q-114 -50 -114 -101q0 -19 17 -19q22 0 67 48z M321 124q0 -94 50 -94q40 0 81 85.5t66 203t25 214.5q0 87 -49 87q-41 0 -82.5 -83t-66 -199t-24.5 -214z" />
<glyph unicode="&#x1eb;" horiz-adv-x="607" d="M423 -63q-32 -71 -78 -112.5t-93 -41.5q-32 0 -49 16t-17 44q0 40 40.5 79.5t105.5 67.5q-6 -1 -20 -1q-112 0 -175.5 55.5t-63.5 154.5q0 131 97 221t233 90q111 0 174 -59t63 -149q0 -100 -54.5 -176.5t-144.5 -112.5q-110 -48 -110 -99q0 -19 17 -19q22 0 67 48z M291 131q0 -101 29 -101q38 0 69 131t31 222q0 87 -29 87q-39 0 -69.5 -120.5t-30.5 -218.5z" />
<glyph unicode="&#x1f4;" horiz-adv-x="701" d="M699 821q0 -49 -76 -80t-207 -35l-7 13q87 85 157 177q61 0 97 -20t36 -55zM629 16q-109 -26 -220 -26q-148 0 -234 71.5t-86 202.5q0 175 128 285.5t312 110.5q133 0 212 -34q-6 -48 -32.5 -108.5t-57.5 -108.5h-10l-78 211h-19q-87 0 -153.5 -109t-66.5 -258 q0 -91 30.5 -153t79.5 -69l51 216l7 31l-48 25l6 16h301l-2 -16l-29 -10q-18 -6 -25 -15.5t-12 -30.5z" />
<glyph unicode="&#x1f5;" horiz-adv-x="542" d="M531 670q0 -49 -76 -80t-207 -35l-7 13q87 85 157 177q61 0 97 -20t36 -55zM545 -51q0 -68 -84.5 -106t-219.5 -38q-112 0 -193 30.5t-81 79.5q0 32 39.5 56.5t103.5 28.5l8 -6q3 -69 37 -112.5t98 -43.5q28 0 47 12t19 32q0 16 -27.5 33.5t-61 31t-61 36.5t-27.5 50 q0 66 159 110h-5q-102 0 -165.5 42.5t-63.5 111.5q0 89 81.5 151t205.5 62h55.5h55t45 0.5t46.5 2t37 4t38 6.5q5 -15 5 -35q0 -78 -50 -78q-32 0 -102 32l-1 -3q79 -53 79 -119q0 -40 -23.5 -72t-57 -51.5t-66.5 -34.5t-56.5 -27t-23.5 -22q0 -14 33 -28.5t72 -27t72 -41 t33 -67.5zM271 263q0 -38 6 -59t24 -20q24 0 40.5 74t16.5 150q0 34 -6 53t-22 18q-25 0 -42 -69t-17 -147z" />
<glyph unicode="&#x1fa;" horiz-adv-x="698" d="M711 1056q0 -49 -76 -80t-207 -35l-7 13q87 85 157 177q61 0 97 -20t36 -55zM627 816q0 -47 -39 -79.5t-95 -32.5q-42 0 -66.5 21t-24.5 58q0 48 39 80t95 32q42 0 66.5 -21t24.5 -58zM475 786q0 -35 29 -35q21 0 35.5 18t14.5 45q0 34 -29 34q-21 0 -35.5 -18t-14.5 -44 zM424 650h115l101 -572q5 -34 35 -49l26 -13l-5 -16h-353l1 16l68 25l-17 123l-207 -2l-71 -123l63 -23l-5 -16h-173l1 16l34 11q21 7 32 18.5t27 38.5zM212 203l178 -2l-34 250z" />
<glyph unicode="&#x1fb;" horiz-adv-x="624" d="M642 901q0 -49 -76 -80t-207 -35l-7 13q87 85 157 177q61 0 97 -20t36 -55zM558 666q0 -47 -39 -79.5t-95 -32.5q-42 0 -66.5 21t-24.5 58q0 48 39 80t95 32q42 0 66.5 -21t24.5 -58zM406 636q0 -35 29 -35q21 0 35.5 18t14.5 45q0 34 -29 34q-21 0 -35.5 -18t-14.5 -44z M62 140q0 95 42.5 178t129 137.5t200.5 54.5q139 0 238 -44l-26 -69l-48 -217q-13 -52 -13 -65q0 -14 10 -14q12 0 69 75q3 4 5 6l9 -5q-27 -80 -79 -133.5t-121 -53.5q-49 0 -74.5 29.5t-25.5 83.5q0 30 10 77l10 40h-3q-96 -230 -212 -230q-58 0 -89.5 42.5t-31.5 107.5z M445 429l10 31q-18 15 -38 15q-34 0 -70.5 -63.5t-58.5 -141.5t-22 -128q0 -41 18 -41q26 0 76.5 108.5t84.5 219.5z" />
<glyph unicode="&#x1fc;" horiz-adv-x="897" d="M908 821q0 -49 -76 -80t-207 -35l-7 13q87 85 157 177q61 0 97 -20t36 -55zM180 16l-5 -16h-173l1 16l34 11q21 7 32 18.5t27 38.5l305 526l-66 24l5 16h649q0 -49 -18.5 -111t-44.5 -103h-10l-87 174h-97l-57 -270l158 12l-14 -65l-153 13l-48 -228l-7 -32h103l164 181 h10q5 -27 5 -51q0 -77 -34 -170h-526l-1 16l40 13q23 8 28 43l49 229l-181 -2l-151 -260zM515 610h-67l-157 -270l166 -2z" />
<glyph unicode="&#x1fd;" horiz-adv-x="811" d="M705 670q0 -49 -76 -80t-207 -35l-7 13q87 85 157 177q61 0 97 -20t36 -55zM859 171q-29 -82 -101.5 -131.5t-156.5 -49.5q-95 0 -152 54t-57 144q0 19 1 29q-94 -227 -210 -227q-58 0 -89.5 42.5t-31.5 107.5q0 95 42.5 178t129 137.5t200.5 54.5q88 0 166 -20 q54 20 113 20q76 0 126 -34t50 -97q0 -72 -69.5 -118.5t-205.5 -50.5q12 -95 96 -95q71 0 141 62zM284 101q26 0 76.5 108.5t84.5 219.5l10 31q-18 15 -38 15q-34 0 -70.5 -63.5t-58.5 -141.5t-22 -128q0 -41 18 -41zM646 397l-5 -4q-29 -75 -29 -151q47 14 79.5 73.5 t32.5 126.5q0 28 -22 28q-21 0 -42 -37z" />
<glyph unicode="&#x1fe;" horiz-adv-x="727" d="M677 821q0 -49 -76 -80t-207 -35l-7 13q87 85 157 177q61 0 97 -20t36 -55zM778 400q0 -173 -119 -291.5t-288 -118.5q-123 0 -199 62l-67 -62l-33 36l65 61q-51 65 -51 158q0 177 120.5 296t289.5 119q118 0 193 -58l62 58l35 -36l-61 -57q53 -67 53 -167zM494 620 q-48 0 -93.5 -106t-66.5 -244l206 193q3 36 3 70q0 87 -49 87zM321 124q0 -94 50 -94q46 0 91.5 108.5t67.5 247.5l-206 -192q-3 -36 -3 -70z" />
<glyph unicode="&#x1ff;" horiz-adv-x="607" d="M589 670q0 -49 -76 -80t-207 -35l-7 13q87 85 157 177q61 0 97 -20t36 -55zM640 302q0 -135 -96 -224t-232 -89q-104 0 -167 48l-51 -44l-26 32l48 41q-43 52 -43 133q0 131 97 221t233 90q101 0 166 -52l57 49l26 -32l-54 -47q42 -52 42 -126zM391 470 q-30 0 -55.5 -75.5t-37.5 -171.5l119 103q3 33 3 57q0 87 -29 87zM291 131q0 -101 29 -101q27 0 51 71t38 164l-117 -101q-1 -12 -1 -33z" />
<glyph unicode="&#x218;" horiz-adv-x="548" d="M120 443q0 70 44 120t113 73.5t153 23.5q132 0 197 -42q15 -10 15 -26q0 -31 -35.5 -83t-69.5 -82l-10 2l-48 189q-20 2 -31 2q-47 0 -82.5 -26.5t-35.5 -70.5q0 -36 24.5 -68t59.5 -58t70 -54t59.5 -67.5t24.5 -86.5q0 -97 -88.5 -148t-222.5 -51q-158 0 -207 31 q-20 13 -20 38q0 33 31 84t65 85l10 -2l60 -191q25 -5 52 -5q46 0 78.5 25.5t32.5 61.5q0 33 -24.5 63.5t-59.5 56t-70.5 53t-60 67t-24.5 86.5zM325 -137q0 -62 -54 -126t-134 -99l-10 12q46 53 69 123q-53 14 -53 69q0 43 31.5 72.5t73.5 29.5q34 0 55.5 -22.5t21.5 -58.5 z" />
<glyph unicode="&#x219;" horiz-adv-x="501" d="M516 143q0 -71 -65 -112t-192 -41q-93 0 -156 26.5t-63 75.5q0 30 39.5 50t110.5 20l9 -4q7 -50 14 -72q18 -56 58 -56q17 0 28 11.5t11 28.5q0 28 -34 62t-74 62.5t-74 71.5t-34 85q0 72 64 115.5t179 43.5q94 0 155.5 -29.5t61.5 -73.5q0 -34 -38.5 -53.5t-101.5 -15.5 l-9 4q-3 40 -12 73q-17 55 -52 55q-42 0 -42 -43q0 -24 22.5 -50t54.5 -51t63.5 -52t54 -61t22.5 -70zM331 -137q0 -62 -54 -126t-134 -99l-10 12q46 53 69 123q-53 14 -53 69q0 43 31.5 72.5t73.5 29.5q34 0 55.5 -22.5t21.5 -58.5z" />
<glyph unicode="&#x21a;" horiz-adv-x="660" d="M134 396h-10q-3 21 -3 47q0 99 39 207h616q-2 -58 -23 -132.5t-49 -121.5h-10l-70 214h-55l-114 -538l-7 -31l52 -25l-5 -16h-326v16l34 11q27 8 34 45l114 538h-56zM392 -137q0 -62 -54 -126t-134 -99l-10 12q46 53 69 123q-53 14 -53 69q0 43 31.5 72.5t73.5 29.5 q34 0 55.5 -22.5t21.5 -58.5z" />
<glyph unicode="&#x21b;" horiz-adv-x="374" d="M412 177q-29 -79 -85 -133t-130 -54q-55 0 -84.5 32t-29.5 85q0 32 9 73l57 265h-69l1 10l80 42l222 115l10 -2l-28 -130h86l-8 -35h-85l-56 -265q-10 -51 -10 -61q0 -18 16 -18q29 0 95 81zM253 -137q0 -62 -54 -126t-134 -99l-10 12q46 53 69 123q-53 14 -53 69 q0 43 31.5 72.5t73.5 29.5q34 0 55.5 -22.5t21.5 -58.5z" />
<glyph unicode="&#x232;" horiz-adv-x="605" d="M308 747l23 106h342l-23 -106h-342zM465 0h-326v16l34 11q27 8 34 45l26 125q20 82 2.5 217t-57.5 135q-27 0 -81 -81l-12 5q24 76 77 131.5t123 55.5q93 0 132.5 -96.5t31.5 -258.5q134 355 234 355q40 0 53 -47.5t12 -128.5l-11 -6q-9 39 -19 57.5t-29 18.5 q-36 0 -88.5 -68t-98 -166t-63.5 -182l-14 -66l-7 -31l52 -25z" />
<glyph unicode="&#x233;" horiz-adv-x="604" d="M224 597l23 106h342l-23 -106h-342zM373 341q0 -69 -20.5 -156.5t-58.5 -164.5q150 149 150 376q0 53 -11 95q40 19 94 19q61 0 94 -35t33 -97q0 -118 -100.5 -225.5t-277.5 -165.5q-103 -181 -250 -181q-50 0 -81.5 22.5t-31.5 56.5q0 27 25 47t62 23q1 -3 2.5 -10.5 t2.5 -12t2.5 -12.5t3.5 -13t4 -11.5t5 -10.5l6 -8t7 -6t9 -2q38 0 74 166.5t36 295.5q0 68 -17 68q-22 0 -78 -81l-10 5q25 77 79 132t129 55q59 0 88.5 -40t29.5 -129z" />
<glyph unicode="&#x237;" horiz-adv-x="318" d="M294 74q-27 -131 -109 -200t-188 -69q-58 0 -95 23t-37 57q0 58 87 70q15 -77 43 -77q25 0 44.5 40.5t38.5 130.5l58 271q13 52 13 65q0 14 -10 14q-12 0 -69 -75q-3 -4 -5 -6l-9 5q27 80 79 133.5t121 53.5q49 0 74.5 -29.5t25.5 -83.5q0 -30 -10 -77z" />
<glyph unicode="&#x259;" horiz-adv-x="528" d="M563 312q0 -131 -93.5 -226.5t-227.5 -95.5q-76 0 -126 33t-50 95q0 68 74 111.5t216 45.5q9 59 9 114q0 81 -28 81q-25 0 -39.5 -49.5t-14.5 -98.5q-60 -20 -87 -20q-87 0 -87 53q0 58 70 106.5t176 48.5q96 0 152 -53t56 -145zM231 67q0 -37 26 -37t52.5 63t41.5 151 q-49 -9 -84.5 -62.5t-35.5 -114.5z" />
<glyph unicode="&#x272;" horiz-adv-x="636" d="M294 74q-27 -131 -109 -200t-188 -69q-58 0 -95 23t-37 57q0 58 87 70q15 -77 43 -77q25 0 44.5 40.5t38.5 130.5l50 232l7 33q13 64 13 72q0 13 -8 13q-5 0 -12 -5.5t-19.5 -20.5t-19 -23t-24.5 -32l-10 5q24 80 73.5 133.5t118.5 53.5q44 0 70.5 -24.5t26.5 -70.5 q0 -52 -24 -134h3q96 229 231 229q47 0 75 -27.5t28 -73.5q0 -56 -47 -229q-13 -52 -13 -65q0 -14 10 -14q12 0 69 75q3 4 5 6l9 -5q-27 -80 -79 -133.5t-121 -53.5q-49 0 -74.5 29.5t-25.5 83.5q0 30 10 77q6 29 17.5 71.5t18.5 72.5t7 46q0 17 -13 17q-22 0 -57.5 -63 t-56.5 -144z" />
<glyph unicode="&#x2c6;" horiz-adv-x="472" d="M406 568l-11 -7q-70 35 -142 60q-23 -8 -170 -60l-7 8q72 90 122 161l13 8h141q27 -66 54 -170z" />
<glyph unicode="&#x2c7;" horiz-adv-x="406" d="M274 570l-13 -8h-141q-27 66 -54 170l11 7q70 -35 142 -60q22 8 170 60l7 -8q-72 -90 -122 -161z" />
<glyph unicode="&#x2d8;" horiz-adv-x="431" d="M350 746h3l12 -5q-58 -185 -191 -185q-62 0 -89 47.5t-16 138.5l15 4q31 -59 119 -59q83 0 147 59z" />
<glyph unicode="&#x2d9;" horiz-adv-x="366" d="M300 669q0 -49 -41 -81t-96 -32q-44 0 -70.5 20.5t-26.5 55.5q0 48 42 80t95 32q45 0 71 -20t26 -55z" />
<glyph unicode="&#x2da;" horiz-adv-x="587" d="M291 666q0 -47 -39 -79.5t-95 -32.5q-42 0 -66.5 21t-24.5 58q0 48 39 80t95 32q42 0 66.5 -21t24.5 -58zM139 636q0 -35 29 -35q21 0 35.5 18t14.5 45q0 34 -29 34q-21 0 -35.5 -18t-14.5 -44z" />
<glyph unicode="&#x2db;" horiz-adv-x="407" d="M341 -63q-32 -71 -77 -112.5t-91 -41.5q-32 0 -50.5 15.5t-18.5 42.5q0 51 51.5 98t128.5 72l26 -11q-26 -12 -43.5 -36.5t-17.5 -49.5q0 -19 17 -19q22 0 67 48z" />
<glyph unicode="&#x2dc;" horiz-adv-x="564" d="M409 681q12 9 35.5 26.5t34.5 26.5l9 -3q-5 -70 -45 -118t-104 -48q-10 0 -20.5 1t-19.5 2.5t-20 4.5t-18 4.5t-18.5 6t-17 6.5t-17 7.5t-15 7t-15 7t-13.5 6.5q-12 -9 -35.5 -26.5t-34.5 -26.5l-9 3q5 73 45 119.5t104 46.5q30 0 59 -8.5t65.5 -24t49.5 -20.5z" />
<glyph unicode="&#x2dd;" horiz-adv-x="618" d="M322 670q0 -49 -67 -80t-182 -35l-7 13q87 85 157 177q46 0 72.5 -20t26.5 -55zM552 670q0 -49 -67 -80t-182 -35l-7 13q87 85 157 177q46 0 72.5 -20t26.5 -55z" />
<glyph unicode="&#x326;" horiz-adv-x="330" d="M268 -137q0 -62 -54 -126t-134 -99l-10 12q46 53 69 123q-53 14 -53 69q0 43 31.5 72.5t73.5 29.5q34 0 55.5 -22.5t21.5 -58.5z" />
<glyph unicode="&#x1e0c;" horiz-adv-x="725" d="M336 0h-307l-1 16l40 13q23 8 28 43l108 506l7 31l-52 25l4 16h307q146 0 227 -61t81 -182q0 -177 -123 -292t-319 -115zM454 610h-25l-7 -32l-108 -506l-7 -32h30q52 0 97 40.5t72.5 101.5t43 128.5t15.5 126.5q0 173 -111 173zM450 -131q0 -49 -41 -81t-96 -32 q-44 0 -70.5 20.5t-26.5 55.5q0 48 42 80t95 32q45 0 71 -20t26 -55z" />
<glyph unicode="&#x1e0d;" horiz-adv-x="623" d="M387 180l10 45q-95 -235 -214 -235q-57 0 -89 43.5t-32 106.5q0 94 42.5 177t129.5 138t200 55q19 0 29 -1l10 45l11 54l-70 35v12q114 28 289 39l8 -10l-28 -130l-86 -374q-13 -52 -13 -65q0 -14 10 -14q12 0 69 75q3 4 5 6l9 -5q-27 -80 -79 -133.5t-121 -53.5 q-49 0 -74.5 29.5t-25.5 83.5q0 30 10 77zM284 101q26 0 76.5 108.5t84.5 219.5l7 33q-16 13 -35 13q-34 0 -70.5 -63.5t-58.5 -141.5t-22 -128q0 -41 18 -41zM395 -131q0 -49 -41 -81t-96 -32q-44 0 -70.5 20.5t-26.5 55.5q0 48 42 80t95 32q45 0 71 -20t26 -55z" />
<glyph unicode="&#x1e24;" horiz-adv-x="771" d="M354 0h-326v16l34 11q27 8 34 45l108 506l7 31l-52 25l5 16h326v-16l-34 -11q-27 -8 -34 -45l-50 -233h173l49 233l7 31l-52 25l5 16h326v-16l-34 -11q-27 -8 -34 -45l-107 -506l-7 -31l52 -25l-5 -16h-326v16l34 11q27 8 34 45l48 228h-172l-49 -228l-7 -31l52 -25z M462 -131q0 -49 -41 -81t-96 -32q-44 0 -70.5 20.5t-26.5 55.5q0 48 42 80t95 32q45 0 71 -20t26 -55z" />
<glyph unicode="&#x1e25;" horiz-adv-x="616" d="M258 0q-133 -7 -192 -7q-21 0 -16 17l36 170l80 374l11 54l-70 35v12q114 28 289 39l8 -10l-28 -130q-35 -149 -76 -273h3q96 229 231 229q47 0 75 -27.5t28 -73.5q0 -56 -47 -229q-13 -52 -13 -65q0 -14 10 -14q12 0 69 75q3 4 5 6l9 -5q-27 -80 -79 -133.5t-121 -53.5 q-49 0 -74.5 29.5t-25.5 83.5q0 30 10 77q6 29 17.5 71.5t18.5 72.5t7 46q0 17 -13 17q-22 0 -57.5 -63t-56.5 -144zM404 -131q0 -49 -41 -81t-96 -32q-44 0 -70.5 20.5t-26.5 55.5q0 48 42 80t95 32q45 0 71 -20t26 -55z" />
<glyph unicode="&#x1e44;" horiz-adv-x="675" d="M624 820q0 -49 -41 -81t-96 -32q-44 0 -70.5 20.5t-26.5 55.5q0 48 42 80t95 32q45 0 71 -20t26 -55zM217 1h-197v16l50 15q19 6 25.5 14t10.5 27l114 536l-68 25l5 16h207l225 -421l74 349l7 31l-78 25l5 16h197v-16l-50 -15q-19 -6 -25.5 -14t-10.5 -27l-123 -578h-135 l-223 431l-76 -358l-7 -31l78 -25z" />
<glyph unicode="&#x1e45;" horiz-adv-x="634" d="M563 669q0 -49 -41 -81t-96 -32q-44 0 -70.5 20.5t-26.5 55.5q0 48 42 80t95 32q45 0 71 -20t26 -55zM276 0q-133 -7 -192 -7q-21 0 -16 17l36 170l22 101l7 33q13 64 13 72q0 13 -8 13q-5 0 -12 -5.5t-19.5 -20.5t-19 -23t-24.5 -32l-10 5q24 80 73.5 133.5t118.5 53.5 q44 0 70.5 -24.5t26.5 -70.5q0 -52 -24 -134h3q96 229 231 229q47 0 75 -27.5t28 -73.5q0 -56 -47 -229q-13 -52 -13 -65q0 -14 10 -14q12 0 69 75q3 4 5 6l9 -5q-27 -80 -79 -133.5t-121 -53.5q-49 0 -74.5 29.5t-25.5 83.5q0 30 10 77q6 29 17.5 71.5t18.5 72.5t7 46 q0 17 -13 17q-22 0 -57.5 -63t-56.5 -144z" />
<glyph unicode="&#x1e5a;" horiz-adv-x="740" d="M355 0h-326v16l34 11q27 8 34 45l107 506l7 31l-52 25l4 16h315q133 0 203 -42.5t70 -121.5q0 -109 -140 -180l16 -56q41 -146 55 -175q17 -33 41 -45l28 -14l-5 -16l-205 -5q-41 -1 -61 14t-28 48l-48 203h-49l-40 -188l-7 -31l52 -25zM450 610h-21l-7 -32l-59 -278h29 q62 0 100.5 61t38.5 139q0 52 -21 81t-60 29zM484 -131q0 -49 -41 -81t-96 -32q-44 0 -70.5 20.5t-26.5 55.5q0 48 42 80t95 32q45 0 71 -20t26 -55z" />
<glyph unicode="&#x1e5b;" horiz-adv-x="514" d="M276 0q-133 -7 -192 -7q-21 0 -16 17l36 170l22 101l7 33q13 64 13 72q0 13 -8 13q-5 0 -12 -5.5t-19.5 -20.5t-19 -23t-24.5 -32l-10 5q24 80 73.5 133.5t118.5 53.5q44 0 70.5 -24.5t26.5 -70.5q0 -52 -24 -134h3q94 229 191 229q58 0 58 -77q0 -83 -63 -160 q-52 28 -99 28q-41 0 -61 -30.5t-33 -90.5zM266 -131q0 -49 -41 -81t-96 -32q-44 0 -70.5 20.5t-26.5 55.5q0 48 42 80t95 32q45 0 71 -20t26 -55z" />
<glyph unicode="&#x1e62;" horiz-adv-x="548" d="M120 443q0 70 44 120t113 73.5t153 23.5q132 0 197 -42q15 -10 15 -26q0 -31 -35.5 -83t-69.5 -82l-10 2l-48 189q-20 2 -31 2q-47 0 -82.5 -26.5t-35.5 -70.5q0 -36 24.5 -68t59.5 -58t70 -54t59.5 -67.5t24.5 -86.5q0 -97 -88.5 -148t-222.5 -51q-158 0 -207 31 q-20 13 -20 38q0 33 31 84t65 85l10 -2l60 -191q25 -5 52 -5q46 0 78.5 25.5t32.5 61.5q0 33 -24.5 63.5t-59.5 56t-70.5 53t-60 67t-24.5 86.5zM354 -131q0 -49 -41 -81t-96 -32q-44 0 -70.5 20.5t-26.5 55.5q0 48 42 80t95 32q45 0 71 -20t26 -55z" />
<glyph unicode="&#x1e63;" horiz-adv-x="501" d="M516 143q0 -71 -65 -112t-192 -41q-93 0 -156 26.5t-63 75.5q0 30 39.5 50t110.5 20l9 -4q7 -50 14 -72q18 -56 58 -56q17 0 28 11.5t11 28.5q0 28 -34 62t-74 62.5t-74 71.5t-34 85q0 72 64 115.5t179 43.5q94 0 155.5 -29.5t61.5 -73.5q0 -34 -38.5 -53.5t-101.5 -15.5 l-9 4q-3 40 -12 73q-17 55 -52 55q-42 0 -42 -43q0 -24 22.5 -50t54.5 -51t63.5 -52t54 -61t22.5 -70zM340 -131q0 -49 -41 -81t-96 -32q-44 0 -70.5 20.5t-26.5 55.5q0 48 42 80t95 32q45 0 71 -20t26 -55z" />
<glyph unicode="&#x1e6c;" horiz-adv-x="660" d="M134 396h-10q-3 21 -3 47q0 99 39 207h616q-2 -58 -23 -132.5t-49 -121.5h-10l-70 214h-55l-114 -538l-7 -31l52 -25l-5 -16h-326v16l34 11q27 8 34 45l114 538h-56zM421 -131q0 -49 -41 -81t-96 -32q-44 0 -70.5 20.5t-26.5 55.5q0 48 42 80t95 32q45 0 71 -20t26 -55z " />
<glyph unicode="&#x1e6d;" horiz-adv-x="374" d="M412 177q-29 -79 -85 -133t-130 -54q-55 0 -84.5 32t-29.5 85q0 32 9 73l57 265h-69l1 10l80 42l222 115l10 -2l-28 -130h86l-8 -35h-85l-56 -265q-10 -51 -10 -61q0 -18 16 -18q29 0 95 81zM282 -131q0 -49 -41 -81t-96 -32q-44 0 -70.5 20.5t-26.5 55.5q0 48 42 80 t95 32q45 0 71 -20t26 -55z" />
<glyph unicode="&#x1e80;" horiz-adv-x="1044" d="M824 713l-10 -11q-115 14 -177 45t-62 75q0 38 32.5 57t84.5 19q20 0 40 -2q35 -86 92 -183zM1038 480l-263 -480h-115l-46 418l-218 -418h-115l-81 572q-6 36 -35 49l-30 13l5 16h342l-1 -16l-62 -23l41 -402l145 290l-8 73q-4 34 -35 49l-27 13l5 16h351l-1 -16 l-73 -26l28 -400l196 400l-69 26l5 16h203l-1 -16q-27 -10 -53 -30q-36 -28 -88 -124z" />
<glyph unicode="&#x1e81;" horiz-adv-x="877" d="M680 562l-10 -11q-115 14 -177 45t-62 75q0 38 32.5 57t84.5 19q20 0 40 -2q35 -86 92 -183zM516 510q65 0 99.5 -35.5t34.5 -116.5q0 -122 -43 -304q114 153 114 342q0 53 -11 95q40 19 92 19q60 0 94.5 -31.5t34.5 -90.5q0 -98 -95.5 -201t-267.5 -197l-135 9 q2 132 2 167q-53 -90 -153 -176l-135 9q0 15 1.5 78t1.5 92q0 79 -1 125t-4.5 69t-7.5 29.5t-11 6.5q-23 0 -79 -81l-10 5q24 77 80 132t133 55q114 0 114 -162q0 -116 -39 -276q114 154 114 324q0 53 -11 95q38 19 88 19z" />
<glyph unicode="&#x1e82;" horiz-adv-x="1044" d="M845 821q0 -49 -76 -80t-207 -35l-7 13q87 85 157 177q61 0 97 -20t36 -55zM1038 480l-263 -480h-115l-46 418l-218 -418h-115l-81 572q-6 36 -35 49l-30 13l5 16h342l-1 -16l-62 -23l41 -402l145 290l-8 73q-4 34 -35 49l-27 13l5 16h351l-1 -16l-73 -26l28 -400 l196 400l-69 26l5 16h203l-1 -16q-27 -10 -53 -30q-36 -28 -88 -124z" />
<glyph unicode="&#x1e83;" horiz-adv-x="877" d="M705 670q0 -49 -76 -80t-207 -35l-7 13q87 85 157 177q61 0 97 -20t36 -55zM516 510q65 0 99.5 -35.5t34.5 -116.5q0 -122 -43 -304q114 153 114 342q0 53 -11 95q40 19 92 19q60 0 94.5 -31.5t34.5 -90.5q0 -98 -95.5 -201t-267.5 -197l-135 9q2 132 2 167 q-53 -90 -153 -176l-135 9q0 15 1.5 78t1.5 92q0 79 -1 125t-4.5 69t-7.5 29.5t-11 6.5q-23 0 -79 -81l-10 5q24 77 80 132t133 55q114 0 114 -162q0 -116 -39 -276q114 154 114 324q0 53 -11 95q38 19 88 19z" />
<glyph unicode="&#x1e84;" horiz-adv-x="1044" d="M673 815q0 -43 -35 -72t-83 -29q-39 0 -62 19.5t-23 52.5q0 40 36.5 70t82.5 30q39 0 61.5 -19t22.5 -52zM929 815q0 -43 -35 -72t-83 -29q-39 0 -62 19.5t-23 52.5q0 40 36.5 70t82.5 30q39 0 61.5 -19t22.5 -52zM1038 480l-263 -480h-115l-46 418l-218 -418h-115 l-81 572q-6 36 -35 49l-30 13l5 16h342l-1 -16l-62 -23l41 -402l145 290l-8 73q-4 34 -35 49l-27 13l5 16h351l-1 -16l-73 -26l28 -400l196 400l-69 26l5 16h203l-1 -16q-27 -10 -53 -30q-36 -28 -88 -124z" />
<glyph unicode="&#x1e85;" horiz-adv-x="877" d="M531 665q0 -43 -35 -72t-83 -29q-39 0 -62 19.5t-23 52.5q0 40 36.5 70t82.5 30q39 0 61.5 -19t22.5 -52zM787 665q0 -43 -35 -72t-83 -29q-39 0 -62 19.5t-23 52.5q0 40 36.5 70t82.5 30q39 0 61.5 -19t22.5 -52zM516 510q65 0 99.5 -35.5t34.5 -116.5q0 -122 -43 -304 q114 153 114 342q0 53 -11 95q40 19 92 19q60 0 94.5 -31.5t34.5 -90.5q0 -98 -95.5 -201t-267.5 -197l-135 9q2 132 2 167q-53 -90 -153 -176l-135 9q0 15 1.5 78t1.5 92q0 79 -1 125t-4.5 69t-7.5 29.5t-11 6.5q-23 0 -79 -81l-10 5q24 77 80 132t133 55q114 0 114 -162 q0 -116 -39 -276q114 154 114 324q0 53 -11 95q38 19 88 19z" />
<glyph unicode="&#x1e92;" d="M639 208q0 -105 -40 -208h-526l-10 85l415 525h-146l-173 -214h-10q-3 21 -3 47q0 104 39 207h521l10 -80l-410 -530h146l173 214h10q4 -17 4 -46zM414 -131q0 -49 -41 -81t-96 -32q-44 0 -70.5 20.5t-26.5 55.5q0 48 42 80t95 32q45 0 71 -20t26 -55z" />
<glyph unicode="&#x1e93;" horiz-adv-x="452" d="M135 25q-71 0 -117 -35l-16 20q179 177 270 280q-67 20 -117 20q-31 0 -47.5 -11t-34.5 -44l-10 3q19 137 52.5 194.5t98.5 57.5q26 0 57 -19.5t49 -37t48 -50.5q43 54 80 107q35 -2 56.5 -18.5t21.5 -43.5q0 -28 -18 -50.5t-59 -51.5q-185 -133 -251 -178q28 11 59 11 q33 0 85 -6t68 -6q38 0 74 70l10 -4q-10 -43 -14.5 -62.5t-14.5 -55t-19 -52.5t-22 -37t-29.5 -28t-36.5 -8q-29 0 -103.5 17.5t-119.5 17.5zM293 -131q0 -49 -41 -81t-96 -32q-44 0 -70.5 20.5t-26.5 55.5q0 48 42 80t95 32q45 0 71 -20t26 -55z" />
<glyph unicode="&#x1e9e;" horiz-adv-x="734" d="M768 181q0 -89 -72.5 -140t-197.5 -51q-74 0 -112.5 14t-38.5 50q0 34 19.5 77t46.5 71l16 -1q2 -87 12 -117q17 -54 56 -54q23 0 34.5 25.5t11.5 60.5q0 120 -120 206l1 18l186 171q-20 109 -91 109q-50 0 -87.5 -47t-55.5 -130l-91 -427l-19 -16h-255v16l34 11 q27 8 34 45l65 305q26 124 129 203.5t252 79.5q162 0 216 -76v-9l-158 -137q185 -126 185 -257z" />
<glyph unicode="&#x1ea0;" horiz-adv-x="698" d="M424 650h115l101 -572q5 -34 35 -49l26 -13l-5 -16h-353l1 16l68 25l-17 123l-207 -2l-71 -123l63 -23l-5 -16h-173l1 16l34 11q21 7 32 18.5t27 38.5zM212 203l178 -2l-34 250zM356 -131q0 -49 -41 -81t-96 -32q-44 0 -70.5 20.5t-26.5 55.5q0 48 42 80t95 32 q45 0 71 -20t26 -55z" />
<glyph unicode="&#x1ea1;" horiz-adv-x="624" d="M62 140q0 95 42.5 178t129 137.5t200.5 54.5q139 0 238 -44l-26 -69l-48 -217q-13 -52 -13 -65q0 -14 10 -14q12 0 69 75q3 4 5 6l9 -5q-27 -80 -79 -133.5t-121 -53.5q-49 0 -74.5 29.5t-25.5 83.5q0 30 10 77l10 40h-3q-96 -230 -212 -230q-58 0 -89.5 42.5 t-31.5 107.5zM445 429l10 31q-18 15 -38 15q-34 0 -70.5 -63.5t-58.5 -141.5t-22 -128q0 -41 18 -41q26 0 76.5 108.5t84.5 219.5zM402 -131q0 -49 -41 -81t-96 -32q-44 0 -70.5 20.5t-26.5 55.5q0 48 42 80t95 32q45 0 71 -20t26 -55z" />
<glyph unicode="&#x1eb8;" horiz-adv-x="594" d="M556 0h-526l-1 16l40 13q23 8 28 43l107 506l7 31l-52 25l4 16h522q0 -49 -18.5 -111t-44.5 -103h-10l-87 174h-96l-7 -32l-50 -235l160 12l-14 -65l-154 13l-49 -231l-7 -32h103l164 181h10q5 -27 5 -51q0 -77 -34 -170zM399 -131q0 -49 -41 -81t-96 -32 q-44 0 -70.5 20.5t-26.5 55.5q0 48 42 80t95 32q45 0 71 -20t26 -55z" />
<glyph unicode="&#x1eb9;" horiz-adv-x="520" d="M538 171q-29 -82 -101.5 -131.5t-156.5 -49.5q-95 0 -152 54t-57 144q0 133 93.5 227.5t227.5 94.5q76 0 126 -34t50 -97q0 -72 -69.5 -118.5t-205.5 -50.5q12 -95 96 -95q71 0 141 62zM381 470q-31 0 -60.5 -75t-29.5 -153q47 14 79.5 73.5t32.5 126.5q0 28 -22 28z M373 -131q0 -49 -41 -81t-96 -32q-44 0 -70.5 20.5t-26.5 55.5q0 48 42 80t95 32q45 0 71 -20t26 -55z" />
<glyph unicode="&#x1ebc;" horiz-adv-x="594" d="M614 831q12 9 35.5 26.5t34.5 26.5l9 -3q-5 -70 -45 -118t-104 -48q-10 0 -20.5 1t-19.5 2.5t-20 4.5t-18 4.5t-18.5 6t-17 6.5t-17 7.5t-15 7t-15 7t-13.5 6.5q-11 -9 -35 -26.5t-35 -26.5l-9 3q5 73 45 119.5t104 46.5q30 0 59 -8.5t65.5 -24t49.5 -20.5zM556 0h-526 l-1 16l40 13q23 8 28 43l107 506l7 31l-52 25l4 16h522q0 -49 -18.5 -111t-44.5 -103h-10l-87 174h-96l-7 -32l-50 -235l160 12l-14 -65l-154 13l-49 -231l-7 -32h103l164 181h10q5 -27 5 -51q0 -77 -34 -170z" />
<glyph unicode="&#x1ebd;" horiz-adv-x="520" d="M537 681q12 9 35 26.5t35 26.5l9 -3q-5 -70 -45 -118t-104 -48q-10 0 -20.5 1t-19.5 2.5t-20 4.5t-18 4.5t-18.5 6t-17 6.5t-17 7.5t-15 7t-15 7t-13.5 6.5q-11 -9 -35 -26.5t-35 -26.5l-9 3q5 73 45 119.5t104 46.5q30 0 59 -8.5t65.5 -24t49.5 -20.5zM538 171 q-29 -82 -101.5 -131.5t-156.5 -49.5q-95 0 -152 54t-57 144q0 133 93.5 227.5t227.5 94.5q76 0 126 -34t50 -97q0 -72 -69.5 -118.5t-205.5 -50.5q12 -95 96 -95q71 0 141 62zM381 470q-31 0 -60.5 -75t-29.5 -153q47 14 79.5 73.5t32.5 126.5q0 28 -22 28z" />
<glyph unicode="&#x1eca;" horiz-adv-x="381" d="M355 0h-326v16l34 11q27 8 34 45l107 506l7 31l-52 25l5 16h326v-16l-34 -11q-27 -8 -34 -45l-107 -506l-7 -31l52 -25zM274 -131q0 -49 -41 -81t-96 -32q-44 0 -70.5 20.5t-26.5 55.5q0 48 42 80t95 32q45 0 71 -20t26 -55z" />
<glyph unicode="&#x1ecb;" horiz-adv-x="334" d="M416 669q0 -49 -41 -81t-96 -32q-44 0 -70.5 20.5t-26.5 55.5q0 48 42 80t95 32q45 0 71 -20t26 -55zM98 180q4 17 35 140q13 52 13 65q0 14 -10 14q-12 0 -69 -75q-3 -4 -5 -6l-9 5q27 80 79 133.5t121 53.5q49 0 74.5 -29.5t25.5 -83.5q0 -30 -10 -77q-10 -46 -35 -140 q-13 -52 -13 -65q0 -14 10 -14q12 0 69 75q3 4 5 6l9 -5q-27 -80 -79 -133.5t-121 -53.5q-49 0 -74.5 29.5t-25.5 83.5q0 30 10 77zM300 -131q0 -49 -41 -81t-96 -32q-44 0 -70.5 20.5t-26.5 55.5q0 48 42 80t95 32q45 0 71 -20t26 -55z" />
<glyph unicode="&#x1ecc;" horiz-adv-x="727" d="M778 400q0 -173 -119 -291.5t-288 -118.5q-134 0 -209.5 70.5t-75.5 184.5q0 177 120.5 296t289.5 119q132 0 207 -70t75 -190zM321 124q0 -94 50 -94q40 0 81 85.5t66 203t25 214.5q0 87 -49 87q-41 0 -82.5 -83t-66 -199t-24.5 -214zM448 -131q0 -49 -41 -81t-96 -32 q-44 0 -70.5 20.5t-26.5 55.5q0 48 42 80t95 32q45 0 71 -20t26 -55z" />
<glyph unicode="&#x1ecd;" horiz-adv-x="607" d="M640 302q0 -135 -96 -224t-232 -89q-112 0 -175.5 55.5t-63.5 154.5q0 131 97 221t233 90q111 0 174 -59t63 -149zM291 131q0 -101 29 -101q38 0 69 131t31 222q0 87 -29 87q-39 0 -69.5 -120.5t-30.5 -218.5zM388 -131q0 -49 -41 -81t-96 -32q-44 0 -70.5 20.5 t-26.5 55.5q0 48 42 80t95 32q45 0 71 -20t26 -55z" />
<glyph unicode="&#x1ee4;" horiz-adv-x="685" d="M164 650h326v-16l-34 -11q-27 -8 -34 -45l-72 -338q-8 -40 -8 -68q0 -58 28 -88.5t79 -30.5q122 0 161 187l72 338l7 32l-69 24l5 16h187v-16l-79 -24l-7 -32l-72 -338q-28 -131 -94 -190.5t-185 -59.5t-183 56t-64 149q0 27 6 55l70 328l7 31l-52 25zM451 -131 q0 -49 -41 -81t-96 -32q-44 0 -70.5 20.5t-26.5 55.5q0 48 42 80t95 32q45 0 71 -20t26 -55z" />
<glyph unicode="&#x1ee5;" d="M423 219h-3q-96 -229 -231 -229q-47 0 -75 27.5t-28 73.5q0 56 47 229q13 52 13 65q0 14 -10 14q-12 0 -69 -75q-3 -4 -5 -6l-9 5q27 80 79 133.5t121 53.5q49 0 74.5 -29.5t25.5 -83.5q0 -30 -10 -77q-6 -29 -17.5 -71.5t-18.5 -72.5t-7 -46q0 -17 13 -17q22 0 57.5 63 t56.5 144l38 180q133 7 192 7q21 0 16 -17l-36 -170l-22 -101l-7 -33q-13 -64 -13 -72q0 -13 8 -13q5 0 12 5.5t19.5 20.5t19 23t24.5 32l10 -5q-24 -80 -73.5 -133.5t-118.5 -53.5q-44 0 -70.5 24.5t-26.5 70.5q0 52 24 134zM412 -131q0 -49 -41 -81t-96 -32 q-44 0 -70.5 20.5t-26.5 55.5q0 48 42 80t95 32q45 0 71 -20t26 -55z" />
<glyph unicode="&#x1ef2;" horiz-adv-x="605" d="M615 713l-10 -11q-115 14 -177 45t-62 75q0 38 32.5 57t84.5 19q20 0 40 -2q35 -86 92 -183zM465 0h-326v16l34 11q27 8 34 45l26 125q20 82 2.5 217t-57.5 135q-27 0 -81 -81l-12 5q24 76 77 131.5t123 55.5q93 0 132.5 -96.5t31.5 -258.5q134 355 234 355 q40 0 53 -47.5t12 -128.5l-11 -6q-9 39 -19 57.5t-29 18.5q-36 0 -88.5 -68t-98 -166t-63.5 -182l-14 -66l-7 -31l52 -25z" />
<glyph unicode="&#x1ef3;" horiz-adv-x="604" d="M529 562l-10 -11q-115 14 -177 45t-62 75q0 38 32.5 57t84.5 19q20 0 40 -2q35 -86 92 -183zM373 341q0 -69 -20.5 -156.5t-58.5 -164.5q150 149 150 376q0 53 -11 95q40 19 94 19q61 0 94 -35t33 -97q0 -118 -100.5 -225.5t-277.5 -165.5q-103 -181 -250 -181 q-50 0 -81.5 22.5t-31.5 56.5q0 27 25 47t62 23q1 -3 2.5 -10.5t2.5 -12t2.5 -12.5t3.5 -13t4 -11.5t5 -10.5l6 -8t7 -6t9 -2q38 0 74 166.5t36 295.5q0 68 -17 68q-22 0 -78 -81l-10 5q25 77 79 132t129 55q59 0 88.5 -40t29.5 -129z" />
<glyph unicode="&#x1ef8;" horiz-adv-x="605" d="M613 831q12 9 35 26.5t35 26.5l9 -3q-5 -70 -45 -118t-104 -48q-10 0 -20.5 1t-19.5 2.5t-20 4.5t-18 4.5t-18.5 6t-17 6.5t-17 7.5t-15 7t-15 7t-13.5 6.5q-12 -9 -35.5 -26.5t-34.5 -26.5l-9 3q5 73 45 119.5t104 46.5q30 0 59 -8.5t65.5 -24t49.5 -20.5zM465 0h-326 v16l34 11q27 8 34 45l26 125q20 82 2.5 217t-57.5 135q-27 0 -81 -81l-12 5q24 76 77 131.5t123 55.5q93 0 132.5 -96.5t31.5 -258.5q134 355 234 355q40 0 53 -47.5t12 -128.5l-11 -6q-9 39 -19 57.5t-29 18.5q-36 0 -88.5 -68t-98 -166t-63.5 -182l-14 -66l-7 -31l52 -25z " />
<glyph unicode="&#x1ef9;" horiz-adv-x="604" d="M527 681q11 9 35 26.5t35 26.5l9 -3q-5 -70 -45 -118t-104 -48q-10 0 -20.5 1t-19.5 2.5t-20 4.5t-18 4.5t-18.5 6t-17 6.5t-17 7.5t-15 7t-15 7t-13.5 6.5q-11 -9 -34.5 -26.5t-35.5 -26.5l-9 3q5 73 45 119.5t104 46.5q30 0 59 -8.5t65.5 -24t49.5 -20.5zM373 341 q0 -69 -20.5 -156.5t-58.5 -164.5q150 149 150 376q0 53 -11 95q40 19 94 19q61 0 94 -35t33 -97q0 -118 -100.5 -225.5t-277.5 -165.5q-103 -181 -250 -181q-50 0 -81.5 22.5t-31.5 56.5q0 27 25 47t62 23q1 -3 2.5 -10.5t2.5 -12t2.5 -12.5t3.5 -13t4 -11.5t5 -10.5l6 -8 t7 -6t9 -2q38 0 74 166.5t36 295.5q0 68 -17 68q-22 0 -78 -81l-10 5q25 77 79 132t129 55q59 0 88.5 -40t29.5 -129z" />
<glyph unicode="&#x2013;" horiz-adv-x="545" d="M78 250l9 45h496l-9 -45h-496z" />
<glyph unicode="&#x2014;" horiz-adv-x="849" d="M78 250l9 45h800l-9 -45h-800z" />
<glyph unicode="&#x2018;" horiz-adv-x="263" d="M139 453q0 67 62.5 136t156.5 106l10 -12q-68 -66 -98 -141q51 -14 51 -68q0 -43 -31.5 -72.5t-73.5 -29.5q-34 0 -55.5 22.5t-21.5 58.5z" />
<glyph unicode="&#x2019;" horiz-adv-x="264" d="M351 614q0 -67 -62.5 -136t-156.5 -106l-10 12q68 66 98 141q-51 14 -51 68q0 43 31.5 72.5t73.5 29.5q34 0 55.5 -22.5t21.5 -58.5z" />
<glyph unicode="&#x201a;" horiz-adv-x="263" d="M238 83q0 -67 -62.5 -136t-156.5 -106l-10 12q68 66 98 141q-51 14 -51 68q0 43 31.5 72.5t73.5 29.5q34 0 55.5 -22.5t21.5 -58.5z" />
<glyph unicode="&#x201c;" horiz-adv-x="486" d="M139 453q0 67 62.5 136t156.5 106l10 -12q-68 -66 -98 -141q51 -14 51 -68q0 -43 -31.5 -72.5t-73.5 -29.5q-34 0 -55.5 22.5t-21.5 58.5zM362 453q0 67 62.5 136t156.5 106l10 -12q-68 -66 -98 -141q51 -14 51 -68q0 -43 -31.5 -72.5t-73.5 -29.5q-34 0 -55.5 22.5 t-21.5 58.5z" />
<glyph unicode="&#x201d;" horiz-adv-x="487" d="M574 614q0 -67 -62.5 -136t-156.5 -106l-10 12q68 66 98 141q-51 14 -51 68q0 43 31.5 72.5t73.5 29.5q34 0 55.5 -22.5t21.5 -58.5zM351 614q0 -67 -62.5 -136t-156.5 -106l-10 12q68 66 98 141q-51 14 -51 68q0 43 31.5 72.5t73.5 29.5q34 0 55.5 -22.5t21.5 -58.5z " />
<glyph unicode="&#x201e;" horiz-adv-x="486" d="M461 83q0 -67 -62.5 -136t-156.5 -106l-10 12q68 66 98 141q-51 14 -51 68q0 43 31.5 72.5t73.5 29.5q34 0 55.5 -22.5t21.5 -58.5zM238 83q0 -67 -62.5 -136t-156.5 -106l-10 12q68 66 98 141q-51 14 -51 68q0 43 31.5 72.5t73.5 29.5q34 0 55.5 -22.5t21.5 -58.5z" />
<glyph unicode="&#x2020;" horiz-adv-x="506" d="M262 -10h-22l-98 124l184 293l-205 -94l-4 3q9 86 35 209l12 6l167 -93l-67 202l4 4q100 10 241 10l6 -8l-155 -209l205 94l3 -3q-7 -84 -34 -209l-12 -6l-169 94l59 -293z" />
<glyph unicode="&#x2021;" horiz-adv-x="506" d="M103 295l12 6l170 -103q-54 102 -48 127q2 10 10 23t27 34.5t26 28.5t32 34l-204 -96l-3 3q7 75 36 219l12 6l171 -104l-90 167l4 4q100 10 261 10l6 -8l-164 -174l213 105l4 -3q-7 -83 -37 -219l-12 -6l-168 97q52 -94 46 -121q-5 -23 -104 -129l213 105l3 -3 q-7 -75 -36 -219l-13 -6l-167 96l87 -159l-4 -4q-100 -10 -261 -10l-6 8l156 166l-206 -97l-3 3q7 83 37 219z" />
<glyph unicode="&#x2022;" horiz-adv-x="459" d="M277 181q-58 0 -94 34.5t-36 85.5q0 67 55 118t125 51q54 0 88.5 -32t34.5 -85q0 -71 -51 -121.5t-122 -50.5z" />
<glyph unicode="&#x2026;" horiz-adv-x="707" d="M598 -10q-36 0 -57.5 20t-21.5 52q0 43 32 72.5t75 29.5q33 0 54 -19t21 -50q0 -43 -30.5 -74t-72.5 -31zM358 -10q-36 0 -57.5 20t-21.5 52q0 43 32 72.5t75 29.5q33 0 54 -19t21 -50q0 -43 -30.5 -74t-72.5 -31zM118 -10q-36 0 -57.5 20t-21.5 52q0 43 32 72.5t75 29.5 q33 0 54 -19t21 -50q0 -43 -30.5 -74t-72.5 -31z" />
<glyph unicode="&#x2030;" horiz-adv-x="1486" d="M821 660h101l-539 -670h-103zM541 506q0 -95 -69 -159t-168 -65q-78 -1 -123 40.5t-45 106.5q0 97 68.5 162t164.5 65q80 0 126 -40.5t46 -109.5zM289 342q0 -36 16 -36q25 0 51 97t26 193q0 37 -16 37q-26 0 -51.5 -97t-25.5 -194zM1048 218q0 -95 -69 -159t-168 -65 q-78 -1 -123 40.5t-45 106.5q0 97 68.5 162t164.5 65q80 0 126 -40.5t46 -109.5zM1487 218q0 -95 -69 -159t-168 -65q-78 -1 -123 40.5t-45 106.5q0 97 68.5 162t164.5 65q80 0 126 -40.5t46 -109.5zM796 54q0 -36 16 -36q25 0 51 97t26 193q0 37 -16 37q-26 0 -51.5 -97 t-25.5 -194zM1235 54q0 -36 16 -36q25 0 51 97t26 193q0 37 -16 37q-26 0 -51.5 -97t-25.5 -194z" />
<glyph unicode="&#x2039;" horiz-adv-x="307" d="M275 52l-13 -8q-86 109 -168 193l-2 6l10 50q210 140 252 171l10 -8q-44 -84 -125 -206q21 -93 36 -198z" />
<glyph unicode="&#x203a;" horiz-adv-x="307" d="M313 215q-210 -140 -252 -171l-10 8q44 84 125 206q-21 93 -36 198l13 8q86 -109 168 -193l2 -6z" />
<glyph unicode="&#x2044;" horiz-adv-x="260" d="M419 660h101l-539 -670h-103z" />
<glyph unicode="&#x2070;" horiz-adv-x="447" d="M543 589q0 -95 -69 -159t-168 -65q-78 -1 -123 40.5t-45 106.5q0 97 68.5 162t164.5 65q80 0 126 -40.5t46 -109.5zM291 425q0 -36 16 -36q25 0 51 97t26 193q0 37 -16 37q-26 0 -51.5 -97t-25.5 -194z" />
<glyph unicode="&#x2071;" horiz-adv-x="279" d="M293 728q-34 0 -54.5 14.5t-20.5 39.5q0 34 32 57t73 23q35 0 55 -14t20 -39q0 -36 -31.5 -58.5t-73.5 -22.5zM126 558l-7 3q22 57 61.5 95.5t92.5 38.5q76 0 76 -81q0 -29 -22 -112t-22 -90q0 -10 7 -10q11 0 57 58l7 -3q-21 -57 -60.5 -95.5t-92.5 -38.5 q-38 0 -57.5 21.5t-19.5 59.5q0 26 22.5 103t22.5 99q0 10 -8 10q-9 0 -57 -58z" />
<glyph unicode="&#x2074;" horiz-adv-x="380" d="M113 494l260 245l89 -12l-46 -214l49 1l-17 -65l-45 1l-17 -79h-152l16 80l-142 2zM283 619l-114 -113l92 2z" />
<glyph unicode="&#x2075;" horiz-adv-x="340" d="M419 494q0 -59 -77.5 -94t-228.5 -35l-1 12q136 24 136 90q0 19 -14 29.5t-36 10.5q-16 0 -36 -6l-9 8l52 226q112 -4 199 -4q17 0 27.5 7t22.5 28l7 -2q-8 -34 -12 -47.5t-11.5 -34.5t-15 -28t-20 -13.5t-29.5 -6.5q-48 0 -154 11l-14 -66q28 7 61 7q70 0 111.5 -25 t41.5 -67z" />
<glyph unicode="&#x2076;" horiz-adv-x="386" d="M133 492q0 105 99.5 174.5t254.5 72.5v-14q-151 -48 -205 -176q35 53 106 53q40 0 65 -22t25 -60q0 -65 -60 -110t-140 -45q-68 0 -106.5 34t-38.5 93zM341 520q0 42 -18 42q-22 0 -40.5 -47t-15.5 -98q2 -29 20 -29q20 0 37 40.5t17 91.5z" />
<glyph unicode="&#x2077;" horiz-adv-x="288" d="M303 388q-14 -23 -53 -23q-49 0 -76 47q137 185 157 217q-94 10 -130 10q-22 0 -33 -6.5t-24 -28.5l-7 2q7 31 10.5 45.5t11 35t14.5 29.5t19 16t27 7q80 0 134 -74q22 37 41 74q30 0 30 -24q0 -19 -50.5 -157.5t-70.5 -169.5z" />
<glyph unicode="&#x2078;" horiz-adv-x="399" d="M474 477q0 -52 -52.5 -82t-141.5 -30q-72 0 -115.5 23t-43.5 61q0 32 36 51.5t88 22.5q-73 57 -73 109q0 50 51 78.5t128 28.5q64 0 103.5 -22.5t39.5 -59.5q0 -30 -27.5 -50t-72.5 -28q39 -26 59.5 -49t20.5 -53zM309 671q0 -30 53 -70q13 39 13 69q0 46 -29 46 q-17 0 -27 -12.5t-10 -32.5zM259 436q0 -48 33 -48q17 0 27.5 11t10.5 30q0 13 -10 27t-19.5 22.5t-31.5 26.5q-10 -36 -10 -69z" />
<glyph unicode="&#x2079;" horiz-adv-x="386" d="M488 612q0 -105 -99.5 -174.5t-254.5 -72.5v14q151 48 205 176q-35 -53 -106 -53q-40 0 -65 22t-25 60q0 65 60 110t140 45q68 0 106.5 -34t38.5 -93zM280 584q0 -42 18 -42q22 0 40.5 47t15.5 98q-2 29 -20 29q-20 0 -37 -40.5t-17 -91.5z" />
<glyph unicode="&#x207f;" horiz-adv-x="509" d="M290 330q-75 -5 -147 -5q-8 0 -11.5 3.5t-1.5 8.5l28 122l17 72l5 24q10 44 10 51q0 10 -6 10q-11 0 -57 -58l-8 3q18 57 56 95.5t91 38.5q34 0 54 -17.5t20 -50.5q0 -38 -18 -96h2q74 164 177 164q36 0 57.5 -20t21.5 -52q0 -44 -36 -164q-10 -38 -10 -47q0 -10 8 -10 q9 0 57 58l7 -3q-22 -57 -61.5 -95.5t-92.5 -38.5q-76 0 -76 81q0 20 7 55q5 20 13.5 51t14 52.5t5.5 32.5q0 12 -10 12q-17 0 -44 -45t-43 -103z" />
<glyph unicode="&#x2080;" horiz-adv-x="447" d="M443 117q0 -95 -69 -159t-168 -65q-78 -1 -123 40.5t-45 106.5q0 97 68.5 162t164.5 65q80 0 126 -40.5t46 -109.5zM191 -47q0 -36 16 -36q25 0 51 97t26 193q0 37 -16 37q-26 0 -51.5 -97t-25.5 -194z" />
<glyph unicode="&#x2081;" horiz-adv-x="264" d="M217 -101h-205v9l13 6q17 5 22 26l62 269l-39 4l1 8l202 46l5 -5l-78 -322l-5 -18l25 -14z" />
<glyph unicode="&#x2082;" horiz-adv-x="344" d="M88 -96q-32 0 -72 -11l-13 60q159 89 159 175q0 22 -12 34.5t-33 12.5q-40 0 -74 -43l-6 4q49 131 180 131q53 0 87.5 -28.5t34.5 -71.5q0 -100 -200 -166q-18 -6 -28 -9q30 2 45 2q21 0 57 -3t53 -3q25 0 43 34l7 -2q-13 -57 -25 -85q-18 -42 -48 -42q-21 0 -72 5.5 t-83 5.5z" />
<glyph unicode="&#x2083;" horiz-adv-x="320" d="M295 4q0 -52 -82 -81.5t-232 -29.5l-1 12q145 25 145 102q0 44 -47 44q-9 0 -21 -2l-4 22q46 10 71.5 30.5t25.5 45.5q0 15 -10 24t-27 9q-40 0 -70 -40l-6 4q20 55 67.5 89t108.5 34q50 0 78 -21.5t28 -54.5q0 -44 -45 -73t-120 -40q61 5 101 -16t40 -58z" />
<glyph unicode="&#x2084;" horiz-adv-x="380" d="M13 22l260 245l89 -12l-46 -214l49 1l-17 -65l-45 1l-17 -79h-152l16 80l-142 2zM183 147l-114 -113l92 2z" />
<glyph unicode="&#x2085;" horiz-adv-x="340" d="M319 22q0 -59 -77.5 -94t-228.5 -35l-1 12q136 24 136 90q0 19 -14 29.5t-36 10.5q-16 0 -36 -6l-9 8l52 226q112 -4 199 -4q17 0 27.5 7t22.5 28l7 -2q-8 -34 -12 -47.5t-11.5 -34.5t-15 -28t-20 -13.5t-29.5 -6.5q-48 0 -154 11l-14 -66q28 7 61 7q70 0 111.5 -25 t41.5 -67z" />
<glyph unicode="&#x2086;" horiz-adv-x="387" d="M33 20q0 105 99.5 174.5t254.5 72.5v-14q-151 -48 -205 -176q35 53 106 53q40 0 65 -22t25 -60q0 -65 -60 -110t-140 -45q-68 0 -106.5 34t-38.5 93zM241 48q0 42 -18 42q-22 0 -40.5 -47t-15.5 -98q2 -29 20 -29q20 0 37 40.5t17 91.5z" />
<glyph unicode="&#x2087;" horiz-adv-x="288" d="M100 167q-22 0 -33 -6.5t-24 -28.5l-7 2q7 31 10.5 45.5t11 35t14.5 29.5t19 16t27 7q80 0 134 -74q22 37 41 74q30 0 30 -24q0 -19 -50.5 -157.5t-70.5 -169.5q-14 -23 -53 -23q-49 0 -76 47q137 185 157 217q-94 10 -130 10z" />
<glyph unicode="&#x2088;" horiz-adv-x="398" d="M373 5q0 -52 -52.5 -82t-141.5 -30q-72 0 -115.5 23t-43.5 61q0 32 36 51.5t88 22.5q-73 57 -73 109q0 50 51 78.5t128 28.5q64 0 103.5 -22.5t39.5 -59.5q0 -30 -27.5 -50t-72.5 -28q39 -26 59.5 -49t20.5 -53zM208 199q0 -30 53 -70q13 39 13 69q0 46 -29 46 q-17 0 -27 -12.5t-10 -32.5zM158 -36q0 -48 33 -48q17 0 27.5 11t10.5 30q0 13 -10 27t-19.5 22.5t-31.5 26.5q-10 -36 -10 -69z" />
<glyph unicode="&#x2089;" horiz-adv-x="387" d="M388 140q0 -105 -99.5 -174.5t-254.5 -72.5v14q151 48 205 176q-35 -53 -106 -53q-40 0 -65 22t-25 60q0 65 60 110t140 45q68 0 106.5 -34t38.5 -93zM180 112q0 -42 18 -42q22 0 40.5 47t15.5 98q-2 29 -20 29q-20 0 -37 -40.5t-17 -91.5z" />
<glyph unicode="&#x2090;" horiz-adv-x="496" d="M21 -42q0 106 77.5 185.5t207.5 79.5q108 0 182 -32l-20 -49l-36 -155q-10 -38 -10 -47q0 -10 7 -10q11 0 57 58l7 -3q-21 -57 -60.5 -95.5t-92.5 -38.5q-77 0 -77 81q0 23 8 55l7 28h-2q-72 -164 -162 -164q-45 0 -69 30t-24 77zM314 165l8 22q-13 11 -29 11 q-38 0 -77 -89.5t-39 -148.5q0 -30 14 -30q20 0 59 78.5t64 156.5z" />
<glyph unicode="&#x2091;" horiz-adv-x="404" d="M384 -20q-22 -59 -77.5 -94t-119.5 -35q-73 0 -116.5 38.5t-43.5 103.5q0 95 71.5 162.5t174.5 67.5q58 0 96 -24.5t38 -69.5q0 -51 -53.5 -84.5t-157.5 -36.5q10 -68 74 -68q55 0 108 45zM264 194q-24 0 -46.5 -53.5t-22.5 -109.5q36 10 61 52.5t25 90.5q0 20 -17 20z " />
<glyph unicode="&#x2092;" horiz-adv-x="476" d="M463 74q0 -97 -73.5 -160.5t-177.5 -63.5q-86 0 -134.5 39.5t-48.5 110.5q0 94 74.5 158.5t178.5 64.5q84 0 132.5 -42t48.5 -107zM196 -48q0 -73 22 -73q29 0 53 94t24 159q0 62 -22 62q-30 0 -53.5 -86t-23.5 -156z" />
<glyph unicode="&#x2093;" horiz-adv-x="435" d="M151 -138q-31 -11 -69 -11q-36 0 -58 15.5t-22 44.5q0 76 142 117l-27 61q-7 17 -10.5 24l-7.5 15t-7.5 10t-7.5 2q-16 0 -58 -51l-6 4q26 60 65 95t86 35q11 0 19.5 -1t16.5 -5t13 -6t11.5 -10.5t10 -12.5t10 -17.5t9 -19t10.5 -24.5t12 -27l13 -28q6 47 6 101 q0 29 -3 39q28 11 66 11q35 0 59 -16t24 -42q0 -77 -141 -118l27 -62q14 -31 20 -41t13 -10q17 0 58 51l6 -5q-24 -60 -63.5 -94.5t-86.5 -34.5q-11 0 -20 1t-17 5t-13 6t-11.5 10.5t-10 12.5t-10 17.5t-9 19t-10.5 24.5t-12 27l-14 31q-6 -48 -6 -104q0 -29 3 -39z" />
<glyph unicode="&#x2095;" horiz-adv-x="489" d="M170 -142q-75 -5 -147 -5q-8 0 -11.5 3.5t-1.5 8.5l28 122l61 267l9 39l-54 25v9q85 19 222 28l6 -8l-22 -93q-27 -109 -58 -195h2q74 164 177 164q36 0 57.5 -20t21.5 -52q0 -44 -36 -164q-10 -38 -10 -47q0 -10 8 -10q9 0 57 58l7 -3q-22 -57 -61.5 -95.5t-92.5 -38.5 q-76 0 -76 81q0 20 7 55q5 20 13.5 51t14 52.5t5.5 32.5q0 12 -10 12q-17 0 -44 -45t-43 -103z" />
<glyph unicode="&#x2096;" horiz-adv-x="484" d="M170 -142q-75 -5 -147 -5q-17 0 -12 12l27 122l62 267l8 39l-54 25v9q85 19 222 28l6 -8l-22 -93q-21 -93 -58 -195h3q74 164 190 164q38 0 60.5 -22.5t22.5 -53.5q0 -68 -102 -112q37 -98 63 -98q20 0 67 51l7 -3q-25 -56 -69.5 -95t-97.5 -39q-17 0 -30 3t-23 12 t-17 15.5t-14 23t-10.5 24.5t-10.5 30.5t-10 30.5l1 4q38 23 61.5 56.5t23.5 61.5q0 24 -19 24q-21 0 -51.5 -44t-47.5 -105z" />
<glyph unicode="&#x2097;" horiz-adv-x="258" d="M33 -13l66 267l9 39l-54 25v9q85 19 221 28l6 -8l-21 -93l-66 -267q-10 -38 -10 -47q0 -10 8 -10q10 0 56 58l7 -3q-21 -57 -60.5 -95.5t-92.5 -38.5q-38 0 -57.5 21.5t-19.5 59.5q0 23 8 55z" />
<glyph unicode="&#x2098;" horiz-adv-x="729" d="M222 59h3q34 80 80 122t97 42q30 0 48.5 -16.5t18.5 -44.5q0 -25 -18 -103h2q35 80 80.5 122t92.5 42q34 0 54 -20t20 -52q0 -44 -36 -164q-10 -38 -10 -47q0 -10 8 -10q9 0 57 58l7 -3q-22 -58 -61.5 -96t-92.5 -38q-76 0 -76 81q0 20 7 55q5 20 13.5 51.5t14 53 t5.5 33.5q0 10 -6 10q-14 0 -41 -46t-41 -102l-30 -129q-70 -5 -147 -5q-15 0 -12 12l28 122q29 124 29 136t-9 12q-17 0 -44 -45t-44 -103l-29 -129q-70 -5 -147 -5q-17 0 -12 12l27 122l17 72l6 24q9 47 9 51q0 10 -6 10q-11 0 -57 -58l-8 3q18 57 56 95.5t91 38.5 q34 0 54.5 -18t20.5 -50q0 -35 -19 -96z" />
<glyph unicode="&#x2099;" horiz-adv-x="509" d="M222 59h2q74 164 177 164q36 0 57.5 -20t21.5 -52q0 -44 -36 -164q-10 -38 -10 -47q0 -10 8 -10q9 0 57 58l7 -3q-22 -57 -61.5 -95.5t-92.5 -38.5q-76 0 -76 81q0 20 7 55q5 20 13.5 51t14 52.5t5.5 32.5q0 12 -10 12q-17 0 -44 -45t-43 -103l-29 -129q-75 -5 -147 -5 q-8 0 -11.5 3.5t-1.5 8.5l28 122l17 72l5 24q10 44 10 51q0 10 -6 10q-11 0 -57 -58l-8 3q18 57 56 95.5t91 38.5q34 0 54 -17.5t20 -50.5q0 -38 -18 -96z" />
<glyph unicode="&#x209a;" horiz-adv-x="487" d="M222 59h2q71 164 166 164q44 0 67.5 -31.5t23.5 -77.5q0 -106 -74.5 -184.5t-205.5 -78.5h-13l-29 -128q-7 0 -75 -2.5t-72 -2.5q-15 0 -12 13l28 121l47 207l5 24q10 44 10 51q0 10 -6 10q-11 0 -57 -58l-8 3q18 57 56 95.5t91 38.5q34 0 54.5 -18t20.5 -50 q0 -35 -19 -96zM313 144q-16 0 -45 -44t-47 -105l-27 -118q3 -1 12 -1q31 0 60 43.5t44 98t15 95.5q0 31 -12 31z" />
<glyph unicode="&#x209b;" horiz-adv-x="384" d="M365 -40q0 -50 -49.5 -79.5t-147.5 -29.5q-71 0 -119.5 18.5t-48.5 54.5q0 21 30.5 35.5t84.5 14.5l7 -3q6 -36 11 -51q13 -41 44 -41q13 0 21.5 8.5t8.5 20.5q0 20 -26 44.5t-56.5 45t-56.5 51t-26 60.5q0 52 49 83t137 31q72 0 119 -21t47 -53q0 -24 -29.5 -38 t-77.5 -11l-7 3q-3 29 -9 52q-14 39 -40 39q-32 0 -32 -30q0 -21 26 -45.5t57 -45t57 -51.5t26 -62z" />
<glyph unicode="&#x209c;" horiz-adv-x="303" d="M300 -15q-22 -57 -65 -95.5t-99 -38.5q-43 0 -65.5 22.5t-22.5 61.5q0 22 7 52l43 189h-52l1 8l61 30l170 82l8 -1l-21 -94h65l-6 -25h-65l-43 -189q-8 -42 -8 -44q0 -13 13 -13q21 0 72 58z" />
<glyph unicode="&#x20ac;" horiz-adv-x="682" d="M558 255h-145q9 -124 136 -124q66 0 128 37l7 -7q-36 -76 -108.5 -123.5t-171.5 -47.5q-110 0 -174.5 62t-64.5 170q0 22 1 33h-72l15 45h63q6 30 10 45h-60l15 45h61q50 120 156 195t230 75q82 0 130 -31t48 -78q0 -41 -32 -66t-78 -25q-18 0 -50 4q6 40 6 72 q0 74 -43 74q-41 0 -80.5 -64.5t-59.5 -155.5h176l-15 -45h-169q-4 -30 -4 -45h160z" />
<glyph unicode="&#x2122;" horiz-adv-x="814" d="M178 650h276l-23 -109h-19l-3 79h-49l-46 -214l37 -8l-4 -17h-176l4 17l39 9l46 213h-43l-43 -79h-19zM423 381l4 17l40 9l48 221l-35 6l3 16h171l18 -124l73 124h167l-3 -16l-34 -5l-48 -223l30 -8l-4 -17h-177l4 17l37 9l44 200h-6l-129 -221h-38l-38 221h-5l-43 -201 l39 -8l-4 -17h-114z" />
<glyph unicode="&#x2212;" horiz-adv-x="539" d="M534 256h-430l28 132q147 6 433 6l6 -8z" />
<glyph unicode="&#x221e;" horiz-adv-x="810" d="M842 363q0 -93 -65 -163t-156 -70q-109 0 -169 95q-87 -95 -198 -95q-66 0 -106.5 44t-40.5 115q0 93 66 162t164 69q58 0 94.5 -25t65.5 -69q84 94 194 94q69 0 110 -43t41 -114zM641 401q-48 0 -100 -56q18 -34 27 -48.5t27 -29.5t38 -15q27 0 46.5 24.5t19.5 60.5 q0 29 -15.5 46.5t-42.5 17.5zM250 313q0 -29 15.5 -46.5t42.5 -17.5q48 0 100 58q-15 31 -25 47t-26.5 30t-34.5 14q-29 0 -50.5 -25.5t-21.5 -59.5z" />
<glyph unicode="&#x2248;" horiz-adv-x="565" d="M247 388q-14 0 -63 -49l-65 34q101 155 167 155q30 0 115 -22t101 -22q15 0 64 49l64 -34q-22 -32 -37.5 -52.5t-39 -47.5t-46 -41t-43.5 -14q-35 0 -120 22t-97 22zM200 164q-14 0 -63 -49l-65 34q101 155 167 155q30 0 115 -22t101 -22q15 0 64 49l64 -34 q-22 -32 -37.5 -52.5t-39 -47.5t-46 -41t-43.5 -14q-35 0 -120 22t-97 22z" />
<glyph unicode="&#x2260;" horiz-adv-x="540" d="M124 23l-61 39l65 87h-46l28 132q41 1 118 3l59 79h-160l28 132q90 3 234 5l93 125l11 3l61 -39l-66 -88h100l6 -8l-37 -130h-171l-58 -77q83 1 215 1l6 -8l-37 -130h-285l-92 -123z" />
<glyph unicode="&#x2264;" horiz-adv-x="539" d="M606 615l-33 -152l-239 -52l216 -51l-30 -147q-71 19 -204 64.5t-197 72.5l-2 11l24 115zM487 36h-430l28 132q147 6 433 6l6 -8z" />
<glyph unicode="&#x2265;" horiz-adv-x="539" d="M95 213l33 152l239 52l-216 51l30 147q71 -19 204 -64.5t197 -72.5l2 -11l-24 -115zM497 36h-430l28 132q147 6 433 6l6 -8z" />
<glyph unicode="&#x25fc;" horiz-adv-x="510" d="M0 510h510v-510h-510v510z" />
<glyph unicode="&#x2c7c;" horiz-adv-x="260" d="M298 337q0 -36 -31.5 -58.5t-73.5 -22.5q-34 0 -54.5 14.5t-20.5 39.5q0 34 32 57t73 23q35 0 55 -14t20 -39zM202 -89q-21 -94 -84 -143.5t-144 -49.5q-44 0 -72.5 17t-28.5 41q0 41 67 50q12 -55 33 -55q19 0 34 29t29 93l45 194q10 38 10 47q0 10 -8 10q-9 0 -57 -58 l-6 3q21 57 60.5 95.5t92.5 38.5q76 0 76 -81q0 -20 -7 -55z" />
<glyph unicode="&#xfb01;" horiz-adv-x="636" d="M278 74q-27 -131 -109 -200t-188 -69q-58 0 -95 23t-37 57q0 58 87 70q15 -77 43 -77q25 0 44.5 40.5t38.5 130.5l84 396h-66l1 9l74 30v1q17 77 105.5 143.5t209.5 66.5q76 0 125.5 -25.5t49.5 -70.5q0 -74 -158 -69q-8 36 -30 62.5t-51 26.5q-40 0 -40 -66 q0 -65 -2 -73h145q79 0 110.5 -27.5t31.5 -83.5q0 -27 -41 -189q-13 -52 -13 -65q0 -14 10 -14q12 0 69 75q3 4 5 6l9 -5q-27 -80 -79 -133.5t-121 -53.5q-49 0 -74.5 29.5t-25.5 83.5q0 30 10 77q51 212 51 222q0 43 -42 43h-52z" />
<glyph unicode="&#xfb02;" horiz-adv-x="636" d="M278 74q-27 -131 -109 -200t-188 -69q-58 0 -95 23t-37 57q0 58 87 70q15 -77 43 -77q25 0 44.5 40.5t38.5 130.5l84 396h-66l1 9l74 30v1q15 75 100 142.5t187 67.5q68 0 102 -24q87 16 165 23l8 -10l-107 -504q-13 -52 -13 -65q0 -14 10 -14q12 0 69 75q3 4 5 6l9 -5 q-27 -80 -79 -133.5t-121 -53.5q-49 0 -74.5 29.5t-25.5 83.5q0 30 10 77l81 382q-36 57 -81 57q-35 0 -35 -66q0 -70 -1 -73h72l-8 -35h-71z" />
<glyph unicode="&#xfb06;" horiz-adv-x="869" d="M516 143q0 -71 -65 -112t-192 -41q-93 0 -156 26.5t-63 75.5q0 30 39.5 50t110.5 20l9 -4q7 -50 14 -72q16 -56 58 -56q17 0 28 11.5t11 28.5q0 28 -34 62t-74 62.5t-74 71.5t-34 85q0 73 66 116t187 43q31 0 56 -3q37 79 115 133.5t176 54.5q82 0 129.5 -34.5 t47.5 -93.5q0 -51 -33 -87h109l-8 -35h-86l-56 -265q-10 -45 -10 -61q0 -18 16 -18q29 0 95 81l9 -5q-29 -79 -85 -133t-130 -54q-55 0 -84.5 32t-29.5 85q0 32 9 73l56 265h-67l1 10q95 35 95 116q0 27 -18.5 43t-49.5 16q-45 0 -91 -33.5t-80 -93.5q57 -11 89 -36.5 t32 -59.5q0 -30 -25.5 -50t-66.5 -20q-38 0 -60.5 19.5t-22.5 50.5q0 27 7 51q-19 12 -36 12q-25 0 -38 -12t-13 -31q0 -24 22.5 -50t54.5 -51t63.5 -52t54 -61t22.5 -70z" />
<glyph horiz-adv-x="1113" d="M539 171q-30 -77 -102.5 -129t-163.5 -52q-94 0 -148 53.5t-54 145.5q0 132 98.5 226.5t231.5 94.5q18 0 27 -1q54 86 170.5 136t267.5 50h30l6 -8l-29 -133q-35 -149 -76 -273h3q96 229 231 229q47 0 75 -27.5t28 -73.5q0 -56 -47 -229q-13 -52 -13 -65q0 -14 10 -14 q12 0 69 75q3 4 5 6l9 -5q-27 -80 -79 -133.5t-121 -53.5q-49 0 -74.5 29.5t-25.5 83.5q0 30 10 77q6 29 17.5 71.5t18.5 72.5t7 46q0 17 -13 17q-22 0 -57.5 -63t-56.5 -144l-38 -180q-133 -7 -192 -7q-21 0 -16 17l36 170l95 448q-146 -31 -218 -124q53 -12 81.5 -45.5 t28.5 -77.5q0 -46 -28.5 -76t-72.5 -30q-37 0 -58 26t-21 77q0 48 18 92h-4q-44 0 -78 -74t-34 -154q0 -127 100 -127q65 0 139 62z" />
<glyph horiz-adv-x="883" d="M539 171q-30 -77 -102.5 -129t-163.5 -52q-94 0 -148 53.5t-54 145.5q0 132 98.5 226.5t231.5 94.5q12 0 18 -1q38 83 117 134.5t176 51.5q80 0 126 -34t46 -92q0 -51 -33 -89h109l-8 -35h-85l-56 -265q-10 -45 -10 -61q0 -18 16 -18q29 0 95 81l9 -5q-29 -79 -85 -133 t-130 -54q-55 0 -84.5 32t-29.5 85q0 32 9 73l56 265h-68l1 10q95 35 95 118q0 26 -17 41.5t-46 15.5q-46 0 -93.5 -33t-80.5 -91q58 -10 90 -44.5t32 -80.5t-28.5 -76t-72.5 -30q-79 0 -79 107q0 42 13 88q-43 -1 -77 -75t-34 -153q0 -127 100 -127q65 0 139 62z" />
<glyph horiz-adv-x="1105" d="M516 143q0 -71 -65 -112t-192 -41q-93 0 -156 26.5t-63 75.5q0 30 39.5 50t110.5 20l9 -4q7 -50 14 -72q16 -56 58 -56q17 0 28 11.5t11 28.5q0 28 -34 62t-74 62.5t-74 71.5t-34 85q0 73 66 116t187 43q38 0 65 -4q52 80 167 134.5t279 54.5h30l6 -8l-29 -133 q-27 -123 -76 -273h3q96 229 231 229q47 0 75 -27.5t28 -73.5q0 -56 -47 -229q-13 -52 -13 -65q0 -14 10 -14q12 0 69 75q3 4 5 6l9 -5q-27 -80 -79 -133.5t-121 -53.5q-49 0 -74.5 29.5t-25.5 83.5q0 30 10 77q6 29 17.5 71.5t18.5 72.5t7 46q0 17 -13 17q-22 0 -57.5 -63 t-56.5 -144l-38 -180q-133 -7 -192 -7q-21 0 -16 17l36 170l95 448q-153 -30 -226 -128q52 -11 81 -35.5t29 -57.5q0 -30 -25.5 -50t-66.5 -20q-38 0 -60.5 19.5t-22.5 50.5q0 24 9 51q-19 12 -38 12q-25 0 -38 -12t-13 -31q0 -24 22.5 -50t54.5 -51t63.5 -52t54 -61 t22.5 -70z" />
<glyph horiz-adv-x="496" d="M121 430q0 106 77.5 185.5t207.5 79.5q108 0 182 -32l-20 -49l-36 -155q-10 -38 -10 -47q0 -10 7 -10q11 0 57 58l7 -3q-21 -57 -60.5 -95.5t-92.5 -38.5q-77 0 -77 81q0 23 8 55l7 28h-2q-72 -164 -162 -164q-45 0 -69 30t-24 77zM414 637l8 22q-13 11 -29 11 q-38 0 -77 -89.5t-39 -148.5q0 -30 14 -30q20 0 59 78.5t64 156.5z" />
<glyph horiz-adv-x="464" d="M125 409l74 317l9 39l-54 25v9q85 19 221 28l6 -8l-21 -93q-28 -106 -60 -195h2q71 164 166 164q44 0 67.5 -31.5t23.5 -77.5q0 -104 -72 -183.5t-192 -79.5q-107 0 -190 36zM391 616q-16 0 -45 -44t-47 -105l-25 -111q11 -8 26 -8q39 0 71 87.5t32 149.5q0 31 -12 31z " />
<glyph horiz-adv-x="406" d="M486 452q-23 -55 -78.5 -92t-124.5 -37q-64 0 -109.5 37t-45.5 105q0 95 74 162.5t175 67.5q61 0 96.5 -26t35.5 -67q0 -31 -26 -51.5t-64 -20.5q-27 0 -59 10q23 73 23 101q0 25 -17 25q-23 0 -46 -53.5t-23 -102.5q0 -98 77 -98q51 0 106 45z" />
<glyph horiz-adv-x="495" d="M370 459l8 31q-74 -167 -165 -167q-44 0 -68 31t-24 76q0 105 77.5 185t207.5 80q15 0 22 -1l8 32l8 39l-54 25v9q85 19 222 28l6 -8l-21 -93l-66 -267q-10 -38 -10 -47q0 -10 7 -10q11 0 57 58l7 -3q-21 -57 -60.5 -95.5t-92.5 -38.5q-77 0 -77 81q0 23 8 55zM277 432 q0 -30 14 -30q20 0 59 78.5t64 156.5l6 24q-14 9 -27 9q-38 0 -77 -89.5t-39 -148.5z" />
<glyph horiz-adv-x="405" d="M485 452q-22 -59 -77.5 -94t-119.5 -35q-73 0 -116.5 38.5t-43.5 103.5q0 95 71.5 162.5t174.5 67.5q58 0 96 -24.5t38 -69.5q0 -51 -53.5 -84.5t-157.5 -36.5q10 -68 74 -68q55 0 108 45zM365 666q-24 0 -46.5 -53.5t-22.5 -109.5q36 10 61 52.5t25 90.5q0 20 -17 20z " />
<glyph horiz-adv-x="292" d="M295 383q-22 -94 -84.5 -143.5t-143.5 -49.5q-45 0 -73 16.5t-28 41.5q0 41 67 50q9 -55 32 -55q20 0 34.5 29t29.5 93l64 283h-50l1 7l56 21v1q12 54 77 102t143 48q94 0 94 -59q0 -20 -18 -33.5t-41 -18.5q-41 57 -67 57q-18 0 -24 -19t-3 -41.5t-1 -39.5h80l-6 -25 h-80z" />
<glyph horiz-adv-x="416" d="M485 294q0 -49 -65 -76.5t-168 -27.5q-86 0 -148 22t-62 57q0 23 30.5 40.5t79.5 20.5l6 -4q2 -50 28 -81t75 -31q21 0 36 9t15 23t-34 29t-68 34.5t-34 44.5q0 47 121 78h-3q-78 0 -126.5 31t-48.5 80q0 63 62.5 107.5t157.5 44.5h51h50.5t39.5 0.5t42 3t33 5.5 q7 -14 7 -35q0 -48 -36 -48q-26 0 -88 25l-1 -2q61 -37 61 -85q0 -35 -27 -62t-60 -40t-60 -25.5t-27 -20.5q0 -10 25 -20.5t55.5 -19t55.5 -29t25 -48.5zM275 518q0 -27 4.5 -42t18.5 -14q19 0 31.5 53t12.5 107q0 51 -22 51q-19 0 -32 -49.5t-13 -105.5z" />
<glyph horiz-adv-x="489" d="M270 330q-75 -5 -147 -5q-8 0 -11.5 3.5t-1.5 8.5l28 122l61 267l9 39l-54 25v9q85 19 222 28l6 -8l-22 -93q-27 -109 -58 -195h2q74 164 177 164q36 0 57.5 -20t21.5 -52q0 -44 -36 -164q-10 -38 -10 -47q0 -10 8 -10q9 0 57 58l7 -3q-22 -57 -61.5 -95.5t-92.5 -38.5 q-76 0 -76 81q0 20 7 55q5 20 13.5 51t14 52.5t5.5 32.5q0 12 -10 12q-17 0 -44 -45t-43 -103z" />
<glyph horiz-adv-x="261" d="M399 809q0 -36 -31.5 -58.5t-73.5 -22.5q-34 0 -54.5 14.5t-20.5 39.5q0 34 32 57t73 23q35 0 55 -14t20 -39zM303 383q-21 -94 -84 -143.5t-144 -49.5q-44 0 -72.5 17t-28.5 41q0 41 67 50q12 -55 33 -55q19 0 34 29t29 93l45 194q10 38 10 47q0 10 -8 10q-9 0 -57 -58 l-6 3q21 57 60.5 95.5t92.5 38.5q76 0 76 -81q0 -20 -7 -55z" />
<glyph horiz-adv-x="484" d="M270 330q-75 -5 -147 -5q-17 0 -12 12l27 122l62 267l8 39l-54 25v9q85 19 222 28l6 -8l-22 -93q-21 -93 -58 -195h3q74 164 190 164q38 0 60.5 -22.5t22.5 -53.5q0 -68 -102 -112q37 -98 63 -98q20 0 67 51l7 -3q-25 -56 -69.5 -95t-97.5 -39q-17 0 -30 3t-23 12 t-17 15.5t-14 23t-10.5 24.5t-10.5 30.5t-10 30.5l1 4q38 23 61.5 56.5t23.5 61.5q0 24 -19 24q-21 0 -51.5 -44t-47.5 -105z" />
<glyph horiz-adv-x="258" d="M133 459l66 267l9 39l-54 25v9q85 19 221 28l6 -8l-21 -93l-66 -267q-10 -38 -10 -47q0 -10 8 -10q10 0 56 58l7 -3q-21 -57 -60.5 -95.5t-92.5 -38.5q-38 0 -57.5 21.5t-19.5 59.5q0 23 8 55z" />
<glyph horiz-adv-x="729" d="M290 330q-70 -5 -147 -5q-17 0 -12 12l27 122l17 72l6 24q9 47 9 51q0 10 -6 10q-11 0 -57 -58l-8 3q18 57 56 95.5t91 38.5q34 0 54.5 -18t20.5 -50q0 -35 -19 -96h3q34 80 80 122t97 42q30 0 48.5 -16.5t18.5 -44.5q0 -25 -18 -103h2q35 80 80.5 122t92.5 42 q34 0 54 -20t20 -52q0 -44 -36 -164q-10 -38 -10 -47q0 -10 8 -10q9 0 57 58l7 -3q-22 -58 -61.5 -96t-92.5 -38q-76 0 -76 81q0 20 7 55q5 20 13.5 51.5t14 53t5.5 33.5q0 10 -6 10q-14 0 -41 -46t-41 -102l-30 -129q-70 -5 -147 -5q-15 0 -12 12l28 122q29 124 29 136 t-9 12q-17 0 -44 -45t-44 -103z" />
<glyph horiz-adv-x="476" d="M563 546q0 -97 -73.5 -160.5t-177.5 -63.5q-86 0 -134.5 39.5t-48.5 110.5q0 94 74.5 158.5t178.5 64.5q84 0 132.5 -42t48.5 -107zM296 424q0 -73 22 -73q29 0 53 94t24 159q0 62 -22 62q-30 0 -53.5 -86t-23.5 -156z" />
<glyph horiz-adv-x="486" d="M259 195q-7 0 -74.5 -2.5t-72.5 -2.5q-15 0 -12 13l28 121l47 207l5 24q10 44 10 51q0 10 -6 10q-11 0 -57 -58l-8 3q18 57 56 95.5t91 38.5q34 0 54.5 -18t20.5 -50q0 -35 -19 -96h2q71 164 166 164q44 0 67.5 -31.5t23.5 -77.5q0 -106 -74.5 -184.5t-205.5 -78.5h-13z M413 616q-16 0 -45 -44t-47 -105l-27 -118q3 -1 12 -1q31 0 60 43.5t44 98t15 95.5q0 31 -12 31z" />
<glyph horiz-adv-x="486" d="M472 195q-8 0 -75.5 -2.5t-71.5 -2.5q-16 0 -13 13l28 121q26 112 39 163h-3q-72 -164 -162 -164q-44 0 -68.5 31t-24.5 76q0 105 77.5 185t207.5 80q106 0 181 -32l-20 -49l-66 -290zM277 432q0 -30 14 -30q20 0 59 78t64 156l6 25q-13 9 -27 9q-38 0 -77 -89.5 t-39 -148.5z" />
<glyph horiz-adv-x="406" d="M290 330q-75 -5 -147 -5q-8 0 -11.5 3.5t-1.5 8.5l28 122l17 72l5 24q10 44 10 51q0 10 -6 10q-11 0 -57 -58l-8 3q18 57 56 95.5t91 38.5q34 0 54 -17.5t20 -50.5q0 -38 -18 -96h2q72 164 147 164q44 0 44 -55q0 -58 -48 -115q-38 20 -76 20q-31 0 -47 -22t-25 -64z" />
<glyph horiz-adv-x="384" d="M466 432q0 -50 -49.5 -79.5t-147.5 -29.5q-71 0 -119.5 18.5t-48.5 54.5q0 21 30.5 35.5t84.5 14.5l7 -3q6 -36 11 -51q13 -41 44 -41q13 0 21.5 8.5t8.5 20.5q0 20 -26 44.5t-56.5 45t-56.5 51t-26 60.5q0 52 49 83t137 31q72 0 119 -21t47 -53q0 -24 -29.5 -38 t-77.5 -11l-7 3q-3 29 -9 52q-14 39 -40 39q-32 0 -32 -30q0 -21 26 -45.5t57 -45t57 -51.5t26 -62z" />
<glyph horiz-adv-x="303" d="M400 457q-22 -57 -65 -95.5t-99 -38.5q-43 0 -65.5 22.5t-22.5 61.5q0 22 7 52l43 189h-52l1 8l61 30l170 82l8 -1l-21 -94h65l-6 -25h-65l-43 -189q-8 -42 -8 -44q0 -13 13 -13q21 0 72 58z" />
<glyph horiz-adv-x="509" d="M400 487q-73 -164 -177 -164q-35 0 -57 19.5t-22 52.5q0 35 36 164q10 33 10 47q0 10 -7 10q-9 0 -57 -58l-7 3q21 57 60.5 95.5t92.5 38.5q77 0 77 -81q0 -23 -8 -55q-5 -23 -19 -72.5t-14 -63.5q0 -12 10 -12q17 0 44 44.5t44 103.5l29 129q70 5 147 5q15 0 12 -12 l-50 -218q-10 -44 -10 -51q0 -10 7 -10q9 0 57 58l8 -3q-19 -58 -57 -96t-90 -38q-35 0 -55 17.5t-20 50.5q0 39 19 96h-3z" />
<glyph horiz-adv-x="451" d="M179 329q0 12 1.5 57t1.5 65q0 74 -2 110t-6 45.5t-11 9.5q-18 0 -60 -58l-8 3q19 55 61.5 94.5t101.5 39.5q88 0 88 -116q0 -81 -33 -209q87 108 87 243q0 36 -8 68q28 14 70 14q46 0 72.5 -22t26.5 -65q0 -71 -73 -144.5t-205 -140.5z" />
<glyph horiz-adv-x="670" d="M462 695q103 0 103 -109q0 -91 -33 -217q87 110 87 244q0 36 -8 68q28 14 70 14q46 0 72.5 -22t26.5 -65q0 -71 -73 -144.5t-205 -140.5l-103 6q0 22 0.5 61.5t1.5 58.5q-41 -64 -118 -126l-104 6q0 12 1.5 57t1.5 65q0 74 -2 110t-6 45.5t-11 9.5q-15 0 -60 -58l-8 3 q19 55 61.5 94.5t101.5 39.5q88 0 88 -116q0 -79 -30 -197q87 111 87 231q0 36 -8 68q28 14 67 14z" />
<glyph horiz-adv-x="435" d="M251 334q-31 -11 -69 -11q-36 0 -58 15.5t-22 44.5q0 76 142 117l-27 61q-7 17 -10.5 24l-7.5 15t-7.5 10t-7.5 2q-16 0 -58 -51l-6 4q26 60 65 95t86 35q11 0 19.5 -1t16.5 -5t13 -6t11.5 -10.5t10 -12.5t10 -17.5t9 -19t10.5 -24.5t12 -27l13 -28q6 46 6 101 q0 29 -3 39q28 11 66 11q35 0 59 -16t24 -42q0 -77 -141 -118l27 -62q14 -31 20 -41t13 -10q17 0 58 51l6 -5q-24 -60 -63.5 -94.5t-86.5 -34.5q-11 0 -20 1t-17 5t-13 6t-11.5 10.5t-10 12.5t-10 17.5t-9 19t-10.5 24.5t-12 27l-14 31q-6 -48 -6 -104q0 -29 3 -39z" />
<glyph horiz-adv-x="465" d="M358 574q0 -114 -60 -229q114 108 114 268q0 36 -8 68q28 14 72 14q46 0 71.5 -25t25.5 -69q0 -85 -76.5 -162t-212.5 -118q-78 -130 -192 -130q-38 0 -62.5 16.5t-24.5 40.5q0 19 19 33.5t48 16.5q1 -2 2.5 -9.5t2.5 -12t3 -11.5t4 -11.5t5 -9t7 -6.5t8 -2 q29 0 56.5 119t27.5 212q0 49 -13 49q-16 0 -59 -58l-8 3q19 55 60.5 94.5t98.5 39.5q91 0 91 -121z" />
<glyph horiz-adv-x="343" d="M173 348q-55 0 -89 -25l-12 14q135 125 207 201q-58 14 -90 14q-24 0 -37 -8t-26 -32l-8 3q14 98 40 139t76 41q20 0 45 -14.5t37 -26t36 -35.5q32 37 61 76q27 -1 43.5 -13t16.5 -31q0 -34 -59 -73q-100 -69 -191 -127q25 7 44 7q26 0 65.5 -4t51.5 -4q30 0 57 50l8 -3 q-8 -33 -11.5 -45.5t-11 -38.5t-14.5 -37.5t-17 -26.5t-22.5 -20.5t-28.5 -5.5q-22 0 -79 12.5t-92 12.5z" />
<glyph horiz-adv-x="465" d="M25 -63l74 317l9 39l-54 25v9q85 19 221 28l6 -8l-21 -93q-28 -106 -60 -195h2q71 164 166 164q44 0 67.5 -31.5t23.5 -77.5q0 -104 -72 -183.5t-192 -79.5q-107 0 -190 36zM291 144q-16 0 -45 -44t-47 -105l-25 -111q11 -8 26 -8q39 0 71 87.5t32 149.5q0 31 -12 31z " />
<glyph horiz-adv-x="405" d="M385 -20q-23 -55 -78.5 -92t-124.5 -37q-64 0 -109.5 37t-45.5 105q0 95 74 162.5t175 67.5q61 0 96.5 -26t35.5 -67q0 -31 -26 -51.5t-64 -20.5q-27 0 -59 10q23 73 23 101q0 25 -17 25q-23 0 -46 -53.5t-23 -102.5q0 -98 77 -98q51 0 106 45z" />
<glyph horiz-adv-x="495" d="M270 -13l8 31q-74 -167 -165 -167q-44 0 -68 31t-24 76q0 105 77.5 185t207.5 80q15 0 22 -1l8 32l8 39l-54 25v9q85 19 222 28l6 -8l-21 -93l-66 -267q-10 -38 -10 -47q0 -10 7 -10q11 0 57 58l7 -3q-21 -57 -60.5 -95.5t-92.5 -38.5q-77 0 -77 81q0 23 8 55zM177 -40 q0 -30 14 -30q20 0 59 78.5t64 156.5l6 24q-14 9 -27 9q-38 0 -77 -89.5t-39 -148.5z" />
<glyph horiz-adv-x="291" d="M194 -89q-22 -94 -84.5 -143.5t-143.5 -49.5q-45 0 -73 16.5t-28 41.5q0 41 67 50q9 -55 32 -55q20 0 34.5 29t29.5 93l64 283h-50l1 7l56 21v1q12 54 77 102t143 48q94 0 94 -59q0 -20 -18 -33.5t-41 -18.5q-41 57 -67 57q-18 0 -24 -19t-3 -41.5t-1 -39.5h80l-6 -25 h-80z" />
<glyph horiz-adv-x="416" d="M385 -178q0 -49 -65 -76.5t-168 -27.5q-86 0 -148 22t-62 57q0 23 30.5 40.5t79.5 20.5l6 -4q2 -50 28 -81t75 -31q21 0 36 9t15 23t-34 29t-68 34.5t-34 44.5q0 47 121 78h-3q-78 0 -126.5 31t-48.5 80q0 63 62.5 107.5t157.5 44.5h51h50.5t39.5 0.5t42 3t33 5.5 q7 -14 7 -35q0 -48 -36 -48q-26 0 -88 25l-1 -2q61 -37 61 -85q0 -35 -27 -62t-60 -40t-60 -25.5t-27 -20.5q0 -10 25 -20.5t55.5 -19t55.5 -29t25 -48.5zM175 46q0 -27 4.5 -42t18.5 -14q19 0 31.5 53t12.5 107q0 51 -22 51q-19 0 -32 -49.5t-13 -105.5z" />
<glyph horiz-adv-x="279" d="M193 256q-34 0 -54.5 14.5t-20.5 39.5q0 34 32 57t73 23q35 0 55 -14t20 -39q0 -36 -31.5 -58.5t-73.5 -22.5zM26 86l-7 3q22 57 61.5 95.5t92.5 38.5q76 0 76 -81q0 -29 -22 -112t-22 -90q0 -10 7 -10q11 0 57 58l7 -3q-21 -57 -60.5 -95.5t-92.5 -38.5 q-38 0 -57.5 21.5t-19.5 59.5q0 26 22.5 103t22.5 99q0 10 -8 10q-9 0 -57 -58z" />
<glyph horiz-adv-x="486" d="M372 -277q-8 0 -75.5 -2.5t-71.5 -2.5q-16 0 -13 13l28 121q26 112 39 163h-3q-72 -164 -162 -164q-44 0 -68.5 31t-24.5 76q0 105 77.5 185t207.5 80q106 0 181 -32l-20 -49l-66 -290zM177 -40q0 -30 14 -30q20 0 59 78t64 156l6 25q-13 9 -27 9q-38 0 -77 -89.5 t-39 -148.5z" />
<glyph horiz-adv-x="406" d="M222 59h2q72 164 147 164q44 0 44 -55q0 -58 -48 -115q-38 20 -76 20q-31 0 -47 -22t-25 -64l-29 -129q-75 -5 -147 -5q-8 0 -11.5 3.5t-1.5 8.5l28 122l17 72l5 24q10 44 10 51q0 10 -6 10q-11 0 -57 -58l-8 3q18 57 56 95.5t91 38.5q34 0 54 -17.5t20 -50.5 q0 -38 -18 -96z" />
<glyph horiz-adv-x="509" d="M300 15q-73 -164 -177 -164q-35 0 -57 19.5t-22 52.5q0 35 36 164q10 33 10 47q0 10 -7 10q-9 0 -57 -58l-7 3q21 57 60.5 95.5t92.5 38.5q77 0 77 -81q0 -23 -8 -55q-5 -23 -19 -72.5t-14 -63.5q0 -12 10 -12q17 0 44 44.5t44 103.5l29 129q70 5 147 5q15 0 12 -12 l-50 -218q-10 -44 -10 -51q0 -10 7 -10q9 0 57 58l8 -3q-19 -58 -57 -96t-90 -38q-35 0 -55 17.5t-20 50.5q0 39 19 96h-3z" />
<glyph horiz-adv-x="451" d="M79 -143q0 12 1.5 57t1.5 65q0 74 -2 110t-6 45.5t-11 9.5q-18 0 -60 -58l-8 3q19 55 61.5 94.5t101.5 39.5q88 0 88 -116q0 -82 -33 -209q87 108 87 243q0 36 -8 68q28 14 70 14q46 0 72.5 -22t26.5 -65q0 -71 -73 -144.5t-205 -140.5z" />
<glyph horiz-adv-x="670" d="M362 223q103 0 103 -109q0 -91 -33 -217q87 110 87 244q0 36 -8 68q28 14 70 14q46 0 72.5 -22t26.5 -65q0 -71 -73 -144.5t-205 -140.5l-103 6q0 22 0.5 61.5t1.5 58.5q-41 -64 -118 -126l-104 6q0 12 1.5 57t1.5 65q0 74 -2 110t-6 45.5t-11 9.5q-15 0 -60 -58l-8 3 q19 55 61.5 94.5t101.5 39.5q88 0 88 -116q0 -79 -30 -197q87 111 87 231q0 36 -8 68q28 14 67 14z" />
<glyph horiz-adv-x="466" d="M258 102q0 -113 -60 -229q114 108 114 268q0 36 -8 68q28 14 72 14q46 0 71.5 -25t25.5 -69q0 -85 -76.5 -162t-212.5 -118q-78 -130 -192 -130q-38 0 -62.5 16.5t-24.5 40.5q0 19 19 33.5t48 16.5q1 -2 2.5 -9.5t2.5 -12t3 -11.5t4 -11.5t5 -9t7 -6.5t8 -2 q29 0 56.5 119t27.5 212q0 49 -13 49q-16 0 -59 -58l-8 3q19 55 60.5 94.5t98.5 39.5q91 0 91 -121z" />
<glyph horiz-adv-x="343" d="M88 80q-24 0 -37 -8t-26 -32l-8 3q14 98 40 139t76 41q20 0 45 -14.5t37 -26t36 -35.5q32 37 61 76q27 -1 43.5 -13t16.5 -31q0 -34 -59 -73q-100 -69 -191 -127q24 7 44 7q26 0 65.5 -4t51.5 -4q30 0 57 50l8 -3q-8 -33 -11.5 -45.5t-11 -38.5t-14.5 -37.5t-17 -26.5 t-22.5 -20.5t-28.5 -5.5q-22 0 -79 12.5t-92 12.5q-55 0 -89 -25l-12 14q135 125 207 201q-58 14 -90 14z" />
<glyph horiz-adv-x="655" d="M707 410q0 -178 -107 -299t-260 -121q-119 0 -187 68t-68 177q0 181 110 303t263 122q118 0 183.5 -67t65.5 -183zM305 106q0 -74 36 -74q33 0 68.5 97.5t56.5 219t21 202.5q0 67 -29 67q-36 0 -73 -90t-58.5 -209.5t-21.5 -212.5z" />
<glyph horiz-adv-x="390" d="M364 0h-319v16l34 11q27 8 34 45l105 488l-72 5l1 14l297 81l7 -8l-127 -580l-7 -31l52 -25z" />
<glyph horiz-adv-x="506" d="M165 9q-56 0 -115 -19l-18 104q287 161 287 324q0 39 -20.5 60.5t-57.5 21.5q-76 0 -132 -79l-10 7q37 108 107.5 170t172.5 62q81 0 133.5 -49.5t52.5 -127.5q0 -48 -27 -93t-76.5 -83t-101 -67t-118.5 -59q-34 -14 -52 -20q33 4 72 4q34 0 95 -5t85 -5q21 0 36 13.5 t31 47.5l10 -3q-17 -92 -38 -150q-27 -73 -72 -73q-32 0 -113.5 9.5t-130.5 9.5z" />
<glyph horiz-adv-x="476" d="M491 195q0 -95 -128 -150t-359 -55l-2 20q125 24 189.5 73.5t64.5 117.5q0 36 -22.5 56.5t-62.5 20.5q-19 0 -36 -3l-6 38q84 19 130 56t46 82q0 27 -17 43t-47 16q-71 0 -125 -74l-10 7q32 97 107.5 157t167.5 60q75 0 117 -36t42 -94q0 -83 -75.5 -136t-200.5 -71 q98 2 162.5 -33.5t64.5 -94.5z" />
<glyph horiz-adv-x="571" d="M55 220l428 440l123 -20l-82 -388l77 3l-24 -114l-77 1l-30 -142h-210l31 145l-241 4zM363 483l-225 -243l174 6z" />
<glyph horiz-adv-x="488" d="M507 221q0 -105 -121.5 -168t-349.5 -63l-2 20q238 45 238 165q0 35 -29 54.5t-76 19.5q-29 0 -49 -4l-14 13l88 396q174 -8 300 -8q26 0 42.5 12.5t34.5 49.5l10 -3q-10 -49 -14.5 -70t-13.5 -54t-16.5 -46.5t-20 -29.5t-28 -21.5t-36.5 -5.5q-81 0 -244 22l-28 -131 q41 7 110 7q99 0 159 -42.5t60 -112.5z" />
<glyph horiz-adv-x="605" d="M80 227q0 184 161.5 306t412.5 127l1 -24q-114 -41 -201.5 -122.5t-129.5 -194.5q55 95 171 95q65 0 105 -39t40 -108q0 -117 -92.5 -197t-217.5 -80q-117 0 -183.5 63t-66.5 174zM420 252q3 93 -26 93q-36 0 -65 -78.5t-29 -178.5q0 -58 27 -58q33 0 61.5 67.5 t31.5 154.5z" />
<glyph horiz-adv-x="452" d="M327 47q-34 -57 -99 -57q-44 0 -81.5 28t-58.5 70q32 38 110.5 127.5t125 145t88.5 111.5q-133 14 -211 14q-36 0 -53.5 -12t-36.5 -50l-10 3q17 113 52 173t100 60q64 0 113 -45.5t74 -104.5q57 81 99 150q13 0 21.5 -8.5t8.5 -21.5q0 -26 -101 -269.5t-141 -313.5z" />
<glyph horiz-adv-x="582" d="M594 190q0 -93 -82.5 -146.5t-206.5 -53.5q-110 0 -179.5 40t-69.5 107q0 62 55.5 101t143.5 48q-103 97 -103 187q0 89 76 138t185 49q101 0 164 -40.5t63 -101.5q0 -59 -48 -95.5t-120 -48.5q39 -34 60.5 -55.5t41.5 -57t20 -71.5zM345 553q0 -42 26 -78.5t75 -78.5 q24 74 24 134q0 42 -16.5 66t-47.5 24q-27 0 -44 -19t-17 -48zM257 122q0 -44 19 -68t50 -24q28 0 48 21.5t20 57.5q0 25 -17.5 53t-34 44.5t-53.5 49.5q-32 -71 -32 -134z" />
<glyph horiz-adv-x="605" d="M663 423q0 -184 -161.5 -306t-412.5 -127l-1 24q114 41 201.5 122.5t129.5 194.5q-55 -95 -171 -95q-65 0 -105 39t-40 108q0 117 92.5 197t217.5 80q117 0 183.5 -63t66.5 -174zM323 398q-3 -93 26 -93q36 0 65 78.5t29 178.5q0 58 -27 58q-33 0 -61.5 -67.5 t-31.5 -154.5z" />
<glyph horiz-adv-x="608" d="M640 300q0 -138 -93 -224.5t-231 -86.5q-113 0 -177.5 58.5t-64.5 151.5q0 138 91.5 224.5t227.5 86.5q119 0 183 -60t64 -150zM283 125q0 -95 39 -95q43 0 76.5 126t33.5 219q0 50 -8.5 72.5t-29.5 22.5q-44 0 -77.5 -126t-33.5 -219z" />
<glyph horiz-adv-x="391" d="M365 0h-319v16l34 11q27 8 34 45l72 338l-72 5l1 14l297 81l7 -8l-94 -430l-7 -31l52 -25z" />
<glyph horiz-adv-x="489" d="M170 10q-46 0 -108 -20l-18 104q230 93 230 197q0 28 -17.5 43.5t-46.5 15.5q-62 0 -113 -64l-10 7q33 99 108 158t170 59q71 0 115 -36.5t44 -94.5q0 -146 -291 -230q-24 -6 -37 -10q25 4 73 4q31 0 82 -3t68 -3q31 0 45.5 11.5t31.5 47.5l10 -3q-14 -76 -34 -130 q-27 -73 -69 -73q-28 0 -105.5 10t-127.5 10z" />
<glyph horiz-adv-x="476" d="M467 45q0 -95 -128 -150t-359 -55l-2 20q125 24 189.5 73.5t64.5 117.5q0 36 -22.5 56.5t-62.5 20.5q-19 0 -36 -3l-6 38q84 19 130 56t46 82q0 27 -17 43t-47 16q-71 0 -125 -74l-10 7q32 97 107.5 157t167.5 60q75 0 117 -36t42 -94q0 -83 -75.5 -136t-200.5 -71 q98 2 162.5 -33.5t64.5 -94.5z" />
<glyph horiz-adv-x="539" d="M7 70l428 440l123 -20l-82 -388l77 3l-24 -114l-77 1l-30 -142h-210l31 145l-241 4zM315 333l-225 -243l174 6z" />
<glyph horiz-adv-x="472" d="M483 71q0 -105 -121.5 -168t-349.5 -63l-2 20q238 45 238 165q0 35 -29 54.5t-76 19.5q-29 0 -49 -4l-14 13l88 396q174 -8 300 -8q26 0 42.5 12.5t34.5 49.5l10 -3q-10 -49 -14.5 -70t-13.5 -54t-16.5 -46.5t-20 -29.5t-28 -21.5t-36.5 -5.5q-81 0 -244 22l-28 -131 q41 7 110 7q99 0 159 -42.5t60 -112.5z" />
<glyph horiz-adv-x="613" d="M101 227q0 184 161.5 306t412.5 127l1 -24q-114 -41 -201.5 -122.5t-129.5 -194.5q55 95 171 95q65 0 105 -39t40 -108q0 -117 -92.5 -197t-217.5 -80q-117 0 -183.5 63t-66.5 174zM441 252q3 93 -26 93q-36 0 -65 -78.5t-29 -178.5q0 -58 27 -58q33 0 61.5 67.5 t31.5 154.5z" />
<glyph horiz-adv-x="451" d="M295 -103q-34 -57 -99 -57q-44 0 -81.5 28t-58.5 70q32 38 110.5 127.5t125 145t88.5 111.5q-133 14 -211 14q-36 0 -53.5 -12t-36.5 -50l-10 3q17 113 52 173t100 60q64 0 113 -45.5t74 -104.5q57 81 99 150q13 0 21.5 -8.5t8.5 -21.5q0 -26 -101 -269.5t-141 -313.5z " />
<glyph horiz-adv-x="582" d="M594 190q0 -93 -82.5 -146.5t-206.5 -53.5q-110 0 -179.5 40t-69.5 107q0 62 55.5 101t143.5 48q-103 97 -103 187q0 89 76 138t185 49q101 0 164 -40.5t63 -101.5q0 -59 -48 -95.5t-120 -48.5q39 -34 60.5 -55.5t41.5 -57t20 -71.5zM345 553q0 -42 26 -78.5t75 -78.5 q24 74 24 134q0 42 -16.5 66t-47.5 24q-27 0 -44 -19t-17 -48zM257 122q0 -44 19 -68t50 -24q28 0 48 21.5t20 57.5q0 25 -17.5 53t-34 44.5t-53.5 49.5q-32 -71 -32 -134z" />
<glyph horiz-adv-x="613" d="M639 273q0 -184 -161.5 -306t-412.5 -127l-1 24q114 41 201.5 122.5t129.5 194.5q-55 -95 -171 -95q-65 0 -105 39t-40 108q0 117 92.5 197t217.5 80q117 0 183.5 -63t66.5 -174zM299 248q-3 -93 26 -93q36 0 65 78.5t29 178.5q0 58 -27 58q-33 0 -61.5 -67.5 t-31.5 -154.5z" />
</font>
</defs>
</svg>
