<?xml version="1.0" standalone="no"?>
<!DOCTYPE svg PUBLIC "-//W3C//DTD SVG 1.1//EN" "http://www.w3.org/Graphics/SVG/1.1/DTD/svg11.dtd" >
<svg xmlns="http://www.w3.org/2000/svg" xmlns:xlink="http://www.w3.org/1999/xlink" version="1.1">
<metadata></metadata>
<defs>
<font id="indivisa_display_sansheavy" horiz-adv-x="620" >
<font-face units-per-em="1000" ascent="815" descent="-185" />
<missing-glyph horiz-adv-x="210" />
<glyph unicode="&#x2f;symbol&#x33;&#x2f;" horiz-adv-x="957" d="M505 638l68 -270h270l-203 -135l136 -270l-271 135l-270 -270l135 405l-270 203l338 -68zM814 87q18 0 30.5 -12.5t12.5 -31.5q0 -18 -12.5 -30.5t-30.5 -12.5t-30.5 12.5t-12.5 30.5q0 19 12.5 31.5t30.5 12.5zM854 43q0 17 -11.5 29t-28.5 12t-28.5 -12t-11.5 -29 t12 -28.5t28 -11.5t28 11.5t12 28.5zM796 68h18q8 0 11 -2q6 -3 6 -10q0 -5 -4 -9q-3 -3 -6 -3q7 -3 8 -10q2 -14 3 -16h-7q-1 2 -2 7.5t-1 6.5q0 9 -10 9h-9v-23h-7v50zM803 47h10q5 0 7 1q3 3 3 6q0 9 -10 9h-10v-16z" />
<glyph unicode="&#x2f;symbol&#x32;&#x2f;" horiz-adv-x="932" d="M494 570l52 -90l-137 -240h-103l137 240l-52 90h103zM357 570l52 -90l-138 -240h-103l138 240l-52 90h103zM752 120h-103l-137 240l51 90l137 -240h103zM683 0h-103l-137 240l51 90l138 -240h103zM100 120l51 90h275l51 -90h-274l-52 -90zM168 0l52 90h274l52 -90h-275 l-51 -90zM789 88q18 0 30.5 -13t12.5 -31t-12.5 -31t-30.5 -13t-30.5 13t-12.5 31t12.5 31t30.5 13zM829 44q0 16 -11.5 28t-28.5 12t-28.5 -12t-11.5 -28t11.5 -28t28.5 -12t28.5 12t11.5 28zM771 69h18q7 0 11 -2q5 -4 5 -11q0 -5 -3 -8q-1 -2 -6 -4q7 -1 8 -9q0 -8 3 -16 h-8q-1 2 -1.5 6.5t-0.5 6.5q-1 10 -11 10h-8v-23h-7v50zM778 47h10q5 0 7 1q3 3 3 7q0 8 -10 8h-10v-16z" />
<glyph unicode="&#x2f;symbol&#x31;&#x2f;" horiz-adv-x="5534" d="M1865 412q-25 0 -40.5 14.5t-15.5 37.5q0 35 32.5 64t70.5 29q24 0 39 -13.5t15 -37.5q0 -36 -31 -65t-70 -29zM1284 412q-26 0 -41.5 14.5t-15.5 37.5q0 35 33 64t71 29q24 0 38.5 -13.5t14.5 -37.5q0 -36 -31 -65t-69 -29zM959 0q0 42 11 108q-16 -50 -51.5 -82.5 t-78.5 -32.5q-41 0 -63 29.5t-22 82.5q0 62 27 121t84 101t132 42q17 0 25 -1l16 73l6 102l136 7q0 -67 -46 -273t-46 -277h-130zM100 0l78 364q17 86 21 136l128 7l11 -15l-104 -492h-134zM3503 492l-57 -492h-131l20 175q5 50 33 215h-3q-31 -102 -81 -215l-76 -175h-149 l-2 175q-2 121 9 215h-2q-32 -130 -59 -215l-53 -175h-109l154 500l184 6l1 -137q2 -134 -15 -259h2q39 126 94 259l56 131l169 7zM5316 300q-37 -177 -37 -183q0 -34 36 -34q25 0 59 18l-9 -79q-52 -29 -114 -29q-105 0 -105 100q0 20 40 210l-47 1l9 44l54 14l53 95l81 6 l13 -15l-20 -86h99l6 -14l-17 -51zM336 0q0 79 41 260l6 102l137 7q0 -31 -7 -89h2q52 89 134 89q34 0 53 -19.5t19 -51.5q0 -27 -26 -147q-18 -85 -18 -151h-131q0 55 19 150q15 78 15 87q0 24 -17 24q-34 0 -64 -82.5t-32 -178.5h-131zM1170 0q0 72 27 193l14 67l6 102 l137 7q0 -46 -27 -177t-27 -192h-130zM1399 362l140 7q13 -129 -5 -289h2q76 151 91 284q22 5 50 5q32 0 48.5 -8.5t16.5 -33.5q0 -46 -51 -147.5t-116 -179.5h-149q-5 228 -27 362zM1752 0q0 69 26 193l15 67l6 102l137 7q0 -46 -27 -177t-27 -192h-130zM4716 0 q0 79 41 260l6 102l137 7q0 -12 -7 -89h2q52 89 134 89q34 0 53 -19.5t19 -51.5q0 -27 -26 -147q-19 -90 -19 -151h-130q0 55 19 150q15 78 15 87q0 24 -17 24q-35 0 -65 -82t-32 -179h-130zM2245 256q-52 30 -97 30q-18 0 -30 -7t-12 -19q0 -14 20 -26.5t44 -22t44 -33 t20 -56.5q0 -57 -53 -93t-128 -36q-78 0 -118 28l27 93q57 -38 111 -38q19 0 29.5 7.5t10.5 18.5q0 13 -20 26t-44 23t-44 33t-20 55q0 56 54.5 93t128.5 37q58 0 104 -18zM2525 369q88 0 146 -32l-29 -128q-31 -145 -31 -209h-130q0 37 12 112q-15 -52 -51 -85.5t-81 -33.5 q-41 0 -62.5 29.5t-21.5 83.5q0 62 26.5 120.5t85 100.5t136.5 42zM4653 51q-67 -58 -159 -58q-65 0 -103.5 35t-38.5 102q0 94 68.5 166.5t167.5 72.5q54 0 86.5 -23.5t32.5 -64.5q0 -57 -60 -96.5t-161 -43.5v-1q0 -64 63 -64q42 0 90 28zM3936 0q0 74 42 260l5 102l137 7 q0 -31 -7 -89h2q53 89 134 89q34 0 53 -19.5t19 -51.5q0 -27 -26 -147q-18 -85 -18 -151h-131q0 55 19 150q15 71 15 87q0 24 -17 24q-34 0 -64 -82.5t-32 -178.5h-131zM3768 369q87 0 145 -32l-28 -128q-31 -145 -31 -209h-130q0 45 12 112q-15 -52 -51 -85.5t-81 -33.5 q-41 0 -63 29.5t-22 83.5q0 46 16 91.5t46 84t79 63t108 24.5zM4490 177q47 10 73 34t26 59q0 31 -22 31q-28 0 -48.5 -38.5t-28.5 -85.5zM3677 101q23 0 47 43t38 101q1 8 4.5 24.5t4.5 19.5q-16 8 -27 8q-34 0 -62.5 -54.5t-28.5 -101.5q0 -40 24 -40zM913 101 q22 0 44.5 39.5t37.5 94.5q1 9 8 40l3 14q-14 8 -27 8q-33 0 -61.5 -54.5t-28.5 -101.5q0 -40 24 -40zM2435 101q23 0 47 43.5t37 100.5q3 14 9 44q-14 8 -27 8q-34 0 -62 -54.5t-28 -101.5q0 -40 24 -40z" />
<glyph unicode="&#x2f;symbol&#x35;&#x2f;" horiz-adv-x="705" d="M232 -6l-132 136l124 234l129 -136zM474 -6l-121 234l128 136l124 -234z" />
<glyph unicode="&#x2f;symbol&#x34;&#x2f;" horiz-adv-x="2607" d="M1684 406q0 65 -11 128l126 14l15 -15v-533h-130v406zM1889 406q0 62 -10 128l126 14l14 -15v-533h-130v406zM427 101v-101h-320v362q0 80 -7 135l126 7l14 -14v-396zM925 21l7 109q62 -36 144 -36q50 0 50 36q0 20 -31.5 41.5t-69 40.5t-69 57t-31.5 88q0 69 55 108 t138 39q80 0 127 -18l-14 -111q-56 29 -111 29q-27 0 -42.5 -11t-15.5 -29q0 -20 20.5 -38t50 -34t59.5 -35t50.5 -51t20.5 -72q0 -66 -53.5 -103.5t-139.5 -37.5q-41 0 -83.5 8t-61.5 20zM795 0l-106 -7q-11 16 -21 49h-4q-34 -49 -104 -49q-43 0 -70 23t-27 66 q0 113 191 118v20q0 54 -58 54q-55 0 -108 -29l-8 97q72 26 150 26q154 0 154 -135q0 -25 -2 -69t-2 -70q0 -51 15 -94zM1626 0l-107 -7q-12 20 -21 49h-3q-34 -49 -105 -49q-43 0 -69.5 23t-26.5 66q0 113 191 118v20q0 54 -58 54q-54 0 -109 -29l-7 97q72 26 150 26 q153 0 153 -135q0 -25 -1.5 -69.5t-1.5 -69.5q0 -51 15 -94zM2405 213q0 -24 -1 -36l-11 -11h-191q14 -83 98 -83q44 0 84 21l7 -81q-46 -30 -127 -30q-90 0 -144 47.5t-54 134.5q0 85 52 139t132 54q72 0 113.5 -43t41.5 -112zM2199 207l78 4q2 14 2 26q0 59 -34 59 q-44 0 -46 -89zM654 74v88q-29 -3 -47 -18t-18 -39q0 -18 10 -29t27 -11q16 0 28 9zM1485 74v88q-29 -3 -47 -18t-18 -39q0 -18 10 -29t27 -11q16 0 28 9zM2464 85q18 0 30.5 -13t12.5 -31t-12.5 -31t-30.5 -13t-31 13t-13 31t13 31t31 13zM2504 41q0 17 -12 28.5t-28 11.5 t-28 -11.5t-12 -28.5t12 -28.5t28 -11.5t28 11.5t12 28.5zM2446 66h18q7 0 11 -3q5 -3 5 -10q0 -5 -3 -9q-3 -3 -6 -3q7 -1 8 -10q0 -7 3 -15h-8q-1 2 -1.5 6.5t-0.5 6.5q-1 9 -11 9h-8v-22h-7v50zM2453 44h10q5 0 7 1q3 3 3 7q0 8 -10 8h-10v-16z" />
<glyph unicode=" "  horiz-adv-x="210" />
<glyph unicode="&#x09;" horiz-adv-x="210" />
<glyph unicode="&#xa0;" horiz-adv-x="210" />
<glyph unicode="!" horiz-adv-x="316" d="M230 204h-140q-15 277 -43 481l215 10q4 -45 4 -110q0 -206 -36 -381zM261 86q0 -41 -33 -65t-79 -24q-42 0 -68 19.5t-26 55.5q0 40 31.5 66t80.5 26q42 0 68 -20t26 -58z" />
<glyph unicode="&#x22;" horiz-adv-x="438" d="M188 695l-42 -317h-59l-42 317h143zM393 695l-42 -317h-59l-42 317h143z" />
<glyph unicode="#" horiz-adv-x="686" d="M580 164h-113l-43 -174l-91 16l-6 6l38 152h-112l-43 -174l-91 16l-6 6l38 152h-105l-6 6l13 84h120l35 142h-109l-6 6l13 84h124l43 174l91 -16l6 -6l-38 -152h112l43 174l91 -16l6 -6l-38 -152h94l6 -6l-13 -84h-109l-35 -142h98l6 -6zM275 254h112l35 142h-112z" />
<glyph unicode="$" horiz-adv-x="511" d="M216 -123v114q-115 4 -186 34l28 178q89 -58 162 -58q48 0 48 33q0 17 -17.5 33.5t-43 29.5t-56 32.5t-56 42t-43 59t-17.5 81.5q0 84 56 137t145 64v113l70 3v-114q105 -6 166 -34l-36 -165q-78 45 -139 45q-49 0 -49 -36q0 -19 17.5 -36.5t43 -31t56 -33t56 -41 t43 -58.5t17.5 -82q0 -81 -52.5 -132t-142.5 -62v-113z" />
<glyph unicode="%" horiz-adv-x="953" d="M337 -10h-115l400 670h116zM403 473q0 -92 -54 -139t-137 -47q-82 0 -132 45t-50 133q0 90 53.5 140t138.5 50q84 0 132.5 -48.5t48.5 -133.5zM173 474q0 -58 9.5 -86.5t35.5 -28.5t34 26.5t8 73.5q0 67 -9.5 95.5t-34.5 28.5t-34 -26t-9 -83zM923 181q0 -92 -54 -139 t-137 -47q-82 0 -132 45t-50 133q0 90 53.5 140t138.5 50q84 0 132.5 -48.5t48.5 -133.5zM693 182q0 -58 9.5 -86.5t35.5 -28.5t34 26.5t8 73.5q0 67 -9.5 95.5t-34.5 28.5t-34 -26t-9 -83z" />
<glyph unicode="&#x26;" horiz-adv-x="844" d="M423 550q-19 0 -33 -13t-14 -37q0 -41 61 -118l83 -105q20 -25 41 -46q6 30 6 62q0 45 -8 85l195 19q-7 -140 -86 -243q31 -13 58 -13q34 0 58 9l10 -134q-46 -26 -118 -26q-79 0 -152 48q-98 -48 -213 -48q-113 0 -182 44.5t-69 113.5q0 64 57.5 107.5t138.5 61.5 q-32 36 -48.5 57t-34 56.5t-17.5 66.5q0 67 62 115t173 48q128 0 215 -59l-82 -139q-54 88 -101 88zM290 214q0 -59 37.5 -96.5t91.5 -37.5q22 0 44 8q-26 24 -78 82l-87 99q-8 -29 -8 -55z" />
<glyph unicode="'" horiz-adv-x="233" d="M188 695l-42 -317h-59l-42 317h143z" />
<glyph unicode="(" horiz-adv-x="414" d="M331 -123q-127 55 -204 167.5t-77 241.5t77 241.5t204 167.5l53 -76q-58 -65 -86.5 -153.5t-28.5 -179.5t28.5 -180t86.5 -153z" />
<glyph unicode=")" horiz-adv-x="414" d="M364 286q0 -129 -77 -241.5t-204 -167.5l-53 76q58 64 86.5 153t28.5 180t-28.5 179.5t-86.5 153.5l53 76q127 -55 204 -167.5t77 -241.5z" />
<glyph unicode="*" horiz-adv-x="442" d="M185 411l18 111l-87 -71l-36 62l106 40l-106 40l36 62l87 -71l-18 111h72l-18 -111l87 71l36 -62l-105 -40l105 -40l-36 -62l-87 71l18 -111h-72z" />
<glyph unicode="+" horiz-adv-x="591" d="M510 256h-139v-144h-147l-1 144h-143v132q137 4 142 4l-1 147h150v-146q54 1 140 1z" />
<glyph unicode="," horiz-adv-x="301" d="M236 72q0 -70 -53 -137.5t-117 -93.5l-26 31q60 54 80 120q-29 6 -46.5 26t-17.5 51q0 44 26 69.5t65 25.5q40 0 64.5 -26t24.5 -66z" />
<glyph unicode="-" horiz-adv-x="388" d="M30 241v60h328v-60h-328z" />
<glyph unicode="." horiz-adv-x="310" d="M153 -10q-39 0 -63.5 23t-24.5 59q0 39 28.5 65.5t68.5 26.5q36 0 59.5 -21.5t23.5 -56.5q0 -40 -26.5 -68t-65.5 -28z" />
<glyph unicode="/" horiz-adv-x="369" d="M214 703l115 -28l-174 -697l-115 28z" />
<glyph unicode="0" horiz-adv-x="631" d="M601 329q0 -167 -83.5 -253t-209.5 -86q-124 0 -201 83t-77 242q0 164 82 254.5t212 90.5q128 0 202.5 -88t74.5 -243zM245 330q0 -114 16 -172t57 -58t54.5 53t13.5 155q0 125 -15.5 183.5t-56.5 58.5q-39 0 -54 -52.5t-15 -167.5z" />
<glyph unicode="1" horiz-adv-x="440" d="M350 0h-210v525l-95 -45l-25 93l318 87l12 -10v-650z" />
<glyph unicode="2" horiz-adv-x="578" d="M494 0h-439l-15 118q45 34 95.5 85t96.5 123t46 126q0 32 -21 52.5t-58 20.5q-77 0 -141 -62l-17 142q104 55 228 55q111 0 177.5 -50t66.5 -134q0 -89 -92 -173.5t-229 -138.5h113q103 0 198 15z" />
<glyph unicode="3" horiz-adv-x="529" d="M499 176q0 -84 -75 -135t-203 -51q-97 0 -171 23l16 114q49 -27 106 -27q42 0 67 24.5t25 66.5q0 41 -27 61t-72 20q-32 0 -62 -6v67q65 23 108 58t43 73q0 29 -20 45t-54 16q-59 0 -117 -35l-7 121q92 49 208 49q103 0 164 -41.5t61 -105.5q0 -60 -55 -103.5t-153 -67.5 q101 -8 159.5 -50.5t58.5 -115.5z" />
<glyph unicode="4" horiz-adv-x="633" d="M494 0h-210v97h-255l-9 86l324 477l150 -10v-394q51 5 84 10l-9 -169h-75v-97zM284 479l-162 -228h162v228z" />
<glyph unicode="5" horiz-adv-x="577" d="M532 199q0 -100 -82.5 -154.5t-219.5 -54.5q-98 0 -175 23l16 110q58 -23 126 -23q45 0 72.5 24.5t27.5 71.5q0 45 -26 68.5t-68 23.5q-27 0 -104 -18l-14 9v371h238q99 0 180 10l-9 -174h-308v-129q67 21 134 21q98 0 155 -48t57 -131z" />
<glyph unicode="6" horiz-adv-x="593" d="M301 -10q-120 0 -195.5 74.5t-75.5 217.5q0 171 106 274.5t274 103.5q61 0 86 -10l-15 -111q-35 11 -68 11q-58 0 -104 -51.5t-59 -153.5q44 60 133 60q74 0 127 -52t53 -138q0 -103 -76 -164t-186 -61zM296 100q30 0 46 28.5t16 76.5t-16.5 79.5t-48.5 31.5 q-27 0 -48 -16q0 -119 10 -159.5t41 -40.5z" />
<glyph unicode="7" horiz-adv-x="544" d="M319 0h-235q9 139 86 270.5t211 215.5h-146q-103 0 -198 -15l9 179h450l12 -10l6 -100q-189 -229 -195 -540z" />
<glyph unicode="8" horiz-adv-x="614" d="M30 152q0 52 45.5 91.5t121.5 52.5q-65 30 -103.5 77t-38.5 106q0 81 71.5 131t186.5 50q110 0 178 -45.5t68 -116.5q0 -51 -36 -85.5t-105 -48.5q83 -29 124.5 -78.5t41.5 -104.5q0 -78 -75.5 -134.5t-211.5 -56.5q-121 0 -194 46t-73 116zM255 497q0 -54 73 -94 q31 37 31 81q0 31 -14.5 48.5t-38.5 17.5q-21 0 -36 -14.5t-15 -38.5zM235 170q0 -30 18.5 -50t49.5 -20q32 0 54 20.5t22 50.5q0 28 -23 47.5t-72 35.5q-49 -35 -49 -84z" />
<glyph unicode="9" horiz-adv-x="603" d="M573 368q0 -171 -106 -274.5t-274 -103.5q-61 0 -86 10l15 111q35 -11 68 -11q58 0 103.5 46t59.5 138q-46 -59 -130 -59q-76 0 -129.5 55.5t-53.5 145.5q0 105 73.5 169.5t188.5 64.5q120 0 195.5 -74.5t75.5 -217.5zM245 436q0 -52 17 -87t49 -35q26 0 47 16 q0 131 -10 175.5t-41 44.5q-30 0 -46 -30t-16 -84z" />
<glyph unicode=":" horiz-adv-x="310" d="M153 300q-39 0 -63.5 23t-24.5 59q0 39 28.5 65.5t68.5 26.5q36 0 59.5 -21.5t23.5 -56.5q0 -40 -26.5 -68t-65.5 -28zM153 -10q-39 0 -63.5 23t-24.5 59q0 39 28.5 65.5t68.5 26.5q36 0 59.5 -21.5t23.5 -56.5q0 -40 -26.5 -68t-65.5 -28z" />
<glyph unicode=";" horiz-adv-x="306" d="M143 300q-39 0 -63.5 23t-24.5 59q0 39 28.5 65.5t68.5 26.5q36 0 59.5 -21.5t23.5 -56.5q0 -40 -26.5 -68t-65.5 -28zM241 72q0 -70 -53 -137.5t-117 -93.5l-26 31q60 54 80 120q-29 6 -46.5 26t-17.5 51q0 44 26 69.5t65 25.5q40 0 64.5 -26t24.5 -66z" />
<glyph unicode="&#x3c;" horiz-adv-x="595" d="M515 85l-435 177v124q82 38 225 96.5t209 80.5v-160l-242 -77l243 -81v-160z" />
<glyph unicode="=" horiz-adv-x="599" d="M510 363h-430v132q145 6 431 6zM510 149h-430v132q145 6 431 6z" />
<glyph unicode="&#x3e;" horiz-adv-x="595" d="M80 85v160l243 81l-242 77v160q66 -22 209 -80.5t225 -96.5v-124z" />
<glyph unicode="?" horiz-adv-x="530" d="M304 204h-140q-15 26 -15 61q0 31 13 59.5t31.5 49t37 38.5t31.5 35t13 32q0 31 -47 31q-66 0 -129 -56l-79 115q110 91 243 91q99 0 163 -50.5t64 -128.5q0 -42 -19 -75.5t-46.5 -54.5t-55 -39.5t-46.5 -39t-19 -44.5v-24zM342 84q0 -41 -33 -65t-79 -24q-42 0 -68 19.5 t-26 55.5q0 40 31.5 66t80.5 26q42 0 68 -20t26 -58z" />
<glyph unicode="@" horiz-adv-x="1108" d="M783 -124q-54 -31 -132.5 -51t-161.5 -20q-188 0 -303.5 103.5t-115.5 270.5q0 136 77 255t208 190t281 71q177 0 289.5 -97.5t112.5 -256.5q0 -137 -79.5 -244t-192.5 -107q-80 0 -123.5 52.5t-37.5 117.5h-2q-22 -65 -80 -117.5t-130 -52.5q-65 0 -104 45.5t-39 122.5 q0 63 27.5 125.5t75.5 113t120 82t154 31.5q51 0 115.5 -11.5t110.5 -32.5l-56 -265q-14 -70 -3.5 -103.5t41.5 -33.5q54 0 103.5 87t49.5 189q0 137 -97.5 223.5t-253.5 86.5q-131 0 -249.5 -60.5t-193 -168.5t-74.5 -235q0 -151 104 -243.5t274 -92.5q121 0 266 62z M497 140q33 0 65 52t47 123l16 77q-21 8 -34 8q-48 0 -87.5 -71.5t-39.5 -134.5q0 -54 33 -54z" />
<glyph unicode="A" horiz-adv-x="677" d="M220 0h-195l154 520l33 131l262 9l178 -660h-206l-28 125h-170zM333 503l-62 -278h125l-61 278h-2z" />
<glyph unicode="B" horiz-adv-x="610" d="M357 0h-297v520l-10 130h296q100 0 157 -49t57 -127q0 -97 -89 -145q114 -39 114 -147q0 -80 -62 -131t-166 -51zM285 540h-15v-165h15q78 0 78 80q0 85 -78 85zM300 265h-30v-155h30q41 0 59.5 23t18.5 59q0 73 -78 73z" />
<glyph unicode="C" horiz-adv-x="561" d="M508 167l25 -145q-85 -32 -180 -32q-154 0 -238.5 86.5t-84.5 238.5q0 158 88 251.5t234 93.5q101 0 184 -36l-27 -154q-59 35 -127 35q-66 0 -94 -45t-28 -131t30.5 -131.5t109.5 -45.5q59 0 108 15z" />
<glyph unicode="D" horiz-adv-x="659" d="M60 520l-10 130h278q142 0 221.5 -87t79.5 -234q0 -158 -89 -243.5t-230 -85.5h-250v520zM300 525h-30v-400h31q56 0 77 52t21 148q0 95 -21 147.5t-78 52.5z" />
<glyph unicode="E" horiz-adv-x="520" d="M485 0h-425v511l-10 139h420l-10 -130l-190 10v-150l170 5l-10 -120l-160 5v-150l215 10v-130z" />
<glyph unicode="F" horiz-adv-x="495" d="M270 0h-210v511l-10 139h420l-10 -130l-190 10v-168l170 5l-10 -120l-160 5v-252z" />
<glyph unicode="G" d="M575 22q-102 -32 -213 -32q-157 0 -244.5 86t-87.5 239q0 159 94 252t246 93q109 0 196 -40l-27 -155q-64 40 -139 40q-140 0 -140 -180q0 -183 135 -197v57l-10 130l190 10v-303z" />
<glyph unicode="H" horiz-adv-x="685" d="M270 0h-210v520l-10 130l220 10v-303h145v163l-10 130l220 11v-661h-210v252h-145v-252z" />
<glyph unicode="I" horiz-adv-x="330" d="M270 0h-210v520l-10 130l220 10v-660z" />
<glyph unicode="J" horiz-adv-x="330" d="M-30 -109q90 27 90 145v484l-10 130l220 10v-504q0 -88 -11 -145t-41 -104t-87 -71.5t-146 -30.5z" />
<glyph unicode="K" horiz-adv-x="649" d="M60 520l-10 130l220 10v-292h51l103 292l195 -10l-135 -331l145 -319l-219 -10l-90 273h-50v-263h-210v520z" />
<glyph unicode="L" horiz-adv-x="500" d="M480 0h-420v520l-10 130l220 10v-540l210 20v-140z" />
<glyph unicode="M" horiz-adv-x="924" d="M240 471h-1l-44 -471h-165l84 650l279 10l68 -505h2l65 495l283 10l83 -660h-215l-40 471h-1l-83 -471h-236z" />
<glyph unicode="N" horiz-adv-x="665" d="M60 520l-10 130l159 10l244 -372h2l-15 362l165 10v-660h-170l-223 342h-2l15 -342h-165v520z" />
<glyph unicode="O" horiz-adv-x="655" d="M625 329q0 -163 -85 -251t-221 -88q-135 0 -212 86t-77 239q0 159 84 252t223 93q136 0 212 -89.5t76 -241.5zM260 328q0 -203 71 -203q37 0 50.5 52t13.5 148t-14 148t-51 52q-70 0 -70 -197z" />
<glyph unicode="P" horiz-adv-x="606" d="M270 0h-210v520l-10 130h265q128 0 199.5 -65t71.5 -176q0 -119 -79.5 -183t-206.5 -64h-30v-162zM293 535h-23v-259h23q45 0 61.5 34t16.5 96t-16.5 95.5t-61.5 33.5z" />
<glyph unicode="Q" horiz-adv-x="655" d="M539 -195q-125 0 -191 45.5t-76 142.5q-114 15 -178 99.5t-64 222.5q0 159 84 252t223 93q136 0 212 -89.5t76 -241.5q0 -141 -65 -226.5t-173 -106.5q8 -40 140 -40q73 0 163 18v-155q-75 -14 -151 -14zM260 328q0 -203 71 -203q37 0 50.5 52t13.5 148t-14 148t-51 52 q-70 0 -70 -197z" />
<glyph unicode="R" horiz-adv-x="616" d="M270 0h-210v520l-10 130h265q128 0 199.5 -59.5t71.5 -161.5q0 -129 -111 -189l126 -240l-223 -10l-73 212h-5h-30v-202zM293 535h-23v-219h23q45 0 61.5 29t16.5 81t-16.5 80.5t-61.5 28.5z" />
<glyph unicode="S" horiz-adv-x="535" d="M505 187q0 -92 -69 -144.5t-184 -52.5q-52 0 -118 9.5t-104 25.5l30 178q94 -58 171 -58q23 0 36.5 9t13.5 24q0 17 -18 33.5t-45.5 29.5t-59 32.5t-59 42t-45.5 59t-18 81.5q0 95 73.5 149.5t185.5 54.5q49 0 107 -9.5t94 -25.5l-38 -165q-81 45 -146 45q-52 0 -52 -36 q0 -19 18 -36.5t45.5 -31t59 -33t59 -41t45.5 -58.5t18 -82z" />
<glyph unicode="T" horiz-adv-x="568" d="M389 0h-210v515l-159 -10l9 145h510l9 -145l-159 10v-515z" />
<glyph unicode="U" horiz-adv-x="655" d="M327 125q63 0 63 90v305l-10 130l220 10v-436q0 -111 -80.5 -172.5t-201.5 -61.5q-120 0 -191.5 61.5t-71.5 172.5v296l-10 130l220 9v-446q0 -88 62 -88z" />
<glyph unicode="V" horiz-adv-x="663" d="M443 660l195 -10l-168 -650h-295l-150 650l206 10l104 -508h2z" />
<glyph unicode="W" horiz-adv-x="1010" d="M148 0l-113 650l206 10l71 -508h2l72 498h264l67 -498h2l73 508l183 -10l-141 -650h-288l-47 468h-2l-61 -468h-288z" />
<glyph unicode="X" horiz-adv-x="642" d="M15 0l184 314l-179 331l230 15l82 -210l111 210l179 -15l-180 -303l185 -342h-230l-92 200l-106 -200h-184z" />
<glyph unicode="Y" horiz-adv-x="617" d="M414 0h-210v202l-189 448l206 10l91 -292h2l93 292l195 -10l-188 -448v-202z" />
<glyph unicode="Z" horiz-adv-x="528" d="M493 0h-443l-25 107l234 399q-150 -6 -224 -8l10 152h423l25 -106l-234 -400q41 3 122.5 8t121.5 8z" />
<glyph unicode="[" horiz-adv-x="444" d="M88 695h300v-115h-104v-583h104v-115h-300v813z" />
<glyph unicode="\" horiz-adv-x="400" d="M221 -10l-173 684l88 21l172 -684z" />
<glyph unicode="]" horiz-adv-x="444" d="M356 695v-813h-300v115h104v583h-104v115h300z" />
<glyph unicode="^" horiz-adv-x="625" d="M240 200h-200l185 340h175l185 -340h-199l-75 154z" />
<glyph unicode="_" horiz-adv-x="470" d="M0 -185v130h470v-130h-470z" />
<glyph unicode="`" horiz-adv-x="260" d="M255 581l-60 -36q-114 69 -190 175l152 67q44 -112 98 -206z" />
<glyph unicode="a" horiz-adv-x="549" d="M314 -10q-14 30 -24 77q-19 -34 -56.5 -55.5t-88.5 -21.5q-59 0 -92 34.5t-33 88.5q0 82 71 122.5t198 40.5v14q1 33 -19.5 49t-61.5 16q-65 0 -145 -41l-11 159q111 37 224 37q110 0 166.5 -48t56.5 -155q0 -17 -2.5 -73t-2.5 -81q0 -89 20 -153zM230 161 q0 -29 10.5 -45t26.5 -16q13 0 19 6l2 127q-58 -6 -58 -72z" />
<glyph unicode="b" horiz-adv-x="583" d="M45 685l220 10v-259q18 33 52.5 53.5t75.5 20.5q72 0 118.5 -66t46.5 -182q0 -133 -62.5 -202.5t-163.5 -69.5q-53 0 -109 18l-168 -18v565zM289 395q-13 0 -24 -6v-288q6 -1 17 -1q37 0 49 31t12 120q0 34 -1.5 56.5t-7 44.5t-16.5 32.5t-29 10.5z" />
<glyph unicode="c" horiz-adv-x="463" d="M438 484l-16 -163q-52 44 -102 44q-35 0 -57.5 -27.5t-22.5 -86.5q0 -112 96 -112q43 0 95 19l-2 -139q-44 -29 -136 -29q-114 0 -191 66.5t-77 193.5t78 193.5t195 66.5q74 0 140 -26z" />
<glyph unicode="d" horiz-adv-x="580" d="M346 -10q-12 26 -22 69q-19 -31 -55 -50t-78 -19q-74 0 -120 67t-46 180q0 133 62 203t156 70q40 0 75 -14v59l-10 130l220 10v-535q0 -96 20 -160zM240 247q0 -35 1.5 -58t7 -45t16.5 -33t29 -11q14 0 24 6v293q-6 1 -17 1q-37 0 -49 -31t-12 -122z" />
<glyph unicode="e" horiz-adv-x="540" d="M488 19q-60 -29 -173 -29q-130 0 -210 66t-80 194q0 126 75 193t187 67q100 0 161.5 -53t61.5 -138q0 -35 -9 -74l-15 -18h-240q9 -46 38.5 -67t88.5 -21q61 0 117 18zM240 297v-17l68 6q3 26 3 45q0 73 -32 73q-39 0 -39 -107z" />
<glyph unicode="f" horiz-adv-x="385" d="M278 0h-210v387l-55 2v53l65 20v2q-26 33 -26 82q0 71 56 110t152 39q90 0 140 -25l-22 -139q-40 14 -79 14q-52 0 -52 -51q0 -16 4 -32h132l-8 -83l-97 3v-382z" />
<glyph unicode="g" horiz-adv-x="542" d="M80 65q0 34 26.5 60t77.5 39q-167 23 -167 162q0 85 62 134.5t167 49.5q185 0 281 10v-122l-111 10l-1 -2q41 -9 61.5 -36.5t20.5 -65.5q0 -71 -67 -107.5t-177 -36.5h-14q-3 -6 -3 -12q0 -27 41 -27l82 -2q178 -5 178 -138q0 -171 -305 -171q-227 0 -227 93q0 38 34 59 t87 26q-46 30 -46 77zM222 324q0 -86 37 -86q33 0 33 82q0 83 -36 83q-34 0 -34 -79zM205 -57q0 -34 17 -53.5t50 -19.5t54.5 15.5t21.5 40.5q0 41 -59 41h-82q-2 -14 -2 -24z" />
<glyph unicode="h" horiz-adv-x="597" d="M265 0h-210v555l-10 130l220 10v-279q19 44 59.5 69t91.5 25q58 0 93.5 -36.5t35.5 -107.5v-366h-210v320q0 43 -35 43q-16 0 -35 -7v-356z" />
<glyph unicode="i" horiz-adv-x="317" d="M274 670q0 -47 -36 -73t-88 -26q-47 0 -75.5 21.5t-28.5 61.5q0 44 34.5 73t89.5 29q47 0 75.5 -22.5t28.5 -63.5zM265 0h-210v369l-10 131l220 10v-510z" />
<glyph unicode="j" horiz-adv-x="317" d="M274 670q0 -47 -36 -73t-88 -26q-47 0 -75.5 21.5t-28.5 61.5q0 44 34.5 73t89.5 29q47 0 75.5 -22.5t28.5 -63.5zM6 -120q49 79 49 240v249l-10 131l220 10v-350q0 -142 -46.5 -229.5t-168.5 -120.5z" />
<glyph unicode="k" horiz-adv-x="579" d="M265 0h-210v555l-10 130l220 10v-406h18l82 221l215 -10l-119 -225l128 -275l-231 -10l-70 225h-23v-215z" />
<glyph unicode="l" horiz-adv-x="317" d="M265 0h-210v555l-10 130l220 10v-695z" />
<glyph unicode="m" horiz-adv-x="867" d="M265 0h-210v370l-10 130l220 10v-93q18 43 58.5 68t88.5 25q105 0 124 -103q17 48 58.5 75.5t92.5 27.5q58 0 93 -36.5t35 -107.5v-366h-210v320q0 43 -33 43q-14 0 -32 -7v-356h-210v320q0 43 -33 43q-15 0 -32 -7v-356z" />
<glyph unicode="n" horiz-adv-x="597" d="M265 0h-210v370l-10 130l220 10v-93q19 43 60 68t94 25q56 0 91 -36.5t35 -107.5v-366h-210v320q0 43 -35 43q-16 0 -35 -7v-356z" />
<glyph unicode="o" horiz-adv-x="560" d="M535 254q0 -130 -74 -197t-187 -67q-111 0 -180 65.5t-69 190.5q0 130 74 197t187 67q111 0 180 -65.5t69 -190.5zM240 248q0 -75 8 -111.5t34 -36.5q22 0 30 32.5t8 122.5q0 85 -8 115t-31 30q-24 0 -32.5 -31.5t-8.5 -120.5z" />
<glyph unicode="p" horiz-adv-x="583" d="M55 370l-10 130l220 10v-70q19 31 53.5 50.5t74.5 19.5q72 0 118.5 -65.5t46.5 -181.5q0 -133 -62 -203t-156 -70q-40 0 -75 14v-59q0 -69 10 -130l-220 -10v565zM289 400q-13 0 -24 -6v-293q6 -1 17 -1q37 0 49 31t12 122q0 35 -1.5 58t-7 45t-16.5 33t-29 11z" />
<glyph unicode="q" horiz-adv-x="578" d="M538 -180l-220 -10v255q-18 -34 -53 -54.5t-78 -20.5q-72 0 -117 63.5t-45 172.5q0 138 72 211t188 73q38 0 78 -8l165 8v-560q0 -58 10 -130zM240 226q0 -28 1.5 -46.5t7 -37t16.5 -28t29 -9.5q14 0 24 6v289h-7q-40 0 -55.5 -37t-15.5 -137z" />
<glyph unicode="r" horiz-adv-x="431" d="M265 0h-210v370l-10 130l220 10v-149q10 59 40.5 104t74.5 45q25 0 41 -10l-13 -207q-33 7 -73 12q-43 5 -70 5v-310z" />
<glyph unicode="s" horiz-adv-x="494" d="M459 147q0 -72 -61 -114.5t-173 -42.5t-190 26l10 160q37 -20 86.5 -31.5t84.5 -11.5q38 0 38 19q0 8 -5 14t-15.5 11.5t-21.5 9.5t-29.5 11t-33.5 14q-107 49 -107 137q0 74 66.5 117.5t172.5 43.5q83 0 161 -26l-10 -158q-90 41 -150 41q-35 0 -35 -21q0 -8 4.5 -14.5 t15.5 -12l19 -9.5t25 -9.5t23 -8.5q125 -48 125 -145z" />
<glyph unicode="t" horiz-adv-x="423" d="M390 407l-120 3v-186q0 -38 15 -60.5t44 -22.5q35 0 69 16l-2 -139q-49 -28 -141 -28q-97 0 -146 48t-49 152v226l-55 1v53l75 20l33 118l157 10v-128h128z" />
<glyph unicode="u" horiz-adv-x="588" d="M52 124v376l210 10v-363q0 -43 35 -43q12 0 29 5v391l210 10v-357q0 -89 20 -153l-200 -10q-20 43 -28 90q-22 -39 -62.5 -64.5t-91.5 -25.5q-58 0 -90 35t-32 99z" />
<glyph unicode="v" horiz-adv-x="545" d="M525 500q-39 -277 -108 -500h-309l-96 500l219 10l53 -400h2l40 400z" />
<glyph unicode="w" horiz-adv-x="842" d="M103 0l-91 500l209 10l38 -400h2l44 390h230l47 -390h2l35 400l203 -10q-39 -277 -108 -500h-267l-33 290h-2q-17 -149 -59 -290h-250z" />
<glyph unicode="x" horiz-adv-x="523" d="M298 0l-61 147l-47 -147h-185q45 107 129 266l-119 234l207 10l63 -166l48 166l185 -10q-43 -107 -129 -266l119 -234h-210z" />
<glyph unicode="y" horiz-adv-x="550" d="M107 -195q-76 0 -137 14v155q80 -18 161 -18q64 0 114.5 18t59.5 50h-197l-91 476l219 10l53 -400h2l40 400l199 -10q-18 -129 -50.5 -278.5t-57.5 -221.5q-39 -110 -110.5 -152.5t-204.5 -42.5z" />
<glyph unicode="z" horiz-adv-x="487" d="M452 0h-407l-20 120l210 230h-1q-109 0 -200 -10l12 160h395l8 -120l-209 -230h22q104 0 200 15z" />
<glyph unicode="{" horiz-adv-x="464" d="M149 159q0 32 -18 49t-61 22v100q43 7 61 23.5t18 48.5q0 25 -15.5 72t-15.5 78q0 75 69.5 109t223.5 34l3 -100q-43 0 -66.5 -17.5t-23.5 -50.5q0 -19 12.5 -61.5t12.5 -64.5q0 -48 -39 -79t-105 -42q66 -11 105 -42t39 -79q0 -22 -12.5 -64.5t-12.5 -61.5 q0 -33 23.5 -50.5t66.5 -17.5l-3 -100q-154 0 -223.5 34t-69.5 109q0 30 15.5 78t15.5 73z" />
<glyph unicode="|" horiz-adv-x="360" d="M240 -202l-120 -3v897l120 3v-897z" />
<glyph unicode="}" horiz-adv-x="464" d="M394 230l-79 -71q0 -25 15.5 -73t15.5 -78q0 -75 -69.5 -109t-223.5 -34l-3 100q43 0 66.5 17.5t23.5 50.5q0 19 -12.5 61.5t-12.5 64.5q0 48 39 79t105 42q-66 11 -105 42t-39 79q0 22 12.5 64.5t12.5 61.5q0 33 -23.5 50.5t-66.5 17.5l3 100q154 0 223.5 -34t69.5 -109 q0 -31 -15.5 -78t-15.5 -72q0 -32 18 -48.5t61 -23.5v-100z" />
<glyph unicode="~" horiz-adv-x="644" d="M205 217q-11 0 -53 -49l-72 34q14 31 26 52.5t29.5 48t37 40.5t38.5 14q31 0 123.5 -22t104.5 -22q10 0 54 49l71 -34q-14 -31 -26 -52.5t-29.5 -48t-37 -40.5t-38.5 -14q-31 0 -123 22t-105 22z" />
<glyph unicode="&#xa1;" horiz-adv-x="316" d="M55 416q0 41 33 65t79 24q42 0 68 -19.5t26 -55.5q0 -40 -31.5 -66t-80.5 -26q-42 0 -68 20t-26 58zM86 298h140q15 -277 43 -481l-215 -10q-4 45 -4 110q0 206 36 381z" />
<glyph unicode="&#xa2;" horiz-adv-x="463" d="M285 -120l-50 -3v118q-93 16 -151.5 81t-58.5 174q0 114 64.5 180t165.5 78v112l50 3v-113q70 -1 133 -26l-16 -163q-52 44 -102 44q-35 0 -57.5 -27.5t-22.5 -86.5q0 -112 96 -112q43 0 95 19l-2 -139q-44 -29 -136 -29h-8v-110z" />
<glyph unicode="&#xa3;" horiz-adv-x="609" d="M510 252l-136 3q-31 -132 -101 -199q128 -66 239 -66q45 0 85 10l-56 -154q-15 -6 -41 -6q-20 0 -40 3t-37 7t-37 13t-33 14.5t-34 19t-30 19.5t-30 22t-27 21l-27 22.5t-24 19.5q-38 -11 -80 -11q-101 0 -101 69q0 35 23 54.5t60 19.5q36 0 85 -23q3 33 3 77l1 73l-96 2 l10 53l87 20q4 156 74.5 240.5t210.5 84.5q91 0 151 -29l-48 -132q-55 51 -98 51q-33 0 -51.5 -48t-24.5 -167h141z" />
<glyph unicode="&#xa4;" horiz-adv-x="460" d="M393 67l-62 64q-46 -36 -109 -36q-59 0 -101 28l-56 -56l-40 40l55 55q-33 46 -33 109q0 62 40 111l-58 59l36 36q16 -15 60 -59q46 31 101 31q62 0 108 -33l61 61l40 -40l-63 -63q29 -43 29 -98q0 -58 -32 -105q50 -48 65 -63zM137 271q0 -38 23.5 -67.5t64.5 -29.5 q44 0 65 28.5t21 70.5q0 38 -22 64.5t-64 26.5q-43 0 -65.5 -27t-22.5 -66z" />
<glyph unicode="&#xa5;" horiz-adv-x="617" d="M91 96v61h113v45h-113v61h87l-163 387l206 10l91 -292h2l93 292l195 -10l-162 -387h87v-61h-113v-45h113v-61h-113v-96h-210v96h-113z" />
<glyph unicode="&#xa6;" horiz-adv-x="360" d="M240 349l-120 -5v348l120 3v-346zM240 -202l-120 -3v352l120 5v-354z" />
<glyph unicode="&#xa7;" horiz-adv-x="593" d="M563 62q0 -111 -83 -171.5t-219 -60.5q-137 0 -220 35l30 178q31 -24 70.5 -41t67.5 -17q23 0 35.5 14t12.5 36q0 28 -23.5 59.5t-56.5 63.5t-66.5 68.5t-57 87t-23.5 105.5q0 110 84.5 175.5t226.5 65.5q120 0 196 -35l-38 -165q-64 45 -114 45q-24 0 -36.5 -14.5 t-12.5 -38.5q0 -31 23.5 -63.5t56.5 -64.5t66.5 -68t57 -86.5t23.5 -107.5zM269 -83v-6q187 10 187 146q0 50 -24.5 93.5t-59 76t-69.5 64t-59.5 70t-24.5 80.5q0 50 32 85t77 47v6q-86 -5 -133.5 -45.5t-47.5 -111.5q0 -48 22.5 -91.5t54 -76.5t63.5 -64.5t54.5 -69 t22.5 -76.5q0 -50 -31.5 -83t-63.5 -44z" />
<glyph unicode="&#xa8;" horiz-adv-x="600" d="M238 669q0 -44 -31 -68t-78 -24q-42 0 -66.5 19t-24.5 57q0 43 30 69.5t79 26.5q42 0 66.5 -20.5t24.5 -59.5zM509 669q0 -44 -31.5 -68t-78.5 -24q-42 0 -66 19t-24 57q0 43 29.5 69.5t78.5 26.5q42 0 67 -20.5t25 -59.5z" />
<glyph unicode="&#xa9;" horiz-adv-x="760" d="M380 -50q-128 0 -214 86t-86 214q0 124 88 212t212 88q127 0 213.5 -87.5t86.5 -212.5q0 -124 -88 -212t-212 -88zM380 0q103 0 176.5 73.5t73.5 176.5q0 104 -73 177t-177 73q-103 0 -176.5 -73.5t-73.5 -176.5q0 -106 72 -178t178 -72zM483 185l14 -85 q-47 -16 -102 -16q-88 0 -135.5 44t-47.5 121q0 81 50 129t133 48q55 0 104 -19l-16 -90q-36 17 -70 17q-36 0 -50 -19.5t-14 -57.5t16 -57.5t59 -19.5q10 0 24.5 1t24.5 3z" />
<glyph unicode="&#xaa;" horiz-adv-x="441" d="M255 365q-10 18 -19 57q-31 -57 -116 -57q-47 0 -73.5 25t-26.5 64q0 59 56.5 88t158.5 29v3q0 41 -65 41q-50 0 -116 -28l-8 127q89 25 179 25q88 0 133 -35.5t45 -116.5q0 -13 -2 -48t-2 -54q0 -66 16 -113zM188 493q0 -22 8.5 -34t21.5 -12q9 0 15 3l1 88 q-46 -5 -46 -45z" />
<glyph unicode="&#xab;" horiz-adv-x="586" d="M287 253v54q122 93 224 203l38 -22q-32 -94 -102 -208q70 -114 102 -208l-38 -22q-102 110 -224 203zM37 253v54q122 93 224 203l38 -22q-32 -94 -102 -208q70 -114 102 -208l-38 -22q-102 110 -224 203z" />
<glyph unicode="&#xac;" d="M533 433v-271h-145v133h-294v132q146 6 439 6z" />
<glyph unicode="&#xae;" horiz-adv-x="760" d="M380 -50q-128 0 -214 86t-86 214q0 124 88 212t212 88q127 0 213.5 -87.5t86.5 -212.5q0 -124 -88 -212t-212 -88zM380 0q103 0 176.5 73.5t73.5 176.5q0 104 -73 177t-177 73q-103 0 -176.5 -73.5t-73.5 -176.5q0 -106 72 -178t178 -72zM365 89h-125v264l-6 68h154 q73 0 113.5 -31.5t40.5 -85.5q0 -66 -60 -97l68 -118l-133 -5l-36 101h-2h-14v-96zM375 353h-10v-101h10q22 0 30.5 12.5t8.5 38.5q0 50 -39 50z" />
<glyph unicode="&#xaf;" horiz-adv-x="350" d="M30 602v120h290v-120h-290z" />
<glyph unicode="&#xb0;" horiz-adv-x="361" d="M176 295q-62 0 -101 38.5t-39 101.5q0 66 41.5 107.5t106.5 41.5q62 0 101.5 -39t39.5 -101q0 -65 -41.5 -107t-107.5 -42zM181 514q-32 0 -51 -22t-19 -55q0 -31 19.5 -51.5t49.5 -20.5q31 0 50.5 22.5t19.5 55.5q0 31 -19 51t-50 20z" />
<glyph unicode="&#xb1;" horiz-adv-x="610" d="M516 332h-135v-114h-147l-1 114h-147v132q131 4 146 4l-1 117h150v-116q52 1 136 1zM516 15h-430v132q145 6 431 6z" />
<glyph unicode="&#xb2;" horiz-adv-x="414" d="M336 372h-286l-10 79q45 24 98.5 75t53.5 86q0 17 -12.5 26.5t-33.5 9.5q-47 0 -94 -35l-12 94q69 30 149 30q73 0 116.5 -28.5t43.5 -73.5q0 -48 -50.5 -90t-129.5 -64h45q66 0 128 9z" />
<glyph unicode="&#xb3;" horiz-adv-x="373" d="M343 469q0 -47 -49 -75.5t-132 -28.5q-67 0 -112 12l11 75q30 -15 69 -15q26 0 41 11t15 30q0 38 -62 38q-19 0 -40 -3v43q96 29 96 63q0 29 -46 29q-38 0 -76 -18l-4 80q59 27 136 27q66 0 106.5 -24t40.5 -60q0 -67 -127 -92q61 -5 97 -29.5t36 -62.5z" />
<glyph unicode="&#xb4;" horiz-adv-x="260" d="M255 720q-76 -106 -190 -175l-60 36q54 94 98 206z" />
<glyph unicode="&#xb6;" horiz-adv-x="660" d="M250 -70q34 0 60 9.5t41 27.5t24 35t12.5 42t4.5 38.5t1 33.5v439h-70v-385h-32q-118 0 -194.5 65.5t-76.5 174.5q0 112 82 176t208 64h243v-505q0 -154 -73 -234.5t-214 -80.5q-86 0 -177 26l8 105q93 -31 153 -31z" />
<glyph unicode="&#xb7;" horiz-adv-x="310" d="M153 177q-39 0 -63.5 23t-24.5 59q0 39 28.5 65.5t68.5 26.5q36 0 59.5 -21.5t23.5 -56.5q0 -40 -26.5 -68t-65.5 -28z" />
<glyph unicode="&#xb8;" horiz-adv-x="278" d="M105 -124q0 26 -48 38l31 86h57l-13 -35q59 -6 92.5 -28.5t33.5 -56.5q0 -48 -57 -75t-169 -27l-7 54q80 8 80 44z" />
<glyph unicode="&#xb9;" horiz-adv-x="328" d="M238 372h-140v277l-61 -23l-17 60l210 51l8 -7v-358z" />
<glyph unicode="&#xba;" horiz-adv-x="468" d="M438 554q0 -94 -59.5 -141.5t-149.5 -47.5q-88 0 -143.5 47t-55.5 138q0 94 59 141.5t150 47.5q88 0 143.5 -47t55.5 -138zM202 551q0 -49 6.5 -74t27.5 -25q17 0 23.5 21.5t6.5 81.5q0 58 -6 77.5t-25 19.5q-20 0 -26.5 -21t-6.5 -80z" />
<glyph unicode="&#xbb;" horiz-adv-x="586" d="M299 253q-122 -93 -224 -203l-38 22q32 94 102 208q-70 114 -102 208l38 22q102 -110 224 -203v-54zM549 253q-122 -93 -224 -203l-38 22q32 94 102 208q-70 114 -102 208l38 22q102 -110 224 -203v-54z" />
<glyph unicode="&#xbc;" horiz-adv-x="886" d="M253 -10h-115l400 670h116zM238 292h-140v277l-61 -23l-17 60l210 51l8 -7v-358zM742 0h-140v44h-165l-6 57l211 264l100 -5v-203q23 1 54 5l-6 -118h-48v-44zM602 259l-83 -105h83v105z" />
<glyph unicode="&#xbd;" horiz-adv-x="920" d="M253 -10h-115l400 670h116zM238 292h-140v277l-61 -23l-17 60l210 51l8 -7v-358zM842 0h-286l-10 79q45 24 98.5 75t53.5 86q0 17 -12.5 26.5t-33.5 9.5q-47 0 -94 -35l-12 94q69 30 149 30q73 0 116.5 -28.5t43.5 -73.5q0 -48 -50.5 -90t-129.5 -64h45q66 0 128 9z" />
<glyph unicode="&#xbe;" horiz-adv-x="916" d="M318 -10h-115l400 670h116zM343 389q0 -47 -49 -75.5t-132 -28.5q-67 0 -112 12l11 75q30 -15 69 -15q26 0 41 11t15 30q0 38 -62 38q-19 0 -40 -3v43q96 29 96 63q0 29 -46 29q-38 0 -76 -18l-4 80q59 27 136 27q66 0 106.5 -24t40.5 -60q0 -67 -127 -92q61 -5 97 -29.5 t36 -62.5zM807 0h-140v44h-165l-6 57l211 264l100 -5v-203q23 1 54 5l-6 -118h-48v-44zM667 259l-83 -105h83v105z" />
<glyph unicode="&#xbf;" horiz-adv-x="530" d="M188 416q0 41 33 65t79 24q42 0 68 -19.5t26 -55.5q0 -40 -31.5 -66t-80.5 -26q-42 0 -68 20t-26 58zM226 296h140q15 -26 15 -61q0 -31 -13 -59.5t-31.5 -49t-37 -38.5t-31.5 -35t-13 -32q0 -31 47 -31q66 0 129 56l79 -115q-110 -91 -243 -91q-99 0 -163 50.5 t-64 128.5q0 42 19 75.5t46.5 54.5t55 39.5t46.5 39t19 44.5v24z" />
<glyph unicode="&#xc0;" horiz-adv-x="677" d="M489 760l-48 -50q-150 23 -253 88l97 109q60 -50 204 -147zM220 0h-195l154 520l33 131l262 9l178 -660h-206l-28 125h-170zM333 503l-62 -278h125l-61 278h-2z" />
<glyph unicode="&#xc1;" horiz-adv-x="677" d="M489 799q-103 -65 -253 -88l-48 50q144 97 204 147zM220 0h-195l154 520l33 131l262 9l178 -660h-206l-28 125h-170zM333 503l-62 -278h125l-61 278h-2z" />
<glyph unicode="&#xc2;" horiz-adv-x="677" d="M207 704l-54 40q61 76 105 155l158 10q49 -93 109 -165l-54 -40q-78 45 -134 95q-58 -52 -130 -95zM220 0h-195l154 520l33 131l262 9l178 -660h-206l-28 125h-170zM333 503l-62 -278h125l-61 278h-2z" />
<glyph unicode="&#xc3;" horiz-adv-x="677" d="M274 889q32 0 75.5 -21t63.5 -21q19 0 30.5 10.5t27.5 36.5l44 -9q-2 -67 -30 -114.5t-79 -47.5q-28 0 -76.5 21t-65.5 21q-32 0 -58 -47l-44 9q3 68 30 115t82 47zM220 0h-195l154 520l33 131l262 9l178 -660h-206l-28 125h-170zM333 503l-62 -278h125l-61 278h-2z" />
<glyph unicode="&#xc4;" horiz-adv-x="677" d="M309 812q0 -48 -32.5 -74t-83.5 -26q-45 0 -70.5 21.5t-25.5 61.5q0 45 32 73.5t84 28.5q45 0 70.5 -21.5t25.5 -63.5zM581 811q0 -47 -33 -73t-83 -26q-44 0 -69.5 21.5t-25.5 62.5q0 45 31.5 73t83.5 28q44 0 70 -22t26 -64zM220 0h-195l154 520l33 131l262 9l178 -660 h-206l-28 125h-170zM333 503l-62 -278h125l-61 278h-2z" />
<glyph unicode="&#xc5;" horiz-adv-x="677" d="M466 816q0 -49 -38 -83t-99 -34q-56 0 -86.5 27t-30.5 68q0 48 40.5 82t102.5 34q52 0 81.5 -25t29.5 -69zM292 800q0 -18 12 -29.5t31 -11.5q21 0 36 15t15 35q0 18 -11.5 29.5t-29.5 11.5q-21 0 -37 -15t-16 -35zM220 0h-195l154 520l33 131l262 9l178 -660h-206 l-28 125h-170zM333 503l-62 -278h125l-61 278h-2z" />
<glyph unicode="&#xc6;" horiz-adv-x="907" d="M220 0h-195l232 520l33 130h567l-10 -130l-254 7l22 -146l212 4l-10 -120l-185 4l22 -147l218 8v-130h-406l-9 125h-185zM429 503l-116 -278h137l-19 278h-2z" />
<glyph unicode="&#xc7;" horiz-adv-x="561" d="M291 -124q0 26 -48 38l30 83q-117 22 -180 105t-63 213q0 158 88 251.5t234 93.5q101 0 184 -36l-27 -154q-59 35 -127 35q-66 0 -94 -45t-28 -131t30.5 -131.5t109.5 -45.5q59 0 108 15l25 -145q-85 -32 -180 -32q-17 0 -25 1l-10 -26q59 -6 92.5 -28.5t33.5 -56.5 q0 -48 -57 -75t-169 -27l-7 54q80 8 80 44z" />
<glyph unicode="&#xc8;" horiz-adv-x="520" d="M410 760l-48 -50q-150 23 -253 88l97 109q60 -50 204 -147zM485 0h-425v511l-10 139h420l-10 -130l-190 10v-150l170 5l-10 -120l-160 5v-150l215 10v-130z" />
<glyph unicode="&#xc9;" horiz-adv-x="520" d="M410 799q-103 -65 -253 -88l-48 50q144 97 204 147zM485 0h-425v511l-10 139h420l-10 -130l-190 10v-150l170 5l-10 -120l-160 5v-150l215 10v-130z" />
<glyph unicode="&#xca;" horiz-adv-x="520" d="M128 704l-54 40q61 76 105 155l158 10q49 -93 109 -165l-54 -40q-78 45 -134 95q-58 -52 -130 -95zM485 0h-425v511l-10 139h420l-10 -130l-190 10v-150l170 5l-10 -120l-160 5v-150l215 10v-130z" />
<glyph unicode="&#xcb;" horiz-adv-x="520" d="M230 812q0 -48 -32.5 -74t-83.5 -26q-45 0 -70.5 21.5t-25.5 61.5q0 45 32 73.5t84 28.5q45 0 70.5 -21.5t25.5 -63.5zM502 811q0 -47 -33 -73t-83 -26q-44 0 -69.5 21.5t-25.5 62.5q0 45 31.5 73t83.5 28q44 0 70 -22t26 -64zM485 0h-425v511l-10 139h420l-10 -130 l-190 10v-150l170 5l-10 -120l-160 5v-150l215 10v-130z" />
<glyph unicode="&#xcc;" horiz-adv-x="330" d="M315 760l-48 -50q-150 23 -253 88l97 109q60 -50 204 -147zM270 0h-210v520l-10 130l220 10v-660z" />
<glyph unicode="&#xcd;" horiz-adv-x="330" d="M315 799q-103 -65 -253 -88l-48 50q144 97 204 147zM270 0h-210v520l-10 130l220 10v-660z" />
<glyph unicode="&#xce;" horiz-adv-x="330" d="M33 704l-54 40q61 76 105 155l158 10q49 -93 109 -165l-54 -40q-78 45 -134 95q-58 -52 -130 -95zM270 0h-210v520l-10 130l220 10v-660z" />
<glyph unicode="&#xcf;" horiz-adv-x="431" d="M202 801q0 -50 -31.5 -77t-79.5 -27q-42 0 -66.5 23t-24.5 66q0 47 30.5 76.5t80.5 29.5q42 0 66.5 -23t24.5 -68zM431 801q0 -50 -32 -77t-80 -27q-42 0 -66.5 23t-24.5 66q0 47 30.5 76.5t80.5 29.5q43 0 67.5 -23t24.5 -68zM320 0h-210v520l-10 130l220 10v-660z" />
<glyph unicode="&#xd0;" horiz-adv-x="659" d="M60 520l-10 130h278q142 0 221.5 -87t79.5 -234q0 -158 -89 -243.5t-230 -85.5h-250v285h-54v80h54v155zM353 285h-83v-160h31q56 0 77 52t21 148q0 95 -21 147.5t-78 52.5h-30v-160h83v-80z" />
<glyph unicode="&#xd1;" horiz-adv-x="665" d="M268 889q32 0 75.5 -21t63.5 -21q19 0 30.5 10.5t27.5 36.5l44 -9q-2 -67 -30 -114.5t-79 -47.5q-28 0 -76.5 21t-65.5 21q-32 0 -58 -47l-44 9q3 68 30 115t82 47zM60 520l-10 130l159 10l244 -372h2l-15 362l165 10v-660h-170l-223 342h-2l15 -342h-165v520z" />
<glyph unicode="&#xd2;" horiz-adv-x="655" d="M478 760l-48 -50q-150 23 -253 88l97 109q60 -50 204 -147zM625 329q0 -163 -85 -251t-221 -88q-135 0 -212 86t-77 239q0 159 84 252t223 93q136 0 212 -89.5t76 -241.5zM260 328q0 -203 71 -203q37 0 50.5 52t13.5 148t-14 148t-51 52q-70 0 -70 -197z" />
<glyph unicode="&#xd3;" horiz-adv-x="655" d="M478 799q-103 -65 -253 -88l-48 50q144 97 204 147zM625 329q0 -163 -85 -251t-221 -88q-135 0 -212 86t-77 239q0 159 84 252t223 93q136 0 212 -89.5t76 -241.5zM260 328q0 -203 71 -203q37 0 50.5 52t13.5 148t-14 148t-51 52q-70 0 -70 -197z" />
<glyph unicode="&#xd4;" horiz-adv-x="655" d="M196 704l-54 40q61 76 105 155l158 10q49 -93 109 -165l-54 -40q-78 45 -134 95q-58 -52 -130 -95zM625 329q0 -163 -85 -251t-221 -88q-135 0 -212 86t-77 239q0 159 84 252t223 93q136 0 212 -89.5t76 -241.5zM260 328q0 -203 71 -203q37 0 50.5 52t13.5 148t-14 148 t-51 52q-70 0 -70 -197z" />
<glyph unicode="&#xd5;" horiz-adv-x="655" d="M625 329q0 -163 -85 -251t-221 -88q-135 0 -212 86t-77 239q0 159 84 252t223 93q136 0 212 -89.5t76 -241.5zM260 328q0 -203 71 -203q37 0 50.5 52t13.5 148t-14 148t-51 52q-70 0 -70 -197z" />
<glyph unicode="&#xd6;" horiz-adv-x="655" d="M298 812q0 -48 -32.5 -74t-83.5 -26q-45 0 -70.5 21.5t-25.5 61.5q0 45 32 73.5t84 28.5q45 0 70.5 -21.5t25.5 -63.5zM570 811q0 -47 -33 -73t-83 -26q-44 0 -69.5 21.5t-25.5 62.5q0 45 31.5 73t83.5 28q44 0 70 -22t26 -64zM625 329q0 -163 -85 -251t-221 -88 q-135 0 -212 86t-77 239q0 159 84 252t223 93q136 0 212 -89.5t76 -241.5zM260 328q0 -203 71 -203q37 0 50.5 52t13.5 148t-14 148t-51 52q-70 0 -70 -197z" />
<glyph unicode="&#xd7;" horiz-adv-x="577" d="M401 114l-112 113l-115 -114l-98 98l114 115l-115 116l96 96q30 -27 117 -112l111 112l101 -100l-111 -111l113 -113v-12z" />
<glyph unicode="&#xd8;" horiz-adv-x="655" d="M625 329q0 -163 -85 -251t-221 -88q-108 0 -178 55l-70 -80l-65 56l76 88q-52 81 -52 206q0 159 84 252t223 93q104 0 176 -55l70 80l66 -55l-78 -89q54 -86 54 -212zM260 328v-15l125 144q-15 68 -55 68q-70 0 -70 -197zM395 325v13l-123 -142q17 -71 59 -71 q37 0 50.5 52t13.5 148z" />
<glyph unicode="&#xd9;" horiz-adv-x="655" d="M478 760l-48 -50q-150 23 -253 88l97 109q60 -50 204 -147zM327 125q63 0 63 90v305l-10 130l220 10v-436q0 -111 -80.5 -172.5t-201.5 -61.5q-120 0 -191.5 61.5t-71.5 172.5v296l-10 130l220 9v-446q0 -88 62 -88z" />
<glyph unicode="&#xda;" horiz-adv-x="655" d="M478 799q-103 -65 -253 -88l-48 50q144 97 204 147zM327 125q63 0 63 90v305l-10 130l220 10v-436q0 -111 -80.5 -172.5t-201.5 -61.5q-120 0 -191.5 61.5t-71.5 172.5v296l-10 130l220 9v-446q0 -88 62 -88z" />
<glyph unicode="&#xdb;" horiz-adv-x="655" d="M196 704l-54 40q61 76 105 155l158 10q49 -93 109 -165l-54 -40q-78 45 -134 95q-58 -52 -130 -95zM327 125q63 0 63 90v305l-10 130l220 10v-436q0 -111 -80.5 -172.5t-201.5 -61.5q-120 0 -191.5 61.5t-71.5 172.5v296l-10 130l220 9v-446q0 -88 62 -88z" />
<glyph unicode="&#xdc;" horiz-adv-x="655" d="M298 812q0 -48 -32.5 -74t-83.5 -26q-45 0 -70.5 21.5t-25.5 61.5q0 45 32 73.5t84 28.5q45 0 70.5 -21.5t25.5 -63.5zM570 811q0 -47 -33 -73t-83 -26q-44 0 -69.5 21.5t-25.5 62.5q0 45 31.5 73t83.5 28q44 0 70 -22t26 -64zM327 125q63 0 63 90v305l-10 130l220 10 v-436q0 -111 -80.5 -172.5t-201.5 -61.5q-120 0 -191.5 61.5t-71.5 172.5v296l-10 130l220 9v-446q0 -88 62 -88z" />
<glyph unicode="&#xdd;" horiz-adv-x="617" d="M459 799q-103 -65 -253 -88l-48 50q144 97 204 147zM414 0h-210v202l-189 448l206 10l91 -292h2l93 292l195 -10l-188 -448v-202z" />
<glyph unicode="&#xde;" horiz-adv-x="606" d="M270 0h-210v520l-10 130h220v-70h45q128 0 199.5 -65t71.5 -176q0 -119 -79.5 -183t-206.5 -64h-30v-92zM293 465h-23v-259h23q45 0 61.5 34t16.5 96t-16.5 95.5t-61.5 33.5z" />
<glyph unicode="&#xdf;" horiz-adv-x="690" d="M83 400l-70 2v53l70 19q0 105 71 163t196 58q111 0 188 -44t77 -120q0 -53 -41.5 -94t-120.5 -58q98 -22 155 -75t57 -130q0 -85 -62 -134.5t-168 -49.5q-66 0 -102 10v110q25 -10 50 -10q30 0 48.5 22.5t18.5 59.5q0 45 -32 86.5t-85 71.5v64q77 46 77 115 q0 29 -15.5 47.5t-42.5 18.5q-59 0 -59 -94v-491h-210v400z" />
<glyph unicode="&#xe0;" horiz-adv-x="549" d="M398 581l-60 -36q-114 69 -190 175l152 67q44 -112 98 -206zM314 -10q-14 30 -24 77q-19 -34 -56.5 -55.5t-88.5 -21.5q-59 0 -92 34.5t-33 88.5q0 82 71 122.5t198 40.5v14q1 33 -19.5 49t-61.5 16q-65 0 -145 -41l-11 159q111 37 224 37q110 0 166.5 -48t56.5 -155 q0 -17 -2.5 -73t-2.5 -81q0 -89 20 -153zM230 161q0 -29 10.5 -45t26.5 -16q13 0 19 6l2 127q-58 -6 -58 -72z" />
<glyph unicode="&#xe1;" horiz-adv-x="549" d="M398 720q-76 -106 -190 -175l-60 36q54 94 98 206zM314 -10q-14 30 -24 77q-19 -34 -56.5 -55.5t-88.5 -21.5q-59 0 -92 34.5t-33 88.5q0 82 71 122.5t198 40.5v14q1 33 -19.5 49t-61.5 16q-65 0 -145 -41l-11 159q111 37 224 37q110 0 166.5 -48t56.5 -155 q0 -17 -2.5 -73t-2.5 -81q0 -89 20 -153zM230 161q0 -29 10.5 -45t26.5 -16q13 0 19 6l2 127q-58 -6 -58 -72z" />
<glyph unicode="&#xe2;" horiz-adv-x="549" d="M164 555l-67 36q54 88 93 173l158 10q49 -112 97 -183l-67 -36q-59 43 -109 102q-48 -59 -105 -102zM314 -10q-14 30 -24 77q-19 -34 -56.5 -55.5t-88.5 -21.5q-59 0 -92 34.5t-33 88.5q0 82 71 122.5t198 40.5v14q1 33 -19.5 49t-61.5 16q-65 0 -145 -41l-11 159 q111 37 224 37q110 0 166.5 -48t56.5 -155q0 -17 -2.5 -73t-2.5 -81q0 -89 20 -153zM230 161q0 -29 10.5 -45t26.5 -16q13 0 19 6l2 127q-58 -6 -58 -72z" />
<glyph unicode="&#xe3;" horiz-adv-x="549" d="M201 753q35 0 81.5 -26t68.5 -26q17 0 27.5 12t24.5 40l47 -9q-3 -69 -30 -118t-77 -49q-30 0 -82.5 26t-70.5 26q-29 0 -52 -52l-47 9q3 70 29 118.5t81 48.5zM314 -10q-14 30 -24 77q-19 -34 -56.5 -55.5t-88.5 -21.5q-59 0 -92 34.5t-33 88.5q0 82 71 122.5t198 40.5 v14q1 33 -19.5 49t-61.5 16q-65 0 -145 -41l-11 159q111 37 224 37q110 0 166.5 -48t56.5 -155q0 -17 -2.5 -73t-2.5 -81q0 -89 20 -153zM230 161q0 -29 10.5 -45t26.5 -16q13 0 19 6l2 127q-58 -6 -58 -72z" />
<glyph unicode="&#xe4;" horiz-adv-x="549" d="M236 669q0 -44 -31 -68t-78 -24q-42 0 -66.5 19t-24.5 57q0 43 30 69.5t79 26.5q42 0 66.5 -20.5t24.5 -59.5zM507 669q0 -44 -31.5 -68t-78.5 -24q-42 0 -66 19t-24 57q0 43 29.5 69.5t78.5 26.5q42 0 67 -20.5t25 -59.5zM314 -10q-14 30 -24 77q-19 -34 -56.5 -55.5 t-88.5 -21.5q-59 0 -92 34.5t-33 88.5q0 82 71 122.5t198 40.5v14q1 33 -19.5 49t-61.5 16q-65 0 -145 -41l-11 159q111 37 224 37q110 0 166.5 -48t56.5 -155q0 -17 -2.5 -73t-2.5 -81q0 -89 20 -153zM230 161q0 -29 10.5 -45t26.5 -16q13 0 19 6l2 127q-58 -6 -58 -72z " />
<glyph unicode="&#xe5;" horiz-adv-x="549" d="M394 674q0 -57 -39 -90t-95 -33q-50 0 -81 26.5t-31 75.5q0 56 37.5 92t96.5 36q50 0 81 -28t31 -79zM223 661q0 -45 44 -45q22 0 37 14t15 39q0 22 -12 34.5t-32 12.5q-23 0 -37.5 -15.5t-14.5 -39.5zM314 -10q-14 30 -24 77q-19 -34 -56.5 -55.5t-88.5 -21.5 q-59 0 -92 34.5t-33 88.5q0 82 71 122.5t198 40.5v14q1 33 -19.5 49t-61.5 16q-65 0 -145 -41l-11 159q111 37 224 37q110 0 166.5 -48t56.5 -155q0 -17 -2.5 -73t-2.5 -81q0 -89 20 -153zM230 161q0 -29 10.5 -45t26.5 -16q13 0 19 6l2 127q-58 -6 -58 -72z" />
<glyph unicode="&#xe6;" horiz-adv-x="799" d="M747 19q-60 -29 -173 -29q-166 0 -239 101q-27 -44 -73.5 -72.5t-107.5 -28.5q-66 0 -100 34t-34 90q0 81 70.5 121.5t197.5 40.5l1 14q2 33 -19.5 49t-61.5 16q-65 0 -145 -41l-11 159q111 37 219 37q86 0 134 -35q62 35 141 35q100 0 161.5 -53t61.5 -138q0 -35 -9 -74 l-15 -18h-240q9 -46 38.5 -67t89.5 -21t116 18zM499 293v-13l68 6q3 26 3 45q0 73 -32 73q-39 0 -39 -111zM230 162q0 -29 14 -45.5t36 -16.5q20 0 38 18q-25 46 -30 115q-26 -3 -42 -21.5t-16 -49.5z" />
<glyph unicode="&#xe7;" horiz-adv-x="463" d="M237 -124q0 26 -48 38l30 84q-86 19 -140 83.5t-54 168.5q0 127 78 193.5t195 66.5q74 0 140 -26l-16 -163q-52 44 -102 44q-35 0 -57.5 -27.5t-22.5 -86.5q0 -112 96 -112q43 0 95 19l-2 -139q-44 -29 -136 -29q-13 0 -20 1l-9 -26q59 -6 92.5 -28.5t33.5 -56.5 q0 -48 -57 -75t-169 -27l-7 54q80 8 80 44z" />
<glyph unicode="&#xe8;" horiz-adv-x="540" d="M415 581l-60 -36q-114 69 -190 175l152 67q44 -112 98 -206zM488 19q-60 -29 -173 -29q-130 0 -210 66t-80 194q0 126 75 193t187 67q100 0 161.5 -53t61.5 -138q0 -35 -9 -74l-15 -18h-240q9 -46 38.5 -67t88.5 -21q61 0 117 18zM240 297v-17l68 6q3 26 3 45 q0 73 -32 73q-39 0 -39 -107z" />
<glyph unicode="&#xe9;" horiz-adv-x="540" d="M415 720q-76 -106 -190 -175l-60 36q54 94 98 206zM488 19q-60 -29 -173 -29q-130 0 -210 66t-80 194q0 126 75 193t187 67q100 0 161.5 -53t61.5 -138q0 -35 -9 -74l-15 -18h-240q9 -46 38.5 -67t88.5 -21q61 0 117 18zM240 297v-17l68 6q3 26 3 45q0 73 -32 73 q-39 0 -39 -107z" />
<glyph unicode="&#xea;" horiz-adv-x="540" d="M181 555l-67 36q54 88 93 173l158 10q49 -112 97 -183l-67 -36q-59 43 -109 102q-48 -59 -105 -102zM488 19q-60 -29 -173 -29q-130 0 -210 66t-80 194q0 126 75 193t187 67q100 0 161.5 -53t61.5 -138q0 -35 -9 -74l-15 -18h-240q9 -46 38.5 -67t88.5 -21q61 0 117 18z M240 297v-17l68 6q3 26 3 45q0 73 -32 73q-39 0 -39 -107z" />
<glyph unicode="&#xeb;" horiz-adv-x="540" d="M253 669q0 -44 -31 -68t-78 -24q-42 0 -66.5 19t-24.5 57q0 43 30 69.5t79 26.5q42 0 66.5 -20.5t24.5 -59.5zM524 669q0 -44 -31.5 -68t-78.5 -24q-42 0 -66 19t-24 57q0 43 29.5 69.5t78.5 26.5q42 0 67 -20.5t25 -59.5zM488 19q-60 -29 -173 -29q-130 0 -210 66 t-80 194q0 126 75 193t187 67q100 0 161.5 -53t61.5 -138q0 -35 -9 -74l-15 -18h-240q9 -46 38.5 -67t88.5 -21q61 0 117 18zM240 297v-17l68 6q3 26 3 45q0 73 -32 73q-39 0 -39 -107z" />
<glyph unicode="&#xec;" horiz-adv-x="317" d="M287 581l-60 -36q-114 69 -190 175l152 67q44 -112 98 -206zM265 0h-210v369l-10 131l220 10v-510z" />
<glyph unicode="&#xed;" horiz-adv-x="317" d="M287 720q-76 -106 -190 -175l-60 36q54 94 98 206zM265 0h-210v369l-10 131l220 10v-510z" />
<glyph unicode="&#xee;" horiz-adv-x="317" d="M78 554l-54 24q30 86 55 185l158 10q29 -119 59 -195l-54 -24q-39 37 -84 102q-38 -60 -80 -102zM265 0h-210v369l-10 131l220 10v-510z" />
<glyph unicode="&#xef;" horiz-adv-x="317" d="M144 675q0 -47 -30 -71.5t-75 -24.5q-41 0 -64.5 20t-23.5 60q0 44 29 72t76 28q40 0 64 -21.5t24 -62.5zM369 675q0 -47 -30 -71.5t-76 -24.5q-40 0 -63.5 20t-23.5 60q0 44 29.5 72t76.5 28q40 0 63.5 -21.5t23.5 -62.5zM265 0h-210v369l-10 131l220 10v-510z" />
<glyph unicode="&#xf0;" horiz-adv-x="565" d="M145 760q108 -29 187 -87l147 69l36 -77l-112 -52q132 -137 132 -332q0 -139 -70 -215t-193 -76q-110 0 -178.5 61t-68.5 177q0 120 71 183t169 63q12 0 26 -2q-18 38 -45 69l-146 -68l-34 76l117 55q-42 35 -94 60zM240 230q0 -66 8 -98t34 -32q22 0 30 29t8 108 q0 75 -8 101t-31 26q-24 0 -32.5 -28t-8.5 -106z" />
<glyph unicode="&#xf1;" horiz-adv-x="597" d="M240 753q35 0 81.5 -26t68.5 -26q17 0 27.5 12t24.5 40l47 -9q-3 -69 -30 -118t-77 -49q-30 0 -82.5 26t-70.5 26q-29 0 -52 -52l-47 9q3 70 29 118.5t81 48.5zM265 0h-210v370l-10 130l220 10v-93q19 43 60 68t94 25q56 0 91 -36.5t35 -107.5v-366h-210v320q0 43 -35 43 q-16 0 -35 -7v-356z" />
<glyph unicode="&#xf2;" horiz-adv-x="560" d="M407 581l-60 -36q-114 69 -190 175l152 67q44 -112 98 -206zM535 254q0 -130 -74 -197t-187 -67q-111 0 -180 65.5t-69 190.5q0 130 74 197t187 67q111 0 180 -65.5t69 -190.5zM240 248q0 -75 8 -111.5t34 -36.5q22 0 30 32.5t8 122.5q0 85 -8 115t-31 30 q-24 0 -32.5 -31.5t-8.5 -120.5z" />
<glyph unicode="&#xf3;" horiz-adv-x="560" d="M407 720q-76 -106 -190 -175l-60 36q54 94 98 206zM535 254q0 -130 -74 -197t-187 -67q-111 0 -180 65.5t-69 190.5q0 130 74 197t187 67q111 0 180 -65.5t69 -190.5zM240 248q0 -75 8 -111.5t34 -36.5q22 0 30 32.5t8 122.5q0 85 -8 115t-31 30q-24 0 -32.5 -31.5 t-8.5 -120.5z" />
<glyph unicode="&#xf4;" horiz-adv-x="560" d="M173 555l-67 36q54 88 93 173l158 10q49 -112 97 -183l-67 -36q-59 43 -109 102q-48 -59 -105 -102zM535 254q0 -130 -74 -197t-187 -67q-111 0 -180 65.5t-69 190.5q0 130 74 197t187 67q111 0 180 -65.5t69 -190.5zM240 248q0 -75 8 -111.5t34 -36.5q22 0 30 32.5 t8 122.5q0 85 -8 115t-31 30q-24 0 -32.5 -31.5t-8.5 -120.5z" />
<glyph unicode="&#xf5;" horiz-adv-x="560" d="M210 753q35 0 81.5 -26t68.5 -26q17 0 27.5 12t24.5 40l47 -9q-3 -69 -30 -118t-77 -49q-30 0 -82.5 26t-70.5 26q-29 0 -52 -52l-47 9q3 70 29 118.5t81 48.5zM535 254q0 -130 -74 -197t-187 -67q-111 0 -180 65.5t-69 190.5q0 130 74 197t187 67q111 0 180 -65.5 t69 -190.5zM240 248q0 -75 8 -111.5t34 -36.5q22 0 30 32.5t8 122.5q0 85 -8 115t-31 30q-24 0 -32.5 -31.5t-8.5 -120.5z" />
<glyph unicode="&#xf6;" horiz-adv-x="560" d="M245 669q0 -44 -31 -68t-78 -24q-42 0 -66.5 19t-24.5 57q0 43 30 69.5t79 26.5q42 0 66.5 -20.5t24.5 -59.5zM516 669q0 -44 -31.5 -68t-78.5 -24q-42 0 -66 19t-24 57q0 43 29.5 69.5t78.5 26.5q42 0 67 -20.5t25 -59.5zM535 254q0 -130 -74 -197t-187 -67 q-111 0 -180 65.5t-69 190.5q0 130 74 197t187 67q111 0 180 -65.5t69 -190.5zM240 248q0 -75 8 -111.5t34 -36.5q22 0 30 32.5t8 122.5q0 85 -8 115t-31 30q-24 0 -32.5 -31.5t-8.5 -120.5z" />
<glyph unicode="&#xf7;" horiz-adv-x="599" d="M386 534q0 -41 -27.5 -68.5t-68.5 -27.5q-33 0 -55 22t-22 54q0 40 28.5 67.5t69.5 27.5q32 0 53.5 -21t21.5 -54zM510 256h-430v132q145 6 431 6zM386 137q0 -41 -27.5 -68t-68.5 -27q-33 0 -55 22t-22 53q0 40 28.5 68t69.5 28q32 0 53.5 -21.5t21.5 -54.5z" />
<glyph unicode="&#xf8;" horiz-adv-x="560" d="M535 254q0 -130 -74 -197t-187 -67q-84 0 -146 38l-53 -57l-59 56l54 58q-45 62 -45 161q0 130 74 197t187 67q84 0 145 -38l53 57l60 -55l-54 -58q45 -64 45 -162zM281 400q-23 0 -31.5 -28t-9.5 -105l76 82q-4 28 -12 39.5t-23 11.5zM282 100q20 0 28.5 29t9.5 105 l-75 -81q8 -53 37 -53z" />
<glyph unicode="&#xf9;" horiz-adv-x="588" d="M428 581l-60 -36q-114 69 -190 175l152 67q44 -112 98 -206zM52 124v376l210 10v-363q0 -43 35 -43q12 0 29 5v391l210 10v-357q0 -89 20 -153l-200 -10q-20 43 -28 90q-22 -39 -62.5 -64.5t-91.5 -25.5q-58 0 -90 35t-32 99z" />
<glyph unicode="&#xfa;" horiz-adv-x="588" d="M428 720q-76 -106 -190 -175l-60 36q54 94 98 206zM52 124v376l210 10v-363q0 -43 35 -43q12 0 29 5v391l210 10v-357q0 -89 20 -153l-200 -10q-20 43 -28 90q-22 -39 -62.5 -64.5t-91.5 -25.5q-58 0 -90 35t-32 99z" />
<glyph unicode="&#xfb;" horiz-adv-x="588" d="M194 555l-67 36q54 88 93 173l158 10q49 -112 97 -183l-67 -36q-59 43 -109 102q-48 -59 -105 -102zM52 124v376l210 10v-363q0 -43 35 -43q12 0 29 5v391l210 10v-357q0 -89 20 -153l-200 -10q-20 43 -28 90q-22 -39 -62.5 -64.5t-91.5 -25.5q-58 0 -90 35t-32 99z" />
<glyph unicode="&#xfc;" horiz-adv-x="588" d="M266 669q0 -44 -31 -68t-78 -24q-42 0 -66.5 19t-24.5 57q0 43 30 69.5t79 26.5q42 0 66.5 -20.5t24.5 -59.5zM537 669q0 -44 -31.5 -68t-78.5 -24q-42 0 -66 19t-24 57q0 43 29.5 69.5t78.5 26.5q42 0 67 -20.5t25 -59.5zM52 124v376l210 10v-363q0 -43 35 -43 q12 0 29 5v391l210 10v-357q0 -89 20 -153l-200 -10q-20 43 -28 90q-22 -39 -62.5 -64.5t-91.5 -25.5q-58 0 -90 35t-32 99z" />
<glyph unicode="&#xfd;" horiz-adv-x="550" d="M402 720q-76 -106 -190 -175l-60 36q54 94 98 206zM107 -195q-76 0 -137 14v155q80 -18 161 -18q64 0 114.5 18t59.5 50h-197l-91 476l219 10l53 -400h2l40 400l199 -10q-18 -129 -50.5 -278.5t-57.5 -221.5q-39 -110 -110.5 -152.5t-204.5 -42.5z" />
<glyph unicode="&#xfe;" horiz-adv-x="583" d="M55 555l-10 130l220 10v-255q19 31 53.5 50.5t74.5 19.5q72 0 118.5 -65.5t46.5 -181.5q0 -133 -62 -203t-156 -70q-40 0 -75 14v-59q0 -69 10 -130l-220 -10v750zM289 400q-13 0 -24 -6v-293q6 -1 17 -1q37 0 49 31t12 122q0 35 -1.5 58t-7 45t-16.5 33t-29 11z" />
<glyph unicode="&#xff;" horiz-adv-x="550" d="M240 669q0 -44 -31 -68t-78 -24q-42 0 -66.5 19t-24.5 57q0 43 30 69.5t79 26.5q42 0 66.5 -20.5t24.5 -59.5zM511 669q0 -44 -31.5 -68t-78.5 -24q-42 0 -66 19t-24 57q0 43 29.5 69.5t78.5 26.5q42 0 67 -20.5t25 -59.5zM107 -195q-76 0 -137 14v155q80 -18 161 -18 q64 0 114.5 18t59.5 50h-197l-91 476l219 10l53 -400h2l40 400l199 -10q-18 -129 -50.5 -278.5t-57.5 -221.5q-39 -110 -110.5 -152.5t-204.5 -42.5z" />
<glyph unicode="&#x100;" horiz-adv-x="677" d="M174 750v110h330v-110h-330zM220 0h-195l154 520l33 131l262 9l178 -660h-206l-28 125h-170zM333 503l-62 -278h125l-61 278h-2z" />
<glyph unicode="&#x101;" horiz-adv-x="549" d="M126 602v120h290v-120h-290zM314 -10q-14 30 -24 77q-19 -34 -56.5 -55.5t-88.5 -21.5q-59 0 -92 34.5t-33 88.5q0 82 71 122.5t198 40.5v14q1 33 -19.5 49t-61.5 16q-65 0 -145 -41l-11 159q111 37 224 37q110 0 166.5 -48t56.5 -155q0 -17 -2.5 -73t-2.5 -81 q0 -89 20 -153zM230 161q0 -29 10.5 -45t26.5 -16q13 0 19 6l2 127q-58 -6 -58 -72z" />
<glyph unicode="&#x102;" horiz-adv-x="677" d="M333 710q-67 0 -111.5 47.5t-48.5 126.5l70 10q17 -66 96 -66q78 0 96 65l69 9q-4 -85 -50 -138.5t-121 -53.5zM220 0h-195l154 520l33 131l262 9l178 -660h-206l-28 125h-170zM333 503l-62 -278h125l-61 278h-2z" />
<glyph unicode="&#x103;" horiz-adv-x="549" d="M267 554q-66 0 -108 55.5t-46 147.5l70 10q7 -45 31 -71.5t57 -26.5t57 27.5t31 69.5l69 9q-4 -97 -47.5 -159t-113.5 -62zM314 -10q-14 30 -24 77q-19 -34 -56.5 -55.5t-88.5 -21.5q-59 0 -92 34.5t-33 88.5q0 82 71 122.5t198 40.5v14q1 33 -19.5 49t-61.5 16 q-65 0 -145 -41l-11 159q111 37 224 37q110 0 166.5 -48t56.5 -155q0 -17 -2.5 -73t-2.5 -81q0 -89 20 -153zM230 161q0 -29 10.5 -45t26.5 -16q13 0 19 6l2 127q-58 -6 -58 -72z" />
<glyph unicode="&#x104;" horiz-adv-x="677" d="M220 0h-195l154 520l33 131l262 9l178 -660q-41 -18 -67 -45t-26 -52q0 -33 41 -33q18 0 47 9l18 -52q-53 -49 -137 -49q-50 0 -79.5 20t-29.5 60q0 43 34.5 80t96.5 62h-104l-28 125h-170zM333 503l-62 -278h125l-61 278h-2z" />
<glyph unicode="&#x105;" horiz-adv-x="549" d="M314 -10q-14 30 -24 77q-19 -34 -56.5 -55.5t-88.5 -21.5q-59 0 -92 34.5t-33 88.5q0 82 71 122.5t198 40.5v14q1 33 -19.5 49t-61.5 16q-65 0 -145 -41l-11 159q111 37 224 37q110 0 166.5 -48t56.5 -155q0 -17 -2.5 -73t-2.5 -81q0 -89 20 -153q-41 -18 -67 -45 t-26 -52q0 -33 41 -33q18 0 47 9l18 -52q-53 -49 -137 -49q-50 0 -79.5 20t-29.5 60q0 83 118 136zM230 161q0 -29 10.5 -45t26.5 -16q13 0 19 6l2 127q-58 -6 -58 -72z" />
<glyph unicode="&#x106;" horiz-adv-x="561" d="M482 799q-103 -65 -253 -88l-48 50q144 97 204 147zM508 167l25 -145q-85 -32 -180 -32q-154 0 -238.5 86.5t-84.5 238.5q0 158 88 251.5t234 93.5q101 0 184 -36l-27 -154q-59 35 -127 35q-66 0 -94 -45t-28 -131t30.5 -131.5t109.5 -45.5q59 0 108 15z" />
<glyph unicode="&#x107;" horiz-adv-x="463" d="M385 720q-76 -106 -190 -175l-60 36q54 94 98 206zM438 484l-16 -163q-52 44 -102 44q-35 0 -57.5 -27.5t-22.5 -86.5q0 -112 96 -112q43 0 95 19l-2 -139q-44 -29 -136 -29q-114 0 -191 66.5t-77 193.5t78 193.5t195 66.5q74 0 140 -26z" />
<glyph unicode="&#x108;" horiz-adv-x="561" d="M200 704l-54 40q61 76 105 155l158 10q49 -93 109 -165l-54 -40q-78 45 -134 95q-58 -52 -130 -95zM508 167l25 -145q-85 -32 -180 -32q-154 0 -238.5 86.5t-84.5 238.5q0 158 88 251.5t234 93.5q101 0 184 -36l-27 -154q-59 35 -127 35q-66 0 -94 -45t-28 -131 t30.5 -131.5t109.5 -45.5q59 0 108 15z" />
<glyph unicode="&#x109;" horiz-adv-x="463" d="M151 555l-67 36q54 88 93 173l158 10q49 -112 97 -183l-67 -36q-59 43 -109 102q-48 -59 -105 -102zM438 484l-16 -163q-52 44 -102 44q-35 0 -57.5 -27.5t-22.5 -86.5q0 -112 96 -112q43 0 95 19l-2 -139q-44 -29 -136 -29q-114 0 -191 66.5t-77 193.5t78 193.5 t195 66.5q74 0 140 -26z" />
<glyph unicode="&#x10a;" horiz-adv-x="561" d="M446 811q0 -47 -36 -73t-88 -26q-47 0 -75.5 21.5t-28.5 61.5q0 44 34.5 73t89.5 29q47 0 75.5 -22.5t28.5 -63.5zM508 167l25 -145q-85 -32 -180 -32q-154 0 -238.5 86.5t-84.5 238.5q0 158 88 251.5t234 93.5q101 0 184 -36l-27 -154q-59 35 -127 35q-66 0 -94 -45 t-28 -131t30.5 -131.5t109.5 -45.5q59 0 108 15z" />
<glyph unicode="&#x10b;" horiz-adv-x="463" d="M372 670q0 -47 -36 -73t-88 -26q-47 0 -75.5 21.5t-28.5 61.5q0 44 34.5 73t89.5 29q47 0 75.5 -22.5t28.5 -63.5zM438 484l-16 -163q-52 44 -102 44q-35 0 -57.5 -27.5t-22.5 -86.5q0 -112 96 -112q43 0 95 19l-2 -139q-44 -29 -136 -29q-114 0 -191 66.5t-77 193.5 t78 193.5t195 66.5q74 0 140 -26z" />
<glyph unicode="&#x10c;" horiz-adv-x="561" d="M464 910l54 -40q-61 -76 -105 -155l-158 -10q-49 93 -109 165l54 40q78 -45 134 -95q58 52 130 95zM508 167l25 -145q-85 -32 -180 -32q-154 0 -238.5 86.5t-84.5 238.5q0 158 88 251.5t234 93.5q101 0 184 -36l-27 -154q-59 35 -127 35q-66 0 -94 -45t-28 -131 t30.5 -131.5t109.5 -45.5q59 0 108 15z" />
<glyph unicode="&#x10d;" horiz-adv-x="463" d="M365 776l67 -36q-54 -88 -93 -173l-158 -10q-49 112 -97 183l67 36q59 -43 109 -102q48 58 105 102zM438 484l-16 -163q-52 44 -102 44q-35 0 -57.5 -27.5t-22.5 -86.5q0 -112 96 -112q43 0 95 19l-2 -139q-44 -29 -136 -29q-114 0 -191 66.5t-77 193.5t78 193.5 t195 66.5q74 0 140 -26z" />
<glyph unicode="&#x10e;" horiz-adv-x="659" d="M462 910l54 -40q-61 -76 -105 -155l-158 -10q-49 93 -109 165l54 40q78 -45 134 -95q58 52 130 95zM60 520l-10 130h278q142 0 221.5 -87t79.5 -234q0 -158 -89 -243.5t-230 -85.5h-250v520zM300 525h-30v-400h31q56 0 77 52t21 148q0 95 -21 147.5t-78 52.5z" />
<glyph unicode="&#x10f;" horiz-adv-x="580" d="M760 761q-38 -129 -119 -230l-68 13q18 107 21 227zM346 -10q-12 26 -22 69q-19 -31 -55 -50t-78 -19q-74 0 -120 67t-46 180q0 133 62 203t156 70q40 0 75 -14v59l-10 130l220 10v-535q0 -96 20 -160zM240 247q0 -35 1.5 -58t7 -45t16.5 -33t29 -11q14 0 24 6v293 q-6 1 -17 1q-37 0 -49 -31t-12 -122z" />
<glyph unicode="&#x110;" horiz-adv-x="659" d="M60 520l-10 130h278q142 0 221.5 -87t79.5 -234q0 -158 -89 -243.5t-230 -85.5h-250v285h-54v80h54v155zM353 285h-83v-160h31q56 0 77 52t21 148q0 95 -21 147.5t-78 52.5h-30v-160h83v-80z" />
<glyph unicode="&#x111;" horiz-adv-x="580" d="M346 -10q-12 26 -22 69q-19 -31 -55 -50t-78 -19q-74 0 -120 67t-46 180q0 133 62 203t156 70q40 0 75 -14v53h-115v80h109l-4 56l220 10v-66h61v-80h-61v-389q0 -96 20 -160zM240 247q0 -35 1.5 -58t7 -45t16.5 -33t29 -11q14 0 24 6v293q-6 1 -17 1q-37 0 -49 -31 t-12 -122z" />
<glyph unicode="&#x112;" horiz-adv-x="520" d="M95 750v110h330v-110h-330zM485 0h-425v511l-10 139h420l-10 -130l-190 10v-150l170 5l-10 -120l-160 5v-150l215 10v-130z" />
<glyph unicode="&#x113;" horiz-adv-x="540" d="M143 602v120h290v-120h-290zM488 19q-60 -29 -173 -29q-130 0 -210 66t-80 194q0 126 75 193t187 67q100 0 161.5 -53t61.5 -138q0 -35 -9 -74l-15 -18h-240q9 -46 38.5 -67t88.5 -21q61 0 117 18zM240 297v-17l68 6q3 26 3 45q0 73 -32 73q-39 0 -39 -107z" />
<glyph unicode="&#x114;" horiz-adv-x="520" d="M254 710q-67 0 -111.5 47.5t-48.5 126.5l70 10q17 -66 96 -66q78 0 96 65l69 9q-4 -85 -50 -138.5t-121 -53.5zM485 0h-425v511l-10 139h420l-10 -130l-190 10v-150l170 5l-10 -120l-160 5v-150l215 10v-130z" />
<glyph unicode="&#x115;" horiz-adv-x="540" d="M284 554q-66 0 -108 55.5t-46 147.5l70 10q7 -45 31 -71.5t57 -26.5t57 27.5t31 69.5l69 9q-4 -97 -47.5 -159t-113.5 -62zM488 19q-60 -29 -173 -29q-130 0 -210 66t-80 194q0 126 75 193t187 67q100 0 161.5 -53t61.5 -138q0 -35 -9 -74l-15 -18h-240q9 -46 38.5 -67 t88.5 -21q61 0 117 18zM240 297v-17l68 6q3 26 3 45q0 73 -32 73q-39 0 -39 -107z" />
<glyph unicode="&#x116;" horiz-adv-x="520" d="M374 811q0 -47 -36 -73t-88 -26q-47 0 -75.5 21.5t-28.5 61.5q0 44 34.5 73t89.5 29q47 0 75.5 -22.5t28.5 -63.5zM485 0h-425v511l-10 139h420l-10 -130l-190 10v-150l170 5l-10 -120l-160 5v-150l215 10v-130z" />
<glyph unicode="&#x117;" horiz-adv-x="540" d="M402 670q0 -47 -36 -73t-88 -26q-47 0 -75.5 21.5t-28.5 61.5q0 44 34.5 73t89.5 29q47 0 75.5 -22.5t28.5 -63.5zM488 19q-60 -29 -173 -29q-130 0 -210 66t-80 194q0 126 75 193t187 67q100 0 161.5 -53t61.5 -138q0 -35 -9 -74l-15 -18h-240q9 -46 38.5 -67t88.5 -21 q61 0 117 18zM240 297v-17l68 6q3 26 3 45q0 73 -32 73q-39 0 -39 -107z" />
<glyph unicode="&#x118;" horiz-adv-x="520" d="M485 0q-41 -18 -67 -45t-26 -52q0 -33 41 -33q19 0 47 9l18 -52q-53 -49 -137 -49q-50 0 -79.5 20t-29.5 60q0 43 34.5 80t96.5 62h-323v511l-10 139h420l-10 -130l-190 10v-150l170 5l-10 -120l-160 5v-150l215 10v-130z" />
<glyph unicode="&#x119;" horiz-adv-x="540" d="M483 -173q-53 -49 -137 -49q-50 0 -79.5 20t-29.5 60q0 77 104 133q-9 -1 -26 -1q-130 0 -210 66t-80 194q0 126 75 193t187 67q100 0 161.5 -53t61.5 -138q0 -35 -9 -74l-15 -18h-240q9 -46 38.5 -67t88.5 -21q61 0 117 18l-2 -138q-4 -2 -5 -2q-47 -23 -76.5 -54.5 t-29.5 -59.5q0 -33 41 -33q18 0 47 9zM240 297v-17l68 6q3 26 3 45q0 73 -32 73q-39 0 -39 -107z" />
<glyph unicode="&#x11a;" horiz-adv-x="520" d="M392 910l54 -40q-61 -76 -105 -155l-158 -10q-49 93 -109 165l54 40q78 -45 134 -95q58 52 130 95zM485 0h-425v511l-10 139h420l-10 -130l-190 10v-150l170 5l-10 -120l-160 5v-150l215 10v-130z" />
<glyph unicode="&#x11b;" horiz-adv-x="540" d="M395 776l67 -36q-54 -88 -93 -173l-158 -10q-49 112 -97 183l67 36q59 -43 109 -102q48 58 105 102zM488 19q-60 -29 -173 -29q-130 0 -210 66t-80 194q0 126 75 193t187 67q100 0 161.5 -53t61.5 -138q0 -35 -9 -74l-15 -18h-240q9 -46 38.5 -67t88.5 -21q61 0 117 18z M240 297v-17l68 6q3 26 3 45q0 73 -32 73q-39 0 -39 -107z" />
<glyph unicode="&#x11c;" d="M219 704l-54 40q61 76 105 155l158 10q49 -93 109 -165l-54 -40q-78 45 -134 95q-58 -52 -130 -95zM575 22q-102 -32 -213 -32q-157 0 -244.5 86t-87.5 239q0 159 94 252t246 93q109 0 196 -40l-27 -155q-64 40 -139 40q-140 0 -140 -180q0 -183 135 -197v57l-10 130 l190 10v-303z" />
<glyph unicode="&#x11d;" horiz-adv-x="542" d="M164 555l-67 36q54 88 93 173l158 10q49 -112 97 -183l-67 -36q-59 43 -109 102q-48 -59 -105 -102zM80 65q0 34 26.5 60t77.5 39q-167 23 -167 162q0 85 62 134.5t167 49.5q185 0 281 10v-122l-111 10l-1 -2q41 -9 61.5 -36.5t20.5 -65.5q0 -71 -67 -107.5t-177 -36.5 h-14q-3 -6 -3 -12q0 -27 41 -27l82 -2q178 -5 178 -138q0 -171 -305 -171q-227 0 -227 93q0 38 34 59t87 26q-46 30 -46 77zM222 324q0 -86 37 -86q33 0 33 82q0 83 -36 83q-34 0 -34 -79zM205 -57q0 -34 17 -53.5t50 -19.5t54.5 15.5t21.5 40.5q0 41 -59 41h-82 q-2 -14 -2 -24z" />
<glyph unicode="&#x11e;" d="M345 710q-67 0 -111.5 47.5t-48.5 126.5l70 10q17 -66 96 -66q78 0 96 65l69 9q-4 -85 -50 -138.5t-121 -53.5zM575 22q-102 -32 -213 -32q-157 0 -244.5 86t-87.5 239q0 159 94 252t246 93q109 0 196 -40l-27 -155q-64 40 -139 40q-140 0 -140 -180q0 -183 135 -197v57 l-10 130l190 10v-303z" />
<glyph unicode="&#x11f;" horiz-adv-x="542" d="M267 554q-66 0 -108 55.5t-46 147.5l70 10q7 -45 31 -71.5t57 -26.5t57 27.5t31 69.5l69 9q-4 -97 -47.5 -159t-113.5 -62zM80 65q0 34 26.5 60t77.5 39q-167 23 -167 162q0 85 62 134.5t167 49.5q185 0 281 10v-122l-111 10l-1 -2q41 -9 61.5 -36.5t20.5 -65.5 q0 -71 -67 -107.5t-177 -36.5h-14q-3 -6 -3 -12q0 -27 41 -27l82 -2q178 -5 178 -138q0 -171 -305 -171q-227 0 -227 93q0 38 34 59t87 26q-46 30 -46 77zM222 324q0 -86 37 -86q33 0 33 82q0 83 -36 83q-34 0 -34 -79zM205 -57q0 -34 17 -53.5t50 -19.5t54.5 15.5 t21.5 40.5q0 41 -59 41h-82q-2 -14 -2 -24z" />
<glyph unicode="&#x120;" d="M465 811q0 -47 -36 -73t-88 -26q-47 0 -75.5 21.5t-28.5 61.5q0 44 34.5 73t89.5 29q47 0 75.5 -22.5t28.5 -63.5zM575 22q-102 -32 -213 -32q-157 0 -244.5 86t-87.5 239q0 159 94 252t246 93q109 0 196 -40l-27 -155q-64 40 -139 40q-140 0 -140 -180q0 -183 135 -197 v57l-10 130l190 10v-303z" />
<glyph unicode="&#x121;" horiz-adv-x="542" d="M385 670q0 -47 -36 -73t-88 -26q-47 0 -75.5 21.5t-28.5 61.5q0 44 34.5 73t89.5 29q47 0 75.5 -22.5t28.5 -63.5zM80 65q0 34 26.5 60t77.5 39q-167 23 -167 162q0 85 62 134.5t167 49.5q185 0 281 10v-122l-111 10l-1 -2q41 -9 61.5 -36.5t20.5 -65.5q0 -71 -67 -107.5 t-177 -36.5h-14q-3 -6 -3 -12q0 -27 41 -27l82 -2q178 -5 178 -138q0 -171 -305 -171q-227 0 -227 93q0 38 34 59t87 26q-46 30 -46 77zM222 324q0 -86 37 -86q33 0 33 82q0 83 -36 83q-34 0 -34 -79zM205 -57q0 -34 17 -53.5t50 -19.5t54.5 15.5t21.5 40.5q0 41 -59 41h-82 q-2 -14 -2 -24z" />
<glyph unicode="&#x122;" d="M575 22q-102 -32 -213 -32q-157 0 -244.5 86t-87.5 239q0 159 94 252t246 93q109 0 196 -40l-27 -155q-64 40 -139 40q-140 0 -140 -180q0 -183 135 -197v57l-10 130l190 10v-303zM434 -152q0 -51 -33.5 -102t-74.5 -80l-45 19q27 41 38 87q-29 6 -47 26t-18 54 q0 41 26.5 66.5t65.5 25.5q40 0 64 -26.5t24 -69.5z" />
<glyph unicode="&#x123;" horiz-adv-x="542" d="M172 654q0 51 33.5 102t74.5 80l45 -19q-27 -41 -38 -87q29 -6 47 -26t18 -54q0 -41 -26.5 -66.5t-65.5 -25.5q-40 0 -64 26.5t-24 69.5zM80 65q0 34 26.5 60t77.5 39q-167 23 -167 162q0 85 62 134.5t167 49.5q185 0 281 10v-122l-111 10l-1 -2q41 -9 61.5 -36.5 t20.5 -65.5q0 -71 -67 -107.5t-177 -36.5h-14q-3 -6 -3 -12q0 -27 41 -27l82 -2q178 -5 178 -138q0 -171 -305 -171q-227 0 -227 93q0 38 34 59t87 26q-46 30 -46 77zM222 324q0 -86 37 -86q33 0 33 82q0 83 -36 83q-34 0 -34 -79zM205 -57q0 -34 17 -53.5t50 -19.5 t54.5 15.5t21.5 40.5q0 41 -59 41h-82q-2 -14 -2 -24z" />
<glyph unicode="&#x124;" horiz-adv-x="685" d="M211 704l-54 40q61 76 105 155l158 10q49 -93 109 -165l-54 -40q-78 45 -134 95q-58 -52 -130 -95zM270 0h-210v520l-10 130l220 10v-303h145v163l-10 130l220 11v-661h-210v252h-145v-252z" />
<glyph unicode="&#x125;" horiz-adv-x="597" d="M25 704l-54 40q61 76 105 155l158 10q49 -93 109 -165l-54 -40q-78 45 -134 95q-58 -52 -130 -95zM265 0h-210v555l-10 130l220 10v-279q19 44 59.5 69t91.5 25q58 0 93.5 -36.5t35.5 -107.5v-366h-210v320q0 43 -35 43q-16 0 -35 -7v-356z" />
<glyph unicode="&#x126;" horiz-adv-x="685" d="M270 0h-210v454h-52v80h51l-9 116l220 10v-126h144l-9 116l220 11v-127h53v-80h-53v-454h-210v252h-145v-252zM270 357h145v97h-145v-97z" />
<glyph unicode="&#x127;" horiz-adv-x="597" d="M265 0h-210v548h-58v80h52l-4 57l220 10v-67h118v-80h-118v-132q19 44 59.5 69t91.5 25q58 0 93.5 -36.5t35.5 -107.5v-366h-210v320q0 43 -35 43q-16 0 -35 -7v-356z" />
<glyph unicode="&#x128;" horiz-adv-x="330" d="M100 889q32 0 75.5 -21t63.5 -21q19 0 30.5 10.5t27.5 36.5l44 -9q-2 -67 -30 -114.5t-79 -47.5q-28 0 -76.5 21t-65.5 21q-32 0 -58 -47l-44 9q3 68 30 115t82 47zM270 0h-210v520l-10 130l220 10v-660z" />
<glyph unicode="&#x129;" horiz-adv-x="317" d="M110 756q26 0 56 -23.5t42 -23.5q29 0 44 48l54 -9q-2 -78 -26 -127t-68 -49q-26 0 -57.5 23.5t-43.5 23.5q-29 0 -44 -48l-54 9q2 78 27.5 127t69.5 49zM265 0h-210v369l-10 131l220 10v-510z" />
<glyph unicode="&#x12a;" horiz-adv-x="330" d="M0 750v110h330v-110h-330zM270 0h-210v520l-10 130l220 10v-660z" />
<glyph unicode="&#x12b;" horiz-adv-x="317" d="M46 602v120h246v-120h-246zM265 0h-210v369l-10 131l220 10v-510z" />
<glyph unicode="&#x12c;" horiz-adv-x="330" d="M159 710q-67 0 -111.5 47.5t-48.5 126.5l70 10q17 -66 96 -66q78 0 96 65l69 9q-4 -85 -50 -138.5t-121 -53.5zM270 0h-210v520l-10 130l220 10v-660z" />
<glyph unicode="&#x12d;" horiz-adv-x="317" d="M156 554q-61 0 -97.5 55t-36.5 148l72 10q4 -40 22 -63.5t44 -23.5t44 24.5t22 61.5l71 9q0 -98 -38 -159.5t-103 -61.5zM265 0h-210v369l-10 131l220 10v-510z" />
<glyph unicode="&#x12e;" horiz-adv-x="356" d="M283 0q-41 -18 -67 -45t-26 -52q0 -33 41 -33q19 0 47 9l18 -52q-53 -49 -137 -49q-50 0 -79.5 20t-29.5 60q0 43 34.5 80t96.5 62h-108v520l-10 130l220 10v-660z" />
<glyph unicode="&#x12f;" horiz-adv-x="334" d="M287 670q0 -47 -36 -73t-88 -26q-47 0 -75.5 21.5t-28.5 61.5q0 44 34.5 73t89.5 29q47 0 75.5 -22.5t28.5 -63.5zM278 0q-41 -18 -67 -45t-26 -52q0 -33 41 -33q18 0 47 9l18 -52q-52 -49 -137 -49q-50 0 -79.5 20t-29.5 60q0 43 34.5 80t96.5 62h-108v369l-10 131 l220 10v-510z" />
<glyph unicode="&#x130;" horiz-adv-x="330" d="M279 811q0 -47 -36 -73t-88 -26q-47 0 -75.5 21.5t-28.5 61.5q0 44 34.5 73t89.5 29q47 0 75.5 -22.5t28.5 -63.5zM270 0h-210v520l-10 130l220 10v-660z" />
<glyph unicode="&#x131;" horiz-adv-x="317" d="M265 0h-210v369l-10 131l220 10v-510z" />
<glyph unicode="&#x132;" horiz-adv-x="660" d="M270 0h-210v520l-10 130l220 10v-660zM300 -109q90 27 90 145v484l-10 130l220 10v-504q0 -88 -11 -145t-41 -104t-87 -71.5t-146 -30.5z" />
<glyph unicode="&#x133;" horiz-adv-x="634" d="M274 670q0 -47 -36 -73t-88 -26q-47 0 -75.5 21.5t-28.5 61.5q0 44 34.5 73t89.5 29q47 0 75.5 -22.5t28.5 -63.5zM591 670q0 -47 -36 -73t-88 -26q-47 0 -75.5 21.5t-28.5 61.5q0 44 34.5 73t89.5 29q47 0 75.5 -22.5t28.5 -63.5zM265 0h-210v369l-10 131l220 10v-510z M323 -120q49 79 49 240v249l-10 131l220 10v-350q0 -142 -46.5 -229.5t-168.5 -120.5z" />
<glyph unicode="&#x134;" horiz-adv-x="330" d="M33 704l-54 40q61 76 105 155l158 10q49 -93 109 -165l-54 -40q-78 45 -134 95q-58 -52 -130 -95zM-30 -109q90 27 90 145v484l-10 130l220 10v-504q0 -88 -11 -145t-41 -104t-87 -71.5t-146 -30.5z" />
<glyph unicode="&#x135;" horiz-adv-x="317" d="M78 554l-54 24q30 86 55 185l158 10q29 -119 59 -195l-54 -24q-39 37 -84 102q-38 -60 -80 -102zM6 -120q49 79 49 240v249l-10 131l220 10v-350q0 -142 -46.5 -229.5t-168.5 -120.5z" />
<glyph unicode="&#x136;" horiz-adv-x="649" d="M60 520l-10 130l220 10v-292h51l103 292l195 -10l-135 -331l145 -319l-219 -10l-90 273h-50v-263h-210v520zM415 -152q0 -51 -33.5 -102t-74.5 -80l-45 19q27 41 38 87q-29 6 -47 26t-18 54q0 41 26.5 66.5t65.5 25.5q40 0 64 -26.5t24 -69.5z" />
<glyph unicode="&#x137;" horiz-adv-x="579" d="M265 0h-210v555l-10 130l220 10v-406h18l82 221l215 -10l-119 -225l128 -275l-231 -10l-70 225h-23v-215zM392 -152q0 -51 -33.5 -102t-74.5 -80l-45 19q27 41 38 87q-29 6 -47 26t-18 54q0 41 26.5 66.5t65.5 25.5q40 0 64 -26.5t24 -69.5z" />
<glyph unicode="&#x138;" horiz-adv-x="574" d="M250 0h-210v370l-10 130l220 10v-221h18l82 221l215 -10l-119 -225l128 -275l-231 -10l-70 225h-23v-215z" />
<glyph unicode="&#x139;" horiz-adv-x="500" d="M306 799q-103 -65 -253 -88l-48 50q144 97 204 147zM480 0h-420v520l-10 130l220 10v-540l210 20v-140z" />
<glyph unicode="&#x13a;" horiz-adv-x="317" d="M310 800q-103 -65 -253 -88l-48 50q144 97 204 147zM265 0h-210v555l-10 130l220 10v-695z" />
<glyph unicode="&#x13b;" horiz-adv-x="500" d="M480 0h-420v520l-10 130l220 10v-540l210 20v-140zM340 -152q0 -51 -33.5 -102t-74.5 -80l-45 19q27 41 38 87q-29 6 -47 26t-18 54q0 41 26.5 66.5t65.5 25.5q40 0 64 -26.5t24 -69.5z" />
<glyph unicode="&#x13c;" horiz-adv-x="317" d="M265 0h-210v555l-10 130l220 10v-695zM250 -152q0 -51 -33.5 -102t-74.5 -80l-45 19q27 41 38 87q-29 6 -47 26t-18 54q0 41 26.5 66.5t65.5 25.5q40 0 64 -26.5t24 -69.5z" />
<glyph unicode="&#x13d;" horiz-adv-x="500" d="M505 698q-38 -129 -119 -230l-68 13q18 107 21 227zM480 0h-420v520l-10 130l220 10v-540l210 20v-140z" />
<glyph unicode="&#x13e;" horiz-adv-x="317" d="M485 731q-38 -129 -119 -230l-68 13q18 107 21 227zM265 0h-210v555l-10 130l220 10v-695z" />
<glyph unicode="&#x13f;" horiz-adv-x="591" d="M464 225q-39 0 -63.5 23t-24.5 59q0 39 28.5 65.5t68.5 26.5q36 0 59.5 -21.5t23.5 -56.5q0 -40 -26.5 -68t-65.5 -28zM480 0h-420v520l-10 130l220 10v-540l210 20v-140z" />
<glyph unicode="&#x140;" horiz-adv-x="578" d="M265 0h-210v555l-10 130l220 10v-695zM451 177q-39 0 -63.5 23t-24.5 59q0 39 28.5 65.5t68.5 26.5q36 0 59.5 -21.5t23.5 -56.5q0 -40 -26.5 -68t-65.5 -28z" />
<glyph unicode="&#x141;" horiz-adv-x="500" d="M480 0h-420v248l-58 -32l-40 74l98 54v176l-10 130l220 10v-199l91 50l41 -74l-132 -73v-244l210 20v-140z" />
<glyph unicode="&#x142;" horiz-adv-x="317" d="M265 0h-210v250l-56 -32l-40 74l96 54v209l-10 130l220 10v-229l59 33l41 -74l-100 -57v-368z" />
<glyph unicode="&#x143;" horiz-adv-x="665" d="M483 799q-103 -65 -253 -88l-48 50q144 97 204 147zM60 520l-10 130l159 10l244 -372h2l-15 362l165 10v-660h-170l-223 342h-2l15 -342h-165v520z" />
<glyph unicode="&#x144;" horiz-adv-x="597" d="M437 720q-76 -106 -190 -175l-60 36q54 94 98 206zM265 0h-210v370l-10 130l220 10v-93q19 43 60 68t94 25q56 0 91 -36.5t35 -107.5v-366h-210v320q0 43 -35 43q-16 0 -35 -7v-356z" />
<glyph unicode="&#x145;" horiz-adv-x="665" d="M60 520l-10 130l159 10l244 -372h2l-15 362l165 10v-660h-170l-223 342h-2l15 -342h-165v520zM423 -152q0 -51 -33.5 -102t-74.5 -80l-45 19q27 41 38 87q-29 6 -47 26t-18 54q0 41 26.5 66.5t65.5 25.5q40 0 64 -26.5t24 -69.5z" />
<glyph unicode="&#x146;" horiz-adv-x="597" d="M265 0h-210v370l-10 130l220 10v-93q19 43 60 68t94 25q56 0 91 -36.5t35 -107.5v-366h-210v320q0 43 -35 43q-16 0 -35 -7v-356zM389 -152q0 -51 -33.5 -102t-74.5 -80l-45 19q27 41 38 87q-29 6 -47 26t-18 54q0 41 26.5 66.5t65.5 25.5q40 0 64 -26.5t24 -69.5z" />
<glyph unicode="&#x147;" horiz-adv-x="665" d="M465 910l54 -40q-61 -76 -105 -155l-158 -10q-49 93 -109 165l54 40q78 -45 134 -95q58 52 130 95zM60 520l-10 130l159 10l244 -372h2l-15 362l165 10v-660h-170l-223 342h-2l15 -342h-165v520z" />
<glyph unicode="&#x148;" horiz-adv-x="597" d="M417 776l67 -36q-54 -88 -93 -173l-158 -10q-49 112 -97 183l67 36q59 -43 109 -102q48 58 105 102zM265 0h-210v370l-10 130l220 10v-93q19 43 60 68t94 25q56 0 91 -36.5t35 -107.5v-366h-210v320q0 43 -35 43q-16 0 -35 -7v-356z" />
<glyph unicode="&#x149;" horiz-adv-x="800" d="M221 603q0 -70 -53 -137.5t-117 -93.5l-26 31q60 54 80 120q-29 6 -46.5 26t-17.5 51q0 44 26 69.5t65 25.5q40 0 64.5 -26t24.5 -66zM468 0h-210v370l-10 130l220 10v-93q19 43 60 68t94 25q56 0 91 -36.5t35 -107.5v-366h-210v320q0 43 -35 43q-16 0 -35 -7v-356z" />
<glyph unicode="&#x14a;" horiz-adv-x="665" d="M305 -109q90 27 90 145v25l-183 281h-2l15 -342h-165v520l-10 130l159 10l244 -372h2l-15 362l165 10v-504q0 -88 -11 -145t-41 -104t-87 -71.5t-146 -30.5z" />
<glyph unicode="&#x14b;" horiz-adv-x="597" d="M265 0h-210v370l-10 130l220 10v-93q19 43 60 68t94 25q56 0 91 -36.5t35 -107.5v-206q0 -142 -46.5 -229.5t-168.5 -120.5l-44 70q49 79 49 240v200q0 43 -35 43q-16 0 -35 -7v-356z" />
<glyph unicode="&#x14c;" horiz-adv-x="655" d="M163 750v110h330v-110h-330zM625 329q0 -163 -85 -251t-221 -88q-135 0 -212 86t-77 239q0 159 84 252t223 93q136 0 212 -89.5t76 -241.5zM260 328q0 -203 71 -203q37 0 50.5 52t13.5 148t-14 148t-51 52q-70 0 -70 -197z" />
<glyph unicode="&#x14d;" horiz-adv-x="560" d="M135 602v120h290v-120h-290zM535 254q0 -130 -74 -197t-187 -67q-111 0 -180 65.5t-69 190.5q0 130 74 197t187 67q111 0 180 -65.5t69 -190.5zM240 248q0 -75 8 -111.5t34 -36.5q22 0 30 32.5t8 122.5q0 85 -8 115t-31 30q-24 0 -32.5 -31.5t-8.5 -120.5z" />
<glyph unicode="&#x14e;" horiz-adv-x="655" d="M322 710q-67 0 -111.5 47.5t-48.5 126.5l70 10q17 -66 96 -66q78 0 96 65l69 9q-4 -85 -50 -138.5t-121 -53.5zM625 329q0 -163 -85 -251t-221 -88q-135 0 -212 86t-77 239q0 159 84 252t223 93q136 0 212 -89.5t76 -241.5zM260 328q0 -203 71 -203q37 0 50.5 52 t13.5 148t-14 148t-51 52q-70 0 -70 -197z" />
<glyph unicode="&#x14f;" horiz-adv-x="560" d="M276 554q-66 0 -108 55.5t-46 147.5l70 10q7 -45 31 -71.5t57 -26.5t57 27.5t31 69.5l69 9q-4 -97 -47.5 -159t-113.5 -62zM535 254q0 -130 -74 -197t-187 -67q-111 0 -180 65.5t-69 190.5q0 130 74 197t187 67q111 0 180 -65.5t69 -190.5zM240 248q0 -75 8 -111.5 t34 -36.5q22 0 30 32.5t8 122.5q0 85 -8 115t-31 30q-24 0 -32.5 -31.5t-8.5 -120.5z" />
<glyph unicode="&#x150;" horiz-adv-x="655" d="M346 817q-101 -77 -249 -109l-31 39q141 115 190 164zM590 817q-101 -77 -249 -109l-31 39q141 115 190 164zM625 329q0 -163 -85 -251t-221 -88q-135 0 -212 86t-77 239q0 159 84 252t223 93q136 0 212 -89.5t76 -241.5zM260 328q0 -203 71 -203q37 0 50.5 52t13.5 148 t-14 148t-51 52q-70 0 -70 -197z" />
<glyph unicode="&#x151;" horiz-adv-x="560" d="M326 748q-45 -108 -138 -197l-60 19q51 136 69 206zM507 748q-45 -108 -138 -197l-60 19q51 136 69 206zM535 254q0 -130 -74 -197t-187 -67q-111 0 -180 65.5t-69 190.5q0 130 74 197t187 67q111 0 180 -65.5t69 -190.5zM240 248q0 -75 8 -111.5t34 -36.5q22 0 30 32.5 t8 122.5q0 85 -8 115t-31 30q-24 0 -32.5 -31.5t-8.5 -120.5z" />
<glyph unicode="&#x152;" horiz-adv-x="855" d="M765 265l-143 4q-11 -86 -47 -145l245 6v-130h-416q-39 -10 -85 -10q-135 0 -212 86t-77 239q0 159 84 252t223 93q46 0 83 -10h385l-10 -130l-215 6q34 -60 43 -145l152 4zM260 328q0 -203 71 -203q37 0 50.5 52t13.5 148t-14 148t-51 52q-70 0 -70 -197z" />
<glyph unicode="&#x153;" horiz-adv-x="834" d="M782 19q-60 -29 -171 -29q-109 0 -180 47q-65 -47 -157 -47q-111 0 -180 65.5t-69 190.5q0 130 73.5 197t184.5 67q89 0 148 -43q64 43 150 43q100 0 161.5 -53t61.5 -138q0 -35 -9 -74l-15 -18h-240q9 -46 38.5 -67t89.5 -21t116 18zM534 293v-13l68 6q3 26 3 45 q0 73 -32 73q-39 0 -39 -111zM240 246q0 -74 8 -110t34 -36q22 0 30 32.5t8 122.5q0 85 -8 115t-31 30q-24 0 -32.5 -32t-8.5 -122z" />
<glyph unicode="&#x154;" horiz-adv-x="616" d="M458 799q-103 -65 -253 -88l-48 50q144 97 204 147zM270 0h-210v520l-10 130h265q128 0 199.5 -59.5t71.5 -161.5q0 -129 -111 -189l126 -240l-223 -10l-73 212h-5h-30v-202zM293 535h-23v-219h23q45 0 61.5 29t16.5 81t-16.5 80.5t-61.5 28.5z" />
<glyph unicode="&#x155;" horiz-adv-x="431" d="M345 720q-76 -106 -190 -175l-60 36q54 94 98 206zM265 0h-210v370l-10 130l220 10v-149q10 59 40.5 104t74.5 45q25 0 41 -10l-13 -207q-33 7 -73 12q-43 5 -70 5v-310z" />
<glyph unicode="&#x156;" horiz-adv-x="616" d="M270 0h-210v520l-10 130h265q128 0 199.5 -59.5t71.5 -161.5q0 -129 -111 -189l126 -240l-223 -10l-73 212h-5h-30v-202zM293 535h-23v-219h23q45 0 61.5 29t16.5 81t-16.5 80.5t-61.5 28.5zM398 -152q0 -51 -33.5 -102t-74.5 -80l-45 19q27 41 38 87q-29 6 -47 26 t-18 54q0 41 26.5 66.5t65.5 25.5q40 0 64 -26.5t24 -69.5z" />
<glyph unicode="&#x157;" horiz-adv-x="431" d="M265 0h-210v370l-10 130l220 10v-149q10 59 40.5 104t74.5 45q25 0 41 -10l-13 -207q-33 7 -73 12q-43 5 -70 5v-310zM262 -152q0 -51 -33.5 -102t-74.5 -80l-45 19q27 41 38 87q-29 6 -47 26t-18 54q0 41 26.5 66.5t65.5 25.5q40 0 64 -26.5t24 -69.5z" />
<glyph unicode="&#x158;" horiz-adv-x="616" d="M440 910l54 -40q-61 -76 -105 -155l-158 -10q-49 93 -109 165l54 40q78 -45 134 -95q58 52 130 95zM270 0h-210v520l-10 130h265q128 0 199.5 -59.5t71.5 -161.5q0 -129 -111 -189l126 -240l-223 -10l-73 212h-5h-30v-202zM293 535h-23v-219h23q45 0 61.5 29t16.5 81 t-16.5 80.5t-61.5 28.5z" />
<glyph unicode="&#x159;" horiz-adv-x="431" d="M325 776l67 -36q-54 -88 -93 -173l-158 -10q-49 112 -97 183l67 36q59 -43 109 -102q48 58 105 102zM265 0h-210v370l-10 130l220 10v-149q10 59 40.5 104t74.5 45q25 0 41 -10l-13 -207q-33 7 -73 12q-43 5 -70 5v-310z" />
<glyph unicode="&#x15a;" horiz-adv-x="535" d="M440 799q-103 -65 -253 -88l-48 50q144 97 204 147zM505 187q0 -92 -69 -144.5t-184 -52.5q-52 0 -118 9.5t-104 25.5l30 178q94 -58 171 -58q23 0 36.5 9t13.5 24q0 17 -18 33.5t-45.5 29.5t-59 32.5t-59 42t-45.5 59t-18 81.5q0 95 73.5 149.5t185.5 54.5 q49 0 107 -9.5t94 -25.5l-38 -165q-81 45 -146 45q-52 0 -52 -36q0 -19 18 -36.5t45.5 -31t59 -33t59 -41t45.5 -58.5t18 -82z" />
<glyph unicode="&#x15b;" horiz-adv-x="494" d="M394 720q-76 -106 -190 -175l-60 36q54 94 98 206zM459 147q0 -72 -61 -114.5t-173 -42.5t-190 26l10 160q37 -20 86.5 -31.5t84.5 -11.5q38 0 38 19q0 8 -5 14t-15.5 11.5t-21.5 9.5t-29.5 11t-33.5 14q-107 49 -107 137q0 74 66.5 117.5t172.5 43.5q83 0 161 -26 l-10 -158q-90 41 -150 41q-35 0 -35 -21q0 -8 4.5 -14.5t15.5 -12l19 -9.5t25 -9.5t23 -8.5q125 -48 125 -145z" />
<glyph unicode="&#x15c;" horiz-adv-x="535" d="M158 704l-54 40q61 76 105 155l158 10q49 -93 109 -165l-54 -40q-78 45 -134 95q-58 -52 -130 -95zM505 187q0 -92 -69 -144.5t-184 -52.5q-52 0 -118 9.5t-104 25.5l30 178q94 -58 171 -58q23 0 36.5 9t13.5 24q0 17 -18 33.5t-45.5 29.5t-59 32.5t-59 42t-45.5 59 t-18 81.5q0 95 73.5 149.5t185.5 54.5q49 0 107 -9.5t94 -25.5l-38 -165q-81 45 -146 45q-52 0 -52 -36q0 -19 18 -36.5t45.5 -31t59 -33t59 -41t45.5 -58.5t18 -82z" />
<glyph unicode="&#x15d;" horiz-adv-x="494" d="M160 555l-67 36q54 88 93 173l158 10q49 -112 97 -183l-67 -36q-59 43 -109 102q-48 -59 -105 -102zM459 147q0 -72 -61 -114.5t-173 -42.5t-190 26l10 160q37 -20 86.5 -31.5t84.5 -11.5q38 0 38 19q0 8 -5 14t-15.5 11.5t-21.5 9.5t-29.5 11t-33.5 14q-107 49 -107 137 q0 74 66.5 117.5t172.5 43.5q83 0 161 -26l-10 -158q-90 41 -150 41q-35 0 -35 -21q0 -8 4.5 -14.5t15.5 -12l19 -9.5t25 -9.5t23 -8.5q125 -48 125 -145z" />
<glyph unicode="&#x15e;" horiz-adv-x="535" d="M245 -124q0 26 -48 38l28 77q-125 6 -195 34l30 178q94 -58 171 -58q23 0 36.5 9t13.5 24q0 17 -18 33.5t-45.5 29.5t-59 32.5t-59 42t-45.5 59t-18 81.5q0 95 73.5 149.5t185.5 54.5q49 0 107 -9.5t94 -25.5l-38 -165q-81 45 -146 45q-52 0 -52 -36q0 -19 18 -36.5 t45.5 -31t59 -33t59 -41t45.5 -58.5t18 -82q0 -86 -60 -137.5t-163 -58.5l-10 -26q59 -6 92.5 -28.5t33.5 -56.5q0 -48 -57 -75t-169 -27l-7 54q80 8 80 44z" />
<glyph unicode="&#x15f;" horiz-adv-x="494" d="M212 -124q0 26 -48 38l28 77q-96 5 -157 25l10 160q37 -20 86.5 -31.5t84.5 -11.5q38 0 38 19q0 8 -5 14t-15.5 11.5t-21.5 9.5t-29.5 11t-33.5 14q-107 49 -107 137q0 74 66.5 117.5t172.5 43.5q83 0 161 -26l-10 -158q-90 41 -150 41q-35 0 -35 -21q0 -8 4.5 -14.5 t15.5 -12l19 -9.5t25 -9.5t23 -8.5q125 -48 125 -145q0 -67 -55 -109.5t-156 -46.5l-9 -26q59 -6 92.5 -28.5t33.5 -56.5q0 -48 -57 -75t-169 -27l-7 54q80 8 80 44z" />
<glyph unicode="&#x160;" horiz-adv-x="535" d="M422 910l54 -40q-61 -76 -105 -155l-158 -10q-49 93 -109 165l54 40q78 -45 134 -95q58 52 130 95zM505 187q0 -92 -69 -144.5t-184 -52.5q-52 0 -118 9.5t-104 25.5l30 178q94 -58 171 -58q23 0 36.5 9t13.5 24q0 17 -18 33.5t-45.5 29.5t-59 32.5t-59 42t-45.5 59 t-18 81.5q0 95 73.5 149.5t185.5 54.5q49 0 107 -9.5t94 -25.5l-38 -165q-81 45 -146 45q-52 0 -52 -36q0 -19 18 -36.5t45.5 -31t59 -33t59 -41t45.5 -58.5t18 -82z" />
<glyph unicode="&#x161;" horiz-adv-x="494" d="M374 776l67 -36q-54 -88 -93 -173l-158 -10q-49 112 -97 183l67 36q59 -43 109 -102q48 58 105 102zM459 147q0 -72 -61 -114.5t-173 -42.5t-190 26l10 160q37 -20 86.5 -31.5t84.5 -11.5q38 0 38 19q0 8 -5 14t-15.5 11.5t-21.5 9.5t-29.5 11t-33.5 14q-107 49 -107 137 q0 74 66.5 117.5t172.5 43.5q83 0 161 -26l-10 -158q-90 41 -150 41q-35 0 -35 -21q0 -8 4.5 -14.5t15.5 -12l19 -9.5t25 -9.5t23 -8.5q125 -48 125 -145z" />
<glyph unicode="&#x162;" horiz-adv-x="568" d="M248 -124q0 26 -48 38l31 86h-52v515l-159 -10l9 145h510l9 -145l-159 10v-515h-101l-13 -35q59 -6 92.5 -28.5t33.5 -56.5q0 -48 -57 -75t-169 -27l-7 54q80 8 80 44z" />
<glyph unicode="&#x163;" horiz-adv-x="423" d="M184 -124q0 26 -48 38l31 86h9q-116 34 -116 190v226l-55 1v53l75 20l33 118l157 10v-128h128l-8 -83l-120 3v-186q0 -38 15 -60.5t44 -22.5q35 0 69 16l-2 -139q-49 -28 -141 -28q-12 0 -34 2l-10 -27q59 -6 92.5 -28.5t33.5 -56.5q0 -48 -57 -75t-169 -27l-7 54 q80 8 80 44z" />
<glyph unicode="&#x164;" horiz-adv-x="568" d="M416 910l54 -40q-61 -76 -105 -155l-158 -10q-49 93 -109 165l54 40q78 -45 134 -95q58 52 130 95zM389 0h-210v515l-159 -10l9 145h510l9 -145l-159 10v-515z" />
<glyph unicode="&#x165;" horiz-adv-x="423" d="M493 761q-38 -129 -119 -230l-68 13q18 107 21 227zM390 407l-120 3v-186q0 -38 15 -60.5t44 -22.5q35 0 69 16l-2 -139q-49 -28 -141 -28q-97 0 -146 48t-49 152v226l-55 1v53l75 20l33 118l157 10v-128h128z" />
<glyph unicode="&#x166;" horiz-adv-x="568" d="M389 0h-210v285h-88v80h88v150l-159 -10l9 145h510l9 -145l-159 10v-150h88v-80h-88v-285z" />
<glyph unicode="&#x167;" horiz-adv-x="423" d="M390 250h-120v-26q0 -38 15 -60.5t44 -22.5q35 0 69 16l-2 -139q-49 -28 -141 -28q-97 0 -146 48t-49 152v60h-56v80h56v86l-55 1v53l75 20l33 118l157 10v-128h128l-8 -83l-120 3v-80h120v-80z" />
<glyph unicode="&#x168;" horiz-adv-x="655" d="M263 889q32 0 75.5 -21t63.5 -21q19 0 30.5 10.5t27.5 36.5l44 -9q-2 -67 -30 -114.5t-79 -47.5q-28 0 -76.5 21t-65.5 21q-32 0 -58 -47l-44 9q3 68 30 115t82 47zM327 125q63 0 63 90v305l-10 130l220 10v-436q0 -111 -80.5 -172.5t-201.5 -61.5q-120 0 -191.5 61.5 t-71.5 172.5v296l-10 130l220 9v-446q0 -88 62 -88z" />
<glyph unicode="&#x169;" horiz-adv-x="588" d="M231 753q35 0 81.5 -26t68.5 -26q17 0 27.5 12t24.5 40l47 -9q-3 -69 -30 -118t-77 -49q-30 0 -82.5 26t-70.5 26q-29 0 -52 -52l-47 9q3 70 29 118.5t81 48.5zM52 124v376l210 10v-363q0 -43 35 -43q12 0 29 5v391l210 10v-357q0 -89 20 -153l-200 -10q-20 43 -28 90 q-22 -39 -62.5 -64.5t-91.5 -25.5q-58 0 -90 35t-32 99z" />
<glyph unicode="&#x16a;" horiz-adv-x="655" d="M163 750v110h330v-110h-330zM327 125q63 0 63 90v305l-10 130l220 10v-436q0 -111 -80.5 -172.5t-201.5 -61.5q-120 0 -191.5 61.5t-71.5 172.5v296l-10 130l220 9v-446q0 -88 62 -88z" />
<glyph unicode="&#x16b;" horiz-adv-x="588" d="M156 602v120h290v-120h-290zM52 124v376l210 10v-363q0 -43 35 -43q12 0 29 5v391l210 10v-357q0 -89 20 -153l-200 -10q-20 43 -28 90q-22 -39 -62.5 -64.5t-91.5 -25.5q-58 0 -90 35t-32 99z" />
<glyph unicode="&#x16c;" horiz-adv-x="655" d="M322 710q-67 0 -111.5 47.5t-48.5 126.5l70 10q17 -66 96 -66q78 0 96 65l69 9q-4 -85 -50 -138.5t-121 -53.5zM327 125q63 0 63 90v305l-10 130l220 10v-436q0 -111 -80.5 -172.5t-201.5 -61.5q-120 0 -191.5 61.5t-71.5 172.5v296l-10 130l220 9v-446q0 -88 62 -88z " />
<glyph unicode="&#x16d;" horiz-adv-x="588" d="M297 554q-66 0 -108 55.5t-46 147.5l70 10q7 -45 31 -71.5t57 -26.5t57 27.5t31 69.5l69 9q-4 -97 -47.5 -159t-113.5 -62zM52 124v376l210 10v-363q0 -43 35 -43q12 0 29 5v391l210 10v-357q0 -89 20 -153l-200 -10q-20 43 -28 90q-22 -39 -62.5 -64.5t-91.5 -25.5 q-58 0 -90 35t-32 99z" />
<glyph unicode="&#x16e;" horiz-adv-x="655" d="M455 816q0 -49 -38 -83t-99 -34q-56 0 -86.5 27t-30.5 68q0 48 40.5 82t102.5 34q52 0 81.5 -25t29.5 -69zM281 800q0 -18 12 -29.5t31 -11.5q21 0 36 15t15 35q0 18 -11.5 29.5t-29.5 11.5q-21 0 -37 -15t-16 -35zM327 125q63 0 63 90v305l-10 130l220 10v-436 q0 -111 -80.5 -172.5t-201.5 -61.5q-120 0 -191.5 61.5t-71.5 172.5v296l-10 130l220 9v-446q0 -88 62 -88z" />
<glyph unicode="&#x16f;" horiz-adv-x="588" d="M424 674q0 -57 -39 -90t-95 -33q-50 0 -81 26.5t-31 75.5q0 56 37.5 92t96.5 36q50 0 81 -28t31 -79zM253 661q0 -45 44 -45q22 0 37 14t15 39q0 22 -12 34.5t-32 12.5q-23 0 -37.5 -15.5t-14.5 -39.5zM52 124v376l210 10v-363q0 -43 35 -43q12 0 29 5v391l210 10v-357 q0 -89 20 -153l-200 -10q-20 43 -28 90q-22 -39 -62.5 -64.5t-91.5 -25.5q-58 0 -90 35t-32 99z" />
<glyph unicode="&#x170;" horiz-adv-x="655" d="M346 817q-101 -77 -249 -109l-31 39q141 115 190 164zM590 817q-101 -77 -249 -109l-31 39q141 115 190 164zM327 125q63 0 63 90v305l-10 130l220 10v-436q0 -111 -80.5 -172.5t-201.5 -61.5q-120 0 -191.5 61.5t-71.5 172.5v296l-10 130l220 9v-446q0 -88 62 -88z" />
<glyph unicode="&#x171;" horiz-adv-x="588" d="M347 748q-45 -108 -138 -197l-60 19q51 136 69 206zM528 748q-45 -108 -138 -197l-60 19q51 136 69 206zM52 124v376l210 10v-363q0 -43 35 -43q12 0 29 5v391l210 10v-357q0 -89 20 -153l-200 -10q-20 43 -28 90q-22 -39 -62.5 -64.5t-91.5 -25.5q-58 0 -90 35t-32 99z " />
<glyph unicode="&#x172;" horiz-adv-x="655" d="M327 125q63 0 63 90v305l-10 130l220 10v-436q0 -125 -104 -189q-91 -73 -91 -121q0 -44 41 -44q18 0 47 9l18 -52q-52 -49 -135 -49q-51 0 -81 22t-30 66q0 68 84 125q-10 -1 -31 -1q-120 0 -191.5 61.5t-71.5 172.5v296l-10 130l220 9v-446q0 -88 62 -88z" />
<glyph unicode="&#x173;" horiz-adv-x="588" d="M52 124v376l210 10v-363q0 -43 35 -43q12 0 29 5v391l210 10v-357q0 -89 20 -153q-41 -18 -67 -45t-26 -52q0 -33 41 -33q18 0 47 9l18 -52q-53 -49 -137 -49q-50 0 -79.5 20t-29.5 60q0 83 118 136l-85 -4q-20 43 -28 90q-22 -39 -62.5 -64.5t-91.5 -25.5q-58 0 -90 35 t-32 99z" />
<glyph unicode="&#x174;" horiz-adv-x="1010" d="M373 704l-54 40q61 76 105 155l158 10q49 -93 109 -165l-54 -40q-78 45 -134 95q-58 -52 -130 -95zM148 0l-113 650l206 10l71 -508h2l72 498h264l67 -498h2l73 508l183 -10l-141 -650h-288l-47 468h-2l-61 -468h-288z" />
<glyph unicode="&#x175;" horiz-adv-x="842" d="M310 555l-67 36q54 88 93 173l158 10q49 -112 97 -183l-67 -36q-59 43 -109 102q-48 -59 -105 -102zM103 0l-91 500l209 10l38 -400h2l44 390h230l47 -390h2l35 400l203 -10q-39 -277 -108 -500h-267l-33 290h-2q-17 -149 -59 -290h-250z" />
<glyph unicode="&#x176;" horiz-adv-x="617" d="M177 704l-54 40q61 76 105 155l158 10q49 -93 109 -165l-54 -40q-78 45 -134 95q-58 -52 -130 -95zM414 0h-210v202l-189 448l206 10l91 -292h2l93 292l195 -10l-188 -448v-202z" />
<glyph unicode="&#x177;" horiz-adv-x="550" d="M168 555l-67 36q54 88 93 173l158 10q49 -112 97 -183l-67 -36q-59 43 -109 102q-48 -59 -105 -102zM107 -195q-76 0 -137 14v155q80 -18 161 -18q64 0 114.5 18t59.5 50h-197l-91 476l219 10l53 -400h2l40 400l199 -10q-18 -129 -50.5 -278.5t-57.5 -221.5 q-39 -110 -110.5 -152.5t-204.5 -42.5z" />
<glyph unicode="&#x178;" horiz-adv-x="617" d="M279 812q0 -48 -32.5 -74t-83.5 -26q-45 0 -70.5 21.5t-25.5 61.5q0 45 32 73.5t84 28.5q45 0 70.5 -21.5t25.5 -63.5zM551 811q0 -47 -33 -73t-83 -26q-44 0 -69.5 21.5t-25.5 62.5q0 45 31.5 73t83.5 28q44 0 70 -22t26 -64zM414 0h-210v202l-189 448l206 10l91 -292h2 l93 292l195 -10l-188 -448v-202z" />
<glyph unicode="&#x179;" horiz-adv-x="528" d="M414 799q-103 -65 -253 -88l-48 50q144 97 204 147zM493 0h-443l-25 107l234 399q-150 -6 -224 -8l10 152h423l25 -106l-234 -400q41 3 122.5 8t121.5 8z" />
<glyph unicode="&#x17a;" horiz-adv-x="487" d="M371 720q-76 -106 -190 -175l-60 36q54 94 98 206zM452 0h-407l-20 120l210 230h-1q-109 0 -200 -10l12 160h395l8 -120l-209 -230h22q104 0 200 15z" />
<glyph unicode="&#x17b;" horiz-adv-x="528" d="M378 811q0 -47 -36 -73t-88 -26q-47 0 -75.5 21.5t-28.5 61.5q0 44 34.5 73t89.5 29q47 0 75.5 -22.5t28.5 -63.5zM493 0h-443l-25 107l234 399q-150 -6 -224 -8l10 152h423l25 -106l-234 -400q41 3 122.5 8t121.5 8z" />
<glyph unicode="&#x17c;" horiz-adv-x="487" d="M358 670q0 -47 -36 -73t-88 -26q-47 0 -75.5 21.5t-28.5 61.5q0 44 34.5 73t89.5 29q47 0 75.5 -22.5t28.5 -63.5zM452 0h-407l-20 120l210 230h-1q-109 0 -200 -10l12 160h395l8 -120l-209 -230h22q104 0 200 15z" />
<glyph unicode="&#x17d;" horiz-adv-x="528" d="M396 910l54 -40q-61 -76 -105 -155l-158 -10q-49 93 -109 165l54 40q78 -45 134 -95q58 52 130 95zM493 0h-443l-25 107l234 399q-150 -6 -224 -8l10 152h423l25 -106l-234 -400q41 3 122.5 8t121.5 8z" />
<glyph unicode="&#x17e;" horiz-adv-x="487" d="M351 776l67 -36q-54 -88 -93 -173l-158 -10q-49 112 -97 183l67 36q59 -43 109 -102q48 58 105 102zM452 0h-407l-20 120l210 230h-1q-109 0 -200 -10l12 160h395l8 -120l-209 -230h22q104 0 200 15z" />
<glyph unicode="&#x18f;" horiz-adv-x="568" d="M20 228q0 47 9 107l15 18h276q-8 84 -42.5 121t-110.5 37q-68 0 -127 -18l2 138q65 29 181 29q143 0 229 -84.5t86 -250.5q0 -163 -81 -249t-203 -86q-106 0 -170 64.5t-64 173.5zM219 209q0 -113 46 -113q58 0 58 189v16l-99 -8q-5 -52 -5 -84z" />
<glyph unicode="&#x192;" horiz-adv-x="594" d="M478 247l-139 3l-20 -171q-2 -20 -4 -33t-9.5 -40.5t-18 -47t-30 -44t-44.5 -39.5t-63.5 -25.5t-85.5 -10.5q-53 0 -109 14l40 111q42 -15 66 -15q64 0 66 94l5 212l-91 2l9 53l84 20q2 78 10 118q44 212 280 212q94 0 145 -29l-48 -133q-18 19 -46 35.5t-50 16.5 q-56 0 -68 -108q-12 -104 -12 -112h149z" />
<glyph unicode="&#x19d;" horiz-adv-x="665" d="M-15 -195l-15 86q90 27 90 145v484l-10 130l159 10l244 -372h2l-15 362l165 10v-660h-170l-223 342h-2q9 -195 9 -241q0 -141 -52 -213t-182 -83z" />
<glyph unicode="&#x1cd;" horiz-adv-x="677" d="M471 910l54 -40q-61 -76 -105 -155l-158 -10q-49 93 -109 165l54 40q78 -45 134 -95q58 52 130 95zM220 0h-195l154 520l33 131l262 9l178 -660h-206l-28 125h-170zM333 503l-62 -278h125l-61 278h-2z" />
<glyph unicode="&#x1ce;" horiz-adv-x="549" d="M378 776l67 -36q-54 -88 -93 -173l-158 -10q-49 112 -97 183l67 36q59 -43 109 -102q48 58 105 102zM314 -10q-14 30 -24 77q-19 -34 -56.5 -55.5t-88.5 -21.5q-59 0 -92 34.5t-33 88.5q0 82 71 122.5t198 40.5v14q1 33 -19.5 49t-61.5 16q-65 0 -145 -41l-11 159 q111 37 224 37q110 0 166.5 -48t56.5 -155q0 -17 -2.5 -73t-2.5 -81q0 -89 20 -153zM230 161q0 -29 10.5 -45t26.5 -16q13 0 19 6l2 127q-58 -6 -58 -72z" />
<glyph unicode="&#x1cf;" horiz-adv-x="330" d="M297 910l54 -40q-61 -76 -105 -155l-158 -10q-49 93 -109 165l54 40q78 -45 134 -95q58 52 130 95zM270 0h-210v520l-10 130l220 10v-660z" />
<glyph unicode="&#x1d0;" horiz-adv-x="317" d="M242 775l54 -24q-30 -86 -55 -185l-158 -10q-29 119 -59 195l54 24q39 -37 84 -102q38 60 80 102zM265 0h-210v369l-10 131l220 10v-510z" />
<glyph unicode="&#x1d1;" horiz-adv-x="655" d="M460 910l54 -40q-61 -76 -105 -155l-158 -10q-49 93 -109 165l54 40q78 -45 134 -95q58 52 130 95zM625 329q0 -163 -85 -251t-221 -88q-135 0 -212 86t-77 239q0 159 84 252t223 93q136 0 212 -89.5t76 -241.5zM260 328q0 -203 71 -203q37 0 50.5 52t13.5 148t-14 148 t-51 52q-70 0 -70 -197z" />
<glyph unicode="&#x1d2;" horiz-adv-x="560" d="M387 776l67 -36q-54 -88 -93 -173l-158 -10q-49 112 -97 183l67 36q59 -43 109 -102q48 58 105 102zM535 254q0 -130 -74 -197t-187 -67q-111 0 -180 65.5t-69 190.5q0 130 74 197t187 67q111 0 180 -65.5t69 -190.5zM240 248q0 -75 8 -111.5t34 -36.5q22 0 30 32.5 t8 122.5q0 85 -8 115t-31 30q-24 0 -32.5 -31.5t-8.5 -120.5z" />
<glyph unicode="&#x1d3;" horiz-adv-x="655" d="M460 910l54 -40q-61 -76 -105 -155l-158 -10q-49 93 -109 165l54 40q78 -45 134 -95q58 52 130 95zM327 125q63 0 63 90v305l-10 130l220 10v-436q0 -111 -80.5 -172.5t-201.5 -61.5q-120 0 -191.5 61.5t-71.5 172.5v296l-10 130l220 9v-446q0 -88 62 -88z" />
<glyph unicode="&#x1d4;" horiz-adv-x="588" d="M408 776l67 -36q-54 -88 -93 -173l-158 -10q-49 112 -97 183l67 36q59 -43 109 -102q48 58 105 102zM52 124v376l210 10v-363q0 -43 35 -43q12 0 29 5v391l210 10v-357q0 -89 20 -153l-200 -10q-20 43 -28 90q-22 -39 -62.5 -64.5t-91.5 -25.5q-58 0 -90 35t-32 99z" />
<glyph unicode="&#x1d5;" horiz-adv-x="655" d="M163 997v110h330v-110h-330zM298 812q0 -48 -32.5 -74t-83.5 -26q-45 0 -70.5 21.5t-25.5 61.5q0 45 32 73.5t84 28.5q45 0 70.5 -21.5t25.5 -63.5zM570 811q0 -47 -33 -73t-83 -26q-44 0 -69.5 21.5t-25.5 62.5q0 45 31.5 73t83.5 28q44 0 70 -22t26 -64zM327 125 q63 0 63 90v305l-10 130l220 10v-436q0 -111 -80.5 -172.5t-201.5 -61.5q-120 0 -191.5 61.5t-71.5 172.5v296l-10 130l220 9v-446q0 -88 62 -88z" />
<glyph unicode="&#x1d6;" horiz-adv-x="588" d="M156 854v120h290v-120h-290zM266 669q0 -44 -31 -68t-78 -24q-42 0 -66.5 19t-24.5 57q0 43 30 69.5t79 26.5q42 0 66.5 -20.5t24.5 -59.5zM537 669q0 -44 -31.5 -68t-78.5 -24q-42 0 -66 19t-24 57q0 43 29.5 69.5t78.5 26.5q42 0 67 -20.5t25 -59.5zM52 124v376l210 10 v-363q0 -43 35 -43q12 0 29 5v391l210 10v-357q0 -89 20 -153l-200 -10q-20 43 -28 90q-22 -39 -62.5 -64.5t-91.5 -25.5q-58 0 -90 35t-32 99z" />
<glyph unicode="&#x1d7;" horiz-adv-x="655" d="M478 1046q-103 -65 -253 -88l-48 50q144 97 204 147zM298 812q0 -48 -32.5 -74t-83.5 -26q-45 0 -70.5 21.5t-25.5 61.5q0 45 32 73.5t84 28.5q45 0 70.5 -21.5t25.5 -63.5zM570 811q0 -47 -33 -73t-83 -26q-44 0 -69.5 21.5t-25.5 62.5q0 45 31.5 73t83.5 28 q44 0 70 -22t26 -64zM327 125q63 0 63 90v305l-10 130l220 10v-436q0 -111 -80.5 -172.5t-201.5 -61.5q-120 0 -191.5 61.5t-71.5 172.5v296l-10 130l220 9v-446q0 -88 62 -88z" />
<glyph unicode="&#x1d8;" horiz-adv-x="588" d="M428 972q-76 -106 -190 -175l-60 36q54 94 98 206zM266 669q0 -44 -31 -68t-78 -24q-42 0 -66.5 19t-24.5 57q0 43 30 69.5t79 26.5q42 0 66.5 -20.5t24.5 -59.5zM537 669q0 -44 -31.5 -68t-78.5 -24q-42 0 -66 19t-24 57q0 43 29.5 69.5t78.5 26.5q42 0 67 -20.5 t25 -59.5zM52 124v376l210 10v-363q0 -43 35 -43q12 0 29 5v391l210 10v-357q0 -89 20 -153l-200 -10q-20 43 -28 90q-22 -39 -62.5 -64.5t-91.5 -25.5q-58 0 -90 35t-32 99z" />
<glyph unicode="&#x1d9;" horiz-adv-x="655" d="M460 1157l54 -40q-61 -76 -105 -155l-158 -10q-49 93 -109 165l54 40q78 -45 134 -95q58 52 130 95zM298 812q0 -48 -32.5 -74t-83.5 -26q-45 0 -70.5 21.5t-25.5 61.5q0 45 32 73.5t84 28.5q45 0 70.5 -21.5t25.5 -63.5zM570 811q0 -47 -33 -73t-83 -26 q-44 0 -69.5 21.5t-25.5 62.5q0 45 31.5 73t83.5 28q44 0 70 -22t26 -64zM327 125q63 0 63 90v305l-10 130l220 10v-436q0 -111 -80.5 -172.5t-201.5 -61.5q-120 0 -191.5 61.5t-71.5 172.5v296l-10 130l220 9v-446q0 -88 62 -88z" />
<glyph unicode="&#x1da;" horiz-adv-x="588" d="M408 1028l67 -36q-54 -88 -93 -173l-158 -10q-49 112 -97 183l67 36q59 -43 109 -102q48 58 105 102zM266 669q0 -44 -31 -68t-78 -24q-42 0 -66.5 19t-24.5 57q0 43 30 69.5t79 26.5q42 0 66.5 -20.5t24.5 -59.5zM537 669q0 -44 -31.5 -68t-78.5 -24q-42 0 -66 19 t-24 57q0 43 29.5 69.5t78.5 26.5q42 0 67 -20.5t25 -59.5zM52 124v376l210 10v-363q0 -43 35 -43q12 0 29 5v391l210 10v-357q0 -89 20 -153l-200 -10q-20 43 -28 90q-22 -39 -62.5 -64.5t-91.5 -25.5q-58 0 -90 35t-32 99z" />
<glyph unicode="&#x1db;" horiz-adv-x="655" d="M478 1007l-48 -50q-150 23 -253 88l97 109q60 -50 204 -147zM298 812q0 -48 -32.5 -74t-83.5 -26q-45 0 -70.5 21.5t-25.5 61.5q0 45 32 73.5t84 28.5q45 0 70.5 -21.5t25.5 -63.5zM570 811q0 -47 -33 -73t-83 -26q-44 0 -69.5 21.5t-25.5 62.5q0 45 31.5 73t83.5 28 q44 0 70 -22t26 -64zM327 125q63 0 63 90v305l-10 130l220 10v-436q0 -111 -80.5 -172.5t-201.5 -61.5q-120 0 -191.5 61.5t-71.5 172.5v296l-10 130l220 9v-446q0 -88 62 -88z" />
<glyph unicode="&#x1dc;" horiz-adv-x="588" d="M428 833l-60 -36q-114 69 -190 175l152 67q44 -112 98 -206zM266 669q0 -44 -31 -68t-78 -24q-42 0 -66.5 19t-24.5 57q0 43 30 69.5t79 26.5q42 0 66.5 -20.5t24.5 -59.5zM537 669q0 -44 -31.5 -68t-78.5 -24q-42 0 -66 19t-24 57q0 43 29.5 69.5t78.5 26.5 q42 0 67 -20.5t25 -59.5zM52 124v376l210 10v-363q0 -43 35 -43q12 0 29 5v391l210 10v-357q0 -89 20 -153l-200 -10q-20 43 -28 90q-22 -39 -62.5 -64.5t-91.5 -25.5q-58 0 -90 35t-32 99z" />
<glyph unicode="&#x1e6;" d="M483 910l54 -40q-61 -76 -105 -155l-158 -10q-49 93 -109 165l54 40q78 -45 134 -95q58 52 130 95zM575 22q-102 -32 -213 -32q-157 0 -244.5 86t-87.5 239q0 159 94 252t246 93q109 0 196 -40l-27 -155q-64 40 -139 40q-140 0 -140 -180q0 -183 135 -197v57l-10 130 l190 10v-303z" />
<glyph unicode="&#x1e7;" horiz-adv-x="542" d="M378 776l67 -36q-54 -88 -93 -173l-158 -10q-49 112 -97 183l67 36q59 -43 109 -102q48 58 105 102zM80 65q0 34 26.5 60t77.5 39q-167 23 -167 162q0 85 62 134.5t167 49.5q185 0 281 10v-122l-111 10l-1 -2q41 -9 61.5 -36.5t20.5 -65.5q0 -71 -67 -107.5t-177 -36.5 h-14q-3 -6 -3 -12q0 -27 41 -27l82 -2q178 -5 178 -138q0 -171 -305 -171q-227 0 -227 93q0 38 34 59t87 26q-46 30 -46 77zM222 324q0 -86 37 -86q33 0 33 82q0 83 -36 83q-34 0 -34 -79zM205 -57q0 -34 17 -53.5t50 -19.5t54.5 15.5t21.5 40.5q0 41 -59 41h-82 q-2 -14 -2 -24z" />
<glyph unicode="&#x1ea;" horiz-adv-x="655" d="M625 329q0 -210 -140 -295q-90 -61 -90 -121q0 -43 41 -43q18 0 47 9l18 -52q-53 -49 -135 -49q-51 0 -81 22t-30 64q0 70 83 126h-19q-135 0 -212 86t-77 239q0 159 84 252t223 93q136 0 212 -89.5t76 -241.5zM260 328q0 -203 71 -203q37 0 50.5 52t13.5 148t-14 148 t-51 52q-70 0 -70 -197z" />
<glyph unicode="&#x1eb;" horiz-adv-x="560" d="M438 38q-46 -39 -64 -65.5t-18 -54.5q0 -48 42 -48q18 0 46 9l18 -52q-52 -49 -137 -49q-50 0 -79.5 20t-29.5 60q0 74 90 133q-11 -1 -32 -1q-111 0 -180 65.5t-69 190.5q0 130 74 197t187 67q111 0 180 -65.5t69 -190.5q0 -147 -97 -216zM240 248q0 -75 8 -111.5 t34 -36.5q22 0 30 32.5t8 122.5q0 85 -8 115t-31 30q-24 0 -32.5 -31.5t-8.5 -120.5z" />
<glyph unicode="&#x1f4;" d="M501 799q-103 -65 -253 -88l-48 50q144 97 204 147zM575 22q-102 -32 -213 -32q-157 0 -244.5 86t-87.5 239q0 159 94 252t246 93q109 0 196 -40l-27 -155q-64 40 -139 40q-140 0 -140 -180q0 -183 135 -197v57l-10 130l190 10v-303z" />
<glyph unicode="&#x1f5;" horiz-adv-x="542" d="M398 720q-76 -106 -190 -175l-60 36q54 94 98 206zM80 65q0 34 26.5 60t77.5 39q-167 23 -167 162q0 85 62 134.5t167 49.5q185 0 281 10v-122l-111 10l-1 -2q41 -9 61.5 -36.5t20.5 -65.5q0 -71 -67 -107.5t-177 -36.5h-14q-3 -6 -3 -12q0 -27 41 -27l82 -2 q178 -5 178 -138q0 -171 -305 -171q-227 0 -227 93q0 38 34 59t87 26q-46 30 -46 77zM222 324q0 -86 37 -86q33 0 33 82q0 83 -36 83q-34 0 -34 -79zM205 -57q0 -34 17 -53.5t50 -19.5t54.5 15.5t21.5 40.5q0 41 -59 41h-82q-2 -14 -2 -24z" />
<glyph unicode="&#x1fa;" horiz-adv-x="677" d="M489 1059q-103 -65 -253 -88l-48 50q144 97 204 147zM466 816q0 -49 -38 -83t-99 -34q-56 0 -86.5 27t-30.5 68q0 48 40.5 82t102.5 34q52 0 81.5 -25t29.5 -69zM292 800q0 -18 12 -29.5t31 -11.5q21 0 36 15t15 35q0 18 -11.5 29.5t-29.5 11.5q-21 0 -37 -15t-16 -35z M220 0h-195l154 520l33 131l262 9l178 -660h-206l-28 125h-170zM333 503l-62 -278h125l-61 278h-2z" />
<glyph unicode="&#x1fb;" horiz-adv-x="549" d="M398 997q-76 -106 -190 -175l-60 36q54 94 98 206zM394 674q0 -57 -39 -90t-95 -33q-50 0 -81 26.5t-31 75.5q0 56 37.5 92t96.5 36q50 0 81 -28t31 -79zM223 661q0 -45 44 -45q22 0 37 14t15 39q0 22 -12 34.5t-32 12.5q-23 0 -37.5 -15.5t-14.5 -39.5zM314 -10 q-14 30 -24 77q-19 -34 -56.5 -55.5t-88.5 -21.5q-59 0 -92 34.5t-33 88.5q0 82 71 122.5t198 40.5v14q1 33 -19.5 49t-61.5 16q-65 0 -145 -41l-11 159q111 37 224 37q110 0 166.5 -48t56.5 -155q0 -17 -2.5 -73t-2.5 -81q0 -89 20 -153zM230 161q0 -29 10.5 -45t26.5 -16 q13 0 19 6l2 127q-58 -6 -58 -72z" />
<glyph unicode="&#x1fc;" horiz-adv-x="907" d="M659 799q-103 -65 -253 -88l-48 50q144 97 204 147zM220 0h-195l232 520l33 130h567l-10 -130l-254 7l22 -146l212 4l-10 -120l-185 4l22 -147l218 8v-130h-406l-9 125h-185zM429 503l-116 -278h137l-19 278h-2z" />
<glyph unicode="&#x1fd;" horiz-adv-x="799" d="M527 720q-76 -106 -190 -175l-60 36q54 94 98 206zM747 19q-60 -29 -173 -29q-166 0 -239 101q-27 -44 -73.5 -72.5t-107.5 -28.5q-66 0 -100 34t-34 90q0 81 70.5 121.5t197.5 40.5l1 14q2 33 -19.5 49t-61.5 16q-65 0 -145 -41l-11 159q111 37 219 37q86 0 134 -35 q62 35 141 35q100 0 161.5 -53t61.5 -138q0 -35 -9 -74l-15 -18h-240q9 -46 38.5 -67t89.5 -21t116 18zM499 293v-13l68 6q3 26 3 45q0 73 -32 73q-39 0 -39 -111zM230 162q0 -29 14 -45.5t36 -16.5q20 0 38 18q-25 46 -30 115q-26 -3 -42 -21.5t-16 -49.5z" />
<glyph unicode="&#x1fe;" horiz-adv-x="655" d="M478 799q-103 -65 -253 -88l-48 50q144 97 204 147zM625 329q0 -163 -85 -251t-221 -88q-108 0 -178 55l-70 -80l-65 56l76 88q-52 81 -52 206q0 159 84 252t223 93q104 0 176 -55l70 80l66 -55l-78 -89q54 -86 54 -212zM260 328v-15l125 144q-15 68 -55 68 q-70 0 -70 -197zM395 325v13l-123 -142q17 -71 59 -71q37 0 50.5 52t13.5 148z" />
<glyph unicode="&#x1ff;" horiz-adv-x="560" d="M407 720q-76 -106 -190 -175l-60 36q54 94 98 206zM535 254q0 -130 -74 -197t-187 -67q-84 0 -146 38l-53 -57l-59 56l54 58q-45 62 -45 161q0 130 74 197t187 67q84 0 145 -38l53 57l60 -55l-54 -58q45 -64 45 -162zM281 400q-23 0 -31.5 -28t-9.5 -105l76 82 q-4 28 -12 39.5t-23 11.5zM282 100q20 0 28.5 29t9.5 105l-75 -81q8 -53 37 -53z" />
<glyph unicode="&#x218;" horiz-adv-x="535" d="M505 187q0 -92 -69 -144.5t-184 -52.5q-52 0 -118 9.5t-104 25.5l30 178q94 -58 171 -58q23 0 36.5 9t13.5 24q0 17 -18 33.5t-45.5 29.5t-59 32.5t-59 42t-45.5 59t-18 81.5q0 95 73.5 149.5t185.5 54.5q49 0 107 -9.5t94 -25.5l-38 -165q-81 45 -146 45q-52 0 -52 -36 q0 -19 18 -36.5t45.5 -31t59 -33t59 -41t45.5 -58.5t18 -82zM369 -152q0 -51 -33.5 -102t-74.5 -80l-45 19q27 41 38 87q-29 6 -47 26t-18 54q0 41 26.5 66.5t65.5 25.5q40 0 64 -26.5t24 -69.5z" />
<glyph unicode="&#x219;" horiz-adv-x="494" d="M459 147q0 -72 -61 -114.5t-173 -42.5t-190 26l10 160q37 -20 86.5 -31.5t84.5 -11.5q38 0 38 19q0 8 -5 14t-15.5 11.5t-21.5 9.5t-29.5 11t-33.5 14q-107 49 -107 137q0 74 66.5 117.5t172.5 43.5q83 0 161 -26l-10 -158q-90 41 -150 41q-35 0 -35 -21q0 -8 4.5 -14.5 t15.5 -12l19 -9.5t25 -9.5t23 -8.5q125 -48 125 -145zM336 -152q0 -51 -33.5 -102t-74.5 -80l-45 19q27 41 38 87q-29 6 -47 26t-18 54q0 41 26.5 66.5t65.5 25.5q40 0 64 -26.5t24 -69.5z" />
<glyph unicode="&#x21a;" horiz-adv-x="568" d="M389 0h-210v515l-159 -10l9 145h510l9 -145l-159 10v-515zM372 -152q0 -51 -33.5 -102t-74.5 -80l-45 19q27 41 38 87q-29 6 -47 26t-18 54q0 41 26.5 66.5t65.5 25.5q40 0 64 -26.5t24 -69.5z" />
<glyph unicode="&#x21b;" horiz-adv-x="423" d="M390 407l-120 3v-186q0 -38 15 -60.5t44 -22.5q35 0 69 16l-2 -139q-49 -28 -141 -28q-97 0 -146 48t-49 152v226l-55 1v53l75 20l33 118l157 10v-128h128zM308 -152q0 -51 -33.5 -102t-74.5 -80l-45 19q27 41 38 87q-29 6 -47 26t-18 54q0 41 26.5 66.5t65.5 25.5 q40 0 64 -26.5t24 -69.5z" />
<glyph unicode="&#x232;" horiz-adv-x="617" d="M144 750v110h330v-110h-330zM414 0h-210v202l-189 448l206 10l91 -292h2l93 292l195 -10l-188 -448v-202z" />
<glyph unicode="&#x233;" horiz-adv-x="550" d="M130 602v120h290v-120h-290zM107 -195q-76 0 -137 14v155q80 -18 161 -18q64 0 114.5 18t59.5 50h-197l-91 476l219 10l53 -400h2l40 400l199 -10q-18 -129 -50.5 -278.5t-57.5 -221.5q-39 -110 -110.5 -152.5t-204.5 -42.5z" />
<glyph unicode="&#x237;" horiz-adv-x="317" d="M6 -120q49 79 49 240v249l-10 131l220 10v-350q0 -142 -46.5 -229.5t-168.5 -120.5z" />
<glyph unicode="&#x259;" horiz-adv-x="540" d="M30 181q0 35 9 74l15 18h240q-9 46 -38.5 67t-88.5 21q-61 0 -117 -18l2 138q60 29 173 29q130 0 210 -66t80 -194q0 -126 -75 -193t-187 -67q-100 0 -161.5 53t-61.5 138zM229 169q0 -73 32 -73q39 0 39 107v17l-68 -6q-3 -26 -3 -45z" />
<glyph unicode="&#x272;" horiz-adv-x="597" d="M6 -120q49 79 49 240v249l-10 131l220 10v-93q19 43 60 68t94 25q56 0 91 -36.5t35 -107.5v-366h-210v320q0 43 -35 43q-16 0 -35 -7v-196q0 -142 -46.5 -229.5t-168.5 -120.5z" />
<glyph unicode="&#x2c6;" horiz-adv-x="382" d="M84 555l-67 36q54 88 93 173l158 10q49 -112 97 -183l-67 -36q-59 43 -109 102q-48 -59 -105 -102z" />
<glyph unicode="&#x2c7;" horiz-adv-x="382" d="M298 776l67 -36q-54 -88 -93 -173l-158 -10q-49 112 -97 183l67 36q59 -43 109 -102q48 58 105 102z" />
<glyph unicode="&#x2d8;" horiz-adv-x="375" d="M184 554q-66 0 -108 55.5t-46 147.5l70 10q7 -45 31 -71.5t57 -26.5t57 27.5t31 69.5l69 9q-4 -97 -47.5 -159t-113.5 -62z" />
<glyph unicode="&#x2d9;" horiz-adv-x="300" d="M264 670q0 -47 -36 -73t-88 -26q-47 0 -75.5 21.5t-28.5 61.5q0 44 34.5 73t89.5 29q47 0 75.5 -22.5t28.5 -63.5z" />
<glyph unicode="&#x2da;" horiz-adv-x="306" d="M276 672q0 -57 -39 -90t-95 -33q-50 0 -81 26.5t-31 75.5q0 56 37.5 92t96.5 36q50 0 81 -28t31 -79zM105 659q0 -45 44 -45q22 0 37 14t15 39q0 22 -12 34.5t-32 12.5q-23 0 -37.5 -15.5t-14.5 -39.5z" />
<glyph unicode="&#x2db;" horiz-adv-x="326" d="M275 0q-41 -18 -67 -45t-26 -52q0 -33 41 -33q19 0 47 9l18 -52q-52 -49 -137 -49q-50 0 -79.5 20t-29.5 60q0 53 51.5 96t138.5 65z" />
<glyph unicode="&#x2dc;" horiz-adv-x="419" d="M140 753q35 0 81.5 -26t68.5 -26q17 0 27.5 12t24.5 40l47 -9q-3 -69 -30 -118t-77 -49q-30 0 -82.5 26t-70.5 26q-29 0 -52 -52l-47 9q3 70 29 118.5t81 48.5z" />
<glyph unicode="&#x2dd;" horiz-adv-x="600" d="M228 748q-45 -108 -138 -197l-60 19q51 136 69 206zM409 748q-45 -108 -138 -197l-60 19q51 136 69 206z" />
<glyph unicode="&#x1e0c;" horiz-adv-x="659" d="M60 520l-10 130h278q142 0 221.5 -87t79.5 -234q0 -158 -89 -243.5t-230 -85.5h-250v520zM300 525h-30v-400h31q56 0 77 52t21 148q0 95 -21 147.5t-78 52.5zM444 -143q0 -47 -36 -73t-88 -26q-47 0 -75.5 21.5t-28.5 61.5q0 44 34.5 73t89.5 29q47 0 75.5 -22.5 t28.5 -63.5z" />
<glyph unicode="&#x1e0d;" horiz-adv-x="580" d="M346 -10q-12 26 -22 69q-19 -31 -55 -50t-78 -19q-74 0 -120 67t-46 180q0 133 62 203t156 70q40 0 75 -14v59l-10 130l220 10v-535q0 -96 20 -160zM240 247q0 -35 1.5 -58t7 -45t16.5 -33t29 -11q14 0 24 6v293q-6 1 -17 1q-37 0 -49 -31t-12 -122zM406 -143 q0 -47 -36 -73t-88 -26q-47 0 -75.5 21.5t-28.5 61.5q0 44 34.5 73t89.5 29q47 0 75.5 -22.5t28.5 -63.5z" />
<glyph unicode="&#x1e24;" horiz-adv-x="685" d="M270 0h-210v520l-10 130l220 10v-303h145v163l-10 130l220 11v-661h-210v252h-145v-252zM457 -143q0 -47 -36 -73t-88 -26q-47 0 -75.5 21.5t-28.5 61.5q0 44 34.5 73t89.5 29q47 0 75.5 -22.5t28.5 -63.5z" />
<glyph unicode="&#x1e25;" horiz-adv-x="597" d="M265 0h-210v555l-10 130l220 10v-279q19 44 59.5 69t91.5 25q58 0 93.5 -36.5t35.5 -107.5v-366h-210v320q0 43 -35 43q-16 0 -35 -7v-356zM413 -143q0 -47 -36 -73t-88 -26q-47 0 -75.5 21.5t-28.5 61.5q0 44 34.5 73t89.5 29q47 0 75.5 -22.5t28.5 -63.5z" />
<glyph unicode="&#x1e44;" horiz-adv-x="665" d="M447 811q0 -47 -36 -73t-88 -26q-47 0 -75.5 21.5t-28.5 61.5q0 44 34.5 73t89.5 29q47 0 75.5 -22.5t28.5 -63.5zM60 520l-10 130l159 10l244 -372h2l-15 362l165 10v-660h-170l-223 342h-2l15 -342h-165v520z" />
<glyph unicode="&#x1e45;" horiz-adv-x="597" d="M424 670q0 -47 -36 -73t-88 -26q-47 0 -75.5 21.5t-28.5 61.5q0 44 34.5 73t89.5 29q47 0 75.5 -22.5t28.5 -63.5zM265 0h-210v370l-10 130l220 10v-93q19 43 60 68t94 25q56 0 91 -36.5t35 -107.5v-366h-210v320q0 43 -35 43q-16 0 -35 -7v-356z" />
<glyph unicode="&#x1e5a;" horiz-adv-x="616" d="M270 0h-210v520l-10 130h265q128 0 199.5 -59.5t71.5 -161.5q0 -129 -111 -189l126 -240l-223 -10l-73 212h-5h-30v-202zM293 535h-23v-219h23q45 0 61.5 29t16.5 81t-16.5 80.5t-61.5 28.5zM422 -143q0 -47 -36 -73t-88 -26q-47 0 -75.5 21.5t-28.5 61.5q0 44 34.5 73 t89.5 29q47 0 75.5 -22.5t28.5 -63.5z" />
<glyph unicode="&#x1e5b;" horiz-adv-x="431" d="M265 0h-210v370l-10 130l220 10v-149q10 59 40.5 104t74.5 45q25 0 41 -10l-13 -207q-33 7 -73 12q-43 5 -70 5v-310zM286 -143q0 -47 -36 -73t-88 -26q-47 0 -75.5 21.5t-28.5 61.5q0 44 34.5 73t89.5 29q47 0 75.5 -22.5t28.5 -63.5z" />
<glyph unicode="&#x1e62;" horiz-adv-x="535" d="M505 187q0 -92 -69 -144.5t-184 -52.5q-52 0 -118 9.5t-104 25.5l30 178q94 -58 171 -58q23 0 36.5 9t13.5 24q0 17 -18 33.5t-45.5 29.5t-59 32.5t-59 42t-45.5 59t-18 81.5q0 95 73.5 149.5t185.5 54.5q49 0 107 -9.5t94 -25.5l-38 -165q-81 45 -146 45q-52 0 -52 -36 q0 -19 18 -36.5t45.5 -31t59 -33t59 -41t45.5 -58.5t18 -82zM393 -143q0 -47 -36 -73t-88 -26q-47 0 -75.5 21.5t-28.5 61.5q0 44 34.5 73t89.5 29q47 0 75.5 -22.5t28.5 -63.5z" />
<glyph unicode="&#x1e63;" horiz-adv-x="494" d="M459 147q0 -72 -61 -114.5t-173 -42.5t-190 26l10 160q37 -20 86.5 -31.5t84.5 -11.5q38 0 38 19q0 8 -5 14t-15.5 11.5t-21.5 9.5t-29.5 11t-33.5 14q-107 49 -107 137q0 74 66.5 117.5t172.5 43.5q83 0 161 -26l-10 -158q-90 41 -150 41q-35 0 -35 -21q0 -8 4.5 -14.5 t15.5 -12l19 -9.5t25 -9.5t23 -8.5q125 -48 125 -145zM360 -143q0 -47 -36 -73t-88 -26q-47 0 -75.5 21.5t-28.5 61.5q0 44 34.5 73t89.5 29q47 0 75.5 -22.5t28.5 -63.5z" />
<glyph unicode="&#x1e6c;" horiz-adv-x="568" d="M389 0h-210v515l-159 -10l9 145h510l9 -145l-159 10v-515zM396 -143q0 -47 -36 -73t-88 -26q-47 0 -75.5 21.5t-28.5 61.5q0 44 34.5 73t89.5 29q47 0 75.5 -22.5t28.5 -63.5z" />
<glyph unicode="&#x1e6d;" horiz-adv-x="423" d="M390 407l-120 3v-186q0 -38 15 -60.5t44 -22.5q35 0 69 16l-2 -139q-49 -28 -141 -28q-97 0 -146 48t-49 152v226l-55 1v53l75 20l33 118l157 10v-128h128zM332 -143q0 -47 -36 -73t-88 -26q-47 0 -75.5 21.5t-28.5 61.5q0 44 34.5 73t89.5 29q47 0 75.5 -22.5 t28.5 -63.5z" />
<glyph unicode="&#x1e80;" horiz-adv-x="1010" d="M655 760l-48 -50q-150 23 -253 88l97 109q60 -50 204 -147zM148 0l-113 650l206 10l71 -508h2l72 498h264l67 -498h2l73 508l183 -10l-141 -650h-288l-47 468h-2l-61 -468h-288z" />
<glyph unicode="&#x1e81;" horiz-adv-x="842" d="M544 581l-60 -36q-114 69 -190 175l152 67q44 -112 98 -206zM103 0l-91 500l209 10l38 -400h2l44 390h230l47 -390h2l35 400l203 -10q-39 -277 -108 -500h-267l-33 290h-2q-17 -149 -59 -290h-250z" />
<glyph unicode="&#x1e82;" horiz-adv-x="1010" d="M655 799q-103 -65 -253 -88l-48 50q144 97 204 147zM148 0l-113 650l206 10l71 -508h2l72 498h264l67 -498h2l73 508l183 -10l-141 -650h-288l-47 468h-2l-61 -468h-288z" />
<glyph unicode="&#x1e83;" horiz-adv-x="842" d="M544 720q-76 -106 -190 -175l-60 36q54 94 98 206zM103 0l-91 500l209 10l38 -400h2l44 390h230l47 -390h2l35 400l203 -10q-39 -277 -108 -500h-267l-33 290h-2q-17 -149 -59 -290h-250z" />
<glyph unicode="&#x1e84;" horiz-adv-x="1010" d="M475 812q0 -48 -32.5 -74t-83.5 -26q-45 0 -70.5 21.5t-25.5 61.5q0 45 32 73.5t84 28.5q45 0 70.5 -21.5t25.5 -63.5zM747 811q0 -47 -33 -73t-83 -26q-44 0 -69.5 21.5t-25.5 62.5q0 45 31.5 73t83.5 28q44 0 70 -22t26 -64zM148 0l-113 650l206 10l71 -508h2l72 498 h264l67 -498h2l73 508l183 -10l-141 -650h-288l-47 468h-2l-61 -468h-288z" />
<glyph unicode="&#x1e85;" horiz-adv-x="842" d="M382 669q0 -44 -31 -68t-78 -24q-42 0 -66.5 19t-24.5 57q0 43 30 69.5t79 26.5q42 0 66.5 -20.5t24.5 -59.5zM653 669q0 -44 -31.5 -68t-78.5 -24q-42 0 -66 19t-24 57q0 43 29.5 69.5t78.5 26.5q42 0 67 -20.5t25 -59.5zM103 0l-91 500l209 10l38 -400h2l44 390h230 l47 -390h2l35 400l203 -10q-39 -277 -108 -500h-267l-33 290h-2q-17 -149 -59 -290h-250z" />
<glyph unicode="&#x1e92;" horiz-adv-x="528" d="M493 0h-443l-25 107l234 399q-150 -6 -224 -8l10 152h423l25 -106l-234 -400q41 3 122.5 8t121.5 8zM378 -143q0 -47 -36 -73t-88 -26q-47 0 -75.5 21.5t-28.5 61.5q0 44 34.5 73t89.5 29q47 0 75.5 -22.5t28.5 -63.5z" />
<glyph unicode="&#x1e93;" horiz-adv-x="487" d="M452 0h-407l-20 120l210 230h-1q-109 0 -200 -10l12 160h395l8 -120l-209 -230h22q104 0 200 15zM358 -143q0 -47 -36 -73t-88 -26q-47 0 -75.5 21.5t-28.5 61.5q0 44 34.5 73t89.5 29q47 0 75.5 -22.5t28.5 -63.5z" />
<glyph unicode="&#x1e9e;" horiz-adv-x="719" d="M644 550v-36l-129 -135q83 -41 128.5 -91t45.5 -120q0 -85 -63.5 -131.5t-159.5 -46.5q-84 0 -136 25v135q38 -25 76 -25q24 0 38.5 18t14.5 43q0 69 -129 113v48l135 146q-34 32 -87 32q-48 0 -74.5 -33.5t-26.5 -97.5v-276q0 -38 -9.5 -76t-28.5 -52l-194 10 q22 65 22 187v213q0 120 81.5 190t218.5 70q91 0 163.5 -30.5t113.5 -79.5z" />
<glyph unicode="&#x1ea0;" horiz-adv-x="677" d="M220 0h-195l154 520l33 131l262 9l178 -660h-206l-28 125h-170zM333 503l-62 -278h125l-61 278h-2zM453 -143q0 -47 -36 -73t-88 -26q-47 0 -75.5 21.5t-28.5 61.5q0 44 34.5 73t89.5 29q47 0 75.5 -22.5t28.5 -63.5z" />
<glyph unicode="&#x1ea1;" horiz-adv-x="549" d="M314 -10q-14 30 -24 77q-19 -34 -56.5 -55.5t-88.5 -21.5q-59 0 -92 34.5t-33 88.5q0 82 71 122.5t198 40.5v14q1 33 -19.5 49t-61.5 16q-65 0 -145 -41l-11 159q111 37 224 37q110 0 166.5 -48t56.5 -155q0 -17 -2.5 -73t-2.5 -81q0 -89 20 -153zM230 161 q0 -29 10.5 -45t26.5 -16q13 0 19 6l2 127q-58 -6 -58 -72zM385 -143q0 -47 -36 -73t-88 -26q-47 0 -75.5 21.5t-28.5 61.5q0 44 34.5 73t89.5 29q47 0 75.5 -22.5t28.5 -63.5z" />
<glyph unicode="&#x1eb8;" horiz-adv-x="520" d="M485 0h-425v511l-10 139h420l-10 -130l-190 10v-150l170 5l-10 -120l-160 5v-150l215 10v-130zM374 -143q0 -47 -36 -73t-88 -26q-47 0 -75.5 21.5t-28.5 61.5q0 44 34.5 73t89.5 29q47 0 75.5 -22.5t28.5 -63.5z" />
<glyph unicode="&#x1eb9;" horiz-adv-x="540" d="M488 19q-60 -29 -173 -29q-130 0 -210 66t-80 194q0 126 75 193t187 67q100 0 161.5 -53t61.5 -138q0 -35 -9 -74l-15 -18h-240q9 -46 38.5 -67t88.5 -21q61 0 117 18zM240 297v-17l68 6q3 26 3 45q0 73 -32 73q-39 0 -39 -107zM401 -143q0 -47 -36 -73t-88 -26 q-47 0 -75.5 21.5t-28.5 61.5q0 44 34.5 73t89.5 29q47 0 75.5 -22.5t28.5 -63.5z" />
<glyph unicode="&#x1ebc;" horiz-adv-x="520" d="M195 889q32 0 75.5 -21t63.5 -21q19 0 30.5 10.5t27.5 36.5l44 -9q-2 -67 -30 -114.5t-79 -47.5q-28 0 -76.5 21t-65.5 21q-32 0 -58 -47l-44 9q3 68 30 115t82 47zM485 0h-425v511l-10 139h420l-10 -130l-190 10v-150l170 5l-10 -120l-160 5v-150l215 10v-130z" />
<glyph unicode="&#x1ebd;" horiz-adv-x="540" d="M218 753q35 0 81.5 -26t68.5 -26q17 0 27.5 12t24.5 40l47 -9q-3 -69 -30 -118t-77 -49q-30 0 -82.5 26t-70.5 26q-29 0 -52 -52l-47 9q3 70 29 118.5t81 48.5zM488 19q-60 -29 -173 -29q-130 0 -210 66t-80 194q0 126 75 193t187 67q100 0 161.5 -53t61.5 -138 q0 -35 -9 -74l-15 -18h-240q9 -46 38.5 -67t88.5 -21q61 0 117 18zM240 297v-17l68 6q3 26 3 45q0 73 -32 73q-39 0 -39 -107z" />
<glyph unicode="&#x1eca;" horiz-adv-x="330" d="M270 0h-210v520l-10 130l220 10v-660zM279 -143q0 -47 -36 -73t-88 -26q-47 0 -75.5 21.5t-28.5 61.5q0 44 34.5 73t89.5 29q47 0 75.5 -22.5t28.5 -63.5z" />
<glyph unicode="&#x1ecb;" horiz-adv-x="317" d="M274 670q0 -47 -36 -73t-88 -26q-47 0 -75.5 21.5t-28.5 61.5q0 44 34.5 73t89.5 29q47 0 75.5 -22.5t28.5 -63.5zM265 0h-210v369l-10 131l220 10v-510zM274 -143q0 -47 -36 -73t-88 -26q-47 0 -75.5 21.5t-28.5 61.5q0 44 34.5 73t89.5 29q47 0 75.5 -22.5t28.5 -63.5z " />
<glyph unicode="&#x1ecc;" horiz-adv-x="655" d="M625 329q0 -163 -85 -251t-221 -88q-135 0 -212 86t-77 239q0 159 84 252t223 93q136 0 212 -89.5t76 -241.5zM260 328q0 -203 71 -203q37 0 50.5 52t13.5 148t-14 148t-51 52q-70 0 -70 -197zM442 -143q0 -47 -36 -73t-88 -26q-47 0 -75.5 21.5t-28.5 61.5q0 44 34.5 73 t89.5 29q47 0 75.5 -22.5t28.5 -63.5z" />
<glyph unicode="&#x1ecd;" horiz-adv-x="560" d="M535 254q0 -130 -74 -197t-187 -67q-111 0 -180 65.5t-69 190.5q0 130 74 197t187 67q111 0 180 -65.5t69 -190.5zM240 248q0 -75 8 -111.5t34 -36.5q22 0 30 32.5t8 122.5q0 85 -8 115t-31 30q-24 0 -32.5 -31.5t-8.5 -120.5zM394 -143q0 -47 -36 -73t-88 -26 q-47 0 -75.5 21.5t-28.5 61.5q0 44 34.5 73t89.5 29q47 0 75.5 -22.5t28.5 -63.5z" />
<glyph unicode="&#x1ee4;" horiz-adv-x="655" d="M327 125q63 0 63 90v305l-10 130l220 10v-436q0 -111 -80.5 -172.5t-201.5 -61.5q-120 0 -191.5 61.5t-71.5 172.5v296l-10 130l220 9v-446q0 -88 62 -88zM442 -143q0 -47 -36 -73t-88 -26q-47 0 -75.5 21.5t-28.5 61.5q0 44 34.5 73t89.5 29q47 0 75.5 -22.5t28.5 -63.5 z" />
<glyph unicode="&#x1ee5;" horiz-adv-x="588" d="M52 124v376l210 10v-363q0 -43 35 -43q12 0 29 5v391l210 10v-357q0 -89 20 -153l-200 -10q-20 43 -28 90q-22 -39 -62.5 -64.5t-91.5 -25.5q-58 0 -90 35t-32 99zM415 -143q0 -47 -36 -73t-88 -26q-47 0 -75.5 21.5t-28.5 61.5q0 44 34.5 73t89.5 29q47 0 75.5 -22.5 t28.5 -63.5z" />
<glyph unicode="&#x1ef2;" horiz-adv-x="617" d="M459 760l-48 -50q-150 23 -253 88l97 109q60 -50 204 -147zM414 0h-210v202l-189 448l206 10l91 -292h2l93 292l195 -10l-188 -448v-202z" />
<glyph unicode="&#x1ef3;" horiz-adv-x="550" d="M402 581l-60 -36q-114 69 -190 175l152 67q44 -112 98 -206zM107 -195q-76 0 -137 14v155q80 -18 161 -18q64 0 114.5 18t59.5 50h-197l-91 476l219 10l53 -400h2l40 400l199 -10q-18 -129 -50.5 -278.5t-57.5 -221.5q-39 -110 -110.5 -152.5t-204.5 -42.5z" />
<glyph unicode="&#x1ef8;" horiz-adv-x="617" d="M244 889q32 0 75.5 -21t63.5 -21q19 0 30.5 10.5t27.5 36.5l44 -9q-2 -67 -30 -114.5t-79 -47.5q-28 0 -76.5 21t-65.5 21q-32 0 -58 -47l-44 9q3 68 30 115t82 47zM414 0h-210v202l-189 448l206 10l91 -292h2l93 292l195 -10l-188 -448v-202z" />
<glyph unicode="&#x1ef9;" horiz-adv-x="550" d="M205 753q35 0 81.5 -26t68.5 -26q17 0 27.5 12t24.5 40l47 -9q-3 -69 -30 -118t-77 -49q-30 0 -82.5 26t-70.5 26q-29 0 -52 -52l-47 9q3 70 29 118.5t81 48.5zM107 -195q-76 0 -137 14v155q80 -18 161 -18q64 0 114.5 18t59.5 50h-197l-91 476l219 10l53 -400h2l40 400 l199 -10q-18 -129 -50.5 -278.5t-57.5 -221.5q-39 -110 -110.5 -152.5t-204.5 -42.5z" />
<glyph unicode="&#x2013;" horiz-adv-x="556" d="M30 241v60h496v-60h-496z" />
<glyph unicode="&#x2014;" horiz-adv-x="860" d="M30 241v60h800v-60h-800z" />
<glyph unicode="&#x2018;" horiz-adv-x="286" d="M65 464q0 70 53 137.5t117 93.5l26 -31q-60 -54 -80 -120q29 -6 46.5 -26t17.5 -51q0 -44 -26 -69.5t-65 -25.5q-40 0 -64.5 26t-24.5 66z" />
<glyph unicode="&#x2019;" horiz-adv-x="286" d="M221 603q0 -70 -53 -137.5t-117 -93.5l-26 31q60 54 80 120q-29 6 -46.5 26t-17.5 51q0 44 26 69.5t65 25.5q40 0 64.5 -26t24.5 -66z" />
<glyph unicode="&#x201a;" horiz-adv-x="261" d="M196 72q0 -70 -53 -137.5t-117 -93.5l-26 31q60 54 80 120q-29 6 -46.5 26t-17.5 51q0 44 26 69.5t65 25.5q40 0 64.5 -26t24.5 -66z" />
<glyph unicode="&#x201c;" horiz-adv-x="506" d="M65 464q0 70 53 137.5t117 93.5l26 -31q-60 -54 -80 -120q29 -6 46.5 -26t17.5 -51q0 -44 -26 -69.5t-65 -25.5q-40 0 -64.5 26t-24.5 66zM285 464q0 70 53 137.5t117 93.5l26 -31q-60 -54 -80 -120q29 -6 46.5 -26t17.5 -51q0 -44 -26 -69.5t-65 -25.5q-40 0 -64.5 26 t-24.5 66z" />
<glyph unicode="&#x201d;" horiz-adv-x="506" d="M441 603q0 -70 -53 -137.5t-117 -93.5l-26 31q60 54 80 120q-29 6 -46.5 26t-17.5 51q0 44 26 69.5t65 25.5q40 0 64.5 -26t24.5 -66zM221 603q0 -70 -53 -137.5t-117 -93.5l-26 31q60 54 80 120q-29 6 -46.5 26t-17.5 51q0 44 26 69.5t65 25.5q40 0 64.5 -26t24.5 -66z " />
<glyph unicode="&#x201e;" horiz-adv-x="468" d="M196 72q0 -70 -53 -137.5t-117 -93.5l-26 31q60 54 80 120q-29 6 -46.5 26t-17.5 51q0 44 26 69.5t65 25.5q40 0 64.5 -26t24.5 -66zM403 72q0 -70 -53 -137.5t-117 -93.5l-26 31q60 54 80 120q-29 6 -46.5 26t-17.5 51q0 44 26 69.5t65 25.5q40 0 64.5 -26t24.5 -66z " />
<glyph unicode="&#x2020;" horiz-adv-x="466" d="M333 -5l-200 -5l17 364l-129 -8l3 154l123 -8l-14 163l200 5l-14 -168l126 8l-3 -154l-126 8z" />
<glyph unicode="&#x2021;" horiz-adv-x="466" d="M333 -5l-200 -5l20 139l-132 -11l3 154l132 -11l-8 68l6 51l-133 -11l3 154l130 -11l-21 143l200 5l-21 -148l133 11l-3 -154l-130 11l6 -50l-8 -69l135 11l-3 -154l-129 11z" />
<glyph unicode="&#x2022;" horiz-adv-x="479" d="M399 275q0 -73 -49.5 -121t-123.5 -48q-64 0 -105 37.5t-41 102.5q0 73 50.5 121.5t124.5 48.5q63 0 103.5 -37.5t40.5 -103.5z" />
<glyph unicode="&#x2026;" horiz-adv-x="868" d="M711 -10q-39 0 -63.5 23t-24.5 59q0 39 28.5 65.5t68.5 26.5q36 0 59.5 -21.5t23.5 -56.5q0 -40 -26.5 -68t-65.5 -28zM432 -10q-39 0 -63.5 23t-24.5 59q0 39 28.5 65.5t68.5 26.5q36 0 59.5 -21.5t23.5 -56.5q0 -40 -26.5 -68t-65.5 -28zM153 -10q-39 0 -63.5 23 t-24.5 59q0 39 28.5 65.5t68.5 26.5q36 0 59.5 -21.5t23.5 -56.5q0 -40 -26.5 -68t-65.5 -28z" />
<glyph unicode="&#x2030;" horiz-adv-x="1376" d="M337 -10h-115l400 670h116zM403 473q0 -92 -54 -139t-137 -47q-82 0 -132 45t-50 133q0 90 53.5 140t138.5 50q84 0 132.5 -48.5t48.5 -133.5zM173 474q0 -58 9.5 -86.5t35.5 -28.5t34 26.5t8 73.5q0 67 -9.5 95.5t-34.5 28.5t-34 -26t-9 -83zM923 181q0 -92 -54 -139 t-137 -47q-82 0 -132 45t-50 133q0 90 53.5 140t138.5 50q84 0 132.5 -48.5t48.5 -133.5zM1346 181q0 -92 -54 -139t-137 -47q-82 0 -132 45t-50 133q0 90 53.5 140t138.5 50q84 0 132.5 -48.5t48.5 -133.5zM693 182q0 -58 9.5 -86.5t35.5 -28.5t34 26.5t8 73.5 q0 67 -9.5 95.5t-34.5 28.5t-34 -26t-9 -83zM1116 182q0 -58 9.5 -86.5t35.5 -28.5t34 26.5t8 73.5q0 67 -9.5 95.5t-34.5 28.5t-34 -26t-9 -83z" />
<glyph unicode="&#x2039;" horiz-adv-x="336" d="M37 253v54q122 93 224 203l38 -22q-32 -94 -102 -208q70 -114 102 -208l-38 -22q-102 110 -224 203z" />
<glyph unicode="&#x203a;" horiz-adv-x="336" d="M299 253q-122 -93 -224 -203l-38 22q32 94 102 208q-70 114 -102 208l38 22q102 -110 224 -203v-54z" />
<glyph unicode="&#x2044;" horiz-adv-x="656" d="M185 -10h-115l400 670h116z" />
<glyph unicode="&#x2070;" horiz-adv-x="433" d="M403 553q0 -92 -54 -139t-137 -47q-82 0 -132 45t-50 133q0 90 53.5 140t138.5 50q84 0 132.5 -48.5t48.5 -133.5zM173 554q0 -58 9.5 -86.5t35.5 -28.5t34 26.5t8 73.5q0 67 -9.5 95.5t-34.5 28.5t-34 -26t-9 -83z" />
<glyph unicode="&#x2074;" horiz-adv-x="440" d="M331 372h-140v44h-165l-6 57l211 264l100 -5v-203q23 1 54 5l-6 -118h-48v-44zM191 631l-83 -105h83v105z" />
<glyph unicode="&#x2075;" horiz-adv-x="412" d="M367 482q0 -57 -54 -87t-144 -30q-70 0 -114 12l11 72q36 -12 81 -12q63 0 63 43q0 20 -16.5 31t-42.5 11q-4 0 -67 -10l-10 5v213h156q70 0 118 5l-6 -115h-201v-52q43 12 88 12q63 0 100.5 -26t37.5 -72z" />
<glyph unicode="&#x2076;" horiz-adv-x="409" d="M206 365q-77 0 -126.5 41t-49.5 120q0 95 69.5 153t181.5 58q39 0 54 -5l-10 -73q-24 6 -44 6q-36 0 -65.5 -24t-39.5 -71q29 29 84 29q50 0 84.5 -28.5t34.5 -77.5q0 -59 -50 -93.5t-123 -34.5zM203 437q39 0 39 50q0 55 -42 55q-16 0 -27 -8q0 -59 6.5 -78t23.5 -19z " />
<glyph unicode="&#x2077;" horiz-adv-x="379" d="M223 372h-156q6 70 54 137t133 111h-89q-67 0 -128 -8l6 118h294l8 -7l4 -67q-64 -67 -94 -134t-32 -150z" />
<glyph unicode="&#x2078;" horiz-adv-x="423" d="M203 365q-79 0 -126 26t-47 65q0 28 28 49.5t75 27.5q-87 36 -87 99q0 47 47 76t122 29q73 0 117.5 -26.5t44.5 -66.5q0 -55 -85 -69q51 -17 76 -44.5t25 -56.5q0 -43 -50 -76t-140 -33zM211 665q-31 0 -31 -22q0 -24 47 -43q16 16 16 34q0 31 -32 31zM209 437 q20 0 33.5 9.5t13.5 22.5q0 24 -62 36q-27 -16 -27 -36q0 -13 11.5 -22.5t30.5 -9.5z" />
<glyph unicode="&#x2079;" horiz-adv-x="419" d="M40 606q0 62 49.5 96.5t122.5 34.5q78 0 127.5 -41t49.5 -120q0 -95 -69.5 -153t-181.5 -58q-39 0 -54 5l10 73q24 -6 44 -6q37 0 67 21.5t38 61.5q-31 -29 -83 -29q-50 0 -85 31.5t-35 83.5zM177 612q0 -26 10.5 -45t32.5 -19q14 0 26 8q0 67 -7 88t-25 21 q-37 0 -37 -53z" />
<glyph unicode="&#x207f;" horiz-adv-x="482" d="M214 372h-168v265l-8 95l176 7v-68q15 32 48 50t75 18q45 0 73 -25t28 -76v-266h-168v229q0 21 -28 21h-28v-250z" />
<glyph unicode="&#x2080;" horiz-adv-x="433" d="M403 16q0 -92 -54 -139t-137 -47q-82 0 -132 45t-50 133q0 90 53.5 140t138.5 50q84 0 132.5 -48.5t48.5 -133.5zM173 17q0 -58 9.5 -86.5t35.5 -28.5t34 26.5t8 73.5q0 67 -9.5 95.5t-34.5 28.5t-34 -26t-9 -83z" />
<glyph unicode="&#x2081;" horiz-adv-x="328" d="M238 -168h-140v277l-61 -23l-17 60l210 51l8 -7v-358z" />
<glyph unicode="&#x2082;" horiz-adv-x="414" d="M336 -168h-286l-10 79q45 24 98.5 75t53.5 86q0 17 -12.5 26.5t-33.5 9.5q-47 0 -94 -35l-12 94q69 30 149 30q73 0 116.5 -28.5t43.5 -73.5q0 -48 -50.5 -90t-129.5 -64h45q66 0 128 9z" />
<glyph unicode="&#x2083;" horiz-adv-x="373" d="M343 -68q0 -47 -49 -75.5t-132 -28.5q-67 0 -112 12l11 75q30 -15 69 -15q26 0 41 11t15 30q0 38 -62 38q-19 0 -40 -3v43q96 29 96 63q0 29 -46 29q-38 0 -76 -18l-4 80q59 27 136 27q66 0 106.5 -24t40.5 -60q0 -67 -127 -92q61 -5 97 -29.5t36 -62.5z" />
<glyph unicode="&#x2084;" horiz-adv-x="440" d="M331 -168h-140v44h-165l-6 57l211 264l100 -5v-203q23 1 54 5l-6 -118h-48v-44zM191 91l-83 -105h83v105z" />
<glyph unicode="&#x2085;" horiz-adv-x="412" d="M367 -55q0 -57 -54 -87t-144 -30q-70 0 -114 12l11 72q36 -12 81 -12q63 0 63 43q0 20 -16.5 31t-42.5 11q-4 0 -67 -10l-10 5v213h156q70 0 118 5l-6 -115h-201v-52q43 12 88 12q63 0 100.5 -26t37.5 -72z" />
<glyph unicode="&#x2086;" horiz-adv-x="409" d="M206 -172q-77 0 -126.5 41t-49.5 120q0 95 69.5 153t181.5 58q39 0 54 -5l-10 -73q-24 6 -44 6q-36 0 -65.5 -24t-39.5 -71q29 29 84 29q50 0 84.5 -28.5t34.5 -77.5q0 -59 -50 -93.5t-123 -34.5zM203 -100q39 0 39 50q0 55 -42 55q-16 0 -27 -8q0 -59 6.5 -78t23.5 -19z " />
<glyph unicode="&#x2087;" horiz-adv-x="379" d="M223 -168h-156q6 70 54 137t133 111h-89q-67 0 -128 -8l6 118h294l8 -7l4 -67q-64 -67 -94 -134t-32 -150z" />
<glyph unicode="&#x2088;" horiz-adv-x="423" d="M203 -172q-79 0 -126 26t-47 65q0 28 28 49.5t75 27.5q-87 36 -87 99q0 47 47 76t122 29q73 0 117.5 -26.5t44.5 -66.5q0 -55 -85 -69q51 -17 76 -44.5t25 -56.5q0 -43 -50 -76t-140 -33zM211 128q-31 0 -31 -22q0 -24 47 -43q16 16 16 34q0 31 -32 31zM209 -100 q20 0 33.5 9.5t13.5 22.5q0 24 -62 36q-27 -16 -27 -36q0 -13 11.5 -22.5t30.5 -9.5z" />
<glyph unicode="&#x2089;" horiz-adv-x="419" d="M40 69q0 62 49.5 96.5t122.5 34.5q78 0 127.5 -41t49.5 -120q0 -95 -69.5 -153t-181.5 -58q-39 0 -54 5l10 73q24 -6 44 -6q37 0 67 21.5t38 61.5q-31 -29 -83 -29q-50 0 -85 31.5t-35 83.5zM177 75q0 -26 10.5 -45t32.5 -19q14 0 26 8q0 67 -7 88t-25 21q-37 0 -37 -53z " />
<glyph unicode="&#x20ac;" horiz-adv-x="563" d="M10 243l5 61h43v11q0 23 1 34h-40l5 61h43q23 117 101.5 183.5t194.5 66.5q98 0 175 -36l-25 -154q-57 35 -121 35q-87 0 -109 -95h159l-5 -61h-161v-20q0 -17 1 -25h156l-5 -61h-143q22 -91 124 -91q56 0 103 15l23 -145q-81 -32 -171 -32q-128 0 -205.5 66.5 t-95.5 186.5h-53z" />
<glyph unicode="&#x2122;" horiz-adv-x="647" d="M341 567h-1l-14 -142h-75l32 225l127 3l14 -156h1l12 153l129 3l31 -228h-97l-12 142h-1l-21 -142h-107zM183 425h-95v163l-58 -4l4 66h204l3 -66l-58 4v-163z" />
<glyph unicode="&#x2212;" horiz-adv-x="591" d="M510 256h-430v132q145 6 431 6z" />
<glyph unicode="&#x221e;" horiz-adv-x="843" d="M783 326q0 -85 -51.5 -140.5t-133.5 -55.5q-99 0 -178 95q-66 -95 -182 -95q-79 0 -128.5 54.5t-49.5 139.5t51.5 140.5t133.5 55.5q96 0 178 -95q66 95 182 95q79 0 128.5 -54.5t49.5 -139.5zM572 401q-23 0 -47.5 -16.5t-40.5 -40.5q22 -31 35 -47.5t32.5 -30.5 t37.5 -14q22 0 38.5 20t16.5 53q0 35 -19.5 55.5t-52.5 20.5zM199 325q0 -35 19.5 -55.5t52.5 -20.5q24 0 48 16.5t40 40.5q-32 46 -55 69t-50 23q-22 0 -38.5 -20t-16.5 -53z" />
<glyph unicode="&#x2248;" horiz-adv-x="644" d="M205 388q-11 0 -53 -49l-72 34q14 31 26 52.5t29.5 48t37 40.5t38.5 14q31 0 123.5 -22t104.5 -22q10 0 54 49l71 -34q-14 -31 -26 -52.5t-29.5 -48t-37 -40.5t-38.5 -14q-31 0 -123 22t-105 22zM205 164q-11 0 -53 -49l-72 34q14 31 26 52.5t29.5 48t37 40.5t38.5 14 q31 0 123.5 -22t104.5 -22q10 0 54 49l71 -34q-14 -31 -26 -52.5t-29.5 -48t-37 -40.5t-38.5 -14q-31 0 -123 22t-105 22z" />
<glyph unicode="&#x2260;" horiz-adv-x="599" d="M184 23l-69 39l46 87h-81v132q39 2 153 4l42 78h-195v132q99 3 268 5l66 125l11 3l69 -39l-47 -88h64l-1 -138h-136l-41 -77q68 1 178 1l-1 -138h-250l-65 -123z" />
<glyph unicode="&#x2264;" horiz-adv-x="605" d="M520 615v-147l-227 -53l226 -50v-152q-74 19 -217.5 65t-216.5 73v125zM515 36h-430v132q146 6 431 6z" />
<glyph unicode="&#x2265;" horiz-adv-x="609" d="M89 213v147l227 53l-226 50v152q74 -19 217.5 -65t216.5 -73v-125zM515 36h-430v132q146 6 431 6z" />
<glyph unicode="&#x25fc;" horiz-adv-x="510" d="M0 510h510v-510h-510v510z" />
<glyph unicode="&#xfb00;" horiz-adv-x="705" d="M278 0h-210v387l-55 2v53l65 20v2q-26 35 -26 80q0 63 57 99.5t151 36.5q87 0 163 -28q55 43 158 43q89 0 139 -25l-22 -139q-40 14 -79 14q-52 0 -52 -51q0 -16 4 -32h132l-8 -83l-97 3v-382h-210v387l-110 3v-390zM247 490q0 -15 4 -28h147v2q-20 25 -25 67 q-34 14 -67 14q-27 0 -43 -14t-16 -41z" />
<glyph unicode="&#xfb01;" horiz-adv-x="650" d="M278 0h-210v388l-55 1v53l65 20v2q-26 33 -26 83q0 71 68.5 109.5t187.5 38.5q123 0 192 -25l-22 -139q-70 14 -137 14q-94 0 -94 -51q0 -16 4 -32h127l190 38l30 -4v-496h-210v369l-1 10l-109 3v-382z" />
<glyph unicode="&#xfb02;" horiz-adv-x="650" d="M278 0h-210v387l-55 2v53l65 20v2q-26 35 -26 80q0 63 60.5 99.5t161.5 36.5q56 0 115 -11l209 26v-695h-210v387l-110 2v-389zM247 491q0 -16 4 -29h137v70q-43 13 -80 13q-61 0 -61 -54z" />
<glyph unicode="&#xfb03;" horiz-adv-x="961" d="M278 0h-210v387l-55 2v53l65 20v2q-26 35 -26 80q0 63 57 99.5t151 36.5q90 0 169 -30q70 45 199 45q123 0 192 -25l-22 -139q-70 14 -137 14q-94 0 -94 -51q0 -16 4 -32h127l190 38l30 -4v-496h-210v369l-1 10l-109 3v-382h-210v387l-110 3v-390zM247 490q0 -15 4 -28 h147v2q-20 25 -25 67q-34 14 -67 14q-27 0 -43 -14t-16 -41z" />
<glyph unicode="&#xfb04;" horiz-adv-x="970" d="M278 0h-210v387l-55 2v53l65 20v2q-26 35 -26 80q0 63 57 99.5t151 36.5q97 0 176 -33l-1 -2q59 35 159 35q56 0 115 -11l209 26v-695h-210v387l-110 2v-389h-210v387l-110 3v-390zM247 490q0 -15 4 -28h147v2q-22 30 -25 67q-34 14 -67 14q-27 0 -43 -14t-16 -41z M567 491q0 -16 4 -29h137v70q-43 13 -80 13q-61 0 -61 -54z" />
<glyph unicode="&#xfb06;" horiz-adv-x="902" d="M459 147q0 -72 -61 -114.5t-173 -42.5t-190 26l10 160q37 -20 86.5 -31.5t84.5 -11.5q38 0 38 19q0 8 -5 14t-15.5 11.5t-21.5 9.5t-29.5 11t-33.5 14q-107 49 -107 135q0 75 66 119t168 44q46 0 86 -9q-16 24 -16 56q0 66 64 110.5t162 44.5q87 0 139.5 -36t52.5 -97 q0 -54 -33 -89h146l-8 -83l-120 3v-186q0 -38 15 -60.5t44 -22.5q35 0 69 16l-2 -139q-49 -28 -141 -28q-97 0 -146 48t-49 152v226l-55 1l6 55l69 18q15 13 15 44q0 29 -18 46.5t-51 17.5q-35 0 -58.5 -19t-23.5 -47q0 -30 24 -62l-15 -144q-90 41 -150 41q-35 0 -35 -21 q0 -8 4.5 -14.5t15.5 -12l19 -9.5t25 -9.5t23 -8.5q125 -48 125 -145z" />
<glyph horiz-adv-x="330" d="M315 799q-103 -65 -253 -88l-48 50q144 97 204 147zM-30 -109q90 27 90 145v484l-10 130l220 10v-504q0 -88 -11 -145t-41 -104t-87 -71.5t-146 -30.5z" />
<glyph horiz-adv-x="441" d="M255 5q-10 18 -19 57q-31 -57 -116 -57q-47 0 -73.5 25t-26.5 64q0 59 56.5 88t158.5 29v3q0 41 -65 41q-50 0 -116 -28l-8 127q89 25 179 25q88 0 133 -35.5t45 -116.5q0 -13 -2 -48t-2 -54q0 -66 16 -113zM188 133q0 -22 8.5 -34t21.5 -12q9 0 15 3l1 88 q-46 -5 -46 -45z" />
<glyph horiz-adv-x="478" d="M38 505l176 7v-188q14 25 42 40t60 15q58 0 95 -47t37 -131q0 -97 -50 -146.5t-130 -49.5q-43 0 -87 14l-135 -14v405zM233 288q-13 0 -19 -1v-194q5 -1 14 -1q30 0 39 20t9 80q0 47 -8 71.5t-35 24.5z" />
<glyph horiz-adv-x="385" d="M360 361l-12 -129q-42 32 -82 32q-64 0 -64 -71q0 -69 77 -69q37 0 76 12l-2 -111q-35 -20 -109 -20q-91 0 -152.5 48t-61.5 140q0 91 62.5 138.5t155.5 47.5q58 0 112 -18z" />
<glyph horiz-adv-x="486" d="M287 5q-9 15 -18 51q-36 -51 -106 -51q-60 0 -96.5 48.5t-36.5 129.5q0 96 49.5 146t124.5 50q33 0 60 -10v41l-8 95l176 7v-383q0 -69 16 -117zM202 190q0 -22 1.5 -37t5.5 -30.5t13 -23t23 -7.5q13 0 19 1v199h-13q-30 0 -39.5 -19.5t-9.5 -82.5z" />
<glyph horiz-adv-x="446" d="M400 25q-47 -20 -138 -20q-104 0 -168 47.5t-64 140.5q0 92 60 139t150 47q80 0 129 -38.5t49 -99.5q0 -25 -7 -55l-12 -13h-189q17 -49 98 -49q52 0 94 11zM202 230v-16l54 4q3 18 3 33q0 44 -26 44q-31 0 -31 -65z" />
<glyph horiz-adv-x="330" d="M226 12h-168v273l-44 1v42l52 15v2q-21 21 -21 57q0 53 45 81.5t122 28.5q72 0 112 -19l-18 -110q-35 10 -63 10q-42 0 -42 -33q0 -5 3 -17h106l-6 -65l-78 2v-268z" />
<glyph horiz-adv-x="454" d="M74 54q0 27 23 47t66 29q-139 16 -139 117q0 62 49.5 97t133.5 35q148 0 225 8v-96l-89 7l-1 -1q66 -12 66 -69q0 -50 -54 -75t-142 -25h-11q-2 -4 -2 -7q0 -17 32 -17l66 -1q143 -2 143 -102q0 -125 -244 -125q-182 0 -182 65q0 50 96 56q-36 23 -36 57zM188 245 q0 -56 29 -56q27 0 27 52q0 53 -29 53q-27 0 -27 -49zM174 -27q0 -51 54 -51q26 0 43 9.5t17 25.5q0 25 -47 25h-65q-2 -6 -2 -9z" />
<glyph horiz-adv-x="482" d="M214 12h-168v398l-8 95l176 7v-201q15 32 47.5 50t73.5 18q47 0 75 -24.5t28 -76.5v-266h-168v229q0 21 -28 21h-28v-250z" />
<glyph horiz-adv-x="258" d="M226 483q0 -38 -31 -59.5t-74 -21.5q-39 0 -63 17.5t-24 49.5q0 37 29.5 60.5t75.5 23.5q39 0 63 -18.5t24 -51.5zM214 12h-168v264l-8 96l176 7v-367z" />
<glyph horiz-adv-x="258" d="M226 483q0 -39 -30.5 -60t-74.5 -21q-39 0 -63 17.5t-24 49.5q0 37 29.5 60.5t75.5 23.5q39 0 63 -18.5t24 -51.5zM7 -69q39 58 39 180v165l-8 96l176 7v-235q0 -47 -5 -82t-21 -75.5t-53 -68.5t-93 -42z" />
<glyph horiz-adv-x="487" d="M214 12h-168v398l-8 95l176 7v-291h14l66 158l172 -7l-94 -161l101 -199l-185 -7l-56 158h-18v-151z" />
<glyph horiz-adv-x="292" d="M230 12h-168v398l-8 95l176 7v-500z" />
<glyph horiz-adv-x="698" d="M214 12h-168v265l-8 95l176 7v-68q15 32 47 50t71 18q85 0 99 -73q14 34 47 53.5t74 19.5q47 0 74.5 -24.5t27.5 -76.5v-266h-168v229q0 21 -26 21q-17 0 -26 1v-251h-168v229q0 21 -26 21h-26v-250z" />
<glyph horiz-adv-x="482" d="M214 12h-168v265l-8 95l176 7v-68q15 32 48 50t75 18q45 0 73 -25t28 -76v-266h-168v229q0 21 -28 21h-28v-250z" />
<glyph horiz-adv-x="468" d="M438 194q0 -94 -59.5 -141.5t-149.5 -47.5q-88 0 -143.5 47t-55.5 138q0 94 59 141.5t150 47.5q88 0 143.5 -47t55.5 -138zM202 191q0 -49 6.5 -74t27.5 -25q17 0 23.5 21.5t6.5 81.5q0 58 -6 77.5t-25 19.5q-20 0 -26.5 -21t-6.5 -80z" />
<glyph horiz-adv-x="478" d="M46 277l-8 95l176 7v-52q35 52 102 52q57 0 94.5 -47.5t37.5 -130.5q0 -96 -49.5 -146t-124.5 -50q-33 0 -60 10v-44q0 -49 8 -92l-176 -7v405zM233 292q-13 0 -19 -1v-199h14q30 0 39 19.5t9 82.5q0 23 -1.5 38t-5.5 30t-13 22.5t-23 7.5z" />
<glyph horiz-adv-x="475" d="M440 -117l-176 -7v185q-15 -25 -42.5 -40.5t-61.5 -15.5q-58 0 -94 45.5t-36 123.5q0 100 57.5 152.5t150.5 52.5q32 0 59 -6l135 6v-404q0 -32 8 -92zM202 173q0 -17 1.5 -28.5t5.5 -23.5t13 -18.5t23 -6.5q13 0 19 1v195h-5q-33 0 -45 -24.5t-12 -94.5z" />
<glyph horiz-adv-x="353" d="M214 12h-168v265l-8 95l176 7v-111q8 42 32.5 76.5t59.5 34.5q21 0 33 -8l-11 -165q-27 6 -58 9q-38 5 -56 15v-218z" />
<glyph horiz-adv-x="399" d="M369 121q0 -53 -48.5 -84.5t-138.5 -31.5q-93 0 -152 18l8 126q61 -30 137 -30q30 0 30 6q0 8 -9.5 12.5t-33.5 11t-41 13.5q-85 34 -85 98q0 55 53.5 87t137.5 32q65 0 129 -18l-8 -125q-70 29 -120 29q-28 0 -28 -8q0 -5 4 -8.5t12 -7t15 -6t19 -5.5t18 -5 q101 -32 101 -104z" />
<glyph horiz-adv-x="358" d="M326 301l-92 2v-121q0 -57 47 -57q29 0 55 10l-1 -110q-42 -20 -117 -20q-156 0 -156 150v153l-44 1v41l60 16v1l38 81l118 7v-89h98z" />
<glyph horiz-adv-x="485" d="M44 98v274l168 7v-263q0 -21 28 -21h23v277l168 7v-252q0 -67 16 -115l-160 -7q-15 28 -22 66q-18 -28 -51 -47t-72 -19q-47 0 -72.5 24t-25.5 69z" />
<glyph horiz-adv-x="446" d="M428 372q-31 -202 -86 -360h-247l-77 360l175 7l43 -281h1l32 281z" />
<glyph horiz-adv-x="684" d="M91 12l-73 360l167 7l31 -281h1l35 273h184l38 -273h2l28 281l162 -7q-32 -207 -86 -360h-214l-26 192h-2q-14 -101 -47 -192h-200z" />
<glyph horiz-adv-x="442" d="M250 12l-49 104l-37 -104h-148q50 104 102 191l-94 169l166 7l51 -118l37 118l148 -7q-45 -97 -101 -192l93 -168h-168z" />
<glyph horiz-adv-x="444" d="M88 -128q-63 0 -110 10v124q61 -14 129 -14q51 0 91 10.5t48 29.5h-158l-72 340l175 7l42 -281h2l32 281l159 -7q-14 -97 -39.5 -202t-46.5 -158q-33 -79 -89 -109.5t-163 -30.5z" />
<glyph horiz-adv-x="390" d="M362 12h-326l-16 96l159 144q-85 0 -152 -7l10 127h316l6 -96l-159 -144h10q85 0 160 11z" />
<glyph horiz-adv-x="441" d="M255 365q-10 18 -19 57q-31 -57 -116 -57q-47 0 -73.5 25t-26.5 64q0 59 56.5 88t158.5 29v3q0 41 -65 41q-50 0 -116 -28l-8 127q89 25 179 25q88 0 133 -35.5t45 -116.5q0 -13 -2 -48t-2 -54q0 -66 16 -113zM188 493q0 -22 8.5 -34t21.5 -12q9 0 15 3l1 88 q-46 -5 -46 -45z" />
<glyph horiz-adv-x="478" d="M38 865l176 7v-188q14 25 42 40t60 15q58 0 95 -47t37 -131q0 -97 -50 -146.5t-130 -49.5q-43 0 -87 14l-135 -14v405zM233 648q-13 0 -19 -1v-194q5 -1 14 -1q30 0 39 20t9 80q0 47 -8 71.5t-35 24.5z" />
<glyph horiz-adv-x="385" d="M360 721l-12 -129q-42 32 -82 32q-64 0 -64 -71q0 -69 77 -69q37 0 76 12l-2 -111q-35 -20 -109 -20q-91 0 -152.5 48t-61.5 140q0 91 62.5 138.5t155.5 47.5q58 0 112 -18z" />
<glyph horiz-adv-x="486" d="M287 365q-9 15 -18 51q-36 -51 -106 -51q-60 0 -96.5 48.5t-36.5 129.5q0 96 49.5 146t124.5 50q33 0 60 -10v41l-8 95l176 7v-383q0 -69 16 -117zM202 550q0 -22 1.5 -37t5.5 -30.5t13 -23t23 -7.5q13 0 19 1v199h-13q-30 0 -39.5 -19.5t-9.5 -82.5z" />
<glyph horiz-adv-x="446" d="M400 385q-47 -20 -138 -20q-104 0 -168 47.5t-64 140.5q0 92 60 139t150 47q80 0 129 -38.5t49 -99.5q0 -25 -7 -55l-12 -13h-189q17 -49 98 -49q52 0 94 11zM202 590v-16l54 4q3 18 3 33q0 44 -26 44q-31 0 -31 -65z" />
<glyph horiz-adv-x="330" d="M226 372h-168v273l-44 1v42l52 15v2q-21 21 -21 57q0 53 45 81.5t122 28.5q72 0 112 -19l-18 -110q-35 10 -63 10q-42 0 -42 -33q0 -5 3 -17h106l-6 -65l-78 2v-268z" />
<glyph horiz-adv-x="454" d="M74 414q0 27 23 47t66 29q-139 16 -139 117q0 62 49.5 97t133.5 35q148 0 225 8v-96l-89 7l-1 -1q66 -12 66 -69q0 -50 -54 -75t-142 -25h-11q-2 -4 -2 -7q0 -17 32 -17l66 -1q143 -2 143 -102q0 -125 -244 -125q-182 0 -182 65q0 50 96 56q-36 23 -36 57zM188 605 q0 -56 29 -56q27 0 27 52q0 53 -29 53q-27 0 -27 -49zM174 333q0 -51 54 -51q26 0 43 9.5t17 25.5q0 25 -47 25h-65q-2 -6 -2 -9z" />
<glyph horiz-adv-x="482" d="M214 372h-168v398l-8 95l176 7v-201q15 32 47.5 50t73.5 18q47 0 75 -24.5t28 -76.5v-266h-168v229q0 21 -28 21h-28v-250z" />
<glyph horiz-adv-x="258" d="M226 843q0 -38 -31 -59.5t-74 -21.5q-39 0 -63 17.5t-24 49.5q0 37 29.5 60.5t75.5 23.5q39 0 63 -18.5t24 -51.5zM214 372h-168v264l-8 96l176 7v-367z" />
<glyph horiz-adv-x="258" d="M226 843q0 -39 -30.5 -60t-74.5 -21q-39 0 -63 17.5t-24 49.5q0 37 29.5 60.5t75.5 23.5q39 0 63 -18.5t24 -51.5zM7 291q39 58 39 180v165l-8 96l176 7v-235q0 -47 -5 -82t-21 -75.5t-53 -68.5t-93 -42z" />
<glyph horiz-adv-x="487" d="M214 372h-168v398l-8 95l176 7v-291h14l66 158l172 -7l-94 -161l101 -199l-185 -7l-56 158h-18v-151z" />
<glyph horiz-adv-x="292" d="M230 372h-168v398l-8 95l176 7v-500z" />
<glyph horiz-adv-x="698" d="M214 372h-168v265l-8 95l176 7v-68q15 32 47 50t71 18q85 0 99 -73q14 34 47 53.5t74 19.5q47 0 74.5 -24.5t27.5 -76.5v-266h-168v229q0 21 -26 21q-17 0 -26 1v-251h-168v229q0 21 -26 21h-26v-250z" />
<glyph horiz-adv-x="468" d="M438 554q0 -94 -59.5 -141.5t-149.5 -47.5q-88 0 -143.5 47t-55.5 138q0 94 59 141.5t150 47.5q88 0 143.5 -47t55.5 -138zM202 551q0 -49 6.5 -74t27.5 -25q17 0 23.5 21.5t6.5 81.5q0 58 -6 77.5t-25 19.5q-20 0 -26.5 -21t-6.5 -80z" />
<glyph horiz-adv-x="478" d="M46 637l-8 95l176 7v-52q35 52 102 52q57 0 94.5 -47.5t37.5 -130.5q0 -96 -49.5 -146t-124.5 -50q-33 0 -60 10v-44q0 -49 8 -92l-176 -7v405zM233 652q-13 0 -19 -1v-199h14q30 0 39 19.5t9 82.5q0 23 -1.5 38t-5.5 30t-13 22.5t-23 7.5z" />
<glyph horiz-adv-x="475" d="M440 243l-176 -7v185q-15 -25 -42.5 -40.5t-61.5 -15.5q-58 0 -94 45.5t-36 123.5q0 100 57.5 152.5t150.5 52.5q32 0 59 -6l135 6v-404q0 -32 8 -92zM202 533q0 -17 1.5 -28.5t5.5 -23.5t13 -18.5t23 -6.5q13 0 19 1v195h-5q-33 0 -45 -24.5t-12 -94.5z" />
<glyph horiz-adv-x="353" d="M214 372h-168v265l-8 95l176 7v-111q8 42 32.5 76.5t59.5 34.5q21 0 33 -8l-11 -165q-27 6 -58 9q-38 5 -56 15v-218z" />
<glyph horiz-adv-x="399" d="M369 481q0 -53 -48.5 -84.5t-138.5 -31.5q-93 0 -152 18l8 126q61 -30 137 -30q30 0 30 6q0 8 -9.5 12.5t-33.5 11t-41 13.5q-85 34 -85 98q0 55 53.5 87t137.5 32q65 0 129 -18l-8 -125q-70 29 -120 29q-28 0 -28 -8q0 -5 4 -8.5t12 -7t15 -6t19 -5.5t18 -5 q101 -32 101 -104z" />
<glyph horiz-adv-x="358" d="M326 661l-92 2v-121q0 -57 47 -57q29 0 55 10l-1 -110q-42 -20 -117 -20q-156 0 -156 150v153l-44 1v41l60 16v1l38 81l118 7v-89h98z" />
<glyph horiz-adv-x="485" d="M44 458v274l168 7v-263q0 -21 28 -21h23v277l168 7v-252q0 -67 16 -115l-160 -7q-15 27 -22 66q-18 -28 -51 -47t-72 -19q-47 0 -72.5 24t-25.5 69z" />
<glyph horiz-adv-x="446" d="M428 732q-31 -202 -86 -360h-247l-77 360l175 7l43 -281h1l32 281z" />
<glyph horiz-adv-x="684" d="M91 372l-73 360l167 7l31 -281h1l35 273h184l38 -273h2l28 281l162 -7q-32 -207 -86 -360h-214l-26 192h-2q-14 -101 -47 -192h-200z" />
<glyph horiz-adv-x="442" d="M250 372l-49 104l-37 -104h-148q50 104 102 191l-94 169l166 7l51 -118l37 118l148 -7q-45 -97 -101 -192l93 -168h-168z" />
<glyph horiz-adv-x="444" d="M88 232q-63 0 -110 10v124q61 -14 129 -14q51 0 91 10.5t48 29.5h-158l-72 340l175 7l42 -281h2l32 281l159 -7q-14 -97 -39.5 -202t-46.5 -158q-33 -79 -89 -109.5t-163 -30.5z" />
<glyph horiz-adv-x="390" d="M362 372h-326l-16 96l159 144q-85 0 -152 -7l10 127h316l6 -96l-159 -144h10q85 0 160 11z" />
<glyph horiz-adv-x="317" d="M287 720q-76 -106 -190 -175l-60 36q54 94 98 206zM6 -120q49 79 49 240v249l-10 131l220 10v-350q0 -142 -46.5 -229.5t-168.5 -120.5z" />
<glyph horiz-adv-x="1050" d="M718 0h-210v555q-8 1 -21 1q-54 0 -54 -44q0 -28 15 -58l-26 -133q-52 44 -102 44q-35 0 -57.5 -27.5t-22.5 -86.5q0 -112 96 -112q43 0 95 19l-2 -139q-44 -29 -134 -29q-115 0 -192.5 67t-77.5 192q0 126 77 193.5t185 67.5q31 0 66 -7q-7 24 -7 47q0 72 58 117t163 45 q80 0 151 -17v-279q19 44 59.5 69t91.5 25q58 0 93.5 -36.5t35.5 -107.5v-366h-210v320q0 43 -35 43q-16 0 -35 -7v-356z" />
<glyph horiz-adv-x="876" d="M448 454l-26 -133q-52 44 -102 44q-35 0 -57.5 -27.5t-22.5 -86.5q0 -112 96 -112q43 0 95 19l-2 -139q-44 -29 -134 -29q-115 0 -192.5 67t-77.5 192q0 126 77 193.5t185 67.5q31 0 66 -7q-11 22 -11 54q0 64 56.5 109.5t150.5 45.5q85 0 137 -36t52 -96q0 -55 -33 -90 h146l-8 -83l-120 3v-186q0 -38 15 -60.5t44 -22.5q35 0 69 16l-2 -139q-49 -28 -141 -28q-97 0 -146 48t-49 152v226l-41 1l11 55l50 18q15 13 15 43q0 29 -17 47t-47 18t-47.5 -19t-17.5 -49q0 -38 29 -76z" />
<glyph horiz-adv-x="1076" d="M459 147q0 -72 -61 -114.5t-173 -42.5t-190 26l10 160q37 -20 86.5 -31.5t84.5 -11.5q38 0 38 19q0 8 -5 14t-15.5 11.5t-21.5 9.5t-29.5 11t-33.5 14q-107 49 -107 135q0 75 66 119t168 44q41 0 75 -7q-14 22 -14 51q0 68 67.5 113t185.5 45q83 0 154 -17v-279 q19 44 59.5 69t91.5 25q58 0 93.5 -36.5t35.5 -107.5v-366h-210v320q0 43 -35 43q-16 0 -35 -7v-356h-210v551q-25 5 -45 5q-30 0 -48 -13.5t-18 -33.5q0 -23 24 -39l-15 -144q-90 41 -150 41q-35 0 -35 -21q0 -8 4.5 -14.5t15.5 -12l19 -9.5t25 -9.5t23 -8.5 q125 -48 125 -145z" />
<glyph horiz-adv-x="433" d="M403 181q0 -92 -54 -139t-137 -47q-82 0 -132 45t-50 133q0 90 53.5 140t138.5 50q84 0 132.5 -48.5t48.5 -133.5zM173 182q0 -58 9.5 -86.5t35.5 -28.5t34 26.5t8 73.5q0 67 -9.5 95.5t-34.5 28.5t-34 -26t-9 -83z" />
<glyph horiz-adv-x="328" d="M238 0h-140v277l-61 -23l-17 60l210 51l8 -7v-358z" />
<glyph horiz-adv-x="414" d="M336 0h-286l-10 79q45 24 98.5 75t53.5 86q0 17 -12.5 26.5t-33.5 9.5q-47 0 -94 -35l-12 94q69 30 149 30q73 0 116.5 -28.5t43.5 -73.5q0 -48 -50.5 -90t-129.5 -64h45q66 0 128 9z" />
<glyph horiz-adv-x="373" d="M343 97q0 -47 -49 -75.5t-132 -28.5q-67 0 -112 12l11 75q30 -15 69 -15q26 0 41 11t15 30q0 38 -62 38q-19 0 -40 -3v43q96 29 96 63q0 29 -46 29q-38 0 -76 -18l-4 80q59 27 136 27q66 0 106.5 -24t40.5 -60q0 -67 -127 -92q61 -5 97 -29.5t36 -62.5z" />
<glyph horiz-adv-x="440" d="M331 0h-140v44h-165l-6 57l211 264l100 -5v-203q23 1 54 5l-6 -118h-48v-44zM191 259l-83 -105h83v105z" />
<glyph horiz-adv-x="412" d="M367 110q0 -57 -54 -87t-144 -30q-70 0 -114 12l11 72q36 -12 81 -12q63 0 63 43q0 20 -16.5 31t-42.5 11q-4 0 -67 -10l-10 5v213h156q70 0 118 5l-6 -115h-201v-52q43 12 88 12q63 0 100.5 -26t37.5 -72z" />
<glyph horiz-adv-x="409" d="M206 -7q-77 0 -126.5 41t-49.5 120q0 95 69.5 153t181.5 58q39 0 54 -5l-10 -73q-24 6 -44 6q-36 0 -65.5 -24t-39.5 -71q29 29 84 29q50 0 84.5 -28.5t34.5 -77.5q0 -59 -50 -93.5t-123 -34.5zM203 65q39 0 39 50q0 55 -42 55q-16 0 -27 -8q0 -59 6.5 -78t23.5 -19z" />
<glyph horiz-adv-x="379" d="M223 0h-156q6 70 54 137t133 111h-89q-67 0 -128 -8l6 118h294l8 -7l4 -67q-64 -67 -94 -134t-32 -150z" />
<glyph horiz-adv-x="423" d="M203 -7q-79 0 -126 26t-47 65q0 28 28 49.5t75 27.5q-87 36 -87 99q0 47 47 76t122 29q73 0 117.5 -26.5t44.5 -66.5q0 -55 -85 -69q51 -17 76 -44.5t25 -56.5q0 -43 -50 -76t-140 -33zM211 293q-31 0 -31 -22q0 -24 47 -43q16 16 16 34q0 31 -32 31zM209 65 q20 0 33.5 9.5t13.5 22.5q0 24 -62 36q-27 -16 -27 -36q0 -13 11.5 -22.5t30.5 -9.5z" />
<glyph horiz-adv-x="419" d="M40 234q0 62 49.5 96.5t122.5 34.5q78 0 127.5 -41t49.5 -120q0 -95 -69.5 -153t-181.5 -58q-39 0 -54 5l10 73q24 -6 44 -6q37 0 67 21.5t38 61.5q-31 -29 -83 -29q-50 0 -85 31.5t-35 83.5zM177 240q0 -26 10.5 -45t32.5 -19q14 0 26 8q0 67 -7 88t-25 21 q-37 0 -37 -53z" />
<glyph horiz-adv-x="631" d="M601 329q0 -167 -83.5 -253t-209.5 -86q-124 0 -201 83t-77 242q0 164 82 254.5t212 90.5q128 0 202.5 -88t74.5 -243zM245 330q0 -114 16 -172t57 -58t54.5 53t13.5 155q0 125 -15.5 183.5t-56.5 58.5q-39 0 -54 -52.5t-15 -167.5z" />
<glyph horiz-adv-x="440" d="M350 0h-210v525l-95 -45l-25 93l318 87l12 -10v-650z" />
<glyph horiz-adv-x="578" d="M494 0h-439l-15 118q45 34 95.5 85t96.5 123t46 126q0 32 -21 52.5t-58 20.5q-77 0 -141 -62l-17 142q104 55 228 55q111 0 177.5 -50t66.5 -134q0 -89 -92 -173.5t-229 -138.5h113q103 0 198 15z" />
<glyph horiz-adv-x="529" d="M499 176q0 -84 -75 -135t-203 -51q-97 0 -171 23l16 114q49 -27 106 -27q42 0 67 24.5t25 66.5q0 41 -27 61t-72 20q-32 0 -62 -6v67q65 23 108 58t43 73q0 29 -20 45t-54 16q-59 0 -117 -35l-7 121q92 49 208 49q103 0 164 -41.5t61 -105.5q0 -60 -55 -103.5t-153 -67.5 q101 -8 159.5 -50.5t58.5 -115.5z" />
<glyph horiz-adv-x="633" d="M494 0h-210v97h-255l-9 86l324 477l150 -10v-394q51 5 84 10l-9 -169h-75v-97zM284 479l-162 -228h162v228z" />
<glyph horiz-adv-x="577" d="M532 199q0 -100 -82.5 -154.5t-219.5 -54.5q-98 0 -175 23l16 110q58 -23 126 -23q45 0 72.5 24.5t27.5 71.5q0 45 -26 68.5t-68 23.5q-27 0 -104 -18l-14 9v371h238q99 0 180 10l-9 -174h-308v-129q67 21 134 21q98 0 155 -48t57 -131z" />
<glyph horiz-adv-x="593" d="M301 -10q-120 0 -195.5 74.5t-75.5 217.5q0 171 106 274.5t274 103.5q61 0 86 -10l-15 -111q-35 11 -68 11q-58 0 -104 -51.5t-59 -153.5q44 60 133 60q74 0 127 -52t53 -138q0 -103 -76 -164t-186 -61zM296 100q30 0 46 28.5t16 76.5t-16.5 79.5t-48.5 31.5 q-27 0 -48 -16q0 -119 10 -159.5t41 -40.5z" />
<glyph horiz-adv-x="544" d="M319 0h-235q9 139 86 270.5t211 215.5h-146q-103 0 -198 -15l9 179h450l12 -10l6 -100q-189 -229 -195 -540z" />
<glyph horiz-adv-x="614" d="M30 152q0 52 45.5 91.5t121.5 52.5q-65 30 -103.5 77t-38.5 106q0 81 71.5 131t186.5 50q110 0 178 -45.5t68 -116.5q0 -51 -36 -85.5t-105 -48.5q83 -29 124.5 -78.5t41.5 -104.5q0 -78 -75.5 -134.5t-211.5 -56.5q-121 0 -194 46t-73 116zM255 497q0 -54 73 -94 q31 37 31 81q0 31 -14.5 48.5t-38.5 17.5q-21 0 -36 -14.5t-15 -38.5zM235 170q0 -30 18.5 -50t49.5 -20q32 0 54 20.5t22 50.5q0 28 -23 47.5t-72 35.5q-49 -35 -49 -84z" />
<glyph horiz-adv-x="603" d="M573 368q0 -171 -106 -274.5t-274 -103.5q-61 0 -86 10l15 111q35 -11 68 -11q58 0 103.5 46t59.5 138q-46 -59 -130 -59q-76 0 -129.5 55.5t-53.5 145.5q0 105 73.5 169.5t188.5 64.5q120 0 195.5 -74.5t75.5 -217.5zM245 436q0 -52 17 -87t49 -35q26 0 47 16 q0 131 -10 175.5t-41 44.5q-30 0 -46 -30t-16 -84z" />
<glyph horiz-adv-x="433" d="M403 473q0 -92 -54 -139t-137 -47q-82 0 -132 45t-50 133q0 90 53.5 140t138.5 50q84 0 132.5 -48.5t48.5 -133.5zM173 474q0 -58 9.5 -86.5t35.5 -28.5t34 26.5t8 73.5q0 67 -9.5 95.5t-34.5 28.5t-34 -26t-9 -83z" />
<glyph horiz-adv-x="328" d="M238 292h-140v277l-61 -23l-17 60l210 51l8 -7v-358z" />
<glyph horiz-adv-x="414" d="M336 292h-286l-10 79q45 24 98.5 75t53.5 86q0 17 -12.5 26.5t-33.5 9.5q-47 0 -94 -35l-12 94q69 30 149 30q73 0 116.5 -28.5t43.5 -73.5q0 -48 -50.5 -90t-129.5 -64h45q66 0 128 9z" />
<glyph horiz-adv-x="373" d="M343 389q0 -47 -49 -75.5t-132 -28.5q-67 0 -112 12l11 75q30 -15 69 -15q26 0 41 11t15 30q0 38 -62 38q-19 0 -40 -3v43q96 29 96 63q0 29 -46 29q-38 0 -76 -18l-4 80q59 27 136 27q66 0 106.5 -24t40.5 -60q0 -67 -127 -92q61 -5 97 -29.5t36 -62.5z" />
<glyph horiz-adv-x="440" d="M331 292h-140v44h-165l-6 57l211 264l100 -5v-203q23 1 54 5l-6 -118h-48v-44zM191 551l-83 -105h83v105z" />
<glyph horiz-adv-x="412" d="M367 402q0 -57 -54 -87t-144 -30q-70 0 -114 12l11 72q36 -12 81 -12q63 0 63 43q0 20 -16.5 31t-42.5 11q-4 0 -67 -10l-10 5v213h156q70 0 118 5l-6 -115h-201v-52q43 12 88 12q63 0 100.5 -26t37.5 -72z" />
<glyph horiz-adv-x="409" d="M206 285q-77 0 -126.5 41t-49.5 120q0 95 69.5 153t181.5 58q39 0 54 -5l-10 -73q-24 6 -44 6q-36 0 -65.5 -24t-39.5 -71q29 29 84 29q50 0 84.5 -28.5t34.5 -77.5q0 -59 -50 -93.5t-123 -34.5zM203 357q39 0 39 50q0 55 -42 55q-16 0 -27 -8q0 -59 6.5 -78t23.5 -19z " />
<glyph horiz-adv-x="379" d="M223 292h-156q6 70 54 137t133 111h-89q-67 0 -128 -8l6 118h294l8 -7l4 -67q-64 -67 -94 -134t-32 -150z" />
<glyph horiz-adv-x="423" d="M203 285q-79 0 -126 26t-47 65q0 28 28 49.5t75 27.5q-87 36 -87 99q0 47 47 76t122 29q73 0 117.5 -26.5t44.5 -66.5q0 -55 -85 -69q51 -17 76 -44.5t25 -56.5q0 -43 -50 -76t-140 -33zM211 585q-31 0 -31 -22q0 -24 47 -43q16 16 16 34q0 31 -32 31zM209 357 q20 0 33.5 9.5t13.5 22.5q0 24 -62 36q-27 -16 -27 -36q0 -13 11.5 -22.5t30.5 -9.5z" />
<glyph horiz-adv-x="419" d="M40 526q0 62 49.5 96.5t122.5 34.5q78 0 127.5 -41t49.5 -120q0 -95 -69.5 -153t-181.5 -58q-39 0 -54 5l10 73q24 -6 44 -6q37 0 67 21.5t38 61.5q-31 -29 -83 -29q-50 0 -85 31.5t-35 83.5zM177 532q0 -26 10.5 -45t32.5 -19q14 0 26 8q0 67 -7 88t-25 21 q-37 0 -37 -53z" />
<glyph horiz-adv-x="601" d="M571 254q0 -130 -79.5 -197t-199.5 -67q-117 0 -189.5 63.5t-72.5 186.5q0 128 78 199t201 71q121 0 191.5 -68t70.5 -188zM245 255q0 -77 13 -116t46 -39q31 0 41.5 34.5t10.5 102.5q0 84 -12.5 123.5t-44.5 39.5q-30 0 -42 -34.5t-12 -110.5z" />
<glyph horiz-adv-x="440" d="M350 0h-210v375l-95 -45l-25 93l318 87l12 -10v-500z" />
<glyph horiz-adv-x="558" d="M484 0h-429l-15 105q73 39 144.5 100t71.5 112q0 24 -15.5 41t-46.5 17q-30 0 -68.5 -17t-67.5 -45l-17 142q106 55 243 55q95 0 151 -36.5t56 -102.5q0 -78 -79.5 -135.5t-204.5 -91.5h88q103 0 198 15z" />
<glyph horiz-adv-x="529" d="M499 26q0 -84 -75 -135t-203 -51q-97 0 -171 23l16 114q49 -27 106 -27q42 0 67 24.5t25 66.5q0 41 -27 61t-72 20q-32 0 -62 -6v67q65 23 108 58t43 73q0 29 -20 45t-54 16q-59 0 -117 -35l-7 121q92 49 208 49q103 0 164 -41.5t61 -105.5q0 -60 -55 -103.5t-153 -67.5 q101 -8 159.5 -50.5t58.5 -115.5z" />
<glyph horiz-adv-x="633" d="M494 -185h-210v175h-255l-9 86l324 434l150 -10v-351q51 5 84 10l-9 -169h-75v-175zM284 349l-153 -205h153v205z" />
<glyph horiz-adv-x="577" d="M532 49q0 -100 -82.5 -154.5t-219.5 -54.5q-98 0 -175 23l16 110q58 -23 126 -23q45 0 72.5 24.5t27.5 71.5q0 45 -26 68.5t-68 23.5q-27 0 -104 -18l-14 9v371h238q99 0 180 10l-9 -174h-308v-129q66 21 134 21q98 0 155 -48t57 -131z" />
<glyph horiz-adv-x="593" d="M301 -10q-120 0 -195.5 74.5t-75.5 217.5q0 171 106 274.5t274 103.5q61 0 86 -10l-15 -111q-35 11 -68 11q-58 0 -104 -51.5t-59 -153.5q44 60 133 60q74 0 127 -52t53 -138q0 -103 -76 -164t-186 -61zM296 100q30 0 46 28.5t16 76.5t-16.5 79.5t-48.5 31.5 q-27 0 -48 -16q0 -119 10 -159.5t41 -40.5z" />
<glyph horiz-adv-x="544" d="M319 -150h-235q9 139 86 270.5t211 215.5h-146q-103 0 -198 -15l9 179h450l12 -10l6 -100q-189 -229 -195 -540z" />
<glyph horiz-adv-x="614" d="M30 152q0 52 45.5 91.5t121.5 52.5q-65 30 -103.5 77t-38.5 106q0 81 71.5 131t186.5 50q110 0 178 -45.5t68 -116.5q0 -51 -36 -85.5t-105 -48.5q83 -29 124.5 -78.5t41.5 -104.5q0 -78 -75.5 -134.5t-211.5 -56.5q-121 0 -194 46t-73 116zM255 497q0 -54 73 -94 q31 37 31 81q0 31 -14.5 48.5t-38.5 17.5q-21 0 -36 -14.5t-15 -38.5zM235 170q0 -30 18.5 -50t49.5 -20q32 0 54 20.5t22 50.5q0 28 -23 47.5t-72 35.5q-49 -35 -49 -84z" />
<glyph horiz-adv-x="593" d="M563 218q0 -171 -106 -274.5t-274 -103.5q-61 0 -86 10l15 111q35 -11 68 -11q58 0 103.5 46t59.5 138q-46 -59 -130 -59q-76 0 -129.5 55.5t-53.5 145.5q0 105 73.5 169.5t188.5 64.5q120 0 195.5 -74.5t75.5 -217.5zM235 286q0 -52 17 -87t49 -35q26 0 47 16 q0 131 -10 175.5t-41 44.5q-30 0 -46 -30t-16 -84z" />
<glyph horiz-adv-x="319" d="M233 204h-140q-15 257 -43 446l215 10q4 -32 4 -83q0 -198 -36 -373zM264 70q0 -41 -33 -65t-79 -24q-42 0 -68 19.5t-26 55.5q0 40 31.5 66t80.5 26q42 0 68 -20t26 -58z" />
<glyph horiz-adv-x="319" d="M55 564q0 41 33 65t79 24q42 0 68 -19.5t26 -55.5q0 -40 -31.5 -66t-80.5 -26q-42 0 -68 20t-26 58zM86 446h140q15 -277 43 -481l-215 -10q-4 45 -4 110q0 206 36 381z" />
<glyph horiz-adv-x="530" d="M304 197h-140q-15 27 -15 64q0 32 13 61t31.5 49.5t37 39t31.5 36t13 32.5q0 31 -47 31q-66 0 -129 -56l-79 115q110 91 243 91q98 0 162.5 -50.5t64.5 -130.5q0 -35 -14 -65t-34.5 -48.5t-44.5 -37.5t-44.5 -33t-34.5 -32.5t-14 -38.5v-27zM342 70q0 -41 -33 -65 t-79 -24q-42 0 -68 19.5t-26 55.5q0 40 31.5 66t80.5 26q42 0 68 -20t26 -58z" />
<glyph horiz-adv-x="530" d="M188 580q0 41 33 65t79 24q42 0 68 -19.5t26 -55.5q0 -40 -31.5 -66t-80.5 -26q-42 0 -68 20t-26 58zM226 453h140q15 -27 15 -64q0 -32 -13 -61t-31.5 -49.5t-37 -39t-31.5 -36t-13 -32.5q0 -31 47 -31q66 0 129 56l79 -115q-110 -91 -243 -91q-98 0 -162.5 50.5 t-64.5 130.5q0 35 14 65t34.5 48.5t44.5 37.5t44.5 33t34.5 32.5t14 38.5v27z" />
<glyph horiz-adv-x="348" d="M177 177q-39 0 -63.5 23t-24.5 59q0 39 28.5 65.5t68.5 26.5q36 0 59.5 -21.5t23.5 -56.5q0 -40 -26.5 -68t-65.5 -28z" />
<glyph horiz-adv-x="479" d="M399 275q0 -73 -49.5 -121t-123.5 -48q-64 0 -105 37.5t-41 102.5q0 73 50.5 121.5t124.5 48.5q63 0 103.5 -37.5t40.5 -103.5z" />
<glyph horiz-adv-x="442" d="M185 376l18 111l-87 -71l-36 62l106 40l-106 40l36 62l87 -71l-18 111h72l-18 -111l87 71l36 -62l-105 -40l105 -40l-36 -62l-87 71l18 -111h-72z" />
<glyph horiz-adv-x="438" d="M181 -10l-83 20l-3 7l162 643l83 -20l3 -7z" />
<glyph horiz-adv-x="438" d="M257 -10l-162 643l3 7l83 20l162 -643l-3 -7z" />
<glyph horiz-adv-x="686" d="M580 164h-113l-43 -174l-91 16l-6 6l38 152h-112l-43 -174l-91 16l-6 6l38 152h-105l-6 6l13 84h120l35 142h-109l-6 6l13 84h124l43 174l91 -16l6 -6l-38 -152h112l43 174l91 -16l6 -6l-38 -152h94l6 -6l-13 -84h-109l-35 -142h98l6 -6zM275 254h112l35 142h-112z" />
<glyph horiz-adv-x="680" d="M580 104h-119l-28 -114l-91 16l-6 6l23 92h-112l-28 -114l-91 16l-6 6l23 92h-99l-6 6l13 84h114l28 112h-102l-6 6l13 84h117l28 114l91 -16l6 -6l-23 -92h112l28 114l91 -16l6 -6l-23 -92h101l6 -6l-13 -84h-116l-28 -112h104l6 -6zM269 194h112l28 112h-112z" />
<glyph horiz-adv-x="414" d="M331 -49q-127 50 -204 152.5t-77 219.5t77 219.5t204 152.5l53 -69q-58 -59 -86.5 -139.5t-28.5 -163.5t28.5 -164t86.5 -139z" />
<glyph horiz-adv-x="414" d="M364 323q0 -117 -77 -219.5t-204 -152.5l-53 69q58 58 86.5 139t28.5 164t-28.5 163.5t-86.5 139.5l53 69q127 -50 204 -152.5t77 -219.5z" />
<glyph horiz-adv-x="464" d="M149 208q0 28 -18 43t-61 19v100q43 6 61 20t18 42q0 22 -15.5 62.5t-15.5 68.5q0 69 69.5 100.5t223.5 31.5l3 -100q-90 0 -90 -58q0 -16 12.5 -51.5t12.5 -55.5q0 -43 -38.5 -71.5t-103.5 -38.5q65 -10 103.5 -38.5t38.5 -71.5q0 -20 -12.5 -55.5t-12.5 -51.5 q0 -58 90 -58l-3 -100q-154 0 -223.5 31.5t-69.5 99.5q0 28 15.5 69.5t15.5 62.5z" />
<glyph horiz-adv-x="464" d="M394 270l-79 -62q0 -21 15.5 -62.5t15.5 -69.5q0 -68 -69.5 -99.5t-223.5 -31.5l-3 100q90 0 90 58q0 16 -12.5 51.5t-12.5 55.5q0 43 38.5 71.5t103.5 38.5q-65 10 -103.5 38.5t-38.5 71.5q0 20 12.5 55.5t12.5 51.5q0 58 -90 58l3 100q154 0 223.5 -31.5t69.5 -100.5 q0 -28 -15.5 -68.5t-15.5 -62.5q0 -28 18 -42t61 -20v-100z" />
<glyph horiz-adv-x="444" d="M88 695h300v-115h-104v-511h104v-115h-300v741z" />
<glyph horiz-adv-x="444" d="M356 695v-741h-300v115h104v511h-104v115h300z" />
<glyph horiz-adv-x="388" d="M30 294v60h328v-60h-328z" />
<glyph horiz-adv-x="556" d="M30 294v60h496v-60h-496z" />
<glyph horiz-adv-x="860" d="M30 294v60h800v-60h-800z" />
<glyph horiz-adv-x="261" d="M196 72q0 -70 -53 -137.5t-117 -93.5l-26 31q60 54 80 120q-29 6 -46.5 26t-17.5 51q0 44 26 69.5t65 25.5q40 0 64.5 -26t24.5 -66z" />
<glyph horiz-adv-x="508" d="M236 72q0 -70 -53 -137.5t-117 -93.5l-26 31q60 54 80 120q-29 6 -46.5 26t-17.5 51q0 44 26 69.5t65 25.5q40 0 64.5 -26t24.5 -66zM443 72q0 -70 -53 -137.5t-117 -93.5l-26 31q60 54 80 120q-29 6 -46.5 26t-17.5 51q0 44 26 69.5t65 25.5q40 0 64.5 -26t24.5 -66z " />
<glyph horiz-adv-x="481" d="M65 429q0 70 53 137.5t117 93.5l26 -31q-60 -54 -80 -120q29 -6 46.5 -26t17.5 -51q0 -44 -26 -69.5t-65 -25.5q-40 0 -64.5 26t-24.5 66zM285 429q0 70 53 137.5t117 93.5l26 -31q-60 -54 -80 -120q29 -6 46.5 -26t17.5 -51q0 -44 -26 -69.5t-65 -25.5q-40 0 -64.5 26 t-24.5 66z" />
<glyph horiz-adv-x="481" d="M416 568q0 -70 -53 -137.5t-117 -93.5l-26 31q60 54 80 120q-29 6 -46.5 26t-17.5 51q0 44 26 69.5t65 25.5q40 0 64.5 -26t24.5 -66zM196 568q0 -70 -53 -137.5t-117 -93.5l-26 31q60 54 80 120q-29 6 -46.5 26t-17.5 51q0 44 26 69.5t65 25.5q40 0 64.5 -26t24.5 -66z " />
<glyph horiz-adv-x="261" d="M65 429q0 70 53 137.5t117 93.5l26 -31q-60 -54 -80 -120q29 -6 46.5 -26t17.5 -51q0 -44 -26 -69.5t-65 -25.5q-40 0 -64.5 26t-24.5 66z" />
<glyph horiz-adv-x="261" d="M196 568q0 -70 -53 -137.5t-117 -93.5l-26 31q60 54 80 120q-29 6 -46.5 26t-17.5 51q0 44 26 69.5t65 25.5q40 0 64.5 -26t24.5 -66z" />
<glyph horiz-adv-x="586" d="M287 327v54q122 93 224 203l38 -22q-32 -94 -102 -208q70 -114 102 -208l-38 -22q-102 110 -224 203zM37 327v54q122 93 224 203l38 -22q-32 -94 -102 -208q70 -114 102 -208l-38 -22q-102 110 -224 203z" />
<glyph horiz-adv-x="586" d="M299 327q-122 -93 -224 -203l-38 22q32 94 102 208q-70 114 -102 208l38 22q102 -110 224 -203v-54zM549 327q-122 -93 -224 -203l-38 22q32 94 102 208q-70 114 -102 208l38 22q102 -110 224 -203v-54z" />
<glyph horiz-adv-x="336" d="M37 324v54q122 93 224 203l38 -22q-32 -94 -102 -208q70 -114 102 -208l-38 -22q-102 110 -224 203z" />
<glyph horiz-adv-x="336" d="M299 324q-122 -93 -224 -203l-38 22q32 94 102 208q-70 114 -102 208l38 22q102 -110 224 -203v-54z" />
<glyph horiz-adv-x="438" d="M188 660l-42 -317h-59l-42 317h143zM393 660l-42 -317h-59l-42 317h143z" />
<glyph horiz-adv-x="233" d="M188 660l-42 -317h-59l-42 317h143z" />
<glyph horiz-adv-x="463" d="M285 -120l-50 -3v118q-93 16 -151.5 81t-58.5 174q0 114 64.5 180t165.5 78v112l50 3v-113q70 -1 133 -26l-16 -163q-52 44 -102 44q-35 0 -57.5 -27.5t-22.5 -86.5q0 -112 96 -112q43 0 95 19l-2 -139q-44 -29 -136 -29h-8v-110z" />
<glyph horiz-adv-x="460" d="M393 67l-62 64q-46 -36 -109 -36q-59 0 -101 28l-56 -56l-40 40l55 55q-33 46 -33 109q0 62 40 111l-58 59l36 36q16 -15 60 -59q46 31 101 31q62 0 108 -33l61 61l40 -40l-63 -63q29 -43 29 -98q0 -58 -32 -105q50 -48 65 -63zM137 271q0 -38 23.5 -67.5t64.5 -29.5 q44 0 65 28.5t21 70.5q0 38 -22 64.5t-64 26.5q-43 0 -65.5 -27t-22.5 -66z" />
<glyph horiz-adv-x="511" d="M216 -123v114q-115 4 -186 34l28 178q89 -58 162 -58q48 0 48 33q0 17 -17.5 33.5t-43 29.5t-56 32.5t-56 42t-43 59t-17.5 81.5q0 84 56 137t145 64v113l70 3v-114q105 -6 166 -34l-36 -165q-78 45 -139 45q-49 0 -49 -36q0 -19 17.5 -36.5t43 -31t56 -33t56 -41 t43 -58.5t17.5 -82q0 -81 -52.5 -132t-142.5 -62v-113z" />
<glyph horiz-adv-x="563" d="M10 243l5 61h43v11q0 23 1 34h-40l5 61h43q23 117 101.5 183.5t194.5 66.5q98 0 175 -36l-25 -154q-57 35 -121 35q-87 0 -109 -95h159l-5 -61h-161v-20q0 -17 1 -25h156l-5 -61h-143q22 -91 124 -91q56 0 103 15l23 -145q-81 -32 -171 -32q-128 0 -205.5 66.5 t-95.5 186.5h-53z" />
<glyph horiz-adv-x="600" d="M478 247l-139 3l-20 -171q-2 -20 -4 -33t-9.5 -40.5t-18 -47t-30 -44t-44.5 -39.5t-63.5 -25.5t-85.5 -10.5q-53 0 -109 14l40 111q42 -15 66 -15q64 0 66 94l5 212l-91 2l9 53l84 20q2 78 10 118q44 212 280 212q94 0 145 -29l-48 -133q-18 19 -46 35.5t-50 16.5 q-56 0 -68 -108q-12 -104 -12 -112h149z" />
<glyph horiz-adv-x="629" d="M520 252l-136 3q-31 -132 -101 -199q128 -66 239 -66q45 0 85 10l-56 -154q-15 -6 -41 -6q-20 0 -40 3t-37 7t-37 13t-33 14.5t-34 19t-30 19.5t-30 22t-27 21l-27 22.5t-24 19.5q-38 -11 -80 -11q-101 0 -101 69q0 35 23 54.5t60 19.5q36 0 85 -23q3 33 3 77l1 73l-96 2 l10 53l87 20q4 156 74.5 240.5t210.5 84.5q91 0 151 -29l-48 -132q-55 51 -98 51q-33 0 -51.5 -48t-24.5 -167h141z" />
<glyph horiz-adv-x="617" d="M91 96v61h113v45h-113v61h87l-163 387l206 10l91 -292h2l93 292l195 -10l-162 -387h87v-61h-113v-45h113v-61h-113v-96h-210v96h-113z" />
<glyph horiz-adv-x="463" d="M285 -120l-50 -3v118q-93 16 -151.5 81t-58.5 174q0 114 64.5 180t165.5 78v112l50 3v-113q70 -1 133 -26l-16 -163q-52 44 -102 44q-35 0 -57.5 -27.5t-22.5 -86.5q0 -112 96 -112q43 0 95 19l-2 -139q-44 -29 -136 -29h-8v-110z" />
<glyph horiz-adv-x="460" d="M393 42l-62 64q-46 -36 -109 -36q-59 0 -101 28l-56 -56l-40 40l55 55q-33 47 -33 109t40 111l-58 59l36 36q16 -15 60 -59q46 31 101 31q62 0 108 -33l61 61l40 -40l-63 -63q29 -43 29 -98q0 -58 -32 -105q50 -48 65 -63zM137 246q0 -38 23.5 -67.5t64.5 -29.5 q44 0 65 28.5t21 70.5q0 38 -22 64.5t-64 26.5q-43 0 -65.5 -27t-22.5 -66z" />
<glyph horiz-adv-x="494" d="M197 -123v114q-99 4 -162 25l10 160q37 -20 86.5 -31.5t84.5 -11.5q38 0 38 19q0 8 -5 14t-15.5 11.5t-21.5 9.5t-29.5 11t-33.5 14q-107 49 -107 137q0 62 47.5 103t127.5 53v115l50 3v-113h14q83 0 161 -26l-10 -158q-90 41 -150 41q-35 0 -35 -21q0 -8 4.5 -14.5 t15.5 -12l19 -9.5t25 -9.5t23 -8.5q125 -48 125 -145q0 -68 -55 -110.5t-157 -46.5v-110z" />
<glyph horiz-adv-x="512" d="M398 183h-96q23 -44 83 -44q43 0 95 19l-2 -139q-44 -29 -136 -29q-97 0 -169 49t-92 144h-71l5 49h59v18q0 13 1 19h-54l5 49h55q20 94 93 143t173 49q74 0 140 -26l-16 -163q-52 44 -102 44q-48 0 -69 -47h114l-5 -49h-119q-1 -5 -1 -18t1 -19h113z" />
<glyph horiz-adv-x="600" d="M508 173l-144 3l-17 -93q-4 -20 -6.5 -32t-11 -37.5t-19 -43t-30 -39.5t-44 -35.5t-60.5 -23t-80 -9.5q-53 0 -109 14l40 111q42 -15 66 -15q27 0 46 20t20 54l3 134l-91 2l9 53l84 20q2 37 12 81q41 173 274 173q98 0 149 -29l-48 -133q-18 20 -46 36t-52 16 q-48 0 -66 -78q-10 -41 -12 -66h149z" />
<glyph horiz-adv-x="537" d="M465 184l-137 3q-25 -83 -79 -133q126 -64 233 -64q45 0 85 10l-56 -154q-15 -6 -41 -6q-22 0 -43 3t-42.5 10.5t-38 13t-38.5 19.5t-33.5 20t-35 24t-30 23t-30.5 25t-27 22q-38 -10 -77 -10q-105 0 -105 69q0 35 23 54.5t60 19.5q34 0 85 -22q1 9 3 76v4l-110 3l10 53 l102 20q4 116 70.5 179.5t196.5 63.5q94 0 154 -29l-48 -132q-55 51 -102 51q-62 0 -72 -133h141z" />
<glyph horiz-adv-x="609" d="M86 54v61h120v45h-120v61h108l-179 279l196 10l103 -193h2l93 193l185 -10l-167 -279h109v-61h-120v-45h120v-61h-120v-54h-210v54h-120z" />
<glyph d="M520 256h-139v-144h-147l-1 144h-143v132q137 4 142 4l-1 147h150v-146q54 1 140 1z" />
<glyph d="M520 256h-430v132q146 6 431 6z" />
<glyph d="M422 114l-112 113l-115 -114l-98 98l114 115l-115 116l96 96q30 -27 117 -112l111 112l101 -100l-111 -111l113 -113v-12z" />
<glyph d="M396 534q0 -41 -27.5 -68.5t-68.5 -27.5q-33 0 -55 22t-22 54q0 40 28.5 67.5t69.5 27.5q32 0 53.5 -21t21.5 -54zM520 256h-430v132q146 6 431 6zM396 137q0 -41 -27.5 -68t-68.5 -27q-33 0 -55 22t-22 53q0 40 28.5 68t69.5 28q32 0 53.5 -21.5t21.5 -54.5z" />
<glyph d="M520 363h-430v132q146 6 431 6zM520 149h-430v132q146 6 431 6z" />
<glyph d="M194 23l-69 39l46 87h-81v132q39 2 153 4l42 78h-195v132q99 3 268 5l66 125l11 3l69 -39l-47 -88h64l-1 -138h-136l-41 -77q68 1 178 1l-1 -138h-250l-65 -123z" />
<glyph d="M80 85v160l243 81l-242 77v160q66 -22 209 -80.5t225 -96.5v-124z" />
<glyph d="M528 85l-435 177v124q82 38 225 96.5t209 80.5v-160l-242 -77l243 -81v-160z" />
<glyph d="M94 213v147l227 53l-226 50v152q74 -19 217.5 -65t216.5 -73v-125zM520 36h-430v132q145 6 431 6z" />
<glyph d="M526 615v-147l-227 -53l226 -50v-152q-74 19 -217.5 65t-216.5 73v125zM521 36h-430v132q146 6 431 6z" />
<glyph d="M520 332h-135v-114h-147l-1 114h-147v132q131 4 146 4l-1 117h150v-116q52 1 136 1zM520 15h-430v132q145 6 431 6z" />
<glyph d="M193 388q-11 0 -53 -49l-72 34q14 31 26 52.5t29.5 48t37 40.5t38.5 14q31 0 123.5 -22t104.5 -22q10 0 54 49l71 -34q-14 -31 -26 -52.5t-29.5 -48t-37 -40.5t-38.5 -14q-31 0 -123 22t-105 22zM193 164q-11 0 -53 -49l-72 34q14 31 26 52.5t29.5 48t37 40.5t38.5 14 q31 0 123.5 -22t104.5 -22q10 0 54 49l71 -34q-14 -31 -26 -52.5t-29.5 -48t-37 -40.5t-38.5 -14q-31 0 -123 22t-105 22z" />
<glyph d="M529 433v-271h-145v133h-294v132q146 6 439 6z" />
<glyph horiz-adv-x="843" d="M774 326q0 -85 -51.5 -140.5t-133.5 -55.5q-99 0 -178 95q-66 -95 -182 -95q-79 0 -128.5 54.5t-49.5 139.5t51.5 140.5t133.5 55.5q96 0 178 -95q66 95 182 95q79 0 128.5 -54.5t49.5 -139.5zM563 401q-23 0 -47.5 -16.5t-40.5 -40.5q22 -31 35 -47.5t32.5 -30.5 t37.5 -14q22 0 38.5 20t16.5 53q0 35 -19.5 55.5t-52.5 20.5zM190 325q0 -35 19.5 -55.5t52.5 -20.5q24 0 48 16.5t40 40.5q-32 46 -55 69t-50 23q-22 0 -38.5 -20t-16.5 -53z" />
<glyph horiz-adv-x="953" d="M337 -10h-115l400 670h116zM403 473q0 -92 -54 -139t-137 -47q-82 0 -132 45t-50 133q0 90 53.5 140t138.5 50q84 0 132.5 -48.5t48.5 -133.5zM173 474q0 -58 9.5 -86.5t35.5 -28.5t34 26.5t8 73.5q0 67 -9.5 95.5t-34.5 28.5t-34 -26t-9 -83zM923 181q0 -92 -54 -139 t-137 -47q-82 0 -132 45t-50 133q0 90 53.5 140t138.5 50q84 0 132.5 -48.5t48.5 -133.5zM693 182q0 -58 9.5 -86.5t35.5 -28.5t34 26.5t8 73.5q0 67 -9.5 95.5t-34.5 28.5t-34 -26t-9 -83z" />
<glyph horiz-adv-x="1376" d="M337 -10h-115l400 670h116zM403 473q0 -92 -54 -139t-137 -47q-82 0 -132 45t-50 133q0 90 53.5 140t138.5 50q84 0 132.5 -48.5t48.5 -133.5zM173 474q0 -58 9.5 -86.5t35.5 -28.5t34 26.5t8 73.5q0 67 -9.5 95.5t-34.5 28.5t-34 -26t-9 -83zM923 181q0 -92 -54 -139 t-137 -47q-82 0 -132 45t-50 133q0 90 53.5 140t138.5 50q84 0 132.5 -48.5t48.5 -133.5zM1346 181q0 -92 -54 -139t-137 -47q-82 0 -132 45t-50 133q0 90 53.5 140t138.5 50q84 0 132.5 -48.5t48.5 -133.5zM693 182q0 -58 9.5 -86.5t35.5 -28.5t34 26.5t8 73.5 q0 67 -9.5 95.5t-34.5 28.5t-34 -26t-9 -83zM1116 182q0 -58 9.5 -86.5t35.5 -28.5t34 26.5t8 73.5q0 67 -9.5 95.5t-34.5 28.5t-34 -26t-9 -83z" />
<glyph d="M520 181h-139v-144h-147l-1 144h-143v132q137 4 142 4l-1 147h150v-146q54 1 140 1z" />
<glyph d="M520 181h-430v132q146 6 431 6z" />
<glyph d="M422 39l-112 113l-115 -114l-98 98l114 115l-115 116l96 96q30 -27 117 -112l111 112l101 -100l-111 -111l113 -113v-12z" />
<glyph d="M386 459q0 -41 -27.5 -68.5t-68.5 -27.5q-33 0 -55 22t-22 54q0 40 28.5 67.5t69.5 27.5q32 0 53.5 -21t21.5 -54zM510 181h-430v132q145 6 431 6zM386 62q0 -41 -27.5 -68t-68.5 -27q-33 0 -55 22t-22 53q0 40 28.5 68t69.5 28q32 0 53.5 -21.5t21.5 -54.5z" />
<glyph d="M520 288h-430v132q146 6 431 6zM520 74h-430v132q145 6 431 6z" />
<glyph d="M194 -52l-69 39l46 87h-81v132q39 2 153 4l42 78h-195v132q99 3 268 5l66 125l11 3l69 -39l-47 -88h64l-1 -138h-136l-41 -77q68 1 178 1l-1 -138h-250l-65 -123z" />
<glyph d="M93 9v160l243 81l-242 77v160q66 -22 209 -80.5t225 -96.5v-124z" />
<glyph d="M528 9l-435 177v124q82 38 225 96.5t209 80.5v-160l-242 -77l243 -81v-160z" />
<glyph d="M90 157v132l237 44l-236 44v133q168 -42 434 -118v-116zM520 0h-430v122q146 6 433 6z" />
<glyph d="M527 510v-133l-236 -44l237 -44v-132l-435 119v116q266 76 434 118zM523 0h-430v122q146 6 433 6z" />
<glyph horiz-adv-x="613" d="M521 271h-140v-110h-147l-1 110h-142v122q128 4 141 4l-1 113h150v-112q54 1 141 1zM520 0h-430v122q146 6 433 6z" />
<glyph d="M193 313q-11 0 -53 -49l-72 34q14 31 26 52.5t29.5 48t37 40.5t38.5 14q31 0 123.5 -22t104.5 -22q10 0 54 49l71 -34q-14 -31 -26 -52.5t-29.5 -48t-37 -40.5t-38.5 -14q-31 0 -123 22t-105 22zM193 89q-11 0 -53 -49l-72 34q14 31 26 52.5t29.5 48t37 40.5t38.5 14 q31 0 123.5 -22t104.5 -22q10 0 54 49l71 -34q-14 -31 -26 -52.5t-29.5 -48t-37 -40.5t-38.5 -14q-31 0 -123 22t-105 22z" />
<glyph d="M529 432v-271h-145v133h-294v132q146 6 439 6z" />
<glyph horiz-adv-x="843" d="M783 310q0 -85 -51.5 -140.5t-133.5 -55.5q-99 0 -178 95q-66 -95 -182 -95q-79 0 -128.5 54.5t-49.5 139.5t51.5 140.5t133.5 55.5q96 0 178 -95q66 95 182 95q79 0 128.5 -54.5t49.5 -139.5zM572 385q-23 0 -47.5 -16.5t-40.5 -40.5q22 -31 35 -47.5t32.5 -30.5 t37.5 -14q22 0 38.5 20t16.5 53q0 35 -19.5 55.5t-52.5 20.5zM199 309q0 -35 19.5 -55.5t52.5 -20.5q24 0 48 16.5t40 40.5q-32 46 -55 69t-50 23q-22 0 -38.5 -20t-16.5 -53z" />
<glyph horiz-adv-x="953" d="M403 376q0 -68 -54.5 -103t-138.5 -35q-80 0 -130 33t-50 97q0 67 53.5 104.5t138.5 37.5q84 0 132.5 -35.5t48.5 -98.5zM605 510h101l-358 -520h-103zM173 377q0 -74 46 -74q41 0 41 67q0 75 -45 75q-42 0 -42 -68zM923 128q0 -68 -54.5 -103t-138.5 -35q-80 0 -130 33 t-50 97q0 67 53.5 104.5t138.5 37.5q84 0 132.5 -35.5t48.5 -98.5zM693 129q0 -74 46 -74q41 0 41 67q0 75 -45 75q-42 0 -42 -68z" />
<glyph horiz-adv-x="1368" d="M403 376q0 -68 -54.5 -103t-138.5 -35q-80 0 -130 33t-50 97q0 67 53.5 104.5t138.5 37.5q84 0 132.5 -35.5t48.5 -98.5zM605 510h101l-358 -520h-103zM173 377q0 -74 46 -74q41 0 41 67q0 75 -45 75q-42 0 -42 -68zM1338 128q0 -68 -54.5 -103t-138.5 -35q-80 0 -130 33 t-50 97q0 67 53.5 104.5t138.5 37.5q84 0 132.5 -35.5t48.5 -98.5zM923 128q0 -68 -54.5 -103t-138.5 -35q-80 0 -130 33t-50 97q0 67 53.5 104.5t138.5 37.5q84 0 132.5 -35.5t48.5 -98.5zM1108 129q0 -74 46 -74q41 0 41 67q0 75 -45 75q-42 0 -42 -68zM693 129 q0 -74 46 -74q41 0 41 67q0 75 -45 75q-42 0 -42 -68z" />
<glyph horiz-adv-x="844" d="M423 550q-19 0 -33 -13t-14 -37q0 -41 61 -118l83 -105q20 -25 41 -46q6 30 6 62q0 45 -8 85l195 19q-7 -140 -86 -243q31 -13 58 -13q34 0 58 9l10 -134q-46 -26 -118 -26q-79 0 -152 48q-98 -48 -213 -48q-113 0 -182 44.5t-69 113.5q0 64 57.5 107.5t138.5 61.5 q-32 36 -48.5 57t-34 56.5t-17.5 66.5q0 67 62 115t173 48q128 0 215 -59l-82 -139q-54 88 -101 88zM290 214q0 -59 37.5 -96.5t91.5 -37.5q22 0 44 8q-26 24 -78 82l-87 99q-8 -29 -8 -55z" />
<glyph horiz-adv-x="389" d="M196 295q-62 0 -101 38.5t-39 101.5q0 66 41.5 107.5t106.5 41.5q62 0 101.5 -39t39.5 -101q0 -65 -41.5 -107t-107.5 -42zM201 514q-32 0 -51 -22t-19 -55q0 -31 19.5 -51.5t49.5 -20.5q31 0 50.5 22.5t19.5 55.5q0 31 -19 51t-50 20z" />
<glyph horiz-adv-x="389" d="M196 145q-62 0 -101 38.5t-39 101.5q0 66 41.5 107.5t106.5 41.5q62 0 101.5 -39t39.5 -101q0 -65 -41.5 -107t-107.5 -42zM201 364q-32 0 -51 -22t-19 -55q0 -31 19.5 -51.5t49.5 -20.5q31 0 50.5 22.5t19.5 55.5q0 31 -19 51t-50 20z" />
<glyph horiz-adv-x="660" d="M315 799q-103 -65 -253 -88l-48 50q144 97 204 147zM645 799q-103 -65 -253 -88l-48 50q144 97 204 147zM270 0h-210v520l-10 130l220 10v-660zM300 -109q90 27 90 145v484l-10 130l220 10v-504q0 -88 -11 -145t-41 -104t-87 -71.5t-146 -30.5z" />
<glyph horiz-adv-x="634" d="M287 720q-76 -106 -190 -175l-60 36q54 94 98 206zM604 720q-76 -106 -190 -175l-60 36q54 94 98 206zM265 0h-210v369l-10 131l220 10v-510zM323 -120q49 79 49 240v249l-10 131l220 10v-350q0 -142 -46.5 -229.5t-168.5 -120.5z" />
</font>
</defs>
</svg>
