<?xml version="1.0" standalone="no"?>
<!DOCTYPE svg PUBLIC "-//W3C//DTD SVG 1.1//EN" "http://www.w3.org/Graphics/SVG/1.1/DTD/svg11.dtd" >
<svg xmlns="http://www.w3.org/2000/svg" xmlns:xlink="http://www.w3.org/1999/xlink" version="1.1">
<metadata></metadata>
<defs>
<font id="indivisa_text_sansbold" horiz-adv-x="596" >
<font-face units-per-em="1000" ascent="752" descent="-248" />
<missing-glyph horiz-adv-x="254" />
<glyph unicode="&#x2f;symbol&#x33;&#x2f;" horiz-adv-x="957" d="M505 638l68 -270h270l-203 -135l136 -270l-271 135l-270 -270l135 405l-270 203l338 -68zM814 87q18 0 30.5 -12.5t12.5 -31.5q0 -18 -12.5 -30.5t-30.5 -12.5t-30.5 12.5t-12.5 30.5q0 19 12.5 31.5t30.5 12.5zM854 43q0 17 -11.5 29t-28.5 12t-28.5 -12t-11.5 -29 t12 -28.5t28 -11.5t28 11.5t12 28.5zM796 68h18q8 0 11 -2q6 -3 6 -10q0 -5 -4 -9q-3 -3 -6 -3q7 -3 8 -10q2 -14 3 -16h-7q-1 2 -2 7.5t-1 6.5q0 9 -10 9h-9v-23h-7v50zM803 47h10q5 0 7 1q3 3 3 6q0 9 -10 9h-10v-16z" />
<glyph unicode="&#x2f;symbol&#x32;&#x2f;" horiz-adv-x="932" d="M494 570l52 -90l-137 -240h-103l137 240l-52 90h103zM357 570l52 -90l-138 -240h-103l138 240l-52 90h103zM752 120h-103l-137 240l51 90l137 -240h103zM683 0h-103l-137 240l51 90l138 -240h103zM100 120l51 90h275l51 -90h-274l-52 -90zM168 0l52 90h274l52 -90h-275 l-51 -90zM789 88q18 0 30.5 -13t12.5 -31t-12.5 -31t-30.5 -13t-30.5 13t-12.5 31t12.5 31t30.5 13zM829 44q0 16 -11.5 28t-28.5 12t-28.5 -12t-11.5 -28t11.5 -28t28.5 -12t28.5 12t11.5 28zM771 69h18q7 0 11 -2q5 -4 5 -11q0 -5 -3 -8q-1 -2 -6 -4q7 -1 8 -9q0 -8 3 -16 h-8q-1 2 -1.5 6.5t-0.5 6.5q-1 10 -11 10h-8v-23h-7v50zM778 47h10q5 0 7 1q3 3 3 7q0 8 -10 8h-10v-16z" />
<glyph unicode="&#x2f;symbol&#x35;&#x2f;" horiz-adv-x="705" d="M232 -6l-132 136l124 234l129 -136zM474 -6l-121 234l128 136l124 -234z" />
<glyph unicode="&#x2f;symbol&#x31;&#x2f;" horiz-adv-x="5534" d="M1865 412q-25 0 -40.5 14.5t-15.5 37.5q0 35 32.5 64t70.5 29q24 0 39 -13.5t15 -37.5q0 -36 -31 -65t-70 -29zM1284 412q-26 0 -41.5 14.5t-15.5 37.5q0 35 33 64t71 29q24 0 38.5 -13.5t14.5 -37.5q0 -36 -31 -65t-69 -29zM959 0q0 42 11 108q-16 -50 -51.5 -82.5 t-78.5 -32.5q-41 0 -63 29.5t-22 82.5q0 62 27 121t84 101t132 42q17 0 25 -1l16 73l6 102l136 7q0 -67 -46 -273t-46 -277h-130zM100 0l78 364q17 86 21 136l128 7l11 -15l-104 -492h-134zM3503 492l-57 -492h-131l20 175q5 50 33 215h-3q-31 -102 -81 -215l-76 -175h-149 l-2 175q-2 121 9 215h-2q-32 -130 -59 -215l-53 -175h-109l154 500l184 6l1 -137q2 -134 -15 -259h2q39 126 94 259l56 131l169 7zM5316 300q-37 -177 -37 -183q0 -34 36 -34q25 0 59 18l-9 -79q-52 -29 -114 -29q-105 0 -105 100q0 20 40 210l-47 1l9 44l54 14l53 95l81 6 l13 -15l-20 -86h99l6 -14l-17 -51zM336 0q0 79 41 260l6 102l137 7q0 -31 -7 -89h2q52 89 134 89q34 0 53 -19.5t19 -51.5q0 -27 -26 -147q-18 -85 -18 -151h-131q0 55 19 150q15 78 15 87q0 24 -17 24q-34 0 -64 -82.5t-32 -178.5h-131zM1170 0q0 72 27 193l14 67l6 102 l137 7q0 -46 -27 -177t-27 -192h-130zM1399 362l140 7q13 -129 -5 -289h2q76 151 91 284q22 5 50 5q32 0 48.5 -8.5t16.5 -33.5q0 -46 -51 -147.5t-116 -179.5h-149q-5 228 -27 362zM1752 0q0 69 26 193l15 67l6 102l137 7q0 -46 -27 -177t-27 -192h-130zM4716 0 q0 79 41 260l6 102l137 7q0 -12 -7 -89h2q52 89 134 89q34 0 53 -19.5t19 -51.5q0 -27 -26 -147q-19 -90 -19 -151h-130q0 55 19 150q15 78 15 87q0 24 -17 24q-35 0 -65 -82t-32 -179h-130zM2245 256q-52 30 -97 30q-18 0 -30 -7t-12 -19q0 -14 20 -26.5t44 -22t44 -33 t20 -56.5q0 -57 -53 -93t-128 -36q-78 0 -118 28l27 93q57 -38 111 -38q19 0 29.5 7.5t10.5 18.5q0 13 -20 26t-44 23t-44 33t-20 55q0 56 54.5 93t128.5 37q58 0 104 -18zM2525 369q88 0 146 -32l-29 -128q-31 -145 -31 -209h-130q0 37 12 112q-15 -52 -51 -85.5t-81 -33.5 q-41 0 -62.5 29.5t-21.5 83.5q0 62 26.5 120.5t85 100.5t136.5 42zM4653 51q-67 -58 -159 -58q-65 0 -103.5 35t-38.5 102q0 94 68.5 166.5t167.5 72.5q54 0 86.5 -23.5t32.5 -64.5q0 -57 -60 -96.5t-161 -43.5v-1q0 -64 63 -64q42 0 90 28zM3936 0q0 74 42 260l5 102l137 7 q0 -31 -7 -89h2q53 89 134 89q34 0 53 -19.5t19 -51.5q0 -27 -26 -147q-18 -85 -18 -151h-131q0 55 19 150q15 71 15 87q0 24 -17 24q-34 0 -64 -82.5t-32 -178.5h-131zM3768 369q87 0 145 -32l-28 -128q-31 -145 -31 -209h-130q0 45 12 112q-15 -52 -51 -85.5t-81 -33.5 q-41 0 -63 29.5t-22 83.5q0 46 16 91.5t46 84t79 63t108 24.5zM4490 177q47 10 73 34t26 59q0 31 -22 31q-28 0 -48.5 -38.5t-28.5 -85.5zM3677 101q23 0 47 43t38 101q1 8 4.5 24.5t4.5 19.5q-16 8 -27 8q-34 0 -62.5 -54.5t-28.5 -101.5q0 -40 24 -40zM913 101 q22 0 44.5 39.5t37.5 94.5q1 9 8 40l3 14q-14 8 -27 8q-33 0 -61.5 -54.5t-28.5 -101.5q0 -40 24 -40zM2435 101q23 0 47 43.5t37 100.5q3 14 9 44q-14 8 -27 8q-34 0 -62 -54.5t-28 -101.5q0 -40 24 -40z" />
<glyph unicode="&#x2f;symbol&#x34;&#x2f;" horiz-adv-x="2607" d="M1684 406q0 65 -11 128l126 14l15 -15v-533h-130v406zM1889 406q0 62 -10 128l126 14l14 -15v-533h-130v406zM427 101v-101h-320v362q0 80 -7 135l126 7l14 -14v-396zM925 21l7 109q62 -36 144 -36q50 0 50 36q0 20 -31.5 41.5t-69 40.5t-69 57t-31.5 88q0 69 55 108 t138 39q80 0 127 -18l-14 -111q-56 29 -111 29q-27 0 -42.5 -11t-15.5 -29q0 -20 20.5 -38t50 -34t59.5 -35t50.5 -51t20.5 -72q0 -66 -53.5 -103.5t-139.5 -37.5q-41 0 -83.5 8t-61.5 20zM795 0l-106 -7q-11 16 -21 49h-4q-34 -49 -104 -49q-43 0 -70 23t-27 66 q0 113 191 118v20q0 54 -58 54q-55 0 -108 -29l-8 97q72 26 150 26q154 0 154 -135q0 -25 -2 -69t-2 -70q0 -51 15 -94zM1626 0l-107 -7q-12 20 -21 49h-3q-34 -49 -105 -49q-43 0 -69.5 23t-26.5 66q0 113 191 118v20q0 54 -58 54q-54 0 -109 -29l-7 97q72 26 150 26 q153 0 153 -135q0 -25 -1.5 -69.5t-1.5 -69.5q0 -51 15 -94zM2405 213q0 -24 -1 -36l-11 -11h-191q14 -83 98 -83q44 0 84 21l7 -81q-46 -30 -127 -30q-90 0 -144 47.5t-54 134.5q0 85 52 139t132 54q72 0 113.5 -43t41.5 -112zM2199 207l78 4q2 14 2 26q0 59 -34 59 q-44 0 -46 -89zM654 74v88q-29 -3 -47 -18t-18 -39q0 -18 10 -29t27 -11q16 0 28 9zM1485 74v88q-29 -3 -47 -18t-18 -39q0 -18 10 -29t27 -11q16 0 28 9zM2464 85q18 0 30.5 -13t12.5 -31t-12.5 -31t-30.5 -13t-31 13t-13 31t13 31t31 13zM2504 41q0 17 -12 28.5t-28 11.5 t-28 -11.5t-12 -28.5t12 -28.5t28 -11.5t28 11.5t12 28.5zM2446 66h18q7 0 11 -3q5 -3 5 -10q0 -5 -3 -9q-3 -3 -6 -3q7 -1 8 -10q0 -7 3 -15h-8q-1 2 -1.5 6.5t-0.5 6.5q-1 9 -11 9h-8v-22h-7v50zM2453 44h10q5 0 7 1q3 3 3 7q0 8 -10 8h-10v-16z" />
<glyph unicode=" "  horiz-adv-x="254" />
<glyph unicode="&#x09;" horiz-adv-x="254" />
<glyph unicode="&#xa0;" horiz-adv-x="254" />
<glyph unicode="!" horiz-adv-x="313" d="M196 216h-78q-11 188 -30 472l120 10l14 -14q-4 -228 -26 -468zM227 69q0 -32 -22 -55.5t-55 -23.5q-29 0 -47.5 19t-18.5 47q0 32 23.5 55.5t55.5 23.5q28 0 46 -18.5t18 -47.5z" />
<glyph unicode="&#x22;" horiz-adv-x="349" d="M146 758l8 -20l-34 -264h-43l-31 284h100zM301 758l8 -20l-34 -264h-44l-30 284h100z" />
<glyph unicode="#" horiz-adv-x="705" d="M208 -10l-61 10l-8 8l33 129h-124l-8 8l9 61h140l32 128h-130l-8 8l9 61h146l36 145l61 -10l8 -8l-32 -127h153l36 145l61 -10l8 -8l-32 -127h120l8 -8l-9 -61h-136l-32 -128h131l8 -8l-9 -61h-147l-37 -147l-61 10l-8 8l32 129h-152zM262 206h153l32 128h-153z" />
<glyph unicode="$" horiz-adv-x="497" d="M221 -140l-8 8v122q-108 2 -163 37l8 109q33 -22 80.5 -34t84.5 -12q44 0 68 22.5t24 61.5q0 31 -18.5 57t-40 40.5t-59.5 35.5q-9 4 -13 7q-41 24 -65 43t-45.5 57.5t-21.5 88.5q0 78 48 128t129 63v131l47 3l8 -8v-122q86 0 145 -28l-15 -111q-61 39 -132 39 q-47 0 -72.5 -23t-25.5 -62q0 -12 3.5 -24t7.5 -20.5t14 -18.5l15.5 -15.5t20.5 -15.5t21 -13.5t24.5 -14t23.5 -13.5q62 -35 97.5 -78.5t35.5 -116.5q0 -80 -48.5 -129.5t-130.5 -60.5v-130z" />
<glyph unicode="%" horiz-adv-x="963" d="M431 499q0 -97 -56.5 -151t-138.5 -54t-133.5 52t-51.5 144q0 97 55.5 152.5t140.5 55.5q83 0 133.5 -54t50.5 -145zM737 698l-424 -708h-55l423 708h56zM158 499q0 -145 83 -145q40 0 61 37t21 102q0 145 -82 145q-83 0 -83 -139zM912 127q0 -97 -56.5 -151t-138.5 -54 t-133.5 52t-51.5 144q0 97 55.5 152.5t140.5 55.5q83 0 133.5 -54t50.5 -145zM639 127q0 -145 83 -145q40 0 61 37t21 102q0 145 -82 145q-83 0 -83 -139z" />
<glyph unicode="&#x26;" horiz-adv-x="775" d="M352 604q-34 0 -57 -19t-23 -52q0 -26 18 -60.5t31 -51t40 -49.5l154 -184q25 58 25 127q0 44 -7 82l122 15l17 -16q-7 -161 -100 -272q46 -44 89 -44q32 0 56 14l10 -78q-39 -26 -100 -26q-71 0 -141 58q-92 -58 -199 -58q-99 0 -157 50t-58 130q0 65 39 115t102 75 q-72 86 -72 165q0 73 57 123t154 50q65 0 115 -25t78 -68l-61 -97q-60 96 -132 96zM198 199q0 -56 38 -94.5t102 -38.5q54 0 100 29q-14 16 -57 65l-130 155q-53 -43 -53 -116z" />
<glyph unicode="'" horiz-adv-x="194" d="M143 758l8 -20l-34 -264h-43l-31 284h100z" />
<glyph unicode="(" horiz-adv-x="417" d="M343 -197q-120 78 -185.5 200.5t-65.5 277.5q0 154 65.5 276.5t185.5 200.5l46 -62q-167 -164 -167 -415q0 -250 167 -416z" />
<glyph unicode=")" horiz-adv-x="417" d="M325 281q0 -155 -65.5 -277.5t-185.5 -200.5l-46 62q166 165 166 416q0 252 -166 415l46 62q120 -78 185.5 -200.5t65.5 -276.5z" />
<glyph unicode="*" horiz-adv-x="496" d="M212 352l-6 16l25 152l-132 -106l-40 68l11 13l147 54l-161 62l39 67l17 -2l120 -99l-26 169h77l7 -16l-27 -155l134 109l39 -68l-11 -13l-144 -54l158 -62l-39 -67l-17 2l-120 100l27 -170h-78z" />
<glyph unicode="+" d="M519 313h-184v-188h-69l-1 188h-196v65q48 2 196 4l-1 183h71v-183q72 1 185 1l7 -7z" />
<glyph unicode="," horiz-adv-x="263" d="M41 -159q56 82 71 150q-27 4 -44 24t-17 49q0 34 24.5 59.5t58.5 25.5q33 0 54.5 -22.5t21.5 -64.5q0 -61 -41.5 -133t-89.5 -121z" />
<glyph unicode="-" horiz-adv-x="388" d="M30 262v44h328v-44h-328z" />
<glyph unicode="." horiz-adv-x="265" d="M212 71q0 -34 -23.5 -57.5t-57.5 -23.5q-33 0 -55.5 22t-22.5 55q0 34 24.5 58t59.5 24q32 0 53.5 -22t21.5 -56z" />
<glyph unicode="/" horiz-adv-x="359" d="M311 748l8 -8l-187 -747l-62 11l-8 8l187 747z" />
<glyph unicode="0" horiz-adv-x="661" d="M603 347q0 -169 -80.5 -263t-198.5 -94q-117 0 -191 92.5t-74 254.5q0 167 79.5 264t199.5 97q119 0 192 -95t73 -256zM188 347q0 -276 143 -276q71 0 106.5 70.5t35.5 199.5q0 276 -142 276q-69 0 -106 -68t-37 -202z" />
<glyph unicode="1" horiz-adv-x="364" d="M139 566h-2l-106 -19l-18 76l235 74l14 -14v-683h-125v426q0 101 2 140z" />
<glyph unicode="2" horiz-adv-x="603" d="M91 0l-15 93q56 44 105.5 89.5t98 99.5t77 108.5t28.5 100.5q0 50 -32 82t-89 32q-79 0 -175 -62l-13 100q106 55 217 55q98 0 159.5 -50t61.5 -130q0 -100 -95 -213t-224 -205h162q87 0 160 10l-10 -110h-416z" />
<glyph unicode="3" horiz-adv-x="522" d="M51 644q38 22 95 38t110 16q84 0 138 -41t54 -107q0 -58 -43 -108t-118 -74q89 -9 141.5 -54.5t52.5 -120.5q0 -90 -75 -146.5t-197 -56.5q-87 0 -168 23l12 87q73 -23 151 -23q66 0 107 29.5t41 81.5q0 55 -46.5 80t-120.5 25q-40 0 -78 -7v86q97 16 154.5 56t57.5 95 q0 37 -25.5 59.5t-73.5 22.5q-76 0 -163 -49z" />
<glyph unicode="4" horiz-adv-x="618" d="M29 253l288 433l136 11l14 -14v-420q62 2 117 9l-10 -103h-107v-169h-119l1 169h-305zM133 263v-3q52 2 209 2h7v155q0 124 5 177h-3z" />
<glyph unicode="5" horiz-adv-x="555" d="M69 13l12 90q71 -23 145 -23q66 0 107 34t41 96q0 60 -37.5 90t-96.5 30q-67 0 -130 -25l-20 13v370h232q87 0 160 10l-8 -110h-281v-180q44 11 94 11q94 0 155.5 -52t61.5 -148q0 -107 -76.5 -168t-199.5 -61q-79 0 -159 23z" />
<glyph unicode="6" horiz-adv-x="597" d="M312 -10q-112 0 -179 79t-67 226q0 179 96.5 291t253.5 112q61 0 85 -12l-11 -94q-29 13 -73 13q-85 0 -148 -63.5t-72 -183.5h2q57 49 148 49q90 0 144 -52.5t54 -143.5q0 -102 -67 -161.5t-166 -59.5zM311 326q-34 0 -67 -15t-48 -40q2 -102 27.5 -151t83.5 -49 q51 0 80 35t29 93t-27 92.5t-78 34.5z" />
<glyph unicode="7" horiz-adv-x="536" d="M37 572l12 116h432l16 -14v-72q-117 -128 -186.5 -283t-76.5 -319h-129q9 156 89.5 318t184.5 268v2h-151q-108 0 -191 -16z" />
<glyph unicode="8" horiz-adv-x="600" d="M294 -10q-106 0 -172.5 48.5t-66.5 125.5q0 65 46.5 114.5t112.5 71.5v3q-134 73 -134 172q0 74 64 123.5t162 49.5t156 -49.5t58 -116.5q0 -52 -36.5 -97.5t-96.5 -73.5v-3q159 -68 159 -181q0 -78 -68.5 -132.5t-183.5 -54.5zM302 623q-43 0 -74 -25.5t-31 -65.5 q0 -77 116 -130q40 25 65 59.5t25 70.5q0 40 -29 65.5t-72 25.5zM287 300q-48 -21 -80 -56.5t-32 -77.5q0 -44 34.5 -72.5t88.5 -28.5q55 0 91 28t37 73q1 43 -35 75t-104 59z" />
<glyph unicode="9" horiz-adv-x="597" d="M257 263q-93 0 -149 54.5t-56 148.5q0 106 67.5 169t167.5 63q108 0 176 -77.5t68 -222.5q0 -111 -41 -203.5t-121 -148.5t-184 -56q-49 0 -77 8l-1 92q29 -7 68 -7q96 0 154.5 61t72.5 172h-2q-47 -53 -143 -53zM285 611q-47 0 -75.5 -38.5t-28.5 -99.5q0 -60 29 -95 t83 -35q73 0 108 52q-1 106 -31.5 161t-84.5 55z" />
<glyph unicode=":" horiz-adv-x="265" d="M212 392q0 -34 -23.5 -57.5t-57.5 -23.5q-33 0 -55.5 22.5t-22.5 54.5q0 34 24.5 58t59.5 24q32 0 53.5 -22t21.5 -56zM212 71q0 -34 -23.5 -57.5t-57.5 -23.5q-33 0 -55.5 22t-22.5 55q0 34 24.5 58t59.5 24q32 0 53.5 -22t21.5 -56z" />
<glyph unicode=";" horiz-adv-x="268" d="M216 392q0 -34 -23.5 -57.5t-58.5 -23.5q-34 0 -56 22.5t-22 54.5q0 34 25 58t59 24q33 0 54.5 -22t21.5 -56zM41 -159q56 82 71 150q-27 4 -44 24t-17 49q0 34 24.5 59.5t58.5 25.5q33 0 54.5 -22.5t21.5 -64.5q0 -61 -41.5 -133t-89.5 -121z" />
<glyph unicode="&#x3c;" d="M509 108l-440 216v43l4 9q75 39 219.5 106t215.5 96v-73l-330 -156l331 -168v-73z" />
<glyph unicode="=" d="M519 410h-450v65q170 5 451 5l7 -6zM519 216h-450v66q170 5 451 5l7 -7z" />
<glyph unicode="&#x3e;" d="M87 108v73l332 168l-331 156v73q71 -29 215 -96t220 -106l4 -9v-43z" />
<glyph unicode="?" horiz-adv-x="477" d="M235 219l-73 -3q-13 28 -13 56t16.5 53.5t40.5 45.5t48 40.5t40.5 47t16.5 56.5q0 41 -27 66t-72 25q-38 0 -78 -20t-68 -56l-48 66q80 102 219 102q93 0 148 -46t55 -120q0 -43 -20.5 -81t-50 -63t-58.5 -46t-49.5 -41t-20.5 -37t2 -37zM277 69q0 -32 -21.5 -55.5 t-54.5 -23.5q-30 0 -48.5 19t-18.5 47q0 32 23.5 55.5t56.5 23.5q28 0 45.5 -18.5t17.5 -47.5z" />
<glyph unicode="@" horiz-adv-x="1138" d="M803 -161q-127 -97 -304 -97q-192 0 -314.5 121.5t-122.5 314.5q0 157 84 292t220 211.5t287 76.5q187 0 305 -115.5t118 -286.5q0 -152 -91 -259t-223 -107q-52 0 -85 18.5t-44 50.5t-10.5 66t11.5 73h-5q-29 -80 -84 -144t-118 -64q-49 0 -78 41.5t-29 115.5 q0 88 38 169.5t115 136.5t175 55q95 0 164 -33l-46 -197q-6 -26 -8.5 -38.5t-7 -37.5t-5 -38.5t-1 -34t4.5 -32t12.5 -23.5t21 -17t31.5 -5q76 0 144 87t68 214q0 157 -106 259t-268 102q-76 0 -153.5 -24.5t-146.5 -71.5t-123 -110.5t-85.5 -147t-31.5 -174.5 q0 -175 110 -287.5t289 -112.5q82 0 145 22t130 60zM493 95q31 0 67 47.5t62.5 109.5t38.5 116l12 52q-32 13 -53 13q-43 0 -83.5 -42.5t-64 -103t-23.5 -115.5q0 -77 44 -77z" />
<glyph unicode="A" horiz-adv-x="630" d="M137 0h-122l186 585q20 61 30 106l147 6l20 -17l217 -680h-129l-53 166h-243zM250 357l-31 -98h184l-30 97q-47 160 -59 223h-4q-21 -91 -60 -222z" />
<glyph unicode="B" horiz-adv-x="615" d="M309 0h-224v522q0 102 -9 166h238q105 0 167 -50t62 -130q0 -107 -110 -150q138 -38 138 -169q0 -87 -73 -138t-189 -51zM293 595h-80v-203h79q59 0 90 27t31 73q0 48 -30.5 75.5t-89.5 27.5zM299 306h-86v-213h88q66 0 101.5 28t35.5 77q0 50 -34.5 79t-104.5 29z" />
<glyph unicode="C" horiz-adv-x="583" d="M536 142l15 -105q-77 -47 -191 -47q-143 0 -226.5 91.5t-83.5 253.5q0 164 89 263.5t230 99.5q106 0 177 -42l-25 -111q-73 47 -150 47q-84 0 -136 -67.5t-52 -184.5q0 -112 51.5 -178t143.5 -66q85 0 158 46z" />
<glyph unicode="D" horiz-adv-x="686" d="M636 348q0 -163 -98 -255.5t-253 -92.5h-200v522q0 102 -9 166h225q152 0 243.5 -91.5t91.5 -248.5zM293 595h-80v-502h81q105 0 157 66.5t52 182.5q0 114 -54 183.5t-156 69.5z" />
<glyph unicode="E" horiz-adv-x="537" d="M504 100v-100h-419v522q0 102 -9 166h407l14 -14l-3 -86l-281 7v-212l235 4l-3 -93l-232 5v-206z" />
<glyph unicode="F" horiz-adv-x="505" d="M213 0h-128v522q0 102 -9 166h395l14 -14l-3 -86l-269 7v-228l222 4l-3 -93l-219 5v-283z" />
<glyph unicode="G" horiz-adv-x="642" d="M572 315l14 -14l-3 -267q-93 -44 -213 -44q-151 0 -235.5 90t-84.5 248q0 168 92.5 269t247.5 101q105 0 180 -39l-22 -111q-67 47 -152 47q-97 0 -155 -67t-58 -190q0 -114 51.5 -181t149.5 -67q34 0 79 8v12q0 106 -12 195z" />
<glyph unicode="H" horiz-adv-x="710" d="M213 0h-128v517q0 95 -9 171l123 10l14 -14v-296h283v129q0 95 -9 171l124 10l14 -14v-684h-129v295h-283v-295z" />
<glyph unicode="I" horiz-adv-x="298" d="M213 0h-128v517q0 95 -9 171l123 10l14 -14v-684z" />
<glyph unicode="J" horiz-adv-x="293" d="M40 -208l-40 56q80 89 80 254v415q0 79 -12 166l127 15l13 -13v-583q0 -120 -36.5 -188.5t-131.5 -121.5z" />
<glyph unicode="K" horiz-adv-x="625" d="M85 517q0 95 -9 171l123 10l14 -14v-310h79q46 83 176 324l117 -11l8 -14l-196 -317l219 -356l-146 -7q-74 113 -177 287h-80v-280h-128v517z" />
<glyph unicode="L" horiz-adv-x="505" d="M489 100v-100h-404v517q0 95 -9 171l123 10l14 -14v-591z" />
<glyph unicode="M" horiz-adv-x="880" d="M739 698l17 -14l75 -684h-126l-28 253q-15 118 -27 306h-2q-22 -115 -75 -306l-71 -253h-143l-70 253q-51 177 -75 306h-2q-7 -112 -28 -306l-28 -253h-107l76 690l167 7l84 -281q42 -156 63 -297h3q24 153 63 297l81 274z" />
<glyph unicode="N" horiz-adv-x="706" d="M370 419q93 -153 136 -250h3q-10 101 -10 313q0 112 -9 206l118 9l14 -14v-683h-124q-33 54 -87 145.5t-78 130.5q-92 150 -133 237h-2q9 -81 9 -215v-298h-122v522q0 90 -9 166l130 8q142 -240 164 -277z" />
<glyph unicode="O" horiz-adv-x="707" d="M657 346q0 -168 -88 -262t-223 -94q-132 0 -214 91.5t-82 251.5q0 165 88 265t224 100q134 0 214.5 -95.5t80.5 -256.5zM183 345q0 -115 44.5 -186.5t126.5 -71.5q83 0 126.5 68.5t43.5 187.5q0 117 -41.5 187.5t-124.5 70.5q-82 0 -128.5 -69t-46.5 -187z" />
<glyph unicode="P" horiz-adv-x="581" d="M213 0h-128v522q0 102 -9 166h227q115 0 183 -61t68 -165q0 -109 -75 -170t-193 -61h-73v-231zM277 595h-64v-272h63q145 0 145 135q0 64 -35 100.5t-109 36.5z" />
<glyph unicode="Q" horiz-adv-x="705" d="M657 346q0 -146 -68 -237t-178 -113q134 -70 331 -70l-18 -114q-108 0 -218.5 52t-192.5 128q-118 12 -190.5 102t-72.5 239q0 165 88 265t224 100q134 0 214.5 -95.5t80.5 -256.5zM183 345q0 -115 44.5 -186.5t126.5 -71.5q83 0 126.5 68.5t43.5 187.5 q0 117 -41.5 187.5t-124.5 70.5q-82 0 -128.5 -69t-46.5 -187z" />
<glyph unicode="R" horiz-adv-x="606" d="M213 0h-128v522q0 102 -9 166h210q127 0 197.5 -57.5t70.5 -157.5q0 -70 -34 -117.5t-91 -71.5l158 -284l-146 -7q-62 119 -124 258h-104v-251zM277 595h-64v-255h63q145 0 145 126q0 129 -144 129z" />
<glyph unicode="S" horiz-adv-x="531" d="M481 183q0 -91 -67 -142t-177 -51q-119 0 -187 37l9 109q36 -22 88 -34t92 -12q53 0 81.5 22.5t28.5 61.5q0 11 -2.5 21t-5.5 17.5t-10.5 16.5t-12 14.5t-16 14t-16.5 12t-20 11.5t-20 11t-22.5 11.5t-21.5 10.5q-34 17 -55.5 31.5t-45.5 37t-36 52.5t-12 68q0 91 69 143 t181 52q93 0 160 -28l-16 -111q-68 39 -146 39q-56 0 -86 -22.5t-30 -62.5q0 -14 3.5 -26.5t14 -24.5t17 -19t25 -18.5t26 -15.5t31.5 -16l30 -15q32 -17 54.5 -31.5t46 -38t36 -55t12.5 -70.5z" />
<glyph unicode="T" horiz-adv-x="560" d="M345 0h-129v592q-66 -1 -200 -7l7 103h514l7 -103q-135 6 -199 7v-592z" />
<glyph unicode="U" horiz-adv-x="666" d="M73 518q0 87 -10 171l126 9l13 -13v-444q0 -73 36.5 -112.5t98.5 -39.5q61 0 97 39.5t36 112.5v301q0 80 -10 147l133 8v-465q0 -116 -75 -179t-189 -63q-113 0 -184.5 63t-71.5 179v286z" />
<glyph unicode="V" horiz-adv-x="624" d="M245 -2l-231 687l137 13l123 -391q39 -124 49 -175q15 69 54 183l122 383l103 -8l8 -14l-231 -678h-134z" />
<glyph unicode="W" horiz-adv-x="970" d="M210 -2l-192 687l135 13l98 -379q29 -115 40 -187q13 65 49 194l95 364l124 8l98 -379q33 -117 45 -187q12 71 45 196l95 370l103 -8l8 -14l-192 -678h-134l-95 329q-9 35 -24 101t-21 90h-2q-26 -118 -47 -193l-94 -327h-134z" />
<glyph unicode="X" horiz-adv-x="584" d="M23 0l-7 14l196 320l-196 351l137 13l151 -282h2l144 282l112 -9l7 -14l-194 -335l194 -340h-144l-142 258h-2l-144 -258h-114z" />
<glyph unicode="Y" horiz-adv-x="571" d="M221 232l-207 453l137 13l91 -220q42 -109 54 -146h3q27 71 58 146l89 220l104 -8l8 -14l-208 -446v-230h-129v232z" />
<glyph unicode="Z" horiz-adv-x="550" d="M51 0l-21 83l340 500l-327 -7l8 112h431l32 -83l-336 -499l335 6l-7 -112h-455z" />
<glyph unicode="[" horiz-adv-x="387" d="M104 758h242v-95h-122v-764h122v-96h-242v955z" />
<glyph unicode="\" horiz-adv-x="378" d="M247 -7l-187 747l8 8l62 11l187 -747l-8 -8z" />
<glyph unicode="]" horiz-adv-x="387" d="M282 758v-955h-242v96h123v764h-123v95h242z" />
<glyph unicode="^" horiz-adv-x="526" d="M159 210h-75l147 338h62l149 -338h-75l-107 243z" />
<glyph unicode="_" horiz-adv-x="419" d="M0 -218v44h419v-44h-419z" />
<glyph unicode="`" horiz-adv-x="302" d="M205 571q-97 69 -158 163l7 21l113 12q27 -83 85 -184z" />
<glyph unicode="a" horiz-adv-x="514" d="M434 137q0 -74 22 -137l-105 -10q-17 28 -27 69h-3q-22 -29 -62 -49t-87 -20q-60 0 -95.5 32t-35.5 88q0 81 74.5 122t196.5 46v48q0 89 -93 89q-76 0 -151 -44l-7 98q94 39 189 39q92 0 139.5 -42.5t47.5 -122.5q0 -36 -1.5 -107t-1.5 -99zM164 131q0 -28 17.5 -47 t47.5 -19q46 0 83 34v135q-65 -6 -106.5 -32t-41.5 -71z" />
<glyph unicode="b" horiz-adv-x="568" d="M518 252q0 -125 -60 -193.5t-165 -68.5q-62 0 -113 17l-106 -17v587q0 70 -12 166l122 15l15 -14v-282q54 46 126 46q89 0 141 -69t52 -187zM276 427q-44 0 -77 -25v-331q36 -12 71 -12q118 0 118 186q0 182 -112 182z" />
<glyph unicode="c" horiz-adv-x="485" d="M449 471l-28 -97q-59 41 -118 41q-56 0 -89.5 -42t-33.5 -117q0 -82 37.5 -129t104.5 -47q51 0 112 34l8 -83q-62 -41 -151 -41q-109 1 -174.5 69t-65.5 185q0 120 69 192t179 72q87 0 150 -37z" />
<glyph unicode="d" horiz-adv-x="576" d="M359 743l122 15l14 -14v-609q0 -71 23 -135l-108 -10q-10 19 -27 68h-2q-50 -68 -137 -68t-140 65.5t-53 177.5q0 130 71 202.5t185 72.5q30 0 63 -7v76q0 96 -11 166zM180 249q0 -84 31 -134t85 -50q44 0 74 32v337q-28 5 -49 5q-66 0 -103.5 -49t-37.5 -141z" />
<glyph unicode="e" horiz-adv-x="523" d="M477 251l-15 -15h-281q7 -79 46.5 -117.5t103.5 -38.5q63 0 124 36l8 -83q-65 -43 -165 -43q-113 0 -180 66t-67 186q0 121 67 193.5t168 72.5q88 0 140 -56t52 -146q0 -37 -1 -55zM280 433q-43 0 -70 -40.5t-30 -110.5l174 7q1 11 1 36q0 48 -19.5 78t-55.5 30z" />
<glyph unicode="f" horiz-adv-x="357" d="M220 0h-125v421l-73 4v46l73 15q-3 45 -3 79q0 92 52 142.5t147 50.5q77 0 130 -31l-26 -95q-53 33 -102 33q-78 0 -78 -92q0 -18 3 -87h128l9 -13l-4 -56l-131 4v-421z" />
<glyph unicode="g" horiz-adv-x="513" d="M105 63q0 53 53 89q-53 19 -84 61.5t-31 101.5q0 81 56 137t149 56q74 0 117 -33q17 28 49.5 43.5t67.5 15.5l15 -11l-3 -83h-102q51 -41 51 -119q0 -79 -55 -131.5t-145 -52.5q-19 0 -35 3q-8 -16 -8 -30q0 -22 12 -31.5t39 -11.5l90 -6q70 -4 113 -37t43 -94 q0 -81 -72 -134.5t-193 -53.5q-100 0 -160 36.5t-60 92.5q0 34 22 59t53 35l46 -20q-14 -18 -14 -37q0 -43 35 -73.5t94 -30.5q55 0 89.5 26t34.5 67q0 65 -88 75l-82 8q-47 4 -72 26t-25 57zM323 322q0 121 -78 121q-82 0 -82 -121q0 -119 82 -119q78 0 78 119z" />
<glyph unicode="h" horiz-adv-x="572" d="M199 0h-125v577q0 89 -12 166l122 15l15 -14v-303q75 67 157 67q64 0 100.5 -40t36.5 -113v-355h-126v331q0 90 -73 90q-48 0 -95 -37v-384z" />
<glyph unicode="i" horiz-adv-x="281" d="M217 672q0 -35 -24 -60.5t-60 -25.5q-32 0 -52 21t-20 51q0 35 25.5 60t61.5 25q30 0 49.5 -19.5t19.5 -51.5zM77 0v327q0 89 -12 166l123 15l14 -14v-494h-125z" />
<glyph unicode="j" horiz-adv-x="283" d="M216 672q0 -35 -24 -60.5t-59 -25.5q-32 0 -52.5 21t-20.5 51q0 34 26 59.5t61 25.5q31 0 50 -19.5t19 -51.5zM55 -258l-47 46q70 81 70 216v323q0 86 -11 166l122 15l14 -14v-484q0 -101 -33.5 -162t-114.5 -106z" />
<glyph unicode="k" horiz-adv-x="533" d="M74 577q0 79 -12 166l122 15l15 -14v-463h55q61 100 129 227l102 -11l8 -14l-135 -196q53 -97 165 -287l-141 -10q-62 104 -124 224h-59v-214h-125v577z" />
<glyph unicode="l" horiz-adv-x="281" d="M202 0h-125v577q0 79 -12 166l123 15l14 -14v-744z" />
<glyph unicode="m" horiz-adv-x="862" d="M204 0h-125v328q0 74 -20 157l117 23q15 -38 22 -72q75 72 160 72q92 0 123 -79q77 79 166 79q64 0 99.5 -39.5t35.5 -109.5v-359h-125v335q0 86 -72 86q-44 0 -93 -38q0 -3 0.5 -11.5t0.5 -12.5v-359h-125v335q0 86 -73 86q-44 0 -91 -37v-384z" />
<glyph unicode="n" horiz-adv-x="577" d="M204 0h-125v328q0 74 -20 157l117 23q15 -39 22 -73q76 73 163 73q64 0 100.5 -40t36.5 -113v-355h-126v331q0 90 -73 90q-46 0 -95 -37v-384z" />
<glyph unicode="o" horiz-adv-x="563" d="M513 252q0 -125 -68.5 -193.5t-169.5 -68.5q-99 0 -161.5 67t-62.5 185q0 124 67.5 195t169.5 71q101 0 163 -69.5t62 -186.5zM180 252q0 -187 102 -187q49 0 75 47.5t26 132.5q0 188 -101 188q-49 0 -75.5 -46t-26.5 -135z" />
<glyph unicode="p" horiz-adv-x="574" d="M79 -244v572q0 72 -20 157l117 23q11 -28 18 -55q57 55 138 55q85 0 138 -68.5t53 -184.5q0 -123 -59 -194t-166 -71q-49 0 -94 14v-83q0 -84 11 -164l-122 -15zM204 400v-325q32 -16 70 -16q120 0 120 188q0 180 -114 180q-46 0 -76 -27z" />
<glyph unicode="q" horiz-adv-x="575" d="M370 -244v285q-51 -51 -125 -51q-87 0 -140.5 68t-53.5 182q0 126 68.5 197t180.5 71q48 0 100 -14l95 14v-585q0 -79 12 -166l-123 -15zM180 250q0 -85 29.5 -135t83.5 -50q46 0 77 28v342q-20 4 -42 4q-72 0 -110 -49t-38 -140z" />
<glyph unicode="r" horiz-adv-x="399" d="M204 0h-125v328q0 74 -20 157l117 23q21 -53 27 -104q61 104 133 104q32 0 49 -14l-13 -118q-27 8 -56 8q-63 0 -112 -40v-344z" />
<glyph unicode="s" horiz-adv-x="445" d="M389 480l-9 -96q-74 40 -135 40q-36 0 -57.5 -15t-21.5 -40q0 -24 24.5 -43t59.5 -33.5t70.5 -32.5t60 -49.5t24.5 -74.5q0 -67 -54.5 -106.5t-145.5 -39.5q-98 0 -164 36l9 95q80 -47 158 -47q36 0 56 15t20 38q0 24 -24.5 43t-59.5 33.5t-70 32t-59.5 49t-24.5 74.5 q0 67 55 108t145 41q74 0 143 -28z" />
<glyph unicode="t" horiz-adv-x="388" d="M351 430l-140 3v-258q0 -95 69 -95q39 0 79 24l9 -78q-55 -36 -128 -36q-75 0 -114.5 45.5t-39.5 135.5v264l-70 1v47l73 15l31 124l78 6l15 -15l-2 -115h136l9 -14z" />
<glyph unicode="u" horiz-adv-x="569" d="M77 326q0 78 -11 166l122 16l14 -14v-326q0 -83 70 -83q45 0 91 35v378l125 10v-372q0 -72 17 -135l-104 -11q-14 29 -26 74h-4q-71 -74 -158 -74q-63 0 -99.5 37.5t-36.5 101.5v197z" />
<glyph unicode="v" horiz-adv-x="487" d="M473 486l-162 -488h-135l-161 499l131 11l67 -251q34 -106 42 -170h2q10 61 45 170l67 251l96 -8z" />
<glyph unicode="w" horiz-adv-x="786" d="M153 -2l-138 499l128 11l57 -244q27 -89 38 -159h2q13 71 36 156l54 241h149l54 -236q35 -133 38 -160h2q7 44 37 158l56 244l97 -8l8 -14l-137 -488h-148l-56 225q-29 105 -37 171h-2q-6 -50 -36 -171l-57 -225h-145z" />
<glyph unicode="x" horiz-adv-x="485" d="M334 0l-108 190l-100 -190h-101l-6 14l145 235l-145 246l127 13l111 -206l103 206l100 -8l7 -14l-147 -237l147 -249h-133z" />
<glyph unicode="y" horiz-adv-x="483" d="M473 486l-150 -456q-20 -62 -41.5 -107.5t-55 -88t-81 -66t-108.5 -26.5l-18 110q148 8 205 155h-52l-157 490l131 11l67 -251q34 -106 42 -170h2q10 58 45 170l67 251l96 -8z" />
<glyph unicode="z" horiz-adv-x="446" d="M29 395l7 103h363l13 -80l-249 -320l102 1q85 0 155 7l-7 -106h-373l-14 80l255 320z" />
<glyph unicode="{" horiz-adv-x="398" d="M170 125q0 53 -23.5 82.5t-78.5 36.5v72q55 7 78.5 36t23.5 84q0 36 -15.5 98t-15.5 94q0 71 51 100.5t167 29.5l3 -72q-98 0 -98 -84q0 -27 14.5 -89.5t14.5 -93.5q0 -55 -31 -90.5t-83 -48.5q51 -12 82.5 -48t31.5 -90q0 -27 -14.5 -91.5t-14.5 -92.5q0 -84 98 -84 l-3 -72q-117 0 -167.5 29.5t-50.5 100.5q0 33 15.5 98t15.5 95z" />
<glyph unicode="|" horiz-adv-x="323" d="M135 -258l-7 8v1005l60 3l7 -8v-1005z" />
<glyph unicode="}" horiz-adv-x="398" d="M330 244l-102 -119q0 -30 15.5 -95t15.5 -98q0 -71 -50.5 -100.5t-167.5 -29.5l-3 72q98 0 98 84q0 28 -14.5 92.5t-14.5 91.5q0 54 32 90t82 48q-51 13 -82.5 48.5t-31.5 90.5q0 31 14.5 93.5t14.5 89.5q0 84 -98 84l3 72q116 0 167 -29.5t51 -100.5q0 -32 -15.5 -94 t-15.5 -98q0 -55 23.5 -84t78.5 -36v-72z" />
<glyph unicode="~" d="M428 218q-26 0 -138 30t-125 30q-3 0 -6.5 -1.5t-8.5 -6t-8.5 -8t-9.5 -11.5t-10 -12.5t-11.5 -14.5t-11.5 -15l-41 27q17 32 30.5 53t36.5 42t44 21q25 0 137.5 -30t125.5 -30t61 62q4 4 6 7l40 -27q-63 -116 -111 -116z" />
<glyph unicode="&#xa1;" horiz-adv-x="313" d="M87 429q0 32 22 55.5t54 23.5q30 0 48.5 -19t18.5 -47q0 -32 -23.5 -55.5t-56.5 -23.5q-28 0 -45.5 18.5t-17.5 47.5zM118 283h78q15 -268 29 -473l-120 -10l-14 14q4 213 27 469z" />
<glyph unicode="&#xa2;" horiz-adv-x="492" d="M261 -140l-8 8v126q-93 14 -147.5 85.5t-54.5 183.5q0 116 59 192.5t155 89.5v132l46 3l8 -8v-125q80 -5 133 -39l-26 -97q-57 43 -118 43q-59 0 -93.5 -48.5t-34.5 -130.5q0 -90 39.5 -142t108.5 -52q54 0 113 35l8 -83q-55 -39 -142 -42v-128z" />
<glyph unicode="&#xa3;" horiz-adv-x="571" d="M529 -159q-21 -8 -66 -8q-33 0 -68.5 9t-62 20t-61 32.5t-53 34.5t-53 39t-45.5 34q-27 -12 -59 -12q-34 0 -52.5 13t-18.5 35t16.5 35t42.5 13q28 0 61 -14q20 47 34 168l4 46l-113 4l10 47l108 15h1q15 165 72 255.5t176 90.5q92 0 146 -43l-42 -98q-53 48 -104 48 q-55 0 -83 -56t-45 -197h180l6 -13l-15 -53h-180l-3 -17q-27 -158 -90 -227q3 -2 34.5 -19t40.5 -21t37.5 -18t44.5 -19t42 -12.5t49.5 -10.5t47.5 -3q52 0 93 12z" />
<glyph unicode="&#xa4;" horiz-adv-x="566" d="M466 37l-76 78q-49 -36 -116 -36q-60 0 -105 29l-70 -70l-48 48l68 69q-33 47 -33 109q0 70 39 121l-71 72l45 45q4 -4 31 -30t42 -42q47 31 108 31q63 0 112 -34l75 75l48 -48l-77 -77q29 -46 29 -103q0 -62 -31 -109q12 -12 42 -42.5t37 -38.5v-8zM276 393 q-55 0 -86 -36t-31 -87q0 -50 31.5 -86.5t88.5 -36.5t86 35.5t29 87.5t-32 87.5t-86 35.5z" />
<glyph unicode="&#xa5;" horiz-adv-x="554" d="M66 108v50h149v82h-149v49h149l-201 396l131 13l84 -178q27 -61 58 -148h2q22 61 58 143l87 183l98 -8l8 -14l-201 -387h149v-49h-150v-82h150v-50h-150v-108h-123v108h-149z" />
<glyph unicode="&#xa6;" horiz-adv-x="323" d="M195 359l-56 -3l-11 8v391l60 3l7 -8v-391zM195 -255l-56 -3l-11 8v388l60 3l7 -7v-389z" />
<glyph unicode="&#xa7;" horiz-adv-x="567" d="M355 587q-39 0 -59.5 -19.5t-20.5 -51.5t25 -72t60.5 -81.5t71 -87t60.5 -102t25 -112.5q0 -103 -79 -167.5t-207 -64.5q-86 0 -145 25l16 121q52 -35 105 -35q40 0 62.5 20.5t22.5 53.5q0 31 -25 71t-60.5 81t-71 86.5t-60.5 101.5t-25 112q0 103 77.5 167.5t203.5 64.5 q88 0 145 -24l-16 -121q-50 34 -105 34zM283 -102q82 10 122.5 56t40.5 107q0 47 -25 96t-60.5 92t-71 84.5t-60.5 88t-25 88.5q0 39 20.5 70.5t62.5 40.5l-4 8q-82 -10 -122.5 -55.5t-40.5 -107.5q0 -47 25 -96t60.5 -91.5t71.5 -84.5t61 -88t25 -88q0 -39 -20.5 -71 t-63.5 -40z" />
<glyph unicode="&#xa8;" horiz-adv-x="457" d="M190 672q0 -34 -22 -58t-55 -24q-29 0 -47.5 19.5t-18.5 47.5q0 33 23.5 57t55.5 24q28 0 46 -18.5t18 -47.5zM409 672q0 -34 -22 -58t-55 -24q-29 0 -47.5 19.5t-18.5 47.5q0 33 23.5 57t55.5 24q28 0 46 -18.5t18 -47.5z" />
<glyph unicode="&#xa9;" horiz-adv-x="685" d="M342 -45q-125 0 -209.5 85t-84.5 210q0 122 86.5 208.5t207.5 86.5q125 0 210 -86t85 -209q0 -122 -86.5 -208.5t-208.5 -86.5zM342 0q103 0 176.5 73.5t73.5 176.5q0 104 -73 177t-177 73q-103 0 -176.5 -73.5t-73.5 -176.5q0 -106 72 -178t178 -72zM462 393l-19 -68 q-37 26 -77 26q-36 0 -58 -25t-22 -66q0 -50 24.5 -77.5t68.5 -27.5q35 0 73 20l6 -57q-42 -26 -101 -26q-73 0 -117.5 43t-44.5 117q0 72 47.5 118t121.5 46q57 0 98 -23z" />
<glyph unicode="&#xaa;" horiz-adv-x="430" d="M361 396q0 -62 18 -106l-88 -8q-13 23 -21 54h-3q-17 -24 -50 -39t-72 -15q-49 0 -78.5 25t-29.5 69q0 63 61 95t161 36v35q0 68 -75 68q-65 0 -125 -33l-5 79q76 30 156 30q75 0 114.5 -33.5t39.5 -96.5q0 -28 -1.5 -83t-1.5 -77zM140 393q0 -22 14 -36.5t39 -14.5 q37 0 66 26v104q-52 -4 -85.5 -24.5t-33.5 -54.5z" />
<glyph unicode="&#xab;" horiz-adv-x="483" d="M46 276v34q78 66 171 188l32 -14q-31 -96 -100 -191q69 -95 100 -191l-32 -14q-93 122 -171 188zM240 276v34q80 67 171 188l33 -14q-33 -97 -101 -191q68 -94 101 -191l-33 -14q-91 121 -171 188z" />
<glyph unicode="&#xac;" d="M511 326v-236h-71v173h-379v66q167 5 442 5z" />
<glyph unicode="&#xae;" horiz-adv-x="685" d="M341 -45q-124 0 -208.5 85t-84.5 209q0 123 86.5 209.5t208.5 86.5q124 0 209 -86.5t85 -208.5t-86.5 -208.5t-209.5 -86.5zM342 0q104 0 177 73.5t73 176.5q0 104 -73 177t-177 73q-103 0 -176.5 -73.5t-73.5 -177.5q0 -106 72 -177.5t178 -71.5zM304 92h-74v217 q0 72 -8 112h106q73 0 112.5 -29.5t39.5 -84.5q0 -71 -66 -101l66 -114l-78 -5q-7 12 -15.5 29t-19 38.5t-15.5 32.5h-48v-95zM335 357h-31v-106h31q67 0 67 52q0 25 -17.5 39.5t-49.5 14.5z" />
<glyph unicode="&#xaf;" horiz-adv-x="376" d="M47 629v72h285v-72h-285z" />
<glyph unicode="&#xb0;" horiz-adv-x="340" d="M166 301q-52 0 -85.5 33t-33.5 86q0 55 36 91.5t91 36.5q52 0 85.5 -33t33.5 -85q0 -55 -36.5 -92t-90.5 -37zM170 504q-34 0 -54.5 -23.5t-20.5 -58.5q0 -33 21 -55t53 -22q33 0 54 23.5t21 59.5q0 33 -20.5 54.5t-53.5 21.5z" />
<glyph unicode="&#xb1;" d="M501 407h-166v-152h-70v152h-176v65q43 2 175 4l-1 149h72v-149q65 1 167 1l7 -6zM519 84h-450v65q170 5 451 5l7 -6z" />
<glyph unicode="&#xb2;" horiz-adv-x="377" d="M49 352l-11 63q191 129 191 217q0 31 -19 50t-52 19q-53 0 -110 -43l-9 71q62 37 142 37q64 0 105.5 -31.5t41.5 -82.5q0 -60 -58 -120.5t-141 -109.5h93q54 0 105 6l-7 -76h-271z" />
<glyph unicode="&#xb3;" horiz-adv-x="373" d="M45 734q60 32 134 32q58 0 95.5 -25.5t37.5 -65.5q0 -34 -27 -63.5t-73 -41.5q56 -7 88.5 -34t32.5 -70q0 -54 -50.5 -88t-131.5 -34q-63 0 -111 14l9 60q46 -14 98 -14q39 0 63 15.5t24 43.5q0 55 -102 55q-16 0 -52 -4v60q58 7 95.5 28.5t37.5 52.5q0 21 -16 33.5 t-46 12.5q-48 0 -101 -28z" />
<glyph unicode="&#xb4;" horiz-adv-x="261" d="M224 754l7 -21q-60 -92 -158 -163l-46 11q61 111 85 184z" />
<glyph unicode="&#xb6;" horiz-adv-x="601" d="M234 -100q164 0 164 208v533h-72v-423h-26q-109 0 -181 64t-72 172q0 110 75.5 172t191.5 62h167v-591q0 -124 -65 -195.5t-179 -71.5q-74 0 -141 26l7 73q73 -29 131 -29z" />
<glyph unicode="&#xb7;" horiz-adv-x="312" d="M236 277q0 -34 -24 -57.5t-58 -23.5t-56 22t-22 55t25 57t59 24q33 0 54.5 -21.5t21.5 -55.5z" />
<glyph unicode="&#xb8;" horiz-adv-x="302" d="M247 -136q0 -52 -56 -77t-135 -28l1 45q98 11 98 56q0 35 -71 37l-14 23l32 107l68 -1l-26 -80q103 -14 103 -82z" />
<glyph unicode="&#xb9;" horiz-adv-x="275" d="M105 676h-1l-66 -9l-14 54l165 45l11 -10v-404h-96v242q0 58 1 82z" />
<glyph unicode="&#xba;" horiz-adv-x="473" d="M427 487q0 -97 -56.5 -151t-139.5 -54q-82 0 -133 52t-51 144q0 97 55.5 152.5t139.5 55.5q83 0 134 -54t51 -145zM154 487q0 -145 83 -145q40 0 61 37t21 102q0 145 -82 145q-83 0 -83 -139z" />
<glyph unicode="&#xbb;" horiz-adv-x="483" d="M437 276q-82 -70 -171 -188l-32 14q31 96 100 191q-69 95 -100 191l32 14q89 -118 171 -188v-34zM243 276q-80 -67 -171 -188l-33 14q34 102 101 191q-67 89 -101 191l33 14q91 -121 171 -188v-34z" />
<glyph unicode="&#xbc;" horiz-adv-x="870" d="M135 616h-1l-66 -9l-14 54l165 45l11 -10v-404h-96v242q0 58 1 82zM639 700l-425 -710h-55l424 710h56zM458 143l166 255l106 6l11 -9v-244q20 1 58 5l-7 -71h-51v-95h-91v95h-181zM537 151v-2q8 0 44 0.5t69 0.5v77q0 76 4 110h-2z" />
<glyph unicode="&#xbd;" horiz-adv-x="891" d="M135 616h-1l-66 -9l-14 54l165 45l11 -10v-404h-96v242q0 58 1 82zM639 700l-425 -710h-55l424 710h56zM533 -10l-11 63q191 129 191 217q0 31 -19 50t-52 19q-53 0 -110 -43l-9 71q62 37 142 37q64 0 105.5 -31.5t41.5 -82.5q0 -60 -58 -120.5t-141 -109.5h93 q54 0 105 6l-7 -76h-271z" />
<glyph unicode="&#xbe;" horiz-adv-x="941" d="M75 672q62 33 134 33q58 0 95.5 -25.5t37.5 -65.5q0 -34 -27 -63.5t-73 -41.5q56 -7 88.5 -34.5t32.5 -69.5q0 -54 -50.5 -88t-131.5 -34q-63 0 -111 14l9 60q46 -14 98 -14q39 0 63 15.5t24 42.5q0 56 -102 56q-16 0 -52 -4v60q59 7 96 28t37 53q0 21 -16 33.5t-46 12.5 q-49 0 -101 -28zM709 700l-425 -710h-55l424 710h56zM529 143l166 255l106 6l10 -9v-244q22 1 59 5l-7 -71h-52v-95h-91v95h-180zM607 151v-2q9 0 45 0.5t68 0.5v77q0 76 4 110h-2z" />
<glyph unicode="&#xbf;" horiz-adv-x="477" d="M200 429q0 32 21.5 55.5t54.5 23.5q29 0 48 -19t19 -47q0 -32 -23.5 -55.5t-56.5 -23.5q-28 0 -45.5 18.5t-17.5 47.5zM242 279l72 3q14 -26 14 -56q0 -28 -16.5 -53.5t-40.5 -45.5t-48 -40.5t-40.5 -47t-16.5 -56.5q0 -41 27 -66t72 -25q38 0 78 20t68 56l48 -66 q-80 -102 -219 -102q-93 0 -148 46t-55 120q0 43 20.5 81t49.5 63t58.5 46t50 41t20.5 37t-2 37z" />
<glyph unicode="&#xc0;" horiz-adv-x="630" d="M447 774q-154 10 -267 69l-7 21l77 67q84 -64 207 -125zM137 0h-122l186 585q20 61 30 106l147 6l20 -17l217 -680h-129l-53 166h-243zM250 357l-31 -98h184l-30 97q-47 160 -59 223h-4q-21 -91 -60 -222z" />
<glyph unicode="&#xc1;" horiz-adv-x="630" d="M457 864l-6 -21q-115 -59 -268 -69l-10 32q122 60 208 125zM137 0h-122l186 585q20 61 30 106l147 6l20 -17l217 -680h-129l-53 166h-243zM250 357l-31 -98h184l-30 97q-47 160 -59 223h-4q-21 -91 -60 -222z" />
<glyph unicode="&#xc2;" horiz-adv-x="630" d="M184 771l-34 30q58 50 118 119l88 8q59 -68 123 -127l-33 -30q-55 26 -134 74q-75 -48 -128 -74zM137 0h-122l186 585q20 61 30 106l147 6l20 -17l217 -680h-129l-53 166h-243zM250 357l-31 -98h184l-30 97q-47 160 -59 223h-4q-21 -91 -60 -222z" />
<glyph unicode="&#xc3;" horiz-adv-x="630" d="M244 922q32 0 79 -28t71 -28q35 0 62 48l33 -5q-2 -52 -28 -90t-72 -38q-31 0 -82 28t-72 28q-35 0 -61 -48l-33 5q3 52 28 90t75 38zM137 0h-122l186 585q20 61 30 106l147 6l20 -17l217 -680h-129l-53 166h-243zM250 357l-31 -98h184l-30 97q-47 160 -59 223h-4 q-21 -91 -60 -222z" />
<glyph unicode="&#xc4;" horiz-adv-x="630" d="M496 857q0 -31 -21.5 -52.5t-54.5 -21.5q-29 0 -46.5 17t-17.5 42q0 30 22.5 51.5t54.5 21.5q27 0 45 -16.5t18 -41.5zM275 857q0 -31 -21.5 -52.5t-54.5 -21.5q-29 0 -46.5 17t-17.5 42q0 30 22.5 51.5t54.5 21.5q27 0 45 -16.5t18 -41.5zM137 0h-122l186 585 q20 61 30 106l147 6l20 -17l217 -680h-129l-53 166h-243zM250 357l-31 -98h184l-30 97q-47 160 -59 223h-4q-21 -91 -60 -222z" />
<glyph unicode="&#xc5;" horiz-adv-x="630" d="M423 861q0 -44 -33.5 -75t-81.5 -31q-43 0 -72 25.5t-29 63.5q0 43 35.5 74t83.5 31q42 0 69.5 -25t27.5 -63zM264 848q0 -21 13.5 -34.5t34.5 -13.5q22 0 38 16.5t16 39.5q0 22 -12 35.5t-33 13.5q-24 0 -40.5 -17t-16.5 -40zM137 0h-122l186 585q20 61 30 106l147 6 l20 -17l217 -680h-129l-53 166h-243zM250 357l-31 -98h184l-30 97q-47 160 -59 223h-4q-21 -91 -60 -222z" />
<glyph unicode="&#xc6;" horiz-adv-x="879" d="M137 0h-122l261 585q26 56 46 103h429l14 -14l-2 -86l-264 6l27 -211l223 4l-3 -93l-209 5l27 -206l282 7v-100h-399l-20 166h-217zM294 357l-43 -98h164l-12 97q-12 113 -16 223h-4q-28 -77 -89 -222z" />
<glyph unicode="&#xc7;" horiz-adv-x="583" d="M469 -140q0 -52 -56 -77t-135 -28v45q99 11 99 56q0 35 -71 37l-14 23l23 77q-123 14 -194 103.5t-71 238.5q0 164 89 263.5t230 99.5q106 0 177 -42l-25 -111q-73 47 -150 47q-84 0 -136 -67.5t-52 -184.5q0 -112 51.5 -178t143.5 -66q85 0 158 46l15 -105 q-71 -43 -169 -46l-16 -49q103 -14 103 -82z" />
<glyph unicode="&#xc8;" horiz-adv-x="537" d="M424 774q-154 10 -267 69l-7 21l77 67q84 -64 207 -125zM504 100v-100h-419v522q0 102 -9 166h407l14 -14l-3 -86l-281 7v-212l235 4l-3 -93l-232 5v-206z" />
<glyph unicode="&#xc9;" horiz-adv-x="537" d="M434 864l-6 -21q-115 -59 -268 -69l-10 32q119 58 208 125zM504 100v-100h-419v522q0 102 -9 166h407l14 -14l-3 -86l-281 7v-212l235 4l-3 -93l-232 5v-206z" />
<glyph unicode="&#xca;" horiz-adv-x="537" d="M161 771l-34 30q58 50 118 119l88 8q60 -69 124 -127l-34 -30q-59 28 -133 74q-72 -46 -129 -74zM504 100v-100h-419v522q0 102 -9 166h407l14 -14l-3 -86l-281 7v-212l235 4l-3 -93l-232 5v-206z" />
<glyph unicode="&#xcb;" horiz-adv-x="537" d="M473 857q0 -31 -21.5 -52.5t-54.5 -21.5q-29 0 -46.5 17t-17.5 42q0 30 22.5 51.5t55.5 21.5q26 0 44 -16.5t18 -41.5zM252 857q0 -31 -21.5 -52.5t-54.5 -21.5q-29 0 -46.5 17t-17.5 42q0 30 22.5 51.5t55.5 21.5q26 0 44 -16.5t18 -41.5zM504 100v-100h-419v522 q0 102 -9 166h407l14 -14l-3 -86l-281 7v-212l235 4l-3 -93l-232 5v-206z" />
<glyph unicode="&#xcc;" horiz-adv-x="298" d="M275 774q-154 10 -267 69l-7 21l77 67q84 -64 207 -125zM213 0h-128v517q0 95 -9 171l123 10l14 -14v-684z" />
<glyph unicode="&#xcd;" horiz-adv-x="298" d="M285 864l-6 -21q-115 -59 -268 -69l-10 32q119 58 208 125zM213 0h-128v517q0 95 -9 171l123 10l14 -14v-684z" />
<glyph unicode="&#xce;" horiz-adv-x="298" d="M12 771l-34 30q58 50 118 119l88 8q60 -69 124 -127l-34 -30q-59 28 -133 74q-72 -46 -129 -74zM213 0h-128v517q0 95 -9 171l123 10l14 -14v-684z" />
<glyph unicode="&#xcf;" horiz-adv-x="298" d="M324 857q0 -31 -21.5 -52.5t-54.5 -21.5q-29 0 -46.5 17t-17.5 42q0 30 22.5 51.5t55.5 21.5q26 0 44 -16.5t18 -41.5zM103 857q0 -31 -21.5 -52.5t-54.5 -21.5q-29 0 -46.5 17t-17.5 42q0 30 22.5 51.5t55.5 21.5q26 0 44 -16.5t18 -41.5zM213 0h-128v517q0 95 -9 171 l123 10l14 -14v-684z" />
<glyph unicode="&#xd0;" horiz-adv-x="686" d="M636 348q0 -163 -98 -255.5t-253 -92.5h-200v311h-78v66h78v145q0 102 -9 166h225q152 0 243.5 -91.5t91.5 -248.5zM383 311h-170v-218h81q105 0 157 66.5t52 182.5q0 114 -54 183.5t-156 69.5h-80v-218h170v-66z" />
<glyph unicode="&#xd1;" horiz-adv-x="706" d="M271 922q33 0 80 -28t70 -28q35 0 62 48l33 -5q-2 -52 -27.5 -90t-72.5 -38q-31 0 -81.5 28t-72.5 28q-35 0 -60 -48l-33 5q2 52 27 90t75 38zM370 419q93 -153 136 -250h3q-10 101 -10 313q0 112 -9 206l118 9l14 -14v-683h-124q-33 54 -87 145.5t-78 130.5 q-92 150 -133 237h-2q9 -81 9 -215v-298h-122v522q0 90 -9 166l130 8q142 -240 164 -277z" />
<glyph unicode="&#xd2;" horiz-adv-x="707" d="M490 768q-153 10 -268 69l-6 21l76 67q84 -65 208 -125zM657 346q0 -168 -88 -262t-223 -94q-132 0 -214 91.5t-82 251.5q0 165 88 265t224 100q134 0 214.5 -95.5t80.5 -256.5zM183 345q0 -115 44.5 -186.5t126.5 -71.5q83 0 126.5 68.5t43.5 187.5q0 117 -41.5 187.5 t-124.5 70.5q-82 0 -128.5 -69t-46.5 -187z" />
<glyph unicode="&#xd3;" horiz-adv-x="707" d="M500 858l-7 -21q-113 -59 -267 -69l-10 32q128 63 207 125zM657 346q0 -168 -88 -262t-223 -94q-132 0 -214 91.5t-82 251.5q0 165 88 265t224 100q134 0 214.5 -95.5t80.5 -256.5zM183 345q0 -115 44.5 -186.5t126.5 -71.5q83 0 126.5 68.5t43.5 187.5 q0 117 -41.5 187.5t-124.5 70.5q-82 0 -128.5 -69t-46.5 -187z" />
<glyph unicode="&#xd4;" horiz-adv-x="707" d="M226 765l-34 30q62 54 119 119l88 8q52 -62 123 -127l-34 -30q-63 30 -133 74q-72 -46 -129 -74zM657 346q0 -168 -88 -262t-223 -94q-132 0 -214 91.5t-82 251.5q0 165 88 265t224 100q134 0 214.5 -95.5t80.5 -256.5zM183 345q0 -115 44.5 -186.5t126.5 -71.5 q83 0 126.5 68.5t43.5 187.5q0 117 -41.5 187.5t-124.5 70.5q-82 0 -128.5 -69t-46.5 -187z" />
<glyph unicode="&#xd5;" horiz-adv-x="707" d="M286 916q33 0 80 -28t70 -28q35 0 62 48l33 -5q-2 -52 -28 -90t-72 -38q-31 0 -81.5 28t-72.5 28q-34 0 -61 -48l-33 5q3 52 28 90t75 38zM657 346q0 -168 -88 -262t-223 -94q-132 0 -214 91.5t-82 251.5q0 165 88 265t224 100q134 0 214.5 -95.5t80.5 -256.5zM183 345 q0 -115 44.5 -186.5t126.5 -71.5q83 0 126.5 68.5t43.5 187.5q0 117 -41.5 187.5t-124.5 70.5q-82 0 -128.5 -69t-46.5 -187z" />
<glyph unicode="&#xd6;" horiz-adv-x="707" d="M538 851q0 -31 -21.5 -52.5t-54.5 -21.5q-28 0 -46 17t-18 42q0 30 22.5 51.5t55.5 21.5q27 0 44.5 -16.5t17.5 -41.5zM317 851q0 -31 -21.5 -52.5t-54.5 -21.5q-28 0 -46 17t-18 42q0 30 22.5 51.5t55.5 21.5q27 0 44.5 -16.5t17.5 -41.5zM657 346q0 -168 -88 -262 t-223 -94q-132 0 -214 91.5t-82 251.5q0 165 88 265t224 100q134 0 214.5 -95.5t80.5 -256.5zM183 345q0 -115 44.5 -186.5t126.5 -71.5q83 0 126.5 68.5t43.5 187.5q0 117 -41.5 187.5t-124.5 70.5q-82 0 -128.5 -69t-46.5 -187z" />
<glyph unicode="&#xd7;" d="M455 139l-156 158l-158 -158l-48 49l158 158l-156 159l46 46q92 -90 158 -157l157 158l49 -49l-158 -158q30 -29 83 -82.5t74 -74.5l-1 -10z" />
<glyph unicode="&#xd8;" horiz-adv-x="707" d="M657 346q0 -168 -88 -262t-223 -94q-120 0 -198 75l-65 -74l-49 43l72 82q-56 87 -56 217q0 165 88 265t224 100q112 0 189 -69l60 69l50 -42l-67 -77q63 -92 63 -233zM183 345q0 -70 16 -122l276 318q-43 60 -117 60q-82 0 -128.5 -69t-46.5 -187zM524 343q0 77 -18 134 l-278 -320q46 -70 126 -70q83 0 126.5 68.5t43.5 187.5z" />
<glyph unicode="&#xd9;" horiz-adv-x="666" d="M465 768q-153 10 -268 69l-6 21l77 67q79 -62 207 -125zM73 518q0 87 -10 171l126 9l13 -13v-444q0 -73 36.5 -112.5t98.5 -39.5q61 0 97 39.5t36 112.5v301q0 80 -10 147l133 8v-465q0 -116 -75 -179t-189 -63q-113 0 -184.5 63t-71.5 179v286z" />
<glyph unicode="&#xda;" horiz-adv-x="666" d="M475 858l-6 -21q-114 -59 -268 -69l-10 32q128 63 207 125zM73 518q0 87 -10 171l126 9l13 -13v-444q0 -73 36.5 -112.5t98.5 -39.5q61 0 97 39.5t36 112.5v301q0 80 -10 147l133 8v-465q0 -116 -75 -179t-189 -63q-113 0 -184.5 63t-71.5 179v286z" />
<glyph unicode="&#xdb;" horiz-adv-x="666" d="M201 765l-33 30q58 50 118 119l88 8q52 -62 123 -127l-33 -30q-55 26 -134 74q-75 -48 -129 -74zM73 518q0 87 -10 171l126 9l13 -13v-444q0 -73 36.5 -112.5t98.5 -39.5q61 0 97 39.5t36 112.5v301q0 80 -10 147l133 8v-465q0 -116 -75 -179t-189 -63q-113 0 -184.5 63 t-71.5 179v286z" />
<glyph unicode="&#xdc;" horiz-adv-x="666" d="M513 851q0 -31 -21.5 -52.5t-54.5 -21.5q-28 0 -45.5 17t-17.5 42q0 30 22.5 51.5t54.5 21.5q27 0 44.5 -16.5t17.5 -41.5zM292 851q0 -31 -21 -52.5t-55 -21.5q-28 0 -45.5 17t-17.5 42q0 30 22.5 51.5t54.5 21.5q27 0 44.5 -16.5t17.5 -41.5zM73 518q0 87 -10 171 l126 9l13 -13v-444q0 -73 36.5 -112.5t98.5 -39.5q61 0 97 39.5t36 112.5v301q0 80 -10 147l133 8v-465q0 -116 -75 -179t-189 -63q-113 0 -184.5 63t-71.5 179v286z" />
<glyph unicode="&#xdd;" horiz-adv-x="571" d="M442 858l-7 -21q-113 -59 -267 -69l-10 32q128 63 207 125zM221 232l-207 453l137 13l91 -220q42 -109 54 -146h3q27 71 58 146l89 220l104 -8l8 -14l-208 -446v-230h-129v232z" />
<glyph unicode="&#xde;" horiz-adv-x="581" d="M213 0h-128v522q0 102 -9 166h137v-105h90q115 0 183 -61t68 -164q0 -110 -75 -171t-193 -61h-73v-126zM277 491h-64v-273h63q145 0 145 135q0 64 -35 101t-109 37z" />
<glyph unicode="&#xdf;" horiz-adv-x="643" d="M95 433l-73 4v46l73 15v16q0 123 63.5 183.5t167.5 60.5q92 0 147 -44t55 -115q0 -56 -32 -99.5t-84 -67.5q83 -30 132 -93t49 -146q0 -91 -57 -147t-152 -56q-62 0 -105 17v81q46 -17 83 -17q54 0 82 34t28 87q0 67 -45.5 121.5t-128.5 82.5v59q113 46 113 135 q0 39 -23.5 66t-65.5 27q-46 0 -74 -35t-28 -112v-536h-125v433z" />
<glyph unicode="&#xe0;" horiz-adv-x="514" d="M304 571q-97 69 -158 163l7 21l113 12q27 -83 85 -184zM434 137q0 -74 22 -137l-105 -10q-17 28 -27 69h-3q-22 -29 -62 -49t-87 -20q-60 0 -95.5 32t-35.5 88q0 81 74.5 122t196.5 46v48q0 89 -93 89q-76 0 -151 -44l-7 98q94 39 189 39q92 0 139.5 -42.5t47.5 -122.5 q0 -36 -1.5 -107t-1.5 -99zM164 131q0 -28 17.5 -47t47.5 -19q46 0 83 34v135q-65 -6 -106.5 -32t-41.5 -71z" />
<glyph unicode="&#xe1;" horiz-adv-x="514" d="M344 754l7 -21q-59 -91 -159 -163l-46 11q59 103 85 184zM434 137q0 -74 22 -137l-105 -10q-17 28 -27 69h-3q-22 -29 -62 -49t-87 -20q-60 0 -95.5 32t-35.5 88q0 81 74.5 122t196.5 46v48q0 89 -93 89q-76 0 -151 -44l-7 98q94 39 189 39q92 0 139.5 -42.5t47.5 -122.5 q0 -36 -1.5 -107t-1.5 -99zM164 131q0 -28 17.5 -47t47.5 -19q46 0 83 34v135q-65 -6 -106.5 -32t-41.5 -71z" />
<glyph unicode="&#xe2;" horiz-adv-x="514" d="M136 563l-39 28q52 69 109 160l88 8q51 -86 114 -168l-40 -28q-47 34 -118 105q-72 -74 -114 -105zM434 137q0 -74 22 -137l-105 -10q-17 28 -27 69h-3q-22 -29 -62 -49t-87 -20q-60 0 -95.5 32t-35.5 88q0 81 74.5 122t196.5 46v48q0 89 -93 89q-76 0 -151 -44l-7 98 q94 39 189 39q92 0 139.5 -42.5t47.5 -122.5q0 -36 -1.5 -107t-1.5 -99zM164 131q0 -28 17.5 -47t47.5 -19q46 0 83 34v135q-65 -6 -106.5 -32t-41.5 -71z" />
<glyph unicode="&#xe3;" horiz-adv-x="514" d="M176 742q32 0 79.5 -28.5t68.5 -28.5q19 0 31 12t25 36l37 -5q-3 -57 -28 -98.5t-70 -41.5q-30 0 -81 28.5t-70 28.5q-31 0 -55 -49l-36 6q4 57 28 98.5t71 41.5zM434 137q0 -74 22 -137l-105 -10q-17 28 -27 69h-3q-22 -29 -62 -49t-87 -20q-60 0 -95.5 32t-35.5 88 q0 81 74.5 122t196.5 46v48q0 89 -93 89q-76 0 -151 -44l-7 98q94 39 189 39q92 0 139.5 -42.5t47.5 -122.5q0 -36 -1.5 -107t-1.5 -99zM164 131q0 -28 17.5 -47t47.5 -19q46 0 83 34v135q-65 -6 -106.5 -32t-41.5 -71z" />
<glyph unicode="&#xe4;" horiz-adv-x="514" d="M210 672q0 -33 -22 -57t-55 -24q-29 0 -47.5 19.5t-18.5 47.5q0 33 23.5 57t56.5 24q28 0 45.5 -18.5t17.5 -48.5zM429 672q0 -33 -22 -57t-55 -24q-29 0 -47.5 19.5t-18.5 47.5q0 33 23.5 57t56.5 24q28 0 45.5 -18.5t17.5 -48.5zM434 137q0 -74 22 -137l-105 -10 q-17 28 -27 69h-3q-22 -29 -62 -49t-87 -20q-60 0 -95.5 32t-35.5 88q0 81 74.5 122t196.5 46v48q0 89 -93 89q-76 0 -151 -44l-7 98q94 39 189 39q92 0 139.5 -42.5t47.5 -122.5q0 -36 -1.5 -107t-1.5 -99zM164 131q0 -28 17.5 -47t47.5 -19q46 0 83 34v135 q-65 -6 -106.5 -32t-41.5 -71z" />
<glyph unicode="&#xe5;" horiz-adv-x="514" d="M366 675q0 -43 -33.5 -74t-81.5 -31q-43 0 -71.5 25.5t-28.5 62.5q0 43 35 74.5t83 31.5q43 0 70 -25t27 -64zM207 663q0 -21 13.5 -35t35.5 -14t38 16.5t16 39.5t-12 36t-33 13q-24 0 -41 -16.5t-17 -39.5zM434 137q0 -74 22 -137l-105 -10q-17 28 -27 69h-3 q-22 -29 -62 -49t-87 -20q-60 0 -95.5 32t-35.5 88q0 81 74.5 122t196.5 46v48q0 89 -93 89q-76 0 -151 -44l-7 98q94 39 189 39q92 0 139.5 -42.5t47.5 -122.5q0 -36 -1.5 -107t-1.5 -99zM164 131q0 -28 17.5 -47t47.5 -19q46 0 83 34v135q-65 -6 -106.5 -32t-41.5 -71z " />
<glyph unicode="&#xe6;" horiz-adv-x="783" d="M737 251l-15 -15h-280q7 -79 46 -117.5t103 -38.5q63 0 124 36l8 -83q-65 -43 -164 -43q-141 0 -208 99q-28 -43 -76.5 -71t-104.5 -28q-58 0 -93.5 32.5t-35.5 88.5q0 80 74.5 121t196.5 46v48q0 89 -95 89q-76 0 -149 -44l-7 98q94 39 191 39q101 0 147 -52 q63 52 147 52q88 0 140 -56t52 -146q0 -37 -1 -55zM540 433q-42 0 -69.5 -40.5t-30.5 -110.5l175 7q0 5 0.5 16.5t0.5 17.5q0 50 -19.5 80t-56.5 30zM164 131q0 -28 17.5 -47t47.5 -19q62 0 104 59q-21 49 -22 110q-64 -6 -105.5 -32t-41.5 -71z" />
<glyph unicode="&#xe7;" horiz-adv-x="485" d="M398 -140q0 -52 -56 -77t-134 -28v45q99 11 99 56q0 35 -71 37l-14 23l23 78q-90 14 -142 79.5t-52 170.5q0 120 69 192t179 72q87 0 150 -37l-28 -97q-59 41 -118 41q-56 0 -89.5 -42t-33.5 -117q0 -82 37.5 -129t104.5 -47q51 0 112 34l8 -83q-52 -36 -130 -40l-16 -49 q102 -14 102 -82z" />
<glyph unicode="&#xe8;" horiz-adv-x="523" d="M324 571q-97 69 -158 163l7 21l113 12q27 -83 85 -184zM477 251l-15 -15h-281q7 -79 46.5 -117.5t103.5 -38.5q63 0 124 36l8 -83q-65 -43 -165 -43q-113 0 -180 66t-67 186q0 121 67 193.5t168 72.5q88 0 140 -56t52 -146q0 -37 -1 -55zM280 433q-43 0 -70 -40.5 t-30 -110.5l174 7q1 11 1 36q0 48 -19.5 78t-55.5 30z" />
<glyph unicode="&#xe9;" horiz-adv-x="523" d="M364 754l7 -21q-59 -91 -159 -163l-46 11q59 103 85 184zM477 251l-15 -15h-281q7 -79 46.5 -117.5t103.5 -38.5q63 0 124 36l8 -83q-65 -43 -165 -43q-113 0 -180 66t-67 186q0 121 67 193.5t168 72.5q88 0 140 -56t52 -146q0 -37 -1 -55zM280 433q-43 0 -70 -40.5 t-30 -110.5l174 7q1 11 1 36q0 48 -19.5 78t-55.5 30z" />
<glyph unicode="&#xea;" horiz-adv-x="523" d="M156 563l-39 28q52 69 109 160l88 8q51 -86 114 -168l-40 -28q-47 34 -118 105q-72 -74 -114 -105zM477 251l-15 -15h-281q7 -79 46.5 -117.5t103.5 -38.5q63 0 124 36l8 -83q-65 -43 -165 -43q-113 0 -180 66t-67 186q0 121 67 193.5t168 72.5q88 0 140 -56t52 -146 q0 -37 -1 -55zM280 433q-43 0 -70 -40.5t-30 -110.5l174 7q1 11 1 36q0 48 -19.5 78t-55.5 30z" />
<glyph unicode="&#xeb;" horiz-adv-x="523" d="M230 672q0 -33 -22 -57t-55 -24q-29 0 -47.5 19.5t-18.5 47.5q0 33 23.5 57t56.5 24q28 0 45.5 -18.5t17.5 -48.5zM449 672q0 -33 -22 -57t-55 -24q-29 0 -47.5 19.5t-18.5 47.5q0 33 23.5 57t56.5 24q28 0 45.5 -18.5t17.5 -48.5zM477 251l-15 -15h-281 q7 -79 46.5 -117.5t103.5 -38.5q63 0 124 36l8 -83q-65 -43 -165 -43q-113 0 -180 66t-67 186q0 121 67 193.5t168 72.5q88 0 140 -56t52 -146q0 -37 -1 -55zM280 433q-43 0 -70 -40.5t-30 -110.5l174 7q1 11 1 36q0 48 -19.5 78t-55.5 30z" />
<glyph unicode="&#xec;" horiz-adv-x="281" d="M195 571q-97 69 -158 163l7 21l112 12q24 -76 85 -184zM77 0v327q0 89 -12 166l123 15l14 -14v-494h-125z" />
<glyph unicode="&#xed;" horiz-adv-x="281" d="M234 754l7 -21q-60 -92 -158 -163l-46 11q61 111 85 184zM77 0v327q0 89 -12 166l123 15l14 -14v-494h-125z" />
<glyph unicode="&#xee;" horiz-adv-x="281" d="M58 571l-43 18q34 79 62 168l118 8q30 -91 67 -176l-43 -18q-35 36 -83 108q-37 -63 -78 -108zM77 0v327q0 89 -12 166l123 15l14 -14v-494h-125z" />
<glyph unicode="&#xef;" horiz-adv-x="281" d="M119 674q0 -33 -20 -57t-50 -24q-27 0 -44.5 19.5t-17.5 47.5q0 32 22.5 56.5t51.5 24.5q26 0 42 -18.5t16 -48.5zM290 674q0 -33 -20.5 -57t-50.5 -24q-26 0 -43 19.5t-17 47.5q0 32 21.5 56.5t50.5 24.5q26 0 42.5 -18.5t16.5 -48.5zM77 0v327q0 89 -12 166l123 15 l14 -14v-494h-125z" />
<glyph unicode="&#xf0;" horiz-adv-x="585" d="M292 -10q-99 0 -162.5 68t-63.5 187q0 112 56.5 176t146.5 64q73 0 118 -45q-26 81 -88 147l-103 -64l-35 54l90 56q-35 29 -79 56l42 69q70 -30 123 -71l108 68l35 -55l-92 -57q145 -147 145 -366q0 -141 -68.5 -214t-172.5 -73zM300 405q-48 0 -76.5 -41.5 t-28.5 -122.5q0 -75 26 -119.5t77 -44.5q50 0 77.5 43t27.5 120q0 79 -27 122t-76 43z" />
<glyph unicode="&#xf1;" horiz-adv-x="577" d="M210 742q32 0 79 -28.5t68 -28.5q31 0 57 48l36 -5q-3 -56 -28 -98t-70 -42q-30 0 -81 28.5t-70 28.5q-31 0 -55 -49l-36 6q4 57 28 98.5t72 41.5zM204 0h-125v328q0 74 -20 157l117 23q15 -39 22 -73q76 73 163 73q64 0 100.5 -40t36.5 -113v-355h-126v331q0 90 -73 90 q-46 0 -95 -37v-384z" />
<glyph unicode="&#xf2;" horiz-adv-x="563" d="M338 571q-98 71 -159 163l7 21l113 12q27 -83 85 -184zM513 252q0 -125 -68.5 -193.5t-169.5 -68.5q-99 0 -161.5 67t-62.5 185q0 124 67.5 195t169.5 71q101 0 163 -69.5t62 -186.5zM180 252q0 -187 102 -187q49 0 75 47.5t26 132.5q0 188 -101 188q-49 0 -75.5 -46 t-26.5 -135z" />
<glyph unicode="&#xf3;" horiz-adv-x="563" d="M377 754l7 -21q-60 -92 -158 -163l-47 11q59 103 85 184zM513 252q0 -125 -68.5 -193.5t-169.5 -68.5q-99 0 -161.5 67t-62.5 185q0 124 67.5 195t169.5 71q101 0 163 -69.5t62 -186.5zM180 252q0 -187 102 -187q49 0 75 47.5t26 132.5q0 188 -101 188q-49 0 -75.5 -46 t-26.5 -135z" />
<glyph unicode="&#xf4;" horiz-adv-x="563" d="M170 563l-40 28q61 80 109 160l88 8q58 -95 114 -168l-40 -28q-50 37 -118 105q-72 -74 -113 -105zM513 252q0 -125 -68.5 -193.5t-169.5 -68.5q-99 0 -161.5 67t-62.5 185q0 124 67.5 195t169.5 71q101 0 163 -69.5t62 -186.5zM180 252q0 -187 102 -187q49 0 75 47.5 t26 132.5q0 188 -101 188q-49 0 -75.5 -46t-26.5 -135z" />
<glyph unicode="&#xf5;" horiz-adv-x="563" d="M210 742q32 0 79 -28.5t68 -28.5q31 0 57 48l36 -5q-3 -56 -28 -98t-70 -42q-30 0 -81 28.5t-70 28.5q-31 0 -55 -49l-36 6q4 57 28 98.5t72 41.5zM513 252q0 -125 -68.5 -193.5t-169.5 -68.5q-99 0 -161.5 67t-62.5 185q0 124 67.5 195t169.5 71q101 0 163 -69.5 t62 -186.5zM180 252q0 -187 102 -187q49 0 75 47.5t26 132.5q0 188 -101 188q-49 0 -75.5 -46t-26.5 -135z" />
<glyph unicode="&#xf6;" horiz-adv-x="563" d="M243 672q0 -33 -22 -57t-54 -24q-30 0 -48.5 19.5t-18.5 47.5q0 32 24 56.5t56 24.5q28 0 45.5 -18.5t17.5 -48.5zM462 672q0 -33 -22 -57t-54 -24q-30 0 -48.5 19.5t-18.5 47.5q0 32 24 56.5t56 24.5q28 0 45.5 -18.5t17.5 -48.5zM513 252q0 -125 -68.5 -193.5 t-169.5 -68.5q-99 0 -161.5 67t-62.5 185q0 124 67.5 195t169.5 71q101 0 163 -69.5t62 -186.5zM180 252q0 -187 102 -187q49 0 75 47.5t26 132.5q0 188 -101 188q-49 0 -75.5 -46t-26.5 -135z" />
<glyph unicode="&#xf7;" d="M363 541q0 -30 -20.5 -51t-50.5 -21q-25 0 -41 17t-16 41q0 29 21 50.5t51 21.5q24 0 40 -16.5t16 -41.5zM519 313h-450v65q170 5 451 5l7 -7zM364 169q0 -30 -20.5 -51t-50.5 -21q-25 0 -41 17t-16 41q0 29 21 50.5t51 21.5q24 0 40 -16.5t16 -41.5z" />
<glyph unicode="&#xf8;" horiz-adv-x="563" d="M513 252q0 -125 -68.5 -193.5t-169.5 -68.5q-86 0 -146 51l-54 -58l-45 43l59 63q-38 63 -38 153q0 124 67.5 195t169.5 71q87 0 144 -51l55 58l46 -42l-60 -64q40 -66 40 -157zM180 252q0 -37 4 -62l176 190q-25 53 -78 53q-49 0 -75.5 -46t-26.5 -135zM383 245 q0 35 -3 64l-177 -189q25 -55 79 -55q49 0 75 47.5t26 132.5z" />
<glyph unicode="&#xf9;" horiz-adv-x="569" d="M341 571q-97 69 -158 163l7 21l113 12q27 -83 85 -184zM77 326q0 78 -11 166l122 16l14 -14v-326q0 -83 70 -83q45 0 91 35v378l125 10v-372q0 -72 17 -135l-104 -11q-14 29 -26 74h-4q-71 -74 -158 -74q-63 0 -99.5 37.5t-36.5 101.5v197z" />
<glyph unicode="&#xfa;" horiz-adv-x="569" d="M380 754l8 -21q-59 -91 -159 -163l-46 11q59 103 85 184zM77 326q0 78 -11 166l122 16l14 -14v-326q0 -83 70 -83q45 0 91 35v378l125 10v-372q0 -72 17 -135l-104 -11q-14 29 -26 74h-4q-71 -74 -158 -74q-63 0 -99.5 37.5t-36.5 101.5v197z" />
<glyph unicode="&#xfb;" horiz-adv-x="569" d="M173 563l-39 28q52 69 109 160l88 8q51 -86 114 -168l-40 -28q-47 34 -118 105q-72 -74 -114 -105zM77 326q0 78 -11 166l122 16l14 -14v-326q0 -83 70 -83q45 0 91 35v378l125 10v-372q0 -72 17 -135l-104 -11q-14 29 -26 74h-4q-71 -74 -158 -74q-63 0 -99.5 37.5 t-36.5 101.5v197z" />
<glyph unicode="&#xfc;" horiz-adv-x="569" d="M247 672q0 -33 -22 -57t-55 -24q-29 0 -47.5 19.5t-18.5 47.5q0 33 23.5 57t56.5 24q28 0 45.5 -18.5t17.5 -48.5zM466 672q0 -33 -22 -57t-55 -24q-29 0 -47.5 19.5t-18.5 47.5q0 33 23.5 57t56.5 24q28 0 45.5 -18.5t17.5 -48.5zM77 326q0 78 -11 166l122 16l14 -14 v-326q0 -83 70 -83q45 0 91 35v378l125 10v-372q0 -72 17 -135l-104 -11q-14 29 -26 74h-4q-71 -74 -158 -74q-63 0 -99.5 37.5t-36.5 101.5v197z" />
<glyph unicode="&#xfd;" horiz-adv-x="483" d="M345 754l8 -21q-59 -91 -159 -163l-46 11q61 111 85 184zM473 486l-150 -456q-20 -62 -41.5 -107.5t-55 -88t-81 -66t-108.5 -26.5l-18 110q148 8 205 155h-52l-157 490l131 11l67 -251q34 -106 42 -170h2q10 58 45 170l67 251l96 -8z" />
<glyph unicode="&#xfe;" horiz-adv-x="569" d="M74 577q0 70 -12 166l122 15l15 -14v-282q55 46 128 46q85 0 138 -68.5t53 -184.5q0 -123 -59 -194t-166 -71q-49 0 -94 14v-77q0 -85 11 -163l-122 -16l-14 14v815zM275 427q-46 0 -76 -27v-325q32 -16 70 -16q120 0 120 188q0 180 -114 180z" />
<glyph unicode="&#xff;" horiz-adv-x="483" d="M212 672q0 -33 -22 -57t-55 -24q-29 0 -47.5 19.5t-18.5 47.5q0 33 23.5 57t56.5 24q28 0 45.5 -18.5t17.5 -48.5zM431 672q0 -33 -22 -57t-55 -24q-29 0 -47.5 19.5t-18.5 47.5q0 33 23.5 57t56.5 24q28 0 45.5 -18.5t17.5 -48.5zM473 486l-150 -456 q-20 -62 -41.5 -107.5t-55 -88t-81 -66t-108.5 -26.5l-18 110q148 8 205 155h-52l-157 490l131 11l67 -251q34 -106 42 -170h2q10 58 45 170l67 251l96 -8z" />
<glyph unicode="&#x100;" horiz-adv-x="630" d="M175 812v74h281v-74h-281zM137 0h-122l186 585q20 61 30 106l147 6l20 -17l217 -680h-129l-53 166h-243zM250 357l-31 -98h184l-30 97q-47 160 -59 223h-4q-21 -91 -60 -222z" />
<glyph unicode="&#x101;" horiz-adv-x="514" d="M106 629v72h285v-72h-285zM434 137q0 -74 22 -137l-105 -10q-17 28 -27 69h-3q-22 -29 -62 -49t-87 -20q-60 0 -95.5 32t-35.5 88q0 81 74.5 122t196.5 46v48q0 89 -93 89q-76 0 -151 -44l-7 98q94 39 189 39q92 0 139.5 -42.5t47.5 -122.5q0 -36 -1.5 -107t-1.5 -99z M164 131q0 -28 17.5 -47t47.5 -19q46 0 83 34v135q-65 -6 -106.5 -32t-41.5 -71z" />
<glyph unicode="&#x102;" horiz-adv-x="630" d="M406 916l51 4q-7 -64 -46 -102.5t-101 -38.5q-56 0 -94 35.5t-44 94.5l52 8q8 -25 33 -39.5t59 -14.5q33 0 57.5 14.5t32.5 38.5zM137 0h-122l186 585q20 61 30 106l147 6l20 -17l217 -680h-129l-53 166h-243zM250 357l-31 -98h184l-30 97q-47 160 -59 223h-4 q-21 -91 -60 -222z" />
<glyph unicode="&#x103;" horiz-adv-x="514" d="M338 750l51 4q-7 -75 -46 -121t-101 -46q-56 0 -94 42.5t-44 113.5l52 8q8 -37 33 -58.5t59 -21.5q33 0 57.5 22t32.5 57zM434 137q0 -74 22 -137l-105 -10q-17 28 -27 69h-3q-22 -29 -62 -49t-87 -20q-60 0 -95.5 32t-35.5 88q0 81 74.5 122t196.5 46v48q0 89 -93 89 q-76 0 -151 -44l-7 98q94 39 189 39q92 0 139.5 -42.5t47.5 -122.5q0 -36 -1.5 -107t-1.5 -99zM164 131q0 -28 17.5 -47t47.5 -19q46 0 83 34v135q-65 -6 -106.5 -32t-41.5 -71z" />
<glyph unicode="&#x104;" horiz-adv-x="630" d="M137 0h-122l186 585q20 61 30 106l147 6l20 -17l217 -680q-113 -59 -113 -123q0 -46 48 -46q25 0 55 13l18 -45q-53 -44 -117 -44q-48 0 -78 25.5t-30 68.5q0 42 34 81.5t96 69.5h-42l-53 166h-243zM250 357l-31 -98h184l-30 97q-47 160 -59 223h-4q-21 -91 -60 -222z " />
<glyph unicode="&#x105;" horiz-adv-x="514" d="M434 137q0 -74 22 -137q-113 -59 -113 -123q0 -46 48 -46q25 0 55 13l18 -45q-53 -44 -117 -44q-48 0 -78 25.5t-30 68.5q0 80 111 141q-16 29 -26 69h-3q-22 -29 -62 -49t-87 -20q-60 0 -95.5 32t-35.5 88q0 81 74.5 122t196.5 46v48q0 89 -93 89q-76 0 -151 -44l-7 98 q94 39 189 39q92 0 139.5 -42.5t47.5 -122.5q0 -36 -1.5 -107t-1.5 -99zM164 131q0 -28 17.5 -47t47.5 -19q46 0 83 34v135q-65 -6 -106.5 -32t-41.5 -71z" />
<glyph unicode="&#x106;" horiz-adv-x="583" d="M483 864l-6 -21q-114 -59 -268 -69l-10 32q123 61 207 125zM536 142l15 -105q-77 -47 -191 -47q-143 0 -226.5 91.5t-83.5 253.5q0 164 89 263.5t230 99.5q106 0 177 -42l-25 -111q-73 47 -150 47q-84 0 -136 -67.5t-52 -184.5q0 -112 51.5 -178t143.5 -66q85 0 158 46z " />
<glyph unicode="&#x107;" horiz-adv-x="485" d="M372 754l7 -21q-60 -92 -158 -163l-47 11q59 103 85 184zM449 471l-28 -97q-59 41 -118 41q-56 0 -89.5 -42t-33.5 -117q0 -82 37.5 -129t104.5 -47q51 0 112 34l8 -83q-62 -41 -151 -41q-109 1 -174.5 69t-65.5 185q0 120 69 192t179 72q87 0 150 -37z" />
<glyph unicode="&#x108;" horiz-adv-x="583" d="M209 771l-33 30q58 50 118 119l88 8q52 -62 123 -127l-33 -30q-55 26 -134 74q-75 -48 -129 -74zM536 142l15 -105q-77 -47 -191 -47q-143 0 -226.5 91.5t-83.5 253.5q0 164 89 263.5t230 99.5q106 0 177 -42l-25 -111q-73 47 -150 47q-84 0 -136 -67.5t-52 -184.5 q0 -112 51.5 -178t143.5 -66q85 0 158 46z" />
<glyph unicode="&#x109;" horiz-adv-x="485" d="M165 563l-40 28q61 80 109 160l88 8q58 -95 114 -168l-40 -28q-47 34 -118 105q-72 -74 -113 -105zM449 471l-28 -97q-59 41 -118 41q-56 0 -89.5 -42t-33.5 -117q0 -82 37.5 -129t104.5 -47q51 0 112 34l8 -83q-62 -41 -151 -41q-109 1 -174.5 69t-65.5 185 q0 120 69 192t179 72q87 0 150 -37z" />
<glyph unicode="&#x10a;" horiz-adv-x="583" d="M419 861q0 -34 -23.5 -57t-60.5 -23q-32 0 -52 18.5t-20 46.5q0 32 25.5 55t61.5 23q30 0 49.5 -17.5t19.5 -45.5zM536 142l15 -105q-77 -47 -191 -47q-143 0 -226.5 91.5t-83.5 253.5q0 164 89 263.5t230 99.5q106 0 177 -42l-25 -111q-73 47 -150 47q-84 0 -136 -67.5 t-52 -184.5q0 -112 51.5 -178t143.5 -66q85 0 158 46z" />
<glyph unicode="&#x10b;" horiz-adv-x="485" d="M354 672q0 -35 -24 -60.5t-59 -25.5q-32 0 -52 21t-20 51q0 35 25.5 60t60.5 25q31 0 50 -19.5t19 -51.5zM449 471l-28 -97q-59 41 -118 41q-56 0 -89.5 -42t-33.5 -117q0 -82 37.5 -129t104.5 -47q51 0 112 34l8 -83q-62 -41 -151 -41q-109 1 -174.5 69t-65.5 185 q0 120 69 192t179 72q87 0 150 -37z" />
<glyph unicode="&#x10c;" horiz-adv-x="583" d="M472 931l33 -29q-59 -53 -118 -120l-88 -8q-57 66 -123 128l33 29q48 -22 134 -74q81 52 129 74zM536 142l15 -105q-77 -47 -191 -47q-143 0 -226.5 91.5t-83.5 253.5q0 164 89 263.5t230 99.5q106 0 177 -42l-25 -111q-73 47 -150 47q-84 0 -136 -67.5t-52 -184.5 q0 -112 51.5 -178t143.5 -66q85 0 158 46z" />
<glyph unicode="&#x10d;" horiz-adv-x="485" d="M396 771l40 -29q-60 -77 -109 -160l-88 -8q-53 87 -114 168l40 29q46 -35 117 -106q69 71 114 106zM449 471l-28 -97q-59 41 -118 41q-56 0 -89.5 -42t-33.5 -117q0 -82 37.5 -129t104.5 -47q51 0 112 34l8 -83q-62 -41 -151 -41q-109 1 -174.5 69t-65.5 185 q0 120 69 192t179 72q87 0 150 -37z" />
<glyph unicode="&#x10e;" horiz-adv-x="686" d="M460 931l34 -29q-56 -50 -119 -120l-87 -8q-58 68 -124 128l34 29q52 -23 133 -74q79 50 129 74zM636 348q0 -163 -98 -255.5t-253 -92.5h-200v522q0 102 -9 166h225q152 0 243.5 -91.5t91.5 -248.5zM293 595h-80v-502h81q105 0 157 66.5t52 182.5q0 114 -54 183.5 t-156 69.5z" />
<glyph unicode="&#x10f;" horiz-adv-x="576" d="M359 743l122 15l14 -14v-609q0 -71 23 -135l-108 -10q-10 19 -27 68h-2q-50 -68 -137 -68t-140 65.5t-53 177.5q0 130 71 202.5t185 72.5q30 0 63 -7v76q0 96 -11 166zM701 758l8 -21q-27 -103 -92 -210l-42 2q22 126 26 227zM180 249q0 -84 31 -134t85 -50q44 0 74 32 v337q-28 5 -49 5q-66 0 -103.5 -49t-37.5 -141z" />
<glyph unicode="&#x110;" horiz-adv-x="686" d="M636 348q0 -163 -98 -255.5t-253 -92.5h-200v311h-78v66h78v145q0 102 -9 166h225q152 0 243.5 -91.5t91.5 -248.5zM383 311h-170v-218h81q105 0 157 66.5t52 182.5q0 114 -54 183.5t-156 69.5h-80v-218h170v-66z" />
<glyph unicode="&#x111;" horiz-adv-x="576" d="M585 578h-90v-443q0 -71 23 -135l-108 -10q-10 19 -27 68h-2q-50 -68 -137 -68t-140 65.5t-53 177.5q0 130 71 202.5t185 72.5q30 0 63 -7v76v1h-160v67h159q-3 52 -10 98l122 15l14 -14v-99h90v-67zM180 249q0 -84 31 -134t85 -50q44 0 74 32v337q-28 5 -49 5 q-66 0 -103.5 -49t-37.5 -141z" />
<glyph unicode="&#x112;" horiz-adv-x="537" d="M152 812v74h281v-74h-281zM504 100v-100h-419v522q0 102 -9 166h407l14 -14l-3 -86l-281 7v-212l235 4l-3 -93l-232 5v-206z" />
<glyph unicode="&#x113;" horiz-adv-x="523" d="M126 629v72h285v-72h-285zM477 251l-15 -15h-281q7 -79 46.5 -117.5t103.5 -38.5q63 0 124 36l8 -83q-65 -43 -165 -43q-113 0 -180 66t-67 186q0 121 67 193.5t168 72.5q88 0 140 -56t52 -146q0 -37 -1 -55zM280 433q-43 0 -70 -40.5t-30 -110.5l174 7q1 11 1 36 q0 48 -19.5 78t-55.5 30z" />
<glyph unicode="&#x114;" horiz-adv-x="537" d="M383 916l51 4q-7 -63 -46 -102t-100 -39q-57 0 -95 35.5t-43 94.5l51 8q8 -25 33 -39.5t59 -14.5q33 0 57.5 14.5t32.5 38.5zM504 100v-100h-419v522q0 102 -9 166h407l14 -14l-3 -86l-281 7v-212l235 4l-3 -93l-232 5v-206z" />
<glyph unicode="&#x115;" horiz-adv-x="523" d="M358 750l51 4q-7 -75 -46 -121t-101 -46q-56 0 -94 42.5t-44 113.5l52 8q8 -37 33 -58.5t59 -21.5q33 0 57.5 22t32.5 57zM477 251l-15 -15h-281q7 -79 46.5 -117.5t103.5 -38.5q63 0 124 36l8 -83q-65 -43 -165 -43q-113 0 -180 66t-67 186q0 121 67 193.5t168 72.5 q88 0 140 -56t52 -146q0 -37 -1 -55zM280 433q-43 0 -70 -40.5t-30 -110.5l174 7q1 11 1 36q0 48 -19.5 78t-55.5 30z" />
<glyph unicode="&#x116;" horiz-adv-x="537" d="M371 861q0 -34 -24 -57t-61 -23q-31 0 -51.5 18.5t-20.5 46.5q0 32 26 55t62 23q30 0 49.5 -17.5t19.5 -45.5zM504 100v-100h-419v522q0 102 -9 166h407l14 -14l-3 -86l-281 7v-212l235 4l-3 -93l-232 5v-206z" />
<glyph unicode="&#x117;" horiz-adv-x="523" d="M346 672q0 -35 -24 -60.5t-59 -25.5q-32 0 -52.5 21t-20.5 51q0 34 26 59.5t61 25.5q31 0 50 -19.5t19 -51.5zM477 251l-15 -15h-281q7 -79 46.5 -117.5t103.5 -38.5q63 0 124 36l8 -83q-65 -43 -165 -43q-113 0 -180 66t-67 186q0 121 67 193.5t168 72.5q88 0 140 -56 t52 -146q0 -37 -1 -55zM280 433q-43 0 -70 -40.5t-30 -110.5l174 7q1 11 1 36q0 48 -19.5 78t-55.5 30z" />
<glyph unicode="&#x118;" horiz-adv-x="537" d="M504 0q-113 -59 -113 -123q0 -46 48 -46q25 0 55 13l19 -45q-53 -44 -117 -44q-48 0 -78 25.5t-30 68.5q0 42 34 81.5t96 69.5h-333v522q0 102 -9 166h407l14 -14l-3 -86l-281 7v-212l235 4l-3 -93l-232 5v-206l291 7v-100z" />
<glyph unicode="&#x119;" horiz-adv-x="525" d="M477 251l-15 -15h-281q7 -79 46.5 -117.5t103.5 -38.5q63 0 124 36l8 -83q-1 0 -3 -1q-133 -88 -133 -152q0 -45 48 -45q25 0 55 13l19 -45q-51 -44 -118 -44q-48 0 -77.5 25t-29.5 66q0 73 107 141q-5 0 -16 -0.5t-17 -0.5q-113 0 -180 66t-67 186q0 121 67 193.5 t168 72.5q88 0 140 -56t52 -146q0 -37 -1 -55zM280 433q-43 0 -70 -40.5t-30 -110.5l174 7q1 11 1 36q0 48 -19.5 78t-55.5 30z" />
<glyph unicode="&#x11a;" horiz-adv-x="537" d="M423 931l34 -29q-64 -57 -119 -120l-88 -8q-50 59 -123 128l34 29q55 -25 133 -74q79 50 129 74zM504 100v-100h-419v522q0 102 -9 166h407l14 -14l-3 -86l-281 7v-212l235 4l-3 -93l-232 5v-206z" />
<glyph unicode="&#x11b;" horiz-adv-x="523" d="M388 771l40 -29q-57 -73 -110 -160l-87 -8q-53 87 -114 168l39 29q47 -35 118 -106q69 71 114 106zM477 251l-15 -15h-281q7 -79 46.5 -117.5t103.5 -38.5q63 0 124 36l8 -83q-65 -43 -165 -43q-113 0 -180 66t-67 186q0 121 67 193.5t168 72.5q88 0 140 -56t52 -146 q0 -37 -1 -55zM280 433q-43 0 -70 -40.5t-30 -110.5l174 7q1 11 1 36q0 48 -19.5 78t-55.5 30z" />
<glyph unicode="&#x11c;" horiz-adv-x="642" d="M215 771l-33 30q58 50 118 119l88 8q59 -68 123 -127l-33 -30q-55 26 -134 74q-75 -48 -129 -74zM572 315l14 -14l-3 -267q-93 -44 -213 -44q-151 0 -235.5 90t-84.5 248q0 168 92.5 269t247.5 101q105 0 180 -39l-22 -111q-67 47 -152 47q-97 0 -155 -67t-58 -190 q0 -114 51.5 -181t149.5 -67q34 0 79 8v12q0 106 -12 195z" />
<glyph unicode="&#x11d;" horiz-adv-x="513" d="M134 563l-39 28q52 69 109 160l88 8q51 -86 114 -168l-40 -28q-47 34 -118 105q-72 -74 -114 -105zM105 63q0 53 53 89q-53 19 -84 61.5t-31 101.5q0 81 56 137t149 56q74 0 117 -33q17 28 49.5 43.5t67.5 15.5l15 -11l-3 -83h-102q51 -41 51 -119q0 -79 -55 -131.5 t-145 -52.5q-19 0 -35 3q-8 -16 -8 -30q0 -22 12 -31.5t39 -11.5l90 -6q70 -4 113 -37t43 -94q0 -81 -72 -134.5t-193 -53.5q-100 0 -160 36.5t-60 92.5q0 34 22 59t53 35l46 -20q-14 -18 -14 -37q0 -43 35 -73.5t94 -30.5q55 0 89.5 26t34.5 67q0 65 -88 75l-82 8 q-47 4 -72 26t-25 57zM323 322q0 121 -78 121q-82 0 -82 -121q0 -119 82 -119q78 0 78 119z" />
<glyph unicode="&#x11e;" horiz-adv-x="642" d="M438 916l51 4q-7 -64 -46 -102.5t-101 -38.5q-56 0 -94 35.5t-44 94.5l51 8q19 -54 93 -54q33 0 57.5 14.5t32.5 38.5zM572 315l14 -14l-3 -267q-93 -44 -213 -44q-151 0 -235.5 90t-84.5 248q0 168 92.5 269t247.5 101q105 0 180 -39l-22 -111q-67 47 -152 47 q-97 0 -155 -67t-58 -190q0 -114 51.5 -181t149.5 -67q34 0 79 8v12q0 106 -12 195z" />
<glyph unicode="&#x11f;" horiz-adv-x="513" d="M336 750l51 4q-7 -75 -46 -121t-101 -46q-56 0 -94 42.5t-43 113.5l51 8q8 -37 33 -58.5t59 -21.5q33 0 57.5 22t32.5 57zM105 63q0 53 53 89q-53 19 -84 61.5t-31 101.5q0 81 56 137t149 56q74 0 117 -33q17 28 49.5 43.5t67.5 15.5l15 -11l-3 -83h-102q51 -41 51 -119 q0 -79 -55 -131.5t-145 -52.5q-19 0 -35 3q-8 -16 -8 -30q0 -22 12 -31.5t39 -11.5l90 -6q70 -4 113 -37t43 -94q0 -81 -72 -134.5t-193 -53.5q-100 0 -160 36.5t-60 92.5q0 34 22 59t53 35l46 -20q-14 -18 -14 -37q0 -43 35 -73.5t94 -30.5q55 0 89.5 26t34.5 67 q0 65 -88 75l-82 8q-47 4 -72 26t-25 57zM323 322q0 121 -78 121q-82 0 -82 -121q0 -119 82 -119q78 0 78 119z" />
<glyph unicode="&#x120;" horiz-adv-x="642" d="M425 861q0 -34 -23.5 -57t-60.5 -23q-31 0 -51.5 18.5t-20.5 46.5q0 32 25.5 55t61.5 23q30 0 49.5 -17.5t19.5 -45.5zM572 315l14 -14l-3 -267q-93 -44 -213 -44q-151 0 -235.5 90t-84.5 248q0 168 92.5 269t247.5 101q105 0 180 -39l-22 -111q-67 47 -152 47 q-97 0 -155 -67t-58 -190q0 -114 51.5 -181t149.5 -67q34 0 79 8v12q0 106 -12 195z" />
<glyph unicode="&#x121;" horiz-adv-x="513" d="M324 672q0 -35 -24 -60.5t-59 -25.5q-32 0 -52 21t-20 51q0 35 25.5 60t60.5 25q31 0 50 -19.5t19 -51.5zM105 63q0 53 53 89q-53 19 -84 61.5t-31 101.5q0 81 56 137t149 56q74 0 117 -33q17 28 49.5 43.5t67.5 15.5l15 -11l-3 -83h-102q51 -41 51 -119 q0 -79 -55 -131.5t-145 -52.5q-19 0 -35 3q-8 -16 -8 -30q0 -22 12 -31.5t39 -11.5l90 -6q70 -4 113 -37t43 -94q0 -81 -72 -134.5t-193 -53.5q-100 0 -160 36.5t-60 92.5q0 34 22 59t53 35l46 -20q-14 -18 -14 -37q0 -43 35 -73.5t94 -30.5q55 0 89.5 26t34.5 67 q0 65 -88 75l-82 8q-47 4 -72 26t-25 57zM323 322q0 121 -78 121q-82 0 -82 -121q0 -119 82 -119q78 0 78 119z" />
<glyph unicode="&#x122;" horiz-adv-x="642" d="M572 315l14 -14l-3 -267q-93 -44 -213 -44q-151 0 -235.5 90t-84.5 248q0 168 92.5 269t247.5 101q105 0 180 -39l-22 -111q-67 47 -152 47q-97 0 -155 -67t-58 -190q0 -114 51.5 -181t149.5 -67q34 0 79 8v12q0 106 -12 195zM300 -318q37 50 51 95q-23 3 -38 20.5 t-15 42.5q0 29 20 50.5t51 21.5q29 0 48 -20t19 -57q0 -82 -97 -184z" />
<glyph unicode="&#x123;" horiz-adv-x="513" d="M309 802q-37 -50 -51 -95q23 -3 38 -20.5t15 -42.5q0 -29 -20 -50.5t-51 -21.5q-29 0 -48 20t-19 57q0 80 97 184zM105 63q0 53 53 89q-53 19 -84 61.5t-31 101.5q0 81 56 137t149 56q74 0 117 -33q17 28 49.5 43.5t67.5 15.5l15 -11l-3 -83h-102q51 -41 51 -119 q0 -79 -55 -131.5t-145 -52.5q-19 0 -35 3q-8 -16 -8 -30q0 -22 12 -31.5t39 -11.5l90 -6q70 -4 113 -37t43 -94q0 -81 -72 -134.5t-193 -53.5q-100 0 -160 36.5t-60 92.5q0 34 22 59t53 35l46 -20q-14 -18 -14 -37q0 -43 35 -73.5t94 -30.5q55 0 89.5 26t34.5 67 q0 65 -88 75l-82 8q-47 4 -72 26t-25 57zM323 322q0 121 -78 121q-82 0 -82 -121q0 -119 82 -119q78 0 78 119z" />
<glyph unicode="&#x124;" horiz-adv-x="710" d="M224 771l-34 30q58 50 118 119l88 8q60 -69 124 -127l-34 -30q-59 28 -133 74q-80 -50 -129 -74zM213 0h-128v517q0 95 -9 171l123 10l14 -14v-296h283v129q0 95 -9 171l124 10l14 -14v-684h-129v295h-283v-295z" />
<glyph unicode="&#x125;" horiz-adv-x="572" d="M1 810l-34 29q59 53 118 120l88 8q58 -68 124 -128l-34 -29q-48 22 -134 74q-81 -52 -128 -74zM199 0h-125v577q0 89 -12 166l122 15l15 -14v-303q75 67 157 67q64 0 100.5 -40t36.5 -113v-355h-126v331q0 90 -73 90q-48 0 -95 -37v-384z" />
<glyph unicode="&#x126;" horiz-adv-x="710" d="M213 0h-128v493h-70v67h69q-2 77 -8 128l123 10l14 -14v-124h283q-1 68 -9 128l124 10l14 -14v-124h71v-67h-71v-493h-129v295h-283v-295zM213 388h283v105h-283v-105z" />
<glyph unicode="&#x127;" horiz-adv-x="572" d="M199 0h-125v573h-88v67h86q-1 37 -10 103l122 15l15 -14v-104h163v-67h-163v-132q75 67 157 67q64 0 100.5 -40t36.5 -113v-355h-126v331q0 90 -73 90q-48 0 -95 -37v-384z" />
<glyph unicode="&#x128;" horiz-adv-x="298" d="M72 922q32 0 79 -28t71 -28q35 0 62 48l33 -5q-2 -52 -28 -90t-72 -38q-31 0 -82 28t-72 28q-35 0 -61 -48l-33 5q3 52 28 90t75 38zM213 0h-128v517q0 95 -9 171l123 10l14 -14v-684z" />
<glyph unicode="&#x129;" horiz-adv-x="281" d="M83 744q25 0 63 -28.5t53 -28.5q27 0 44 49l33 -6q-1 -56 -21.5 -98t-60.5 -42q-24 0 -64.5 28.5t-50.5 28.5q-28 0 -45 -49l-33 6q2 56 22.5 98t59.5 42zM77 0v327q0 89 -12 166l123 15l14 -14v-494h-125z" />
<glyph unicode="&#x12a;" horiz-adv-x="298" d="M3 812v74h281v-74h-281zM213 0h-128v517q0 95 -9 171l123 10l14 -14v-684z" />
<glyph unicode="&#x12b;" horiz-adv-x="281" d="M18 629v72h241v-72h-241zM77 0v327q0 89 -12 166l123 15l14 -14v-494h-125z" />
<glyph unicode="&#x12c;" horiz-adv-x="298" d="M234 916l51 4q-7 -63 -46 -102t-100 -39q-57 0 -95 35.5t-43 94.5l51 8q8 -25 33 -39.5t59 -14.5q33 0 57.5 14.5t32.5 38.5zM213 0h-128v517q0 95 -9 171l123 10l14 -14v-684z" />
<glyph unicode="&#x12d;" horiz-adv-x="281" d="M213 744l51 4q-5 -75 -40 -121t-90 -46q-49 0 -83 42.5t-38 113.5l51 8q5 -37 26 -59t50 -22t48.5 22.5t24.5 57.5zM77 0v327q0 89 -12 166l123 15l14 -14v-494h-125z" />
<glyph unicode="&#x12e;" horiz-adv-x="286" d="M208 0q-69 -61 -69 -122q0 -47 48 -47q25 0 55 13l19 -45q-55 -44 -118 -44q-48 0 -77.5 26t-29.5 72q0 39 25.5 78t68.5 69h-45v517q0 95 -9 171l123 10l14 -14v-684h-5z" />
<glyph unicode="&#x12f;" horiz-adv-x="281" d="M217 672q0 -35 -24 -60.5t-60 -25.5q-32 0 -52 21t-20 51q0 35 25.5 60t61.5 25q30 0 49.5 -19.5t19.5 -51.5zM77 0v327q0 89 -12 166l123 15l14 -14v-494q-73 -54 -73 -114q0 -23 13.5 -37t39.5 -14q24 0 50 13l19 -45q-52 -44 -117 -44q-49 0 -78.5 26t-29.5 71 q0 79 97 144h-46z" />
<glyph unicode="&#x130;" horiz-adv-x="298" d="M222 861q0 -34 -24 -57t-61 -23q-31 0 -51.5 18.5t-20.5 46.5q0 32 26 55t62 23q30 0 49.5 -17.5t19.5 -45.5zM213 0h-128v517q0 95 -9 171l123 10l14 -14v-684z" />
<glyph unicode="&#x131;" horiz-adv-x="281" d="M77 0v327q0 89 -12 166l123 15l14 -14v-494h-125z" />
<glyph unicode="&#x132;" horiz-adv-x="591" d="M213 0h-128v517q0 95 -9 171l123 10l14 -14v-684zM338 -208l-40 56q80 89 80 254v415q0 79 -12 166l127 15l13 -13v-583q0 -120 -36.5 -188.5t-131.5 -121.5z" />
<glyph unicode="&#x133;" horiz-adv-x="564" d="M217 672q0 -35 -24 -60.5t-60 -25.5q-32 0 -52 21t-20 51q0 35 25.5 60t61.5 25q30 0 49.5 -19.5t19.5 -51.5zM498 672q0 -35 -24.5 -60.5t-59.5 -25.5q-32 0 -52 21t-20 51q0 35 25.5 60t60.5 25q31 0 50.5 -19.5t19.5 -51.5zM77 0v327q0 89 -12 166l123 15l14 -14v-494 h-125zM337 -258l-47 46q70 83 70 216v323q0 79 -12 166l123 15l14 -14v-484q0 -101 -33.5 -162t-114.5 -106z" />
<glyph unicode="&#x134;" horiz-adv-x="293" d="M12 771l-33 30q58 50 118 119l88 8q52 -62 123 -127l-33 -30q-55 26 -134 74q-75 -48 -129 -74zM40 -208l-40 56q80 89 80 254v415q0 79 -12 166l127 15l13 -13v-583q0 -120 -36.5 -188.5t-131.5 -121.5z" />
<glyph unicode="&#x135;" horiz-adv-x="283" d="M57 571l-43 18q34 79 62 168l119 8q27 -86 66 -176l-42 -18q-41 42 -83 108q-43 -69 -79 -108zM55 -258l-47 46q70 81 70 216v323q0 86 -11 166l122 15l14 -14v-484q0 -101 -33.5 -162t-114.5 -106z" />
<glyph unicode="&#x136;" horiz-adv-x="625" d="M85 517q0 95 -9 171l123 10l14 -14v-310h79q46 83 176 324l117 -11l8 -14l-196 -317l219 -356l-146 -7q-74 113 -177 287h-80v-280h-128v517zM251 -318q37 50 51 95q-23 3 -38 20.5t-15 42.5q0 29 20 50.5t51 21.5q29 0 48 -20t19 -57q0 -82 -97 -184z" />
<glyph unicode="&#x137;" horiz-adv-x="533" d="M74 577q0 79 -12 166l122 15l15 -14v-463h55q61 100 129 227l102 -11l8 -14l-135 -196q53 -97 165 -287l-141 -10q-62 104 -124 224h-59v-214h-125v577zM206 -318q38 50 50 95q-22 3 -37 21t-15 42q0 29 20 50.5t51 21.5q28 0 47 -20t19 -57q0 -81 -96 -184z" />
<glyph unicode="&#x138;" horiz-adv-x="533" d="M74 327q0 79 -12 166l122 15l15 -14v-213h55q61 100 129 227l102 -11l8 -14l-135 -196q53 -97 165 -287l-141 -10q-62 104 -124 224h-59v-214h-125v327z" />
<glyph unicode="&#x139;" horiz-adv-x="505" d="M378 864l-7 -21q-115 -59 -267 -69l-10 32q123 61 207 125zM489 100v-100h-404v517q0 95 -9 171l123 10l14 -14v-591z" />
<glyph unicode="&#x13a;" horiz-adv-x="281" d="M285 919l-6 -21q-114 -59 -268 -69l-10 32q123 61 207 125zM202 0h-125v577q0 79 -12 166l123 15l14 -14v-744z" />
<glyph unicode="&#x13b;" horiz-adv-x="505" d="M489 100v-100h-404v517q0 95 -9 171l123 10l14 -14v-591zM225 -318q37 50 51 95q-23 3 -38 20.5t-15 42.5q0 29 20 50.5t51 21.5q29 0 48 -20t19 -57q0 -82 -97 -184z" />
<glyph unicode="&#x13c;" horiz-adv-x="281" d="M202 0h-125v577q0 79 -12 166l123 15l14 -14v-744zM74 -318q38 50 50 95q-22 3 -37 21t-15 42q0 29 20 50.5t51 21.5q28 0 47 -20t19 -57q0 -81 -96 -184z" />
<glyph unicode="&#x13d;" horiz-adv-x="505" d="M435 763l9 -21q-27 -101 -92 -211l-42 3q21 129 26 226zM489 100v-100h-404v517q0 95 -9 171l123 10l14 -14v-591z" />
<glyph unicode="&#x13e;" horiz-adv-x="281" d="M391 774l8 -21q-24 -95 -91 -211l-43 3q22 126 26 226zM202 0h-125v577q0 79 -12 166l123 15l14 -14v-744z" />
<glyph unicode="&#x13f;" horiz-adv-x="505" d="M461 367q0 -34 -23.5 -57.5t-57.5 -23.5t-56 22t-22 55q0 34 24.5 58t59.5 24q32 0 53.5 -22t21.5 -56zM489 100v-100h-404v517q0 95 -9 171l123 10l14 -14v-591z" />
<glyph unicode="&#x140;" horiz-adv-x="539" d="M202 0h-125v577q0 79 -12 166l123 15l14 -14v-744zM488 321q0 -34 -23.5 -57.5t-57.5 -23.5q-33 0 -55.5 22t-22.5 55q0 34 24.5 58t59.5 24q33 0 54 -21.5t21 -56.5z" />
<glyph unicode="&#x141;" horiz-adv-x="505" d="M489 100v-100h-404v268l-85 -47l-31 56l116 64v176q0 95 -9 171l123 10l14 -14v-272l117 65l31 -57l-148 -81v-246z" />
<glyph unicode="&#x142;" horiz-adv-x="281" d="M202 0h-125v349l-101 -56l-31 57l132 73v154q0 79 -12 166l123 15l14 -14v-252l104 57l31 -56l-135 -75v-418z" />
<glyph unicode="&#x143;" horiz-adv-x="706" d="M485 864l-7 -21q-113 -59 -267 -69l-10 32q123 61 207 125zM370 419q93 -153 136 -250h3q-10 101 -10 313q0 112 -9 206l118 9l14 -14v-683h-124q-33 54 -87 145.5t-78 130.5q-92 150 -133 237h-2q9 -81 9 -215v-298h-122v522q0 90 -9 166l130 8q142 -240 164 -277z" />
<glyph unicode="&#x144;" horiz-adv-x="577" d="M377 754l7 -21q-60 -92 -158 -163l-47 11q59 103 85 184zM204 0h-125v328q0 74 -20 157l117 23q15 -39 22 -73q76 73 163 73q64 0 100.5 -40t36.5 -113v-355h-126v331q0 90 -73 90q-46 0 -95 -37v-384z" />
<glyph unicode="&#x145;" horiz-adv-x="706" d="M370 419q93 -153 136 -250h3q-10 101 -10 313q0 112 -9 206l118 9l14 -14v-683h-124q-33 54 -87 145.5t-78 130.5q-92 150 -133 237h-2q9 -81 9 -215v-298h-122v522q0 90 -9 166l130 8q142 -240 164 -277zM293 -318q37 50 51 95q-23 3 -38 20.5t-15 42.5q0 29 20 50.5 t51 21.5q29 0 48 -20t19 -57q0 -80 -97 -184z" />
<glyph unicode="&#x146;" horiz-adv-x="577" d="M204 0h-125v328q0 74 -20 157l117 23q15 -39 22 -73q76 73 163 73q64 0 100.5 -40t36.5 -113v-355h-126v331q0 90 -73 90q-46 0 -95 -37v-384zM219 -318q37 50 51 95q-23 3 -38 20.5t-15 42.5q0 29 20 50.5t51 21.5q29 0 48 -20t19 -57q0 -80 -97 -184z" />
<glyph unicode="&#x147;" horiz-adv-x="706" d="M473 931l34 -29q-59 -53 -118 -120l-88 -8q-58 68 -124 128l34 29q52 -23 133 -74q87 54 129 74zM370 419q93 -153 136 -250h3q-10 101 -10 313q0 112 -9 206l118 9l14 -14v-683h-124q-33 54 -87 145.5t-78 130.5q-92 150 -133 237h-2q9 -81 9 -215v-298h-122v522 q0 90 -9 166l130 8q142 -240 164 -277z" />
<glyph unicode="&#x148;" horiz-adv-x="577" d="M401 771l40 -29q-60 -77 -109 -160l-88 -8q-53 87 -114 168l40 29q42 -32 118 -106q64 68 113 106zM204 0h-125v328q0 74 -20 157l117 23q15 -39 22 -73q76 73 163 73q64 0 100.5 -40t36.5 -113v-355h-126v331q0 90 -73 90q-46 0 -95 -37v-384z" />
<glyph unicode="&#x149;" horiz-adv-x="726" d="M41 451q56 82 71 150q-26 4 -43.5 24.5t-17.5 48.5q0 34 24.5 59.5t58.5 25.5q33 0 54.5 -22.5t21.5 -64.5q0 -61 -41 -132t-90 -122zM353 0h-125v328q0 74 -20 157l117 23q15 -39 22 -73q76 73 163 73q64 0 100.5 -40t36.5 -113v-355h-125v331q0 90 -74 90 q-44 0 -95 -37v-384z" />
<glyph unicode="&#x14a;" horiz-adv-x="706" d="M450 -194l-37 48q71 69 79 156q-23 38 -77.5 130t-81.5 136q-92 150 -133 237h-2q9 -81 9 -215v-298h-122v522q0 90 -9 166l130 8q142 -240 164 -277q93 -153 136 -250h3q-10 101 -10 313q0 112 -9 206l118 9l14 -14v-581q0 -117 -37.5 -183t-134.5 -113z" />
<glyph unicode="&#x14b;" horiz-adv-x="577" d="M204 0h-125v328q0 74 -20 157l117 23q15 -39 22 -73q76 73 163 73q64 0 100.5 -40t36.5 -113v-319q0 -95 -27.5 -154t-96.5 -114l-50 45q48 98 48 223v295q0 90 -73 90q-46 0 -95 -37v-384z" />
<glyph unicode="&#x14c;" horiz-adv-x="707" d="M217 806v74h281v-74h-281zM657 346q0 -168 -88 -262t-223 -94q-132 0 -214 91.5t-82 251.5q0 165 88 265t224 100q134 0 214.5 -95.5t80.5 -256.5zM183 345q0 -115 44.5 -186.5t126.5 -71.5q83 0 126.5 68.5t43.5 187.5q0 117 -41.5 187.5t-124.5 70.5q-82 0 -128.5 -69 t-46.5 -187z" />
<glyph unicode="&#x14d;" horiz-adv-x="563" d="M139 629v72h285v-72h-285zM513 252q0 -125 -68.5 -193.5t-169.5 -68.5q-99 0 -161.5 67t-62.5 185q0 124 67.5 195t169.5 71q101 0 163 -69.5t62 -186.5zM180 252q0 -187 102 -187q49 0 75 47.5t26 132.5q0 188 -101 188q-49 0 -75.5 -46t-26.5 -135z" />
<glyph unicode="&#x14e;" horiz-adv-x="707" d="M449 910l51 4q-7 -63 -46.5 -102t-100.5 -39q-57 0 -95 35.5t-43 94.5l51 8q19 -54 92 -54q33 0 57.5 14.5t33.5 38.5zM657 346q0 -168 -88 -262t-223 -94q-132 0 -214 91.5t-82 251.5q0 165 88 265t224 100q134 0 214.5 -95.5t80.5 -256.5zM183 345q0 -115 44.5 -186.5 t126.5 -71.5q83 0 126.5 68.5t43.5 187.5q0 117 -41.5 187.5t-124.5 70.5q-82 0 -128.5 -69t-46.5 -187z" />
<glyph unicode="&#x14f;" horiz-adv-x="563" d="M372 750l51 4q-7 -75 -46.5 -121t-100.5 -46q-57 0 -95 42.5t-43 113.5l51 8q8 -37 33 -58.5t59 -21.5q33 0 57.5 22t33.5 57zM513 252q0 -125 -68.5 -193.5t-169.5 -68.5q-99 0 -161.5 67t-62.5 185q0 124 67.5 195t169.5 71q101 0 163 -69.5t62 -186.5zM180 252 q0 -187 102 -187q49 0 75 47.5t26 132.5q0 188 -101 188q-49 0 -75.5 -46t-26.5 -135z" />
<glyph unicode="&#x150;" horiz-adv-x="707" d="M358 860l-6 -21q-88 -61 -214 -71l-10 32q104 63 168 125zM587 860l-7 -21q-88 -61 -213 -71l-10 32q104 63 168 125zM657 346q0 -168 -88 -262t-223 -94q-132 0 -214 91.5t-82 251.5q0 165 88 265t224 100q134 0 214.5 -95.5t80.5 -256.5zM183 345q0 -115 44.5 -186.5 t126.5 -71.5q83 0 126.5 68.5t43.5 187.5q0 117 -41.5 187.5t-124.5 70.5q-82 0 -128.5 -69t-46.5 -187z" />
<glyph unicode="&#x151;" horiz-adv-x="563" d="M284 757l7 -22q-50 -89 -136 -164l-47 12q58 99 85 184zM446 757l7 -22q-51 -90 -137 -164l-46 12q58 99 85 184zM513 252q0 -125 -68.5 -193.5t-169.5 -68.5q-99 0 -161.5 67t-62.5 185q0 124 67.5 195t169.5 71q101 0 163 -69.5t62 -186.5zM180 252q0 -187 102 -187 q49 0 75 47.5t26 132.5q0 188 -101 188q-49 0 -75.5 -46t-26.5 -135z" />
<glyph unicode="&#x152;" horiz-adv-x="953" d="M920 100v-100h-492q-37 -10 -82 -10q-132 0 -214 91.5t-82 251.5q0 165 88 265t224 100q43 0 79 -10h458l14 -14l-3 -86l-327 6q64 -82 73 -211l208 4l-3 -93l-206 5q-10 -124 -77 -205zM183 345q0 -115 44.5 -186.5t126.5 -71.5q83 0 126.5 68.5t43.5 187.5 q0 117 -41.5 187.5t-124.5 70.5q-82 0 -128.5 -69t-46.5 -187z" />
<glyph unicode="&#x153;" horiz-adv-x="855" d="M810 251l-15 -15h-281q7 -79 46 -117.5t103 -38.5t125 36l7 -83q-25 -17 -69 -30t-92 -13q-121 0 -188 85q-66 -85 -175 -85q-95 0 -157.5 67.5t-62.5 184.5q0 123 67.5 194.5t165.5 71.5q107 0 169 -86q67 86 170 86q84 0 136 -56.5t52 -145.5q0 -37 -1 -55zM180 252 q0 -187 102 -187q50 0 75.5 47.5t25.5 133.5q0 187 -101 187q-49 0 -75.5 -46t-26.5 -135zM613 433q-43 0 -70.5 -40.5t-29.5 -110.5l174 7q1 11 1 34q0 50 -19.5 80t-55.5 30z" />
<glyph unicode="&#x154;" horiz-adv-x="606" d="M450 858l-7 -21q-113 -59 -267 -69l-10 32q128 63 207 125zM213 0h-128v522q0 102 -9 166h210q127 0 197.5 -57.5t70.5 -157.5q0 -70 -34 -117.5t-91 -71.5l158 -284l-146 -7q-62 119 -124 258h-104v-251zM277 595h-64v-255h63q145 0 145 126q0 129 -144 129z" />
<glyph unicode="&#x155;" horiz-adv-x="399" d="M304 754l7 -21q-60 -92 -158 -163l-47 11q59 103 85 184zM204 0h-125v328q0 74 -20 157l117 23q21 -53 27 -104q61 104 133 104q32 0 49 -14l-13 -118q-27 8 -56 8q-63 0 -112 -40v-344z" />
<glyph unicode="&#x156;" horiz-adv-x="606" d="M213 0h-128v522q0 102 -9 166h210q127 0 197.5 -57.5t70.5 -157.5q0 -70 -34 -117.5t-91 -71.5l158 -284l-146 -7q-62 119 -124 258h-104v-251zM277 595h-64v-255h63q145 0 145 126q0 129 -144 129zM243 -318q39 55 50 95q-22 3 -37 21t-15 42q0 29 20 50.5t50 21.5 q29 0 48 -20t19 -57q0 -81 -96 -184z" />
<glyph unicode="&#x157;" horiz-adv-x="399" d="M204 0h-125v328q0 74 -20 157l117 23q21 -53 27 -104q61 104 133 104q32 0 49 -14l-13 -118q-27 8 -56 8q-63 0 -112 -40v-344zM74 -318q39 55 50 95q-22 3 -37 21t-15 42q0 29 20 50.5t50 21.5q29 0 48 -20t19 -57q0 -81 -96 -184z" />
<glyph unicode="&#x158;" horiz-adv-x="606" d="M438 925l34 -30q-58 -50 -118 -119l-88 -8q-59 68 -123 127l33 30q55 -26 134 -74q75 48 128 74zM213 0h-128v522q0 102 -9 166h210q127 0 197.5 -57.5t70.5 -157.5q0 -70 -34 -117.5t-91 -71.5l158 -284l-146 -7q-62 119 -124 258h-104v-251zM277 595h-64v-255h63 q145 0 145 126q0 129 -144 129z" />
<glyph unicode="&#x159;" horiz-adv-x="399" d="M328 771l40 -29q-65 -85 -109 -160l-88 -8q-58 95 -114 168l40 29q50 -38 118 -106q72 74 113 106zM204 0h-125v328q0 74 -20 157l117 23q21 -53 27 -104q61 104 133 104q32 0 49 -14l-13 -118q-27 8 -56 8q-63 0 -112 -40v-344z" />
<glyph unicode="&#x15a;" horiz-adv-x="531" d="M419 858l-7 -21q-113 -59 -267 -69l-10 32q128 63 207 125zM481 183q0 -91 -67 -142t-177 -51q-119 0 -187 37l9 109q36 -22 88 -34t92 -12q53 0 81.5 22.5t28.5 61.5q0 11 -2.5 21t-5.5 17.5t-10.5 16.5t-12 14.5t-16 14t-16.5 12t-20 11.5t-20 11t-22.5 11.5 t-21.5 10.5q-34 17 -55.5 31.5t-45.5 37t-36 52.5t-12 68q0 91 69 143t181 52q93 0 160 -28l-16 -111q-68 39 -146 39q-56 0 -86 -22.5t-30 -62.5q0 -14 3.5 -26.5t14 -24.5t17 -19t25 -18.5t26 -15.5t31.5 -16l30 -15q32 -17 54.5 -31.5t46 -38t36 -55t12.5 -70.5z" />
<glyph unicode="&#x15b;" horiz-adv-x="445" d="M317 754l8 -21q-59 -91 -159 -163l-46 11q59 103 85 184zM389 480l-9 -96q-74 40 -135 40q-36 0 -57.5 -15t-21.5 -40q0 -24 24.5 -43t59.5 -33.5t70.5 -32.5t60 -49.5t24.5 -74.5q0 -67 -54.5 -106.5t-145.5 -39.5q-98 0 -164 36l9 95q80 -47 158 -47q36 0 56 15t20 38 q0 24 -24.5 43t-59.5 33.5t-70 32t-59.5 49t-24.5 74.5q0 67 55 108t145 41q74 0 143 -28z" />
<glyph unicode="&#x15c;" horiz-adv-x="531" d="M145 765l-34 30q58 50 119 119l88 8q52 -62 123 -127l-34 -30q-54 26 -133 74q-75 -48 -129 -74zM481 183q0 -91 -67 -142t-177 -51q-119 0 -187 37l9 109q36 -22 88 -34t92 -12q53 0 81.5 22.5t28.5 61.5q0 11 -2.5 21t-5.5 17.5t-10.5 16.5t-12 14.5t-16 14t-16.5 12 t-20 11.5t-20 11t-22.5 11.5t-21.5 10.5q-34 17 -55.5 31.5t-45.5 37t-36 52.5t-12 68q0 91 69 143t181 52q93 0 160 -28l-16 -111q-68 39 -146 39q-56 0 -86 -22.5t-30 -62.5q0 -14 3.5 -26.5t14 -24.5t17 -19t25 -18.5t26 -15.5t31.5 -16l30 -15q32 -17 54.5 -31.5t46 -38 t36 -55t12.5 -70.5z" />
<glyph unicode="&#x15d;" horiz-adv-x="445" d="M110 563l-39 28q52 69 109 160l88 8q51 -86 114 -168l-40 -28q-47 34 -118 105q-72 -74 -114 -105zM389 480l-9 -96q-74 40 -135 40q-36 0 -57.5 -15t-21.5 -40q0 -24 24.5 -43t59.5 -33.5t70.5 -32.5t60 -49.5t24.5 -74.5q0 -67 -54.5 -106.5t-145.5 -39.5 q-98 0 -164 36l9 95q80 -47 158 -47q36 0 56 15t20 38q0 24 -24.5 43t-59.5 33.5t-70 32t-59.5 49t-24.5 74.5q0 67 55 108t145 41q74 0 143 -28z" />
<glyph unicode="&#x15e;" horiz-adv-x="531" d="M390 -140q0 -52 -56 -77t-135 -28l1 45q98 11 98 56q0 35 -70 37l-14 23l22 74q-118 0 -186 37l9 109q36 -22 88 -34t92 -12q53 0 81.5 22.5t28.5 61.5q0 11 -2.5 21t-5.5 17.5t-10.5 16.5t-12 14.5t-16 14t-16.5 12t-20 11.5t-20 11t-22.5 11.5t-21.5 10.5 q-34 17 -55.5 31.5t-45.5 37t-36 52.5t-12 68q0 91 69 143t181 52q93 0 160 -28l-16 -111q-68 39 -146 39q-56 0 -86 -22.5t-30 -62.5q0 -14 3.5 -26.5t14 -24.5t17 -19t25 -18.5t26 -15.5t31.5 -16l30 -15q32 -17 54.5 -31.5t46 -38t36 -55t12.5 -70.5q0 -76 -47 -124 t-128 -63l-18 -54q102 -14 102 -82z" />
<glyph unicode="&#x15f;" horiz-adv-x="445" d="M343 -140q0 -52 -56 -77t-135 -28l1 45q98 11 98 56q0 35 -70 37l-15 23l23 74q-92 5 -148 36l9 95q80 -47 158 -47q36 0 56 15t20 38q0 24 -24.5 43t-59.5 33.5t-70 32t-59.5 49t-24.5 74.5q0 67 55 108t145 41q74 0 143 -28l-9 -96q-74 40 -135 40q-36 0 -57.5 -15 t-21.5 -40q0 -24 24.5 -43t59.5 -33.5t70.5 -32.5t60 -49.5t24.5 -74.5q0 -56 -39.5 -93.5t-107.5 -48.5l-17 -52q102 -14 102 -82z" />
<glyph unicode="&#x160;" horiz-adv-x="531" d="M407 925l34 -30q-58 -50 -118 -119l-88 -8q-60 69 -124 127l34 30q55 -26 134 -74q75 48 128 74zM481 183q0 -91 -67 -142t-177 -51q-119 0 -187 37l9 109q36 -22 88 -34t92 -12q53 0 81.5 22.5t28.5 61.5q0 11 -2.5 21t-5.5 17.5t-10.5 16.5t-12 14.5t-16 14t-16.5 12 t-20 11.5t-20 11t-22.5 11.5t-21.5 10.5q-34 17 -55.5 31.5t-45.5 37t-36 52.5t-12 68q0 91 69 143t181 52q93 0 160 -28l-16 -111q-68 39 -146 39q-56 0 -86 -22.5t-30 -62.5q0 -14 3.5 -26.5t14 -24.5t17 -19t25 -18.5t26 -15.5t31.5 -16l30 -15q32 -17 54.5 -31.5t46 -38 t36 -55t12.5 -70.5z" />
<glyph unicode="&#x161;" horiz-adv-x="445" d="M342 771l40 -29q-57 -73 -110 -160l-88 -8q-49 83 -113 168l39 29q47 -35 118 -106q69 71 114 106zM389 480l-9 -96q-74 40 -135 40q-36 0 -57.5 -15t-21.5 -40q0 -24 24.5 -43t59.5 -33.5t70.5 -32.5t60 -49.5t24.5 -74.5q0 -67 -54.5 -106.5t-145.5 -39.5 q-98 0 -164 36l9 95q80 -47 158 -47q36 0 56 15t20 38q0 24 -24.5 43t-59.5 33.5t-70 32t-59.5 49t-24.5 74.5q0 67 55 108t145 41q74 0 143 -28z" />
<glyph unicode="&#x162;" horiz-adv-x="560" d="M345 0h-35l-19 -58q102 -14 102 -82q0 -52 -56 -77t-134 -28v45q99 11 99 56q0 35 -71 37l-14 23l25 84h-26v592q-66 -1 -200 -7l7 103h514l7 -103q-135 6 -199 7v-592z" />
<glyph unicode="&#x163;" horiz-adv-x="388" d="M328 -140q0 -52 -56 -77t-135 -28l1 45q98 11 98 56q0 35 -71 37l-14 23l26 84q-91 34 -91 171v264l-70 1v47l73 15l31 124l78 6l15 -15l-2 -115h136l9 -14l-5 -54l-140 3v-258q0 -95 69 -95q39 0 79 24l9 -78q-55 -36 -127 -36l-16 -48q103 -14 103 -82z" />
<glyph unicode="&#x164;" horiz-adv-x="560" d="M411 925l34 -30q-62 -54 -119 -119l-88 -8q-52 62 -123 127l34 30q59 -28 133 -74q72 46 129 74zM345 0h-129v592q-66 -1 -200 -7l7 103h514l7 -103q-135 6 -199 7v-592z" />
<glyph unicode="&#x165;" horiz-adv-x="388" d="M391 774l9 -20q-27 -104 -92 -211l-42 2q21 132 26 227zM351 430l-140 3v-258q0 -95 69 -95q39 0 79 24l9 -78q-55 -36 -128 -36q-75 0 -114.5 45.5t-39.5 135.5v264l-70 1v47l73 15l31 124l78 6l15 -15l-2 -115h136l9 -14z" />
<glyph unicode="&#x166;" horiz-adv-x="560" d="M345 0h-129v311h-123v66h123v215q-66 -1 -200 -7l7 103h514l7 -103q-135 6 -199 7v-215h123v-66h-123v-311z" />
<glyph unicode="&#x167;" horiz-adv-x="388" d="M352 266h-141v-91q0 -95 69 -95q39 0 79 24l9 -78q-55 -36 -128 -36q-75 0 -114.5 45.5t-39.5 135.5v95h-67v66h67v103l-70 1v47l73 15l31 124l78 6l15 -15l-2 -115h136l9 -14l-5 -54l-140 3v-101h141v-66z" />
<glyph unicode="&#x168;" horiz-adv-x="666" d="M261 916q33 0 80 -28t70 -28q34 0 63 48l33 -5q-3 -53 -28.5 -90.5t-72.5 -37.5q-30 0 -81 28t-72 28q-34 0 -61 -48l-33 5q2 51 27 89.5t75 38.5zM73 518q0 87 -10 171l126 9l13 -13v-444q0 -73 36.5 -112.5t98.5 -39.5q61 0 97 39.5t36 112.5v301q0 80 -10 147l133 8 v-465q0 -116 -75 -179t-189 -63q-113 0 -184.5 63t-71.5 179v286z" />
<glyph unicode="&#x169;" horiz-adv-x="569" d="M213 742q32 0 79.5 -28.5t68.5 -28.5q19 0 31 12t25 36l36 -5q-3 -56 -27.5 -98t-69.5 -42q-30 0 -81 28.5t-70 28.5q-31 0 -55 -49l-36 6q4 57 28 98.5t71 41.5zM77 326q0 78 -11 166l122 16l14 -14v-326q0 -83 70 -83q45 0 91 35v378l125 10v-372q0 -72 17 -135 l-104 -11q-14 29 -26 74h-4q-71 -74 -158 -74q-63 0 -99.5 37.5t-36.5 101.5v197z" />
<glyph unicode="&#x16a;" horiz-adv-x="666" d="M193 806v74h280v-74h-280zM73 518q0 87 -10 171l126 9l13 -13v-444q0 -73 36.5 -112.5t98.5 -39.5q61 0 97 39.5t36 112.5v301q0 80 -10 147l133 8v-465q0 -116 -75 -179t-189 -63q-113 0 -184.5 63t-71.5 179v286z" />
<glyph unicode="&#x16b;" horiz-adv-x="569" d="M143 629v72h285v-72h-285zM77 326q0 78 -11 166l122 16l14 -14v-326q0 -83 70 -83q45 0 91 35v378l125 10v-372q0 -72 17 -135l-104 -11q-14 29 -26 74h-4q-71 -74 -158 -74q-63 0 -99.5 37.5t-36.5 101.5v197z" />
<glyph unicode="&#x16c;" horiz-adv-x="666" d="M424 910l51 4q-7 -64 -46 -102.5t-101 -38.5q-56 0 -94 35.5t-44 94.5l51 8q19 -54 93 -54q33 0 57.5 14.5t32.5 38.5zM73 518q0 87 -10 171l126 9l13 -13v-444q0 -73 36.5 -112.5t98.5 -39.5q61 0 97 39.5t36 112.5v301q0 80 -10 147l133 8v-465q0 -116 -75 -179 t-189 -63q-113 0 -184.5 63t-71.5 179v286z" />
<glyph unicode="&#x16d;" horiz-adv-x="569" d="M375 750l51 4q-7 -75 -46 -121t-101 -46q-56 0 -94 42.5t-44 113.5l52 8q8 -37 33 -58.5t59 -21.5q33 0 57.5 22t32.5 57zM77 326q0 78 -11 166l122 16l14 -14v-326q0 -83 70 -83q45 0 91 35v378l125 10v-372q0 -72 17 -135l-104 -11q-14 29 -26 74h-4q-71 -74 -158 -74 q-63 0 -99.5 37.5t-36.5 101.5v197z" />
<glyph unicode="&#x16e;" horiz-adv-x="666" d="M451 865q0 -43 -33.5 -74t-81.5 -31q-43 0 -72 25.5t-29 62.5q0 43 35.5 74.5t83.5 31.5q42 0 69.5 -25t27.5 -64zM292 853q0 -21 13.5 -35t34.5 -14q22 0 38.5 16.5t16.5 39.5q0 22 -12.5 35.5t-33.5 13.5q-24 0 -40.5 -16.5t-16.5 -39.5zM73 518q0 87 -10 171l126 9 l13 -13v-444q0 -73 36.5 -112.5t98.5 -39.5q61 0 97 39.5t36 112.5v301q0 80 -10 147l133 8v-465q0 -116 -75 -179t-189 -63q-113 0 -184.5 63t-71.5 179v286z" />
<glyph unicode="&#x16f;" horiz-adv-x="569" d="M403 675q0 -43 -33.5 -74t-81.5 -31q-43 0 -71.5 25.5t-28.5 62.5q0 43 35 74.5t83 31.5q43 0 70 -25t27 -64zM244 663q0 -21 13.5 -35t35.5 -14t38 16.5t16 39.5t-12 36t-33 13q-24 0 -41 -16.5t-17 -39.5zM77 326q0 78 -11 166l122 16l14 -14v-326q0 -83 70 -83 q45 0 91 35v378l125 10v-372q0 -72 17 -135l-104 -11q-14 29 -26 74h-4q-71 -74 -158 -74q-63 0 -99.5 37.5t-36.5 101.5v197z" />
<glyph unicode="&#x170;" horiz-adv-x="666" d="M333 860l-6 -21q-88 -61 -214 -71l-10 32q103 62 169 125zM562 860l-7 -21q-87 -61 -213 -71l-10 32q101 60 168 125zM73 518q0 87 -10 171l126 9l13 -13v-444q0 -73 36.5 -112.5t98.5 -39.5q61 0 97 39.5t36 112.5v301q0 80 -10 147l133 8v-465q0 -116 -75 -179 t-189 -63q-113 0 -184.5 63t-71.5 179v286z" />
<glyph unicode="&#x171;" horiz-adv-x="569" d="M287 757l8 -22q-54 -93 -137 -164l-46 12q58 99 85 184zM449 757l8 -22q-54 -93 -137 -164l-46 12q58 99 85 184zM77 326q0 78 -11 166l122 16l14 -14v-326q0 -83 70 -83q45 0 91 35v378l125 10v-372q0 -72 17 -135l-104 -11q-14 29 -26 74h-4q-71 -74 -158 -74 q-63 0 -99.5 37.5t-36.5 101.5v197z" />
<glyph unicode="&#x172;" horiz-adv-x="666" d="M482 27q-109 -72 -109 -146q0 -50 47 -50q26 0 56 13l19 -45q-55 -44 -117 -44q-49 0 -78.5 26t-29.5 70q0 74 87 140q-9 -1 -28 -1q-113 0 -184.5 63t-71.5 179v286q0 87 -10 171l126 9l13 -13v-444q0 -73 36.5 -112.5t98.5 -39.5q61 0 97 39.5t36 112.5v301 q0 80 -10 147l133 8v-465q0 -140 -111 -205z" />
<glyph unicode="&#x173;" horiz-adv-x="569" d="M77 326q0 78 -11 166l122 16l14 -14v-326q0 -83 70 -83q45 0 91 35v378l125 10v-372q0 -72 17 -135h-5l2 -1q-114 -59 -114 -123q0 -46 49 -46q25 0 54 13l19 -45q-53 -44 -117 -44q-48 0 -78 25.5t-30 68.5q0 82 115 143q-16 33 -25 72h-4q-71 -74 -158 -74 q-63 0 -99.5 37.5t-36.5 101.5v197z" />
<glyph unicode="&#x174;" horiz-adv-x="970" d="M353 765l-33 30q58 50 118 119l88 8q59 -68 123 -127l-33 -30q-55 26 -134 74q-75 -48 -129 -74zM210 -2l-192 687l135 13l98 -379q29 -115 40 -187q13 65 49 194l95 364l124 8l98 -379q33 -117 45 -187q12 71 45 196l95 370l103 -8l8 -14l-192 -678h-134l-95 329 q-9 35 -24 101t-21 90h-2q-26 -118 -47 -193l-94 -327h-134z" />
<glyph unicode="&#x175;" horiz-adv-x="786" d="M289 563l-40 28q55 71 109 160l88 8q53 -87 114 -168l-40 -28q-42 31 -118 105q-65 -68 -113 -105zM153 -2l-138 499l128 11l57 -244q27 -89 38 -159h2q13 71 36 156l54 241h149l54 -236q35 -133 38 -160h2q7 44 37 158l56 244l97 -8l8 -14l-137 -488h-148l-56 225 q-29 105 -37 171h-2q-6 -50 -36 -171l-57 -225h-145z" />
<glyph unicode="&#x176;" horiz-adv-x="571" d="M168 765l-34 30q62 54 119 119l88 8q52 -62 123 -127l-34 -30q-63 30 -133 74q-72 -46 -129 -74zM221 232l-207 453l137 13l91 -220q42 -109 54 -146h3q27 71 58 146l89 220l104 -8l8 -14l-208 -446v-230h-129v232z" />
<glyph unicode="&#x177;" horiz-adv-x="483" d="M138 563l-39 28q52 69 109 160l88 8q49 -83 113 -168l-39 -28q-47 34 -118 105q-69 -71 -114 -105zM473 486l-150 -456q-20 -62 -41.5 -107.5t-55 -88t-81 -66t-108.5 -26.5l-18 110q148 8 205 155h-52l-157 490l131 11l67 -251q34 -106 42 -170h2q10 58 45 170l67 251 l96 -8z" />
<glyph unicode="&#x178;" horiz-adv-x="571" d="M480 851q0 -31 -21.5 -52.5t-54.5 -21.5q-28 0 -46 17t-18 42q0 29 23 51t55 22q27 0 44.5 -16.5t17.5 -41.5zM259 851q0 -31 -21.5 -52.5t-54.5 -21.5q-28 0 -46 17t-18 42q0 29 23 51t55 22q27 0 44.5 -16.5t17.5 -41.5zM221 232l-207 453l137 13l91 -220 q42 -109 54 -146h3q27 71 58 146l89 220l104 -8l8 -14l-208 -446v-230h-129v232z" />
<glyph unicode="&#x179;" horiz-adv-x="550" d="M417 858l-6 -21q-115 -59 -268 -69l-10 32q128 63 207 125zM51 0l-21 83l340 500l-327 -7l8 112h431l32 -83l-336 -499l335 6l-7 -112h-455z" />
<glyph unicode="&#x17a;" horiz-adv-x="446" d="M322 754l7 -21q-60 -92 -158 -163l-46 11q61 111 85 184zM29 395l7 103h363l13 -80l-249 -320l102 1q85 0 155 7l-7 -106h-373l-14 80l255 320z" />
<glyph unicode="&#x17b;" horiz-adv-x="550" d="M353 855q0 -34 -23.5 -57.5t-60.5 -23.5q-31 0 -51.5 19t-20.5 47q0 32 25.5 55t61.5 23q30 0 49.5 -17.5t19.5 -45.5zM51 0l-21 83l340 500l-327 -7l8 112h431l32 -83l-336 -499l335 6l-7 -112h-455z" />
<glyph unicode="&#x17c;" horiz-adv-x="446" d="M305 672q0 -35 -24 -60.5t-60 -25.5q-32 0 -52 21t-20 51q0 35 25.5 60t61.5 25q30 0 49.5 -19.5t19.5 -51.5zM29 395l7 103h363l13 -80l-249 -320l102 1q85 0 155 7l-7 -106h-373l-14 80l255 320z" />
<glyph unicode="&#x17d;" horiz-adv-x="550" d="M406 925l33 -30q-58 -50 -118 -119l-88 -8q-52 62 -123 127l33 30q55 -26 134 -74q75 48 129 74zM51 0l-21 83l340 500l-327 -7l8 112h431l32 -83l-336 -499l335 6l-7 -112h-455z" />
<glyph unicode="&#x17e;" horiz-adv-x="446" d="M346 771l40 -29q-65 -85 -109 -160l-88 -8q-58 95 -114 168l40 29q47 -35 118 -106q72 74 113 106zM29 395l7 103h363l13 -80l-249 -320l102 1q85 0 155 7l-7 -106h-373l-14 80l255 320z" />
<glyph unicode="&#x18f;" horiz-adv-x="653" d="M55 377l22 22h388q-15 102 -69.5 152t-141.5 50q-86 0 -167 -49l-3 97q26 18 82 33.5t120 15.5q147 0 232 -91t85 -259q0 -169 -82.5 -263.5t-217.5 -94.5q-115 0 -184 72.5t-69 213.5q0 23 5 101zM180 265q0 -89 35 -136.5t100 -47.5q77 0 116 64t39 177v9l-289 -14 q-1 -18 -1 -52z" />
<glyph unicode="&#x192;" horiz-adv-x="560" d="M173 295l-114 4l10 47l109 15h3l7 64q28 273 234 273q79 0 129 -31l-41 -98q-47 36 -90 36q-51 0 -73.5 -45.5t-33.5 -137.5l-7 -61h172l7 -13l-15 -53h-172l-34 -288q-3 -24 -5 -40.5t-9.5 -47t-16.5 -51.5t-26 -46.5t-38.5 -41.5t-54 -27t-71.5 -11q-50 0 -104 20 l22 99q46 -26 84 -26q32 0 53 20.5t28.5 46.5t11.5 64l36 329h-1z" />
<glyph unicode="&#x19d;" horiz-adv-x="701" d="M37 -194l-37 48q80 86 80 248v420q0 90 -9 166l130 8q142 -240 164 -277q93 -153 136 -250h2q-9 104 -9 313q0 112 -9 206l118 9l14 -14v-683h-124q-33 54 -87 145.5t-78 130.5q-92 150 -133 237h-2q9 -81 9 -215v-196q0 -117 -36 -183t-129 -113z" />
<glyph unicode="&#x1cd;" horiz-adv-x="630" d="M446 931l33 -29q-59 -53 -118 -120l-88 -8q-50 59 -123 128l34 29q47 -21 133 -74q81 52 129 74zM137 0h-122l186 585q20 61 30 106l147 6l20 -17l217 -680h-129l-53 166h-243zM250 357l-31 -98h184l-30 97q-47 160 -59 223h-4q-21 -91 -60 -222z" />
<glyph unicode="&#x1ce;" horiz-adv-x="514" d="M368 771l40 -29q-57 -73 -110 -160l-87 -8q-53 87 -114 168l39 29q47 -35 118 -106q69 71 114 106zM434 137q0 -74 22 -137l-105 -10q-17 28 -27 69h-3q-22 -29 -62 -49t-87 -20q-60 0 -95.5 32t-35.5 88q0 81 74.5 122t196.5 46v48q0 89 -93 89q-76 0 -151 -44l-7 98 q94 39 189 39q92 0 139.5 -42.5t47.5 -122.5q0 -36 -1.5 -107t-1.5 -99zM164 131q0 -28 17.5 -47t47.5 -19q46 0 83 34v135q-65 -6 -106.5 -32t-41.5 -71z" />
<glyph unicode="&#x1cf;" horiz-adv-x="298" d="M274 931l34 -29q-64 -57 -119 -120l-88 -8q-50 59 -123 128l34 29q55 -25 133 -74q79 50 129 74zM213 0h-128v517q0 95 -9 171l123 10l14 -14v-684z" />
<glyph unicode="&#x1d0;" horiz-adv-x="281" d="M219 768l43 -19q-34 -77 -62 -167l-118 -8q-31 92 -67 175l43 19q36 -38 83 -109q39 66 78 109zM77 0v327q0 89 -12 166l123 15l14 -14v-494h-125z" />
<glyph unicode="&#x1d1;" horiz-adv-x="707" d="M488 925l34 -30q-55 -48 -119 -119l-87 -8q-60 69 -124 127l34 30q59 -28 133 -74q72 46 129 74zM657 346q0 -168 -88 -262t-223 -94q-132 0 -214 91.5t-82 251.5q0 165 88 265t224 100q134 0 214.5 -95.5t80.5 -256.5zM183 345q0 -115 44.5 -186.5t126.5 -71.5 q83 0 126.5 68.5t43.5 187.5q0 117 -41.5 187.5t-124.5 70.5q-82 0 -128.5 -69t-46.5 -187z" />
<glyph unicode="&#x1d2;" horiz-adv-x="563" d="M401 771l40 -29q-60 -77 -109 -160l-88 -8q-53 87 -114 168l40 29q42 -32 118 -106q64 68 113 106zM513 252q0 -125 -68.5 -193.5t-169.5 -68.5q-99 0 -161.5 67t-62.5 185q0 124 67.5 195t169.5 71q101 0 163 -69.5t62 -186.5zM180 252q0 -187 102 -187q49 0 75 47.5 t26 132.5q0 188 -101 188q-49 0 -75.5 -46t-26.5 -135z" />
<glyph unicode="&#x1d3;" horiz-adv-x="666" d="M464 925l33 -30q-58 -50 -118 -119l-88 -8q-59 68 -123 127l33 30q55 -26 134 -74q75 48 129 74zM73 518q0 87 -10 171l126 9l13 -13v-444q0 -73 36.5 -112.5t98.5 -39.5q61 0 97 39.5t36 112.5v301q0 80 -10 147l133 8v-465q0 -116 -75 -179t-189 -63q-113 0 -184.5 63 t-71.5 179v286z" />
<glyph unicode="&#x1d4;" horiz-adv-x="569" d="M405 771l40 -29q-57 -73 -110 -160l-88 -8q-49 83 -113 168l39 29q47 -35 118 -106q69 71 114 106zM77 326q0 78 -11 166l122 16l14 -14v-326q0 -83 70 -83q45 0 91 35v378l125 10v-372q0 -72 17 -135l-104 -11q-14 29 -26 74h-4q-71 -74 -158 -74q-63 0 -99.5 37.5 t-36.5 101.5v197z" />
<glyph unicode="&#x1d5;" horiz-adv-x="666" d="M193 1027v73h280v-73h-280zM513 851q0 -31 -21.5 -52.5t-54.5 -21.5q-28 0 -45.5 17t-17.5 42q0 30 22.5 51.5t54.5 21.5q27 0 44.5 -16.5t17.5 -41.5zM292 851q0 -31 -21 -52.5t-55 -21.5q-28 0 -45.5 17t-17.5 42q0 30 22.5 51.5t54.5 21.5q27 0 44.5 -16.5t17.5 -41.5 zM73 518q0 87 -10 171l126 9l13 -13v-444q0 -73 36.5 -112.5t98.5 -39.5q61 0 97 39.5t36 112.5v301q0 80 -10 147l133 8v-465q0 -116 -75 -179t-189 -63q-113 0 -184.5 63t-71.5 179v286z" />
<glyph unicode="&#x1d6;" horiz-adv-x="569" d="M143 870v72h285v-72h-285zM247 672q0 -33 -22 -57t-55 -24q-29 0 -47.5 19.5t-18.5 47.5q0 33 23.5 57t56.5 24q28 0 45.5 -18.5t17.5 -48.5zM466 672q0 -33 -22 -57t-55 -24q-29 0 -47.5 19.5t-18.5 47.5q0 33 23.5 57t56.5 24q28 0 45.5 -18.5t17.5 -48.5zM77 326 q0 78 -11 166l122 16l14 -14v-326q0 -83 70 -83q45 0 91 35v378l125 10v-372q0 -72 17 -135l-104 -11q-14 29 -26 74h-4q-71 -74 -158 -74q-63 0 -99.5 37.5t-36.5 101.5v197z" />
<glyph unicode="&#x1d7;" horiz-adv-x="666" d="M475 1078l-6 -20q-115 -61 -268 -69l-10 31q125 61 207 126zM513 851q0 -31 -21.5 -52.5t-54.5 -21.5q-28 0 -45.5 17t-17.5 42q0 30 22.5 51.5t54.5 21.5q27 0 44.5 -16.5t17.5 -41.5zM292 851q0 -31 -21 -52.5t-55 -21.5q-28 0 -45.5 17t-17.5 42q0 30 22.5 51.5 t54.5 21.5q27 0 44.5 -16.5t17.5 -41.5zM73 518q0 87 -10 171l126 9l13 -13v-444q0 -73 36.5 -112.5t98.5 -39.5q61 0 97 39.5t36 112.5v301q0 80 -10 147l133 8v-465q0 -116 -75 -179t-189 -63q-113 0 -184.5 63t-71.5 179v286z" />
<glyph unicode="&#x1d8;" horiz-adv-x="569" d="M380 995l8 -21q-59 -91 -159 -163l-46 11q59 103 85 184zM247 672q0 -33 -22 -57t-55 -24q-29 0 -47.5 19.5t-18.5 47.5q0 33 23.5 57t56.5 24q28 0 45.5 -18.5t17.5 -48.5zM466 672q0 -33 -22 -57t-55 -24q-29 0 -47.5 19.5t-18.5 47.5q0 33 23.5 57t56.5 24 q28 0 45.5 -18.5t17.5 -48.5zM77 326q0 78 -11 166l122 16l14 -14v-326q0 -83 70 -83q45 0 91 35v378l125 10v-372q0 -72 17 -135l-104 -11q-14 29 -26 74h-4q-71 -74 -158 -74q-63 0 -99.5 37.5t-36.5 101.5v197z" />
<glyph unicode="&#x1d9;" horiz-adv-x="666" d="M464 1145l33 -29q-54 -47 -118 -120l-88 -8q-63 73 -123 128l33 29q59 -27 134 -74q71 48 129 74zM513 851q0 -31 -21.5 -52.5t-54.5 -21.5q-28 0 -45.5 17t-17.5 42q0 30 22.5 51.5t54.5 21.5q27 0 44.5 -16.5t17.5 -41.5zM292 851q0 -31 -21 -52.5t-55 -21.5 q-28 0 -45.5 17t-17.5 42q0 30 22.5 51.5t54.5 21.5q27 0 44.5 -16.5t17.5 -41.5zM73 518q0 87 -10 171l126 9l13 -13v-444q0 -73 36.5 -112.5t98.5 -39.5q61 0 97 39.5t36 112.5v301q0 80 -10 147l133 8v-465q0 -116 -75 -179t-189 -63q-113 0 -184.5 63t-71.5 179v286z " />
<glyph unicode="&#x1da;" horiz-adv-x="569" d="M405 1012l40 -29q-57 -73 -110 -160l-88 -8q-49 83 -113 168l39 29q47 -35 118 -106q69 71 114 106zM247 672q0 -33 -22 -57t-55 -24q-29 0 -47.5 19.5t-18.5 47.5q0 33 23.5 57t56.5 24q28 0 45.5 -18.5t17.5 -48.5zM466 672q0 -33 -22 -57t-55 -24q-29 0 -47.5 19.5 t-18.5 47.5q0 33 23.5 57t56.5 24q28 0 45.5 -18.5t17.5 -48.5zM77 326q0 78 -11 166l122 16l14 -14v-326q0 -83 70 -83q45 0 91 35v378l125 10v-372q0 -72 17 -135l-104 -11q-14 29 -26 74h-4q-71 -74 -158 -74q-63 0 -99.5 37.5t-36.5 101.5v197z" />
<glyph unicode="&#x1db;" horiz-adv-x="666" d="M465 989q-153 8 -268 69l-6 20l77 68q82 -65 207 -126zM513 851q0 -31 -21.5 -52.5t-54.5 -21.5q-28 0 -45.5 17t-17.5 42q0 30 22.5 51.5t54.5 21.5q27 0 44.5 -16.5t17.5 -41.5zM292 851q0 -31 -21 -52.5t-55 -21.5q-28 0 -45.5 17t-17.5 42q0 30 22.5 51.5t54.5 21.5 q27 0 44.5 -16.5t17.5 -41.5zM73 518q0 87 -10 171l126 9l13 -13v-444q0 -73 36.5 -112.5t98.5 -39.5q61 0 97 39.5t36 112.5v301q0 80 -10 147l133 8v-465q0 -116 -75 -179t-189 -63q-113 0 -184.5 63t-71.5 179v286z" />
<glyph unicode="&#x1dc;" horiz-adv-x="569" d="M341 812q-97 69 -158 163l7 21l113 11q27 -82 85 -183zM247 672q0 -33 -22 -57t-55 -24q-29 0 -47.5 19.5t-18.5 47.5q0 33 23.5 57t56.5 24q28 0 45.5 -18.5t17.5 -48.5zM466 672q0 -33 -22 -57t-55 -24q-29 0 -47.5 19.5t-18.5 47.5q0 33 23.5 57t56.5 24 q28 0 45.5 -18.5t17.5 -48.5zM77 326q0 78 -11 166l122 16l14 -14v-326q0 -83 70 -83q45 0 91 35v378l125 10v-372q0 -72 17 -135l-104 -11q-14 29 -26 74h-4q-71 -74 -158 -74q-63 0 -99.5 37.5t-36.5 101.5v197z" />
<glyph unicode="&#x1e6;" horiz-adv-x="642" d="M478 931l33 -29q-59 -53 -118 -120l-88 -8q-57 66 -123 128l33 29q48 -22 134 -74q81 52 129 74zM572 315l14 -14l-3 -267q-93 -44 -213 -44q-151 0 -235.5 90t-84.5 248q0 168 92.5 269t247.5 101q105 0 180 -39l-22 -111q-67 47 -152 47q-97 0 -155 -67t-58 -190 q0 -114 51.5 -181t149.5 -67q34 0 79 8v12q0 106 -12 195z" />
<glyph unicode="&#x1e7;" horiz-adv-x="513" d="M366 771l40 -29q-60 -77 -109 -160l-88 -8q-53 87 -114 168l39 29q47 -35 118 -106q69 71 114 106zM105 63q0 53 53 89q-53 19 -84 61.5t-31 101.5q0 81 56 137t149 56q74 0 117 -33q17 28 49.5 43.5t67.5 15.5l15 -11l-3 -83h-102q51 -41 51 -119q0 -79 -55 -131.5 t-145 -52.5q-19 0 -35 3q-8 -16 -8 -30q0 -22 12 -31.5t39 -11.5l90 -6q70 -4 113 -37t43 -94q0 -81 -72 -134.5t-193 -53.5q-100 0 -160 36.5t-60 92.5q0 34 22 59t53 35l46 -20q-14 -18 -14 -37q0 -43 35 -73.5t94 -30.5q55 0 89.5 26t34.5 67q0 65 -88 75l-82 8 q-47 4 -72 26t-25 57zM323 322q0 121 -78 121q-82 0 -82 -121q0 -119 82 -119q78 0 78 119z" />
<glyph unicode="&#x1ea;" horiz-adv-x="707" d="M657 346q0 -112 -41 -192.5t-112 -122.5q-106 -77 -106 -144q0 -56 51 -56q22 0 52 13l19 -45q-53 -44 -118 -44q-48 0 -77.5 26t-29.5 72q0 75 90 139q-26 -2 -39 -2q-132 0 -214 91.5t-82 251.5q0 165 88 265t224 100q134 0 214.5 -95.5t80.5 -256.5zM183 345 q0 -115 44.5 -186.5t126.5 -71.5q83 0 126.5 68.5t43.5 187.5q0 117 -41.5 187.5t-124.5 70.5q-82 0 -128.5 -69t-46.5 -187z" />
<glyph unicode="&#x1eb;" horiz-adv-x="563" d="M414 33q-101 -78 -101 -146q0 -52 48 -52q25 0 55 13l18 -45q-51 -44 -118 -44q-47 0 -77 25t-30 66q0 70 90 141q-7 -1 -24 -1q-99 0 -161.5 67t-62.5 185q0 124 67.5 195t169.5 71q101 0 163 -69.5t62 -186.5q0 -148 -99 -220v1zM180 252q0 -187 102 -187q49 0 75 47.5 t26 132.5q0 188 -101 188q-49 0 -75.5 -46t-26.5 -135z" />
<glyph unicode="&#x1f4;" horiz-adv-x="642" d="M489 864l-6 -21q-114 -59 -268 -69l-10 32q123 61 207 125zM572 315l14 -14l-3 -267q-93 -44 -213 -44q-151 0 -235.5 90t-84.5 248q0 168 92.5 269t247.5 101q105 0 180 -39l-22 -111q-67 47 -152 47q-97 0 -155 -67t-58 -190q0 -114 51.5 -181t149.5 -67q34 0 79 8v12 q0 106 -12 195z" />
<glyph unicode="&#x1f5;" horiz-adv-x="513" d="M342 754l7 -21q-59 -91 -159 -163l-46 11q59 103 85 184zM105 63q0 53 53 89q-53 19 -84 61.5t-31 101.5q0 81 56 137t149 56q74 0 117 -33q17 28 49.5 43.5t67.5 15.5l15 -11l-3 -83h-102q51 -41 51 -119q0 -79 -55 -131.5t-145 -52.5q-19 0 -35 3q-8 -16 -8 -30 q0 -22 12 -31.5t39 -11.5l90 -6q70 -4 113 -37t43 -94q0 -81 -72 -134.5t-193 -53.5q-100 0 -160 36.5t-60 92.5q0 34 22 59t53 35l46 -20q-14 -18 -14 -37q0 -43 35 -73.5t94 -30.5q55 0 89.5 26t34.5 67q0 65 -88 75l-82 8q-47 4 -72 26t-25 57zM323 322q0 121 -78 121 q-82 0 -82 -121q0 -119 82 -119q78 0 78 119z" />
<glyph unicode="&#x1fa;" horiz-adv-x="630" d="M457 1119l-6 -21q-115 -59 -268 -69l-10 32q122 60 208 125zM423 861q0 -44 -33.5 -75t-81.5 -31q-43 0 -72 25.5t-29 63.5q0 43 35.5 74t83.5 31q42 0 69.5 -25t27.5 -63zM264 848q0 -21 13.5 -34.5t34.5 -13.5q22 0 38 16.5t16 39.5q0 22 -12 35.5t-33 13.5 q-24 0 -40.5 -17t-16.5 -40zM137 0h-122l186 585q20 61 30 106l147 6l20 -17l217 -680h-129l-53 166h-243zM250 357l-31 -98h184l-30 97q-47 160 -59 223h-4q-21 -91 -60 -222z" />
<glyph unicode="&#x1fb;" horiz-adv-x="514" d="M354 1020l7 -21q-60 -92 -158 -163l-47 11q60 105 85 184zM366 675q0 -43 -33.5 -74t-81.5 -31q-43 0 -71.5 25.5t-28.5 62.5q0 43 35 74.5t83 31.5q43 0 70 -25t27 -64zM207 663q0 -21 13.5 -35t35.5 -14t38 16.5t16 39.5t-12 36t-33 13q-24 0 -41 -16.5t-17 -39.5z M434 137q0 -74 22 -137l-105 -10q-17 28 -27 69h-3q-22 -29 -62 -49t-87 -20q-60 0 -95.5 32t-35.5 88q0 81 74.5 122t196.5 46v48q0 89 -93 89q-76 0 -151 -44l-7 98q94 39 189 39q92 0 139.5 -42.5t47.5 -122.5q0 -36 -1.5 -107t-1.5 -99zM164 131q0 -28 17.5 -47 t47.5 -19q46 0 83 34v135q-65 -6 -106.5 -32t-41.5 -71z" />
<glyph unicode="&#x1fc;" horiz-adv-x="879" d="M635 858l-6 -21q-114 -59 -268 -69l-10 32q128 63 207 125zM137 0h-122l261 585q26 56 46 103h429l14 -14l-2 -86l-264 6l27 -211l223 4l-3 -93l-209 5l27 -206l282 7v-100h-399l-20 166h-217zM294 357l-43 -98h164l-12 97q-12 113 -16 223h-4q-28 -77 -89 -222z" />
<glyph unicode="&#x1fd;" horiz-adv-x="783" d="M493 754l8 -21q-59 -91 -159 -163l-46 11q61 111 85 184zM737 251l-15 -15h-280q7 -79 46 -117.5t103 -38.5q63 0 124 36l8 -83q-65 -43 -164 -43q-141 0 -208 99q-28 -43 -76.5 -71t-104.5 -28q-58 0 -93.5 32.5t-35.5 88.5q0 80 74.5 121t196.5 46v48q0 89 -95 89 q-76 0 -149 -44l-7 98q94 39 191 39q101 0 147 -52q63 52 147 52q88 0 140 -56t52 -146q0 -37 -1 -55zM540 433q-42 0 -69.5 -40.5t-30.5 -110.5l175 7q0 5 0.5 16.5t0.5 17.5q0 50 -19.5 80t-56.5 30zM164 131q0 -28 17.5 -47t47.5 -19q62 0 104 59q-21 49 -22 110 q-64 -6 -105.5 -32t-41.5 -71z" />
<glyph unicode="&#x1fe;" horiz-adv-x="707" d="M500 858l-7 -21q-113 -59 -267 -69l-10 32q128 63 207 125zM657 346q0 -168 -88 -262t-223 -94q-120 0 -198 75l-65 -74l-49 43l72 82q-56 87 -56 217q0 165 88 265t224 100q112 0 189 -69l60 69l50 -42l-67 -77q63 -92 63 -233zM183 345q0 -70 16 -122l276 318 q-43 60 -117 60q-82 0 -128.5 -69t-46.5 -187zM524 343q0 77 -18 134l-278 -320q46 -70 126 -70q83 0 126.5 68.5t43.5 187.5z" />
<glyph unicode="&#x1ff;" horiz-adv-x="563" d="M377 754l7 -21q-60 -92 -158 -163l-47 11q59 103 85 184zM513 252q0 -125 -68.5 -193.5t-169.5 -68.5q-86 0 -146 51l-54 -58l-45 43l59 63q-38 63 -38 153q0 124 67.5 195t169.5 71q87 0 144 -51l55 58l46 -42l-60 -64q40 -66 40 -157zM180 252q0 -37 4 -62l176 190 q-25 53 -78 53q-49 0 -75.5 -46t-26.5 -135zM383 245q0 35 -3 64l-177 -189q25 -55 79 -55q49 0 75 47.5t26 132.5z" />
<glyph unicode="&#x218;" horiz-adv-x="531" d="M481 183q0 -91 -67 -142t-177 -51q-119 0 -187 37l9 109q36 -22 88 -34t92 -12q53 0 81.5 22.5t28.5 61.5q0 11 -2.5 21t-5.5 17.5t-10.5 16.5t-12 14.5t-16 14t-16.5 12t-20 11.5t-20 11t-22.5 11.5t-21.5 10.5q-34 17 -55.5 31.5t-45.5 37t-36 52.5t-12 68q0 91 69 143 t181 52q93 0 160 -28l-16 -111q-68 39 -146 39q-56 0 -86 -22.5t-30 -62.5q0 -14 3.5 -26.5t14 -24.5t17 -19t25 -18.5t26 -15.5t31.5 -16l30 -15q32 -17 54.5 -31.5t46 -38t36 -55t12.5 -70.5zM209 -318q37 50 51 95q-23 3 -38 20.5t-15 42.5q0 29 20 50.5t51 21.5 q29 0 48 -20t19 -57q0 -80 -97 -184z" />
<glyph unicode="&#x219;" horiz-adv-x="445" d="M389 480l-9 -96q-74 40 -135 40q-36 0 -57.5 -15t-21.5 -40q0 -24 24.5 -43t59.5 -33.5t70.5 -32.5t60 -49.5t24.5 -74.5q0 -67 -54.5 -106.5t-145.5 -39.5q-98 0 -164 36l9 95q80 -47 158 -47q36 0 56 15t20 38q0 24 -24.5 43t-59.5 33.5t-70 32t-59.5 49t-24.5 74.5 q0 67 55 108t145 41q74 0 143 -28zM162 -318q39 55 50 95q-23 3 -37.5 20.5t-14.5 42.5q0 29 20 50.5t50 21.5q29 0 48 -20t19 -57q0 -81 -96 -184z" />
<glyph unicode="&#x21a;" horiz-adv-x="560" d="M345 0h-129v592q-66 -1 -200 -7l7 103h514l7 -103q-135 6 -199 7v-592zM212 -318q37 50 51 95q-23 3 -38 20.5t-15 42.5q0 29 20 50.5t51 21.5q29 0 48 -20t19 -57q0 -82 -97 -184z" />
<glyph unicode="&#x21b;" horiz-adv-x="388" d="M351 430l-140 3v-258q0 -95 69 -95q39 0 79 24l9 -78q-55 -36 -128 -36q-75 0 -114.5 45.5t-39.5 135.5v264l-70 1v47l73 15l31 124l78 6l15 -15l-2 -115h136l9 -14zM147 -318q37 52 50 95q-23 3 -38 20.5t-15 42.5q0 29 20 50.5t51 21.5q29 0 48 -20t19 -57 q0 -82 -97 -184z" />
<glyph unicode="&#x232;" horiz-adv-x="571" d="M159 806v74h281v-74h-281zM221 232l-207 453l137 13l91 -220q42 -109 54 -146h3q27 71 58 146l89 220l104 -8l8 -14l-208 -446v-230h-129v232z" />
<glyph unicode="&#x233;" horiz-adv-x="483" d="M108 629v72h285v-72h-285zM473 486l-150 -456q-20 -62 -41.5 -107.5t-55 -88t-81 -66t-108.5 -26.5l-18 110q148 8 205 155h-52l-157 490l131 11l67 -251q34 -106 42 -170h2q10 58 45 170l67 251l96 -8z" />
<glyph unicode="&#x237;" horiz-adv-x="283" d="M55 -258l-47 46q70 81 70 216v323q0 86 -11 166l122 15l14 -14v-484q0 -101 -33.5 -162t-114.5 -106z" />
<glyph unicode="&#x259;" horiz-adv-x="523" d="M46 247l15 15h281q-3 81 -32.5 117t-89.5 36q-78 0 -152 -43l-8 91q30 18 83.5 31.5t105.5 13.5q108 0 165.5 -61t57.5 -178q0 -133 -66.5 -206t-167.5 -73q-89 0 -141 56t-52 146q0 37 1 55zM167 175q0 -51 19.5 -80.5t57.5 -29.5q41 0 67.5 38t30.5 113l-174 -7 q0 -3 -0.5 -15t-0.5 -19z" />
<glyph unicode="&#x272;" horiz-adv-x="577" d="M55 -258l-47 46q70 81 70 216v324q0 80 -20 157l118 23q15 -39 22 -73q76 73 163 73q64 0 100 -40t36 -113v-355h-125v331q0 90 -74 90q-44 0 -95 -37v-374q0 -101 -33.5 -162t-114.5 -106z" />
<glyph unicode="&#x2c6;" horiz-adv-x="405" d="M87 563l-40 29q65 85 109 160l88 8q58 -95 114 -168l-40 -29q-46 34 -118 106q-72 -74 -113 -106z" />
<glyph unicode="&#x2c7;" horiz-adv-x="405" d="M318 772l40 -28q-55 -71 -109 -160l-88 -8q-53 87 -114 168l40 28q42 -31 118 -105q60 64 113 105z" />
<glyph unicode="&#x2d8;" horiz-adv-x="379" d="M281 751l51 5q-7 -76 -46.5 -122t-100.5 -46q-57 0 -95 42.5t-43 114.5l51 7q9 -37 33.5 -58.5t58.5 -21.5q33 0 57.5 22t33.5 57z" />
<glyph unicode="&#x2d9;" horiz-adv-x="250" d="M203 672q0 -35 -24.5 -60.5t-59.5 -25.5q-32 0 -52 21t-20 51q0 35 25.5 60t61.5 25q30 0 49.5 -19.5t19.5 -51.5z" />
<glyph unicode="&#x2da;" horiz-adv-x="309" d="M262 674q0 -44 -33.5 -75t-81.5 -31q-43 0 -71.5 25.5t-28.5 63.5q0 43 35.5 74t82.5 31q43 0 70 -25t27 -63zM103 661q0 -21 13.5 -34.5t35.5 -13.5t38 16.5t16 39.5q0 22 -12 35.5t-33 13.5q-24 0 -41 -17t-17 -40z" />
<glyph unicode="&#x2db;" horiz-adv-x="365" d="M292 0q-113 -59 -113 -123q0 -46 48 -46q25 0 55 13l18 -45q-51 -44 -117 -44q-48 0 -77.5 25.5t-29.5 68.5q0 48 42 91t118 73z" />
<glyph unicode="&#x2dc;" horiz-adv-x="417" d="M145 742q32 0 79 -28.5t69 -28.5q19 0 31 12t25 36l36 -5q-3 -56 -27.5 -98t-69.5 -42q-30 0 -81 28.5t-71 28.5q-30 0 -55 -49l-35 6q3 57 27 98.5t72 41.5z" />
<glyph unicode="&#x2dd;" horiz-adv-x="412" d="M222 757l7 -22q-52 -92 -136 -164l-47 12q58 99 85 184zM384 757l7 -22q-52 -92 -136 -164l-47 12q58 99 85 184z" />
<glyph unicode="&#x394;" horiz-adv-x="623" d="M242 690h141l225 -670l-2 -20h-589l-2 20zM154 94h291l-145 453z" />
<glyph unicode="&#x3a9;" horiz-adv-x="771" d="M322 0h-272l-17 90l14 14l213 -42q-76 44 -124.5 132.5t-48.5 185.5q0 133 87 225.5t217 92.5q129 0 210.5 -91.5t81.5 -224.5q0 -100 -49 -188.5t-125 -132.5l215 43l14 -14l-17 -90h-273l-13 56q52 54 83.5 133.5t31.5 172.5q0 101 -43 170t-120 69q-76 0 -121.5 -68 t-45.5 -172q0 -174 116 -305z" />
<glyph unicode="&#x3bc;" horiz-adv-x="569" d="M77 328q0 76 -11 164l122 16l14 -14v-326q0 -83 69 -83q46 0 92 35v378l125 10v-372q0 -72 17 -135l-104 -11q-14 29 -26 74h-4q-68 -71 -151 -74q-23 -1 -44 6q15 -43 24.5 -130.5t12.5 -101.5l-122 -16l-14 14v566z" />
<glyph unicode="&#x3c0;" horiz-adv-x="630" d="M102 0v411l-99 -1l18 90l581 8l8 -14l-23 -77l-72 -1v-260q0 -32 7 -46.5t26 -14.5q15 0 40 9l-7 -104q-43 -10 -80 -10q-51 0 -81 32t-30 98v295l-163 -2v-413h-125z" />
<glyph unicode="&#x1e0c;" horiz-adv-x="686" d="M636 348q0 -163 -98 -255.5t-253 -92.5h-200v522q0 102 -9 166h225q152 0 243.5 -91.5t91.5 -248.5zM293 595h-80v-502h81q105 0 157 66.5t52 182.5q0 114 -54 183.5t-156 69.5zM429 -157q0 -35 -24 -60t-60 -25q-32 0 -52 20.5t-20 50.5q0 34 26 59.5t61 25.5 q31 0 50 -19.5t19 -51.5z" />
<glyph unicode="&#x1e0d;" horiz-adv-x="576" d="M359 743l122 15l14 -14v-609q0 -71 23 -135l-108 -10q-10 19 -27 68h-2q-50 -68 -137 -68t-140 65.5t-53 177.5q0 130 71 202.5t185 72.5q30 0 63 -7v76q0 96 -11 166zM180 249q0 -84 31 -134t85 -50q44 0 74 32v337q-28 5 -49 5q-66 0 -103.5 -49t-37.5 -141zM365 -157 q0 -35 -24 -60t-60 -25q-32 0 -52 20.5t-20 50.5q0 34 26 59.5t61 25.5q31 0 50 -19.5t19 -51.5z" />
<glyph unicode="&#x1e24;" horiz-adv-x="710" d="M213 0h-128v517q0 95 -9 171l123 10l14 -14v-296h283v129q0 95 -9 171l124 10l14 -14v-684h-129v295h-283v-295zM433 -157q0 -35 -24 -60t-60 -25q-32 0 -52 20.5t-20 50.5q0 34 26 59.5t61 25.5q31 0 50 -19.5t19 -51.5z" />
<glyph unicode="&#x1e25;" horiz-adv-x="572" d="M199 0h-125v577q0 89 -12 166l122 15l15 -14v-303q75 67 157 67q64 0 100.5 -40t36.5 -113v-355h-126v331q0 90 -73 90q-48 0 -95 -37v-384zM367 -157q0 -35 -24 -60t-60 -25q-32 0 -52 20.5t-20 50.5q0 35 25.5 60t61.5 25q30 0 49.5 -19.5t19.5 -51.5z" />
<glyph unicode="&#x1e44;" horiz-adv-x="706" d="M421 861q0 -34 -23.5 -57t-60.5 -23q-32 0 -52.5 18.5t-20.5 46.5q0 32 26 55t62 23q30 0 49.5 -17.5t19.5 -45.5zM370 419q93 -153 136 -250h3q-10 101 -10 313q0 112 -9 206l118 9l14 -14v-683h-124q-33 54 -87 145.5t-78 130.5q-92 150 -133 237h-2q9 -81 9 -215v-298 h-122v522q0 90 -9 166l130 8q142 -240 164 -277z" />
<glyph unicode="&#x1e45;" horiz-adv-x="577" d="M360 672q0 -35 -24.5 -60.5t-59.5 -25.5q-32 0 -52 21t-20 51q0 35 25.5 60t60.5 25q31 0 50.5 -19.5t19.5 -51.5zM204 0h-125v328q0 74 -20 157l117 23q15 -39 22 -73q76 73 163 73q64 0 100.5 -40t36.5 -113v-355h-126v331q0 90 -73 90q-46 0 -95 -37v-384z" />
<glyph unicode="&#x1e5a;" horiz-adv-x="606" d="M213 0h-128v522q0 102 -9 166h210q127 0 197.5 -57.5t70.5 -157.5q0 -70 -34 -117.5t-91 -71.5l158 -284l-146 -7q-62 119 -124 258h-104v-251zM277 595h-64v-255h63q145 0 145 126q0 129 -144 129zM390 -157q0 -35 -24 -60t-60 -25q-32 0 -52 20.5t-20 50.5 q0 35 25.5 60t60.5 25q31 0 50.5 -19.5t19.5 -51.5z" />
<glyph unicode="&#x1e5b;" horiz-adv-x="399" d="M204 0h-125v328q0 74 -20 157l117 23q21 -53 27 -104q61 104 133 104q32 0 49 -14l-13 -118q-27 8 -56 8q-63 0 -112 -40v-344zM221 -157q0 -35 -24 -60t-60 -25q-32 0 -52 20.5t-20 50.5q0 35 25.5 60t60.5 25q31 0 50.5 -19.5t19.5 -51.5z" />
<glyph unicode="&#x1e62;" horiz-adv-x="531" d="M481 183q0 -91 -67 -142t-177 -51q-119 0 -187 37l9 109q36 -22 88 -34t92 -12q53 0 81.5 22.5t28.5 61.5q0 11 -2.5 21t-5.5 17.5t-10.5 16.5t-12 14.5t-16 14t-16.5 12t-20 11.5t-20 11t-22.5 11.5t-21.5 10.5q-34 17 -55.5 31.5t-45.5 37t-36 52.5t-12 68q0 91 69 143 t181 52q93 0 160 -28l-16 -111q-68 39 -146 39q-56 0 -86 -22.5t-30 -62.5q0 -14 3.5 -26.5t14 -24.5t17 -19t25 -18.5t26 -15.5t31.5 -16l30 -15q32 -17 54.5 -31.5t46 -38t36 -55t12.5 -70.5zM356 -157q0 -35 -24 -60t-60 -25q-32 0 -52 20.5t-20 50.5q0 35 25.5 60 t61.5 25q31 0 50 -19.5t19 -51.5z" />
<glyph unicode="&#x1e63;" horiz-adv-x="445" d="M389 480l-9 -96q-74 40 -135 40q-36 0 -57.5 -15t-21.5 -40q0 -24 24.5 -43t59.5 -33.5t70.5 -32.5t60 -49.5t24.5 -74.5q0 -67 -54.5 -106.5t-145.5 -39.5q-98 0 -164 36l9 95q80 -47 158 -47q36 0 56 15t20 38q0 24 -24.5 43t-59.5 33.5t-70 32t-59.5 49t-24.5 74.5 q0 67 55 108t145 41q74 0 143 -28zM309 -157q0 -35 -24 -60t-60 -25q-32 0 -52 20.5t-20 50.5q0 35 25.5 60t60.5 25q31 0 50.5 -19.5t19.5 -51.5z" />
<glyph unicode="&#x1e6c;" horiz-adv-x="560" d="M345 0h-129v592q-66 -1 -200 -7l7 103h514l7 -103q-135 6 -199 7v-592zM359 -157q0 -35 -24 -60t-60 -25q-32 0 -52 20.5t-20 50.5q0 34 26 59.5t61 25.5q31 0 50 -19.5t19 -51.5z" />
<glyph unicode="&#x1e6d;" horiz-adv-x="388" d="M351 430l-140 3v-258q0 -95 69 -95q39 0 79 24l9 -78q-55 -36 -128 -36q-75 0 -114.5 45.5t-39.5 135.5v264l-70 1v47l73 15l31 124l78 6l15 -15l-2 -115h136l9 -14zM293 -157q0 -35 -24 -60t-59 -25q-32 0 -52 20.5t-20 50.5q0 35 25.5 60t60.5 25q31 0 50 -19.5 t19 -51.5z" />
<glyph unicode="&#x1e80;" horiz-adv-x="970" d="M617 768q-154 10 -268 69l-6 21l77 67q79 -62 207 -125zM210 -2l-192 687l135 13l98 -379q29 -115 40 -187q13 65 49 194l95 364l124 8l98 -379q33 -117 45 -187q12 71 45 196l95 370l103 -8l8 -14l-192 -678h-134l-95 329q-9 35 -24 101t-21 90h-2q-26 -118 -47 -193 l-94 -327h-134z" />
<glyph unicode="&#x1e81;" horiz-adv-x="786" d="M457 571q-98 71 -159 163l8 21l112 12q24 -76 85 -184zM153 -2l-138 499l128 11l57 -244q27 -89 38 -159h2q13 71 36 156l54 241h149l54 -236q35 -133 38 -160h2q7 44 37 158l56 244l97 -8l8 -14l-137 -488h-148l-56 225q-29 105 -37 171h-2q-6 -50 -36 -171l-57 -225 h-145z" />
<glyph unicode="&#x1e82;" horiz-adv-x="970" d="M627 858l-6 -21q-115 -59 -268 -69l-10 32q128 63 207 125zM210 -2l-192 687l135 13l98 -379q29 -115 40 -187q13 65 49 194l95 364l124 8l98 -379q33 -117 45 -187q12 71 45 196l95 370l103 -8l8 -14l-192 -678h-134l-95 329q-9 35 -24 101t-21 90h-2q-26 -118 -47 -193 l-94 -327h-134z" />
<glyph unicode="&#x1e83;" horiz-adv-x="786" d="M496 754l7 -21q-60 -92 -158 -163l-47 11q59 103 85 184zM153 -2l-138 499l128 11l57 -244q27 -89 38 -159h2q13 71 36 156l54 241h149l54 -236q35 -133 38 -160h2q7 44 37 158l56 244l97 -8l8 -14l-137 -488h-148l-56 225q-29 105 -37 171h-2q-6 -50 -36 -171l-57 -225 h-145z" />
<glyph unicode="&#x1e84;" horiz-adv-x="970" d="M665 851q0 -31 -21 -52.5t-55 -21.5q-28 0 -45.5 17t-17.5 42q0 30 22.5 51.5t54.5 21.5q27 0 44.5 -16.5t17.5 -41.5zM445 851q0 -31 -21.5 -52.5t-55.5 -21.5q-28 0 -45.5 17t-17.5 42q0 30 22.5 51.5t54.5 21.5q27 0 45 -16.5t18 -41.5zM210 -2l-192 687l135 13 l98 -379q29 -115 40 -187q13 65 49 194l95 364l124 8l98 -379q33 -117 45 -187q12 71 45 196l95 370l103 -8l8 -14l-192 -678h-134l-95 329q-9 35 -24 101t-21 90h-2q-26 -118 -47 -193l-94 -327h-134z" />
<glyph unicode="&#x1e85;" horiz-adv-x="786" d="M362 672q0 -33 -22 -57t-54 -24q-30 0 -48 19.5t-18 47.5q0 32 23.5 56.5t55.5 24.5q28 0 45.5 -18.5t17.5 -48.5zM581 672q0 -33 -22 -57t-54 -24q-30 0 -48 19.5t-18 47.5q0 32 23.5 56.5t55.5 24.5q28 0 45.5 -18.5t17.5 -48.5zM153 -2l-138 499l128 11l57 -244 q27 -89 38 -159h2q13 71 36 156l54 241h149l54 -236q35 -133 38 -160h2q7 44 37 158l56 244l97 -8l8 -14l-137 -488h-148l-56 225q-29 105 -37 171h-2q-6 -50 -36 -171l-57 -225h-145z" />
<glyph unicode="&#x1e92;" horiz-adv-x="550" d="M51 0l-21 83l340 500l-327 -7l8 112h431l32 -83l-336 -499l335 6l-7 -112h-455zM358 -157q0 -35 -24 -60t-60 -25q-32 0 -52 20.5t-20 50.5q0 35 25.5 60t61.5 25q30 0 49.5 -19.5t19.5 -51.5z" />
<glyph unicode="&#x1e93;" horiz-adv-x="446" d="M29 395l7 103h363l13 -80l-249 -320l102 1q85 0 155 7l-7 -106h-373l-14 80l255 320zM301 -157q0 -35 -24 -60t-60 -25q-32 0 -52 20.5t-20 50.5q0 34 26 59.5t61 25.5q31 0 50 -19.5t19 -51.5z" />
<glyph unicode="&#x1e9e;" horiz-adv-x="668" d="M81 144v312q0 115 70.5 178.5t186.5 63.5q88 0 151 -38t84 -108l-147 -168q91 -37 141.5 -86.5t50.5 -127.5q0 -84 -56.5 -132t-146.5 -48q-78 0 -135 27v109q54 -36 115 -36q43 0 67 21.5t24 60.5q0 47 -41 81t-149 81v33l138 175q-28 57 -97 57q-59 0 -93 -40t-34 -112 v-345q0 -82 -29 -112l-118 10q18 56 18 144z" />
<glyph unicode="&#x1ea0;" horiz-adv-x="630" d="M137 0h-122l186 585q20 61 30 106l147 6l20 -17l217 -680h-129l-53 166h-243zM250 357l-31 -98h184l-30 97q-47 160 -59 223h-4q-21 -91 -60 -222zM393 -157q0 -35 -24 -60t-60 -25q-32 0 -52 20.5t-20 50.5q0 34 26 59.5t61 25.5q31 0 50 -19.5t19 -51.5z" />
<glyph unicode="&#x1ea1;" horiz-adv-x="514" d="M434 137q0 -74 22 -137l-105 -10q-17 28 -27 69h-3q-22 -29 -62 -49t-87 -20q-60 0 -95.5 32t-35.5 88q0 81 74.5 122t196.5 46v48q0 89 -93 89q-76 0 -151 -44l-7 98q94 39 189 39q92 0 139.5 -42.5t47.5 -122.5q0 -36 -1.5 -107t-1.5 -99zM164 131q0 -28 17.5 -47 t47.5 -19q46 0 83 34v135q-65 -6 -106.5 -32t-41.5 -71zM333 -157q0 -35 -24 -60t-60 -25q-32 0 -52 20.5t-20 50.5q0 34 26 59.5t61 25.5q31 0 50 -19.5t19 -51.5z" />
<glyph unicode="&#x1eb8;" horiz-adv-x="537" d="M504 100v-100h-419v522q0 102 -9 166h407l14 -14l-3 -86l-281 7v-212l235 4l-3 -93l-232 5v-206zM390 -157q0 -35 -24 -60t-60 -25q-32 0 -52 20.5t-20 50.5q0 35 25.5 60t60.5 25q31 0 50.5 -19.5t19.5 -51.5z" />
<glyph unicode="&#x1eb9;" horiz-adv-x="523" d="M477 251l-15 -15h-281q7 -79 46.5 -117.5t103.5 -38.5q63 0 124 36l8 -83q-65 -43 -165 -43q-113 0 -180 66t-67 186q0 121 67 193.5t168 72.5q88 0 140 -56t52 -146q0 -37 -1 -55zM280 433q-43 0 -70 -40.5t-30 -110.5l174 7q1 11 1 36q0 48 -19.5 78t-55.5 30z M362 -157q0 -35 -24 -60t-60 -25q-32 0 -52 20.5t-20 50.5q0 35 25.5 60t61.5 25q31 0 50 -19.5t19 -51.5z" />
<glyph unicode="&#x1ebc;" horiz-adv-x="537" d="M221 922q33 0 80 -28t70 -28q35 0 62 48l33 -5q-2 -52 -28 -90t-72 -38q-31 0 -82 28t-72 28q-35 0 -61 -48l-33 5q3 52 28 90t75 38zM504 100v-100h-419v522q0 102 -9 166h407l14 -14l-3 -86l-281 7v-212l235 4l-3 -93l-232 5v-206z" />
<glyph unicode="&#x1ebd;" horiz-adv-x="523" d="M196 742q32 0 79.5 -28.5t68.5 -28.5q19 0 31 12t25 36l37 -5q-3 -57 -28 -98.5t-70 -41.5q-30 0 -81 28.5t-70 28.5q-31 0 -55 -49l-36 6q4 57 28 98.5t71 41.5zM477 251l-15 -15h-281q7 -79 46.5 -117.5t103.5 -38.5q63 0 124 36l8 -83q-65 -43 -165 -43 q-113 0 -180 66t-67 186q0 121 67 193.5t168 72.5q88 0 140 -56t52 -146q0 -37 -1 -55zM280 433q-43 0 -70 -40.5t-30 -110.5l174 7q1 11 1 36q0 48 -19.5 78t-55.5 30z" />
<glyph unicode="&#x1eca;" horiz-adv-x="298" d="M213 0h-128v517q0 95 -9 171l123 10l14 -14v-684zM228 -157q0 -35 -24 -60t-60 -25q-32 0 -52 20.5t-20 50.5q0 35 25.5 60t61.5 25q30 0 49.5 -19.5t19.5 -51.5z" />
<glyph unicode="&#x1ecb;" horiz-adv-x="281" d="M217 672q0 -35 -24 -60.5t-60 -25.5q-32 0 -52 21t-20 51q0 35 25.5 60t61.5 25q30 0 49.5 -19.5t19.5 -51.5zM77 0v327q0 89 -12 166l123 15l14 -14v-494h-125zM222 -157q0 -35 -24 -60t-60 -25q-32 0 -52 20.5t-20 50.5q0 35 25.5 60t60.5 25q31 0 50.5 -19.5 t19.5 -51.5z" />
<glyph unicode="&#x1ecc;" horiz-adv-x="707" d="M657 346q0 -168 -88 -262t-223 -94q-132 0 -214 91.5t-82 251.5q0 165 88 265t224 100q134 0 214.5 -95.5t80.5 -256.5zM183 345q0 -115 44.5 -186.5t126.5 -71.5q83 0 126.5 68.5t43.5 187.5q0 117 -41.5 187.5t-124.5 70.5q-82 0 -128.5 -69t-46.5 -187zM440 -157 q0 -35 -24 -60t-59 -25q-32 0 -52 20.5t-20 50.5q0 35 25.5 60t60.5 25q31 0 50 -19.5t19 -51.5z" />
<glyph unicode="&#x1ecd;" horiz-adv-x="563" d="M513 252q0 -125 -68.5 -193.5t-169.5 -68.5q-99 0 -161.5 67t-62.5 185q0 124 67.5 195t169.5 71q101 0 163 -69.5t62 -186.5zM180 252q0 -187 102 -187q49 0 75 47.5t26 132.5q0 188 -101 188q-49 0 -75.5 -46t-26.5 -135zM360 -157q0 -35 -24 -60t-60 -25 q-32 0 -52 20.5t-20 50.5q0 35 25.5 60t60.5 25q31 0 50.5 -19.5t19.5 -51.5z" />
<glyph unicode="&#x1ee4;" horiz-adv-x="666" d="M73 518q0 87 -10 171l126 9l13 -13v-444q0 -73 36.5 -112.5t98.5 -39.5q61 0 97 39.5t36 112.5v301q0 80 -10 147l133 8v-465q0 -116 -75 -179t-189 -63q-113 0 -184.5 63t-71.5 179v286zM411 -157q0 -35 -24 -60t-60 -25q-32 0 -52 20.5t-20 50.5q0 35 25.5 60t61.5 25 q30 0 49.5 -19.5t19.5 -51.5z" />
<glyph unicode="&#x1ee5;" horiz-adv-x="569" d="M77 326q0 78 -11 166l122 16l14 -14v-326q0 -83 70 -83q45 0 91 35v378l125 10v-372q0 -72 17 -135l-104 -11q-14 29 -26 74h-4q-71 -74 -158 -74q-63 0 -99.5 37.5t-36.5 101.5v197zM363 -157q0 -35 -24 -60t-60 -25q-32 0 -52 20.5t-20 50.5q0 34 26 59.5t61 25.5 q31 0 50 -19.5t19 -51.5z" />
<glyph unicode="&#x1ef2;" horiz-adv-x="571" d="M432 768q-153 10 -268 69l-6 21l76 67q84 -65 208 -125zM221 232l-207 453l137 13l91 -220q42 -109 54 -146h3q27 71 58 146l89 220l104 -8l8 -14l-208 -446v-230h-129v232z" />
<glyph unicode="&#x1ef3;" horiz-adv-x="483" d="M306 571q-97 69 -158 163l7 21l113 12q27 -83 85 -184zM473 486l-150 -456q-20 -62 -41.5 -107.5t-55 -88t-81 -66t-108.5 -26.5l-18 110q148 8 205 155h-52l-157 490l131 11l67 -251q34 -106 42 -170h2q10 58 45 170l67 251l96 -8z" />
<glyph unicode="&#x1ef8;" horiz-adv-x="571" d="M228 916q33 0 80 -28t70 -28q35 0 62 48l33 -5q-2 -52 -27.5 -90t-72.5 -38q-31 0 -81.5 28t-72.5 28q-34 0 -60 -48l-33 5q2 52 27 90t75 38zM221 232l-207 453l137 13l91 -220q42 -109 54 -146h3q27 71 58 146l89 220l104 -8l8 -14l-208 -446v-230h-129v232z" />
<glyph unicode="&#x1ef9;" horiz-adv-x="483" d="M178 742q32 0 79.5 -28.5t68.5 -28.5q19 0 31 12t25 36l36 -5q-3 -56 -27.5 -98t-69.5 -42q-30 0 -81 28.5t-70 28.5q-31 0 -56 -49l-35 6q4 57 28 98.5t71 41.5zM473 486l-150 -456q-20 -62 -41.5 -107.5t-55 -88t-81 -66t-108.5 -26.5l-18 110q148 8 205 155h-52 l-157 490l131 11l67 -251q34 -106 42 -170h2q10 58 45 170l67 251l96 -8z" />
<glyph unicode="&#x2007;" />
<glyph unicode="&#x2013;" horiz-adv-x="554" d="M30 262v44h494v-44h-494z" />
<glyph unicode="&#x2014;" horiz-adv-x="857" d="M30 262v44h797v-44h-797z" />
<glyph unicode="&#x2018;" horiz-adv-x="263" d="M222 736q-56 -82 -71 -150q26 -4 43.5 -24.5t17.5 -48.5q0 -34 -24.5 -59.5t-58.5 -25.5q-33 0 -55 22.5t-22 64.5q0 61 41.5 132t90.5 122z" />
<glyph unicode="&#x2019;" horiz-adv-x="263" d="M41 451q56 82 71 150q-26 4 -43.5 24.5t-17.5 48.5q0 34 24.5 59.5t58.5 25.5q33 0 54.5 -22.5t21.5 -64.5q0 -61 -41 -132t-90 -122z" />
<glyph unicode="&#x201a;" horiz-adv-x="263" d="M41 -159q56 82 71 150q-27 4 -44 24t-17 49q0 34 24.5 59.5t58.5 25.5q33 0 54.5 -22.5t21.5 -64.5q0 -61 -41.5 -133t-89.5 -121z" />
<glyph unicode="&#x201c;" horiz-adv-x="488" d="M222 736q-56 -82 -71 -150q26 -4 43.5 -24.5t17.5 -48.5q0 -34 -24.5 -59.5t-58.5 -25.5q-33 0 -55 22.5t-22 64.5q0 61 41.5 132t90.5 122zM447 736q-57 -87 -70 -150q26 -4 43 -24.5t17 -48.5q0 -34 -24 -59.5t-59 -25.5q-33 0 -54.5 22.5t-21.5 64.5q0 60 41 131 t90 123z" />
<glyph unicode="&#x201d;" horiz-adv-x="488" d="M267 451q57 86 70 151q-26 4 -43 24t-17 48q0 35 24 60t59 25q33 0 54.5 -22.5t21.5 -63.5q0 -61 -41.5 -132.5t-89.5 -121.5zM41 451q56 81 71 151q-27 4 -44 24t-17 48q0 35 24.5 60t58.5 25q33 0 54.5 -22.5t21.5 -63.5q0 -61 -41.5 -133t-89.5 -121z" />
<glyph unicode="&#x201e;" horiz-adv-x="485" d="M41 -159q56 82 71 150q-27 4 -44 24t-17 49q0 34 24.5 59.5t58.5 25.5q33 0 54.5 -22.5t21.5 -64.5q0 -61 -41.5 -133t-89.5 -121zM263 -159q56 82 71 150q-27 4 -44 24t-17 49q0 34 24 59.5t59 25.5q33 0 54.5 -22.5t21.5 -64.5q0 -61 -41.5 -133t-89.5 -121z" />
<glyph unicode="&#x2020;" horiz-adv-x="505" d="M285 0l-64 -1l-7 11l-30 147l38 297l-164 -16l-3 3q-6 44 -6 82l12 7l159 -15l-29 174l3 4q53 5 112 5l8 -8l-30 -176l163 16l3 -3q6 -44 6 -82l-11 -7l-162 16l38 -297l-30 -147z" />
<glyph unicode="&#x2021;" horiz-adv-x="505" d="M194 -7l-8 7l36 180l-161 -26l-12 8q0 50 6 96l3 3l165 -26q-17 83 -17 112q0 18 17 110l-165 -26l-3 3q-6 46 -6 96l12 8l162 -26l-37 177l3 4q58 5 122 5l7 -8l-36 -178l165 26l3 -3q6 -46 6 -96l-11 -8l-163 25q17 -90 17 -109q0 -17 -17 -112l163 26l11 -8 q0 -50 -6 -96l-3 -3l-165 26l36 -178l-3 -4q-55 -5 -121 -5z" />
<glyph unicode="&#x2022;" horiz-adv-x="473" d="M232 116q-57 0 -93.5 36t-38.5 88q-2 60 42 105t107 45q53 0 88 -34.5t36 -89.5q2 -61 -38 -105.5t-103 -44.5z" />
<glyph unicode="&#x2026;" horiz-adv-x="733" d="M212 71q0 -34 -23.5 -57.5t-57.5 -23.5q-33 0 -55.5 22t-22.5 55q0 34 24.5 58t59.5 24q32 0 53.5 -22t21.5 -56zM446 71q0 -34 -23.5 -57.5t-57.5 -23.5t-56 22t-22 55q0 34 24.5 58t59.5 24q32 0 53.5 -22t21.5 -56zM679 71q0 -34 -23.5 -57.5t-57.5 -23.5t-56 22 t-22 55q0 34 24.5 58t59.5 24q32 0 53.5 -22t21.5 -56z" />
<glyph unicode="&#x2030;" horiz-adv-x="1437" d="M431 499q0 -97 -56.5 -151t-138.5 -54t-133.5 52t-51.5 144q0 97 55.5 152.5t140.5 55.5q83 0 133.5 -54t50.5 -145zM737 698l-424 -708h-55l423 708h56zM158 499q0 -145 83 -145q40 0 61 37t21 102q0 145 -82 145q-83 0 -83 -139zM912 127q0 -97 -56.5 -151t-138.5 -54 t-133.5 52t-51.5 144q0 97 55.5 152.5t140.5 55.5q83 0 133.5 -54t50.5 -145zM1387 127q0 -97 -56.5 -151t-139.5 -54q-82 0 -133.5 52t-51.5 144q0 97 56 152.5t140 55.5q83 0 134 -54t51 -145zM639 127q0 -145 83 -145q40 0 61 37t21 102q0 145 -82 145q-83 0 -83 -139z M1114 127q0 -145 83 -145q40 0 61 37t21 102q0 145 -82 145q-83 0 -83 -139z" />
<glyph unicode="&#x2039;" horiz-adv-x="289" d="M46 276v34q78 66 171 188l32 -14q-30 -95 -100 -191q70 -98 100 -192l-32 -14q-92 121 -171 189z" />
<glyph unicode="&#x203a;" horiz-adv-x="289" d="M243 276q-81 -69 -171 -189l-33 14q33 99 101 192q-68 91 -101 191l33 14q91 -121 171 -188v-34z" />
<glyph unicode="&#x2044;" horiz-adv-x="604" d="M542 700l-425 -710h-55l424 710h56z" />
<glyph unicode="&#x2070;" horiz-adv-x="460" d="M412 557q0 -101 -53.5 -157t-132.5 -56q-78 0 -127.5 55t-49.5 151q0 99 53 157.5t133 58.5q79 0 128 -57t49 -152zM148 557q0 -158 83 -158q81 0 81 154q0 157 -82 157t-82 -153z" />
<glyph unicode="&#x2074;" horiz-adv-x="419" d="M37 505l166 255l106 6l11 -9v-244q20 1 58 5l-7 -71h-51v-95h-92v95h-180zM116 513v-2q8 0 43.5 0.5t68.5 0.5v77q0 76 4 110h-1z" />
<glyph unicode="&#x2075;" horiz-adv-x="395" d="M58 358l9 63q42 -15 94 -15q39 0 63.5 18.5t24.5 51.5q0 32 -22 48t-57 16q-46 0 -85 -16l-14 8v226h158q64 0 104 6l-6 -76h-178v-92q25 6 59 6q61 0 100.5 -31.5t39.5 -88.5q0 -65 -51.5 -101.5t-132.5 -36.5q-58 0 -106 14z" />
<glyph unicode="&#x2076;" horiz-adv-x="414" d="M214 344q-73 0 -119 46.5t-46 133.5q0 107 64.5 174.5t171.5 67.5q37 0 55 -7l-8 -65q-28 7 -47 7q-50 0 -89 -33.5t-47 -96.5h2q35 22 89 22q59 0 94.5 -31t35.5 -85q0 -62 -45 -97.5t-111 -35.5zM210 538q-43 0 -62 -24q1 -60 15 -87t46 -27q30 0 46 19t16 51 q0 31 -16 49.5t-45 18.5z" />
<glyph unicode="&#x2077;" horiz-adv-x="360" d="M34 678l8 80h286l12 -10v-50q-158 -153 -165 -346h-100q6 92 57 183.5t119 150.5v2h-87q-76 0 -130 -10z" />
<glyph unicode="&#x2078;" horiz-adv-x="419" d="M205 344q-73 0 -117 29.5t-44 76.5q0 40 30 68.5t72 40.5v2q-84 43 -84 101q0 45 42.5 74.5t108.5 29.5q68 0 106 -30t38 -70q0 -30 -23 -56.5t-60 -42.5v-2q101 -41 101 -106q0 -48 -46 -81.5t-124 -33.5zM211 714q-25 0 -42.5 -13t-17.5 -35q0 -43 68 -71q49 32 49 71 q0 21 -16.5 34.5t-40.5 13.5zM200 524q-65 -26 -65 -73q0 -25 20.5 -40.5t52.5 -15.5t53 15t22 40q1 24 -20.5 42t-62.5 32z" />
<glyph unicode="&#x2079;" horiz-adv-x="414" d="M44 627q0 63 45 101t112 38q72 0 118 -45.5t46 -132.5q0 -102 -62.5 -173t-170.5 -71q-32 0 -49 5l-2 64q30 -4 47 -4q117 0 137 121q-36 -24 -83 -24q-63 0 -100.5 32t-37.5 89zM143 632q0 -33 17 -52t48 -19q37 0 57 24q-5 120 -64 120q-27 0 -42.5 -20t-15.5 -53z" />
<glyph unicode="&#x207f;" horiz-adv-x="481" d="M172 290h-104v254q0 57 -16 124l97 18q13 -31 18 -56q62 56 134 56q52 0 82 -31t30 -88v-277h-104v257q0 69 -60 69q-39 0 -77 -28v-298z" />
<glyph unicode="&#x2080;" horiz-adv-x="460" d="M412 133q0 -101 -53.5 -157t-132.5 -56q-78 0 -127.5 55t-49.5 151q0 99 53 157.5t133 58.5q79 0 128 -57t49 -152zM148 133q0 -158 83 -158q81 0 81 154q0 157 -82 157t-82 -153z" />
<glyph unicode="&#x2081;" horiz-adv-x="275" d="M105 254h-1l-66 -9l-14 54l165 45l11 -10v-404h-96v242q0 58 1 82z" />
<glyph unicode="&#x2082;" horiz-adv-x="377" d="M49 -70l-11 63q191 129 191 217q0 31 -19 50t-52 19q-53 0 -110 -43l-9 71q62 37 142 37q64 0 105.5 -31.5t41.5 -82.5q0 -60 -58 -120.5t-141 -109.5h93q54 0 105 6l-7 -76h-271z" />
<glyph unicode="&#x2083;" horiz-adv-x="373" d="M45 310q60 32 134 32q58 0 95.5 -25.5t37.5 -65.5q0 -34 -27 -63.5t-73 -41.5q56 -7 88.5 -34t32.5 -70q0 -54 -50.5 -88t-131.5 -34q-63 0 -111 14l9 60q45 -14 98 -14q39 0 63 15.5t24 43.5q0 55 -102 55q-16 0 -52 -4v60q58 7 95.5 28.5t37.5 52.5q0 21 -16 33.5 t-46 12.5q-48 0 -101 -28z" />
<glyph unicode="&#x2084;" horiz-adv-x="419" d="M37 83l166 255l106 6l11 -9v-244q20 1 58 5l-7 -71h-51v-95h-92v95h-180zM116 91v-2q8 0 43.5 0.5t68.5 0.5v77q0 76 4 110h-1z" />
<glyph unicode="&#x2085;" horiz-adv-x="395" d="M58 -66l9 63q42 -15 94 -15q39 0 63.5 18.5t24.5 51.5q0 32 -22 48t-57 16q-46 0 -85 -16l-14 8v226h158q64 0 104 6l-6 -76h-178v-92q26 6 59 6q61 0 100.5 -31.5t39.5 -88.5q0 -65 -51.5 -101.5t-132.5 -36.5q-58 0 -106 14z" />
<glyph unicode="&#x2086;" horiz-adv-x="414" d="M214 -80q-73 0 -119 46.5t-46 133.5q0 107 64.5 174.5t171.5 67.5q37 0 55 -7l-8 -65q-28 7 -47 7q-50 0 -89 -33.5t-47 -96.5h2q35 22 89 22q59 0 94.5 -31t35.5 -85q0 -62 -45 -97.5t-111 -35.5zM210 114q-43 0 -62 -24q1 -60 15 -87t46 -27q30 0 46 19t16 51 q0 31 -16 49.5t-45 18.5z" />
<glyph unicode="&#x2087;" horiz-adv-x="360" d="M34 256l8 80h286l12 -10v-50q-158 -153 -165 -346h-100q6 92 57 183.5t119 150.5v2h-87q-76 0 -130 -10z" />
<glyph unicode="&#x2088;" horiz-adv-x="419" d="M205 -80q-73 0 -117 29.5t-44 76.5q0 40 30 68.5t72 40.5v2q-84 43 -84 101q0 45 42.5 74.5t108.5 29.5q68 0 106 -30t38 -70q0 -30 -23 -56.5t-60 -42.5v-2q101 -41 101 -106q0 -48 -46 -81.5t-124 -33.5zM211 290q-25 0 -42.5 -13t-17.5 -35q0 -43 68 -71q49 32 49 71 q0 21 -16.5 34.5t-40.5 13.5zM200 100q-65 -26 -65 -73q0 -25 20.5 -40.5t52.5 -15.5t53 15t22 40q1 24 -20.5 42t-62.5 32z" />
<glyph unicode="&#x2089;" horiz-adv-x="414" d="M44 203q0 63 45 101t112 38q72 0 118 -45.5t46 -132.5q0 -102 -62.5 -173t-170.5 -71q-32 0 -49 5l-2 64q30 -4 47 -4q117 0 137 121q-36 -24 -83 -24q-63 0 -100.5 32t-37.5 89zM143 208q0 -33 17 -52t48 -19q37 0 57 24q-5 120 -64 120q-27 0 -42.5 -20t-15.5 -53z" />
<glyph unicode="&#x20ac;" horiz-adv-x="582" d="M30 248l4 48h58q-1 12 -1 35q0 18 2 50h-50l4 49h53q23 125 99.5 196.5t188.5 71.5q93 0 156 -42l-24 -111q-68 47 -130 47q-59 0 -100.5 -42.5t-57.5 -119.5h211l-4 -49h-213q-2 -24 -2 -39q0 -16 2 -46h204l-4 -48h-192q16 -73 58 -112.5t105 -39.5q73 0 137 46 l15 -105q-71 -47 -169 -47q-115 0 -189 67.5t-94 190.5h-67z" />
<glyph unicode="&#x2122;" horiz-adv-x="580" d="M503 690l8 -5l24 -225h-55l-9 82q-5 73 -6 94h-2q-7 -48 -21 -95l-22 -81h-62l-22 81q-11 41 -22 96h-1q-4 -69 -7 -96l-9 -81h-46l25 228l75 2l22 -70q12 -48 20 -108h1q12 79 20 108l21 68zM164 460h-57v186q-23 0 -67 -2l3 43h186l4 -43q-46 2 -69 2v-186z" />
<glyph unicode="&#x2202;" horiz-adv-x="668" d="M311 758q142 0 215.5 -107.5t73.5 -271.5q0 -73 -15.5 -138.5t-48 -123.5t-93 -92.5t-142.5 -34.5q-111 0 -174 61t-63 160q0 110 75 180t203 70q65 0 123 -22q-11 105 -59 164t-124 59q-84 0 -149 -56l-43 81q39 30 98 50.5t123 20.5zM196 216q0 -60 30.5 -94.5 t82.5 -34.5q73 0 116 65.5t43 187.5q-50 25 -110 25q-81 0 -121.5 -40t-40.5 -109z" />
<glyph unicode="&#x220f;" horiz-adv-x="755" d="M705 674l-5 -83h-93v-731h-125v731h-211v-731h-125v731h-93l-3 95l641 2z" />
<glyph unicode="&#x2211;" horiz-adv-x="583" d="M47 -46l237 326l-237 325l22 83h474l14 -14l-3 -86l-371 8l219 -300v-33l-218 -300l372 8l-1 -100h-486z" />
<glyph unicode="&#x2212;" d="M519 313h-450v65q170 5 451 5l7 -7z" />
<glyph unicode="&#x221a;" horiz-adv-x="628" d="M605 736l-216 -736h-135l-146 404h-97v94h186l130 -407l167 667l103 -8z" />
<glyph unicode="&#x221e;" horiz-adv-x="842" d="M772 271q0 -80 -48.5 -131.5t-125.5 -51.5q-59 0 -100 29.5t-76 81.5q-75 -111 -184 -111q-75 0 -122 50.5t-47 130.5t49 131.5t125 51.5q101 0 177 -110q75 110 183 110q75 0 122 -50.5t47 -130.5zM591 384q-81 0 -135 -100l1 -2q34 -62 65.5 -94t76.5 -32q44 0 72 31.5 t28 82.5t-30.5 82.5t-77.5 31.5zM143 273q0 -52 30 -84t77 -32q39 0 75.5 28t60.5 71l-1 2q-21 34 -32 50t-30 37.5t-38.5 30t-42.5 8.5q-44 0 -71.5 -30.5t-27.5 -80.5z" />
<glyph unicode="&#x222b;" horiz-adv-x="456" d="M166 -174q31 0 45 17t14 56q0 35 -55 344q-49 269 -49 331q0 91 47.5 137.5t131.5 46.5q65 0 130 -28l-10 -96q-66 40 -120 40q-60 0 -60 -71q0 -27 54 -340q3 -19 11 -60t11 -59t8.5 -50.5t8.5 -50.5t6 -41t4 -40t1 -32q0 -95 -47.5 -141.5t-131.5 -46.5q-65 0 -130 28 l10 96q66 -40 121 -40z" />
<glyph unicode="&#x2248;" d="M428 317q-26 0 -138 30t-125 30q-9 0 -21.5 -14t-35.5 -44l-9 -12l-41 28q17 32 30.5 53t36.5 42t44 21q25 0 137.5 -30t125.5 -30t61 62q4 4 6 7l40 -27q-63 -116 -111 -116zM428 104q-26 0 -138 30.5t-125 30.5q-9 0 -21.5 -14t-35.5 -44l-9 -12l-41 28q13 24 22.5 39 t25 35.5t31.5 31t32 10.5q25 0 137.5 -30t125.5 -30t61 62q4 4 6 7l40 -28q-64 -116 -111 -116z" />
<glyph unicode="&#x2260;" d="M145 123l46 96h-122v65q46 1 155 3l60 125h-215v66q189 3 248 4l57 119l9 2l55 -29l-44 -92q50 1 126 1l7 -7l-8 -64h-158l-60 -124q84 1 219 1l7 -7l-8 -63h-251l-59 -123l-9 -2z" />
<glyph unicode="&#x2264;" d="M178 434l343 -129v-70l-458 175v43l6 9q229 88 451 163v-70zM516 86h-450v65q170 5 451 5l7 -6z" />
<glyph unicode="&#x2265;" d="M75 235v70l344 129l-343 121v70q196 -65 452 -163l5 -9v-43zM522 86h-450v65q170 5 451 5l7 -6z" />
<glyph unicode="&#x25ca;" horiz-adv-x="626" d="M67 323v38l211 329l78 10l220 -340v-37l-216 -323l-77 -10zM317 639l-180 -298l181 -289h4l185 290l-185 297h-5z" />
<glyph unicode="&#x25fc;" horiz-adv-x="510" d="M0 510h510v-510h-510v510z" />
<glyph unicode="&#xfb00;" horiz-adv-x="641" d="M220 0h-125v421l-73 4v46l73 15q-3 40 -3 71q0 86 54.5 133.5t146.5 47.5q73 0 136 -29q52 49 146 49q77 0 130 -31l-26 -95q-53 33 -103 33q-78 0 -78 -92q0 -18 3 -87h128l9 -13l-3 -56l-132 4v-421h-125v421h-158v-421zM215 554q0 -5 3 -68h160q0 10 -1.5 39t-1.5 40 q0 34 8 64q-40 25 -85 25q-83 0 -83 -100z" />
<glyph unicode="&#xfb01;" horiz-adv-x="584" d="M220 0h-125v421l-73 4v46l73 15q-3 45 -3 77q0 93 53.5 144t149.5 51q115 0 188 -61l-58 -77q-65 45 -126 45q-84 0 -84 -99q0 -44 3 -80h148l123 22l14 -14v-494h-125v327q0 47 -3 90l-155 4v-421z" />
<glyph unicode="&#xfb02;" horiz-adv-x="583" d="M220 0h-125v421l-73 4v46l73 15q-3 45 -3 80q0 92 55.5 142t156.5 50q44 0 92 -12l97 12l14 -14v-744h-125v417l-162 4v-421zM215 573q0 -18 3 -87h164v91q0 50 -2 73q-38 15 -76 15q-89 0 -89 -92z" />
<glyph unicode="&#xfb03;" horiz-adv-x="867" d="M220 0h-125v421l-73 4v46l73 15q-3 42 -3 71q0 85 56 133t149 48q76 0 134 -29q54 49 147 49q114 0 189 -61l-59 -77q-63 45 -125 45q-45 0 -65 -24.5t-20 -74.5q0 -44 3 -80h149l123 22l14 -14v-494h-125v327q0 51 -4 90l-155 4v-421h-125v421h-158v-421zM215 554 q0 -5 3 -68h160q0 12 -1.5 40t-1.5 37q0 34 7 59q-38 23 -81 23q-86 0 -86 -91z" />
<glyph unicode="&#xfb04;" horiz-adv-x="866" d="M220 0h-125v421l-73 4v46l73 15q-3 42 -3 71q0 85 56 133t149 48q72 0 135 -29q55 49 155 49q44 0 92 -12l97 12l15 -14v-744h-125v417l-163 4v-421h-125v421h-158v-421zM498 573q0 -18 3 -87h164h1v91q0 27 -2 73q-38 15 -77 15q-89 0 -89 -92zM215 554q0 -5 3 -68h160 q0 9 -1.5 38.5t-1.5 41.5q0 30 6 56q-36 23 -80 23q-86 0 -86 -91z" />
<glyph unicode="&#xfb06;" horiz-adv-x="817" d="M389 480l-9 -96q-74 40 -135 40q-36 0 -57.5 -15t-21.5 -40q0 -24 24.5 -43t59.5 -33.5t70.5 -32.5t60 -49.5t24.5 -74.5q0 -67 -54.5 -106.5t-145.5 -39.5q-98 0 -164 36l9 95q80 -47 158 -47q36 0 56 15t20 38q0 24 -24.5 43t-59.5 33.5t-70 32t-59.5 49t-24.5 74.5 q0 67 55 108t145 41q37 0 69 -7q-18 41 -18 83q0 73 50.5 118.5t131.5 45.5q77 0 125 -43.5t48 -119.5q0 -39 -13 -87h136l10 -14l-6 -54l-140 3v-258q0 -95 70 -95q38 0 78 24l10 -78q-57 -36 -128 -36q-80 0 -117.5 51t-37.5 130v264l-63 1v47l66 15q12 36 12 74 q0 45 -20 71t-57 26q-38 0 -62.5 -26.5t-24.5 -71.5q0 -46 24 -91z" />
<glyph horiz-adv-x="293" d="M286 864l-6 -21q-114 -59 -268 -69l-10 32q123 61 207 125zM40 -208l-40 56q80 89 80 254v415q0 79 -12 166l127 15l13 -13v-583q0 -120 -36.5 -188.5t-131.5 -121.5z" />
<glyph horiz-adv-x="430" d="M361 36q0 -62 18 -106l-88 -8q-13 23 -21 54h-3q-17 -24 -50 -39t-72 -15q-49 0 -78.5 25t-29.5 69q0 63 61 95t161 36v35q0 68 -75 68q-65 0 -125 -33l-5 79q76 30 156 30q75 0 114.5 -33.5t39.5 -96.5q0 -28 -1.5 -82.5t-1.5 -77.5zM140 33q0 -22 14 -36.5t39 -14.5 q37 0 66 26v104q-52 -4 -85.5 -24.5t-33.5 -54.5z" />
<glyph horiz-adv-x="476" d="M429 127q0 -98 -49 -151.5t-135 -53.5q-52 0 -94 14l-87 -14v457q0 57 -10 130l102 12l12 -11v-220q44 36 103 36q73 0 115.5 -53.5t42.5 -145.5zM230 261q-35 0 -62 -19v-255q26 -9 57 -9q97 0 97 143q0 140 -92 140z" />
<glyph horiz-adv-x="408" d="M374 297l-23 -79q-48 32 -97 32q-46 0 -73 -31.5t-27 -88.5q0 -63 30.5 -98.5t86.5 -35.5q44 0 91 25l7 -67q-51 -32 -125 -32q-89 1 -143 54t-54 145q0 93 56.5 149t147.5 56q73 0 123 -29z" />
<glyph horiz-adv-x="482" d="M299 509l102 12l12 -11v-475q0 -58 19 -105l-90 -8q-10 17 -23 53h-1q-41 -53 -113 -53q-71 0 -114.5 50.5t-43.5 138.5q0 102 58.5 158.5t151.5 56.5q25 0 52 -5v58q0 66 -10 130zM154 125q0 -65 25.5 -104t68.5 -39q33 0 61 24v261q-19 4 -40 4q-54 0 -84.5 -37.5 t-30.5 -108.5z" />
<glyph horiz-adv-x="439" d="M397 126l-12 -12h-230q13 -118 122 -118q56 0 102 27l7 -67q-53 -34 -136 -34q-93 0 -148 52t-55 145q0 94 55 150.5t138 56.5q73 0 115.5 -43.5t42.5 -114.5q0 -28 -1 -42zM235 266q-34 0 -56.5 -31t-24.5 -84l141 5q1 8 1 28q0 36 -15.5 59t-45.5 23z" />
<glyph horiz-adv-x="317" d="M185 -70h-104v326l-59 4v37l59 12q-2 46 -2 61q0 72 43.5 111.5t121.5 39.5q64 0 107 -24l-22 -77q-41 25 -84 25q-64 0 -64 -69q0 -16 3 -67h104l8 -11l-3 -45l-108 3v-326z" />
<glyph horiz-adv-x="430" d="M90 -22q0 42 43 70q-43 15 -68.5 48.5t-25.5 78.5q0 64 46 107.5t122 43.5q61 0 97 -26q14 23 40.5 35.5t55.5 12.5l13 -9l-2 -66h-85q42 -34 42 -91q0 -63 -45 -104t-119 -41q-11 0 -29 2q-6 -11 -6 -23q0 -16 10 -23t32 -9l73 -5q58 -3 93.5 -28t35.5 -73 q0 -61 -59 -103t-160 -42q-82 0 -131.5 27t-49.5 70q0 26 18.5 45.5t43.5 26.5l38 -16q-11 -15 -11 -27q0 -31 29 -53t77 -22q44 0 72 19t28 49q0 49 -72 55l-66 6q-80 8 -80 65zM269 181q0 93 -64 93q-66 0 -66 -93q0 -92 66 -92q64 0 64 92z" />
<glyph horiz-adv-x="477" d="M168 -70h-104v449q0 64 -10 130l102 12l12 -11v-236q60 52 129 52q52 0 82 -31t30 -88v-277h-104v257q0 69 -60 69q-39 0 -77 -28v-298z" />
<glyph horiz-adv-x="239" d="M182 470q0 -29 -19.5 -49.5t-49.5 -20.5q-26 0 -42.5 16.5t-16.5 40.5q0 28 21 48.5t51 20.5q25 0 40.5 -15.5t15.5 -40.5zM66 -70v254q0 72 -10 130l103 12l11 -11v-385h-104z" />
<glyph horiz-adv-x="240" d="M182 470q0 -29 -19.5 -49.5t-49.5 -20.5q-27 0 -43 16.5t-16 40.5q0 28 21 48.5t50 20.5q26 0 41.5 -15.5t15.5 -40.5zM69 -268l-41 37q40 80 40 176v239q0 64 -10 130l102 12l12 -11v-370q0 -76 -22.5 -123t-80.5 -90z" />
<glyph horiz-adv-x="446" d="M64 379q0 66 -10 130l102 12l12 -11v-360h44q29 43 106 176l84 -8l7 -12l-109 -151q29 -53 134 -225l-118 -8q-54 88 -100 173h-48v-165h-104v449z" />
<glyph horiz-adv-x="236" d="M167 -70h-104v449q0 66 -10 130l103 12l11 -11v-580z" />
<glyph horiz-adv-x="715" d="M172 -70h-104v254q0 57 -16 124l97 18q13 -31 18 -56q61 56 131 56q76 0 101 -61q63 61 136 61q53 0 82.5 -31t29.5 -86v-279h-105v260q0 66 -59 66q-35 0 -75 -28q1 -6 1 -19v-279h-104v260q0 66 -59 66q-36 0 -74 -28v-298z" />
<glyph horiz-adv-x="481" d="M172 -70h-104v254q0 57 -16 124l97 18q13 -31 18 -56q62 56 134 56q52 0 82 -31t30 -88v-277h-104v257q0 69 -60 69q-39 0 -77 -28v-298z" />
<glyph horiz-adv-x="473" d="M427 127q0 -97 -56.5 -151t-139.5 -54q-82 0 -133 52t-51 144q0 97 55.5 152.5t139.5 55.5q83 0 134 -54t51 -145zM154 127q0 -145 83 -145q40 0 61 37t21 102q0 145 -82 145q-83 0 -83 -139z" />
<glyph horiz-adv-x="481" d="M68 -255v439q0 54 -16 124l97 18q8 -17 15 -42q47 42 113 42q70 0 113.5 -53.5t43.5 -143.5q0 -96 -48.5 -151.5t-136.5 -55.5q-41 0 -77 11v-58q0 -70 9 -129l-101 -13zM234 261q-37 0 -62 -20v-252q25 -11 56 -11q98 0 98 145q0 138 -92 138z" />
<glyph horiz-adv-x="482" d="M309 -255v217q-43 -40 -104 -40q-71 0 -114.5 53t-43.5 142q0 98 56 153.5t148 55.5q44 0 82 -11l80 11v-450q0 -71 9 -130l-102 -13zM154 125q0 -66 24.5 -104.5t68.5 -38.5q35 0 62 22v264q-19 3 -34 3q-59 0 -90 -38t-31 -108z" />
<glyph horiz-adv-x="336" d="M172 -70h-104v254q0 57 -16 124l97 18q19 -47 22 -82q51 82 110 82q23 0 40 -11l-11 -96q-33 7 -46 7q-52 0 -92 -31v-265z" />
<glyph horiz-adv-x="374" d="M323 305l-7 -78q-59 31 -111 31q-30 0 -47 -11t-17 -30q0 -20 20 -34.5t49 -26t58 -25t49 -38t20 -57.5q0 -52 -44.5 -83t-120.5 -31q-82 0 -135 29l8 76q66 -37 130 -37q30 0 46 11t16 29q0 23 -30.5 41.5t-67.5 31t-67.5 40.5t-30.5 67q0 52 45.5 84t120.5 32 q63 0 116 -21z" />
<glyph horiz-adv-x="327" d="M292 264l-114 2v-198q0 -72 56 -72q32 0 65 18l8 -63q-48 -29 -106 -29q-127 0 -127 143v203l-57 1v37l59 12l26 98l65 4l13 -12l-2 -90h112l7 -11z" />
<glyph horiz-adv-x="475" d="M66 183q0 59 -8 131l101 12l11 -11v-252q0 -64 58 -64q36 0 73 26v293l104 8v-290q0 -51 14 -105l-86 -9q-14 25 -22 58h-4q-58 -58 -129 -58q-52 0 -82 29.5t-30 79.5v152z" />
<glyph horiz-adv-x="409" d="M392 309l-131 -381h-113l-132 390l109 8l55 -197q27 -79 34 -129h1q8 47 36 129l55 197l80 -6z" />
<glyph horiz-adv-x="653" d="M129 -72l-113 390l107 8l46 -190q23 -72 30 -121h2q11 58 30 119l43 188h124l44 -185q30 -113 31 -122h1q10 53 30 120l46 191l81 -6l7 -11l-112 -381h-124l-45 175q-25 90 -31 132h-1q-4 -37 -29 -132l-46 -175h-121z" />
<glyph horiz-adv-x="407" d="M277 -70l-87 147l-82 -147h-83l-6 11l118 183l-118 192l106 10l90 -159l84 159l83 -6l5 -11l-119 -184l119 -195h-110z" />
<glyph horiz-adv-x="405" d="M392 309l-122 -349q-16 -49 -34 -84.5t-45 -69.5t-66.5 -52.5t-89.5 -20.5l-16 90q122 5 169 111l-44 1l-128 383l109 8l55 -197q27 -79 34 -129h1q8 47 36 129l55 197l80 -6z" />
<glyph horiz-adv-x="375" d="M28 235l6 83h297l11 -64l-202 -244l82 1q78 0 128 6l-7 -87h-306l-12 65l208 244z" />
<glyph horiz-adv-x="430" d="M361 396q0 -62 18 -106l-88 -8q-13 23 -21 54h-3q-17 -24 -50 -39t-72 -15q-49 0 -78.5 25t-29.5 69q0 63 61 95t161 36v35q0 68 -75 68q-65 0 -125 -33l-5 79q76 30 156 30q75 0 114.5 -33.5t39.5 -96.5q0 -28 -1.5 -83t-1.5 -77zM140 393q0 -22 14 -36.5t39 -14.5 q37 0 66 26v104q-52 -4 -85.5 -24.5t-33.5 -54.5z" />
<glyph horiz-adv-x="476" d="M429 487q0 -98 -49 -151.5t-135 -53.5q-52 0 -94 14l-87 -14v457q0 57 -10 130l102 12l12 -11v-220q44 36 103 36q73 0 115.5 -53.5t42.5 -145.5zM230 621q-35 0 -62 -19v-255q26 -9 57 -9q97 0 97 143q0 140 -92 140z" />
<glyph horiz-adv-x="408" d="M374 657l-23 -79q-48 32 -97 32q-46 0 -73 -31.5t-27 -88.5q0 -63 30.5 -98.5t86.5 -35.5q44 0 91 25l7 -67q-51 -32 -125 -32q-89 1 -143 54t-54 145q0 93 56.5 149t147.5 56q73 0 123 -29z" />
<glyph horiz-adv-x="482" d="M299 869l102 12l12 -11v-475q0 -58 19 -105l-90 -8q-10 17 -23 53h-1q-41 -53 -113 -53q-71 0 -114.5 50.5t-43.5 138.5q0 102 58.5 158.5t151.5 56.5q25 0 52 -5v58q0 66 -10 130zM154 485q0 -65 25.5 -104t68.5 -39q33 0 61 24v261q-19 4 -40 4q-54 0 -84.5 -37.5 t-30.5 -108.5z" />
<glyph horiz-adv-x="439" d="M397 486l-12 -12h-230q13 -118 122 -118q56 0 102 27l7 -67q-53 -34 -136 -34q-93 0 -148 52t-55 145q0 94 55 150.5t138 56.5q73 0 115.5 -43.5t42.5 -114.5q0 -28 -1 -42zM235 626q-34 0 -56.5 -31t-24.5 -84l141 5q1 8 1 28q0 36 -15.5 59t-45.5 23z" />
<glyph horiz-adv-x="317" d="M185 290h-104v326l-59 4v37l59 12q-2 46 -2 61q0 72 43.5 111.5t121.5 39.5q64 0 107 -24l-22 -77q-41 25 -84 25q-64 0 -64 -69q0 -16 3 -67h104l8 -11l-3 -45l-108 3v-326z" />
<glyph horiz-adv-x="430" d="M90 338q0 42 43 70q-43 15 -68.5 48.5t-25.5 78.5q0 64 46 107.5t122 43.5q61 0 97 -26q14 23 40.5 35.5t55.5 12.5l13 -9l-2 -66h-85q42 -34 42 -91q0 -63 -45 -104t-119 -41q-11 0 -29 2q-6 -11 -6 -23q0 -16 10 -23t32 -9l73 -5q58 -3 93.5 -28t35.5 -73 q0 -61 -59 -103t-160 -42q-82 0 -131.5 27t-49.5 70q0 26 18.5 45.5t43.5 26.5l38 -16q-11 -15 -11 -27q0 -31 29 -53t77 -22q44 0 72 19t28 49q0 49 -72 55l-66 6q-80 8 -80 65zM269 541q0 93 -64 93q-66 0 -66 -93q0 -92 66 -92q64 0 64 92z" />
<glyph horiz-adv-x="477" d="M168 290h-104v449q0 64 -10 130l102 12l12 -11v-236q60 52 129 52q52 0 82 -31t30 -88v-277h-104v257q0 69 -60 69q-39 0 -77 -28v-298z" />
<glyph horiz-adv-x="239" d="M182 830q0 -29 -19.5 -49.5t-49.5 -20.5q-26 0 -42.5 16.5t-16.5 40.5q0 28 21 48.5t51 20.5q25 0 40.5 -15.5t15.5 -40.5zM66 290v254q0 72 -10 130l103 12l11 -11v-385h-104z" />
<glyph horiz-adv-x="240" d="M182 830q0 -29 -19.5 -49.5t-49.5 -20.5q-27 0 -43 16.5t-16 40.5q0 28 21 48.5t50 20.5q26 0 41.5 -15.5t15.5 -40.5zM69 92l-41 37q40 80 40 176v239q0 64 -10 130l102 12l12 -11v-370q0 -76 -22.5 -123t-80.5 -90z" />
<glyph horiz-adv-x="446" d="M64 739q0 66 -10 130l102 12l12 -11v-360h44q29 43 106 176l84 -8l7 -12l-109 -151q29 -53 134 -225l-118 -8q-54 88 -100 173h-48v-165h-104v449z" />
<glyph horiz-adv-x="236" d="M167 290h-104v449q0 66 -10 130l103 12l11 -11v-580z" />
<glyph horiz-adv-x="715" d="M172 290h-104v254q0 57 -16 124l97 18q13 -31 18 -56q61 56 131 56q76 0 101 -61q63 61 136 61q53 0 82.5 -31t29.5 -86v-279h-105v260q0 66 -59 66q-35 0 -75 -28q1 -6 1 -19v-279h-104v260q0 66 -59 66q-36 0 -74 -28v-298z" />
<glyph horiz-adv-x="473" d="M427 487q0 -97 -56.5 -151t-139.5 -54q-82 0 -133 52t-51 144q0 97 55.5 152.5t139.5 55.5q83 0 134 -54t51 -145zM154 487q0 -145 83 -145q40 0 61 37t21 102q0 145 -82 145q-83 0 -83 -139z" />
<glyph horiz-adv-x="481" d="M68 105v439q0 54 -16 124l97 18q8 -17 15 -42q47 42 113 42q70 0 113.5 -53.5t43.5 -143.5q0 -96 -48.5 -151.5t-136.5 -55.5q-41 0 -77 11v-58q0 -70 9 -129l-101 -13zM234 621q-37 0 -62 -20v-252q25 -11 56 -11q98 0 98 145q0 138 -92 138z" />
<glyph horiz-adv-x="482" d="M309 105v217q-43 -40 -104 -40q-71 0 -114.5 53t-43.5 142q0 98 56 153.5t148 55.5q44 0 82 -11l80 11v-450q0 -71 9 -130l-102 -13zM154 485q0 -66 24.5 -104.5t68.5 -38.5q35 0 62 22v264q-19 3 -34 3q-59 0 -90 -38t-31 -108z" />
<glyph horiz-adv-x="336" d="M172 290h-104v254q0 57 -16 124l97 18q19 -47 22 -82q51 82 110 82q23 0 40 -11l-11 -96q-33 7 -46 7q-52 0 -92 -31v-265z" />
<glyph horiz-adv-x="374" d="M323 665l-7 -78q-59 31 -111 31q-30 0 -47 -11t-17 -30q0 -20 20 -34.5t49 -26t58 -25t49 -38t20 -57.5q0 -52 -44.5 -83t-120.5 -31q-82 0 -135 29l8 76q66 -37 130 -37q30 0 46 11t16 29q0 23 -30.5 41.5t-67.5 31t-67.5 40.5t-30.5 67q0 52 45.5 84t120.5 32 q63 0 116 -21z" />
<glyph horiz-adv-x="327" d="M292 624l-114 2v-198q0 -72 56 -72q32 0 65 18l8 -63q-48 -29 -106 -29q-127 0 -127 143v203l-57 1v37l59 12l26 98l65 4l13 -12l-2 -90h112l7 -11z" />
<glyph horiz-adv-x="475" d="M66 543q0 59 -8 131l101 12l11 -11v-252q0 -64 58 -64q36 0 73 26v293l104 8v-290q0 -51 14 -105l-86 -9q-14 25 -22 58h-4q-58 -58 -129 -58q-52 0 -82 29.5t-30 79.5v152z" />
<glyph horiz-adv-x="409" d="M392 669l-131 -381h-113l-132 390l109 8l55 -197q27 -79 34 -129h1q8 47 36 129l55 197l80 -6z" />
<glyph horiz-adv-x="653" d="M129 288l-113 390l107 8l46 -190q23 -72 30 -121h2q11 58 30 119l43 188h124l44 -185q30 -113 31 -122h1q10 53 30 120l46 191l81 -6l7 -11l-112 -381h-124l-45 175q-25 90 -31 132h-1q-4 -37 -29 -132l-46 -175h-121z" />
<glyph horiz-adv-x="407" d="M277 290l-87 147l-82 -147h-83l-6 11l118 183l-118 192l106 10l90 -159l84 159l83 -6l5 -11l-119 -184l119 -195h-110z" />
<glyph horiz-adv-x="405" d="M392 669l-122 -349q-16 -49 -34 -84.5t-45 -69.5t-66.5 -52.5t-89.5 -20.5l-16 90q122 5 169 111l-44 1l-128 383l109 8l55 -197q27 -79 34 -129h1q8 47 36 129l55 197l80 -6z" />
<glyph horiz-adv-x="375" d="M28 595l6 83h297l11 -64l-202 -244l82 1q78 0 128 6l-7 -87h-306l-12 65l208 244z" />
<glyph horiz-adv-x="283" d="M234 754l7 -21q-59 -91 -159 -163l-46 11q59 103 85 184zM55 -258l-47 46q70 81 70 216v323q0 86 -11 166l122 15l14 -14v-484q0 -101 -33.5 -162t-114.5 -106z" />
<glyph horiz-adv-x="1057" d="M684 0h-125v577q0 27 -2 75q-16 4 -34 4q-53 0 -85.5 -24.5t-32.5 -65.5q0 -52 44 -95l-28 -97q-59 41 -118 41q-56 0 -89.5 -42t-33.5 -117q0 -82 37.5 -129t104.5 -47q51 0 112 34l8 -83q-62 -41 -151 -41q-109 1 -174.5 69t-65.5 185q0 120 69 192t179 72q26 0 50 -3 q-29 43 -29 91q0 70 65.5 116t177.5 46q54 0 121 -14v-303q75 67 157 67q64 0 100.5 -40t36.5 -113v-355h-125v331q0 90 -74 90q-46 0 -95 -37v-384z" />
<glyph horiz-adv-x="864" d="M564 498q12 36 12 74q0 45 -20 71t-56 26q-39 0 -63.5 -26t-24.5 -70q0 -53 37 -102l-28 -97q-59 41 -116 41q-58 0 -91.5 -42t-33.5 -119q0 -81 37.5 -127.5t103.5 -46.5q52 0 113 34l8 -83q-62 -41 -148 -41q-111 0 -177 68t-66 186q0 121 69 192.5t182 71.5 q28 0 60 -5q-18 39 -18 81q0 73 50.5 118.5t131.5 45.5q77 0 125 -43.5t48 -119.5q0 -39 -13 -87h136l10 -14l-6 -54l-140 3v-258q0 -95 70 -95q38 0 78 24l10 -78q-57 -36 -128 -36q-80 0 -117.5 51t-37.5 130v264l-63 1v47z" />
<glyph horiz-adv-x="1012" d="M389 480l-9 -96q-74 40 -135 40q-36 0 -57.5 -15t-21.5 -40q0 -24 24.5 -43t59.5 -33.5t70.5 -32.5t60 -49.5t24.5 -74.5q0 -67 -54.5 -106.5t-145.5 -39.5q-98 0 -164 36l9 95q80 -47 158 -47q36 0 56 15t20 38q0 24 -24.5 43t-59.5 33.5t-70 32t-59.5 49t-24.5 74.5 q0 67 55 108t145 41q25 0 57 -5q-29 46 -29 92q0 71 65.5 117t178.5 46q53 0 120 -14v-303q75 67 158 67q64 0 100 -40t36 -113v-355h-125v331q0 90 -74 90q-46 0 -95 -37v-384h-125v577q0 51 -2 75q-15 4 -34 4q-52 0 -85 -24.5t-33 -66.5q0 -45 30 -85z" />
<glyph horiz-adv-x="547" d="M131 0h-118l152 456q15 44 26 84l146 7l19 -17l178 -530h-125l-39 117h-200zM219 261l-20 -58h142l-19 57q-38 123 -50 180h-3q-19 -81 -50 -179z" />
<glyph horiz-adv-x="547" d="M369 795l8 -22q-61 -93 -159 -162l-46 11q61 108 85 184zM131 0h-118l152 456q15 44 26 84l146 7l19 -17l178 -530h-125l-39 117h-200zM219 261l-20 -58h142l-19 57q-38 123 -50 180h-3q-19 -81 -50 -179z" />
<glyph horiz-adv-x="547" d="M364 790l51 5q-7 -76 -46 -122t-101 -46q-56 0 -94 42.5t-44 114.5l51 7q9 -37 33.5 -58.5t59.5 -21.5q33 0 57.5 22t32.5 57zM131 0h-118l152 456q15 44 26 84l146 7l19 -17l178 -530h-125l-39 117h-200zM219 261l-20 -58h142l-19 57q-38 123 -50 180h-3 q-19 -81 -50 -179z" />
<glyph horiz-adv-x="547" d="M394 811l39 -29q-53 -69 -109 -160l-88 -8q-45 78 -113 168l39 29q47 -34 118 -105q73 73 114 105zM131 0h-118l152 456q15 44 26 84l146 7l19 -17l178 -530h-125l-39 117h-200zM219 261l-20 -58h142l-19 57q-38 123 -50 180h-3q-19 -81 -50 -179z" />
<glyph horiz-adv-x="547" d="M162 603l-39 29q53 69 109 160l88 8q49 -83 113 -168l-39 -29q-47 34 -118 105q-73 -73 -114 -105zM131 0h-118l152 456q15 44 26 84l146 7l19 -17l178 -530h-125l-39 117h-200zM219 261l-20 -58h142l-19 57q-38 123 -50 180h-3q-19 -81 -50 -179z" />
<glyph horiz-adv-x="547" d="M236 713q0 -34 -22 -57.5t-55 -23.5q-29 0 -47.5 19.5t-18.5 47.5q0 32 23.5 56t56.5 24q28 0 45.5 -18t17.5 -48zM455 713q0 -34 -22 -57.5t-55 -23.5q-29 0 -47.5 19.5t-18.5 47.5q0 32 23.5 56t55.5 24q29 0 46.5 -18t17.5 -48zM131 0h-118l152 456q15 44 26 84l146 7 l19 -17l178 -530h-125l-39 117h-200zM219 261l-20 -58h142l-19 57q-38 123 -50 180h-3q-19 -81 -50 -179z" />
<glyph horiz-adv-x="547" d="M131 0h-118l152 456q15 44 26 84l146 7l19 -17l178 -530h-125l-39 117h-200zM219 261l-20 -58h142l-19 57q-38 123 -50 180h-3q-19 -81 -50 -179zM352 -159q0 -35 -24 -60.5t-60 -25.5q-32 0 -52 20.5t-20 51.5q0 34 26 59.5t61 25.5q31 0 50 -19.5t19 -51.5z" />
<glyph horiz-adv-x="547" d="M330 612q-98 70 -158 162l7 22l113 11q25 -79 85 -184zM131 0h-118l152 456q15 44 26 84l146 7l19 -17l178 -530h-125l-39 117h-200zM219 261l-20 -58h142l-19 57q-38 123 -50 180h-3q-19 -81 -50 -179z" />
<glyph horiz-adv-x="547" d="M132 669v72h285v-72h-285zM131 0h-118l152 456q15 44 26 84l146 7l19 -17l178 -530h-125l-39 117h-200zM219 261l-20 -58h142l-19 57q-38 123 -50 180h-3q-19 -81 -50 -179z" />
<glyph horiz-adv-x="547" d="M131 0h-118l152 456q15 44 26 84l146 7l19 -17l178 -530q-113 -59 -113 -123q0 -46 48 -46q25 0 54 13l19 -45q-53 -44 -117 -44q-48 0 -78 25.5t-30 68.5q0 42 34 81.5t96 69.5h-38l-39 117h-200zM219 261l-20 -58h142l-19 57q-38 123 -50 180h-3q-19 -81 -50 -179z" />
<glyph horiz-adv-x="547" d="M392 716q0 -44 -33.5 -75t-81.5 -31q-43 0 -71.5 25.5t-28.5 63.5q0 43 35 74t83 31q43 0 70 -25t27 -63zM233 703q0 -21 13.5 -34.5t35.5 -13.5t38 16.5t16 39.5q0 22 -12.5 35.5t-33.5 13.5q-23 0 -40 -17t-17 -40zM131 0h-118l152 456q15 44 26 84l146 7l19 -17 l178 -530h-125l-39 117h-200zM219 261l-20 -58h142l-19 57q-38 123 -50 180h-3q-19 -81 -50 -179z" />
<glyph horiz-adv-x="547" d="M380 1060l7 -21q-61 -94 -158 -163l-47 12q58 101 85 183zM392 716q0 -44 -33.5 -75t-81.5 -31q-43 0 -71.5 25.5t-28.5 63.5q0 43 35 74t83 31q43 0 70 -25t27 -63zM233 703q0 -21 13.5 -34.5t35.5 -13.5t38 16.5t16 39.5q0 22 -12.5 35.5t-33.5 13.5q-23 0 -40 -17 t-17 -40zM131 0h-118l152 456q15 44 26 84l146 7l19 -17l178 -530h-125l-39 117h-200zM219 261l-20 -58h142l-19 57q-38 123 -50 180h-3q-19 -81 -50 -179z" />
<glyph horiz-adv-x="547" d="M202 782q32 0 79.5 -28.5t68.5 -28.5q18 0 30.5 12t25.5 37l36 -6q-3 -56 -27.5 -98t-69.5 -42q-30 0 -81 28.5t-70 28.5q-30 0 -56 -48l-35 5q3 57 27 98.5t72 41.5zM131 0h-118l152 456q15 44 26 84l146 7l19 -17l178 -530h-125l-39 117h-200zM219 261l-20 -58h142 l-19 57q-38 123 -50 180h-3q-19 -81 -50 -179z" />
<glyph horiz-adv-x="701" d="M131 0h-118l181 456q18 46 26 84h394l14 -14l-2 -79l-214 5l20 -146l181 3l-3 -85l-167 4l19 -141l211 6v-93h-324q-2 19 -5.5 58.5t-5.5 58.5h-159q-8 -20 -25.5 -62t-22.5 -55zM298 440q-24 -86 -84 -237h116q-15 160 -18 237h-14z" />
<glyph horiz-adv-x="701" d="M477 795l7 -22q-62 -95 -158 -162l-46 11q61 108 85 184zM131 0h-118l181 456q18 46 26 84h394l14 -14l-2 -79l-214 5l20 -146l181 3l-3 -85l-167 4l19 -141l211 6v-93h-324q-2 19 -5.5 58.5t-5.5 58.5h-159q-8 -20 -25.5 -62t-22.5 -55zM298 440q-24 -86 -84 -237h116 q-15 160 -18 237h-14z" />
<glyph horiz-adv-x="528" d="M270 0h-207v405q0 88 -7 135h218q90 0 143.5 -40t53.5 -103q0 -80 -92 -116q115 -30 115 -133q0 -67 -62.5 -107.5t-161.5 -40.5zM254 454h-66v-142h65q45 0 69 19t24 51q0 34 -23.5 53t-68.5 19zM260 232h-72v-146h73q50 0 77.5 19.5t27.5 52.5q0 34 -26.5 54t-79.5 20z " />
<glyph horiz-adv-x="495" d="M459 124l14 -97q-66 -35 -163 -35q-126 0 -198.5 72t-72.5 199t78 206t200 79q91 0 152 -33l-24 -103q-64 37 -126 37q-68 0 -109.5 -49.5t-41.5 -132.5q0 -82 42 -129t117 -47q71 0 132 33z" />
<glyph horiz-adv-x="495" d="M380 795l8 -22q-61 -93 -159 -162l-46 11q58 101 85 184zM459 124l14 -97q-66 -35 -163 -35q-126 0 -198.5 72t-72.5 199t78 206t200 79q91 0 152 -33l-24 -103q-64 37 -126 37q-68 0 -109.5 -49.5t-41.5 -132.5q0 -82 42 -129t117 -47q71 0 132 33z" />
<glyph horiz-adv-x="495" d="M405 811l40 -29q-53 -67 -110 -160l-88 -8q-45 78 -113 168l39 29q47 -34 118 -105q73 73 114 105zM459 124l14 -97q-66 -35 -163 -35q-126 0 -198.5 72t-72.5 199t78 206t200 79q91 0 152 -33l-24 -103q-64 37 -126 37q-68 0 -109.5 -49.5t-41.5 -132.5q0 -82 42 -129 t117 -47q71 0 132 33z" />
<glyph horiz-adv-x="495" d="M411 -142q0 -36 -30.5 -60.5t-70 -34t-89.5 -11.5v45q99 13 99 56q0 36 -71 38l-14 22l25 82q-104 14 -162.5 84.5t-58.5 183.5q0 127 78 206t200 79q91 0 152 -33l-24 -103q-64 37 -126 37q-68 0 -109.5 -49.5t-41.5 -132.5q0 -82 42 -129t117 -47q71 0 132 33l14 -97 q-59 -32 -147 -35l-17 -53q102 -14 102 -81z" />
<glyph horiz-adv-x="495" d="M173 603l-39 29q53 69 109 160l88 8q51 -86 114 -168l-40 -29q-47 34 -118 105q-76 -76 -114 -105zM459 124l14 -97q-66 -35 -163 -35q-126 0 -198.5 72t-72.5 199t78 206t200 79q91 0 152 -33l-24 -103q-64 37 -126 37q-68 0 -109.5 -49.5t-41.5 -132.5q0 -82 42 -129 t117 -47q71 0 132 33z" />
<glyph horiz-adv-x="495" d="M363 713q0 -35 -24 -60.5t-60 -25.5q-32 0 -52 20.5t-20 50.5q0 35 26 60.5t61 25.5q31 0 50 -19.5t19 -51.5zM459 124l14 -97q-66 -35 -163 -35q-126 0 -198.5 72t-72.5 199t78 206t200 79q91 0 152 -33l-24 -103q-64 37 -126 37q-68 0 -109.5 -49.5t-41.5 -132.5 q0 -82 42 -129t117 -47q71 0 132 33z" />
<glyph horiz-adv-x="581" d="M542 274q0 -128 -85 -201t-215 -73h-179v405q0 88 -7 135h199q131 0 209 -71.5t78 -194.5zM247 453h-59v-367h63q81 0 121.5 49t40.5 133q0 82 -42 133.5t-124 51.5z" />
<glyph horiz-adv-x="581" d="M542 274q0 -128 -85 -201t-215 -73h-179v233h-61v67h61v105q0 88 -7 135h199q131 0 209 -71.5t78 -194.5zM321 233h-133v-147h63q81 0 121.5 49t40.5 133q0 82 -42 133.5t-124 51.5h-59v-153h133v-67z" />
<glyph horiz-adv-x="581" d="M407 811l40 -29q-56 -71 -109 -160l-88 -8q-48 81 -114 168l40 29q42 -31 118 -105q68 69 113 105zM542 274q0 -128 -85 -201t-215 -73h-179v405q0 88 -7 135h199q131 0 209 -71.5t78 -194.5zM247 453h-59v-367h63q81 0 121.5 49t40.5 133q0 82 -42 133.5t-124 51.5z" />
<glyph horiz-adv-x="581" d="M542 274q0 -128 -85 -201t-215 -73h-179v233h-61v67h61v105q0 88 -7 135h199q131 0 209 -71.5t78 -194.5zM321 233h-133v-147h63q81 0 121.5 49t40.5 133q0 82 -42 133.5t-124 51.5h-59v-153h133v-67z" />
<glyph horiz-adv-x="581" d="M542 274q0 -128 -85 -201t-215 -73h-179v405q0 88 -7 135h199q131 0 209 -71.5t78 -194.5zM247 453h-59v-367h63q81 0 121.5 49t40.5 133q0 82 -42 133.5t-124 51.5zM368 -159q0 -35 -24.5 -60.5t-59.5 -25.5q-32 0 -52 20.5t-20 51.5q0 35 25.5 60t60.5 25 q31 0 50.5 -19.5t19.5 -51.5z" />
<glyph horiz-adv-x="460" d="M432 93v-93h-369v405q0 88 -7 135h357l14 -14l-3 -79l-236 7v-148l195 3l-3 -85l-192 5v-143z" />
<glyph horiz-adv-x="460" d="M339 795l7 -22q-62 -95 -158 -162l-47 11q58 101 85 184zM432 93v-93h-369v405q0 88 -7 135h357l14 -14l-3 -79l-236 7v-148l195 3l-3 -85l-192 5v-143z" />
<glyph horiz-adv-x="460" d="M334 790l50 5q-6 -75 -45.5 -121.5t-100.5 -46.5q-57 0 -95 42.5t-43 114.5l51 7q8 -37 33 -58.5t59 -21.5q33 0 57.5 22t33.5 57zM432 93v-93h-369v405q0 88 -7 135h357l14 -14l-3 -79l-236 7v-148l195 3l-3 -85l-192 5v-143z" />
<glyph horiz-adv-x="460" d="M363 811l40 -29q-56 -71 -109 -160l-88 -8q-48 81 -114 168l40 29q42 -31 118 -105q68 69 113 105zM432 93v-93h-369v405q0 88 -7 135h357l14 -14l-3 -79l-236 7v-148l195 3l-3 -85l-192 5v-143z" />
<glyph horiz-adv-x="460" d="M132 603l-40 29q61 78 109 160l88 8q58 -95 114 -168l-40 -29q-50 37 -118 105q-77 -77 -113 -105zM432 93v-93h-369v405q0 88 -7 135h357l14 -14l-3 -79l-236 7v-148l195 3l-3 -85l-192 5v-143z" />
<glyph horiz-adv-x="460" d="M205 713q0 -34 -21.5 -57.5t-54.5 -23.5q-30 0 -48.5 19.5t-18.5 47.5q0 32 24 56t56 24q28 0 45.5 -18t17.5 -48zM424 713q0 -34 -21.5 -57.5t-54.5 -23.5q-30 0 -48.5 19.5t-18.5 47.5q0 32 24 56t56 24q28 0 45.5 -18t17.5 -48zM432 93v-93h-369v405q0 88 -7 135h357 l14 -14l-3 -79l-236 7v-148l195 3l-3 -85l-192 5v-143z" />
<glyph horiz-adv-x="460" d="M322 713q0 -35 -24.5 -60.5t-59.5 -25.5q-32 0 -52 20.5t-20 50.5q0 35 25.5 60.5t60.5 25.5q31 0 50.5 -20t19.5 -51zM432 93v-93h-369v405q0 88 -7 135h357l14 -14l-3 -79l-236 7v-148l195 3l-3 -85l-192 5v-143z" />
<glyph horiz-adv-x="460" d="M432 93v-93h-369v405q0 88 -7 135h357l14 -14l-3 -79l-236 7v-148l195 3l-3 -85l-192 5v-143zM332 -159q0 -35 -24 -60.5t-59 -25.5q-32 0 -52.5 20.5t-20.5 51.5q0 34 26 59.5t61 25.5q31 0 50 -19.5t19 -51.5z" />
<glyph horiz-adv-x="460" d="M300 612q-100 72 -159 162l7 22l113 11q25 -79 85 -184zM432 93v-93h-369v405q0 88 -7 135h357l14 -14l-3 -79l-236 7v-148l195 3l-3 -85l-192 5v-143z" />
<glyph horiz-adv-x="460" d="M101 669v72h285v-72h-285zM432 93v-93h-369v405q0 88 -7 135h357l14 -14l-3 -79l-236 7v-148l195 3l-3 -85l-192 5v-143z" />
<glyph horiz-adv-x="460" d="M432 0q-113 -59 -113 -123q0 -46 48 -46q25 0 55 13l19 -45q-53 -44 -118 -44q-48 0 -77.5 25.5t-29.5 68.5q0 42 34 81.5t96 69.5h-283v405q0 88 -7 135h357l14 -14l-3 -79l-236 7v-148l195 3l-3 -85l-192 5v-143l244 7v-93z" />
<glyph horiz-adv-x="460" d="M172 782q32 0 79 -28.5t68 -28.5q31 0 57 49l36 -6q-3 -56 -28 -98t-70 -42q-30 0 -81 28.5t-70 28.5q-31 0 -55 -48l-36 5q4 57 28 98.5t72 41.5zM432 93v-93h-369v405q0 88 -7 135h357l14 -14l-3 -79l-236 7v-148l195 3l-3 -85l-192 5v-143z" />
<glyph horiz-adv-x="549" d="M41 247l15 15h324q-2 99 -49.5 147.5t-130.5 48.5q-73 0 -138 -36l-7 83q69 43 176 43q128 0 203.5 -71.5t75.5 -200.5q0 -128 -74.5 -207t-189.5 -79q-96 0 -151.5 56t-55.5 154q0 15 2 47zM162 181q0 -116 90 -116q51 0 85.5 40t41.5 111l-215 -7q-2 -18 -2 -28z" />
<glyph horiz-adv-x="429" d="M188 0h-125v405q0 88 -7 135h344l14 -14l-2 -79l-224 7v-162l183 3l-3 -85l-180 5v-215z" />
<glyph horiz-adv-x="547" d="M491 253l14 -13l-2 -215q-83 -33 -183 -33q-134 0 -207.5 70.5t-73.5 193.5q0 131 80.5 211.5t216.5 80.5q89 0 156 -32l-21 -102q-61 37 -130 37q-79 0 -126 -48.5t-47 -137.5q0 -83 42 -131.5t123 -48.5q26 0 53 4q0 80 -11 156z" />
<glyph horiz-adv-x="547" d="M380 795l7 -22q-62 -95 -158 -162l-46 11q61 108 85 184zM491 253l14 -13l-2 -215q-83 -33 -183 -33q-134 0 -207.5 70.5t-73.5 193.5q0 131 80.5 211.5t216.5 80.5q89 0 156 -32l-21 -102q-61 37 -130 37q-79 0 -126 -48.5t-47 -137.5q0 -83 42 -131.5t123 -48.5 q26 0 53 4q0 80 -11 156z" />
<glyph horiz-adv-x="547" d="M375 790l51 5q-7 -76 -46 -122t-101 -46q-57 0 -94.5 42.5t-43.5 114.5l51 7q9 -37 33.5 -58.5t59.5 -21.5q33 0 57.5 22t32.5 57zM491 253l14 -13l-2 -215q-83 -33 -183 -33q-134 0 -207.5 70.5t-73.5 193.5q0 131 80.5 211.5t216.5 80.5q89 0 156 -32l-21 -102 q-61 37 -130 37q-79 0 -126 -48.5t-47 -137.5q0 -83 42 -131.5t123 -48.5q26 0 53 4q0 80 -11 156z" />
<glyph horiz-adv-x="547" d="M405 811l39 -29q-53 -69 -109 -160l-88 -8q-47 81 -114 168l40 29q47 -34 118 -105q76 76 114 105zM491 253l14 -13l-2 -215q-83 -33 -183 -33q-134 0 -207.5 70.5t-73.5 193.5q0 131 80.5 211.5t216.5 80.5q89 0 156 -32l-21 -102q-61 37 -130 37q-79 0 -126 -48.5 t-47 -137.5q0 -83 42 -131.5t123 -48.5q26 0 53 4q0 80 -11 156z" />
<glyph horiz-adv-x="547" d="M173 603l-40 29q56 71 109 160l88 8q53 -87 114 -168l-39 -29q-47 34 -118 105q-73 -73 -114 -105zM491 253l14 -13l-2 -215q-83 -33 -183 -33q-134 0 -207.5 70.5t-73.5 193.5q0 131 80.5 211.5t216.5 80.5q89 0 156 -32l-21 -102q-61 37 -130 37q-79 0 -126 -48.5 t-47 -137.5q0 -83 42 -131.5t123 -48.5q26 0 53 4q0 80 -11 156z" />
<glyph horiz-adv-x="547" d="M491 253l14 -13l-2 -215q-83 -33 -183 -33q-134 0 -207.5 70.5t-73.5 193.5q0 131 80.5 211.5t216.5 80.5q89 0 156 -32l-21 -102q-61 37 -130 37q-79 0 -126 -48.5t-47 -137.5q0 -83 42 -131.5t123 -48.5q26 0 53 4q0 80 -11 156zM250 -320q38 51 51 95q-23 3 -38 20.5 t-15 42.5q0 28 20.5 49.5t50.5 21.5q29 0 48 -20t19 -57q0 -80 -97 -184z" />
<glyph horiz-adv-x="547" d="M363 713q0 -35 -24 -60.5t-60 -25.5q-32 0 -52 20.5t-20 50.5q0 35 25.5 60.5t61.5 25.5q31 0 50 -19.5t19 -51.5zM491 253l14 -13l-2 -215q-83 -33 -183 -33q-134 0 -207.5 70.5t-73.5 193.5q0 131 80.5 211.5t216.5 80.5q89 0 156 -32l-21 -102q-61 37 -130 37 q-79 0 -126 -48.5t-47 -137.5q0 -83 42 -131.5t123 -48.5q26 0 53 4q0 80 -11 156z" />
<glyph horiz-adv-x="598" d="M188 0h-125v400q0 81 -7 140l118 8l14 -14v-223h222v89q0 73 -8 140l119 8l14 -14v-534h-125v224h-222v-224z" />
<glyph horiz-adv-x="598" d="M188 0h-125v388h-70v66h69q-1 45 -6 86l118 8l14 -14v-80h221q-1 32 -7 86l119 8l14 -14v-80h71v-66h-71v-388h-125v224h-222v-224zM188 311h222v77h-222v-77z" />
<glyph horiz-adv-x="598" d="M187 603l-39 29q53 69 109 160l88 8q51 -86 114 -168l-40 -29q-47 34 -118 105q-76 -76 -114 -105zM188 0h-125v400q0 81 -7 140l118 8l14 -14v-223h222v89q0 73 -8 140l119 8l14 -14v-534h-125v224h-222v-224z" />
<glyph horiz-adv-x="598" d="M188 0h-125v400q0 81 -7 140l118 8l14 -14v-223h222v89q0 73 -8 140l119 8l14 -14v-534h-125v224h-222v-224zM377 -159q0 -35 -24 -60.5t-59 -25.5q-32 0 -52.5 20.5t-20.5 51.5q0 34 26 59.5t61 25.5q31 0 50 -19.5t19 -51.5z" />
<glyph horiz-adv-x="251" d="M188 0h-125v400q0 81 -7 140l118 8l14 -14v-534z" />
<glyph horiz-adv-x="251" d="M188 0h-125v400q0 81 -7 140l118 8l14 -14v-534z" />
<glyph horiz-adv-x="251" d="M220 795l7 -22q-62 -95 -158 -162l-47 11q58 101 85 184zM188 0h-125v400q0 81 -7 140l118 8l14 -14v-534z" />
<glyph horiz-adv-x="251" d="M199 784l51 5q-6 -76 -40.5 -122t-89.5 -46q-49 0 -83 42.5t-38 114.5l51 7q5 -37 25.5 -58.5t49.5 -21.5t49 22t25 57zM188 0h-125v400q0 81 -7 140l118 8l14 -14v-534z" />
<glyph horiz-adv-x="251" d="M205 808l43 -18q-34 -79 -62 -168l-119 -8q-27 86 -66 176l42 18q41 -42 83 -108q43 69 79 108zM188 0h-125v400q0 81 -7 140l118 8l14 -14v-534z" />
<glyph horiz-adv-x="251" d="M43 611l-42 19q38 90 62 167l118 8q36 -105 67 -175l-43 -19q-41 44 -83 109q-44 -72 -79 -109zM188 0h-125v400q0 81 -7 140l118 8l14 -14v-534z" />
<glyph horiz-adv-x="251" d="M105 715q0 -34 -20 -58t-50 -24q-27 0 -44.5 19.5t-17.5 47.5q0 33 22.5 57t51.5 24q26 0 42 -18.5t16 -47.5zM276 715q0 -34 -20.5 -58t-50.5 -24q-27 0 -43.5 19.5t-16.5 47.5q0 33 21.5 57t50.5 24q26 0 42.5 -18.5t16.5 -47.5zM188 0h-125v400q0 81 -7 140l118 8 l14 -14v-534z" />
<glyph horiz-adv-x="251" d="M203 713q0 -35 -24.5 -60.5t-59.5 -25.5q-32 0 -52 20.5t-20 50.5q0 35 25.5 60.5t60.5 25.5q31 0 50.5 -20t19.5 -51zM188 0h-125v400q0 81 -7 140l118 8l14 -14v-534z" />
<glyph horiz-adv-x="251" d="M188 0h-125v400q0 81 -7 140l118 8l14 -14v-534zM203 -159q0 -35 -24.5 -60.5t-59.5 -25.5q-32 0 -52 20.5t-20 51.5q0 35 25.5 60t60.5 25q31 0 50.5 -19.5t19.5 -51.5z" />
<glyph horiz-adv-x="251" d="M181 612q-100 72 -159 162l8 22l112 11q25 -79 85 -184zM188 0h-125v400q0 81 -7 140l118 8l14 -14v-534z" />
<glyph horiz-adv-x="503" d="M188 0h-125v400q0 81 -7 140l118 8l14 -14v-534zM284 -155l-35 43q66 77 66 205v307q0 71 -12 134l124 14l13 -13v-442q0 -97 -33 -152t-123 -96z" />
<glyph horiz-adv-x="251" d="M13 669v72h224v-72h-224zM188 0h-125v400q0 81 -7 140l118 8l14 -14v-534z" />
<glyph horiz-adv-x="251" d="M188 0q-71 -59 -71 -115q0 -50 48 -50q25 0 55 13l19 -45q-49 -44 -115 -44q-50 0 -80 26t-30 70q0 82 98 145h-49v400q0 81 -7 140l118 8l14 -14v-534z" />
<glyph horiz-adv-x="251" d="M69 784q25 0 63 -28t52 -28q28 0 45 48l33 -5q-1 -56 -21.5 -98t-60.5 -42q-24 0 -64.5 28t-51.5 28q-26 0 -44 -48l-33 5q2 56 22.5 98t59.5 42zM188 0h-125v400q0 81 -7 140l118 8l14 -14v-534z" />
<glyph horiz-adv-x="252" d="M33 -155l-35 43q66 77 66 205v307q0 71 -12 134l124 14l13 -13v-442q0 -97 -33 -152t-123 -96z" />
<glyph horiz-adv-x="252" d="M33 -155l-35 43q66 77 66 205v307q0 71 -12 134l124 14l13 -13v-442q0 -97 -33 -152t-123 -96z" />
<glyph horiz-adv-x="252" d="M36 611l-42 19q38 90 62 167l118 8q31 -92 67 -175l-43 -19q-41 44 -83 109q-44 -72 -79 -109zM33 -155l-35 43q66 77 66 205v307q0 71 -12 134l124 14l13 -13v-442q0 -97 -33 -152t-123 -96z" />
<glyph horiz-adv-x="538" d="M63 400q0 71 -7 140l118 8l14 -14v-238h61q71 122 139 252l116 -9l7 -12l-160 -245l180 -282l-143 -5q-58 82 -137 215h-63v-210h-125v400z" />
<glyph horiz-adv-x="538" d="M63 400q0 71 -7 140l118 8l14 -14v-238h61q71 122 139 252l116 -9l7 -12l-160 -245l180 -282l-143 -5q-58 82 -137 215h-63v-210h-125v400zM209 -320q38 51 51 95q-23 3 -38 20.5t-15 42.5q0 28 20.5 49.5t50.5 21.5q29 0 48 -20t19 -57q0 -80 -97 -184z" />
<glyph horiz-adv-x="538" d="M63 400q0 71 -7 140l118 8l14 -14v-238h61q71 122 139 252l116 -9l7 -12l-160 -245l180 -282l-143 -5q-58 82 -137 215h-63v-210h-125v400z" />
<glyph horiz-adv-x="436" d="M418 93v-93h-355v400q0 81 -7 140l118 8l14 -14v-448z" />
<glyph horiz-adv-x="436" d="M287 795l7 -22q-62 -95 -158 -162l-47 11q58 101 85 184zM418 93v-93h-355v400q0 81 -7 140l118 8l14 -14v-448z" />
<glyph horiz-adv-x="436" d="M399 593l8 -21q-27 -101 -92 -211l-42 3q22 141 26 226zM418 93v-93h-355v400q0 81 -7 140l118 8l14 -14v-448z" />
<glyph horiz-adv-x="436" d="M418 93v-93h-355v400q0 81 -7 140l118 8l14 -14v-448zM163 -320q39 55 50 95q-22 3 -37 20.5t-15 42.5q0 28 20 49.5t50 21.5q29 0 48 -20t19 -57q0 -81 -96 -184z" />
<glyph horiz-adv-x="436" d="M399 305q0 -35 -24 -60.5t-60 -25.5q-32 0 -52 20.5t-20 51.5q0 34 26 59.5t61 25.5q31 0 50 -19.5t19 -51.5zM418 93v-93h-355v400q0 81 -7 140l118 8l14 -14v-448z" />
<glyph horiz-adv-x="436" d="M418 93v-93h-355v194l-87 -48l-31 56l118 66v132q0 81 -7 140l118 8l14 -14v-197l118 65l31 -56l-149 -83v-177z" />
<glyph horiz-adv-x="754" d="M639 548l17 -14l60 -534h-122l-22 194q-8 57 -21 231h-2q-17 -96 -56 -231l-55 -194h-140l-55 194q-38 126 -56 232h-3q-6 -106 -21 -232l-22 -194h-103l62 541l165 5l60 -186q34 -124 52 -249h2q17 103 51 249l58 181z" />
<glyph horiz-adv-x="595" d="M315 336q67 -99 105 -176h2q-9 62 -9 205q0 90 -8 175l113 6l14 -13v-533h-120q-23 35 -68 105t-67 103q-62 90 -102 166h-2q9 -62 9 -160v-214h-119v405q0 76 -7 135l125 6q79 -127 134 -210z" />
<glyph horiz-adv-x="595" d="M394 795l7 -22q-62 -95 -158 -162l-47 11q58 101 85 184zM315 336q67 -99 105 -176h2q-9 62 -9 205q0 90 -8 175l113 6l14 -13v-533h-120q-23 35 -68 105t-67 103q-62 90 -102 166h-2q9 -62 9 -160v-214h-119v405q0 76 -7 135l125 6q79 -127 134 -210z" />
<glyph horiz-adv-x="595" d="M418 811l40 -29q-56 -71 -109 -160l-88 -8q-48 81 -114 168l40 29q42 -31 118 -105q68 69 113 105zM315 336q67 -99 105 -176h2q-9 62 -9 205q0 90 -8 175l113 6l14 -13v-533h-120q-23 35 -68 105t-67 103q-62 90 -102 166h-2q9 -62 9 -160v-214h-119v405q0 76 -7 135 l125 6q79 -127 134 -210z" />
<glyph horiz-adv-x="595" d="M315 336q67 -99 105 -176h2q-9 62 -9 205q0 90 -8 175l113 6l14 -13v-533h-120q-23 35 -68 105t-67 103q-62 90 -102 166h-2q9 -62 9 -160v-214h-119v405q0 76 -7 135l125 6q79 -127 134 -210zM236 -320q38 51 51 95q-23 3 -38 20.5t-15 42.5q0 28 20.5 49.5t50.5 21.5 q29 0 48 -20t19 -57q0 -82 -97 -184z" />
<glyph horiz-adv-x="595" d="M377 713q0 -35 -24.5 -60.5t-59.5 -25.5q-32 0 -52 20.5t-20 50.5q0 35 25.5 60.5t60.5 25.5q31 0 50.5 -20t19.5 -51zM315 336q67 -99 105 -176h2q-9 62 -9 205q0 90 -8 175l113 6l14 -13v-533h-120q-23 35 -68 105t-67 103q-62 90 -102 166h-2q9 -62 9 -160v-214h-119 v405q0 76 -7 135l125 6q79 -127 134 -210z" />
<glyph horiz-adv-x="595" d="M182 0h-119v405q0 76 -7 135l125 6q79 -127 134 -210q67 -99 105 -176h2q-9 81 -9 205q0 90 -8 175l113 6l14 -13v-440q0 -97 -33 -152t-123 -96l-35 43q54 56 63 124q-17 26 -43.5 67t-46.5 72t-37 57q-62 90 -102 166h-2q9 -62 9 -160v-214z" />
<glyph horiz-adv-x="595" d="M33 -155l-35 43q66 77 66 205v312q0 68 -8 135l125 6q79 -127 134 -210q67 -99 105 -176h2q-9 81 -9 205q0 90 -8 175l113 6l14 -13v-533h-120q-25 37 -69 106.5t-65 101.5q-61 87 -103 166h-2q9 -62 9 -160v-121q0 -98 -31.5 -152.5t-117.5 -95.5z" />
<glyph horiz-adv-x="595" d="M227 782q32 0 79 -28.5t68 -28.5q31 0 57 49l36 -6q-3 -56 -28 -98t-70 -42q-30 0 -81 28.5t-70 28.5q-29 0 -55 -48l-36 5q4 57 28 98.5t72 41.5zM315 336q67 -99 105 -176h2q-9 62 -9 205q0 90 -8 175l113 6l14 -13v-533h-120q-23 35 -68 105t-67 103q-62 90 -102 166 h-2q9 -62 9 -160v-214h-119v405q0 76 -7 135l125 6q79 -127 134 -210z" />
<glyph horiz-adv-x="602" d="M563 272q0 -132 -76 -206t-192 -74q-115 0 -185.5 72t-70.5 197q0 130 75 208.5t194 78.5q116 0 185.5 -75.5t69.5 -200.5zM168 272q0 -84 34 -137t99 -53q67 0 100 50.5t33 136.5t-32 137.5t-98 51.5q-65 0 -100.5 -50.5t-35.5 -135.5z" />
<glyph horiz-adv-x="602" d="M396 795l7 -22q-62 -95 -158 -162l-46 11q61 108 85 184zM563 272q0 -132 -76 -206t-192 -74q-115 0 -185.5 72t-70.5 197q0 130 75 208.5t194 78.5q116 0 185.5 -75.5t69.5 -200.5zM168 272q0 -84 34 -137t99 -53q67 0 100 50.5t33 136.5t-32 137.5t-98 51.5 q-65 0 -100.5 -50.5t-35.5 -135.5z" />
<glyph horiz-adv-x="602" d="M391 790l51 5q-7 -76 -46.5 -122t-100.5 -46q-57 0 -95 42.5t-43 114.5l51 7q9 -37 33.5 -58.5t59.5 -21.5q33 0 57.5 22t32.5 57zM563 272q0 -132 -76 -206t-192 -74q-115 0 -185.5 72t-70.5 197q0 130 75 208.5t194 78.5q116 0 185.5 -75.5t69.5 -200.5zM168 272 q0 -84 34 -137t99 -53q67 0 100 50.5t33 136.5t-32 137.5t-98 51.5q-65 0 -100.5 -50.5t-35.5 -135.5z" />
<glyph horiz-adv-x="602" d="M420 811l40 -29q-53 -69 -109 -160l-88 -8q-47 81 -114 168l40 29q47 -34 118 -105q77 77 113 105zM563 272q0 -132 -76 -206t-192 -74q-115 0 -185.5 72t-70.5 197q0 130 75 208.5t194 78.5q116 0 185.5 -75.5t69.5 -200.5zM168 272q0 -84 34 -137t99 -53q67 0 100 50.5 t33 136.5t-32 137.5t-98 51.5q-65 0 -100.5 -50.5t-35.5 -135.5z" />
<glyph horiz-adv-x="602" d="M189 603l-40 29q56 71 109 160l88 8q53 -87 114 -168l-40 -29q-46 34 -117 105q-73 -73 -114 -105zM563 272q0 -132 -76 -206t-192 -74q-115 0 -185.5 72t-70.5 197q0 130 75 208.5t194 78.5q116 0 185.5 -75.5t69.5 -200.5zM168 272q0 -84 34 -137t99 -53q67 0 100 50.5 t33 136.5t-32 137.5t-98 51.5q-65 0 -100.5 -50.5t-35.5 -135.5z" />
<glyph horiz-adv-x="602" d="M263 713q0 -33 -22 -57t-55 -24q-29 0 -47.5 19.5t-18.5 47.5q0 32 23.5 56t55.5 24q29 0 46.5 -18t17.5 -48zM482 713q0 -33 -22 -57t-55 -24q-30 0 -48 19t-18 48q0 32 23.5 56t55.5 24q29 0 46.5 -18t17.5 -48zM563 272q0 -132 -76 -206t-192 -74q-115 0 -185.5 72 t-70.5 197q0 130 75 208.5t194 78.5q116 0 185.5 -75.5t69.5 -200.5zM168 272q0 -84 34 -137t99 -53q67 0 100 50.5t33 136.5t-32 137.5t-98 51.5q-65 0 -100.5 -50.5t-35.5 -135.5z" />
<glyph horiz-adv-x="602" d="M563 272q0 -132 -76 -206t-192 -74q-115 0 -185.5 72t-70.5 197q0 130 75 208.5t194 78.5q116 0 185.5 -75.5t69.5 -200.5zM168 272q0 -84 34 -137t99 -53q67 0 100 50.5t33 136.5t-32 137.5t-98 51.5q-65 0 -100.5 -50.5t-35.5 -135.5zM379 -159q0 -35 -24 -60.5 t-60 -25.5q-32 0 -52 20.5t-20 51.5q0 35 25.5 60t61.5 25q31 0 50 -19.5t19 -51.5z" />
<glyph horiz-adv-x="602" d="M357 612q-98 70 -158 162l7 22l112 11q23 -71 85 -184zM563 272q0 -132 -76 -206t-192 -74q-115 0 -185.5 72t-70.5 197q0 130 75 208.5t194 78.5q116 0 185.5 -75.5t69.5 -200.5zM168 272q0 -84 34 -137t99 -53q67 0 100 50.5t33 136.5t-32 137.5t-98 51.5 q-65 0 -100.5 -50.5t-35.5 -135.5z" />
<glyph horiz-adv-x="602" d="M303 797l7 -21q-52 -94 -136 -164l-47 11q57 97 85 184zM465 797l7 -21q-52 -94 -136 -164l-47 11q57 97 85 184zM563 272q0 -132 -76 -206t-192 -74q-115 0 -185.5 72t-70.5 197q0 130 75 208.5t194 78.5q116 0 185.5 -75.5t69.5 -200.5zM168 272q0 -84 34 -137t99 -53 q67 0 100 50.5t33 136.5t-32 137.5t-98 51.5q-65 0 -100.5 -50.5t-35.5 -135.5z" />
<glyph horiz-adv-x="602" d="M159 669v72h284v-72h-284zM563 272q0 -132 -76 -206t-192 -74q-115 0 -185.5 72t-70.5 197q0 130 75 208.5t194 78.5q116 0 185.5 -75.5t69.5 -200.5zM168 272q0 -84 34 -137t99 -53q67 0 100 50.5t33 136.5t-32 137.5t-98 51.5q-65 0 -100.5 -50.5t-35.5 -135.5z" />
<glyph horiz-adv-x="602" d="M563 272q0 -168 -121 -241q-118 -78 -118 -148q0 -48 49 -48q24 0 54 13l19 -45q-52 -44 -118 -44q-47 0 -77 25.5t-30 68.5q0 77 100 140q-8 -1 -26 -1q-115 0 -185.5 72t-70.5 197q0 130 75 208.5t194 78.5q116 0 185.5 -75.5t69.5 -200.5zM168 272q0 -84 34 -137 t99 -53q67 0 100 50.5t33 136.5t-32 137.5t-98 51.5q-65 0 -100.5 -50.5t-35.5 -135.5z" />
<glyph horiz-adv-x="602" d="M563 272q0 -132 -76 -206t-192 -74q-98 0 -165 53l-59 -64l-45 43l62 66q-49 70 -49 171q0 130 75 208.5t194 78.5q95 0 160 -53l62 66l46 -42l-65 -69q52 -72 52 -178zM168 272q0 -44 11 -85l215 230q-33 41 -90 41q-65 0 -100.5 -50.5t-35.5 -135.5zM434 269 q0 47 -11 88l-215 -230q35 -45 93 -45q67 0 100 50.5t33 136.5z" />
<glyph horiz-adv-x="602" d="M396 795l7 -22q-62 -95 -158 -162l-46 11q61 108 85 184zM563 272q0 -132 -76 -206t-192 -74q-98 0 -165 53l-59 -64l-45 43l62 66q-49 70 -49 171q0 130 75 208.5t194 78.5q95 0 160 -53l62 66l46 -42l-65 -69q52 -72 52 -178zM168 272q0 -44 11 -85l215 230 q-33 41 -90 41q-65 0 -100.5 -50.5t-35.5 -135.5zM434 269q0 47 -11 88l-215 -230q35 -45 93 -45q67 0 100 50.5t33 136.5z" />
<glyph horiz-adv-x="602" d="M229 782q32 0 79 -28.5t69 -28.5q19 0 31 12t25 37l36 -6q-3 -56 -27.5 -98t-69.5 -42q-30 0 -81.5 28.5t-70.5 28.5q-29 0 -55 -48l-35 5q3 57 27 98.5t72 41.5zM563 272q0 -132 -76 -206t-192 -74q-115 0 -185.5 72t-70.5 197q0 130 75 208.5t194 78.5 q116 0 185.5 -75.5t69.5 -200.5zM168 272q0 -84 34 -137t99 -53q67 0 100 50.5t33 136.5t-32 137.5t-98 51.5q-65 0 -100.5 -50.5t-35.5 -135.5z" />
<glyph horiz-adv-x="798" d="M771 93v-93h-405q-37 -8 -71 -8q-115 0 -185.5 72t-70.5 197q0 130 75 208.5t194 78.5q35 0 69 -8h374l14 -14l-3 -79l-252 4q43 -58 51 -145l160 3l-3 -85l-158 4q-9 -82 -54 -140zM168 272q0 -84 34 -137t99 -53q67 0 100 50.5t33 136.5t-32 137.5t-98 51.5 q-65 0 -100.5 -50.5t-35.5 -135.5z" />
<glyph horiz-adv-x="492" d="M188 0h-125v405q0 88 -7 135h200q100 0 158.5 -49t58.5 -132q0 -88 -65 -137.5t-167 -49.5h-53v-172zM230 454h-42v-196h41q114 0 114 96q0 100 -113 100z" />
<glyph horiz-adv-x="505" d="M188 0h-125v405q0 88 -7 135h132v-81h81q100 0 158.5 -48.5t58.5 -131.5q0 -88 -65 -137.5t-167 -49.5h-66v-92zM243 374h-55v-196h55q114 0 114 96q0 100 -114 100z" />
<glyph horiz-adv-x="603" d="M563 272q0 -110 -53.5 -180t-141.5 -92q106 -40 282 -40l-16 -107q-182 0 -354 139q-108 5 -174.5 76.5t-66.5 192.5q0 130 75 208.5t194 78.5q116 0 185.5 -75.5t69.5 -200.5zM168 272q0 -84 34 -137t99 -53q67 0 100 50.5t33 136.5t-32 137.5t-98 51.5 q-65 0 -100.5 -50.5t-35.5 -135.5z" />
<glyph horiz-adv-x="515" d="M188 0h-125v405q0 88 -7 135h182q112 0 173.5 -46t61.5 -126q0 -55 -28.5 -93t-75.5 -57l135 -218l-143 -5q-54 95 -102 193h-71v-188zM230 454h-42v-183h41q114 0 114 91q0 92 -113 92z" />
<glyph horiz-adv-x="515" d="M354 795l7 -22q-62 -95 -158 -162l-47 11q58 101 85 184zM188 0h-125v405q0 88 -7 135h182q112 0 173.5 -46t61.5 -126q0 -55 -28.5 -93t-75.5 -57l135 -218l-143 -5q-54 95 -102 193h-71v-188zM230 454h-42v-183h41q114 0 114 91q0 92 -113 92z" />
<glyph horiz-adv-x="515" d="M378 811l40 -29q-56 -71 -109 -160l-88 -8q-48 81 -114 168l40 29q46 -34 117 -105q73 73 114 105zM188 0h-125v405q0 88 -7 135h182q112 0 173.5 -46t61.5 -126q0 -55 -28.5 -93t-75.5 -57l135 -218l-143 -5q-54 95 -102 193h-71v-188zM230 454h-42v-183h41 q114 0 114 91q0 92 -113 92z" />
<glyph horiz-adv-x="515" d="M188 0h-125v405q0 88 -7 135h182q112 0 173.5 -46t61.5 -126q0 -55 -28.5 -93t-75.5 -57l135 -218l-143 -5q-54 95 -102 193h-71v-188zM230 454h-42v-183h41q114 0 114 91q0 92 -113 92zM205 -320q38 51 51 95q-23 3 -38 20.5t-15 42.5q0 28 20.5 49.5t50.5 21.5 q29 0 48 -20t19 -57q0 -82 -97 -184z" />
<glyph horiz-adv-x="515" d="M188 0h-125v405q0 88 -7 135h182q112 0 173.5 -46t61.5 -126q0 -55 -28.5 -93t-75.5 -57l135 -218l-143 -5q-54 95 -102 193h-71v-188zM230 454h-42v-183h41q114 0 114 91q0 92 -113 92zM352 -159q0 -35 -24 -60.5t-60 -25.5q-32 0 -52 20.5t-20 51.5q0 34 26 59.5 t61 25.5q31 0 50 -19.5t19 -51.5z" />
<glyph horiz-adv-x="456" d="M417 142q0 -69 -59.5 -109.5t-155.5 -40.5q-106 0 -163 30l9 101q70 -38 160 -38q80 0 80 57q0 24 -25.5 43.5t-61.5 35t-72 35t-61.5 54.5t-25.5 82q0 72 61 114t153 42q84 0 143 -22l-14 -102q-62 31 -129 31q-40 0 -63 -16t-23 -45q0 -26 25.5 -46t62 -35.5 t72.5 -34.5t61.5 -53.5t25.5 -82.5z" />
<glyph horiz-adv-x="456" d="M329 795l7 -22q-61 -93 -159 -162l-46 11q58 101 85 184zM417 142q0 -69 -59.5 -109.5t-155.5 -40.5q-106 0 -163 30l9 101q70 -38 160 -38q80 0 80 57q0 24 -25.5 43.5t-61.5 35t-72 35t-61.5 54.5t-25.5 82q0 72 61 114t153 42q84 0 143 -22l-14 -102q-62 31 -129 31 q-40 0 -63 -16t-23 -45q0 -26 25.5 -46t62 -35.5t72.5 -34.5t61.5 -53.5t25.5 -82.5z" />
<glyph horiz-adv-x="456" d="M353 811l40 -29q-56 -71 -109 -160l-88 -8q-48 81 -114 168l39 29q47 -34 118 -105q73 73 114 105zM417 142q0 -69 -59.5 -109.5t-155.5 -40.5q-106 0 -163 30l9 101q70 -38 160 -38q80 0 80 57q0 24 -25.5 43.5t-61.5 35t-72 35t-61.5 54.5t-25.5 82q0 72 61 114t153 42 q84 0 143 -22l-14 -102q-62 31 -129 31q-40 0 -63 -16t-23 -45q0 -26 25.5 -46t62 -35.5t72.5 -34.5t61.5 -53.5t25.5 -82.5z" />
<glyph horiz-adv-x="456" d="M343 -142q0 -36 -30.5 -60.5t-70.5 -34t-90 -11.5l1 45q98 13 98 56q0 36 -70 38l-14 22l23 79q-100 4 -151 30l9 101q70 -38 160 -38q80 0 80 57q0 24 -25.5 43.5t-61.5 35t-72 35t-61.5 54.5t-25.5 82q0 72 61 114t153 42q84 0 143 -22l-14 -102q-62 31 -129 31 q-40 0 -63 -16t-23 -45q0 -26 25.5 -46t62 -35.5t72.5 -34.5t61.5 -53.5t25.5 -82.5q0 -58 -42.5 -96.5t-115.5 -49.5l-18 -57q102 -14 102 -81z" />
<glyph horiz-adv-x="456" d="M121 603l-39 29q53 69 109 160l88 8q51 -86 114 -168l-40 -29q-47 34 -118 105q-76 -76 -114 -105zM417 142q0 -69 -59.5 -109.5t-155.5 -40.5q-106 0 -163 30l9 101q70 -38 160 -38q80 0 80 57q0 24 -25.5 43.5t-61.5 35t-72 35t-61.5 54.5t-25.5 82q0 72 61 114t153 42 q84 0 143 -22l-14 -102q-62 31 -129 31q-40 0 -63 -16t-23 -45q0 -26 25.5 -46t62 -35.5t72.5 -34.5t61.5 -53.5t25.5 -82.5z" />
<glyph horiz-adv-x="456" d="M417 142q0 -69 -59.5 -109.5t-155.5 -40.5q-106 0 -163 30l9 101q70 -38 160 -38q80 0 80 57q0 24 -25.5 43.5t-61.5 35t-72 35t-61.5 54.5t-25.5 82q0 72 61 114t153 42q84 0 143 -22l-14 -102q-62 31 -129 31q-40 0 -63 -16t-23 -45q0 -26 25.5 -46t62 -35.5 t72.5 -34.5t61.5 -53.5t25.5 -82.5zM162 -320q38 51 51 95q-23 3 -38 20.5t-15 42.5q0 28 20.5 49.5t50.5 21.5q29 0 48 -20t19 -57q0 -80 -97 -184z" />
<glyph horiz-adv-x="456" d="M417 142q0 -69 -59.5 -109.5t-155.5 -40.5q-106 0 -163 30l9 101q70 -38 160 -38q80 0 80 57q0 24 -25.5 43.5t-61.5 35t-72 35t-61.5 54.5t-25.5 82q0 72 61 114t153 42q84 0 143 -22l-14 -102q-62 31 -129 31q-40 0 -63 -16t-23 -45q0 -26 25.5 -46t62 -35.5 t72.5 -34.5t61.5 -53.5t25.5 -82.5zM309 -159q0 -35 -24 -60.5t-60 -25.5q-32 0 -52 20.5t-20 51.5q0 35 25.5 60t61.5 25q30 0 49.5 -19.5t19.5 -51.5z" />
<glyph horiz-adv-x="611" d="M162 -10l-114 10q23 56 23 133v222q0 90 68 141.5t180 51.5q115 0 195 -62v-36l-120 -128q81 -32 129 -73.5t48 -106.5q0 -64 -50 -107t-147 -43q-78 0 -114 15v95q42 -17 91 -17q41 0 66.5 17t25.5 47q0 69 -160 124v28l100 118q-31 36 -85 36q-52 0 -80 -28.5 t-28 -81.5v-202q0 -100 -28 -153z" />
<glyph horiz-adv-x="483" d="M304 0h-125v450q-83 -2 -167 -6l7 96h445l7 -96q-85 5 -167 6v-450z" />
<glyph horiz-adv-x="483" d="M304 0h-125v228h-125v66h125v156q-83 -2 -167 -6l7 96h445l7 -96q-85 5 -167 6v-156h126v-66h-126v-228z" />
<glyph horiz-adv-x="483" d="M361 811l40 -29q-61 -78 -109 -160l-88 -8q-53 89 -114 168l40 29q50 -37 118 -105q77 77 113 105zM304 0h-125v450q-83 -2 -167 -6l7 96h445l7 -96q-85 5 -167 6v-450z" />
<glyph horiz-adv-x="483" d="M304 0h-28l-19 -61q102 -14 102 -81q0 -36 -30.5 -60.5t-70.5 -34t-90 -11.5l1 45q98 13 98 56q0 36 -70 38l-15 22l26 87h-29v450q-83 -2 -167 -6l7 96h445l7 -96q-85 5 -167 6v-450z" />
<glyph horiz-adv-x="483" d="M304 0h-125v450q-83 -2 -167 -6l7 96h445l7 -96q-85 5 -167 6v-450zM178 -320q39 55 50 95q-22 3 -37 20.5t-15 42.5q0 28 20 49.5t50 21.5q29 0 48 -20t19 -57q0 -81 -96 -184z" />
<glyph horiz-adv-x="483" d="M304 0h-125v450q-83 -2 -167 -6l7 96h445l7 -96q-85 5 -167 6v-450zM325 -159q0 -35 -24.5 -60.5t-59.5 -25.5q-32 0 -52 20.5t-20 51.5q0 35 25.5 60t60.5 25q31 0 50.5 -19.5t19.5 -51.5z" />
<glyph horiz-adv-x="570" d="M57 401q0 76 -9 139l121 8l13 -13v-341q0 -53 28.5 -81t78.5 -28t77.5 28t27.5 81v231q0 66 -8 115l127 6v-362q0 -92 -65.5 -142t-165.5 -50q-99 0 -162 50t-63 142v217z" />
<glyph horiz-adv-x="570" d="M381 795l7 -22q-62 -95 -158 -162l-47 11q58 101 85 184zM57 401q0 76 -9 139l121 8l13 -13v-341q0 -53 28.5 -81t78.5 -28t77.5 28t27.5 81v231q0 66 -8 115l127 6v-362q0 -92 -65.5 -142t-165.5 -50q-99 0 -162 50t-63 142v217z" />
<glyph horiz-adv-x="570" d="M376 790l51 5q-7 -76 -46.5 -122t-100.5 -46q-57 0 -95 42.5t-43 114.5l51 7q9 -37 33.5 -58.5t58.5 -21.5q33 0 57.5 22t33.5 57zM57 401q0 76 -9 139l121 8l13 -13v-341q0 -53 28.5 -81t78.5 -28t77.5 28t27.5 81v231q0 66 -8 115l127 6v-362q0 -92 -65.5 -142 t-165.5 -50q-99 0 -162 50t-63 142v217z" />
<glyph horiz-adv-x="570" d="M405 811l40 -29q-56 -71 -109 -160l-88 -8q-48 81 -114 168l40 29q42 -31 118 -105q68 69 113 105zM57 401q0 76 -9 139l121 8l13 -13v-341q0 -53 28.5 -81t78.5 -28t77.5 28t27.5 81v231q0 66 -8 115l127 6v-362q0 -92 -65.5 -142t-165.5 -50q-99 0 -162 50t-63 142v217 z" />
<glyph horiz-adv-x="570" d="M174 603l-40 29q61 78 109 160l88 8q58 -95 114 -168l-40 -29q-50 37 -118 105q-77 -77 -113 -105zM57 401q0 76 -9 139l121 8l13 -13v-341q0 -53 28.5 -81t78.5 -28t77.5 28t27.5 81v231q0 66 -8 115l127 6v-362q0 -92 -65.5 -142t-165.5 -50q-99 0 -162 50t-63 142v217 z" />
<glyph horiz-adv-x="570" d="M247 713q0 -34 -21.5 -57.5t-54.5 -23.5q-30 0 -48.5 19.5t-18.5 47.5q0 32 24 56t56 24q28 0 45.5 -18t17.5 -48zM466 713q0 -34 -21.5 -57.5t-54.5 -23.5q-30 0 -48.5 19.5t-18.5 47.5q0 32 24 56t56 24q28 0 45.5 -18t17.5 -48zM57 401q0 76 -9 139l121 8l13 -13v-341 q0 -53 28.5 -81t78.5 -28t77.5 28t27.5 81v231q0 66 -8 115l127 6v-362q0 -92 -65.5 -142t-165.5 -50q-99 0 -162 50t-63 142v217z" />
<glyph horiz-adv-x="570" d="M381 1036l7 -22q-62 -95 -158 -162l-47 11q58 101 85 184zM247 713q0 -34 -21.5 -57.5t-54.5 -23.5q-30 0 -48.5 19.5t-18.5 47.5q0 32 24 56t56 24q28 0 45.5 -18t17.5 -48zM466 713q0 -34 -21.5 -57.5t-54.5 -23.5q-30 0 -48.5 19.5t-18.5 47.5q0 32 24 56t56 24 q28 0 45.5 -18t17.5 -48zM57 401q0 76 -9 139l121 8l13 -13v-341q0 -53 28.5 -81t78.5 -28t77.5 28t27.5 81v231q0 66 -8 115l127 6v-362q0 -92 -65.5 -142t-165.5 -50q-99 0 -162 50t-63 142v217z" />
<glyph horiz-adv-x="570" d="M405 1052l40 -29q-56 -71 -109 -160l-88 -8q-53 87 -114 168l40 29q42 -31 118 -105q68 69 113 105zM247 713q0 -34 -21.5 -57.5t-54.5 -23.5q-30 0 -48.5 19.5t-18.5 47.5q0 32 24 56t56 24q28 0 45.5 -18t17.5 -48zM466 713q0 -34 -21.5 -57.5t-54.5 -23.5 q-30 0 -48.5 19.5t-18.5 47.5q0 32 24 56t56 24q28 0 45.5 -18t17.5 -48zM57 401q0 76 -9 139l121 8l13 -13v-341q0 -53 28.5 -81t78.5 -28t77.5 28t27.5 81v231q0 66 -8 115l127 6v-362q0 -92 -65.5 -142t-165.5 -50q-99 0 -162 50t-63 142v217z" />
<glyph horiz-adv-x="570" d="M342 853q-98 69 -159 162l8 22l112 11q23 -71 85 -184zM247 713q0 -34 -21.5 -57.5t-54.5 -23.5q-30 0 -48.5 19.5t-18.5 47.5q0 32 24 56t56 24q28 0 45.5 -18t17.5 -48zM466 713q0 -34 -21.5 -57.5t-54.5 -23.5q-30 0 -48.5 19.5t-18.5 47.5q0 32 24 56t56 24 q28 0 45.5 -18t17.5 -48zM57 401q0 76 -9 139l121 8l13 -13v-341q0 -53 28.5 -81t78.5 -28t77.5 28t27.5 81v231q0 66 -8 115l127 6v-362q0 -92 -65.5 -142t-165.5 -50q-99 0 -162 50t-63 142v217z" />
<glyph horiz-adv-x="570" d="M143 910v72h285v-72h-285zM247 713q0 -34 -21.5 -57.5t-54.5 -23.5q-30 0 -48.5 19.5t-18.5 47.5q0 32 24 56t56 24q28 0 45.5 -18t17.5 -48zM466 713q0 -34 -21.5 -57.5t-54.5 -23.5q-30 0 -48.5 19.5t-18.5 47.5q0 32 24 56t56 24q28 0 45.5 -18t17.5 -48zM57 401 q0 76 -9 139l121 8l13 -13v-341q0 -53 28.5 -81t78.5 -28t77.5 28t27.5 81v231q0 66 -8 115l127 6v-362q0 -92 -65.5 -142t-165.5 -50q-99 0 -162 50t-63 142v217z" />
<glyph horiz-adv-x="570" d="M57 401q0 76 -9 139l121 8l13 -13v-341q0 -53 28.5 -81t78.5 -28t77.5 28t27.5 81v231q0 66 -8 115l127 6v-362q0 -92 -65.5 -142t-165.5 -50q-99 0 -162 50t-63 142v217zM364 -159q0 -35 -24.5 -60.5t-59.5 -25.5q-32 0 -52 20.5t-20 51.5q0 35 25.5 60t60.5 25 q31 0 50.5 -19.5t19.5 -51.5z" />
<glyph horiz-adv-x="570" d="M342 612q-100 72 -159 162l8 22l112 11q23 -71 85 -184zM57 401q0 76 -9 139l121 8l13 -13v-341q0 -53 28.5 -81t78.5 -28t77.5 28t27.5 81v231q0 66 -8 115l127 6v-362q0 -92 -65.5 -142t-165.5 -50q-99 0 -162 50t-63 142v217z" />
<glyph horiz-adv-x="570" d="M288 797l7 -21q-50 -91 -136 -164l-47 11q57 97 85 184zM450 797l7 -21q-50 -91 -136 -164l-47 11q57 97 85 184zM57 401q0 76 -9 139l121 8l13 -13v-341q0 -53 28.5 -81t78.5 -28t77.5 28t27.5 81v231q0 66 -8 115l127 6v-362q0 -92 -65.5 -142t-165.5 -50 q-99 0 -162 50t-63 142v217z" />
<glyph horiz-adv-x="570" d="M143 669v72h285v-72h-285zM57 401q0 76 -9 139l121 8l13 -13v-341q0 -53 28.5 -81t78.5 -28t77.5 28t27.5 81v231q0 66 -8 115l127 6v-362q0 -92 -65.5 -142t-165.5 -50q-99 0 -162 50t-63 142v217z" />
<glyph horiz-adv-x="570" d="M57 401q0 76 -9 139l121 8l13 -13v-341q0 -53 28.5 -81t78.5 -28t77.5 28t27.5 81v231q0 66 -8 115l127 6v-362q0 -106 -88 -157q-111 -65 -111 -142q0 -50 48 -50q25 0 55 13l19 -45q-51 -44 -118 -44q-48 0 -77.5 25t-29.5 66q0 79 97 143q-9 -1 -26 -1q-99 0 -162 50 t-63 142v217z" />
<glyph horiz-adv-x="570" d="M404 716q0 -44 -33.5 -75t-81.5 -31q-43 0 -72 25.5t-29 63.5q0 43 35.5 74t83.5 31q42 0 69.5 -25t27.5 -63zM245 703q0 -21 13.5 -34.5t34.5 -13.5q22 0 38 16.5t16 39.5q0 22 -12 35.5t-33 13.5q-24 0 -40.5 -17t-16.5 -40zM57 401q0 76 -9 139l121 8l13 -13v-341 q0 -53 28.5 -81t78.5 -28t77.5 28t27.5 81v231q0 66 -8 115l127 6v-362q0 -92 -65.5 -142t-165.5 -50q-99 0 -162 50t-63 142v217z" />
<glyph horiz-adv-x="570" d="M214 782q32 0 79 -28.5t68 -28.5q31 0 57 49l36 -6q-3 -56 -28 -98t-70 -42q-30 0 -81 28.5t-70 28.5q-29 0 -55 -48l-36 5q4 57 28 98.5t72 41.5zM57 401q0 76 -9 139l121 8l13 -13v-341q0 -53 28.5 -81t78.5 -28t77.5 28t27.5 81v231q0 66 -8 115l127 6v-362 q0 -92 -65.5 -142t-165.5 -50q-99 0 -162 50t-63 142v217z" />
<glyph horiz-adv-x="538" d="M202 -1l-192 536l133 13l99 -298q31 -96 38 -127q15 64 41 129l99 296l100 -7l8 -13l-192 -529h-134z" />
<glyph horiz-adv-x="825" d="M170 -1l-157 536l132 13l76 -286q13 -50 31 -140q13 58 37 142l76 277l120 7l76 -286q24 -80 36 -140q13 67 34 144l75 282l99 -7l8 -13l-158 -529h-133l-69 219q-8 31 -21.5 89t-16.5 71h-2q-21 -87 -40 -162l-69 -217h-134z" />
<glyph horiz-adv-x="825" d="M517 795l7 -22q-61 -93 -159 -162l-46 11q58 101 85 184zM170 -1l-157 536l132 13l76 -286q13 -50 31 -140q13 58 37 142l76 277l120 7l76 -286q24 -80 36 -140q13 67 34 144l75 282l99 -7l8 -13l-158 -529h-133l-69 219q-8 31 -21.5 89t-16.5 71h-2q-21 -87 -40 -162 l-69 -217h-134z" />
<glyph horiz-adv-x="825" d="M309 603l-39 29q53 69 109 160l88 8q51 -86 114 -168l-40 -29q-47 34 -118 105q-76 -76 -114 -105zM170 -1l-157 536l132 13l76 -286q13 -50 31 -140q13 58 37 142l76 277l120 7l76 -286q24 -80 36 -140q13 67 34 144l75 282l99 -7l8 -13l-158 -529h-133l-69 219 q-8 31 -21.5 89t-16.5 71h-2q-21 -87 -40 -162l-69 -217h-134z" />
<glyph horiz-adv-x="825" d="M383 713q0 -34 -22 -57.5t-55 -23.5q-29 0 -47.5 19.5t-18.5 47.5q0 32 23.5 56t56.5 24q28 0 45.5 -18t17.5 -48zM602 713q0 -34 -22 -57.5t-55 -23.5q-29 0 -47.5 19.5t-18.5 47.5q0 32 23.5 56t56.5 24q28 0 45.5 -18t17.5 -48zM170 -1l-157 536l132 13l76 -286 q13 -50 31 -140q13 58 37 142l76 277l120 7l76 -286q24 -80 36 -140q13 67 34 144l75 282l99 -7l8 -13l-158 -529h-133l-69 219q-8 31 -21.5 89t-16.5 71h-2q-21 -87 -40 -162l-69 -217h-134z" />
<glyph horiz-adv-x="825" d="M477 612q-98 70 -158 162l7 22l113 11q25 -79 85 -184zM170 -1l-157 536l132 13l76 -286q13 -50 31 -140q13 58 37 142l76 277l120 7l76 -286q24 -80 36 -140q13 67 34 144l75 282l99 -7l8 -13l-158 -529h-133l-69 219q-8 31 -21.5 89t-16.5 71h-2q-21 -87 -40 -162 l-69 -217h-134z" />
<glyph horiz-adv-x="503" d="M17 0l-7 14l164 244l-164 279l133 10l120 -212h2l113 213l108 -9l7 -13l-161 -261l161 -265h-139l-112 188h-1l-115 -188h-109z" />
<glyph horiz-adv-x="487" d="M181 176l-171 359l133 13l67 -164q34 -84 45 -118h2q1 3 47 118l66 164l100 -7l8 -13l-172 -353v-175h-125v176z" />
<glyph horiz-adv-x="487" d="M339 795l7 -22q-62 -95 -158 -162l-47 11q58 101 85 184zM181 176l-171 359l133 13l67 -164q34 -84 45 -118h2q1 3 47 118l66 164l100 -7l8 -13l-172 -353v-175h-125v176z" />
<glyph horiz-adv-x="487" d="M132 603l-40 29q56 71 109 160l88 8q53 -87 114 -168l-40 -29q-42 31 -118 105q-68 -69 -113 -105zM181 176l-171 359l133 13l67 -164q34 -84 45 -118h2q1 3 47 118l66 164l100 -7l8 -13l-172 -353v-175h-125v176z" />
<glyph horiz-adv-x="487" d="M205 713q0 -34 -21.5 -57.5t-54.5 -23.5q-30 0 -48 19t-18 48q0 32 23.5 56t55.5 24q28 0 45.5 -18t17.5 -48zM424 713q0 -34 -21.5 -57.5t-54.5 -23.5q-30 0 -48 19t-18 48q0 32 23.5 56t55.5 24q28 0 45.5 -18t17.5 -48zM181 176l-171 359l133 13l67 -164 q34 -84 45 -118h2q1 3 47 118l66 164l100 -7l8 -13l-172 -353v-175h-125v176z" />
<glyph horiz-adv-x="487" d="M300 612q-100 72 -159 162l8 22l112 11q23 -71 85 -184zM181 176l-171 359l133 13l67 -164q34 -84 45 -118h2q1 3 47 118l66 164l100 -7l8 -13l-172 -353v-175h-125v176z" />
<glyph horiz-adv-x="487" d="M101 669v72h285v-72h-285zM181 176l-171 359l133 13l67 -164q34 -84 45 -118h2q1 3 47 118l66 164l100 -7l8 -13l-172 -353v-175h-125v176z" />
<glyph horiz-adv-x="487" d="M172 782q32 0 79 -28.5t69 -28.5q30 0 56 49l36 -6q-3 -56 -27.5 -98t-69.5 -42q-30 0 -81.5 28.5t-70.5 28.5q-29 0 -55 -48l-35 5q3 57 27 98.5t72 41.5zM181 176l-171 359l133 13l67 -164q34 -84 45 -118h2q1 3 47 118l66 164l100 -7l8 -13l-172 -353v-175h-125v176z " />
<glyph horiz-adv-x="479" d="M46 0l-20 78l282 363l-271 -6l7 105h373l32 -78l-278 -362l275 5l-7 -105h-393z" />
<glyph horiz-adv-x="479" d="M342 795l7 -22q-62 -95 -158 -162l-46 11q61 108 85 184zM46 0l-20 78l282 363l-271 -6l7 105h373l32 -78l-278 -362l275 5l-7 -105h-393z" />
<glyph horiz-adv-x="479" d="M367 811l39 -29q-53 -69 -109 -160l-88 -8q-47 81 -114 168l40 29q47 -34 118 -105q76 76 114 105zM46 0l-20 78l282 363l-271 -6l7 105h373l32 -78l-278 -362l275 5l-7 -105h-393z" />
<glyph horiz-adv-x="479" d="M325 713q0 -35 -24 -60.5t-60 -25.5q-32 0 -52 20.5t-20 50.5q0 35 25.5 60.5t61.5 25.5q31 0 50 -19.5t19 -51.5zM46 0l-20 78l282 363l-271 -6l7 105h373l32 -78l-278 -362l275 5l-7 -105h-393z" />
<glyph horiz-adv-x="479" d="M46 0l-20 78l282 363l-271 -6l7 105h373l32 -78l-278 -362l275 5l-7 -105h-393zM332 -159q0 -35 -24 -60.5t-60 -25.5q-32 0 -52 20.5t-20 51.5q0 35 25.5 60t61.5 25q31 0 50 -19.5t19 -51.5z" />
<glyph horiz-adv-x="252" d="M213 795l7 -22q-62 -95 -158 -162l-47 11q58 101 85 184zM33 -155l-35 43q66 77 66 205v307q0 71 -12 134l124 14l13 -13v-442q0 -97 -33 -152t-123 -96z" />
<glyph horiz-adv-x="460" d="M412 195q0 -101 -53.5 -157t-132.5 -56q-78 0 -127.5 55t-49.5 151q0 99 53 157.5t133 58.5q79 0 128 -57t49 -152zM148 195q0 -158 83 -158q81 0 81 154q0 157 -82 157t-82 -153z" />
<glyph horiz-adv-x="275" d="M105 314h-1l-66 -9l-14 54l165 45l11 -10v-404h-96v242q0 58 1 82z" />
<glyph horiz-adv-x="377" d="M49 -10l-11 63q191 129 191 217q0 31 -19 50t-52 19q-53 0 -110 -43l-9 71q62 37 142 37q64 0 105.5 -31.5t41.5 -82.5q0 -60 -58 -120.5t-141 -109.5h93q54 0 105 6l-7 -76h-271z" />
<glyph horiz-adv-x="373" d="M45 372q60 32 134 32q58 0 95.5 -25.5t37.5 -65.5q0 -34 -27 -63.5t-73 -41.5q56 -7 88.5 -34t32.5 -70q0 -54 -50.5 -88t-131.5 -34q-63 0 -111 14l9 60q45 -14 98 -14q39 0 63 15.5t24 43.5q0 55 -102 55q-16 0 -52 -4v60q58 7 95.5 28.5t37.5 52.5q0 21 -16 33.5 t-46 12.5q-48 0 -101 -28z" />
<glyph horiz-adv-x="419" d="M37 143l166 255l106 6l11 -9v-244q20 1 58 5l-7 -71h-51v-95h-92v95h-180zM116 151v-2q8 0 43.5 0.5t68.5 0.5v77q0 76 4 110h-1z" />
<glyph horiz-adv-x="395" d="M58 -4l9 63q42 -15 94 -15q39 0 63.5 18.5t24.5 51.5q0 32 -22 48t-57 16q-46 0 -85 -16l-14 8v226h158q64 0 104 6l-6 -76h-178v-92q26 6 59 6q61 0 100.5 -31.5t39.5 -88.5q0 -65 -51.5 -101.5t-132.5 -36.5q-58 0 -106 14z" />
<glyph horiz-adv-x="414" d="M214 -18q-73 0 -119 46.5t-46 133.5q0 107 64.5 174.5t171.5 67.5q37 0 55 -7l-8 -65q-28 7 -47 7q-50 0 -89 -33.5t-47 -96.5h2q35 22 89 22q59 0 94.5 -31t35.5 -85q0 -62 -45 -97.5t-111 -35.5zM210 176q-43 0 -62 -24q1 -60 15 -87t46 -27q30 0 46 19t16 51 q0 31 -16 49.5t-45 18.5z" />
<glyph horiz-adv-x="360" d="M34 316l8 80h286l12 -10v-50q-158 -153 -165 -346h-100q6 92 57 183.5t119 150.5v2h-87q-76 0 -130 -10z" />
<glyph horiz-adv-x="419" d="M205 -18q-73 0 -117 29.5t-44 76.5q0 40 30 68.5t72 40.5v2q-84 43 -84 101q0 45 42.5 74.5t108.5 29.5q68 0 106 -30t38 -70q0 -30 -23 -56.5t-60 -42.5v-2q101 -41 101 -106q0 -48 -46 -81.5t-124 -33.5zM211 352q-25 0 -42.5 -13t-17.5 -35q0 -43 68 -71q49 32 49 71 q0 21 -16.5 34.5t-40.5 13.5zM200 162q-65 -26 -65 -73q0 -25 20.5 -40.5t52.5 -15.5t53 15t22 40q1 24 -20.5 42t-62.5 32z" />
<glyph horiz-adv-x="414" d="M44 265q0 63 45 101t112 38q72 0 118 -45.5t46 -132.5q0 -102 -62.5 -173t-170.5 -71q-32 0 -49 5l-2 64q30 -4 47 -4q117 0 137 121q-36 -24 -83 -24q-63 0 -100.5 32t-37.5 89zM143 270q0 -33 17 -52t48 -19q37 0 57 24q-5 120 -64 120q-27 0 -42.5 -20t-15.5 -53z" />
<glyph horiz-adv-x="643" d="M594 347q0 -169 -80.5 -263t-198.5 -94q-117 0 -191 92.5t-74 254.5q0 167 79.5 264t199.5 97q119 0 192 -95t73 -256zM179 347q0 -276 143 -276q71 0 106.5 70.5t35.5 199.5q0 276 -142 276q-143 0 -143 -270z" />
<glyph horiz-adv-x="364" d="M139 566h-2l-106 -19l-18 76l235 74l14 -14v-683h-125v426q0 101 2 140z" />
<glyph horiz-adv-x="603" d="M91 0l-15 93q56 44 105.5 89.5t98 99.5t77 108.5t28.5 100.5q0 50 -32 82t-89 32q-79 0 -175 -62l-13 100q106 55 217 55q98 0 159.5 -50t61.5 -130q0 -100 -95 -213t-224 -205h162q87 0 160 10l-10 -110h-416z" />
<glyph horiz-adv-x="522" d="M51 644q38 22 95 38t110 16q84 0 138 -41t54 -107q0 -58 -43 -108t-118 -74q89 -9 141.5 -54.5t52.5 -120.5q0 -90 -75 -146.5t-197 -56.5q-87 0 -168 23l12 87q73 -23 151 -23q66 0 107 29.5t41 81.5q0 55 -46.5 80t-120.5 25q-40 0 -78 -7v86q97 16 154.5 56t57.5 95 q0 37 -25.5 59.5t-73.5 22.5q-76 0 -163 -49z" />
<glyph horiz-adv-x="618" d="M29 253l288 433l136 11l14 -14v-420q62 2 117 9l-10 -103h-107v-169h-119l1 169h-305zM133 263v-3q52 2 209 2h7v155q0 124 5 177h-3z" />
<glyph horiz-adv-x="555" d="M69 13l12 90q71 -23 145 -23q66 0 107 34t41 96q0 60 -37.5 90t-96.5 30q-67 0 -130 -25l-20 13v370h232q87 0 160 10l-8 -110h-281v-180q44 11 94 11q94 0 155.5 -52t61.5 -148q0 -107 -76.5 -168t-199.5 -61q-79 0 -159 23z" />
<glyph horiz-adv-x="597" d="M312 -10q-112 0 -179 79t-67 226q0 179 96.5 291t253.5 112q61 0 85 -12l-11 -94q-29 13 -73 13q-85 0 -148 -63.5t-72 -183.5h2q57 49 148 49q90 0 144 -52.5t54 -143.5q0 -102 -67 -161.5t-166 -59.5zM311 326q-34 0 -67 -15t-48 -40q2 -102 27.5 -151t83.5 -49 q51 0 80 35t29 93t-27 92.5t-78 34.5z" />
<glyph horiz-adv-x="536" d="M37 572l12 116h432l16 -14v-72q-117 -128 -186.5 -283t-76.5 -319h-129q9 156 89.5 318t184.5 268v2h-151q-108 0 -191 -16z" />
<glyph horiz-adv-x="600" d="M294 -10q-106 0 -172.5 48.5t-66.5 125.5q0 65 46.5 114.5t112.5 71.5v3q-134 73 -134 172q0 74 64 123.5t162 49.5t156 -49.5t58 -116.5q0 -52 -36.5 -97.5t-96.5 -73.5v-3q159 -68 159 -181q0 -78 -68.5 -132.5t-183.5 -54.5zM302 623q-43 0 -74 -25.5t-31 -65.5 q0 -77 116 -130q40 25 65 59.5t25 70.5q0 40 -29 65.5t-72 25.5zM287 300q-48 -21 -80 -56.5t-32 -77.5q0 -44 34.5 -72.5t88.5 -28.5q55 0 91 28t37 73q1 43 -35 75t-104 59z" />
<glyph horiz-adv-x="597" d="M52 466q0 106 67.5 169t167.5 63q108 0 176 -77.5t68 -222.5q0 -111 -41 -203.5t-121 -148.5t-184 -56q-49 0 -77 8l-1 92q29 -7 68 -7q96 0 154.5 61t72.5 172h-2q-47 -53 -143 -53q-93 0 -149 54.5t-56 148.5zM181 473q0 -60 29 -95t83 -35q73 0 108 52 q-1 106 -31.5 161t-84.5 55q-47 0 -75.5 -38.5t-28.5 -99.5z" />
<glyph horiz-adv-x="460" d="M412 495q0 -101 -53.5 -156.5t-132.5 -55.5q-78 0 -127.5 54.5t-49.5 150.5q0 100 53 158.5t133 58.5q79 0 128 -57t49 -153zM148 496q0 -158 83 -158q81 0 81 154q0 157 -82 157t-82 -153z" />
<glyph horiz-adv-x="275" d="M105 616h-1l-66 -9l-14 54l165 45l11 -10v-404h-96v242q0 58 1 82z" />
<glyph horiz-adv-x="377" d="M49 292l-11 63q191 129 191 217q0 31 -19 50t-52 19q-53 0 -110 -43l-9 71q62 37 142 37q64 0 105.5 -31.5t41.5 -82.5q0 -60 -58 -120.5t-141 -109.5h93q54 0 105 6l-7 -76h-271z" />
<glyph horiz-adv-x="373" d="M45 672q62 33 134 33q58 0 95.5 -25.5t37.5 -65.5q0 -34 -27 -63.5t-73 -41.5q56 -7 88.5 -34.5t32.5 -69.5q0 -54 -50.5 -88t-131.5 -34q-63 0 -111 14l9 60q46 -14 98 -14q39 0 63 15.5t24 42.5q0 56 -102 56q-16 0 -52 -4v60q59 7 96 28t37 53q0 21 -16 33.5t-46 12.5 q-48 0 -101 -28z" />
<glyph horiz-adv-x="419" d="M37 445l166 255l106 6l11 -9v-244q20 1 58 5l-7 -71h-51v-95h-92v95h-180zM116 453v-2q8 0 43.5 0.5t68.5 0.5v77q0 76 4 110h-1z" />
<glyph horiz-adv-x="395" d="M58 297l9 63q42 -15 94 -15q39 0 63.5 18t24.5 51t-22 49t-57 16q-41 0 -85 -16l-14 8v226h158q64 0 104 6l-6 -76h-178v-92q26 6 59 6q61 0 100.5 -31.5t39.5 -88.5q0 -65 -51.5 -101.5t-132.5 -36.5q-58 0 -106 14z" />
<glyph horiz-adv-x="414" d="M214 283q-73 0 -119 46.5t-46 133.5q0 107 64.5 174.5t171.5 67.5q37 0 55 -7l-8 -66q-24 8 -47 8q-50 0 -89 -33.5t-47 -97.5h2q34 23 89 23q59 0 94.5 -31t35.5 -86q0 -62 -44.5 -97t-111.5 -35zM210 477q-41 0 -62 -24q1 -60 15 -87t46 -27q30 0 46 19t16 50 q0 32 -16 50.5t-45 18.5z" />
<glyph horiz-adv-x="360" d="M34 618l8 80h286l12 -10v-50q-158 -153 -165 -346h-100q6 92 57 183.5t119 150.5v2h-87q-76 0 -130 -10z" />
<glyph horiz-adv-x="419" d="M205 284q-73 0 -117 29.5t-44 76.5q0 40 30 68.5t72 40.5v2q-84 43 -84 101q0 45 42.5 74.5t108.5 29.5q68 0 106 -30t38 -70q0 -30 -23 -56.5t-60 -42.5v-2q101 -41 101 -106q0 -48 -46 -81.5t-124 -33.5zM211 654q-25 0 -42.5 -13t-17.5 -35q0 -43 68 -71q49 32 49 71 q0 21 -16.5 34.5t-40.5 13.5zM200 464q-65 -26 -65 -73q0 -25 20.5 -40.5t52.5 -15.5t53 15t22 40q1 24 -20.5 42t-62.5 32z" />
<glyph horiz-adv-x="414" d="M44 567q0 63 45 101t112 38q72 0 118 -45.5t46 -132.5q0 -102 -62.5 -173t-170.5 -71q-32 0 -49 5l-2 64q30 -4 47 -4q117 0 137 121q-36 -24 -83 -24q-63 0 -100.5 32t-37.5 89zM143 572q0 -33 17 -52t48 -19q37 0 57 24q-5 120 -64 120q-27 0 -42.5 -20t-15.5 -53z" />
</font>
</defs>
</svg>
