<?xml version="1.0" standalone="no"?>
<!DOCTYPE svg PUBLIC "-//W3C//DTD SVG 1.1//EN" "http://www.w3.org/Graphics/SVG/1.1/DTD/svg11.dtd" >
<svg xmlns="http://www.w3.org/2000/svg" xmlns:xlink="http://www.w3.org/1999/xlink" version="1.1">
<metadata></metadata>
<defs>
<font id="indivisa_text_serifregular" horiz-adv-x="575" >
<font-face units-per-em="1000" ascent="800" descent="-200" />
<missing-glyph horiz-adv-x="250" />
<glyph unicode="&#xfb00;" horiz-adv-x="623" d="M189 40l85 -23l-2 -17h-229l-2 17l44 14q17 6 23 13.5t6 24.5v384h-71l-2 17l73 19v23q0 100 58.5 162t150.5 62q42 0 77 -17.5t55 -43.5q59 81 155 81q53 0 90 -28.5t37 -65.5q0 -18 -11 -28.5t-29 -10.5q-10 0 -20 5q-14 91 -81 91q-53 0 -83.5 -48.5t-30.5 -135.5v-47 h132v-35h-132v-413l92 -23l-2 -17h-236l-2 17l44 14q17 6 23 13.5t6 24.5v384h-218v-413zM406 509q2 49 12 89v1q-10 42 -37 71t-68 29q-58 0 -91 -42.5t-33 -118.5v-50h213l5 1z" />
<glyph unicode="&#xfb03;" horiz-adv-x="883" d="M189 40l85 -23l-2 -17h-229l-2 17l44 14q17 6 23 13.5t6 24.5v384h-71l-2 17l73 19v23q0 100 59 162t153 62q41 0 76.5 -16.5t56.5 -41.5q60 78 162 78q63 0 106 -28t43 -66q0 -18 -10.5 -28.5t-27.5 -10.5q-15 0 -25 5q-22 91 -99 91q-59 0 -92.5 -48t-33.5 -133v-50 h223q33 13 63 18l9 -9v-457l73 -23l-2 -17h-216l-2 17l43 14q17 6 23 13.5t6 24.5v384h-220v-413l87 -23l-2 -17h-231l-2 17l44 14q17 6 23 13.5t6 24.5v384h-218v-413zM407 509q0 53 15 97q-12 40 -39 66.5t-67 26.5q-60 0 -93.5 -42.5t-33.5 -118.5v-50h218v21z" />
<glyph unicode="&#xfb04;" horiz-adv-x="883" d="M189 40l87 -23l-2 -17h-231l-2 17l44 14q17 6 23 13.5t6 24.5v384h-71l-2 17l73 19v23q0 100 59 162t153 62q80 0 130 -55q58 75 159 75q49 0 87 -19v8q29 8 66 12l9 -9v-708l73 -23l-2 -17h-216l-2 17l43 14q17 6 23 13.5t6 24.5v384h-220v-413l87 -23l-2 -17h-231 l-2 17l44 14q17 6 23 13.5t6 24.5v384h-218v-413zM482 558v-70h220v176q-31 55 -94 55q-59 0 -92.5 -42.5t-33.5 -118.5zM407 527q0 48 13 86q-12 37 -39 61.5t-65 24.5q-60 0 -93.5 -42.5t-33.5 -118.5v-50h218v39z" />
<glyph unicode="fi" horiz-adv-x="590" d="M189 40l87 -23l-2 -17h-231l-2 17l44 14q17 6 23 13.5t6 24.5v384h-71l-2 17l73 19v20q0 109 61 178t153 69q63 0 106 -28t43 -66q0 -18 -10.5 -28.5t-27.5 -10.5q-15 0 -25 5q-24 91 -99 91q-57 0 -91.5 -48.5t-34.5 -132.5v-50h223q33 14 63 18l9 -9v-457l73 -23 l-2 -17h-216l-2 17l43 14q17 6 23 13.5t6 24.5v384h-220v-413z" />
<glyph unicode="fl" horiz-adv-x="590" d="M189 40l87 -23l-2 -17h-231l-2 17l44 14q17 6 23 13.5t6 24.5v384h-71l-2 17l73 19v38q0 102 58.5 165.5t149.5 63.5q49 0 87 -19v8q29 8 66 12l9 -9v-708l73 -23l-2 -17h-216l-2 17l43 14q17 6 23 13.5t6 24.5v384h-220v-413zM189 558v-70h220v176q-31 55 -94 55 q-59 0 -92.5 -42.5t-33.5 -118.5z" />
<glyph unicode="&#x2f;symbol&#x32;&#x2f;" horiz-adv-x="932" d="M494 570l52 -90l-137 -240h-103l137 240l-52 90h103zM357 570l52 -90l-138 -240h-103l138 240l-52 90h103zM752 120h-103l-137 240l51 90l137 -240h103zM683 0h-103l-137 240l51 90l138 -240h103zM100 120l51 90h275l51 -90h-274l-52 -90zM168 0l52 90h274l52 -90h-275 l-51 -90zM789 88q18 0 30.5 -13t12.5 -31t-12.5 -31t-30.5 -13t-30.5 13t-12.5 31t12.5 31t30.5 13zM829 44q0 16 -11.5 28t-28.5 12t-28.5 -12t-11.5 -28t11.5 -28t28.5 -12t28.5 12t11.5 28zM771 69h18q7 0 11 -2q5 -4 5 -11q0 -5 -3 -8q-1 -2 -6 -4q7 -1 8 -9q0 -8 3 -16 h-8q-1 2 -1.5 6.5t-0.5 6.5q-1 10 -11 10h-8v-23h-7v50zM778 47h10q5 0 7 1q3 3 3 7q0 8 -10 8h-10v-16z" />
<glyph unicode="&#x2f;symbol&#x33;&#x2f;" horiz-adv-x="957" d="M505 638l68 -270h270l-203 -135l136 -270l-271 135l-270 -270l135 405l-270 203l338 -68zM814 87q18 0 30.5 -12.5t12.5 -31.5q0 -18 -12.5 -30.5t-30.5 -12.5t-30.5 12.5t-12.5 30.5q0 19 12.5 31.5t30.5 12.5zM854 43q0 17 -11.5 29t-28.5 12t-28.5 -12t-11.5 -29 t12 -28.5t28 -11.5t28 11.5t12 28.5zM796 68h18q8 0 11 -2q6 -3 6 -10q0 -5 -4 -9q-3 -3 -6 -3q7 -3 8 -10q2 -14 3 -16h-7q-1 2 -2 7.5t-1 6.5q0 9 -10 9h-9v-23h-7v50zM803 47h10q5 0 7 1q3 3 3 6q0 9 -10 9h-10v-16z" />
<glyph unicode="&#x2f;symbol&#x35;&#x2f;" horiz-adv-x="705" d="M232 -6l-132 136l124 234l129 -136zM474 -6l-121 234l128 136l124 -234z" />
<glyph unicode="&#x2f;symbol&#x31;&#x2f;" horiz-adv-x="5534" d="M1865 412q-25 0 -40.5 14.5t-15.5 37.5q0 35 32.5 64t70.5 29q24 0 39 -13.5t15 -37.5q0 -36 -31 -65t-70 -29zM1284 412q-26 0 -41.5 14.5t-15.5 37.5q0 35 33 64t71 29q24 0 38.5 -13.5t14.5 -37.5q0 -36 -31 -65t-69 -29zM959 0q0 42 11 108q-16 -50 -51.5 -82.5 t-78.5 -32.5q-41 0 -63 29.5t-22 82.5q0 62 27 121t84 101t132 42q17 0 25 -1l16 73l6 102l136 7q0 -67 -46 -273t-46 -277h-130zM100 0l78 364q17 86 21 136l128 7l11 -15l-104 -492h-134zM3503 492l-57 -492h-131l20 175q5 50 33 215h-3q-31 -102 -81 -215l-76 -175h-149 l-2 175q-2 121 9 215h-2q-32 -130 -59 -215l-53 -175h-109l154 500l184 6l1 -137q2 -134 -15 -259h2q39 126 94 259l56 131l169 7zM5316 300q-37 -177 -37 -183q0 -34 36 -34q25 0 59 18l-9 -79q-52 -29 -114 -29q-105 0 -105 100q0 20 40 210l-47 1l9 44l54 14l53 95l81 6 l13 -15l-20 -86h99l6 -14l-17 -51zM3936 0q0 74 42 260l5 102l137 7q0 -31 -7 -89h2q53 89 134 89q34 0 53 -19.5t19 -51.5q0 -27 -26 -147q-18 -85 -18 -151h-131q0 55 19 150q15 71 15 87q0 24 -17 24q-34 0 -64 -82.5t-32 -178.5h-131zM3768 369q87 0 145 -32l-28 -128 q-31 -145 -31 -209h-130q0 45 12 112q-15 -52 -51 -85.5t-81 -33.5q-41 0 -63 29.5t-22 83.5q0 46 16 91.5t46 84t79 63t108 24.5zM4653 51q-67 -58 -159 -58q-65 0 -103.5 35t-38.5 102q0 94 68.5 166.5t167.5 72.5q54 0 86.5 -23.5t32.5 -64.5q0 -57 -60 -96.5t-161 -43.5 v-1q0 -64 63 -64q42 0 90 28zM2525 369q88 0 146 -32l-29 -128q-31 -145 -31 -209h-130q0 37 12 112q-15 -52 -51 -85.5t-81 -33.5q-41 0 -62.5 29.5t-21.5 83.5q0 62 26.5 120.5t85 100.5t136.5 42zM2245 256q-52 30 -97 30q-18 0 -30 -7t-12 -19q0 -14 20 -26.5t44 -22 t44 -33t20 -56.5q0 -57 -53 -93t-128 -36q-78 0 -118 28l27 93q57 -38 111 -38q19 0 29.5 7.5t10.5 18.5q0 13 -20 26t-44 23t-44 33t-20 55q0 56 54.5 93t128.5 37q58 0 104 -18zM4716 0q0 79 41 260l6 102l137 7q0 -12 -7 -89h2q52 89 134 89q34 0 53 -19.5t19 -51.5 q0 -27 -26 -147q-19 -90 -19 -151h-130q0 55 19 150q15 78 15 87q0 24 -17 24q-35 0 -65 -82t-32 -179h-130zM1752 0q0 69 26 193l15 67l6 102l137 7q0 -46 -27 -177t-27 -192h-130zM1399 362l140 7q13 -129 -5 -289h2q76 151 91 284q22 5 50 5q32 0 48.5 -8.5t16.5 -33.5 q0 -46 -51 -147.5t-116 -179.5h-149q-5 228 -27 362zM1170 0q0 72 27 193l14 67l6 102l137 7q0 -46 -27 -177t-27 -192h-130zM336 0q0 79 41 260l6 102l137 7q0 -31 -7 -89h2q52 89 134 89q34 0 53 -19.5t19 -51.5q0 -27 -26 -147q-18 -85 -18 -151h-131q0 55 19 150 q15 78 15 87q0 24 -17 24q-34 0 -64 -82.5t-32 -178.5h-131zM4490 177q47 10 73 34t26 59q0 31 -22 31q-28 0 -48.5 -38.5t-28.5 -85.5zM2435 101q23 0 47 43.5t37 100.5q3 14 9 44q-14 8 -27 8q-34 0 -62 -54.5t-28 -101.5q0 -40 24 -40zM913 101q22 0 44.5 39.5t37.5 94.5 q1 9 8 40l3 14q-14 8 -27 8q-33 0 -61.5 -54.5t-28.5 -101.5q0 -40 24 -40zM3677 101q23 0 47 43t38 101q1 8 4.5 24.5t4.5 19.5q-16 8 -27 8q-34 0 -62.5 -54.5t-28.5 -101.5q0 -40 24 -40z" />
<glyph unicode="&#x2f;symbol&#x34;&#x2f;" horiz-adv-x="2607" d="M1684 406q0 65 -11 128l126 14l15 -15v-533h-130v406zM1889 406q0 62 -10 128l126 14l14 -15v-533h-130v406zM427 101v-101h-320v362q0 80 -7 135l126 7l14 -14v-396zM925 21l7 109q62 -36 144 -36q50 0 50 36q0 20 -31.5 41.5t-69 40.5t-69 57t-31.5 88q0 69 55 108 t138 39q80 0 127 -18l-14 -111q-56 29 -111 29q-27 0 -42.5 -11t-15.5 -29q0 -20 20.5 -38t50 -34t59.5 -35t50.5 -51t20.5 -72q0 -66 -53.5 -103.5t-139.5 -37.5q-41 0 -83.5 8t-61.5 20zM2405 213q0 -24 -1 -36l-11 -11h-191q14 -83 98 -83q44 0 84 21l7 -81 q-46 -30 -127 -30q-90 0 -144 47.5t-54 134.5q0 85 52 139t132 54q72 0 113.5 -43t41.5 -112zM795 0l-106 -7q-11 16 -21 49h-4q-34 -49 -104 -49q-43 0 -70 23t-27 66q0 113 191 118v20q0 54 -58 54q-55 0 -108 -29l-8 97q72 26 150 26q154 0 154 -135q0 -25 -2 -69t-2 -70 q0 -51 15 -94zM1626 0l-107 -7q-12 20 -21 49h-3q-34 -49 -105 -49q-43 0 -69.5 23t-26.5 66q0 113 191 118v20q0 54 -58 54q-54 0 -109 -29l-7 97q72 26 150 26q153 0 153 -135q0 -25 -1.5 -69.5t-1.5 -69.5q0 -51 15 -94zM2199 207l78 4q2 14 2 26q0 59 -34 59 q-44 0 -46 -89zM654 74v88q-29 -3 -47 -18t-18 -39q0 -18 10 -29t27 -11q16 0 28 9zM1485 74v88q-29 -3 -47 -18t-18 -39q0 -18 10 -29t27 -11q16 0 28 9zM2464 85q18 0 30.5 -13t12.5 -31t-12.5 -31t-30.5 -13t-31 13t-13 31t13 31t31 13zM2504 41q0 17 -12 28.5t-28 11.5 t-28 -11.5t-12 -28.5t12 -28.5t28 -11.5t28 11.5t12 28.5zM2446 66h18q7 0 11 -3q5 -3 5 -10q0 -5 -3 -9q-3 -3 -6 -3q7 -1 8 -10q0 -7 3 -15h-8q-1 2 -1.5 6.5t-0.5 6.5q-1 9 -11 9h-8v-22h-7v50zM2453 44h10q5 0 7 1q3 3 3 7q0 8 -10 8h-10v-16z" />
<glyph unicode=" "  horiz-adv-x="250" />
<glyph unicode="&#x09;" horiz-adv-x="250" />
<glyph unicode="&#xa0;" horiz-adv-x="250" />
<glyph unicode="!" horiz-adv-x="297" d="M103 684l5 5l18 3q26 4 45 4q14 0 19.5 -5.5t5.5 -19.5q0 -11 -2 -31l-26 -443h-37zM197 50q0 -25 -14 -42.5t-38 -17.5q-21 0 -33.5 15t-12.5 37q0 23 15.5 40.5t38.5 17.5q20 0 32 -13.5t12 -36.5z" />
<glyph unicode="&#x22;" horiz-adv-x="377" d="M59 763l4 4q32 4 72 4l11 -13l-33 -268h-26l-10 131zM234 763l4 4q32 4 72 4l11 -13l-33 -268h-26l-10 131z" />
<glyph unicode="#" horiz-adv-x="760" d="M208 -10l-41 5l-8 8l46 186h-139l-8 8l7 41h152l52 211h-136l-8 8l7 41h149l50 198l41 -5l8 -8l-46 -185h171l49 198l42 -5l8 -8l-46 -185h136l8 -8l-6 -41h-150l-53 -211h139l8 -8l-6 -41h-153l-49 -199l-42 5l-8 8l46 186h-171zM270 238h171l52 211h-171z" />
<glyph unicode="$" horiz-adv-x="508" d="M270 -137l-36 -3l-7 7v123q-55 1 -100.5 12t-54.5 24q-12 16 -12 60q0 55 15 97l19 -1q16 -94 43 -122q30 -31 110 -31q58 0 90.5 33t32.5 83q0 37 -16.5 67t-43.5 52t-59 42t-64 40.5t-59 44.5t-43.5 58t-16.5 75q0 73 48.5 118t126.5 53v132l36 3l8 -7v-127 q48 -1 86 -12.5t50 -24.5q8 -9 8 -47q0 -56 -15 -108h-19q-13 90 -38 120q-31 34 -95 34q-54 0 -85.5 -32t-31.5 -85q0 -49 31 -87.5t75.5 -65t88.5 -54.5t75 -71t31 -99q0 -73 -47.5 -119t-130.5 -54v-128z" />
<glyph unicode="%" horiz-adv-x="954" d="M707 696l-422 -706h-46l422 706h46zM69 483q-2 91 42 148.5t121 57.5q75 0 117 -56.5t43 -147.5q1 -90 -42.5 -149.5t-120.5 -59.5t-118.5 57t-41.5 150zM129 483q1 -88 25 -132.5t77 -44.5q103 0 100 179q0 174 -100 174q-52 0 -77.5 -46t-24.5 -130zM562 197 q-1 91 43 148.5t120 57.5q75 0 117.5 -57t42.5 -147q2 -90 -41.5 -149.5t-120.5 -59.5q-78 0 -119 56.5t-42 150.5zM623 197q1 -88 24.5 -132.5t76.5 -44.5q103 0 101 179q-2 174 -100 174q-105 0 -102 -176z" />
<glyph unicode="&#x26;" horiz-adv-x="774" d="M318 -10q-106 0 -173 53.5t-67 138.5q0 60 36 109t94 71q-70 83 -70 163q0 73 57 122t138 49q74 0 119 -37.5t45 -95.5q0 -24 -12.5 -38t-33.5 -14q-13 0 -26 5q3 21 3 36q-1 47 -27.5 76.5t-71.5 29.5q-47 0 -80 -33t-33 -82q0 -43 20 -81.5t62 -84.5l220 -239 q26 52 26 118q0 72 -33 113q15 15 38 15q29 0 45 -29t16 -75q0 -102 -58 -178q45 -43 87 -56.5t93 -1.5l4 -11q-37 -43 -99 -43q-68 0 -136 59q-77 -59 -183 -59zM157 194q0 -73 48.5 -119t125.5 -46q84 0 140 48q-22 21 -54 56l-184 202q-34 -22 -55 -60.5t-21 -80.5z" />
<glyph unicode="'" horiz-adv-x="202" d="M58 763l3 4q32 4 73 4l10 -13l-33 -268h-25l-10 131z" />
<glyph unicode="(" horiz-adv-x="363" d="M325 -180l-13 -14q-103 73 -158.5 196t-55.5 279t55.5 279t158.5 196l13 -14q-70 -77 -108.5 -196t-38.5 -265q0 -145 38.5 -264.5t108.5 -196.5z" />
<glyph unicode=")" horiz-adv-x="363" d="M38 742l13 14q103 -73 158.5 -196t55.5 -279t-55.5 -279t-158.5 -196l-13 14q70 77 108.5 196.5t38.5 264.5q0 146 -38.5 265t-108.5 196z" />
<glyph unicode="*" horiz-adv-x="440" d="M243 507q0 -24 -23 -24t-23 24q0 13 6.5 46t8.5 52q-17 -12 -42.5 -34t-35.5 -28q-21 -11 -32 9q-12 19 9 31q11 7 43 18t49 19q-16 7 -48.5 18t-43.5 18q-20 13 -9 32q12 20 32 8q11 -6 36.5 -28.5t41.5 -33.5q-2 19 -8.5 52t-6.5 46q0 24 23 24t23 -24q0 -13 -6.5 -46 t-8.5 -52q16 11 41.5 33.5t36.5 28.5q21 13 33 -8q10 -20 -10 -32q-11 -7 -43.5 -18t-48.5 -18q17 -8 49 -19t43 -18q21 -11 10 -31q-11 -21 -33 -9q-10 6 -35.5 28t-42.5 34q2 -19 8.5 -52t6.5 -46z" />
<glyph unicode="+" d="M493 317h-179v-175h-52v175h-186v48q46 1 185 3v176h53v-175q38 0 98.5 0.5t78.5 0.5l8 -8z" />
<glyph unicode="," horiz-adv-x="240" d="M61 -176q46 69 59 166q-25 0 -41 16t-16 40t18.5 42.5t44.5 18.5t41 -18t15 -47q0 -54 -32 -119t-77 -109z" />
<glyph unicode="-" horiz-adv-x="386" d="M42 250v39h302v-39h-302z" />
<glyph unicode="." horiz-adv-x="229" d="M113 -10q-24 0 -39 15.5t-16 38.5q0 25 17.5 44t42.5 19q23 0 37.5 -15t15.5 -38q0 -26 -16 -45t-42 -19z" />
<glyph unicode="/" horiz-adv-x="395" d="M130 -10l-44 9l-8 8l188 749l43 -8l8 -8z" />
<glyph unicode="0" horiz-adv-x="580" d="M50 342q-1 157 64.5 255.5t178.5 98.5q112 0 174 -97t63 -253q2 -155 -62 -255.5t-178 -100.5q-116 0 -177 96.5t-63 255.5zM130 342q3 -312 161 -312q82 0 121.5 85.5t37.5 230.5q-2 310 -159 310q-80 0 -121 -84t-40 -230z" />
<glyph unicode="1" horiz-adv-x="335" d="M205 40l93 -23l-2 -17h-259l-2 17l55 12q23 6 31.5 14t8.5 26v562l-93 9l-2 15l161 41l9 -9v-647z" />
<glyph unicode="2" horiz-adv-x="513" d="M52 0l-8 48q15 15 44 43q61 60 90.5 89.5t72.5 78.5t62.5 81.5t34.5 74.5t15 82q0 63 -36 100t-99 37q-93 0 -167 -95l-15 8q30 69 86.5 109t127.5 40q83 0 132.5 -50.5t49.5 -129.5q0 -30 -8 -60.5t-18 -54.5t-34 -57t-39 -52.5t-52 -57t-54 -54t-64 -60t-64 -59.5h252 q37 0 53 18.5t33 76.5l16 -1q-2 -86 -22 -155h-389z" />
<glyph unicode="3" horiz-adv-x="490" d="M114 313l-3 34q230 44 230 182q0 45 -32.5 74.5t-85.5 29.5q-98 0 -174 -102l-14 9q31 73 89 114.5t128 41.5q75 0 122 -41.5t47 -106.5q0 -77 -57 -126t-137 -69q91 -5 152 -51.5t61 -124.5q0 -81 -70.5 -134t-174.5 -53q-82 0 -133.5 29.5t-51.5 79.5q0 24 16.5 43 t44.5 28l8 -8q-6 -18 -6 -33q5 -104 129 -104q71 0 117 39t47 104q-1 71 -58 109.5t-136 38.5q-30 0 -58 -3z" />
<glyph unicode="4" horiz-adv-x="562" d="M18 201l342 493l52 -6v-473h116l-8 -51h-108v-164h-75v164h-307zM78 215h259v388z" />
<glyph unicode="5" horiz-adv-x="504" d="M80 364l2 322h356q1 -72 -15 -160l-20 1q-4 62 -12.5 79t-41.5 17h-217l-2 -233q13 1 43 1q130 0 209.5 -52.5t79.5 -149.5q0 -86 -67 -142.5t-171 -56.5q-84 0 -137 30t-53 79q0 51 61 71l8 -8q-6 -18 -6 -35q2 -49 37.5 -75.5t98.5 -26.5q70 0 112 42t42 109 q0 89 -77.5 134.5t-219.5 42.5z" />
<glyph unicode="6" horiz-adv-x="545" d="M503 201q0 -95 -64.5 -153t-159.5 -58q-102 0 -165.5 75t-63.5 200q0 175 116 293t295 138l6 -27q-134 -34 -223 -121t-110 -219q76 65 168 65q90 0 145.5 -53t55.5 -140zM128 253q0 -100 43 -162.5t113 -62.5q61 0 101.5 45t40.5 116q0 72 -41 117t-112 45 q-84 0 -144 -63q-1 -11 -1 -35z" />
<glyph unicode="7" horiz-adv-x="489" d="M464 686l7 -48q-99 -115 -164 -289.5t-77 -348.5h-77q12 155 87.5 330t171.5 293h-292q-33 0 -43 -17t-18 -78h-18q-9 76 1 158h422z" />
<glyph unicode="8" horiz-adv-x="529" d="M487 166q0 -76 -63 -126.5t-164 -50.5q-95 0 -156.5 45.5t-61.5 116.5q0 63 48 114.5t122 77.5q-63 37 -98 79.5t-35 104.5q0 72 56 120.5t143 48.5q81 0 131.5 -43t50.5 -111q0 -60 -36.5 -107t-94.5 -78q76 -41 117 -83t41 -108zM151 543q0 -31 11.5 -56.5t36 -46.5 t46 -34.5t57.5 -33.5q40 30 66.5 74.5t26.5 95.5q0 52 -32.5 85t-87.5 33q-54 0 -89 -33.5t-35 -83.5zM116 159q0 -59 41.5 -96t105.5 -37q62 0 105.5 35t43.5 92q0 29 -12 53t-36 44t-48 34.5t-58 33.5q-11 6 -17 9q-57 -30 -91 -73.5t-34 -94.5z" />
<glyph unicode="9" horiz-adv-x="546" d="M496 423q0 -178 -114 -295t-298 -138l-5 28q132 34 222 118t111 218q-69 -64 -166 -64q-90 0 -147 52.5t-57 138.5q0 96 66 155.5t159 59.5q104 0 166.5 -76.5t62.5 -196.5zM119 491q0 -71 42 -114.5t113 -43.5q82 0 143 63q0 6 0.5 17.5t0.5 18.5q0 98 -40.5 162 t-111.5 64q-65 0 -106 -46t-41 -121z" />
<glyph unicode=":" horiz-adv-x="229" d="M113 315q-24 0 -39 15.5t-16 37.5q0 25 17.5 44t42.5 19q23 0 37.5 -14.5t15.5 -37.5q0 -27 -16 -45.5t-42 -18.5zM113 -10q-24 0 -39 15.5t-16 38.5q0 25 17.5 44t42.5 19q23 0 37.5 -15t15.5 -38q0 -26 -16 -45t-42 -19z" />
<glyph unicode=";" horiz-adv-x="240" d="M115 315q-24 0 -39 15.5t-15 37.5q-1 25 16.5 44t43.5 19q23 0 37.5 -14.5t14.5 -37.5q1 -27 -15 -45.5t-43 -18.5zM61 -176q46 69 59 166q-25 0 -41 16t-16 40t18.5 42.5t44.5 18.5t41 -18t15 -47q0 -54 -32 -119t-77 -109z" />
<glyph unicode="&#x3c;" d="M485 111l-417 222l3 26l1 3q266 143 412 210v-58l-329 -168l330 -177v-58z" />
<glyph unicode="=" d="M493 415h-417v48q155 5 415 5l8 -8zM493 220h-417v48q155 5 415 5l8 -8z" />
<glyph unicode="&#x3e;" d="M90 111v58l330 177l-329 168v58q125 -56 413 -210l1 -3l3 -26z" />
<glyph unicode="?" horiz-adv-x="429" d="M223 223l-8 -8q-24 0 -38.5 13.5t-14.5 36.5q0 24 17.5 45.5t43 40.5t50.5 41.5t42.5 58t17.5 80.5q0 58 -30.5 93.5t-84.5 35.5q-56 0 -91 -34.5t-35 -87.5q0 -19 9 -53q-16 -9 -34 -9q-21 0 -35 16.5t-14 43.5q0 66 60 113t146 47q81 0 134 -46.5t53 -126.5 q0 -46 -25 -89.5t-51 -66t-63.5 -49t-40.5 -28.5q-8 -7 -8 -29v-38zM251 50q0 -25 -14 -42.5t-38 -17.5q-21 0 -34 15t-13 37q0 23 15.5 40.5t38.5 17.5q20 0 32.5 -14t12.5 -36z" />
<glyph unicode="@" horiz-adv-x="1093" d="M774 40q79 0 147 90.5t68 224.5q0 157 -102.5 258.5t-261.5 101.5q-91 0 -183 -39t-167.5 -107t-123 -171t-47.5 -219q0 -169 107 -281.5t270 -112.5q63 0 120 13.5t88.5 28t76.5 40.5l16 -27q-118 -96 -297 -96q-187 0 -307 122t-120 305q0 127 51 239t132.5 186.5 t184 117t205.5 42.5q179 0 291.5 -114.5t112.5 -289.5q0 -147 -84 -254.5t-202 -107.5q-75 0 -109 51t-22 130q0 1 5 34.5t5 34.5h-1q-26 -62 -57.5 -115t-74 -94t-81.5 -41t-63.5 36t-24.5 99q0 97 40.5 184.5t112.5 142t156 54.5q71 0 127 -27l-13 -49l-42 -185 q-22 -92 -4.5 -148.5t71.5 -56.5zM406 133q0 -35 10.5 -57.5t30.5 -22.5q44 0 118 130.5t97 219.5l13 52q-28 13 -55 13q-50 0 -100 -48.5t-82 -127t-32 -159.5z" />
<glyph unicode="A" horiz-adv-x="712" d="M333 686h47l216 -611q7 -19 15 -27t24 -13l51 -14l-2 -21h-243l-2 21l83 22l-68 198l-239 -4l-67 -193l83 -23l-2 -21h-201l-2 21q3 2 28 8.5t26 7.5q28 10 37 38zM228 275h215l-108 313z" />
<glyph unicode="B" horiz-adv-x="613" d="M55 665l2 21h245q100 0 158 -45t58 -125q0 -62 -32.5 -102.5t-84.5 -57.5q77 -18 119.5 -62t42.5 -109q0 -89 -65.5 -137t-176.5 -48h-264l-2 21l51 14q18 5 25 13t7 24v552q0 10 -4 14.5t-17 7.5zM290 650h-75v-283h83q68 0 106.5 40t38.5 106t-40.5 101.5t-112.5 35.5z M295 332h-80v-296h95q80 0 127 39.5t47 108.5t-51 108.5t-138 39.5z" />
<glyph unicode="C" horiz-adv-x="644" d="M404 -10q-161 0 -253.5 93t-92.5 258q0 161 96.5 258t241.5 97q97 0 164 -30q5 -20 5 -57q0 -62 -9 -108l-18 -1q-36 100 -54 144q-38 11 -81 11q-113 0 -188.5 -86.5t-75.5 -227.5q1 -141 74 -225.5t194 -84.5q48 0 88 11q14 31 58 142h18q7 -38 7 -87t-5 -79 q-78 -28 -169 -28z" />
<glyph unicode="D" horiz-adv-x="689" d="M631 343q0 -160 -90.5 -251.5t-247.5 -91.5h-236l-2 21l51 14q18 5 25 13t7 24v552q0 10 -4 14.5t-17 7.5l-62 19l2 21h236q157 0 247.5 -91.5t90.5 -251.5zM289 649h-74v-611h74q126 0 193.5 80.5t67.5 224.5t-68 225t-193 81z" />
<glyph unicode="E" horiz-adv-x="581" d="M215 361l212 7l-2 -47l-210 5v-290h134q58 0 100 5q2 3 13.5 36t12.5 36l23 71h19q6 -41 6 -90q0 -48 -7 -94h-459l-2 21l51 14q18 5 25 13t7 24v552q0 10 -4 14.5t-17 7.5l-62 19l2 21h449q7 -46 7 -94q0 -47 -6 -89h-19l-23 71q-1 3 -12.5 35.5t-13.5 35.5 q-42 5 -100 5h-124v-289z" />
<glyph unicode="F" horiz-adv-x="544" d="M215 45l103 -24l-2 -21h-259l-2 21l51 14q18 5 25 13t7 24v552q0 10 -4 14.5t-17 7.5l-62 19l2 21h446q7 -36 7 -94q0 -47 -6 -89h-19l-23 71q-1 3 -12 35.5t-13 35.5q-43 5 -101 5h-121v-305l212 6l-2 -46l-210 5v-265z" />
<glyph unicode="G" horiz-adv-x="699" d="M396 -10q-156 0 -247 94t-91 257q0 161 98 258t245 97q102 0 172 -30q5 -27 5 -57q0 -54 -9 -108l-19 -1q-5 9 -26.5 73t-26.5 71q-37 11 -93 11q-112 0 -188.5 -86.5t-76.5 -226.5q0 -141 72.5 -226t189.5 -85q55 0 102 13v231l-83 24l2 21h232l2 -21l-51 -14 q-16 -4 -21.5 -11.5t-5.5 -24.5v-228q-77 -31 -182 -31z" />
<glyph unicode="H" horiz-adv-x="765" d="M215 45l83 -24l-2 -21h-239l-2 21l51 14q18 5 25 13t7 24v570l-83 23l2 21h239l2 -21l-51 -13q-19 -6 -25.5 -13.5t-6.5 -23.5v-247h335v274l-83 23l2 21h239l2 -21l-51 -13q-18 -6 -24.5 -13.5t-6.5 -23.5v-570l82 -24l-2 -21h-239l-2 21l51 14q19 5 25.5 13t6.5 24v256 h-335v-283z" />
<glyph unicode="I" horiz-adv-x="353" d="M215 45l83 -24l-2 -21h-239l-2 21l51 14q18 5 25 13t7 24v570l-83 23l2 21h239l2 -21l-51 -13q-19 -6 -25.5 -13.5t-6.5 -23.5v-570z" />
<glyph unicode="J" horiz-adv-x="338" d="M138 642l-82 23l2 21h239l2 -21l-51 -13q-19 -6 -25.5 -13.5t-6.5 -23.5v-539q0 -90 -36 -144.5t-108 -101.5l-17 18q45 62 64 115t19 145v534z" />
<glyph unicode="K" horiz-adv-x="692" d="M215 45l83 -24l-2 -21h-239l-2 21l51 14q18 5 25 13t7 24v570l-83 23l2 21h239l2 -21l-51 -13q-19 -6 -25.5 -13.5t-6.5 -23.5v-264l121 1l186 291l-85 22l2 21h216l2 -21q-2 -1 -16.5 -4.5t-28 -7.5t-15.5 -5q-23 -7 -47 -40l-161 -236l138 -234q29 -49 50 -72t54 -36 l28 -10l-2 -20l-78 -1q-38 -1 -59.5 15t-43.5 53l-141 246h-120v-268z" />
<glyph unicode="L" horiz-adv-x="566" d="M138 642l-83 23l2 21h239l2 -21l-51 -13q-19 -6 -25.5 -13.5t-6.5 -23.5v-579h127q61 0 106 10q17 41 28 82l15 48h19q6 -39 6 -89q0 -45 -7 -87h-452l-2 21l51 14q18 5 25 13t7 24v570z" />
<glyph unicode="M" horiz-adv-x="1001" d="M172 45l84 -24l-2 -21h-202l-2 21l51 14q17 5 23.5 12.5t8.5 24.5l69 569l-83 24l2 21h165l220 -580l216 580h160l2 -21l-84 -24l71 -578q3 -21 30 -27l53 -15l-2 -21h-238l-2 21l40 12q43 16 43 21l-67 528l-158 -417l-61 -165h-47l-59 165l-165 428z" />
<glyph unicode="N" horiz-adv-x="739" d="M179 45l102 -24l-2 -21h-222l-2 21l51 14q18 5 25 13t7 24v552q0 20 -30 27l-53 14l2 21h147l372 -575v531l-82 23l2 21h202l2 -21l-51 -13q-18 -6 -24.5 -13.5t-6.5 -23.5v-615h-57l-382 583v-538z" />
<glyph unicode="O" horiz-adv-x="676" d="M58 344q0 162 80.5 257t205.5 95q122 0 198 -93.5t76 -253.5q0 -163 -77.5 -261t-203.5 -98q-127 0 -203 95t-76 259zM139 344q0 -144 54.5 -229t146.5 -85q91 0 144 87.5t53 231.5q0 140 -52.5 223.5t-140.5 83.5q-93 0 -148.5 -84.5t-56.5 -227.5z" />
<glyph unicode="P" horiz-adv-x="587" d="M215 45l103 -24l-2 -21h-259l-2 21l51 14q18 5 25 13t7 24v552q0 10 -4 14.5t-17 7.5l-62 19l2 21h255q104 0 172.5 -56.5t68.5 -156.5q0 -97 -69.5 -151t-175.5 -54h-93v-223zM300 646h-85v-338h82q83 0 129 42.5t46 122.5q0 81 -46 127t-126 46z" />
<glyph unicode="Q" horiz-adv-x="676" d="M58 344q0 162 80.5 257t205.5 95q122 0 198 -93.5t76 -253.5q0 -151 -66.5 -247t-178.5 -110q167 -89 307 -89q10 0 28 2l3 -2q7 -10 7 -24q0 -24 -16 -37t-43 -13q-63 0 -164.5 47t-186.5 115q-115 11 -182.5 105t-67.5 248zM139 344q0 -144 54.5 -229t146.5 -85 q91 0 144 87.5t53 231.5q0 140 -52.5 223.5t-140.5 83.5q-93 0 -148.5 -84.5t-56.5 -227.5z" />
<glyph unicode="R" horiz-adv-x="661" d="M215 45l83 -24l-2 -21h-239l-2 21l51 14q18 5 25 13t7 24v552q0 10 -4 14.5t-17 7.5l-62 19l2 21h246q105 0 172 -51t67 -139q0 -67 -36.5 -113t-95.5 -68l96 -177q26 -47 47.5 -69.5t56.5 -38.5l25 -10l-2 -20l-74 -1q-39 -1 -61.5 15t-41.5 53l-122 231q-21 -3 -34 -3 h-85v-250zM289 646h-74v-312h74q81 0 126 41t45 118q0 73 -45 113t-126 40z" />
<glyph unicode="S" horiz-adv-x="502" d="M229 -10q-58 0 -107.5 11t-59.5 25q-12 16 -12 60q0 55 15 97l19 -1q16 -94 43 -122q30 -31 112 -31q61 0 97.5 34t36.5 84q0 49 -32.5 87.5t-78.5 65t-92 54.5t-78.5 71t-32.5 99q0 80 62.5 126t155.5 46q53 0 95.5 -11.5t55.5 -25.5q8 -9 8 -47q0 -56 -15 -108h-19 q-13 90 -38 120q-31 34 -96 34q-57 0 -93.5 -33t-36.5 -87q0 -48 32.5 -85.5t78.5 -64t92 -54.5t78.5 -71.5t32.5 -100.5q0 -80 -60 -126t-163 -46z" />
<glyph unicode="T" horiz-adv-x="605" d="M342 45l82 -24l-2 -21h-239l-2 21l51 14q19 5 25.5 13t6.5 24v577h-60q-57 0 -106 -9q-18 -48 -27 -86l-16 -51h-19q-6 43 -6 89q0 48 7 94h531q7 -36 7 -94q0 -46 -6 -89h-19l-16 51q-9 38 -27 86q-49 9 -106 9h-59v-604z" />
<glyph unicode="U" horiz-adv-x="663" d="M101 226v416l-83 23l2 21h239l2 -21l-51 -13q-19 -6 -25.5 -13.5t-6.5 -23.5v-392q0 -91 48 -141.5t123 -50.5t123 50t48 142v419l-83 23l2 21h202l2 -21l-82 -23v-416q0 -115 -62.5 -175.5t-166.5 -60.5q-103 0 -167 61.5t-64 174.5z" />
<glyph unicode="V" horiz-adv-x="712" d="M380 0h-47l-216 611q-11 32 -40 40l-51 14l2 21h243l2 -21l-83 -21l187 -546l187 545l-83 22l2 21h201l2 -21q-2 -1 -27 -7.5t-27 -7.5q-26 -8 -36 -39z" />
<glyph unicode="W" horiz-adv-x="1059" d="M371 0h-47l-207 611q-11 32 -40 40l-51 14l2 21h243l2 -21l-83 -21l178 -545l141 429l-28 83q-6 19 -13.5 27.5t-23.5 12.5l-51 14l2 21h241l2 -21l-83 -21l177 -544l179 544l-83 21l2 21h201l2 -21q-2 -1 -27 -7.5t-27 -7.5q-26 -8 -37 -39l-207 -611h-47l-158 468z" />
<glyph unicode="X" horiz-adv-x="695" d="M128 78l181 259l-187 274q-20 31 -39 38q-4 3 -44 16l2 21h232l2 -21l-83 -21l174 -257l170 256l-82 22l2 21h199l2 -21q-49 -16 -50 -17q-21 -8 -43 -40l-176 -252l190 -281q21 -32 40 -38q2 -1 21.5 -8t21.5 -8l-2 -21h-230l-2 21l82 22l-179 262l-175 -262l83 -22 l-2 -21h-200l-2 21q3 1 25 8.5t25 9.5q20 6 44 39z" />
<glyph unicode="Y" horiz-adv-x="679" d="M378 45l82 -24l-2 -21h-238l-2 21l51 14q18 5 24.5 13t6.5 24v203l-182 336q-11 20 -19.5 29t-23.5 13l-49 12l2 21h244l2 -21l-83 -22l169 -331l169 332l-82 21l2 21h202l2 -21q-2 -1 -15.5 -4.5t-25.5 -7t-13 -4.5q-24 -7 -40 -38l-181 -338v-228z" />
<glyph unicode="Z" horiz-adv-x="611" d="M536 0h-464l-6 35l379 615h-195q-58 0 -101 -5l-51 -142h-19q-6 39 -6 82q0 52 7 101h447l7 -35l-380 -615h212q57 0 100 5l52 143h18q6 -39 6 -81q0 -59 -6 -103z" />
<glyph unicode="[" horiz-adv-x="391" d="M333 -194h-195v954h195v-26h-121v-902h121v-26z" />
<glyph unicode="\" horiz-adv-x="395" d="M265 -10l-187 750l8 8l43 8l188 -749l-8 -8z" />
<glyph unicode="]" horiz-adv-x="391" d="M58 756h195v-954h-195v26h121v902h-121v26z" />
<glyph unicode="^" horiz-adv-x="526" d="M145 210h-57l144 336h58l148 -336h-57l-121 276z" />
<glyph unicode="_" horiz-adv-x="530" d="M42 -146v43h446v-43h-446z" />
<glyph unicode="`" horiz-adv-x="371" d="M279 589l-12 -13q-72 40 -123.5 82t-51.5 69q0 31 47 31h12l6 -3q33 -62 122 -166z" />
<glyph unicode="a" horiz-adv-x="516" d="M265 507q71 0 109.5 -37t38.5 -106q0 -23 -2 -122.5t-2 -138.5q0 -35 10.5 -50.5t37.5 -15.5q20 0 42 7l4 -11q-35 -43 -91 -43q-32 0 -52.5 18t-25.5 50q-63 -68 -149 -68q-58 0 -92.5 30t-34.5 82q0 72 77 118.5t200 49.5q2 104 2 108q0 44 -23.5 67.5t-65.5 23.5 q-44 0 -73.5 -27.5t-29.5 -63.5q0 -19 7 -37q-15 -9 -36 -9q-20 0 -32.5 10.5t-12.5 28.5q0 48 61 92t133 44zM135 112q0 -73 79 -73q71 0 120 58q0 93 1 142q-91 -4 -145.5 -38t-54.5 -89z" />
<glyph unicode="b" horiz-adv-x="557" d="M111 -10l-10 6v700l-69 13l-2 14q61 24 137 33l9 -9v-303q58 62 140 62q90 0 140.5 -68t50.5 -185q0 -120 -61 -191.5t-164 -71.5q-64 0 -115 24zM275 27q73 0 113.5 58.5t40.5 160.5q0 98 -36 154.5t-100 56.5t-117 -56v-347q43 -27 99 -27z" />
<glyph unicode="c" horiz-adv-x="458" d="M432 84q-26 -43 -70 -68.5t-100 -25.5q-97 0 -154.5 66.5t-57.5 178.5q0 119 61 195t157 76q66 0 110 -36t44 -89q0 -24 -12 -38t-32 -14q-16 0 -30 7q2 9 2 23q0 51 -23.5 80.5t-65.5 29.5q-58 0 -95 -57t-37 -147q0 -105 42 -162.5t120 -57.5q73 0 128 49z" />
<glyph unicode="d" horiz-adv-x="562" d="M549 33q-34 -43 -91 -43q-66 0 -77 67q-57 -67 -144 -67q-84 0 -135.5 64.5t-51.5 181.5q0 124 68.5 197t168.5 73q45 0 92 -13v203l-89 13l-2 14q58 23 156 33l10 -9v-633q0 -41 11 -59t39 -18q20 0 41 7zM129 244q0 -98 36.5 -152t96.5 -54q67 0 117 58v346 q-39 27 -90 27q-72 0 -116 -58.5t-44 -166.5z" />
<glyph unicode="e" horiz-adv-x="476" d="M433 84q-26 -43 -70.5 -68.5t-101.5 -25.5q-96 0 -153.5 67t-57.5 179q0 119 60.5 194.5t154.5 75.5q75 0 121 -50t46 -135q0 -36 -1 -53l-11 -12h-291q1 -100 43.5 -155.5t116.5 -55.5q76 0 131 49zM260 469q-56 0 -91 -50t-40 -132l225 6q1 13 1 36q0 140 -95 140z" />
<glyph unicode="f" horiz-adv-x="330" d="M189 40l92 -23l-2 -17h-236l-2 17l44 14q17 6 23 13.5t6 24.5v384h-71l-2 17l73 19v20q0 109 57.5 178t145.5 69q53 0 90 -28.5t37 -65.5q0 -18 -11 -28.5t-29 -10.5q-10 0 -20 5q-14 91 -81 91q-53 0 -83.5 -48.5t-30.5 -135.5v-47h132v-35h-132v-413z" />
<glyph unicode="g" horiz-adv-x="488" d="M65 317q0 82 51 135.5t130 53.5q57 0 98 -30q22 23 53.5 39.5t49.5 16.5q23 0 23 -32q0 -18 -3 -27q-3 -14 -23 -14q-53 0 -78 -3q44 -47 44 -123q0 -83 -48 -134t-127 -51q-20 0 -42 5q-20 -25 -20 -50q0 -21 12 -31t40 -12l89 -8q72 -7 111.5 -42.5t39.5 -94.5 q0 -75 -66.5 -123t-171.5 -48q-86 0 -139 35t-53 92q0 63 71 99l11 -9q-17 -31 -17 -57q1 -57 42 -90t110 -33q68 0 110 30.5t42 78.5q0 39 -26.5 62.5t-75.5 28.5l-96 10q-44 5 -67 27t-23 55q0 51 49 89q-46 18 -73 59.5t-27 95.5zM333 323q0 147 -92 147q-45 0 -72 -37 t-27 -102q0 -67 25.5 -106.5t69.5 -40.5q46 0 71 36t25 103z" />
<glyph unicode="h" horiz-adv-x="587" d="M181 40l72 -23l-2 -17h-216l-2 17l44 14q17 6 23 13.5t6 24.5v627l-70 13l-2 14q60 24 137 33l10 -9v-306q74 65 160 65q68 0 104.5 -39t36.5 -112v-315l72 -23l-2 -17h-216l-2 17l44 14q17 6 23 13.5t6 24.5v280q0 108 -96 108q-66 0 -130 -53v-364z" />
<glyph unicode="i" horiz-adv-x="294" d="M193 668q0 -25 -15 -43.5t-40 -18.5q-22 0 -35.5 15.5t-13.5 38.5q0 25 16.5 43t40.5 18q21 0 34 -14.5t13 -38.5zM189 40l72 -23l-2 -17h-216l-2 17l44 14q17 6 23 13.5t6 24.5v377l-70 13l-2 14q60 24 137 33l10 -9v-457z" />
<glyph unicode="j" horiz-adv-x="275" d="M185 667q0 -26 -15 -44t-40 -18q-21 0 -35 15.5t-14 38.5q0 24 16.5 42.5t40.5 18.5q21 0 34 -15t13 -38zM23 -241q44 62 63.5 115.5t19.5 147.5v424l-69 13l-2 14q61 24 137 33l9 -9v-507q0 -90 -35.5 -144.5t-107.5 -101.5z" />
<glyph unicode="k" horiz-adv-x="555" d="M181 40l72 -23l-2 -17h-216l-2 17l44 14q17 6 23 13.5t6 24.5v628l-70 13l-2 14q60 24 137 33l10 -9v-468h95l118 176l-78 23l2 17h196l2 -17q-45 -15 -50 -18q-22 -8 -46 -39l-94 -122h1l118 -206q31 -52 59 -62l33 -12l-2 -20h-67q-33 0 -51.5 14t-37.5 48l-103 183 h-95v-205z" />
<glyph unicode="l" horiz-adv-x="286" d="M181 40l72 -23l-2 -17h-216l-2 17l44 14q17 6 23 13.5t6 24.5v628l-70 13l-2 14q60 24 137 33l10 -9v-708z" />
<glyph unicode="m" horiz-adv-x="882" d="M189 40l72 -23l-2 -17h-216l-2 17l44 14q17 6 23 13.5t6 24.5v377l-70 13l-2 14q60 24 137 33l10 -9v-56q75 65 156 65q91 0 123 -71q76 71 164 71q70 0 107 -39t37 -112v-315l73 -23l-2 -17h-216l-2 17l43 14q17 6 23 13.5t6 24.5v280q0 53 -24.5 80.5t-72.5 26.5 q-66 0 -127 -50q5 -25 5 -51v-315l73 -23l-2 -17h-216l-2 17l43 14q17 6 23 13.5t6 24.5v280q0 108 -92 108q-63 0 -126 -53v-364z" />
<glyph unicode="n" horiz-adv-x="595" d="M189 40l72 -23l-2 -17h-216l-2 17l44 14q17 6 23 13.5t6 24.5v377l-70 13l-2 14q60 24 137 33l10 -9v-56q74 65 160 65q68 0 104.5 -39t36.5 -112v-315l72 -23l-2 -17h-216l-2 17l44 14q17 6 23 13.5t6 24.5v280q0 108 -96 108q-68 0 -130 -53v-364z" />
<glyph unicode="o" horiz-adv-x="515" d="M465 250q0 -120 -59 -189.5t-151 -70.5q-91 -1 -148 69t-57 192q0 118 62.5 186.5t151.5 68.5q87 0 144 -68t57 -188zM129 249q0 -103 33.5 -162.5t92.5 -59.5q131 0 131 219q0 105 -33 164t-91 59q-62 0 -97.5 -55t-35.5 -165z" />
<glyph unicode="p" horiz-adv-x="562" d="M181 -206l92 -23l-2 -17h-236l-2 17l44 13q17 6 23 14t6 25v623l-70 13l-2 14q60 24 137 33l10 -9v-53q58 62 140 62q90 0 140.5 -68t50.5 -184q0 -120 -63.5 -192t-168.5 -72q-46 0 -99 14v-210zM281 27q70 0 111 59t41 159q0 99 -35 155.5t-101 56.5q-65 0 -116 -56 v-346q40 -28 100 -28z" />
<glyph unicode="q" horiz-adv-x="551" d="M454 -206l72 -23l-2 -17h-216l-2 17l44 13q17 6 23 14t6 25v231q-58 -64 -141 -64q-84 0 -136 64.5t-52 183.5q0 124 68 196t165 72q56 0 107 -22l54 22l10 -5v-707zM289 469q-72 0 -116 -57.5t-44 -165.5q0 -99 36.5 -154t95.5 -55q67 0 118 59v346q-39 27 -90 27z" />
<glyph unicode="r" horiz-adv-x="406" d="M189 40l92 -23l-2 -17h-236l-2 17l44 14q17 6 23 13.5t6 24.5v377l-70 13l-2 14q60 24 137 33l10 -9v-74q64 83 131 83q31 0 49.5 -15.5t18.5 -38.5q0 -28 -27 -52q-1 0 -4.5 -1t-4.5 -1q-31 43 -73 45q-23 0 -48 -19t-42 -43v-341z" />
<glyph unicode="s" horiz-adv-x="424" d="M192 -10q-42 0 -81.5 8.5t-49.5 19.5q-11 13 -11 53q0 47 15 84l15 -1q9 -76 36 -104q23 -23 82 -23q46 0 72.5 22t26.5 59q0 34 -24.5 59.5t-60 43t-71 36.5t-60 50.5t-24.5 74.5q0 60 50.5 97t125.5 37q40 0 75.5 -8t44.5 -19q8 -7 8 -45q0 -51 -14 -90l-15 1 q-9 81 -32 101q-28 23 -72 23q-43 0 -68.5 -22.5t-25.5 -61.5q0 -34 24.5 -59.5t60 -43t71 -36.5t60 -50t24.5 -72q0 -61 -50 -97.5t-132 -36.5z" />
<glyph unicode="t" horiz-adv-x="408" d="M382 84q-26 -42 -65.5 -68t-86.5 -26q-59 0 -90 38t-31 110v315h-82l-2 17l84 24l55 146l20 -2v-150h170v-35h-170v-298q0 -110 77 -110q54 0 108 49z" />
<glyph unicode="u" horiz-adv-x="606" d="M109 156v290l-69 13l-2 14q61 24 137 33l9 -9v-335q0 -123 108 -123q66 0 122 56v351l-69 13l-2 14q61 24 137 33l9 -9v-383q0 -41 11.5 -59t37.5 -18q19 0 43 7l4 -11q-36 -43 -92 -43q-64 0 -77 66q-63 -66 -152 -66q-74 0 -114.5 43t-40.5 123z" />
<glyph unicode="v" horiz-adv-x="546" d="M445 424l-147 -424h-53l-147 424q-10 30 -34 39q-1 2 -11.5 5.5t-22 6.5t-12.5 4l2 17h222l2 -17l-75 -22l124 -380l124 380l-74 22l2 17h181l2 -17q-40 -10 -46 -16q-26 -9 -37 -39z" />
<glyph unicode="w" horiz-adv-x="828" d="M455 496l143 -410l101 371l-75 22l2 17h182l2 -17q-40 -10 -46 -16q-28 -10 -36 -39l-123 -424h-54l-138 392l-138 -392h-53l-124 424q-8 30 -34 39q-6 6 -46 16l2 17h221l2 -17l-74 -22l102 -371l141 410h43z" />
<glyph unicode="x" horiz-adv-x="538" d="M171 457l119 -173l113 172l-73 23l2 17h181l2 -17q-1 0 -12.5 -4t-21.5 -8t-12 -6q-15 -6 -41 -39l-120 -164l129 -186q19 -28 31 -35q4 -2 9 -4q2 -1 21.5 -8t21.5 -8l-2 -17h-215l-2 17l72 23l-124 177l-116 -177l73 -23l-2 -17h-184l-2 17q43 14 48 18q12 5 20 13 t22 27l123 168l-126 181q-9 14 -12.5 19t-10 10.5t-16.5 8.5q-6 8 -43 17l2 17h216l2 -17z" />
<glyph unicode="y" horiz-adv-x="553" d="M28 496h221l2 -17l-74 -22l123 -375l124 375l-75 22l2 17h182l2 -17q-5 -1 -24.5 -7.5t-21.5 -8.5q-26 -9 -36 -39l-152 -437q-43 -124 -88.5 -183.5t-109.5 -59.5q-31 0 -52 17t-21 42q0 24 14 36l6 3q29 -31 64 -31q48 0 89.5 51t67.5 132l-14 -7l-151 437 q-11 29 -34 39q-1 1 -11 4.5t-21.5 7t-13.5 4.5z" />
<glyph unicode="z" horiz-adv-x="472" d="M421 69q-2 -46 -7 -69h-357l-7 35l289 426h-213l-45 -119h-17q-8 42 -8 88q0 34 6 66h353l7 -35l-290 -426h218l46 120h16q9 -38 9 -86z" />
<glyph unicode="{" horiz-adv-x="417" d="M98 295q104 3 104 99q0 40 -17.5 114.5t-17.5 115.5q0 134 189 134l3 -22q-61 -3 -88 -28.5t-27 -77.5q0 -40 16.5 -115t16.5 -117q0 -41 -24 -72t-70 -44q46 -14 70 -45t24 -72t-16.5 -116t-16.5 -116q0 -52 27 -77.5t88 -28.5l-3 -22q-189 0 -189 134q0 42 17.5 117 t17.5 113q0 96 -104 99v27z" />
<glyph unicode="|" horiz-adv-x="327" d="M145 -256l-7 7v1002l44 3l7 -7v-1002z" />
<glyph unicode="}" horiz-adv-x="417" d="M319 295v-27q-104 -3 -104 -99q0 -38 17.5 -113t17.5 -117q0 -134 -189 -134l-3 22q61 3 88.5 28.5t27.5 77.5q0 41 -17 116t-17 116t24 72t70 45q-46 13 -70 44t-24 72q0 42 17 117t17 115q0 52 -27.5 77.5t-88.5 28.5l3 22q189 0 189 -134q0 -41 -17.5 -115.5 t-17.5 -114.5q0 -96 104 -99z" />
<glyph unicode="~" horiz-adv-x="545" d="M397 217q-20 0 -129 26.5t-125 26.5q-13 0 -61 -60l-32 19q55 96 95 96q20 0 127.5 -27t126.5 -27q11 0 62 61l31 -20q-52 -95 -95 -95z" />
<glyph unicode="&#xa1;" horiz-adv-x="297" d="M99 447q0 24 14 41.5t38 17.5q21 0 34 -14.5t13 -36.5q0 -24 -15.5 -41.5t-38.5 -17.5q-20 0 -32.5 14t-12.5 37zM193 -188l-4 -4l-18 -3q-22 -5 -45 -5q-14 0 -19.5 5.5t-5.5 19.5q0 5 0.5 15.5t0.5 16.5l27 442h37z" />
<glyph unicode="&#xa2;" horiz-adv-x="481" d="M290 -137l-37 -3l-7 7v124q-91 7 -143.5 79.5t-52.5 194.5q0 112 54 189.5t142 89.5v133l37 3l7 -7v-127q60 -5 100 -40.5t40 -84.5q0 -24 -12 -38t-32 -14q-16 0 -30 7q2 18 2 23q0 51 -24 80.5t-65 29.5q-63 0 -101.5 -62t-38.5 -163q0 -113 43 -176t123 -63 q73 0 131 49l13 -10q-22 -38 -61 -63t-88 -30v-128z" />
<glyph unicode="&#xa3;" horiz-adv-x="602" d="M78 297l5 43h117q12 94 15 109q18 121 74 184.5t140 63.5q53 0 87.5 -30t34.5 -67q0 -41 -40 -50q-33 109 -98 109q-47 0 -75 -50t-46 -151l-21 -118h179l-5 -43h-182l-13 -79q-21 -115 -82 -182q14 -6 67 -30t83 -36t78 -24.5t86 -12.5q30 0 63 11q5 -10 5 -24 q0 -28 -22 -42.5t-59 -14.5t-86.5 17.5t-83.5 35.5t-89.5 50.5t-71.5 40.5q-35 -24 -65 -24q-39 0 -39 32q0 18 16 30.5t41 12.5q17 0 47 -10q29 61 56 249h-116z" />
<glyph unicode="&#xa4;" horiz-adv-x="547" d="M453 126l-72 73q-47 -40 -116 -41q-63 1 -108 31l-63 -63l-36 36l62 62q-38 47 -38 113q-2 70 44 125l-67 69l34 34q48 -48 70 -69q48 33 108 32q61 1 109 -35l72 72l36 -36l-72 -72q37 -49 35 -109q0 -63 -35 -112q53 -53 73 -72v-11zM267 480q-58 0 -95 -41t-37 -96 q0 -53 36.5 -94.5t96.5 -41.5q61 0 95.5 40.5t34.5 97.5q0 54 -36.5 94.5t-94.5 40.5z" />
<glyph unicode="&#xa5;" horiz-adv-x="679" d="M132 130v42h168v91h-168v41h168v2l-182 305q-13 21 -21 29.5t-22 12.5l-49 12l2 21h244l2 -21l-82 -21l168 -299l168 299l-81 21l2 21h202l2 -21q-2 -1 -15.5 -4.5t-25.5 -7t-13 -4.5q-22 -6 -40 -38l-181 -307h170v-41h-170v-91h170v-42h-170v-16h-1v-69l83 -24l-2 -21 h-239l-2 21l51 14q18 5 24.5 13t6.5 24v42h1v16h-168z" />
<glyph unicode="&#xa6;" horiz-adv-x="327" d="M189 370l-36 -3l-15 7v379l44 3l7 -7v-379zM189 -253l-36 -3l-15 7v378l44 3l7 -7v-378z" />
<glyph unicode="&#xa7;" horiz-adv-x="537" d="M479 60q0 -101 -74.5 -166t-170.5 -65q-76 0 -126 24t-50 59q0 31 35 56l14 -2q61 -79 170 -98q36 32 36 106q0 45 -26.5 94t-64 94t-75 92t-63.5 103t-26 110q1 100 75.5 164.5t169.5 64.5q74 0 125 -24t51 -58q0 -32 -35 -57l-14 2q-60 80 -168 99q-38 -38 -38 -110 q0 -45 26.5 -93t64 -92t74.5 -89.5t63.5 -101.5t26.5 -112zM113 477q0 -52 26 -104.5t63 -97.5t73.5 -90t62.5 -97t26 -102q0 -45 -15 -81l8 -4q67 56 67 147q0 55 -26 108t-63 97t-73.5 87.5t-62.5 94.5t-26 102q0 46 15 82l-8 5q-67 -56 -67 -147z" />
<glyph unicode="&#xa8;" horiz-adv-x="482" d="M391 672q0 -25 -14 -43t-38 -18q-20 0 -32.5 15t-12.5 36q0 24 15.5 42t37.5 18q19 0 31.5 -14t12.5 -36zM188 672q0 -25 -14 -43t-37 -18q-20 0 -32.5 14.5t-12.5 36.5q0 24 15 42t37 18q19 0 31.5 -14t12.5 -36z" />
<glyph unicode="&#xa9;" horiz-adv-x="716" d="M358 -48q-127 0 -213.5 86t-86.5 212q0 122 88 209t212 87q127 0 213.5 -86.5t86.5 -209.5q0 -122 -88 -210t-212 -88zM358 -7q107 0 183 75.5t76 181.5t-76 180.5t-183 74.5t-183 -74.5t-76 -180.5q0 -109 74.5 -183t184.5 -74zM482 144q-40 -64 -114 -64 q-63 0 -104.5 45.5t-41.5 120.5t41 124.5t105 49.5q44 0 74 -24.5t30 -60.5q0 -15 -8.5 -24t-22.5 -9q-16 0 -28 6q1 6 1 14q0 28 -13.5 44.5t-35.5 16.5q-36 0 -58.5 -35.5t-22.5 -90.5q0 -57 28 -92.5t71 -35.5q46 0 82 31z" />
<glyph unicode="&#xaa;" horiz-adv-x="456" d="M229 696q57 0 88.5 -29t31.5 -84q0 -17 -1.5 -93t-1.5 -106q0 -29 9 -40t31 -11q17 0 34 4l4 -8q-29 -36 -76 -36q-26 0 -43 14.5t-21 38.5q-51 -53 -123 -53q-47 0 -75 24t-28 64q0 57 63 93t164 38q1 41 1 85q0 34 -19 52t-53 18q-36 0 -60 -21t-24 -50q0 -16 5 -29 q-16 -8 -30 -8q-16 0 -26 8.5t-10 23.5q0 37 50.5 71t109.5 34zM122 390q0 -57 64 -57q58 0 97 43q0 35 2 111q-75 -2 -119 -28t-44 -69z" />
<glyph unicode="&#xab;" horiz-adv-x="542" d="M257 30l-16 -9q-88 132 -158 196l-5 6v53q80 81 165 205l15 -10q-38 -87 -115 -222q57 -91 114 -219zM463 30l-16 -9q-88 132 -158 196l-5 6v53q80 81 165 205l15 -10q-38 -87 -115 -222q57 -91 114 -219z" />
<glyph unicode="&#xac;" d="M489 434v-216h-53v171h-370v48q157 5 415 5z" />
<glyph unicode="&#xae;" horiz-adv-x="716" d="M358 -48q-127 0 -213.5 86t-86.5 212q0 122 88 209t212 87q127 0 213.5 -86.5t86.5 -209.5q0 -122 -88 -210t-212 -88zM358 -7q107 0 183 75.5t76 181.5t-76 180.5t-183 74.5t-183 -74.5t-76 -180.5q0 -109 74.5 -183t184.5 -74zM319 122l46 -13l-2 -23h-147l-1 23l29 8 q9 3 12 7.5t3 15.5v222q0 17 -15 22l-29 7l1 23h149q61 0 98.5 -26t37.5 -73q0 -60 -67 -88l28 -47q35 -58 56 -65l18 -6l-1 -23l-43 -1q-24 -1 -36.5 8t-25.5 32l-53 90q-8 -1 -19 -1h-39v-92zM356 380h-37v-132h45q35 0 56 17t21 50q0 65 -85 65z" />
<glyph unicode="&#xaf;" horiz-adv-x="462" d="M92 643v46h278v-46h-278z" />
<glyph unicode="&#xb0;" horiz-adv-x="353" d="M184 457q-50 0 -82.5 31.5t-32.5 83.5q0 53 35.5 89t87.5 36q49 0 81.5 -32t32.5 -83q0 -52 -36 -88.5t-86 -36.5zM188 658q-35 0 -56 -24t-21 -60q0 -34 21.5 -56.5t54.5 -22.5q34 0 55 24t21 61q0 34 -20.5 56t-54.5 22z" />
<glyph unicode="&#xb1;" d="M484 406h-174v-169h-52v169h-180l-1 48q46 1 181 3v165h52v-164q37 0 96 0.5t76 0.5l8 -8zM496 76h-416v47q155 5 415 5l8 -8z" />
<glyph unicode="&#xb2;" horiz-adv-x="382" d="M57 353l-6 34q70 54 107 85.5t67 74.5t30 81q0 37 -22.5 58.5t-61.5 21.5q-57 0 -105 -54l-10 5q18 45 55.5 71t84.5 26q55 0 87 -30.5t32 -79.5q0 -40 -31.5 -84t-58.5 -67t-97 -77q-16 -13 -24 -19h161q24 0 34.5 9.5t21.5 39.5l11 -1q0 -52 -15 -94h-260z" />
<glyph unicode="&#xb3;" horiz-adv-x="386" d="M115 531l-2 22q72 11 110 32t38 61q0 27 -21 44.5t-55 17.5q-57 0 -109 -54l-10 6q20 44 58 70t84 26q50 0 81.5 -25.5t31.5 -65.5q0 -44 -36.5 -71t-85.5 -36q59 -4 98 -31t39 -72q0 -50 -46.5 -80.5t-114.5 -30.5q-55 0 -90 17.5t-35 47.5q0 32 45 42l7 -5 q-3 -6 -3 -16q3 -62 81 -62q43 0 70.5 20.5t27.5 56.5q0 41 -37 64t-88 23q-25 0 -38 -1z" />
<glyph unicode="&#xb4;" horiz-adv-x="371" d="M279 727q0 -27 -52 -69t-124 -82l-11 13q87 101 121 166l7 3h11q48 0 48 -31z" />
<glyph unicode="&#xb6;" horiz-adv-x="596" d="M268 -134q66 0 99.5 53t33.5 140v587h-78v-421h-23q-105 0 -173.5 62.5t-68.5 172.5q0 106 69.5 166t175.5 60h233l2 -21l-51 -13q-19 -6 -25.5 -13.5t-6.5 -23.5v-547q0 -115 -53.5 -177t-143.5 -62q-68 0 -112 31t-44 84q0 62 61 101l14 -10q-17 -31 -17 -58 q2 -50 30 -80.5t78 -30.5z" />
<glyph unicode="&#xb7;" horiz-adv-x="309" d="M153 211q-24 0 -39 15.5t-16 37.5q0 25 17.5 44t42.5 19q23 0 37.5 -14.5t15.5 -37.5q0 -27 -16 -45.5t-42 -18.5z" />
<glyph unicode="&#xb8;" horiz-adv-x="336" d="M118 -99l-4 6l16 93h39l-12 -63q42 -9 65 -28t23 -45q0 -38 -42 -61t-107 -27l-4 15q82 24 82 64q0 32 -56 46z" />
<glyph unicode="&#xb9;" horiz-adv-x="282" d="M171 378l61 -15l-2 -10h-179l-1 10l34 6q16 5 22 10.5t6 17.5v314l-61 6l-1 10l115 29l6 -5v-373z" />
<glyph unicode="&#xba;" horiz-adv-x="440" d="M390 496q0 -94 -48.5 -148t-124.5 -55q-74 0 -120.5 54.5t-46.5 149.5q0 92 51.5 145.5t124.5 53.5q72 0 118 -53t46 -147zM115 496q0 -81 27 -127t76 -46q107 0 107 170q0 83 -26.5 128.5t-74.5 45.5q-51 0 -80 -42.5t-29 -128.5z" />
<glyph unicode="&#xbb;" horiz-adv-x="542" d="M464 223q-77 -82 -165 -205l-15 9q31 71 116 223q-58 92 -115 219l17 9q91 -137 158 -196l4 -7v-52zM258 223q-77 -82 -165 -205l-15 9q31 71 116 223q-58 92 -115 219l17 9q91 -137 158 -196l4 -7v-52z" />
<glyph unicode="&#xbc;" horiz-adv-x="940" d="M684 696l-423 -706h-46l422 706h47zM203 311l61 -16l-2 -10h-178l-1 10l34 7q16 5 22 10t6 17v314l-61 7l-1 9l114 30l6 -6v-372zM537 118l227 283l40 -4v-271h74l-5 -35h-69v-91h-59v91h-201zM579 126h166v212z" />
<glyph unicode="&#xbd;" horiz-adv-x="940" d="M684 696l-423 -706h-46l422 706h47zM203 311l61 -16l-2 -10h-178l-1 10l34 7q16 5 22 10t6 17v314l-61 7l-1 9l114 30l6 -6v-372zM581 0l-6 35q105 81 154 133.5t49 107.5q0 36 -22.5 57.5t-60.5 21.5q-57 0 -105 -54l-11 6q19 45 56 71t84 26q55 0 87 -31t32 -79 q0 -31 -13.5 -60t-44 -60t-55 -51.5t-71.5 -56.5q-17 -13 -26 -20h160q24 0 34.5 10t21.5 40l11 -1q0 -51 -14 -95h-260z" />
<glyph unicode="&#xbe;" horiz-adv-x="940" d="M721 696l-423 -706h-45l422 706h46zM135 463l-2 22q72 11 110 32.5t38 61.5q0 27 -21 44t-55 17q-56 0 -109 -53l-10 5q20 45 58.5 71t83.5 26q50 0 81.5 -26t31.5 -65q0 -45 -36.5 -71.5t-85.5 -35.5q59 -4 98 -31.5t39 -72.5q0 -50 -46.5 -80.5t-114.5 -30.5 q-55 0 -90 17.5t-35 47.5q0 15 12.5 26.5t32.5 15.5l7 -5q-3 -6 -3 -16q2 -28 22 -45t59 -17q43 0 70.5 21t27.5 57q0 41 -37 64t-88 23q-12 0 -38 -2zM537 118l227 283l40 -4v-271h74l-5 -35h-69v-91h-59v91h-201zM579 126h166v212z" />
<glyph unicode="&#xbf;" horiz-adv-x="429" d="M178 447q0 24 14 41.5t38 17.5q21 0 34 -14.5t13 -36.5q0 -24 -15.5 -41.5t-38.5 -17.5q-20 0 -32.5 14t-12.5 37zM206 273l8 8q23 1 38 -13t15 -36q0 -24 -17.5 -45.5t-42.5 -40.5t-50 -41.5t-42.5 -58t-17.5 -80.5q0 -59 30.5 -94.5t84.5 -35.5q56 0 90.5 35t34.5 88 q0 21 -8 53q18 8 34 8q21 0 34.5 -16t13.5 -44q0 -66 -60 -113t-146 -47q-81 0 -134 46.5t-53 126.5q0 47 25 90t51.5 66t63 49t40.5 29q8 6 8 28v38z" />
<glyph unicode="&#xc0;" horiz-adv-x="712" d="M485 794l-6 -17q-80 5 -164 32t-84 62q0 26 35 38l8 -1q98 -76 211 -114zM333 686h47l216 -611q7 -19 15 -27t24 -13l51 -14l-2 -21h-243l-2 21l83 22l-68 198l-239 -4l-67 -193l83 -23l-2 -21h-201l-2 21q3 2 28 8.5t26 7.5q28 10 37 38zM228 275h215l-108 313z" />
<glyph unicode="&#xc1;" horiz-adv-x="712" d="M441 907l9 1q35 -12 35 -38q0 -35 -84 -62t-164 -32l-7 17q110 37 211 114zM333 686h47l216 -611q7 -19 15 -27t24 -13l51 -14l-2 -21h-243l-2 21l83 22l-68 198l-239 -4l-67 -193l83 -23l-2 -21h-201l-2 21q3 2 28 8.5t26 7.5q28 10 37 38zM228 275h215l-108 313z" />
<glyph unicode="&#xc2;" horiz-adv-x="712" d="M506 782l-14 -11q-78 54 -134 85q-89 -59 -134 -85l-13 13q85 81 117 126l8 5h51q59 -61 119 -133zM333 686h47l216 -611q7 -19 15 -27t24 -13l51 -14l-2 -21h-243l-2 21l83 22l-68 198l-239 -4l-67 -193l83 -23l-2 -21h-201l-2 21q3 2 28 8.5t26 7.5q28 10 37 38z M228 275h215l-108 313z" />
<glyph unicode="&#xc3;" horiz-adv-x="712" d="M188 774l-15 5q-1 3 -1 8q15 111 84 111q34 0 119.5 -32t102.5 -34q1 1 20 28t29 43l15 -6q0 -1 0.5 -4.5t0.5 -5.5q-15 -108 -82 -108q-33 0 -121 32t-102 34q-26 -29 -50 -71zM333 686h47l216 -611q7 -19 15 -27t24 -13l51 -14l-2 -21h-243l-2 21l83 22l-68 198 l-239 -4l-67 -193l83 -23l-2 -21h-201l-2 21q3 2 28 8.5t26 7.5q28 10 37 38zM228 275h215l-108 313z" />
<glyph unicode="&#xc4;" horiz-adv-x="712" d="M513 847q0 -24 -14.5 -41t-39.5 -17q-22 0 -35 13.5t-13 33.5q0 23 16 40t39 17q21 0 34 -13t13 -33zM310 847q0 -24 -14.5 -41t-39.5 -17q-21 0 -34.5 13.5t-13.5 33.5q0 23 16 40t39 17q21 0 34 -12.5t13 -33.5zM333 686h47l216 -611q7 -19 15 -27t24 -13l51 -14 l-2 -21h-243l-2 21l83 22l-68 198l-239 -4l-67 -193l83 -23l-2 -21h-201l-2 21q3 2 28 8.5t26 7.5q28 10 37 38zM228 275h215l-108 313z" />
<glyph unicode="&#xc5;" horiz-adv-x="712" d="M354 766q-37 0 -60 20.5t-23 54.5q0 36 25.5 58.5t65.5 22.5q37 0 60.5 -21t22.5 -54q-1 -35 -26.5 -58t-64.5 -23zM358 895q-20 0 -33 -15t-13 -38q0 -22 12.5 -35.5t32.5 -13.5q21 0 33.5 15.5t12.5 39.5q0 20 -12.5 33.5t-32.5 13.5zM333 686h47l216 -611 q7 -19 15 -27t24 -13l51 -14l-2 -21h-243l-2 21l83 22l-68 198l-239 -4l-67 -193l83 -23l-2 -21h-201l-2 21q3 2 28 8.5t26 7.5q28 10 37 38zM228 275h215l-108 313z" />
<glyph unicode="&#xc6;" horiz-adv-x="896" d="M28 0l-2 21q3 2 28 8.5t26 7.5q28 10 37 38l200 567l-83 23l2 21h585q7 -46 7 -94q0 -47 -6 -89h-19l-23 71q-1 3 -12.5 35.5t-13.5 35.5q-42 5 -100 5h-124v-289l212 7l-2 -47l-210 5v-290h134q58 0 100 5q2 3 13.5 36t12.5 36l23 71h19q6 -41 6 -90q0 -48 -7 -94h-459 l-2 21l51 14q18 5 25 13t7 24v254l-209 -3l-96 -279l83 -23l-2 -21h-201zM453 650h-97l-99 -290h196v290z" />
<glyph unicode="&#xc7;" horiz-adv-x="644" d="M347 -99l-4 6l15 85q-141 14 -220.5 105t-79.5 244q0 161 96.5 258t241.5 97q97 0 164 -30q5 -20 5 -57q0 -62 -9 -108l-18 -1q-36 100 -54 144q-38 11 -81 11q-113 0 -188.5 -86.5t-75.5 -227.5q1 -141 74 -225.5t194 -84.5q48 0 88 11q14 31 58 142h18q7 -38 7 -87 t-5 -79q-78 -28 -169 -28h-8l-10 -53q42 -9 65 -28t23 -45q0 -38 -42 -61t-107 -27l-4 15q82 24 82 64q0 32 -56 46z" />
<glyph unicode="&#xc8;" horiz-adv-x="581" d="M439 793l-7 -17q-80 5 -164 32t-84 62q0 25 36 38l8 -1q104 -78 211 -114zM215 361l212 7l-2 -47l-210 5v-290h134q58 0 100 5q2 3 13.5 36t12.5 36l23 71h19q6 -41 6 -90q0 -48 -7 -94h-459l-2 21l51 14q18 5 25 13t7 24v552q0 10 -4 14.5t-17 7.5l-62 19l2 21h449 q7 -46 7 -94q0 -47 -6 -89h-19l-23 71q-1 3 -12.5 35.5t-13.5 35.5q-42 5 -100 5h-124v-289z" />
<glyph unicode="&#xc9;" horiz-adv-x="581" d="M409 906l9 2q35 -12 35 -39q0 -35 -83.5 -61.5t-164.5 -32.5l-7 17q113 39 211 114zM215 361l212 7l-2 -47l-210 5v-290h134q58 0 100 5q2 3 13.5 36t12.5 36l23 71h19q6 -41 6 -90q0 -48 -7 -94h-459l-2 21l51 14q18 5 25 13t7 24v552q0 11 -4 15.5t-17 7.5l-62 19l2 21 h449q7 -45 7 -94q0 -47 -6 -90h-19l-23 72q-1 3 -12.5 35.5t-13.5 35.5q-62 5 -100 5h-124v-290z" />
<glyph unicode="&#xca;" horiz-adv-x="581" d="M470 781l-15 -10q-87 58 -134 85q-84 -58 -134 -85l-12 12q89 87 117 126l7 5h52q71 -75 119 -133zM215 361l212 7l-2 -47l-210 5v-290h134q58 0 100 5q2 3 13.5 36t12.5 36l23 71h19q6 -41 6 -90q0 -48 -7 -94h-459l-2 21l51 14q18 5 25 13t7 24v552q0 10 -4 14.5 t-17 7.5l-62 19l2 21h449q7 -46 7 -94q0 -47 -6 -89h-19l-23 71q-1 3 -12.5 35.5t-13.5 35.5q-42 5 -100 5h-124v-289z" />
<glyph unicode="&#xcb;" horiz-adv-x="581" d="M475 846q0 -24 -14.5 -41t-39.5 -17q-21 0 -34.5 13.5t-13.5 34.5q0 22 16.5 39t39.5 17q21 0 33.5 -13t12.5 -33zM273 846q0 -24 -15 -41t-40 -17q-21 0 -34.5 13.5t-13.5 34.5q0 22 16.5 39t39.5 17q21 0 34 -13t13 -33zM215 361l212 7l-2 -47l-210 5v-290h134 q58 0 100 5q2 3 13.5 36t12.5 36l23 71h19q6 -41 6 -90q0 -48 -7 -94h-459l-2 21l51 14q18 5 25 13t7 24v552q0 10 -4 14.5t-17 7.5l-62 19l2 21h449q7 -46 7 -94q0 -47 -6 -89h-19l-23 71q-1 3 -12.5 35.5t-13.5 35.5q-42 5 -100 5h-124v-289z" />
<glyph unicode="&#xcc;" horiz-adv-x="353" d="M301 794l-6 -17q-80 5 -164 32t-84 62q0 26 35 38l9 -1q95 -75 210 -114zM215 45l83 -24l-2 -21h-239l-2 21l51 14q18 5 25 13t7 24v570l-83 23l2 21h239l2 -21l-51 -13q-19 -6 -25.5 -13.5t-6.5 -23.5v-570z" />
<glyph unicode="&#xcd;" horiz-adv-x="353" d="M264 907l9 1q35 -12 35 -38q0 -35 -84 -62t-164 -32l-7 17q110 37 211 114zM215 45l83 -24l-2 -21h-239l-2 21l51 14q18 5 25 13t7 24v570l-83 23l2 21h239l2 -21l-51 -13q-19 -6 -25.5 -13.5t-6.5 -23.5v-570z" />
<glyph unicode="&#xce;" horiz-adv-x="353" d="M325 782l-15 -11q-78 54 -134 85q-94 -63 -134 -85l-12 13q89 87 117 126l7 5h52q71 -75 119 -133zM215 45l83 -24l-2 -21h-239l-2 21l51 14q18 5 25 13t7 24v570l-83 23l2 21h239l2 -21l-51 -13q-19 -6 -25.5 -13.5t-6.5 -23.5v-570z" />
<glyph unicode="&#xcf;" horiz-adv-x="353" d="M330 847q0 -24 -14.5 -41t-39.5 -17q-22 0 -35 13.5t-13 33.5q0 23 16 40t39 17q21 0 34 -13t13 -33zM127 847q0 -24 -14.5 -41t-39.5 -17q-21 0 -34.5 13.5t-13.5 33.5q0 23 16 40t39 17q22 0 34.5 -12.5t12.5 -33.5zM215 45l83 -24l-2 -21h-239l-2 21l51 14q18 5 25 13 t7 24v570l-83 23l2 21h239l2 -21l-51 -13q-19 -6 -25.5 -13.5t-6.5 -23.5v-570z" />
<glyph unicode="&#xd0;" horiz-adv-x="702" d="M644 343q0 -160 -90.5 -251.5t-247.5 -91.5h-236l-2 21l51 14q18 5 24.5 13t6.5 24v262h-94v35h94v255q0 11 -3.5 15t-16.5 7l-62 19l2 21h236q157 0 247.5 -91.5t90.5 -251.5zM414 334h-186v-296h74q126 0 193.5 80.5t67.5 224.5t-68 225t-193 81h-74v-280h186v-35z" />
<glyph unicode="&#xd1;" horiz-adv-x="739" d="M207 773l-15 5q-1 3 -1 8q15 111 84 111q34 0 120 -32.5t102 -34.5q3 5 12.5 18.5t19.5 27.5t17 26l15 -6q0 -1 0.5 -4.5t0.5 -5.5q-15 -109 -82 -109q-33 0 -121 32.5t-102 34.5q-26 -29 -50 -71zM179 45l102 -24l-2 -21h-222l-2 21l51 14q18 5 25 13t7 24v552 q0 20 -30 27l-53 14l2 21h147l372 -575v531l-82 23l2 21h202l2 -21l-51 -13q-18 -6 -24.5 -13.5t-6.5 -23.5v-615h-57l-382 583v-538z" />
<glyph unicode="&#xd2;" horiz-adv-x="676" d="M469 794l-6 -17q-80 5 -164 32t-84 62q0 26 35 38l8 -1q98 -76 211 -114zM58 344q0 162 80.5 257t205.5 95q122 0 198 -93.5t76 -253.5q0 -163 -77.5 -261t-203.5 -98q-127 0 -203 95t-76 259zM139 344q0 -144 54.5 -229t146.5 -85q91 0 144 87.5t53 231.5 q0 140 -52.5 223.5t-140.5 83.5q-93 0 -148.5 -84.5t-56.5 -227.5z" />
<glyph unicode="&#xd3;" horiz-adv-x="676" d="M429 907l9 1q35 -12 35 -38q0 -35 -84 -62t-164 -32l-6 17q110 37 210 114zM58 344q0 162 80.5 257t205.5 95q122 0 198 -93.5t76 -253.5q0 -163 -77.5 -261t-203.5 -98q-127 0 -203 95t-76 259zM139 344q0 -144 54.5 -229t146.5 -85q91 0 144 87.5t53 231.5 q0 140 -52.5 223.5t-140.5 83.5q-93 0 -148.5 -84.5t-56.5 -227.5z" />
<glyph unicode="&#xd4;" horiz-adv-x="676" d="M490 782l-15 -11q-82 57 -134 85q-79 -54 -133 -85l-13 13q85 81 117 126l7 5h52q71 -75 119 -133zM58 344q0 162 80.5 257t205.5 95q122 0 198 -93.5t76 -253.5q0 -163 -77.5 -261t-203.5 -98q-127 0 -203 95t-76 259zM139 344q0 -144 54.5 -229t146.5 -85 q91 0 144 87.5t53 231.5q0 140 -52.5 223.5t-140.5 83.5q-93 0 -148.5 -84.5t-56.5 -227.5z" />
<glyph unicode="&#xd5;" horiz-adv-x="676" d="M169 774l-16 5v8q15 111 83 111q34 0 120 -32t103 -34q3 4 13 17.5t19 27.5t16 26l16 -6v-10q-15 -108 -82 -108q-32 0 -119.5 32t-102.5 34q-21 -21 -50 -71zM58 344q0 162 80.5 257t205.5 95q122 0 198 -93.5t76 -253.5q0 -163 -77.5 -261t-203.5 -98q-127 0 -203 95 t-76 259zM139 344q0 -144 54.5 -229t146.5 -85q91 0 144 87.5t53 231.5q0 140 -52.5 223.5t-140.5 83.5q-93 0 -148.5 -84.5t-56.5 -227.5z" />
<glyph unicode="&#xd6;" horiz-adv-x="676" d="M496 847q0 -24 -14.5 -41t-39.5 -17q-21 0 -34.5 13.5t-13.5 33.5q0 23 16 40t40 17q21 0 33.5 -13t12.5 -33zM294 847q0 -24 -15 -41t-40 -17q-21 0 -34.5 13.5t-13.5 33.5q0 23 16 40t40 17q21 0 34 -13t13 -33zM58 344q0 162 80.5 257t205.5 95q122 0 198 -93.5 t76 -253.5q0 -163 -77.5 -261t-203.5 -98q-127 0 -203 95t-76 259zM139 344q0 -144 54.5 -229t146.5 -85q91 0 144 87.5t53 231.5q0 140 -52.5 223.5t-140.5 83.5q-93 0 -148.5 -84.5t-56.5 -227.5z" />
<glyph unicode="&#xd7;" d="M446 145l-158 161l-161 -161l-37 37l161 161l-159 163l35 35q98 -98 160 -161l161 161l37 -37l-161 -162l158 -158v-11z" />
<glyph unicode="&#xd8;" horiz-adv-x="676" d="M58 344q0 162 80.5 257t205.5 95q117 0 190 -84l52 63l31 -25l-58 -70q59 -94 59 -231q0 -163 -77.5 -261t-203.5 -98q-121 0 -195 85l-52 -63l-30 26l57 70q-59 92 -59 236zM139 344q0 -101 28 -176l325 393q-53 95 -148 95q-93 0 -148.5 -84.5t-56.5 -227.5zM537 349 q0 96 -27 172l-325 -393q56 -98 155 -98q91 0 144 87.5t53 231.5z" />
<glyph unicode="&#xd9;" horiz-adv-x="663" d="M470 794l-7 -17q-80 5 -164 32t-84 62q0 25 36 38l8 -1q98 -76 211 -114zM101 226v416l-83 23l2 21h239l2 -21l-51 -13q-19 -6 -25.5 -13.5t-6.5 -23.5v-392q0 -91 48 -141.5t123 -50.5t123 50t48 142v419l-83 23l2 21h202l2 -21l-82 -23v-416q0 -115 -62.5 -175.5 t-166.5 -60.5q-103 0 -167 61.5t-64 174.5z" />
<glyph unicode="&#xda;" horiz-adv-x="663" d="M448 907l8 1q35 -12 35 -38q0 -35 -84 -62t-164 -32l-6 17q107 36 211 114zM101 226v416l-83 23l2 21h239l2 -21l-51 -13q-19 -6 -25.5 -13.5t-6.5 -23.5v-392q0 -91 48 -141.5t123 -50.5t123 50t48 142v419l-83 23l2 21h202l2 -21l-82 -23v-416q0 -115 -62.5 -175.5 t-166.5 -60.5q-103 0 -167 61.5t-64 174.5z" />
<glyph unicode="&#xdb;" horiz-adv-x="663" d="M499 782l-14 -11q-78 54 -134 85q-94 -63 -134 -85l-12 13q84 82 117 126l7 5h51q59 -61 119 -133zM101 226v416l-83 23l2 21h239l2 -21l-51 -13q-19 -6 -25.5 -13.5t-6.5 -23.5v-392q0 -91 48 -141.5t123 -50.5t123 50t48 142v419l-83 23l2 21h202l2 -21l-82 -23v-416 q0 -115 -62.5 -175.5t-166.5 -60.5q-103 0 -167 61.5t-64 174.5z" />
<glyph unicode="&#xdc;" horiz-adv-x="663" d="M501 847q0 -24 -14.5 -41t-39.5 -17q-22 0 -35 13.5t-13 33.5q0 23 16 40t39 17q21 0 34 -13t13 -33zM298 847q0 -24 -14.5 -41t-39.5 -17q-21 0 -34.5 13.5t-13.5 33.5q0 23 16 40t39 17q21 0 34 -12.5t13 -33.5zM101 226v416l-83 23l2 21h239l2 -21l-51 -13 q-19 -6 -25.5 -13.5t-6.5 -23.5v-392q0 -91 48 -141.5t123 -50.5t123 50t48 142v419l-83 23l2 21h202l2 -21l-82 -23v-416q0 -115 -62.5 -175.5t-166.5 -60.5q-103 0 -167 61.5t-64 174.5z" />
<glyph unicode="&#xdd;" horiz-adv-x="679" d="M450 907l8 1q35 -12 35 -38q0 -35 -84 -62t-164 -32l-6 17q107 36 211 114zM378 45l82 -24l-2 -21h-238l-2 21l51 14q18 5 24.5 13t6.5 24v203l-182 336q-11 20 -19.5 29t-23.5 13l-49 12l2 21h244l2 -21l-83 -22l169 -331l169 332l-82 21l2 21h202l2 -21 q-2 -1 -15.5 -4.5t-25.5 -7t-13 -4.5q-24 -7 -40 -38l-181 -338v-228z" />
<glyph unicode="&#xde;" horiz-adv-x="587" d="M215 45l103 -24l-2 -21h-259l-2 21l51 14q18 5 25 13t7 24v570l-83 23l2 21h239l2 -21l-51 -13q-19 -6 -25.5 -13.5t-6.5 -23.5v-59h97q104 0 172.5 -56.5t68.5 -156.5q0 -97 -69.5 -151t-175.5 -54h-93v-93zM300 516h-85v-338h82q83 0 129 42.5t46 122.5q0 81 -46 127 t-126 46z" />
<glyph unicode="&#xdf;" horiz-adv-x="582" d="M166 0h-131l-2 17l44 14q17 6 23 13.5t6 24.5v384h-71l-2 17l73 19v15q0 117 53.5 184.5t150.5 67.5q77 0 122.5 -41.5t45.5 -111.5q0 -57 -34 -103t-96 -60q88 -23 136 -90.5t48 -165.5q0 -85 -51 -139.5t-130 -54.5q-50 0 -84 27t-34 62q0 17 10 27.5t26 10.5 q10 0 17 -4q15 -86 75 -86q40 0 66.5 42.5t26.5 107.5q0 100 -46 164.5t-132 83.5v20q67 9 98.5 51.5t31.5 97.5q0 59 -29 94t-79 35q-56 0 -86.5 -51t-30.5 -147v-503z" />
<glyph unicode="&#xe0;" horiz-adv-x="516" d="M339 589l-12 -13q-72 40 -124 82t-52 69q0 31 48 31h11l7 -3q35 -67 122 -166zM265 507q71 0 109.5 -37t38.5 -106q0 -23 -2 -122.5t-2 -138.5q0 -35 10.5 -50.5t37.5 -15.5q20 0 42 7l4 -11q-35 -43 -91 -43q-32 0 -52.5 18t-25.5 50q-63 -68 -149 -68q-58 0 -92.5 30 t-34.5 82q0 72 77 118.5t200 49.5q2 104 2 108q0 44 -23.5 67.5t-65.5 23.5q-44 0 -73.5 -27.5t-29.5 -63.5q0 -19 7 -37q-15 -9 -36 -9q-20 0 -32.5 10.5t-12.5 28.5q0 48 61 92t133 44zM135 112q0 -73 79 -73q71 0 120 58q0 93 1 142q-91 -4 -145.5 -38t-54.5 -89z" />
<glyph unicode="&#xe1;" horiz-adv-x="516" d="M359 727q0 -27 -51.5 -69t-123.5 -82l-12 13q89 104 122 166l6 3h12q47 0 47 -31zM265 507q71 0 109.5 -37t38.5 -106q0 -23 -2 -122.5t-2 -138.5q0 -35 10.5 -50.5t37.5 -15.5q20 0 42 7l4 -11q-35 -43 -91 -43q-32 0 -52.5 18t-25.5 50q-63 -68 -149 -68 q-58 0 -92.5 30t-34.5 82q0 72 77 118.5t200 49.5q2 104 2 108q0 44 -23.5 67.5t-65.5 23.5q-44 0 -73.5 -27.5t-29.5 -63.5q0 -19 7 -37q-15 -9 -36 -9q-20 0 -32.5 10.5t-12.5 28.5q0 48 61 92t133 44zM135 112q0 -73 79 -73q71 0 120 58q0 93 1 142q-91 -4 -145.5 -38 t-54.5 -89z" />
<glyph unicode="&#xe2;" horiz-adv-x="516" d="M392 591l-15 -10q-76 72 -123 110q-78 -74 -124 -110l-13 13q66 85 106 154l7 5h54q45 -60 108 -162zM265 507q71 0 109.5 -37t38.5 -106q0 -23 -2 -122.5t-2 -138.5q0 -35 10.5 -50.5t37.5 -15.5q20 0 42 7l4 -11q-35 -43 -91 -43q-32 0 -52.5 18t-25.5 50 q-63 -68 -149 -68q-58 0 -92.5 30t-34.5 82q0 72 77 118.5t200 49.5q2 104 2 108q0 44 -23.5 67.5t-65.5 23.5q-44 0 -73.5 -27.5t-29.5 -63.5q0 -19 7 -37q-15 -9 -36 -9q-20 0 -32.5 10.5t-12.5 28.5q0 48 61 92t133 44zM135 112q0 -73 79 -73q71 0 120 58q0 93 1 142 q-91 -4 -145.5 -38t-54.5 -89z" />
<glyph unicode="&#xe3;" horiz-adv-x="516" d="M100 609l-16 5v7q13 106 82 106q29 0 102.5 -27.5t87.5 -29.5q39 51 47 64l16 -6v-9q-14 -103 -81 -103q-29 0 -104.5 27.5t-86.5 29.5q-29 -33 -47 -64zM265 507q71 0 109.5 -37t38.5 -106q0 -23 -2 -122.5t-2 -138.5q0 -35 10.5 -50.5t37.5 -15.5q20 0 42 7l4 -11 q-35 -43 -91 -43q-32 0 -52.5 18t-25.5 50q-63 -68 -149 -68q-58 0 -92.5 30t-34.5 82q0 72 77 118.5t200 49.5q2 104 2 108q0 44 -23.5 67.5t-65.5 23.5q-44 0 -73.5 -27.5t-29.5 -63.5q0 -19 7 -37q-15 -9 -36 -9q-20 0 -32.5 10.5t-12.5 28.5q0 48 61 92t133 44zM135 112 q0 -73 79 -73q71 0 120 58q0 93 1 142q-91 -4 -145.5 -38t-54.5 -89z" />
<glyph unicode="&#xe4;" horiz-adv-x="516" d="M404 672q0 -25 -13.5 -43t-37.5 -18q-20 0 -32.5 15t-12.5 36q0 24 15.5 42t37.5 18q19 0 31 -14t12 -36zM202 672q0 -25 -14 -43t-38 -18q-20 0 -32.5 15t-12.5 36q0 24 15.5 42t37.5 18q19 0 31.5 -14t12.5 -36zM265 507q71 0 109.5 -37t38.5 -106q0 -23 -2 -122.5 t-2 -138.5q0 -35 10.5 -50.5t37.5 -15.5q20 0 42 7l4 -11q-35 -43 -91 -43q-32 0 -52.5 18t-25.5 50q-63 -68 -149 -68q-58 0 -92.5 30t-34.5 82q0 72 77 118.5t200 49.5q2 104 2 108q0 44 -23.5 67.5t-65.5 23.5q-44 0 -73.5 -27.5t-29.5 -63.5q0 -19 7 -37q-15 -9 -36 -9 q-20 0 -32.5 10.5t-12.5 28.5q0 48 61 92t133 44zM135 112q0 -73 79 -73q71 0 120 58q0 93 1 142q-91 -4 -145.5 -38t-54.5 -89z" />
<glyph unicode="&#xe5;" horiz-adv-x="516" d="M251 589q-38 0 -61 20.5t-23 54.5q0 36 25.5 58.5t65.5 22.5q37 0 61 -21t23 -54q-2 -35 -27.5 -58t-63.5 -23zM255 718q-21 0 -33.5 -15t-12.5 -38q0 -22 12.5 -35.5t32.5 -13.5t33 15.5t13 39.5q0 20 -13 33.5t-32 13.5zM265 507q71 0 109.5 -37t38.5 -106 q0 -23 -2 -122.5t-2 -138.5q0 -35 10.5 -50.5t37.5 -15.5q20 0 42 7l4 -11q-35 -43 -91 -43q-32 0 -52.5 18t-25.5 50q-63 -68 -149 -68q-58 0 -92.5 30t-34.5 82q0 72 77 118.5t200 49.5q2 104 2 108q0 44 -23.5 67.5t-65.5 23.5q-44 0 -73.5 -27.5t-29.5 -63.5 q0 -19 7 -37q-15 -9 -36 -9q-20 0 -32.5 10.5t-12.5 28.5q0 48 61 92t133 44zM135 112q0 -73 79 -73q71 0 120 58q0 93 1 142q-91 -4 -145.5 -38t-54.5 -89z" />
<glyph unicode="&#xe6;" horiz-adv-x="756" d="M337 378q0 44 -23.5 67.5t-65.5 23.5q-44 0 -73.5 -27.5t-29.5 -63.5q0 -19 7 -37q-15 -9 -36 -9q-20 0 -32.5 10.5t-12.5 28.5q0 47 60 91t131 44q102 0 132 -76q60 76 154 76q74 0 119.5 -50t45.5 -135q0 -19 -2 -53l-10 -12h-292q2 -100 44.5 -155.5t116.5 -55.5 t131 49l12 -10q-25 -43 -69 -68.5t-100 -25.5q-118 0 -175 98q-76 -98 -183 -98q-59 0 -93.5 30t-34.5 82q0 72 77 118.5t200 49.5q2 92 2 108zM540 469q-56 0 -91 -50.5t-39 -131.5l225 6q0 7 0.5 19t0.5 17q0 140 -96 140zM135 112q0 -73 80 -73q78 0 139 81 q-20 51 -20 116v3q-90 -4 -144.5 -38.5t-54.5 -88.5z" />
<glyph unicode="&#xe7;" horiz-adv-x="458" d="M218 -99l-4 6l15 85q-83 11 -131 76t-48 167q0 119 61 195t157 76q66 0 110 -36t44 -89q0 -24 -12 -38t-32 -14q-16 0 -30 7q2 9 2 23q0 51 -23.5 80.5t-65.5 29.5q-58 0 -95 -57t-37 -147q0 -105 42 -162.5t120 -57.5q73 0 128 49l13 -10q-26 -43 -69 -68.5t-96 -25.5 l-10 -53q42 -9 65 -28t23 -45q0 -38 -42 -61t-107 -27l-4 15q82 24 82 64q0 32 -56 46z" />
<glyph unicode="&#xe8;" horiz-adv-x="476" d="M332 589l-12 -13q-72 40 -124 82t-52 69q0 31 48 31h12l6 -3q35 -67 122 -166zM433 84q-26 -43 -70.5 -68.5t-101.5 -25.5q-96 0 -153.5 67t-57.5 179q0 119 60.5 194.5t154.5 75.5q75 0 121 -50t46 -135q0 -36 -1 -53l-11 -12h-291q1 -100 43.5 -155.5t116.5 -55.5 q76 0 131 49zM260 469q-56 0 -91 -50t-40 -132l225 6q1 13 1 36q0 140 -95 140z" />
<glyph unicode="&#xe9;" horiz-adv-x="476" d="M365 727q0 -27 -52 -69t-124 -82l-11 13q87 101 121 166l7 3h11q48 0 48 -31zM433 84q-26 -43 -70.5 -68.5t-101.5 -25.5q-96 0 -153.5 67t-57.5 179q0 119 60.5 194.5t154.5 75.5q75 0 121 -50t46 -135q0 -36 -1 -53l-11 -12h-291q1 -100 43.5 -155.5t116.5 -55.5 q76 0 131 49zM260 469q-56 0 -91 -50t-40 -132l225 6q1 13 1 36q0 140 -95 140z" />
<glyph unicode="&#xea;" horiz-adv-x="476" d="M393 591l-15 -10q-76 72 -124 110q-71 -69 -124 -110l-12 13q74 98 105 154l8 5h54q54 -74 108 -162zM433 84q-26 -43 -70.5 -68.5t-101.5 -25.5q-96 0 -153.5 67t-57.5 179q0 119 60.5 194.5t154.5 75.5q75 0 121 -50t46 -135q0 -36 -1 -53l-11 -12h-291 q1 -100 43.5 -155.5t116.5 -55.5q76 0 131 49zM260 469q-56 0 -91 -50t-40 -132l225 6q1 13 1 36q0 140 -95 140z" />
<glyph unicode="&#xeb;" horiz-adv-x="476" d="M405 672q0 -25 -14 -43t-37 -18q-20 0 -32.5 15t-12.5 36q0 24 15 42t37 18q20 0 32 -14t12 -36zM202 672q0 -25 -13.5 -43t-37.5 -18q-20 0 -32.5 15t-12.5 36q0 24 15.5 42t37.5 18q19 0 31 -14t12 -36zM433 84q-26 -43 -70.5 -68.5t-101.5 -25.5q-96 0 -153.5 67 t-57.5 179q0 119 60.5 194.5t154.5 75.5q75 0 121 -50t46 -135q0 -36 -1 -53l-11 -12h-291q1 -100 43.5 -155.5t116.5 -55.5q76 0 131 49zM260 469q-56 0 -91 -50t-40 -132l225 6q1 13 1 36q0 140 -95 140z" />
<glyph unicode="&#xec;" horiz-adv-x="294" d="M217 589l-12 -13q-72 40 -123.5 82t-51.5 69q0 31 47 31h12l6 -3q33 -62 122 -166zM189 40l72 -23l-2 -17h-216l-2 17l44 14q17 6 23 13.5t6 24.5v377l-70 13l-2 14q60 24 137 33l10 -9v-457z" />
<glyph unicode="&#xed;" horiz-adv-x="294" d="M253 727q0 -27 -52 -69t-124 -82l-12 13q87 99 122 166l7 3h11q48 0 48 -31zM189 40l72 -23l-2 -17h-216l-2 17l44 14q17 6 23 13.5t6 24.5v377l-70 13l-2 14q60 24 137 33l10 -9v-457z" />
<glyph unicode="&#xee;" horiz-adv-x="294" d="M245 585l-15 -11q-65 79 -91 107q-50 -64 -92 -107l-12 13q47 90 72 156l7 5h56q34 -69 75 -163zM189 40l72 -23l-2 -17h-216l-2 17l44 14q17 6 23 13.5t6 24.5v377l-70 13l-2 14q60 24 137 33l10 -9v-457z" />
<glyph unicode="&#xef;" horiz-adv-x="294" d="M263 680q0 -25 -13 -43t-35 -18q-19 0 -30.5 14.5t-11.5 36.5q0 24 14 42t35 18q19 0 30 -13.5t11 -36.5zM108 680q0 -25 -13 -43t-35 -18q-19 0 -30.5 14.5t-11.5 36.5q0 24 14.5 42t35.5 18q18 0 29 -14t11 -36zM189 40l72 -23l-2 -17h-216l-2 17l44 14q17 6 23 13.5 t6 24.5v377l-70 13l-2 14q60 24 137 33l10 -9v-457z" />
<glyph unicode="&#xf0;" horiz-adv-x="534" d="M255 -10q-91 -1 -148 69t-57 192q0 118 58 186.5t140 68.5q71 0 114 -52q-25 81 -76 146l-149 -70l-16 37l138 64q-69 69 -157 98l6 27q113 -16 202 -101l154 72l17 -36l-142 -66q126 -145 126 -355q0 -133 -55 -206.5t-155 -73.5zM262 469q-62 0 -97.5 -55t-35.5 -165 q0 -103 33 -162.5t92 -59.5q68 0 100.5 54.5t32.5 172.5q0 94 -33 154.5t-92 60.5z" />
<glyph unicode="&#xf1;" horiz-adv-x="595" d="M128 614v7q13 106 82 106q29 0 102.5 -27.5t88.5 -29.5l19 24q18 25 27 40l16 -6v-9q-14 -103 -81 -103q-29 0 -104.5 27.5t-86.5 29.5q-29 -33 -47 -64zM189 40l72 -23l-2 -17h-216l-2 17l44 14q17 6 23 13.5t6 24.5v377l-70 13l-2 14q60 24 137 33l10 -9v-56 q74 65 160 65q68 0 104.5 -39t36.5 -112v-315l72 -23l-2 -17h-216l-2 17l44 14q17 6 23 13.5t6 24.5v280q0 108 -96 108q-68 0 -130 -53v-364z" />
<glyph unicode="&#xf2;" horiz-adv-x="515" d="M335 589l-12 -13q-72 40 -124 82t-52 69q0 31 48 31h11l7 -3q35 -67 122 -166zM465 250q0 -120 -59 -189.5t-151 -70.5q-91 -1 -148 69t-57 192q0 118 62.5 186.5t151.5 68.5q87 0 144 -68t57 -188zM129 249q0 -103 33.5 -162.5t92.5 -59.5q131 0 131 219q0 105 -33 164 t-91 59q-62 0 -97.5 -55t-35.5 -165z" />
<glyph unicode="&#xf3;" horiz-adv-x="515" d="M372 727q0 -27 -52 -69t-124 -82l-12 13q87 99 122 166l6 3h12q48 0 48 -31zM465 250q0 -120 -59 -189.5t-151 -70.5q-91 -1 -148 69t-57 192q0 118 62.5 186.5t151.5 68.5q87 0 144 -68t57 -188zM129 249q0 -103 33.5 -162.5t92.5 -59.5q131 0 131 219q0 105 -33 164 t-91 59q-62 0 -97.5 -55t-35.5 -165z" />
<glyph unicode="&#xf4;" horiz-adv-x="515" d="M400 591l-14 -10q-76 72 -124 110q-71 -69 -124 -110l-12 13q74 98 105 154l7 5h55q57 -79 107 -162zM465 250q0 -120 -59 -189.5t-151 -70.5q-91 -1 -148 69t-57 192q0 118 62.5 186.5t151.5 68.5q87 0 144 -68t57 -188zM129 249q0 -103 33.5 -162.5t92.5 -59.5 q131 0 131 219q0 105 -33 164t-91 59q-62 0 -97.5 -55t-35.5 -165z" />
<glyph unicode="&#xf5;" horiz-adv-x="515" d="M107 609l-16 5v7q13 106 82 106q29 0 102.5 -27.5t88.5 -29.5l18 24q19 25 28 40l16 -6v-9q-14 -103 -81 -103q-29 0 -104.5 27.5t-86.5 29.5q-29 -33 -47 -64zM465 250q0 -120 -59 -189.5t-151 -70.5q-91 -1 -148 69t-57 192q0 118 62.5 186.5t151.5 68.5q87 0 144 -68 t57 -188zM129 249q0 -103 33.5 -162.5t92.5 -59.5q131 0 131 219q0 105 -33 164t-91 59q-62 0 -97.5 -55t-35.5 -165z" />
<glyph unicode="&#xf6;" horiz-adv-x="515" d="M413 672q0 -25 -14 -43t-37 -18q-20 0 -32.5 14.5t-12.5 36.5q0 24 15 42t37 18q19 0 31.5 -14t12.5 -36zM210 672q0 -25 -14 -43t-37 -18q-20 0 -32.5 15t-12.5 36q0 24 15 42t37 18q20 0 32 -14t12 -36zM465 250q0 -120 -59 -189.5t-151 -70.5q-91 -1 -148 69t-57 192 q0 118 62.5 186.5t151.5 68.5q87 0 144 -68t57 -188zM129 249q0 -103 33.5 -162.5t92.5 -59.5q131 0 131 219q0 105 -33 164t-91 59q-62 0 -97.5 -55t-35.5 -165z" />
<glyph unicode="&#xf7;" d="M334 533q0 -23 -13 -40t-36 -17q-20 0 -32 14.5t-12 35.5q0 23 14.5 40t36.5 17q19 0 30.5 -14t11.5 -36zM493 317h-417v48q155 5 415 5l8 -8zM334 161q0 -23 -13 -40t-36 -17q-20 0 -32 14.5t-12 35.5q0 23 14.5 40t36.5 17q19 0 30.5 -14t11.5 -36z" />
<glyph unicode="&#xf8;" horiz-adv-x="515" d="M465 250q0 -120 -59 -189.5t-151 -70.5q-91 0 -148 68l-47 -50l-28 28l53 57q-35 65 -35 158q0 118 62.5 186.5t151.5 68.5q88 0 144 -67l45 49l30 -28l-53 -56q35 -64 35 -154zM129 249q0 -58 10 -99l224 240q-33 79 -101 79q-62 0 -97.5 -55t-35.5 -165zM386 246 q0 59 -10 100l-224 -240q35 -79 103 -79q131 0 131 219z" />
<glyph unicode="&#xf9;" horiz-adv-x="606" d="M377 589l-11 -13q-72 40 -124 82t-52 69q0 31 48 31h11l7 -3q34 -65 121 -166zM109 156v290l-69 13l-2 14q61 24 137 33l9 -9v-335q0 -123 108 -123q66 0 122 56v351l-69 13l-2 14q61 24 137 33l9 -9v-383q0 -41 11.5 -59t37.5 -18q19 0 43 7l4 -11q-36 -43 -92 -43 q-64 0 -77 66q-63 -66 -152 -66q-74 0 -114.5 43t-40.5 123z" />
<glyph unicode="&#xfa;" horiz-adv-x="606" d="M418 727q0 -27 -52 -69t-124 -82l-11 13q87 101 121 166l7 3h11q48 0 48 -31zM109 156v290l-69 13l-2 14q61 24 137 33l9 -9v-335q0 -123 108 -123q66 0 122 56v351l-69 13l-2 14q61 24 137 33l9 -9v-383q0 -41 11.5 -59t37.5 -18q19 0 43 7l4 -11q-36 -43 -92 -43 q-64 0 -77 66q-63 -66 -152 -66q-74 0 -114.5 43t-40.5 123z" />
<glyph unicode="&#xfb;" horiz-adv-x="606" d="M441 591l-15 -10q-76 72 -124 110q-71 -69 -124 -110l-12 13q74 98 105 154l8 5h54q54 -74 108 -162zM109 156v290l-69 13l-2 14q61 24 137 33l9 -9v-335q0 -123 108 -123q66 0 122 56v351l-69 13l-2 14q61 24 137 33l9 -9v-383q0 -41 11.5 -59t37.5 -18q19 0 43 7l4 -11 q-36 -43 -92 -43q-64 0 -77 66q-63 -66 -152 -66q-74 0 -114.5 43t-40.5 123z" />
<glyph unicode="&#xfc;" horiz-adv-x="606" d="M451 672q0 -25 -14 -43t-38 -18q-20 0 -32.5 15t-12.5 36q0 24 15.5 42t37.5 18q19 0 31.5 -14t12.5 -36zM248 672q0 -25 -14 -43t-37 -18q-20 0 -32.5 14.5t-12.5 36.5q0 24 15 42t37 18q19 0 31.5 -14t12.5 -36zM109 156v290l-69 13l-2 14q61 24 137 33l9 -9v-335 q0 -123 108 -123q66 0 122 56v351l-69 13l-2 14q61 24 137 33l9 -9v-383q0 -41 11.5 -59t37.5 -18q19 0 43 7l4 -11q-36 -43 -92 -43q-64 0 -77 66q-63 -66 -152 -66q-74 0 -114.5 43t-40.5 123z" />
<glyph unicode="&#xfd;" horiz-adv-x="553" d="M403 727q0 -27 -52 -69t-124 -82l-12 13q87 99 122 166l6 3h12q48 0 48 -31zM28 496h221l2 -17l-74 -22l123 -375l124 375l-75 22l2 17h182l2 -17q-5 -1 -24.5 -7.5t-21.5 -8.5q-26 -9 -36 -39l-152 -437q-43 -124 -88.5 -183.5t-109.5 -59.5q-31 0 -52 17t-21 42 q0 24 14 36l6 3q29 -31 64 -31q48 0 89.5 51t67.5 132l-14 -7l-151 437q-11 29 -34 39q-1 1 -11 4.5t-21.5 7t-13.5 4.5z" />
<glyph unicode="&#xfe;" horiz-adv-x="561" d="M181 -206l92 -23l-2 -17h-236l-2 17l44 13q17 6 23 14t6 25v873l-70 13l-2 14q60 24 137 33l10 -9v-303q58 62 140 62q90 0 140.5 -68t50.5 -184q0 -120 -63.5 -192t-168.5 -72q-46 0 -99 14v-210zM281 27q70 0 111 59t41 159q0 99 -35 155.5t-101 56.5q-65 0 -116 -56 v-346q40 -28 100 -28z" />
<glyph unicode="&#xff;" horiz-adv-x="553" d="M440 672q0 -25 -14 -43t-37 -18q-20 0 -32.5 15t-12.5 36q0 24 15 42t37 18q20 0 32 -14t12 -36zM237 672q0 -25 -13.5 -43t-37.5 -18q-20 0 -32.5 15t-12.5 36q0 24 15.5 42t37.5 18q19 0 31 -14t12 -36zM28 496h221l2 -17l-74 -22l123 -375l124 375l-75 22l2 17h182 l2 -17q-5 -1 -24.5 -7.5t-21.5 -8.5q-26 -9 -36 -39l-152 -437q-43 -124 -88.5 -183.5t-109.5 -59.5q-31 0 -52 17t-21 42q0 24 14 36l6 3q29 -31 64 -31q48 0 89.5 51t67.5 132l-14 -7l-151 437q-11 29 -34 39q-1 1 -11 4.5t-21.5 7t-13.5 4.5z" />
<glyph unicode="&#x100;" horiz-adv-x="712" d="M215 817v50h279v-50h-279zM333 686h47l216 -611q7 -19 15 -27t24 -13l51 -14l-2 -21h-243l-2 21l83 22l-68 198l-239 -4l-67 -193l83 -23l-2 -21h-201l-2 21q3 2 28 8.5t26 7.5q28 10 37 38zM228 275h215l-108 313z" />
<glyph unicode="&#x101;" horiz-adv-x="516" d="M115 643v46h279v-46h-279zM265 507q71 0 109.5 -37t38.5 -106q0 -23 -2 -122.5t-2 -138.5q0 -35 10.5 -50.5t37.5 -15.5q20 0 42 7l4 -11q-35 -43 -91 -43q-32 0 -52.5 18t-25.5 50q-63 -68 -149 -68q-58 0 -92.5 30t-34.5 82q0 72 77 118.5t200 49.5q2 104 2 108 q0 44 -23.5 67.5t-65.5 23.5q-44 0 -73.5 -27.5t-29.5 -63.5q0 -19 7 -37q-15 -9 -36 -9q-20 0 -32.5 10.5t-12.5 28.5q0 48 61 92t133 44zM135 112q0 -73 79 -73q71 0 120 58q0 93 1 142q-91 -4 -145.5 -38t-54.5 -89z" />
<glyph unicode="&#x102;" horiz-adv-x="712" d="M467 901l4 2l15 -4q-10 -54 -44.5 -84.5t-85.5 -30.5q-48 0 -81 30.5t-40 84.5l19 4q21 -61 108 -61q79 0 105 59zM333 686h47l216 -611q7 -19 15 -27t24 -13l51 -14l-2 -21h-243l-2 21l83 22l-68 198l-239 -4l-67 -193l83 -23l-2 -21h-201l-2 21q3 2 28 8.5t26 7.5 q28 10 37 38zM228 275h215l-108 313z" />
<glyph unicode="&#x103;" horiz-adv-x="516" d="M362 735l4 2l16 -4q-10 -63 -45 -99t-85 -36t-83 36.5t-40 99.5l19 3q10 -37 39 -58.5t70 -21.5q38 0 66 20.5t39 57.5zM265 507q71 0 109.5 -37t38.5 -106q0 -23 -2 -122.5t-2 -138.5q0 -35 10.5 -50.5t37.5 -15.5q20 0 42 7l4 -11q-35 -43 -91 -43q-32 0 -52.5 18 t-25.5 50q-63 -68 -149 -68q-58 0 -92.5 30t-34.5 82q0 72 77 118.5t200 49.5q2 104 2 108q0 44 -23.5 67.5t-65.5 23.5q-44 0 -73.5 -27.5t-29.5 -63.5q0 -19 7 -37q-15 -9 -36 -9q-20 0 -32.5 10.5t-12.5 28.5q0 48 61 92t133 44zM135 112q0 -73 79 -73q71 0 120 58 q0 93 1 142q-91 -4 -145.5 -38t-54.5 -89z" />
<glyph unicode="&#x104;" horiz-adv-x="714" d="M681 -181q-35 -43 -93 -43q-38 0 -60.5 21.5t-22.5 59.5q0 85 132 143h-196l-2 21l83 22l-68 198l-239 -4l-67 -193l83 -23l-2 -21h-201l-2 21q3 2 28 8.5t26 7.5q28 10 37 38l216 611h47l216 -611q7 -19 15 -27t24 -13l51 -14l-2 -21q-113 -57 -113 -127q0 -50 56 -50 q27 0 50 6zM228 275h215l-108 313z" />
<glyph unicode="&#x105;" horiz-adv-x="516" d="M477 -181q-35 -43 -89 -43q-39 0 -63 22t-24 59q0 72 111 133q-32 0 -52.5 18t-25.5 50q-63 -68 -149 -68q-58 0 -92.5 30t-34.5 82q0 72 77 118.5t200 49.5q2 104 2 108q0 44 -23.5 67.5t-65.5 23.5q-44 0 -73.5 -27.5t-29.5 -63.5q0 -19 7 -37q-15 -9 -36 -9 q-20 0 -32.5 10.5t-12.5 28.5q0 48 61 92t133 44q71 0 109.5 -37t38.5 -106q0 -23 -2 -122.5t-2 -138.5q0 -35 10.5 -50.5t37.5 -15.5q20 0 42 7l4 -11q-9 -10 -18 -17q-11 -10 -38 -32t-40.5 -35t-26.5 -34.5t-13 -42.5q0 -49 58 -49q26 0 48 6zM135 112q0 -73 79 -73 q71 0 120 58q0 93 1 142q-91 -4 -145.5 -38t-54.5 -89z" />
<glyph unicode="&#x106;" horiz-adv-x="644" d="M475 907l9 1q35 -12 35 -38q0 -35 -84 -62t-164 -32l-7 17q110 37 211 114zM404 -10q-161 0 -253.5 93t-92.5 258q0 161 96.5 258t241.5 97q97 0 164 -30q5 -20 5 -57q0 -62 -9 -108l-18 -1q-36 100 -54 144q-38 11 -81 11q-113 0 -188.5 -86.5t-75.5 -227.5 q1 -141 74 -225.5t194 -84.5q48 0 88 11q14 31 58 142h18q7 -38 7 -87t-5 -79q-78 -28 -169 -28z" />
<glyph unicode="&#x107;" horiz-adv-x="458" d="M375 727q0 -27 -52 -69t-124 -82l-12 13q87 99 122 166l6 3h12q48 0 48 -31zM432 84q-26 -43 -70 -68.5t-100 -25.5q-97 0 -154.5 66.5t-57.5 178.5q0 119 61 195t157 76q66 0 110 -36t44 -89q0 -24 -12 -38t-32 -14q-16 0 -30 7q2 9 2 23q0 51 -23.5 80.5t-65.5 29.5 q-58 0 -95 -57t-37 -147q0 -105 42 -162.5t120 -57.5q73 0 128 49z" />
<glyph unicode="&#x108;" horiz-adv-x="644" d="M536 782l-15 -11q-78 54 -134 85q-94 -63 -134 -85l-12 13q89 87 117 126l7 5h52q71 -75 119 -133zM404 -10q-161 0 -253.5 93t-92.5 258q0 161 96.5 258t241.5 97q97 0 164 -30q5 -20 5 -57q0 -62 -9 -108l-18 -1q-36 100 -54 144q-38 11 -81 11q-113 0 -188.5 -86.5 t-75.5 -227.5q1 -141 74 -225.5t194 -84.5q48 0 88 11q14 31 58 142h18q7 -38 7 -87t-5 -79q-78 -28 -169 -28z" />
<glyph unicode="&#x109;" horiz-adv-x="458" d="M402 591l-14 -10q-76 72 -124 110q-65 -63 -124 -110l-13 13q73 94 106 154l7 5h55q57 -79 107 -162zM432 84q-26 -43 -70 -68.5t-100 -25.5q-97 0 -154.5 66.5t-57.5 178.5q0 119 61 195t157 76q66 0 110 -36t44 -89q0 -24 -12 -38t-32 -14q-16 0 -30 7q2 9 2 23 q0 51 -23.5 80.5t-65.5 29.5q-58 0 -95 -57t-37 -147q0 -105 42 -162.5t120 -57.5q73 0 128 49z" />
<glyph unicode="&#x10a;" horiz-adv-x="644" d="M444 844q0 -24 -15.5 -41t-42.5 -17q-24 0 -38.5 14t-14.5 35q0 24 17.5 41t43.5 17q23 0 36.5 -13.5t13.5 -35.5zM404 -10q-161 0 -253.5 93t-92.5 258q0 161 96.5 258t241.5 97q97 0 164 -30q5 -20 5 -57q0 -62 -9 -108l-18 -1q-36 100 -54 144q-38 11 -81 11 q-113 0 -188.5 -86.5t-75.5 -227.5q1 -141 74 -225.5t194 -84.5q48 0 88 11q14 31 58 142h18q7 -38 7 -87t-5 -79q-78 -28 -169 -28z" />
<glyph unicode="&#x10b;" horiz-adv-x="458" d="M317 668q0 -25 -15 -43.5t-40 -18.5q-21 0 -35 15.5t-14 38.5q0 24 16.5 42.5t40.5 18.5q21 0 34 -14.5t13 -38.5zM432 84q-26 -43 -70 -68.5t-100 -25.5q-97 0 -154.5 66.5t-57.5 178.5q0 119 61 195t157 76q66 0 110 -36t44 -89q0 -24 -12 -38t-32 -14q-16 0 -30 7 q2 9 2 23q0 51 -23.5 80.5t-65.5 29.5q-58 0 -95 -57t-37 -147q0 -105 42 -162.5t120 -57.5q73 0 128 49z" />
<glyph unicode="&#x10c;" horiz-adv-x="644" d="M418 776l-7 -5h-51q-59 61 -119 133l14 11q77 -53 134 -86q82 57 134 86l12 -13q-84 -82 -117 -126zM404 -10q-161 0 -253.5 93t-92.5 258q0 161 96.5 258t241.5 97q97 0 164 -30q5 -20 5 -57q0 -62 -9 -108l-18 -1q-36 100 -54 144q-38 11 -81 11q-113 0 -188.5 -86.5 t-75.5 -227.5q1 -141 74 -225.5t194 -84.5q48 0 88 11q14 31 58 142h18q7 -38 7 -87t-5 -79q-78 -28 -169 -28z" />
<glyph unicode="&#x10d;" horiz-adv-x="458" d="M297 588l-7 -5h-55q-57 79 -107 162l14 10q76 -72 124 -110q71 69 124 110l12 -12q-76 -99 -105 -155zM432 84q-26 -43 -70 -68.5t-100 -25.5q-97 0 -154.5 66.5t-57.5 178.5q0 119 61 195t157 76q66 0 110 -36t44 -89q0 -24 -12 -38t-32 -14q-16 0 -30 7q2 9 2 23 q0 51 -23.5 80.5t-65.5 29.5q-58 0 -95 -57t-37 -147q0 -105 42 -162.5t120 -57.5q73 0 128 49z" />
<glyph unicode="&#x10e;" horiz-adv-x="689" d="M355 776l-7 -5h-52q-71 75 -119 133l15 11q82 -57 134 -86q72 51 134 86l12 -13q-89 -87 -117 -126zM631 343q0 -160 -90.5 -251.5t-247.5 -91.5h-236l-2 21l51 14q18 5 25 13t7 24v552q0 10 -4 14.5t-17 7.5l-62 19l2 21h236q157 0 247.5 -91.5t90.5 -251.5zM289 649 h-74v-611h74q126 0 193.5 80.5t67.5 224.5t-68 225t-193 81z" />
<glyph unicode="&#x10f;" horiz-adv-x="721" d="M549 33q-34 -43 -91 -43q-66 0 -77 67q-57 -67 -144 -67q-84 0 -135.5 64.5t-51.5 181.5q0 124 68.5 197t168.5 73q45 0 92 -13v203l-89 13l-2 14q58 23 156 33l10 -9v-633q0 -41 11 -59t39 -18q20 0 41 7zM671 699q0 -41 -26 -87.5t-59 -69.5l-11 9q27 40 37 102 q-38 7 -38 44q0 22 14.5 37t34.5 15q22 0 35 -13.5t13 -36.5zM129 244q0 -98 36.5 -152t96.5 -54q67 0 117 58v346q-39 27 -90 27q-72 0 -116 -58.5t-44 -166.5z" />
<glyph unicode="&#x110;" horiz-adv-x="702" d="M644 343q0 -160 -90.5 -251.5t-247.5 -91.5h-236l-2 21l51 14q18 5 24.5 13t6.5 24v262h-94v35h94v255q0 11 -3.5 15t-16.5 7l-62 19l2 21h236q157 0 247.5 -91.5t90.5 -251.5zM414 334h-186v-296h74q126 0 193.5 80.5t67.5 224.5t-68 225t-193 81h-74v-280h186v-35z" />
<glyph unicode="&#x111;" horiz-adv-x="562" d="M549 33q-34 -43 -91 -43q-66 0 -77 67q-57 -67 -144 -67q-84 0 -135.5 64.5t-51.5 181.5q0 124 68.5 197t168.5 73q45 0 92 -13v81h-204v35h204v87l-89 13l-2 14q58 23 156 33l10 -9v-138h95v-35h-95v-460q0 -41 11 -59t39 -18q20 0 41 7zM129 244q0 -98 36.5 -152 t96.5 -54q67 0 117 58v346q-39 27 -90 27q-72 0 -116 -58.5t-44 -166.5z" />
<glyph unicode="&#x112;" horiz-adv-x="581" d="M176 816v51h278v-51h-278zM215 361l212 7l-2 -47l-210 5v-290h134q58 0 100 5q2 3 13.5 36t12.5 36l23 71h19q6 -41 6 -90q0 -48 -7 -94h-459l-2 21l51 14q18 5 25 13t7 24v552q0 10 -4 14.5t-17 7.5l-62 19l2 21h449q7 -46 7 -94q0 -47 -6 -89h-19l-23 71 q-1 3 -12.5 35.5t-13.5 35.5q-42 5 -100 5h-124v-289z" />
<glyph unicode="&#x113;" horiz-adv-x="476" d="M116 643v46h279v-46h-279zM433 84q-26 -43 -70.5 -68.5t-101.5 -25.5q-96 0 -153.5 67t-57.5 179q0 119 60.5 194.5t154.5 75.5q75 0 121 -50t46 -135q0 -36 -1 -53l-11 -12h-291q1 -100 43.5 -155.5t116.5 -55.5q76 0 131 49zM260 469q-56 0 -91 -50t-40 -132l225 6 q1 13 1 36q0 140 -95 140z" />
<glyph unicode="&#x114;" horiz-adv-x="581" d="M428 900l5 2l15 -4q-10 -54 -45 -84.5t-85 -30.5q-49 0 -81.5 31t-39.5 85l18 3q11 -29 39.5 -45t68.5 -16q38 0 66 15.5t39 43.5zM215 361l212 7l-2 -47l-210 5v-290h134q58 0 100 5q2 3 13.5 36t12.5 36l23 71h19q6 -41 6 -90q0 -48 -7 -94h-459l-2 21l51 14 q18 5 25 13t7 24v552q0 10 -4 14.5t-17 7.5l-62 19l2 21h449q7 -46 7 -94q0 -47 -6 -89h-19l-23 71q-1 3 -12.5 35.5t-13.5 35.5q-42 5 -100 5h-124v-289z" />
<glyph unicode="&#x115;" horiz-adv-x="476" d="M363 735l4 2l15 -4q-10 -63 -44.5 -99t-84.5 -36q-51 0 -84 36.5t-39 99.5l18 3q11 -37 39.5 -58.5t70.5 -21.5q37 0 65 20.5t40 57.5zM433 84q-26 -43 -70.5 -68.5t-101.5 -25.5q-96 0 -153.5 67t-57.5 179q0 119 60.5 194.5t154.5 75.5q75 0 121 -50t46 -135 q0 -36 -1 -53l-11 -12h-291q1 -100 43.5 -155.5t116.5 -55.5q76 0 131 49zM260 469q-56 0 -91 -50t-40 -132l225 6q1 13 1 36q0 140 -95 140z" />
<glyph unicode="&#x116;" horiz-adv-x="581" d="M378 843q0 -24 -15.5 -41t-42.5 -17q-24 0 -38.5 14t-14.5 36q0 23 17.5 40t43.5 17q23 0 36.5 -13.5t13.5 -35.5zM215 361l212 7l-2 -47l-210 5v-290h134q58 0 100 5q2 3 13.5 36t12.5 36l23 71h19q6 -41 6 -90q0 -48 -7 -94h-459l-2 21l51 14q18 5 25 13t7 24v552 q0 10 -4 14.5t-17 7.5l-62 19l2 21h449q7 -46 7 -94q0 -47 -6 -89h-19l-23 71q-1 3 -12.5 35.5t-13.5 35.5q-42 5 -100 5h-124v-289z" />
<glyph unicode="&#x117;" horiz-adv-x="476" d="M309 668q0 -25 -15 -43.5t-40 -18.5q-22 0 -35.5 15.5t-13.5 38.5q0 25 16.5 43t40.5 18q21 0 34 -14.5t13 -38.5zM433 84q-26 -43 -70.5 -68.5t-101.5 -25.5q-96 0 -153.5 67t-57.5 179q0 119 60.5 194.5t154.5 75.5q75 0 121 -50t46 -135q0 -36 -1 -53l-11 -12h-291 q1 -100 43.5 -155.5t116.5 -55.5q76 0 131 49zM260 469q-56 0 -91 -50t-40 -132l225 6q1 13 1 36q0 140 -95 140z" />
<glyph unicode="&#x118;" horiz-adv-x="581" d="M215 361l212 7l-2 -47l-210 5v-290h134q58 0 100 5q2 3 13.5 36t12.5 36l23 71h19q6 -41 6 -90q0 -48 -7 -94q-113 -57 -113 -127q0 -50 56 -50q26 0 50 6l4 -10q-35 -43 -94 -43q-38 0 -60.5 21.5t-22.5 59.5q0 85 132 143h-411l-2 21l51 14q18 5 25 13t7 24v552 q0 10 -4 14.5t-17 7.5l-62 19l2 21h449q7 -46 7 -94q0 -47 -6 -89h-19l-23 71q-1 3 -12.5 35.5t-13.5 35.5q-42 5 -100 5h-124v-289z" />
<glyph unicode="&#x119;" horiz-adv-x="476" d="M364 -181q-38 -43 -91 -43q-37 0 -61.5 20.5t-24.5 56.5q0 73 118 141q-28 -4 -44 -4q-96 0 -153.5 67t-57.5 179q0 119 60.5 194.5t154.5 75.5q75 0 121 -50t46 -135q0 -36 -1 -53l-11 -12h-291q1 -100 43.5 -155.5t116.5 -55.5q76 0 131 49l13 -10q-13 -21 -27 -35h1 q-20 -22 -63.5 -58.5t-66.5 -64t-23 -56.5q0 -47 58 -47q25 0 48 6zM260 469q-56 0 -91 -50t-40 -132l225 6q1 13 1 36q0 140 -95 140z" />
<glyph unicode="&#x11a;" horiz-adv-x="581" d="M352 776l-7 -5h-51q-58 58 -119 133l14 10q78 -54 134 -85q94 63 134 85l12 -13q-82 -80 -117 -125zM215 361l212 7l-2 -47l-210 5v-290h134q58 0 100 5q2 3 13.5 36t12.5 36l23 71h19q6 -41 6 -90q0 -48 -7 -94h-459l-2 21l51 14q18 5 25 13t7 24v552q0 10 -4 14.5 t-17 7.5l-62 19l2 21h449q7 -46 7 -94q0 -47 -6 -89h-19l-23 71q-1 3 -12.5 35.5t-13.5 35.5q-42 5 -100 5h-124v-289z" />
<glyph unicode="&#x11b;" horiz-adv-x="476" d="M289 588l-8 -5h-54q-54 74 -108 162l15 10q76 -72 123 -110q79 74 125 110l12 -12q-76 -99 -105 -155zM433 84q-26 -43 -70.5 -68.5t-101.5 -25.5q-96 0 -153.5 67t-57.5 179q0 119 60.5 194.5t154.5 75.5q75 0 121 -50t46 -135q0 -36 -1 -53l-11 -12h-291 q1 -100 43.5 -155.5t116.5 -55.5q76 0 131 49zM260 469q-56 0 -91 -50t-40 -132l225 6q1 13 1 36q0 140 -95 140z" />
<glyph unicode="&#x11c;" horiz-adv-x="699" d="M540 782l-14 -11q-78 54 -134 85q-89 -59 -134 -85l-13 13q85 81 117 126l8 5h51q59 -61 119 -133zM396 -10q-156 0 -247 94t-91 257q0 161 98 258t245 97q102 0 172 -30q5 -27 5 -57q0 -54 -9 -108l-19 -1q-5 9 -26.5 73t-26.5 71q-37 11 -93 11q-112 0 -188.5 -86.5 t-76.5 -226.5q0 -141 72.5 -226t189.5 -85q55 0 102 13v231l-83 24l2 21h232l2 -21l-51 -14q-16 -4 -21.5 -11.5t-5.5 -24.5v-228q-77 -31 -182 -31z" />
<glyph unicode="&#x11d;" horiz-adv-x="488" d="M381 591l-14 -10q-76 72 -124 110q-65 -63 -124 -110l-13 13q73 94 106 154l7 5h55q57 -79 107 -162zM65 317q0 82 51 135.5t130 53.5q57 0 98 -30q22 23 53.5 39.5t49.5 16.5q23 0 23 -32q0 -18 -3 -27q-3 -14 -23 -14q-53 0 -78 -3q44 -47 44 -123q0 -83 -48 -134 t-127 -51q-20 0 -42 5q-20 -25 -20 -50q0 -21 12 -31t40 -12l89 -8q72 -7 111.5 -42.5t39.5 -94.5q0 -75 -66.5 -123t-171.5 -48q-86 0 -139 35t-53 92q0 63 71 99l11 -9q-17 -31 -17 -57q1 -57 42 -90t110 -33q68 0 110 30.5t42 78.5q0 39 -26.5 62.5t-75.5 28.5l-96 10 q-44 5 -67 27t-23 55q0 51 49 89q-46 18 -73 59.5t-27 95.5zM333 323q0 147 -92 147q-45 0 -72 -37t-27 -102q0 -67 25.5 -106.5t69.5 -40.5q46 0 71 36t25 103z" />
<glyph unicode="&#x11e;" horiz-adv-x="699" d="M499 901l4 2l15 -4q-10 -54 -44.5 -84.5t-84.5 -30.5q-49 0 -82 30.5t-40 84.5l19 4q22 -61 108 -61q79 0 105 59zM396 -10q-156 0 -247 94t-91 257q0 161 98 258t245 97q102 0 172 -30q5 -27 5 -57q0 -54 -9 -108l-19 -1q-5 9 -26.5 73t-26.5 71q-37 11 -93 11 q-112 0 -188.5 -86.5t-76.5 -226.5q0 -141 72.5 -226t189.5 -85q55 0 102 13v231l-83 24l2 21h232l2 -21l-51 -14q-16 -4 -21.5 -11.5t-5.5 -24.5v-228q-77 -31 -182 -31z" />
<glyph unicode="&#x11f;" horiz-adv-x="488" d="M351 735l5 2l15 -4q-10 -63 -45 -99t-85 -36t-83 36.5t-40 99.5l19 3q11 -37 39.5 -58.5t69.5 -21.5q38 0 66 20.5t39 57.5zM65 317q0 82 51 135.5t130 53.5q57 0 98 -30q22 23 53.5 39.5t49.5 16.5q23 0 23 -32q0 -18 -3 -27q-3 -14 -23 -14q-53 0 -78 -3 q44 -47 44 -123q0 -83 -48 -134t-127 -51q-20 0 -42 5q-20 -25 -20 -50q0 -21 12 -31t40 -12l89 -8q72 -7 111.5 -42.5t39.5 -94.5q0 -75 -66.5 -123t-171.5 -48q-86 0 -139 35t-53 92q0 63 71 99l11 -9q-17 -31 -17 -57q1 -57 42 -90t110 -33q68 0 110 30.5t42 78.5 q0 39 -26.5 62.5t-75.5 28.5l-96 10q-44 5 -67 27t-23 55q0 51 49 89q-46 18 -73 59.5t-27 95.5zM333 323q0 147 -92 147q-45 0 -72 -37t-27 -102q0 -67 25.5 -106.5t69.5 -40.5q46 0 71 36t25 103z" />
<glyph unicode="&#x120;" horiz-adv-x="699" d="M449 844q0 -24 -16 -41t-43 -17q-24 0 -38.5 14t-14.5 35q0 23 18 40.5t43 17.5q23 0 37 -13.5t14 -35.5zM396 -10q-156 0 -247 94t-91 257q0 161 98 258t245 97q102 0 172 -30q5 -27 5 -57q0 -54 -9 -108l-19 -1q-5 9 -26.5 73t-26.5 71q-37 11 -93 11 q-112 0 -188.5 -86.5t-76.5 -226.5q0 -141 72.5 -226t189.5 -85q55 0 102 13v231l-83 24l2 21h232l2 -21l-51 -14q-16 -4 -21.5 -11.5t-5.5 -24.5v-228q-77 -31 -182 -31z" />
<glyph unicode="&#x121;" horiz-adv-x="488" d="M296 668q0 -25 -15 -43.5t-40 -18.5q-21 0 -35 15.5t-14 38.5q0 24 16.5 42.5t40.5 18.5q21 0 34 -14.5t13 -38.5zM65 317q0 82 51 135.5t130 53.5q57 0 98 -30q22 23 53.5 39.5t49.5 16.5q23 0 23 -32q0 -18 -3 -27q-3 -14 -23 -14q-53 0 -78 -3q44 -47 44 -123 q0 -83 -48 -134t-127 -51q-20 0 -42 5q-20 -25 -20 -50q0 -21 12 -31t40 -12l89 -8q72 -7 111.5 -42.5t39.5 -94.5q0 -75 -66.5 -123t-171.5 -48q-86 0 -139 35t-53 92q0 63 71 99l11 -9q-17 -31 -17 -57q1 -57 42 -90t110 -33q68 0 110 30.5t42 78.5q0 39 -26.5 62.5 t-75.5 28.5l-96 10q-44 5 -67 27t-23 55q0 51 49 89q-46 18 -73 59.5t-27 95.5zM333 323q0 147 -92 147q-45 0 -72 -37t-27 -102q0 -67 25.5 -106.5t69.5 -40.5q46 0 71 36t25 103z" />
<glyph unicode="&#x122;" horiz-adv-x="699" d="M396 -10q-156 0 -247 94t-91 257q0 161 98 258t245 97q102 0 172 -30q5 -27 5 -57q0 -54 -9 -108l-19 -1q-5 9 -26.5 73t-26.5 71q-37 11 -93 11q-112 0 -188.5 -86.5t-76.5 -226.5q0 -141 72.5 -226t189.5 -85q55 0 102 13v231l-83 24l2 21h232l2 -21l-51 -14 q-16 -4 -21.5 -11.5t-5.5 -24.5v-228q-77 -31 -182 -31zM432 -164q0 -44 -27.5 -93t-62.5 -73l-12 9q28 41 40 108q-41 7 -41 48q0 23 15 39.5t37 16.5q24 0 37.5 -14.5t13.5 -40.5z" />
<glyph unicode="&#x123;" horiz-adv-x="488" d="M191 661q0 44 27.5 93t63.5 74l11 -10q-27 -42 -39 -107q41 -9 41 -48q0 -24 -15.5 -40.5t-37.5 -16.5q-23 0 -37 15t-14 40zM65 317q0 82 51 135.5t130 53.5q57 0 98 -30q22 23 53.5 39.5t49.5 16.5q23 0 23 -32q0 -18 -3 -27q-3 -14 -23 -14q-53 0 -78 -3 q44 -47 44 -123q0 -83 -48 -134t-127 -51q-20 0 -42 5q-20 -25 -20 -50q0 -21 12 -31t40 -12l89 -8q72 -7 111.5 -42.5t39.5 -94.5q0 -75 -66.5 -123t-171.5 -48q-86 0 -139 35t-53 92q0 63 71 99l11 -9q-17 -31 -17 -57q1 -57 42 -90t110 -33q68 0 110 30.5t42 78.5 q0 39 -26.5 62.5t-75.5 28.5l-96 10q-44 5 -67 27t-23 55q0 51 49 89q-46 18 -73 59.5t-27 95.5zM333 323q0 147 -92 147q-45 0 -72 -37t-27 -102q0 -67 25.5 -106.5t69.5 -40.5q46 0 71 36t25 103z" />
<glyph unicode="&#x124;" horiz-adv-x="765" d="M530 782l-15 -11q-82 57 -134 85q-79 -54 -133 -85l-13 13q85 81 117 126l7 5h52q71 -75 119 -133zM215 45l83 -24l-2 -21h-239l-2 21l51 14q18 5 25 13t7 24v570l-83 23l2 21h239l2 -21l-51 -13q-19 -6 -25.5 -13.5t-6.5 -23.5v-247h335v274l-83 23l2 21h239l2 -21 l-51 -13q-18 -6 -24.5 -13.5t-6.5 -23.5v-570l82 -24l-2 -21h-239l-2 21l51 14q19 5 25.5 13t6.5 24v256h-335v-283z" />
<glyph unicode="&#x125;" horiz-adv-x="587" d="M-1 796l-13 13q83 79 117 125l8 5h51q58 -58 119 -133l-15 -10q-78 54 -133 85q-89 -59 -134 -85zM181 40l72 -23l-2 -17h-216l-2 17l44 14q17 6 23 13.5t6 24.5v627l-70 13l-2 14q60 24 137 33l10 -9v-306q74 65 160 65q68 0 104.5 -39t36.5 -112v-315l72 -23l-2 -17 h-216l-2 17l44 14q17 6 23 13.5t6 24.5v280q0 108 -96 108q-66 0 -130 -53v-364z" />
<glyph unicode="&#x126;" horiz-adv-x="765" d="M215 45l83 -24l-2 -21h-239l-2 21l51 14q18 5 25 13t7 24v421h-75v35h75v114l-83 23l2 21h239l2 -21l-51 -13q-19 -6 -25.5 -13.5t-6.5 -23.5v-87h335v114l-83 23l2 21h239l2 -21l-51 -13q-18 -6 -24.5 -13.5t-6.5 -23.5v-87h73v-35h-73v-448l82 -24l-2 -21h-239l-2 21 l51 14q19 5 25.5 13t6.5 24v256h-335v-283zM215 368h335v125h-335v-125z" />
<glyph unicode="&#x127;" horiz-adv-x="587" d="M181 40l72 -23l-2 -17h-216l-2 17l44 14q17 6 23 13.5t6 24.5v505h-105v35h105v87l-70 13l-2 14q60 24 137 33l10 -9v-138h194v-35h-194v-133q74 65 160 65q68 0 104.5 -39t36.5 -112v-315l72 -23l-2 -17h-216l-2 17l44 14q17 6 23 13.5t6 24.5v280q0 108 -96 108 q-66 0 -130 -53v-364z" />
<glyph unicode="&#x128;" horiz-adv-x="353" d="M7 774l-15 5q-1 3 -1 8q15 111 84 111q34 0 120 -32t103 -34q3 6 21 31t27 40l15 -6q1 -3 1 -10q-15 -108 -82 -108q-33 0 -121 32t-102 34q-26 -29 -50 -71zM215 45l83 -24l-2 -21h-239l-2 21l51 14q18 5 25 13t7 24v570l-83 23l2 21h239l2 -21l-51 -13 q-19 -6 -25.5 -13.5t-6.5 -23.5v-570z" />
<glyph unicode="&#x129;" horiz-adv-x="294" d="M81 670q-16 -12 -48 -46l-15 5q0 1 -0.5 3t-0.5 3q12 87 75 87q17 0 60 -19.5t49 -20.5l47 47l15 -6q1 -3 1 -8q-12 -84 -74 -84q-17 0 -59.5 19t-49.5 20zM189 40l72 -23l-2 -17h-216l-2 17l44 14q17 6 23 13.5t6 24.5v377l-70 13l-2 14q60 24 137 33l10 -9v-457z" />
<glyph unicode="&#x12a;" horiz-adv-x="353" d="M38 817v50h279v-50h-279zM215 45l83 -24l-2 -21h-239l-2 21l51 14q18 5 25 13t7 24v570l-83 23l2 21h239l2 -21l-51 -13q-19 -6 -25.5 -13.5t-6.5 -23.5v-570z" />
<glyph unicode="&#x12b;" horiz-adv-x="294" d="M49 641v46h183v-46h-183zM189 40l72 -23l-2 -17h-216l-2 17l44 14q17 6 23 13.5t6 24.5v377l-70 13l-2 14q60 24 137 33l10 -9v-457z" />
<glyph unicode="&#x12c;" horiz-adv-x="353" d="M283 901l5 2l15 -4q-10 -54 -44.5 -84.5t-85.5 -30.5q-49 0 -81.5 30.5t-39.5 84.5l18 4q11 -29 39.5 -45t68.5 -16q38 0 66 15.5t39 43.5zM215 45l83 -24l-2 -21h-239l-2 21l51 14q18 5 25 13t7 24v570l-83 23l2 21h239l2 -21l-51 -13q-19 -6 -25.5 -13.5t-6.5 -23.5 v-570z" />
<glyph unicode="&#x12d;" horiz-adv-x="294" d="M252 727q-6 -62 -37 -98t-78 -36q-45 0 -73.5 36t-32.5 98l18 4q7 -35 32.5 -56.5t60.5 -21.5t59.5 20.5t31.5 54.5l4 2zM189 40l72 -23l-2 -17h-216l-2 17l44 14q17 6 23 13.5t6 24.5v377l-70 13l-2 14q60 24 137 33l10 -9v-457z" />
<glyph unicode="&#x12e;" horiz-adv-x="353" d="M215 45l83 -24l-2 -21q-113 -57 -113 -127q0 -50 56 -50q26 0 50 6l4 -10q-35 -43 -94 -43q-38 0 -60.5 21.5t-22.5 59.5q0 85 132 143h-191l-2 21l51 14q18 5 25 13t7 24v570l-83 23l2 21h239l2 -21l-51 -13q-19 -6 -25.5 -13.5t-6.5 -23.5v-570z" />
<glyph unicode="&#x12f;" horiz-adv-x="294" d="M193 668q0 -25 -15 -43.5t-40 -18.5q-22 0 -35.5 15.5t-13.5 38.5q0 25 16.5 43t40.5 18q21 0 34 -14.5t13 -38.5zM189 40l72 -23l-2 -17q-113 -57 -113 -127q0 -50 56 -50q26 0 50 6l4 -10q-35 -43 -94 -43q-38 0 -60 21.5t-23 59.5q0 85 132 143h-168l-2 17l44 14 q17 6 23 13.5t6 24.5v377l-70 13l-2 14q60 24 137 33l10 -9v-457z" />
<glyph unicode="&#x130;" horiz-adv-x="353" d="M236 844q0 -24 -16 -41t-43 -17q-24 0 -38.5 14t-14.5 35q0 23 18 40.5t43 17.5q23 0 37 -13.5t14 -35.5zM215 45l83 -24l-2 -21h-239l-2 21l51 14q18 5 25 13t7 24v570l-83 23l2 21h239l2 -21l-51 -13q-19 -6 -25.5 -13.5t-6.5 -23.5v-570z" />
<glyph unicode="&#x131;" horiz-adv-x="294" d="M189 40l72 -23l-2 -17h-216l-2 17l44 14q17 6 23 13.5t6 24.5v377l-70 13l-2 14q60 24 137 33l10 -9v-457z" />
<glyph unicode="&#x132;" horiz-adv-x="629" d="M215 45l83 -24l-2 -21h-239l-2 21l51 14q18 5 25 13t7 24v570l-83 23l2 21h239l2 -21l-51 -13q-19 -6 -25.5 -13.5t-6.5 -23.5v-570zM430 642l-83 23l2 21h239l2 -21l-51 -13q-19 -6 -25.5 -13.5t-6.5 -23.5v-539q0 -90 -36 -144.5t-108 -101.5l-17 18q45 61 64.5 114.5 t19.5 145.5v534z" />
<glyph unicode="&#x133;" horiz-adv-x="527" d="M193 668q0 -25 -15 -43.5t-40 -18.5q-22 0 -35.5 15.5t-13.5 38.5q0 25 16.5 43t40.5 18q21 0 34 -14.5t13 -38.5zM437 667q0 -26 -15 -44t-40 -18q-21 0 -35 15.5t-14 38.5q0 24 16.5 42.5t40.5 18.5q21 0 34 -15t13 -38zM189 40l72 -23l-2 -17h-216l-2 17l44 14 q17 6 23 13.5t6 24.5v377l-70 13l-2 14q60 24 137 33l10 -9v-457zM275 -241q44 62 63.5 115.5t19.5 147.5v424l-69 13l-2 14q61 24 137 33l9 -9v-507q0 -90 -35.5 -144.5t-107.5 -101.5z" />
<glyph unicode="&#x134;" horiz-adv-x="338" d="M324 780l-15 -10q-87 58 -134 85q-94 -63 -134 -85l-12 13q88 86 117 125l7 5h52q67 -69 119 -133zM138 642l-82 23l2 21h239l2 -21l-51 -13q-19 -6 -25.5 -13.5t-6.5 -23.5v-539q0 -90 -36 -144.5t-108 -101.5l-17 18q45 62 64 115t19 145v534z" />
<glyph unicode="&#x135;" horiz-adv-x="275" d="M240 583l-14 -10q-58 71 -92 107q-45 -59 -91 -107l-13 13q46 85 73 156l7 5h56q40 -84 74 -164zM23 -241q44 62 63.5 115.5t19.5 147.5v424l-69 13l-2 14q61 24 137 33l9 -9v-507q0 -90 -35.5 -144.5t-107.5 -101.5z" />
<glyph unicode="&#x136;" horiz-adv-x="692" d="M215 45l83 -24l-2 -21h-239l-2 21l51 14q18 5 25 13t7 24v570l-83 23l2 21h239l2 -21l-51 -13q-19 -6 -25.5 -13.5t-6.5 -23.5v-264l121 1l186 291l-85 22l2 21h216l2 -21q-2 -1 -16.5 -4.5t-28 -7.5t-15.5 -5q-23 -7 -47 -40l-161 -236l138 -234q29 -49 50 -72t54 -36 l28 -10l-2 -20l-78 -1q-38 -1 -59.5 15t-43.5 53l-141 246h-120v-268zM428 -164q0 -44 -27.5 -93t-62.5 -73l-12 9q28 41 40 108q-41 7 -41 48q0 23 15 39.5t37 16.5q24 0 37.5 -14.5t13.5 -40.5z" />
<glyph unicode="&#x137;" horiz-adv-x="555" d="M181 40l72 -23l-2 -17h-216l-2 17l44 14q17 6 23 13.5t6 24.5v628l-70 13l-2 14q60 24 137 33l10 -9v-468h95l118 176l-78 23l2 17h196l2 -17q-45 -15 -50 -18q-22 -8 -46 -39l-94 -122h1l118 -206q31 -52 59 -62l33 -12l-2 -20h-67q-33 0 -51.5 14t-37.5 48l-103 183 h-95v-205zM355 -164q0 -44 -27.5 -93t-63.5 -73l-11 9q27 43 39 108q-18 3 -29.5 16t-11.5 32q0 23 15.5 39.5t37.5 16.5q23 0 37 -15t14 -40z" />
<glyph unicode="&#x138;" horiz-adv-x="560" d="M189 40l72 -23l-2 -17h-216l-2 17l44 14q17 6 23 13.5t6 24.5v377l-70 13l-2 14q60 24 137 33l10 -9v-239h93l145 202l-73 18l2 18h186l2 -18q-31 -6 -53 -17q-17 -7 -39 -35l-118 -151l103 -147q23 -34 33.5 -48t27 -29t35.5 -23l24 -10l-2 -18l-74 -3q-20 -1 -35 6.5 t-22 15.5t-22 29l-119 173h-94v-181z" />
<glyph unicode="&#x139;" horiz-adv-x="566" d="M271 907l9 1q35 -12 35 -38q0 -35 -84 -62t-164 -32l-6 17q110 37 210 114zM138 642l-83 23l2 21h239l2 -21l-51 -13q-19 -6 -25.5 -13.5t-6.5 -23.5v-579h127q61 0 106 10q17 41 28 82l15 48h19q6 -39 6 -89q0 -45 -7 -87h-452l-2 21l51 14q18 5 25 13t7 24v570z" />
<glyph unicode="&#x13a;" horiz-adv-x="286" d="M215 966l9 2q35 -12 35 -39q0 -35 -83.5 -61.5t-164.5 -32.5l-6 17q112 39 210 114zM181 40l72 -23l-2 -17h-216l-2 17l44 14q17 6 23 13.5t6 24.5v628l-70 13l-2 14q60 24 137 33l10 -9v-708z" />
<glyph unicode="&#x13b;" horiz-adv-x="566" d="M138 642l-83 23l2 21h239l2 -21l-51 -13q-19 -6 -25.5 -13.5t-6.5 -23.5v-579h127q61 0 106 10q17 41 28 82l15 48h19q6 -39 6 -89q0 -45 -7 -87h-452l-2 21l51 14q18 5 25 13t7 24v570zM358 -164q0 -44 -27.5 -93t-62.5 -73l-12 9q28 41 40 108q-41 7 -41 48 q0 23 15 39.5t37 16.5q24 0 37.5 -14.5t13.5 -40.5z" />
<glyph unicode="&#x13c;" horiz-adv-x="286" d="M181 40l72 -23l-2 -17h-216l-2 17l44 14q17 6 23 13.5t6 24.5v628l-70 13l-2 14q60 24 137 33l10 -9v-708zM192 -164q0 -44 -27.5 -93t-63.5 -73l-11 9q27 43 39 108q-18 3 -29.5 16t-11.5 32q0 23 15.5 39.5t37.5 16.5q23 0 37 -15t14 -40z" />
<glyph unicode="&#x13d;" horiz-adv-x="570" d="M520 665q0 -41 -25.5 -87t-58.5 -69l-11 8q25 40 37 102q-38 7 -38 44q0 22 14.5 37t34.5 15q22 0 34.5 -13.5t12.5 -36.5zM138 642l-83 23l2 21h239l2 -21l-51 -13q-19 -6 -25.5 -13.5t-6.5 -23.5v-579h127q61 0 106 10q17 41 28 82l15 48h19q6 -39 6 -89q0 -45 -7 -87 h-452l-2 21l51 14q18 5 25 13t7 24v570z" />
<glyph unicode="&#x13e;" horiz-adv-x="426" d="M181 40l72 -23l-2 -17h-216l-2 17l44 14q17 6 23 13.5t6 24.5v628l-70 13l-2 14q60 24 137 33l10 -9v-708zM376 706q0 -41 -25.5 -87t-58.5 -69l-11 9q27 38 37 101q-38 7 -38 45q0 21 14.5 36t34.5 15q22 0 34.5 -13.5t12.5 -36.5z" />
<glyph unicode="&#x13f;" horiz-adv-x="566" d="M138 642l-83 23l2 21h239l2 -21l-51 -13q-19 -6 -25.5 -13.5t-6.5 -23.5v-579h127q61 0 106 10q17 41 28 82l15 48h19q6 -39 6 -89q0 -45 -7 -87h-452l-2 21l51 14q18 5 25 13t7 24v570zM506 386q0 -26 -15 -44t-40 -18q-21 0 -35 15.5t-14 38.5q0 24 16.5 42.5 t40.5 18.5q21 0 34 -15t13 -38z" />
<glyph unicode="&#x140;" horiz-adv-x="359" d="M181 40l72 -23l-2 -17h-216l-2 17l44 14q17 6 23 13.5t6 24.5v628l-70 13l-2 14q60 24 137 33l10 -9v-708zM365 409q0 -26 -15 -44.5t-40 -18.5q-21 0 -35 15.5t-14 38.5q0 24 16.5 43t40.5 19q21 0 34 -15t13 -38z" />
<glyph unicode="&#x141;" horiz-adv-x="566" d="M354 419l-139 -77v-306h127q61 0 106 10q17 41 28 82l15 48h19q6 -39 6 -89q0 -45 -7 -87h-452l-2 21l51 14q18 5 25 13t7 24v227l-116 -63l-18 35l134 74v297l-83 23l2 21h239l2 -21l-51 -13q-19 -6 -25.5 -13.5t-6.5 -23.5v-227l120 67z" />
<glyph unicode="&#x142;" horiz-adv-x="286" d="M181 40l72 -23l-2 -17h-216l-2 17l44 14q17 6 23 13.5t6 24.5v278l-121 -67l-18 35l139 77v305l-70 13l-2 14q60 24 137 33l10 -9v-314l117 65l19 -35l-136 -76v-348z" />
<glyph unicode="&#x143;" horiz-adv-x="739" d="M464 906l8 1q36 -13 36 -38q0 -35 -84 -62t-164 -32l-7 17q113 38 211 114zM179 45l102 -24l-2 -21h-222l-2 21l51 14q18 5 25 13t7 24v552q0 20 -30 27l-53 14l2 21h147l372 -575v531l-82 23l2 21h202l2 -21l-51 -13q-18 -6 -24.5 -13.5t-6.5 -23.5v-615h-57l-382 583 v-538z" />
<glyph unicode="&#x144;" horiz-adv-x="595" d="M407 727q0 -27 -51.5 -69t-123.5 -82l-12 13q89 104 122 166l6 3h12q47 0 47 -31zM189 40l72 -23l-2 -17h-216l-2 17l44 14q17 6 23 13.5t6 24.5v377l-70 13l-2 14q60 24 137 33l10 -9v-56q74 65 160 65q68 0 104.5 -39t36.5 -112v-315l72 -23l-2 -17h-216l-2 17l44 14 q17 6 23 13.5t6 24.5v280q0 108 -96 108q-68 0 -130 -53v-364z" />
<glyph unicode="&#x145;" horiz-adv-x="739" d="M179 45l102 -24l-2 -21h-222l-2 21l51 14q18 5 25 13t7 24v552q0 20 -30 27l-53 14l2 21h147l372 -575v531l-82 23l2 21h202l2 -21l-51 -13q-18 -6 -24.5 -13.5t-6.5 -23.5v-615h-57l-382 583v-538zM429 -164q0 -44 -27.5 -93t-63.5 -73l-11 9q27 43 39 108 q-18 3 -29.5 16t-11.5 32q0 23 15.5 39.5t37.5 16.5q23 0 37 -15t14 -40z" />
<glyph unicode="&#x146;" horiz-adv-x="595" d="M189 40l72 -23l-2 -17h-216l-2 17l44 14q17 6 23 13.5t6 24.5v377l-70 13l-2 14q60 24 137 33l10 -9v-56q74 65 160 65q68 0 104.5 -39t36.5 -112v-315l72 -23l-2 -17h-216l-2 17l44 14q17 6 23 13.5t6 24.5v280q0 108 -96 108q-68 0 -130 -53v-364zM347 -164 q0 -44 -27.5 -93t-62.5 -73l-12 9q28 41 40 108q-41 7 -41 48q0 23 15 39.5t37 16.5q24 0 37.5 -14.5t13.5 -40.5z" />
<glyph unicode="&#x147;" horiz-adv-x="739" d="M407 775l-7 -5h-52q-71 75 -119 133l15 10q92 -62 134 -85q65 47 134 85l12 -12q-89 -87 -117 -126zM179 45l102 -24l-2 -21h-222l-2 21l51 14q18 5 25 13t7 24v552q0 20 -30 27l-53 14l2 21h147l372 -575v531l-82 23l2 21h202l2 -21l-51 -13q-18 -6 -24.5 -13.5 t-6.5 -23.5v-615h-57l-382 583v-538z" />
<glyph unicode="&#x148;" horiz-adv-x="595" d="M327 588l-7 -5h-55q-57 79 -107 162l14 10q76 -72 124 -110q71 69 124 110l13 -12q-75 -96 -106 -155zM189 40l72 -23l-2 -17h-216l-2 17l44 14q17 6 23 13.5t6 24.5v377l-70 13l-2 14q60 24 137 33l10 -9v-56q74 65 160 65q68 0 104.5 -39t36.5 -112v-315l72 -23l-2 -17 h-216l-2 17l44 14q17 6 23 13.5t6 24.5v280q0 108 -96 108q-68 0 -130 -53v-364z" />
<glyph unicode="&#x14a;" horiz-adv-x="739" d="M179 45l102 -24l-2 -21h-222l-2 21l51 14q18 5 25 13t7 24v552q0 20 -30 27l-53 14l2 21h147l372 -575v531l-82 23l2 21h202l2 -21l-51 -13q-18 -6 -24.5 -13.5t-6.5 -23.5v-540q0 -89 -26.5 -137t-94.5 -108l-16 15q28 36 39 51.5t25.5 44t21.5 59.5h-6l-382 583v-538z " />
<glyph unicode="&#x14b;" horiz-adv-x="584" d="M189 40l72 -23l-2 -17h-216l-2 17l44 14q17 6 23 13.5t6 24.5v377l-70 13l-2 14q60 24 137 33l10 -9v-56q74 65 160 65q68 0 104.5 -39t36.5 -112v-365q0 -62 -19.5 -109t-48 -76.5t-75.5 -60.5l-15 15q44 62 63.5 116t19.5 147v327q0 108 -96 108q-68 0 -130 -53v-364z " />
<glyph unicode="&#x14c;" horiz-adv-x="676" d="M203 817v50h279v-50h-279zM58 344q0 162 80.5 257t205.5 95q122 0 198 -93.5t76 -253.5q0 -163 -77.5 -261t-203.5 -98q-127 0 -203 95t-76 259zM139 344q0 -144 54.5 -229t146.5 -85q91 0 144 87.5t53 231.5q0 140 -52.5 223.5t-140.5 83.5q-93 0 -148.5 -84.5 t-56.5 -227.5z" />
<glyph unicode="&#x14d;" horiz-adv-x="515" d="M124 643v46h278v-46h-278zM465 250q0 -120 -59 -189.5t-151 -70.5q-91 -1 -148 69t-57 192q0 118 62.5 186.5t151.5 68.5q87 0 144 -68t57 -188zM129 249q0 -103 33.5 -162.5t92.5 -59.5q131 0 131 219q0 105 -33 164t-91 59q-62 0 -97.5 -55t-35.5 -165z" />
<glyph unicode="&#x14e;" horiz-adv-x="676" d="M450 901l4 2l15 -4q-10 -54 -44.5 -84.5t-84.5 -30.5q-49 0 -82 30.5t-40 84.5l19 4q22 -61 108 -61q79 0 105 59zM58 344q0 162 80.5 257t205.5 95q122 0 198 -93.5t76 -253.5q0 -163 -77.5 -261t-203.5 -98q-127 0 -203 95t-76 259zM139 344q0 -144 54.5 -229 t146.5 -85q91 0 144 87.5t53 231.5q0 140 -52.5 223.5t-140.5 83.5q-93 0 -148.5 -84.5t-56.5 -227.5z" />
<glyph unicode="&#x14f;" horiz-adv-x="515" d="M371 735l4 2l15 -4q-10 -63 -45 -99t-85 -36t-83 36.5t-39 99.5l18 3q11 -37 39.5 -58.5t70.5 -21.5q37 0 65 20.5t40 57.5zM465 250q0 -120 -59 -189.5t-151 -70.5q-91 -1 -148 69t-57 192q0 118 62.5 186.5t151.5 68.5q87 0 144 -68t57 -188zM129 249 q0 -103 33.5 -162.5t92.5 -59.5q131 0 131 219q0 105 -33 164t-91 59q-62 0 -97.5 -55t-35.5 -165z" />
<glyph unicode="&#x150;" horiz-adv-x="676" d="M323 909l9 1q32 -12 32 -38q0 -34 -67 -62t-128 -32l-7 17q88 38 161 114zM518 909l9 1q32 -12 32 -38q0 -34 -67 -62t-128 -32l-7 17q88 38 161 114zM58 344q0 162 80.5 257t205.5 95q122 0 198 -93.5t76 -253.5q0 -163 -77.5 -261t-203.5 -98q-127 0 -203 95t-76 259z M139 344q0 -144 54.5 -229t146.5 -85q91 0 144 87.5t53 231.5q0 140 -52.5 223.5t-140.5 83.5q-93 0 -148.5 -84.5t-56.5 -227.5z" />
<glyph unicode="&#x151;" horiz-adv-x="515" d="M290 727q0 -27 -48.5 -68.5t-115.5 -82.5l-12 13q88 102 120 166l7 3h11q38 0 38 -31zM435 727q0 -27 -48.5 -68.5t-115.5 -82.5l-12 13q88 102 120 166l7 3h11q38 0 38 -31zM465 250q0 -120 -59 -189.5t-151 -70.5q-91 -1 -148 69t-57 192q0 118 62.5 186.5t151.5 68.5 q87 0 144 -68t57 -188zM129 249q0 -103 33.5 -162.5t92.5 -59.5q131 0 131 219q0 105 -33 164t-91 59q-62 0 -97.5 -55t-35.5 -165z" />
<glyph unicode="&#x152;" horiz-adv-x="891" d="M525 361l212 7l-2 -47l-210 5v-290h134q58 0 100 5q2 3 13.5 36t12.5 36l23 71h19q6 -41 6 -90q0 -48 -7 -94h-378v1q-36 -11 -75 -11q-139 0 -227.5 94.5t-88.5 255.5t93 258.5t231 97.5q37 0 67 -11v1h368q7 -46 7 -94q0 -47 -6 -89h-19l-23 71q-1 3 -12.5 35.5 t-13.5 35.5q-42 5 -100 5h-124v-289zM139 340q-1 -141 66.5 -226t172.5 -85q43 0 70 13v602q-30 14 -63 14q-109 0 -177.5 -86.5t-68.5 -231.5z" />
<glyph unicode="&#x153;" horiz-adv-x="817" d="M768 84q-26 -43 -70 -68.5t-100 -25.5q-126 0 -180 109q-53 -109 -173 -109q-87 -1 -141.5 69t-54.5 192q0 118 60 186.5t145 68.5q120 0 169 -116q28 55 74.5 85.5t104.5 30.5q74 0 119.5 -50t45.5 -135q0 -36 -1 -53l-11 -12h-291q1 -100 43.5 -155.5t116.5 -55.5 q76 0 131 49zM128 249q0 -103 33.5 -162.5t92.5 -59.5q131 0 131 219q0 105 -33 164t-91 59q-62 0 -97.5 -55t-35.5 -165zM595 469q-56 0 -91 -50t-40 -132l225 6q1 13 1 36q0 140 -95 140z" />
<glyph unicode="&#x154;" horiz-adv-x="661" d="M398 907l9 1q35 -12 35 -38q0 -35 -84 -62t-164 -32l-6 17q110 37 210 114zM215 45l83 -24l-2 -21h-239l-2 21l51 14q18 5 25 13t7 24v552q0 10 -4 14.5t-17 7.5l-62 19l2 21h246q105 0 172 -51t67 -139q0 -67 -36.5 -113t-95.5 -68l96 -177q26 -47 47.5 -69.5 t56.5 -38.5l25 -10l-2 -20l-74 -1q-39 -1 -61.5 15t-41.5 53l-122 231q-21 -3 -34 -3h-85v-250zM289 646h-74v-312h74q81 0 126 41t45 118q0 73 -45 113t-126 40z" />
<glyph unicode="&#x155;" horiz-adv-x="406" d="M349 727q0 -27 -51.5 -69t-123.5 -82l-12 13q89 104 122 166l6 3h12q47 0 47 -31zM189 40l92 -23l-2 -17h-236l-2 17l44 14q17 6 23 13.5t6 24.5v377l-70 13l-2 14q60 24 137 33l10 -9v-74q64 83 131 83q31 0 49.5 -15.5t18.5 -38.5q0 -28 -27 -52q-1 0 -4.5 -1t-4.5 -1 q-31 43 -73 45q-23 0 -48 -19t-42 -43v-341z" />
<glyph unicode="&#x156;" horiz-adv-x="661" d="M215 45l83 -24l-2 -21h-239l-2 21l51 14q18 5 25 13t7 24v552q0 10 -4 14.5t-17 7.5l-62 19l2 21h246q105 0 172 -51t67 -139q0 -67 -36.5 -113t-95.5 -68l96 -177q26 -47 47.5 -69.5t56.5 -38.5l25 -10l-2 -20l-74 -1q-39 -1 -61.5 15t-41.5 53l-122 231q-21 -3 -34 -3 h-85v-250zM289 646h-74v-312h74q81 0 126 41t45 118q0 73 -45 113t-126 40zM416 -164q0 -44 -28 -93t-63 -73l-12 9q28 41 40 108q-41 7 -41 48q0 23 15.5 39.5t37.5 16.5q23 0 37 -15t14 -40z" />
<glyph unicode="&#x157;" horiz-adv-x="406" d="M189 40l92 -23l-2 -17h-236l-2 17l44 14q17 6 23 13.5t6 24.5v377l-70 13l-2 14q60 24 137 33l10 -9v-74q64 83 131 83q31 0 49.5 -15.5t18.5 -38.5q0 -28 -27 -52q-1 0 -4.5 -1t-4.5 -1q-31 43 -73 45q-23 0 -48 -19t-42 -43v-341zM205 -164q0 -44 -28 -93t-63 -73 l-11 9q27 43 39 108q-41 7 -41 48q0 23 15.5 39.5t37.5 16.5q23 0 37 -15t14 -40z" />
<glyph unicode="&#x158;" horiz-adv-x="661" d="M344 776l-7 -5h-52q-71 75 -119 133l15 11q82 -57 134 -86q72 51 134 86l12 -13q-89 -87 -117 -126zM215 45l83 -24l-2 -21h-239l-2 21l51 14q18 5 25 13t7 24v552q0 10 -4 14.5t-17 7.5l-62 19l2 21h246q105 0 172 -51t67 -139q0 -67 -36.5 -113t-95.5 -68l96 -177 q26 -47 47.5 -69.5t56.5 -38.5l25 -10l-2 -20l-74 -1q-39 -1 -61.5 15t-41.5 53l-122 231q-21 -3 -34 -3h-85v-250zM289 646h-74v-312h74q81 0 126 41t45 118q0 73 -45 113t-126 40z" />
<glyph unicode="&#x159;" horiz-adv-x="406" d="M269 588l-7 -5h-55q-57 79 -107 162l14 10q76 -72 124 -110q71 69 124 110l13 -12q-75 -96 -106 -155zM189 40l92 -23l-2 -17h-236l-2 17l44 14q17 6 23 13.5t6 24.5v377l-70 13l-2 14q60 24 137 33l10 -9v-74q64 83 131 83q31 0 49.5 -15.5t18.5 -38.5q0 -28 -27 -52 q-1 0 -4.5 -1t-4.5 -1q-31 43 -73 45q-23 0 -48 -19t-42 -43v-341z" />
<glyph unicode="&#x15a;" horiz-adv-x="502" d="M362 907l8 1q35 -12 35 -38q0 -35 -84 -62t-164 -32l-6 17q107 36 211 114zM229 -10q-58 0 -107.5 11t-59.5 25q-12 16 -12 60q0 55 15 97l19 -1q16 -94 43 -122q30 -31 112 -31q61 0 97.5 34t36.5 84q0 49 -32.5 87.5t-78.5 65t-92 54.5t-78.5 71t-32.5 99 q0 80 62.5 126t155.5 46q53 0 95.5 -11.5t55.5 -25.5q8 -9 8 -47q0 -56 -15 -108h-19q-13 90 -38 120q-31 34 -96 34q-57 0 -93.5 -33t-36.5 -87q0 -48 32.5 -85.5t78.5 -64t92 -54.5t78.5 -71.5t32.5 -100.5q0 -80 -60 -126t-163 -46z" />
<glyph unicode="&#x15b;" horiz-adv-x="424" d="M327 727q0 -27 -51.5 -69t-123.5 -82l-12 13q89 104 122 166l6 3h12q47 0 47 -31zM192 -10q-42 0 -81.5 8.5t-49.5 19.5q-11 13 -11 53q0 47 15 84l15 -1q9 -76 36 -104q23 -23 82 -23q46 0 72.5 22t26.5 59q0 34 -24.5 59.5t-60 43t-71 36.5t-60 50.5t-24.5 74.5 q0 60 50.5 97t125.5 37q40 0 75.5 -8t44.5 -19q8 -7 8 -45q0 -51 -14 -90l-15 1q-9 81 -32 101q-28 23 -72 23q-43 0 -68.5 -22.5t-25.5 -61.5q0 -34 24.5 -59.5t60 -43t71 -36.5t60 -50t24.5 -72q0 -61 -50 -97.5t-132 -36.5z" />
<glyph unicode="&#x15c;" horiz-adv-x="502" d="M417 782l-14 -11q-78 54 -134 85q-89 -59 -134 -85l-13 13q85 81 117 126l8 5h51q59 -61 119 -133zM229 -10q-58 0 -107.5 11t-59.5 25q-12 16 -12 60q0 55 15 97l19 -1q16 -94 43 -122q30 -31 112 -31q61 0 97.5 34t36.5 84q0 49 -32.5 87.5t-78.5 65t-92 54.5t-78.5 71 t-32.5 99q0 80 62.5 126t155.5 46q53 0 95.5 -11.5t55.5 -25.5q8 -9 8 -47q0 -56 -15 -108h-19q-13 90 -38 120q-31 34 -96 34q-57 0 -93.5 -33t-36.5 -87q0 -48 32.5 -85.5t78.5 -64t92 -54.5t78.5 -71.5t32.5 -100.5q0 -80 -60 -126t-163 -46z" />
<glyph unicode="&#x15d;" horiz-adv-x="424" d="M356 591l-14 -10q-76 72 -124 110q-65 -63 -124 -110l-13 13q73 94 106 154l7 5h55q57 -79 107 -162zM192 -10q-42 0 -81.5 8.5t-49.5 19.5q-11 13 -11 53q0 47 15 84l15 -1q9 -76 36 -104q23 -23 82 -23q46 0 72.5 22t26.5 59q0 34 -24.5 59.5t-60 43t-71 36.5t-60 50.5 t-24.5 74.5q0 60 50.5 97t125.5 37q40 0 75.5 -8t44.5 -19q8 -7 8 -45q0 -51 -14 -90l-15 1q-9 81 -32 101q-28 23 -72 23q-43 0 -68.5 -22.5t-25.5 -61.5q0 -34 24.5 -59.5t60 -43t71 -36.5t60 -50t24.5 -72q0 -61 -50 -97.5t-132 -36.5z" />
<glyph unicode="&#x15e;" horiz-adv-x="502" d="M218 -99l-4 6l14 83q-57 0 -107 11t-59 25q-12 16 -12 60q0 55 15 97l19 -1q16 -94 43 -122q30 -31 112 -31q61 0 97.5 34t36.5 84q0 49 -32.5 87.5t-78.5 65t-92 54.5t-78.5 71t-32.5 99q0 80 62.5 126t155.5 46q53 0 95.5 -11.5t55.5 -25.5q8 -9 8 -47q0 -56 -15 -108 h-19q-13 90 -38 120q-31 34 -96 34q-57 0 -93.5 -33t-36.5 -87q0 -48 32.5 -85.5t78.5 -64t92 -54.5t78.5 -71.5t32.5 -100.5q0 -72 -49 -117t-136 -53l-10 -55q42 -9 65 -28t23 -45q0 -38 -42 -61t-107 -27l-4 15q82 24 82 64q0 32 -56 46z" />
<glyph unicode="&#x15f;" horiz-adv-x="424" d="M173 -99l-4 6l14 83q-39 1 -76 9.5t-46 18.5q-11 13 -11 53q0 47 15 84l15 -1q9 -76 36 -104q23 -23 82 -23q46 0 72.5 22t26.5 59q0 34 -24.5 59.5t-60 43t-71 36.5t-60 50.5t-24.5 74.5q0 60 50.5 97t125.5 37q40 0 75.5 -8t44.5 -19q8 -7 8 -45q0 -51 -14 -90l-15 1 q-9 81 -32 101q-28 23 -72 23q-43 0 -68.5 -22.5t-25.5 -61.5q0 -34 24.5 -59.5t60 -43t71 -36.5t60 -50t24.5 -72q0 -56 -41 -91t-111 -42l-10 -54q42 -9 65 -28t23 -45q0 -38 -42 -61t-107 -27l-4 15q82 24 82 64q0 32 -56 46z" />
<glyph unicode="&#x160;" horiz-adv-x="502" d="M307 776l-7 -5h-51q-59 61 -119 133l14 11q77 -53 134 -86q82 57 134 86l12 -13q-84 -82 -117 -126zM229 -10q-58 0 -107.5 11t-59.5 25q-12 16 -12 60q0 55 15 97l19 -1q16 -94 43 -122q30 -31 112 -31q61 0 97.5 34t36.5 84q0 49 -32.5 87.5t-78.5 65t-92 54.5 t-78.5 71t-32.5 99q0 80 62.5 126t155.5 46q53 0 95.5 -11.5t55.5 -25.5q8 -9 8 -47q0 -56 -15 -108h-19q-13 90 -38 120q-31 34 -96 34q-57 0 -93.5 -33t-36.5 -87q0 -48 32.5 -85.5t78.5 -64t92 -54.5t78.5 -71.5t32.5 -100.5q0 -80 -60 -126t-163 -46z" />
<glyph unicode="&#x161;" horiz-adv-x="424" d="M257 588l-7 -5h-55q-57 79 -107 162l14 10q76 -72 124 -110q71 69 124 110l13 -12q-75 -96 -106 -155zM192 -10q-42 0 -81.5 8.5t-49.5 19.5q-11 13 -11 53q0 47 15 84l15 -1q9 -76 36 -104q23 -23 82 -23q46 0 72.5 22t26.5 59q0 34 -24.5 59.5t-60 43t-71 36.5 t-60 50.5t-24.5 74.5q0 60 50.5 97t125.5 37q40 0 75.5 -8t44.5 -19q8 -7 8 -45q0 -51 -14 -90l-15 1q-9 81 -32 101q-28 23 -72 23q-43 0 -68.5 -22.5t-25.5 -61.5q0 -34 24.5 -59.5t60 -43t71 -36.5t60 -50t24.5 -72q0 -61 -50 -97.5t-132 -36.5z" />
<glyph unicode="&#x162;" horiz-adv-x="605" d="M268 -99l-4 6l16 93h-97l-2 21l51 14q19 5 25.5 13t6.5 24v577h-60q-57 0 -106 -9q-18 -48 -27 -86l-16 -51h-19q-6 43 -6 89q0 48 7 94h531q7 -36 7 -94q0 -46 -6 -89h-19l-16 51q-9 38 -27 86q-49 9 -106 9h-59v-604l82 -24l-2 -21h-103l-12 -63q42 -9 65 -28t23 -45 q0 -38 -42 -61t-107 -27l-4 15q82 24 82 64q0 32 -56 46z" />
<glyph unicode="&#x163;" horiz-adv-x="408" d="M198 -99l-3 6l14 84q-100 14 -100 147v315h-82l-2 17l84 24l55 146l20 -2v-150h170v-35h-170v-298q0 -110 77 -110q54 0 108 49l13 -10q-51 -83 -134 -93l-10 -54q87 -19 87 -73q0 -38 -41.5 -61t-106.5 -27l-5 15q83 24 83 64q0 32 -57 46z" />
<glyph unicode="&#x164;" horiz-adv-x="605" d="M334 777l-8 -5h-51q-59 61 -119 133l14 10q87 -58 134 -85q75 52 134 85l13 -12q-85 -81 -117 -126zM342 45l82 -24l-2 -21h-239l-2 21l51 14q19 5 25.5 13t6.5 24v577h-60q-57 0 -106 -9q-18 -48 -27 -86l-16 -51h-19q-6 43 -6 89q0 48 7 94h531q7 -36 7 -94 q0 -46 -6 -89h-19l-16 51q-9 38 -27 86q-49 9 -106 9h-59v-604z" />
<glyph unicode="&#x165;" horiz-adv-x="384" d="M401 699q0 -41 -26 -87.5t-59 -69.5l-11 9q27 40 37 102q-38 7 -38 44q0 22 14.5 37t34.5 15q22 0 35 -13.5t13 -36.5zM382 84q-26 -42 -65.5 -68t-86.5 -26q-59 0 -90 38t-31 110v315h-82l-2 17l84 24l55 146l20 -2v-150h170v-35h-170v-298q0 -110 77 -110q54 0 108 49z " />
<glyph unicode="&#x166;" horiz-adv-x="605" d="M342 45l82 -24l-2 -21h-239l-2 21l51 14q19 5 25.5 13t6.5 24v259h-165v35h165v283h-60q-57 0 -106 -9q-18 -48 -27 -86l-16 -51h-19q-6 43 -6 89q0 48 7 94h531q7 -36 7 -94q0 -46 -6 -89h-19l-16 51q-9 38 -27 86q-49 9 -106 9h-59v-283h158v-35h-158v-286z" />
<glyph unicode="&#x167;" horiz-adv-x="408" d="M353 314h-169v-159q0 -110 77 -110q54 0 108 49l13 -10q-26 -42 -65.5 -68t-86.5 -26q-59 0 -90 38t-31 110v176h-82v35h82v104h-82l-2 17l84 24l55 146l20 -2v-150h170v-35h-170v-104h169v-35z" />
<glyph unicode="&#x168;" horiz-adv-x="663" d="M178 774l-15 5q0 2 -0.5 4.5t-0.5 3.5q15 111 84 111q34 0 120 -32t103 -34q3 6 21 31t27 40l15 -6q1 -3 1 -10q-15 -108 -82 -108q-33 0 -121 32t-102 34q-26 -29 -50 -71zM101 226v416l-83 23l2 21h239l2 -21l-51 -13q-19 -6 -25.5 -13.5t-6.5 -23.5v-392 q0 -91 48 -141.5t123 -50.5t123 50t48 142v419l-83 23l2 21h202l2 -21l-82 -23v-416q0 -115 -62.5 -175.5t-166.5 -60.5q-103 0 -167 61.5t-64 174.5z" />
<glyph unicode="&#x169;" horiz-adv-x="606" d="M150 609l-16 5v7q13 106 82 106q29 0 102.5 -27.5t87.5 -29.5q39 51 47 64l16 -6v-9q-14 -103 -81 -103q-29 0 -104.5 27.5t-86.5 29.5q-29 -33 -47 -64zM109 156v290l-69 13l-2 14q61 24 137 33l9 -9v-335q0 -123 108 -123q66 0 122 56v351l-69 13l-2 14q61 24 137 33 l9 -9v-383q0 -41 11.5 -59t37.5 -18q19 0 43 7l4 -11q-36 -43 -92 -43q-64 0 -77 66q-63 -66 -152 -66q-74 0 -114.5 43t-40.5 123z" />
<glyph unicode="&#x16a;" horiz-adv-x="663" d="M210 817v50h279v-50h-279zM101 226v416l-83 23l2 21h239l2 -21l-51 -13q-19 -6 -25.5 -13.5t-6.5 -23.5v-392q0 -91 48 -141.5t123 -50.5t123 50t48 142v419l-83 23l2 21h202l2 -21l-82 -23v-416q0 -115 -62.5 -175.5t-166.5 -60.5q-103 0 -167 61.5t-64 174.5z" />
<glyph unicode="&#x16b;" horiz-adv-x="606" d="M162 643v46h278v-46h-278zM109 156v290l-69 13l-2 14q61 24 137 33l9 -9v-335q0 -123 108 -123q66 0 122 56v351l-69 13l-2 14q61 24 137 33l9 -9v-383q0 -41 11.5 -59t37.5 -18q19 0 43 7l4 -11q-36 -43 -92 -43q-64 0 -77 66q-63 -66 -152 -66q-74 0 -114.5 43 t-40.5 123z" />
<glyph unicode="&#x16c;" horiz-adv-x="663" d="M464 901l5 2l15 -4q-10 -54 -44.5 -84.5t-85.5 -30.5q-49 0 -81.5 30.5t-39.5 84.5l18 4q11 -29 39.5 -45t68.5 -16q38 0 66 15.5t39 43.5zM101 226v416l-83 23l2 21h239l2 -21l-51 -13q-19 -6 -25.5 -13.5t-6.5 -23.5v-392q0 -91 48 -141.5t123 -50.5t123 50t48 142v419 l-83 23l2 21h202l2 -21l-82 -23v-416q0 -115 -62.5 -175.5t-166.5 -60.5q-103 0 -167 61.5t-64 174.5z" />
<glyph unicode="&#x16d;" horiz-adv-x="606" d="M411 735l4 2l15 -4q-10 -63 -44.5 -99t-84.5 -36q-51 0 -84 36.5t-39 99.5l18 3q11 -37 39.5 -58.5t70.5 -21.5q37 0 65 20.5t40 57.5zM109 156v290l-69 13l-2 14q61 24 137 33l9 -9v-335q0 -123 108 -123q66 0 122 56v351l-69 13l-2 14q61 24 137 33l9 -9v-383 q0 -41 11.5 -59t37.5 -18q19 0 43 7l4 -11q-36 -43 -92 -43q-64 0 -77 66q-63 -66 -152 -66q-74 0 -114.5 43t-40.5 123z" />
<glyph unicode="&#x16e;" horiz-adv-x="663" d="M345 766q-38 0 -61 20.5t-23 54.5q0 36 25.5 58.5t65.5 22.5q37 0 61 -21t23 -54q-2 -35 -27.5 -58t-63.5 -23zM349 895q-21 0 -33.5 -15t-12.5 -38q0 -22 12.5 -35.5t32.5 -13.5t33 15.5t13 39.5q0 20 -13 33.5t-32 13.5zM101 226v416l-83 23l2 21h239l2 -21l-51 -13 q-19 -6 -25.5 -13.5t-6.5 -23.5v-392q0 -91 48 -141.5t123 -50.5t123 50t48 142v419l-83 23l2 21h202l2 -21l-82 -23v-416q0 -115 -62.5 -175.5t-166.5 -60.5q-103 0 -167 61.5t-64 174.5z" />
<glyph unicode="&#x16f;" horiz-adv-x="606" d="M299 589q-37 0 -60 20.5t-23 54.5q0 36 25.5 58.5t65.5 22.5q37 0 60.5 -21t22.5 -54q-1 -35 -26.5 -58t-64.5 -23zM303 718q-20 0 -33 -15t-13 -38q0 -22 12.5 -35.5t32.5 -13.5q21 0 33.5 15.5t12.5 39.5q0 20 -12.5 33.5t-32.5 13.5zM109 156v290l-69 13l-2 14 q61 24 137 33l9 -9v-335q0 -123 108 -123q66 0 122 56v351l-69 13l-2 14q61 24 137 33l9 -9v-383q0 -41 11.5 -59t37.5 -18q19 0 43 7l4 -11q-36 -43 -92 -43q-64 0 -77 66q-63 -66 -152 -66q-74 0 -114.5 43t-40.5 123z" />
<glyph unicode="&#x170;" horiz-adv-x="663" d="M331 909l9 1q33 -12 33 -38q0 -34 -67 -62t-129 -32l-6 17q87 39 160 114zM526 909l9 1q33 -12 33 -38q0 -34 -67 -62t-129 -32l-6 17q87 39 160 114zM101 226v416l-83 23l2 21h239l2 -21l-51 -13q-19 -6 -25.5 -13.5t-6.5 -23.5v-392q0 -91 48 -141.5t123 -50.5t123 50 t48 142v419l-83 23l2 21h202l2 -21l-82 -23v-416q0 -115 -62.5 -175.5t-166.5 -60.5q-103 0 -167 61.5t-64 174.5z" />
<glyph unicode="&#x171;" horiz-adv-x="606" d="M331 727q0 -27 -48.5 -68.5t-116.5 -82.5l-12 13q84 96 121 166l6 3h12q38 0 38 -31zM476 727q0 -27 -48.5 -68.5t-116.5 -82.5l-12 13q88 100 121 166l6 3h12q38 0 38 -31zM109 156v290l-69 13l-2 14q61 24 137 33l9 -9v-335q0 -123 108 -123q66 0 122 56v351l-69 13 l-2 14q61 24 137 33l9 -9v-383q0 -41 11.5 -59t37.5 -18q19 0 43 7l4 -11q-36 -43 -92 -43q-64 0 -77 66q-63 -66 -152 -66q-74 0 -114.5 43t-40.5 123z" />
<glyph unicode="&#x172;" horiz-adv-x="663" d="M101 226v416l-83 23l2 21h239l2 -21l-51 -13q-19 -6 -25.5 -13.5t-6.5 -23.5v-392q0 -91 48 -141.5t123 -50.5t123 50t48 142v419l-83 23l2 21h202l2 -21l-82 -23v-416q0 -89 -38 -145.5t-106 -78.5q-99 -73 -99 -129q0 -50 58 -50q24 0 48 6l4 -10q-37 -43 -94 -43 q-38 0 -60.5 21t-22.5 58q0 74 108 136q-9 -1 -27 -1q-103 0 -167 61.5t-64 174.5z" />
<glyph unicode="&#x173;" horiz-adv-x="606" d="M109 156v290l-69 13l-2 14q61 24 137 33l9 -9v-335q0 -123 108 -123q66 0 122 56v351l-69 13l-2 14q61 24 137 33l9 -9v-383q0 -41 11.5 -59t37.5 -18q19 0 43 7l4 -11l-15 -15q-12 -11 -38.5 -32.5t-41.5 -35t-28 -35t-13 -43.5q0 -49 58 -49q24 0 48 6l4 -10 q-36 -43 -89 -43q-39 0 -63 22t-24 59q0 72 111 133h-1q-64 0 -77 66q-63 -66 -152 -66q-74 0 -114.5 43t-40.5 123z" />
<glyph unicode="&#x174;" horiz-adv-x="1059" d="M664 782l-15 -11q-73 52 -133 85q-88 -59 -134 -85l-13 13q85 81 117 126l8 5h51q59 -61 119 -133zM371 0h-47l-207 611q-11 32 -40 40l-51 14l2 21h243l2 -21l-83 -21l178 -545l141 429l-28 83q-6 19 -13.5 27.5t-23.5 12.5l-51 14l2 21h241l2 -21l-83 -21l177 -544 l179 544l-83 21l2 21h201l2 -21q-2 -1 -27 -7.5t-27 -7.5q-26 -8 -37 -39l-207 -611h-47l-158 468z" />
<glyph unicode="&#x175;" horiz-adv-x="828" d="M568 592l-14 -10q-76 72 -124 110q-71 -69 -124 -110l-12 12q76 99 105 155l7 5h55q57 -79 107 -162zM455 496l143 -410l101 371l-75 22l2 17h182l2 -17q-40 -10 -46 -16q-28 -10 -36 -39l-123 -424h-54l-138 392l-138 -392h-53l-124 424q-8 30 -34 39q-6 6 -46 16l2 17 h221l2 -17l-74 -22l102 -371l141 410h43z" />
<glyph unicode="&#x176;" horiz-adv-x="679" d="M503 782l-15 -11q-78 54 -134 85q-94 -63 -134 -85l-12 13q89 87 117 126l7 5h52q71 -75 119 -133zM378 45l82 -24l-2 -21h-238l-2 21l51 14q18 5 24.5 13t6.5 24v203l-182 336q-11 20 -19.5 29t-23.5 13l-49 12l2 21h244l2 -21l-83 -22l169 -331l169 332l-82 21l2 21 h202l2 -21q-2 -1 -15.5 -4.5t-25.5 -7t-13 -4.5q-24 -7 -40 -38l-181 -338v-228z" />
<glyph unicode="&#x177;" horiz-adv-x="553" d="M428 591l-15 -10q-76 72 -124 110q-71 -69 -124 -110l-12 13q74 98 105 154l8 5h54q54 -74 108 -162zM28 496h221l2 -17l-74 -22l123 -375l124 375l-75 22l2 17h182l2 -17q-5 -1 -24.5 -7.5t-21.5 -8.5q-26 -9 -36 -39l-152 -437q-43 -124 -88.5 -183.5t-109.5 -59.5 q-31 0 -52 17t-21 42q0 24 14 36l6 3q29 -31 64 -31q48 0 89.5 51t67.5 132l-14 -7l-151 437q-11 29 -34 39q-1 1 -11 4.5t-21.5 7t-13.5 4.5z" />
<glyph unicode="&#x178;" horiz-adv-x="679" d="M510 847q0 -24 -14.5 -41t-39.5 -17q-21 0 -34.5 13.5t-13.5 33.5q0 23 16 40t40 17q21 0 33.5 -13t12.5 -33zM308 847q0 -24 -15 -41t-40 -17q-21 0 -34.5 13.5t-13.5 33.5q0 23 16 40t40 17q21 0 34 -13t13 -33zM378 45l82 -24l-2 -21h-238l-2 21l51 14q18 5 24.5 13 t6.5 24v203l-182 336q-11 20 -19.5 29t-23.5 13l-49 12l2 21h244l2 -21l-83 -22l169 -331l169 332l-82 21l2 21h202l2 -21q-2 -1 -15.5 -4.5t-25.5 -7t-13 -4.5q-24 -7 -40 -38l-181 -338v-228z" />
<glyph unicode="&#x179;" horiz-adv-x="611" d="M400 907l9 1q35 -12 35 -38q0 -35 -84 -62t-164 -32l-7 17q110 37 211 114zM536 0h-464l-6 35l379 615h-195q-58 0 -101 -5l-51 -142h-19q-6 39 -6 82q0 52 7 101h447l7 -35l-380 -615h212q57 0 100 5l52 143h18q6 -39 6 -81q0 -59 -6 -103z" />
<glyph unicode="&#x17a;" horiz-adv-x="472" d="M356 727q0 -27 -52 -69t-124 -82l-12 13q87 99 122 166l7 3h11q48 0 48 -31zM421 69q-2 -46 -7 -69h-357l-7 35l289 426h-213l-45 -119h-17q-8 42 -8 88q0 34 6 66h353l7 -35l-290 -426h218l46 120h16q9 -38 9 -86z" />
<glyph unicode="&#x17b;" horiz-adv-x="611" d="M369 844q0 -24 -15.5 -41t-42.5 -17q-24 0 -38.5 14t-14.5 35q0 24 17.5 41t43.5 17q23 0 36.5 -13.5t13.5 -35.5zM536 0h-464l-6 35l379 615h-195q-58 0 -101 -5l-51 -142h-19q-6 39 -6 82q0 52 7 101h447l7 -35l-380 -615h212q57 0 100 5l52 143h18q6 -39 6 -81 q0 -59 -6 -103z" />
<glyph unicode="&#x17c;" horiz-adv-x="472" d="M296 668q0 -25 -15 -43.5t-40 -18.5q-22 0 -35.5 15.5t-13.5 38.5q0 25 16.5 43t40.5 18q21 0 34 -14.5t13 -38.5zM421 69q-2 -46 -7 -69h-357l-7 35l289 426h-213l-45 -119h-17q-8 42 -8 88q0 34 6 66h353l7 -35l-290 -426h218l46 120h16q9 -38 9 -86z" />
<glyph unicode="&#x17d;" horiz-adv-x="611" d="M343 776l-7 -5h-51q-59 61 -119 133l14 11q77 -53 134 -86q82 57 134 86l12 -13q-84 -82 -117 -126zM536 0h-464l-6 35l379 615h-195q-58 0 -101 -5l-51 -142h-19q-6 39 -6 82q0 52 7 101h447l7 -35l-380 -615h212q57 0 100 5l52 143h18q6 -39 6 -81q0 -59 -6 -103z" />
<glyph unicode="&#x17e;" horiz-adv-x="472" d="M276 588l-8 -5h-54q-54 74 -108 162l15 10q76 -72 123 -110q79 74 125 110l12 -12q-76 -99 -105 -155zM421 69q-2 -46 -7 -69h-357l-7 35l289 426h-213l-45 -119h-17q-8 42 -8 88q0 34 6 66h353l7 -35l-290 -426h218l46 120h16q9 -38 9 -86z" />
<glyph unicode="&#x18f;" horiz-adv-x="636" d="M311 -10q-106 0 -172 73t-66 197q0 32 3 64l12 13h416v2q0 152 -49 235t-140 83q-67 0 -113 -44.5t-46 -112.5q0 -21 8 -41q-19 -11 -42 -11q-18 0 -30 12.5t-12 33.5q0 81 72.5 141.5t167.5 60.5q122 0 194 -93t72 -250q0 -163 -76.5 -263t-198.5 -100zM155 252 q0 -107 42 -164t120 -57q80 0 129.5 73.5t56.5 197.5l-348 -8v-42z" />
<glyph unicode="&#x192;" horiz-adv-x="577" d="M87 297l5 43h119l13 109q14 119 72 183.5t139 64.5q54 0 89 -30t35 -67q0 -39 -40 -50q-33 110 -100 110q-89 0 -118 -202l-17 -118h180l-5 -43h-181l-29 -201q-15 -104 -70 -168.5t-127 -64.5q-36 0 -59.5 18.5t-23.5 45.5t28 44q45 -67 89 -67q73 0 95 183l25 210h-119 z" />
<glyph unicode="&#x19d;" horiz-adv-x="739" d="M58 -170l-16 15q30 39 41 55t27.5 48.5t22 68.5t5.5 87v520q0 20 -30 27l-53 14l2 21h147l372 -575v531l-82 23l2 21h202l2 -21l-51 -13q-18 -6 -24.5 -13.5t-6.5 -23.5v-615h-57l-382 583v-508q0 -89 -26.5 -137.5t-94.5 -107.5z" />
<glyph unicode="&#x1cd;" horiz-adv-x="712" d="M391 776l-8 -5h-51q-59 61 -119 133l14 11q77 -53 134 -86q82 57 134 86l13 -13q-85 -81 -117 -126zM333 686h47l216 -611q7 -19 15 -27t24 -13l51 -14l-2 -21h-243l-2 21l83 22l-68 198l-239 -4l-67 -193l83 -23l-2 -21h-201l-2 21q3 2 28 8.5t26 7.5q28 10 37 38z M228 275h215l-108 313z" />
<glyph unicode="&#x1ce;" horiz-adv-x="516" d="M287 588l-8 -5h-54q-54 74 -108 162l15 10q76 -72 123 -110q79 74 125 110l12 -12q-76 -99 -105 -155zM265 507q71 0 109.5 -37t38.5 -106q0 -23 -2 -122.5t-2 -138.5q0 -35 10.5 -50.5t37.5 -15.5q20 0 42 7l4 -11q-35 -43 -91 -43q-32 0 -52.5 18t-25.5 50 q-63 -68 -149 -68q-58 0 -92.5 30t-34.5 82q0 72 77 118.5t200 49.5q2 104 2 108q0 44 -23.5 67.5t-65.5 23.5q-44 0 -73.5 -27.5t-29.5 -63.5q0 -19 7 -37q-15 -9 -36 -9q-20 0 -32.5 10.5t-12.5 28.5q0 48 61 92t133 44zM135 112q0 -73 79 -73q71 0 120 58q0 93 1 142 q-91 -4 -145.5 -38t-54.5 -89z" />
<glyph unicode="&#x1cf;" horiz-adv-x="353" d="M207 776l-7 -5h-51q-59 61 -119 133l14 11q77 -53 134 -86q82 57 134 86l12 -13q-84 -82 -117 -126zM215 45l83 -24l-2 -21h-239l-2 21l51 14q18 5 25 13t7 24v570l-83 23l2 21h239l2 -21l-51 -13q-19 -6 -25.5 -13.5t-6.5 -23.5v-570z" />
<glyph unicode="&#x1d0;" horiz-adv-x="294" d="M178 576l-7 -5h-56q-39 81 -74 163l14 11q52 -66 91 -107q60 74 92 107l13 -13q-46 -85 -73 -156zM189 40l72 -23l-2 -17h-216l-2 17l44 14q17 6 23 13.5t6 24.5v377l-70 13l-2 14q60 24 137 33l10 -9v-457z" />
<glyph unicode="&#x1d1;" horiz-adv-x="676" d="M374 776l-7 -5h-52q-71 75 -119 133l15 11q71 -50 133 -86q77 53 134 86l13 -13q-85 -81 -117 -126zM58 344q0 162 80.5 257t205.5 95q122 0 198 -93.5t76 -253.5q0 -163 -77.5 -261t-203.5 -98q-127 0 -203 95t-76 259zM139 344q0 -144 54.5 -229t146.5 -85 q91 0 144 87.5t53 231.5q0 140 -52.5 223.5t-140.5 83.5q-93 0 -148.5 -84.5t-56.5 -227.5z" />
<glyph unicode="&#x1d2;" horiz-adv-x="515" d="M295 588l-7 -5h-55q-57 79 -107 162l14 10q76 -72 124 -110q71 69 124 110l13 -12q-75 -96 -106 -155zM465 250q0 -120 -59 -189.5t-151 -70.5q-91 -1 -148 69t-57 192q0 118 62.5 186.5t151.5 68.5q87 0 144 -68t57 -188zM129 249q0 -103 33.5 -162.5t92.5 -59.5 q131 0 131 219q0 105 -33 164t-91 59q-62 0 -97.5 -55t-35.5 -165z" />
<glyph unicode="&#x1d3;" horiz-adv-x="663" d="M388 776l-7 -5h-51q-59 61 -119 133l14 11q77 -53 134 -86q82 57 134 86l12 -13q-84 -82 -117 -126zM101 226v416l-83 23l2 21h239l2 -21l-51 -13q-19 -6 -25.5 -13.5t-6.5 -23.5v-392q0 -91 48 -141.5t123 -50.5t123 50t48 142v419l-83 23l2 21h202l2 -21l-82 -23v-416 q0 -115 -62.5 -175.5t-166.5 -60.5q-103 0 -167 61.5t-64 174.5z" />
<glyph unicode="&#x1d4;" horiz-adv-x="606" d="M335 588l-7 -5h-54q-45 60 -108 162l15 10q69 -67 123 -110q65 63 124 110l13 -12q-68 -88 -106 -155zM109 156v290l-69 13l-2 14q61 24 137 33l9 -9v-335q0 -123 108 -123q66 0 122 56v351l-69 13l-2 14q61 24 137 33l9 -9v-383q0 -41 11.5 -59t37.5 -18q19 0 43 7 l4 -11q-36 -43 -92 -43q-64 0 -77 66q-63 -66 -152 -66q-74 0 -114.5 43t-40.5 123z" />
<glyph unicode="&#x1d5;" horiz-adv-x="663" d="M208 1017v50h279v-50h-279zM501 847q0 -24 -14.5 -41t-39.5 -17q-22 0 -35 13.5t-13 33.5q0 23 16 40t39 17q21 0 34 -13t13 -33zM298 847q0 -24 -14.5 -41t-39.5 -17q-21 0 -34.5 13.5t-13.5 33.5q0 23 16 40t39 17q21 0 34 -12.5t13 -33.5zM101 226v416l-83 23l2 21 h239l2 -21l-51 -13q-19 -6 -25.5 -13.5t-6.5 -23.5v-392q0 -91 48 -141.5t123 -50.5t123 50t48 142v419l-83 23l2 21h202l2 -21l-82 -23v-416q0 -115 -62.5 -175.5t-166.5 -60.5q-103 0 -167 61.5t-64 174.5z" />
<glyph unicode="&#x1d6;" horiz-adv-x="606" d="M162 868v46h279v-46h-279zM451 672q0 -25 -14 -43t-38 -18q-20 0 -32.5 15t-12.5 36q0 24 15.5 42t37.5 18q19 0 31.5 -14t12.5 -36zM248 672q0 -25 -14 -43t-37 -18q-20 0 -32.5 14.5t-12.5 36.5q0 24 15 42t37 18q19 0 31.5 -14t12.5 -36zM109 156v290l-69 13l-2 14 q61 24 137 33l9 -9v-335q0 -123 108 -123q66 0 122 56v351l-69 13l-2 14q61 24 137 33l9 -9v-383q0 -41 11.5 -59t37.5 -18q19 0 43 7l4 -11q-36 -43 -92 -43q-64 0 -77 66q-63 -66 -152 -66q-74 0 -114.5 43t-40.5 123z" />
<glyph unicode="&#x1d7;" horiz-adv-x="663" d="M436 1110l9 1q35 -12 35 -39q0 -35 -84 -61.5t-164 -31.5l-7 16q116 40 211 115zM501 847q0 -24 -14.5 -41t-39.5 -17q-22 0 -35 13.5t-13 33.5q0 23 16 40t39 17q21 0 34 -13t13 -33zM298 847q0 -24 -14.5 -41t-39.5 -17q-21 0 -34.5 13.5t-13.5 33.5q0 23 16 40t39 17 q21 0 34 -12.5t13 -33.5zM101 226v416l-83 23l2 21h239l2 -21l-51 -13q-19 -6 -25.5 -13.5t-6.5 -23.5v-392q0 -91 48 -141.5t123 -50.5t123 50t48 142v419l-83 23l2 21h202l2 -21l-82 -23v-416q0 -115 -62.5 -175.5t-166.5 -60.5q-103 0 -167 61.5t-64 174.5z" />
<glyph unicode="&#x1d8;" horiz-adv-x="606" d="M414 952q0 -27 -52 -69t-124 -82l-12 13q87 99 122 166l7 3h11q48 0 48 -31zM451 672q0 -25 -14 -43t-38 -18q-20 0 -32.5 15t-12.5 36q0 24 15.5 42t37.5 18q19 0 31.5 -14t12.5 -36zM248 672q0 -25 -14 -43t-37 -18q-20 0 -32.5 14.5t-12.5 36.5q0 24 15 42t37 18 q19 0 31.5 -14t12.5 -36zM109 156v290l-69 13l-2 14q61 24 137 33l9 -9v-335q0 -123 108 -123q66 0 122 56v351l-69 13l-2 14q61 24 137 33l9 -9v-383q0 -41 11.5 -59t37.5 -18q19 0 43 7l4 -11q-36 -43 -92 -43q-64 0 -77 66q-63 -66 -152 -66q-74 0 -114.5 43t-40.5 123z " />
<glyph unicode="&#x1d9;" horiz-adv-x="663" d="M382 979l-7 -5h-52q-71 75 -119 133l15 10q78 -54 133 -85q88 59 134 85l13 -12q-81 -77 -117 -126zM501 847q0 -24 -14.5 -41t-39.5 -17q-22 0 -35 13.5t-13 33.5q0 23 16 40t39 17q21 0 34 -13t13 -33zM298 847q0 -24 -14.5 -41t-39.5 -17q-21 0 -34.5 13.5t-13.5 33.5 q0 23 16 40t39 17q21 0 34 -12.5t13 -33.5zM101 226v416l-83 23l2 21h239l2 -21l-51 -13q-19 -6 -25.5 -13.5t-6.5 -23.5v-392q0 -91 48 -141.5t123 -50.5t123 50t48 142v419l-83 23l2 21h202l2 -21l-82 -23v-416q0 -115 -62.5 -175.5t-166.5 -60.5q-103 0 -167 61.5 t-64 174.5z" />
<glyph unicode="&#x1da;" horiz-adv-x="606" d="M337 813l-7 -5h-54q-45 60 -108 162l15 10q69 -67 123 -110q65 63 124 110l13 -12q-68 -88 -106 -155zM451 672q0 -25 -14 -43t-38 -18q-20 0 -32.5 15t-12.5 36q0 24 15.5 42t37.5 18q19 0 31.5 -14t12.5 -36zM248 672q0 -25 -14 -43t-37 -18q-20 0 -32.5 14.5 t-12.5 36.5q0 24 15 42t37 18q19 0 31.5 -14t12.5 -36zM109 156v290l-69 13l-2 14q61 24 137 33l9 -9v-335q0 -123 108 -123q66 0 122 56v351l-69 13l-2 14q61 24 137 33l9 -9v-383q0 -41 11.5 -59t37.5 -18q19 0 43 7l4 -11q-36 -43 -92 -43q-64 0 -77 66q-63 -66 -152 -66 q-74 0 -114.5 43t-40.5 123z" />
<glyph unicode="&#x1db;" horiz-adv-x="663" d="M474 996l-7 -17q-81 6 -164.5 32.5t-83.5 61.5q0 26 36 39l8 -2q101 -76 211 -114zM501 847q0 -24 -14.5 -41t-39.5 -17q-22 0 -35 13.5t-13 33.5q0 23 16 40t39 17q21 0 34 -13t13 -33zM298 847q0 -24 -14.5 -41t-39.5 -17q-21 0 -34.5 13.5t-13.5 33.5q0 23 16 40 t39 17q21 0 34 -12.5t13 -33.5zM101 226v416l-83 23l2 21h239l2 -21l-51 -13q-19 -6 -25.5 -13.5t-6.5 -23.5v-392q0 -91 48 -141.5t123 -50.5t123 50t48 142v419l-83 23l2 21h202l2 -21l-82 -23v-416q0 -115 -62.5 -175.5t-166.5 -60.5q-103 0 -167 61.5t-64 174.5z" />
<glyph unicode="&#x1dc;" horiz-adv-x="606" d="M386 814l-12 -13q-72 40 -124 82t-52 69q0 31 48 31h11l7 -3q35 -67 122 -166zM451 672q0 -25 -14 -43t-38 -18q-20 0 -32.5 15t-12.5 36q0 24 15.5 42t37.5 18q19 0 31.5 -14t12.5 -36zM248 672q0 -25 -14 -43t-37 -18q-20 0 -32.5 14.5t-12.5 36.5q0 24 15 42t37 18 q19 0 31.5 -14t12.5 -36zM109 156v290l-69 13l-2 14q61 24 137 33l9 -9v-335q0 -123 108 -123q66 0 122 56v351l-69 13l-2 14q61 24 137 33l9 -9v-383q0 -41 11.5 -59t37.5 -18q19 0 43 7l4 -11q-36 -43 -92 -43q-64 0 -77 66q-63 -66 -152 -66q-74 0 -114.5 43t-40.5 123z " />
<glyph unicode="&#x1e6;" horiz-adv-x="699" d="M423 776l-7 -5h-52q-71 75 -119 133l15 11q71 -50 133 -86q77 53 134 86l13 -13q-85 -81 -117 -126zM396 -10q-156 0 -247 94t-91 257q0 161 98 258t245 97q102 0 172 -30q5 -27 5 -57q0 -54 -9 -108l-19 -1q-5 9 -26.5 73t-26.5 71q-37 11 -93 11q-112 0 -188.5 -86.5 t-76.5 -226.5q0 -141 72.5 -226t189.5 -85q55 0 102 13v231l-83 24l2 21h232l2 -21l-51 -14q-16 -4 -21.5 -11.5t-5.5 -24.5v-228q-77 -31 -182 -31z" />
<glyph unicode="&#x1e7;" horiz-adv-x="488" d="M276 588l-7 -5h-55q-57 79 -107 162l14 10q76 -72 124 -110q71 69 124 110l12 -12q-76 -99 -105 -155zM65 317q0 82 51 135.5t130 53.5q57 0 98 -30q22 23 53.5 39.5t49.5 16.5q23 0 23 -32q0 -18 -3 -27q-3 -14 -23 -14q-53 0 -78 -3q44 -47 44 -123q0 -83 -48 -134 t-127 -51q-20 0 -42 5q-20 -25 -20 -50q0 -21 12 -31t40 -12l89 -8q72 -7 111.5 -42.5t39.5 -94.5q0 -75 -66.5 -123t-171.5 -48q-86 0 -139 35t-53 92q0 63 71 99l11 -9q-17 -31 -17 -57q1 -57 42 -90t110 -33q68 0 110 30.5t42 78.5q0 39 -26.5 62.5t-75.5 28.5l-96 10 q-44 5 -67 27t-23 55q0 51 49 89q-46 18 -73 59.5t-27 95.5zM333 323q0 147 -92 147q-45 0 -72 -37t-27 -102q0 -67 25.5 -106.5t69.5 -40.5q46 0 71 36t25 103z" />
<glyph unicode="&#x1ea;" horiz-adv-x="676" d="M58 344q0 162 80.5 257t205.5 95q122 0 198 -93.5t76 -254.5q0 -131 -51 -221.5t-140 -121.5q-114 -66 -114 -132q0 -50 58 -50q24 0 48 6l4 -10q-35 -43 -94 -43q-37 0 -59.5 20.5t-22.5 58.5q0 72 112 136q-7 -1 -22 -1q-127 0 -203 95t-76 259zM139 344 q0 -144 54.5 -229t146.5 -85q91 0 144 87.5t53 231.5q0 140 -52.5 223.5t-140.5 83.5q-93 0 -148.5 -84.5t-56.5 -227.5z" />
<glyph unicode="&#x1eb;" horiz-adv-x="515" d="M357 -181q-35 -43 -91 -43q-37 0 -61 20.5t-24 56.5q0 74 119 142q-25 -5 -45 -5q-91 -1 -148 69t-57 192q0 118 62.5 186.5t151.5 68.5q87 0 144 -68t57 -188q0 -129 -68 -200q-20 -22 -63 -59t-65 -64.5t-22 -56.5q0 -47 58 -47q26 0 48 6zM129 249q0 -103 33.5 -162.5 t92.5 -59.5q131 0 131 219q0 105 -33 164t-91 59q-62 0 -97.5 -55t-35.5 -165z" />
<glyph unicode="&#x1f4;" horiz-adv-x="699" d="M477 907l9 1q35 -12 35 -38q0 -35 -84 -62t-164 -32l-7 17q110 37 211 114zM396 -10q-156 0 -247 94t-91 257q0 161 98 258t245 97q102 0 172 -30q5 -27 5 -57q0 -54 -9 -108l-19 -1q-5 9 -26.5 73t-26.5 71q-37 11 -93 11q-112 0 -188.5 -86.5t-76.5 -226.5 q0 -141 72.5 -226t189.5 -85q55 0 102 13v231l-83 24l2 21h232l2 -21l-51 -14q-16 -4 -21.5 -11.5t-5.5 -24.5v-228q-77 -31 -182 -31z" />
<glyph unicode="&#x1f5;" horiz-adv-x="488" d="M356 727q0 -27 -52 -69t-124 -82l-11 13q87 101 121 166l7 3h11q48 0 48 -31zM65 317q0 82 51 135.5t130 53.5q57 0 98 -30q22 23 53.5 39.5t49.5 16.5q23 0 23 -32q0 -18 -3 -27q-3 -14 -23 -14q-53 0 -78 -3q44 -47 44 -123q0 -83 -48 -134t-127 -51q-20 0 -42 5 q-20 -25 -20 -50q0 -21 12 -31t40 -12l89 -8q72 -7 111.5 -42.5t39.5 -94.5q0 -75 -66.5 -123t-171.5 -48q-86 0 -139 35t-53 92q0 63 71 99l11 -9q-17 -31 -17 -57q1 -57 42 -90t110 -33q68 0 110 30.5t42 78.5q0 39 -26.5 62.5t-75.5 28.5l-96 10q-44 5 -67 27t-23 55 q0 51 49 89q-46 18 -73 59.5t-27 95.5zM333 323q0 147 -92 147q-45 0 -72 -37t-27 -102q0 -67 25.5 -106.5t69.5 -40.5q46 0 71 36t25 103z" />
<glyph unicode="&#x1fa;" horiz-adv-x="712" d="M448 1112l9 1q35 -12 35 -38q0 -35 -84 -62t-164 -32l-6 17q110 37 210 114zM354 766q-38 0 -61 20.5t-23 54.5q0 36 25.5 58.5t65.5 22.5q37 0 61 -21t23 -54q-2 -35 -27.5 -58t-63.5 -23zM358 895q-21 0 -33.5 -15t-12.5 -38q0 -22 12.5 -35.5t32.5 -13.5t33 15.5 t13 39.5q0 20 -13 33.5t-32 13.5zM333 686h47l216 -611q7 -19 15 -27t24 -13l51 -14l-2 -21h-243l-2 21l83 22l-68 198l-239 -4l-67 -193l83 -23l-2 -21h-201l-2 21q3 2 28 8.5t26 7.5q28 10 37 38zM228 275h215l-108 313z" />
<glyph unicode="&#x1fb;" horiz-adv-x="516" d="M353 952q0 -27 -52 -69t-124 -82l-12 13q87 99 122 166l7 3h11q48 0 48 -31zM251 589q-38 0 -61 20.5t-23 54.5q0 36 25.5 58.5t65.5 22.5q37 0 61 -21t23 -54q-2 -35 -27.5 -58t-63.5 -23zM255 718q-21 0 -33.5 -15t-12.5 -38q0 -22 12.5 -35.5t32.5 -13.5t33 15.5 t13 39.5q0 20 -13 33.5t-32 13.5zM265 507q71 0 109.5 -37t38.5 -106q0 -23 -2 -122.5t-2 -138.5q0 -35 10.5 -50.5t37.5 -15.5q20 0 42 7l4 -11q-35 -43 -91 -43q-32 0 -52.5 18t-25.5 50q-63 -68 -149 -68q-58 0 -92.5 30t-34.5 82q0 72 77 118.5t200 49.5q2 104 2 108 q0 44 -23.5 67.5t-65.5 23.5q-44 0 -73.5 -27.5t-29.5 -63.5q0 -19 7 -37q-15 -9 -36 -9q-20 0 -32.5 10.5t-12.5 28.5q0 48 61 92t133 44zM135 112q0 -73 79 -73q71 0 120 58q0 93 1 142q-91 -4 -145.5 -38t-54.5 -89z" />
<glyph unicode="&#x1fc;" horiz-adv-x="896" d="M618 907l9 1q35 -12 35 -38q0 -35 -84 -62t-164 -32l-6 17q110 37 210 114zM28 0l-2 21q3 2 28 8.5t26 7.5q28 10 37 38l200 567l-83 23l2 21h585q7 -46 7 -94q0 -47 -6 -89h-19l-23 71q-1 3 -12.5 35.5t-13.5 35.5q-42 5 -100 5h-124v-289l212 7l-2 -47l-210 5v-290h134 q58 0 100 5q2 3 13.5 36t12.5 36l23 71h19q6 -41 6 -90q0 -48 -7 -94h-459l-2 21l51 14q18 5 25 13t7 24v254l-209 -3l-96 -279l83 -23l-2 -21h-201zM453 650h-97l-99 -290h196v290z" />
<glyph unicode="&#x1fd;" horiz-adv-x="756" d="M511 727q0 -27 -52 -69t-124 -82l-12 13q87 99 122 166l6 3h12q48 0 48 -31zM337 378q0 44 -23.5 67.5t-65.5 23.5q-44 0 -73.5 -27.5t-29.5 -63.5q0 -19 7 -37q-15 -9 -36 -9q-20 0 -32.5 10.5t-12.5 28.5q0 47 60 91t131 44q102 0 132 -76q60 76 154 76q74 0 119.5 -50 t45.5 -135q0 -19 -2 -53l-10 -12h-292q2 -100 44.5 -155.5t116.5 -55.5t131 49l12 -10q-25 -43 -69 -68.5t-100 -25.5q-118 0 -175 98q-76 -98 -183 -98q-59 0 -93.5 30t-34.5 82q0 72 77 118.5t200 49.5q2 92 2 108zM540 469q-56 0 -91 -50.5t-39 -131.5l225 6q0 7 0.5 19 t0.5 17q0 140 -96 140zM135 112q0 -73 80 -73q78 0 139 81q-20 51 -20 116v3q-90 -4 -144.5 -38.5t-54.5 -88.5z" />
<glyph unicode="&#x1fe;" horiz-adv-x="676" d="M426 907l8 1q35 -12 35 -38q0 -35 -84 -62t-164 -32l-6 17q107 36 211 114zM58 344q0 162 80.5 257t205.5 95q117 0 190 -84l52 63l31 -25l-58 -70q59 -94 59 -231q0 -163 -77.5 -261t-203.5 -98q-121 0 -195 85l-52 -63l-30 26l57 70q-59 92 -59 236zM139 344 q0 -101 28 -176l325 393q-53 95 -148 95q-93 0 -148.5 -84.5t-56.5 -227.5zM537 349q0 96 -27 172l-325 -393q56 -98 155 -98q91 0 144 87.5t53 231.5z" />
<glyph unicode="&#x1ff;" horiz-adv-x="515" d="M370 727q0 -27 -51.5 -69t-123.5 -82l-12 13q89 104 122 166l6 3h12q47 0 47 -31zM465 250q0 -120 -59 -189.5t-151 -70.5q-91 0 -148 68l-47 -50l-28 28l53 57q-35 65 -35 158q0 118 62.5 186.5t151.5 68.5q88 0 144 -67l45 49l30 -28l-53 -56q35 -64 35 -154zM129 249 q0 -58 10 -99l224 240q-33 79 -101 79q-62 0 -97.5 -55t-35.5 -165zM386 246q0 59 -10 100l-224 -240q35 -79 103 -79q131 0 131 219z" />
<glyph unicode="&#x218;" horiz-adv-x="502" d="M229 -10q-58 0 -107.5 11t-59.5 25q-12 16 -12 60q0 55 15 97l19 -1q16 -94 43 -122q30 -31 112 -31q61 0 97.5 34t36.5 84q0 49 -32.5 87.5t-78.5 65t-92 54.5t-78.5 71t-32.5 99q0 80 62.5 126t155.5 46q53 0 95.5 -11.5t55.5 -25.5q8 -9 8 -47q0 -56 -15 -108h-19 q-13 90 -38 120q-31 34 -96 34q-57 0 -93.5 -33t-36.5 -87q0 -48 32.5 -85.5t78.5 -64t92 -54.5t78.5 -71.5t32.5 -100.5q0 -80 -60 -126t-163 -46zM300 -164q0 -44 -27.5 -93t-63.5 -73l-11 9q27 43 39 108q-18 3 -29.5 16t-11.5 32q0 23 15.5 39.5t37.5 16.5q23 0 37 -15 t14 -40z" />
<glyph unicode="&#x219;" horiz-adv-x="424" d="M192 -10q-42 0 -81.5 8.5t-49.5 19.5q-11 13 -11 53q0 47 15 84l15 -1q9 -76 36 -104q23 -23 82 -23q46 0 72.5 22t26.5 59q0 34 -24.5 59.5t-60 43t-71 36.5t-60 50.5t-24.5 74.5q0 60 50.5 97t125.5 37q40 0 75.5 -8t44.5 -19q8 -7 8 -45q0 -51 -14 -90l-15 1 q-9 81 -32 101q-28 23 -72 23q-43 0 -68.5 -22.5t-25.5 -61.5q0 -34 24.5 -59.5t60 -43t71 -36.5t60 -50t24.5 -72q0 -61 -50 -97.5t-132 -36.5zM260 -164q0 -44 -28 -93t-63 -73l-11 9q27 43 39 108q-41 7 -41 48q0 23 15.5 39.5t37.5 16.5q23 0 37 -15t14 -40z" />
<glyph unicode="&#x21a;" horiz-adv-x="605" d="M342 45l82 -24l-2 -21h-239l-2 21l51 14q19 5 25.5 13t6.5 24v577h-60q-57 0 -106 -9q-18 -48 -27 -86l-16 -51h-19q-6 43 -6 89q0 48 7 94h531q7 -36 7 -94q0 -46 -6 -89h-19l-16 51q-9 38 -27 86q-49 9 -106 9h-59v-604zM350 -164q0 -44 -28 -93t-63 -73l-12 9 q28 41 40 108q-41 7 -41 48q0 23 15.5 39.5t37.5 16.5q23 0 37 -15t14 -40z" />
<glyph unicode="&#x21b;" horiz-adv-x="408" d="M382 84q-26 -42 -65.5 -68t-86.5 -26q-59 0 -90 38t-31 110v315h-82l-2 17l84 24l55 146l20 -2v-150h170v-35h-170v-298q0 -110 77 -110q54 0 108 49zM280 -164q0 -44 -27.5 -93t-62.5 -73l-12 9q28 41 40 108q-41 7 -41 48q0 23 15 39.5t37 16.5q24 0 37.5 -14.5 t13.5 -40.5z" />
<glyph unicode="&#x232;" horiz-adv-x="679" d="M216 817v50h279v-50h-279zM378 45l82 -24l-2 -21h-238l-2 21l51 14q18 5 24.5 13t6.5 24v203l-182 336q-11 20 -19.5 29t-23.5 13l-49 12l2 21h244l2 -21l-83 -22l169 -331l169 332l-82 21l2 21h202l2 -21q-2 -1 -15.5 -4.5t-25.5 -7t-13 -4.5q-24 -7 -40 -38l-181 -338 v-228z" />
<glyph unicode="&#x233;" horiz-adv-x="553" d="M151 643v46h279v-46h-279zM28 496h221l2 -17l-74 -22l123 -375l124 375l-75 22l2 17h182l2 -17q-5 -1 -24.5 -7.5t-21.5 -8.5q-26 -9 -36 -39l-152 -437q-43 -124 -88.5 -183.5t-109.5 -59.5q-31 0 -52 17t-21 42q0 24 14 36l6 3q29 -31 64 -31q48 0 89.5 51t67.5 132 l-14 -7l-151 437q-11 29 -34 39q-1 1 -11 4.5t-21.5 7t-13.5 4.5z" />
<glyph unicode="&#x237;" horiz-adv-x="275" d="M23 -241q44 62 63.5 115.5t19.5 147.5v424l-69 13l-2 14q61 24 137 33l9 -9v-507q0 -90 -35.5 -144.5t-107.5 -101.5z" />
<glyph unicode="&#x259;" horiz-adv-x="478" d="M224 -10q-78 0 -126 50.5t-48 135.5q0 21 2 55l10 12h292q-1 108 -35 167t-94 59q-44 0 -71 -25.5t-27 -65.5q0 -17 6 -35q-17 -10 -37 -10q-18 0 -29 10t-11 28q0 54 52 94.5t122 40.5q92 0 147 -66.5t55 -179.5q0 -119 -59 -194.5t-149 -75.5zM127 168q0 -141 102 -141 q53 0 86.5 51t37.5 133l-225 -5q-1 -14 -1 -38z" />
<glyph unicode="&#x272;" horiz-adv-x="588" d="M483 40l72 -23l-2 -17h-216l-2 17l44 14q17 6 23 13.5t6 24.5v280q0 108 -96 108q-67 0 -131 -53v-414q0 -90 -35.5 -144.5t-107.5 -101.5l-15 15q44 62 63.5 115.5t19.5 147.5v424l-69 13l-2 14q61 24 137 33l9 -9v-56q76 65 161 65q68 0 104.5 -39t36.5 -112v-315z" />
<glyph unicode="&#x2c6;" horiz-adv-x="458" d="M366 591l-14 -10q-76 72 -124 110q-71 -69 -124 -110l-12 13q74 98 105 154l7 5h55q57 -79 107 -162z" />
<glyph unicode="&#x2c7;" horiz-adv-x="458" d="M261 588l-7 -5h-55q-57 79 -107 162l14 10q76 -72 124 -110q71 69 124 110l12 -12q-76 -99 -105 -155z" />
<glyph unicode="&#x2d8;" horiz-adv-x="436" d="M325 735l4 2l15 -4q-10 -63 -45 -99t-85 -36t-83 36.5t-39 99.5l18 3q11 -37 39.5 -58.5t70.5 -21.5q37 0 65 20.5t40 57.5z" />
<glyph unicode="&#x2d9;" horiz-adv-x="287" d="M195 668q0 -26 -15 -44t-40 -18q-21 0 -34.5 15.5t-13.5 38.5q0 24 16 42.5t40 18.5q21 0 34 -14.5t13 -38.5z" />
<glyph unicode="&#x2da;" horiz-adv-x="357" d="M175 589q-37 0 -60 20.5t-23 54.5q0 36 25.5 58.5t64.5 22.5q38 0 61.5 -21t22.5 -54q-2 -35 -27.5 -58t-63.5 -23zM179 718q-20 0 -33 -15t-13 -38q0 -22 12.5 -35.5t32.5 -13.5t33 15.5t13 39.5q0 20 -13 33.5t-32 13.5z" />
<glyph unicode="&#x2db;" horiz-adv-x="366" d="M268 -181q-35 -43 -94 -43q-38 0 -60 21.5t-22 59.5q0 97 171 159l8 -16q-113 -57 -113 -127q0 -50 56 -50q26 0 50 6z" />
<glyph unicode="&#x2dc;" horiz-adv-x="519" d="M108 609l-16 5v7q13 106 82 106q29 0 102.5 -27.5t87.5 -29.5q39 51 47 64l16 -6v-9q-14 -103 -81 -103q-29 0 -104.5 27.5t-86.5 29.5q-29 -33 -47 -64z" />
<glyph unicode="&#x2dd;" horiz-adv-x="504" d="M268 727q0 -27 -48.5 -68.5t-116.5 -82.5l-11 13q84 98 120 166l6 3h12q38 0 38 -31zM413 727q0 -27 -48.5 -68.5t-116.5 -82.5l-11 13q88 102 120 166l6 3h12q38 0 38 -31z" />
<glyph unicode="&#x326;" horiz-adv-x="289" d="M198 -164q0 -44 -28 -93t-63 -73l-11 9q27 43 39 108q-41 7 -41 48q0 23 15.5 39.5t37.5 16.5q23 0 37 -15t14 -40z" />
<glyph unicode="&#x394;" horiz-adv-x="601" d="M277 686h47l251 -669l-2 -17h-545l-2 17zM484 39l-204 549l-204 -549h408z" />
<glyph unicode="&#x3bc;" horiz-adv-x="603" d="M181 -230q0 -4 -1 -7t-4 -5.5t-5.5 -4t-7.5 -3t-9 -2.5t-11 -1.5t-11.5 -1t-12.5 -1t-13 -0.5l-7 7q1 107 4 340.5t5 377.5q0 27 16 31q30 6 59 6l7 -7q-9 -110 -9 -323q0 -127 109 -127q68 0 122 56q-1 50 -1 139q0 41 1 117.5t1 107.5q0 27 16 31q30 6 59 6l7 -7 q-9 -110 -9 -255q0 -72 1.5 -109t8 -61t16 -30.5t28.5 -6.5t38 7l4 -11q-36 -43 -92 -43q-33 0 -54 21t-23 54q-54 -75 -134 -75q-79 0 -111 70l-4 -1l5 -101q12 -180 12 -188z" />
<glyph unicode="&#x3c0;" horiz-adv-x="636" d="M206 47q-8 -32 -19 -44.5t-31 -12.5q-19 0 -33 5l-8 8q58 141 81 438h-75q-30 0 -45 -13t-30 -48l-20 2q13 82 27 123q46 5 119 5q30 0 182 -6t175 -5q27 0 39 7.5t22 28.5l20 -2q-18 -75 -31 -108q-34 3 -112 7q-10 -142 -10 -201q0 -101 18 -147.5t59 -46.5q12 0 42 10 l4 -10q-35 -47 -86 -47q-54 0 -75 52t-21 155q0 95 11 238q-122 4 -158 5q-15 -268 -45 -393z" />
<glyph unicode="&#x1e0c;" horiz-adv-x="689" d="M631 343q0 -160 -90.5 -251.5t-247.5 -91.5h-236l-2 21l51 14q18 5 25 13t7 24v552q0 10 -4 14.5t-17 7.5l-62 19l2 21h236q157 0 247.5 -91.5t90.5 -251.5zM289 649h-74v-611h74q126 0 193.5 80.5t67.5 224.5t-68 225t-193 81zM402 -162q0 -26 -15 -44t-40 -18 q-21 0 -35 15.5t-14 38.5q0 24 16.5 42.5t40.5 18.5q21 0 34 -15t13 -38z" />
<glyph unicode="&#x1e0d;" horiz-adv-x="562" d="M549 33q-34 -43 -91 -43q-66 0 -77 67q-57 -67 -144 -67q-84 0 -135.5 64.5t-51.5 181.5q0 124 68.5 197t168.5 73q45 0 92 -13v203l-89 13l-2 14q58 23 156 33l10 -9v-633q0 -41 11 -59t39 -18q20 0 41 7zM129 244q0 -98 36.5 -152t96.5 -54q67 0 117 58v346 q-39 27 -90 27q-72 0 -116 -58.5t-44 -166.5zM327 -162q0 -26 -15 -44t-40 -18q-21 0 -35 15.5t-14 38.5q0 24 16.5 42.5t40.5 18.5q21 0 34 -15t13 -38z" />
<glyph unicode="&#x1e24;" horiz-adv-x="765" d="M215 45l83 -24l-2 -21h-239l-2 21l51 14q18 5 25 13t7 24v570l-83 23l2 21h239l2 -21l-51 -13q-19 -6 -25.5 -13.5t-6.5 -23.5v-247h335v274l-83 23l2 21h239l2 -21l-51 -13q-18 -6 -24.5 -13.5t-6.5 -23.5v-570l82 -24l-2 -21h-239l-2 21l51 14q19 5 25.5 13t6.5 24v256 h-335v-283zM432 -162q0 -26 -15 -44t-40 -18q-22 0 -35.5 15.5t-13.5 38.5q0 25 16.5 43t40.5 18q21 0 34 -15t13 -38z" />
<glyph unicode="&#x1e25;" horiz-adv-x="587" d="M181 40l72 -23l-2 -17h-216l-2 17l44 14q17 6 23 13.5t6 24.5v627l-70 13l-2 14q60 24 137 33l10 -9v-306q74 65 160 65q68 0 104.5 -39t36.5 -112v-315l72 -23l-2 -17h-216l-2 17l44 14q17 6 23 13.5t6 24.5v280q0 108 -96 108q-66 0 -130 -53v-364zM342 -162 q0 -26 -15 -44t-40 -18q-21 0 -34.5 15.5t-13.5 38.5q0 24 16 42.5t40 18.5q21 0 34 -14.5t13 -38.5z" />
<glyph unicode="&#x1e44;" horiz-adv-x="739" d="M433 843q0 -25 -16 -42t-43 -17q-24 0 -38 14t-14 36q0 23 17.5 40.5t42.5 17.5q23 0 37 -13.5t14 -35.5zM179 45l102 -24l-2 -21h-222l-2 21l51 14q18 5 25 13t7 24v552q0 20 -30 27l-53 14l2 21h147l372 -575v531l-82 23l2 21h202l2 -21l-51 -13q-18 -6 -24.5 -13.5 t-6.5 -23.5v-615h-57l-382 583v-538z" />
<glyph unicode="&#x1e45;" horiz-adv-x="595" d="M347 668q0 -25 -15 -43.5t-40 -18.5q-21 0 -34.5 15.5t-13.5 38.5q0 24 16 42.5t40 18.5q22 0 34.5 -14.5t12.5 -38.5zM189 40l72 -23l-2 -17h-216l-2 17l44 14q17 6 23 13.5t6 24.5v377l-70 13l-2 14q60 24 137 33l10 -9v-56q74 65 160 65q68 0 104.5 -39t36.5 -112 v-315l72 -23l-2 -17h-216l-2 17l44 14q17 6 23 13.5t6 24.5v280q0 108 -96 108q-68 0 -130 -53v-364z" />
<glyph unicode="&#x1e5a;" horiz-adv-x="661" d="M215 45l83 -24l-2 -21h-239l-2 21l51 14q18 5 25 13t7 24v552q0 10 -4 14.5t-17 7.5l-62 19l2 21h246q105 0 172 -51t67 -139q0 -67 -36.5 -113t-95.5 -68l96 -177q26 -47 47.5 -69.5t56.5 -38.5l25 -10l-2 -20l-74 -1q-39 -1 -61.5 15t-41.5 53l-122 231q-21 -3 -34 -3 h-85v-250zM289 646h-74v-312h74q81 0 126 41t45 118q0 73 -45 113t-126 40zM416 -162q0 -26 -14.5 -44t-39.5 -18q-22 0 -35.5 15.5t-13.5 38.5q0 25 16.5 43t40.5 18q21 0 33.5 -15t12.5 -38z" />
<glyph unicode="&#x1e5b;" horiz-adv-x="406" d="M189 40l92 -23l-2 -17h-236l-2 17l44 14q17 6 23 13.5t6 24.5v377l-70 13l-2 14q60 24 137 33l10 -9v-74q64 83 131 83q31 0 49.5 -15.5t18.5 -38.5q0 -28 -27 -52q-1 0 -4.5 -1t-4.5 -1q-31 43 -73 45q-23 0 -48 -19t-42 -43v-341zM205 -162q0 -26 -15 -44t-40 -18 q-22 0 -35.5 15.5t-13.5 38.5q0 25 16.5 43t40.5 18q21 0 34 -15t13 -38z" />
<glyph unicode="&#x1e62;" horiz-adv-x="502" d="M229 -10q-58 0 -107.5 11t-59.5 25q-12 16 -12 60q0 55 15 97l19 -1q16 -94 43 -122q30 -31 112 -31q61 0 97.5 34t36.5 84q0 49 -32.5 87.5t-78.5 65t-92 54.5t-78.5 71t-32.5 99q0 80 62.5 126t155.5 46q53 0 95.5 -11.5t55.5 -25.5q8 -9 8 -47q0 -56 -15 -108h-19 q-13 90 -38 120q-31 34 -96 34q-57 0 -93.5 -33t-36.5 -87q0 -48 32.5 -85.5t78.5 -64t92 -54.5t78.5 -71.5t32.5 -100.5q0 -80 -60 -126t-163 -46zM301 -162q0 -26 -15 -44t-40 -18q-22 0 -35.5 15.5t-13.5 38.5q0 25 16.5 43t40.5 18q21 0 34 -15t13 -38z" />
<glyph unicode="&#x1e63;" horiz-adv-x="424" d="M192 -10q-42 0 -81.5 8.5t-49.5 19.5q-11 13 -11 53q0 47 15 84l15 -1q9 -76 36 -104q23 -23 82 -23q46 0 72.5 22t26.5 59q0 34 -24.5 59.5t-60 43t-71 36.5t-60 50.5t-24.5 74.5q0 60 50.5 97t125.5 37q40 0 75.5 -8t44.5 -19q8 -7 8 -45q0 -51 -14 -90l-15 1 q-9 81 -32 101q-28 23 -72 23q-43 0 -68.5 -22.5t-25.5 -61.5q0 -34 24.5 -59.5t60 -43t71 -36.5t60 -50t24.5 -72q0 -61 -50 -97.5t-132 -36.5zM260 -162q0 -26 -14.5 -44t-39.5 -18q-22 0 -35.5 15.5t-13.5 38.5q0 25 16.5 43t40.5 18q21 0 33.5 -15t12.5 -38z" />
<glyph unicode="&#x1e6c;" horiz-adv-x="605" d="M342 45l82 -24l-2 -21h-239l-2 21l51 14q19 5 25.5 13t6.5 24v577h-60q-57 0 -106 -9q-18 -48 -27 -86l-16 -51h-19q-6 43 -6 89q0 48 7 94h531q7 -36 7 -94q0 -46 -6 -89h-19l-16 51q-9 38 -27 86q-49 9 -106 9h-59v-604zM350 -162q0 -26 -14.5 -44t-39.5 -18 q-22 0 -35.5 15.5t-13.5 38.5q0 25 16.5 43t40.5 18q21 0 33.5 -15t12.5 -38z" />
<glyph unicode="&#x1e6d;" horiz-adv-x="408" d="M382 84q-26 -42 -65.5 -68t-86.5 -26q-59 0 -90 38t-31 110v315h-82l-2 17l84 24l55 146l20 -2v-150h170v-35h-170v-298q0 -110 77 -110q54 0 108 49zM281 -162q0 -26 -15 -44t-40 -18q-21 0 -34.5 15.5t-13.5 38.5q0 24 16 42.5t40 18.5q21 0 34 -14.5t13 -38.5z" />
<glyph unicode="&#x1e80;" horiz-adv-x="1059" d="M647 794l-6 -17q-80 5 -164 32t-84 62q0 26 35 38l8 -1q98 -76 211 -114zM371 0h-47l-207 611q-11 32 -40 40l-51 14l2 21h243l2 -21l-83 -21l178 -545l141 429l-28 83q-6 19 -13.5 27.5t-23.5 12.5l-51 14l2 21h241l2 -21l-83 -21l177 -544l179 544l-83 21l2 21h201 l2 -21q-2 -1 -27 -7.5t-27 -7.5q-26 -8 -37 -39l-207 -611h-47l-158 468z" />
<glyph unicode="&#x1e81;" horiz-adv-x="828" d="M509 590l-12 -13q-71 39 -123.5 81.5t-52.5 69.5q0 31 48 31h12l6 -4q34 -65 122 -165zM455 496l143 -410l101 371l-75 22l2 17h182l2 -17q-40 -10 -46 -16q-28 -10 -36 -39l-123 -424h-54l-138 392l-138 -392h-53l-124 424q-8 30 -34 39q-6 6 -46 16l2 17h221l2 -17 l-74 -22l102 -371l141 410h43z" />
<glyph unicode="&#x1e82;" horiz-adv-x="1059" d="M626 907l9 1q35 -12 35 -38q0 -35 -84 -62t-164 -32l-7 17q110 37 211 114zM371 0h-47l-207 611q-11 32 -40 40l-51 14l2 21h243l2 -21l-83 -21l178 -545l141 429l-28 83q-6 19 -13.5 27.5t-23.5 12.5l-51 14l2 21h241l2 -21l-83 -21l177 -544l179 544l-83 21l2 21h201 l2 -21q-2 -1 -27 -7.5t-27 -7.5q-26 -8 -37 -39l-207 -611h-47l-158 468z" />
<glyph unicode="&#x1e83;" horiz-adv-x="828" d="M547 728q0 -27 -52.5 -70t-123.5 -81l-11 13q88 102 121 165l7 4h11q48 0 48 -31zM455 496l143 -410l101 371l-75 22l2 17h182l2 -17q-40 -10 -46 -16q-28 -10 -36 -39l-123 -424h-54l-138 392l-138 -392h-53l-124 424q-8 30 -34 39q-6 6 -46 16l2 17h221l2 -17l-74 -22 l102 -371l141 410h43z" />
<glyph unicode="&#x1e84;" horiz-adv-x="1059" d="M673 847q0 -24 -14.5 -41t-39.5 -17q-21 0 -34.5 13.5t-13.5 33.5q0 23 16 40t39 17q22 0 34.5 -12.5t12.5 -33.5zM470 847q0 -24 -14.5 -41t-39.5 -17q-21 0 -34.5 13.5t-13.5 33.5q0 23 16 40t40 17q21 0 33.5 -13t12.5 -33zM371 0h-47l-207 611q-11 32 -40 40l-51 14 l2 21h243l2 -21l-83 -21l178 -545l141 429l-28 83q-6 19 -13.5 27.5t-23.5 12.5l-51 14l2 21h241l2 -21l-83 -21l177 -544l179 544l-83 21l2 21h201l2 -21q-2 -1 -27 -7.5t-27 -7.5q-26 -8 -37 -39l-207 -611h-47l-158 468z" />
<glyph unicode="&#x1e85;" horiz-adv-x="828" d="M581 673q0 -25 -14 -43t-37 -18q-20 0 -32.5 14.5t-12.5 35.5q0 25 15 43t37 18q19 0 31.5 -14t12.5 -36zM378 673q0 -25 -14 -43t-37 -18q-20 0 -32.5 14.5t-12.5 35.5q0 25 15 43t37 18q20 0 32 -14t12 -36zM455 496l143 -410l101 371l-75 22l2 17h182l2 -17 q-40 -10 -46 -16q-28 -10 -36 -39l-123 -424h-54l-138 392l-138 -392h-53l-124 424q-8 30 -34 39q-6 6 -46 16l2 17h221l2 -17l-74 -22l102 -371l141 410h43z" />
<glyph unicode="&#x1e92;" horiz-adv-x="611" d="M536 0h-464l-6 35l379 615h-195q-58 0 -101 -5l-51 -142h-19q-6 39 -6 82q0 52 7 101h447l7 -35l-380 -615h212q57 0 100 5l52 143h18q6 -39 6 -81q0 -59 -6 -103zM364 -162q0 -26 -15 -44t-40 -18q-21 0 -34.5 15.5t-13.5 38.5q0 24 16 42.5t40 18.5q21 0 34 -14.5 t13 -38.5z" />
<glyph unicode="&#x1e93;" horiz-adv-x="472" d="M421 69q-2 -46 -7 -69h-357l-7 35l289 426h-213l-45 -119h-17q-8 42 -8 88q0 34 6 66h353l7 -35l-290 -426h218l46 120h16q9 -38 9 -86zM292 -162q0 -26 -15 -44t-40 -18q-21 0 -34.5 15.5t-13.5 38.5q0 24 16 42.5t40 18.5q21 0 34 -14.5t13 -38.5z" />
<glyph unicode="&#x1e9e;" horiz-adv-x="718" d="M668 155q0 -75 -53.5 -120t-145.5 -45q-46 0 -86 11t-50 25q-12 17 -12 60q0 54 16 92l18 -1q15 -89 38 -116q26 -32 83 -32q51 0 82.5 31.5t31.5 77.5q0 39 -17 71.5t-52.5 59.5t-71 46t-91.5 44l-3 26l167 210q-59 64 -146 64q-69 0 -115 -47.5t-46 -118.5v-471 l-18 -22h-140l-2 21l51 14q18 5 25 13t7 24v404q0 94 71.5 157t178.5 63q130 0 200 -65l4 -24l-165 -205q54 -26 91 -47.5t74.5 -52t56.5 -67.5t19 -80z" />
<glyph unicode="&#x1ea0;" horiz-adv-x="712" d="M333 686h47l216 -611q7 -19 15 -27t24 -13l51 -14l-2 -21h-243l-2 21l83 22l-68 198l-239 -4l-67 -193l83 -23l-2 -21h-201l-2 21q3 2 28 8.5t26 7.5q28 10 37 38zM228 275h215l-108 313zM386 -162q0 -26 -15 -44t-40 -18q-22 0 -35.5 15.5t-13.5 38.5q0 25 16.5 43 t40.5 18q21 0 34 -15t13 -38z" />
<glyph unicode="&#x1ea1;" horiz-adv-x="516" d="M265 507q71 0 109.5 -37t38.5 -106q0 -23 -2 -122.5t-2 -138.5q0 -35 10.5 -50.5t37.5 -15.5q20 0 42 7l4 -11q-35 -43 -91 -43q-32 0 -52.5 18t-25.5 50q-63 -68 -149 -68q-58 0 -92.5 30t-34.5 82q0 72 77 118.5t200 49.5q2 104 2 108q0 44 -23.5 67.5t-65.5 23.5 q-44 0 -73.5 -27.5t-29.5 -63.5q0 -19 7 -37q-15 -9 -36 -9q-20 0 -32.5 10.5t-12.5 28.5q0 48 61 92t133 44zM135 112q0 -73 79 -73q71 0 120 58q0 93 1 142q-91 -4 -145.5 -38t-54.5 -89zM303 -162q0 -26 -14.5 -44t-39.5 -18q-22 0 -35.5 15.5t-13.5 38.5q0 25 16.5 43 t40.5 18q21 0 33.5 -15t12.5 -38z" />
<glyph unicode="&#x1eb8;" horiz-adv-x="581" d="M215 361l212 7l-2 -47l-210 5v-290h134q58 0 100 5q2 3 13.5 36t12.5 36l23 71h19q6 -41 6 -90q0 -48 -7 -94h-459l-2 21l51 14q18 5 25 13t7 24v552q0 10 -4 14.5t-17 7.5l-62 19l2 21h449q7 -46 7 -94q0 -47 -6 -89h-19l-23 71q-1 3 -12.5 35.5t-13.5 35.5 q-42 5 -100 5h-124v-289zM364 -162q0 -26 -15 -44t-40 -18q-21 0 -35 15.5t-14 38.5q0 24 16.5 42.5t40.5 18.5q21 0 34 -15t13 -38z" />
<glyph unicode="&#x1eb9;" horiz-adv-x="476" d="M433 84q-26 -43 -70.5 -68.5t-101.5 -25.5q-96 0 -153.5 67t-57.5 179q0 119 60.5 194.5t154.5 75.5q75 0 121 -50t46 -135q0 -36 -1 -53l-11 -12h-291q1 -100 43.5 -155.5t116.5 -55.5q76 0 131 49zM260 469q-56 0 -91 -50t-40 -132l225 6q1 13 1 36q0 140 -95 140z M296 -162q0 -26 -14.5 -44t-39.5 -18q-22 0 -35.5 15.5t-13.5 38.5q0 25 16.5 43t40.5 18q21 0 33.5 -15t12.5 -38z" />
<glyph unicode="&#x1ebc;" horiz-adv-x="581" d="M137 773l-15 6q0 1 -0.5 3.5t-0.5 3.5q15 112 84 112q34 0 119.5 -32.5t103.5 -34.5q3 6 21 31t27 40l15 -6q1 -3 1 -10q-15 -108 -82 -108q-33 0 -121.5 32.5t-101.5 34.5q-27 -30 -50 -72zM215 361l212 7l-2 -47l-210 5v-290h134q58 0 100 5q2 3 13.5 36t12.5 36l23 71 h19q6 -41 6 -90q0 -48 -7 -94h-459l-2 21l51 14q18 5 25 13t7 24v552q0 10 -4 14.5t-17 7.5l-62 19l2 21h449q7 -46 7 -94q0 -47 -6 -89h-19l-23 71q-1 3 -12.5 35.5t-13.5 35.5q-42 5 -100 5h-124v-289z" />
<glyph unicode="&#x1ebd;" horiz-adv-x="476" d="M104 609l-15 5q-1 3 -1 7q13 106 82 106q29 0 103 -27.5t88 -29.5q39 51 47 64l15 -6q0 -1 0.5 -4t0.5 -5q-15 -103 -82 -103q-29 0 -104 27.5t-86 29.5q-26 -26 -48 -64zM433 84q-26 -43 -70.5 -68.5t-101.5 -25.5q-96 0 -153.5 67t-57.5 179q0 119 60.5 194.5 t154.5 75.5q75 0 121 -50t46 -135q0 -36 -1 -53l-11 -12h-291q1 -100 43.5 -155.5t116.5 -55.5q76 0 131 49zM260 469q-56 0 -91 -50t-40 -132l225 6q1 13 1 36q0 140 -95 140z" />
<glyph unicode="&#x1eca;" horiz-adv-x="353" d="M215 45l83 -24l-2 -21h-239l-2 21l51 14q18 5 25 13t7 24v570l-83 23l2 21h239l2 -21l-51 -13q-19 -6 -25.5 -13.5t-6.5 -23.5v-570zM226 -162q0 -26 -15 -44t-40 -18q-21 0 -35 15.5t-14 38.5q0 24 16.5 42.5t40.5 18.5q21 0 34 -15t13 -38z" />
<glyph unicode="&#x1ecb;" horiz-adv-x="294" d="M193 668q0 -25 -15 -43.5t-40 -18.5q-22 0 -35.5 15.5t-13.5 38.5q0 25 16.5 43t40.5 18q21 0 34 -14.5t13 -38.5zM189 40l72 -23l-2 -17h-216l-2 17l44 14q17 6 23 13.5t6 24.5v377l-70 13l-2 14q60 24 137 33l10 -9v-457zM197 -163q0 -25 -15 -43.5t-40 -18.5 q-22 0 -35.5 15.5t-13.5 38.5q0 25 16.5 43t40.5 18q21 0 34 -14.5t13 -38.5z" />
<glyph unicode="&#x1ecc;" horiz-adv-x="676" d="M58 344q0 162 80.5 257t205.5 95q122 0 198 -93.5t76 -253.5q0 -163 -77.5 -261t-203.5 -98q-127 0 -203 95t-76 259zM139 344q0 -144 54.5 -229t146.5 -85q91 0 144 87.5t53 231.5q0 140 -52.5 223.5t-140.5 83.5q-93 0 -148.5 -84.5t-56.5 -227.5zM388 -162 q0 -26 -15 -44t-40 -18q-21 0 -35 15.5t-14 38.5q0 24 16.5 42.5t40.5 18.5q21 0 34 -15t13 -38z" />
<glyph unicode="&#x1ecd;" horiz-adv-x="515" d="M465 250q0 -120 -59 -189.5t-151 -70.5q-91 -1 -148 69t-57 192q0 118 62.5 186.5t151.5 68.5q87 0 144 -68t57 -188zM129 249q0 -103 33.5 -162.5t92.5 -59.5q131 0 131 219q0 105 -33 164t-91 59q-62 0 -97.5 -55t-35.5 -165zM312 -162q0 -26 -14.5 -44t-39.5 -18 q-22 0 -35.5 15.5t-13.5 38.5q0 25 16.5 43t40.5 18q21 0 33.5 -15t12.5 -38z" />
<glyph unicode="&#x1ee4;" horiz-adv-x="663" d="M101 226v416l-83 23l2 21h239l2 -21l-51 -13q-19 -6 -25.5 -13.5t-6.5 -23.5v-392q0 -91 48 -141.5t123 -50.5t123 50t48 142v419l-83 23l2 21h202l2 -21l-82 -23v-416q0 -115 -62.5 -175.5t-166.5 -60.5q-103 0 -167 61.5t-64 174.5zM386 -162q0 -26 -15 -44t-40 -18 q-21 0 -34.5 15.5t-13.5 38.5q0 24 16 42.5t40 18.5q21 0 34 -14.5t13 -38.5z" />
<glyph unicode="&#x1ee5;" horiz-adv-x="606" d="M109 156v290l-69 13l-2 14q61 24 137 33l9 -9v-335q0 -123 108 -123q66 0 122 56v351l-69 13l-2 14q61 24 137 33l9 -9v-383q0 -41 11.5 -59t37.5 -18q19 0 43 7l4 -11q-36 -43 -92 -43q-64 0 -77 66q-63 -66 -152 -66q-74 0 -114.5 43t-40.5 123zM362 -162 q0 -26 -15 -44t-40 -18q-21 0 -35 15.5t-14 38.5q0 24 16.5 42.5t40.5 18.5q21 0 34 -15t13 -38z" />
<glyph unicode="&#x1ef2;" horiz-adv-x="679" d="M476 794l-7 -17q-80 5 -164 32t-84 62q0 26 35 38l9 -1q95 -75 211 -114zM378 45l82 -24l-2 -21h-238l-2 21l51 14q18 5 24.5 13t6.5 24v203l-182 336q-11 20 -19.5 29t-23.5 13l-49 12l2 21h244l2 -21l-83 -22l169 -331l169 332l-82 21l2 21h202l2 -21q-2 -1 -15.5 -4.5 t-25.5 -7t-13 -4.5q-24 -7 -40 -38l-181 -338v-228z" />
<glyph unicode="&#x1ef3;" horiz-adv-x="553" d="M367 589l-12 -13q-72 40 -124 82t-52 69q0 31 48 31h12l6 -3q35 -67 122 -166zM28 496h221l2 -17l-74 -22l123 -375l124 375l-75 22l2 17h182l2 -17q-5 -1 -24.5 -7.5t-21.5 -8.5q-26 -9 -36 -39l-152 -437q-43 -124 -88.5 -183.5t-109.5 -59.5q-31 0 -52 17t-21 42 q0 24 14 36l6 3q29 -31 64 -31q48 0 89.5 51t67.5 132l-14 -7l-151 437q-11 29 -34 39q-1 1 -11 4.5t-21.5 7t-13.5 4.5z" />
<glyph unicode="&#x1ef8;" horiz-adv-x="679" d="M178 774l-16 5v8q15 111 83 111q34 0 120 -32t103 -34q3 4 13 17.5t19 27.5t16 26l16 -6v-10q-15 -108 -82 -108q-32 0 -119.5 32t-102.5 34q-21 -21 -50 -71zM378 45l82 -24l-2 -21h-238l-2 21l51 14q18 5 24.5 13t6.5 24v203l-182 336q-11 20 -19.5 29t-23.5 13l-49 12 l2 21h244l2 -21l-83 -22l169 -331l169 332l-82 21l2 21h202l2 -21q-2 -1 -15.5 -4.5t-25.5 -7t-13 -4.5q-24 -7 -40 -38l-181 -338v-228z" />
<glyph unicode="&#x1ef9;" horiz-adv-x="553" d="M137 609l-16 5v7q13 106 82 106q29 0 102.5 -27.5t87.5 -29.5q39 51 47 64l16 -6v-9q-14 -103 -81 -103q-29 0 -104.5 27.5t-86.5 29.5q-29 -33 -47 -64zM28 496h221l2 -17l-74 -22l123 -375l124 375l-75 22l2 17h182l2 -17q-5 -1 -24.5 -7.5t-21.5 -8.5q-26 -9 -36 -39 l-152 -437q-43 -124 -88.5 -183.5t-109.5 -59.5q-31 0 -52 17t-21 42q0 24 14 36l6 3q29 -31 64 -31q48 0 89.5 51t67.5 132l-14 -7l-151 437q-11 29 -34 39q-1 1 -11 4.5t-21.5 7t-13.5 4.5z" />
<glyph unicode="&#x2007;" />
<glyph unicode="&#x2013;" horiz-adv-x="541" d="M42 250v39h456v-39h-456z" />
<glyph unicode="&#x2014;" horiz-adv-x="821" d="M42 250v39h737v-39h-737z" />
<glyph unicode="&#x2018;" horiz-adv-x="240" d="M179 746q-45 -68 -60 -166q26 0 42 -15.5t16 -39.5q0 -25 -18 -43t-45 -18q-26 0 -41 17.5t-15 46.5q0 54 32 119t77 109z" />
<glyph unicode="&#x2019;" horiz-adv-x="240" d="M61 474q46 69 59 166q-25 0 -41 15.5t-16 39.5q0 25 18 43t45 18q26 0 41 -17.5t15 -46.5q0 -54 -32 -119t-77 -109z" />
<glyph unicode="&#x201a;" horiz-adv-x="240" d="M61 -176q46 69 59 166q-25 0 -41 16t-16 40t18.5 42.5t44.5 18.5t41 -18t15 -47q0 -54 -32 -119t-77 -109z" />
<glyph unicode="&#x201c;" horiz-adv-x="425" d="M179 746q-45 -68 -60 -166q26 0 42 -15.5t16 -39.5q0 -25 -18 -43t-45 -18q-26 0 -41 17.5t-15 46.5q0 54 32 119t77 109zM365 746q-47 -67 -60 -166q25 0 41.5 -15.5t16.5 -39.5q0 -25 -18 -43t-45 -18t-42 17.5t-15 46.5q0 54 32 119t77 109z" />
<glyph unicode="&#x201d;" horiz-adv-x="425" d="M246 474q45 68 60 166q-26 0 -42 15.5t-16 39.5q0 25 18 43t45 18q26 0 41 -17.5t15 -46.5q0 -54 -32 -119t-76 -109zM61 474q46 69 59 166q-25 0 -41 15.5t-16 39.5q0 25 18 43t45 18q26 0 41 -17.5t15 -46.5q0 -54 -32 -119t-77 -109z" />
<glyph unicode="&#x201e;" horiz-adv-x="425" d="M246 -176q45 68 60 166q-26 0 -42 16t-16 40t18 42.5t45 18.5q26 0 41 -18t15 -47q0 -54 -32 -119t-76 -109zM61 -176q46 69 59 166q-25 0 -41 16t-16 40t18.5 42.5t44.5 18.5t41 -18t15 -47q0 -54 -32 -119t-77 -109z" />
<glyph unicode="&#x2020;" horiz-adv-x="505" d="M297 144l-31 -144h-27l-32 144l26 323l-164 -18l-4 3l-7 63l14 8l162 -22l-27 185l3 4q42 6 79 6l8 -8l-26 -187l165 22l4 -3l7 -63l-14 -8l-161 18z" />
<glyph unicode="&#x2021;" horiz-adv-x="505" d="M210 690q42 6 79 6l8 -8l-26 -187l165 22l4 -3l7 -63l-14 -8l-159 18q12 -96 12 -121q0 -23 -12 -119l159 18l12 -7q-3 -52 -4 -63l-6 -4l-164 22l26 -187l-6 -7q-7 0 -79 3l-5 5l27 185l-163 -21l-11 7q1 10 2 32.5t1 30.5l7 4l161 -18q-3 18 -6 45.5t-5 49.5t-2 24 t2.5 24.5t5.5 50.5t5 46l-162 -18l-4 3l-7 63l14 8l162 -22l-27 185z" />
<glyph unicode="&#x2022;" horiz-adv-x="423" d="M208 142q-48 0 -78.5 31.5t-31.5 77.5q-1 52 34 91t87 39q47 0 76 -30t30 -78q1 -53 -31 -92t-86 -39z" />
<glyph unicode="&#x2026;" horiz-adv-x="643" d="M113 -10q-24 0 -39 15.5t-16 38.5q0 25 17.5 44t42.5 19q23 0 37.5 -15t15.5 -38q0 -26 -16 -45t-42 -19zM320 -10q-24 0 -39 15.5t-16 38.5q0 25 17.5 44t42.5 19q23 0 37.5 -15t15.5 -38q0 -26 -16 -45t-42 -19zM527 -10q-24 0 -39 15.5t-16 38.5q0 25 17.5 44t42.5 19 q23 0 37.5 -15t15.5 -38q0 -26 -16 -45t-42 -19z" />
<glyph unicode="&#x2030;" horiz-adv-x="1357" d="M707 696l-422 -706h-46l422 706h46zM69 483q-2 91 42 148.5t121 57.5q75 0 117 -56.5t43 -147.5q1 -90 -42.5 -149.5t-120.5 -59.5t-118.5 57t-41.5 150zM129 483q1 -88 25 -132.5t77 -44.5q103 0 100 179q0 174 -100 174q-52 0 -77.5 -46t-24.5 -130zM562 197 q-1 91 43 148.5t120 57.5q75 0 117.5 -57t42.5 -147q2 -90 -41.5 -149.5t-120.5 -59.5q-78 0 -119 56.5t-42 150.5zM965 197q-1 91 43 148.5t121 57.5q75 0 117 -57t43 -147t-42.5 -149.5t-120.5 -59.5t-118.5 57t-42.5 150zM623 197q1 -88 24.5 -132.5t76.5 -44.5 q103 0 101 179q-2 174 -100 174q-105 0 -102 -176zM1026 197q1 -88 25 -132.5t77 -44.5q103 0 100 179q-2 174 -100 174q-104 0 -102 -176z" />
<glyph unicode="&#x2039;" horiz-adv-x="336" d="M257 29l-16 -9q-89 134 -158 196l-5 7v52q79 82 165 205l15 -10q-35 -78 -115 -222q57 -91 114 -219z" />
<glyph unicode="&#x203a;" horiz-adv-x="336" d="M258 222q-77 -82 -165 -205l-15 9q31 71 116 223q-55 87 -115 219l17 9q91 -137 158 -196l4 -7v-52z" />
<glyph unicode="&#x2044;" horiz-adv-x="264" d="M366 696l-423 -706h-45l422 706h46z" />
<glyph unicode="&#x2070;" horiz-adv-x="423" d="M50 551q-1 90 43 147.5t120 57.5q75 0 117.5 -56.5t42.5 -147.5q2 -90 -41.5 -149t-120.5 -59q-78 0 -119 56.5t-42 150.5zM111 550q1 -88 24.5 -132.5t76.5 -44.5q103 0 101 180q-2 174 -100 174q-52 0 -78 -46.5t-24 -130.5z" />
<glyph unicode="&#x2071;" horiz-adv-x="257" d="M130 865q-18 0 -29.5 12.5t-11.5 31.5q0 21 13.5 36.5t33.5 15.5q18 0 29 -12t11 -30q0 -22 -13 -38t-33 -16zM165 401l59 -18l-1 -14h-178l-2 14l36 11q14 5 18.5 11t4.5 20v290l-56 12l-2 11q48 19 113 26l8 -7v-356z" />
<glyph unicode="&#x2074;" horiz-adv-x="441" d="M50 473l227 283l40 -4v-271h74l-5 -35h-69v-91h-58v91h-201zM92 481h167v212z" />
<glyph unicode="&#x2075;" horiz-adv-x="385" d="M82 746h239q1 -44 -11 -99h-13q-2 33 -8 42t-28 9h-141l-2 -123h27q87 0 138.5 -29.5t51.5 -86.5q0 -51 -44.5 -83t-113.5 -32q-56 0 -91.5 17t-35.5 45q0 16 12.5 27t32.5 15l7 -5q-3 -7 -3 -18q1 -26 22.5 -41.5t59.5 -15.5q43 0 69.5 22t26.5 58q0 49 -50 75.5 t-140 25.5l-7 7z" />
<glyph unicode="&#x2076;" horiz-adv-x="401" d="M351 472q0 -55 -43.5 -91.5t-107.5 -36.5q-67 0 -108.5 43.5t-41.5 115.5q0 105 77.5 177t195.5 76l5 -16q-80 -17 -137 -67t-74 -124q49 33 101 33q60 0 96.5 -29.5t36.5 -80.5zM111 494q0 -53 26 -89t67 -36q38 0 62.5 25.5t24.5 66.5t-24.5 65.5t-68.5 24.5 q-48 0 -86 -29q-1 -9 -1 -28z" />
<glyph unicode="&#x2077;" horiz-adv-x="392" d="M337 746l5 -35q-66 -68 -108 -163.5t-50 -194.5h-58q7 87 57.5 182.5t116.5 162.5h-193q-22 0 -28.5 -9t-12.5 -40h-12q-6 38 2 97h281z" />
<glyph unicode="&#x2078;" horiz-adv-x="401" d="M351 452q0 -47 -42 -77.5t-111 -30.5q-65 0 -106.5 26.5t-41.5 70.5q0 40 32.5 68.5t77.5 37.5q-41 22 -63.5 46.5t-22.5 59.5q0 44 37 73.5t95 29.5q54 0 87.5 -25.5t33.5 -65.5q0 -66 -82 -102q34 -16 53 -28t36 -34t17 -49zM130 668q0 -17 7 -31t22.5 -25.5 t28.5 -19.5t36 -19q53 36 53 92q0 30 -19 48t-52 18t-54.5 -18t-21.5 -45zM106 444q0 -34 26.5 -54.5t67.5 -20.5q39 0 66.5 19t26.5 50q0 20 -16 38t-32 27t-50 26q-9 5 -14 7q-34 -15 -54.5 -39t-20.5 -53z" />
<glyph unicode="&#x2079;" horiz-adv-x="401" d="M351 593q0 -104 -78 -175t-196 -74l-4 16q80 16 137 65.5t74 122.5q-46 -32 -104 -32q-59 0 -94.5 30.5t-35.5 81.5q0 55 43.5 91.5t107.5 36.5q67 0 108.5 -44.5t41.5 -118.5zM110 637q0 -41 24 -66t65 -25q50 0 90 29q1 10 1 30q1 54 -24.5 90t-66.5 36q-39 0 -64 -26 t-25 -68z" />
<glyph unicode="&#x207f;" horiz-adv-x="505" d="M165 401l59 -18l-1 -14h-178l-2 14l36 11q14 5 18.5 11t4.5 20v290l-56 12l-2 11q48 19 113 26l8 -7v-44q60 51 131 51q56 0 86 -30t30 -87v-246l59 -18l-1 -14h-178l-2 14l36 11q14 5 19 11t5 20v216q0 82 -79 82q-55 0 -106 -40v-282z" />
<glyph unicode="&#x2080;" horiz-adv-x="423" d="M50 121q-1 91 43 148.5t120 57.5q75 0 117.5 -57t42.5 -147q2 -90 -41.5 -149.5t-120.5 -59.5q-78 0 -119 56.5t-42 150.5zM111 121q1 -88 25 -133t76 -45q103 0 101 180q-2 174 -100 174q-105 0 -102 -176z" />
<glyph unicode="&#x2081;" horiz-adv-x="282" d="M171 -52l61 -15l-2 -10h-179l-1 10l34 7q16 5 22 10t6 17v314l-61 7l-1 9l115 30l6 -6v-373z" />
<glyph unicode="&#x2082;" horiz-adv-x="382" d="M57 -77l-6 35q70 54 107 85.5t67 74.5t30 81q0 36 -22.5 57.5t-61.5 21.5q-57 0 -105 -54l-10 6q18 45 55.5 71t84.5 26q54 0 86.5 -31t32.5 -79q0 -31 -14.5 -61t-43 -59t-57.5 -53t-72 -57l-24 -18h161q24 0 34.5 10t21.5 40l11 -1q0 -53 -15 -95h-260z" />
<glyph unicode="&#x2083;" horiz-adv-x="386" d="M115 101l-2 22q72 11 110 32.5t38 61.5q0 27 -21 44t-55 17q-56 0 -109 -53l-10 5q20 45 58.5 71t83.5 26q50 0 81.5 -26t31.5 -65q0 -45 -36.5 -71.5t-85.5 -35.5q59 -4 98 -31.5t39 -72.5q0 -50 -46.5 -80.5t-114.5 -30.5q-55 0 -90 17.5t-35 47.5q0 15 12.5 26.5 t32.5 15.5l7 -5q-3 -6 -3 -16q3 -62 81 -62q43 0 70.5 20.5t27.5 57.5q0 41 -37 64t-88 23q-12 0 -38 -2z" />
<glyph unicode="&#x2084;" horiz-adv-x="441" d="M50 43l227 284l40 -4v-271h74l-5 -36h-69v-91h-58v91h-201zM92 52h167v211z" />
<glyph unicode="&#x2085;" horiz-adv-x="385" d="M82 317h239q1 -45 -11 -100l-13 1q-2 32 -8 41t-28 9h-141l-2 -123q4 0 13 0.5t14 0.5q87 0 138.5 -30t51.5 -87q0 -51 -44.5 -83t-113.5 -32q-57 0 -92 17.5t-35 45.5q0 15 12.5 26.5t32.5 14.5l7 -5q-3 -6 -3 -18q1 -26 22.5 -41.5t59.5 -15.5q43 0 69.5 22t26.5 58 q0 49 -49.5 75.5t-140.5 26.5l-7 7z" />
<glyph unicode="&#x2086;" horiz-adv-x="401" d="M351 43q0 -55 -43.5 -92t-107.5 -37q-67 0 -108.5 44t-41.5 116q0 104 77.5 176.5t195.5 76.5l5 -16q-80 -18 -137 -68t-74 -123q47 32 101 32q60 0 96.5 -29.5t36.5 -79.5zM111 64q0 -53 26 -89t67 -36q38 0 62.5 25.5t24.5 67.5q0 40 -25 65t-68 25q-46 0 -86 -29 q-1 -10 -1 -29z" />
<glyph unicode="&#x2087;" horiz-adv-x="392" d="M337 317l5 -36q-66 -68 -108 -163.5t-50 -194.5h-58q7 87 57.5 183t116.5 162h-193q-22 0 -29 -9t-12 -40l-12 1q-6 38 2 97h281z" />
<glyph unicode="&#x2088;" horiz-adv-x="401" d="M351 22q0 -47 -42 -77.5t-111 -30.5q-65 0 -106.5 27t-41.5 71q0 40 32.5 68.5t77.5 37.5q-86 45 -86 105q0 44 37 74t95 30q54 0 87.5 -25.5t33.5 -66.5q0 -66 -82 -101q24 -12 40 -21t32.5 -23t25 -31t8.5 -37zM130 238q0 -31 24 -51.5t70 -43.5q53 38 53 92 q0 30 -19 48.5t-52 18.5q-34 0 -55 -18t-21 -46zM106 15q0 -35 26.5 -55.5t67.5 -20.5q39 0 66.5 19t26.5 50q1 39 -61 73q-8 4 -51 26q-75 -34 -75 -92z" />
<glyph unicode="&#x2089;" horiz-adv-x="401" d="M351 163q0 -103 -78 -174t-196 -75l-4 16q80 16 137 65.5t74 122.5q-49 -32 -104 -32q-59 0 -94.5 30.5t-35.5 81.5q0 55 43.5 92t107.5 37q67 0 108.5 -45t41.5 -119zM110 207q0 -40 24 -65t65 -25q50 0 90 29q1 9 1 29q1 55 -24.5 91t-66.5 36q-39 0 -64 -26.5 t-25 -68.5z" />
<glyph unicode="&#x2090;" horiz-adv-x="433" d="M218 325q58 0 89.5 -29t31.5 -84q0 -18 -1.5 -94t-1.5 -105q0 -30 8.5 -41t30.5 -11q18 0 34 5l4 -8q-27 -36 -75 -36q-26 0 -43.5 14t-20.5 39q-53 -53 -123 -53q-47 0 -75 23.5t-28 64.5q0 56 63 92.5t164 38.5q0 25 0.5 54t0.5 30q0 34 -19 52.5t-53 18.5 q-36 0 -60 -21t-24 -50q0 -16 4 -29q-13 -8 -29 -8q-17 0 -27 8.5t-10 22.5q0 38 50 72t110 34zM111 19q0 -57 65 -57q56 0 97 43q0 15 0.5 53t0.5 58q-74 -3 -118.5 -29t-44.5 -68z" />
<glyph unicode="&#x2091;" horiz-adv-x="386" d="M354 -3q-46 -75 -142 -75q-79 0 -125.5 52t-46.5 140q0 93 49.5 152t126.5 59q61 0 99 -39t38 -106q0 -28 -1 -41l-9 -9h-239q2 -78 37 -120t95 -42q63 0 107 38zM211 296q-46 0 -74.5 -39.5t-31.5 -102.5l183 4q1 11 1 30q0 108 -78 108z" />
<glyph unicode="&#x2092;" horiz-adv-x="419" d="M380 125q0 -94 -48.5 -148t-124.5 -55q-74 -1 -120.5 54t-46.5 150q0 92 51 145.5t124 53.5q72 0 118.5 -53t46.5 -147zM104 124q0 -81 27.5 -127t76.5 -46q107 0 107 171q0 82 -27 128t-74 46q-51 0 -80.5 -43t-29.5 -129z" />
<glyph unicode="&#x2093;" horiz-adv-x="427" d="M133 286l98 -134l92 133l-59 19l2 13h148l2 -13q-1 -1 -10.5 -4t-18 -6.5t-10.5 -4.5q-13 -5 -33 -32l-98 -125l106 -144q16 -26 32 -32q7 -5 36 -12l-2 -14h-177l-2 14l59 17l-102 139l-94 -138l59 -18l-1 -14h-151l-1 14q30 8 39 14q13 6 34 32l101 130l-103 140 q-1 2 -5 7t-5 6.5t-4 5t-5 5t-5.5 3.5t-7.5 3q-2 2 -18 7.5t-17 6.5l1 13h177l2 -13z" />
<glyph unicode="&#x2095;" horiz-adv-x="497" d="M157 -38l59 -18l-1 -14h-178l-2 14l36 10q14 5 18.5 11.5t4.5 19.5v486l-56 11l-2 11q52 20 113 27l8 -7v-239q62 51 131 51q56 0 86 -30.5t30 -87.5v-245l59 -18l-1 -14h-178l-2 14l36 10q24 9 24 31v217q0 82 -79 82q-54 0 -106 -40v-282z" />
<glyph unicode="&#x2096;" horiz-adv-x="456" d="M157 -38l59 -18l-1 -14h-178l-2 14l36 10q14 5 18.5 11.5t4.5 19.5v487l-56 10l-2 11q49 21 113 28l8 -8v-365h77l97 137l-64 19l2 13h161l2 -13q-2 -1 -20.5 -7t-20.5 -8q-16 -5 -38 -32l-75 -92l96 -162q24 -39 48 -48l27 -9l-2 -16h-55q-27 0 -43 11t-31 37l-84 142 h-77v-158z" />
<glyph unicode="&#x2097;" horiz-adv-x="249" d="M157 -38l59 -18l-1 -14h-178l-2 14l36 10q14 5 18.5 11.5t4.5 19.5v487l-56 10l-2 11q49 21 113 28l8 -8v-551z" />
<glyph unicode="&#x2098;" horiz-adv-x="740" d="M165 -38l59 -18l-1 -14h-178l-2 14l36 10q14 5 18.5 11.5t4.5 19.5v291l-56 11l-2 11q52 20 113 27l8 -7v-44q62 51 128 51q75 0 101 -56q61 56 134 56q58 0 88.5 -30.5t30.5 -87.5v-245l59 -18l-2 -14h-177l-2 14l35 10q14 5 19 11.5t5 19.5v217q0 82 -79 82 q-52 0 -103 -38q4 -24 4 -39v-245l59 -18l-1 -14h-178l-2 14l35 10q15 5 20 11.5t5 19.5v217q0 82 -76 82q-52 0 -103 -40v-282z" />
<glyph unicode="&#x2099;" horiz-adv-x="505" d="M165 -38l59 -18l-1 -14h-178l-2 14l36 10q14 5 18.5 11.5t4.5 19.5v291l-56 11l-2 11q52 20 113 27l8 -7v-44q62 51 131 51q56 0 86 -30.5t30 -87.5v-245l59 -18l-1 -14h-178l-2 14l36 10q24 9 24 31v217q0 82 -79 82q-55 0 -106 -40v-282z" />
<glyph unicode="&#x209a;" horiz-adv-x="468" d="M157 -230l76 -19l-2 -13h-194l-2 13l35 11q24 8 24 31v483l-56 11l-2 11q52 20 113 27l8 -7v-41q48 48 115 48q74 0 115 -53t41 -144q0 -94 -52 -150t-139 -56q-42 0 -80 11v-163zM238 -49q57 0 90.5 46t33.5 124q0 77 -28 120t-82 43q-52 0 -95 -41v-270q33 -22 81 -22z " />
<glyph unicode="&#x209b;" horiz-adv-x="345" d="M155 -78q-34 0 -66.5 6.5t-40.5 14.5q-8 9 -8 43q0 41 12 66l12 -1q8 -59 30 -81q17 -19 67 -19q37 0 58.5 17t21.5 46q0 32 -30.5 55.5t-67.5 37.5t-67.5 42.5t-30.5 69.5q0 48 41.5 77t103.5 29q32 0 61.5 -6.5t37.5 -14.5q7 -6 7 -35q0 -41 -13 -71h-12q-8 63 -27 79 q-22 19 -58 19q-35 0 -56 -17t-21 -47q0 -26 20 -46t49 -34t58 -29t49 -39t20 -56q0 -49 -41 -77.5t-109 -28.5z" />
<glyph unicode="&#x209c;" horiz-adv-x="333" d="M318 -3q-48 -75 -125 -75q-48 0 -74 29.5t-26 86.5v244h-66l-2 13l68 21l47 113l16 -1v-118h139v-28h-139v-230q0 -84 62 -84q46 0 89 38z" />
<glyph unicode="&#x20ac;" horiz-adv-x="632" d="M50 232l6 41h87q-3 33 -3 70v21h-76l6 41h74q15 128 86 209.5t173 81.5q71 0 120 -43t49 -105q0 -23 -11 -36.5t-30 -13.5q-16 0 -25 3q2 18 2 23q-3 59 -33.5 97t-79.5 38q-72 0 -119.5 -69t-55.5 -185h252l-6 -41h-247l-1 -3q0 -47 6 -88h233l-5 -41h-221 q19 -90 66 -138.5t118 -48.5q86 0 155 60l12 -11q-64 -104 -190 -104q-95 0 -158.5 63.5t-84.5 178.5h-99z" />
<glyph unicode="&#x2122;" horiz-adv-x="685" d="M188 486l31 -9l-2 -17h-98l-1 17l19 5q11 3 11 16v166h-16q-22 0 -40 -2q-3 -6 -10 -30l-7 -22h-13q-4 13 -4 36q0 25 5 40h212q4 -16 4 -40q0 -6 -3 -36h-15l-7 22q-2 7 -5.5 17t-4.5 13q-18 2 -40 2h-16v-178zM319 686h72l67 -175l66 175h76l1 -15l-31 -11l29 -174 l28 -9l-1 -17h-96l-2 17l15 4q16 5 13 20l-24 134l-66 -175h-30l-68 175l-25 -149l30 -9l-1 -17h-80l-1 17l17 4q12 4 13 15l27 164l-31 11z" />
<glyph unicode="&#x2202;" horiz-adv-x="604" d="M293 756q119 0 186 -103t67 -270q0 -106 -28.5 -192.5t-92 -143t-153.5 -56.5q-95 0 -154.5 62t-59.5 164q0 106 75.5 179.5t197.5 73.5q76 -1 133 -27q-10 117 -61 187t-131 70q-51 0 -96 -22t-75 -56l-22 23q34 45 89 78t125 33zM141 216q0 -83 38.5 -132t100.5 -49 q85 0 135.5 88t50.5 224v46q-58 32 -129 32q-92 0 -144 -57.5t-52 -151.5z" />
<glyph unicode="&#x220f;" horiz-adv-x="719" d="M217 -122l-8 -14h-149l-2 21l51 13q19 6 25.5 13.5t6.5 23.5v707l-83 23l2 21h599l2 -21l-51 -13q-19 -6 -25.5 -13.5t-6.5 -23.5v-707l83 -23l-2 -21h-149l-8 14v765h-285v-765z" />
<glyph unicode="&#x2211;" horiz-adv-x="585" d="M40 -136l-6 35l287 341l-276 411l6 35h469q7 -42 7 -86q0 -50 -6 -90h-19q-5 25 -15 53.5t-20 51t-11 26.5q-40 9 -106 9h-216l262 -389l-307 -361h261q66 0 106 9q1 4 11 26.5t20 51t15 53.5h19q6 -39 6 -90q0 -44 -7 -86h-480z" />
<glyph unicode="&#x2212;" d="M493 317h-417v48q155 5 415 5l8 -8z" />
<glyph unicode="&#x221a;" horiz-adv-x="596" d="M18 496h148l168 -442l197 702l47 -12l-212 -744h-90l-178 453h-80v43z" />
<glyph unicode="&#x221e;" horiz-adv-x="863" d="M773 344q0 -77 -45.5 -127t-118.5 -50q-57 0 -98 32t-76 87q-70 -119 -187 -119q-70 0 -114 49.5t-44 125.5q0 77 46 127t119 50q59 0 99.5 -32.5t75.5 -88.5q72 121 184 121q71 0 115 -49.5t44 -125.5zM606 470q-44 0 -84.5 -33.5t-64.5 -82.5l2 -4q39 -67 74 -100.5 t79 -33.5q46 0 75.5 34t29.5 93q0 57 -31 92t-80 35zM145 345q0 -59 30.5 -94t81.5 -35q48 0 87 32t65 82q-3 2 -4 7q-38 66 -73 99.5t-80 33.5q-46 0 -76.5 -33.5t-30.5 -91.5z" />
<glyph unicode="&#x222b;" horiz-adv-x="432" d="M266 721q-83 -6 -83 -122q0 -51 49 -338q7 -41 18 -105t16 -96.5t9.5 -70t4.5 -61.5q0 -89 -53 -136.5t-131 -47.5q-43 0 -70.5 18t-27.5 44q0 29 34 42l3 -1q41 -67 96 -67q75 8 75 111q0 24 -5 66.5t-11 78.5t-18 107.5t-19 111.5q-6 36 -16 98.5t-15 92t-9 64t-4 55.5 q0 95 52 143t128 48q54 0 89.5 -28t35.5 -64q0 -34 -41 -46l-3 2q-32 101 -104 101z" />
<glyph unicode="&#x2248;" d="M413 390q-20 0 -129 27t-124 27q-12 0 -62 -61l-31 20q16 28 27 44.5t30.5 34t37.5 17.5q20 0 127 -27t127 -27q13 0 61 61l32 -20q-16 -28 -27 -44.5t-31 -34t-38 -17.5zM413 189q-20 0 -129 26.5t-124 26.5q-12 0 -62 -60l-31 19q16 28 27 44.5t30.5 34t37.5 17.5 q20 0 127 -27t127 -27q11 0 61 61l32 -20q-16 -27 -27 -44t-31 -34t-38 -17z" />
<glyph unicode="&#x2260;" d="M138 115l50 105h-112v48q66 2 136 2l68 145h-204v48q47 1 228 3l58 123l11 3l41 -19l-51 -106q27 0 70.5 0.5t57.5 0.5l8 -8l-6 -45h-155l-69 -144q168 2 222 2l8 -8l-6 -45h-248l-61 -126l-2 -1z" />
<glyph unicode="&#x2264;" d="M487 617v-57l-333 -151l334 -145v-57q-28 14 -206 90.5t-215 96.5l-3 26l1 3q11 4 210 96.5t212 97.5zM489 76h-416v47q155 5 414 5l8 -8z" />
<glyph unicode="&#x2265;" d="M80 203v57l334 152l-334 144v57q20 -9 193 -84t226 -101l2 -3l3 -26zM505 76h-416v47q155 5 414 5l8 -8z" />
<glyph unicode="&#x25ca;" horiz-adv-x="612" d="M58 327v31l214 332l61 10l221 -343v-31l-217 -326l-60 -10zM302 649l-190 -307l190 -299h6l194 299l-194 307h-6z" />
<glyph unicode="&#x25fc;" horiz-adv-x="495" d="M0 495h495v-495h-495v495z" />
<glyph unicode="&#x2c7c;" horiz-adv-x="235" d="M123 428q-19 0 -30 13t-11 32q0 21 13.5 36.5t33.5 15.5q18 0 28.5 -12t10.5 -31q0 -22 -12.5 -38t-32.5 -16zM27 -258q36 47 52 90t16 115v329l-57 11l-2 11q54 20 114 27l7 -7v-396q0 -71 -29.5 -114t-88.5 -78z" />
<glyph unicode="&#xa7b6;" horiz-adv-x="792" d="M328 0h-287q-7 42 -7 86q0 47 6 83h19l17 -46q14 -50 26 -77q45 -10 106 -10h74q-165 124 -164 328q-1 146 77.5 239t205.5 93q121 0 197 -93t76 -239q0 -203 -164 -328h74q62 0 105 10q15 33 27 77l17 46h19q6 -46 6 -83q0 -44 -7 -86h-287l-14 37q143 123 143 322 q0 132 -52 214.5t-139 82.5q-93 0 -148.5 -82.5t-54.5 -214.5q-1 -198 143 -322z" />
<glyph unicode="&#xfb01;" horiz-adv-x="590" d="M189 40l87 -23l-2 -17h-231l-2 17l44 14q17 6 23 13.5t6 24.5v384h-71l-2 17l73 19v20q0 109 61 178t153 69q63 0 106 -28t43 -66q0 -18 -10.5 -28.5t-27.5 -10.5q-15 0 -25 5q-24 91 -99 91q-57 0 -91.5 -48.5t-34.5 -132.5v-50h223q33 14 63 18l9 -9v-457l73 -23 l-2 -17h-216l-2 17l43 14q17 6 23 13.5t6 24.5v384h-220v-413z" />
<glyph unicode="&#xfb02;" horiz-adv-x="590" d="M189 40l87 -23l-2 -17h-231l-2 17l44 14q17 6 23 13.5t6 24.5v384h-71l-2 17l73 19v38q0 102 58.5 165.5t149.5 63.5q49 0 87 -19v8q29 8 66 12l9 -9v-708l73 -23l-2 -17h-216l-2 17l43 14q17 6 23 13.5t6 24.5v384h-220v-413zM189 558v-70h220v176q-31 55 -94 55 q-59 0 -92.5 -42.5t-33.5 -118.5z" />
<glyph unicode="&#xfb06;" horiz-adv-x="804" d="M600 591q0 -60 -43 -103h193v-35h-170v-298q0 -110 77 -110q56 0 108 49l13 -10q-26 -42 -65.5 -68t-86.5 -26q-59 0 -90 38t-31 110v315h-66l-2 20q45 13 69.5 45t24.5 73t-30 68t-76 27q-65 0 -105.5 -46t-40.5 -114v-28q37 -11 60.5 -34.5t23.5 -50.5q0 -17 -10 -26.5 t-25 -9.5q-22 0 -43.5 24.5t-32.5 64.5q-18 4 -28 4q-41 0 -67 -22.5t-26 -60.5q0 -34 25 -60t60.5 -44t70.5 -36.5t60 -49.5t25 -73q0 -61 -50 -97.5t-132 -36.5q-42 0 -81.5 8.5t-49.5 19.5t-10 53q0 45 14 84l15 -1q9 -76 37 -104q21 -23 82 -23q45 0 71.5 22t26.5 59 q0 34 -24.5 60t-59.5 43.5t-70.5 36.5t-60 50.5t-24.5 74.5q0 58 50 95.5t119 37.5q13 0 20 -1q-1 7 -1 21q0 86 56.5 145t144.5 59q69 0 112 -39.5t43 -99.5z" />
<glyph horiz-adv-x="462" d="M97 -78l-8 5v544l-56 11l-2 11q51 20 112 27l9 -7v-236q46 48 114 48q74 0 115.5 -53t41.5 -144q0 -93 -50.5 -149.5t-135.5 -56.5q-52 0 -93 19zM232 -49q60 0 92.5 45.5t32.5 124.5q0 76 -29 119.5t-82 43.5q-51 0 -94 -41v-270q33 -22 80 -22z" />
<glyph horiz-adv-x="368" d="M345 227q0 -41 -36 -41q-14 0 -23 3q2 2 0.5 10t-1.5 9q0 41 -19 64.5t-53 23.5q-48 0 -78.5 -44t-30.5 -114q0 -81 34.5 -125.5t98.5 -44.5q61 0 105 38l11 -9q-47 -75 -140 -75q-79 0 -126 51.5t-47 139.5q0 94 49.5 153t128.5 59q54 0 90.5 -28.5t36.5 -69.5z" />
<glyph horiz-adv-x="469" d="M233 325q38 0 76 -11v157l-73 11l-2 11q43 16 129 27l8 -7v-493q0 -31 9 -45t32 -14q16 0 34 5l4 -8q-29 -36 -76 -36q-53 0 -64 52q-46 -52 -117 -52q-69 0 -111 50.5t-42 141.5q0 96 56 153.5t137 57.5zM236 296q-59 0 -95.5 -45.5t-36.5 -129.5q0 -75 30.5 -117.5 t78.5 -42.5q54 0 96 44v269q-35 22 -73 22z" />
<glyph horiz-adv-x="262" d="M165 -38l76 -18l-2 -14h-194l-2 14l36 10q14 5 18.5 11.5t4.5 19.5v297h-57l-2 13l59 16v16q0 85 47.5 139t119.5 54q45 0 75 -22.5t30 -52.5q0 -14 -9.5 -23t-23.5 -9q-7 0 -17 4q-11 74 -66 74q-44 0 -68.5 -37.5t-24.5 -104.5v-39h108v-28h-108v-320z" />
<glyph horiz-adv-x="404" d="M64 177q0 64 42.5 106t106.5 42q46 0 81 -24q18 19 43.5 32.5t40.5 13.5q19 0 19 -26q0 -12 -2 -22q-3 -11 -19 -12q-43 0 -64 -2q36 -36 36 -95q0 -64 -39.5 -104t-104.5 -41q-13 0 -35 4q-16 -20 -16 -38q0 -30 42 -33l75 -6q58 -5 90 -32.5t32 -74.5q0 -59 -54.5 -97 t-140.5 -38q-70 0 -113.5 27t-43.5 71q0 50 58 77l10 -8q-14 -20 -14 -41q1 -45 35 -71t90 -26q55 0 89.5 24t34.5 60q0 61 -83 70l-80 7q-36 4 -55 21.5t-19 43.5q0 43 41 71q-38 14 -60.5 46.5t-22.5 74.5zM284 182q0 115 -75 115q-36 0 -58.5 -29.5t-22.5 -79.5 q0 -52 21 -82.5t57 -31.5q38 -1 58 27t20 81z" />
<glyph horiz-adv-x="257" d="M130 426q-18 0 -29.5 12.5t-11.5 31.5q0 21 13.5 36.5t33.5 15.5q18 0 29 -12t11 -31q0 -22 -13 -37.5t-33 -15.5zM165 -38l59 -18l-1 -14h-178l-2 14l36 10q14 5 18.5 11.5t4.5 19.5v291l-56 11l-2 11q52 20 113 27l8 -7v-356z" />
<glyph horiz-adv-x="457" d="M371 -230l60 -19l-2 -13h-178l-1 13l35 11q24 8 24 31v179q-46 -50 -116 -50q-68 0 -110.5 50.5t-42.5 143.5q0 96 55.5 152.5t134.5 56.5q43 0 88 -18l45 18l8 -4v-551zM236 296q-59 0 -95.5 -45t-36.5 -128q0 -76 30.5 -119t77.5 -43q60 0 97 44v269q-35 22 -73 22z " />
<glyph horiz-adv-x="336" d="M165 -38l76 -18l-2 -14h-194l-2 14l36 10q14 5 18.5 11.5t4.5 19.5v291l-56 11l-2 11q52 20 113 27l8 -7v-59q53 66 108 66q25 0 40 -12.5t15 -30.5q0 -24 -22 -44h-8q-26 33 -60 35q-37 0 -73 -47v-264z" />
<glyph horiz-adv-x="514" d="M96 51v225l-56 11l-2 11q52 20 113 27l8 -7v-262q0 -93 87 -93q55 0 100 42v271l-56 11l-2 11q52 20 113 27l8 -7v-298q0 -31 9 -45t31 -14q17 0 35 5l3 -8q-29 -36 -76 -36q-52 0 -63 52q-52 -52 -125 -52q-61 0 -94 33.5t-33 95.5z" />
<glyph horiz-adv-x="433" d="M358 260l-121 -330h-44l-120 330q-8 23 -28 30q-2 2 -19 7.5t-18 6.5l1 13h183l2 -13l-62 -18l101 -293l101 293l-60 18l1 13h149l1 -13q-2 -1 -19 -6.5t-18 -6.5q-22 -8 -30 -31z" />
<glyph horiz-adv-x="664" d="M366 317l117 -318l83 287l-62 18l2 13h149l2 -13q-2 -1 -19 -6.5t-19 -6.5q-23 -8 -30 -31l-101 -330h-44l-113 301l-112 -301h-45l-101 330q-7 24 -28 30q-2 2 -19 7.5t-18 6.5l1 13h182l2 -13l-61 -18l83 -285l116 316h35z" />
<glyph horiz-adv-x="439" d="M15 317h182l2 -13l-61 -18l102 -290l100 290l-61 18l2 13h149l2 -13q-2 -1 -11.5 -4t-17.5 -5.5t-9 -3.5q-22 -10 -29 -31l-125 -342q-36 -97 -73.5 -142.5t-89.5 -45.5q-25 0 -42 14t-17 34q0 17 11 30l5 1q22 -22 53 -22q39 0 73 38.5t55 100.5l-12 -6l-123 340 q-10 24 -29 30q0 1 -8.5 4t-18 6t-10.5 4z" />
<glyph horiz-adv-x="384" d="M344 -16q-2 -34 -5 -54h-294l-5 28l235 331h-173l-38 -94h-13q-7 29 -7 70q2 38 6 52h289l6 -28l-238 -331h178l38 94h14q7 -35 7 -68z" />
<glyph horiz-adv-x="434" d="M218 764q58 0 89.5 -29t31.5 -84q0 -17 -1.5 -93t-1.5 -106q0 -29 8.5 -40t30.5 -11q17 0 34 4l4 -8q-28 -36 -75 -36q-26 0 -43.5 14.5t-20.5 38.5q-53 -53 -123 -53q-47 0 -75 24t-28 64q0 57 62.5 93t164.5 38q0 24 0.5 54t0.5 31q0 34 -19 52t-53 18q-36 0 -60 -21 t-24 -50q0 -16 4 -29q-16 -8 -29 -8q-17 0 -27 8.5t-10 23.5q0 37 50.5 71t109.5 34zM111 458q0 -57 65 -57q56 0 97 43q0 15 0.5 53t0.5 58q-74 -2 -118.5 -28.5t-44.5 -68.5z" />
<glyph horiz-adv-x="462" d="M97 361l-8 5v544l-56 12l-2 11q48 18 112 26l9 -7v-236q46 48 114 48q74 0 115.5 -53t41.5 -144q0 -93 -50.5 -149.5t-135.5 -56.5q-52 0 -93 19zM232 391q60 0 92.5 45t32.5 124q0 76 -29 119.5t-82 43.5t-94 -41v-270q32 -21 80 -21z" />
<glyph horiz-adv-x="368" d="M345 666q0 -19 -10 -30t-26 -11q-11 0 -23 4q2 2 0.5 9.5t-1.5 8.5q0 41 -19 64.5t-53 23.5q-48 0 -78.5 -44t-30.5 -114q0 -81 34.5 -125.5t98.5 -44.5q59 0 105 38l11 -9q-48 -75 -140 -75q-79 0 -126 52t-47 140q0 93 49.5 152t128.5 59q54 0 90.5 -28.5t36.5 -69.5z " />
<glyph horiz-adv-x="467" d="M233 764q42 0 76 -10v156l-73 12l-2 11q53 18 129 26l8 -7v-492q0 -31 9 -45t32 -14q19 0 34 4l4 -8q-29 -36 -76 -36q-53 0 -64 52q-46 -52 -117 -52q-69 0 -111 50.5t-42 141.5q0 96 56 153.5t137 57.5zM236 735q-59 0 -95.5 -45.5t-36.5 -129.5q0 -74 30.5 -116.5 t78.5 -42.5q55 0 96 43v269q-35 22 -73 22z" />
<glyph horiz-adv-x="386" d="M354 436q-47 -75 -142 -75q-79 0 -125.5 52t-46.5 140q0 93 49.5 152t126.5 59q62 0 99.5 -39t37.5 -106q0 -28 -1 -41l-9 -9h-239q2 -78 37 -120t95 -42q61 0 107 38zM211 735q-46 0 -74.5 -39.5t-31.5 -102.5l183 5q1 10 1 29q0 108 -78 108z" />
<glyph horiz-adv-x="262" d="M165 401l76 -18l-2 -14h-194l-2 14l36 11q14 5 18.5 11t4.5 20v296h-57l-2 13l59 16v16q0 85 47.5 139t119.5 54q45 0 75 -22.5t30 -52.5q0 -14 -9.5 -22.5t-23.5 -8.5q-10 0 -17 3q-11 74 -66 74q-44 0 -68.5 -37.5t-24.5 -104.5v-39h108v-28h-108v-320z" />
<glyph horiz-adv-x="404" d="M64 617q0 63 42.5 105t106.5 42q48 0 81 -24q18 19 43.5 32.5t40.5 13.5q19 0 19 -26q0 -12 -2 -22q-3 -11 -19 -12q-43 0 -64 -1q36 -38 36 -96q0 -64 -40 -104t-104 -40q-18 0 -35 3q-16 -18 -16 -37q0 -17 10 -24t32 -9l75 -7q58 -5 90 -32.5t32 -73.5q0 -60 -54 -98 t-141 -38q-70 0 -113.5 27t-43.5 72q0 49 58 76l10 -7q-14 -20 -14 -41q1 -45 35 -71t90 -26q55 0 89.5 23.5t34.5 59.5q0 61 -83 70l-80 8q-36 4 -55 21t-19 43q0 43 41 71q-38 14 -60.5 47t-22.5 75zM284 621q0 115 -75 115q-36 0 -58.5 -29.5t-22.5 -79.5q0 -52 21 -82.5 t57 -31.5q78 0 78 108z" />
<glyph horiz-adv-x="497" d="M157 401l59 -18l-1 -14h-178l-2 14l36 11q14 5 18.5 11t4.5 20v485l-56 12l-2 11q48 19 113 26l8 -7v-239q62 51 131 51q56 0 86 -30t30 -87v-246l59 -18l-1 -14h-178l-2 14l36 11q14 5 19 11t5 20v216q0 82 -79 82q-56 0 -106 -40v-282z" />
<glyph horiz-adv-x="235" d="M123 868q-19 0 -30 12.5t-11 31.5q0 21 13.5 36.5t33.5 15.5q18 0 28.5 -12t10.5 -31q0 -22 -12.5 -37.5t-32.5 -15.5zM27 182q36 47 52 90t16 115v328l-57 12l-2 11q50 19 114 26l7 -7v-396q0 -70 -30 -113.5t-88 -78.5z" />
<glyph horiz-adv-x="456" d="M157 401l59 -18l-1 -14h-178l-2 14l36 11q14 5 18.5 11t4.5 20v486l-56 11l-2 11q52 20 113 27l8 -7v-366h77l97 137l-64 19l2 13h161l2 -13q-38 -13 -41 -15q-17 -5 -38 -31l-75 -92l96 -163q23 -38 48 -47l27 -10l-2 -16h-55q-27 0 -43 11t-31 37l-84 142h-77v-158z " />
<glyph horiz-adv-x="249" d="M157 401l59 -18l-1 -14h-178l-2 14l36 11q14 5 18.5 11t4.5 20v486l-56 11l-2 11q52 20 113 27l8 -7v-552z" />
<glyph horiz-adv-x="740" d="M165 401l59 -18l-1 -14h-178l-2 14l36 11q14 5 18.5 11t4.5 20v290l-56 12l-2 11q48 19 113 26l8 -7v-44q62 51 128 51q75 0 101 -56q61 56 134 56q58 0 88.5 -30t30.5 -87v-246l59 -18l-2 -14h-177l-2 14l35 11q14 5 19 11t5 20v216q0 82 -79 82q-54 0 -103 -38 q4 -24 4 -38v-246l59 -18l-1 -14h-178l-2 14l35 11q15 5 20 11t5 20v216q0 82 -76 82q-52 0 -103 -40v-282z" />
<glyph horiz-adv-x="419" d="M380 564q0 -94 -48.5 -148t-124.5 -55q-74 0 -120.5 54.5t-46.5 149.5q0 92 51 145.5t124 53.5q72 0 118.5 -53t46.5 -147zM104 564q0 -81 27.5 -127t76.5 -46q107 0 107 170q0 82 -27 128t-74 46q-51 0 -80.5 -43t-29.5 -128z" />
<glyph horiz-adv-x="468" d="M157 209l76 -19l-2 -13h-194l-2 13l35 12q14 4 19 10.5t5 20.5v482l-56 12l-2 11q48 19 113 26l8 -7v-41q46 48 115 48q74 0 115 -53t41 -144q0 -94 -52 -150t-139 -56q-36 0 -80 11v-163zM238 391q57 0 90.5 45.5t33.5 123.5q0 77 -28 120t-82 43t-95 -41v-269 q31 -22 81 -22z" />
<glyph horiz-adv-x="457" d="M371 209l60 -19l-2 -13h-178l-1 13l35 12q14 4 19 10.5t5 20.5v178q-48 -50 -116 -50q-68 1 -110.5 51.5t-42.5 142.5q0 96 55.5 152.5t134.5 56.5q47 0 88 -18l45 18l8 -4v-551zM236 735q-59 0 -95.5 -45t-36.5 -128q0 -76 30 -118.5t78 -42.5q60 0 97 43v269 q-35 22 -73 22z" />
<glyph horiz-adv-x="336" d="M165 401l76 -18l-2 -14h-194l-2 14l36 11q14 5 18.5 11t4.5 20v290l-56 12l-2 11q48 19 113 26l8 -7v-59q53 66 108 66q25 0 40 -12.5t15 -30.5q0 -23 -22 -43q-6 0 -8 -1q-26 33 -60 35q-37 0 -73 -47v-264z" />
<glyph horiz-adv-x="345" d="M155 361q-33 0 -66 7t-41 15q-8 9 -8 42q0 41 12 66l12 -1q8 -59 30 -81q18 -18 67 -18q37 0 58.5 16.5t21.5 45.5q0 32 -30.5 55.5t-67.5 37.5t-67.5 42.5t-30.5 69.5q0 48 41.5 77t103.5 29q32 0 61.5 -6.5t37.5 -14.5q7 -6 7 -35q0 -39 -13 -71h-12q-8 63 -27 79 q-22 19 -58 19q-35 0 -56 -17t-21 -47q0 -26 20 -46t49 -34t58 -28.5t49 -39t20 -56.5q0 -49 -41 -77.5t-109 -28.5z" />
<glyph horiz-adv-x="335" d="M320 436q-49 -75 -125 -75q-48 0 -74 30t-26 86v244h-66l-2 13l68 21l47 113l16 -1v-118h139v-28h-139v-230q0 -84 62 -84q46 0 89 38z" />
<glyph horiz-adv-x="513" d="M97 490v225l-56 12l-2 11q48 19 113 26l8 -7v-261q0 -94 87 -94q55 0 100 42v271l-56 12l-2 11q48 19 113 26l8 -7v-297q0 -32 9 -45.5t31 -13.5q16 0 35 4l3 -8q-29 -36 -76 -36q-52 0 -63 52q-52 -52 -125 -52q-61 0 -94 33.5t-33 95.5z" />
<glyph horiz-adv-x="433" d="M358 700l-121 -331h-44l-120 330q-8 23 -28 31q-2 2 -19 7t-18 6l1 13h183l2 -13l-62 -18l101 -293l101 293l-60 18l1 13h149l1 -13q-1 -1 -18 -6t-19 -7q-22 -8 -30 -30z" />
<glyph horiz-adv-x="664" d="M366 756l117 -317l83 286l-62 18l2 13h149l2 -13q-2 -1 -19 -6.5t-19 -6.5q-23 -8 -30 -30l-101 -331h-44l-113 301l-112 -301h-45l-101 330q-6 23 -28 31q-1 1 -18 6.5t-19 6.5l1 13h182l2 -13l-61 -18l83 -285l116 316h35z" />
<glyph horiz-adv-x="427" d="M133 725l98 -134l92 133l-59 19l2 13h148l2 -13q-1 -1 -10.5 -4t-18 -6.5t-10.5 -4.5q-12 -5 -33 -31l-98 -126l106 -144q15 -25 32 -31q2 -1 18 -6.5t18 -6.5l-2 -14h-177l-2 14l59 18l-102 138l-94 -138l59 -18l-1 -14h-151l-1 14q2 1 19.5 7t19.5 7q13 6 34 32 l101 130l-103 140q-16 23 -27 28q-2 1 -5 2q-2 2 -18 7.5t-17 6.5l1 13h177l2 -13z" />
<glyph horiz-adv-x="439" d="M15 756h182l2 -13l-61 -18l102 -290l100 290l-61 18l2 13h149l2 -13q-2 -1 -11.5 -4t-17.5 -5.5t-9 -3.5q-22 -8 -29 -30l-125 -343q-36 -97 -73.5 -142.5t-89.5 -45.5q-25 0 -42 14t-17 35q0 16 11 29l5 2q23 -23 53 -23q39 0 73 38.5t55 100.5l-12 -5l-123 339 q-10 25 -29 31l-9 3q-8 3 -17 6t-11 4z" />
<glyph horiz-adv-x="384" d="M344 424q-2 -35 -5 -55h-294l-5 28l235 331h-173l-38 -93h-13q-7 28 -7 69q2 38 6 52h289l6 -28l-238 -331h178l38 94h14q7 -33 7 -67z" />
<glyph horiz-adv-x="1033" d="M626 40l73 -23l-2 -17h-216l-2 17l43 14q17 6 23 13.5t6 24.5v624q-80 -25 -136.5 -76t-69.5 -124q73 -31 73 -87q0 -19 -11 -30.5t-29 -11.5q-26 0 -46 26.5t-21 66.5q0 1 0.5 4t0.5 5q-22 4 -37 4q-65 0 -106 -61.5t-41 -146.5q0 -103 43 -160t120 -57q73 0 128 49 l13 -10q-26 -43 -70 -68.5t-100 -25.5q-97 0 -154.5 67t-57.5 180q0 118 63.5 193.5t162.5 75.5q22 0 39 -4q29 184 302 254l9 -9v-306q76 65 161 65q68 0 104.5 -39t36.5 -112v-315l72 -23l-2 -17h-216l-2 17l44 14q17 6 23 13.5t6 24.5v280q0 108 -96 108q-66 0 -131 -53 v-364z" />
<glyph horiz-adv-x="848" d="M480 473q47 13 71 44.5t24 73.5q0 41 -29 68t-74 27q-65 0 -106.5 -48.5t-41.5 -115.5q0 -9 2 -23q40 -11 66 -36.5t26 -56.5q0 -19 -12 -30.5t-30 -11.5q-25 0 -48.5 29t-33.5 75q-9 3 -20 3q-64 0 -105 -62t-41 -147q0 -102 43 -159.5t120 -57.5q73 0 128 49l13 -10 q-26 -43 -70 -68.5t-100 -25.5q-97 0 -154.5 67t-57.5 181q0 117 63 192.5t161 75.5h15v14q0 88 56.5 149t145.5 61q68 0 110.5 -39.5t42.5 -99.5q0 -62 -41 -103h191v-35h-170v-298q0 -110 77 -110q54 0 108 49l13 -10q-26 -42 -65.5 -68t-86.5 -26q-59 0 -90 38t-31 110 v315h-67z" />
<glyph horiz-adv-x="993" d="M227 470q-40 0 -68 -23.5t-28 -61.5q0 -33 25 -58.5t60.5 -43t70.5 -37t60 -50.5t25 -72q0 -61 -50 -97.5t-132 -36.5q-42 0 -81.5 8.5t-49.5 19.5t-10 53q0 45 14 84l15 -1q9 -76 37 -104q21 -23 82 -23q45 0 71.5 22t26.5 59q0 34 -24.5 60t-59.5 43.5t-70.5 36.5 t-60 50.5t-24.5 74.5q0 58 52 95.5t124 37.5q22 0 39 -4q29 181 306 254l9 -9v-306q76 65 161 65q68 0 104 -38.5t36 -112.5v-315l73 -23l-2 -17h-216l-2 17l43 14q17 6 23 13.5t6 24.5v280q0 108 -96 108q-65 0 -130 -53v-364l73 -23l-2 -17h-216l-2 17l43 14q17 6 23 13.5 t6 24.5v623q-82 -27 -139.5 -76.5t-70.5 -123.5q63 -28 63 -79q0 -17 -9 -26.5t-24 -9.5q-25 0 -44.5 24t-19.5 58v5q-24 6 -40 6z" />
<glyph horiz-adv-x="593" d="M275 536h43l183 -470q7 -16 14 -23.5t21 -12.5l42 -12l-2 -18h-212l-2 18l70 19l-51 133l-209 -2l-50 -129l68 -21l-2 -18h-170l-2 18q2 1 23 7.5t23 8.5q21 8 30 32zM185 202l184 -1l-92 238z" />
<glyph horiz-adv-x="593" d="M411 767q0 -27 -51.5 -69t-123.5 -82l-12 13q89 104 122 166l6 3h12q47 0 47 -31zM275 536h43l183 -470q7 -16 14 -23.5t21 -12.5l42 -12l-2 -18h-212l-2 18l70 19l-51 133l-209 -2l-50 -129l68 -21l-2 -18h-170l-2 18q2 1 23 7.5t23 8.5q21 8 30 32zM185 202l184 -1 l-92 238z" />
<glyph horiz-adv-x="593" d="M407 775l4 2l15 -4q-10 -63 -45 -99t-85 -36t-83 36.5t-39 99.5l18 3q11 -37 39.5 -58.5t70.5 -21.5q37 0 65 20.5t40 57.5zM275 536h43l183 -470q7 -16 14 -23.5t21 -12.5l42 -12l-2 -18h-212l-2 18l70 19l-51 133l-209 -2l-50 -129l68 -21l-2 -18h-170l-2 18 q2 1 23 7.5t23 8.5q21 8 30 32zM185 202l184 -1l-92 238z" />
<glyph horiz-adv-x="593" d="M331 628l-7 -5h-55q-57 79 -107 162l14 10q76 -72 124 -110q71 69 124 110l13 -12q-75 -96 -106 -155zM275 536h43l183 -470q7 -16 14 -23.5t21 -12.5l42 -12l-2 -18h-212l-2 18l70 19l-51 133l-209 -2l-50 -129l68 -21l-2 -18h-170l-2 18q2 1 23 7.5t23 8.5q21 8 30 32z M185 202l184 -1l-92 238z" />
<glyph horiz-adv-x="593" d="M436 631l-14 -10q-76 72 -124 110q-71 -69 -124 -110l-12 13q74 98 105 154l7 5h55q57 -79 107 -162zM275 536h43l183 -470q7 -16 14 -23.5t21 -12.5l42 -12l-2 -18h-212l-2 18l70 19l-51 133l-209 -2l-50 -129l68 -21l-2 -18h-170l-2 18q2 1 23 7.5t23 8.5q21 8 30 32z M185 202l184 -1l-92 238z" />
<glyph horiz-adv-x="593" d="M449 712q0 -25 -14 -43t-37 -18q-20 0 -32.5 14.5t-12.5 36.5q0 24 15 42t37 18q19 0 31.5 -14t12.5 -36zM246 712q0 -25 -14 -43t-37 -18q-20 0 -32.5 15t-12.5 36q0 24 15 42t37 18q20 0 32 -14t12 -36zM275 536h43l183 -470q7 -16 14 -23.5t21 -12.5l42 -12l-2 -18 h-212l-2 18l70 19l-51 133l-209 -2l-50 -129l68 -21l-2 -18h-170l-2 18q2 1 23 7.5t23 8.5q21 8 30 32zM185 202l184 -1l-92 238z" />
<glyph horiz-adv-x="593" d="M275 536h43l183 -470q7 -16 14 -23.5t21 -12.5l42 -12l-2 -18h-212l-2 18l70 19l-51 133l-209 -2l-50 -129l68 -21l-2 -18h-170l-2 18q2 1 23 7.5t23 8.5q21 8 30 32zM185 202l184 -1l-92 238zM334 -162q0 -26 -14.5 -44t-39.5 -18q-22 0 -35.5 15.5t-13.5 38.5 q0 25 16.5 43t40.5 18q21 0 33.5 -15t12.5 -38z" />
<glyph horiz-adv-x="593" d="M376 629l-12 -13q-72 40 -124 82t-52 69q0 31 48 31h11l7 -3q35 -67 122 -166zM275 536h43l183 -470q7 -16 14 -23.5t21 -12.5l42 -12l-2 -18h-212l-2 18l70 19l-51 133l-209 -2l-50 -129l68 -21l-2 -18h-170l-2 18q2 1 23 7.5t23 8.5q21 8 30 32zM185 202l184 -1 l-92 238z" />
<glyph horiz-adv-x="593" d="M160 683v46h278v-46h-278zM275 536h43l183 -470q7 -16 14 -23.5t21 -12.5l42 -12l-2 -18h-212l-2 18l70 19l-51 133l-209 -2l-50 -129l68 -21l-2 -18h-170l-2 18q2 1 23 7.5t23 8.5q21 8 30 32zM185 202l184 -1l-92 238z" />
<glyph horiz-adv-x="595" d="M573 -181q-35 -43 -94 -43q-38 0 -60.5 21.5t-22.5 59.5q0 85 132 143h-164l-2 18l70 19l-51 133l-209 -2l-50 -129l68 -21l-2 -18h-170l-2 18q2 1 23 7.5t23 8.5q21 8 30 32l183 470h43l183 -470q7 -16 14 -23.5t21 -12.5l42 -12l-2 -18q-113 -57 -113 -127 q0 -50 56 -50q26 0 50 6zM185 202l184 -1l-92 238z" />
<glyph horiz-adv-x="593" d="M295 629q-37 0 -60 20.5t-23 54.5q0 36 25.5 58.5t64.5 22.5q38 0 61.5 -21t22.5 -54q-1 -35 -26.5 -58t-64.5 -23zM299 758q-20 0 -33 -15t-13 -38q0 -22 12.5 -35.5t32.5 -13.5t33 15.5t13 39.5q0 20 -13 33.5t-32 13.5zM275 536h43l183 -470q7 -16 14 -23.5t21 -12.5 l42 -12l-2 -18h-212l-2 18l70 19l-51 133l-209 -2l-50 -129l68 -21l-2 -18h-170l-2 18q2 1 23 7.5t23 8.5q21 8 30 32zM185 202l184 -1l-92 238z" />
<glyph horiz-adv-x="593" d="M401 992q0 -27 -51.5 -69t-123.5 -82l-12 13q89 104 122 166l6 3h12q47 0 47 -31zM295 629q-37 0 -60 20.5t-23 54.5q0 36 25.5 58.5t64.5 22.5q38 0 61.5 -21t22.5 -54q-1 -35 -26.5 -58t-64.5 -23zM299 758q-20 0 -33 -15t-13 -38q0 -22 12.5 -35.5t32.5 -13.5t33 15.5 t13 39.5q0 20 -13 33.5t-32 13.5zM275 536h43l183 -470q7 -16 14 -23.5t21 -12.5l42 -12l-2 -18h-212l-2 18l70 19l-51 133l-209 -2l-50 -129l68 -21l-2 -18h-170l-2 18q2 1 23 7.5t23 8.5q21 8 30 32zM185 202l184 -1l-92 238z" />
<glyph horiz-adv-x="593" d="M148 649l-16 5v7q13 106 82 106q29 0 102.5 -27.5t88.5 -29.5l19 24q18 25 27 40l16 -6v-9q-14 -103 -81 -103q-29 0 -104.5 27.5t-86.5 29.5q-29 -33 -47 -64zM275 536h43l183 -470q7 -16 14 -23.5t21 -12.5l42 -12l-2 -18h-212l-2 18l70 19l-51 133l-209 -2l-50 -129 l68 -21l-2 -18h-170l-2 18q2 1 23 7.5t23 8.5q21 8 30 32zM185 202l184 -1l-92 238z" />
<glyph horiz-adv-x="786" d="M18 0l-2 18q2 1 23 7.5t23 8.5q21 8 30 32l168 429l-73 22l2 19h536q5 -37 5 -77q0 -42 -5 -87h-17l-21 63q-15 44 -24 64q-42 2 -83 2h-103v-220l179 6l-1 -46l-178 5v-211h112q55 0 83 4q4 10 11.5 32t11.5 31l21 62h17q6 -46 6 -85q0 -43 -6 -79h-401l-2 19l46 13 q26 8 26 37v178l-200 -2l-80 -206l68 -21l-2 -18h-170zM402 501h-101l-86 -222l187 -1v223z" />
<glyph horiz-adv-x="786" d="M575 767q0 -27 -52 -69t-124 -82l-12 13q87 99 122 166l6 3h12q48 0 48 -31zM18 0l-2 18q2 1 23 7.5t23 8.5q21 8 30 32l168 429l-73 22l2 19h536q5 -37 5 -77q0 -42 -5 -87h-17l-21 63q-15 44 -24 64q-42 2 -83 2h-103v-220l179 6l-1 -46l-178 5v-211h112q55 0 83 4 q4 10 11.5 32t11.5 31l21 62h17q6 -46 6 -85q0 -43 -6 -79h-401l-2 19l46 13q26 8 26 37v178l-200 -2l-80 -206l68 -21l-2 -18h-170zM402 501h-101l-86 -222l187 -1v223z" />
<glyph horiz-adv-x="539" d="M55 517l2 19h215q87 0 138 -34t51 -98q0 -47 -29.5 -79.5t-72.5 -43.5q66 -14 103.5 -48t37.5 -85q0 -71 -56 -109.5t-152 -38.5h-235l-2 19l45 13q27 8 27 37v399q0 28 -27 36zM261 501h-59v-211h65q52 0 86 29.5t34 79.5q0 49 -33 75.5t-93 26.5zM265 257h-63v-222h74 q68 0 107 29.5t39 83.5q0 50 -42.5 79.5t-114.5 29.5z" />
<glyph horiz-adv-x="540" d="M480 10q-60 -20 -144 -20q-133 0 -210.5 70.5t-77.5 199.5q0 130 80.5 208t201.5 78q80 0 140 -24q3 -21 3 -53q0 -56 -8 -99h-17q-31 91 -51 131q-38 8 -66 8q-88 0 -147 -69.5t-59 -179.5q0 -105 59 -168.5t156 -63.5q38 0 70 7q15 32 51 127h17q6 -30 6 -74 q0 -53 -4 -78z" />
<glyph horiz-adv-x="540" d="M423 767q0 -27 -52 -69t-124 -82l-11 13q87 101 121 166l7 3h11q48 0 48 -31zM480 10q-60 -20 -144 -20q-133 0 -210.5 70.5t-77.5 199.5q0 130 80.5 208t201.5 78q80 0 140 -24q3 -21 3 -53q0 -56 -8 -99h-17q-31 91 -51 131q-38 8 -66 8q-88 0 -147 -69.5t-59 -179.5 q0 -105 59 -168.5t156 -63.5q38 0 70 7q15 32 51 127h17q6 -30 6 -74q0 -53 -4 -78z" />
<glyph horiz-adv-x="540" d="M353 628l-7 -5h-55q-57 79 -107 162l14 10q76 -72 124 -110q71 69 124 110l12 -12q-76 -99 -105 -155zM480 10q-60 -20 -144 -20q-133 0 -210.5 70.5t-77.5 199.5q0 130 80.5 208t201.5 78q80 0 140 -24q3 -21 3 -53q0 -56 -8 -99h-17q-31 91 -51 131q-38 8 -66 8 q-88 0 -147 -69.5t-59 -179.5q0 -105 59 -168.5t156 -63.5q38 0 70 7q15 32 51 127h17q6 -30 6 -74q0 -53 -4 -78z" />
<glyph horiz-adv-x="540" d="M287 -99l-4 6l15 85q-117 10 -183.5 79.5t-66.5 188.5q0 130 80.5 208t201.5 78q80 0 140 -24q3 -21 3 -53q0 -56 -8 -99h-17q-31 91 -51 131q-38 8 -66 8q-88 0 -147 -69.5t-59 -179.5q0 -105 59 -168.5t156 -63.5q38 0 70 7q15 32 51 127h17q6 -30 6 -74q0 -53 -4 -78 q-60 -20 -144 -20l-10 -53q42 -9 65 -28t23 -45q0 -38 -42 -61t-107 -27l-4 15q82 24 82 64q0 32 -56 46z" />
<glyph horiz-adv-x="540" d="M454 631l-14 -10q-76 72 -124 110q-71 -69 -124 -110l-12 13q74 98 105 154l7 5h55q57 -79 107 -162zM480 10q-60 -20 -144 -20q-133 0 -210.5 70.5t-77.5 199.5q0 130 80.5 208t201.5 78q80 0 140 -24q3 -21 3 -53q0 -56 -8 -99h-17q-31 91 -51 131q-38 8 -66 8 q-88 0 -147 -69.5t-59 -179.5q0 -105 59 -168.5t156 -63.5q38 0 70 7q15 32 51 127h17q6 -30 6 -74q0 -53 -4 -78z" />
<glyph horiz-adv-x="540" d="M373 708q0 -25 -15 -43.5t-40 -18.5q-21 0 -35 15.5t-14 38.5q0 24 16.5 42.5t40.5 18.5q21 0 34 -14.5t13 -38.5zM480 10q-60 -20 -144 -20q-133 0 -210.5 70.5t-77.5 199.5q0 130 80.5 208t201.5 78q80 0 140 -24q3 -21 3 -53q0 -56 -8 -99h-17q-31 91 -51 131 q-38 8 -66 8q-88 0 -147 -69.5t-59 -179.5q0 -105 59 -168.5t156 -63.5q38 0 70 7q15 32 51 127h17q6 -30 6 -74q0 -53 -4 -78z" />
<glyph horiz-adv-x="603" d="M556 268q0 -127 -77.5 -197.5t-211.5 -70.5h-210l-2 19l45 13q27 8 27 37v399q0 28 -27 36l-45 13l2 19h210q135 0 212 -70t77 -198zM264 501h-62v-466h62q104 0 159 60t55 173t-55 173t-159 60z" />
<glyph horiz-adv-x="603" d="M556 268q0 -127 -77.5 -197.5t-211.5 -70.5h-210l-2 19l45 13q27 8 27 37v182h-104v35h104v182q0 28 -27 36l-45 13l2 19h210q135 0 212 -70t77 -198zM345 251h-143v-216h62q104 0 159 60t55 173t-55 173t-159 60h-62v-215h143v-35z" />
<glyph horiz-adv-x="603" d="M336 628l-8 -5h-54q-54 74 -108 162l15 10q76 -72 123 -110q79 74 125 110l12 -12q-76 -99 -105 -155zM556 268q0 -127 -77.5 -197.5t-211.5 -70.5h-210l-2 19l45 13q27 8 27 37v399q0 28 -27 36l-45 13l2 19h210q135 0 212 -70t77 -198zM264 501h-62v-466h62 q104 0 159 60t55 173t-55 173t-159 60z" />
<glyph horiz-adv-x="603" d="M556 268q0 -127 -77.5 -197.5t-211.5 -70.5h-210l-2 19l45 13q27 8 27 37v182h-104v35h104v182q0 28 -27 36l-45 13l2 19h210q135 0 212 -70t77 -198zM345 251h-143v-216h62q104 0 159 60t55 173t-55 173t-159 60h-62v-215h143v-35z" />
<glyph horiz-adv-x="603" d="M556 268q0 -127 -77.5 -197.5t-211.5 -70.5h-210l-2 19l45 13q27 8 27 37v399q0 28 -27 36l-45 13l2 19h210q135 0 212 -70t77 -198zM264 501h-62v-466h62q104 0 159 60t55 173t-55 173t-159 60zM345 -162q0 -26 -15 -44t-40 -18q-21 0 -34.5 15.5t-13.5 38.5 q0 24 16 42.5t40 18.5q21 0 34 -14.5t13 -38.5z" />
<glyph horiz-adv-x="511" d="M202 281l179 6l-2 -46l-177 5v-211h111q55 0 84 4q4 10 11.5 32t11.5 31l21 62h16q6 -35 6 -85q0 -49 -5 -79h-401l-2 19l45 13q27 8 27 37v399q0 28 -27 36l-45 13l2 19h392q6 -33 6 -77q0 -47 -6 -87h-16l-21 63q-15 44 -24 64q-42 2 -83 2h-103v-220z" />
<glyph horiz-adv-x="511" d="M389 767q0 -27 -52 -69t-124 -82l-11 13q87 101 121 166l7 3h11q48 0 48 -31zM202 281l179 6l-2 -46l-177 5v-211h111q55 0 84 4q4 10 11.5 32t11.5 31l21 62h16q6 -35 6 -85q0 -49 -5 -79h-401l-2 19l45 13q27 8 27 37v399q0 28 -27 36l-45 13l2 19h392q6 -33 6 -77 q0 -47 -6 -87h-16l-21 63q-15 44 -24 64q-42 2 -83 2h-103v-220z" />
<glyph horiz-adv-x="511" d="M384 775l5 2l15 -4q-10 -63 -45 -99t-85 -36t-83 36.5t-40 99.5l19 3q11 -37 39.5 -58.5t69.5 -21.5q38 0 66 20.5t39 57.5zM202 281l179 6l-2 -46l-177 5v-211h111q55 0 84 4q4 10 11.5 32t11.5 31l21 62h16q6 -35 6 -85q0 -49 -5 -79h-401l-2 19l45 13q27 8 27 37v399 q0 28 -27 36l-45 13l2 19h392q6 -33 6 -77q0 -47 -6 -87h-16l-21 63q-15 44 -24 64q-42 2 -83 2h-103v-220z" />
<glyph horiz-adv-x="511" d="M309 628l-7 -5h-55q-57 79 -107 162l14 10q76 -72 124 -110q71 69 124 110l12 -12q-76 -99 -105 -155zM202 281l179 6l-2 -46l-177 5v-211h111q55 0 84 4q4 10 11.5 32t11.5 31l21 62h16q6 -35 6 -85q0 -49 -5 -79h-401l-2 19l45 13q27 8 27 37v399q0 28 -27 36l-45 13 l2 19h392q6 -33 6 -77q0 -47 -6 -87h-16l-21 63q-15 44 -24 64q-42 2 -83 2h-103v-220z" />
<glyph horiz-adv-x="511" d="M414 631l-14 -10q-76 72 -124 110q-65 -63 -124 -110l-13 13q73 94 106 154l7 5h55q57 -79 107 -162zM202 281l179 6l-2 -46l-177 5v-211h111q55 0 84 4q4 10 11.5 32t11.5 31l21 62h16q6 -35 6 -85q0 -49 -5 -79h-401l-2 19l45 13q27 8 27 37v399q0 28 -27 36l-45 13 l2 19h392q6 -33 6 -77q0 -47 -6 -87h-16l-21 63q-15 44 -24 64q-42 2 -83 2h-103v-220z" />
<glyph horiz-adv-x="511" d="M427 712q0 -25 -14 -43t-38 -18q-20 0 -32.5 15t-12.5 36q0 24 15.5 42t37.5 18q19 0 31.5 -14t12.5 -36zM224 712q0 -25 -14 -43t-37 -18q-20 0 -32.5 14.5t-12.5 36.5q0 24 15 42t37 18q19 0 31.5 -14t12.5 -36zM202 281l179 6l-2 -46l-177 5v-211h111q55 0 84 4 q4 10 11.5 32t11.5 31l21 62h16q6 -35 6 -85q0 -49 -5 -79h-401l-2 19l45 13q27 8 27 37v399q0 28 -27 36l-45 13l2 19h392q6 -33 6 -77q0 -47 -6 -87h-16l-21 63q-15 44 -24 64q-42 2 -83 2h-103v-220z" />
<glyph horiz-adv-x="511" d="M329 708q0 -25 -15 -43.5t-40 -18.5q-21 0 -35 15.5t-14 38.5q0 24 16.5 42.5t40.5 18.5q21 0 34 -14.5t13 -38.5zM202 281l179 6l-2 -46l-177 5v-211h111q55 0 84 4q4 10 11.5 32t11.5 31l21 62h16q6 -35 6 -85q0 -49 -5 -79h-401l-2 19l45 13q27 8 27 37v399 q0 28 -27 36l-45 13l2 19h392q6 -33 6 -77q0 -47 -6 -87h-16l-21 63q-15 44 -24 64q-42 2 -83 2h-103v-220z" />
<glyph horiz-adv-x="511" d="M202 281l179 6l-2 -46l-177 5v-211h111q55 0 84 4q4 10 11.5 32t11.5 31l21 62h16q6 -35 6 -85q0 -49 -5 -79h-401l-2 19l45 13q27 8 27 37v399q0 28 -27 36l-45 13l2 19h392q6 -33 6 -77q0 -47 -6 -87h-16l-21 63q-15 44 -24 64q-42 2 -83 2h-103v-220zM341 -162 q0 -26 -14.5 -44t-39.5 -18q-22 0 -35.5 15.5t-13.5 38.5q0 25 16.5 43t40.5 18q21 0 33.5 -15t12.5 -38z" />
<glyph horiz-adv-x="511" d="M353 629l-11 -13q-72 40 -124 82t-52 69q0 31 48 31h11l7 -3q34 -65 121 -166zM202 281l179 6l-2 -46l-177 5v-211h111q55 0 84 4q4 10 11.5 32t11.5 31l21 62h16q6 -35 6 -85q0 -49 -5 -79h-401l-2 19l45 13q27 8 27 37v399q0 28 -27 36l-45 13l2 19h392q6 -33 6 -77 q0 -47 -6 -87h-16l-21 63q-15 44 -24 64q-42 2 -83 2h-103v-220z" />
<glyph horiz-adv-x="511" d="M138 683v46h278v-46h-278zM202 281l179 6l-2 -46l-177 5v-211h111q55 0 84 4q4 10 11.5 32t11.5 31l21 62h16q6 -35 6 -85q0 -49 -5 -79h-401l-2 19l45 13q27 8 27 37v399q0 28 -27 36l-45 13l2 19h392q6 -33 6 -77q0 -47 -6 -87h-16l-21 63q-15 44 -24 64q-42 2 -83 2 h-103v-220z" />
<glyph horiz-adv-x="511" d="M202 281l179 6l-2 -46l-177 5v-211h111q55 0 84 4q4 10 11.5 32t11.5 31l21 62h16q6 -35 6 -85q0 -49 -5 -79q-113 -57 -113 -127q0 -50 56 -50q26 0 50 6l4 -10q-37 -43 -94 -43q-38 0 -60.5 21.5t-22.5 59.5q0 85 132 143h-353l-2 19l45 13q27 8 27 37v399q0 28 -27 36 l-45 13l2 19h392q6 -33 6 -77q0 -47 -6 -87h-16l-21 63q-15 44 -24 64q-42 2 -83 2h-103v-220z" />
<glyph horiz-adv-x="511" d="M126 649l-16 5v7q13 106 82 106q29 0 102.5 -27.5t87.5 -29.5q39 51 47 64l16 -6v-9q-14 -103 -81 -103q-29 0 -104.5 27.5t-86.5 29.5q-29 -33 -47 -64zM202 281l179 6l-2 -46l-177 5v-211h111q55 0 84 4q4 10 11.5 32t11.5 31l21 62h16q6 -35 6 -85q0 -49 -5 -79h-401 l-2 19l45 13q27 8 27 37v399q0 28 -27 36l-45 13l2 19h392q6 -33 6 -77q0 -47 -6 -87h-16l-21 63q-15 44 -24 64q-42 2 -83 2h-103v-220z" />
<glyph horiz-adv-x="541" d="M260 -10q-92 0 -149.5 56t-57.5 150q0 38 1 55l11 12h358q-1 121 -42.5 183.5t-119.5 62.5q-55 0 -93.5 -31.5t-38.5 -76.5q0 -17 7 -32q-17 -10 -36 -10q-18 0 -29.5 11t-11.5 29q0 58 62 102.5t144 44.5q107 0 171.5 -73.5t64.5 -192.5q0 -128 -68 -209t-173 -81z M129 188q0 -161 136 -161q68 0 110.5 57t47.5 148l-293 -6q-1 -14 -1 -38z" />
<glyph horiz-adv-x="477" d="M202 42l89 -23l-2 -19h-232l-2 19l45 13q27 8 27 37v399q0 28 -27 36l-45 13l2 19h390q7 -31 7 -77q0 -47 -6 -87h-17l-21 63q-14 40 -22 64q-44 2 -85 2h-101v-227l177 6l-1 -47l-176 5v-196z" />
<glyph horiz-adv-x="601" d="M340 -10q-138 0 -215 70.5t-77 203.5q0 128 84 205t209 77q84 0 151 -24q3 -21 3 -53q0 -55 -8 -98l-16 -1q-5 9 -25.5 66t-25.5 64q-41 9 -78 9q-92 0 -154.5 -68t-62.5 -175q0 -111 59.5 -174.5t158.5 -63.5q45 0 81 9v169l-72 23l2 19h207l2 -19l-43 -12 q-23 -7 -23 -36v-166q-61 -25 -157 -25z" />
<glyph horiz-adv-x="601" d="M436 767q0 -27 -51.5 -69t-123.5 -82l-12 13q89 104 122 166l6 3h12q47 0 47 -31zM340 -10q-138 0 -215 70.5t-77 203.5q0 128 84 205t209 77q84 0 151 -24q3 -21 3 -53q0 -55 -8 -98l-16 -1q-5 9 -25.5 66t-25.5 64q-41 9 -78 9q-92 0 -154.5 -68t-62.5 -175 q0 -111 59.5 -174.5t158.5 -63.5q45 0 81 9v169l-72 23l2 19h207l2 -19l-43 -12q-23 -7 -23 -36v-166q-61 -25 -157 -25z" />
<glyph horiz-adv-x="601" d="M432 775l4 2l15 -4q-10 -63 -45 -99t-85 -36t-83 36.5t-39 99.5l18 3q11 -37 39.5 -58.5t70.5 -21.5q37 0 65 20.5t40 57.5zM340 -10q-138 0 -215 70.5t-77 203.5q0 128 84 205t209 77q84 0 151 -24q3 -21 3 -53q0 -55 -8 -98l-16 -1q-5 9 -25.5 66t-25.5 64q-41 9 -78 9 q-92 0 -154.5 -68t-62.5 -175q0 -111 59.5 -174.5t158.5 -63.5q45 0 81 9v169l-72 23l2 19h207l2 -19l-43 -12q-23 -7 -23 -36v-166q-61 -25 -157 -25z" />
<glyph horiz-adv-x="601" d="M356 628l-7 -5h-55q-57 79 -107 162l14 10q76 -72 124 -110q71 69 124 110l13 -12q-75 -96 -106 -155zM340 -10q-138 0 -215 70.5t-77 203.5q0 128 84 205t209 77q84 0 151 -24q3 -21 3 -53q0 -55 -8 -98l-16 -1q-5 9 -25.5 66t-25.5 64q-41 9 -78 9q-92 0 -154.5 -68 t-62.5 -175q0 -111 59.5 -174.5t158.5 -63.5q45 0 81 9v169l-72 23l2 19h207l2 -19l-43 -12q-23 -7 -23 -36v-166q-61 -25 -157 -25z" />
<glyph horiz-adv-x="601" d="M460 631l-14 -10q-76 72 -124 110q-65 -63 -124 -110l-13 13q73 94 106 154l7 5h55q57 -79 107 -162zM340 -10q-138 0 -215 70.5t-77 203.5q0 128 84 205t209 77q84 0 151 -24q3 -21 3 -53q0 -55 -8 -98l-16 -1q-5 9 -25.5 66t-25.5 64q-41 9 -78 9q-92 0 -154.5 -68 t-62.5 -175q0 -111 59.5 -174.5t158.5 -63.5q45 0 81 9v169l-72 23l2 19h207l2 -19l-43 -12q-23 -7 -23 -36v-166q-61 -25 -157 -25z" />
<glyph horiz-adv-x="601" d="M340 -10q-138 0 -215 70.5t-77 203.5q0 128 84 205t209 77q84 0 151 -24q3 -21 3 -53q0 -55 -8 -98l-16 -1q-5 9 -25.5 66t-25.5 64q-41 9 -78 9q-92 0 -154.5 -68t-62.5 -175q0 -111 59.5 -174.5t158.5 -63.5q45 0 81 9v169l-72 23l2 19h207l2 -19l-43 -12 q-23 -7 -23 -36v-166q-61 -25 -157 -25zM370 -164q0 -44 -27.5 -93t-62.5 -73l-12 9q28 41 40 108q-41 7 -41 48q0 23 15 39.5t37 16.5q24 0 37.5 -14.5t13.5 -40.5z" />
<glyph horiz-adv-x="601" d="M380 708q0 -25 -15 -43.5t-40 -18.5q-21 0 -35 15.5t-14 38.5q0 24 16.5 42.5t40.5 18.5q21 0 34 -14.5t13 -38.5zM340 -10q-138 0 -215 70.5t-77 203.5q0 128 84 205t209 77q84 0 151 -24q3 -21 3 -53q0 -55 -8 -98l-16 -1q-5 9 -25.5 66t-25.5 64q-41 9 -78 9 q-92 0 -154.5 -68t-62.5 -175q0 -111 59.5 -174.5t158.5 -63.5q45 0 81 9v169l-72 23l2 19h207l2 -19l-43 -12q-23 -7 -23 -36v-166q-61 -25 -157 -25z" />
<glyph horiz-adv-x="680" d="M202 42l73 -23l-2 -19h-216l-2 19l45 13q27 8 27 37v426l-72 22l2 19h216l2 -19l-46 -13q-27 -8 -27 -36v-180h276v207l-72 22l2 19h216l2 -19l-46 -13q-27 -8 -27 -36v-426l73 -23l-2 -19h-216l-2 19l46 13q26 8 26 37v182h-276v-209z" />
<glyph horiz-adv-x="680" d="M202 42l73 -23l-2 -19h-216l-2 19l45 13q27 8 27 37v308h-70v35h70v83l-72 22l2 19h216l2 -19l-46 -13q-27 -8 -27 -36v-56h276v83l-72 22l2 19h216l2 -19l-46 -13q-27 -8 -27 -36v-56h69v-35h-69v-335l73 -23l-2 -19h-216l-2 19l46 13q26 8 26 37v182h-276v-209z M202 288h276v89h-276v-89z" />
<glyph horiz-adv-x="680" d="M478 631l-15 -10q-76 72 -123 110q-78 -74 -124 -110l-13 13q66 85 106 154l7 5h54q45 -60 108 -162zM202 42l73 -23l-2 -19h-216l-2 19l45 13q27 8 27 37v426l-72 22l2 19h216l2 -19l-46 -13q-27 -8 -27 -36v-180h276v207l-72 22l2 19h216l2 -19l-46 -13q-27 -8 -27 -36 v-426l73 -23l-2 -19h-216l-2 19l46 13q26 8 26 37v182h-276v-209z" />
<glyph horiz-adv-x="680" d="M202 42l73 -23l-2 -19h-216l-2 19l45 13q27 8 27 37v426l-72 22l2 19h216l2 -19l-46 -13q-27 -8 -27 -36v-180h276v207l-72 22l2 19h216l2 -19l-46 -13q-27 -8 -27 -36v-426l73 -23l-2 -19h-216l-2 19l46 13q26 8 26 37v182h-276v-209zM391 -162q0 -26 -15 -44t-40 -18 q-21 0 -34.5 15.5t-13.5 38.5q0 24 16 42.5t40 18.5q21 0 34 -14.5t13 -38.5z" />
<glyph horiz-adv-x="329" d="M202 42l73 -23l-2 -19h-216l-2 19l45 13q27 8 27 37v426l-72 22l2 19h216l2 -19l-46 -13q-27 -8 -27 -36v-426z" />
<glyph horiz-adv-x="329" d="M202 42l73 -23l-2 -19h-216l-2 19l45 13q27 8 27 37v426l-72 22l2 19h216l2 -19l-46 -13q-27 -8 -27 -36v-426z" />
<glyph horiz-adv-x="329" d="M269 766q0 -27 -52 -69.5t-123 -81.5l-12 13q91 105 122 165l6 4h12q47 0 47 -31zM202 42l73 -23l-2 -19h-216l-2 19l45 13q27 8 27 37v426l-72 22l2 19h216l2 -19l-46 -13q-27 -8 -27 -36v-426z" />
<glyph horiz-adv-x="329" d="M277 765q-6 -61 -37 -97t-78 -36q-45 0 -73.5 36t-32.5 98l18 3q7 -35 32.5 -56.5t61.5 -21.5q35 0 59.5 21t30.5 55l4 2zM202 42l73 -23l-2 -19h-216l-2 19l45 13q27 8 27 37v426l-72 22l2 19h216l2 -19l-46 -13q-27 -8 -27 -36v-426z" />
<glyph horiz-adv-x="329" d="M204 615l-8 -5h-56q-32 65 -74 163l15 10q51 -65 91 -106q48 62 91 106l13 -12q-51 -96 -72 -156zM202 42l73 -23l-2 -19h-216l-2 19l45 13q27 8 27 37v426l-72 22l2 19h216l2 -19l-46 -13q-27 -8 -27 -36v-426z" />
<glyph horiz-adv-x="329" d="M270 623l-15 -10q-58 71 -91 107q-55 -69 -91 -107l-13 13q49 91 72 156l8 5h56q40 -84 74 -164zM202 42l73 -23l-2 -19h-216l-2 19l45 13q27 8 27 37v426l-72 22l2 19h216l2 -19l-46 -13q-27 -8 -27 -36v-426z" />
</font>
</defs>
</svg>
