<?xml version="1.0" standalone="no"?>
<!DOCTYPE svg PUBLIC "-//W3C//DTD SVG 1.1//EN" "http://www.w3.org/Graphics/SVG/1.1/DTD/svg11.dtd" >
<svg xmlns="http://www.w3.org/2000/svg" xmlns:xlink="http://www.w3.org/1999/xlink" version="1.1">
<metadata></metadata>
<defs>
<font id="indivisa_text_serifLtIt" horiz-adv-x="560" >
<font-face units-per-em="1000" ascent="800" descent="-200" />
<missing-glyph horiz-adv-x="250" />
<glyph unicode="&#xfb00;" horiz-adv-x="544" d="M138 -8q-25 -116 -73.5 -181.5t-117.5 -65.5q-37 0 -61 17.5t-24 42.5q0 21 17 30q41 -57 90 -57q48 0 75.5 49t49.5 153l102 480h-72l2 12l76 18l4 18q23 108 79 167.5t132 59.5q35 0 64 -17t41 -41q52 78 126 78q37 0 61 -17.5t24 -42.5q0 -21 -17 -30q-41 57 -90 57 q-48 0 -75.5 -49t-49.5 -153l-6 -30h130l-6 -30h-131l-98 -468q-53 -247 -176 -247q-30 0 -50 17.5t-20 42.5q0 21 17 30q33 -57 73 -57q43 0 66 47.5t46 154.5l102 480h-212zM249 520l-6 -30h211l4 18q17 77 42 131q-12 27 -38 45t-62 18q-60 0 -96 -45.5t-55 -136.5z" />
<glyph unicode="&#xfb03;" horiz-adv-x="738" d="M138 -8q-25 -116 -73.5 -181.5t-117.5 -65.5q-37 0 -61 17.5t-24 42.5q0 21 17 30q41 -57 90 -57q48 0 75.5 49t49.5 153l102 480h-72l2 12l76 18l4 18q22 107 78.5 167t132.5 60q37 0 65.5 -18t40.5 -42q55 80 136 80q42 0 71.5 -28.5t29.5 -68.5q0 -16 -9 -25.5 t-25 -7.5q-14 97 -82 97q-56 0 -89 -50t-54 -152l-6 -30h164q72 0 72 -56q0 -22 -12.5 -78.5t-31.5 -133t-25 -102.5q-10 -50 -10 -63q0 -27 18 -27q29 0 98 102l8 -5q-25 -55 -57 -96t-65 -41q-43 0 -43 56q0 21 11 74q7 34 25.5 107t30.5 126t12 70q0 37 -45 37h-157 l-98 -468q-53 -247 -176 -247q-30 0 -50 17.5t-20 42.5q0 21 17 30q33 -57 73 -57q43 0 66 47.5t46 154.5l102 480h-212zM249 520l-6 -30h211l4 18q17 79 43 129q-12 27 -38 46t-63 19q-113 0 -151 -182z" />
<glyph unicode="&#xfb04;" horiz-adv-x="769" d="M138 -8q-25 -116 -73.5 -181.5t-117.5 -65.5q-37 0 -61 17.5t-24 42.5q0 21 17 30q41 -57 90 -57q48 0 75.5 49t49.5 153l102 480h-72l2 12l76 18l4 18q22 107 78.5 167t132.5 60q39 0 69.5 -20.5t39.5 -46.5q66 87 164 87q34 0 55 -13l45 12l8 -8l-137 -626 q-10 -50 -10 -63q0 -27 18 -27q29 0 98 102l8 -5q-25 -55 -57 -96t-65 -41q-43 0 -43 56q0 21 11 74l125 566q-29 36 -78 36q-126 0 -167 -202l-6 -30h164l-14 -30h-157l-98 -468q-25 -116 -73.5 -181.5t-117.5 -65.5q-37 0 -61 17.5t-24 42.5q0 21 17 30q41 -57 90 -57 q48 0 75.5 49t49.5 153l102 480h-212zM249 520l-6 -30h211l4 18q15 73 45 125q-11 29 -38 49t-65 20q-113 0 -151 -182z" />
<glyph unicode="fi" horiz-adv-x="486" d="M138 -8q-25 -116 -73.5 -181.5t-117.5 -65.5q-37 0 -61 17.5t-24 42.5q0 21 17 30q41 -57 90 -57q48 0 75.5 49t49.5 153l102 480h-72l2 12l76 18l4 18q26 119 78 183t123 64q42 0 71.5 -28.5t29.5 -68.5q0 -16 -9 -25.5t-25 -7.5q-14 97 -82 97q-55 0 -86.5 -49 t-56.5 -153l-6 -30h164q72 0 72 -56q0 -22 -12.5 -78.5t-31.5 -133t-25 -102.5q-10 -50 -10 -63q0 -27 18 -27q29 0 98 102l8 -5q-25 -55 -57 -96t-65 -41q-43 0 -43 56q0 21 11 74q7 34 25.5 107t30.5 126t12 70q0 37 -45 37h-157z" />
<glyph unicode="fl" horiz-adv-x="518" d="M138 -8q-25 -116 -73.5 -181.5t-117.5 -65.5q-37 0 -61 17.5t-24 42.5q0 21 17 30q41 -57 90 -57q48 0 75.5 49t49.5 153l102 480h-72l2 12l76 18l4 18q25 117 86.5 182t145.5 65q34 0 55 -13l45 12l8 -8l-137 -626q-10 -50 -10 -63q0 -27 18 -27q29 0 98 102l8 -5 q-25 -55 -57 -96t-65 -41q-43 0 -43 56q0 21 11 74l125 566q-29 36 -78 36q-126 0 -167 -202l-6 -30h130l-6 -30h-131z" />
<glyph unicode="&#x2f;symbol&#x33;&#x2f;" horiz-adv-x="957" d="M505 638l68 -270h270l-203 -135l136 -270l-271 135l-270 -270l135 405l-270 203l338 -68zM814 87q18 0 30.5 -12.5t12.5 -31.5q0 -18 -12.5 -30.5t-30.5 -12.5t-30.5 12.5t-12.5 30.5q0 19 12.5 31.5t30.5 12.5zM854 43q0 17 -11.5 29t-28.5 12t-28.5 -12t-11.5 -29 t12 -28.5t28 -11.5t28 11.5t12 28.5zM796 68h18q8 0 11 -2q6 -3 6 -10q0 -5 -4 -9q-3 -3 -6 -3q7 -3 8 -10q2 -14 3 -16h-7q-1 2 -2 7.5t-1 6.5q0 9 -10 9h-9v-23h-7v50zM803 47h10q5 0 7 1q3 3 3 6q0 9 -10 9h-10v-16z" />
<glyph unicode="&#x2f;symbol&#x32;&#x2f;" horiz-adv-x="932" d="M494 570l52 -90l-137 -240h-103l137 240l-52 90h103zM357 570l52 -90l-138 -240h-103l138 240l-52 90h103zM752 120h-103l-137 240l51 90l137 -240h103zM683 0h-103l-137 240l51 90l138 -240h103zM100 120l51 90h275l51 -90h-274l-52 -90zM168 0l52 90h274l52 -90h-275 l-51 -90zM789 88q18 0 30.5 -13t12.5 -31t-12.5 -31t-30.5 -13t-30.5 13t-12.5 31t12.5 31t30.5 13zM829 44q0 16 -11.5 28t-28.5 12t-28.5 -12t-11.5 -28t11.5 -28t28.5 -12t28.5 12t11.5 28zM771 69h18q7 0 11 -2q5 -4 5 -11q0 -5 -3 -8q-1 -2 -6 -4q7 -1 8 -9q0 -8 3 -16 h-8q-1 2 -1.5 6.5t-0.5 6.5q-1 10 -11 10h-8v-23h-7v50zM778 47h10q5 0 7 1q3 3 3 7q0 8 -10 8h-10v-16z" />
<glyph unicode="&#x2f;symbol&#x35;&#x2f;" horiz-adv-x="705" d="M232 -6l-132 136l124 234l129 -136zM474 -6l-121 234l128 136l124 -234z" />
<glyph unicode="&#x2f;symbol&#x31;&#x2f;" horiz-adv-x="5534" d="M1865 412q-25 0 -40.5 14.5t-15.5 37.5q0 35 32.5 64t70.5 29q24 0 39 -13.5t15 -37.5q0 -36 -31 -65t-70 -29zM1284 412q-26 0 -41.5 14.5t-15.5 37.5q0 35 33 64t71 29q24 0 38.5 -13.5t14.5 -37.5q0 -36 -31 -65t-69 -29zM959 0q0 42 11 108q-16 -50 -51.5 -82.5 t-78.5 -32.5q-41 0 -63 29.5t-22 82.5q0 62 27 121t84 101t132 42q17 0 25 -1l16 73l6 102l136 7q0 -67 -46 -273t-46 -277h-130zM100 0l78 364q17 86 21 136l128 7l11 -15l-104 -492h-134zM3503 492l-57 -492h-131l20 175q5 50 33 215h-3q-31 -102 -81 -215l-76 -175h-149 l-2 175q-2 121 9 215h-2q-32 -130 -59 -215l-53 -175h-109l154 500l184 6l1 -137q2 -134 -15 -259h2q39 126 94 259l56 131l169 7zM5316 300q-37 -177 -37 -183q0 -34 36 -34q25 0 59 18l-9 -79q-52 -29 -114 -29q-105 0 -105 100q0 20 40 210l-47 1l9 44l54 14l53 95l81 6 l13 -15l-20 -86h99l6 -14l-17 -51zM3936 0q0 74 42 260l5 102l137 7q0 -31 -7 -89h2q53 89 134 89q34 0 53 -19.5t19 -51.5q0 -27 -26 -147q-18 -85 -18 -151h-131q0 55 19 150q15 71 15 87q0 24 -17 24q-34 0 -64 -82.5t-32 -178.5h-131zM3768 369q87 0 145 -32l-28 -128 q-31 -145 -31 -209h-130q0 45 12 112q-15 -52 -51 -85.5t-81 -33.5q-41 0 -63 29.5t-22 83.5q0 46 16 91.5t46 84t79 63t108 24.5zM4653 51q-67 -58 -159 -58q-65 0 -103.5 35t-38.5 102q0 94 68.5 166.5t167.5 72.5q54 0 86.5 -23.5t32.5 -64.5q0 -57 -60 -96.5t-161 -43.5 v-1q0 -64 63 -64q42 0 90 28zM2525 369q88 0 146 -32l-29 -128q-31 -145 -31 -209h-130q0 37 12 112q-15 -52 -51 -85.5t-81 -33.5q-41 0 -62.5 29.5t-21.5 83.5q0 62 26.5 120.5t85 100.5t136.5 42zM2245 256q-52 30 -97 30q-18 0 -30 -7t-12 -19q0 -14 20 -26.5t44 -22 t44 -33t20 -56.5q0 -57 -53 -93t-128 -36q-78 0 -118 28l27 93q57 -38 111 -38q19 0 29.5 7.5t10.5 18.5q0 13 -20 26t-44 23t-44 33t-20 55q0 56 54.5 93t128.5 37q58 0 104 -18zM4716 0q0 79 41 260l6 102l137 7q0 -12 -7 -89h2q52 89 134 89q34 0 53 -19.5t19 -51.5 q0 -27 -26 -147q-19 -90 -19 -151h-130q0 55 19 150q15 78 15 87q0 24 -17 24q-35 0 -65 -82t-32 -179h-130zM1752 0q0 69 26 193l15 67l6 102l137 7q0 -46 -27 -177t-27 -192h-130zM1399 362l140 7q13 -129 -5 -289h2q76 151 91 284q22 5 50 5q32 0 48.5 -8.5t16.5 -33.5 q0 -46 -51 -147.5t-116 -179.5h-149q-5 228 -27 362zM1170 0q0 72 27 193l14 67l6 102l137 7q0 -46 -27 -177t-27 -192h-130zM336 0q0 79 41 260l6 102l137 7q0 -31 -7 -89h2q52 89 134 89q34 0 53 -19.5t19 -51.5q0 -27 -26 -147q-18 -85 -18 -151h-131q0 55 19 150 q15 78 15 87q0 24 -17 24q-34 0 -64 -82.5t-32 -178.5h-131zM4490 177q47 10 73 34t26 59q0 31 -22 31q-28 0 -48.5 -38.5t-28.5 -85.5zM2435 101q23 0 47 43.5t37 100.5q3 14 9 44q-14 8 -27 8q-34 0 -62 -54.5t-28 -101.5q0 -40 24 -40zM913 101q22 0 44.5 39.5t37.5 94.5 q1 9 8 40l3 14q-14 8 -27 8q-33 0 -61.5 -54.5t-28.5 -101.5q0 -40 24 -40zM3677 101q23 0 47 43t38 101q1 8 4.5 24.5t4.5 19.5q-16 8 -27 8q-34 0 -62.5 -54.5t-28.5 -101.5q0 -40 24 -40z" />
<glyph unicode="&#x2f;symbol&#x34;&#x2f;" horiz-adv-x="2607" d="M1684 406q0 65 -11 128l126 14l15 -15v-533h-130v406zM1889 406q0 62 -10 128l126 14l14 -15v-533h-130v406zM427 101v-101h-320v362q0 80 -7 135l126 7l14 -14v-396zM925 21l7 109q62 -36 144 -36q50 0 50 36q0 20 -31.5 41.5t-69 40.5t-69 57t-31.5 88q0 69 55 108 t138 39q80 0 127 -18l-14 -111q-56 29 -111 29q-27 0 -42.5 -11t-15.5 -29q0 -20 20.5 -38t50 -34t59.5 -35t50.5 -51t20.5 -72q0 -66 -53.5 -103.5t-139.5 -37.5q-41 0 -83.5 8t-61.5 20zM2405 213q0 -24 -1 -36l-11 -11h-191q14 -83 98 -83q44 0 84 21l7 -81 q-46 -30 -127 -30q-90 0 -144 47.5t-54 134.5q0 85 52 139t132 54q72 0 113.5 -43t41.5 -112zM795 0l-106 -7q-11 16 -21 49h-4q-34 -49 -104 -49q-43 0 -70 23t-27 66q0 113 191 118v20q0 54 -58 54q-55 0 -108 -29l-8 97q72 26 150 26q154 0 154 -135q0 -25 -2 -69t-2 -70 q0 -51 15 -94zM1626 0l-107 -7q-12 20 -21 49h-3q-34 -49 -105 -49q-43 0 -69.5 23t-26.5 66q0 113 191 118v20q0 54 -58 54q-54 0 -109 -29l-7 97q72 26 150 26q153 0 153 -135q0 -25 -1.5 -69.5t-1.5 -69.5q0 -51 15 -94zM2199 207l78 4q2 14 2 26q0 59 -34 59 q-44 0 -46 -89zM654 74v88q-29 -3 -47 -18t-18 -39q0 -18 10 -29t27 -11q16 0 28 9zM1485 74v88q-29 -3 -47 -18t-18 -39q0 -18 10 -29t27 -11q16 0 28 9zM2464 85q18 0 30.5 -13t12.5 -31t-12.5 -31t-30.5 -13t-31 13t-13 31t13 31t31 13zM2504 41q0 17 -12 28.5t-28 11.5 t-28 -11.5t-12 -28.5t12 -28.5t28 -11.5t28 11.5t12 28.5zM2446 66h18q7 0 11 -3q5 -3 5 -10q0 -5 -3 -9q-3 -3 -6 -3q7 -1 8 -10q0 -7 3 -15h-8q-1 2 -1.5 6.5t-0.5 6.5q-1 9 -11 9h-8v-22h-7v50zM2453 44h10q5 0 7 1q3 3 3 7q0 8 -10 8h-10v-16z" />
<glyph unicode=" "  horiz-adv-x="250" />
<glyph unicode="&#x09;" horiz-adv-x="250" />
<glyph unicode="&#xa0;" horiz-adv-x="250" />
<glyph unicode="!" horiz-adv-x="278" d="M238 686l4 3q19 4 44 4q12 0 12 -9q0 -7 -17 -68l-106 -426h-28zM127 -10q-13 0 -21 8.5t-8 22.5q0 25 12.5 42t31.5 17q13 0 21 -8.5t8 -21.5q0 -26 -12.5 -43t-31.5 -17z" />
<glyph unicode="&#x22;" horiz-adv-x="335" d="M212 752l4 3q31 0 46 -6l4 -10l-76 -237l-18 3l20 121zM362 752l4 3q31 0 46 -6l4 -10l-76 -237l-18 3l20 121z" />
<glyph unicode="#" horiz-adv-x="719" d="M244 -10l-28 2l-8 8l48 195h-144l-8 8l5 28h156l56 224h-142l-8 8l5 28h154l50 204l28 -2l8 -8l-48 -194h180l50 204l28 -2l8 -8l-48 -194h142l8 -8l-4 -28h-155l-55 -224h144l8 -8l-4 -28h-157l-51 -205l-28 2l-8 8l48 195h-179zM304 231h179l56 224h-180z" />
<glyph unicode="$" horiz-adv-x="468" d="M213 -137l-29 -3l-6 7l27 125q-48 1 -86.5 14t-44.5 26q-3 8 -3 18q0 50 29 120h16q-1 -16 -1 -42q0 -52 15 -71q23 -32 93 -32q69 0 113 46.5t44 108.5q0 41 -22 76t-53 61.5t-62 54t-53 65t-22 81.5q0 72 55 122.5t133 54.5l28 132l29 3l6 -7l-28 -129q81 -6 103 -36 q2 -4 2 -9q0 -20 -9.5 -60t-21.5 -69h-16q2 38 2 49q0 48 -13 64q-21 27 -80 27q-62 0 -103.5 -40.5t-41.5 -98.5q0 -37 22 -70.5t53 -60t62 -55t53 -67.5t22 -84q0 -72 -50 -127.5t-135 -63.5z" />
<glyph unicode="%" horiz-adv-x="922" d="M480 555q0 -58 -23.5 -118.5t-72 -105.5t-109.5 -45q-53 0 -85.5 38t-32.5 102q0 98 59 183.5t149 85.5q53 0 84 -37.5t31 -102.5zM824 695l-572 -705h-39l571 705h40zM192 425q0 -53 23 -84.5t67 -31.5q71 0 117 81t46 169q0 113 -87 113q-48 0 -87.5 -40t-59 -96 t-19.5 -111zM887 259q0 -58 -23.5 -118.5t-72 -105.5t-109.5 -45q-53 0 -85.5 38t-32.5 102q0 98 59 183.5t149 85.5q53 0 84 -37.5t31 -102.5zM599 129q0 -53 23 -84.5t67 -31.5q71 0 117 81t46 169q0 113 -87 113q-48 0 -87.5 -40t-59 -96t-19.5 -111z" />
<glyph unicode="&#x26;" horiz-adv-x="741" d="M698 79q0 -36 -12 -62.5t-33 -26.5q-16 0 -26 12l-1 5q31 46 31 96q0 20 -5 34q-48 17 -83 30q-112 -177 -282 -177q-81 0 -129 45.5t-48 121.5q0 78 51.5 143t118.5 90q-24 50 -24 105q0 84 56 142t137 58q58 0 89 -30.5t31 -78.5q0 -27 -12.5 -51t-32.5 -37 q64 -4 100 -4q124 0 149 21h3q9 -9 9 -25q0 -33 -48 -33q-50 0 -78 1q-5 -131 -72 -258q31 -15 77 -36q34 -16 34 -85zM301 499q0 -51 21 -95t60 -78.5t78.5 -59t93.5 -50.5q55 113 60 244q-61 4 -125 10l-10 17q45 44 45 92q0 39 -21.5 60t-61.5 21q-62 0 -101 -43.5 t-39 -117.5zM155 163q0 -62 36.5 -100t103.5 -38q76 0 137 42.5t103 114.5q-175 78 -240 182q-56 -25 -98 -80.5t-42 -120.5z" />
<glyph unicode="'" horiz-adv-x="185" d="M212 752l4 3q31 0 46 -6l4 -10l-76 -237l-18 3l20 121z" />
<glyph unicode="(" horiz-adv-x="342" d="M252 -180l-13 -13q-104 112 -104 316q0 179 82 356.5t219 275.5l12 -14q-124 -102 -197 -277t-73 -345q0 -190 74 -299z" />
<glyph unicode=")" horiz-adv-x="343" d="M186 742l13 13q104 -112 104 -316q0 -179 -82 -356.5t-219 -275.5l-12 14q124 102 197 277t73 345q0 190 -74 299z" />
<glyph unicode="*" horiz-adv-x="360" d="M296 507q-5 -22 -23 -22t-18 15q0 10 15.5 49.5t20.5 59.5q-15 -9 -41 -27.5t-42.5 -29t-24.5 -10.5q-15 0 -15 18q0 12 16 21q13 7 48.5 19t54.5 20q-17 10 -43.5 19.5t-39 16.5t-12.5 18q0 10 7.5 17t16.5 7q10 0 22 -11t28.5 -29t28.5 -27q0 63 9 102q5 22 23 22 t18 -15q0 -10 -15.5 -49.5t-20.5 -59.5q15 9 40 27t43 29t26 11q14 0 14 -16t-14 -22q-10 -4 -46.5 -16.5t-59.5 -23.5q17 -9 44 -18.5t39.5 -17t12.5 -18.5q0 -9 -8 -16.5t-16 -7.5q-7 0 -18.5 9.5t-30.5 28t-30 27.5q0 -63 -9 -100z" />
<glyph unicode="+" d="M283 147l-2 3l37 175h-186l8 35q129 3 186 3l36 174h36l3 -3l-36 -170q69 1 178 1l6 -8l-12 -32h-180l-37 -178h-37z" />
<glyph unicode="," horiz-adv-x="277" d="M43 -189l-10 7q31 32 59.5 80.5t41.5 92.5q-30 3 -30 36q0 19 12.5 35t32.5 16q18 0 27 -13.5t9 -33.5q0 -48 -43 -114.5t-99 -105.5z" />
<glyph unicode="-" horiz-adv-x="381" d="M90 250l7 35h284l-7 -35h-284z" />
<glyph unicode="." horiz-adv-x="260" d="M166 41q0 -19 -12.5 -35t-32.5 -16q-18 0 -27 10.5t-9 26.5q0 19 12.5 35t32.5 16q18 0 27 -10.5t9 -26.5z" />
<glyph unicode="/" horiz-adv-x="399" d="M112 -8l-11 -3l-28 14l347 747l12 4l28 -15z" />
<glyph unicode="0" horiz-adv-x="569" d="M585 454q0 -71 -21 -150t-58 -150t-96 -117.5t-127 -46.5q-81 0 -129 65t-48 174q0 104 36 209.5t109 181t163 75.5q79 0 125 -64.5t46 -176.5zM151 235q0 -95 36 -152.5t104 -57.5q74 0 133 70t87.5 167t28.5 193q0 205 -134 205q-56 0 -105 -40t-81 -103t-50.5 -137.5 t-18.5 -144.5z" />
<glyph unicode="1" horiz-adv-x="315" d="M258 0h-224l-2 16l67 12q20 4 27.5 10t10.5 22l13 60l111 526l-92 5l1 14l132 30l8 -10l-120 -565l-18 -85l91 -19z" />
<glyph unicode="2" horiz-adv-x="509" d="M56 -10l-18 18q244 192 345.5 311.5t101.5 216.5q0 56 -31.5 88t-90.5 32q-108 0 -192 -103l-11 7q30 63 87.5 99t129.5 36q71 0 111.5 -41t40.5 -113q0 -54 -24.5 -110t-72.5 -112t-98 -103t-121 -104l-74 -59q15 3 35 3q34 0 110.5 -11t94.5 -11q21 0 47 40 q12 19 35 61l8 -5q-10 -34 -23 -64q-31 -76 -65 -76q-26 0 -108 15t-127 15q-51 0 -90 -30z" />
<glyph unicode="3" horiz-adv-x="437" d="M416 237q0 -97 -110 -166.5t-277 -80.5l-6 24q148 13 249.5 73t101.5 145q0 57 -39 85t-106 28q-23 0 -59 -2l-2 29q120 16 187.5 64t67.5 121q0 46 -27.5 73t-78.5 27q-55 0 -104.5 -30t-80.5 -83l-11 7q23 65 79.5 104.5t124.5 39.5q66 0 103 -35.5t37 -97.5 q0 -67 -53 -118.5t-139 -74.5q67 -8 105 -41t38 -91z" />
<glyph unicode="4" horiz-adv-x="550" d="M499 690l28 -5l-100 -470l117 1l-10 -40l-115 1l-37 -177h-40l38 177l-318 3l-7 24zM476 627l-373 -416l285 3z" />
<glyph unicode="5" horiz-adv-x="434" d="M423 249q0 -101 -110 -174.5t-276 -84.5l-6 24q147 13 248.5 77t101.5 153q0 121 -146 121q-62 0 -116 -13l-10 10l73 327q208 -8 223 -8q25 0 40.5 13t30.5 42l9 -3q-9 -38 -13.5 -52.5t-18 -26.5t-37.5 -12q-81 0 -205 11l-60 -267q39 9 92 9q83 0 131.5 -39t48.5 -107 z" />
<glyph unicode="6" horiz-adv-x="490" d="M91 167q0 187 126.5 338t306.5 190l6 -24q-142 -44 -240 -139.5t-142 -231.5q59 104 176 104q67 0 109 -45t42 -118q0 -101 -67 -176t-159 -75q-66 0 -112 46.5t-46 130.5zM433 238q0 64 -30.5 98.5t-87.5 34.5q-77 0 -130.5 -60t-53.5 -143q0 -67 31 -106.5t89 -39.5 q81 0 131.5 64.5t50.5 151.5z" />
<glyph unicode="7" horiz-adv-x="451" d="M193 -3q-4 -7 -15 -7q-15 0 -28 17q9 15 46 75.5t47.5 77t41.5 68.5t44 74.5l39 67.5t42.5 75.5t38 71.5t41.5 80q-64 22 -135.5 37t-109.5 15q-33 0 -53 -27.5t-39 -88.5l-10 5q7 36 10.5 53.5t11.5 41.5t16 35t21.5 19t31.5 8q102 0 273 -63q20 40 30 61q20 -5 20 -21 q0 -12 -14 -40q-124 -263 -350 -635z" />
<glyph unicode="8" horiz-adv-x="485" d="M459 180q0 -82 -67 -136t-157 -54q-76 0 -121.5 38.5t-45.5 100.5q0 73 55.5 133t156.5 97q-47 39 -73 76t-26 87q0 72 57.5 122.5t135.5 50.5q67 0 106 -35t39 -91q0 -63 -44.5 -118t-126.5 -93q53 -43 82 -83t29 -95zM223 525q0 -42 26 -75t77 -74q67 31 109.5 82 t42.5 101q0 49 -28.5 76.5t-80.5 27.5q-60 0 -103 -40t-43 -98zM109 139q0 -53 36.5 -85t95.5 -32q70 0 123 45t53 109q0 26 -8.5 49t-28 45t-33.5 35t-43 36q-88 -33 -141.5 -87t-53.5 -115z" />
<glyph unicode="9" horiz-adv-x="489" d="M520 518q0 -187 -126.5 -338t-306.5 -190l-6 24q142 44 240 139.5t142 231.5q-59 -104 -176 -104q-67 0 -109 45t-42 118q0 101 67 176t159 75q66 0 112 -46.5t46 -130.5zM178 447q0 -64 30.5 -98.5t87.5 -34.5q77 0 130.5 60t53.5 143q0 67 -31 106.5t-89 39.5 q-81 0 -131.5 -64.5t-50.5 -151.5z" />
<glyph unicode=":" horiz-adv-x="209" d="M210 368q-2 -19 -16 -35t-34 -16q-18 0 -26 10.5t-6 26.5q2 19 16 35t34 16q18 0 26 -10.5t6 -26.5zM141 41q-2 -19 -16 -35t-34 -16q-18 0 -26 10.5t-6 26.5q2 19 16 35t34 16q18 0 26 -10.5t6 -26.5z" />
<glyph unicode=";" horiz-adv-x="209" d="M210 368q-2 -19 -16 -35t-34 -16q-18 0 -26 10.5t-6 26.5q2 19 16 35t34 16q18 0 26 -10.5t6 -26.5zM-25 -189l-9 7q34 32 68 81t51 92q-30 3 -26 36q2 19 16 35t34 16q18 0 25.5 -14t5.5 -33q-4 -48 -54 -114.5t-111 -105.5z" />
<glyph unicode="&#x3c;" d="M577 565l-10 -49l-369 -182l294 -173l-10 -44q-143 78 -355 210l4 18z" />
<glyph unicode="=" d="M557 419h-405l8 35q150 5 403 5l6 -8zM516 226h-405l8 35q150 5 403 5l6 -8z" />
<glyph unicode="&#x3e;" d="M104 117l10 49l369 182l-294 173l10 44q143 -78 355 -210l-4 -18z" />
<glyph unicode="?" horiz-adv-x="398" d="M247 222l-10 -8q-40 9 -40 46q0 35 24 63.5t58.5 50.5t69.5 45.5t59 59t24 79.5q0 48 -27.5 76.5t-74.5 28.5q-67 0 -112 -43.5t-45 -108.5q0 -9 2 -27q-14 -6 -23 -6q-28 0 -28 36q0 72 64 126.5t149 54.5q62 0 101 -38t39 -96q0 -48 -25 -87t-60 -64.5t-70.5 -47.5 t-60.5 -48.5t-25 -55.5q0 -23 11 -36zM165 -10q-13 0 -21 8.5t-8 22.5q0 25 12.5 42t31.5 17q13 0 21 -8.5t8 -21.5q0 -26 -12.5 -43t-31.5 -17z" />
<glyph unicode="@" horiz-adv-x="1076" d="M820 -160q-119 -95 -293 -95q-187 0 -306 122t-119 304q0 127 50.5 238.5t131 186t181.5 117t203 42.5q176 0 286.5 -114.5t110.5 -288.5q0 -147 -81.5 -254.5t-193.5 -107.5q-70 0 -102 51t-20 129q2 15 6.5 43.5t6.5 42.5q-28 -64 -60 -119.5t-76.5 -101t-83.5 -45.5 q-34 0 -55 33t-21 93q0 99 40.5 189t110 145t148.5 55q51 0 93 -20l-13 -55l-39 -170q-25 -105 -6 -167.5t77 -62.5q86 0 156 93.5t70 231.5q0 158 -101 260t-258 102q-72 0 -146 -24.5t-140.5 -72.5t-118.5 -112t-82.5 -149.5t-30.5 -179.5q0 -170 106 -283t268 -113 q63 0 120.5 13.5t89.5 28.5t76 40zM430 117q0 -38 12 -62.5t33 -24.5q32 0 86 75.5t97 165.5t57 144l11 44q-27 11 -56 11q-88 0 -164 -108.5t-76 -244.5z" />
<glyph unicode="A" horiz-adv-x="649" d="M444 687h23l76 -618q2 -18 8 -25.5t20 -10.5l57 -13l-2 -20h-205l-4 20l89 19l-26 216l-237 -4l-116 -212l82 -19l-4 -20h-200l-2 20l55 13q29 6 46 36zM261 285h215l-40 321z" />
<glyph unicode="B" horiz-adv-x="563" d="M547 210q0 -88 -70.5 -149t-200.5 -61h-220l-2 20l67 13q17 3 24 9.5t10 20.5l12 57l94 445l17 81l-84 19l4 20h202q78 0 124.5 -37t46.5 -99q0 -67 -43.5 -121.5t-101.5 -77.5q57 -15 89 -51t32 -89zM303 565l-43 -202h95q67 0 120.5 55.5t53.5 124.5q0 53 -36.5 82.5 t-107.5 29.5h-63zM327 333h-73l-45 -213l-19 -90h101q95 0 153 50.5t58 128.5q0 60 -46 92t-129 32z" />
<glyph unicode="C" horiz-adv-x="582" d="M367 -10q-119 0 -188.5 73t-69.5 197q0 117 52.5 217.5t142.5 159t195 58.5q82 0 124 -25q-6 -71 -33 -150h-15q-1 21 -3 63.5t-3 63.5q-37 13 -77 13q-135 0 -236.5 -117t-101.5 -273q0 -117 60 -181t155 -64q42 0 92 13q10 21 30 63.5t30 63.5h15q-10 -76 -31 -145 q-55 -30 -138 -30z" />
<glyph unicode="D" horiz-adv-x="644" d="M254 0h-198l-2 20l67 13q17 3 24 9.5t10 20.5l12 57l94 445l17 81l-84 19l4 20h192q125 0 196.5 -69t71.5 -186q0 -110 -46.5 -206.5t-140.5 -160t-217 -63.5zM303 565l-94 -445l-19 -88h67q108 0 190.5 57t124 146t41.5 192q0 106 -59.5 166t-174.5 60h-58z" />
<glyph unicode="E" horiz-adv-x="564" d="M303 565l-43 -205l213 5l-9 -39l-210 5l-45 -211l-19 -90h148q69 0 114 5q11 21 31.5 64.5t30.5 65.5h15q-13 -96 -38 -165h-435l-2 20l67 13q17 3 24 9.5t10 20.5l12 57l94 445l17 81l-84 19l4 20h408q-3 -62 -32 -165h-15q-1 22 -3.5 65.5t-3.5 64.5q-65 5 -112 5h-118 z" />
<glyph unicode="F" horiz-adv-x="500" d="M191 39l105 -19l-4 -20h-236l-2 20l67 13q28 5 33 30l13 57l94 445l17 81l-84 19l4 20h408q-3 -62 -32 -165h-15l-4 65q-1 11 -2 32.5t-1 32.5q-65 5 -112 5h-118l-19 -90l-45 -215l215 5l-10 -39l-212 4l-42 -200z" />
<glyph unicode="G" horiz-adv-x="612" d="M369 25q57 0 99 15l34 160l18 81l-85 19l4 20h216l2 -20l-67 -13q-28 -5 -33 -30l-13 -57l-39 -180q-65 -30 -141 -30q-114 0 -184.5 72t-70.5 196q0 122 55 223.5t144 157.5t189 56q84 0 144 -25q-8 -71 -33 -150h-15q-1 21 -3 63.5t-3 63.5q-40 13 -100 13 q-129 0 -231 -117.5t-102 -282.5q0 -103 58.5 -169t156.5 -66z" />
<glyph unicode="H" horiz-adv-x="738" d="M191 39l85 -19l-4 -20h-216l-2 20l67 13q28 5 33 30l13 57l94 445l18 81l-85 19l4 20h216l2 -20l-67 -13q-28 -5 -33 -30l-13 -57l-42 -200h346l42 200l18 81l-85 19l4 20h216l2 -20l-67 -13q-28 -5 -33 -30l-13 -57l-94 -445l-18 -81l85 -19l-4 -20h-216l-2 20l67 13 q28 5 33 30l13 57l44 210h-346l-44 -210z" />
<glyph unicode="I" horiz-adv-x="350" d="M191 39l85 -19l-4 -20h-216l-2 20l67 13q28 5 33 30l13 57l94 445l18 81l-85 19l4 20h216l2 -20l-67 -13q-28 -5 -33 -30l-13 -57l-94 -445z" />
<glyph unicode="J" horiz-adv-x="340" d="M281 646l-85 19l4 20h216l2 -20l-67 -13q-28 -5 -33 -30l-13 -57l-104 -490q-13 -62 -35.5 -105t-49.5 -71.5t-78 -68.5l-14 17q35 38 48.5 54t35.5 48.5t34 68.5t23 86l98 461z" />
<glyph unicode="K" horiz-adv-x="623" d="M191 39l85 -19l-4 -20h-216l-2 20l67 13q28 5 33 30l13 57l94 445l18 81l-85 19l4 20h216l2 -20l-67 -13q-28 -5 -33 -30l-13 -57l-44 -207l130 2l237 286l-85 19l4 20h205l2 -20l-57 -13q-29 -7 -53 -36l-224 -270l88 -246q13 -37 29 -51.5t47 -21.5l31 -7l-4 -20h-45 q-40 0 -59.5 16.5t-32.5 53.5l-90 255h-130l-43 -205z" />
<glyph unicode="L" horiz-adv-x="532" d="M279 646l-85 19l4 20h216l2 -20l-67 -13q-28 -5 -33 -30l-13 -57l-94 -445l-19 -90h128q69 0 114 5q11 23 31.5 70t31.5 70h15q-12 -97 -39 -175h-415l-2 20l67 13q17 3 24 9.5t10 20.5l12 57l94 445z" />
<glyph unicode="M" horiz-adv-x="985" d="M269 685h128l99 -620l359 620h130l-3 -20l-91 -20l-49 -607l78 -18l-6 -20h-205l2 20l61 13q28 7 30 30l43 537l-266 -460l-81 -140h-34l-22 142l-74 469l-195 -572l81 -19l-6 -20h-200l2 20l61 13q16 4 21.5 9.5t11.5 20.5l200 582l-82 20z" />
<glyph unicode="N" horiz-adv-x="720" d="M184 39l105 -19l-4 -20h-229l-2 20l67 13q17 3 23.5 9t9.5 21l13 57l111 526l-84 19l4 20h119l241 -607l103 487l18 81l-85 19l4 20h209l2 -20l-67 -13q-17 -3 -23.5 -9t-9.5 -21l-13 -57l-120 -565h-30l-242 605l-102 -485z" />
<glyph unicode="O" horiz-adv-x="575" d="M593 454q0 -71 -21.5 -150t-59 -150t-97.5 -117.5t-129 -46.5q-83 0 -132.5 65t-49.5 174q0 77 22 158t61 150t99.5 113.5t130.5 44.5q81 0 128.5 -64.5t47.5 -176.5zM149 235q0 -95 37.5 -152.5t107.5 -57.5q75 0 135 70t89.5 167t29.5 193q0 205 -139 205 q-75 0 -136.5 -68.5t-92.5 -164.5t-31 -192z" />
<glyph unicode="P" horiz-adv-x="524" d="M191 39l105 -19l-4 -20h-236l-2 20l67 13q28 5 33 30l13 57l94 445l17 81l-84 19l4 20h191q97 0 150.5 -44t53.5 -126q0 -112 -77 -178.5t-202 -66.5h-73l-32 -150zM303 565l-55 -262h74q110 0 168 60.5t58 146.5q0 70 -42 105t-119 35h-66z" />
<glyph unicode="Q" horiz-adv-x="568" d="M580 -143q0 -38 -86 -38q-105 0 -219.5 35.5t-202.5 99.5l9 18q4 0 12.5 -0.5t12.5 -0.5q78 0 147 25.5t121 71t90 105t57.5 129t19.5 142.5q0 216 -143 216q-91 0 -161.5 -105.5t-70.5 -254.5q0 -129 66 -220l-17 -13q-42 33 -68 92.5t-26 132.5q0 167 86 285t199 118 q85 0 132.5 -65.5t47.5 -181.5q0 -72 -18.5 -142.5t-55.5 -133.5t-89 -112t-124 -80.5t-155 -37.5q165 -78 354 -78q38 0 76 10q6 -6 6 -17z" />
<glyph unicode="R" horiz-adv-x="595" d="M191 39l85 -19l-4 -20h-216l-2 20l67 13q28 5 33 30l13 57l94 445l17 81l-84 19l4 20h191q92 0 143.5 -41t51.5 -114q0 -78 -46 -134.5t-123 -80.5l70 -215q12 -37 27.5 -51t47.5 -22l27 -7l-4 -20h-41q-41 0 -60.5 16.5t-31.5 53.5l-75 235q-32 -5 -61 -5h-67l-38 -180z M303 565l-51 -240l2 8h62q109 0 166 57.5t57 136.5q0 58 -40 90.5t-112 32.5h-66z" />
<glyph unicode="S" horiz-adv-x="434" d="M197 -10q-52 0 -96 13t-50 27q-3 8 -3 18q0 50 29 120h16q-1 -16 -1 -42q0 -52 15 -71q25 -32 98 -32q72 0 117.5 47t45.5 109q0 41 -23 76t-55.5 62t-65 54.5t-55.5 65t-23 81.5q0 75 60 126t143 51q52 0 87.5 -11.5t45.5 -25.5q2 -4 2 -9q0 -20 -9.5 -60t-21.5 -69h-16 q2 38 2 49q0 48 -13 64q-23 27 -85 27q-64 0 -107 -40.5t-43 -98.5q0 -37 23 -70.5t55.5 -60.5t65 -55.5t55.5 -67.5t23 -84q0 -78 -59 -135.5t-157 -57.5z" />
<glyph unicode="T" horiz-adv-x="543" d="M288 39l85 -19l-4 -20h-216l-2 20l67 13q28 5 33 30l13 57l113 533h-74q-72 0 -122 -10q-13 -25 -37 -84l-16 -39h-15q13 103 38 165h508q-3 -71 -32 -165h-15v39q0 62 -1 84q-47 10 -118 10h-74l-113 -533z" />
<glyph unicode="U" horiz-adv-x="660" d="M584 235q-26 -124 -91 -184.5t-158 -60.5q-81 0 -132 47.5t-51 129.5q0 39 8 78l68 320l18 81l-85 19l4 20h216l2 -20l-67 -13q-28 -5 -33 -30l-13 -57l-69 -323q-7 -34 -7 -68q0 -70 42 -109.5t108 -39.5q72 0 127 53t78 159l70 328l18 81l-85 19l4 20h209l2 -20 l-95 -19l-18 -81z" />
<glyph unicode="V" horiz-adv-x="650" d="M328 0h-23l-77 616q-2 18 -8 25.5t-20 10.5l-57 13l2 20h205l4 -20l-89 -19l70 -565l309 565l-82 19l4 20h200l2 -20l-55 -13q-29 -6 -46 -36z" />
<glyph unicode="W" horiz-adv-x="985" d="M318 0h-23l-67 616q-2 18 -8 25.5t-20 10.5l-57 13l2 20h205l4 -20l-89 -19l61 -564l256 466l-9 68q-2 18 -8 25.5t-20 10.5l-57 13l2 20h205l4 -20l-89 -19l70 -564l300 564l-83 19l4 20h200l2 -20l-55 -13q-31 -7 -46 -36l-329 -616h-23l-61 491z" />
<glyph unicode="X" horiz-adv-x="641" d="M221 0h-205l-2 20q9 2 27.5 6.5t27.5 6.5q31 7 55 36l235 280l-114 267q-12 30 -38 36q-8 2 -24 6.5t-24 6.5l2 20h200l4 -20l-89 -19l116 -270l223 270l-83 19l4 20h205l2 -20q-9 -2 -27.5 -6.5t-27.5 -6.5q-28 -7 -53 -36l-228 -273l117 -274q9 -20 14.5 -26.5 t18.5 -9.5q9 -2 26.5 -6.5t25.5 -6.5l-2 -20h-200l-4 20l90 19l-119 277l-231 -277l82 -19z" />
<glyph unicode="Y" horiz-adv-x="614" d="M324 39l85 -19l-4 -20h-216l-2 20l67 13q28 5 33 30l13 57l13 60q14 87 3.5 192.5t-42 194t-64.5 88.5q-32 0 -90 -102l-13 5q55 137 117 137q52 0 94 -124.5t44 -273.5q83 171 161.5 284.5t130.5 113.5q31 0 48 -39t20 -93l-13 -5q-24 97 -60 97q-29 0 -94 -87.5 t-125 -202t-75 -185.5l-13 -60z" />
<glyph unicode="Z" horiz-adv-x="562" d="M479 0h-420l1 30l507 625h-203q-67 0 -115 -5l-60 -130h-15q6 89 35 165h411l-2 -30l-506 -625h213q67 0 114 5l62 130h15q-9 -81 -37 -165z" />
<glyph unicode="[" horiz-adv-x="378" d="M261 -193h-169l202 953h169l-5 -24h-127l-192 -905h127z" />
<glyph unicode="\" horiz-adv-x="474" d="M338 -10l-108 754l9 8l30 3l109 -754l-8 -8z" />
<glyph unicode="]" horiz-adv-x="378" d="M214 760h169l-202 -953h-169l5 24h127l192 905h-127z" />
<glyph unicode="^" horiz-adv-x="526" d="M100 210h-46l214 335h56l75 -335h-43l-67 299z" />
<glyph unicode="_" horiz-adv-x="486" d="M5 -145l8 35h390l-8 -35h-390z" />
<glyph unicode="`" horiz-adv-x="408" d="M370 592l-13 -11q-34 28 -50 41.5t-42 38t-36.5 42t-8.5 29.5q5 23 37 23h4l5 -2q22 -59 104 -161z" />
<glyph unicode="a" horiz-adv-x="465" d="M357 120q-10 -50 -10 -63q0 -27 18 -27q29 0 98 102l8 -5q-25 -55 -57 -96t-65 -41q-43 0 -43 56q0 21 11 74l31 140q-126 -270 -218 -270q-29 0 -47.5 29t-18.5 81q0 159 88 282t198 123q50 0 88 -20zM106 101q0 -32 9.5 -51.5t26.5 -19.5q31 0 82 67t91 144t57 126 l20 92q-31 16 -72 16q-51 0 -100.5 -51t-81.5 -138.5t-32 -184.5z" />
<glyph unicode="b" horiz-adv-x="424" d="M368 505q34 1 52 -31t18 -89q0 -156 -76 -275.5t-174 -119.5q-44 0 -110 21l137 623l16 72l-75 11v10q54 16 115 27l8 -8l-24 -112l-81 -372q3 6 17 36t22.5 45.5t24 44t29 45.5t30.5 35.5t35 27.5t36 9zM355 465q-24 0 -55 -34.5t-61 -89.5t-50.5 -97t-37.5 -83 l-27 -123q35 -16 79 -16q53 0 98 52.5t70 135.5t25 173q0 82 -41 82z" />
<glyph unicode="c" horiz-adv-x="342" d="M311 505q35 0 55 -23t20 -60q0 -31 -14 -56.5t-33 -25.5q-6 0 -12 4q19 36 19 73q0 56 -49 56q-43 0 -86 -49.5t-70 -127t-27 -155.5q0 -116 78 -116q57 0 146 107l8 -5q-78 -137 -166 -137q-108 0 -108 150q0 138 75.5 251.5t163.5 113.5z" />
<glyph unicode="d" horiz-adv-x="465" d="M357 120q-10 -50 -10 -63q0 -27 18 -27q29 0 98 102l8 -5q-25 -55 -57 -96t-65 -41q-43 0 -43 56q0 21 11 74l32 142q-128 -272 -219 -272q-29 0 -47.5 29t-18.5 81q0 159 88 282t198 123q24 0 52 -7l30 136l16 72l-95 11v10q24 7 135 27l8 -8l-24 -112zM142 30 q33 0 87 73.5t95.5 155.5t51.5 122l17 78q-35 16 -73 16q-51 0 -100.5 -51t-81.5 -138.5t-32 -184.5q0 -32 9.5 -51.5t26.5 -19.5z" />
<glyph unicode="e" horiz-adv-x="348" d="M341 127q-78 -137 -166 -137q-102 0 -102 160q0 84 34.5 167t89.5 135.5t111 52.5q36 0 54.5 -20.5t18.5 -56.5q0 -53 -41.5 -97.5t-99 -68.5t-116.5 -28q-9 -42 -9 -86q0 -57 18.5 -90t54.5 -33q56 0 145 107zM297 473q-51 0 -98.5 -62.5t-69.5 -151.5q90 9 150 57 t60 110q0 21 -11 34t-31 13z" />
<glyph unicode="f" horiz-adv-x="292" d="M138 -8q-25 -116 -73.5 -181.5t-117.5 -65.5q-37 0 -61 17.5t-24 42.5q0 21 17 30q41 -57 90 -57q48 0 75.5 49t49.5 153l102 480h-72l2 12l76 18l4 18q25 119 73.5 183t116.5 64q37 0 61 -17.5t24 -42.5q0 -21 -17 -30q-41 57 -90 57q-48 0 -75.5 -49t-49.5 -153l-6 -30 h130l-6 -30h-131z" />
<glyph unicode="g" horiz-adv-x="365" d="M265 505q128 0 180 13q5 -8 5 -18q0 -32 -38 -32q-23 0 -93 13q41 -34 41 -99q0 -53 -20.5 -100.5t-49.5 -80t-58 -59t-49.5 -47t-20.5 -33.5q0 -9 6.5 -17t13.5 -13t27 -17q35 -22 51 -33t35 -27.5t25.5 -31.5t6.5 -34q0 -53 -56 -98.5t-152 -45.5q-68 0 -109.5 31 t-41.5 75q0 61 83 121l8 -8q-49 -56 -49 -102q0 -41 36.5 -63t88.5 -22q66 0 108 30t42 75q0 25 -19.5 45t-65.5 48q-5 3 -14.5 9t-14 8.5t-12.5 7.5t-12 8t-9.5 7.5t-8 8.5t-5.5 8.5t-4 9.5t-1 10q0 6 2 12t6.5 13t9 12t14 14t16 14.5t20 17.5t21.5 19q-5 -1 -15 -1 q-48 0 -78 35t-30 92q0 91 53.5 158t126.5 67zM127 289q0 -49 21 -78.5t53 -29.5q46 0 81.5 59.5t35.5 140.5q0 43 -17.5 68.5t-48.5 25.5q-50 0 -87.5 -57.5t-37.5 -128.5z" />
<glyph unicode="h" horiz-adv-x="473" d="M78 11l24 109l113 515l16 72l-75 11v10q54 16 115 27l8 -8l-24 -112q-49 -224 -88 -385q66 134 117 194.5t96 60.5q28 0 42 -20t14 -51q0 -28 -11.5 -79.5t-33.5 -132t-27 -102.5q-10 -50 -10 -63q0 -27 18 -27q29 0 98 102l8 -5q-25 -55 -57 -96t-65 -41q-43 0 -43 56 q0 21 11 74q8 35 27.5 105.5t32 123t12.5 77.5q0 39 -31 39q-32 0 -78.5 -60.5t-79 -123t-55.5 -117.5l-10 -44l-26 -123l-16 -4q-12 -3 -17 -3q-9 0 -5 21z" />
<glyph unicode="i" horiz-adv-x="278" d="M253 618q-13 0 -21 8.5t-8 22.5q0 25 12.5 42t31.5 17q13 0 21 -8.5t8 -21.5q0 -26 -12.5 -43t-31.5 -17zM169 120q-10 -50 -10 -63q0 -27 18 -27q29 0 98 102l8 -5q-25 -55 -57 -96t-65 -41q-43 0 -43 56q0 21 11 74q1 7 61 255q10 50 10 63q0 27 -18 27q-29 0 -98 -102 l-8 5q25 55 57 96t65 41q43 0 43 -56q0 -21 -11 -74q-9 -40 -31 -130t-30 -125z" />
<glyph unicode="j" horiz-adv-x="237" d="M243 618q-13 0 -21 8.5t-8 22.5q0 25 12.5 42t31.5 17q13 0 21 -8.5t8 -21.5q0 -26 -12.5 -43t-31.5 -17zM183 375q10 50 10 63q0 27 -18 27q-29 0 -98 -102l-8 5q25 55 57 96t65 41q43 0 43 -56q0 -21 -11 -74l-80 -383q-24 -116 -73 -181.5t-118 -65.5q-37 0 -61 17.5 t-24 42.5q0 21 17 30q41 -57 90 -57q48 0 75.5 49t49.5 153z" />
<glyph unicode="k" horiz-adv-x="454" d="M78 11l24 109l113 514l16 72l-75 11v10q54 16 115 27l8 -8l-24 -112q-42 -190 -87 -381q58 125 116.5 189t112.5 63q35 -1 53 -20.5t18 -50.5q0 -64 -66.5 -123t-142.5 -91q46 -114 70 -152t44 -38q28 0 99 102l8 -5q-24 -52 -57 -94.5t-63 -42.5q-33 0 -64 49t-77 181 l5 8q76 27 139 83.5t63 119.5q0 17 -10 28t-29 11q-104 0 -235 -306l-10 -44l-26 -123l-16 -4q-12 -3 -17 -3q-9 0 -5 21z" />
<glyph unicode="l" horiz-adv-x="250" d="M142 120q-10 -50 -10 -63q0 -27 18 -27q29 0 98 102l8 -5q-25 -55 -57 -96t-65 -41q-43 0 -43 56q0 21 11 74l113 514l16 72l-75 11v10q54 16 115 27l8 -8l-24 -112z" />
<glyph unicode="m" horiz-adv-x="729" d="M110 11l24 109l56 255q10 43 10 63q0 27 -18 27q-29 0 -98 -102l-8 5q25 55 57 96t65 41q43 0 43 -56q0 -34 -34 -175q69 127 106 170q52 60 99 61q28 0 42 -20t14 -51q0 -46 -33 -164q23 45 42 78.5t46.5 73.5t56 61.5t56.5 21.5t42 -20t14 -51q0 -28 -11.5 -79.5 t-33.5 -132t-27 -102.5q-10 -50 -10 -63q0 -27 18 -27q29 0 98 102l8 -5q-25 -55 -57 -96t-65 -41q-43 0 -43 56q0 21 11 74q8 35 27.5 105.5t32 123t12.5 77.5q0 39 -31 39q-32 0 -79.5 -62t-79.5 -124.5t-55 -116.5l-11 -42l-26 -123l-16 -4q-12 -3 -17 -3q-9 0 -5 21 l24 109q8 35 27.5 105.5t32 123t12.5 77.5q0 39 -31 39q-32 0 -78.5 -60.5t-79 -123t-55.5 -117.5l-10 -44l-26 -123l-16 -4q-12 -3 -17 -3q-9 0 -5 21z" />
<glyph unicode="n" horiz-adv-x="505" d="M110 11l24 109q10 43 28.5 128t27.5 127q10 43 10 63q0 27 -18 27q-29 0 -98 -102l-8 5q25 55 57 96t65 41q43 0 43 -56q0 -27 -36 -191q25 50 41 79t46.5 75t60.5 69.5t59 23.5q28 0 42 -20t14 -51q0 -28 -11.5 -79.5t-33.5 -132t-27 -102.5q-10 -50 -10 -63 q0 -27 18 -27q29 0 98 102l8 -5q-25 -55 -57 -96t-65 -41q-43 0 -43 56q0 21 11 74q8 35 27.5 105.5t32 123t12.5 77.5q0 39 -31 39q-32 0 -77.5 -59.5t-78 -121.5t-56.5 -118l-11 -46l-26 -123l-16 -4q-12 -3 -17 -3q-9 0 -5 21z" />
<glyph unicode="o" horiz-adv-x="394" d="M397 335q0 -140 -63 -242.5t-145 -102.5q-51 0 -81.5 48.5t-30.5 124.5q0 133 64.5 237.5t145.5 104.5q54 0 82 -45t28 -125zM119 169q0 -68 21 -107.5t56 -39.5q43 0 80 44.5t58 117t21 152.5q0 137 -73 137q-43 0 -81 -46.5t-60 -116.5t-22 -141z" />
<glyph unicode="p" horiz-adv-x="456" d="M56 -234l24 109l110 500q10 43 10 63q0 27 -18 27q-29 0 -98 -102l-8 5q25 55 57 96t65 41q43 0 43 -56q0 -24 -35 -187q2 5 17 36t22.5 45.5t24 44t29.5 45.5t30 35t35 28t36 9q34 1 52 -31t18 -89q0 -156 -76 -275.5t-174 -119.5q-35 0 -72 10l-28 -125l-26 -123 l-16 -4q-12 -3 -17 -3q-9 0 -5 21zM387 465q-71 0 -203 -303l-28 -124q37 -16 79 -16q53 0 98 52.5t70 135.5t25 173q0 82 -41 82z" />
<glyph unicode="q" horiz-adv-x="413" d="M240 -234l24 109l84 385q-126 -270 -218 -270q-29 0 -47.5 29t-18.5 81q0 159 88 282t198 123q50 0 88 -20l-134 -610l-26 -123l-16 -4q-12 -3 -17 -3q-9 0 -5 21zM106 101q0 -32 9.5 -51.5t26.5 -19.5q31 0 82 67t91 144t57 126l20 92q-31 16 -72 16q-51 0 -100.5 -51 t-81.5 -138.5t-32 -184.5z" />
<glyph unicode="r" horiz-adv-x="380" d="M110 11l24 109q66 299 66 318q0 27 -18 27q-29 0 -98 -102l-8 5q25 55 57 96t65 41q43 0 43 -56q0 -33 -33 -174q23 49 39.5 79.5t42 70.5t52 60t53.5 20q22 0 35.5 -11t13.5 -27q0 -22 -17 -37q-24 30 -49 30q-32 0 -79 -68t-78.5 -137t-37.5 -95l-9 -40l-26 -123 l-16 -4q-12 -3 -17 -3q-9 0 -5 21z" />
<glyph unicode="s" horiz-adv-x="354" d="M322 127q0 -59 -40.5 -98t-105.5 -39q-53 0 -88 28t-35 71q0 54 49 92l7 -5q-18 -39 -18 -76q0 -36 26.5 -58t66.5 -22q42 0 69 25t27 70q0 29 -16 56t-38 49.5t-44.5 45.5t-38.5 53t-16 63q0 52 38 87.5t94 35.5q49 0 79 -24.5t30 -60.5q0 -53 -42 -97l-8 6q12 40 12 68 q0 80 -74 80q-37 0 -62 -25.5t-25 -64.5q0 -29 16 -56.5t38 -50.5t44.5 -46t38.5 -51t16 -56z" />
<glyph unicode="t" horiz-adv-x="324" d="M180 -10q-32 0 -50.5 24t-18.5 67q0 33 7 67l67 312h-87l2 12l91 18l59 149l13 -1l-32 -148h155l-6 -30h-155l-67 -312q-7 -32 -7 -62q0 -61 44 -61q58 0 147 107l8 -5q-78 -137 -170 -137z" />
<glyph unicode="u" horiz-adv-x="513" d="M405 120q-10 -50 -10 -63q0 -27 18 -27q29 0 98 102l8 -5q-25 -55 -57 -96t-65 -41q-43 0 -43 56q0 21 11 74l26 117q-123 -247 -209 -247q-27 0 -41 20t-14 51q0 28 11.5 79.5t33.5 132t27 102.5q10 50 10 63q0 27 -18 27q-29 0 -98 -102l-8 5q25 55 57 96t65 41 q43 0 43 -56q0 -21 -11 -74q-8 -35 -27.5 -105.5t-32 -123.5t-12.5 -77q0 -39 27 -39q43 0 112 106t105 195l10 44l26 123l16 4q12 3 17 3q9 0 5 -21l-24 -109z" />
<glyph unicode="v" horiz-adv-x="380" d="M159 0h-10q25 329 25 390q0 75 -32 75t-101 -102l-8 5q64 137 123 137q57 0 57 -110q0 -131 -23 -324q79 104 132 217.5t53 187.5v24q8 5 19 5q27 0 27 -35q0 -66 -84 -218.5t-178 -251.5z" />
<glyph unicode="w" horiz-adv-x="608" d="M393 390v16q-31 -104 -93 -213t-141 -193h-10q25 329 25 390q0 75 -32 75t-101 -102l-8 5q64 137 123 137q57 0 57 -110q0 -131 -23 -324q85 112 133.5 226t59.5 205q8 3 17 3q18 0 25 -19t7 -76q0 -141 -23 -339q85 112 140 223.5t55 190.5v15q8 5 19 5q28 0 28 -30 q0 -63 -88.5 -218.5t-184.5 -256.5h-10q25 329 25 390z" />
<glyph unicode="x" horiz-adv-x="424" d="M294 155q19 -80 27.5 -102.5t22.5 -22.5q22 0 87 102l8 -5q-24 -55 -52.5 -96t-55.5 -41q-26 0 -40 31.5t-37 133.5l-17 72q-34 -37 -50 -55.5t-39.5 -51t-33.5 -60t-10 -55.5v-15q-8 -5 -18 -5t-17.5 8t-7.5 22q0 65 170 237l-20 88q-19 80 -27.5 102.5t-22.5 22.5 q-24 0 -87 -102l-8 5q24 55 52.5 96t55.5 41q26 0 40 -31.5t37 -133.5l16 -69q32 34 49 54.5t39.5 51t32.5 58.5t10 55v15q8 5 18 5q25 0 25 -30q0 -65 -168 -235z" />
<glyph unicode="y" horiz-adv-x="385" d="M148 505q70 0 70 -165q0 -154 -52 -323q97 88 151 199t54 230q0 36 -4 53q6 6 17 6q33 0 33 -57q0 -106 -71 -241.5t-194 -233.5q-80 -228 -201 -228q-32 0 -52 14.5t-20 35.5q0 19 17 30q29 -42 71 -42q99 0 160 215q24 84 36.5 179t12.5 158q0 130 -41 130 q-17 0 -37.5 -26t-50.5 -76l-8 5q20 55 49.5 96t59.5 41z" />
<glyph unicode="z" horiz-adv-x="387" d="M119 20q-40 0 -70 -30l-18 18q34 45 99.5 129.5t113 148.5t93.5 130q-92 46 -145 46q-26 0 -45 -22t-49 -77l-10 5q31 90 42 107q20 29 49 30q62 0 171 -70q15 22 47 70q24 -5 24 -26q0 -13 -17 -38q-36 -50 -78.5 -105.5t-67.5 -87.5t-85 -106.5t-82 -101.5q24 10 53 10 q14 0 70 -10t70 -10q20 0 48 41q16 23 40 61l8 -5q-14 -39 -28 -68q-17 -36 -30.5 -52.5t-32.5 -16.5q-21 0 -84 15t-86 15z" />
<glyph unicode="{" horiz-adv-x="403" d="M289 -175l-5 -18q-68 0 -104.5 25.5t-36.5 72.5q0 48 47 152.5t47 144.5q0 32 -19 49.5t-54 17.5h-15l6 26h15q117 0 117 172q0 13 -0.5 38.5t-0.5 37.5q0 107 47.5 160.5t150.5 53.5v-18q-87 -6 -121 -50.5t-34 -143.5q0 -11 0.5 -33t0.5 -34q0 -162 -99 -196 q48 -22 48 -78q0 -41 -47 -153t-47 -146q0 -38 25 -57t79 -23z" />
<glyph unicode="|" horiz-adv-x="318" d="M85 -252l-5 7l211 992l24 5l5 -7l-211 -992z" />
<glyph unicode="}" horiz-adv-x="403" d="M210 739l5 18q68 0 104.5 -25.5t36.5 -72.5q0 -48 -47 -152.5t-47 -144.5q0 -32 19 -49.5t54 -17.5h15l-6 -26h-15q-117 0 -117 -172q0 -13 0.5 -38.5t0.5 -37.5q0 -107 -47.5 -160.5t-150.5 -53.5v18q87 6 121 50.5t34 143.5q0 11 -0.5 33t-0.5 34q0 162 99 196 q-48 22 -48 78q0 41 47 153t47 146q0 38 -25 57t-79 23z" />
<glyph unicode="~" horiz-adv-x="520" d="M191 292q-12 0 -76 -62l-22 15q71 88 108 88q17 0 111.5 -27.5t114.5 -27.5q12 0 76 62l22 -15q-69 -88 -108 -88q-17 0 -113.5 27.5t-112.5 27.5z" />
<glyph unicode="&#xa1;" horiz-adv-x="279" d="M233 505q13 0 21 -8.5t8 -22.5q0 -25 -12.5 -42t-31.5 -17q-13 0 -21 8.5t-8 21.5q0 26 12.5 43t31.5 17zM122 -191l-4 -3q-19 -4 -44 -4q-12 0 -12 9q0 7 17 68l106 426h28z" />
<glyph unicode="&#xa2;" horiz-adv-x="433" d="M210 -137l-28 -3l-6 7l26 124q-117 10 -117 159q0 82 33.5 168t89 148t116.5 76l29 135l28 3l6 -7l-28 -128q41 -2 64.5 -29t23.5 -71q0 -38 -13.5 -68t-33.5 -30q-10 0 -16 4q19 44 19 89q0 32 -16 51.5t-45 19.5q-48 0 -98 -55.5t-82 -139.5t-32 -162q0 -57 25 -92 t74 -35q72 0 165 116l8 -6q-30 -59 -73 -99t-91 -47z" />
<glyph unicode="&#xa3;" horiz-adv-x="549" d="M462 298h-192l-19 -89q-27 -127 -68 -182q17 -7 88.5 -43t125 -55.5t97.5 -19.5q37 0 63 13q3 -8 3 -17q0 -41 -72 -41q-47 0 -104.5 25t-124.5 63.5t-99 51.5q-23 -20 -52 -20q-33 0 -33 25q0 15 14 24.5t36 9.5q15 0 33 -7q25 40 54 173q3 15 9.5 44.5t9.5 44.5h-116 l8 35h115q7 30 25 115q25 116 73 181.5t116 65.5q49 0 82 -30.5t33 -67.5q0 -28 -27 -36q-26 101 -100 101q-53 0 -83 -49.5t-53 -152.5l-27 -127h193z" />
<glyph unicode="&#xa4;" horiz-adv-x="541" d="M497 149l-24 -16l-57 72q-60 -42 -126 -42q-63 0 -103 34l-78 -64l-22 28l77 63q-24 36 -24 87q0 90 78 156l-52 69l28 22q7 -9 25.5 -32.5t29.5 -35.5q53 33 113 33q66 0 106 -38l88 73l22 -28l-88 -72q22 -38 22 -83q1 -81 -68 -147q11 -15 30 -37.5t25 -30.5zM182 311 q0 -48 29.5 -80.5t84.5 -32.5q69 0 121.5 55t52.5 122q0 48 -29.5 80.5t-84.5 32.5q-69 0 -121.5 -55t-52.5 -122z" />
<glyph unicode="&#xa5;" horiz-adv-x="678" d="M158 132l8 35h176l4 18q7 34 9 80h-169l8 35h161q-3 124 -38.5 239.5t-74.5 115.5q-32 0 -90 -102l-13 5q55 137 117 137q53 0 95 -122.5t44 -270.5q83 170 161 281.5t130 111.5q31 0 48 -39t20 -93l-13 -5q-24 97 -60 97q-34 0 -114.5 -116.5t-136.5 -238.5h164l-8 -35 h-171q-19 -44 -27 -80l-4 -18h182l-8 -35h-181l-3 -12l-18 -81l85 -19l-4 -20h-216l-2 20l67 13q28 5 33 30l13 57l3 12h-177z" />
<glyph unicode="&#xa6;" horiz-adv-x="318" d="M242 379l-24 -5l-5 7l78 366l24 5l5 -7zM109 -247l-24 -5l-5 7l78 366l24 5l5 -7z" />
<glyph unicode="&#xa7;" horiz-adv-x="522" d="M461 101q0 -111 -89.5 -191.5t-212.5 -80.5q-56 0 -92 20.5t-36 47.5q0 36 37 52l11 -2q56 -77 157 -83q29 24 49 71t20 87q0 65 -59 161q-5 7 -14.5 23t-13.5 23q-70 115 -70 199q0 109 89.5 188t212.5 79q55 0 91 -20.5t37 -47.5q0 -35 -37 -52l-11 2q-51 79 -155 83 q-30 -25 -50.5 -71t-20.5 -86q0 -66 59 -162q5 -8 14.5 -23.5t13.5 -22.5q22 -36 34.5 -60t24 -61t11.5 -73zM304 -98l6 -4q50 33 78.5 84t28.5 107q0 78 -65 179q-5 7 -14 21.5t-13 21.5q-65 108 -65 182q0 73 46 129l-6 4q-51 -33 -79 -83t-28 -106q0 -74 64 -180 q5 -8 14 -22.5t13 -21.5q65 -108 65 -183q0 -71 -45 -128z" />
<glyph unicode="&#xa8;" horiz-adv-x="458" d="M448 678q0 -23 -12.5 -40t-28.5 -17q-29 0 -29 33q0 21 12 38.5t30 17.5q28 0 28 -32zM258 678q0 -23 -12.5 -40t-28.5 -17q-29 0 -29 33q0 21 12 38.5t30 17.5q28 0 28 -32z" />
<glyph unicode="&#xa9;" horiz-adv-x="716" d="M341 -45q-107 0 -173 68t-66 176q0 143 103.5 244.5t249.5 101.5q106 0 173.5 -68.5t67.5 -175.5q0 -143 -104 -244.5t-251 -101.5zM447 507q-126 0 -216.5 -89.5t-90.5 -213.5q0 -93 58 -152t153 -59q126 0 216.5 89.5t90.5 213.5q0 93 -58 152t-153 59zM484 177 q-25 -44 -56 -70.5t-62 -26.5q-90 0 -90 104q0 86 57.5 161t119.5 75q33 0 49 -21t16 -49q0 -21 -9 -35.5t-23 -14.5q-5 0 -11 4q8 18 8 40q0 45 -40 45q-45 0 -85 -65t-40 -140q0 -73 55 -73q49 0 103 71z" />
<glyph unicode="&#xaa;" horiz-adv-x="376" d="M455 458q-49 -107 -96 -107q-35 0 -35 45q0 18 9 58l22 105q-98 -208 -168 -208q-23 0 -38 23.5t-15 65.5q0 123 68 218t154 95q41 0 71 -16v-1l-61 -282q-7 -37 -7 -46q0 -25 14 -25q23 0 75 79zM169 442q0 -26 8 -42t21 -16q34 0 92 94t82 163l17 76q-27 12 -56 12 q-59 0 -111.5 -87.5t-52.5 -199.5z" />
<glyph unicode="&#xab;" horiz-adv-x="539" d="M247 28l-18 -8q-52 125 -106 201l-3 6l9 40q72 64 200 210l13 -9q-53 -78 -177 -229q48 -100 82 -211zM447 28l-18 -8q-52 125 -106 201l-3 6l9 40q72 64 200 210l13 -9q-53 -78 -177 -229q48 -100 82 -211z" />
<glyph unicode="&#xac;" d="M557 440l-43 -203h-40l36 171h-370l7 35q153 5 403 5z" />
<glyph unicode="&#xae;" horiz-adv-x="716" d="M341 -45q-107 0 -173 68t-66 176q0 143 104 244.5t251 101.5q107 0 173 -68t66 -176q0 -143 -104 -244.5t-251 -101.5zM447 507q-126 0 -216.5 -89.5t-90.5 -213.5q0 -93 58 -152t153 -59q126 0 216.5 89.5t90.5 213.5q0 93 -58 152t-153 59zM367 91h-137l4 22l35 8 q16 4 20 19l8 41l32 150l11 47l-47 12l4 20h135q53 0 83 -21t30 -61q0 -73 -88 -102l27 -59q18 -41 37 -48l23 -8l-3 -20l-28 -1q-27 -1 -38.5 9t-22.5 36l-35 83q-22 -2 -32 -2h-41l-18 -90l48 -13zM369 331l-18 -85h51q45 0 72.5 21.5t27.5 56.5q0 56 -82 56h-40z" />
<glyph unicode="&#xaf;" horiz-adv-x="441" d="M189 653l8 34h234l-8 -34h-234z" />
<glyph unicode="&#xb0;" horiz-adv-x="378" d="M419 600q0 -56 -42 -98t-98 -42q-45 0 -71.5 25.5t-26.5 69.5q0 56 42 98t98 42q45 0 71.5 -25.5t26.5 -69.5zM220 560q0 -29 17.5 -47t47.5 -18q40 0 67.5 29t27.5 71q0 29 -17.5 47t-47.5 18q-40 0 -67.5 -29t-27.5 -71z" />
<glyph unicode="&#xb1;" d="M549 381h-186l-37 -178h-40l37 178h-179l8 35q123 3 179 3l37 174h40l-36 -173q71 1 183 1l6 -8zM485 83h-405l7 35q152 5 403 5l7 -8z" />
<glyph unicode="&#xb2;" horiz-adv-x="380" d="M196 367q-36 0 -64 -21l-11 14q156 106 222 174t66 123q0 34 -18 53.5t-51 19.5q-32 0 -66.5 -22t-60.5 -58l-13 7q25 45 63.5 71.5t85.5 26.5q44 0 69 -25t25 -68q0 -105 -195 -239q-9 -6 -27 -17.5t-21 -13.5q6 1 19 1q21 0 67.5 -8t57.5 -8q6 0 11.5 3t12 11.5 t10 13.5t12 18.5t10.5 16.5l5 -3q-8 -27 -18 -47q-22 -44 -44 -44q-16 0 -67 10.5t-80 10.5z" />
<glyph unicode="&#xb3;" horiz-adv-x="353" d="M387 489q0 -56 -74 -96t-188 -47l-3 18q98 9 164.5 42.5t66.5 80.5q0 65 -94 65q-23 0 -39 -3l-2 18q78 8 122.5 35.5t44.5 67.5q0 28 -18.5 44t-52.5 16q-65 0 -114 -62l-13 7q46 80 136 80q46 0 71 -20.5t25 -58.5q0 -37 -31.5 -66t-84.5 -44q84 -13 84 -77z" />
<glyph unicode="&#xb4;" horiz-adv-x="403" d="M348 754l6 2h4q27 0 27 -20q0 -45 -203 -155l-9 15q128 97 175 158z" />
<glyph unicode="&#xb6;" horiz-adv-x="595" d="M443 77q-24 -119 -86 -183.5t-146 -64.5q-60 0 -95 30t-35 81q0 61 67 105l10 -10q-32 -47 -32 -85q0 -40 25.5 -64t72.5 -24q68 0 113.5 60.5t64.5 159.5l103 483l18 85h-73l-90 -420q-99 0 -156 50t-57 136q0 117 86.5 193t220.5 76h204l2 -20l-67 -13q-28 -5 -33 -30 l-13 -57z" />
<glyph unicode="&#xb7;" horiz-adv-x="289" d="M231 276q0 -19 -12.5 -35t-32.5 -16q-18 0 -27 10.5t-9 26.5q0 19 12.5 35t32.5 16q18 0 27 -10.5t9 -26.5z" />
<glyph unicode="&#xb8;" horiz-adv-x="325" d="M146 -117q0 -35 -38.5 -61.5t-99.5 -33.5l-2 9q42 11 69 32t27 42q0 16 -14 26.5t-38 11.5l-2 5l34 86h31l-25 -64q58 -11 58 -53z" />
<glyph unicode="&#xb9;" horiz-adv-x="269" d="M277 356h-154l-1 9l43 7q13 2 18.5 6t7.5 14l70 332l-61 3l1 9l94 19l5 -6l-79 -372l58 -12z" />
<glyph unicode="&#xba;" horiz-adv-x="329" d="M395 614q0 -107 -49 -185t-113 -78q-40 0 -64.5 38t-24.5 98q0 104 50 185t113 81q43 0 65.5 -36.5t22.5 -102.5zM178 496q0 -56 16.5 -88t44.5 -32q50 0 85.5 75t35.5 171q0 106 -57 106q-49 0 -87 -73.5t-38 -158.5z" />
<glyph unicode="&#xbb;" horiz-adv-x="539" d="M373 469l18 8q52 -125 106 -201l3 -6l-9 -40q-72 -64 -200 -210l-13 9q53 78 177 229q-48 100 -82 211zM173 469l18 8q52 -125 106 -201l3 -6l-9 -40q-72 -64 -200 -210l-13 9q53 78 177 229q-48 100 -82 211z" />
<glyph unicode="&#xbc;" horiz-adv-x="920" d="M288 296h-154l-1 9l43 7q13 2 18.5 6t7.5 14l70 332l-61 3l1 9l94 19l5 -6l-79 -372l58 -12zM809 695l-572 -705h-39l571 705h40zM831 399l23 -3l-57 -271l66 1l-7 -26h-65l-21 -100h-33l22 101l-200 1l-5 15zM813 352l-221 -229l172 2z" />
<glyph unicode="&#xbd;" horiz-adv-x="920" d="M819 695l-572 -705h-39l571 705h40zM288 296h-154l-1 9l43 7q13 2 18.5 6t7.5 14l70 332l-61 3l1 9l94 19l5 -6l-79 -372l58 -12zM634 11q-36 0 -64 -21l-11 14q156 106 222 174t66 123q0 34 -18 53.5t-51 19.5q-32 0 -66.5 -22t-60.5 -58l-13 7q25 45 63.5 71.5 t85.5 26.5q44 0 69 -25t25 -68q0 -105 -195 -239q-9 -6 -27 -17.5t-21 -13.5q6 1 19 1q21 0 67.5 -8t57.5 -8q6 0 11.5 3t12 11.5t10 13.5t12 18.5t10.5 16.5l5 -3q-8 -27 -18 -47q-22 -44 -44 -44q-16 0 -67 10.5t-80 10.5z" />
<glyph unicode="&#xbe;" horiz-adv-x="920" d="M389 429q0 -56 -74 -96t-188 -47l-3 18q98 9 164.5 42.5t66.5 80.5q0 65 -94 65q-23 0 -39 -3l-2 18q78 8 122.5 35.5t44.5 67.5q0 28 -18.5 44t-52.5 16q-65 0 -114 -62l-13 7q46 80 136 80q46 0 71 -20.5t25 -58.5q0 -37 -31.5 -66t-84.5 -44q84 -13 84 -77zM819 695 l-572 -705h-39l571 705h40zM831 399l23 -3l-57 -271l66 1l-7 -26h-65l-21 -100h-33l22 101l-200 1l-5 15zM813 352l-221 -229l172 2z" />
<glyph unicode="&#xbf;" horiz-adv-x="398" d="M314 505q13 0 21 -8.5t8 -22.5q0 -25 -12.5 -42t-31.5 -17q-13 0 -21 8.5t-8 21.5q0 26 12.5 43t31.5 17zM232 273l10 8q40 -9 40 -46q0 -35 -24 -63.5t-59 -50.5t-69.5 -45.5t-58.5 -59t-24 -79.5q0 -48 27.5 -76.5t74.5 -28.5q67 0 112 43.5t45 108.5q0 9 -2 27 q14 6 23 6q28 0 28 -36q0 -72 -64 -126.5t-149 -54.5q-62 0 -101 38t-39 96q0 48 25 87t60 64.5t70.5 47.5t60.5 48.5t25 55.5q0 23 -11 36z" />
<glyph unicode="&#xc0;" horiz-adv-x="649" d="M584 795l-11 -16q-30 4 -74.5 17t-85 33.5t-39.5 39.5q0 19 27 29l6 -1q50 -53 177 -102zM444 687h23l76 -618q2 -18 8 -25.5t20 -10.5l57 -13l-2 -20h-205l-4 20l89 19l-26 216l-237 -4l-116 -212l82 -19l-4 -20h-200l-2 20l55 13q29 6 46 36zM261 285h215l-40 321z" />
<glyph unicode="&#xc1;" horiz-adv-x="649" d="M576 896l7 1q26 -6 26 -26q0 -24 -76 -51t-160 -42l-5 16q164 69 208 102zM444 687h23l76 -618q2 -18 8 -25.5t20 -10.5l57 -13l-2 -20h-205l-4 20l89 19l-26 216l-237 -4l-116 -212l82 -19l-4 -20h-200l-2 20l55 13q29 6 46 36zM261 285h215l-40 321z" />
<glyph unicode="&#xc2;" horiz-adv-x="649" d="M614 781l-16 -10q-61 61 -104 94q-64 -45 -147 -94l-9 12q96 74 138 118l7 4h37q52 -62 94 -124zM444 687h23l76 -618q2 -18 8 -25.5t20 -10.5l57 -13l-2 -20h-205l-4 20l89 19l-26 216l-237 -4l-116 -212l82 -19l-4 -20h-200l-2 20l55 13q29 6 46 36zM261 285h215 l-40 321z" />
<glyph unicode="&#xc3;" horiz-adv-x="649" d="M383 849q-14 -5 -79 -68l-8 5q26 52 50.5 77t57.5 25q29 0 90.5 -30t83.5 -30q16 5 79 68l8 -5q-25 -52 -50 -77t-59 -25q-27 0 -89 30t-84 30zM444 687h23l76 -618q2 -18 8 -25.5t20 -10.5l57 -13l-2 -20h-205l-4 20l89 19l-26 216l-237 -4l-116 -212l82 -19l-4 -20 h-200l-2 20l55 13q29 6 46 36zM261 285h215l-40 321z" />
<glyph unicode="&#xc4;" horiz-adv-x="649" d="M614 847q0 -22 -13 -38.5t-31 -16.5q-32 0 -32 31q0 20 13 37t32 17q31 0 31 -30zM424 847q0 -22 -13 -38.5t-31 -16.5q-32 0 -32 31q0 20 13 37t32 17q31 0 31 -30zM444 687h23l76 -618q2 -18 8 -25.5t20 -10.5l57 -13l-2 -20h-205l-4 20l89 19l-26 216l-237 -4 l-116 -212l82 -19l-4 -20h-200l-2 20l55 13q29 6 46 36zM261 285h215l-40 321z" />
<glyph unicode="&#xc5;" horiz-adv-x="649" d="M569 853q0 -36 -28.5 -61.5t-69.5 -25.5q-29 0 -45.5 15.5t-16.5 42.5q0 35 28.5 60t68.5 25q29 0 46 -15t17 -41zM443 824q0 -16 9.5 -25.5t25.5 -9.5q23 0 39.5 18t16.5 44q0 16 -9.5 25.5t-25.5 9.5q-23 0 -39.5 -18t-16.5 -44zM444 687h23l76 -618q2 -18 8 -25.5 t20 -10.5l57 -13l-2 -20h-205l-4 20l89 19l-26 216l-237 -4l-116 -212l82 -19l-4 -20h-200l-2 20l55 13q29 6 46 36zM261 285h215l-40 321z" />
<glyph unicode="&#xc6;" horiz-adv-x="866" d="M435 646l-81 19l6 20h548q-3 -62 -32 -165h-15q-1 22 -3.5 65.5t-3.5 64.5q-65 5 -112 5h-127l-63 -295l223 5l-9 -39l-220 5l-45 -211l-19 -90h158q69 0 114 5q11 21 31 64.5t31 65.5h15q-13 -96 -38 -165h-445l-2 20l67 13q17 3 24 9.5t10 20.5l56 266l-215 -4 l-158 -286l80 -19l-6 -20h-203l2 20q10 2 29.5 6.5t29.5 6.5q29 6 46 36zM572 655h-100l-165 -296h202z" />
<glyph unicode="&#xc7;" horiz-adv-x="582" d="M434 -117q0 -35 -38.5 -61.5t-99.5 -33.5l-2 9q42 11 69 32t27 42q0 16 -14 26.5t-38 11.5l-2 5l30 76q-118 0 -187.5 73t-69.5 197q0 117 52.5 217.5t142.5 159t195 58.5q82 0 124 -25q-6 -71 -33 -150h-15q-1 21 -3 63.5t-3 63.5q-37 13 -77 13q-135 0 -236.5 -117 t-101.5 -273q0 -117 60 -181t155 -64q42 0 92 13q10 21 30 63.5t30 63.5h15q-10 -76 -31 -145q-40 -23 -107 -29l-22 -55q58 -11 58 -53z" />
<glyph unicode="&#xc8;" horiz-adv-x="564" d="M559 794l-11 -16q-30 4 -74.5 17t-85 33.5t-39.5 39.5q0 19 27 29l6 -1q50 -53 177 -102zM303 565l-43 -205l213 5l-9 -39l-210 5l-45 -211l-19 -90h148q69 0 114 5q11 21 31.5 64.5t30.5 65.5h15q-13 -96 -38 -165h-435l-2 20l67 13q17 3 24 9.5t10 20.5l12 57l94 445 l17 81l-84 19l4 20h408q-3 -62 -32 -165h-15q-1 22 -3.5 65.5t-3.5 64.5q-65 5 -112 5h-118z" />
<glyph unicode="&#xc9;" horiz-adv-x="564" d="M541 895l7 1q26 -6 26 -26q0 -24 -76 -51t-160 -42l-5 16q164 69 208 102zM303 565l-43 -205l213 5l-9 -39l-210 5l-45 -211l-19 -90h148q69 0 114 5q11 21 31.5 64.5t30.5 65.5h15q-13 -96 -38 -165h-435l-2 20l67 13q17 3 24 9.5t10 20.5l12 57l94 445l17 81l-84 19 l4 20h408q-3 -62 -32 -165h-15q-1 22 -3.5 65.5t-3.5 64.5q-65 5 -112 5h-118z" />
<glyph unicode="&#xca;" horiz-adv-x="564" d="M579 780l-16 -10q-61 61 -104 94q-64 -45 -147 -94l-9 12q96 74 138 118l7 4h37q52 -62 94 -124zM303 565l-43 -205l213 5l-9 -39l-210 5l-45 -211l-19 -90h148q69 0 114 5q11 21 31.5 64.5t30.5 65.5h15q-13 -96 -38 -165h-435l-2 20l67 13q17 3 24 9.5t10 20.5l12 57 l94 445l17 81l-84 19l4 20h408q-3 -62 -32 -165h-15q-1 22 -3.5 65.5t-3.5 64.5q-65 5 -112 5h-118z" />
<glyph unicode="&#xcb;" horiz-adv-x="564" d="M594 846q0 -22 -13 -38.5t-31 -16.5q-32 0 -32 31q0 20 13 37t32 17q31 0 31 -30zM404 846q0 -22 -13 -38.5t-31 -16.5q-32 0 -32 31q0 20 13 37t32 17q31 0 31 -30zM303 565l-43 -205l213 5l-9 -39l-210 5l-45 -211l-19 -90h148q69 0 114 5q11 21 31.5 64.5t30.5 65.5 h15q-13 -96 -38 -165h-435l-2 20l67 13q17 3 24 9.5t10 20.5l12 57l94 445l17 81l-84 19l4 20h408q-3 -62 -32 -165h-15q-1 22 -3.5 65.5t-3.5 64.5q-65 5 -112 5h-118z" />
<glyph unicode="&#xcc;" horiz-adv-x="350" d="M440 795l-11 -16q-30 4 -74.5 17t-85 33.5t-39.5 39.5q0 19 27 29l6 -1q50 -53 177 -102zM191 39l85 -19l-4 -20h-216l-2 20l67 13q28 5 33 30l13 57l94 445l18 81l-85 19l4 20h216l2 -20l-67 -13q-28 -5 -33 -30l-13 -57l-94 -445z" />
<glyph unicode="&#xcd;" horiz-adv-x="350" d="M422 896l7 1q26 -6 26 -26q0 -24 -76 -51t-160 -42l-5 16q164 69 208 102zM191 39l85 -19l-4 -20h-216l-2 20l67 13q28 5 33 30l13 57l94 445l18 81l-85 19l4 20h216l2 -20l-67 -13q-28 -5 -33 -30l-13 -57l-94 -445z" />
<glyph unicode="&#xce;" horiz-adv-x="350" d="M467 781l-16 -10q-61 61 -104 94q-64 -45 -147 -94l-9 12q96 74 138 118l7 4h37q52 -62 94 -124zM191 39l85 -19l-4 -20h-216l-2 20l67 13q28 5 33 30l13 57l94 445l18 81l-85 19l4 20h216l2 -20l-67 -13q-28 -5 -33 -30l-13 -57l-94 -445z" />
<glyph unicode="&#xcf;" horiz-adv-x="350" d="M473 847q0 -22 -13 -38.5t-31 -16.5q-32 0 -32 31q0 20 13 37t32 17q31 0 31 -30zM283 847q0 -22 -13 -38.5t-31 -16.5q-32 0 -32 31q0 20 13 37t32 17q31 0 31 -30zM191 39l85 -19l-4 -20h-216l-2 20l67 13q28 5 33 30l13 57l94 445l18 81l-85 19l4 20h216l2 -20 l-67 -13q-28 -5 -33 -30l-13 -57l-94 -445z" />
<glyph unicode="&#xd0;" horiz-adv-x="644" d="M254 0h-198l-2 20l67 13q17 3 24 9.5t10 20.5l12 57l46 218h-110l6 30h110l42 197l17 81l-84 19l4 20h192q125 0 196.5 -69t71.5 -186q0 -110 -46.5 -206.5t-140.5 -160t-217 -63.5zM452 338h-197l-46 -218l-19 -88h67q108 0 190.5 57t124 146t41.5 192q0 106 -59.5 166 t-174.5 60h-58l-18 -88l-42 -197h197z" />
<glyph unicode="&#xd1;" horiz-adv-x="720" d="M439 849q-14 -5 -79 -68l-8 5q26 52 50.5 77t57.5 25q29 0 90.5 -30t83.5 -30q16 5 79 68l8 -5q-25 -52 -50 -77t-59 -25q-27 0 -89 30t-84 30zM184 39l105 -19l-4 -20h-229l-2 20l67 13q17 3 23.5 9t9.5 21l13 57l111 526l-84 19l4 20h119l241 -607l103 487l18 81 l-85 19l4 20h209l2 -20l-67 -13q-17 -3 -23.5 -9t-9.5 -21l-13 -57l-120 -565h-30l-242 605l-102 -485z" />
<glyph unicode="&#xd2;" horiz-adv-x="575" d="M546 795l-11 -16q-30 4 -74.5 17t-85 33.5t-39.5 39.5q0 19 27 29l6 -1q50 -53 177 -102zM593 454q0 -71 -21.5 -150t-59 -150t-97.5 -117.5t-129 -46.5q-83 0 -132.5 65t-49.5 174q0 77 22 158t61 150t99.5 113.5t130.5 44.5q81 0 128.5 -64.5t47.5 -176.5zM149 235 q0 -95 37.5 -152.5t107.5 -57.5q75 0 135 70t89.5 167t29.5 193q0 205 -139 205q-75 0 -136.5 -68.5t-92.5 -164.5t-31 -192z" />
<glyph unicode="&#xd3;" horiz-adv-x="575" d="M538 896l7 1q26 -6 26 -26q0 -24 -76 -51t-160 -42l-5 16q164 69 208 102zM593 454q0 -71 -21.5 -150t-59 -150t-97.5 -117.5t-129 -46.5q-83 0 -132.5 65t-49.5 174q0 77 22 158t61 150t99.5 113.5t130.5 44.5q81 0 128.5 -64.5t47.5 -176.5zM149 235q0 -95 37.5 -152.5 t107.5 -57.5q75 0 135 70t89.5 167t29.5 193q0 205 -139 205q-75 0 -136.5 -68.5t-92.5 -164.5t-31 -192z" />
<glyph unicode="&#xd4;" horiz-adv-x="575" d="M571 781l-16 -10q-61 61 -104 94q-64 -45 -147 -94l-9 12q96 74 138 118l7 4h37q52 -62 94 -124zM593 454q0 -71 -21.5 -150t-59 -150t-97.5 -117.5t-129 -46.5q-83 0 -132.5 65t-49.5 174q0 77 22 158t61 150t99.5 113.5t130.5 44.5q81 0 128.5 -64.5t47.5 -176.5z M149 235q0 -95 37.5 -152.5t107.5 -57.5q75 0 135 70t89.5 167t29.5 193q0 205 -139 205q-75 0 -136.5 -68.5t-92.5 -164.5t-31 -192z" />
<glyph unicode="&#xd5;" horiz-adv-x="575" d="M345 849q-14 -5 -79 -68l-8 5q26 52 50.5 77t57.5 25q29 0 90.5 -30t83.5 -30q16 5 79 68l8 -5q-25 -52 -50 -77t-59 -25q-27 0 -89 30t-84 30zM593 454q0 -71 -21.5 -150t-59 -150t-97.5 -117.5t-129 -46.5q-83 0 -132.5 65t-49.5 174q0 77 22 158t61 150t99.5 113.5 t130.5 44.5q81 0 128.5 -64.5t47.5 -176.5zM149 235q0 -95 37.5 -152.5t107.5 -57.5q75 0 135 70t89.5 167t29.5 193q0 205 -139 205q-75 0 -136.5 -68.5t-92.5 -164.5t-31 -192z" />
<glyph unicode="&#xd6;" horiz-adv-x="575" d="M576 847q0 -22 -13 -38.5t-31 -16.5q-32 0 -32 31q0 20 13 37t32 17q31 0 31 -30zM386 847q0 -22 -13 -38.5t-31 -16.5q-32 0 -32 31q0 20 13 37t32 17q31 0 31 -30zM593 454q0 -71 -21.5 -150t-59 -150t-97.5 -117.5t-129 -46.5q-83 0 -132.5 65t-49.5 174q0 77 22 158 t61 150t99.5 113.5t130.5 44.5q81 0 128.5 -64.5t47.5 -176.5zM149 235q0 -95 37.5 -152.5t107.5 -57.5q75 0 135 70t89.5 167t29.5 193q0 205 -139 205q-75 0 -136.5 -68.5t-92.5 -164.5t-31 -192z" />
<glyph unicode="&#xd7;" d="M466 150l-129 164l-200 -164l-23 33l198 162l-128 163l31 26q18 -22 65.5 -82.5t63.5 -80.5l199 163l23 -33l-198 -162q28 -36 72.5 -92t52.5 -66l-3 -11z" />
<glyph unicode="&#xd8;" horiz-adv-x="575" d="M593 454q0 -71 -21.5 -150t-59 -150t-97.5 -117.5t-129 -46.5q-55 0 -96.5 30t-63.5 84l-84 -86l-21 22l94 97q-11 42 -11 92q0 77 22 158t61 150t99.5 113.5t130.5 44.5q101 0 148 -97l68 70l22 -22l-78 -80q16 -47 16 -112zM149 235q0 -35 4 -59l380 389 q-30 95 -124 95q-75 0 -136.5 -68.5t-92.5 -164.5t-31 -192zM548 455q0 41 -6 75l-381 -390q33 -115 133 -115q75 0 135 70t89.5 167t29.5 193z" />
<glyph unicode="&#xd9;" horiz-adv-x="660" d="M614 795l-11 -16q-30 4 -74.5 17t-85 33.5t-39.5 39.5q0 19 27 29l6 -1q50 -53 177 -102zM584 235q-26 -124 -91 -184.5t-158 -60.5q-81 0 -132 47.5t-51 129.5q0 39 8 78l68 320l18 81l-85 19l4 20h216l2 -20l-67 -13q-28 -5 -33 -30l-13 -57l-69 -323q-7 -34 -7 -68 q0 -70 42 -109.5t108 -39.5q72 0 127 53t78 159l70 328l18 81l-85 19l4 20h209l2 -20l-95 -19l-18 -81z" />
<glyph unicode="&#xda;" horiz-adv-x="660" d="M596 896l7 1q26 -6 26 -26q0 -24 -76 -51t-160 -42l-5 16q164 69 208 102zM584 235q-26 -124 -91 -184.5t-158 -60.5q-81 0 -132 47.5t-51 129.5q0 39 8 78l68 320l18 81l-85 19l4 20h216l2 -20l-67 -13q-28 -5 -33 -30l-13 -57l-69 -323q-7 -34 -7 -68q0 -70 42 -109.5 t108 -39.5q72 0 127 53t78 159l70 328l18 81l-85 19l4 20h209l2 -20l-95 -19l-18 -81z" />
<glyph unicode="&#xdb;" horiz-adv-x="660" d="M634 781l-16 -10q-61 61 -104 94q-64 -45 -147 -94l-9 12q96 74 138 118l7 4h37q52 -62 94 -124zM584 235q-26 -124 -91 -184.5t-158 -60.5q-81 0 -132 47.5t-51 129.5q0 39 8 78l68 320l18 81l-85 19l4 20h216l2 -20l-67 -13q-28 -5 -33 -30l-13 -57l-69 -323 q-7 -34 -7 -68q0 -70 42 -109.5t108 -39.5q72 0 127 53t78 159l70 328l18 81l-85 19l4 20h209l2 -20l-95 -19l-18 -81z" />
<glyph unicode="&#xdc;" horiz-adv-x="660" d="M639 847q0 -22 -13 -38.5t-31 -16.5q-32 0 -32 31q0 20 13 37t32 17q31 0 31 -30zM449 847q0 -22 -13 -38.5t-31 -16.5q-32 0 -32 31q0 20 13 37t32 17q31 0 31 -30zM584 235q-26 -124 -91 -184.5t-158 -60.5q-81 0 -132 47.5t-51 129.5q0 39 8 78l68 320l18 81l-85 19 l4 20h216l2 -20l-67 -13q-28 -5 -33 -30l-13 -57l-69 -323q-7 -34 -7 -68q0 -70 42 -109.5t108 -39.5q72 0 127 53t78 159l70 328l18 81l-85 19l4 20h209l2 -20l-95 -19l-18 -81z" />
<glyph unicode="&#xdd;" horiz-adv-x="614" d="M572 896l7 1q26 -6 26 -26q0 -24 -76 -51t-160 -42l-5 16q164 69 208 102zM324 39l85 -19l-4 -20h-216l-2 20l67 13q28 5 33 30l13 57l13 60q14 87 3.5 192.5t-42 194t-64.5 88.5q-32 0 -90 -102l-13 5q55 137 117 137q52 0 94 -124.5t44 -273.5q83 171 161.5 284.5 t130.5 113.5q31 0 48 -39t20 -93l-13 -5q-24 97 -60 97q-29 0 -94 -87.5t-125 -202t-75 -185.5l-13 -60z" />
<glyph unicode="&#xde;" horiz-adv-x="524" d="M191 39l105 -19l-4 -20h-236l-2 20l67 13q28 5 33 30l13 57l95 450l18 81l-85 19l4 20h216l2 -20l-67 -13q-28 -5 -33 -30l-13 -57l-3 -16h60q97 0 150.5 -44t53.5 -126q0 -112 -77 -178.5t-202 -66.5h-73l-4 -19zM359 519h-66l-73 -347h74q110 0 168 60.5t58 146.5 q0 70 -42 105t-119 35z" />
<glyph unicode="&#xdf;" horiz-adv-x="505" d="M133 -8q-56 -247 -191 -247q-37 0 -61 17.5t-24 42.5q0 21 17 30q41 -57 90 -57q48 0 74.5 48t50.5 154l129 562q23 99 73 156t119 57q52 0 83 -30t31 -81q0 -73 -46.5 -133t-114.5 -72q59 -44 91 -106t32 -130q0 -89 -49 -151t-120 -62q-36 0 -60 17.5t-24 42.5 q0 21 17 30q13 -25 35 -41t46 -16q46 0 78.5 51t32.5 125q0 145 -125 234l3 13q71 10 115 61t44 121q0 46 -21 72.5t-58 26.5q-48 0 -84.5 -46t-54.5 -127z" />
<glyph unicode="&#xe0;" horiz-adv-x="465" d="M431 592l-13 -11q-34 28 -50 41.5t-42 38t-36.5 42t-8.5 29.5q5 23 37 23h4l5 -2q22 -59 104 -161zM357 120q-10 -50 -10 -63q0 -27 18 -27q29 0 98 102l8 -5q-25 -55 -57 -96t-65 -41q-43 0 -43 56q0 21 11 74l31 140q-126 -270 -218 -270q-29 0 -47.5 29t-18.5 81 q0 159 88 282t198 123q50 0 88 -20zM106 101q0 -32 9.5 -51.5t26.5 -19.5q31 0 82 67t91 144t57 126l20 92q-31 16 -72 16q-51 0 -100.5 -51t-81.5 -138.5t-32 -184.5z" />
<glyph unicode="&#xe1;" horiz-adv-x="465" d="M456 754l6 2h4q27 0 27 -20q0 -45 -203 -155l-9 15q128 97 175 158zM357 120q-10 -50 -10 -63q0 -27 18 -27q29 0 98 102l8 -5q-25 -55 -57 -96t-65 -41q-43 0 -43 56q0 21 11 74l31 140q-126 -270 -218 -270q-29 0 -47.5 29t-18.5 81q0 159 88 282t198 123q50 0 88 -20z M106 101q0 -32 9.5 -51.5t26.5 -19.5q31 0 82 67t91 144t57 126l20 92q-31 16 -72 16q-51 0 -100.5 -51t-81.5 -138.5t-32 -184.5z" />
<glyph unicode="&#xe2;" horiz-adv-x="465" d="M489 596l-16 -10q-54 78 -94 120q-59 -57 -137 -120l-9 12q86 90 126 148l7 4h41q44 -76 82 -154zM357 120q-10 -50 -10 -63q0 -27 18 -27q29 0 98 102l8 -5q-25 -55 -57 -96t-65 -41q-43 0 -43 56q0 21 11 74l31 140q-126 -270 -218 -270q-29 0 -47.5 29t-18.5 81 q0 159 88 282t198 123q50 0 88 -20zM106 101q0 -32 9.5 -51.5t26.5 -19.5q31 0 82 67t91 144t57 126l20 92q-31 16 -72 16q-51 0 -100.5 -51t-81.5 -138.5t-32 -184.5z" />
<glyph unicode="&#xe3;" horiz-adv-x="465" d="M283 689q-13 -5 -69 -70l-8 5q45 100 103 100q28 0 79.5 -30t69.5 -30q13 5 69 70l8 -5q-45 -100 -103 -100q-28 0 -81 30t-68 30zM357 120q-10 -50 -10 -63q0 -27 18 -27q29 0 98 102l8 -5q-25 -55 -57 -96t-65 -41q-43 0 -43 56q0 21 11 74l31 140q-126 -270 -218 -270 q-29 0 -47.5 29t-18.5 81q0 159 88 282t198 123q50 0 88 -20zM106 101q0 -32 9.5 -51.5t26.5 -19.5q31 0 82 67t91 144t57 126l20 92q-31 16 -72 16q-51 0 -100.5 -51t-81.5 -138.5t-32 -184.5z" />
<glyph unicode="&#xe4;" horiz-adv-x="465" d="M496 678q0 -23 -12.5 -40t-28.5 -17q-29 0 -29 33q0 21 12 38.5t30 17.5q28 0 28 -32zM306 678q0 -23 -12.5 -40t-28.5 -17q-29 0 -29 33q0 21 12 38.5t30 17.5q28 0 28 -32zM357 120q-10 -50 -10 -63q0 -27 18 -27q29 0 98 102l8 -5q-25 -55 -57 -96t-65 -41 q-43 0 -43 56q0 21 11 74l31 140q-126 -270 -218 -270q-29 0 -47.5 29t-18.5 81q0 159 88 282t198 123q50 0 88 -20zM106 101q0 -32 9.5 -51.5t26.5 -19.5q31 0 82 67t91 144t57 126l20 92q-31 16 -72 16q-51 0 -100.5 -51t-81.5 -138.5t-32 -184.5z" />
<glyph unicode="&#xe5;" horiz-adv-x="465" d="M456 683q0 -36 -28.5 -61.5t-69.5 -25.5q-29 0 -45.5 15.5t-16.5 42.5q0 35 28.5 60t68.5 25q29 0 46 -15t17 -41zM330 654q0 -16 9.5 -25.5t25.5 -9.5q23 0 39.5 18t16.5 44q0 16 -9.5 25.5t-25.5 9.5q-23 0 -39.5 -18t-16.5 -44zM357 120q-10 -50 -10 -63q0 -27 18 -27 q29 0 98 102l8 -5q-25 -55 -57 -96t-65 -41q-43 0 -43 56q0 21 11 74l31 140q-126 -270 -218 -270q-29 0 -47.5 29t-18.5 81q0 159 88 282t198 123q50 0 88 -20zM106 101q0 -32 9.5 -51.5t26.5 -19.5q31 0 82 67t91 144t57 126l20 92q-31 16 -72 16q-51 0 -100.5 -51 t-81.5 -138.5t-32 -184.5z" />
<glyph unicode="&#xe6;" horiz-adv-x="586" d="M579 127q-78 -137 -166 -137q-102 0 -102 160q0 14 2 40q-106 -200 -183 -200q-29 0 -47.5 29t-18.5 81q0 159 88 282t198 123q50 0 88 -20l-14 -44q61 64 122 64q36 0 54.5 -20.5t18.5 -56.5q0 -53 -41.5 -97.5t-99 -68.5t-116.5 -28q-9 -42 -9 -86q0 -57 18.5 -90 t54.5 -33q56 0 145 107zM106 101q0 -32 9.5 -51.5t26.5 -19.5q34 0 85.5 71t98.5 163l64 196q-31 15 -70 15q-51 0 -100.5 -51t-81.5 -138.5t-32 -184.5zM535 473q-51 0 -98.5 -62.5t-69.5 -151.5q90 9 150 57t60 110q0 21 -11 34t-31 13z" />
<glyph unicode="&#xe7;" horiz-adv-x="342" d="M232 -117q0 -35 -38.5 -61.5t-99.5 -33.5l-2 9q42 11 69 32t27 42q0 16 -14 26.5t-38 11.5l-2 5l30 77q-92 10 -92 149q0 138 75.5 251.5t163.5 113.5q35 0 55 -23t20 -60q0 -31 -14 -56.5t-33 -25.5q-6 0 -12 4q19 36 19 73q0 56 -49 56q-43 0 -86 -49.5t-70 -127 t-27 -155.5q0 -116 78 -116q57 0 146 107l8 -5q-71 -124 -150 -136l-22 -55q58 -11 58 -53z" />
<glyph unicode="&#xe8;" horiz-adv-x="348" d="M389 592l-13 -11q-34 28 -50 41.5t-42 38t-36.5 42t-8.5 29.5q5 23 37 23h4l5 -2q22 -59 104 -161zM341 127q-78 -137 -166 -137q-102 0 -102 160q0 84 34.5 167t89.5 135.5t111 52.5q36 0 54.5 -20.5t18.5 -56.5q0 -53 -41.5 -97.5t-99 -68.5t-116.5 -28q-9 -42 -9 -86 q0 -57 18.5 -90t54.5 -33q56 0 145 107zM297 473q-51 0 -98.5 -62.5t-69.5 -151.5q90 9 150 57t60 110q0 21 -11 34t-31 13z" />
<glyph unicode="&#xe9;" horiz-adv-x="348" d="M394 754l6 2h4q27 0 27 -20q0 -45 -203 -155l-9 15q128 97 175 158zM341 127q-78 -137 -166 -137q-102 0 -102 160q0 84 34.5 167t89.5 135.5t111 52.5q36 0 54.5 -20.5t18.5 -56.5q0 -53 -41.5 -97.5t-99 -68.5t-116.5 -28q-9 -42 -9 -86q0 -57 18.5 -90t54.5 -33 q56 0 145 107zM297 473q-51 0 -98.5 -62.5t-69.5 -151.5q90 9 150 57t60 110q0 21 -11 34t-31 13z" />
<glyph unicode="&#xea;" horiz-adv-x="348" d="M438 596l-16 -10q-54 78 -94 120q-59 -57 -137 -120l-9 12q86 90 126 148l7 4h41q44 -76 82 -154zM341 127q-78 -137 -166 -137q-102 0 -102 160q0 84 34.5 167t89.5 135.5t111 52.5q36 0 54.5 -20.5t18.5 -56.5q0 -53 -41.5 -97.5t-99 -68.5t-116.5 -28q-9 -42 -9 -86 q0 -57 18.5 -90t54.5 -33q56 0 145 107zM297 473q-51 0 -98.5 -62.5t-69.5 -151.5q90 9 150 57t60 110q0 21 -11 34t-31 13z" />
<glyph unicode="&#xeb;" horiz-adv-x="348" d="M454 678q0 -23 -12.5 -40t-28.5 -17q-29 0 -29 33q0 21 12 38.5t30 17.5q28 0 28 -32zM264 678q0 -23 -12.5 -40t-28.5 -17q-29 0 -29 33q0 21 12 38.5t30 17.5q28 0 28 -32zM341 127q-78 -137 -166 -137q-102 0 -102 160q0 84 34.5 167t89.5 135.5t111 52.5 q36 0 54.5 -20.5t18.5 -56.5q0 -53 -41.5 -97.5t-99 -68.5t-116.5 -28q-9 -42 -9 -86q0 -57 18.5 -90t54.5 -33q56 0 145 107zM297 473q-51 0 -98.5 -62.5t-69.5 -151.5q90 9 150 57t60 110q0 21 -11 34t-31 13z" />
<glyph unicode="&#xec;" horiz-adv-x="278" d="M336 592l-13 -11q-34 28 -50 41.5t-42 38t-36.5 42t-8.5 29.5q5 23 37 23h4l5 -2q22 -59 104 -161zM169 120q-10 -50 -10 -63q0 -27 18 -27q29 0 98 102l8 -5q-25 -55 -57 -96t-65 -41q-43 0 -43 56q0 21 11 74q1 7 61 255q10 50 10 63q0 27 -18 27q-29 0 -98 -102l-8 5 q25 55 57 96t65 41q43 0 43 -56q0 -21 -11 -74q-9 -40 -31 -130t-30 -125z" />
<glyph unicode="&#xed;" horiz-adv-x="278" d="M331 754l6 2h4q27 0 27 -20q0 -45 -203 -155l-9 15q128 97 175 158zM169 120q-10 -50 -10 -63q0 -27 18 -27q29 0 98 102l8 -5q-25 -55 -57 -96t-65 -41q-43 0 -43 56q0 21 11 74q1 7 61 255q10 50 10 63q0 27 -18 27q-29 0 -98 -102l-8 5q25 55 57 96t65 41q43 0 43 -56 q0 -21 -11 -74q-9 -40 -31 -130t-30 -125z" />
<glyph unicode="&#xee;" horiz-adv-x="278" d="M340 596l-16 -10q-7 14 -26.5 55t-29.5 61q-28 -30 -116 -116l-9 12q11 15 38 50t45.5 60t25.5 38l7 4h41q2 -12 40 -154zM169 120q-10 -50 -10 -63q0 -27 18 -27q29 0 98 102l8 -5q-25 -55 -57 -96t-65 -41q-43 0 -43 56q0 21 11 74q1 7 61 255q10 50 10 63q0 27 -18 27 q-29 0 -98 -102l-8 5q25 55 57 96t65 41q43 0 43 -56q0 -21 -11 -74q-9 -40 -31 -130t-30 -125z" />
<glyph unicode="&#xef;" horiz-adv-x="278" d="M363 670q-2 -20 -12 -34.5t-27 -14.5q-15 0 -23.5 12t-7.5 30q1 19 12.5 33.5t27.5 14.5q15 0 23.5 -11.5t6.5 -29.5zM223 670q-2 -20 -12 -34.5t-27 -14.5q-15 0 -23.5 12t-7.5 30q1 19 12.5 33.5t27.5 14.5q15 0 23.5 -11.5t6.5 -29.5zM169 120q-10 -50 -10 -63 q0 -27 18 -27q29 0 98 102l8 -5q-25 -55 -57 -96t-65 -41q-43 0 -43 56q0 21 11 74q1 7 61 255q10 50 10 63q0 27 -18 27q-29 0 -98 -102l-8 5q25 55 57 96t65 41q43 0 43 -56q0 -21 -11 -74q-9 -40 -31 -130t-30 -125z" />
<glyph unicode="&#xf0;" horiz-adv-x="412" d="M208 -10q-51 0 -82 48t-31 125q0 133 63 237.5t142 104.5q47 0 69 -46q-14 94 -48 153l-161 -67l-7 25l155 64q-42 63 -112 100l11 18q83 -38 131 -105l124 51l7 -25l-117 -48q61 -103 63 -296q1 -77 -24 -154t-74 -131t-109 -54zM300 473q-43 0 -81 -46.5t-60 -116.5 t-22 -141q0 -68 21 -107.5t56 -39.5q43 0 80 43.5t58 114.5t21 149q0 144 -73 144z" />
<glyph unicode="&#xf1;" horiz-adv-x="505" d="M294 689q-13 -5 -69 -70l-8 5q45 100 103 100q28 0 79.5 -30t69.5 -30q13 5 69 70l8 -5q-45 -100 -103 -100q-28 0 -81 30t-68 30zM110 11l24 109q10 43 28.5 128t27.5 127q10 43 10 63q0 27 -18 27q-29 0 -98 -102l-8 5q25 55 57 96t65 41q43 0 43 -56q0 -27 -36 -191 q25 50 41 79t46.5 75t60.5 69.5t59 23.5q28 0 42 -20t14 -51q0 -28 -11.5 -79.5t-33.5 -132t-27 -102.5q-10 -50 -10 -63q0 -27 18 -27q29 0 98 102l8 -5q-25 -55 -57 -96t-65 -41q-43 0 -43 56q0 21 11 74q8 35 27.5 105.5t32 123t12.5 77.5q0 39 -31 39q-32 0 -77.5 -59.5 t-78 -121.5t-56.5 -118l-11 -46l-26 -123l-16 -4q-12 -3 -17 -3q-9 0 -5 21z" />
<glyph unicode="&#xf2;" horiz-adv-x="394" d="M378 592l-13 -11q-34 28 -50 41.5t-42 38t-36.5 42t-8.5 29.5q5 23 37 23h4l5 -2q22 -59 104 -161zM397 335q0 -140 -63 -242.5t-145 -102.5q-51 0 -81.5 48.5t-30.5 124.5q0 133 64.5 237.5t145.5 104.5q54 0 82 -45t28 -125zM119 169q0 -68 21 -107.5t56 -39.5 q43 0 80 44.5t58 117t21 152.5q0 137 -73 137q-43 0 -81 -46.5t-60 -116.5t-22 -141z" />
<glyph unicode="&#xf3;" horiz-adv-x="394" d="M383 754l6 2h4q27 0 27 -20q0 -45 -203 -155l-9 15q128 97 175 158zM397 335q0 -140 -63 -242.5t-145 -102.5q-51 0 -81.5 48.5t-30.5 124.5q0 133 64.5 237.5t145.5 104.5q54 0 82 -45t28 -125zM119 169q0 -68 21 -107.5t56 -39.5q43 0 80 44.5t58 117t21 152.5 q0 137 -73 137q-43 0 -81 -46.5t-60 -116.5t-22 -141z" />
<glyph unicode="&#xf4;" horiz-adv-x="394" d="M431 596l-16 -10q-54 78 -94 120q-59 -57 -137 -120l-9 12q86 90 126 148l7 4h41q44 -76 82 -154zM397 335q0 -140 -63 -242.5t-145 -102.5q-51 0 -81.5 48.5t-30.5 124.5q0 133 64.5 237.5t145.5 104.5q54 0 82 -45t28 -125zM119 169q0 -68 21 -107.5t56 -39.5 q43 0 80 44.5t58 117t21 152.5q0 137 -73 137q-43 0 -81 -46.5t-60 -116.5t-22 -141z" />
<glyph unicode="&#xf5;" horiz-adv-x="394" d="M220 689q-13 -5 -69 -70l-8 5q45 100 103 100q28 0 79.5 -30t69.5 -30q13 5 69 70l8 -5q-45 -100 -103 -100q-28 0 -81 30t-68 30zM397 335q0 -140 -63 -242.5t-145 -102.5q-51 0 -81.5 48.5t-30.5 124.5q0 133 64.5 237.5t145.5 104.5q54 0 82 -45t28 -125zM119 169 q0 -68 21 -107.5t56 -39.5q43 0 80 44.5t58 117t21 152.5q0 137 -73 137q-43 0 -81 -46.5t-60 -116.5t-22 -141z" />
<glyph unicode="&#xf6;" horiz-adv-x="394" d="M443 678q0 -23 -12.5 -40t-28.5 -17q-29 0 -29 33q0 21 12 38.5t30 17.5q28 0 28 -32zM253 678q0 -23 -12.5 -40t-28.5 -17q-29 0 -29 33q0 21 12 38.5t30 17.5q28 0 28 -32zM397 335q0 -140 -63 -242.5t-145 -102.5q-51 0 -81.5 48.5t-30.5 124.5q0 133 64.5 237.5 t145.5 104.5q54 0 82 -45t28 -125zM119 169q0 -68 21 -107.5t56 -39.5q43 0 80 44.5t58 117t21 152.5q0 137 -73 137q-43 0 -81 -46.5t-60 -116.5t-22 -141z" />
<glyph unicode="&#xf7;" d="M371 481q-13 0 -21 8.5t-8 22.5q0 25 12.5 42t31.5 17q13 0 21 -8.5t8 -21.5q0 -26 -12.5 -43t-31.5 -17zM536 322h-405l7 35q152 5 403 5l7 -8zM292 111q-13 0 -21 8.5t-8 22.5q0 25 12.5 42t31.5 17q13 0 21 -8.5t8 -21.5q0 -26 -12.5 -43t-31.5 -17z" />
<glyph unicode="&#xf8;" horiz-adv-x="394" d="M397 335q0 -140 -63 -242.5t-145 -102.5q-35 0 -62 25.5t-40 68.5l-70 -71l-20 24l83 84q-3 19 -3 42q0 133 64.5 237.5t145.5 104.5q69 0 96 -76l53 54l21 -24l-65 -65q5 -30 5 -59zM119 169v-8l231 235q-15 77 -68 77q-43 0 -81 -46.5t-60 -116.5t-22 -141zM355 336v19 l-233 -235q7 -47 26.5 -72.5t47.5 -25.5q43 0 80 44.5t58 117t21 152.5z" />
<glyph unicode="&#xf9;" horiz-adv-x="513" d="M442 592l-13 -11q-34 28 -50 41.5t-42 38t-36.5 42t-8.5 29.5q5 23 37 23h4l5 -2q22 -59 104 -161zM405 120q-10 -50 -10 -63q0 -27 18 -27q29 0 98 102l8 -5q-25 -55 -57 -96t-65 -41q-43 0 -43 56q0 21 11 74l26 117q-123 -247 -209 -247q-27 0 -41 20t-14 51 q0 28 11.5 79.5t33.5 132t27 102.5q10 50 10 63q0 27 -18 27q-29 0 -98 -102l-8 5q25 55 57 96t65 41q43 0 43 -56q0 -21 -11 -74q-8 -35 -27.5 -105.5t-32 -123.5t-12.5 -77q0 -39 27 -39q43 0 112 106t105 195l10 44l26 123l16 4q12 3 17 3q9 0 5 -21l-24 -109z" />
<glyph unicode="&#xfa;" horiz-adv-x="513" d="M447 754l6 2h4q27 0 27 -20q0 -45 -203 -155l-9 15q128 97 175 158zM405 120q-10 -50 -10 -63q0 -27 18 -27q29 0 98 102l8 -5q-25 -55 -57 -96t-65 -41q-43 0 -43 56q0 21 11 74l26 117q-123 -247 -209 -247q-27 0 -41 20t-14 51q0 28 11.5 79.5t33.5 132t27 102.5 q10 50 10 63q0 27 -18 27q-29 0 -98 -102l-8 5q25 55 57 96t65 41q43 0 43 -56q0 -21 -11 -74q-8 -35 -27.5 -105.5t-32 -123.5t-12.5 -77q0 -39 27 -39q43 0 112 106t105 195l10 44l26 123l16 4q12 3 17 3q9 0 5 -21l-24 -109z" />
<glyph unicode="&#xfb;" horiz-adv-x="513" d="M490 596l-16 -10q-54 78 -94 120q-59 -57 -137 -120l-9 12q86 90 126 148l7 4h41q44 -76 82 -154zM405 120q-10 -50 -10 -63q0 -27 18 -27q29 0 98 102l8 -5q-25 -55 -57 -96t-65 -41q-43 0 -43 56q0 21 11 74l26 117q-123 -247 -209 -247q-27 0 -41 20t-14 51 q0 28 11.5 79.5t33.5 132t27 102.5q10 50 10 63q0 27 -18 27q-29 0 -98 -102l-8 5q25 55 57 96t65 41q43 0 43 -56q0 -21 -11 -74q-8 -35 -27.5 -105.5t-32 -123.5t-12.5 -77q0 -39 27 -39q43 0 112 106t105 195l10 44l26 123l16 4q12 3 17 3q9 0 5 -21l-24 -109z" />
<glyph unicode="&#xfc;" horiz-adv-x="513" d="M507 678q0 -23 -12.5 -40t-28.5 -17q-29 0 -29 33q0 21 12 38.5t30 17.5q28 0 28 -32zM317 678q0 -23 -12.5 -40t-28.5 -17q-29 0 -29 33q0 21 12 38.5t30 17.5q28 0 28 -32zM405 120q-10 -50 -10 -63q0 -27 18 -27q29 0 98 102l8 -5q-25 -55 -57 -96t-65 -41 q-43 0 -43 56q0 21 11 74l26 117q-123 -247 -209 -247q-27 0 -41 20t-14 51q0 28 11.5 79.5t33.5 132t27 102.5q10 50 10 63q0 27 -18 27q-29 0 -98 -102l-8 5q25 55 57 96t65 41q43 0 43 -56q0 -21 -11 -74q-8 -35 -27.5 -105.5t-32 -123.5t-12.5 -77q0 -39 27 -39 q43 0 112 106t105 195l10 44l26 123l16 4q12 3 17 3q9 0 5 -21l-24 -109z" />
<glyph unicode="&#xfd;" horiz-adv-x="385" d="M373 754l6 2h4q27 0 27 -20q0 -45 -203 -155l-9 15q128 97 175 158zM148 505q70 0 70 -165q0 -154 -52 -323q97 88 151 199t54 230q0 36 -4 53q6 6 17 6q33 0 33 -57q0 -106 -71 -241.5t-194 -233.5q-80 -228 -201 -228q-32 0 -52 14.5t-20 35.5q0 19 17 30 q29 -42 71 -42q99 0 160 215q24 84 36.5 179t12.5 158q0 130 -41 130q-17 0 -37.5 -26t-50.5 -76l-8 5q20 55 49.5 96t59.5 41z" />
<glyph unicode="&#xfe;" horiz-adv-x="422" d="M22 -234l24 109l167 759l16 72l-75 11v10q54 16 115 27l8 -8l-24 -112l-82 -373q4 7 17.5 35.5t22 45.5t24 45t29.5 45.5t30.5 35.5t35 27.5t36.5 9.5q34 1 52 -31t18 -89q0 -156 -76 -275.5t-174 -119.5q-35 0 -72 10l-28 -125l-26 -123l-16 -4q-12 -3 -17 -3 q-9 0 -5 21zM353 465q-23 0 -54 -34.5t-61 -89.5t-50.5 -97.5t-38.5 -84.5l-27 -121q37 -16 79 -16q53 0 98 52.5t70 135.5t25 173q0 82 -41 82z" />
<glyph unicode="&#xff;" horiz-adv-x="385" d="M424 678q0 -23 -12.5 -40t-28.5 -17q-29 0 -29 33q0 21 12 38.5t30 17.5q28 0 28 -32zM234 678q0 -23 -12.5 -40t-28.5 -17q-29 0 -29 33q0 21 12 38.5t30 17.5q28 0 28 -32zM148 505q70 0 70 -165q0 -154 -52 -323q97 88 151 199t54 230q0 36 -4 53q6 6 17 6 q33 0 33 -57q0 -106 -71 -241.5t-194 -233.5q-80 -228 -201 -228q-32 0 -52 14.5t-20 35.5q0 19 17 30q29 -42 71 -42q99 0 160 215q24 84 36.5 179t12.5 158q0 130 -41 130q-17 0 -37.5 -26t-50.5 -76l-8 5q20 55 49.5 96t59.5 41z" />
<glyph unicode="&#x100;" horiz-adv-x="649" d="M350 819l8 34h252l-8 -34h-252zM444 687h23l76 -618q2 -18 8 -25.5t20 -10.5l57 -13l-2 -20h-205l-4 20l89 19l-26 216l-237 -4l-116 -212l82 -19l-4 -20h-200l-2 20l55 13q29 6 46 36zM261 285h215l-40 321z" />
<glyph unicode="&#x101;" horiz-adv-x="465" d="M238 653l8 34h234l-8 -34h-234zM357 120q-10 -50 -10 -63q0 -27 18 -27q29 0 98 102l8 -5q-25 -55 -57 -96t-65 -41q-43 0 -43 56q0 21 11 74l31 140q-126 -270 -218 -270q-29 0 -47.5 29t-18.5 81q0 159 88 282t198 123q50 0 88 -20zM106 101q0 -32 9.5 -51.5 t26.5 -19.5q31 0 82 67t91 144t57 126l20 92q-31 16 -72 16q-51 0 -100.5 -51t-81.5 -138.5t-32 -184.5z" />
<glyph unicode="&#x102;" horiz-adv-x="649" d="M596 890l4 2l13 -8q-53 -99 -147 -99q-44 0 -67 27.5t-21 76.5l16 3q3 -30 25 -47t59 -17q70 0 118 62zM444 687h23l76 -618q2 -18 8 -25.5t20 -10.5l57 -13l-2 -20h-205l-4 20l89 19l-26 216l-237 -4l-116 -212l82 -19l-4 -20h-200l-2 20l55 13q29 6 46 36zM261 285h215 l-40 321z" />
<glyph unicode="&#x103;" horiz-adv-x="465" d="M488 728l4 2l14 -3q-52 -122 -148 -122q-44 0 -67.5 32t-21.5 90l17 3q3 -38 25 -60t59 -22q70 0 118 80zM357 120q-10 -50 -10 -63q0 -27 18 -27q29 0 98 102l8 -5q-25 -55 -57 -96t-65 -41q-43 0 -43 56q0 21 11 74l31 140q-126 -270 -218 -270q-29 0 -47.5 29 t-18.5 81q0 159 88 282t198 123q50 0 88 -20zM106 101q0 -32 9.5 -51.5t26.5 -19.5q31 0 82 67t91 144t57 126l20 92q-31 16 -72 16q-51 0 -100.5 -51t-81.5 -138.5t-32 -184.5z" />
<glyph unicode="&#x104;" horiz-adv-x="649" d="M623 0q-61 -23 -98 -61t-37 -74q0 -17 9 -27t22 -10q34 0 92 68l8 -5q-48 -103 -112 -103q-62 0 -62 66q0 37 32 77t88 69h-144l-4 20l89 19l-26 216l-237 -4l-116 -212l82 -19l-4 -20h-200l-2 20l55 13q29 6 46 36l340 618h23l76 -618q2 -18 8 -25.5t20 -10.5l57 -13 l-2 -20h-3zM261 285h215l-40 321z" />
<glyph unicode="&#x105;" horiz-adv-x="465" d="M357 120q-10 -50 -10 -63q0 -27 18 -27q29 0 98 102l8 -5q-25 -54 -51 -89q-23 -33 -59.5 -71t-56 -63t-19.5 -47q0 -13 7.5 -21t20.5 -8q5 0 10 1t10.5 4t9.5 5.5t9.5 7.5t9 8t9.5 10t8.5 10t9.5 11.5t9 10.5l8 -5q-48 -103 -108 -103q-25 0 -40.5 16.5t-15.5 42.5 q0 20 12 41t22.5 32t39.5 36.5t38 33.5h-5q-43 0 -43 56q0 21 11 74l31 140q-126 -270 -218 -270q-29 0 -47.5 29t-18.5 81q0 159 88 282t198 123q50 0 88 -20zM106 101q0 -32 9.5 -51.5t26.5 -19.5q31 0 82 67t91 144t57 126l20 92q-31 16 -72 16q-51 0 -100.5 -51 t-81.5 -138.5t-32 -184.5z" />
<glyph unicode="&#x106;" horiz-adv-x="582" d="M609 896l7 1q26 -6 26 -26q0 -24 -76 -51t-160 -42l-5 16q164 69 208 102zM367 -10q-119 0 -188.5 73t-69.5 197q0 117 52.5 217.5t142.5 159t195 58.5q82 0 124 -25q-6 -71 -33 -150h-15q-1 21 -3 63.5t-3 63.5q-37 13 -77 13q-135 0 -236.5 -117t-101.5 -273 q0 -117 60 -181t155 -64q42 0 92 13q10 21 30 63.5t30 63.5h15q-10 -76 -31 -145q-55 -30 -138 -30z" />
<glyph unicode="&#x107;" horiz-adv-x="342" d="M429 754l6 2h4q27 0 27 -20q0 -45 -203 -155l-9 15q128 97 175 158zM311 505q35 0 55 -23t20 -60q0 -31 -14 -56.5t-33 -25.5q-6 0 -12 4q19 36 19 73q0 56 -49 56q-43 0 -86 -49.5t-70 -127t-27 -155.5q0 -116 78 -116q57 0 146 107l8 -5q-78 -137 -166 -137 q-108 0 -108 150q0 138 75.5 251.5t163.5 113.5z" />
<glyph unicode="&#x108;" horiz-adv-x="582" d="M647 781l-16 -10q-61 61 -104 94q-64 -45 -147 -94l-9 12q96 74 138 118l7 4h37q52 -62 94 -124zM367 -10q-119 0 -188.5 73t-69.5 197q0 117 52.5 217.5t142.5 159t195 58.5q82 0 124 -25q-6 -71 -33 -150h-15q-1 21 -3 63.5t-3 63.5q-37 13 -77 13q-135 0 -236.5 -117 t-101.5 -273q0 -117 60 -181t155 -64q42 0 92 13q10 21 30 63.5t30 63.5h15q-10 -76 -31 -145q-55 -30 -138 -30z" />
<glyph unicode="&#x109;" horiz-adv-x="342" d="M447 596l-16 -10q-54 78 -94 120q-59 -57 -137 -120l-9 12q86 90 126 148l7 4h41q44 -76 82 -154zM311 505q35 0 55 -23t20 -60q0 -31 -14 -56.5t-33 -25.5q-6 0 -12 4q19 36 19 73q0 56 -49 56q-43 0 -86 -49.5t-70 -127t-27 -155.5q0 -116 78 -116q57 0 146 107l8 -5 q-78 -137 -166 -137q-108 0 -108 150q0 138 75.5 251.5t163.5 113.5z" />
<glyph unicode="&#x10a;" horiz-adv-x="582" d="M560 844q0 -20 -14 -36t-33 -16q-32 0 -32 32q0 20 14 35t33 15q32 0 32 -30zM367 -10q-119 0 -188.5 73t-69.5 197q0 117 52.5 217.5t142.5 159t195 58.5q82 0 124 -25q-6 -71 -33 -150h-15q-1 21 -3 63.5t-3 63.5q-37 13 -77 13q-135 0 -236.5 -117t-101.5 -273 q0 -117 60 -181t155 -64q42 0 92 13q10 21 30 63.5t30 63.5h15q-10 -76 -31 -145q-55 -30 -138 -30z" />
<glyph unicode="&#x10b;" horiz-adv-x="342" d="M341 618q-13 0 -21 8.5t-8 22.5q0 25 12.5 42t31.5 17q13 0 21 -8.5t8 -21.5q0 -26 -12.5 -43t-31.5 -17zM311 505q35 0 55 -23t20 -60q0 -31 -14 -56.5t-33 -25.5q-6 0 -12 4q19 36 19 73q0 56 -49 56q-43 0 -86 -49.5t-70 -127t-27 -155.5q0 -116 78 -116q57 0 146 107 l8 -5q-78 -137 -166 -137q-108 0 -108 150q0 138 75.5 251.5t163.5 113.5z" />
<glyph unicode="&#x10c;" horiz-adv-x="582" d="M528 775l-6 -4h-41q-21 27 -84 124l16 10q61 -66 94 -94q63 42 153 94l10 -12q-89 -67 -142 -118zM367 -10q-119 0 -188.5 73t-69.5 197q0 117 52.5 217.5t142.5 159t195 58.5q82 0 124 -25q-6 -71 -33 -150h-15q-1 21 -3 63.5t-3 63.5q-37 13 -77 13q-135 0 -236.5 -117 t-101.5 -273q0 -117 60 -181t155 -64q42 0 92 13q10 21 30 63.5t30 63.5h15q-10 -76 -31 -145q-55 -30 -138 -30z" />
<glyph unicode="&#x10d;" horiz-adv-x="342" d="M352 590l-6 -4h-41q-30 54 -75 154l16 10q57 -86 86 -120q58 54 145 120l10 -12q-88 -86 -135 -148zM311 505q35 0 55 -23t20 -60q0 -31 -14 -56.5t-33 -25.5q-6 0 -12 4q19 36 19 73q0 56 -49 56q-43 0 -86 -49.5t-70 -127t-27 -155.5q0 -116 78 -116q57 0 146 107l8 -5 q-78 -137 -166 -137q-108 0 -108 150q0 138 75.5 251.5t163.5 113.5z" />
<glyph unicode="&#x10e;" horiz-adv-x="644" d="M493 775l-6 -4h-41q-21 27 -84 124l16 10q61 -66 94 -94q63 42 153 94l10 -12q-89 -67 -142 -118zM254 0h-198l-2 20l67 13q17 3 24 9.5t10 20.5l12 57l94 445l17 81l-84 19l4 20h192q125 0 196.5 -69t71.5 -186q0 -110 -46.5 -206.5t-140.5 -160t-217 -63.5zM303 565 l-94 -445l-19 -88h67q108 0 190.5 57t124 146t41.5 192q0 106 -59.5 166t-174.5 60h-58z" />
<glyph unicode="&#x10f;" horiz-adv-x="465" d="M357 120q-10 -50 -10 -63q0 -27 18 -27q29 0 98 102l8 -5q-25 -55 -57 -96t-65 -41q-43 0 -43 56q0 21 11 74l32 142q-128 -272 -219 -272q-29 0 -47.5 29t-18.5 81q0 159 88 282t198 123q24 0 52 -7l30 136l16 72l-95 11v10q24 7 135 27l8 -8l-24 -112zM637 706 q0 -37 -31 -83.5t-75 -76.5l-7 7q47 53 64 107q-33 2 -33 35q0 21 14.5 35.5t34.5 14.5q15 0 24 -10.5t9 -28.5zM142 30q33 0 87 73.5t95.5 155.5t51.5 122l17 78q-35 16 -73 16q-51 0 -100.5 -51t-81.5 -138.5t-32 -184.5q0 -32 9.5 -51.5t26.5 -19.5z" />
<glyph unicode="&#x110;" horiz-adv-x="644" d="M254 0h-198l-2 20l67 13q17 3 24 9.5t10 20.5l12 57l46 218h-110l6 30h110l42 197l17 81l-84 19l4 20h192q125 0 196.5 -69t71.5 -186q0 -110 -46.5 -206.5t-140.5 -160t-217 -63.5zM452 338h-197l-46 -218l-19 -88h67q108 0 190.5 57t124 146t41.5 192q0 106 -59.5 166 t-174.5 60h-58l-18 -88l-42 -197h197z" />
<glyph unicode="&#x111;" horiz-adv-x="465" d="M357 120q-10 -50 -10 -63q0 -27 18 -27q29 0 98 102l8 -5q-25 -55 -57 -96t-65 -41q-43 0 -43 56q0 21 11 74l32 142q-128 -272 -219 -272q-29 0 -47.5 29t-18.5 81q0 159 88 282t198 123q24 0 52 -7l21 94h-177l6 30h177l3 12l16 72l-95 11v10q24 7 135 27l8 -8 l-24 -112l-3 -12h132l-6 -30h-132zM142 30q33 0 87 73.5t95.5 155.5t51.5 122l17 78q-35 16 -73 16q-51 0 -100.5 -51t-81.5 -138.5t-32 -184.5q0 -32 9.5 -51.5t26.5 -19.5z" />
<glyph unicode="&#x112;" horiz-adv-x="564" d="M334 818l8 34h252l-8 -34h-252zM303 565l-43 -205l213 5l-9 -39l-210 5l-45 -211l-19 -90h148q69 0 114 5q11 21 31.5 64.5t30.5 65.5h15q-13 -96 -38 -165h-435l-2 20l67 13q17 3 24 9.5t10 20.5l12 57l94 445l17 81l-84 19l4 20h408q-3 -62 -32 -165h-15 q-1 22 -3.5 65.5t-3.5 64.5q-65 5 -112 5h-118z" />
<glyph unicode="&#x113;" horiz-adv-x="348" d="M197 653l8 34h234l-8 -34h-234zM341 127q-78 -137 -166 -137q-102 0 -102 160q0 84 34.5 167t89.5 135.5t111 52.5q36 0 54.5 -20.5t18.5 -56.5q0 -53 -41.5 -97.5t-99 -68.5t-116.5 -28q-9 -42 -9 -86q0 -57 18.5 -90t54.5 -33q56 0 145 107zM297 473q-51 0 -98.5 -62.5 t-69.5 -151.5q90 9 150 57t60 110q0 21 -11 34t-31 13z" />
<glyph unicode="&#x114;" horiz-adv-x="564" d="M581 889l4 2l13 -8q-53 -99 -147 -99q-44 0 -67 27.5t-21 76.5l16 3q3 -30 25 -47t59 -17q70 0 118 62zM303 565l-43 -205l213 5l-9 -39l-210 5l-45 -211l-19 -90h148q69 0 114 5q11 21 31.5 64.5t30.5 65.5h15q-13 -96 -38 -165h-435l-2 20l67 13q17 3 24 9.5t10 20.5 l12 57l94 445l17 81l-84 19l4 20h408q-3 -62 -32 -165h-15q-1 22 -3.5 65.5t-3.5 64.5q-65 5 -112 5h-118z" />
<glyph unicode="&#x115;" horiz-adv-x="348" d="M446 728l4 2l14 -3q-52 -122 -148 -122q-44 0 -67.5 32t-21.5 90l17 3q3 -38 25 -60t59 -22q70 0 118 80zM341 127q-78 -137 -166 -137q-102 0 -102 160q0 84 34.5 167t89.5 135.5t111 52.5q36 0 54.5 -20.5t18.5 -56.5q0 -53 -41.5 -97.5t-99 -68.5t-116.5 -28 q-9 -42 -9 -86q0 -57 18.5 -90t54.5 -33q56 0 145 107zM297 473q-51 0 -98.5 -62.5t-69.5 -151.5q90 9 150 57t60 110q0 21 -11 34t-31 13z" />
<glyph unicode="&#x116;" horiz-adv-x="564" d="M502 843q0 -20 -14 -36t-33 -16q-32 0 -32 32q0 20 14 35t33 15q32 0 32 -30zM303 565l-43 -205l213 5l-9 -39l-210 5l-45 -211l-19 -90h148q69 0 114 5q11 21 31.5 64.5t30.5 65.5h15q-13 -96 -38 -165h-435l-2 20l67 13q17 3 24 9.5t10 20.5l12 57l94 445l17 81l-84 19 l4 20h408q-3 -62 -32 -165h-15q-1 22 -3.5 65.5t-3.5 64.5q-65 5 -112 5h-118z" />
<glyph unicode="&#x117;" horiz-adv-x="348" d="M316 618q-13 0 -21 8.5t-8 22.5q0 25 12.5 42t31.5 17q13 0 21 -8.5t8 -21.5q0 -26 -12.5 -43t-31.5 -17zM341 127q-78 -137 -166 -137q-102 0 -102 160q0 84 34.5 167t89.5 135.5t111 52.5q36 0 54.5 -20.5t18.5 -56.5q0 -53 -41.5 -97.5t-99 -68.5t-116.5 -28 q-9 -42 -9 -86q0 -57 18.5 -90t54.5 -33q56 0 145 107zM297 473q-51 0 -98.5 -62.5t-69.5 -151.5q90 9 150 57t60 110q0 21 -11 34t-31 13z" />
<glyph unicode="&#x118;" horiz-adv-x="564" d="M485 0q-61 -23 -98 -61t-37 -74q0 -17 9 -27t22 -10q34 0 92 68l8 -5q-48 -103 -112 -103q-62 0 -62 66q0 37 32 77t88 69h-371l-2 20l67 13q17 3 24 9.5t10 20.5l12 57l94 445l17 81l-84 19l4 20h408q-3 -62 -32 -165h-15q-1 22 -3.5 65.5t-3.5 64.5q-65 5 -112 5h-118 l-19 -90l-43 -205l213 5l-9 -39l-210 5l-45 -211l-19 -90h148q69 0 114 5q11 21 31.5 64.5t30.5 65.5h15q-13 -96 -38 -165h-6z" />
<glyph unicode="&#x119;" horiz-adv-x="348" d="M341 127q-26 -47 -63 -86q-24 -29 -65 -69.5t-59.5 -65.5t-18.5 -49q0 -13 7.5 -21t20.5 -8q5 0 10 1t10.5 4t9.5 5.5t9.5 7.5t9 8t9.5 10t8.5 10t9.5 11.5t9 10.5l8 -5q-48 -103 -108 -103q-25 0 -40.5 16.5t-15.5 42.5q0 28 15 50.5t54 55.5t49 43q-18 -6 -35 -6 q-102 0 -102 160q0 84 34.5 167t89.5 135.5t111 52.5q36 0 54.5 -20.5t18.5 -56.5q0 -53 -41.5 -97.5t-99 -68.5t-116.5 -28q-9 -42 -9 -86q0 -57 18.5 -90t54.5 -33q56 0 145 107zM297 473q-51 0 -98.5 -62.5t-69.5 -151.5q90 9 150 57t60 110q0 21 -11 34t-31 13z" />
<glyph unicode="&#x11a;" horiz-adv-x="564" d="M480 774l-6 -4h-41q-21 27 -84 124l16 10q61 -66 94 -94q63 42 153 94l10 -12q-89 -67 -142 -118zM303 565l-43 -205l213 5l-9 -39l-210 5l-45 -211l-19 -90h148q69 0 114 5q11 21 31.5 64.5t30.5 65.5h15q-13 -96 -38 -165h-435l-2 20l67 13q17 3 24 9.5t10 20.5l12 57 l94 445l17 81l-84 19l4 20h408q-3 -62 -32 -165h-15q-1 22 -3.5 65.5t-3.5 64.5q-65 5 -112 5h-118z" />
<glyph unicode="&#x11b;" horiz-adv-x="348" d="M345 590l-6 -4h-41q-30 54 -75 154l16 10q57 -86 86 -120q58 54 145 120l10 -12q-88 -86 -135 -148zM341 127q-78 -137 -166 -137q-102 0 -102 160q0 84 34.5 167t89.5 135.5t111 52.5q36 0 54.5 -20.5t18.5 -56.5q0 -53 -41.5 -97.5t-99 -68.5t-116.5 -28q-9 -42 -9 -86 q0 -57 18.5 -90t54.5 -33q56 0 145 107zM297 473q-51 0 -98.5 -62.5t-69.5 -151.5q90 9 150 57t60 110q0 21 -11 34t-31 13z" />
<glyph unicode="&#x11c;" horiz-adv-x="612" d="M653 781l-16 -10q-61 61 -104 94q-64 -45 -147 -94l-9 12q96 74 138 118l7 4h37q52 -62 94 -124zM369 25q57 0 99 15l34 160l18 81l-85 19l4 20h216l2 -20l-67 -13q-28 -5 -33 -30l-13 -57l-39 -180q-65 -30 -141 -30q-114 0 -184.5 72t-70.5 196q0 122 55 223.5 t144 157.5t189 56q84 0 144 -25q-8 -71 -33 -150h-15q-1 21 -3 63.5t-3 63.5q-40 13 -100 13q-129 0 -231 -117.5t-102 -282.5q0 -103 58.5 -169t156.5 -66z" />
<glyph unicode="&#x11d;" horiz-adv-x="365" d="M421 593l-16 -10q-54 78 -94 120q-59 -57 -137 -120l-9 12q86 90 126 148l7 4h41q44 -76 82 -154zM265 505q128 0 180 13q5 -8 5 -18q0 -32 -38 -32q-23 0 -93 13q41 -34 41 -99q0 -53 -20.5 -100.5t-49.5 -80t-58 -59t-49.5 -47t-20.5 -33.5q0 -9 6.5 -17t13.5 -13 t27 -17q35 -22 51 -33t35 -27.5t25.5 -31.5t6.5 -34q0 -53 -56 -98.5t-152 -45.5q-68 0 -109.5 31t-41.5 75q0 61 83 121l8 -8q-49 -56 -49 -102q0 -41 36.5 -63t88.5 -22q66 0 108 30t42 75q0 25 -19.5 45t-65.5 48q-5 3 -14.5 9t-14 8.5t-12.5 7.5t-12 8t-9.5 7.5t-8 8.5 t-5.5 8.5t-4 9.5t-1 10q0 6 2 12t6.5 13t9 12t14 14t16 14.5t20 17.5t21.5 19q-5 -1 -15 -1q-48 0 -78 35t-30 92q0 91 53.5 158t126.5 67zM127 289q0 -49 21 -78.5t53 -29.5q46 0 81.5 59.5t35.5 140.5q0 43 -17.5 68.5t-48.5 25.5q-50 0 -87.5 -57.5t-37.5 -128.5z" />
<glyph unicode="&#x11e;" horiz-adv-x="612" d="M635 890l4 2l13 -8q-53 -99 -147 -99q-44 0 -67 27.5t-21 76.5l16 3q3 -30 25 -47t59 -17q70 0 118 62zM369 25q57 0 99 15l34 160l18 81l-85 19l4 20h216l2 -20l-67 -13q-28 -5 -33 -30l-13 -57l-39 -180q-65 -30 -141 -30q-114 0 -184.5 72t-70.5 196q0 122 55 223.5 t144 157.5t189 56q84 0 144 -25q-8 -71 -33 -150h-15q-1 21 -3 63.5t-3 63.5q-40 13 -100 13q-129 0 -231 -117.5t-102 -282.5q0 -103 58.5 -169t156.5 -66z" />
<glyph unicode="&#x11f;" horiz-adv-x="365" d="M430 725l4 2l14 -3q-52 -122 -148 -122q-44 0 -67.5 32t-21.5 90l17 3q3 -38 25 -60t59 -22q70 0 118 80zM265 505q128 0 180 13q5 -8 5 -18q0 -32 -38 -32q-23 0 -93 13q41 -34 41 -99q0 -53 -20.5 -100.5t-49.5 -80t-58 -59t-49.5 -47t-20.5 -33.5q0 -9 6.5 -17 t13.5 -13t27 -17q35 -22 51 -33t35 -27.5t25.5 -31.5t6.5 -34q0 -53 -56 -98.5t-152 -45.5q-68 0 -109.5 31t-41.5 75q0 61 83 121l8 -8q-49 -56 -49 -102q0 -41 36.5 -63t88.5 -22q66 0 108 30t42 75q0 25 -19.5 45t-65.5 48q-5 3 -14.5 9t-14 8.5t-12.5 7.5t-12 8 t-9.5 7.5t-8 8.5t-5.5 8.5t-4 9.5t-1 10q0 6 2 12t6.5 13t9 12t14 14t16 14.5t20 17.5t21.5 19q-5 -1 -15 -1q-48 0 -78 35t-30 92q0 91 53.5 158t126.5 67zM127 289q0 -49 21 -78.5t53 -29.5q46 0 81.5 59.5t35.5 140.5q0 43 -17.5 68.5t-48.5 25.5q-50 0 -87.5 -57.5 t-37.5 -128.5z" />
<glyph unicode="&#x120;" horiz-adv-x="612" d="M566 844q0 -20 -14 -36t-33 -16q-32 0 -32 32q0 20 14 35t33 15q32 0 32 -30zM369 25q57 0 99 15l34 160l18 81l-85 19l4 20h216l2 -20l-67 -13q-28 -5 -33 -30l-13 -57l-39 -180q-65 -30 -141 -30q-114 0 -184.5 72t-70.5 196q0 122 55 223.5t144 157.5t189 56 q84 0 144 -25q-8 -71 -33 -150h-15q-1 21 -3 63.5t-3 63.5q-40 13 -100 13q-129 0 -231 -117.5t-102 -282.5q0 -103 58.5 -169t156.5 -66z" />
<glyph unicode="&#x121;" horiz-adv-x="365" d="M310 615q-13 0 -21 8.5t-8 22.5q0 25 12.5 42t31.5 17q13 0 21 -8.5t8 -21.5q0 -26 -12.5 -43t-31.5 -17zM265 505q128 0 180 13q5 -8 5 -18q0 -32 -38 -32q-23 0 -93 13q41 -34 41 -99q0 -53 -20.5 -100.5t-49.5 -80t-58 -59t-49.5 -47t-20.5 -33.5q0 -9 6.5 -17 t13.5 -13t27 -17q35 -22 51 -33t35 -27.5t25.5 -31.5t6.5 -34q0 -53 -56 -98.5t-152 -45.5q-68 0 -109.5 31t-41.5 75q0 61 83 121l8 -8q-49 -56 -49 -102q0 -41 36.5 -63t88.5 -22q66 0 108 30t42 75q0 25 -19.5 45t-65.5 48q-5 3 -14.5 9t-14 8.5t-12.5 7.5t-12 8 t-9.5 7.5t-8 8.5t-5.5 8.5t-4 9.5t-1 10q0 6 2 12t6.5 13t9 12t14 14t16 14.5t20 17.5t21.5 19q-5 -1 -15 -1q-48 0 -78 35t-30 92q0 91 53.5 158t126.5 67zM127 289q0 -49 21 -78.5t53 -29.5q46 0 81.5 59.5t35.5 140.5q0 43 -17.5 68.5t-48.5 25.5q-50 0 -87.5 -57.5 t-37.5 -128.5z" />
<glyph unicode="&#x122;" horiz-adv-x="612" d="M369 25q57 0 99 15l34 160l18 81l-85 19l4 20h216l2 -20l-67 -13q-28 -5 -33 -30l-13 -57l-39 -180q-65 -30 -141 -30q-114 0 -184.5 72t-70.5 196q0 122 55 223.5t144 157.5t189 56q84 0 144 -25q-8 -71 -33 -150h-15q-1 21 -3 63.5t-3 63.5q-40 13 -100 13 q-129 0 -231 -117.5t-102 -282.5q0 -103 58.5 -169t156.5 -66zM366 -161q0 -37 -31 -83.5t-75 -76.5l-7 7q47 53 64 107q-33 2 -33 35q0 21 14.5 35.5t34.5 14.5q15 0 24 -10.5t9 -28.5z" />
<glyph unicode="&#x123;" horiz-adv-x="365" d="M274 654q0 37 31 83.5t75 76.5l7 -7q-47 -53 -64 -107q33 -2 33 -35q0 -21 -14.5 -35.5t-34.5 -14.5q-15 0 -24 10.5t-9 28.5zM265 505q128 0 180 13q5 -8 5 -18q0 -32 -38 -32q-23 0 -93 13q41 -34 41 -99q0 -53 -20.5 -100.5t-49.5 -80t-58 -59t-49.5 -47t-20.5 -33.5 q0 -9 6.5 -17t13.5 -13t27 -17q35 -22 51 -33t35 -27.5t25.5 -31.5t6.5 -34q0 -53 -56 -98.5t-152 -45.5q-68 0 -109.5 31t-41.5 75q0 61 83 121l8 -8q-49 -56 -49 -102q0 -41 36.5 -63t88.5 -22q66 0 108 30t42 75q0 25 -19.5 45t-65.5 48q-5 3 -14.5 9t-14 8.5t-12.5 7.5 t-12 8t-9.5 7.5t-8 8.5t-5.5 8.5t-4 9.5t-1 10q0 6 2 12t6.5 13t9 12t14 14t16 14.5t20 17.5t21.5 19q-5 -1 -15 -1q-48 0 -78 35t-30 92q0 91 53.5 158t126.5 67zM127 289q0 -49 21 -78.5t53 -29.5q46 0 81.5 59.5t35.5 140.5q0 43 -17.5 68.5t-48.5 25.5 q-50 0 -87.5 -57.5t-37.5 -128.5z" />
<glyph unicode="&#x124;" horiz-adv-x="738" d="M655 781l-16 -10q-61 61 -104 94q-64 -45 -147 -94l-9 12q96 74 138 118l7 4h37q52 -62 94 -124zM191 39l85 -19l-4 -20h-216l-2 20l67 13q28 5 33 30l13 57l94 445l18 81l-85 19l4 20h216l2 -20l-67 -13q-28 -5 -33 -30l-13 -57l-42 -200h346l42 200l18 81l-85 19l4 20 h216l2 -20l-67 -13q-28 -5 -33 -30l-13 -57l-94 -445l-18 -81l85 -19l-4 -20h-216l-2 20l67 13q28 5 33 30l13 57l44 210h-346l-44 -210z" />
<glyph unicode="&#x125;" horiz-adv-x="473" d="M393 798l-16 -10q-61 61 -104 94q-64 -45 -147 -94l-9 12q96 74 138 118l7 4h37q52 -62 94 -124zM78 11l24 109l113 515l16 72l-75 11v10q54 16 115 27l8 -8l-24 -112q-49 -224 -88 -385q66 134 117 194.5t96 60.5q28 0 42 -20t14 -51q0 -28 -11.5 -79.5t-33.5 -132 t-27 -102.5q-10 -50 -10 -63q0 -27 18 -27q29 0 98 102l8 -5q-25 -55 -57 -96t-65 -41q-43 0 -43 56q0 21 11 74q8 35 27.5 105.5t32 123t12.5 77.5q0 39 -31 39q-32 0 -78.5 -60.5t-79 -123t-55.5 -117.5l-10 -44l-26 -123l-16 -4q-12 -3 -17 -3q-9 0 -5 21z" />
<glyph unicode="&#x126;" horiz-adv-x="738" d="M191 39l85 -19l-4 -20h-216l-2 20l67 13q28 5 33 30l13 57l79 376h-89l5 30h91l8 39l18 81l-85 19l4 20h216l2 -20l-67 -13q-28 -5 -33 -30l-13 -57l-8 -39h346l8 39l18 81l-85 19l4 20h216l2 -20l-67 -13q-28 -5 -33 -30l-13 -57l-8 -39h79l-5 -30h-81l-79 -376l-18 -81 l85 -19l-4 -20h-216l-2 20l67 13q28 5 33 30l13 57l44 210h-346l-44 -210zM261 365h346l27 131h-346z" />
<glyph unicode="&#x127;" horiz-adv-x="473" d="M78 11l24 109l104 472h-153l6 30h153l3 13l16 72l-75 11v10q54 16 115 27l8 -8l-24 -112q-1 -2 -2 -6.5t-1 -6.5h156l-6 -30h-157q-37 -171 -78 -342q66 134 117 194.5t96 60.5q28 0 42 -20t14 -51q0 -28 -11.5 -79.5t-33.5 -132t-27 -102.5q-10 -50 -10 -63 q0 -27 18 -27q29 0 98 102l8 -5q-25 -55 -57 -96t-65 -41q-43 0 -43 56q0 21 11 74q8 35 27.5 105.5t32 123t12.5 77.5q0 39 -31 39q-32 0 -78.5 -60.5t-79 -123t-55.5 -117.5l-10 -44l-26 -123l-16 -4q-12 -3 -17 -3q-9 0 -5 21z" />
<glyph unicode="&#x128;" horiz-adv-x="350" d="M240 849q-14 -5 -79 -68l-8 5q26 52 50.5 77t57.5 25q29 0 90.5 -30t83.5 -30q16 5 79 68l8 -5q-25 -52 -50 -77t-59 -25q-27 0 -89 30t-84 30zM191 39l85 -19l-4 -20h-216l-2 20l67 13q28 5 33 30l13 57l94 445l18 81l-85 19l4 20h216l2 -20l-67 -13q-28 -5 -33 -30 l-13 -57l-94 -445z" />
<glyph unicode="&#x129;" horiz-adv-x="278" d="M198 689q-12 -4 -67 -70l-8 5q22 50 45 75t53 25q20 0 57.5 -30t50.5 -30q12 4 67 70l8 -5q-23 -51 -46.5 -75.5t-53.5 -24.5q-20 0 -57.5 30t-48.5 30zM169 120q-10 -50 -10 -63q0 -27 18 -27q29 0 98 102l8 -5q-25 -55 -57 -96t-65 -41q-43 0 -43 56q0 21 11 74 q1 7 61 255q10 50 10 63q0 27 -18 27q-29 0 -98 -102l-8 5q25 55 57 96t65 41q43 0 43 -56q0 -21 -11 -74q-9 -40 -31 -130t-30 -125z" />
<glyph unicode="&#x12a;" horiz-adv-x="350" d="M210 819l8 34h252l-8 -34h-252zM191 39l85 -19l-4 -20h-216l-2 20l67 13q28 5 33 30l13 57l94 445l18 81l-85 19l4 20h216l2 -20l-67 -13q-28 -5 -33 -30l-13 -57l-94 -445z" />
<glyph unicode="&#x12b;" horiz-adv-x="278" d="M176 653l8 34h164l-8 -34h-164zM169 120q-10 -50 -10 -63q0 -27 18 -27q29 0 98 102l8 -5q-25 -55 -57 -96t-65 -41q-43 0 -43 56q0 21 11 74q1 7 61 255q10 50 10 63q0 27 -18 27q-29 0 -98 -102l-8 5q25 55 57 96t65 41q43 0 43 -56q0 -21 -11 -74q-9 -40 -31 -130 t-30 -125z" />
<glyph unicode="&#x12c;" horiz-adv-x="350" d="M452 890l4 2l13 -8q-53 -99 -147 -99q-44 0 -67 27.5t-21 76.5l16 3q3 -30 25 -47t59 -17q70 0 118 62zM191 39l85 -19l-4 -20h-216l-2 20l67 13q28 5 33 30l13 57l94 445l18 81l-85 19l4 20h216l2 -20l-67 -13q-28 -5 -33 -30l-13 -57l-94 -445z" />
<glyph unicode="&#x12d;" horiz-adv-x="278" d="M356 728l4 2l14 -3q-19 -57 -54.5 -89.5t-77.5 -32.5q-37 0 -57.5 32.5t-16.5 89.5l17 3q1 -38 20 -60t49 -22q29 0 57 21.5t45 58.5zM169 120q-10 -50 -10 -63q0 -27 18 -27q29 0 98 102l8 -5q-25 -55 -57 -96t-65 -41q-43 0 -43 56q0 21 11 74q1 7 61 255q10 50 10 63 q0 27 -18 27q-29 0 -98 -102l-8 5q25 55 57 96t65 41q43 0 43 -56q0 -21 -11 -74q-9 -40 -31 -130t-30 -125z" />
<glyph unicode="&#x12e;" horiz-adv-x="350" d="M191 39l85 -19l-4 -20q-61 -23 -98 -61t-37 -74q0 -17 9 -27t22 -10q34 0 92 68l8 -5q-48 -103 -112 -103q-62 0 -62 66q0 37 32 77t88 69h-158l-2 20l67 13q28 5 33 30l13 57l94 445l18 81l-85 19l4 20h216l2 -20l-67 -13q-28 -5 -33 -30l-13 -57l-94 -445z" />
<glyph unicode="&#x12f;" horiz-adv-x="278" d="M253 618q-13 0 -21 8.5t-8 22.5q0 25 12.5 42t31.5 17q13 0 21 -8.5t8 -21.5q0 -26 -12.5 -43t-31.5 -17zM169 120q-10 -50 -10 -63q0 -27 18 -27q29 0 98 102l8 -5q-25 -54 -51 -89q-23 -33 -59.5 -71t-56 -63t-19.5 -47q0 -13 7.5 -21t20.5 -8q5 0 10 1t10.5 4t9.5 5.5 t9.5 7.5t9 8t9.5 10t8.5 10t9.5 11.5t9 10.5l8 -5q-48 -103 -108 -103q-25 0 -40.5 16.5t-15.5 42.5q0 20 12 41t22.5 32t39.5 36.5t38 33.5h-5q-43 0 -43 56q0 21 11 74q1 7 61 255q10 50 10 63q0 27 -18 27q-29 0 -98 -102l-8 5q25 55 57 96t65 41q43 0 43 -56 q0 -21 -11 -74q-9 -40 -31 -130t-30 -125z" />
<glyph unicode="&#x130;" horiz-adv-x="350" d="M373 844q0 -20 -14 -36t-33 -16q-32 0 -32 32q0 20 14 35t33 15q32 0 32 -30zM191 39l85 -19l-4 -20h-216l-2 20l67 13q28 5 33 30l13 57l94 445l18 81l-85 19l4 20h216l2 -20l-67 -13q-28 -5 -33 -30l-13 -57l-94 -445z" />
<glyph unicode="&#x131;" horiz-adv-x="278" d="M169 120q-10 -50 -10 -63q0 -27 18 -27q29 0 98 102l8 -5q-25 -55 -57 -96t-65 -41q-43 0 -43 56q0 21 11 74q1 7 61 255q10 50 10 63q0 27 -18 27q-29 0 -98 -102l-8 5q25 55 57 96t65 41q43 0 43 -56q0 -21 -11 -74q-9 -40 -31 -130t-30 -125z" />
<glyph unicode="&#x132;" horiz-adv-x="689" d="M191 39l85 -19l-4 -20h-216l-2 20l67 13q28 5 33 30l13 57l94 445l18 81l-85 19l4 20h216l2 -20l-67 -13q-28 -5 -33 -30l-13 -57l-94 -445zM631 646l-85 19l4 20h216l2 -20l-67 -13q-28 -5 -33 -30l-13 -57l-104 -490q-13 -62 -35.5 -105t-49.5 -71.5t-78 -68.5l-14 17 q35 38 48.5 54t35.5 48.5t34 68.5t23 86l98 461z" />
<glyph unicode="&#x133;" horiz-adv-x="498" d="M253 618q-13 0 -21 8.5t-8 22.5q0 25 12.5 42t31.5 17q13 0 21 -8.5t8 -21.5q0 -26 -12.5 -43t-31.5 -17zM492 618q-13 0 -21 8.5t-8 22.5q0 25 12.5 42t31.5 17q13 0 21 -8.5t8 -21.5q0 -26 -12.5 -43t-31.5 -17zM169 120q-10 -50 -10 -63q0 -27 18 -27q29 0 98 102 l8 -5q-25 -55 -57 -96t-65 -41q-43 0 -43 56q0 21 11 74q1 7 61 255q10 50 10 63q0 27 -18 27q-29 0 -98 -102l-8 5q25 55 57 96t65 41q43 0 43 -56q0 -21 -11 -74q-9 -40 -31 -130t-30 -125zM432 375q10 50 10 63q0 27 -18 27q-29 0 -98 -102l-8 5q25 55 57 96t65 41 q43 0 43 -56q0 -21 -11 -74l-80 -383q-24 -116 -73 -181.5t-118 -65.5q-37 0 -61 17.5t-24 42.5q0 21 17 30q41 -57 90 -57q48 0 75.5 49t49.5 153z" />
<glyph unicode="&#x134;" horiz-adv-x="340" d="M465 781l-16 -10q-61 61 -104 94q-64 -45 -147 -94l-9 12q96 74 138 118l7 4h37q52 -62 94 -124zM281 646l-85 19l4 20h216l2 -20l-67 -13q-28 -5 -33 -30l-13 -57l-104 -490q-13 -62 -35.5 -105t-49.5 -71.5t-78 -68.5l-14 17q35 38 48.5 54t35.5 48.5t34 68.5t23 86 l98 461z" />
<glyph unicode="&#x135;" horiz-adv-x="236" d="M311 596l-16 -10q-7 14 -26.5 55t-29.5 61q-28 -30 -116 -116l-9 12q11 15 38 50t45.5 60t25.5 38l7 4h41q2 -12 40 -154zM177 375q10 50 10 63q0 27 -18 27q-29 0 -98 -102l-8 5q25 55 57 96t65 41q43 0 43 -56q0 -21 -11 -74l-80 -383q-24 -116 -73 -181.5t-118 -65.5 q-37 0 -61 17.5t-24 42.5q0 21 17 30q41 -57 90 -57q48 0 75.5 49t49.5 153z" />
<glyph unicode="&#x136;" horiz-adv-x="623" d="M191 39l85 -19l-4 -20h-216l-2 20l67 13q28 5 33 30l13 57l94 445l18 81l-85 19l4 20h216l2 -20l-67 -13q-28 -5 -33 -30l-13 -57l-44 -207l130 2l237 286l-85 19l4 20h205l2 -20l-57 -13q-29 -7 -53 -36l-224 -270l88 -246q13 -37 29 -51.5t47 -21.5l31 -7l-4 -20h-45 q-40 0 -59.5 16.5t-32.5 53.5l-90 255h-130l-43 -205zM347 -161q0 -37 -31 -83.5t-75 -76.5l-7 7q47 53 64 107q-33 2 -33 35q0 21 14.5 35.5t34.5 14.5q15 0 24 -10.5t9 -28.5z" />
<glyph unicode="&#x137;" horiz-adv-x="454" d="M78 11l24 109l113 514l16 72l-75 11v10q54 16 115 27l8 -8l-24 -112q-42 -190 -87 -381q58 125 116.5 189t112.5 63q35 -1 53 -20.5t18 -50.5q0 -64 -66.5 -123t-142.5 -91q46 -114 70 -152t44 -38q28 0 99 102l8 -5q-24 -52 -57 -94.5t-63 -42.5q-33 0 -64 49t-77 181 l5 8q76 27 139 83.5t63 119.5q0 17 -10 28t-29 11q-104 0 -235 -306l-10 -44l-26 -123l-16 -4q-12 -3 -17 -3q-9 0 -5 21zM250 -161q0 -37 -31 -83.5t-75 -76.5l-7 7q47 53 64 107q-33 2 -33 35q0 21 14.5 35.5t34.5 14.5q15 0 24 -10.5t9 -28.5z" />
<glyph unicode="&#x138;" horiz-adv-x="515" d="M112 11l24 109l55 260q10 50 10 63q0 27 -18 27q-29 0 -98 -102l-8 5q25 55 57 96t65 41q43 0 43 -56q0 -21 -11 -74l-26 -121h78q24 45 35 65t37.5 62t45.5 62.5t46.5 38.5t52.5 18q22 0 35.5 -11t13.5 -27q0 -22 -17 -37q-24 30 -49 30q-35 0 -82 -60t-89 -139l15 -45 q62 -186 107 -186q28 0 97 102l8 -5q-24 -53 -56.5 -95t-61.5 -42q-33 0 -63.5 50.5t-75.5 186.5h-83l-23 -107l-26 -123l-16 -4q-12 -3 -17 -3q-9 0 -5 21zM298 233l2 4z" />
<glyph unicode="&#x139;" horiz-adv-x="532" d="M422 896l7 1q26 -6 26 -26q0 -24 -76 -51t-160 -42l-5 16q164 69 208 102zM279 646l-85 19l4 20h216l2 -20l-67 -13q-28 -5 -33 -30l-13 -57l-94 -445l-19 -90h128q69 0 114 5q11 23 31.5 70t31.5 70h15q-12 -97 -39 -175h-415l-2 20l67 13q17 3 24 9.5t10 20.5l12 57 l94 445z" />
<glyph unicode="&#x13a;" horiz-adv-x="250" d="M362 956l7 1q26 -6 26 -26q0 -24 -76 -51t-160 -42l-5 16q164 69 208 102zM142 120q-10 -50 -10 -63q0 -27 18 -27q29 0 98 102l8 -5q-25 -55 -57 -96t-65 -41q-43 0 -43 56q0 21 11 74l113 514l16 72l-75 11v10q54 16 115 27l8 -8l-24 -112z" />
<glyph unicode="&#x13b;" horiz-adv-x="532" d="M279 646l-85 19l4 20h216l2 -20l-67 -13q-28 -5 -33 -30l-13 -57l-94 -445l-19 -90h128q69 0 114 5q11 23 31.5 70t31.5 70h15q-12 -97 -39 -175h-415l-2 20l67 13q17 3 24 9.5t10 20.5l12 57l94 445zM305 -161q0 -37 -31 -83.5t-75 -76.5l-7 7q47 53 64 107 q-33 2 -33 35q0 21 14.5 35.5t34.5 14.5q15 0 24 -10.5t9 -28.5z" />
<glyph unicode="&#x13c;" horiz-adv-x="250" d="M142 120q-10 -50 -10 -63q0 -27 18 -27q29 0 98 102l8 -5q-25 -55 -57 -96t-65 -41q-43 0 -43 56q0 21 11 74l113 514l16 72l-75 11v10q54 16 115 27l8 -8l-24 -112zM174 -161q0 -37 -31 -83.5t-75 -76.5l-7 7q47 53 64 107q-33 2 -33 35q0 21 14.5 35.5t34.5 14.5 q15 0 24 -10.5t9 -28.5z" />
<glyph unicode="&#x13d;" horiz-adv-x="532" d="M586 661q0 -37 -31 -83.5t-75 -76.5l-7 7q47 53 64 107q-33 2 -33 35q0 21 14.5 35.5t34.5 14.5q15 0 24 -10.5t9 -28.5zM279 646l-85 19l4 20h216l2 -20l-67 -13q-28 -5 -33 -30l-13 -57l-94 -445l-19 -90h128q69 0 114 5q11 23 31.5 70t31.5 70h15q-12 -97 -39 -175 h-415l-2 20l67 13q17 3 24 9.5t10 20.5l12 57l94 445z" />
<glyph unicode="&#x13e;" horiz-adv-x="354" d="M452 716q0 -37 -31 -83.5t-75 -76.5l-7 7q47 53 64 107q-33 2 -33 35q0 21 14.5 35.5t34.5 14.5q15 0 24 -10.5t9 -28.5zM142 120q-10 -50 -10 -63q0 -27 18 -27q29 0 98 102l8 -5q-25 -55 -57 -96t-65 -41q-43 0 -43 56q0 21 11 74l113 514l16 72l-75 11v10 q54 16 115 27l8 -8l-24 -112z" />
<glyph unicode="&#x13f;" horiz-adv-x="532" d="M279 646l-85 19l4 20h216l2 -20l-67 -13q-28 -5 -33 -30l-13 -57l-94 -445l-19 -90h128q69 0 114 5q11 23 31.5 70t31.5 70h15q-12 -97 -39 -175h-415l-2 20l67 13q17 3 24 9.5t10 20.5l12 57l94 445zM501 324q-13 0 -21 8.5t-8 22.5q0 25 12.5 42t31.5 17q13 0 21 -8.5 t8 -21.5q0 -26 -12.5 -43t-31.5 -17z" />
<glyph unicode="&#x140;" horiz-adv-x="363" d="M142 120q-10 -50 -10 -63q0 -27 18 -27q29 0 98 102l8 -5q-25 -55 -57 -96t-65 -41q-43 0 -43 56q0 21 11 74l113 514l16 72l-75 11v10q54 16 115 27l8 -8l-24 -112zM350 339q-13 0 -21 8.5t-8 22.5q0 25 12.5 42t31.5 17q13 0 21 -8.5t8 -21.5q0 -26 -12.5 -43 t-31.5 -17z" />
<glyph unicode="&#x141;" horiz-adv-x="532" d="M403 417l-148 -80l-46 -217l-19 -90h128q69 0 114 5q11 23 31.5 70t31.5 70h15q-12 -97 -39 -175h-415l-2 20l67 13q17 3 24 9.5t10 20.5l12 57l40 191l-127 -69l-9 31l145 79l45 213l18 81l-85 19l4 20h216l2 -20l-67 -13q-28 -5 -33 -30l-13 -57l-40 -187l130 70z" />
<glyph unicode="&#x142;" horiz-adv-x="250" d="M142 120q-10 -50 -10 -63q0 -27 18 -27q29 0 98 102l8 -5q-25 -55 -57 -96t-65 -41q-43 0 -43 56q0 21 11 74l52 236l-124 -67l-9 31l142 77l52 237l16 72l-75 11v10q54 16 115 27l8 -8l-24 -112l-47 -212l135 73l10 -31l-154 -83z" />
<glyph unicode="&#x143;" horiz-adv-x="720" d="M622 896l7 1q26 -6 26 -26q0 -24 -76 -51t-160 -42l-5 16q164 69 208 102zM184 39l105 -19l-4 -20h-229l-2 20l67 13q17 3 23.5 9t9.5 21l13 57l111 526l-84 19l4 20h119l241 -607l103 487l18 81l-85 19l4 20h209l2 -20l-67 -13q-17 -3 -23.5 -9t-9.5 -21l-13 -57 l-120 -565h-30l-242 605l-102 -485z" />
<glyph unicode="&#x144;" horiz-adv-x="505" d="M457 754l6 2h4q27 0 27 -20q0 -45 -203 -155l-9 15q128 97 175 158zM110 11l24 109q10 43 28.5 128t27.5 127q10 43 10 63q0 27 -18 27q-29 0 -98 -102l-8 5q25 55 57 96t65 41q43 0 43 -56q0 -27 -36 -191q25 50 41 79t46.5 75t60.5 69.5t59 23.5q28 0 42 -20t14 -51 q0 -28 -11.5 -79.5t-33.5 -132t-27 -102.5q-10 -50 -10 -63q0 -27 18 -27q29 0 98 102l8 -5q-25 -55 -57 -96t-65 -41q-43 0 -43 56q0 21 11 74q8 35 27.5 105.5t32 123t12.5 77.5q0 39 -31 39q-32 0 -77.5 -59.5t-78 -121.5t-56.5 -118l-11 -46l-26 -123l-16 -4 q-12 -3 -17 -3q-9 0 -5 21z" />
<glyph unicode="&#x145;" horiz-adv-x="720" d="M184 39l105 -19l-4 -20h-229l-2 20l67 13q17 3 23.5 9t9.5 21l13 57l111 526l-84 19l4 20h119l241 -607l103 487l18 81l-85 19l4 20h209l2 -20l-67 -13q-17 -3 -23.5 -9t-9.5 -21l-13 -57l-120 -565h-30l-242 605l-102 -485zM385 -161q0 -37 -31 -83.5t-75 -76.5l-7 7 q47 53 64 107q-33 2 -33 35q0 21 14.5 35.5t34.5 14.5q15 0 24 -10.5t9 -28.5z" />
<glyph unicode="&#x146;" horiz-adv-x="505" d="M110 11l24 109q10 43 28.5 128t27.5 127q10 43 10 63q0 27 -18 27q-29 0 -98 -102l-8 5q25 55 57 96t65 41q43 0 43 -56q0 -27 -36 -191q25 50 41 79t46.5 75t60.5 69.5t59 23.5q28 0 42 -20t14 -51q0 -28 -11.5 -79.5t-33.5 -132t-27 -102.5q-10 -50 -10 -63 q0 -27 18 -27q29 0 98 102l8 -5q-25 -55 -57 -96t-65 -41q-43 0 -43 56q0 21 11 74q8 35 27.5 105.5t32 123t12.5 77.5q0 39 -31 39q-32 0 -77.5 -59.5t-78 -121.5t-56.5 -118l-11 -46l-26 -123l-16 -4q-12 -3 -17 -3q-9 0 -5 21zM279 -161q0 -37 -31 -83.5t-75 -76.5l-7 7 q47 53 64 107q-33 2 -33 35q0 21 14.5 35.5t34.5 14.5q15 0 24 -10.5t9 -28.5z" />
<glyph unicode="&#x147;" horiz-adv-x="720" d="M536 775l-6 -4h-41q-21 27 -84 124l16 10q61 -66 94 -94q63 42 153 94l10 -12q-89 -67 -142 -118zM184 39l105 -19l-4 -20h-229l-2 20l67 13q17 3 23.5 9t9.5 21l13 57l111 526l-84 19l4 20h119l241 -607l103 487l18 81l-85 19l4 20h209l2 -20l-67 -13q-17 -3 -23.5 -9 t-9.5 -21l-13 -57l-120 -565h-30l-242 605l-102 -485z" />
<glyph unicode="&#x148;" horiz-adv-x="505" d="M396 590l-6 -4h-41q-30 54 -75 154l16 10q57 -86 86 -120q58 54 145 120l10 -12q-88 -86 -135 -148zM110 11l24 109q10 43 28.5 128t27.5 127q10 43 10 63q0 27 -18 27q-29 0 -98 -102l-8 5q25 55 57 96t65 41q43 0 43 -56q0 -27 -36 -191q25 50 41 79t46.5 75t60.5 69.5 t59 23.5q28 0 42 -20t14 -51q0 -28 -11.5 -79.5t-33.5 -132t-27 -102.5q-10 -50 -10 -63q0 -27 18 -27q29 0 98 102l8 -5q-25 -55 -57 -96t-65 -41q-43 0 -43 56q0 21 11 74q8 35 27.5 105.5t32 123t12.5 77.5q0 39 -31 39q-32 0 -77.5 -59.5t-78 -121.5t-56.5 -118l-11 -46 l-26 -123l-16 -4q-12 -3 -17 -3q-9 0 -5 21z" />
<glyph unicode="&#x14a;" horiz-adv-x="720" d="M184 39l105 -19l-4 -20h-229l-2 20l67 13q17 3 23.5 9t9.5 21l13 57l106 502q3 14 -0.5 20t-19.5 10l-59 13l4 20h119l240 -606q4 16 6 25l98 461l18 81l-85 19l4 20h209l2 -20l-67 -13q-17 -3 -23.5 -9t-9.5 -21l-13 -57l-104 -490q-13 -62 -35.5 -105t-49.5 -71.5 t-78 -68.5l-11 13q36 39 51 56t35.5 49.5t34.5 69.5l-235 587l-102 -485z" />
<glyph unicode="&#x14b;" horiz-adv-x="482" d="M110 11l24 109q10 43 28.5 128t27.5 127q10 43 10 63q0 27 -18 27q-29 0 -98 -102l-8 5q25 55 57 96t65 41q43 0 43 -56q0 -26 -36 -190q21 41 32 61.5t36 62t44 63.5t45 40.5t50 18.5q27 0 41 -20t14 -51q0 -15 -3.5 -42t-13 -73.5t-17.5 -85.5t-24 -115t-26 -126 q-24 -116 -72.5 -181.5t-118.5 -65.5q-37 0 -61 17.5t-24 42.5q0 21 17 30q41 -57 90 -57q48 0 75.5 49t49.5 153q12 60 28 133t25.5 117t18.5 87.5t13 69.5t4 39q0 39 -31 39q-32 0 -77.5 -59.5t-78 -121.5t-56.5 -118l-11 -46l-26 -123l-16 -4q-12 -3 -17 -3q-9 0 -5 21z " />
<glyph unicode="&#x14c;" horiz-adv-x="575" d="M321 819l8 34h252l-8 -34h-252zM593 454q0 -71 -21.5 -150t-59 -150t-97.5 -117.5t-129 -46.5q-83 0 -132.5 65t-49.5 174q0 77 22 158t61 150t99.5 113.5t130.5 44.5q81 0 128.5 -64.5t47.5 -176.5zM149 235q0 -95 37.5 -152.5t107.5 -57.5q75 0 135 70t89.5 167 t29.5 193q0 205 -139 205q-75 0 -136.5 -68.5t-92.5 -164.5t-31 -192z" />
<glyph unicode="&#x14d;" horiz-adv-x="394" d="M200 653l8 34h234l-8 -34h-234zM397 335q0 -140 -63 -242.5t-145 -102.5q-51 0 -81.5 48.5t-30.5 124.5q0 133 64.5 237.5t145.5 104.5q54 0 82 -45t28 -125zM119 169q0 -68 21 -107.5t56 -39.5q43 0 80 44.5t58 117t21 152.5q0 137 -73 137q-43 0 -81 -46.5t-60 -116.5 t-22 -141z" />
<glyph unicode="&#x14e;" horiz-adv-x="575" d="M568 890l4 2l13 -8q-53 -99 -147 -99q-44 0 -67 27.5t-21 76.5l16 3q3 -30 25 -47t59 -17q70 0 118 62zM593 454q0 -71 -21.5 -150t-59 -150t-97.5 -117.5t-129 -46.5q-83 0 -132.5 65t-49.5 174q0 77 22 158t61 150t99.5 113.5t130.5 44.5q81 0 128.5 -64.5t47.5 -176.5 zM149 235q0 -95 37.5 -152.5t107.5 -57.5q75 0 135 70t89.5 167t29.5 193q0 205 -139 205q-75 0 -136.5 -68.5t-92.5 -164.5t-31 -192z" />
<glyph unicode="&#x14f;" horiz-adv-x="394" d="M435 728l4 2l14 -3q-52 -122 -148 -122q-44 0 -67.5 32t-21.5 90l17 3q3 -38 25 -60t59 -22q70 0 118 80zM397 335q0 -140 -63 -242.5t-145 -102.5q-51 0 -81.5 48.5t-30.5 124.5q0 133 64.5 237.5t145.5 104.5q54 0 82 -45t28 -125zM119 169q0 -68 21 -107.5t56 -39.5 q43 0 80 44.5t58 117t21 152.5q0 137 -73 137q-43 0 -81 -46.5t-60 -116.5t-22 -141z" />
<glyph unicode="&#x150;" horiz-adv-x="575" d="M455 897l8 1q20 -4 20 -21q0 -28 -52 -51t-160 -50l-7 16q111 44 191 105zM651 897l8 1q20 -4 20 -21q0 -28 -52 -51t-160 -50l-7 16q111 44 191 105zM593 454q0 -71 -21.5 -150t-59 -150t-97.5 -117.5t-129 -46.5q-83 0 -132.5 65t-49.5 174q0 77 22 158t61 150 t99.5 113.5t130.5 44.5q81 0 128.5 -64.5t47.5 -176.5zM149 235q0 -95 37.5 -152.5t107.5 -57.5q75 0 135 70t89.5 167t29.5 193q0 205 -139 205q-75 0 -136.5 -68.5t-92.5 -164.5t-31 -192z" />
<glyph unicode="&#x151;" horiz-adv-x="394" d="M324 754l6 2h4q27 0 27 -20q0 -45 -203 -155l-9 15q128 97 175 158zM474 754l6 2h4q27 0 27 -20q0 -45 -203 -155l-9 15q128 97 175 158zM397 335q0 -140 -63 -242.5t-145 -102.5q-51 0 -81.5 48.5t-30.5 124.5q0 133 64.5 237.5t145.5 104.5q54 0 82 -45t28 -125z M119 169q0 -68 21 -107.5t56 -39.5q43 0 80 44.5t58 117t21 152.5q0 137 -73 137q-43 0 -81 -46.5t-60 -116.5t-22 -141z" />
<glyph unicode="&#x152;" horiz-adv-x="843" d="M771 0h-347q-41 -10 -88 -10q-107 0 -170 69.5t-63 184.5q0 124 50.5 227.5t139 163.5t196.5 60q47 0 84 -10h313q-3 -62 -32 -165h-15q-1 22 -3.5 65.5t-3.5 64.5q-65 5 -112 5h-118l-63 -295l214 5l-9 -39l-211 5l-64 -301h149q69 0 114 5q11 21 31.5 64.5t30.5 65.5 h15q-13 -96 -38 -165zM148 246q0 -98 51.5 -159.5t143.5 -61.5q70 0 89 24l126 599q-34 12 -76 12q-145 0 -239.5 -118.5t-94.5 -295.5z" />
<glyph unicode="&#x153;" horiz-adv-x="610" d="M283 505q49 0 76 -40.5t30 -114.5q35 69 84 112t99 43q35 0 53 -20.5t18 -56.5q0 -53 -41.5 -97.5t-99 -68.5t-116.5 -28q-9 -42 -9 -86q0 -57 18.5 -90t54.5 -33q56 0 145 107l8 -5q-76 -137 -164 -137t-99 127q-29 -59 -70 -93t-85 -34q-49 0 -78.5 48t-29.5 125 q0 133 63.5 237.5t142.5 104.5zM282 473q-43 0 -81 -46.5t-60 -116.5t-22 -141q0 -68 21 -107.5t56 -39.5q43 0 80 44.5t58 117t21 152.5q0 137 -73 137zM559 473q-51 0 -98.5 -62.5t-69.5 -151.5q90 9 150 57t60 110q0 21 -11 34t-31 13z" />
<glyph unicode="&#x154;" horiz-adv-x="595" d="M551 896l7 1q26 -6 26 -26q0 -24 -76 -51t-160 -42l-5 16q164 69 208 102zM191 39l85 -19l-4 -20h-216l-2 20l67 13q28 5 33 30l13 57l94 445l17 81l-84 19l4 20h191q92 0 143.5 -41t51.5 -114q0 -78 -46 -134.5t-123 -80.5l70 -215q12 -37 27.5 -51t47.5 -22l27 -7 l-4 -20h-41q-41 0 -60.5 16.5t-31.5 53.5l-75 235q-32 -5 -61 -5h-67l-38 -180zM303 565l-51 -240l2 8h62q109 0 166 57.5t57 136.5q0 58 -40 90.5t-112 32.5h-66z" />
<glyph unicode="&#x155;" horiz-adv-x="380" d="M410 754l6 2h4q27 0 27 -20q0 -45 -203 -155l-9 15q128 97 175 158zM110 11l24 109q66 299 66 318q0 27 -18 27q-29 0 -98 -102l-8 5q25 55 57 96t65 41q43 0 43 -56q0 -33 -33 -174q23 49 39.5 79.5t42 70.5t52 60t53.5 20q22 0 35.5 -11t13.5 -27q0 -22 -17 -37 q-24 30 -49 30q-32 0 -79 -68t-78.5 -137t-37.5 -95l-9 -40l-26 -123l-16 -4q-12 -3 -17 -3q-9 0 -5 21z" />
<glyph unicode="&#x156;" horiz-adv-x="595" d="M191 39l85 -19l-4 -20h-216l-2 20l67 13q28 5 33 30l13 57l94 445l17 81l-84 19l4 20h191q92 0 143.5 -41t51.5 -114q0 -78 -46 -134.5t-123 -80.5l70 -215q12 -37 27.5 -51t47.5 -22l27 -7l-4 -20h-41q-41 0 -60.5 16.5t-31.5 53.5l-75 235q-32 -5 -61 -5h-67l-38 -180z M303 565l-51 -240l2 8h62q109 0 166 57.5t57 136.5q0 58 -40 90.5t-112 32.5h-66zM349 -161q0 -37 -31 -83.5t-75 -76.5l-7 7q47 53 64 107q-33 2 -33 35q0 21 14.5 35.5t34.5 14.5q15 0 24 -10.5t9 -28.5z" />
<glyph unicode="&#x157;" horiz-adv-x="380" d="M110 11l24 109q66 299 66 318q0 27 -18 27q-29 0 -98 -102l-8 5q25 55 57 96t65 41q43 0 43 -56q0 -33 -33 -174q23 49 39.5 79.5t42 70.5t52 60t53.5 20q22 0 35.5 -11t13.5 -27q0 -22 -17 -37q-24 30 -49 30q-32 0 -79 -68t-78.5 -137t-37.5 -95l-9 -40l-26 -123 l-16 -4q-12 -3 -17 -3q-9 0 -5 21zM136 -161q0 -37 -31 -83.5t-75 -76.5l-7 7q47 53 64 107q-33 2 -33 35q0 21 14.5 35.5t34.5 14.5q15 0 24 -10.5t9 -28.5z" />
<glyph unicode="&#x158;" horiz-adv-x="595" d="M470 775l-6 -4h-41q-21 27 -84 124l16 10q61 -66 94 -94q63 42 153 94l10 -12q-89 -67 -142 -118zM191 39l85 -19l-4 -20h-216l-2 20l67 13q28 5 33 30l13 57l94 445l17 81l-84 19l4 20h191q92 0 143.5 -41t51.5 -114q0 -78 -46 -134.5t-123 -80.5l70 -215 q12 -37 27.5 -51t47.5 -22l27 -7l-4 -20h-41q-41 0 -60.5 16.5t-31.5 53.5l-75 235q-32 -5 -61 -5h-67l-38 -180zM303 565l-51 -240l2 8h62q109 0 166 57.5t57 136.5q0 58 -40 90.5t-112 32.5h-66z" />
<glyph unicode="&#x159;" horiz-adv-x="380" d="M343 590l-6 -4h-41q-30 54 -75 154l16 10q57 -86 86 -120q58 54 145 120l10 -12q-88 -86 -135 -148zM110 11l24 109q66 299 66 318q0 27 -18 27q-29 0 -98 -102l-8 5q25 55 57 96t65 41q43 0 43 -56q0 -33 -33 -174q23 49 39.5 79.5t42 70.5t52 60t53.5 20q22 0 35.5 -11 t13.5 -27q0 -22 -17 -37q-24 30 -49 30q-32 0 -79 -68t-78.5 -137t-37.5 -95l-9 -40l-26 -123l-16 -4q-12 -3 -17 -3q-9 0 -5 21z" />
<glyph unicode="&#x15a;" horiz-adv-x="434" d="M483 896l7 1q26 -6 26 -26q0 -24 -76 -51t-160 -42l-5 16q164 69 208 102zM197 -10q-52 0 -96 13t-50 27q-3 8 -3 18q0 50 29 120h16q-1 -16 -1 -42q0 -52 15 -71q25 -32 98 -32q72 0 117.5 47t45.5 109q0 41 -23 76t-55.5 62t-65 54.5t-55.5 65t-23 81.5q0 75 60 126 t143 51q52 0 87.5 -11.5t45.5 -25.5q2 -4 2 -9q0 -20 -9.5 -60t-21.5 -69h-16q2 38 2 49q0 48 -13 64q-23 27 -85 27q-64 0 -107 -40.5t-43 -98.5q0 -37 23 -70.5t55.5 -60.5t65 -55.5t55.5 -67.5t23 -84q0 -78 -59 -135.5t-157 -57.5z" />
<glyph unicode="&#x15b;" horiz-adv-x="354" d="M361 754l6 2h4q27 0 27 -20q0 -45 -203 -155l-9 15q128 97 175 158zM322 127q0 -59 -40.5 -98t-105.5 -39q-53 0 -88 28t-35 71q0 54 49 92l7 -5q-18 -39 -18 -76q0 -36 26.5 -58t66.5 -22q42 0 69 25t27 70q0 29 -16 56t-38 49.5t-44.5 45.5t-38.5 53t-16 63 q0 52 38 87.5t94 35.5q49 0 79 -24.5t30 -60.5q0 -53 -42 -97l-8 6q12 40 12 68q0 80 -74 80q-37 0 -62 -25.5t-25 -64.5q0 -29 16 -56.5t38 -50.5t44.5 -46t38.5 -51t16 -56z" />
<glyph unicode="&#x15c;" horiz-adv-x="434" d="M521 781l-16 -10q-61 61 -104 94q-64 -45 -147 -94l-9 12q96 74 138 118l7 4h37q52 -62 94 -124zM197 -10q-52 0 -96 13t-50 27q-3 8 -3 18q0 50 29 120h16q-1 -16 -1 -42q0 -52 15 -71q25 -32 98 -32q72 0 117.5 47t45.5 109q0 41 -23 76t-55.5 62t-65 54.5t-55.5 65 t-23 81.5q0 75 60 126t143 51q52 0 87.5 -11.5t45.5 -25.5q2 -4 2 -9q0 -20 -9.5 -60t-21.5 -69h-16q2 38 2 49q0 48 -13 64q-23 27 -85 27q-64 0 -107 -40.5t-43 -98.5q0 -37 23 -70.5t55.5 -60.5t65 -55.5t55.5 -67.5t23 -84q0 -78 -59 -135.5t-157 -57.5z" />
<glyph unicode="&#x15d;" horiz-adv-x="354" d="M398 596l-16 -10q-54 78 -94 120q-59 -57 -137 -120l-9 12q86 90 126 148l7 4h41q44 -76 82 -154zM322 127q0 -59 -40.5 -98t-105.5 -39q-53 0 -88 28t-35 71q0 54 49 92l7 -5q-18 -39 -18 -76q0 -36 26.5 -58t66.5 -22q42 0 69 25t27 70q0 29 -16 56t-38 49.5 t-44.5 45.5t-38.5 53t-16 63q0 52 38 87.5t94 35.5q49 0 79 -24.5t30 -60.5q0 -53 -42 -97l-8 6q12 40 12 68q0 80 -74 80q-37 0 -62 -25.5t-25 -64.5q0 -29 16 -56.5t38 -50.5t44.5 -46t38.5 -51t16 -56z" />
<glyph unicode="&#x15e;" horiz-adv-x="434" d="M197 -10q-52 0 -96 13t-50 27q-3 8 -3 18q0 50 29 120h16q-1 -16 -1 -42q0 -52 15 -71q25 -32 98 -32q72 0 117.5 47t45.5 109q0 41 -23 76t-55.5 62t-65 54.5t-55.5 65t-23 81.5q0 75 60 126t143 51q52 0 87.5 -11.5t45.5 -25.5q2 -4 2 -9q0 -20 -9.5 -60t-21.5 -69h-16 q2 38 2 49q0 48 -13 64q-23 27 -85 27q-64 0 -107 -40.5t-43 -98.5q0 -37 23 -70.5t55.5 -60.5t65 -55.5t55.5 -67.5t23 -84q0 -71 -50 -126.5t-134 -64.5l-22 -56q58 -11 58 -53q0 -35 -38.5 -61.5t-99.5 -33.5l-2 9q42 11 69 32t27 42q0 16 -14 26.5t-38 11.5l-2 5z" />
<glyph unicode="&#x15f;" horiz-adv-x="354" d="M224 -117q0 -35 -38.5 -61.5t-99.5 -33.5l-2 9q42 11 69 32t27 42q0 16 -14 26.5t-38 11.5l-2 5l30 77q-45 5 -74 32t-29 66q0 54 49 92l7 -5q-18 -39 -18 -76q0 -36 26.5 -58t66.5 -22q42 0 69 25t27 70q0 29 -16 56t-38 49.5t-44.5 45.5t-38.5 53t-16 63q0 52 38 87.5 t94 35.5q49 0 79 -24.5t30 -60.5q0 -53 -42 -97l-8 6q12 40 12 68q0 80 -74 80q-37 0 -62 -25.5t-25 -64.5q0 -29 16 -56.5t38 -50.5t44.5 -46t38.5 -51t16 -56q0 -57 -37.5 -95t-97.5 -42l-21 -54q58 -11 58 -53z" />
<glyph unicode="&#x160;" horiz-adv-x="434" d="M402 775l-6 -4h-41q-21 27 -84 124l16 10q61 -66 94 -94q63 42 153 94l10 -12q-89 -67 -142 -118zM197 -10q-52 0 -96 13t-50 27q-3 8 -3 18q0 50 29 120h16q-1 -16 -1 -42q0 -52 15 -71q25 -32 98 -32q72 0 117.5 47t45.5 109q0 41 -23 76t-55.5 62t-65 54.5t-55.5 65 t-23 81.5q0 75 60 126t143 51q52 0 87.5 -11.5t45.5 -25.5q2 -4 2 -9q0 -20 -9.5 -60t-21.5 -69h-16q2 38 2 49q0 48 -13 64q-23 27 -85 27q-64 0 -107 -40.5t-43 -98.5q0 -37 23 -70.5t55.5 -60.5t65 -55.5t55.5 -67.5t23 -84q0 -78 -59 -135.5t-157 -57.5z" />
<glyph unicode="&#x161;" horiz-adv-x="354" d="M300 590l-6 -4h-41q-30 54 -75 154l16 10q57 -86 86 -120q58 54 145 120l10 -12q-88 -86 -135 -148zM322 127q0 -59 -40.5 -98t-105.5 -39q-53 0 -88 28t-35 71q0 54 49 92l7 -5q-18 -39 -18 -76q0 -36 26.5 -58t66.5 -22q42 0 69 25t27 70q0 29 -16 56t-38 49.5 t-44.5 45.5t-38.5 53t-16 63q0 52 38 87.5t94 35.5q49 0 79 -24.5t30 -60.5q0 -53 -42 -97l-8 6q12 40 12 68q0 80 -74 80q-37 0 -62 -25.5t-25 -64.5q0 -29 16 -56.5t38 -50.5t44.5 -46t38.5 -51t16 -56z" />
<glyph unicode="&#x162;" horiz-adv-x="543" d="M288 39l85 -19l-4 -20h-94l-25 -64q58 -11 58 -53q0 -35 -38.5 -61.5t-99.5 -33.5l-2 9q42 11 69 32t27 42q0 16 -14 26.5t-38 11.5l-2 5l34 86h-91l-2 20l67 13q28 5 33 30l13 57l113 533h-74q-72 0 -122 -10q-13 -25 -37 -84l-16 -39h-15q13 103 38 165h508 q-3 -71 -32 -165h-15v39q0 62 -1 84q-47 10 -118 10h-74l-113 -533z" />
<glyph unicode="&#x163;" horiz-adv-x="324" d="M225 -117q0 -35 -38.5 -61.5t-99.5 -33.5l-2 9q42 11 69 32t27 42q0 16 -14 26.5t-38 11.5l-2 5l31 79q-47 16 -47 88q0 33 7 67l67 312h-87l2 12l91 18l59 149l13 -1l-32 -148h155l-6 -30h-155l-67 -312q-7 -32 -7 -62q0 -61 44 -61q58 0 147 107l8 -5 q-73 -130 -162 -137l-21 -54q58 -11 58 -53z" />
<glyph unicode="&#x164;" horiz-adv-x="543" d="M450 776l-6 -4h-41q-21 27 -84 124l16 10q61 -66 94 -94q63 42 153 94l10 -12q-89 -67 -142 -118zM288 39l85 -19l-4 -20h-216l-2 20l67 13q28 5 33 30l13 57l113 533h-74q-72 0 -122 -10q-13 -25 -37 -84l-16 -39h-15q13 103 38 165h508q-3 -71 -32 -165h-15v39 q0 62 -1 84q-47 10 -118 10h-74l-113 -533z" />
<glyph unicode="&#x165;" horiz-adv-x="324" d="M484 706q0 -37 -31 -83.5t-75 -76.5l-7 7q47 53 64 107q-33 2 -33 35q0 21 14.5 35.5t34.5 14.5q15 0 24 -10.5t9 -28.5zM180 -10q-32 0 -50.5 24t-18.5 67q0 33 7 67l67 312h-87l2 12l91 18l59 149l13 -1l-32 -148h155l-6 -30h-155l-67 -312q-7 -32 -7 -62q0 -61 44 -61 q58 0 147 107l8 -5q-78 -137 -170 -137z" />
<glyph unicode="&#x166;" horiz-adv-x="543" d="M288 39l85 -19l-4 -20h-216l-2 20l67 13q28 5 33 30l13 57l45 213h-150l6 30h151l61 290h-74q-72 0 -122 -10q-13 -25 -37 -84l-16 -39h-15q13 103 38 165h508q-3 -71 -32 -165h-15v39q0 62 -1 84q-47 10 -118 10h-74l-61 -290h156l-6 -30h-157l-45 -213z" />
<glyph unicode="&#x167;" horiz-adv-x="324" d="M180 -10q-32 0 -50.5 24t-18.5 67q0 33 7 67l36 167h-72l5 30h73l25 115h-87l2 12l91 18l59 149l13 -1l-32 -148h155l-6 -30h-155l-25 -115h166l-4 -30h-168l-36 -167q-7 -32 -7 -62q0 -61 44 -61q58 0 147 107l8 -5q-78 -137 -170 -137z" />
<glyph unicode="&#x168;" horiz-adv-x="660" d="M413 849q-14 -5 -79 -68l-8 5q26 52 50.5 77t57.5 25q29 0 90.5 -30t83.5 -30q16 5 79 68l8 -5q-25 -52 -50 -77t-59 -25q-27 0 -89 30t-84 30zM584 235q-26 -124 -91 -184.5t-158 -60.5q-81 0 -132 47.5t-51 129.5q0 39 8 78l68 320l18 81l-85 19l4 20h216l2 -20 l-67 -13q-28 -5 -33 -30l-13 -57l-69 -323q-7 -34 -7 -68q0 -70 42 -109.5t108 -39.5q72 0 127 53t78 159l70 328l18 81l-85 19l4 20h209l2 -20l-95 -19l-18 -81z" />
<glyph unicode="&#x169;" horiz-adv-x="513" d="M284 689q-13 -5 -69 -70l-8 5q45 100 103 100q28 0 79.5 -30t69.5 -30q13 5 69 70l8 -5q-45 -100 -103 -100q-28 0 -81 30t-68 30zM405 120q-10 -50 -10 -63q0 -27 18 -27q29 0 98 102l8 -5q-25 -55 -57 -96t-65 -41q-43 0 -43 56q0 21 11 74l26 117q-123 -247 -209 -247 q-27 0 -41 20t-14 51q0 28 11.5 79.5t33.5 132t27 102.5q10 50 10 63q0 27 -18 27q-29 0 -98 -102l-8 5q25 55 57 96t65 41q43 0 43 -56q0 -21 -11 -74q-8 -35 -27.5 -105.5t-32 -123.5t-12.5 -77q0 -39 27 -39q43 0 112 106t105 195l10 44l26 123l16 4q12 3 17 3q9 0 5 -21 l-24 -109z" />
<glyph unicode="&#x16a;" horiz-adv-x="660" d="M379 819l8 34h252l-8 -34h-252zM584 235q-26 -124 -91 -184.5t-158 -60.5q-81 0 -132 47.5t-51 129.5q0 39 8 78l68 320l18 81l-85 19l4 20h216l2 -20l-67 -13q-28 -5 -33 -30l-13 -57l-69 -323q-7 -34 -7 -68q0 -70 42 -109.5t108 -39.5q72 0 127 53t78 159l70 328 l18 81l-85 19l4 20h209l2 -20l-95 -19l-18 -81z" />
<glyph unicode="&#x16b;" horiz-adv-x="513" d="M252 653l8 34h234l-8 -34h-234zM405 120q-10 -50 -10 -63q0 -27 18 -27q29 0 98 102l8 -5q-25 -55 -57 -96t-65 -41q-43 0 -43 56q0 21 11 74l26 117q-123 -247 -209 -247q-27 0 -41 20t-14 51q0 28 11.5 79.5t33.5 132t27 102.5q10 50 10 63q0 27 -18 27q-29 0 -98 -102 l-8 5q25 55 57 96t65 41q43 0 43 -56q0 -21 -11 -74q-8 -35 -27.5 -105.5t-32 -123.5t-12.5 -77q0 -39 27 -39q43 0 112 106t105 195l10 44l26 123l16 4q12 3 17 3q9 0 5 -21l-24 -109z" />
<glyph unicode="&#x16c;" horiz-adv-x="660" d="M616 890l4 2l13 -8q-53 -99 -147 -99q-44 0 -67 27.5t-21 76.5l16 3q3 -30 25 -47t59 -17q70 0 118 62zM584 235q-26 -124 -91 -184.5t-158 -60.5q-81 0 -132 47.5t-51 129.5q0 39 8 78l68 320l18 81l-85 19l4 20h216l2 -20l-67 -13q-28 -5 -33 -30l-13 -57l-69 -323 q-7 -34 -7 -68q0 -70 42 -109.5t108 -39.5q72 0 127 53t78 159l70 328l18 81l-85 19l4 20h209l2 -20l-95 -19l-18 -81z" />
<glyph unicode="&#x16d;" horiz-adv-x="513" d="M489 728l4 2l14 -3q-52 -122 -148 -122q-44 0 -67.5 32t-21.5 90l17 3q3 -38 25 -60t59 -22q70 0 118 80zM405 120q-10 -50 -10 -63q0 -27 18 -27q29 0 98 102l8 -5q-25 -55 -57 -96t-65 -41q-43 0 -43 56q0 21 11 74l26 117q-123 -247 -209 -247q-27 0 -41 20t-14 51 q0 28 11.5 79.5t33.5 132t27 102.5q10 50 10 63q0 27 -18 27q-29 0 -98 -102l-8 5q25 55 57 96t65 41q43 0 43 -56q0 -21 -11 -74q-8 -35 -27.5 -105.5t-32 -123.5t-12.5 -77q0 -39 27 -39q43 0 112 106t105 195l10 44l26 123l16 4q12 3 17 3q9 0 5 -21l-24 -109z" />
<glyph unicode="&#x16e;" horiz-adv-x="660" d="M589 853q0 -36 -28.5 -61.5t-69.5 -25.5q-29 0 -45.5 15.5t-16.5 42.5q0 35 28.5 60t68.5 25q29 0 46 -15t17 -41zM463 824q0 -16 9.5 -25.5t25.5 -9.5q23 0 39.5 18t16.5 44q0 16 -9.5 25.5t-25.5 9.5q-23 0 -39.5 -18t-16.5 -44zM584 235q-26 -124 -91 -184.5 t-158 -60.5q-81 0 -132 47.5t-51 129.5q0 39 8 78l68 320l18 81l-85 19l4 20h216l2 -20l-67 -13q-28 -5 -33 -30l-13 -57l-69 -323q-7 -34 -7 -68q0 -70 42 -109.5t108 -39.5q72 0 127 53t78 159l70 328l18 81l-85 19l4 20h209l2 -20l-95 -19l-18 -81z" />
<glyph unicode="&#x16f;" horiz-adv-x="513" d="M457 683q0 -36 -28.5 -61.5t-69.5 -25.5q-29 0 -45.5 15.5t-16.5 42.5q0 35 28.5 60t68.5 25q29 0 46 -15t17 -41zM331 654q0 -16 9.5 -25.5t25.5 -9.5q23 0 39.5 18t16.5 44q0 16 -9.5 25.5t-25.5 9.5q-23 0 -39.5 -18t-16.5 -44zM405 120q-10 -50 -10 -63q0 -27 18 -27 q29 0 98 102l8 -5q-25 -55 -57 -96t-65 -41q-43 0 -43 56q0 21 11 74l26 117q-123 -247 -209 -247q-27 0 -41 20t-14 51q0 28 11.5 79.5t33.5 132t27 102.5q10 50 10 63q0 27 -18 27q-29 0 -98 -102l-8 5q25 55 57 96t65 41q43 0 43 -56q0 -21 -11 -74q-8 -35 -27.5 -105.5 t-32 -123.5t-12.5 -77q0 -39 27 -39q43 0 112 106t105 195l10 44l26 123l16 4q12 3 17 3q9 0 5 -21l-24 -109z" />
<glyph unicode="&#x170;" horiz-adv-x="660" d="M513 897l8 1q20 -4 20 -21q0 -28 -52 -51t-160 -50l-7 16q111 44 191 105zM709 897l8 1q20 -4 20 -21q0 -28 -52 -51t-160 -50l-7 16q111 44 191 105zM584 235q-26 -124 -91 -184.5t-158 -60.5q-81 0 -132 47.5t-51 129.5q0 39 8 78l68 320l18 81l-85 19l4 20h216l2 -20 l-67 -13q-28 -5 -33 -30l-13 -57l-69 -323q-7 -34 -7 -68q0 -70 42 -109.5t108 -39.5q72 0 127 53t78 159l70 328l18 81l-85 19l4 20h209l2 -20l-95 -19l-18 -81z" />
<glyph unicode="&#x171;" horiz-adv-x="513" d="M396 754l6 2h4q27 0 27 -20q0 -45 -203 -155l-9 15q128 97 175 158zM546 754l6 2h4q27 0 27 -20q0 -45 -203 -155l-9 15q128 97 175 158zM405 120q-10 -50 -10 -63q0 -27 18 -27q29 0 98 102l8 -5q-25 -55 -57 -96t-65 -41q-43 0 -43 56q0 21 11 74l26 117 q-123 -247 -209 -247q-27 0 -41 20t-14 51q0 28 11.5 79.5t33.5 132t27 102.5q10 50 10 63q0 27 -18 27q-29 0 -98 -102l-8 5q25 55 57 96t65 41q43 0 43 -56q0 -21 -11 -74q-8 -35 -27.5 -105.5t-32 -123.5t-12.5 -77q0 -39 27 -39q43 0 112 106t105 195l10 44l26 123l16 4 q12 3 17 3q9 0 5 -21l-24 -109z" />
<glyph unicode="&#x172;" horiz-adv-x="660" d="M459 24q-87 -51 -126.5 -85t-39.5 -74q0 -18 9 -27.5t22 -9.5q34 0 92 68l8 -5q-48 -103 -112 -103q-62 0 -62 66q0 75 114 138q-18 -2 -29 -2q-81 0 -132 47.5t-51 129.5q0 39 8 78l68 320l18 81l-85 19l4 20h216l2 -20l-67 -13q-28 -5 -33 -30l-13 -57l-69 -323 q-7 -34 -7 -68q0 -70 42 -109.5t108 -39.5q72 0 127 53t78 159l70 328l18 81l-85 19l4 20h209l2 -20l-95 -19l-18 -81l-70 -330q-32 -152 -126 -211h1z" />
<glyph unicode="&#x173;" horiz-adv-x="513" d="M405 120q-10 -50 -10 -63q0 -27 18 -27q29 0 98 102l8 -5q-25 -54 -51 -89q-23 -33 -59.5 -71t-56 -63t-19.5 -47q0 -13 7.5 -21t20.5 -8q5 0 10 1t10.5 4t9.5 5.5t9.5 7.5t9 8t9.5 10t8.5 10t9.5 11.5t9 10.5l8 -5q-48 -103 -108 -103q-25 0 -40.5 16.5t-15.5 42.5 q0 20 12 41t22.5 32t39.5 36.5t38 33.5h-5q-43 0 -43 56q0 21 11 74l26 117q-123 -247 -209 -247q-27 0 -41 20t-14 51q0 28 11.5 79.5t33.5 132t27 102.5q10 50 10 63q0 27 -18 27q-29 0 -98 -102l-8 5q25 55 57 96t65 41q43 0 43 -56q0 -21 -11 -74q-8 -35 -27.5 -105.5 t-32 -123.5t-12.5 -77q0 -39 27 -39q43 0 112 106t105 195l10 44l26 123l16 4q12 3 17 3q9 0 5 -21l-24 -109z" />
<glyph unicode="&#x174;" horiz-adv-x="985" d="M760 781l-16 -10q-61 61 -104 94q-64 -45 -147 -94l-9 12q96 74 138 118l7 4h37q52 -62 94 -124zM318 0h-23l-67 616q-2 18 -8 25.5t-20 10.5l-57 13l2 20h205l4 -20l-89 -19l61 -564l256 466l-9 68q-2 18 -8 25.5t-20 10.5l-57 13l2 20h205l4 -20l-89 -19l70 -564 l300 564l-83 19l4 20h200l2 -20l-55 -13q-31 -7 -46 -36l-329 -616h-23l-61 491z" />
<glyph unicode="&#x175;" horiz-adv-x="608" d="M539 596l-16 -10q-54 78 -94 120q-59 -57 -137 -120l-9 12q86 90 126 148l7 4h41q44 -76 82 -154zM393 390v16q-31 -104 -93 -213t-141 -193h-10q25 329 25 390q0 75 -32 75t-101 -102l-8 5q64 137 123 137q57 0 57 -110q0 -131 -23 -324q85 112 133.5 226t59.5 205 q8 3 17 3q18 0 25 -19t7 -76q0 -141 -23 -339q85 112 140 223.5t55 190.5v15q8 5 19 5q28 0 28 -30q0 -63 -88.5 -218.5t-184.5 -256.5h-10q25 329 25 390z" />
<glyph unicode="&#x176;" horiz-adv-x="614" d="M589 781l-16 -10q-61 61 -104 94q-64 -45 -147 -94l-9 12q96 74 138 118l7 4h37q52 -62 94 -124zM324 39l85 -19l-4 -20h-216l-2 20l67 13q28 5 33 30l13 57l13 60q14 87 3.5 192.5t-42 194t-64.5 88.5q-32 0 -90 -102l-13 5q55 137 117 137q52 0 94 -124.5t44 -273.5 q83 171 161.5 284.5t130.5 113.5q31 0 48 -39t20 -93l-13 -5q-24 97 -60 97q-29 0 -94 -87.5t-125 -202t-75 -185.5l-13 -60z" />
<glyph unicode="&#x177;" horiz-adv-x="385" d="M407 596l-16 -10q-54 78 -94 120q-59 -57 -137 -120l-9 12q86 90 126 148l7 4h41q44 -76 82 -154zM148 505q70 0 70 -165q0 -154 -52 -323q97 88 151 199t54 230q0 36 -4 53q6 6 17 6q33 0 33 -57q0 -106 -71 -241.5t-194 -233.5q-80 -228 -201 -228q-32 0 -52 14.5 t-20 35.5q0 19 17 30q29 -42 71 -42q99 0 160 215q24 84 36.5 179t12.5 158q0 130 -41 130q-17 0 -37.5 -26t-50.5 -76l-8 5q20 55 49.5 96t59.5 41z" />
<glyph unicode="&#x178;" horiz-adv-x="614" d="M585 847q0 -22 -13 -38.5t-31 -16.5q-32 0 -32 31q0 20 13 37t32 17q31 0 31 -30zM395 847q0 -22 -13 -38.5t-31 -16.5q-32 0 -32 31q0 20 13 37t32 17q31 0 31 -30zM324 39l85 -19l-4 -20h-216l-2 20l67 13q28 5 33 30l13 57l13 60q14 87 3.5 192.5t-42 194t-64.5 88.5 q-32 0 -90 -102l-13 5q55 137 117 137q52 0 94 -124.5t44 -273.5q83 171 161.5 284.5t130.5 113.5q31 0 48 -39t20 -93l-13 -5q-24 97 -60 97q-29 0 -94 -87.5t-125 -202t-75 -185.5l-13 -60z" />
<glyph unicode="&#x179;" horiz-adv-x="562" d="M533 896l7 1q26 -6 26 -26q0 -24 -76 -51t-160 -42l-5 16q164 69 208 102zM479 0h-420l1 30l507 625h-203q-67 0 -115 -5l-60 -130h-15q6 89 35 165h411l-2 -30l-506 -625h213q67 0 114 5l62 130h15q-9 -81 -37 -165z" />
<glyph unicode="&#x17a;" horiz-adv-x="387" d="M397 754l6 2h4q27 0 27 -20q0 -45 -203 -155l-9 15q128 97 175 158zM119 20q-40 0 -70 -30l-18 18q34 45 99.5 129.5t113 148.5t93.5 130q-92 46 -145 46q-26 0 -45 -22t-49 -77l-10 5q31 90 42 107q20 29 49 30q62 0 171 -70q15 22 47 70q24 -5 24 -26q0 -13 -17 -38 q-36 -50 -78.5 -105.5t-67.5 -87.5t-85 -106.5t-82 -101.5q24 10 53 10q14 0 70 -10t70 -10q20 0 48 41q16 23 40 61l8 -5q-14 -39 -28 -68q-17 -36 -30.5 -52.5t-32.5 -16.5q-21 0 -84 15t-86 15z" />
<glyph unicode="&#x17b;" horiz-adv-x="562" d="M484 844q0 -20 -14 -36t-33 -16q-32 0 -32 32q0 20 14 35t33 15q32 0 32 -30zM479 0h-420l1 30l507 625h-203q-67 0 -115 -5l-60 -130h-15q6 89 35 165h411l-2 -30l-506 -625h213q67 0 114 5l62 130h15q-9 -81 -37 -165z" />
<glyph unicode="&#x17c;" horiz-adv-x="387" d="M310 618q-13 0 -21 8.5t-8 22.5q0 25 12.5 42t31.5 17q13 0 21 -8.5t8 -21.5q0 -26 -12.5 -43t-31.5 -17zM119 20q-40 0 -70 -30l-18 18q34 45 99.5 129.5t113 148.5t93.5 130q-92 46 -145 46q-26 0 -45 -22t-49 -77l-10 5q31 90 42 107q20 29 49 30q62 0 171 -70 q15 22 47 70q24 -5 24 -26q0 -13 -17 -38q-36 -50 -78.5 -105.5t-67.5 -87.5t-85 -106.5t-82 -101.5q24 10 53 10q14 0 70 -10t70 -10q20 0 48 41q16 23 40 61l8 -5q-14 -39 -28 -68q-17 -36 -30.5 -52.5t-32.5 -16.5q-21 0 -84 15t-86 15z" />
<glyph unicode="&#x17d;" horiz-adv-x="562" d="M452 775l-6 -4h-41q-21 27 -84 124l16 10q61 -66 94 -94q63 42 153 94l10 -12q-89 -67 -142 -118zM479 0h-420l1 30l507 625h-203q-67 0 -115 -5l-60 -130h-15q6 89 35 165h411l-2 -30l-506 -625h213q67 0 114 5l62 130h15q-9 -81 -37 -165z" />
<glyph unicode="&#x17e;" horiz-adv-x="387" d="M336 590l-6 -4h-41q-30 54 -75 154l16 10q57 -86 86 -120q58 54 145 120l10 -12q-88 -86 -135 -148zM119 20q-40 0 -70 -30l-18 18q34 45 99.5 129.5t113 148.5t93.5 130q-92 46 -145 46q-26 0 -45 -22t-49 -77l-10 5q31 90 42 107q20 29 49 30q62 0 171 -70q15 22 47 70 q24 -5 24 -26q0 -13 -17 -38q-36 -50 -78.5 -105.5t-67.5 -87.5t-85 -106.5t-82 -101.5q24 10 53 10q14 0 70 -10t70 -10q20 0 48 41q16 23 40 61l8 -5q-14 -39 -28 -68q-17 -36 -30.5 -52.5t-32.5 -16.5q-21 0 -84 15t-86 15z" />
<glyph unicode="&#x18f;" horiz-adv-x="569" d="M584 461q0 -129 -42 -237.5t-115 -171t-160 -62.5q-81 0 -125.5 56.5t-44.5 158.5q0 56 15 117l12 11h404q11 63 11 124q0 203 -149 203q-74 0 -129.5 -51t-55.5 -120q0 -8 2 -18q-9 -6 -22 -6q-28 0 -28 29q0 81 71.5 141t168.5 60q86 0 136.5 -63.5t50.5 -170.5z M141 211q0 -91 35.5 -138.5t103.5 -47.5q82 0 147 78.5t94 199.5l-372 -6q-8 -36 -8 -86z" />
<glyph unicode="&#x192;" horiz-adv-x="455" d="M183 -8q-25 -116 -73.5 -181.5t-117.5 -65.5q-37 0 -61 17.5t-24 42.5q0 21 17 30q41 -57 90 -57q48 0 75.5 49t49.5 153l68 318h-119l8 35h118l25 115q24 116 73 181.5t118 65.5q49 0 82 -30.5t33 -67.5q0 -28 -27 -36q-26 101 -100 101q-52 0 -81.5 -49t-53.5 -153 l-27 -127h187l-8 -35h-187z" />
<glyph unicode="&#x19d;" horiz-adv-x="720" d="M29 -170l-11 13q46 49 65 72.5t42.5 72.5t37.5 116l110 518q3 14 -0.5 20t-19.5 10l-59 13l4 20h119l241 -607l103 487l18 81l-85 19l4 20h209l2 -20l-67 -13q-17 -3 -23.5 -9t-9.5 -21l-13 -57l-120 -565h-30l-242 605l-112 -530q-13 -62 -35.5 -105t-49.5 -71.5 t-78 -68.5z" />
<glyph unicode="&#x1cd;" horiz-adv-x="649" d="M495 775l-6 -4h-41q-21 27 -84 124l16 10q61 -66 94 -94q63 42 153 94l10 -12q-89 -67 -142 -118zM444 687h23l76 -618q2 -18 8 -25.5t20 -10.5l57 -13l-2 -20h-205l-4 20l89 19l-26 216l-237 -4l-116 -212l82 -19l-4 -20h-200l-2 20l55 13q29 6 46 36zM261 285h215 l-40 321z" />
<glyph unicode="&#x1ce;" horiz-adv-x="465" d="M385 590l-6 -4h-41q-30 54 -75 154l16 10q57 -86 86 -120q58 54 145 120l10 -12q-88 -86 -135 -148zM357 120q-10 -50 -10 -63q0 -27 18 -27q29 0 98 102l8 -5q-25 -55 -57 -96t-65 -41q-43 0 -43 56q0 21 11 74l31 140q-126 -270 -218 -270q-29 0 -47.5 29t-18.5 81 q0 159 88 282t198 123q50 0 88 -20zM106 101q0 -32 9.5 -51.5t26.5 -19.5q31 0 82 67t91 144t57 126l20 92q-31 16 -72 16q-51 0 -100.5 -51t-81.5 -138.5t-32 -184.5z" />
<glyph unicode="&#x1cf;" horiz-adv-x="350" d="M347 775l-6 -4h-41q-21 27 -84 124l16 10q61 -66 94 -94q63 42 153 94l10 -12q-89 -67 -142 -118zM191 39l85 -19l-4 -20h-216l-2 20l67 13q28 5 33 30l13 57l94 445l18 81l-85 19l4 20h216l2 -20l-67 -13q-28 -5 -33 -30l-13 -57l-94 -445z" />
<glyph unicode="&#x1d0;" horiz-adv-x="278" d="M268 590l-6 -4h-41q-16 47 -46 154l16 10q47 -96 58 -116q64 70 114 116l10 -12q-67 -84 -105 -148zM169 120q-10 -50 -10 -63q0 -27 18 -27q29 0 98 102l8 -5q-25 -55 -57 -96t-65 -41q-43 0 -43 56q0 21 11 74q1 7 61 255q10 50 10 63q0 27 -18 27q-29 0 -98 -102l-8 5 q25 55 57 96t65 41q43 0 43 -56q0 -21 -11 -74q-9 -40 -31 -130t-30 -125z" />
<glyph unicode="&#x1d1;" horiz-adv-x="575" d="M457 775l-6 -4h-41q-21 27 -84 124l16 10q61 -66 94 -94q63 42 153 94l10 -12q-89 -67 -142 -118zM593 454q0 -71 -21.5 -150t-59 -150t-97.5 -117.5t-129 -46.5q-83 0 -132.5 65t-49.5 174q0 77 22 158t61 150t99.5 113.5t130.5 44.5q81 0 128.5 -64.5t47.5 -176.5z M149 235q0 -95 37.5 -152.5t107.5 -57.5q75 0 135 70t89.5 167t29.5 193q0 205 -139 205q-75 0 -136.5 -68.5t-92.5 -164.5t-31 -192z" />
<glyph unicode="&#x1d2;" horiz-adv-x="394" d="M327 590l-6 -4h-41q-30 54 -75 154l16 10q57 -86 86 -120q58 54 145 120l10 -12q-88 -86 -135 -148zM397 335q0 -140 -63 -242.5t-145 -102.5q-51 0 -81.5 48.5t-30.5 124.5q0 133 64.5 237.5t145.5 104.5q54 0 82 -45t28 -125zM119 169q0 -68 21 -107.5t56 -39.5 q43 0 80 44.5t58 117t21 152.5q0 137 -73 137q-43 0 -81 -46.5t-60 -116.5t-22 -141z" />
<glyph unicode="&#x1d3;" horiz-adv-x="660" d="M515 775l-6 -4h-41q-21 27 -84 124l16 10q61 -66 94 -94q63 42 153 94l10 -12q-89 -67 -142 -118zM584 235q-26 -124 -91 -184.5t-158 -60.5q-81 0 -132 47.5t-51 129.5q0 39 8 78l68 320l18 81l-85 19l4 20h216l2 -20l-67 -13q-28 -5 -33 -30l-13 -57l-69 -323 q-7 -34 -7 -68q0 -70 42 -109.5t108 -39.5q72 0 127 53t78 159l70 328l18 81l-85 19l4 20h209l2 -20l-95 -19l-18 -81z" />
<glyph unicode="&#x1d4;" horiz-adv-x="513" d="M386 590l-6 -4h-41q-30 54 -75 154l16 10q57 -86 86 -120q58 54 145 120l10 -12q-88 -86 -135 -148zM405 120q-10 -50 -10 -63q0 -27 18 -27q29 0 98 102l8 -5q-25 -55 -57 -96t-65 -41q-43 0 -43 56q0 21 11 74l26 117q-123 -247 -209 -247q-27 0 -41 20t-14 51 q0 28 11.5 79.5t33.5 132t27 102.5q10 50 10 63q0 27 -18 27q-29 0 -98 -102l-8 5q25 55 57 96t65 41q43 0 43 -56q0 -21 -11 -74q-8 -35 -27.5 -105.5t-32 -123.5t-12.5 -77q0 -39 27 -39q43 0 112 106t105 195l10 44l26 123l16 4q12 3 17 3q9 0 5 -21l-24 -109z" />
<glyph unicode="&#x1d5;" horiz-adv-x="660" d="M416 1003l8 34h252l-8 -34h-252zM639 847q0 -22 -13 -38.5t-31 -16.5q-32 0 -32 31q0 20 13 37t32 17q31 0 31 -30zM449 847q0 -22 -13 -38.5t-31 -16.5q-32 0 -32 31q0 20 13 37t32 17q31 0 31 -30zM584 235q-26 -124 -91 -184.5t-158 -60.5q-81 0 -132 47.5t-51 129.5 q0 39 8 78l68 320l18 81l-85 19l4 20h216l2 -20l-67 -13q-28 -5 -33 -30l-13 -57l-69 -323q-7 -34 -7 -68q0 -70 42 -109.5t108 -39.5q72 0 127 53t78 159l70 328l18 81l-85 19l4 20h209l2 -20l-95 -19l-18 -81z" />
<glyph unicode="&#x1d6;" horiz-adv-x="513" d="M298 883l8 34h234l-8 -34h-234zM507 678q0 -23 -12.5 -40t-28.5 -17q-29 0 -29 33q0 21 12 38.5t30 17.5q28 0 28 -32zM317 678q0 -23 -12.5 -40t-28.5 -17q-29 0 -29 33q0 21 12 38.5t30 17.5q28 0 28 -32zM405 120q-10 -50 -10 -63q0 -27 18 -27q29 0 98 102l8 -5 q-25 -55 -57 -96t-65 -41q-43 0 -43 56q0 21 11 74l26 117q-123 -247 -209 -247q-27 0 -41 20t-14 51q0 28 11.5 79.5t33.5 132t27 102.5q10 50 10 63q0 27 -18 27q-29 0 -98 -102l-8 5q25 55 57 96t65 41q43 0 43 -56q0 -21 -11 -74q-8 -35 -27.5 -105.5t-32 -123.5 t-12.5 -77q0 -39 27 -39q43 0 112 106t105 195l10 44l26 123l16 4q12 3 17 3q9 0 5 -21l-24 -109z" />
<glyph unicode="&#x1d7;" horiz-adv-x="660" d="M643 1080l7 1q26 -6 26 -26q0 -24 -76 -51t-160 -42l-5 16q164 69 208 102zM449 847q0 -22 -13 -38.5t-31 -16.5q-32 0 -32 31q0 20 13 37t32 17q31 0 31 -30zM639 847q0 -22 -13 -38.5t-31 -16.5q-32 0 -32 31q0 20 13 37t32 17q31 0 31 -30zM584 235 q-26 -124 -91 -184.5t-158 -60.5q-81 0 -132 47.5t-51 129.5q0 39 8 78l68 320l18 81l-85 19l4 20h216l2 -20l-67 -13q-28 -5 -33 -30l-13 -57l-69 -323q-7 -34 -7 -68q0 -70 42 -109.5t108 -39.5q72 0 127 53t78 159l70 328l18 81l-85 19l4 20h209l2 -20l-95 -19l-18 -81z " />
<glyph unicode="&#x1d8;" horiz-adv-x="513" d="M502 983l6 2h4q27 0 27 -20q0 -45 -203 -155l-9 15q128 97 175 158zM507 678q0 -23 -12.5 -40t-28.5 -17q-29 0 -29 33q0 21 12 38.5t30 17.5q28 0 28 -32zM317 678q0 -23 -12.5 -40t-28.5 -17q-29 0 -29 33q0 21 12 38.5t30 17.5q28 0 28 -32zM405 120q-10 -50 -10 -63 q0 -27 18 -27q29 0 98 102l8 -5q-25 -55 -57 -96t-65 -41q-43 0 -43 56q0 21 11 74l26 117q-123 -247 -209 -247q-27 0 -41 20t-14 51q0 28 11.5 79.5t33.5 132t27 102.5q10 50 10 63q0 27 -18 27q-29 0 -98 -102l-8 5q25 55 57 96t65 41q43 0 43 -56q0 -21 -11 -74 q-8 -35 -27.5 -105.5t-32 -123.5t-12.5 -77q0 -39 27 -39q43 0 112 106t105 195l10 44l26 123l16 4q12 3 17 3q9 0 5 -21l-24 -109z" />
<glyph unicode="&#x1d9;" horiz-adv-x="660" d="M552 959l-6 -4h-41q-21 27 -84 124l16 10q61 -66 94 -94q63 42 153 94l10 -12q-89 -67 -142 -118zM639 847q0 -22 -13 -38.5t-31 -16.5q-32 0 -32 31q0 20 13 37t32 17q31 0 31 -30zM449 847q0 -22 -13 -38.5t-31 -16.5q-32 0 -32 31q0 20 13 37t32 17q31 0 31 -30z M584 235q-26 -124 -91 -184.5t-158 -60.5q-81 0 -132 47.5t-51 129.5q0 39 8 78l68 320l18 81l-85 19l4 20h216l2 -20l-67 -13q-28 -5 -33 -30l-13 -57l-69 -323q-7 -34 -7 -68q0 -70 42 -109.5t108 -39.5q72 0 127 53t78 159l70 328l18 81l-85 19l4 20h209l2 -20l-95 -19 l-18 -81z" />
<glyph unicode="&#x1da;" horiz-adv-x="513" d="M430 820l-6 -4h-41q-30 54 -75 154l16 10q57 -86 86 -120q58 54 145 120l10 -12q-88 -86 -135 -148zM507 678q0 -23 -12.5 -40t-28.5 -17q-29 0 -29 33q0 21 12 38.5t30 17.5q28 0 28 -32zM317 678q0 -23 -12.5 -40t-28.5 -17q-29 0 -29 33q0 21 12 38.5t30 17.5 q28 0 28 -32zM405 120q-10 -50 -10 -63q0 -27 18 -27q29 0 98 102l8 -5q-25 -55 -57 -96t-65 -41q-43 0 -43 56q0 21 11 74l26 117q-123 -247 -209 -247q-27 0 -41 20t-14 51q0 28 11.5 79.5t33.5 132t27 102.5q10 50 10 63q0 27 -18 27q-29 0 -98 -102l-8 5q25 55 57 96 t65 41q43 0 43 -56q0 -21 -11 -74q-8 -35 -27.5 -105.5t-32 -123.5t-12.5 -77q0 -39 27 -39q43 0 112 106t105 195l10 44l26 123l16 4q12 3 17 3q9 0 5 -21l-24 -109z" />
<glyph unicode="&#x1db;" horiz-adv-x="660" d="M651 979l-11 -16q-30 4 -74.5 17t-85 33.5t-39.5 39.5q0 19 27 29l6 -1q50 -53 177 -102zM639 847q0 -22 -13 -38.5t-31 -16.5q-32 0 -32 31q0 20 13 37t32 17q31 0 31 -30zM449 847q0 -22 -13 -38.5t-31 -16.5q-32 0 -32 31q0 20 13 37t32 17q31 0 31 -30zM584 235 q-26 -124 -91 -184.5t-158 -60.5q-81 0 -132 47.5t-51 129.5q0 39 8 78l68 320l18 81l-85 19l4 20h216l2 -20l-67 -13q-28 -5 -33 -30l-13 -57l-69 -323q-7 -34 -7 -68q0 -70 42 -109.5t108 -39.5q72 0 127 53t78 159l70 328l18 81l-85 19l4 20h209l2 -20l-95 -19l-18 -81z " />
<glyph unicode="&#x1dc;" horiz-adv-x="513" d="M494 822l-13 -11q-34 28 -50 41.5t-42 38t-36.5 42t-8.5 29.5q5 23 37 23h4l5 -2q22 -59 104 -161zM507 678q0 -23 -12.5 -40t-28.5 -17q-29 0 -29 33q0 21 12 38.5t30 17.5q28 0 28 -32zM317 678q0 -23 -12.5 -40t-28.5 -17q-29 0 -29 33q0 21 12 38.5t30 17.5 q28 0 28 -32zM405 120q-10 -50 -10 -63q0 -27 18 -27q29 0 98 102l8 -5q-25 -55 -57 -96t-65 -41q-43 0 -43 56q0 21 11 74l26 117q-123 -247 -209 -247q-27 0 -41 20t-14 51q0 28 11.5 79.5t33.5 132t27 102.5q10 50 10 63q0 27 -18 27q-29 0 -98 -102l-8 5q25 55 57 96 t65 41q43 0 43 -56q0 -21 -11 -74q-8 -35 -27.5 -105.5t-32 -123.5t-12.5 -77q0 -39 27 -39q43 0 112 106t105 195l10 44l26 123l16 4q12 3 17 3q9 0 5 -21l-24 -109z" />
<glyph unicode="&#x1e6;" horiz-adv-x="612" d="M534 775l-6 -4h-41q-21 27 -84 124l16 10q61 -66 94 -94q63 42 153 94l10 -12q-89 -67 -142 -118zM369 25q57 0 99 15l34 160l18 81l-85 19l4 20h216l2 -20l-67 -13q-28 -5 -33 -30l-13 -57l-39 -180q-65 -30 -141 -30q-114 0 -184.5 72t-70.5 196q0 122 55 223.5 t144 157.5t189 56q84 0 144 -25q-8 -71 -33 -150h-15q-1 21 -3 63.5t-3 63.5q-40 13 -100 13q-129 0 -231 -117.5t-102 -282.5q0 -103 58.5 -169t156.5 -66z" />
<glyph unicode="&#x1e7;" horiz-adv-x="365" d="M317 587l-6 -4h-41q-30 54 -75 154l16 10q57 -86 86 -120q58 54 145 120l10 -12q-88 -86 -135 -148zM265 505q128 0 180 13q5 -8 5 -18q0 -32 -38 -32q-23 0 -93 13q41 -34 41 -99q0 -53 -20.5 -100.5t-49.5 -80t-58 -59t-49.5 -47t-20.5 -33.5q0 -9 6.5 -17t13.5 -13 t27 -17q35 -22 51 -33t35 -27.5t25.5 -31.5t6.5 -34q0 -53 -56 -98.5t-152 -45.5q-68 0 -109.5 31t-41.5 75q0 61 83 121l8 -8q-49 -56 -49 -102q0 -41 36.5 -63t88.5 -22q66 0 108 30t42 75q0 25 -19.5 45t-65.5 48q-5 3 -14.5 9t-14 8.5t-12.5 7.5t-12 8t-9.5 7.5t-8 8.5 t-5.5 8.5t-4 9.5t-1 10q0 6 2 12t6.5 13t9 12t14 14t16 14.5t20 17.5t21.5 19q-5 -1 -15 -1q-48 0 -78 35t-30 92q0 91 53.5 158t126.5 67zM127 289q0 -49 21 -78.5t53 -29.5q46 0 81.5 59.5t35.5 140.5q0 43 -17.5 68.5t-48.5 25.5q-50 0 -87.5 -57.5t-37.5 -128.5z" />
<glyph unicode="&#x1ea;" horiz-adv-x="575" d="M593 454q0 -78 -24 -164t-73.5 -163.5t-114.5 -112.5q-80 -47 -114.5 -78.5t-34.5 -70.5q0 -18 9 -27.5t22 -9.5q34 0 92 68l8 -5q-48 -103 -112 -103q-62 0 -62 66q0 74 112 137q-5 -1 -15 -1q-83 0 -132.5 65t-49.5 174q0 77 22 158t61 150t99.5 113.5t130.5 44.5 q81 0 128.5 -64.5t47.5 -176.5zM149 235q0 -95 37.5 -152.5t107.5 -57.5q75 0 135 70t89.5 167t29.5 193q0 205 -139 205q-75 0 -136.5 -68.5t-92.5 -164.5t-31 -192z" />
<glyph unicode="&#x1eb;" horiz-adv-x="394" d="M397 335q0 -90 -27.5 -167.5t-73.5 -124.5q-25 -30 -68 -73.5t-59.5 -66.5t-16.5 -46q0 -13 7.5 -21t20.5 -8q5 0 10 1t10.5 4t9.5 5.5t9.5 7.5t9 8t9.5 10t8.5 10t9.5 11.5t9 10.5l8 -5q-48 -103 -108 -103q-25 0 -40.5 16.5t-15.5 42.5q0 28 15 50.5t54.5 56t49.5 43.5 q-18 -7 -39 -7q-51 0 -81.5 48.5t-30.5 124.5q0 133 64.5 237.5t145.5 104.5q54 0 82 -45t28 -125zM119 169q0 -68 21 -107.5t56 -39.5q43 0 80 44.5t58 117t21 152.5q0 137 -73 137q-43 0 -81 -46.5t-60 -116.5t-22 -141z" />
<glyph unicode="&#x1f4;" horiz-adv-x="612" d="M605 896l7 1q26 -6 26 -26q0 -24 -76 -51t-160 -42l-5 16q164 69 208 102zM369 25q57 0 99 15l34 160l18 81l-85 19l4 20h216l2 -20l-67 -13q-28 -5 -33 -30l-13 -57l-39 -180q-65 -30 -141 -30q-114 0 -184.5 72t-70.5 196q0 122 55 223.5t144 157.5t189 56 q84 0 144 -25q-8 -71 -33 -150h-15q-1 21 -3 63.5t-3 63.5q-40 13 -100 13q-129 0 -231 -117.5t-102 -282.5q0 -103 58.5 -169t156.5 -66z" />
<glyph unicode="&#x1f5;" horiz-adv-x="365" d="M398 751l6 2h4q27 0 27 -20q0 -45 -203 -155l-9 15q128 97 175 158zM265 505q128 0 180 13q5 -8 5 -18q0 -32 -38 -32q-23 0 -93 13q41 -34 41 -99q0 -53 -20.5 -100.5t-49.5 -80t-58 -59t-49.5 -47t-20.5 -33.5q0 -9 6.5 -17t13.5 -13t27 -17q35 -22 51 -33t35 -27.5 t25.5 -31.5t6.5 -34q0 -53 -56 -98.5t-152 -45.5q-68 0 -109.5 31t-41.5 75q0 61 83 121l8 -8q-49 -56 -49 -102q0 -41 36.5 -63t88.5 -22q66 0 108 30t42 75q0 25 -19.5 45t-65.5 48q-5 3 -14.5 9t-14 8.5t-12.5 7.5t-12 8t-9.5 7.5t-8 8.5t-5.5 8.5t-4 9.5t-1 10q0 6 2 12 t6.5 13t9 12t14 14t16 14.5t20 17.5t21.5 19q-5 -1 -15 -1q-48 0 -78 35t-30 92q0 91 53.5 158t126.5 67zM127 289q0 -49 21 -78.5t53 -29.5q46 0 81.5 59.5t35.5 140.5q0 43 -17.5 68.5t-48.5 25.5q-50 0 -87.5 -57.5t-37.5 -128.5z" />
<glyph unicode="&#x1fa;" horiz-adv-x="649" d="M627 1109l7 1q26 -6 26 -26q0 -24 -76 -51t-160 -42l-5 16q164 69 208 102zM569 853q0 -36 -28.5 -61.5t-69.5 -25.5q-29 0 -45.5 15.5t-16.5 42.5q0 35 28.5 60t68.5 25q29 0 46 -15t17 -41zM443 824q0 -16 9.5 -25.5t25.5 -9.5q23 0 39.5 18t16.5 44q0 16 -9.5 25.5 t-25.5 9.5q-23 0 -39.5 -18t-16.5 -44zM444 687h23l76 -618q2 -18 8 -25.5t20 -10.5l57 -13l-2 -20h-205l-4 20l89 19l-26 216l-237 -4l-116 -212l82 -19l-4 -20h-200l-2 20l55 13q29 6 46 36zM261 285h215l-40 321z" />
<glyph unicode="&#x1fb;" horiz-adv-x="465" d="M509 984l6 2h4q27 0 27 -20q0 -45 -203 -155l-9 15q128 97 175 158zM456 683q0 -36 -28.5 -61.5t-69.5 -25.5q-29 0 -45.5 15.5t-16.5 42.5q0 35 28.5 60t68.5 25q29 0 46 -15t17 -41zM330 654q0 -16 9.5 -25.5t25.5 -9.5q23 0 39.5 18t16.5 44q0 16 -9.5 25.5t-25.5 9.5 q-23 0 -39.5 -18t-16.5 -44zM357 120q-10 -50 -10 -63q0 -27 18 -27q29 0 98 102l8 -5q-25 -55 -57 -96t-65 -41q-43 0 -43 56q0 21 11 74l31 140q-126 -270 -218 -270q-29 0 -47.5 29t-18.5 81q0 159 88 282t198 123q50 0 88 -20zM106 101q0 -32 9.5 -51.5t26.5 -19.5 q31 0 82 67t91 144t57 126l20 92q-31 16 -72 16q-51 0 -100.5 -51t-81.5 -138.5t-32 -184.5z" />
<glyph unicode="&#x1fc;" horiz-adv-x="866" d="M769 896l7 1q26 -6 26 -26q0 -24 -76 -51t-160 -42l-5 16q164 69 208 102zM435 646l-81 19l6 20h548q-3 -62 -32 -165h-15q-1 22 -3.5 65.5t-3.5 64.5q-65 5 -112 5h-127l-63 -295l223 5l-9 -39l-220 5l-45 -211l-19 -90h158q69 0 114 5q11 21 31 64.5t31 65.5h15 q-13 -96 -38 -165h-445l-2 20l67 13q17 3 24 9.5t10 20.5l56 266l-215 -4l-158 -286l80 -19l-6 -20h-203l2 20q10 2 29.5 6.5t29.5 6.5q29 6 46 36zM572 655h-100l-165 -296h202z" />
<glyph unicode="&#x1fd;" horiz-adv-x="586" d="M558 754l6 2h4q27 0 27 -20q0 -45 -203 -155l-9 15q128 97 175 158zM579 127q-78 -137 -166 -137q-102 0 -102 160q0 14 2 40q-106 -200 -183 -200q-29 0 -47.5 29t-18.5 81q0 159 88 282t198 123q50 0 88 -20l-14 -44q61 64 122 64q36 0 54.5 -20.5t18.5 -56.5 q0 -53 -41.5 -97.5t-99 -68.5t-116.5 -28q-9 -42 -9 -86q0 -57 18.5 -90t54.5 -33q56 0 145 107zM106 101q0 -32 9.5 -51.5t26.5 -19.5q34 0 85.5 71t98.5 163l64 196q-31 15 -70 15q-51 0 -100.5 -51t-81.5 -138.5t-32 -184.5zM535 473q-51 0 -98.5 -62.5t-69.5 -151.5 q90 9 150 57t60 110q0 21 -11 34t-31 13z" />
<glyph unicode="&#x1fe;" horiz-adv-x="576" d="M512 944l6 2h4q27 0 27 -20q0 -45 -203 -155l-9 15q128 97 175 158zM593 454q0 -71 -21.5 -150t-59 -150t-97.5 -117.5t-129 -46.5q-55 0 -96.5 30t-63.5 84l-84 -86l-21 22l94 97q-11 42 -11 92q0 77 22 158t61 150t99.5 113.5t130.5 44.5q101 0 148 -97l68 70l22 -22 l-78 -80q16 -47 16 -112zM149 235q0 -35 4 -59l380 389q-30 95 -124 95q-75 0 -136.5 -68.5t-92.5 -164.5t-31 -192zM548 455q0 41 -6 75l-381 -390q33 -115 133 -115q75 0 135 70t89.5 167t29.5 193z" />
<glyph unicode="&#x1ff;" horiz-adv-x="394" d="M377 754l6 2h4q27 0 27 -20q0 -45 -203 -155l-9 15q128 97 175 158zM397 335q0 -140 -63 -242.5t-145 -102.5q-35 0 -62 25.5t-40 68.5l-70 -71l-20 24l83 84q-3 19 -3 42q0 133 64.5 237.5t145.5 104.5q69 0 96 -76l53 54l21 -24l-65 -65q5 -30 5 -59zM119 169v-8 l231 235q-15 77 -68 77q-43 0 -81 -46.5t-60 -116.5t-22 -141zM355 336v19l-233 -235q7 -47 26.5 -72.5t47.5 -25.5q43 0 80 44.5t58 117t21 152.5z" />
<glyph unicode="&#x218;" horiz-adv-x="434" d="M197 -10q-52 0 -96 13t-50 27q-3 8 -3 18q0 50 29 120h16q-1 -16 -1 -42q0 -52 15 -71q25 -32 98 -32q72 0 117.5 47t45.5 109q0 41 -23 76t-55.5 62t-65 54.5t-55.5 65t-23 81.5q0 75 60 126t143 51q52 0 87.5 -11.5t45.5 -25.5q2 -4 2 -9q0 -20 -9.5 -60t-21.5 -69h-16 q2 38 2 49q0 48 -13 64q-23 27 -85 27q-64 0 -107 -40.5t-43 -98.5q0 -37 23 -70.5t55.5 -60.5t65 -55.5t55.5 -67.5t23 -84q0 -78 -59 -135.5t-157 -57.5zM227 -161q0 -37 -31 -83.5t-75 -76.5l-7 7q47 53 64 107q-33 2 -33 35q0 21 14.5 35.5t34.5 14.5q15 0 24 -10.5 t9 -28.5z" />
<glyph unicode="&#x219;" horiz-adv-x="354" d="M322 127q0 -59 -40.5 -98t-105.5 -39q-53 0 -88 28t-35 71q0 54 49 92l7 -5q-18 -39 -18 -76q0 -36 26.5 -58t66.5 -22q42 0 69 25t27 70q0 29 -16 56t-38 49.5t-44.5 45.5t-38.5 53t-16 63q0 52 38 87.5t94 35.5q49 0 79 -24.5t30 -60.5q0 -53 -42 -97l-8 6q12 40 12 68 q0 80 -74 80q-37 0 -62 -25.5t-25 -64.5q0 -29 16 -56.5t38 -50.5t44.5 -46t38.5 -51t16 -56zM173 -161q0 -37 -31 -83.5t-75 -76.5l-7 7q47 53 64 107q-33 2 -33 35q0 21 14.5 35.5t34.5 14.5q15 0 24 -10.5t9 -28.5z" />
<glyph unicode="&#x21a;" horiz-adv-x="543" d="M288 39l85 -19l-4 -20h-216l-2 20l67 13q28 5 33 30l13 57l113 533h-74q-72 0 -122 -10q-13 -25 -37 -84l-16 -39h-15q13 103 38 165h508q-3 -71 -32 -165h-15v39q0 62 -1 84q-47 10 -118 10h-74l-113 -533zM270 -161q0 -37 -31 -83.5t-75 -76.5l-7 7q47 53 64 107 q-33 2 -33 35q0 21 14.5 35.5t34.5 14.5q15 0 24 -10.5t9 -28.5z" />
<glyph unicode="&#x21b;" horiz-adv-x="324" d="M180 -10q-32 0 -50.5 24t-18.5 67q0 33 7 67l67 312h-87l2 12l91 18l59 149l13 -1l-32 -148h155l-6 -30h-155l-67 -312q-7 -32 -7 -62q0 -61 44 -61q58 0 147 107l8 -5q-78 -137 -170 -137zM205 -161q0 -37 -31 -83.5t-75 -76.5l-7 7q47 53 64 107q-33 2 -33 35 q0 21 14.5 35.5t34.5 14.5q15 0 24 -10.5t9 -28.5z" />
<glyph unicode="&#x232;" horiz-adv-x="614" d="M325 819l8 34h252l-8 -34h-252zM324 39l85 -19l-4 -20h-216l-2 20l67 13q28 5 33 30l13 57l13 60q14 87 3.5 192.5t-42 194t-64.5 88.5q-32 0 -90 -102l-13 5q55 137 117 137q52 0 94 -124.5t44 -273.5q83 171 161.5 284.5t130.5 113.5q31 0 48 -39t20 -93l-13 -5 q-24 97 -60 97q-29 0 -94 -87.5t-125 -202t-75 -185.5l-13 -60z" />
<glyph unicode="&#x233;" horiz-adv-x="385" d="M181 653l8 34h234l-8 -34h-234zM148 505q70 0 70 -165q0 -154 -52 -323q97 88 151 199t54 230q0 36 -4 53q6 6 17 6q33 0 33 -57q0 -106 -71 -241.5t-194 -233.5q-80 -228 -201 -228q-32 0 -52 14.5t-20 35.5q0 19 17 30q29 -42 71 -42q99 0 160 215q24 84 36.5 179 t12.5 158q0 130 -41 130q-17 0 -37.5 -26t-50.5 -76l-8 5q20 55 49.5 96t59.5 41z" />
<glyph unicode="&#x237;" horiz-adv-x="236" d="M177 375q10 50 10 63q0 27 -18 27q-29 0 -98 -102l-8 5q25 55 57 96t65 41q43 0 43 -56q0 -21 -11 -74l-80 -383q-24 -116 -73 -181.5t-118 -65.5q-37 0 -61 17.5t-24 42.5q0 21 17 30q41 -57 90 -57q48 0 75.5 49t49.5 153z" />
<glyph unicode="&#x259;" horiz-adv-x="363" d="M371 345q0 -84 -34.5 -167t-89.5 -135.5t-111 -52.5q-36 0 -54.5 20.5t-18.5 56.5q0 53 41.5 97.5t99 68.5t116.5 28q9 42 9 86q0 59 -18.5 92.5t-53.5 33.5q-47 0 -76.5 -38t-37.5 -89q-8 -4 -15 -4q-17 0 -17 20q0 47 48.5 95t110.5 48q101 0 101 -160zM105 69 q0 -21 11 -34t31 -13q51 0 98.5 62.5t69.5 151.5q-90 -9 -150 -57t-60 -110z" />
<glyph unicode="&#x272;" horiz-adv-x="505" d="M75 368q25 55 57 96t65 41q43 0 43 -56q0 -20 -36 -192q20 40 31.5 61.5t36.5 63t44 63.5t45.5 41t50.5 19q28 0 42 -20t14 -51q0 -28 -11.5 -79.5t-33.5 -132t-27 -102.5q-10 -50 -10 -63q0 -27 18 -27q29 0 98 102l8 -5q-25 -55 -57 -96t-65 -41q-43 0 -43 56 q0 21 11 74q8 35 27.5 105.5t32 123t12.5 77.5q0 39 -31 39q-32 0 -77.5 -59t-78 -120.5t-55.5 -117.5l-37 -176q-24 -116 -73 -181.5t-118 -65.5q-37 0 -61 17.5t-24 42.5q0 21 17 30q41 -57 90 -57q48 0 75.5 49t49.5 153l84 395q10 50 10 63q0 27 -18 27q-29 0 -98 -102z " />
<glyph unicode="&#x2c6;" horiz-adv-x="457" d="M431 596l-16 -10q-54 78 -94 120q-59 -57 -137 -120l-9 12q86 90 126 148l7 4h41q44 -76 82 -154z" />
<glyph unicode="&#x2c7;" horiz-adv-x="458" d="M327 590l-6 -4h-41q-30 54 -75 154l16 10q57 -86 86 -120q58 54 145 120l10 -12q-88 -86 -135 -148z" />
<glyph unicode="&#x2d8;" horiz-adv-x="430" d="M418 728l4 2l14 -3q-52 -122 -148 -122q-44 0 -67.5 32t-21.5 90l17 3q3 -38 25 -60t59 -22q70 0 118 80z" />
<glyph unicode="&#x2d9;" horiz-adv-x="270" d="M216 618q-13 0 -21 8.5t-8 22.5q0 25 12.5 42t31.5 17q13 0 21 -8.5t8 -21.5q0 -26 -12.5 -43t-31.5 -17z" />
<glyph unicode="&#x2da;" horiz-adv-x="357" d="M348 683q0 -36 -28.5 -61.5t-69.5 -25.5q-29 0 -45.5 15.5t-16.5 42.5q0 35 28.5 60t68.5 25q29 0 46 -15t17 -41zM222 654q0 -16 9.5 -25.5t25.5 -9.5q23 0 39.5 18t16.5 44q0 16 -9.5 25.5t-25.5 9.5q-23 0 -39.5 -18t-16.5 -44z" />
<glyph unicode="&#x2db;" horiz-adv-x="378" d="M206 0q-61 -23 -98 -61t-37 -74q0 -17 9 -27t22 -10q34 0 92 68l8 -5q-48 -103 -112 -103q-62 0 -62 66q0 43 42.5 89t114.5 74z" />
<glyph unicode="&#x2dc;" horiz-adv-x="507" d="M257 689q-13 -5 -69 -70l-8 5q45 100 103 100q28 0 79.5 -30t69.5 -30q13 5 69 70l8 -5q-45 -100 -103 -100q-28 0 -81 30t-68 30z" />
<glyph unicode="&#x2dd;" horiz-adv-x="533" d="M349 754l6 2h4q27 0 27 -20q0 -45 -203 -155l-9 15q128 97 175 158zM499 754l6 2h4q27 0 27 -20q0 -45 -203 -155l-9 15q128 97 175 158z" />
<glyph unicode="&#x326;" horiz-adv-x="283" d="M94 -161q0 -37 -31 -83.5t-75 -76.5l-7 7q47 53 64 107q-33 2 -33 35q0 21 14.5 35.5t34.5 14.5q15 0 24 -10.5t9 -28.5z" />
<glyph unicode="&#x394;" horiz-adv-x="606" d="M561 0h-538l-2 7l404 678h23l115 -678zM75 35h439l-98 575z" />
<glyph unicode="&#x3bc;" horiz-adv-x="534" d="M85 -237q-4 -18 -41 -18l-5 7l155 623q7 29 15.5 70.5t11.5 52.5l16 4q12 3 17 3q11 0 5 -21q-18 -83 -43.5 -183t-39 -155.5t-13.5 -76.5q0 -39 31 -39q33 0 80.5 59t82.5 124t57 118l10 44l26 123l16 4q12 3 17 3q9 0 5 -21l-24 -109l-56 -255q-10 -50 -10 -63 q0 -27 18 -27q29 0 98 102l8 -5q-25 -55 -57 -96t-65 -41q-43 0 -43 56q0 21 11 74l26 117l-25 -50t-34.5 -60t-47 -68.5t-50 -46.5t-55.5 -22q-17 0 -30 11.5t-13 36.5h-1q-9 -78 -37 -203q-9 -45 -16 -72z" />
<glyph unicode="&#x3c0;" horiz-adv-x="646" d="M198 47q-16 -32 -26 -44.5t-24 -12.5q-13 0 -24 4l-6 8q77 112 178 465q-28 1 -81 1q-30 0 -47.5 -13t-40.5 -48l-20 2q28 65 48 96q46 5 122 5q30 0 183 -6t170 -6q25 0 38 8t28 29l19 -2q-27 -53 -47 -81q-33 2 -119 7q-83 -301 -83 -392q0 -37 20 -37q29 0 98 102 l8 -5q-25 -55 -57 -96t-65 -41q-51 0 -51 65q0 86 90 406q-95 5 -173 6q-40 -148 -80 -265.5t-58 -154.5z" />
<glyph unicode="&#x1e0c;" horiz-adv-x="644" d="M254 0h-198l-2 20l67 13q17 3 24 9.5t10 20.5l12 57l94 445l17 81l-84 19l4 20h192q125 0 196.5 -69t71.5 -186q0 -110 -46.5 -206.5t-140.5 -160t-217 -63.5zM303 565l-94 -445l-19 -88h67q108 0 190.5 57t124 146t41.5 192q0 106 -59.5 166t-174.5 60h-58zM290 -212 q-13 0 -21 8.5t-8 22.5q0 25 12.5 42t31.5 17q13 0 21 -8.5t8 -21.5q0 -26 -12.5 -43t-31.5 -17z" />
<glyph unicode="&#x1e0d;" horiz-adv-x="465" d="M357 120q-10 -50 -10 -63q0 -27 18 -27q29 0 98 102l8 -5q-25 -55 -57 -96t-65 -41q-43 0 -43 56q0 21 11 74l32 142q-128 -272 -219 -272q-29 0 -47.5 29t-18.5 81q0 159 88 282t198 123q24 0 52 -7l30 136l16 72l-95 11v10q24 7 135 27l8 -8l-24 -112zM142 30 q33 0 87 73.5t95.5 155.5t51.5 122l17 78q-35 16 -73 16q-51 0 -100.5 -51t-81.5 -138.5t-32 -184.5q0 -32 9.5 -51.5t26.5 -19.5zM206 -212q-13 0 -21 8.5t-8 22.5q0 25 12.5 42t31.5 17q13 0 21 -8.5t8 -21.5q0 -26 -12.5 -43t-31.5 -17z" />
<glyph unicode="&#x1e24;" horiz-adv-x="738" d="M191 39l85 -19l-4 -20h-216l-2 20l67 13q28 5 33 30l13 57l94 445l18 81l-85 19l4 20h216l2 -20l-67 -13q-28 -5 -33 -30l-13 -57l-42 -200h346l42 200l18 81l-85 19l4 20h216l2 -20l-67 -13q-28 -5 -33 -30l-13 -57l-94 -445l-18 -81l85 -19l-4 -20h-216l-2 20l67 13 q28 5 33 30l13 57l44 210h-346l-44 -210zM324 -212q-13 0 -21 8.5t-8 22.5q0 25 12.5 42t31.5 17q13 0 21 -8.5t8 -21.5q0 -26 -12.5 -43t-31.5 -17z" />
<glyph unicode="&#x1e25;" horiz-adv-x="473" d="M78 11l24 109l113 515l16 72l-75 11v10q54 16 115 27l8 -8l-24 -112q-49 -224 -88 -385q66 134 117 194.5t96 60.5q28 0 42 -20t14 -51q0 -28 -11.5 -79.5t-33.5 -132t-27 -102.5q-10 -50 -10 -63q0 -27 18 -27q29 0 98 102l8 -5q-25 -55 -57 -96t-65 -41q-43 0 -43 56 q0 21 11 74q8 35 27.5 105.5t32 123t12.5 77.5q0 39 -31 39q-32 0 -78.5 -60.5t-79 -123t-55.5 -117.5l-10 -44l-26 -123l-16 -4q-12 -3 -17 -3q-9 0 -5 21zM193 -212q-13 0 -21 8.5t-8 22.5q0 25 12.5 42t31.5 17q13 0 21 -8.5t8 -21.5q0 -26 -12.5 -43t-31.5 -17z" />
<glyph unicode="&#x1e44;" horiz-adv-x="720" d="M563 844q0 -20 -14 -36t-33 -16q-32 0 -32 32q0 20 14 35t33 15q32 0 32 -30zM184 39l105 -19l-4 -20h-229l-2 20l67 13q17 3 23.5 9t9.5 21l13 57l111 526l-84 19l4 20h119l241 -607l103 487l18 81l-85 19l4 20h209l2 -20l-67 -13q-17 -3 -23.5 -9t-9.5 -21l-13 -57 l-120 -565h-30l-242 605l-102 -485z" />
<glyph unicode="&#x1e45;" horiz-adv-x="505" d="M383 618q-13 0 -21 8.5t-8 22.5q0 25 12.5 42t31.5 17q13 0 21 -8.5t8 -21.5q0 -26 -12.5 -43t-31.5 -17zM110 11l24 109q10 43 28.5 128t27.5 127q10 43 10 63q0 27 -18 27q-29 0 -98 -102l-8 5q25 55 57 96t65 41q43 0 43 -56q0 -27 -36 -191q25 50 41 79t46.5 75 t60.5 69.5t59 23.5q28 0 42 -20t14 -51q0 -28 -11.5 -79.5t-33.5 -132t-27 -102.5q-10 -50 -10 -63q0 -27 18 -27q29 0 98 102l8 -5q-25 -55 -57 -96t-65 -41q-43 0 -43 56q0 21 11 74q8 35 27.5 105.5t32 123t12.5 77.5q0 39 -31 39q-32 0 -77.5 -59.5t-78 -121.5 t-56.5 -118l-11 -46l-26 -123l-16 -4q-12 -3 -17 -3q-9 0 -5 21z" />
<glyph unicode="&#x1e5a;" horiz-adv-x="595" d="M191 39l85 -19l-4 -20h-216l-2 20l67 13q28 5 33 30l13 57l94 445l17 81l-84 19l4 20h191q92 0 143.5 -41t51.5 -114q0 -78 -46 -134.5t-123 -80.5l70 -215q12 -37 27.5 -51t47.5 -22l27 -7l-4 -20h-41q-41 0 -60.5 16.5t-31.5 53.5l-75 235q-32 -5 -61 -5h-67l-38 -180z M303 565l-51 -240l2 8h62q109 0 166 57.5t57 136.5q0 58 -40 90.5t-112 32.5h-66zM307 -212q-13 0 -21 8.5t-8 22.5q0 25 12.5 42t31.5 17q13 0 21 -8.5t8 -21.5q0 -26 -12.5 -43t-31.5 -17z" />
<glyph unicode="&#x1e5b;" horiz-adv-x="380" d="M110 11l24 109q66 299 66 318q0 27 -18 27q-29 0 -98 -102l-8 5q25 55 57 96t65 41q43 0 43 -56q0 -33 -33 -174q23 49 39.5 79.5t42 70.5t52 60t53.5 20q22 0 35.5 -11t13.5 -27q0 -22 -17 -37q-24 30 -49 30q-32 0 -79 -68t-78.5 -137t-37.5 -95l-9 -40l-26 -123 l-16 -4q-12 -3 -17 -3q-9 0 -5 21zM91 -212q-13 0 -21 8.5t-8 22.5q0 25 12.5 42t31.5 17q13 0 21 -8.5t8 -21.5q0 -26 -12.5 -43t-31.5 -17z" />
<glyph unicode="&#x1e62;" horiz-adv-x="434" d="M197 -10q-52 0 -96 13t-50 27q-3 8 -3 18q0 50 29 120h16q-1 -16 -1 -42q0 -52 15 -71q25 -32 98 -32q72 0 117.5 47t45.5 109q0 41 -23 76t-55.5 62t-65 54.5t-55.5 65t-23 81.5q0 75 60 126t143 51q52 0 87.5 -11.5t45.5 -25.5q2 -4 2 -9q0 -20 -9.5 -60t-21.5 -69h-16 q2 38 2 49q0 48 -13 64q-23 27 -85 27q-64 0 -107 -40.5t-43 -98.5q0 -37 23 -70.5t55.5 -60.5t65 -55.5t55.5 -67.5t23 -84q0 -78 -59 -135.5t-157 -57.5zM185 -212q-13 0 -21 8.5t-8 22.5q0 25 12.5 42t31.5 17q13 0 21 -8.5t8 -21.5q0 -26 -12.5 -43t-31.5 -17z" />
<glyph unicode="&#x1e63;" horiz-adv-x="354" d="M322 127q0 -59 -40.5 -98t-105.5 -39q-53 0 -88 28t-35 71q0 54 49 92l7 -5q-18 -39 -18 -76q0 -36 26.5 -58t66.5 -22q42 0 69 25t27 70q0 29 -16 56t-38 49.5t-44.5 45.5t-38.5 53t-16 63q0 52 38 87.5t94 35.5q49 0 79 -24.5t30 -60.5q0 -53 -42 -97l-8 6q12 40 12 68 q0 80 -74 80q-37 0 -62 -25.5t-25 -64.5q0 -29 16 -56.5t38 -50.5t44.5 -46t38.5 -51t16 -56zM131 -212q-13 0 -21 8.5t-8 22.5q0 25 12.5 42t31.5 17q13 0 21 -8.5t8 -21.5q0 -26 -12.5 -43t-31.5 -17z" />
<glyph unicode="&#x1e6c;" horiz-adv-x="543" d="M288 39l85 -19l-4 -20h-216l-2 20l67 13q28 5 33 30l13 57l113 533h-74q-72 0 -122 -10q-13 -25 -37 -84l-16 -39h-15q13 103 38 165h508q-3 -71 -32 -165h-15v39q0 62 -1 84q-47 10 -118 10h-74l-113 -533zM228 -212q-13 0 -21 8.5t-8 22.5q0 25 12.5 42t31.5 17 q13 0 21 -8.5t8 -21.5q0 -26 -12.5 -43t-31.5 -17z" />
<glyph unicode="&#x1e6d;" horiz-adv-x="324" d="M180 -10q-32 0 -50.5 24t-18.5 67q0 33 7 67l67 312h-87l2 12l91 18l59 149l13 -1l-32 -148h155l-6 -30h-155l-67 -312q-7 -32 -7 -62q0 -61 44 -61q58 0 147 107l8 -5q-78 -137 -170 -137zM161 -212q-13 0 -21 8.5t-8 22.5q0 25 12.5 42t31.5 17q13 0 21 -8.5t8 -21.5 q0 -26 -12.5 -43t-31.5 -17z" />
<glyph unicode="&#x1e80;" horiz-adv-x="985" d="M730 795l-11 -16q-30 4 -74.5 17t-85 33.5t-39.5 39.5q0 19 27 29l6 -1q50 -53 177 -102zM318 0h-23l-67 616q-2 18 -8 25.5t-20 10.5l-57 13l2 20h205l4 -20l-89 -19l61 -564l256 466l-9 68q-2 18 -8 25.5t-20 10.5l-57 13l2 20h205l4 -20l-89 -19l70 -564l300 564 l-83 19l4 20h200l2 -20l-55 -13q-31 -7 -46 -36l-329 -616h-23l-61 491z" />
<glyph unicode="&#x1e81;" horiz-adv-x="608" d="M492 592l-13 -11q-34 28 -50 41.5t-42 38t-36.5 42t-8.5 29.5q5 23 37 23h4l5 -2q22 -59 104 -161zM393 390v16q-31 -104 -93 -213t-141 -193h-10q25 329 25 390q0 75 -32 75t-101 -102l-8 5q64 137 123 137q57 0 57 -110q0 -131 -23 -324q85 112 133.5 226t59.5 205 q8 3 17 3q18 0 25 -19t7 -76q0 -141 -23 -339q85 112 140 223.5t55 190.5v15q8 5 19 5q28 0 28 -30q0 -63 -88.5 -218.5t-184.5 -256.5h-10q25 329 25 390z" />
<glyph unicode="&#x1e82;" horiz-adv-x="985" d="M722 896l7 1q26 -6 26 -26q0 -24 -76 -51t-160 -42l-5 16q164 69 208 102zM318 0h-23l-67 616q-2 18 -8 25.5t-20 10.5l-57 13l2 20h205l4 -20l-89 -19l61 -564l256 466l-9 68q-2 18 -8 25.5t-20 10.5l-57 13l2 20h205l4 -20l-89 -19l70 -564l300 564l-83 19l4 20h200 l2 -20l-55 -13q-31 -7 -46 -36l-329 -616h-23l-61 491z" />
<glyph unicode="&#x1e83;" horiz-adv-x="608" d="M500 754l6 2h4q27 0 27 -20q0 -45 -203 -155l-9 15q128 97 175 158zM393 390v16q-31 -104 -93 -213t-141 -193h-10q25 329 25 390q0 75 -32 75t-101 -102l-8 5q64 137 123 137q57 0 57 -110q0 -131 -23 -324q85 112 133.5 226t59.5 205q8 3 17 3q18 0 25 -19t7 -76 q0 -141 -23 -339q85 112 140 223.5t55 190.5v15q8 5 19 5q28 0 28 -30q0 -63 -88.5 -218.5t-184.5 -256.5h-10q25 329 25 390z" />
<glyph unicode="&#x1e84;" horiz-adv-x="985" d="M755 847q0 -22 -13 -38.5t-31 -16.5q-32 0 -32 31q0 20 13 37t32 17q31 0 31 -30zM565 847q0 -22 -13 -38.5t-31 -16.5q-32 0 -32 31q0 20 13 37t32 17q31 0 31 -30zM318 0h-23l-67 616q-2 18 -8 25.5t-20 10.5l-57 13l2 20h205l4 -20l-89 -19l61 -564l256 466l-9 68 q-2 18 -8 25.5t-20 10.5l-57 13l2 20h205l4 -20l-89 -19l70 -564l300 564l-83 19l4 20h200l2 -20l-55 -13q-31 -7 -46 -36l-329 -616h-23l-61 491z" />
<glyph unicode="&#x1e85;" horiz-adv-x="608" d="M554 678q0 -23 -12.5 -40t-28.5 -17q-29 0 -29 33q0 21 12 38.5t30 17.5q28 0 28 -32zM364 678q0 -23 -12.5 -40t-28.5 -17q-29 0 -29 33q0 21 12 38.5t30 17.5q28 0 28 -32zM393 390v16q-31 -104 -93 -213t-141 -193h-10q25 329 25 390q0 75 -32 75t-101 -102l-8 5 q64 137 123 137q57 0 57 -110q0 -131 -23 -324q85 112 133.5 226t59.5 205q8 3 17 3q18 0 25 -19t7 -76q0 -141 -23 -339q85 112 140 223.5t55 190.5v15q8 5 19 5q28 0 28 -30q0 -63 -88.5 -218.5t-184.5 -256.5h-10q25 329 25 390z" />
<glyph unicode="&#x1e92;" horiz-adv-x="562" d="M479 0h-420l1 30l507 625h-203q-67 0 -115 -5l-60 -130h-15q6 89 35 165h411l-2 -30l-506 -625h213q67 0 114 5l62 130h15q-9 -81 -37 -165zM247 -212q-13 0 -21 8.5t-8 22.5q0 25 12.5 42t31.5 17q13 0 21 -8.5t8 -21.5q0 -26 -12.5 -43t-31.5 -17z" />
<glyph unicode="&#x1e93;" horiz-adv-x="387" d="M119 20q-40 0 -70 -30l-18 18q34 45 99.5 129.5t113 148.5t93.5 130q-92 46 -145 46q-26 0 -45 -22t-49 -77l-10 5q31 90 42 107q20 29 49 30q62 0 171 -70q15 22 47 70q24 -5 24 -26q0 -13 -17 -38q-36 -50 -78.5 -105.5t-67.5 -87.5t-85 -106.5t-82 -101.5q24 10 53 10 q14 0 70 -10t70 -10q20 0 48 41q16 23 40 61l8 -5q-14 -39 -28 -68q-17 -36 -30.5 -52.5t-32.5 -16.5q-21 0 -84 15t-86 15zM159 -212q-13 0 -21 8.5t-8 22.5q0 25 12.5 42t31.5 17q13 0 21 -8.5t8 -21.5q0 -26 -12.5 -43t-31.5 -17z" />
<glyph unicode="&#x1e9e;" horiz-adv-x="622" d="M621 162q0 -79 -52 -125.5t-141 -46.5q-38 0 -73 11t-52 28q-5 5 -5 18q0 51 29 116h16q-3 -79 10 -102q21 -38 85 -38t101 36.5t37 98.5q0 22 -7.5 43.5t-16.5 36.5t-30 35t-34 31t-43 34.5t-44 34.5l2 20l204 200q-47 69 -127 69q-69 0 -122 -45.5t-70 -121.5 l-101 -478l-18 -17h-111l2 20l61 13q17 4 24 10t10 20l90 426q17 88 89 147t164 59q106 0 155 -78l-1 -22l-206 -202q9 -7 35 -28t36.5 -30t31 -28t30 -32.5t21.5 -32.5t16.5 -38.5t4.5 -41.5z" />
<glyph unicode="&#x1ea0;" horiz-adv-x="649" d="M444 687h23l76 -618q2 -18 8 -25.5t20 -10.5l57 -13l-2 -20h-205l-4 20l89 19l-26 216l-237 -4l-116 -212l82 -19l-4 -20h-200l-2 20l55 13q29 6 46 36zM261 285h215l-40 321zM276 -212q-13 0 -21 8.5t-8 22.5q0 25 12.5 42t31.5 17q13 0 21 -8.5t8 -21.5 q0 -26 -12.5 -43t-31.5 -17z" />
<glyph unicode="&#x1ea1;" horiz-adv-x="465" d="M357 120q-10 -50 -10 -63q0 -27 18 -27q29 0 98 102l8 -5q-25 -55 -57 -96t-65 -41q-43 0 -43 56q0 21 11 74l31 140q-126 -270 -218 -270q-29 0 -47.5 29t-18.5 81q0 159 88 282t198 123q50 0 88 -20zM106 101q0 -32 9.5 -51.5t26.5 -19.5q31 0 82 67t91 144t57 126 l20 92q-31 16 -72 16q-51 0 -100.5 -51t-81.5 -138.5t-32 -184.5zM196 -212q-13 0 -21 8.5t-8 22.5q0 25 12.5 42t31.5 17q13 0 21 -8.5t8 -21.5q0 -26 -12.5 -43t-31.5 -17z" />
<glyph unicode="&#x1eb8;" horiz-adv-x="564" d="M303 565l-43 -205l213 5l-9 -39l-210 5l-45 -211l-19 -90h148q69 0 114 5q11 21 31.5 64.5t30.5 65.5h15q-13 -96 -38 -165h-435l-2 20l67 13q17 3 24 9.5t10 20.5l12 57l94 445l17 81l-84 19l4 20h408q-3 -62 -32 -165h-15q-1 22 -3.5 65.5t-3.5 64.5q-65 5 -112 5h-118 zM273 -212q-13 0 -21 8.5t-8 22.5q0 25 12.5 42t31.5 17q13 0 21 -8.5t8 -21.5q0 -26 -12.5 -43t-31.5 -17z" />
<glyph unicode="&#x1eb9;" horiz-adv-x="348" d="M341 127q-78 -137 -166 -137q-102 0 -102 160q0 84 34.5 167t89.5 135.5t111 52.5q36 0 54.5 -20.5t18.5 -56.5q0 -53 -41.5 -97.5t-99 -68.5t-116.5 -28q-9 -42 -9 -86q0 -57 18.5 -90t54.5 -33q56 0 145 107zM297 473q-51 0 -98.5 -62.5t-69.5 -151.5q90 9 150 57 t60 110q0 21 -11 34t-31 13zM148 -212q-13 0 -21 8.5t-8 22.5q0 25 12.5 42t31.5 17q13 0 21 -8.5t8 -21.5q0 -26 -12.5 -43t-31.5 -17z" />
<glyph unicode="&#x1ebc;" horiz-adv-x="564" d="M358 848q-14 -5 -79 -68l-8 5q26 52 50.5 77t57.5 25q29 0 90.5 -30t83.5 -30q16 5 79 68l8 -5q-25 -52 -50 -77t-59 -25q-27 0 -89 30t-84 30zM303 565l-43 -205l213 5l-9 -39l-210 5l-45 -211l-19 -90h148q69 0 114 5q11 21 31.5 64.5t30.5 65.5h15q-13 -96 -38 -165 h-435l-2 20l67 13q17 3 24 9.5t10 20.5l12 57l94 445l17 81l-84 19l4 20h408q-3 -62 -32 -165h-15q-1 22 -3.5 65.5t-3.5 64.5q-65 5 -112 5h-118z" />
<glyph unicode="&#x1ebd;" horiz-adv-x="348" d="M231 689q-13 -5 -69 -70l-8 5q45 100 103 100q28 0 79.5 -30t69.5 -30q13 5 69 70l8 -5q-45 -100 -103 -100q-28 0 -81 30t-68 30zM341 127q-78 -137 -166 -137q-102 0 -102 160q0 84 34.5 167t89.5 135.5t111 52.5q36 0 54.5 -20.5t18.5 -56.5q0 -53 -41.5 -97.5 t-99 -68.5t-116.5 -28q-9 -42 -9 -86q0 -57 18.5 -90t54.5 -33q56 0 145 107zM297 473q-51 0 -98.5 -62.5t-69.5 -151.5q90 9 150 57t60 110q0 21 -11 34t-31 13z" />
<glyph unicode="&#x1eca;" horiz-adv-x="350" d="M191 39l85 -19l-4 -20h-216l-2 20l67 13q28 5 33 30l13 57l94 445l18 81l-85 19l4 20h216l2 -20l-67 -13q-28 -5 -33 -30l-13 -57l-94 -445zM119 -212q-13 0 -21 8.5t-8 22.5q0 25 12.5 42t31.5 17q13 0 21 -8.5t8 -21.5q0 -26 -12.5 -43t-31.5 -17z" />
<glyph unicode="&#x1ecb;" horiz-adv-x="278" d="M256 618q-13 0 -21 8.5t-8 22.5q0 25 12.5 42t31.5 17q13 0 21 -8.5t8 -21.5q0 -26 -12.5 -43t-31.5 -17zM169 120q-10 -50 -10 -63q0 -27 18 -27q29 0 98 102l8 -5q-25 -55 -57 -96t-65 -41q-43 0 -43 56q0 21 11 74q1 7 61 255q10 50 10 63q0 27 -18 27q-29 0 -98 -102 l-8 5q25 55 57 96t65 41q43 0 43 -56q0 -21 -11 -74q-9 -40 -31 -130t-30 -125zM110 -212q-13 0 -21 8.5t-8 22.5q0 25 12.5 42t31.5 17q13 0 21 -8.5t8 -21.5q0 -26 -12.5 -43t-31.5 -17z" />
<glyph unicode="&#x1ecc;" horiz-adv-x="575" d="M593 454q0 -71 -21.5 -150t-59 -150t-97.5 -117.5t-129 -46.5q-83 0 -132.5 65t-49.5 174q0 77 22 158t61 150t99.5 113.5t130.5 44.5q81 0 128.5 -64.5t47.5 -176.5zM149 235q0 -95 37.5 -152.5t107.5 -57.5q75 0 135 70t89.5 167t29.5 193q0 205 -139 205 q-75 0 -136.5 -68.5t-92.5 -164.5t-31 -192zM237 -212q-13 0 -21 8.5t-8 22.5q0 25 12.5 42t31.5 17q13 0 21 -8.5t8 -21.5q0 -26 -12.5 -43t-31.5 -17z" />
<glyph unicode="&#x1ecd;" horiz-adv-x="394" d="M397 335q0 -140 -63 -242.5t-145 -102.5q-51 0 -81.5 48.5t-30.5 124.5q0 133 64.5 237.5t145.5 104.5q54 0 82 -45t28 -125zM119 169q0 -68 21 -107.5t56 -39.5q43 0 80 44.5t58 117t21 152.5q0 137 -73 137q-43 0 -81 -46.5t-60 -116.5t-22 -141zM150 -212 q-13 0 -21 8.5t-8 22.5q0 25 12.5 42t31.5 17q13 0 21 -8.5t8 -21.5q0 -26 -12.5 -43t-31.5 -17z" />
<glyph unicode="&#x1ee4;" horiz-adv-x="660" d="M584 235q-26 -124 -91 -184.5t-158 -60.5q-81 0 -132 47.5t-51 129.5q0 39 8 78l68 320l18 81l-85 19l4 20h216l2 -20l-67 -13q-28 -5 -33 -30l-13 -57l-69 -323q-7 -34 -7 -68q0 -70 42 -109.5t108 -39.5q72 0 127 53t78 159l70 328l18 81l-85 19l4 20h209l2 -20 l-95 -19l-18 -81zM291 -212q-13 0 -21 8.5t-8 22.5q0 25 12.5 42t31.5 17q13 0 21 -8.5t8 -21.5q0 -26 -12.5 -43t-31.5 -17z" />
<glyph unicode="&#x1ee5;" horiz-adv-x="513" d="M405 120q-10 -50 -10 -63q0 -27 18 -27q29 0 98 102l8 -5q-25 -55 -57 -96t-65 -41q-43 0 -43 56q0 21 11 74l26 117q-123 -247 -209 -247q-27 0 -41 20t-14 51q0 28 11.5 79.5t33.5 132t27 102.5q10 50 10 63q0 27 -18 27q-29 0 -98 -102l-8 5q25 55 57 96t65 41 q43 0 43 -56q0 -21 -11 -74q-8 -35 -27.5 -105.5t-32 -123.5t-12.5 -77q0 -39 27 -39q43 0 112 106t105 195l10 44l26 123l16 4q12 3 17 3q9 0 5 -21l-24 -109zM241 -211q-13 0 -21 8.5t-8 22.5q0 25 12.5 42t31.5 17q13 0 21 -8.5t8 -21.5q0 -26 -12.5 -43t-31.5 -17z" />
<glyph unicode="&#x1ef2;" horiz-adv-x="614" d="M550 795l-11 -16q-30 4 -74.5 17t-85 33.5t-39.5 39.5q0 19 27 29l6 -1q50 -53 177 -102zM324 39l85 -19l-4 -20h-216l-2 20l67 13q28 5 33 30l13 57l13 60q14 87 3.5 192.5t-42 194t-64.5 88.5q-32 0 -90 -102l-13 5q55 137 117 137q52 0 94 -124.5t44 -273.5 q83 171 161.5 284.5t130.5 113.5q31 0 48 -39t20 -93l-13 -5q-24 97 -60 97q-29 0 -94 -87.5t-125 -202t-75 -185.5l-13 -60z" />
<glyph unicode="&#x1ef3;" horiz-adv-x="385" d="M350 592l-13 -11q-34 28 -50 41.5t-42 38t-36.5 42t-8.5 29.5q5 23 37 23h4l5 -2q22 -59 104 -161zM148 505q70 0 70 -165q0 -154 -52 -323q97 88 151 199t54 230q0 36 -4 53q6 6 17 6q33 0 33 -57q0 -106 -71 -241.5t-194 -233.5q-80 -228 -201 -228q-32 0 -52 14.5 t-20 35.5q0 19 17 30q29 -42 71 -42q99 0 160 215q24 84 36.5 179t12.5 158q0 130 -41 130q-17 0 -37.5 -26t-50.5 -76l-8 5q20 55 49.5 96t59.5 41z" />
<glyph unicode="&#x1ef8;" horiz-adv-x="614" d="M349 849q-14 -5 -79 -68l-8 5q26 52 50.5 77t57.5 25q29 0 90.5 -30t83.5 -30q16 5 79 68l8 -5q-25 -52 -50 -77t-59 -25q-27 0 -89 30t-84 30zM324 39l85 -19l-4 -20h-216l-2 20l67 13q28 5 33 30l13 57l13 60q14 87 3.5 192.5t-42 194t-64.5 88.5q-32 0 -90 -102l-13 5 q55 137 117 137q52 0 94 -124.5t44 -273.5q83 171 161.5 284.5t130.5 113.5q31 0 48 -39t20 -93l-13 -5q-24 97 -60 97q-29 0 -94 -87.5t-125 -202t-75 -185.5l-13 -60z" />
<glyph unicode="&#x1ef9;" horiz-adv-x="385" d="M218 689q-13 -5 -69 -70l-8 5q45 100 103 100q28 0 79.5 -30t69.5 -30q13 5 69 70l8 -5q-45 -100 -103 -100q-28 0 -81 30t-68 30zM148 505q70 0 70 -165q0 -154 -52 -323q97 88 151 199t54 230q0 36 -4 53q6 6 17 6q33 0 33 -57q0 -106 -71 -241.5t-194 -233.5 q-80 -228 -201 -228q-32 0 -52 14.5t-20 35.5q0 19 17 30q29 -42 71 -42q99 0 160 215q24 84 36.5 179t12.5 158q0 130 -41 130q-17 0 -37.5 -26t-50.5 -76l-8 5q20 55 49.5 96t59.5 41z" />
<glyph unicode="&#x2007;" />
<glyph unicode="&#x2013;" horiz-adv-x="527" d="M89 250l8 35h430l-7 -35h-431z" />
<glyph unicode="&#x2014;" horiz-adv-x="790" d="M89 250l8 35h694l-8 -35h-694z" />
<glyph unicode="&#x2018;" horiz-adv-x="237" d="M310 755l10 -7q-31 -32 -59.5 -80.5t-41.5 -92.5q30 -3 30 -36q0 -19 -12.5 -35t-32.5 -16q-18 0 -27 13.5t-9 33.5q0 48 43 114.5t99 105.5z" />
<glyph unicode="&#x2019;" horiz-adv-x="237" d="M167 488l-10 7q31 32 59.5 80.5t41.5 92.5q-30 3 -30 36q0 19 12.5 35t32.5 16q18 0 27 -13.5t9 -33.5q0 -48 -43 -114.5t-99 -105.5z" />
<glyph unicode="&#x201a;" horiz-adv-x="277" d="M43 -189l-10 7q31 32 59.5 80.5t41.5 92.5q-30 3 -30 36q0 19 12.5 35t32.5 16q18 0 27 -13.5t9 -33.5q0 -48 -43 -114.5t-99 -105.5z" />
<glyph unicode="&#x201c;" horiz-adv-x="394" d="M310 755l10 -7q-31 -32 -59.5 -80.5t-41.5 -92.5q30 -3 30 -36q0 -19 -12.5 -35t-32.5 -16q-18 0 -27 13.5t-9 33.5q0 48 43 114.5t99 105.5zM467 755l10 -7q-31 -32 -59.5 -80.5t-41.5 -92.5q30 -3 30 -36q0 -19 -12.5 -35t-32.5 -16q-18 0 -27 13.5t-9 33.5 q0 48 43 114.5t99 105.5z" />
<glyph unicode="&#x201d;" horiz-adv-x="394" d="M324 488l-10 7q31 32 59.5 80.5t41.5 92.5q-30 3 -30 36q0 19 12.5 35t32.5 16q18 0 27 -13.5t9 -33.5q0 -48 -43 -114.5t-99 -105.5zM167 488l-10 7q31 32 59.5 80.5t41.5 92.5q-30 3 -30 36q0 19 12.5 35t32.5 16q18 0 27 -13.5t9 -33.5q0 -48 -43 -114.5t-99 -105.5z " />
<glyph unicode="&#x201e;" horiz-adv-x="394" d="M180 -189l-10 7q31 32 59.5 80.5t41.5 92.5q-30 3 -30 36q0 19 12.5 35t32.5 16q18 0 27 -13.5t9 -33.5q0 -48 -43 -114.5t-99 -105.5zM23 -189l-10 7q31 32 59.5 80.5t41.5 92.5q-30 3 -30 36q0 19 12.5 35t32.5 16q18 0 27 -13.5t9 -33.5q0 -48 -43 -114.5t-99 -105.5z " />
<glyph unicode="&#x2020;" horiz-adv-x="513" d="M271 -2q-16 -4 -23 -4q-23 0 -23 16q0 17 107 459q-120 -5 -160 -5q-17 0 -17 16q0 12 8 24l4 2q53 -15 170 -15q28 134 24 192l2 4q16 4 23 4q23 0 23 -16q0 -7 -49 -184q123 5 161 5q17 0 17 -16q0 -12 -8 -24l-4 -2q-53 15 -171 15q-72 -335 -82 -467z" />
<glyph unicode="&#x2021;" horiz-adv-x="513" d="M271 -2q-16 -4 -23 -4q-23 0 -23 16q0 7 49 184q-123 -5 -161 -5q-17 0 -17 16q0 12 8 24l4 2q53 -15 171 -15q5 21 14 63.5t13 63.5l27 126q-123 -5 -161 -5q-17 0 -17 16q0 12 8 24l4 2q53 -15 170 -15q28 134 24 192l2 4q16 4 23 4q23 0 23 -16q0 -7 -49 -184 q123 5 161 5q17 0 17 -16q0 -12 -8 -24l-4 -2q-53 15 -171 15q-4 -21 -13 -63.5t-14 -63.5l-27 -126q122 5 161 5q17 0 17 -16q0 -12 -8 -24l-4 -2q-53 15 -170 15q-28 -134 -24 -192z" />
<glyph unicode="&#x2022;" horiz-adv-x="404" d="M345 283q0 -47 -31 -85.5t-79 -38.5q-43 0 -65 26t-22 64q0 47 30.5 85.5t78.5 38.5q43 0 65.5 -26t22.5 -64z" />
<glyph unicode="&#x2026;" horiz-adv-x="580" d="M140 41q0 -19 -12.5 -35t-32.5 -16q-18 0 -27 10.5t-9 26.5q0 19 12.5 35t32.5 16q18 0 27 -10.5t9 -26.5zM326 41q0 -19 -12.5 -35t-32.5 -16q-18 0 -27 10.5t-9 26.5q0 19 12.5 35t32.5 16q18 0 27 -10.5t9 -26.5zM512 41q0 -19 -12.5 -35t-32.5 -16q-18 0 -27 10.5 t-9 26.5q0 19 12.5 35t32.5 16q18 0 27 -10.5t9 -26.5z" />
<glyph unicode="&#x2030;" horiz-adv-x="1294" d="M480 555q0 -58 -23.5 -118.5t-72 -105.5t-109.5 -45q-53 0 -85.5 38t-32.5 102q0 98 59 183.5t149 85.5q53 0 84 -37.5t31 -102.5zM824 695l-572 -705h-39l571 705h40zM192 425q0 -53 23 -84.5t67 -31.5q71 0 117 81t46 169q0 113 -87 113q-48 0 -87.5 -40t-59 -96 t-19.5 -111zM887 259q0 -58 -23.5 -118.5t-72 -105.5t-109.5 -45q-53 0 -85.5 38t-32.5 102q0 98 59 183.5t149 85.5q53 0 84 -37.5t31 -102.5zM1259 259q0 -58 -23.5 -118.5t-72 -105.5t-109.5 -45q-53 0 -85.5 38t-32.5 102q0 98 59 183.5t149 85.5q53 0 84 -37.5 t31 -102.5zM599 129q0 -53 23 -84.5t67 -31.5q71 0 117 81t46 169q0 113 -87 113q-48 0 -87.5 -40t-59 -96t-19.5 -111zM971 129q0 -53 23 -84.5t67 -31.5q71 0 117 81t46 169q0 113 -87 113q-48 0 -87.5 -40t-59 -96t-19.5 -111z" />
<glyph unicode="&#x2039;" horiz-adv-x="339" d="M247 28l-18 -8q-52 125 -106 201l-3 6l9 40q72 64 200 210l13 -9q-53 -78 -177 -229q48 -100 82 -211z" />
<glyph unicode="&#x203a;" horiz-adv-x="339" d="M173 469l18 8q52 -125 106 -201l3 -6l-9 -40q-72 -64 -200 -210l-13 9q53 78 177 229q-48 100 -82 211z" />
<glyph unicode="&#x2044;" horiz-adv-x="269" d="M501 695l-572 -705h-39l571 705h40z" />
<glyph unicode="&#x2070;" horiz-adv-x="420" d="M477 615q0 -58 -23.5 -118.5t-72 -105.5t-109.5 -45q-53 0 -85.5 38t-32.5 102q0 98 59 183.5t149 85.5q53 0 84 -37.5t31 -102.5zM189 485q0 -53 23 -84.5t67 -31.5q71 0 117 81t46 169q0 113 -87 113q-48 0 -87.5 -40t-59 -96t-19.5 -111z" />
<glyph unicode="&#x2071;" horiz-adv-x="197" d="M281 841q-23 0 -23 29q0 18 10.5 30.5t24.5 12.5q10 0 16.5 -7t6.5 -17q0 -20 -10 -34t-25 -14zM148 643l-7 4q19 42 44 74t51 32q35 0 35 -44q0 -28 -30.5 -156t-30.5 -149t14 -21q23 0 75 79l7 -4q-49 -107 -96 -107q-34 0 -34 48q0 29 30.5 154.5t30.5 146.5t-14 21 q-20 0 -75 -78z" />
<glyph unicode="&#x2074;" horiz-adv-x="420" d="M422 755l23 -3l-57 -271l66 1l-7 -26h-65l-21 -100h-33l22 101l-200 1l-5 15zM404 708l-221 -229l172 2z" />
<glyph unicode="&#x2075;" horiz-adv-x="349" d="M384 494q0 -59 -72.5 -100t-187.5 -48l-3 18q97 9 163 44t66 83q0 70 -94 70q-43 0 -76 -9l-6 6l41 191q20 0 72.5 -2t83.5 -2q28 0 47 31l7 -1q-5 -19 -7 -26t-7.5 -16.5t-13.5 -12.5t-20 -3q-34 0 -140 6l-31 -142q28 5 58 5q56 0 88 -24.5t32 -67.5z" />
<glyph unicode="&#x2076;" horiz-adv-x="368" d="M401 487q0 -57 -43 -99t-103 -42q-44 0 -76 29.5t-32 81.5q0 108 79.5 193t197.5 105l4 -18q-186 -50 -242 -208q39 57 113 57q46 0 74 -27t28 -72zM177 452q0 -36 20.5 -58t59.5 -22q50 0 81 34t31 80q0 36 -20.5 55.5t-57.5 19.5q-48 0 -81 -32t-33 -77z" />
<glyph unicode="&#x2077;" horiz-adv-x="369" d="M240 355q-4 -6 -12 -6q-13 0 -22 13q152 232 205 329q-103 33 -159 33q-22 0 -35 -15t-25 -50l-7 3q7 34 12.5 50.5t17.5 29.5t31 13q62 0 178 -42q3 7 10 20.5t11 20.5q13 -4 13 -13q0 -8 -10 -26q-62 -125 -208 -360z" />
<glyph unicode="&#x2078;" horiz-adv-x="378" d="M405 457q0 -48 -45.5 -79.5t-108.5 -31.5q-51 0 -82.5 22.5t-31.5 58.5q0 43 38 77.5t106 54.5q-34 24 -52 45t-18 49q0 42 40.5 72t94.5 30q45 0 72 -21t27 -54q0 -37 -31 -69t-87 -52q38 -26 58 -49t20 -53zM244 656q0 -24 17 -42.5t50 -42.5q45 17 74 46.5t29 58.5 q0 26 -19 41t-54 15q-41 0 -69 -22t-28 -54zM169 432q0 -28 24 -45.5t64 -17.5q46 0 80.5 24t34.5 59q0 27 -18.5 47.5t-54.5 46.5q-58 -19 -94 -49.5t-36 -64.5z" />
<glyph unicode="&#x2079;" horiz-adv-x="371" d="M435 644q0 -107 -85.5 -192t-207.5 -106l-4 14q93 25 158 79.5t95 131.5q-41 -55 -115 -55q-45 0 -72.5 25.5t-27.5 67.5q0 59 45 102.5t107 43.5q49 0 78 -30.5t29 -80.5zM209 611q0 -36 19.5 -55.5t56.5 -19.5q49 0 84 34.5t35 82.5q0 38 -20 60.5t-57 22.5 q-52 0 -85 -37.5t-33 -87.5z" />
<glyph unicode="&#x207f;" horiz-adv-x="403" d="M142 642l-7 4q50 107 96 107q33 0 33 -46q0 -26 -27 -146q20 40 32 62t35.5 58t46.5 54t46 18t34.5 -15.5t11.5 -39.5q0 -36 -31 -153.5t-31 -140.5q0 -21 15 -21q23 0 75 79l7 -4q-51 -107 -96 -107q-35 0 -35 45q0 32 31 148t31 147q0 30 -25 30q-24 0 -59 -46 t-59.5 -94t-42.5 -92l-28 -132l-14 -4q-7 -2 -13 -2t-6 7q0 2 2 10q12 47 40 177t28 153t-15 23q-22 0 -75 -79z" />
<glyph unicode="&#x2080;" horiz-adv-x="420" d="M385 183q0 -58 -23.5 -118.5t-72 -105.5t-109.5 -45q-53 0 -85.5 38t-32.5 102q0 98 59 183.5t149 85.5q53 0 84 -37.5t31 -102.5zM97 53q0 -53 23 -84.5t67 -31.5q71 0 117 81t46 169q0 113 -87 113q-48 0 -87.5 -40t-59 -96t-19.5 -111z" />
<glyph unicode="&#x2081;" horiz-adv-x="269" d="M185 -76h-154l-1 9l43 7q13 2 18.5 6t7.5 14l70 332l-61 3l1 9l94 19l5 -6l-79 -372l58 -12z" />
<glyph unicode="&#x2082;" horiz-adv-x="380" d="M104 -65q-36 0 -64 -21l-11 14q156 106 222 174t66 123q0 34 -18 53.5t-51 19.5q-32 0 -66.5 -22t-60.5 -58l-13 7q25 45 63.5 71.5t85.5 26.5q44 0 69 -25t25 -68q0 -105 -195 -239q-9 -6 -27 -17.5t-21 -13.5q6 1 19 1q21 0 67.5 -8t57.5 -8q6 0 11.5 3t12 11.5 t10 13.5t12 18.5t10.5 16.5l5 -3q-8 -27 -18 -47q-22 -44 -44 -44q-16 0 -67 10.5t-80 10.5z" />
<glyph unicode="&#x2083;" horiz-adv-x="354" d="M296 57q0 -56 -74 -96t-188 -47l-3 18q98 9 164.5 42.5t66.5 80.5q0 65 -94 65q-22 0 -39 -3l-2 18q78 8 122.5 35.5t44.5 67.5q0 28 -18.5 44t-52.5 16q-65 0 -114 -62l-13 7q46 80 136 80q46 0 71 -20.5t25 -58.5q0 -37 -31.5 -66t-84.5 -44q84 -13 84 -77z" />
<glyph unicode="&#x2084;" horiz-adv-x="419" d="M330 323l23 -3l-57 -271l66 1l-7 -26h-65l-21 -100h-33l22 101l-200 1l-5 15zM312 276l-221 -229l172 2z" />
<glyph unicode="&#x2085;" horiz-adv-x="350" d="M293 62q0 -59 -72.5 -100t-187.5 -48l-3 18q97 9 163 44t66 83q0 70 -94 70q-43 0 -76 -9l-6 6l41 191q20 0 72.5 -2t83.5 -2q28 0 47 31l7 -1q-5 -19 -7 -26t-7.5 -16.5t-13.5 -12.5t-20 -3q-34 0 -140 6l-31 -142q28 5 58 5q56 0 88 -24.5t32 -67.5z" />
<glyph unicode="&#x2086;" horiz-adv-x="368" d="M309 55q0 -57 -43 -99t-103 -42q-44 0 -76 29.5t-32 81.5q0 108 79.5 193t197.5 105l4 -18q-186 -50 -242 -208q39 57 113 57q46 0 74 -27t28 -72zM85 20q0 -36 20.5 -58t59.5 -22q50 0 81 34t31 80q0 36 -20.5 55.5t-57.5 19.5q-48 0 -81 -32t-33 -77z" />
<glyph unicode="&#x2087;" horiz-adv-x="369" d="M148 -77q-4 -6 -12 -6q-13 0 -22 13q152 232 205 329q-103 33 -159 33q-22 0 -35 -15t-25 -50l-7 3q7 34 12.5 50.5t17.5 29.5t31 13q62 0 178 -42q3 7 10 20.5t11 20.5q13 -4 13 -13q0 -8 -10 -26q-62 -125 -208 -360z" />
<glyph unicode="&#x2088;" horiz-adv-x="378" d="M313 25q0 -48 -45.5 -79.5t-108.5 -31.5q-51 0 -82.5 22.5t-31.5 58.5q0 43 38 77.5t106 54.5q-34 24 -52 45t-18 49q0 42 40.5 72t94.5 30q45 0 72 -21t27 -54q0 -37 -31 -69t-87 -52q38 -26 58 -49t20 -53zM152 224q0 -24 17 -42.5t50 -42.5q45 17 74 46.5t29 58.5 q0 26 -19 41t-54 15q-41 0 -69 -22t-28 -54zM77 0q0 -28 24 -45.5t64 -17.5q46 0 80.5 24t34.5 59q0 27 -18.5 47.5t-54.5 46.5q-58 -19 -94 -49.5t-36 -64.5z" />
<glyph unicode="&#x2089;" horiz-adv-x="372" d="M344 212q0 -107 -85.5 -192t-207.5 -106l-4 14q93 25 158 79.5t95 131.5q-41 -55 -115 -55q-45 0 -72.5 25.5t-27.5 67.5q0 59 45 102.5t107 43.5q49 0 78 -30.5t29 -80.5zM118 179q0 -36 19.5 -55.5t56.5 -19.5q49 0 84 34.5t35 82.5q0 38 -20 60.5t-57 22.5 q-52 0 -85 -37.5t-33 -87.5z" />
<glyph unicode="&#x20ac;" horiz-adv-x="577" d="M491 232h-261q-1 -13 -1 -38q0 -80 30 -123.5t87 -43.5q81 0 185 119l8 -5q-86 -151 -204 -151q-73 0 -112 52t-39 149q0 27 1 41h-91l15 35h80q6 47 20 98h-87l15 35h83q43 128 125 211.5t173 83.5q48 0 74.5 -30.5t26.5 -79.5q0 -34 -14 -65t-36 -31q-7 0 -13 4 q19 42 19 88q0 80 -70 80q-73 0 -138 -74t-103 -187h270l-15 -35h-266q-13 -44 -19 -98h272z" />
<glyph unicode="&#x2122;" horiz-adv-x="691" d="M462 460h-84l3 18l22 5q10 3 14 12l64 164l-31 9l6 17h67l30 -189l108 189h71l-4 -17l-34 -9l-4 -175l27 -6l-4 -18h-89l2 18l17 2q17 2 17 14l2 144l-103 -178h-31l-29 182l-62 -156l29 -8zM303 460h-92l3 18l23 5q11 3 13 13l5 26l30 140h-21q-26 0 -44 -3 q-6 -11 -22 -47h-13q0 41 18 73h206q0 -29 -14 -73h-15v26v16l-1 5q-17 3 -43 3h-21l-30 -140l-7 -36l30 -8z" />
<glyph unicode="&#x2202;" horiz-adv-x="562" d="M582 522q0 -121 -42 -241.5t-123.5 -204.5t-179.5 -84q-67 0 -106.5 43.5t-39.5 118.5q0 126 98.5 219.5t233.5 93.5q61 0 109 -27q4 31 4 69q0 95 -36.5 150.5t-102.5 55.5q-93 0 -188 -83l-7 9q38 47 94.5 80.5t118.5 33.5q81 0 124 -62t43 -171zM141 161q0 -61 29 -96 t79 -35q69 0 129 55.5t96.5 137.5t52.5 177q-52 27 -113 27q-116 0 -194.5 -77t-78.5 -189z" />
<glyph unicode="&#x220f;" horiz-adv-x="717" d="M151 -135h-121l-2 20l68 13q27 5 32 30l154 718l-85 19l4 20h579l2 -20l-68 -13q-16 -3 -23 -10.5t-10 -22.5l-154 -715l85 -19l-4 -20h-121l-7 8l164 773h-320l-164 -773z" />
<glyph unicode="&#x2211;" horiz-adv-x="586" d="M476 -135h-471l1 30l375 355l-199 405l11 30h437q-3 -62 -32 -165h-15q-1 22 -3.5 65.5t-3.5 64.5q-65 5 -112 5h-236l199 -407l-372 -353h268q69 0 114 5q10 22 30.5 65.5t31.5 64.5h15q-13 -96 -38 -165z" />
<glyph unicode="&#x2212;" d="M536 322h-405l7 35q152 5 403 5l7 -8z" />
<glyph unicode="&#x221a;" horiz-adv-x="581" d="M118 495h110l81 -465h2l357 725l35 -14l-366 -741h-66l-82 455h-80z" />
<glyph unicode="&#x221e;" horiz-adv-x="843" d="M623 172q-54 0 -88 30.5t-61 101.5q-44 -62 -100.5 -97t-111.5 -35q-56 0 -88.5 36t-32.5 95q0 84 58.5 146.5t141.5 62.5q53 0 86 -30t63 -104q43 63 99 98.5t113 35.5q56 0 88.5 -35.5t32.5 -94.5q0 -84 -58.5 -147t-141.5 -63zM688 476q-46 0 -95 -34.5t-91 -96.5 q27 -69 55.5 -103t76.5 -34q62 0 104 51.5t42 119.5q0 45 -24.5 71t-67.5 26zM184 305q0 -45 24.5 -71t67.5 -26q47 0 96.5 35t89.5 96q-24 67 -53.5 102t-78.5 35q-62 0 -104 -51.5t-42 -119.5z" />
<glyph unicode="&#x222b;" horiz-adv-x="374" d="M242 -65q0 -89 -43.5 -139.5t-111.5 -50.5q-54 0 -90.5 31t-36.5 68q0 28 27 36q29 -104 111 -104q49 0 75 38.5t26 108.5q0 97 -2.5 324.5t-2.5 317.5q0 89 43.5 139.5t111.5 50.5q54 0 90.5 -31t36.5 -68q0 -28 -27 -36q-29 104 -111 104q-49 0 -75 -38.5t-26 -108.5 q0 -98 2.5 -320.5t2.5 -321.5z" />
<glyph unicode="&#x2248;" d="M247 465q-12 0 -76 -62l-22 15q71 88 108 88q17 0 111.5 -27.5t114.5 -27.5q12 0 76 62l22 -15q-69 -88 -108 -88q-17 0 -113.5 27.5t-112.5 27.5zM206 271q-12 0 -76 -62l-22 15q71 88 108 88q17 0 111.5 -27.5t114.5 -27.5q12 0 76 62l22 -15q-69 -88 -108 -88 q-17 0 -113.5 27.5t-112.5 27.5z" />
<glyph unicode="&#x2260;" d="M162 114l77 112h-128l8 35q40 1 146 3l106 155h-219l8 35q49 2 237 4l87 127l11 3l26 -15l-79 -115q47 1 121 1l6 -8l-12 -32h-143l-106 -155q162 2 214 2l6 -8l-12 -32h-235l-90 -130z" />
<glyph unicode="&#x2264;" horiz-adv-x="580" d="M167 393l446 200l-10 -49l-368 -163l301 -153l-10 -45q-28 15 -173 89.5t-190 101.5zM491 83h-405l7 35q152 5 403 5l7 -8z" />
<glyph unicode="&#x2265;" d="M553 383l-446 -200l10 49l368 163l-301 153l10 45q28 -15 173 -89.5t190 -101.5zM500 83h-405l7 35q152 5 403 5l7 -8z" />
<glyph unicode="&#x25ca;" horiz-adv-x="615" d="M122 330l5 25l285 333l55 5l147 -338l-6 -27l-287 -331l-55 -5zM431 653l-266 -312l130 -303l9 1l267 303l-131 311h-9z" />
<glyph unicode="&#x25fc;" horiz-adv-x="510" d="M0 510h510v-510h-510v510z" />
<glyph unicode="&#xa7b6;" horiz-adv-x="759" d="M302 0h-268q3 68 30 155h15v-35q-1 -49 3 -79q39 -11 108 -11h74q-89 103 -89 254q0 101 44.5 195t125.5 155t176 61q91 0 142.5 -63t51.5 -170q0 -127 -61 -241t-166 -191h72q68 0 112 11q15 29 37 79l14 35h15q-16 -106 -36 -155h-268l-3 30q110 73 174 186.5t64 241.5 q0 92 -40.5 147t-113.5 55q-83 0 -152 -58t-106 -143.5t-37 -173.5q0 -156 99 -255z" />
<glyph unicode="&#xfb01;" horiz-adv-x="486" d="M138 -8q-25 -116 -73.5 -181.5t-117.5 -65.5q-37 0 -61 17.5t-24 42.5q0 21 17 30q41 -57 90 -57q48 0 75.5 49t49.5 153l102 480h-72l2 12l76 18l4 18q26 119 78 183t123 64q42 0 71.5 -28.5t29.5 -68.5q0 -16 -9 -25.5t-25 -7.5q-14 97 -82 97q-55 0 -86.5 -49 t-56.5 -153l-6 -30h164q72 0 72 -56q0 -22 -12.5 -78.5t-31.5 -133t-25 -102.5q-10 -50 -10 -63q0 -27 18 -27q29 0 98 102l8 -5q-25 -55 -57 -96t-65 -41q-43 0 -43 56q0 21 11 74q7 34 25.5 107t30.5 126t12 70q0 37 -45 37h-157z" />
<glyph unicode="&#xfb02;" horiz-adv-x="518" d="M138 -8q-25 -116 -73.5 -181.5t-117.5 -65.5q-37 0 -61 17.5t-24 42.5q0 21 17 30q41 -57 90 -57q48 0 75.5 49t49.5 153l102 480h-72l2 12l76 18l4 18q25 117 86.5 182t145.5 65q34 0 55 -13l45 12l8 -8l-137 -626q-10 -50 -10 -63q0 -27 18 -27q29 0 98 102l8 -5 q-25 -55 -57 -96t-65 -41q-43 0 -43 56q0 21 11 74l125 566q-29 36 -78 36q-126 0 -167 -202l-6 -30h130l-6 -30h-131z" />
<glyph unicode="&#xfb06;" horiz-adv-x="656" d="M322 127q0 -59 -40.5 -98t-105.5 -39q-53 0 -88 28t-35 71q0 54 49 92l7 -5q-18 -39 -18 -76q0 -36 26.5 -58t66.5 -22q42 0 69 25t27 70q0 29 -16 56t-38 49.5t-44.5 45.5t-38.5 53t-16 63q0 52 41.5 87.5t101.5 35.5q22 0 38 -4q6 98 64 163.5t143 65.5 q47 0 74.5 -28.5t27.5 -73.5q0 -72 -72 -138h173l-6 -30h-155l-67 -312q-7 -32 -7 -62q0 -61 44 -61q58 0 147 107l8 -5q-78 -137 -170 -137q-32 0 -50.5 24t-18.5 67q0 33 7 67l66 312h-86l3 20q67 12 106.5 53t39.5 89q0 35 -20.5 55.5t-54.5 20.5q-71 0 -118 -61 t-52 -146q41 -23 41 -67q0 -19 -8 -31.5t-21 -12.5q-16 0 -27 22.5t-12 63.5q-18 11 -42 11q-40 0 -68 -25.5t-28 -64.5q0 -29 16 -56.5t38 -50.5t44.5 -46t38.5 -51t16 -56z" />
<glyph horiz-adv-x="379" d="M364 29q-49 -107 -96 -107q-35 0 -35 45q0 17 9 58l22 105q-98 -208 -168 -208q-23 0 -38 23.5t-15 65.5q0 123 68 218t154 95q41 0 71 -16v-1l-61 -282q-7 -37 -7 -46q0 -25 14 -25q23 0 75 79zM78 13q0 -26 8 -42t21 -16q34 0 92 94t82 163l17 76q-27 12 -56 12 q-59 0 -111.5 -87.5t-52.5 -199.5z" />
<glyph horiz-adv-x="350" d="M277 324q55 0 55 -99q0 -120 -58.5 -211.5t-135.5 -91.5q-34 0 -88 17l1 1l103 485l11 56l-58 9v8q58 16 92 21l6 -6l-18 -88q-12 -56 -62 -291q1 2 13 27.5t17.5 36t18.5 34.5t23 36.5t23.5 27.5t28 21.5t28.5 6.5zM265 292q-56 0 -156 -235l-21 -98q29 -12 62 -12 q61 0 104 85.5t43 192.5q0 67 -32 67z" />
<glyph horiz-adv-x="283" d="M235 324q29 0 44.5 -18.5t15.5 -49.5q0 -23 -11 -42t-26 -19q-6 0 -10 3q15 26 15 55q0 46 -39 46q-50 0 -95 -80.5t-45 -171.5q0 -96 62 -96q45 0 113 83l7 -4q-60 -108 -130 -108q-87 0 -87 122q0 106 58.5 193t127.5 87z" />
<glyph horiz-adv-x="379" d="M275 25q-7 -42 -7 -50q0 -21 14 -21q23 0 75 79l7 -4q-49 -107 -96 -107q-34 0 -34 50q0 15 8 53l24 110q-98 -213 -170 -213q-23 0 -38 23t-15 64q0 124 67.5 219.5t154.5 95.5q19 0 41 -5l23 106l11 56l-74 9v8q34 9 108 21l6 -6l-18 -88zM78 10q0 -24 8 -39.5 t21 -15.5q37 0 101 108t77 162l14 63q-27 13 -57 13q-61 0 -112.5 -88.5t-51.5 -202.5z" />
<glyph horiz-adv-x="290" d="M262 30q-59 -108 -130 -108q-82 0 -82 128q0 101 57.5 187.5t125.5 86.5q29 0 44 -16.5t15 -44.5q0 -62 -63.5 -103.5t-137.5 -46.5q-6 -31 -6 -63q0 -46 15 -72.5t43 -26.5q45 0 113 83zM224 299q-39 0 -75.5 -48.5t-53.5 -118.5q70 7 116 44.5t46 86.5q0 16 -9 26 t-24 10z" />
<glyph horiz-adv-x="195" d="M73 -76q-18 -91 -56.5 -142t-92.5 -51q-29 0 -48 14t-19 33q0 17 13 24q33 -45 70 -45t58.5 38t38.5 120l76 374h-56l2 9l59 15l3 14q19 92 57.5 142.5t91.5 50.5q29 0 48 -14t19 -34q0 -17 -14 -24q-33 45 -71 45q-37 0 -58 -38t-37 -119l-5 -23h102l-5 -24h-102z" />
<glyph horiz-adv-x="288" d="M188 324q96 0 142 10q4 -8 4 -14q0 -25 -30 -25q-24 0 -73 10q33 -26 33 -77q0 -42 -16 -79t-38 -62t-44.5 -45.5t-38.5 -36.5t-16 -26t8.5 -17.5t28.5 -19.5q36 -22 52 -33t28.5 -28t12.5 -37q0 -42 -43.5 -77.5t-119.5 -35.5q-54 0 -86.5 24.5t-32.5 60.5q0 47 64 92 l7 -6q-37 -42 -37 -78q0 -32 28.5 -50t69.5 -18q50 0 83 23t33 56q0 21 -15 37t-52 38q-3 2 -10.5 6t-10.5 6l-9 6t-8.5 6t-7 5t-6.5 5.5t-5 6t-4 6.5t-2 7t-1 8q0 9 8 20.5t17.5 20t32.5 27.5q8 6 12 10q-4 -1 -12 -1q-39 0 -62.5 28.5t-23.5 75.5q0 69 42 120t98 51z M82 157q0 -39 16 -62.5t42 -23.5q36 0 63 47t27 110q-2 73 -52 73q-38 0 -67 -44.5t-29 -99.5z" />
<glyph horiz-adv-x="381" d="M199 519l6 -6l-18 -87q-36 -171 -66 -299q51 103 90.5 150t74.5 47q22 0 33.5 -15.5t11.5 -39.5q0 -37 -31 -154.5t-31 -139.5q0 -21 14 -21q23 0 75 79l7 -4q-49 -107 -95 -107q-35 0 -35 45q0 31 31 146t31 147t-24 32q-35 0 -84 -80t-79 -154l-28 -130q-18 -6 -27 -6 q-6 0 -6 7l116 553l-58 8v8q30 9 92 21z" />
<glyph horiz-adv-x="196" d="M189 412q-23 0 -23 29q0 18 10.5 30.5t24.5 12.5q10 0 16.5 -7t6.5 -17q0 -20 -10 -34t-25 -14zM56 214l-7 4q19 42 44 74t51 32q35 0 35 -44q0 -28 -30.5 -156t-30.5 -149t14 -21q23 0 75 79l7 -4q-49 -107 -96 -107q-34 0 -34 48q0 29 30.5 154.5t30.5 146.5t-14 21 q-20 0 -75 -78z" />
<glyph horiz-adv-x="226" d="M192 412q-11 0 -17.5 7t-6.5 18q0 20 10 33.5t25 13.5q11 0 17.5 -7t6.5 -17q0 -20 -10 -34t-25 -14zM-11 -269q-29 0 -48.5 14t-19.5 33q0 16 14 24q33 -45 70 -45t58 38t38 120q71 339 71 354q0 23 -14 23q-21 0 -76 -78l-6 3q48 107 95 107q35 0 35 -44 q0 -20 -68 -356q-18 -91 -56.5 -142t-92.5 -51z" />
<glyph horiz-adv-x="361" d="M199 519l6 -6l-18 -88q-62 -278 -66 -296q92 195 177 195q28 0 42.5 -16t14.5 -40q0 -51 -52 -97t-110 -69q36 -87 56 -117.5t35 -30.5q21 0 75 79l7 -4q-19 -41 -44.5 -74t-49.5 -33q-26 0 -50 38t-61 141l4 7q59 21 107 64t48 92q0 32 -30 32q-81 0 -181 -238l-28 -130 l-12 -3q-12 -3 -15 -3q-7 0 -5 7l116 552l-58 9v8q58 16 92 21z" />
<glyph horiz-adv-x="206" d="M102 25q-9 -42 -8 -50q2 -21 15 -21q23 0 75 79l7 -4q-51 -107 -96 -107q-35 0 -35 45q0 17 9 58l85 400l11 56l-58 9v8q58 16 92 21l6 -6l-18 -88z" />
<glyph horiz-adv-x="580" d="M51 214l-7 4q18 41 44 73.5t52 32.5q34 0 34 -44q0 -29 -25 -137q57 107 88 141q37 39 71 40q22 0 33 -16.5t11 -41.5q0 -30 -26 -128q24 50 44 84t52.5 68t61.5 34q22 0 33.5 -15.5t11.5 -39.5q0 -36 -31 -153.5t-31 -140.5q0 -21 14 -21q22 0 76 79l7 -4 q-19 -42 -44.5 -74.5t-51.5 -32.5q-35 0 -35 45q0 32 31 148t31 147q0 30 -24 30q-19 0 -44.5 -27t-49 -67.5t-41.5 -76.5t-29 -64l-28 -129l-14 -3q-9 -3 -14 -3q-6 0 -6 7q0 2 2 10q72 292 72 323q0 30 -24 30q-35 0 -83.5 -79t-80.5 -155l-27 -130l-12 -3q-12 -3 -15 -3 q-5 0 -5 7t1 10q68 273 68 329q0 24 -14 24q-21 0 -76 -78z" />
<glyph horiz-adv-x="403" d="M51 213l-7 4q50 107 96 107q33 0 33 -46q0 -26 -27 -146q20 40 32 62t35.5 58t46.5 54t46 18t34.5 -15.5t11.5 -39.5q0 -36 -31 -153.5t-31 -140.5q0 -21 15 -21q23 0 75 79l7 -4q-51 -107 -96 -107q-35 0 -35 45q0 32 31 148t31 147q0 30 -25 30q-24 0 -59 -46 t-59.5 -94t-42.5 -92l-28 -132l-14 -4q-7 -2 -13 -2t-6 7q0 2 2 10q12 47 40 177t28 153t-15 23q-22 0 -75 -79z" />
<glyph horiz-adv-x="330" d="M304 185q0 -107 -49 -185t-113 -78q-40 0 -64.5 38t-24.5 98q0 104 50 185t113 81q43 0 65.5 -36.5t22.5 -102.5zM87 67q0 -56 16.5 -88t44.5 -32q50 0 85.5 75t35.5 171q0 106 -57 106q-49 0 -87 -73.5t-38 -158.5z" />
<glyph horiz-adv-x="371" d="M50 -267q-8 -2 -14 -2q-8 0 -6 7l102 482q8 38 8 51q0 21 -14 21q-20 0 -75 -78l-7 4q19 42 44 74t51 32q35 0 35 -44q0 -22 -27 -146q1 2 13 27.5t17.5 36t18.5 34.5t23 36.5t23.5 27.5t28 21.5t28.5 6.5q55 0 55 -94q0 -122 -58 -215t-136 -93q-29 0 -56 8l-41 -194z M287 292q-18 0 -41.5 -26.5t-47 -69.5t-39 -75.5t-28.5 -64.5l-21 -97q31 -12 62 -12q61 0 104 86.5t43 194.5q0 64 -32 64z" />
<glyph horiz-adv-x="349" d="M202 -267q-8 -2 -14 -2q-8 0 -6 7l84 396q-100 -212 -170 -212q-23 0 -38 23.5t-15 65.5q0 123 68 218t154 95q41 0 71 -16v-1l-121 -571zM78 13q0 -26 8 -42t21 -16q35 0 94.5 97.5t81.5 164.5l16 71q-29 12 -57 12q-59 0 -111.5 -87.5t-52.5 -199.5z" />
<glyph horiz-adv-x="305" d="M91 -75q-12 -3 -14 -3q-8 0 -6 7l21 96q49 225 49 246t-14 21q-21 0 -76 -78l-7 4q18 41 44 73.5t52 32.5q34 0 34 -44q0 -26 -24 -135q23 50 40.5 83t47 64.5t56.5 31.5q17 0 27.5 -8.5t11.5 -21.5q0 -18 -14 -30q-21 23 -39 23q-36 0 -88 -95.5t-61 -136.5l-27 -127z " />
<glyph horiz-adv-x="298" d="M246 30q0 -47 -32 -77.5t-83 -30.5q-42 0 -69.5 22t-27.5 55q0 43 38 72l7 -4q-14 -28 -14 -59q0 -27 20.5 -43.5t52.5 -16.5t52.5 18t20.5 51q0 28 -19 55.5t-41.5 47t-41.5 49t-19 61.5q0 40 30 67t74 27q39 0 62.5 -19t23.5 -47q0 -42 -32 -76l-7 5q9 31 9 53 q0 60 -59 60q-28 0 -47 -18.5t-19 -48.5q0 -27 19 -54.5t41.5 -47t41.5 -47t19 -54.5z" />
<glyph horiz-adv-x="251" d="M125 -78q-25 0 -40 19.5t-15 52.5q0 24 6 52l52 243h-67l2 9l70 15l45 116l10 -1l-24 -115h123l-4 -24h-124l-52 -243q-6 -27 -6 -48q0 -47 35 -47q47 0 114 83l6 -4q-59 -108 -131 -108z" />
<glyph horiz-adv-x="411" d="M396 29q-49 -107 -95 -107q-35 0 -35 45q0 19 27 146q-93 -191 -161 -191q-21 0 -32.5 16t-11.5 40q0 34 30.5 150.5t30.5 142.5q0 21 -14 21q-7 0 -15.5 -6t-20.5 -20.5t-18.5 -23.5t-20.5 -29l-7 4q48 107 95 107q35 0 35 -44q0 -31 -31 -148t-31 -147t21 -30 q33 0 85 80.5t81 151.5l28 132l12 3q8 2 15 2t5 -8l-61 -291q-8 -38 -8 -50q0 -21 15 -21q23 0 75 79z" />
<glyph horiz-adv-x="302" d="M104 -70h-9q17 275 17 300q-2 62 -26 62t-78 -79l-7 4q49 107 97 107q45 0 45 -87q-2 -104 -16 -254q61 81 101.5 170.5t40.5 147.5v19q5 4 15 4q23 0 23 -28q0 -52 -65 -170.5t-138 -195.5z" />
<glyph horiz-adv-x="480" d="M282 230v11q-25 -80 -72 -163.5t-107 -147.5h-9q17 268 17 300q-2 62 -26 62t-78 -79l-6 4q49 107 96 107q45 0 45 -87q0 -101 -16 -254q66 88 103.5 177.5t44.5 160.5v1q4 2 14 2q14 0 19.5 -15t6.5 -60q0 -90 -16 -264q65 86 107.5 173.5t41.5 149.5v12q5 4 16 4 q23 0 23 -24q0 -50 -68.5 -171t-142.5 -199h-10q18 253 17 300z" />
<glyph horiz-adv-x="334" d="M215 51q15 -61 22 -79t18 -18q17 0 67 79l6 -4q-46 -107 -84 -107q-21 0 -31.5 24t-30.5 105l-14 57q-32 -35 -50 -57t-34.5 -54.5t-16.5 -59.5v-15q-8 -4 -15 -4q-21 0 -21 25q0 50 132 184l-16 68q-15 61 -22 79t-18 18q-19 0 -67 -78l-6 3q45 107 84 107 q21 0 31.5 -24t30.5 -105l13 -53q33 36 50 57t33.5 53t16.5 60q0 9 -1 12q6 4 15 4q21 0 21 -25q0 -53 -130 -181z" />
<glyph horiz-adv-x="329" d="M114 324q56 0 56 -131q0 -118 -39 -250q74 68 115.5 154t41.5 178q0 27 -3 45q4 4 14 4q27 0 27 -47q0 -83 -55.5 -188t-150.5 -180q-61 -178 -156 -178q-26 0 -41.5 11.5t-15.5 27.5q0 15 13 24q23 -33 56 -33q75 0 123 168q36 126 36 254q0 109 -32 109q-22 0 -68 -79 l-7 4q16 43 39 75t47 32z" />
<glyph horiz-adv-x="314" d="M82 -54q-32 0 -56 -24l-14 15q27 35 77.5 100.5t87.5 115t72 100.5q-74 36 -114 36q-20 0 -34.5 -17t-37.5 -60l-7 4q25 75 36 90q13 18 34 18q49 0 133 -55q3 4 16.5 24t20.5 31q20 -4 20 -20q0 -11 -14 -31q-34 -50 -70.5 -97t-90.5 -113t-81 -100q20 8 42 8 q12 0 55.5 -8t54.5 -8q15 0 37 32q11 16 30 47l7 -4q-10 -29 -22 -54q-24 -54 -49 -54q-16 0 -65.5 12t-67.5 12z" />
<glyph horiz-adv-x="379" d="M455 458q-49 -107 -96 -107q-35 0 -35 45q0 18 9 58l22 105q-98 -208 -168 -208q-23 0 -38 23.5t-15 65.5q0 123 68 218t154 95q41 0 71 -16v-1l-61 -282q-7 -37 -7 -46q0 -25 14 -25q23 0 75 79zM169 442q0 -26 8 -42t21 -16q34 0 92 94t82 163l17 76q-27 12 -56 12 q-59 0 -111.5 -87.5t-52.5 -199.5z" />
<glyph horiz-adv-x="349" d="M368 753q55 0 55 -99q0 -120 -58.5 -211.5t-135.5 -91.5q-34 0 -88 17l1 1l103 485l11 56l-58 9v8q58 16 92 21l6 -6l-18 -88q-12 -56 -62 -291q1 2 13 27.5t17.5 36t18.5 34.5t23 36.5t23.5 27.5t28 21.5t28.5 6.5zM356 721q-56 0 -156 -235l-21 -98q29 -12 62 -12 q61 0 104 85.5t43 192.5q0 67 -32 67z" />
<glyph horiz-adv-x="282" d="M326 753q29 0 44.5 -18.5t15.5 -49.5q0 -23 -11 -42t-26 -19q-5 0 -10 3q15 26 15 55q0 46 -39 46q-50 0 -95 -80.5t-45 -171.5q0 -96 62 -96q45 0 113 83l7 -4q-60 -108 -130 -108q-87 0 -87 122q0 106 58.5 193t127.5 87z" />
<glyph horiz-adv-x="379" d="M366 454q-7 -42 -7 -50q0 -21 14 -21q23 0 75 79l7 -4q-49 -107 -96 -107q-34 0 -34 50q0 15 8 53l24 110q-98 -213 -170 -213q-23 0 -38 23t-15 64q0 124 67.5 219.5t154.5 95.5q19 0 41 -5l23 106l11 56l-74 9v8q34 9 108 21l6 -6l-18 -88zM169 439q0 -24 8 -39.5 t21 -15.5q37 0 101 108t77 162l14 63q-27 13 -57 13q-61 0 -112.5 -88.5t-51.5 -202.5z" />
<glyph horiz-adv-x="289" d="M353 459q-59 -108 -130 -108q-82 0 -82 128q0 101 57.5 187.5t125.5 86.5q29 0 44 -16.5t15 -44.5q0 -62 -63.5 -103.5t-137.5 -46.5q-6 -32 -6 -63q0 -46 15 -72.5t43 -26.5q45 0 113 83zM315 728q-39 0 -75.5 -48.5t-53.5 -118.5q70 7 116 44.5t46 86.5q0 16 -9 26 t-24 10z" />
<glyph horiz-adv-x="195" d="M164 353q-18 -91 -56.5 -142t-92.5 -51q-29 0 -48 14t-19 33q0 17 13 24q33 -45 70 -45t58.5 38t38.5 120l76 374h-56l2 9l59 15l3 14q19 92 57.5 142.5t91.5 50.5q29 0 48 -14t19 -34q0 -17 -14 -24q-33 45 -71 45q-37 0 -58 -38t-37 -119l-5 -23h102l-5 -24h-102z" />
<glyph horiz-adv-x="289" d="M280 753q96 0 142 10q4 -8 4 -14q0 -25 -30 -25q-24 0 -73 10q33 -26 33 -77q0 -42 -16 -79t-38 -62t-44.5 -45.5t-38.5 -36.5t-16 -26t8.5 -17.5t28.5 -19.5q36 -22 52 -33t28.5 -28t12.5 -37q0 -42 -43.5 -77.5t-119.5 -35.5q-54 0 -86.5 24.5t-32.5 60.5q0 47 64 92 l7 -6q-37 -42 -37 -78q0 -32 28.5 -50t69.5 -18q50 0 83 23t33 56q0 21 -15 37t-52 38q-3 2 -10.5 6t-10.5 6l-9 6t-8.5 6t-7 5t-6.5 5.5t-5 6t-4 6.5t-2 7t-1 8q0 9 8 20.5t17.5 20t32.5 27.5q2 2 3.5 3t4 3t4.5 4q-4 -1 -12 -1q-39 0 -62.5 28.5t-23.5 75.5q0 69 42 120 t98 51zM174 586q0 -39 16 -62.5t42 -23.5q36 0 63 47t27 110q-2 73 -52 73q-38 0 -67 -44.5t-29 -99.5z" />
<glyph horiz-adv-x="381" d="M290 948l6 -6l-18 -87q-36 -171 -66 -299q51 103 90.5 150t74.5 47q22 0 33.5 -15.5t11.5 -39.5q0 -36 -31 -154t-31 -140q0 -21 14 -21q23 0 75 79l7 -4q-49 -107 -95 -107q-35 0 -35 45q0 31 31 146.5t31 146.5q0 32 -24 32q-35 0 -84 -80t-79 -154l-28 -130 q-18 -6 -27 -6q-6 0 -6 7l116 553l-58 8v8q30 9 92 21z" />
<glyph horiz-adv-x="227" d="M284 841q-11 0 -17.5 7t-6.5 18q0 20 10 33.5t25 13.5q11 0 17.5 -6.5t6.5 -17.5q0 -20 -10 -34t-25 -14zM81 160q-29 0 -48.5 14t-19.5 33q0 16 14 24q33 -45 70 -45t58 38t38 120q71 339 71 354q0 23 -14 23q-21 0 -76 -78l-6 3q48 107 95 107q35 0 35 -44 q0 -20 -68 -356q-18 -91 -56.5 -142t-92.5 -51z" />
<glyph horiz-adv-x="361" d="M290 948l6 -6l-18 -88q-62 -278 -66 -296q92 195 177 195q28 0 42.5 -16t14.5 -40q0 -51 -52 -97t-110 -69q36 -87 56 -117.5t35 -30.5q21 0 75 79l7 -4q-19 -41 -44.5 -74t-49.5 -33q-26 0 -50 38t-61 141l4 7q59 21 107 64t48 92q0 32 -30 32q-81 0 -181 -238l-28 -130 l-12 -3q-12 -3 -15 -3q-7 0 -5 7l116 552l-58 9v8q58 16 92 21z" />
<glyph horiz-adv-x="206" d="M193 454q-9 -42 -8 -50q2 -21 15 -21q23 0 75 79l7 -4q-51 -107 -96 -107q-35 0 -35 45q0 18 9 58l85 400l11 56l-58 9v8q58 16 92 21l6 -6l-18 -88z" />
<glyph horiz-adv-x="581" d="M143 643l-7 4q18 41 44 73.5t52 32.5q34 0 34 -44q0 -29 -25 -137q57 107 88 141q37 39 71 40q22 0 33 -16.5t11 -41.5q0 -31 -26 -128q24 50 44 84t52.5 68t61.5 34q22 0 33.5 -15.5t11.5 -39.5q0 -36 -31 -153.5t-31 -140.5q0 -21 14 -21q22 0 76 79l7 -4 q-19 -42 -44.5 -74.5t-51.5 -32.5q-35 0 -35 45q0 32 31 148t31 147q0 30 -24 30q-19 0 -44.5 -27t-49 -67.5t-41.5 -76.5t-29 -64l-28 -129l-14 -3q-9 -3 -14 -3q-6 0 -6 7q0 2 2 10q72 292 72 323q0 30 -24 30q-35 0 -83.5 -79t-80.5 -155l-27 -130l-12 -3q-12 -3 -15 -3 q-5 0 -5 7t1 10q68 273 68 329q0 24 -14 24q-21 0 -76 -78z" />
<glyph horiz-adv-x="329" d="M395 614q0 -107 -49 -185t-113 -78q-40 0 -64.5 38t-24.5 98q0 104 50 185t113 81q43 0 65.5 -36.5t22.5 -102.5zM178 496q0 -56 16.5 -88t44.5 -32q50 0 85.5 75t35.5 171q0 106 -57 106q-49 0 -87 -73.5t-38 -158.5z" />
<glyph horiz-adv-x="372" d="M142 162q-8 -2 -14 -2q-8 0 -6 7l102 482q8 38 8 51q0 21 -14 21q-20 0 -75 -78l-7 4q19 42 44 74t51 32q35 0 35 -44q0 -22 -27 -146q1 2 13 27.5t17.5 36t18.5 34.5t23 36.5t23.5 27.5t28 21.5t28.5 6.5q55 0 55 -94q0 -122 -58 -215t-136 -93q-29 0 -56 8l-41 -194z M379 721q-18 0 -41.5 -26.5t-47 -69.5t-39 -75.5t-28.5 -64.5l-21 -97q31 -12 62 -12q61 0 104 86.5t43 194.5q0 64 -32 64z" />
<glyph horiz-adv-x="349" d="M293 162q-8 -2 -14 -2q-8 0 -6 7l84 396q-100 -212 -170 -212q-23 0 -38 23.5t-15 65.5q0 123 68 218t154 95q41 0 71 -16v-1l-121 -571zM169 442q0 -26 8 -42t21 -16q35 0 94.5 97.5t81.5 164.5l16 71q-28 12 -57 12q-59 0 -111.5 -87.5t-52.5 -199.5z" />
<glyph horiz-adv-x="306" d="M183 354q-12 -3 -14 -3q-8 0 -6 7l21 96q49 225 49 246t-14 21q-21 0 -76 -78l-7 4q18 41 44 73.5t52 32.5q34 0 34 -44q0 -26 -24 -135q23 50 40.5 83t47 64.5t56.5 31.5q17 0 27.5 -8.5t11.5 -21.5q0 -18 -14 -30q-21 23 -39 23q-36 0 -88 -95.5t-61 -136.5l-27 -127z " />
<glyph horiz-adv-x="298" d="M337 459q0 -47 -32 -77.5t-83 -30.5q-42 0 -69.5 22t-27.5 55q0 44 38 72l7 -4q-14 -28 -14 -59q0 -27 20.5 -43.5t52.5 -16.5t52.5 18t20.5 51q0 28 -19 55.5t-41.5 47t-41.5 49t-19 61.5q0 40 30 67t74 27q39 0 62.5 -19t23.5 -47q0 -42 -32 -76l-7 5q9 32 9 53 q0 60 -59 60q-28 0 -47 -18.5t-19 -48.5q0 -27 19 -54.5t41.5 -47t41.5 -47t19 -54.5z" />
<glyph horiz-adv-x="251" d="M217 351q-25 0 -40 19.5t-15 52.5q0 23 6 52l52 243h-67l2 9l70 15l45 116l10 -1l-24 -115h123l-4 -24h-124l-52 -243q-6 -27 -6 -48q0 -47 35 -47q47 0 114 83l6 -4q-59 -108 -131 -108z" />
<glyph horiz-adv-x="411" d="M487 458q-49 -107 -95 -107q-35 0 -35 45q0 19 27 146q-93 -191 -161 -191q-21 0 -32.5 16t-11.5 40q0 34 30.5 150.5t30.5 142.5q0 21 -14 21q-7 0 -15.5 -6t-20.5 -20.5t-18.5 -23.5t-20.5 -29l-7 4q48 107 95 107q35 0 35 -44q0 -31 -31 -148t-31 -147t21 -30 q33 0 85 80.5t81 151.5l28 132l12 3q8 2 15 2t5 -8l-61 -291q-8 -38 -8 -50q0 -21 15 -21q23 0 75 79z" />
<glyph horiz-adv-x="302" d="M195 359h-9q17 275 17 300q-2 62 -26 62t-78 -79l-7 4q49 107 97 107q45 0 45 -87q-2 -104 -16 -254q61 81 101.5 170.5t40.5 147.5v19q5 4 15 4q23 0 23 -28q0 -52 -65 -170.5t-138 -195.5z" />
<glyph horiz-adv-x="480" d="M373 659v11q-25 -80 -72 -163.5t-107 -147.5h-9q17 268 17 300q-2 62 -26 62t-78 -79l-6 4q49 107 96 107q45 0 45 -87q0 -101 -16 -254q66 88 103.5 177.5t44.5 160.5v1q4 2 14 2q14 0 19.5 -15t6.5 -60q0 -90 -16 -264q65 86 107.5 173.5t41.5 149.5v12q5 4 16 4 q23 0 23 -24q0 -50 -68.5 -171t-142.5 -199h-10q18 253 17 300z" />
<glyph horiz-adv-x="334" d="M306 480q15 -61 22 -79t18 -18q17 0 67 79l6 -4q-46 -107 -84 -107q-21 0 -31.5 24t-30.5 105l-14 57q-32 -35 -50 -57t-34.5 -54.5t-16.5 -59.5v-15q-8 -4 -15 -4q-21 0 -21 25q0 50 132 184l-16 68q-15 61 -22 79t-18 18q-19 0 -67 -78l-6 3q45 107 84 107 q21 0 31.5 -24t30.5 -105l13 -53q33 36 50 57t33.5 53t16.5 60q0 9 -1 12q6 4 15 4q21 0 21 -25q0 -53 -130 -181z" />
<glyph horiz-adv-x="329" d="M205 753q56 0 56 -131q0 -118 -39 -250q74 68 115.5 154t41.5 178q0 27 -3 45q4 4 14 4q27 0 27 -47q0 -83 -55.5 -188t-150.5 -180q-61 -178 -156 -178q-26 0 -41.5 11.5t-15.5 27.5q0 15 13 24q23 -33 56 -33q75 0 123 168q36 126 36 254q0 109 -32 109q-22 0 -68 -79 l-7 4q16 43 39 75t47 32z" />
<glyph horiz-adv-x="313" d="M173 375q-32 0 -56 -24l-14 15q27 35 77.5 100.5t87.5 115t72 100.5q-74 36 -114 36q-20 0 -34.5 -17t-37.5 -60l-7 4q25 75 36 90q13 18 34 18q49 0 133 -55q3 4 16.5 24t20.5 31q20 -4 20 -20q0 -11 -14 -31q-34 -50 -70.5 -97t-90.5 -113t-81 -100q20 8 42 8 q12 0 55.5 -8t54.5 -8q15 0 37 32q11 16 30 47l7 -4q-10 -29 -22 -54q-24 -54 -49 -54q-16 0 -65.5 12t-67.5 12z" />
<glyph horiz-adv-x="822" d="M346 127q-78 -137 -166 -137q-108 0 -108 150q0 138 75.5 251.5t163.5 113.5q8 0 18 -2q23 98 101.5 169t188.5 83l8 -8l-24 -112q-49 -224 -88 -385q67 134 117.5 194.5t95.5 60.5q28 0 42 -20t14 -51q0 -28 -11.5 -79.5t-33.5 -132t-27 -102.5q-10 -50 -10 -63 q0 -27 18 -27q29 0 98 102l8 -5q-25 -55 -57 -96t-65 -41q-43 0 -43 56q0 21 11 74q8 35 27.5 105.5t32 123t12.5 77.5q0 39 -31 39q-32 0 -78.5 -60.5t-79 -123t-55.5 -117.5l-10 -44l-26 -123l-16 -4q-12 -3 -17 -3q-9 0 -5 21l24 109l131 596q-79 -16 -142.5 -75 t-82.5 -148q30 -19 30 -59q0 -24 -9.5 -39t-24.5 -15q-14 0 -22.5 15t-8.5 39q0 11 2 35q-8 4 -20 4q-46 0 -90 -49.5t-71.5 -127t-27.5 -155.5q0 -116 78 -116q57 0 146 107z" />
<glyph horiz-adv-x="660" d="M346 127q-78 -137 -166 -137q-108 0 -108 150q0 138 75.5 251.5t163.5 113.5h8q8 97 63.5 161t136.5 64q47 0 74.5 -28.5t27.5 -73.5q0 -72 -72 -138h173l-6 -30h-155l-67 -312q-7 -32 -7 -62q0 -61 44 -61q58 0 147 107l8 -5q-78 -137 -170 -137q-32 0 -50.5 24 t-18.5 67q0 33 7 67l66 312h-86l3 20q67 12 106.5 53t39.5 89q0 35 -20.5 55.5t-54.5 20.5q-67 0 -112 -59t-50 -141q40 -20 40 -74q0 -19 -8 -31.5t-21 -12.5q-36 0 -39 90q-8 3 -15 3q-46 0 -90 -49.5t-71.5 -127t-27.5 -155.5q0 -116 78 -116q57 0 146 107z" />
<glyph horiz-adv-x="811" d="M322 127q0 -59 -40.5 -98t-105.5 -39q-53 0 -88 28t-35 71q0 54 49 92l7 -5q-18 -39 -18 -76q0 -36 26.5 -58t66.5 -22q42 0 69 25t27 70q0 29 -16 56t-38 49.5t-44.5 45.5t-38.5 53t-16 63q0 52 41.5 87.5t101.5 35.5q29 0 47 -7q22 100 101 172.5t190 84.5l8 -8 l-24 -112q-49 -224 -88 -385q67 134 117.5 194.5t95.5 60.5q28 0 42 -20t14 -51q0 -28 -11.5 -79.5t-33.5 -132t-27 -102.5q-10 -50 -10 -63q0 -27 18 -27q29 0 98 102l8 -5q-25 -55 -57 -96t-65 -41q-43 0 -43 56q0 21 11 74q8 35 27.5 105.5t32 123t12.5 77.5q0 39 -31 39 q-32 0 -78.5 -60.5t-79 -123t-55.5 -117.5l-10 -44l-26 -123l-16 -4q-12 -3 -17 -3q-9 0 -5 21l24 109l131 596q-81 -17 -145.5 -78t-81.5 -152q32 -23 32 -62q0 -19 -9.5 -31.5t-24.5 -12.5q-14 0 -22.5 15t-8.5 39q0 10 2 32q-17 11 -47 11q-40 0 -68 -25.5t-28 -64.5 q0 -29 16 -56.5t38 -50.5t44.5 -46t38.5 -51t16 -56z" />
<glyph horiz-adv-x="558" d="M368 537h24l73 -476q4 -29 24 -34l48 -11l-2 -16h-179l-3 16l75 18l-22 146l-212 -4l-83 -142l67 -18l-3 -16h-171l-2 16l47 13q25 7 39 32zM214 210h187l-39 254z" />
<glyph horiz-adv-x="558" d="M490 795l6 2h4q27 0 27 -20q0 -45 -203 -155l-9 15q128 97 175 158zM368 537h24l73 -476q4 -29 24 -34l48 -11l-2 -16h-179l-3 16l75 18l-22 146l-212 -4l-83 -142l67 -18l-3 -16h-171l-2 16l47 13q25 7 39 32zM214 210h187l-39 254z" />
<glyph horiz-adv-x="558" d="M522 769l4 2l14 -3q-52 -122 -148 -122q-44 0 -67.5 32t-21.5 90l17 3q3 -38 25 -60t59 -22q70 0 118 80zM368 537h24l73 -476q4 -29 24 -34l48 -11l-2 -16h-179l-3 16l75 18l-22 146l-212 -4l-83 -142l67 -18l-3 -16h-171l-2 16l47 13q25 7 39 32zM214 210h187l-39 254z " />
<glyph horiz-adv-x="558" d="M424 631l-6 -4h-41q-30 54 -75 154l16 10q57 -86 86 -120q58 54 145 120l10 -12q-88 -86 -135 -148zM368 537h24l73 -476q4 -29 24 -34l48 -11l-2 -16h-179l-3 16l75 18l-22 146l-212 -4l-83 -142l67 -18l-3 -16h-171l-2 16l47 13q25 7 39 32zM214 210h187l-39 254z" />
<glyph horiz-adv-x="558" d="M528 637l-16 -10q-54 78 -94 120q-59 -57 -137 -120l-9 12q86 90 126 148l7 4h41q44 -76 82 -154zM368 537h24l73 -476q4 -29 24 -34l48 -11l-2 -16h-179l-3 16l75 18l-22 146l-212 -4l-83 -142l67 -18l-3 -16h-171l-2 16l47 13q25 7 39 32zM214 210h187l-39 254z" />
<glyph horiz-adv-x="558" d="M543 719q0 -23 -12.5 -40t-28.5 -17q-29 0 -29 33q0 21 12 38.5t30 17.5q28 0 28 -32zM353 719q0 -23 -12.5 -40t-28.5 -17q-29 0 -29 33q0 21 12 38.5t30 17.5q28 0 28 -32zM368 537h24l73 -476q4 -29 24 -34l48 -11l-2 -16h-179l-3 16l75 18l-22 146l-212 -4l-83 -142 l67 -18l-3 -16h-171l-2 16l47 13q25 7 39 32zM214 210h187l-39 254z" />
<glyph horiz-adv-x="558" d="M368 537h24l73 -476q4 -29 24 -34l48 -11l-2 -16h-179l-3 16l75 18l-22 146l-212 -4l-83 -142l67 -18l-3 -16h-171l-2 16l47 13q25 7 39 32zM214 210h187l-39 254zM228 -212q-13 0 -21 8.5t-8 22.5q0 25 12.5 42t31.5 17q13 0 21 -8.5t8 -21.5q0 -26 -12.5 -43t-31.5 -17 z" />
<glyph horiz-adv-x="558" d="M495 633l-13 -11q-34 28 -50 41.5t-42 38t-36.5 42t-8.5 29.5q5 23 37 23h4l5 -2q22 -59 104 -161zM368 537h24l73 -476q4 -29 24 -34l48 -11l-2 -16h-179l-3 16l75 18l-22 146l-212 -4l-83 -142l67 -18l-3 -16h-171l-2 16l47 13q25 7 39 32zM214 210h187l-39 254z" />
<glyph horiz-adv-x="558" d="M289 694l8 34h234l-8 -34h-234zM368 537h24l73 -476q4 -29 24 -34l48 -11l-2 -16h-179l-3 16l75 18l-22 146l-212 -4l-83 -142l67 -18l-3 -16h-171l-2 16l47 13q25 7 39 32zM214 210h187l-39 254z" />
<glyph horiz-adv-x="558" d="M533 0q-61 -23 -98 -61t-37 -74q0 -17 9 -27t22 -10q34 0 92 68l8 -5q-48 -103 -112 -103q-62 0 -62 66q0 37 32 77t88 69h-119l-3 16l75 18l-22 146l-212 -4l-83 -142l67 -18l-3 -16h-171l-2 16l47 13q25 7 39 32l280 476h24l73 -476q4 -29 24 -34l48 -11l-2 -16h-2z M214 210h187l-39 254z" />
</font>
</defs>
</svg>
